<?xml version="1.0" encoding="utf-8" standalone="no"?>
<!DOCTYPE svg PUBLIC "-//W3C//DTD SVG 1.1//EN"
  "http://www.w3.org/Graphics/SVG/1.1/DTD/svg11.dtd">
<svg xmlns:xlink="http://www.w3.org/1999/xlink" width="308.964163pt" height="261.768437pt" viewBox="0 0 308.964163 261.768437" xmlns="http://www.w3.org/2000/svg" version="1.1">
 <metadata>
  <rdf:RDF xmlns:dc="http://purl.org/dc/elements/1.1/" xmlns:cc="http://creativecommons.org/ns#" xmlns:rdf="http://www.w3.org/1999/02/22-rdf-syntax-ns#">
   <cc:Work>
    <dc:type rdf:resource="http://purl.org/dc/dcmitype/StillImage"/>
    <dc:date>2024-01-11T19:21:59.424882</dc:date>
    <dc:format>image/svg+xml</dc:format>
    <dc:creator>
     <cc:Agent>
      <dc:title>Matplotlib v3.7.1, https://matplotlib.org/</dc:title>
     </cc:Agent>
    </dc:creator>
   </cc:Work>
  </rdf:RDF>
 </metadata>
 <defs>
  <style type="text/css">*{stroke-linejoin: round; stroke-linecap: butt}</style>
 </defs>
 <g id="figure_1">
  <g id="patch_1">
   <path d="M 0 261.768437 
L 308.964163 261.768437 
L 308.964163 0 
L 0 0 
z
" style="fill: #ffffff"/>
  </g>
  <g id="axes_1">
   <g id="patch_2">
    <path d="M 49.735625 221.707812 
L 298.131916 221.707812 
L 298.131916 25.587812 
L 49.735625 25.587812 
z
" style="fill: #ffffff"/>
   </g>
   <g id="matplotlib.axis_1">
    <g id="xtick_1">
     <g id="line2d_1">
      <path d="M 52.704626 221.707812 
L 52.704626 25.587812 
" clip-path="url(#pbf06e0a7ca)" style="fill: none; stroke-dasharray: 0.8,1.32; stroke-dashoffset: 0; stroke: #b0b0b0; stroke-width: 0.8"/>
     </g>
     <g id="line2d_2">
      <defs>
       <path id="m2cd8b08710" d="M 0 0 
L 0 3.5 
" style="stroke: #000000; stroke-width: 0.8"/>
      </defs>
      <g>
       <use xlink:href="#m2cd8b08710" x="52.704626" y="221.707812" style="stroke: #000000; stroke-width: 0.8"/>
      </g>
     </g>
     <g id="text_1">
      <!-- −60 -->
      <g transform="translate(42.737126 237.092812) scale(0.12 -0.12)">
       <defs>
        <path id="Cambria-2212" d="M 397 1613 
L 397 2047 
L 3147 2047 
L 3147 1613 
L 397 1613 
z
" transform="scale(0.015625)"/>
        <path id="Cambria-36" d="M 2847 4144 
L 2847 3991 
Q 2366 3991 1994 3784 
Q 1622 3578 1376 3178 
Q 1131 2778 1031 2228 
L 1063 2216 
Q 1325 2403 1579 2490 
Q 1834 2578 2131 2578 
Q 2484 2578 2732 2423 
Q 2981 2269 3106 1989 
Q 3231 1709 3231 1334 
Q 3231 928 3075 617 
Q 2919 306 2592 128 
Q 2266 -50 1788 -50 
Q 1103 -50 754 375 
Q 406 800 406 1628 
Q 406 2184 581 2668 
Q 756 3153 1078 3514 
Q 1400 3875 1825 4083 
Q 2250 4291 2719 4316 
L 2847 4144 
z
M 1916 2250 
Q 1763 2250 1620 2215 
Q 1478 2181 1353 2115 
Q 1228 2050 1109 1950 
Q 1072 1916 1053 1878 
Q 1022 1819 1012 1731 
Q 1003 1644 1003 1438 
Q 1003 841 1203 528 
Q 1403 216 1809 216 
Q 2044 216 2203 297 
Q 2363 378 2461 520 
Q 2559 663 2601 855 
Q 2644 1047 2644 1272 
Q 2644 1734 2453 1992 
Q 2263 2250 1916 2250 
z
" transform="scale(0.015625)"/>
        <path id="Cambria-30" d="M 1738 -50 
Q 1063 -50 733 481 
Q 403 1013 403 2094 
Q 403 2669 504 3087 
Q 606 3506 789 3779 
Q 972 4053 1228 4184 
Q 1484 4316 1788 4316 
Q 2472 4316 2806 3787 
Q 3141 3259 3141 2191 
Q 3141 1084 2783 517 
Q 2425 -50 1738 -50 
z
M 1013 2188 
Q 1013 1169 1202 692 
Q 1391 216 1788 216 
Q 2166 216 2348 664 
Q 2531 1113 2531 2053 
Q 2531 2772 2437 3217 
Q 2344 3663 2176 3856 
Q 2009 4050 1772 4050 
Q 1556 4050 1411 3922 
Q 1266 3794 1177 3553 
Q 1088 3313 1050 2967 
Q 1013 2622 1013 2188 
z
" transform="scale(0.015625)"/>
       </defs>
       <use xlink:href="#Cambria-2212"/>
       <use xlink:href="#Cambria-36" x="55.371094"/>
       <use xlink:href="#Cambria-30" x="110.742188"/>
      </g>
     </g>
    </g>
    <g id="xtick_2">
     <g id="line2d_3">
      <path d="M 93.107049 221.707812 
L 93.107049 25.587812 
" clip-path="url(#pbf06e0a7ca)" style="fill: none; stroke-dasharray: 0.8,1.32; stroke-dashoffset: 0; stroke: #b0b0b0; stroke-width: 0.8"/>
     </g>
     <g id="line2d_4">
      <g>
       <use xlink:href="#m2cd8b08710" x="93.107049" y="221.707812" style="stroke: #000000; stroke-width: 0.8"/>
      </g>
     </g>
     <g id="text_2">
      <!-- −40 -->
      <g transform="translate(83.139549 237.092812) scale(0.12 -0.12)">
       <defs>
        <path id="Cambria-34" d="M 1613 153 
Q 1806 203 1872 264 
Q 1938 325 1958 437 
Q 1978 550 1978 781 
L 1978 1294 
L 241 1294 
L 241 1528 
L 2069 4288 
L 2516 4288 
L 2516 1597 
L 2581 1597 
Q 2763 1597 2841 1623 
Q 2919 1650 2970 1717 
Q 3022 1784 3066 1938 
L 3303 1938 
L 3266 1294 
L 2516 1294 
L 2516 781 
Q 2516 572 2530 475 
Q 2544 378 2576 322 
Q 2609 266 2673 228 
Q 2738 191 2881 153 
L 2881 0 
L 1613 0 
L 1613 153 
z
M 756 1597 
L 1978 1597 
L 1978 2375 
Q 1978 2669 1987 3033 
Q 1997 3397 2009 3581 
L 1978 3581 
L 756 1641 
L 756 1597 
z
" transform="scale(0.015625)"/>
       </defs>
       <use xlink:href="#Cambria-2212"/>
       <use xlink:href="#Cambria-34" x="55.371094"/>
       <use xlink:href="#Cambria-30" x="110.742188"/>
      </g>
     </g>
    </g>
    <g id="xtick_3">
     <g id="line2d_5">
      <path d="M 133.509472 221.707812 
L 133.509472 25.587812 
" clip-path="url(#pbf06e0a7ca)" style="fill: none; stroke-dasharray: 0.8,1.32; stroke-dashoffset: 0; stroke: #b0b0b0; stroke-width: 0.8"/>
     </g>
     <g id="line2d_6">
      <g>
       <use xlink:href="#m2cd8b08710" x="133.509472" y="221.707812" style="stroke: #000000; stroke-width: 0.8"/>
      </g>
     </g>
     <g id="text_3">
      <!-- −20 -->
      <g transform="translate(123.541972 237.092812) scale(0.12 -0.12)">
       <defs>
        <path id="Cambria-32" d="M 2194 500 
Q 2347 500 2440 519 
Q 2534 538 2590 581 
Q 2647 625 2680 695 
Q 2713 766 2763 913 
L 3028 913 
L 2975 0 
L 403 0 
L 403 150 
Q 538 478 766 822 
Q 994 1166 1413 1631 
Q 1775 2031 1934 2238 
Q 2109 2463 2195 2627 
Q 2281 2791 2318 2936 
Q 2356 3081 2356 3228 
Q 2356 3463 2281 3642 
Q 2206 3822 2051 3925 
Q 1897 4028 1663 4028 
Q 1078 4028 875 3378 
L 497 3378 
L 497 3978 
Q 875 4156 1204 4236 
Q 1534 4316 1797 4316 
Q 2378 4316 2675 4061 
Q 2972 3806 2972 3322 
Q 2972 3156 2939 3017 
Q 2906 2878 2836 2742 
Q 2766 2606 2647 2450 
Q 2528 2294 2384 2133 
Q 2241 1972 1888 1597 
Q 1294 969 1016 500 
L 2194 500 
z
" transform="scale(0.015625)"/>
       </defs>
       <use xlink:href="#Cambria-2212"/>
       <use xlink:href="#Cambria-32" x="55.371094"/>
       <use xlink:href="#Cambria-30" x="110.742188"/>
      </g>
     </g>
    </g>
    <g id="xtick_4">
     <g id="line2d_7">
      <path d="M 173.911894 221.707812 
L 173.911894 25.587812 
" clip-path="url(#pbf06e0a7ca)" style="fill: none; stroke-dasharray: 0.8,1.32; stroke-dashoffset: 0; stroke: #b0b0b0; stroke-width: 0.8"/>
     </g>
     <g id="line2d_8">
      <g>
       <use xlink:href="#m2cd8b08710" x="173.911894" y="221.707812" style="stroke: #000000; stroke-width: 0.8"/>
      </g>
     </g>
     <g id="text_4">
      <!-- 0 -->
      <g transform="translate(170.589394 237.092812) scale(0.12 -0.12)">
       <use xlink:href="#Cambria-30"/>
      </g>
     </g>
    </g>
    <g id="xtick_5">
     <g id="line2d_9">
      <path d="M 214.314317 221.707812 
L 214.314317 25.587812 
" clip-path="url(#pbf06e0a7ca)" style="fill: none; stroke-dasharray: 0.8,1.32; stroke-dashoffset: 0; stroke: #b0b0b0; stroke-width: 0.8"/>
     </g>
     <g id="line2d_10">
      <g>
       <use xlink:href="#m2cd8b08710" x="214.314317" y="221.707812" style="stroke: #000000; stroke-width: 0.8"/>
      </g>
     </g>
     <g id="text_5">
      <!-- 20 -->
      <g transform="translate(207.669317 237.092812) scale(0.12 -0.12)">
       <use xlink:href="#Cambria-32"/>
       <use xlink:href="#Cambria-30" x="55.371094"/>
      </g>
     </g>
    </g>
    <g id="xtick_6">
     <g id="line2d_11">
      <path d="M 254.71674 221.707812 
L 254.71674 25.587812 
" clip-path="url(#pbf06e0a7ca)" style="fill: none; stroke-dasharray: 0.8,1.32; stroke-dashoffset: 0; stroke: #b0b0b0; stroke-width: 0.8"/>
     </g>
     <g id="line2d_12">
      <g>
       <use xlink:href="#m2cd8b08710" x="254.71674" y="221.707812" style="stroke: #000000; stroke-width: 0.8"/>
      </g>
     </g>
     <g id="text_6">
      <!-- 40 -->
      <g transform="translate(248.07174 237.092812) scale(0.12 -0.12)">
       <use xlink:href="#Cambria-34"/>
       <use xlink:href="#Cambria-30" x="55.371094"/>
      </g>
     </g>
    </g>
    <g id="xtick_7">
     <g id="line2d_13">
      <path d="M 295.119163 221.707812 
L 295.119163 25.587812 
" clip-path="url(#pbf06e0a7ca)" style="fill: none; stroke-dasharray: 0.8,1.32; stroke-dashoffset: 0; stroke: #b0b0b0; stroke-width: 0.8"/>
     </g>
     <g id="line2d_14">
      <g>
       <use xlink:href="#m2cd8b08710" x="295.119163" y="221.707812" style="stroke: #000000; stroke-width: 0.8"/>
      </g>
     </g>
     <g id="text_7">
      <!-- 60 -->
      <g transform="translate(288.474163 237.092812) scale(0.12 -0.12)">
       <use xlink:href="#Cambria-36"/>
       <use xlink:href="#Cambria-30" x="55.371094"/>
      </g>
     </g>
    </g>
    <g id="text_8">
     <!-- Displacement (mm) -->
     <g transform="translate(124.696271 252.020312) scale(0.12 -0.12)">
      <defs>
       <path id="Cambria-Italic-44" d="M 2134 4266 
Q 2606 4266 2900 4194 
Q 3194 4122 3448 3934 
Q 3703 3747 3831 3436 
Q 3959 3125 3959 2700 
Q 3959 2278 3862 1893 
Q 3766 1509 3584 1186 
Q 3403 863 3150 623 
Q 2897 384 2659 256 
Q 2422 128 2128 64 
Q 1834 0 1444 0 
L 131 0 
L 166 153 
Q 284 172 343 214 
Q 403 256 443 331 
Q 484 406 518 514 
Q 553 622 622 931 
L 1153 3338 
Q 1184 3481 1203 3614 
Q 1222 3747 1222 3841 
Q 1222 3988 1147 4045 
Q 1072 4103 916 4113 
L 950 4266 
L 2134 4266 
z
M 1038 288 
Q 1128 278 1384 278 
Q 1700 278 1958 347 
Q 2216 416 2433 567 
Q 2650 719 2828 972 
Q 3006 1225 3117 1486 
Q 3228 1747 3290 2047 
Q 3353 2347 3353 2681 
Q 3353 3334 3048 3664 
Q 2744 3994 2144 3994 
Q 2006 3994 1847 3984 
L 1038 288 
z
" transform="scale(0.015625)"/>
       <path id="Cambria-Italic-69" d="M 1750 4213 
L 1606 3606 
L 1053 3606 
L 1197 4213 
L 1750 4213 
z
M 978 781 
Q 944 622 934 548 
Q 925 475 925 425 
Q 925 331 956 278 
Q 988 225 1053 197 
Q 1119 169 1269 153 
L 1241 0 
L 272 0 
L 744 2106 
Q 784 2288 800 2395 
Q 816 2503 816 2575 
Q 816 2666 789 2716 
Q 763 2766 700 2791 
Q 638 2816 484 2822 
L 519 2988 
L 1281 3016 
L 1466 3016 
L 978 781 
z
" transform="scale(0.015625)"/>
       <path id="Cambria-Italic-73" d="M 2063 2259 
Q 2028 2541 1901 2667 
Q 1775 2794 1509 2794 
Q 1363 2794 1244 2739 
Q 1125 2684 1056 2579 
Q 988 2475 988 2334 
Q 988 2219 1034 2123 
Q 1081 2028 1192 1925 
Q 1303 1822 1503 1688 
Q 1806 1484 1928 1293 
Q 2050 1103 2050 853 
Q 2050 559 1909 354 
Q 1769 150 1525 50 
Q 1281 -50 975 -50 
Q 700 -50 461 -9 
Q 222 31 -3 94 
L 144 769 
L 388 769 
Q 409 481 551 339 
Q 694 197 966 197 
Q 1244 197 1400 336 
Q 1556 475 1556 703 
Q 1556 838 1509 944 
Q 1463 1050 1363 1147 
Q 1263 1244 1078 1369 
Q 881 1503 759 1622 
Q 638 1741 570 1883 
Q 503 2025 503 2197 
Q 503 2456 631 2647 
Q 759 2838 995 2938 
Q 1231 3038 1547 3038 
Q 2063 3038 2456 2903 
L 2313 2259 
L 2063 2259 
z
" transform="scale(0.015625)"/>
       <path id="Cambria-Italic-70" d="M 669 -553 
Q 638 -703 630 -784 
Q 622 -866 622 -919 
Q 622 -1013 653 -1066 
Q 684 -1119 750 -1147 
Q 816 -1175 966 -1191 
L 941 -1344 
L -25 -1344 
L 766 2131 
Q 825 2394 825 2581 
Q 825 2669 798 2717 
Q 772 2766 708 2789 
Q 644 2813 491 2822 
L 528 2988 
L 1238 3016 
L 1416 3016 
L 1206 2203 
L 1244 2191 
Q 1822 3038 2394 3038 
Q 2734 3038 2923 2778 
Q 3113 2519 3113 2047 
Q 3113 1709 3020 1368 
Q 2928 1028 2764 753 
Q 2600 478 2398 301 
Q 2197 125 1973 37 
Q 1750 -50 1503 -50 
Q 1088 -50 813 131 
L 669 -553 
z
M 1044 1088 
Q 1013 922 1005 834 
Q 997 747 997 663 
Q 997 419 1101 308 
Q 1206 197 1463 197 
Q 1622 197 1756 259 
Q 1891 322 2011 440 
Q 2131 559 2228 728 
Q 2325 897 2401 1120 
Q 2478 1344 2517 1580 
Q 2556 1816 2556 2022 
Q 2556 2350 2464 2511 
Q 2372 2672 2172 2672 
Q 2013 2672 1858 2564 
Q 1703 2456 1518 2218 
Q 1334 1981 1231 1750 
Q 1128 1519 1069 1219 
L 1044 1088 
z
" transform="scale(0.015625)"/>
       <path id="Cambria-Italic-6c" d="M 1578 4469 
L 1763 4469 
L 950 781 
Q 916 631 906 554 
Q 897 478 897 425 
Q 897 331 928 278 
Q 959 225 1025 197 
Q 1091 169 1241 153 
L 1216 0 
L 241 0 
L 1047 3588 
Q 1078 3725 1090 3794 
Q 1103 3863 1109 3925 
Q 1116 3988 1116 4034 
Q 1116 4128 1081 4176 
Q 1047 4225 983 4247 
Q 919 4269 753 4278 
L 791 4441 
L 1578 4469 
z
" transform="scale(0.015625)"/>
       <path id="Cambria-Italic-61" d="M 2606 2834 
L 2894 3041 
L 3094 2991 
L 2616 869 
Q 2572 681 2556 579 
Q 2541 478 2541 413 
Q 2541 284 2612 226 
Q 2684 169 2888 153 
L 2859 0 
L 1966 0 
L 2163 784 
L 2122 797 
Q 1822 359 1553 156 
Q 1284 -47 984 -47 
Q 641 -47 452 212 
Q 263 472 263 941 
Q 263 1241 331 1542 
Q 400 1844 539 2114 
Q 678 2384 872 2590 
Q 1066 2797 1320 2919 
Q 1575 3041 1875 3041 
Q 2069 3041 2244 2995 
Q 2419 2950 2606 2834 
z
M 2331 1903 
Q 2359 2031 2368 2125 
Q 2378 2219 2378 2328 
Q 2378 2572 2275 2683 
Q 2172 2794 1931 2794 
Q 1800 2794 1681 2751 
Q 1563 2709 1441 2611 
Q 1319 2513 1208 2353 
Q 1097 2194 1006 1966 
Q 916 1738 866 1477 
Q 816 1216 816 969 
Q 816 644 905 483 
Q 994 322 1203 322 
Q 1300 322 1404 365 
Q 1509 409 1637 526 
Q 1766 644 1928 872 
Q 2075 1081 2161 1286 
Q 2247 1491 2303 1769 
L 2331 1903 
z
" transform="scale(0.015625)"/>
       <path id="Cambria-Italic-63" d="M 2297 2238 
Q 2291 2475 2258 2581 
Q 2225 2688 2151 2741 
Q 2078 2794 1944 2794 
Q 1628 2794 1376 2542 
Q 1125 2291 965 1830 
Q 806 1369 806 944 
Q 806 813 829 697 
Q 853 581 911 497 
Q 969 413 1064 364 
Q 1159 316 1306 316 
Q 1591 316 1798 423 
Q 2006 531 2238 763 
L 2428 572 
Q 2134 247 1836 97 
Q 1538 -53 1194 -53 
Q 741 -53 506 215 
Q 272 484 272 997 
Q 272 1331 397 1731 
Q 522 2131 762 2434 
Q 1003 2738 1325 2888 
Q 1647 3038 2013 3038 
Q 2263 3038 2448 3009 
Q 2634 2981 2778 2944 
L 2625 2238 
L 2297 2238 
z
" transform="scale(0.015625)"/>
       <path id="Cambria-Italic-65" d="M 2544 622 
Q 2313 369 2100 222 
Q 1888 75 1675 12 
Q 1463 -50 1206 -50 
Q 959 -50 781 29 
Q 603 109 486 248 
Q 369 388 312 580 
Q 256 772 256 997 
Q 256 1331 376 1714 
Q 497 2097 740 2401 
Q 984 2706 1325 2873 
Q 1666 3041 2050 3041 
Q 2428 3041 2617 2887 
Q 2806 2734 2806 2409 
Q 2806 1878 2307 1612 
Q 1809 1347 828 1347 
Q 791 1159 791 941 
Q 791 613 919 464 
Q 1047 316 1338 316 
Q 1625 316 1859 441 
Q 2094 566 2350 825 
L 2544 622 
z
M 881 1613 
Q 1169 1616 1386 1645 
Q 1603 1675 1759 1726 
Q 1916 1778 2019 1850 
Q 2122 1922 2183 2008 
Q 2244 2094 2267 2189 
Q 2291 2284 2291 2388 
Q 2291 2578 2202 2686 
Q 2113 2794 1938 2794 
Q 1719 2794 1508 2636 
Q 1297 2478 1136 2211 
Q 975 1944 881 1613 
z
" transform="scale(0.015625)"/>
       <path id="Cambria-Italic-6d" d="M 2997 2375 
L 2997 2331 
Q 2997 2309 2994 2284 
Q 3266 2669 3534 2853 
Q 3803 3038 4091 3038 
Q 4388 3038 4542 2870 
Q 4697 2703 4697 2375 
Q 4697 2175 4634 1894 
L 4372 781 
Q 4319 556 4319 425 
Q 4319 331 4350 278 
Q 4381 225 4447 197 
Q 4513 169 4663 153 
L 4634 0 
L 3653 0 
L 4047 1588 
Q 4091 1759 4123 1936 
Q 4156 2113 4156 2256 
Q 4156 2481 4078 2576 
Q 4000 2672 3831 2672 
Q 3709 2672 3557 2572 
Q 3406 2472 3240 2265 
Q 3075 2059 2970 1857 
Q 2866 1656 2803 1366 
L 2519 0 
L 1978 0 
L 2338 1588 
Q 2403 1878 2426 2017 
Q 2450 2156 2450 2256 
Q 2450 2481 2370 2576 
Q 2291 2672 2122 2672 
Q 1997 2672 1845 2570 
Q 1694 2469 1525 2256 
Q 1356 2044 1254 1839 
Q 1153 1634 1097 1353 
L 813 0 
L 272 0 
L 747 2134 
Q 763 2206 789 2347 
Q 816 2488 816 2581 
Q 816 2669 789 2717 
Q 763 2766 698 2789 
Q 634 2813 481 2822 
L 519 2988 
L 1231 3016 
L 1406 3016 
L 1200 2206 
L 1238 2194 
Q 1525 2622 1809 2830 
Q 2094 3038 2384 3038 
Q 2684 3038 2840 2867 
Q 2997 2697 2997 2375 
z
" transform="scale(0.015625)"/>
       <path id="Cambria-Italic-6e" d="M 2947 0 
L 1963 0 
L 2359 1588 
Q 2397 1741 2433 1925 
Q 2469 2109 2469 2256 
Q 2469 2478 2392 2575 
Q 2316 2672 2153 2672 
Q 2022 2672 1870 2570 
Q 1719 2469 1553 2267 
Q 1388 2066 1273 1858 
Q 1159 1650 1097 1353 
L 813 0 
L 272 0 
L 747 2134 
Q 763 2206 789 2347 
Q 816 2488 816 2581 
Q 816 2669 789 2717 
Q 763 2766 698 2789 
Q 634 2813 481 2822 
L 519 2988 
L 1228 3016 
L 1406 3016 
L 1197 2203 
L 1234 2191 
Q 1541 2622 1825 2830 
Q 2109 3038 2394 3038 
Q 2697 3038 2853 2870 
Q 3009 2703 3009 2375 
Q 3009 2263 2989 2130 
Q 2969 1997 2944 1894 
L 2681 781 
Q 2628 556 2628 425 
Q 2628 331 2659 278 
Q 2691 225 2756 197 
Q 2822 169 2972 153 
L 2947 0 
z
" transform="scale(0.015625)"/>
       <path id="Cambria-Italic-74" d="M 2109 575 
Q 1853 266 1603 108 
Q 1353 -50 1072 -50 
Q 741 -50 578 119 
Q 416 288 416 609 
Q 416 806 472 1050 
L 859 2672 
L 394 2672 
L 428 2831 
Q 613 2853 720 2911 
Q 828 2969 901 3064 
Q 975 3159 1037 3312 
Q 1100 3466 1194 3759 
L 1625 3759 
L 1453 2988 
L 2444 2988 
L 2375 2672 
L 1381 2672 
L 1081 1459 
Q 956 953 956 703 
Q 956 513 1039 414 
Q 1122 316 1281 316 
Q 1425 316 1583 427 
Q 1741 538 1928 763 
L 2109 575 
z
" transform="scale(0.015625)"/>
       <path id="Cambria-Italic-20" transform="scale(0.015625)"/>
       <path id="Cambria-Italic-28" d="M 1616 -1359 
Q 1172 -1359 897 -1200 
Q 622 -1041 498 -736 
Q 375 -431 375 28 
Q 375 353 431 747 
Q 506 1253 648 1875 
Q 791 2497 928 2906 
Q 1088 3372 1272 3667 
Q 1456 3963 1675 4134 
Q 1894 4306 2172 4391 
Q 2478 4484 2906 4484 
L 2850 4228 
Q 2575 4228 2397 4165 
Q 2219 4103 2078 3978 
Q 1916 3834 1769 3575 
Q 1597 3266 1438 2766 
Q 1300 2334 1163 1713 
Q 1050 1203 981 797 
Q 888 228 888 -147 
Q 888 -513 977 -722 
Q 1066 -931 1233 -1017 
Q 1400 -1103 1672 -1103 
L 1616 -1359 
z
" transform="scale(0.015625)"/>
       <path id="Cambria-Italic-29" d="M 794 4484 
Q 1238 4484 1513 4325 
Q 1788 4166 1911 3861 
Q 2034 3556 2034 3097 
Q 2034 2778 1978 2394 
Q 1903 1850 1747 1184 
Q 1600 569 1466 178 
Q 1313 -263 1133 -552 
Q 953 -841 733 -1012 
Q 513 -1184 234 -1266 
Q -72 -1359 -497 -1359 
L -441 -1103 
Q -166 -1103 11 -1040 
Q 188 -978 325 -856 
Q 494 -709 644 -441 
Q 819 -125 973 367 
Q 1128 859 1266 1506 
Q 1375 2006 1438 2394 
Q 1522 2922 1522 3272 
Q 1522 3641 1431 3850 
Q 1341 4059 1173 4143 
Q 1006 4228 738 4228 
L 794 4484 
z
" transform="scale(0.015625)"/>
      </defs>
      <use xlink:href="#Cambria-Italic-44"/>
      <use xlink:href="#Cambria-Italic-69" x="64.648438"/>
      <use xlink:href="#Cambria-Italic-73" x="91.748047"/>
      <use xlink:href="#Cambria-Italic-70" x="129.931641"/>
      <use xlink:href="#Cambria-Italic-6c" x="182.617188"/>
      <use xlink:href="#Cambria-Italic-61" x="209.277344"/>
      <use xlink:href="#Cambria-Italic-63" x="261.865234"/>
      <use xlink:href="#Cambria-Italic-65" x="305.175781"/>
      <use xlink:href="#Cambria-Italic-6d" x="350.878906"/>
      <use xlink:href="#Cambria-Italic-65" x="430.761719"/>
      <use xlink:href="#Cambria-Italic-6e" x="476.464844"/>
      <use xlink:href="#Cambria-Italic-74" x="529.980469"/>
      <use xlink:href="#Cambria-Italic-20" x="564.501953"/>
      <use xlink:href="#Cambria-Italic-28" x="586.523438"/>
      <use xlink:href="#Cambria-Italic-6d" x="623.681641"/>
      <use xlink:href="#Cambria-Italic-6d" x="703.564453"/>
      <use xlink:href="#Cambria-Italic-29" x="783.447266"/>
     </g>
    </g>
   </g>
   <g id="matplotlib.axis_2">
    <g id="ytick_1">
     <g id="line2d_15">
      <path d="M 49.735625 205.179914 
L 298.131916 205.179914 
" clip-path="url(#pbf06e0a7ca)" style="fill: none; stroke-dasharray: 0.8,1.32; stroke-dashoffset: 0; stroke: #b0b0b0; stroke-width: 0.8"/>
     </g>
     <g id="line2d_16">
      <defs>
       <path id="m49b96f7118" d="M 0 0 
L -3.5 0 
" style="stroke: #000000; stroke-width: 0.8"/>
      </defs>
      <g>
       <use xlink:href="#m49b96f7118" x="49.735625" y="205.179914" style="stroke: #000000; stroke-width: 0.8"/>
      </g>
     </g>
     <g id="text_9">
      <!-- −150 -->
      <g transform="translate(16.155625 209.372414) scale(0.12 -0.12)">
       <defs>
        <path id="Cambria-31" d="M 2172 816 
Q 2172 634 2192 542 
Q 2213 450 2264 392 
Q 2316 334 2412 301 
Q 2509 269 2656 251 
Q 2803 234 3044 228 
L 3044 0 
L 734 0 
L 734 228 
Q 1081 244 1229 270 
Q 1378 297 1456 350 
Q 1534 403 1570 500 
Q 1606 597 1606 816 
L 1606 3350 
Q 1606 3475 1562 3533 
Q 1519 3591 1434 3591 
Q 1334 3591 1150 3487 
Q 966 3384 694 3203 
L 556 3444 
L 2019 4316 
L 2191 4316 
Q 2172 4016 2172 3484 
L 2172 816 
z
" transform="scale(0.015625)"/>
        <path id="Cambria-35" d="M 469 172 
L 469 834 
L 847 834 
Q 941 516 1130 366 
Q 1319 216 1619 216 
Q 2034 216 2246 466 
Q 2459 716 2459 1213 
Q 2459 1544 2346 1761 
Q 2234 1978 2043 2075 
Q 1853 2172 1600 2172 
Q 1388 2172 1234 2145 
Q 1081 2119 906 2063 
L 656 2209 
L 656 4266 
L 2378 4266 
Q 2484 4266 2531 4283 
Q 2578 4300 2606 4336 
Q 2634 4372 2672 4472 
L 2916 4472 
L 2869 3747 
L 1072 3747 
L 1072 2375 
Q 1234 2444 1425 2478 
Q 1616 2513 1806 2513 
Q 2178 2513 2465 2361 
Q 2753 2209 2909 1929 
Q 3066 1650 3066 1281 
Q 3066 863 2891 563 
Q 2716 263 2384 106 
Q 2053 -50 1600 -50 
Q 1059 -50 469 172 
z
" transform="scale(0.015625)"/>
       </defs>
       <use xlink:href="#Cambria-2212"/>
       <use xlink:href="#Cambria-31" x="55.371094"/>
       <use xlink:href="#Cambria-35" x="110.742188"/>
       <use xlink:href="#Cambria-30" x="166.113281"/>
      </g>
     </g>
    </g>
    <g id="ytick_2">
     <g id="line2d_17">
      <path d="M 49.735625 177.944753 
L 298.131916 177.944753 
" clip-path="url(#pbf06e0a7ca)" style="fill: none; stroke-dasharray: 0.8,1.32; stroke-dashoffset: 0; stroke: #b0b0b0; stroke-width: 0.8"/>
     </g>
     <g id="line2d_18">
      <g>
       <use xlink:href="#m49b96f7118" x="49.735625" y="177.944753" style="stroke: #000000; stroke-width: 0.8"/>
      </g>
     </g>
     <g id="text_10">
      <!-- −100 -->
      <g transform="translate(16.155625 182.137253) scale(0.12 -0.12)">
       <use xlink:href="#Cambria-2212"/>
       <use xlink:href="#Cambria-31" x="55.371094"/>
       <use xlink:href="#Cambria-30" x="110.742188"/>
       <use xlink:href="#Cambria-30" x="166.113281"/>
      </g>
     </g>
    </g>
    <g id="ytick_3">
     <g id="line2d_19">
      <path d="M 49.735625 150.709592 
L 298.131916 150.709592 
" clip-path="url(#pbf06e0a7ca)" style="fill: none; stroke-dasharray: 0.8,1.32; stroke-dashoffset: 0; stroke: #b0b0b0; stroke-width: 0.8"/>
     </g>
     <g id="line2d_20">
      <g>
       <use xlink:href="#m49b96f7118" x="49.735625" y="150.709592" style="stroke: #000000; stroke-width: 0.8"/>
      </g>
     </g>
     <g id="text_11">
      <!-- −50 -->
      <g transform="translate(22.800625 154.902092) scale(0.12 -0.12)">
       <use xlink:href="#Cambria-2212"/>
       <use xlink:href="#Cambria-35" x="55.371094"/>
       <use xlink:href="#Cambria-30" x="110.742188"/>
      </g>
     </g>
    </g>
    <g id="ytick_4">
     <g id="line2d_21">
      <path d="M 49.735625 123.474431 
L 298.131916 123.474431 
" clip-path="url(#pbf06e0a7ca)" style="fill: none; stroke-dasharray: 0.8,1.32; stroke-dashoffset: 0; stroke: #b0b0b0; stroke-width: 0.8"/>
     </g>
     <g id="line2d_22">
      <g>
       <use xlink:href="#m49b96f7118" x="49.735625" y="123.474431" style="stroke: #000000; stroke-width: 0.8"/>
      </g>
     </g>
     <g id="text_12">
      <!-- 0 -->
      <g transform="translate(36.090625 127.666931) scale(0.12 -0.12)">
       <use xlink:href="#Cambria-30"/>
      </g>
     </g>
    </g>
    <g id="ytick_5">
     <g id="line2d_23">
      <path d="M 49.735625 96.23927 
L 298.131916 96.23927 
" clip-path="url(#pbf06e0a7ca)" style="fill: none; stroke-dasharray: 0.8,1.32; stroke-dashoffset: 0; stroke: #b0b0b0; stroke-width: 0.8"/>
     </g>
     <g id="line2d_24">
      <g>
       <use xlink:href="#m49b96f7118" x="49.735625" y="96.23927" style="stroke: #000000; stroke-width: 0.8"/>
      </g>
     </g>
     <g id="text_13">
      <!-- 50 -->
      <g transform="translate(29.445625 100.43177) scale(0.12 -0.12)">
       <use xlink:href="#Cambria-35"/>
       <use xlink:href="#Cambria-30" x="55.371094"/>
      </g>
     </g>
    </g>
    <g id="ytick_6">
     <g id="line2d_25">
      <path d="M 49.735625 69.004109 
L 298.131916 69.004109 
" clip-path="url(#pbf06e0a7ca)" style="fill: none; stroke-dasharray: 0.8,1.32; stroke-dashoffset: 0; stroke: #b0b0b0; stroke-width: 0.8"/>
     </g>
     <g id="line2d_26">
      <g>
       <use xlink:href="#m49b96f7118" x="49.735625" y="69.004109" style="stroke: #000000; stroke-width: 0.8"/>
      </g>
     </g>
     <g id="text_14">
      <!-- 100 -->
      <g transform="translate(22.800625 73.196609) scale(0.12 -0.12)">
       <use xlink:href="#Cambria-31"/>
       <use xlink:href="#Cambria-30" x="55.371094"/>
       <use xlink:href="#Cambria-30" x="110.742188"/>
      </g>
     </g>
    </g>
    <g id="ytick_7">
     <g id="line2d_27">
      <path d="M 49.735625 41.768948 
L 298.131916 41.768948 
" clip-path="url(#pbf06e0a7ca)" style="fill: none; stroke-dasharray: 0.8,1.32; stroke-dashoffset: 0; stroke: #b0b0b0; stroke-width: 0.8"/>
     </g>
     <g id="line2d_28">
      <g>
       <use xlink:href="#m49b96f7118" x="49.735625" y="41.768948" style="stroke: #000000; stroke-width: 0.8"/>
      </g>
     </g>
     <g id="text_15">
      <!-- 150 -->
      <g transform="translate(22.800625 45.961448) scale(0.12 -0.12)">
       <use xlink:href="#Cambria-31"/>
       <use xlink:href="#Cambria-35" x="55.371094"/>
       <use xlink:href="#Cambria-30" x="110.742188"/>
      </g>
     </g>
    </g>
    <g id="text_16">
     <!-- Base Shear (kN) -->
     <g transform="translate(15.6075 163.934062) rotate(-90) scale(0.12 -0.12)">
      <defs>
       <path id="Cambria-Italic-42" d="M 2797 2184 
Q 3088 2069 3244 1855 
Q 3400 1641 3400 1369 
Q 3400 1047 3283 792 
Q 3166 538 2912 347 
Q 2659 156 2331 78 
Q 2003 0 1522 0 
L 131 0 
L 166 153 
Q 284 172 343 214 
Q 403 256 443 331 
Q 484 406 518 514 
Q 553 622 622 931 
L 1153 3338 
Q 1222 3650 1222 3831 
Q 1222 3984 1150 4043 
Q 1078 4103 916 4113 
L 950 4266 
L 2497 4266 
Q 2966 4266 3248 4167 
Q 3531 4069 3664 3878 
Q 3797 3688 3797 3400 
Q 3797 2991 3547 2686 
Q 3297 2381 2803 2219 
L 2797 2184 
z
M 1934 2353 
Q 2259 2353 2457 2397 
Q 2656 2441 2781 2528 
Q 2906 2616 3004 2733 
Q 3103 2850 3161 3009 
Q 3219 3169 3219 3384 
Q 3219 3519 3172 3636 
Q 3125 3753 3011 3836 
Q 2897 3919 2748 3955 
Q 2600 3991 2353 3991 
Q 2081 3991 1847 3981 
L 1494 2353 
L 1934 2353 
z
M 1041 288 
Q 1284 275 1497 275 
Q 1969 275 2226 394 
Q 2484 513 2643 781 
Q 2803 1050 2803 1425 
Q 2803 1628 2723 1768 
Q 2644 1909 2470 1993 
Q 2297 2078 1994 2078 
L 1428 2078 
L 1041 288 
z
" transform="scale(0.015625)"/>
       <path id="Cambria-Italic-53" d="M 497 972 
Q 497 594 672 408 
Q 847 222 1219 222 
Q 1506 222 1712 328 
Q 1919 434 2025 629 
Q 2131 825 2131 1094 
Q 2131 1284 2064 1429 
Q 1997 1575 1861 1708 
Q 1725 1841 1469 2013 
Q 1238 2169 1084 2320 
Q 931 2472 840 2659 
Q 750 2847 750 3078 
Q 750 3447 928 3728 
Q 1106 4009 1431 4162 
Q 1756 4316 2181 4316 
Q 2469 4316 2714 4277 
Q 2959 4238 3256 4144 
L 3081 3341 
L 2781 3341 
Q 2769 3606 2700 3757 
Q 2631 3909 2503 3975 
Q 2375 4041 2163 4041 
Q 1903 4041 1706 3934 
Q 1509 3828 1406 3645 
Q 1303 3463 1303 3238 
Q 1303 3075 1359 2947 
Q 1416 2819 1539 2695 
Q 1663 2572 1900 2409 
Q 2206 2197 2367 2030 
Q 2528 1863 2604 1675 
Q 2681 1488 2681 1241 
Q 2681 863 2498 567 
Q 2316 272 1983 111 
Q 1650 -50 1225 -50 
Q 934 -50 607 -6 
Q 281 38 9 113 
L 197 972 
L 497 972 
z
" transform="scale(0.015625)"/>
       <path id="Cambria-Italic-68" d="M 2916 0 
L 1934 0 
L 2328 1588 
Q 2372 1759 2405 1936 
Q 2438 2113 2438 2256 
Q 2438 2481 2363 2576 
Q 2288 2672 2109 2672 
Q 1981 2672 1826 2565 
Q 1672 2459 1500 2242 
Q 1328 2025 1226 1826 
Q 1125 1628 1066 1353 
L 781 0 
L 241 0 
L 1044 3572 
Q 1078 3728 1092 3798 
Q 1106 3869 1112 3928 
Q 1119 3988 1119 4034 
Q 1119 4166 1039 4219 
Q 959 4272 753 4278 
L 791 4441 
L 1581 4469 
L 1763 4469 
L 1225 2303 
L 1263 2291 
Q 1556 2681 1822 2859 
Q 2088 3038 2363 3038 
Q 2666 3038 2822 2870 
Q 2978 2703 2978 2375 
Q 2978 2175 2916 1894 
L 2653 781 
Q 2622 647 2609 565 
Q 2597 484 2597 425 
Q 2597 328 2630 275 
Q 2663 222 2730 195 
Q 2797 169 2944 153 
L 2916 0 
z
" transform="scale(0.015625)"/>
       <path id="Cambria-Italic-72" d="M 1244 3016 
L 1431 3016 
L 1213 2247 
L 1250 2234 
Q 1547 2644 1830 2841 
Q 2113 3038 2413 3038 
Q 2641 3038 2794 3003 
L 2644 2303 
L 2322 2303 
Q 2297 2466 2244 2550 
Q 2191 2634 2078 2634 
Q 1956 2634 1797 2509 
Q 1638 2384 1472 2165 
Q 1306 1947 1223 1762 
Q 1141 1578 1097 1353 
L 813 0 
L 272 0 
L 747 2134 
Q 813 2428 813 2581 
Q 813 2669 784 2717 
Q 756 2766 693 2789 
Q 631 2813 481 2822 
L 516 2988 
L 1244 3016 
z
" transform="scale(0.015625)"/>
       <path id="Cambria-Italic-6b" d="M 1150 1741 
L 1250 1741 
Q 1347 1741 1459 1778 
Q 1572 1816 1700 1895 
Q 1828 1975 2044 2147 
Q 2206 2278 2284 2370 
Q 2363 2463 2391 2531 
Q 2419 2600 2419 2663 
Q 2419 2816 2206 2834 
L 2241 2988 
L 3253 2988 
L 3313 2834 
Q 3053 2600 2763 2375 
L 1972 1759 
L 2441 575 
Q 2503 416 2568 330 
Q 2634 244 2720 203 
Q 2806 163 2941 153 
L 2906 0 
L 2072 0 
L 1616 1284 
Q 1572 1406 1540 1450 
Q 1509 1494 1468 1512 
Q 1428 1531 1338 1531 
L 1106 1531 
L 781 0 
L 241 0 
L 1044 3572 
Q 1078 3728 1092 3798 
Q 1106 3869 1112 3928 
Q 1119 3988 1119 4034 
Q 1119 4166 1039 4219 
Q 959 4272 753 4278 
L 791 4441 
L 1581 4469 
L 1763 4469 
L 1150 1741 
z
" transform="scale(0.015625)"/>
       <path id="Cambria-Italic-4e" d="M 4463 4266 
L 4428 4113 
Q 4309 4088 4257 4056 
Q 4206 4025 4164 3962 
Q 4122 3900 4080 3767 
Q 4038 3634 3972 3334 
L 3238 0 
L 2813 0 
L 1900 2681 
Q 1734 3163 1609 3641 
L 1569 3641 
Q 1550 3481 1465 3032 
Q 1381 2584 1288 2156 
L 1013 909 
Q 984 778 965 656 
Q 947 534 947 422 
Q 947 281 1017 223 
Q 1088 166 1253 153 
L 1219 0 
L 125 0 
L 159 153 
Q 278 172 337 214 
Q 397 256 437 331 
Q 478 406 512 514 
Q 547 622 616 931 
L 1147 3338 
Q 1178 3472 1197 3594 
Q 1216 3716 1216 3841 
Q 1216 3988 1141 4045 
Q 1066 4103 909 4113 
L 944 4266 
L 1941 4266 
L 2766 1831 
Q 2944 1306 3041 944 
L 3075 944 
Q 3100 1134 3189 1578 
Q 3278 2022 3353 2353 
L 3572 3338 
Q 3594 3441 3617 3581 
Q 3641 3722 3641 3841 
Q 3641 3988 3566 4045 
Q 3491 4103 3334 4113 
L 3369 4266 
L 4463 4266 
z
" transform="scale(0.015625)"/>
      </defs>
      <use xlink:href="#Cambria-Italic-42"/>
      <use xlink:href="#Cambria-Italic-61" x="59.619141"/>
      <use xlink:href="#Cambria-Italic-73" x="112.207031"/>
      <use xlink:href="#Cambria-Italic-65" x="150.390625"/>
      <use xlink:href="#Cambria-Italic-20" x="196.09375"/>
      <use xlink:href="#Cambria-Italic-53" x="218.115234"/>
      <use xlink:href="#Cambria-Italic-68" x="266.259766"/>
      <use xlink:href="#Cambria-Italic-65" x="319.287109"/>
      <use xlink:href="#Cambria-Italic-61" x="364.990234"/>
      <use xlink:href="#Cambria-Italic-72" x="417.578125"/>
      <use xlink:href="#Cambria-Italic-20" x="458.300781"/>
      <use xlink:href="#Cambria-Italic-28" x="480.322266"/>
      <use xlink:href="#Cambria-Italic-6b" x="517.480469"/>
      <use xlink:href="#Cambria-Italic-4e" x="567.1875"/>
      <use xlink:href="#Cambria-Italic-29" x="634.277344"/>
     </g>
    </g>
   </g>
   <g id="line2d_29">
    <path d="M 173.911894 126.819043 
L 175.315022 114.506497 
L 176.691909 108.174488 
L 178.016805 99.036574 
L 179.264931 97.447832 
L 180.412945 91.641554 
L 181.439378 89.458936 
L 182.325033 86.449286 
L 183.053347 85.738693 
L 183.610699 84.713493 
L 184.174215 84.524631 
L 184.169841 85.07184 
L 183.589234 87.463931 
L 179.2102 103.185439 
L 176.63026 113.603115 
L 173.847917 126.335829 
L 169.748403 146.595957 
L 168.504334 152.159579 
L 167.361396 156.711729 
L 165.462123 162.958757 
L 164.191999 166.178508 
L 163.645596 167.007265 
L 163.65872 166.585593 
L 164.256396 164.000189 
L 166.472176 155.125089 
L 168.668526 145.361912 
L 171.255284 132.800882 
L 174.1678 117.571517 
L 179.717873 97.42445 
L 182.355717 89.709697 
L 184.835646 84.188738 
L 187.11128 80.137408 
L 189.140062 77.040127 
L 192.310626 72.846999 
L 194.111265 70.892335 
L 194.451651 70.75884 
L 194.407907 71.263436 
L 193.178464 74.536675 
L 186.614306 91.105472 
L 184.288353 97.282203 
L 181.768342 104.573512 
L 179.1014 113.349454 
L 176.337405 123.712885 
L 173.528048 134.908275 
L 170.72587 145.36869 
L 167.983277 153.89517 
L 165.351559 160.396584 
L 162.879936 165.379335 
L 160.614631 169.322803 
L 156.867784 175.045702 
L 154.390001 178.326825 
L 153.688782 179.039895 
L 153.365772 179.095511 
L 153.427012 178.464248 
L 153.871358 177.120937 
L 157.385162 168.486066 
L 161.310368 158.299721 
L 163.646116 151.689544 
L 166.173853 143.982267 
L 168.846305 135.041596 
L 174.679552 113.538242 
L 178.880455 101.76633 
L 182.988436 92.033963 
L 186.926669 84.842862 
L 190.621502 79.455079 
L 194.003835 75.18597 
L 199.585002 68.864621 
L 203.254612 65.048669 
L 204.281002 64.080565 
L 204.739434 63.814148 
L 204.621333 64.350182 
L 202.675114 68.231579 
L 192.662125 87.582095 
L 189.143946 94.657533 
L 185.3409 103.079002 
L 181.32411 113.495803 
L 172.952378 139.014949 
L 168.754002 150.049334 
L 164.652089 158.458601 
L 160.723351 165.006057 
L 157.041263 170.426156 
L 153.674687 175.039153 
L 148.132837 182.064175 
L 144.510434 186.115331 
L 143.509523 186.987 
L 143.077193 187.040044 
L 143.221528 186.231392 
L 143.93983 184.526564 
L 147.034115 178.303869 
L 152.129655 168.069875 
L 155.314448 161.415284 
L 158.847048 153.749696 
L 162.661389 144.848813 
L 166.686134 134.225968 
L 170.846015 121.971516 
L 175.447012 109.364094 
L 181.04126 97.916768 
L 186.502176 88.923528 
L 191.72763 81.944626 
L 196.619897 76.24083 
L 201.087483 71.396707 
L 208.423906 63.946895 
L 214.491172 58.185305 
L 215.032789 57.840236 
L 214.805369 58.504842 
L 212.074735 63.349214 
L 202.773081 79.247332 
L 198.503816 86.461512 
L 193.774637 94.699621 
L 188.673989 104.416208 
L 183.297262 116.160511 
L 177.745011 129.422105 
L 172.121074 142.177078 
L 166.530629 152.748504 
L 161.078227 161.105577 
L 155.865838 168.061896 
L 150.990943 174.154725 
L 146.544713 179.490021 
L 142.610299 183.998206 
L 136.560297 190.41397 
L 133.291404 193.50672 
L 132.784633 193.718373 
L 133.047017 192.89934 
L 135.84533 187.845642 
L 141.477988 177.890774 
L 154.273638 154.434905 
L 159.388951 144.401884 
L 164.77587 132.383665 
L 170.333649 119.138476 
L 176.469962 106.588824 
L 183.452995 95.767185 
L 190.257592 87.05862 
L 196.756494 79.822028 
L 202.82816 73.5161 
L 208.359039 68.012529 
L 213.245693 63.369922 
L 220.734526 56.698451 
L 225.326941 52.789464 
L 224.955269 53.595913 
L 218.229227 64.732462 
L 209.529699 78.708298 
L 204.136556 87.220324 
L 198.178156 96.854255 
L 191.765932 108.006032 
L 185.019804 120.560185 
L 178.065938 133.124568 
L 171.034384 144.705338 
L 164.056645 154.787799 
L 157.263217 163.282794 
L 150.78115 170.7093 
L 144.73167 177.400557 
L 139.227915 183.297267 
L 134.372813 188.232327 
L 126.957941 195.155084 
L 123.039148 198.645595 
L 122.492868 198.978213 
L 122.908218 198.086554 
L 133.766179 180.012425 
L 143.946613 162.728054 
L 149.928131 152.925115 
L 156.35819 141.774989 
L 163.116535 129.014941 
L 170.076774 116.415323 
L 177.748104 104.947039 
L 186.114715 94.667362 
L 194.25311 85.798162 
L 202.011087 77.964592 
L 209.243558 70.973563 
L 215.815261 64.882314 
L 221.603294 59.808261 
L 226.499411 55.779435 
L 235.617115 48.585609 
L 235.0663 49.570016 
L 221.845951 70.683367 
L 202.352299 100.53341 
L 194.615126 112.890922 
L 186.490763 125.17921 
L 178.131153 136.178183 
L 169.692635 146.607612 
L 161.333025 156.435486 
L 153.208663 165.198921 
L 138.266204 180.272737 
L 131.727559 186.586664 
L 125.977838 191.805192 
L 121.124572 195.901142 
L 112.206674 203.016037 
L 112.809861 201.897407 
L 121.324378 188.224323 
L 132.008528 170.551423 
L 138.580231 160.34637 
L 145.812702 149.480116 
L 153.570679 137.298039 
L 161.709074 125.004775 
L 170.075685 114.278619 
L 179.281064 104.100726 
L 189.025397 94.033694 
L 198.487081 84.699189 
L 207.489163 76.273868 
L 215.863289 68.757685 
L 223.452846 62.228482 
L 230.115896 56.830845 
L 235.727828 52.609528 
L 245.898532 45.32645 
L 239.647429 55.224745 
L 235.028515 62.554447 
L 229.266608 71.478608 
L 222.469466 81.679409 
L 206.294937 105.486448 
L 197.220043 118.312069 
L 187.709243 129.253073 
L 168.096233 148.148161 
L 158.360821 157.789998 
L 148.916242 166.82405 
L 131.597368 182.684634 
L 124.046967 189.312594 
L 117.429132 194.743748 
L 111.867629 198.966286 
L 101.930829 206.129072 
L 102.756666 204.661401 
L 113.033121 188.256858 
L 118.844576 178.747466 
L 125.685892 168.011379 
L 133.429122 156.833121 
L 141.929455 144.808974 
L 151.027918 132.243542 
L 160.554354 121.610518 
L 170.3306 112.808494 
L 181.068385 103.472062 
L 202.957781 83.566027 
L 213.188406 74.7527 
L 222.684489 66.889449 
L 231.268435 60.043315 
L 238.779708 54.400064 
L 245.077833 50.035154 
L 256.166418 42.849528 
L 252.619975 48.281258 
L 243.213118 63.103406 
L 236.515085 73.309884 
L 228.646258 84.864796 
L 219.753797 97.55672 
L 210.004008 111.060798 
L 199.57923 123.245651 
L 188.674426 132.546146 
L 177.493535 140.789328 
L 166.245661 149.586003 
L 124.728051 184.721079 
L 116.189521 191.587193 
L 108.730507 197.187656 
L 102.490504 201.516474 
L 94.109352 207.054492 
L 92.124946 208.495509 
L 91.670106 208.608296 
L 92.753339 206.721375 
L 111.642014 176.609712 
L 119.560718 164.857306 
L 128.49589 152.682932 
L 138.280424 139.633185 
L 148.731332 127.85197 
L 159.653164 119.166335 
L 170.841659 111.583026 
L 183.109534 102.544595 
L 207.663412 82.305275 
L 219.106433 73.256291 
L 229.704232 65.154055 
L 239.258613 58.07512 
L 247.590889 52.25131 
L 254.545233 47.786441 
L 266.415999 40.830312 
L 265.119008 42.712554 
L 262.116276 47.285514 
L 251.249066 64.264403 
L 243.587825 75.738283 
L 234.623516 88.591142 
L 224.523788 102.474996 
L 213.477524 116.298333 
L 201.69131 127.137026 
L 189.38557 135.225534 
L 176.790444 142.78766 
L 164.141484 151.06423 
L 151.675248 160.23933 
L 117.661202 186.590641 
L 108.158656 193.635715 
L 99.885817 199.361964 
L 92.997402 203.76827 
L 83.860847 209.338197 
L 81.783578 210.754204 
L 81.429277 210.68723 
L 82.804572 208.325098 
L 104.616345 174.05204 
L 113.636074 161.410256 
L 123.783071 148.142235 
L 134.86757 134.757274 
L 146.68227 124.583982 
L 159.006214 117.317155 
L 171.608921 110.204255 
L 185.403899 101.244302 
L 199.239841 91.024993 
L 212.602103 80.949738 
L 225.240788 71.745125 
L 236.919528 63.463078 
L 247.419909 56.208483 
L 256.545555 50.258376 
L 264.125799 45.731586 
L 276.336305 39.078321 
L 276.642506 39.104726 
L 275.027456 41.373553 
L 271.521359 46.666806 
L 259.132445 65.823709 
L 250.481324 78.525586 
L 240.398213 92.561293 
L 229.071686 107.346257 
L 216.713569 120.693956 
L 203.554982 130.176988 
L 189.842015 137.547024 
L 175.831126 144.707064 
L 161.784343 152.589176 
L 147.964367 161.523746 
L 134.629659 170.976743 
L 110.399836 188.39778 
L 99.957864 195.582404 
L 90.898968 201.398434 
L 83.392567 205.852706 
L 73.567123 211.419175 
L 71.431833 212.793267 
L 71.21311 212.501142 
L 72.915042 209.610507 
L 89.051118 184.322267 
L 97.771054 171.277969 
L 107.914964 157.753586 
L 119.293138 143.458513 
L 131.692784 130.716897 
L 144.882004 122.18634 
L 158.614137 115.635282 
L 172.632366 108.599234 
L 187.950787 99.74524 
L 203.134608 89.668883 
L 217.771911 79.570966 
L 231.588951 70.250142 
L 244.327324 61.82372 
L 255.748798 54.439428 
L 265.639772 48.412572 
L 273.815265 43.861729 
L 286.696814 37.433057 
L 286.841176 37.670018 
L 284.873552 40.374609 
L 280.830741 46.435031 
L 274.78835 55.790439 
L 266.859384 67.754066 
L 257.19213 81.587405 
L 245.967381 96.586814 
L 233.395062 111.823408 
L 219.710299 124.167265 
L 205.169021 132.596262 
L 190.043177 139.493412 
L 174.615649 146.274449 
L 159.174959 153.672395 
L 144.009877 162.179844 
L 129.404018 171.484963 
L 115.630538 180.545255 
L 102.947026 188.694534 
L 91.590688 195.596858 
L 81.773909 201.131144 
L 63.232875 210.80399 
L 61.074487 212.613306 
L 61.026366 212.340364 
L 63.089412 210.376496 
L 67.225042 204.208199 
L 73.355913 196.964426 
L 81.367366 182.103011 
L 91.109572 169.029502 
L 91.109572 169.029502 
" clip-path="url(#pbf06e0a7ca)" style="fill: none; stroke: #ff0000; stroke-linecap: square"/>
   </g>
   <g id="line2d_30">
    <path d="M 173.911894 123.474431 
L 178.016805 102.170825 
L 179.264931 96.237388 
L 180.412945 91.408875 
L 182.325033 84.635005 
L 183.986666 79.898202 
L 184.174215 79.439982 
L 184.169841 79.463065 
L 183.023859 85.271283 
L 180.363246 97.414559 
L 173.847917 124.810786 
L 172.445414 132.067239 
L 168.504334 150.770456 
L 167.361396 155.454152 
L 165.462123 162.02597 
L 163.824471 166.577249 
L 163.645596 166.999197 
L 163.65872 166.929952 
L 164.82977 161.00503 
L 167.510492 148.794836 
L 172.635631 126.928162 
L 174.1678 119.598456 
L 176.971446 107.444778 
L 179.717873 98.204885 
L 184.835646 78.291056 
L 187.11128 75.400684 
L 190.88405 71.723136 
L 194.451651 68.928398 
L 193.178464 73.01835 
L 188.702701 86.402785 
L 181.768342 106.274108 
L 179.1014 114.754003 
L 176.337405 124.422521 
L 173.528048 134.695113 
L 167.983277 150.421292 
L 165.351559 159.878472 
L 162.879936 168.145642 
L 160.614631 170.687423 
L 158.598009 172.434512 
L 156.867784 173.493976 
L 154.390001 175.787563 
L 153.688782 176.113179 
L 153.365772 176.425259 
L 153.427012 176.252224 
L 155.869113 169.234867 
L 166.173853 140.592199 
L 168.846305 132.189851 
L 171.613494 122.066245 
L 174.679552 110.358041 
L 178.880455 100.648077 
L 194.003835 71.756506 
L 197.010411 68.381845 
L 199.585002 65.873484 
L 201.67946 64.037757 
L 204.281002 62.030691 
L 204.739434 61.632482 
L 202.675114 66.31029 
L 198.587253 75.183339 
L 185.3409 103.157805 
L 181.32411 113.112466 
L 177.168698 125.586664 
L 172.952378 139.03582 
L 168.754002 147.334398 
L 157.041263 168.957409 
L 153.674687 174.962306 
L 150.686584 178.001924 
L 148.132837 180.386262 
L 146.061206 181.77249 
L 143.077193 184.348154 
L 143.221528 184.032114 
L 147.034115 175.772996 
L 162.661389 142.64886 
L 166.686134 132.412072 
L 170.846015 119.724421 
L 175.447012 106.238455 
L 181.04126 97.158772 
L 191.72763 81.72542 
L 196.619897 74.702442 
L 201.087483 68.579981 
L 205.046835 63.635724 
L 208.423906 60.630121 
L 214.491172 55.733299 
L 215.032789 55.336544 
L 209.62259 65.92008 
L 202.773081 78.674737 
L 188.673989 104.014293 
L 183.297262 115.269683 
L 177.745011 129.677359 
L 172.121074 142.998211 
L 166.530629 151.146208 
L 155.865838 165.95212 
L 150.990943 172.63903 
L 146.544713 178.513957 
L 142.610299 183.304909 
L 139.261283 186.065611 
L 132.784633 191.003557 
L 138.328925 180.302221 
L 145.233624 167.552924 
L 154.273638 151.391373 
L 159.388951 141.854292 
L 164.77587 130.302998 
L 170.333649 115.806395 
L 176.469962 103.833919 
L 183.452995 94.589651 
L 190.257592 86.102497 
L 196.756494 78.229154 
L 202.82816 71.048552 
L 208.359039 64.831483 
L 213.245693 59.677747 
L 217.396733 55.89251 
L 225.326941 50.225914 
L 221.372914 57.473761 
L 214.256724 69.960413 
L 209.529699 77.885842 
L 204.136556 86.611223 
L 191.765932 106.321649 
L 185.019804 118.447496 
L 178.065938 133.673416 
L 171.034384 144.976721 
L 164.056645 153.611057 
L 157.263217 161.746278 
L 150.78115 169.332626 
L 144.73167 176.222109 
L 139.227915 182.197696 
L 134.372813 187.190606 
L 130.257165 190.890369 
L 124.536843 194.842504 
L 122.492868 196.257905 
L 129.757656 183.254209 
L 133.766179 176.354061 
L 138.525501 168.406871 
L 156.35819 139.614985 
L 163.116535 127.218959 
L 170.076774 113.317558 
L 177.748104 102.515758 
L 186.114715 92.817452 
L 194.25311 83.773819 
L 202.011087 75.449874 
L 209.243558 67.994789 
L 215.815261 61.600451 
L 221.603294 56.310034 
L 226.499411 52.241917 
L 230.412044 49.381755 
L 235.617115 46.198861 
L 230.565263 54.978061 
L 226.699217 61.499153 
L 221.845951 69.42081 
L 216.09623 78.4372 
L 209.557585 88.249371 
L 194.615126 109.90278 
L 178.131153 136.026127 
L 169.692635 146.219769 
L 153.208663 163.964506 
L 145.47149 172.007716 
L 138.266204 179.177281 
L 131.727559 185.339871 
L 125.977838 190.458132 
L 121.124572 194.495129 
L 117.258526 197.262573 
L 112.206674 200.226381 
L 117.411745 191.26465 
L 121.324378 184.72085 
L 126.220495 176.771044 
L 132.008528 167.71285 
L 138.580231 157.826056 
L 153.570679 135.866637 
L 161.709074 122.852878 
L 170.075685 111.76226 
L 179.281064 101.427531 
L 189.025397 91.38966 
L 198.487081 81.917269 
L 207.489163 73.20211 
L 215.863289 65.504305 
L 223.452846 58.930367 
L 230.115896 53.538003 
L 235.727828 49.277187 
L 240.183688 46.348143 
L 245.898532 42.953107 
L 239.647429 53.527174 
L 235.028515 61.081299 
L 229.266608 70.149605 
L 222.469466 80.321326 
L 214.764208 91.205256 
L 187.709243 127.717723 
L 177.940408 137.6895 
L 168.096233 147.332592 
L 148.916242 165.650987 
L 139.939129 174.004901 
L 131.597368 181.443836 
L 124.046967 187.837049 
L 117.429132 193.095947 
L 111.867629 197.264475 
L 107.466468 200.231516 
L 101.930829 203.475022 
L 108.360211 192.599558 
L 113.033121 184.964839 
L 118.844576 175.824254 
L 125.685892 165.611686 
L 133.429122 154.686839 
L 151.027918 130.899254 
L 160.554354 119.249262 
L 181.068385 100.275248 
L 202.957781 80.398158 
L 213.188406 71.397963 
L 222.684489 63.432706 
L 231.268435 56.682681 
L 238.779708 51.158697 
L 245.077833 46.822683 
L 250.045024 43.648282 
L 255.64165 40.549551 
L 256.166418 40.279723 
L 252.619975 46.213304 
L 248.61509 52.772827 
L 243.213118 61.335586 
L 236.515085 71.456563 
L 228.646258 82.674497 
L 219.753797 94.54552 
L 210.004008 106.84982 
L 199.57923 119.639179 
L 188.674426 130.439436 
L 177.493535 139.098099 
L 166.245661 148.225459 
L 155.14116 157.644873 
L 144.387706 166.996519 
L 134.186408 175.720248 
L 124.728051 183.450312 
L 116.189521 190.029171 
L 108.730507 195.424597 
L 102.490504 199.670732 
L 97.586213 202.787965 
L 92.124946 205.817855 
L 91.670106 206.051864 
L 95.354386 199.914718 
L 99.424604 193.280131 
L 104.887871 184.67306 
L 111.642014 174.481044 
L 119.560718 163.183777 
L 128.49589 151.222287 
L 138.280424 138.759738 
L 148.731332 125.782678 
L 159.653164 116.811255 
L 170.841659 108.625953 
L 183.109534 99.184729 
L 195.589175 89.056608 
L 207.663412 79.060374 
L 219.106433 69.749602 
L 229.704232 61.549802 
L 239.258613 54.620155 
L 247.590889 48.990409 
L 254.545233 44.579879 
L 259.991585 41.297433 
L 266.415999 38.02927 
L 262.116276 45.109703 
L 257.46396 52.558774 
L 251.249066 62.157919 
L 243.587825 73.387121 
L 234.623516 85.653623 
L 224.523788 98.46051 
L 213.477524 111.600524 
L 201.69131 124.396089 
L 189.38557 132.763121 
L 176.790444 140.713794 
L 164.141484 149.342961 
L 151.675248 158.683739 
L 128.215739 177.144962 
L 117.661202 185.132507 
L 108.158656 191.918735 
L 99.885817 197.451012 
L 92.997402 201.786244 
L 87.622237 205.009086 
L 81.429277 208.127451 
L 85.883741 200.822344 
L 90.609199 193.262996 
L 96.89257 183.579998 
L 104.616345 172.281351 
L 113.636074 159.949965 
L 123.783071 147.053714 
L 134.86757 133.776384 
L 146.68227 122.331942 
L 159.006214 114.412613 
L 171.608921 106.767567 
L 185.403899 97.803343 
L 199.239841 87.884345 
L 225.240788 68.303493 
L 236.919528 59.915404 
L 247.419909 52.840624 
L 256.545555 47.116672 
L 264.125799 42.658907 
L 270.018878 39.407554 
L 276.642506 36.203907 
L 271.521359 44.507659 
L 266.189785 52.913776 
L 259.132445 63.56678 
L 250.481324 75.857442 
L 240.398213 89.061411 
L 229.071686 102.715796 
L 216.713569 116.58548 
L 203.554982 127.261977 
L 189.842015 134.997872 
L 175.831126 142.460553 
L 161.784343 150.557804 
L 147.964367 159.714584 
L 110.399836 186.622382 
L 99.957864 193.571612 
L 90.898968 199.226498 
L 83.392567 203.625371 
L 77.579044 206.849728 
L 71.21311 209.898462 
L 76.505802 201.317622 
L 81.918234 192.812148 
L 89.051118 182.056775 
L 97.771054 169.69483 
L 107.914964 156.42778 
L 119.293138 142.675056 
L 131.692784 128.690634 
L 144.882004 119.672702 
L 158.614137 112.124717 
L 172.632366 104.860726 
L 187.950787 96.390184 
L 203.134608 86.730305 
L 231.588951 66.939666 
L 244.327324 58.374554 
L 255.748798 51.17718 
L 265.639772 45.386141 
L 273.815265 40.895824 
L 280.122382 37.636051 
L 286.841176 34.502358 
L 280.830741 44.175347 
L 274.78835 53.580493 
L 266.859384 65.338389 
L 257.19213 78.676195 
L 245.967381 92.77012 
L 233.395062 107.21406 
L 219.710299 121.145944 
L 205.169021 129.735081 
L 190.043177 137.16342 
L 174.615649 144.275285 
L 159.174959 151.893425 
L 144.009877 160.789024 
L 129.404018 170.433409 
L 115.630538 179.748789 
L 102.947026 188.105468 
L 91.590688 195.206025 
L 81.773909 200.944889 
L 73.680279 205.370082 
L 67.461164 208.584226 
L 61.026366 211.579973 
L 67.225042 201.614628 
L 73.355913 192.076256 
L 81.367366 180.224658 
L 91.109572 166.821062 
L 91.109572 166.821062 
" clip-path="url(#pbf06e0a7ca)" style="fill: none; stroke-dasharray: 2.96,1.28; stroke-dashoffset: 0; stroke: #000000; stroke-width: 0.8"/>
   </g>
   <g id="line2d_31">
    <path d="M 49.735625 123.474431 
L 298.131916 123.474431 
" clip-path="url(#pbf06e0a7ca)" style="fill: none; stroke: #000000; stroke-width: 0.4; stroke-linecap: square"/>
   </g>
   <g id="line2d_32">
    <path d="M 173.911894 221.707812 
L 173.911894 25.587812 
" clip-path="url(#pbf06e0a7ca)" style="fill: none; stroke: #000000; stroke-width: 0.4; stroke-linecap: square"/>
   </g>
   <g id="patch_3">
    <path d="M 49.735625 221.707812 
L 49.735625 25.587812 
" style="fill: none; stroke: #000000; stroke-width: 0.8; stroke-linejoin: miter; stroke-linecap: square"/>
   </g>
   <g id="patch_4">
    <path d="M 298.131916 221.707812 
L 298.131916 25.587812 
" style="fill: none; stroke: #000000; stroke-width: 0.8; stroke-linejoin: miter; stroke-linecap: square"/>
   </g>
   <g id="patch_5">
    <path d="M 49.735625 221.707812 
L 298.131916 221.707812 
" style="fill: none; stroke: #000000; stroke-width: 0.8; stroke-linejoin: miter; stroke-linecap: square"/>
   </g>
   <g id="patch_6">
    <path d="M 49.735625 25.587812 
L 298.131916 25.587812 
" style="fill: none; stroke: #000000; stroke-width: 0.8; stroke-linejoin: miter; stroke-linecap: square"/>
   </g>
   <g id="text_17">
    <!-- Specimen ② -->
    <g transform="translate(135.031271 19.587812) scale(0.14 -0.14)">
     <defs>
      <path id="Cambria-53" d="M 663 972 
Q 725 697 831 537 
Q 938 378 1106 301 
Q 1275 225 1541 225 
Q 1906 225 2101 415 
Q 2297 606 2297 972 
Q 2297 1206 2215 1365 
Q 2134 1525 1950 1665 
Q 1766 1806 1388 1994 
Q 1022 2175 809 2348 
Q 597 2522 492 2725 
Q 388 2928 388 3169 
Q 388 3519 552 3776 
Q 716 4034 1033 4175 
Q 1350 4316 1759 4316 
Q 1997 4316 2223 4291 
Q 2450 4266 2791 4178 
L 2791 3334 
L 2481 3334 
Q 2409 3609 2300 3762 
Q 2191 3916 2044 3977 
Q 1897 4038 1663 4038 
Q 1459 4038 1298 3963 
Q 1138 3888 1044 3736 
Q 950 3584 950 3375 
Q 950 3153 1029 3000 
Q 1109 2847 1278 2715 
Q 1447 2584 1778 2422 
Q 2178 2222 2398 2050 
Q 2619 1878 2742 1658 
Q 2866 1438 2866 1144 
Q 2866 816 2762 589 
Q 2659 363 2476 220 
Q 2294 78 2039 14 
Q 1784 -50 1481 -50 
Q 991 -50 350 116 
L 350 972 
L 663 972 
z
" transform="scale(0.015625)"/>
      <path id="Cambria-70" d="M 1150 94 
L 1150 -566 
Q 1150 -769 1164 -869 
Q 1178 -969 1214 -1026 
Q 1250 -1084 1317 -1121 
Q 1384 -1159 1534 -1191 
L 1534 -1344 
L 259 -1344 
L 259 -1191 
Q 372 -1159 442 -1126 
Q 513 -1094 550 -1030 
Q 588 -966 600 -856 
Q 613 -747 613 -566 
L 613 2116 
Q 613 2341 606 2436 
Q 600 2531 581 2593 
Q 563 2656 527 2697 
Q 491 2738 430 2766 
Q 369 2794 228 2822 
L 228 2988 
L 963 3016 
L 1153 3016 
L 1113 2506 
L 1159 2494 
Q 1353 2691 1465 2780 
Q 1578 2869 1698 2928 
Q 1819 2988 1930 3013 
Q 2041 3038 2166 3038 
Q 2681 3038 2957 2652 
Q 3234 2266 3234 1522 
Q 3234 1006 3078 654 
Q 2922 303 2623 126 
Q 2325 -50 1913 -50 
Q 1681 -50 1493 -11 
Q 1306 28 1150 94 
z
M 1150 1125 
Q 1150 825 1187 662 
Q 1225 500 1320 398 
Q 1416 297 1545 247 
Q 1675 197 1888 197 
Q 2266 197 2456 511 
Q 2647 825 2647 1438 
Q 2647 2663 1931 2663 
Q 1756 2663 1629 2608 
Q 1503 2553 1378 2431 
Q 1253 2309 1201 2195 
Q 1150 2081 1150 1950 
L 1150 1125 
z
" transform="scale(0.015625)"/>
      <path id="Cambria-65" d="M 2800 531 
Q 2600 322 2433 203 
Q 2266 84 2066 17 
Q 1866 -50 1625 -50 
Q 981 -50 653 336 
Q 325 722 325 1475 
Q 325 1941 492 2297 
Q 659 2653 968 2847 
Q 1278 3041 1681 3041 
Q 1997 3041 2219 2941 
Q 2441 2841 2573 2667 
Q 2706 2494 2779 2230 
Q 2853 1966 2863 1541 
L 894 1541 
L 894 1484 
Q 894 1116 976 864 
Q 1059 613 1248 470 
Q 1438 328 1741 328 
Q 1997 328 2201 423 
Q 2406 519 2609 734 
L 2800 531 
z
M 2275 1800 
Q 2256 2138 2190 2352 
Q 2125 2566 1994 2680 
Q 1863 2794 1650 2794 
Q 1328 2794 1136 2536 
Q 944 2278 909 1800 
L 2275 1800 
z
" transform="scale(0.015625)"/>
      <path id="Cambria-63" d="M 2631 2916 
L 2631 2263 
L 2234 2263 
Q 2181 2466 2103 2583 
Q 2025 2700 1922 2747 
Q 1819 2794 1666 2794 
Q 1447 2794 1278 2653 
Q 1109 2513 1011 2225 
Q 913 1938 913 1522 
Q 913 1256 950 1036 
Q 988 816 1078 659 
Q 1169 503 1319 415 
Q 1469 328 1691 328 
Q 1906 328 2092 412 
Q 2278 497 2478 709 
L 2656 503 
Q 2497 328 2375 233 
Q 2253 138 2114 73 
Q 1975 9 1839 -20 
Q 1703 -50 1544 -50 
Q 953 -50 640 342 
Q 328 734 328 1475 
Q 328 1938 503 2295 
Q 678 2653 993 2847 
Q 1309 3041 1722 3041 
Q 1978 3041 2195 3011 
Q 2413 2981 2631 2916 
z
" transform="scale(0.015625)"/>
      <path id="Cambria-69" d="M 1197 4213 
L 1197 3606 
L 622 3606 
L 622 4213 
L 1197 4213 
z
M 303 153 
Q 425 191 476 219 
Q 528 247 564 297 
Q 600 347 620 450 
Q 641 553 641 772 
L 641 2134 
Q 641 2334 634 2456 
Q 628 2578 590 2651 
Q 553 2725 476 2761 
Q 400 2797 259 2822 
L 259 2988 
L 988 3016 
L 1178 3016 
L 1178 781 
Q 1178 513 1203 408 
Q 1228 303 1298 248 
Q 1369 194 1528 153 
L 1528 0 
L 303 0 
L 303 153 
z
" transform="scale(0.015625)"/>
      <path id="Cambria-6d" d="M 1147 2506 
L 1191 2494 
Q 1378 2681 1498 2776 
Q 1619 2872 1731 2930 
Q 1844 2988 1942 3013 
Q 2041 3038 2144 3038 
Q 2456 3038 2653 2894 
Q 2850 2750 2925 2453 
Q 3159 2691 3304 2803 
Q 3450 2916 3601 2977 
Q 3753 3038 3928 3038 
Q 4138 3038 4289 2977 
Q 4441 2916 4545 2789 
Q 4650 2663 4698 2472 
Q 4747 2281 4747 1959 
L 4747 781 
Q 4747 544 4762 453 
Q 4778 363 4808 313 
Q 4838 263 4897 227 
Q 4956 191 5097 153 
L 5097 0 
L 3869 0 
L 3869 153 
Q 3991 191 4044 219 
Q 4097 247 4133 297 
Q 4169 347 4189 451 
Q 4209 556 4209 769 
L 4209 1588 
Q 4209 1853 4195 2026 
Q 4181 2200 4151 2303 
Q 4122 2406 4080 2465 
Q 4038 2525 3984 2569 
Q 3931 2613 3859 2638 
Q 3788 2663 3669 2663 
Q 3544 2663 3436 2613 
Q 3328 2563 3201 2444 
Q 3075 2325 3019 2204 
Q 2963 2084 2963 1922 
L 2963 781 
Q 2963 544 2978 453 
Q 2994 363 3023 313 
Q 3053 263 3112 227 
Q 3172 191 3313 153 
L 3313 0 
L 2084 0 
L 2084 153 
Q 2206 191 2259 219 
Q 2313 247 2348 297 
Q 2384 347 2404 451 
Q 2425 556 2425 769 
L 2425 1588 
Q 2425 1866 2409 2041 
Q 2394 2216 2361 2322 
Q 2328 2428 2276 2493 
Q 2225 2559 2172 2593 
Q 2119 2628 2047 2645 
Q 1975 2663 1884 2663 
Q 1756 2663 1643 2605 
Q 1531 2547 1414 2437 
Q 1297 2328 1237 2209 
Q 1178 2091 1178 1953 
L 1178 781 
Q 1178 603 1187 509 
Q 1197 416 1217 362 
Q 1238 309 1269 276 
Q 1300 244 1358 214 
Q 1416 184 1531 153 
L 1531 0 
L 306 0 
L 306 153 
Q 425 191 476 219 
Q 528 247 565 297 
Q 603 347 622 450 
Q 641 553 641 772 
L 641 2134 
Q 641 2334 634 2456 
Q 628 2578 590 2651 
Q 553 2725 476 2761 
Q 400 2797 259 2822 
L 259 2988 
L 991 3016 
L 1181 3016 
L 1147 2506 
z
" transform="scale(0.015625)"/>
      <path id="Cambria-6e" d="M 3347 0 
L 2116 0 
L 2116 153 
Q 2238 191 2291 219 
Q 2344 247 2380 297 
Q 2416 347 2436 451 
Q 2456 556 2456 769 
L 2456 1588 
Q 2456 1806 2443 1984 
Q 2431 2163 2401 2277 
Q 2372 2391 2330 2455 
Q 2288 2519 2230 2564 
Q 2172 2609 2097 2636 
Q 2022 2663 1900 2663 
Q 1778 2663 1668 2614 
Q 1559 2566 1428 2447 
Q 1297 2328 1237 2212 
Q 1178 2097 1178 1947 
L 1178 781 
Q 1178 513 1203 408 
Q 1228 303 1298 248 
Q 1369 194 1528 153 
L 1528 0 
L 303 0 
L 303 153 
Q 425 191 476 219 
Q 528 247 564 297 
Q 600 347 620 450 
Q 641 553 641 772 
L 641 2134 
Q 641 2334 634 2456 
Q 628 2578 590 2651 
Q 553 2725 476 2761 
Q 400 2797 259 2822 
L 259 2988 
L 991 3016 
L 1181 3016 
L 1147 2506 
L 1191 2494 
Q 1422 2728 1564 2828 
Q 1706 2928 1851 2983 
Q 1997 3038 2159 3038 
Q 2328 3038 2461 2998 
Q 2594 2959 2695 2878 
Q 2797 2797 2862 2676 
Q 2928 2556 2961 2387 
Q 2994 2219 2994 1959 
L 2994 781 
Q 2994 566 3006 469 
Q 3019 372 3050 319 
Q 3081 266 3140 230 
Q 3200 194 3347 153 
L 3347 0 
z
" transform="scale(0.015625)"/>
      <path id="Cambria-20" transform="scale(0.015625)"/>
      <path id="Cambria-2461" d="M 313 2131 
Q 313 2619 439 3070 
Q 566 3522 794 3914 
Q 1022 4306 1345 4628 
Q 1669 4950 2059 5179 
Q 2450 5409 2901 5536 
Q 3353 5663 3841 5663 
Q 4328 5663 4779 5536 
Q 5231 5409 5623 5179 
Q 6016 4950 6337 4628 
Q 6659 4306 6889 3914 
Q 7119 3522 7245 3070 
Q 7372 2619 7372 2131 
Q 7372 1644 7245 1192 
Q 7119 741 6889 350 
Q 6659 -41 6337 -364 
Q 6016 -688 5623 -916 
Q 5231 -1144 4779 -1270 
Q 4328 -1397 3841 -1397 
Q 3353 -1397 2901 -1270 
Q 2450 -1144 2059 -916 
Q 1669 -688 1345 -364 
Q 1022 -41 794 350 
Q 566 741 439 1192 
Q 313 1644 313 2131 
z
M 594 2131 
Q 594 1678 709 1259 
Q 825 841 1036 477 
Q 1247 113 1544 -187 
Q 1841 -488 2202 -700 
Q 2563 -913 2977 -1030 
Q 3391 -1147 3841 -1147 
Q 4288 -1147 4703 -1030 
Q 5119 -913 5480 -700 
Q 5841 -488 6137 -187 
Q 6434 113 6646 477 
Q 6859 841 6975 1259 
Q 7091 1678 7091 2131 
Q 7091 2584 6975 3003 
Q 6859 3422 6646 3787 
Q 6434 4153 6137 4451 
Q 5841 4750 5480 4964 
Q 5119 5178 4703 5295 
Q 4288 5413 3841 5413 
Q 3391 5413 2977 5295 
Q 2563 5178 2202 4964 
Q 1841 4750 1544 4451 
Q 1247 4153 1036 3787 
Q 825 3422 709 3003 
Q 594 2584 594 2131 
z
M 4178 816 
Q 4303 816 4383 827 
Q 4463 838 4506 872 
Q 4528 888 4543 911 
Q 4559 934 4575 967 
Q 4591 1000 4606 1047 
Q 4622 1094 4644 1159 
L 4928 1159 
L 4881 356 
L 2609 356 
L 2609 503 
Q 2669 647 2744 784 
Q 2819 922 2920 1070 
Q 3022 1219 3159 1386 
Q 3297 1553 3484 1756 
Q 3744 2038 3901 2236 
Q 4059 2434 4145 2582 
Q 4231 2731 4259 2847 
Q 4288 2963 4288 3084 
Q 4288 3228 4253 3347 
Q 4219 3466 4148 3553 
Q 4078 3641 3972 3689 
Q 3866 3738 3722 3738 
Q 3244 3738 3072 3191 
L 2691 3191 
L 2691 3722 
Q 3028 3878 3317 3947 
Q 3606 4016 3838 4016 
Q 4356 4016 4618 3798 
Q 4881 3581 4881 3163 
Q 4881 3025 4854 2906 
Q 4828 2788 4767 2670 
Q 4706 2553 4607 2428 
Q 4509 2303 4366 2150 
L 3941 1703 
Q 3697 1450 3514 1231 
Q 3331 1013 3213 816 
L 4178 816 
z
" transform="scale(0.015625)"/>
     </defs>
     <use xlink:href="#Cambria-53"/>
     <use xlink:href="#Cambria-70" x="49.609375"/>
     <use xlink:href="#Cambria-65" x="105.224609"/>
     <use xlink:href="#Cambria-63" x="154.003906"/>
     <use xlink:href="#Cambria-69" x="198.095703"/>
     <use xlink:href="#Cambria-6d" x="225.878906"/>
     <use xlink:href="#Cambria-65" x="309.082031"/>
     <use xlink:href="#Cambria-6e" x="357.861328"/>
     <use xlink:href="#Cambria-20" x="413.671875"/>
     <use xlink:href="#Cambria-2461" x="435.693359"/>
    </g>
   </g>
   <g id="legend_1">
    <g id="patch_7">
     <path d="M 56.035625 59.905937 
L 156.544531 59.905937 
Q 158.344531 59.905937 158.344531 58.105937 
L 158.344531 31.887812 
Q 158.344531 30.087812 156.544531 30.087812 
L 56.035625 30.087812 
Q 54.235625 30.087812 54.235625 31.887812 
L 54.235625 58.105937 
Q 54.235625 59.905937 56.035625 59.905937 
z
" style="fill: #ffffff; opacity: 0.8; stroke: #cccccc; stroke-linejoin: miter"/>
    </g>
    <g id="line2d_33">
     <path d="M 57.835625 36.837812 
L 66.835625 36.837812 
L 75.835625 36.837812 
" style="fill: none; stroke: #ff0000; stroke-linecap: square"/>
    </g>
    <g id="text_18">
     <!-- BiLSTM prediction -->
     <g transform="translate(83.035625 39.987812) scale(0.09 -0.09)">
      <defs>
       <path id="Cambria-42" d="M 378 0 
L 378 153 
Q 572 203 637 264 
Q 703 325 723 437 
Q 744 550 744 781 
L 744 3484 
Q 744 3700 728 3798 
Q 713 3897 677 3951 
Q 641 4006 581 4039 
Q 522 4072 378 4113 
L 378 4266 
L 2088 4266 
Q 2584 4266 2886 4159 
Q 3188 4053 3334 3845 
Q 3481 3638 3481 3309 
Q 3481 3038 3376 2838 
Q 3272 2638 3103 2506 
Q 2934 2375 2669 2263 
L 2669 2234 
Q 3094 2106 3312 1839 
Q 3531 1572 3531 1203 
Q 3531 778 3342 509 
Q 3153 241 2812 120 
Q 2472 0 1988 0 
L 378 0 
z
M 1875 2353 
Q 2350 2353 2601 2583 
Q 2853 2813 2853 3250 
Q 2853 3466 2783 3608 
Q 2713 3750 2589 3834 
Q 2466 3919 2297 3955 
Q 2128 3991 1931 3991 
Q 1813 3991 1619 3984 
Q 1425 3978 1328 3972 
L 1328 2353 
L 1875 2353 
z
M 1328 297 
Q 1556 275 1838 275 
Q 2247 275 2473 378 
Q 2700 481 2801 682 
Q 2903 884 2903 1188 
Q 2903 1491 2792 1687 
Q 2681 1884 2450 1981 
Q 2219 2078 1813 2078 
L 1328 2078 
L 1328 297 
z
" transform="scale(0.015625)"/>
       <path id="Cambria-4c" d="M 1328 288 
L 2147 288 
Q 2281 288 2372 303 
Q 2463 319 2527 351 
Q 2591 384 2642 442 
Q 2694 500 2741 594 
Q 2788 688 2830 830 
Q 2872 972 2934 1256 
L 3250 1256 
L 3188 0 
L 378 0 
L 378 153 
Q 572 203 637 264 
Q 703 325 723 437 
Q 744 550 744 781 
L 744 3484 
Q 744 3700 728 3798 
Q 713 3897 677 3951 
Q 641 4006 581 4039 
Q 522 4072 378 4113 
L 378 4266 
L 1694 4266 
L 1694 4113 
Q 1556 4075 1498 4045 
Q 1441 4016 1403 3966 
Q 1366 3916 1347 3812 
Q 1328 3709 1328 3484 
L 1328 288 
z
" transform="scale(0.015625)"/>
       <path id="Cambria-54" d="M 206 4266 
L 3588 4266 
L 3588 3178 
L 3281 3178 
Q 3213 3447 3145 3603 
Q 3078 3759 3003 3840 
Q 2928 3922 2842 3956 
Q 2756 3991 2584 3991 
L 2188 3991 
L 2188 791 
Q 2188 606 2208 497 
Q 2228 388 2270 323 
Q 2313 259 2384 223 
Q 2456 188 2609 153 
L 2609 0 
L 1181 0 
L 1181 153 
Q 1275 175 1347 200 
Q 1419 225 1464 261 
Q 1509 297 1539 353 
Q 1569 409 1586 506 
Q 1603 603 1603 791 
L 1603 3991 
L 1209 3991 
Q 1063 3991 967 3962 
Q 872 3934 790 3845 
Q 709 3756 642 3592 
Q 575 3428 516 3178 
L 206 3178 
L 206 4266 
z
" transform="scale(0.015625)"/>
       <path id="Cambria-4d" d="M 4841 4113 
Q 4703 4078 4642 4043 
Q 4581 4009 4545 3957 
Q 4509 3906 4492 3803 
Q 4475 3700 4475 3484 
L 4475 781 
Q 4475 572 4489 475 
Q 4503 378 4536 322 
Q 4569 266 4633 228 
Q 4697 191 4841 153 
L 4841 0 
L 3538 0 
L 3538 153 
Q 3716 197 3784 253 
Q 3853 309 3878 418 
Q 3903 528 3903 781 
L 3903 1978 
Q 3903 2450 3917 2933 
Q 3931 3416 3950 3594 
L 3897 3594 
L 2659 497 
L 2300 497 
L 1150 3644 
L 1097 3644 
Q 1113 3453 1127 2953 
Q 1141 2453 1141 1925 
L 1141 781 
Q 1141 572 1155 475 
Q 1169 378 1201 322 
Q 1234 266 1298 228 
Q 1363 191 1506 153 
L 1506 0 
L 366 0 
L 366 153 
Q 559 203 625 264 
Q 691 325 711 437 
Q 731 550 731 781 
L 731 3484 
Q 731 3700 715 3798 
Q 700 3897 664 3951 
Q 628 4006 568 4039 
Q 509 4072 366 4113 
L 366 4266 
L 1481 4266 
L 2578 1225 
L 3784 4266 
L 4841 4266 
L 4841 4113 
z
" transform="scale(0.015625)"/>
       <path id="Cambria-72" d="M 1147 2469 
L 1191 2459 
Q 1363 2669 1509 2789 
Q 1656 2909 1826 2975 
Q 1997 3041 2213 3041 
Q 2394 3041 2541 3022 
L 2541 2303 
L 2188 2303 
Q 2113 2472 2028 2548 
Q 1944 2625 1797 2625 
Q 1684 2625 1573 2559 
Q 1463 2494 1359 2369 
Q 1256 2244 1217 2134 
Q 1178 2025 1178 1875 
L 1178 781 
Q 1178 497 1212 389 
Q 1247 281 1326 231 
Q 1406 181 1566 153 
L 1566 0 
L 306 0 
L 306 153 
Q 425 191 476 219 
Q 528 247 565 297 
Q 603 347 622 450 
Q 641 553 641 772 
L 641 2134 
Q 641 2334 634 2456 
Q 628 2578 590 2651 
Q 553 2725 476 2761 
Q 400 2797 259 2822 
L 259 2984 
L 991 3016 
L 1181 3016 
L 1147 2469 
z
" transform="scale(0.015625)"/>
       <path id="Cambria-64" d="M 2413 3397 
Q 2413 3697 2408 3815 
Q 2403 3934 2383 4017 
Q 2363 4100 2327 4147 
Q 2291 4194 2230 4222 
Q 2169 4250 2009 4278 
L 2009 4441 
L 2766 4472 
L 2950 4472 
L 2950 853 
Q 2950 609 2959 504 
Q 2969 400 3000 337 
Q 3031 275 3098 236 
Q 3166 197 3334 163 
L 3334 0 
L 2597 -31 
L 2409 -31 
L 2447 481 
L 2400 494 
Q 2203 284 2058 179 
Q 1913 75 1748 12 
Q 1584 -50 1397 -50 
Q 884 -50 606 339 
Q 328 728 328 1463 
Q 328 1975 509 2333 
Q 691 2691 998 2866 
Q 1306 3041 1691 3041 
Q 1897 3041 2065 3008 
Q 2234 2975 2413 2900 
L 2413 3397 
z
M 2413 1853 
Q 2413 2097 2391 2244 
Q 2369 2391 2317 2491 
Q 2266 2591 2178 2659 
Q 2091 2728 1986 2759 
Q 1881 2791 1734 2791 
Q 1334 2791 1125 2470 
Q 916 2150 916 1550 
Q 916 950 1087 637 
Q 1259 325 1609 325 
Q 1747 325 1837 348 
Q 1928 372 2015 423 
Q 2103 475 2193 565 
Q 2284 656 2326 731 
Q 2369 806 2391 903 
Q 2413 1000 2413 1153 
L 2413 1853 
z
" transform="scale(0.015625)"/>
       <path id="Cambria-74" d="M 116 2831 
Q 272 2856 369 2918 
Q 466 2981 520 3079 
Q 575 3178 606 3326 
Q 638 3475 672 3759 
L 1116 3759 
L 1116 2988 
L 2125 2988 
L 2125 2672 
L 1116 2672 
L 1116 1281 
Q 1116 978 1141 798 
Q 1166 619 1234 517 
Q 1303 416 1390 372 
Q 1478 328 1616 328 
Q 1741 328 1850 379 
Q 1959 431 2066 528 
L 2206 359 
Q 1984 144 1786 47 
Q 1588 -50 1375 -50 
Q 972 -50 775 189 
Q 578 428 578 938 
L 578 2672 
L 116 2672 
L 116 2831 
z
" transform="scale(0.015625)"/>
       <path id="Cambria-6f" d="M 1663 -50 
Q 1013 -50 670 333 
Q 328 716 328 1466 
Q 328 1981 508 2337 
Q 688 2694 1000 2867 
Q 1313 3041 1713 3041 
Q 2381 3041 2725 2652 
Q 3069 2263 3069 1534 
Q 3069 1016 2897 659 
Q 2725 303 2409 126 
Q 2094 -50 1663 -50 
z
M 919 1531 
Q 919 888 1123 542 
Q 1328 197 1709 197 
Q 1919 197 2066 298 
Q 2213 400 2305 572 
Q 2397 744 2437 970 
Q 2478 1197 2478 1444 
Q 2478 1903 2376 2206 
Q 2275 2509 2100 2651 
Q 1925 2794 1700 2794 
Q 1322 2794 1120 2466 
Q 919 2138 919 1531 
z
" transform="scale(0.015625)"/>
      </defs>
      <use xlink:href="#Cambria-42"/>
      <use xlink:href="#Cambria-69" x="61.132812"/>
      <use xlink:href="#Cambria-4c" x="88.916016"/>
      <use xlink:href="#Cambria-53" x="141.953125"/>
      <use xlink:href="#Cambria-54" x="190.3125"/>
      <use xlink:href="#Cambria-4d" x="249.589844"/>
      <use xlink:href="#Cambria-20" x="331.132812"/>
      <use xlink:href="#Cambria-70" x="353.154297"/>
      <use xlink:href="#Cambria-72" x="408.769531"/>
      <use xlink:href="#Cambria-65" x="450.126953"/>
      <use xlink:href="#Cambria-64" x="498.90625"/>
      <use xlink:href="#Cambria-69" x="554.375"/>
      <use xlink:href="#Cambria-63" x="582.158203"/>
      <use xlink:href="#Cambria-74" x="626.25"/>
      <use xlink:href="#Cambria-69" x="660.087891"/>
      <use xlink:href="#Cambria-6f" x="687.871094"/>
      <use xlink:href="#Cambria-6e" x="740.947266"/>
     </g>
    </g>
    <g id="line2d_34">
     <path d="M 57.835625 51.191406 
L 66.835625 51.191406 
L 75.835625 51.191406 
" style="fill: none; stroke-dasharray: 2.96,1.28; stroke-dashoffset: 0; stroke: #000000; stroke-width: 0.8"/>
    </g>
    <g id="text_19">
     <!-- Reference ② -->
     <g transform="translate(83.035625 54.341406) scale(0.09 -0.09)">
      <defs>
       <path id="Cambria-52" d="M 1331 1853 
L 1331 791 
Q 1331 566 1348 464 
Q 1366 363 1400 311 
Q 1434 259 1493 226 
Q 1553 194 1697 153 
L 1697 0 
L 378 0 
L 378 153 
Q 572 203 637 264 
Q 703 325 723 437 
Q 744 550 744 781 
L 744 3484 
Q 744 3700 728 3798 
Q 713 3897 677 3951 
Q 641 4006 581 4039 
Q 522 4072 378 4113 
L 378 4266 
L 1925 4266 
Q 2656 4266 3018 4000 
Q 3381 3734 3381 3175 
Q 3381 2747 3145 2447 
Q 2909 2147 2438 1978 
L 2438 1953 
Q 2628 1875 2764 1729 
Q 2900 1584 3066 1278 
L 3347 766 
Q 3469 541 3556 422 
Q 3644 303 3734 240 
Q 3825 178 3975 153 
L 3975 0 
L 3109 0 
Q 2991 166 2884 356 
Q 2778 547 2675 744 
L 2400 1266 
Q 2275 1503 2195 1615 
Q 2116 1728 2048 1773 
Q 1981 1819 1904 1836 
Q 1828 1853 1675 1853 
L 1331 1853 
z
M 1331 3978 
L 1331 2122 
L 1684 2122 
Q 1956 2122 2125 2161 
Q 2294 2200 2437 2309 
Q 2581 2419 2667 2614 
Q 2753 2809 2753 3094 
Q 2753 3391 2651 3587 
Q 2550 3784 2344 3887 
Q 2138 3991 1788 3991 
Q 1506 3991 1331 3978 
z
" transform="scale(0.015625)"/>
       <path id="Cambria-66" d="M 1909 2672 
L 1163 2672 
L 1163 781 
Q 1163 572 1183 465 
Q 1203 359 1242 304 
Q 1281 250 1345 217 
Q 1409 184 1550 153 
L 1550 0 
L 272 0 
L 272 153 
Q 409 191 468 225 
Q 528 259 561 312 
Q 594 366 609 466 
Q 625 566 625 781 
L 625 2672 
L 247 2672 
L 247 2831 
Q 366 2850 405 2861 
Q 444 2872 480 2894 
Q 516 2916 542 2956 
Q 569 2997 589 3076 
Q 609 3156 622 3300 
Q 650 3641 745 3853 
Q 841 4066 1023 4216 
Q 1206 4366 1414 4427 
Q 1622 4488 1903 4488 
Q 2150 4488 2322 4453 
L 2322 3888 
L 2013 3888 
Q 1953 4072 1873 4148 
Q 1794 4225 1650 4225 
Q 1547 4225 1476 4197 
Q 1406 4169 1347 4109 
Q 1288 4050 1245 3950 
Q 1203 3850 1183 3701 
Q 1163 3553 1163 3316 
L 1163 2988 
L 1909 2988 
L 1909 2672 
z
" transform="scale(0.015625)"/>
      </defs>
      <use xlink:href="#Cambria-52"/>
      <use xlink:href="#Cambria-65" x="60.359375"/>
      <use xlink:href="#Cambria-66" x="109.138672"/>
      <use xlink:href="#Cambria-65" x="139.412109"/>
      <use xlink:href="#Cambria-72" x="188.191406"/>
      <use xlink:href="#Cambria-65" x="229.548828"/>
      <use xlink:href="#Cambria-6e" x="278.328125"/>
      <use xlink:href="#Cambria-63" x="334.138672"/>
      <use xlink:href="#Cambria-65" x="378.230469"/>
      <use xlink:href="#Cambria-20" x="427.009766"/>
      <use xlink:href="#Cambria-2461" x="449.03125"/>
     </g>
    </g>
   </g>
  </g>
 </g>
 <defs>
  <clipPath id="pbf06e0a7ca">
   <rect x="49.735625" y="25.587812" width="248.396291" height="196.12"/>
  </clipPath>
 </defs>
</svg>
