<?xml version="1.0" encoding="utf-8" standalone="no"?>
<!DOCTYPE svg PUBLIC "-//W3C//DTD SVG 1.1//EN"
  "http://www.w3.org/Graphics/SVG/1.1/DTD/svg11.dtd">
<svg xmlns:xlink="http://www.w3.org/1999/xlink" width="488.636562pt" height="416.844062pt" viewBox="0 0 488.636562 416.844062" xmlns="http://www.w3.org/2000/svg" version="1.1">
 <metadata>
  <rdf:RDF xmlns:dc="http://purl.org/dc/elements/1.1/" xmlns:cc="http://creativecommons.org/ns#" xmlns:rdf="http://www.w3.org/1999/02/22-rdf-syntax-ns#">
   <cc:Work>
    <dc:type rdf:resource="http://purl.org/dc/dcmitype/StillImage"/>
    <dc:date>2023-10-17T14:31:50.570454</dc:date>
    <dc:format>image/svg+xml</dc:format>
    <dc:creator>
     <cc:Agent>
      <dc:title>Matplotlib v3.8.0, https://matplotlib.org/</dc:title>
     </cc:Agent>
    </dc:creator>
   </cc:Work>
  </rdf:RDF>
 </metadata>
 <defs>
  <style type="text/css">*{stroke-linejoin: round; stroke-linecap: butt}</style>
 </defs>
 <g id="figure_1">
  <g id="patch_1">
   <path d="M 0 416.844062 
L 488.636562 416.844062 
L 488.636562 0 
L 0 0 
z
" style="fill: #ffffff"/>
  </g>
  <g id="axes_1">
   <g id="patch_2">
    <path d="M 46.486563 373.14 
L 481.436562 373.14 
L 481.436562 24.38 
L 46.486563 24.38 
z
" style="fill: #ffffff"/>
   </g>
   <g id="matplotlib.axis_1">
    <g id="xtick_1">
     <g id="line2d_1">
      <path d="M 73.875482 373.14 
L 73.875482 24.38 
" clip-path="url(#pf02f33a8d9)" style="fill: none; stroke-dasharray: 0.8,1.32; stroke-dashoffset: 0; stroke: #b0b0b0; stroke-width: 0.8"/>
     </g>
     <g id="line2d_2">
      <defs>
       <path id="m51a8ff986a" d="M 0 0 
L 0 3.5 
" style="stroke: #000000; stroke-width: 0.8"/>
      </defs>
      <g>
       <use xlink:href="#m51a8ff986a" x="73.875482" y="373.14" style="stroke: #000000; stroke-width: 0.8"/>
      </g>
     </g>
     <g id="text_1">
      <!-- −30 -->
      <g transform="translate(62.246732 389.9225) scale(0.14 -0.14)">
       <defs>
        <path id="Cambria-2212" d="M 397 1613 
L 397 2047 
L 3147 2047 
L 3147 1613 
L 397 1613 
z
" transform="scale(0.015625)"/>
        <path id="Cambria-33" d="M 497 3381 
L 497 3975 
Q 859 4147 1175 4231 
Q 1491 4316 1784 4316 
Q 2138 4316 2403 4206 
Q 2669 4097 2809 3892 
Q 2950 3688 2950 3403 
Q 2950 3138 2844 2936 
Q 2738 2734 2545 2584 
Q 2353 2434 2047 2291 
L 2047 2263 
Q 2238 2228 2414 2145 
Q 2591 2063 2728 1931 
Q 2866 1800 2948 1617 
Q 3031 1434 3031 1200 
Q 3031 838 2873 556 
Q 2716 275 2391 112 
Q 2066 -50 1600 -50 
Q 1331 -50 1020 11 
Q 709 72 450 172 
L 450 834 
L 825 834 
Q 934 509 1114 362 
Q 1294 216 1603 216 
Q 2009 216 2217 437 
Q 2425 659 2425 1094 
Q 2425 1550 2150 1790 
Q 1875 2031 1344 2031 
L 1063 2031 
L 1063 2306 
Q 1484 2331 1773 2468 
Q 2063 2606 2203 2822 
Q 2344 3038 2344 3306 
Q 2344 3653 2159 3840 
Q 1975 4028 1622 4028 
Q 1328 4028 1143 3868 
Q 959 3709 872 3381 
L 497 3381 
z
" transform="scale(0.015625)"/>
        <path id="Cambria-30" d="M 1738 -50 
Q 1063 -50 733 481 
Q 403 1013 403 2094 
Q 403 2669 504 3087 
Q 606 3506 789 3779 
Q 972 4053 1228 4184 
Q 1484 4316 1788 4316 
Q 2472 4316 2806 3787 
Q 3141 3259 3141 2191 
Q 3141 1084 2783 517 
Q 2425 -50 1738 -50 
z
M 1013 2188 
Q 1013 1169 1202 692 
Q 1391 216 1788 216 
Q 2166 216 2348 664 
Q 2531 1113 2531 2053 
Q 2531 2772 2437 3217 
Q 2344 3663 2176 3856 
Q 2009 4050 1772 4050 
Q 1556 4050 1411 3922 
Q 1266 3794 1177 3553 
Q 1088 3313 1050 2967 
Q 1013 2622 1013 2188 
z
" transform="scale(0.015625)"/>
       </defs>
       <use xlink:href="#Cambria-2212"/>
       <use xlink:href="#Cambria-33" x="55.371094"/>
       <use xlink:href="#Cambria-30" x="110.742188"/>
      </g>
     </g>
    </g>
    <g id="xtick_2">
     <g id="line2d_3">
      <path d="M 138.969935 373.14 
L 138.969935 24.38 
" clip-path="url(#pf02f33a8d9)" style="fill: none; stroke-dasharray: 0.8,1.32; stroke-dashoffset: 0; stroke: #b0b0b0; stroke-width: 0.8"/>
     </g>
     <g id="line2d_4">
      <g>
       <use xlink:href="#m51a8ff986a" x="138.969935" y="373.14" style="stroke: #000000; stroke-width: 0.8"/>
      </g>
     </g>
     <g id="text_2">
      <!-- −20 -->
      <g transform="translate(127.341185 389.9225) scale(0.14 -0.14)">
       <defs>
        <path id="Cambria-32" d="M 2194 500 
Q 2347 500 2440 519 
Q 2534 538 2590 581 
Q 2647 625 2680 695 
Q 2713 766 2763 913 
L 3028 913 
L 2975 0 
L 403 0 
L 403 150 
Q 538 478 766 822 
Q 994 1166 1413 1631 
Q 1775 2031 1934 2238 
Q 2109 2463 2195 2627 
Q 2281 2791 2318 2936 
Q 2356 3081 2356 3228 
Q 2356 3463 2281 3642 
Q 2206 3822 2051 3925 
Q 1897 4028 1663 4028 
Q 1078 4028 875 3378 
L 497 3378 
L 497 3978 
Q 875 4156 1204 4236 
Q 1534 4316 1797 4316 
Q 2378 4316 2675 4061 
Q 2972 3806 2972 3322 
Q 2972 3156 2939 3017 
Q 2906 2878 2836 2742 
Q 2766 2606 2647 2450 
Q 2528 2294 2384 2133 
Q 2241 1972 1888 1597 
Q 1294 969 1016 500 
L 2194 500 
z
" transform="scale(0.015625)"/>
       </defs>
       <use xlink:href="#Cambria-2212"/>
       <use xlink:href="#Cambria-32" x="55.371094"/>
       <use xlink:href="#Cambria-30" x="110.742188"/>
      </g>
     </g>
    </g>
    <g id="xtick_3">
     <g id="line2d_5">
      <path d="M 204.064389 373.14 
L 204.064389 24.38 
" clip-path="url(#pf02f33a8d9)" style="fill: none; stroke-dasharray: 0.8,1.32; stroke-dashoffset: 0; stroke: #b0b0b0; stroke-width: 0.8"/>
     </g>
     <g id="line2d_6">
      <g>
       <use xlink:href="#m51a8ff986a" x="204.064389" y="373.14" style="stroke: #000000; stroke-width: 0.8"/>
      </g>
     </g>
     <g id="text_3">
      <!-- −10 -->
      <g transform="translate(192.435639 389.9225) scale(0.14 -0.14)">
       <defs>
        <path id="Cambria-31" d="M 2172 816 
Q 2172 634 2192 542 
Q 2213 450 2264 392 
Q 2316 334 2412 301 
Q 2509 269 2656 251 
Q 2803 234 3044 228 
L 3044 0 
L 734 0 
L 734 228 
Q 1081 244 1229 270 
Q 1378 297 1456 350 
Q 1534 403 1570 500 
Q 1606 597 1606 816 
L 1606 3350 
Q 1606 3475 1562 3533 
Q 1519 3591 1434 3591 
Q 1334 3591 1150 3487 
Q 966 3384 694 3203 
L 556 3444 
L 2019 4316 
L 2191 4316 
Q 2172 4016 2172 3484 
L 2172 816 
z
" transform="scale(0.015625)"/>
       </defs>
       <use xlink:href="#Cambria-2212"/>
       <use xlink:href="#Cambria-31" x="55.371094"/>
       <use xlink:href="#Cambria-30" x="110.742188"/>
      </g>
     </g>
    </g>
    <g id="xtick_4">
     <g id="line2d_7">
      <path d="M 269.158843 373.14 
L 269.158843 24.38 
" clip-path="url(#pf02f33a8d9)" style="fill: none; stroke-dasharray: 0.8,1.32; stroke-dashoffset: 0; stroke: #b0b0b0; stroke-width: 0.8"/>
     </g>
     <g id="line2d_8">
      <g>
       <use xlink:href="#m51a8ff986a" x="269.158843" y="373.14" style="stroke: #000000; stroke-width: 0.8"/>
      </g>
     </g>
     <g id="text_4">
      <!-- 0 -->
      <g transform="translate(265.282593 389.9225) scale(0.14 -0.14)">
       <use xlink:href="#Cambria-30"/>
      </g>
     </g>
    </g>
    <g id="xtick_5">
     <g id="line2d_9">
      <path d="M 334.253297 373.14 
L 334.253297 24.38 
" clip-path="url(#pf02f33a8d9)" style="fill: none; stroke-dasharray: 0.8,1.32; stroke-dashoffset: 0; stroke: #b0b0b0; stroke-width: 0.8"/>
     </g>
     <g id="line2d_10">
      <g>
       <use xlink:href="#m51a8ff986a" x="334.253297" y="373.14" style="stroke: #000000; stroke-width: 0.8"/>
      </g>
     </g>
     <g id="text_5">
      <!-- 10 -->
      <g transform="translate(326.500797 389.9225) scale(0.14 -0.14)">
       <use xlink:href="#Cambria-31"/>
       <use xlink:href="#Cambria-30" x="55.371094"/>
      </g>
     </g>
    </g>
    <g id="xtick_6">
     <g id="line2d_11">
      <path d="M 399.34775 373.14 
L 399.34775 24.38 
" clip-path="url(#pf02f33a8d9)" style="fill: none; stroke-dasharray: 0.8,1.32; stroke-dashoffset: 0; stroke: #b0b0b0; stroke-width: 0.8"/>
     </g>
     <g id="line2d_12">
      <g>
       <use xlink:href="#m51a8ff986a" x="399.34775" y="373.14" style="stroke: #000000; stroke-width: 0.8"/>
      </g>
     </g>
     <g id="text_6">
      <!-- 20 -->
      <g transform="translate(391.59525 389.9225) scale(0.14 -0.14)">
       <use xlink:href="#Cambria-32"/>
       <use xlink:href="#Cambria-30" x="55.371094"/>
      </g>
     </g>
    </g>
    <g id="xtick_7">
     <g id="line2d_13">
      <path d="M 464.442204 373.14 
L 464.442204 24.38 
" clip-path="url(#pf02f33a8d9)" style="fill: none; stroke-dasharray: 0.8,1.32; stroke-dashoffset: 0; stroke: #b0b0b0; stroke-width: 0.8"/>
     </g>
     <g id="line2d_14">
      <g>
       <use xlink:href="#m51a8ff986a" x="464.442204" y="373.14" style="stroke: #000000; stroke-width: 0.8"/>
      </g>
     </g>
     <g id="text_7">
      <!-- 30 -->
      <g transform="translate(456.689704 389.9225) scale(0.14 -0.14)">
       <use xlink:href="#Cambria-33"/>
       <use xlink:href="#Cambria-30" x="55.371094"/>
      </g>
     </g>
    </g>
    <g id="text_8">
     <!-- Displacement (mm) -->
     <g transform="translate(206.517812 406.67125) scale(0.14 -0.14)">
      <defs>
       <path id="Cambria-Italic-44" d="M 2134 4266 
Q 2606 4266 2900 4194 
Q 3194 4122 3448 3934 
Q 3703 3747 3831 3436 
Q 3959 3125 3959 2700 
Q 3959 2278 3862 1893 
Q 3766 1509 3584 1186 
Q 3403 863 3150 623 
Q 2897 384 2659 256 
Q 2422 128 2128 64 
Q 1834 0 1444 0 
L 131 0 
L 166 153 
Q 284 172 343 214 
Q 403 256 443 331 
Q 484 406 518 514 
Q 553 622 622 931 
L 1153 3338 
Q 1184 3481 1203 3614 
Q 1222 3747 1222 3841 
Q 1222 3988 1147 4045 
Q 1072 4103 916 4113 
L 950 4266 
L 2134 4266 
z
M 1038 288 
Q 1128 278 1384 278 
Q 1700 278 1958 347 
Q 2216 416 2433 567 
Q 2650 719 2828 972 
Q 3006 1225 3117 1486 
Q 3228 1747 3290 2047 
Q 3353 2347 3353 2681 
Q 3353 3334 3048 3664 
Q 2744 3994 2144 3994 
Q 2006 3994 1847 3984 
L 1038 288 
z
" transform="scale(0.015625)"/>
       <path id="Cambria-Italic-69" d="M 1750 4213 
L 1606 3606 
L 1053 3606 
L 1197 4213 
L 1750 4213 
z
M 978 781 
Q 944 622 934 548 
Q 925 475 925 425 
Q 925 331 956 278 
Q 988 225 1053 197 
Q 1119 169 1269 153 
L 1241 0 
L 272 0 
L 744 2106 
Q 784 2288 800 2395 
Q 816 2503 816 2575 
Q 816 2666 789 2716 
Q 763 2766 700 2791 
Q 638 2816 484 2822 
L 519 2988 
L 1281 3016 
L 1466 3016 
L 978 781 
z
" transform="scale(0.015625)"/>
       <path id="Cambria-Italic-73" d="M 2063 2259 
Q 2028 2541 1901 2667 
Q 1775 2794 1509 2794 
Q 1363 2794 1244 2739 
Q 1125 2684 1056 2579 
Q 988 2475 988 2334 
Q 988 2219 1034 2123 
Q 1081 2028 1192 1925 
Q 1303 1822 1503 1688 
Q 1806 1484 1928 1293 
Q 2050 1103 2050 853 
Q 2050 559 1909 354 
Q 1769 150 1525 50 
Q 1281 -50 975 -50 
Q 700 -50 461 -9 
Q 222 31 -3 94 
L 144 769 
L 388 769 
Q 409 481 551 339 
Q 694 197 966 197 
Q 1244 197 1400 336 
Q 1556 475 1556 703 
Q 1556 838 1509 944 
Q 1463 1050 1363 1147 
Q 1263 1244 1078 1369 
Q 881 1503 759 1622 
Q 638 1741 570 1883 
Q 503 2025 503 2197 
Q 503 2456 631 2647 
Q 759 2838 995 2938 
Q 1231 3038 1547 3038 
Q 2063 3038 2456 2903 
L 2313 2259 
L 2063 2259 
z
" transform="scale(0.015625)"/>
       <path id="Cambria-Italic-70" d="M 669 -553 
Q 638 -703 630 -784 
Q 622 -866 622 -919 
Q 622 -1013 653 -1066 
Q 684 -1119 750 -1147 
Q 816 -1175 966 -1191 
L 941 -1344 
L -25 -1344 
L 766 2131 
Q 825 2394 825 2581 
Q 825 2669 798 2717 
Q 772 2766 708 2789 
Q 644 2813 491 2822 
L 528 2988 
L 1238 3016 
L 1416 3016 
L 1206 2203 
L 1244 2191 
Q 1822 3038 2394 3038 
Q 2734 3038 2923 2778 
Q 3113 2519 3113 2047 
Q 3113 1709 3020 1368 
Q 2928 1028 2764 753 
Q 2600 478 2398 301 
Q 2197 125 1973 37 
Q 1750 -50 1503 -50 
Q 1088 -50 813 131 
L 669 -553 
z
M 1044 1088 
Q 1013 922 1005 834 
Q 997 747 997 663 
Q 997 419 1101 308 
Q 1206 197 1463 197 
Q 1622 197 1756 259 
Q 1891 322 2011 440 
Q 2131 559 2228 728 
Q 2325 897 2401 1120 
Q 2478 1344 2517 1580 
Q 2556 1816 2556 2022 
Q 2556 2350 2464 2511 
Q 2372 2672 2172 2672 
Q 2013 2672 1858 2564 
Q 1703 2456 1518 2218 
Q 1334 1981 1231 1750 
Q 1128 1519 1069 1219 
L 1044 1088 
z
" transform="scale(0.015625)"/>
       <path id="Cambria-Italic-6c" d="M 1578 4469 
L 1763 4469 
L 950 781 
Q 916 631 906 554 
Q 897 478 897 425 
Q 897 331 928 278 
Q 959 225 1025 197 
Q 1091 169 1241 153 
L 1216 0 
L 241 0 
L 1047 3588 
Q 1078 3725 1090 3794 
Q 1103 3863 1109 3925 
Q 1116 3988 1116 4034 
Q 1116 4128 1081 4176 
Q 1047 4225 983 4247 
Q 919 4269 753 4278 
L 791 4441 
L 1578 4469 
z
" transform="scale(0.015625)"/>
       <path id="Cambria-Italic-61" d="M 2606 2834 
L 2894 3041 
L 3094 2991 
L 2616 869 
Q 2572 681 2556 579 
Q 2541 478 2541 413 
Q 2541 284 2612 226 
Q 2684 169 2888 153 
L 2859 0 
L 1966 0 
L 2163 784 
L 2122 797 
Q 1822 359 1553 156 
Q 1284 -47 984 -47 
Q 641 -47 452 212 
Q 263 472 263 941 
Q 263 1241 331 1542 
Q 400 1844 539 2114 
Q 678 2384 872 2590 
Q 1066 2797 1320 2919 
Q 1575 3041 1875 3041 
Q 2069 3041 2244 2995 
Q 2419 2950 2606 2834 
z
M 2331 1903 
Q 2359 2031 2368 2125 
Q 2378 2219 2378 2328 
Q 2378 2572 2275 2683 
Q 2172 2794 1931 2794 
Q 1800 2794 1681 2751 
Q 1563 2709 1441 2611 
Q 1319 2513 1208 2353 
Q 1097 2194 1006 1966 
Q 916 1738 866 1477 
Q 816 1216 816 969 
Q 816 644 905 483 
Q 994 322 1203 322 
Q 1300 322 1404 365 
Q 1509 409 1637 526 
Q 1766 644 1928 872 
Q 2075 1081 2161 1286 
Q 2247 1491 2303 1769 
L 2331 1903 
z
" transform="scale(0.015625)"/>
       <path id="Cambria-Italic-63" d="M 2297 2238 
Q 2291 2475 2258 2581 
Q 2225 2688 2151 2741 
Q 2078 2794 1944 2794 
Q 1628 2794 1376 2542 
Q 1125 2291 965 1830 
Q 806 1369 806 944 
Q 806 813 829 697 
Q 853 581 911 497 
Q 969 413 1064 364 
Q 1159 316 1306 316 
Q 1591 316 1798 423 
Q 2006 531 2238 763 
L 2428 572 
Q 2134 247 1836 97 
Q 1538 -53 1194 -53 
Q 741 -53 506 215 
Q 272 484 272 997 
Q 272 1331 397 1731 
Q 522 2131 762 2434 
Q 1003 2738 1325 2888 
Q 1647 3038 2013 3038 
Q 2263 3038 2448 3009 
Q 2634 2981 2778 2944 
L 2625 2238 
L 2297 2238 
z
" transform="scale(0.015625)"/>
       <path id="Cambria-Italic-65" d="M 2544 622 
Q 2313 369 2100 222 
Q 1888 75 1675 12 
Q 1463 -50 1206 -50 
Q 959 -50 781 29 
Q 603 109 486 248 
Q 369 388 312 580 
Q 256 772 256 997 
Q 256 1331 376 1714 
Q 497 2097 740 2401 
Q 984 2706 1325 2873 
Q 1666 3041 2050 3041 
Q 2428 3041 2617 2887 
Q 2806 2734 2806 2409 
Q 2806 1878 2307 1612 
Q 1809 1347 828 1347 
Q 791 1159 791 941 
Q 791 613 919 464 
Q 1047 316 1338 316 
Q 1625 316 1859 441 
Q 2094 566 2350 825 
L 2544 622 
z
M 881 1613 
Q 1169 1616 1386 1645 
Q 1603 1675 1759 1726 
Q 1916 1778 2019 1850 
Q 2122 1922 2183 2008 
Q 2244 2094 2267 2189 
Q 2291 2284 2291 2388 
Q 2291 2578 2202 2686 
Q 2113 2794 1938 2794 
Q 1719 2794 1508 2636 
Q 1297 2478 1136 2211 
Q 975 1944 881 1613 
z
" transform="scale(0.015625)"/>
       <path id="Cambria-Italic-6d" d="M 2997 2375 
L 2997 2331 
Q 2997 2309 2994 2284 
Q 3266 2669 3534 2853 
Q 3803 3038 4091 3038 
Q 4388 3038 4542 2870 
Q 4697 2703 4697 2375 
Q 4697 2175 4634 1894 
L 4372 781 
Q 4319 556 4319 425 
Q 4319 331 4350 278 
Q 4381 225 4447 197 
Q 4513 169 4663 153 
L 4634 0 
L 3653 0 
L 4047 1588 
Q 4091 1759 4123 1936 
Q 4156 2113 4156 2256 
Q 4156 2481 4078 2576 
Q 4000 2672 3831 2672 
Q 3709 2672 3557 2572 
Q 3406 2472 3240 2265 
Q 3075 2059 2970 1857 
Q 2866 1656 2803 1366 
L 2519 0 
L 1978 0 
L 2338 1588 
Q 2403 1878 2426 2017 
Q 2450 2156 2450 2256 
Q 2450 2481 2370 2576 
Q 2291 2672 2122 2672 
Q 1997 2672 1845 2570 
Q 1694 2469 1525 2256 
Q 1356 2044 1254 1839 
Q 1153 1634 1097 1353 
L 813 0 
L 272 0 
L 747 2134 
Q 763 2206 789 2347 
Q 816 2488 816 2581 
Q 816 2669 789 2717 
Q 763 2766 698 2789 
Q 634 2813 481 2822 
L 519 2988 
L 1231 3016 
L 1406 3016 
L 1200 2206 
L 1238 2194 
Q 1525 2622 1809 2830 
Q 2094 3038 2384 3038 
Q 2684 3038 2840 2867 
Q 2997 2697 2997 2375 
z
" transform="scale(0.015625)"/>
       <path id="Cambria-Italic-6e" d="M 2947 0 
L 1963 0 
L 2359 1588 
Q 2397 1741 2433 1925 
Q 2469 2109 2469 2256 
Q 2469 2478 2392 2575 
Q 2316 2672 2153 2672 
Q 2022 2672 1870 2570 
Q 1719 2469 1553 2267 
Q 1388 2066 1273 1858 
Q 1159 1650 1097 1353 
L 813 0 
L 272 0 
L 747 2134 
Q 763 2206 789 2347 
Q 816 2488 816 2581 
Q 816 2669 789 2717 
Q 763 2766 698 2789 
Q 634 2813 481 2822 
L 519 2988 
L 1228 3016 
L 1406 3016 
L 1197 2203 
L 1234 2191 
Q 1541 2622 1825 2830 
Q 2109 3038 2394 3038 
Q 2697 3038 2853 2870 
Q 3009 2703 3009 2375 
Q 3009 2263 2989 2130 
Q 2969 1997 2944 1894 
L 2681 781 
Q 2628 556 2628 425 
Q 2628 331 2659 278 
Q 2691 225 2756 197 
Q 2822 169 2972 153 
L 2947 0 
z
" transform="scale(0.015625)"/>
       <path id="Cambria-Italic-74" d="M 2109 575 
Q 1853 266 1603 108 
Q 1353 -50 1072 -50 
Q 741 -50 578 119 
Q 416 288 416 609 
Q 416 806 472 1050 
L 859 2672 
L 394 2672 
L 428 2831 
Q 613 2853 720 2911 
Q 828 2969 901 3064 
Q 975 3159 1037 3312 
Q 1100 3466 1194 3759 
L 1625 3759 
L 1453 2988 
L 2444 2988 
L 2375 2672 
L 1381 2672 
L 1081 1459 
Q 956 953 956 703 
Q 956 513 1039 414 
Q 1122 316 1281 316 
Q 1425 316 1583 427 
Q 1741 538 1928 763 
L 2109 575 
z
" transform="scale(0.015625)"/>
       <path id="Cambria-Italic-20" transform="scale(0.015625)"/>
       <path id="Cambria-Italic-28" d="M 1616 -1359 
Q 1172 -1359 897 -1200 
Q 622 -1041 498 -736 
Q 375 -431 375 28 
Q 375 353 431 747 
Q 506 1253 648 1875 
Q 791 2497 928 2906 
Q 1088 3372 1272 3667 
Q 1456 3963 1675 4134 
Q 1894 4306 2172 4391 
Q 2478 4484 2906 4484 
L 2850 4228 
Q 2575 4228 2397 4165 
Q 2219 4103 2078 3978 
Q 1916 3834 1769 3575 
Q 1597 3266 1438 2766 
Q 1300 2334 1163 1713 
Q 1050 1203 981 797 
Q 888 228 888 -147 
Q 888 -513 977 -722 
Q 1066 -931 1233 -1017 
Q 1400 -1103 1672 -1103 
L 1616 -1359 
z
" transform="scale(0.015625)"/>
       <path id="Cambria-Italic-29" d="M 794 4484 
Q 1238 4484 1513 4325 
Q 1788 4166 1911 3861 
Q 2034 3556 2034 3097 
Q 2034 2778 1978 2394 
Q 1903 1850 1747 1184 
Q 1600 569 1466 178 
Q 1313 -263 1133 -552 
Q 953 -841 733 -1012 
Q 513 -1184 234 -1266 
Q -72 -1359 -497 -1359 
L -441 -1103 
Q -166 -1103 11 -1040 
Q 188 -978 325 -856 
Q 494 -709 644 -441 
Q 819 -125 973 367 
Q 1128 859 1266 1506 
Q 1375 2006 1438 2394 
Q 1522 2922 1522 3272 
Q 1522 3641 1431 3850 
Q 1341 4059 1173 4143 
Q 1006 4228 738 4228 
L 794 4484 
z
" transform="scale(0.015625)"/>
      </defs>
      <use xlink:href="#Cambria-Italic-44"/>
      <use xlink:href="#Cambria-Italic-69" x="64.648438"/>
      <use xlink:href="#Cambria-Italic-73" x="91.748047"/>
      <use xlink:href="#Cambria-Italic-70" x="129.931641"/>
      <use xlink:href="#Cambria-Italic-6c" x="182.617188"/>
      <use xlink:href="#Cambria-Italic-61" x="209.277344"/>
      <use xlink:href="#Cambria-Italic-63" x="261.865234"/>
      <use xlink:href="#Cambria-Italic-65" x="305.175781"/>
      <use xlink:href="#Cambria-Italic-6d" x="350.878906"/>
      <use xlink:href="#Cambria-Italic-65" x="430.761719"/>
      <use xlink:href="#Cambria-Italic-6e" x="476.464844"/>
      <use xlink:href="#Cambria-Italic-74" x="529.980469"/>
      <use xlink:href="#Cambria-Italic-20" x="564.501953"/>
      <use xlink:href="#Cambria-Italic-28" x="586.523438"/>
      <use xlink:href="#Cambria-Italic-6d" x="623.681641"/>
      <use xlink:href="#Cambria-Italic-6d" x="703.564453"/>
      <use xlink:href="#Cambria-Italic-29" x="783.447266"/>
     </g>
    </g>
   </g>
   <g id="matplotlib.axis_2">
    <g id="ytick_1">
     <g id="line2d_15">
      <path d="M 46.486563 334.145069 
L 481.436562 334.145069 
" clip-path="url(#pf02f33a8d9)" style="fill: none; stroke-dasharray: 0.8,1.32; stroke-dashoffset: 0; stroke: #b0b0b0; stroke-width: 0.8"/>
     </g>
     <g id="line2d_16">
      <defs>
       <path id="m7f6b1e6fe6" d="M 0 0 
L -3.5 0 
" style="stroke: #000000; stroke-width: 0.8"/>
      </defs>
      <g>
       <use xlink:href="#m7f6b1e6fe6" x="46.486563" y="334.145069" style="stroke: #000000; stroke-width: 0.8"/>
      </g>
     </g>
     <g id="text_9">
      <!-- −6 -->
      <g transform="translate(23.981563 339.036319) scale(0.14 -0.14)">
       <defs>
        <path id="Cambria-36" d="M 2847 4144 
L 2847 3991 
Q 2366 3991 1994 3784 
Q 1622 3578 1376 3178 
Q 1131 2778 1031 2228 
L 1063 2216 
Q 1325 2403 1579 2490 
Q 1834 2578 2131 2578 
Q 2484 2578 2732 2423 
Q 2981 2269 3106 1989 
Q 3231 1709 3231 1334 
Q 3231 928 3075 617 
Q 2919 306 2592 128 
Q 2266 -50 1788 -50 
Q 1103 -50 754 375 
Q 406 800 406 1628 
Q 406 2184 581 2668 
Q 756 3153 1078 3514 
Q 1400 3875 1825 4083 
Q 2250 4291 2719 4316 
L 2847 4144 
z
M 1916 2250 
Q 1763 2250 1620 2215 
Q 1478 2181 1353 2115 
Q 1228 2050 1109 1950 
Q 1072 1916 1053 1878 
Q 1022 1819 1012 1731 
Q 1003 1644 1003 1438 
Q 1003 841 1203 528 
Q 1403 216 1809 216 
Q 2044 216 2203 297 
Q 2363 378 2461 520 
Q 2559 663 2601 855 
Q 2644 1047 2644 1272 
Q 2644 1734 2453 1992 
Q 2263 2250 1916 2250 
z
" transform="scale(0.015625)"/>
       </defs>
       <use xlink:href="#Cambria-2212"/>
       <use xlink:href="#Cambria-36" x="55.371094"/>
      </g>
     </g>
    </g>
    <g id="ytick_2">
     <g id="line2d_17">
      <path d="M 46.486563 288.623891 
L 481.436562 288.623891 
" clip-path="url(#pf02f33a8d9)" style="fill: none; stroke-dasharray: 0.8,1.32; stroke-dashoffset: 0; stroke: #b0b0b0; stroke-width: 0.8"/>
     </g>
     <g id="line2d_18">
      <g>
       <use xlink:href="#m7f6b1e6fe6" x="46.486563" y="288.623891" style="stroke: #000000; stroke-width: 0.8"/>
      </g>
     </g>
     <g id="text_10">
      <!-- −4 -->
      <g transform="translate(23.981563 293.515141) scale(0.14 -0.14)">
       <defs>
        <path id="Cambria-34" d="M 1613 153 
Q 1806 203 1872 264 
Q 1938 325 1958 437 
Q 1978 550 1978 781 
L 1978 1294 
L 241 1294 
L 241 1528 
L 2069 4288 
L 2516 4288 
L 2516 1597 
L 2581 1597 
Q 2763 1597 2841 1623 
Q 2919 1650 2970 1717 
Q 3022 1784 3066 1938 
L 3303 1938 
L 3266 1294 
L 2516 1294 
L 2516 781 
Q 2516 572 2530 475 
Q 2544 378 2576 322 
Q 2609 266 2673 228 
Q 2738 191 2881 153 
L 2881 0 
L 1613 0 
L 1613 153 
z
M 756 1597 
L 1978 1597 
L 1978 2375 
Q 1978 2669 1987 3033 
Q 1997 3397 2009 3581 
L 1978 3581 
L 756 1641 
L 756 1597 
z
" transform="scale(0.015625)"/>
       </defs>
       <use xlink:href="#Cambria-2212"/>
       <use xlink:href="#Cambria-34" x="55.371094"/>
      </g>
     </g>
    </g>
    <g id="ytick_3">
     <g id="line2d_19">
      <path d="M 46.486563 243.102714 
L 481.436562 243.102714 
" clip-path="url(#pf02f33a8d9)" style="fill: none; stroke-dasharray: 0.8,1.32; stroke-dashoffset: 0; stroke: #b0b0b0; stroke-width: 0.8"/>
     </g>
     <g id="line2d_20">
      <g>
       <use xlink:href="#m7f6b1e6fe6" x="46.486563" y="243.102714" style="stroke: #000000; stroke-width: 0.8"/>
      </g>
     </g>
     <g id="text_11">
      <!-- −2 -->
      <g transform="translate(23.981563 247.993964) scale(0.14 -0.14)">
       <use xlink:href="#Cambria-2212"/>
       <use xlink:href="#Cambria-32" x="55.371094"/>
      </g>
     </g>
    </g>
    <g id="ytick_4">
     <g id="line2d_21">
      <path d="M 46.486563 197.581536 
L 481.436562 197.581536 
" clip-path="url(#pf02f33a8d9)" style="fill: none; stroke-dasharray: 0.8,1.32; stroke-dashoffset: 0; stroke: #b0b0b0; stroke-width: 0.8"/>
     </g>
     <g id="line2d_22">
      <g>
       <use xlink:href="#m7f6b1e6fe6" x="46.486563" y="197.581536" style="stroke: #000000; stroke-width: 0.8"/>
      </g>
     </g>
     <g id="text_12">
      <!-- 0 -->
      <g transform="translate(31.734063 202.472786) scale(0.14 -0.14)">
       <use xlink:href="#Cambria-30"/>
      </g>
     </g>
    </g>
    <g id="ytick_5">
     <g id="line2d_23">
      <path d="M 46.486563 152.060359 
L 481.436562 152.060359 
" clip-path="url(#pf02f33a8d9)" style="fill: none; stroke-dasharray: 0.8,1.32; stroke-dashoffset: 0; stroke: #b0b0b0; stroke-width: 0.8"/>
     </g>
     <g id="line2d_24">
      <g>
       <use xlink:href="#m7f6b1e6fe6" x="46.486563" y="152.060359" style="stroke: #000000; stroke-width: 0.8"/>
      </g>
     </g>
     <g id="text_13">
      <!-- 2 -->
      <g transform="translate(31.734063 156.951609) scale(0.14 -0.14)">
       <use xlink:href="#Cambria-32"/>
      </g>
     </g>
    </g>
    <g id="ytick_6">
     <g id="line2d_25">
      <path d="M 46.486563 106.539181 
L 481.436562 106.539181 
" clip-path="url(#pf02f33a8d9)" style="fill: none; stroke-dasharray: 0.8,1.32; stroke-dashoffset: 0; stroke: #b0b0b0; stroke-width: 0.8"/>
     </g>
     <g id="line2d_26">
      <g>
       <use xlink:href="#m7f6b1e6fe6" x="46.486563" y="106.539181" style="stroke: #000000; stroke-width: 0.8"/>
      </g>
     </g>
     <g id="text_14">
      <!-- 4 -->
      <g transform="translate(31.734063 111.430431) scale(0.14 -0.14)">
       <use xlink:href="#Cambria-34"/>
      </g>
     </g>
    </g>
    <g id="ytick_7">
     <g id="line2d_27">
      <path d="M 46.486563 61.018004 
L 481.436562 61.018004 
" clip-path="url(#pf02f33a8d9)" style="fill: none; stroke-dasharray: 0.8,1.32; stroke-dashoffset: 0; stroke: #b0b0b0; stroke-width: 0.8"/>
     </g>
     <g id="line2d_28">
      <g>
       <use xlink:href="#m7f6b1e6fe6" x="46.486563" y="61.018004" style="stroke: #000000; stroke-width: 0.8"/>
      </g>
     </g>
     <g id="text_15">
      <!-- 6 -->
      <g transform="translate(31.734063 65.909254) scale(0.14 -0.14)">
       <use xlink:href="#Cambria-36"/>
      </g>
     </g>
    </g>
    <g id="text_16">
     <!-- Base Shear (kN) -->
     <g transform="translate(17.00875 245.760625) rotate(-90) scale(0.14 -0.14)">
      <defs>
       <path id="Cambria-Italic-42" d="M 2797 2184 
Q 3088 2069 3244 1855 
Q 3400 1641 3400 1369 
Q 3400 1047 3283 792 
Q 3166 538 2912 347 
Q 2659 156 2331 78 
Q 2003 0 1522 0 
L 131 0 
L 166 153 
Q 284 172 343 214 
Q 403 256 443 331 
Q 484 406 518 514 
Q 553 622 622 931 
L 1153 3338 
Q 1222 3650 1222 3831 
Q 1222 3984 1150 4043 
Q 1078 4103 916 4113 
L 950 4266 
L 2497 4266 
Q 2966 4266 3248 4167 
Q 3531 4069 3664 3878 
Q 3797 3688 3797 3400 
Q 3797 2991 3547 2686 
Q 3297 2381 2803 2219 
L 2797 2184 
z
M 1934 2353 
Q 2259 2353 2457 2397 
Q 2656 2441 2781 2528 
Q 2906 2616 3004 2733 
Q 3103 2850 3161 3009 
Q 3219 3169 3219 3384 
Q 3219 3519 3172 3636 
Q 3125 3753 3011 3836 
Q 2897 3919 2748 3955 
Q 2600 3991 2353 3991 
Q 2081 3991 1847 3981 
L 1494 2353 
L 1934 2353 
z
M 1041 288 
Q 1284 275 1497 275 
Q 1969 275 2226 394 
Q 2484 513 2643 781 
Q 2803 1050 2803 1425 
Q 2803 1628 2723 1768 
Q 2644 1909 2470 1993 
Q 2297 2078 1994 2078 
L 1428 2078 
L 1041 288 
z
" transform="scale(0.015625)"/>
       <path id="Cambria-Italic-53" d="M 497 972 
Q 497 594 672 408 
Q 847 222 1219 222 
Q 1506 222 1712 328 
Q 1919 434 2025 629 
Q 2131 825 2131 1094 
Q 2131 1284 2064 1429 
Q 1997 1575 1861 1708 
Q 1725 1841 1469 2013 
Q 1238 2169 1084 2320 
Q 931 2472 840 2659 
Q 750 2847 750 3078 
Q 750 3447 928 3728 
Q 1106 4009 1431 4162 
Q 1756 4316 2181 4316 
Q 2469 4316 2714 4277 
Q 2959 4238 3256 4144 
L 3081 3341 
L 2781 3341 
Q 2769 3606 2700 3757 
Q 2631 3909 2503 3975 
Q 2375 4041 2163 4041 
Q 1903 4041 1706 3934 
Q 1509 3828 1406 3645 
Q 1303 3463 1303 3238 
Q 1303 3075 1359 2947 
Q 1416 2819 1539 2695 
Q 1663 2572 1900 2409 
Q 2206 2197 2367 2030 
Q 2528 1863 2604 1675 
Q 2681 1488 2681 1241 
Q 2681 863 2498 567 
Q 2316 272 1983 111 
Q 1650 -50 1225 -50 
Q 934 -50 607 -6 
Q 281 38 9 113 
L 197 972 
L 497 972 
z
" transform="scale(0.015625)"/>
       <path id="Cambria-Italic-68" d="M 2916 0 
L 1934 0 
L 2328 1588 
Q 2372 1759 2405 1936 
Q 2438 2113 2438 2256 
Q 2438 2481 2363 2576 
Q 2288 2672 2109 2672 
Q 1981 2672 1826 2565 
Q 1672 2459 1500 2242 
Q 1328 2025 1226 1826 
Q 1125 1628 1066 1353 
L 781 0 
L 241 0 
L 1044 3572 
Q 1078 3728 1092 3798 
Q 1106 3869 1112 3928 
Q 1119 3988 1119 4034 
Q 1119 4166 1039 4219 
Q 959 4272 753 4278 
L 791 4441 
L 1581 4469 
L 1763 4469 
L 1225 2303 
L 1263 2291 
Q 1556 2681 1822 2859 
Q 2088 3038 2363 3038 
Q 2666 3038 2822 2870 
Q 2978 2703 2978 2375 
Q 2978 2175 2916 1894 
L 2653 781 
Q 2622 647 2609 565 
Q 2597 484 2597 425 
Q 2597 328 2630 275 
Q 2663 222 2730 195 
Q 2797 169 2944 153 
L 2916 0 
z
" transform="scale(0.015625)"/>
       <path id="Cambria-Italic-72" d="M 1244 3016 
L 1431 3016 
L 1213 2247 
L 1250 2234 
Q 1547 2644 1830 2841 
Q 2113 3038 2413 3038 
Q 2641 3038 2794 3003 
L 2644 2303 
L 2322 2303 
Q 2297 2466 2244 2550 
Q 2191 2634 2078 2634 
Q 1956 2634 1797 2509 
Q 1638 2384 1472 2165 
Q 1306 1947 1223 1762 
Q 1141 1578 1097 1353 
L 813 0 
L 272 0 
L 747 2134 
Q 813 2428 813 2581 
Q 813 2669 784 2717 
Q 756 2766 693 2789 
Q 631 2813 481 2822 
L 516 2988 
L 1244 3016 
z
" transform="scale(0.015625)"/>
       <path id="Cambria-Italic-6b" d="M 1150 1741 
L 1250 1741 
Q 1347 1741 1459 1778 
Q 1572 1816 1700 1895 
Q 1828 1975 2044 2147 
Q 2206 2278 2284 2370 
Q 2363 2463 2391 2531 
Q 2419 2600 2419 2663 
Q 2419 2816 2206 2834 
L 2241 2988 
L 3253 2988 
L 3313 2834 
Q 3053 2600 2763 2375 
L 1972 1759 
L 2441 575 
Q 2503 416 2568 330 
Q 2634 244 2720 203 
Q 2806 163 2941 153 
L 2906 0 
L 2072 0 
L 1616 1284 
Q 1572 1406 1540 1450 
Q 1509 1494 1468 1512 
Q 1428 1531 1338 1531 
L 1106 1531 
L 781 0 
L 241 0 
L 1044 3572 
Q 1078 3728 1092 3798 
Q 1106 3869 1112 3928 
Q 1119 3988 1119 4034 
Q 1119 4166 1039 4219 
Q 959 4272 753 4278 
L 791 4441 
L 1581 4469 
L 1763 4469 
L 1150 1741 
z
" transform="scale(0.015625)"/>
       <path id="Cambria-Italic-4e" d="M 4463 4266 
L 4428 4113 
Q 4309 4088 4257 4056 
Q 4206 4025 4164 3962 
Q 4122 3900 4080 3767 
Q 4038 3634 3972 3334 
L 3238 0 
L 2813 0 
L 1900 2681 
Q 1734 3163 1609 3641 
L 1569 3641 
Q 1550 3481 1465 3032 
Q 1381 2584 1288 2156 
L 1013 909 
Q 984 778 965 656 
Q 947 534 947 422 
Q 947 281 1017 223 
Q 1088 166 1253 153 
L 1219 0 
L 125 0 
L 159 153 
Q 278 172 337 214 
Q 397 256 437 331 
Q 478 406 512 514 
Q 547 622 616 931 
L 1147 3338 
Q 1178 3472 1197 3594 
Q 1216 3716 1216 3841 
Q 1216 3988 1141 4045 
Q 1066 4103 909 4113 
L 944 4266 
L 1941 4266 
L 2766 1831 
Q 2944 1306 3041 944 
L 3075 944 
Q 3100 1134 3189 1578 
Q 3278 2022 3353 2353 
L 3572 3338 
Q 3594 3441 3617 3581 
Q 3641 3722 3641 3841 
Q 3641 3988 3566 4045 
Q 3491 4103 3334 4113 
L 3369 4266 
L 4463 4266 
z
" transform="scale(0.015625)"/>
      </defs>
      <use xlink:href="#Cambria-Italic-42"/>
      <use xlink:href="#Cambria-Italic-61" x="59.619141"/>
      <use xlink:href="#Cambria-Italic-73" x="112.207031"/>
      <use xlink:href="#Cambria-Italic-65" x="150.390625"/>
      <use xlink:href="#Cambria-Italic-20" x="196.09375"/>
      <use xlink:href="#Cambria-Italic-53" x="218.115234"/>
      <use xlink:href="#Cambria-Italic-68" x="266.259766"/>
      <use xlink:href="#Cambria-Italic-65" x="319.287109"/>
      <use xlink:href="#Cambria-Italic-61" x="364.990234"/>
      <use xlink:href="#Cambria-Italic-72" x="417.578125"/>
      <use xlink:href="#Cambria-Italic-20" x="458.300781"/>
      <use xlink:href="#Cambria-Italic-28" x="480.322266"/>
      <use xlink:href="#Cambria-Italic-6b" x="517.480469"/>
      <use xlink:href="#Cambria-Italic-4e" x="567.1875"/>
      <use xlink:href="#Cambria-Italic-29" x="634.277344"/>
     </g>
    </g>
    <g id="text_17">
     <!-- 1e6 -->
     <g transform="translate(46.486563 21.38) scale(0.14 -0.14)">
      <defs>
       <path id="TimesNewRomanPSMT-31" d="M 750 3822 
L 1781 4325 
L 1884 4325 
L 1884 747 
Q 1884 391 1914 303 
Q 1944 216 2037 169 
Q 2131 122 2419 116 
L 2419 0 
L 825 0 
L 825 116 
Q 1125 122 1212 167 
Q 1300 213 1334 289 
Q 1369 366 1369 747 
L 1369 3034 
Q 1369 3497 1338 3628 
Q 1316 3728 1258 3775 
Q 1200 3822 1119 3822 
Q 1003 3822 797 3725 
L 750 3822 
z
" transform="scale(0.015625)"/>
       <path id="TimesNewRomanPSMT-65" d="M 681 1784 
Q 678 1147 991 784 
Q 1303 422 1725 422 
Q 2006 422 2214 576 
Q 2422 731 2563 1106 
L 2659 1044 
Q 2594 616 2278 264 
Q 1963 -88 1488 -88 
Q 972 -88 605 314 
Q 238 716 238 1394 
Q 238 2128 614 2539 
Q 991 2950 1559 2950 
Q 2041 2950 2350 2633 
Q 2659 2316 2659 1784 
L 681 1784 
z
M 681 1966 
L 2006 1966 
Q 1991 2241 1941 2353 
Q 1863 2528 1708 2628 
Q 1553 2728 1384 2728 
Q 1125 2728 920 2526 
Q 716 2325 681 1966 
z
" transform="scale(0.015625)"/>
       <path id="TimesNewRomanPSMT-36" d="M 2869 4325 
L 2869 4209 
Q 2456 4169 2195 4045 
Q 1934 3922 1679 3669 
Q 1425 3416 1258 3105 
Q 1091 2794 978 2366 
Q 1428 2675 1881 2675 
Q 2316 2675 2634 2325 
Q 2953 1975 2953 1425 
Q 2953 894 2631 456 
Q 2244 -75 1606 -75 
Q 1172 -75 869 213 
Q 275 772 275 1663 
Q 275 2231 503 2743 
Q 731 3256 1154 3653 
Q 1578 4050 1965 4187 
Q 2353 4325 2688 4325 
L 2869 4325 
z
M 925 2138 
Q 869 1716 869 1456 
Q 869 1156 980 804 
Q 1091 453 1309 247 
Q 1469 100 1697 100 
Q 1969 100 2183 356 
Q 2397 613 2397 1088 
Q 2397 1622 2184 2012 
Q 1972 2403 1581 2403 
Q 1463 2403 1327 2353 
Q 1191 2303 925 2138 
z
" transform="scale(0.015625)"/>
      </defs>
      <use xlink:href="#TimesNewRomanPSMT-31"/>
      <use xlink:href="#TimesNewRomanPSMT-65" x="50"/>
      <use xlink:href="#TimesNewRomanPSMT-36" x="94.384766"/>
     </g>
    </g>
   </g>
   <g id="line2d_29">
    <path d="M 269.158843 197.581536 
L 269.961646 177.688372 
L 270.869955 166.829369 
L 271.972849 157.019908 
L 274.148232 140.39262 
L 275.190123 132.880397 
L 274.056323 141.705407 
L 271.541765 162.293584 
L 270.411988 174.455092 
L 269.158843 200.288941 
L 267.801269 223.101914 
L 266.361499 235.600482 
L 264.864697 245.8679 
L 263.338521 255.037063 
L 261.812623 263.055839 
L 260.318095 269.994427 
L 258.886866 275.825091 
L 257.551066 280.477939 
L 256.342372 284.015679 
L 255.291338 286.612007 
L 253.774893 289.568673 
L 253.199056 290.537711 
L 258.139514 254.734727 
L 261.950813 227.870766 
L 266.600338 192.5507 
L 269.158843 171.330899 
L 271.821777 151.483793 
L 274.54632 137.33459 
L 277.287047 126.031768 
L 279.996683 117.625355 
L 282.626912 111.456913 
L 285.129226 106.769461 
L 287.455802 103.11324 
L 289.56039 100.248157 
L 292.931709 96.301495 
L 295.353136 93.845602 
L 295.349262 93.8739 
L 292.726148 112.781946 
L 290.986794 124.723165 
L 288.836636 138.610409 
L 286.300022 153.697368 
L 283.408596 169.029223 
L 280.200932 184.306794 
L 276.722032 199.770384 
L 273.022708 213.134644 
L 269.158843 228.07217 
L 265.190549 244.530158 
L 261.181233 258.566844 
L 257.19658 270.130299 
L 253.303484 279.421244 
L 249.568924 286.939379 
L 246.058825 292.681994 
L 242.836901 296.798099 
L 239.963525 299.921844 
L 237.494621 302.326577 
L 233.965468 305.401235 
L 232.569989 306.516912 
L 234.855936 290.092423 
L 236.797768 276.767824 
L 239.305909 260.707128 
L 242.351415 243.149496 
L 245.895814 225.669345 
L 249.891571 209.083547 
L 254.282695 193.930238 
L 259.005521 183.189649 
L 269.158843 165.389838 
L 274.432496 152.123027 
L 279.726586 137.259953 
L 284.955165 124.56641 
L 290.031721 114.293514 
L 294.870611 106.037244 
L 299.388496 99.505982 
L 303.505767 94.54361 
L 307.147931 90.997563 
L 310.246941 88.442457 
L 314.58285 85.23882 
L 316.142257 84.177639 
L 312.885626 107.200819 
L 310.313688 123.995829 
L 307.036759 143.170129 
L 303.095906 162.43247 
L 298.543721 180.60527 
L 293.443634 196.807923 
L 287.869049 208.581806 
L 281.902298 216.815381 
L 275.633427 224.520667 
L 269.158843 232.820095 
L 262.57983 244.436978 
L 256.000966 259.070482 
L 249.528463 272.567411 
L 243.268446 283.531575 
L 237.325225 292.340719 
L 231.799555 299.342397 
L 226.786937 304.759714 
L 222.375984 308.765324 
L 218.646869 311.485682 
L 213.504203 314.708898 
L 211.780868 315.701911 
L 213.688823 302.059758 
L 216.008184 286.247184 
L 219.210227 266.323509 
L 223.255945 244.854378 
L 228.092144 224.373635 
L 233.652115 205.878524 
L 239.856533 190.917417 
L 246.614578 181.898499 
L 253.825254 174.226624 
L 261.378899 167.022044 
L 269.158843 159.893558 
L 277.043216 149.997987 
L 292.623282 120.992603 
L 300.066758 109.11637 
L 307.11431 99.644461 
L 313.647766 92.283468 
L 319.555731 86.583116 
L 324.735472 82.282099 
L 329.094692 79.549903 
L 335.044115 76.339114 
L 336.931379 75.41139 
L 334.534224 92.415299 
L 331.733377 111.041848 
L 327.901229 133.647923 
L 323.086723 156.533892 
L 317.355177 177.567722 
L 310.78742 195.591422 
L 303.478671 207.988311 
L 295.537166 216.418051 
L 287.082564 223.679667 
L 278.244147 230.393834 
L 269.158843 237.066857 
L 259.96911 246.677794 
L 250.8207 261.675224 
L 241.860345 276.784442 
L 233.233409 289.123426 
L 225.081526 299.01077 
L 217.540284 306.659445 
L 210.736973 312.549697 
L 204.788443 316.951621 
L 199.799118 319.621064 
L 193.042938 322.698372 
L 190.991746 323.568664 
L 193.878102 303.220512 
L 197.160433 281.931618 
L 201.622686 256.986118 
L 207.20598 233.261335 
L 213.832874 212.150532 
L 221.408416 194.727881 
L 229.821496 184.289648 
L 238.946461 176.273212 
L 248.644988 169.168706 
L 258.768179 162.618773 
L 269.158843 156.180049 
L 279.653935 146.751335 
L 290.087119 131.634688 
L 300.291399 115.844052 
L 310.101796 103.118572 
L 319.358009 92.964592 
L 327.907037 85.009403 
L 335.605695 78.964847 
L 342.323013 74.571555 
L 347.942443 72.013525 
L 357.7205 68.033884 
L 354.344945 91.716765 
L 350.581128 115.496547 
L 345.48877 142.093313 
L 339.136687 166.399049 
L 331.614447 187.313421 
L 323.031119 203.532157 
L 313.513709 213.029809 
L 303.205284 220.724499 
L 292.262831 227.70935 
L 280.854866 234.066002 
L 269.158843 240.375643 
L 257.358391 249.745509 
L 245.640434 265.548815 
L 234.192228 281.625042 
L 223.198371 294.335113 
L 212.837827 304.506966 
L 203.281014 312.710484 
L 194.687008 319.271585 
L 187.200903 323.731376 
L 180.951367 326.448302 
L 172.581674 329.629856 
L 170.202625 330.476566 
L 174.06738 303.534384 
L 178.312682 277.431049 
L 184.035145 249.534809 
L 191.156016 224.786985 
L 199.573603 204.124469 
L 209.164717 189.236753 
L 219.786458 179.931997 
L 231.278343 172.270655 
L 243.464722 164.935386 
L 256.15746 158.108785 
L 269.158843 150.956952 
L 282.264655 141.624313 
L 295.267385 128.118705 
L 307.959517 112.663837 
L 320.136833 99.19542 
L 331.601709 88.717104 
L 342.166307 80.216575 
L 351.65566 73.473356 
L 359.910554 68.356092 
L 366.790194 65.649052 
L 378.509622 61.598263 
L 377.19432 71.017837 
L 374.155666 91.761022 
L 369.42888 119.996856 
L 363.076311 148.756768 
L 355.186652 173.633575 
L 345.873717 193.863785 
L 335.274818 207.592822 
L 323.548746 216.638318 
L 310.873401 224.172906 
L 297.443097 231.557017 
L 283.465586 238.330374 
L 269.158843 245.527831 
L 254.747671 254.949741 
L 240.460167 268.588766 
L 226.524111 284.49643 
L 213.163334 297.924848 
L 200.594128 308.42145 
L 189.021743 317.087054 
L 178.637044 324.15521 
L 169.613362 329.663361 
L 162.103616 332.448908 
L 149.413503 336.61051 
L 150.892733 326.026083 
L 154.256659 303.24474 
L 159.464931 273.019497 
L 166.447604 243.610643 
L 175.106052 218.648442 
L 185.314333 198.730091 
L 196.921018 185.927603 
L 209.751421 176.945916 
L 223.610226 169.182746 
L 238.284455 161.309293 
L 269.158843 146.504091 
L 284.875374 137.731705 
L 300.447652 125.43896 
L 315.627634 109.773407 
L 330.171871 96.022565 
L 343.845408 85.294174 
L 356.425578 76.433225 
L 367.705624 69.105143 
L 377.498094 63.194091 
L 385.637946 60.017148 
L 398.882961 55.878605 
L 399.298743 55.755403 
L 397.655585 67.493247 
L 393.966388 92.196612 
L 388.276631 124.230855 
L 380.663852 153.939763 
L 371.236616 178.696665 
L 360.132988 198.122067 
L 347.518518 209.938349 
L 333.583784 218.726124 
L 318.541518 226.43568 
L 302.623364 233.992624 
L 286.076305 240.844424 
L 269.158843 248.093743 
L 252.136952 257.694295 
L 235.279901 271.424959 
L 218.855993 288.1845 
L 203.128296 301.558829 
L 188.350428 312.119544 
L 174.762473 321.029776 
L 162.58708 328.420898 
L 152.025821 334.493352 
L 143.255864 337.958087 
L 128.624382 342.259086 
L 130.431469 329.36464 
L 134.445937 302.779398 
L 140.617179 269.214246 
L 148.860064 239.297723 
L 159.056087 214.878658 
L 171.055063 196.413735 
L 184.677319 185.093611 
L 199.716383 176.473637 
L 215.942109 168.867439 
L 233.104189 161.566354 
L 250.936021 154.914712 
L 269.158843 147.88754 
L 287.486094 137.466411 
L 305.627918 121.321188 
L 323.295751 104.354843 
L 340.206909 91.541871 
L 356.089107 81.140794 
L 370.684848 72.24106 
L 383.755588 64.626171 
L 395.085635 58.426714 
L 404.485697 54.664004 
L 420.087865 50.242733 
L 418.116849 64.277558 
L 413.777109 92.709982 
L 407.124382 127.514801 
L 398.251393 157.514141 
L 387.286581 181.55489 
L 374.392258 199.257685 
L 359.762217 210.084298 
L 343.618821 218.553964 
L 326.209636 226.13717 
L 307.80363 233.137902 
L 269.158843 245.964002 
L 249.526232 256.533906 
L 230.099635 276.455972 
L 211.187876 293.434844 
L 193.093258 305.792328 
L 176.106729 316.009702 
L 160.503203 324.88064 
L 146.537115 332.551241 
L 134.43828 339.024126 
L 124.408113 343.029819 
L 107.83526 347.573344 
L 109.970204 332.394142 
L 114.635216 302.142138 
L 121.769428 266.284023 
L 131.272523 236.105364 
L 143.006123 212.287906 
L 156.795792 195.290613 
L 172.433619 184.575879 
L 189.681346 175.989683 
L 208.273991 168.203209 
L 227.923923 160.947189 
L 248.325301 154.270684 
L 269.158843 147.147286 
L 290.096813 135.466491 
L 310.808184 117.307283 
L 330.963869 100.831594 
L 350.241946 88.180218 
L 368.332806 77.803151 
L 384.944118 68.765601 
L 399.805553 60.941099 
L 412.673176 54.305298 
L 423.333448 49.78084 
L 440.876986 45.123533 
L 438.578114 61.429652 
L 433.587831 93.391424 
L 425.972133 130.064637 
L 415.838933 160.295888 
L 403.336545 183.736109 
L 388.651529 200.010844 
L 372.005916 210.49342 
L 353.653859 219.038694 
L 333.877753 226.828934 
L 312.983896 233.965967 
L 269.158843 247.117274 
L 246.915513 258.637713 
L 224.919368 279.520056 
L 203.519759 296.551061 
L 183.058221 308.897632 
L 163.86303 319.238234 
L 146.243932 328.326671 
L 130.487151 336.24552 
L 116.850739 342.971954 
L 105.560362 347.825075 
L 87.046139 352.54702 
L 89.508939 335.096957 
L 94.824495 301.439852 
L 102.921677 264.067756 
L 113.684982 233.731546 
L 126.956159 210.549667 
L 142.536522 194.860695 
L 160.18992 184.374215 
L 179.646308 175.648436 
L 200.605874 167.630605 
L 222.743656 160.153269 
L 245.714582 153.302431 
L 269.158843 145.85575 
L 292.707533 133.29533 
L 315.988451 114.472361 
L 338.631986 97.518403 
L 360.276984 84.982416 
L 380.576505 74.459225 
L 415.855517 57.053256 
L 430.260717 50.17811 
L 442.181199 45.086911 
L 461.666108 40.232727 
L 459.039379 58.813677 
L 453.398552 94.090323 
L 444.819885 131.988227 
L 433.426474 162.261446 
L 419.386509 185.072077 
L 402.910799 200.173626 
L 384.249615 210.493967 
L 363.688896 219.194709 
L 341.54587 227.288909 
L 318.164163 234.656357 
L 293.908464 241.360804 
L 269.158843 248.339954 
L 244.304793 260.893083 
L 219.739102 282.634247 
L 195.851641 299.56356 
L 173.023183 311.907199 
L 151.619331 322.390944 
L 114.437186 339.897511 
L 99.263199 347.001371 
L 86.712611 352.275463 
L 66.257017 357.287273 
L 69.047675 337.58935 
L 75.013773 300.710009 
L 84.073925 262.38298 
L 96.097441 232.184886 
L 110.906194 209.704741 
L 128.277252 195.061253 
L 147.946221 184.746374 
L 169.611271 175.919597 
L 192.937757 167.713199 
L 217.56339 160.308399 
L 217.56339 160.308399 
" clip-path="url(#pf02f33a8d9)" style="fill: none; stroke: #ff0000; stroke-width: 1.2; stroke-linecap: square"/>
   </g>
   <g id="line2d_30">
    <path d="M 46.486563 197.581536 
L 481.436562 197.581536 
" clip-path="url(#pf02f33a8d9)" style="fill: none; stroke: #000000; stroke-width: 0.4; stroke-linecap: square"/>
   </g>
   <g id="line2d_31">
    <path d="M 269.158843 373.14 
L 269.158843 24.38 
" clip-path="url(#pf02f33a8d9)" style="fill: none; stroke: #000000; stroke-width: 0.4; stroke-linecap: square"/>
   </g>
   <g id="patch_3">
    <path d="M 46.486563 373.14 
L 46.486563 24.38 
" style="fill: none; stroke: #000000; stroke-width: 0.8; stroke-linejoin: miter; stroke-linecap: square"/>
   </g>
   <g id="patch_4">
    <path d="M 481.436562 373.14 
L 481.436562 24.38 
" style="fill: none; stroke: #000000; stroke-width: 0.8; stroke-linejoin: miter; stroke-linecap: square"/>
   </g>
   <g id="patch_5">
    <path d="M 46.486563 373.14 
L 481.436563 373.14 
" style="fill: none; stroke: #000000; stroke-width: 0.8; stroke-linejoin: miter; stroke-linecap: square"/>
   </g>
   <g id="patch_6">
    <path d="M 46.486563 24.38 
L 481.436563 24.38 
" style="fill: none; stroke: #000000; stroke-width: 0.8; stroke-linejoin: miter; stroke-linecap: square"/>
   </g>
   <g id="text_18">
    <!-- Specimen -->
    <g transform="translate(230.867813 18.38) scale(0.16 -0.16)">
     <defs>
      <path id="Cambria-53" d="M 663 972 
Q 725 697 831 537 
Q 938 378 1106 301 
Q 1275 225 1541 225 
Q 1906 225 2101 415 
Q 2297 606 2297 972 
Q 2297 1206 2215 1365 
Q 2134 1525 1950 1665 
Q 1766 1806 1388 1994 
Q 1022 2175 809 2348 
Q 597 2522 492 2725 
Q 388 2928 388 3169 
Q 388 3519 552 3776 
Q 716 4034 1033 4175 
Q 1350 4316 1759 4316 
Q 1997 4316 2223 4291 
Q 2450 4266 2791 4178 
L 2791 3334 
L 2481 3334 
Q 2409 3609 2300 3762 
Q 2191 3916 2044 3977 
Q 1897 4038 1663 4038 
Q 1459 4038 1298 3963 
Q 1138 3888 1044 3736 
Q 950 3584 950 3375 
Q 950 3153 1029 3000 
Q 1109 2847 1278 2715 
Q 1447 2584 1778 2422 
Q 2178 2222 2398 2050 
Q 2619 1878 2742 1658 
Q 2866 1438 2866 1144 
Q 2866 816 2762 589 
Q 2659 363 2476 220 
Q 2294 78 2039 14 
Q 1784 -50 1481 -50 
Q 991 -50 350 116 
L 350 972 
L 663 972 
z
" transform="scale(0.015625)"/>
      <path id="Cambria-70" d="M 1150 94 
L 1150 -566 
Q 1150 -769 1164 -869 
Q 1178 -969 1214 -1026 
Q 1250 -1084 1317 -1121 
Q 1384 -1159 1534 -1191 
L 1534 -1344 
L 259 -1344 
L 259 -1191 
Q 372 -1159 442 -1126 
Q 513 -1094 550 -1030 
Q 588 -966 600 -856 
Q 613 -747 613 -566 
L 613 2116 
Q 613 2341 606 2436 
Q 600 2531 581 2593 
Q 563 2656 527 2697 
Q 491 2738 430 2766 
Q 369 2794 228 2822 
L 228 2988 
L 963 3016 
L 1153 3016 
L 1113 2506 
L 1159 2494 
Q 1353 2691 1465 2780 
Q 1578 2869 1698 2928 
Q 1819 2988 1930 3013 
Q 2041 3038 2166 3038 
Q 2681 3038 2957 2652 
Q 3234 2266 3234 1522 
Q 3234 1006 3078 654 
Q 2922 303 2623 126 
Q 2325 -50 1913 -50 
Q 1681 -50 1493 -11 
Q 1306 28 1150 94 
z
M 1150 1125 
Q 1150 825 1187 662 
Q 1225 500 1320 398 
Q 1416 297 1545 247 
Q 1675 197 1888 197 
Q 2266 197 2456 511 
Q 2647 825 2647 1438 
Q 2647 2663 1931 2663 
Q 1756 2663 1629 2608 
Q 1503 2553 1378 2431 
Q 1253 2309 1201 2195 
Q 1150 2081 1150 1950 
L 1150 1125 
z
" transform="scale(0.015625)"/>
      <path id="Cambria-65" d="M 2800 531 
Q 2600 322 2433 203 
Q 2266 84 2066 17 
Q 1866 -50 1625 -50 
Q 981 -50 653 336 
Q 325 722 325 1475 
Q 325 1941 492 2297 
Q 659 2653 968 2847 
Q 1278 3041 1681 3041 
Q 1997 3041 2219 2941 
Q 2441 2841 2573 2667 
Q 2706 2494 2779 2230 
Q 2853 1966 2863 1541 
L 894 1541 
L 894 1484 
Q 894 1116 976 864 
Q 1059 613 1248 470 
Q 1438 328 1741 328 
Q 1997 328 2201 423 
Q 2406 519 2609 734 
L 2800 531 
z
M 2275 1800 
Q 2256 2138 2190 2352 
Q 2125 2566 1994 2680 
Q 1863 2794 1650 2794 
Q 1328 2794 1136 2536 
Q 944 2278 909 1800 
L 2275 1800 
z
" transform="scale(0.015625)"/>
      <path id="Cambria-63" d="M 2631 2916 
L 2631 2263 
L 2234 2263 
Q 2181 2466 2103 2583 
Q 2025 2700 1922 2747 
Q 1819 2794 1666 2794 
Q 1447 2794 1278 2653 
Q 1109 2513 1011 2225 
Q 913 1938 913 1522 
Q 913 1256 950 1036 
Q 988 816 1078 659 
Q 1169 503 1319 415 
Q 1469 328 1691 328 
Q 1906 328 2092 412 
Q 2278 497 2478 709 
L 2656 503 
Q 2497 328 2375 233 
Q 2253 138 2114 73 
Q 1975 9 1839 -20 
Q 1703 -50 1544 -50 
Q 953 -50 640 342 
Q 328 734 328 1475 
Q 328 1938 503 2295 
Q 678 2653 993 2847 
Q 1309 3041 1722 3041 
Q 1978 3041 2195 3011 
Q 2413 2981 2631 2916 
z
" transform="scale(0.015625)"/>
      <path id="Cambria-69" d="M 1197 4213 
L 1197 3606 
L 622 3606 
L 622 4213 
L 1197 4213 
z
M 303 153 
Q 425 191 476 219 
Q 528 247 564 297 
Q 600 347 620 450 
Q 641 553 641 772 
L 641 2134 
Q 641 2334 634 2456 
Q 628 2578 590 2651 
Q 553 2725 476 2761 
Q 400 2797 259 2822 
L 259 2988 
L 988 3016 
L 1178 3016 
L 1178 781 
Q 1178 513 1203 408 
Q 1228 303 1298 248 
Q 1369 194 1528 153 
L 1528 0 
L 303 0 
L 303 153 
z
" transform="scale(0.015625)"/>
      <path id="Cambria-6d" d="M 1147 2506 
L 1191 2494 
Q 1378 2681 1498 2776 
Q 1619 2872 1731 2930 
Q 1844 2988 1942 3013 
Q 2041 3038 2144 3038 
Q 2456 3038 2653 2894 
Q 2850 2750 2925 2453 
Q 3159 2691 3304 2803 
Q 3450 2916 3601 2977 
Q 3753 3038 3928 3038 
Q 4138 3038 4289 2977 
Q 4441 2916 4545 2789 
Q 4650 2663 4698 2472 
Q 4747 2281 4747 1959 
L 4747 781 
Q 4747 544 4762 453 
Q 4778 363 4808 313 
Q 4838 263 4897 227 
Q 4956 191 5097 153 
L 5097 0 
L 3869 0 
L 3869 153 
Q 3991 191 4044 219 
Q 4097 247 4133 297 
Q 4169 347 4189 451 
Q 4209 556 4209 769 
L 4209 1588 
Q 4209 1853 4195 2026 
Q 4181 2200 4151 2303 
Q 4122 2406 4080 2465 
Q 4038 2525 3984 2569 
Q 3931 2613 3859 2638 
Q 3788 2663 3669 2663 
Q 3544 2663 3436 2613 
Q 3328 2563 3201 2444 
Q 3075 2325 3019 2204 
Q 2963 2084 2963 1922 
L 2963 781 
Q 2963 544 2978 453 
Q 2994 363 3023 313 
Q 3053 263 3112 227 
Q 3172 191 3313 153 
L 3313 0 
L 2084 0 
L 2084 153 
Q 2206 191 2259 219 
Q 2313 247 2348 297 
Q 2384 347 2404 451 
Q 2425 556 2425 769 
L 2425 1588 
Q 2425 1866 2409 2041 
Q 2394 2216 2361 2322 
Q 2328 2428 2276 2493 
Q 2225 2559 2172 2593 
Q 2119 2628 2047 2645 
Q 1975 2663 1884 2663 
Q 1756 2663 1643 2605 
Q 1531 2547 1414 2437 
Q 1297 2328 1237 2209 
Q 1178 2091 1178 1953 
L 1178 781 
Q 1178 603 1187 509 
Q 1197 416 1217 362 
Q 1238 309 1269 276 
Q 1300 244 1358 214 
Q 1416 184 1531 153 
L 1531 0 
L 306 0 
L 306 153 
Q 425 191 476 219 
Q 528 247 565 297 
Q 603 347 622 450 
Q 641 553 641 772 
L 641 2134 
Q 641 2334 634 2456 
Q 628 2578 590 2651 
Q 553 2725 476 2761 
Q 400 2797 259 2822 
L 259 2988 
L 991 3016 
L 1181 3016 
L 1147 2506 
z
" transform="scale(0.015625)"/>
      <path id="Cambria-6e" d="M 3347 0 
L 2116 0 
L 2116 153 
Q 2238 191 2291 219 
Q 2344 247 2380 297 
Q 2416 347 2436 451 
Q 2456 556 2456 769 
L 2456 1588 
Q 2456 1806 2443 1984 
Q 2431 2163 2401 2277 
Q 2372 2391 2330 2455 
Q 2288 2519 2230 2564 
Q 2172 2609 2097 2636 
Q 2022 2663 1900 2663 
Q 1778 2663 1668 2614 
Q 1559 2566 1428 2447 
Q 1297 2328 1237 2212 
Q 1178 2097 1178 1947 
L 1178 781 
Q 1178 513 1203 408 
Q 1228 303 1298 248 
Q 1369 194 1528 153 
L 1528 0 
L 303 0 
L 303 153 
Q 425 191 476 219 
Q 528 247 564 297 
Q 600 347 620 450 
Q 641 553 641 772 
L 641 2134 
Q 641 2334 634 2456 
Q 628 2578 590 2651 
Q 553 2725 476 2761 
Q 400 2797 259 2822 
L 259 2988 
L 991 3016 
L 1181 3016 
L 1147 2506 
L 1191 2494 
Q 1422 2728 1564 2828 
Q 1706 2928 1851 2983 
Q 1997 3038 2159 3038 
Q 2328 3038 2461 2998 
Q 2594 2959 2695 2878 
Q 2797 2797 2862 2676 
Q 2928 2556 2961 2387 
Q 2994 2219 2994 1959 
L 2994 781 
Q 2994 566 3006 469 
Q 3019 372 3050 319 
Q 3081 266 3140 230 
Q 3200 194 3347 153 
L 3347 0 
z
" transform="scale(0.015625)"/>
     </defs>
     <use xlink:href="#Cambria-53"/>
     <use xlink:href="#Cambria-70" x="49.609375"/>
     <use xlink:href="#Cambria-65" x="105.224609"/>
     <use xlink:href="#Cambria-63" x="154.003906"/>
     <use xlink:href="#Cambria-69" x="198.095703"/>
     <use xlink:href="#Cambria-6d" x="225.878906"/>
     <use xlink:href="#Cambria-65" x="309.082031"/>
     <use xlink:href="#Cambria-6e" x="357.861328"/>
    </g>
   </g>
   <g id="legend_1">
    <g id="patch_7">
     <path d="M 56.286563 55.374687 
L 199.443125 55.374687 
Q 202.243125 55.374687 202.243125 52.574687 
L 202.243125 34.18 
Q 202.243125 31.38 199.443125 31.38 
L 56.286563 31.38 
Q 53.486563 31.38 53.486563 34.18 
L 53.486563 52.574687 
Q 53.486563 55.374687 56.286563 55.374687 
z
" style="fill: #ffffff; opacity: 0.8; stroke: #cccccc; stroke-linejoin: miter"/>
    </g>
    <g id="line2d_32">
     <path d="M 59.086563 41.88 
L 73.086563 41.88 
L 87.086563 41.88 
" style="fill: none; stroke: #ff0000; stroke-width: 1.2; stroke-linecap: square"/>
    </g>
    <g id="text_19">
     <!-- Experimental test -->
     <g transform="translate(98.286563 46.78) scale(0.14 -0.14)">
      <defs>
       <path id="TimesNewRomanPSMT-45" d="M 1338 4006 
L 1338 2331 
L 2269 2331 
Q 2631 2331 2753 2441 
Q 2916 2584 2934 2947 
L 3050 2947 
L 3050 1472 
L 2934 1472 
Q 2891 1781 2847 1869 
Q 2791 1978 2662 2040 
Q 2534 2103 2269 2103 
L 1338 2103 
L 1338 706 
Q 1338 425 1363 364 
Q 1388 303 1450 267 
Q 1513 231 1688 231 
L 2406 231 
Q 2766 231 2928 281 
Q 3091 331 3241 478 
Q 3434 672 3638 1063 
L 3763 1063 
L 3397 0 
L 131 0 
L 131 116 
L 281 116 
Q 431 116 566 188 
Q 666 238 702 338 
Q 738 438 738 747 
L 738 3500 
Q 738 3903 656 3997 
Q 544 4122 281 4122 
L 131 4122 
L 131 4238 
L 3397 4238 
L 3444 3309 
L 3322 3309 
Q 3256 3644 3176 3769 
Q 3097 3894 2941 3959 
Q 2816 4006 2500 4006 
L 1338 4006 
z
" transform="scale(0.015625)"/>
       <path id="TimesNewRomanPSMT-78" d="M 84 2863 
L 1431 2863 
L 1431 2747 
Q 1303 2747 1251 2703 
Q 1200 2659 1200 2588 
Q 1200 2513 1309 2356 
Q 1344 2306 1413 2200 
L 1616 1875 
L 1850 2200 
Q 2075 2509 2075 2591 
Q 2075 2656 2022 2701 
Q 1969 2747 1850 2747 
L 1850 2863 
L 2819 2863 
L 2819 2747 
Q 2666 2738 2553 2663 
Q 2400 2556 2134 2200 
L 1744 1678 
L 2456 653 
Q 2719 275 2831 198 
Q 2944 122 3122 113 
L 3122 0 
L 1772 0 
L 1772 113 
Q 1913 113 1991 175 
Q 2050 219 2050 291 
Q 2050 363 1850 653 
L 1431 1266 
L 972 653 
Q 759 369 759 316 
Q 759 241 829 180 
Q 900 119 1041 113 
L 1041 0 
L 106 0 
L 106 113 
Q 219 128 303 191 
Q 422 281 703 653 
L 1303 1450 
L 759 2238 
Q 528 2575 401 2661 
Q 275 2747 84 2747 
L 84 2863 
z
" transform="scale(0.015625)"/>
       <path id="TimesNewRomanPSMT-70" d="M -6 2578 
L 875 2934 
L 994 2934 
L 994 2266 
Q 1216 2644 1439 2795 
Q 1663 2947 1909 2947 
Q 2341 2947 2628 2609 
Q 2981 2197 2981 1534 
Q 2981 794 2556 309 
Q 2206 -88 1675 -88 
Q 1444 -88 1275 -22 
Q 1150 25 994 166 
L 994 -706 
Q 994 -1000 1030 -1079 
Q 1066 -1159 1155 -1206 
Q 1244 -1253 1478 -1253 
L 1478 -1369 
L -22 -1369 
L -22 -1253 
L 56 -1253 
Q 228 -1256 350 -1188 
Q 409 -1153 442 -1076 
Q 475 -1000 475 -688 
L 475 2019 
Q 475 2297 450 2372 
Q 425 2447 370 2484 
Q 316 2522 222 2522 
Q 147 2522 31 2478 
L -6 2578 
z
M 994 2081 
L 994 1013 
Q 994 666 1022 556 
Q 1066 375 1236 237 
Q 1406 100 1666 100 
Q 1978 100 2172 344 
Q 2425 663 2425 1241 
Q 2425 1897 2138 2250 
Q 1938 2494 1663 2494 
Q 1513 2494 1366 2419 
Q 1253 2363 994 2081 
z
" transform="scale(0.015625)"/>
       <path id="TimesNewRomanPSMT-72" d="M 1038 2947 
L 1038 2303 
Q 1397 2947 1775 2947 
Q 1947 2947 2059 2842 
Q 2172 2738 2172 2600 
Q 2172 2478 2090 2393 
Q 2009 2309 1897 2309 
Q 1788 2309 1652 2417 
Q 1516 2525 1450 2525 
Q 1394 2525 1328 2463 
Q 1188 2334 1038 2041 
L 1038 669 
Q 1038 431 1097 309 
Q 1138 225 1241 169 
Q 1344 113 1538 113 
L 1538 0 
L 72 0 
L 72 113 
Q 291 113 397 181 
Q 475 231 506 341 
Q 522 394 522 644 
L 522 1753 
Q 522 2253 501 2348 
Q 481 2444 426 2487 
Q 372 2531 291 2531 
Q 194 2531 72 2484 
L 41 2597 
L 906 2947 
L 1038 2947 
z
" transform="scale(0.015625)"/>
       <path id="TimesNewRomanPSMT-69" d="M 928 4444 
Q 1059 4444 1151 4351 
Q 1244 4259 1244 4128 
Q 1244 3997 1151 3903 
Q 1059 3809 928 3809 
Q 797 3809 703 3903 
Q 609 3997 609 4128 
Q 609 4259 701 4351 
Q 794 4444 928 4444 
z
M 1188 2947 
L 1188 647 
Q 1188 378 1227 289 
Q 1266 200 1342 156 
Q 1419 113 1622 113 
L 1622 0 
L 231 0 
L 231 113 
Q 441 113 512 153 
Q 584 194 626 287 
Q 669 381 669 647 
L 669 1750 
Q 669 2216 641 2353 
Q 619 2453 572 2492 
Q 525 2531 444 2531 
Q 356 2531 231 2484 
L 188 2597 
L 1050 2947 
L 1188 2947 
z
" transform="scale(0.015625)"/>
       <path id="TimesNewRomanPSMT-6d" d="M 1050 2338 
Q 1363 2650 1419 2697 
Q 1559 2816 1721 2881 
Q 1884 2947 2044 2947 
Q 2313 2947 2506 2790 
Q 2700 2634 2766 2338 
Q 3088 2713 3309 2830 
Q 3531 2947 3766 2947 
Q 3994 2947 4170 2830 
Q 4347 2713 4450 2447 
Q 4519 2266 4519 1878 
L 4519 647 
Q 4519 378 4559 278 
Q 4591 209 4675 161 
Q 4759 113 4950 113 
L 4950 0 
L 3538 0 
L 3538 113 
L 3597 113 
Q 3781 113 3884 184 
Q 3956 234 3988 344 
Q 4000 397 4000 647 
L 4000 1878 
Q 4000 2228 3916 2372 
Q 3794 2572 3525 2572 
Q 3359 2572 3192 2489 
Q 3025 2406 2788 2181 
L 2781 2147 
L 2788 2013 
L 2788 647 
Q 2788 353 2820 281 
Q 2853 209 2943 161 
Q 3034 113 3253 113 
L 3253 0 
L 1806 0 
L 1806 113 
Q 2044 113 2133 169 
Q 2222 225 2256 338 
Q 2272 391 2272 647 
L 2272 1878 
Q 2272 2228 2169 2381 
Q 2031 2581 1784 2581 
Q 1616 2581 1450 2491 
Q 1191 2353 1050 2181 
L 1050 647 
Q 1050 366 1089 281 
Q 1128 197 1204 155 
Q 1281 113 1516 113 
L 1516 0 
L 100 0 
L 100 113 
Q 297 113 375 155 
Q 453 197 493 289 
Q 534 381 534 647 
L 534 1741 
Q 534 2213 506 2350 
Q 484 2453 437 2492 
Q 391 2531 309 2531 
Q 222 2531 100 2484 
L 53 2597 
L 916 2947 
L 1050 2947 
L 1050 2338 
z
" transform="scale(0.015625)"/>
       <path id="TimesNewRomanPSMT-6e" d="M 1034 2341 
Q 1538 2947 1994 2947 
Q 2228 2947 2397 2830 
Q 2566 2713 2666 2444 
Q 2734 2256 2734 1869 
L 2734 647 
Q 2734 375 2778 278 
Q 2813 200 2889 156 
Q 2966 113 3172 113 
L 3172 0 
L 1756 0 
L 1756 113 
L 1816 113 
Q 2016 113 2095 173 
Q 2175 234 2206 353 
Q 2219 400 2219 647 
L 2219 1819 
Q 2219 2209 2117 2386 
Q 2016 2563 1775 2563 
Q 1403 2563 1034 2156 
L 1034 647 
Q 1034 356 1069 288 
Q 1113 197 1189 155 
Q 1266 113 1500 113 
L 1500 0 
L 84 0 
L 84 113 
L 147 113 
Q 366 113 442 223 
Q 519 334 519 647 
L 519 1709 
Q 519 2225 495 2337 
Q 472 2450 423 2490 
Q 375 2531 294 2531 
Q 206 2531 84 2484 
L 38 2597 
L 900 2947 
L 1034 2947 
L 1034 2341 
z
" transform="scale(0.015625)"/>
       <path id="TimesNewRomanPSMT-74" d="M 1031 3803 
L 1031 2863 
L 1700 2863 
L 1700 2644 
L 1031 2644 
L 1031 788 
Q 1031 509 1111 412 
Q 1191 316 1316 316 
Q 1419 316 1516 380 
Q 1613 444 1666 569 
L 1788 569 
Q 1678 263 1478 108 
Q 1278 -47 1066 -47 
Q 922 -47 784 33 
Q 647 113 581 261 
Q 516 409 516 719 
L 516 2644 
L 63 2644 
L 63 2747 
Q 234 2816 414 2980 
Q 594 3144 734 3369 
Q 806 3488 934 3803 
L 1031 3803 
z
" transform="scale(0.015625)"/>
       <path id="TimesNewRomanPSMT-61" d="M 1822 413 
Q 1381 72 1269 19 
Q 1100 -59 909 -59 
Q 613 -59 420 144 
Q 228 347 228 678 
Q 228 888 322 1041 
Q 450 1253 767 1440 
Q 1084 1628 1822 1897 
L 1822 2009 
Q 1822 2438 1686 2597 
Q 1550 2756 1291 2756 
Q 1094 2756 978 2650 
Q 859 2544 859 2406 
L 866 2225 
Q 866 2081 792 2003 
Q 719 1925 600 1925 
Q 484 1925 411 2006 
Q 338 2088 338 2228 
Q 338 2497 613 2722 
Q 888 2947 1384 2947 
Q 1766 2947 2009 2819 
Q 2194 2722 2281 2516 
Q 2338 2381 2338 1966 
L 2338 994 
Q 2338 584 2353 492 
Q 2369 400 2405 369 
Q 2441 338 2488 338 
Q 2538 338 2575 359 
Q 2641 400 2828 588 
L 2828 413 
Q 2478 -56 2159 -56 
Q 2006 -56 1915 50 
Q 1825 156 1822 413 
z
M 1822 616 
L 1822 1706 
Q 1350 1519 1213 1441 
Q 966 1303 859 1153 
Q 753 1003 753 825 
Q 753 600 887 451 
Q 1022 303 1197 303 
Q 1434 303 1822 616 
z
" transform="scale(0.015625)"/>
       <path id="TimesNewRomanPSMT-6c" d="M 1184 4444 
L 1184 647 
Q 1184 378 1223 290 
Q 1263 203 1344 158 
Q 1425 113 1647 113 
L 1647 0 
L 244 0 
L 244 113 
Q 441 113 512 153 
Q 584 194 625 287 
Q 666 381 666 647 
L 666 3247 
Q 666 3731 644 3842 
Q 622 3953 573 3993 
Q 525 4034 450 4034 
Q 369 4034 244 3984 
L 191 4094 
L 1044 4444 
L 1184 4444 
z
" transform="scale(0.015625)"/>
       <path id="TimesNewRomanPSMT-20" transform="scale(0.015625)"/>
       <path id="TimesNewRomanPSMT-73" d="M 2050 2947 
L 2050 1972 
L 1947 1972 
Q 1828 2431 1642 2597 
Q 1456 2763 1169 2763 
Q 950 2763 815 2647 
Q 681 2531 681 2391 
Q 681 2216 781 2091 
Q 878 1963 1175 1819 
L 1631 1597 
Q 2266 1288 2266 781 
Q 2266 391 1970 151 
Q 1675 -88 1309 -88 
Q 1047 -88 709 6 
Q 606 38 541 38 
Q 469 38 428 -44 
L 325 -44 
L 325 978 
L 428 978 
Q 516 541 762 319 
Q 1009 97 1316 97 
Q 1531 97 1667 223 
Q 1803 350 1803 528 
Q 1803 744 1651 891 
Q 1500 1038 1047 1263 
Q 594 1488 453 1669 
Q 313 1847 313 2119 
Q 313 2472 555 2709 
Q 797 2947 1181 2947 
Q 1350 2947 1591 2875 
Q 1750 2828 1803 2828 
Q 1853 2828 1881 2850 
Q 1909 2872 1947 2947 
L 2050 2947 
z
" transform="scale(0.015625)"/>
      </defs>
      <use xlink:href="#TimesNewRomanPSMT-45"/>
      <use xlink:href="#TimesNewRomanPSMT-78" x="61.083984"/>
      <use xlink:href="#TimesNewRomanPSMT-70" x="111.083984"/>
      <use xlink:href="#TimesNewRomanPSMT-65" x="161.083984"/>
      <use xlink:href="#TimesNewRomanPSMT-72" x="205.46875"/>
      <use xlink:href="#TimesNewRomanPSMT-69" x="238.769531"/>
      <use xlink:href="#TimesNewRomanPSMT-6d" x="266.552734"/>
      <use xlink:href="#TimesNewRomanPSMT-65" x="344.335938"/>
      <use xlink:href="#TimesNewRomanPSMT-6e" x="388.720703"/>
      <use xlink:href="#TimesNewRomanPSMT-74" x="438.720703"/>
      <use xlink:href="#TimesNewRomanPSMT-61" x="466.503906"/>
      <use xlink:href="#TimesNewRomanPSMT-6c" x="510.888672"/>
      <use xlink:href="#TimesNewRomanPSMT-20" x="538.671875"/>
      <use xlink:href="#TimesNewRomanPSMT-74" x="563.671875"/>
      <use xlink:href="#TimesNewRomanPSMT-65" x="591.455078"/>
      <use xlink:href="#TimesNewRomanPSMT-73" x="635.839844"/>
      <use xlink:href="#TimesNewRomanPSMT-74" x="674.755859"/>
     </g>
    </g>
   </g>
  </g>
 </g>
 <defs>
  <clipPath id="pf02f33a8d9">
   <rect x="46.486563" y="24.38" width="434.95" height="348.76"/>
  </clipPath>
 </defs>
</svg>
