<?xml version="1.0" encoding="utf-8" standalone="no"?>
<!DOCTYPE svg PUBLIC "-//W3C//DTD SVG 1.1//EN"
  "http://www.w3.org/Graphics/SVG/1.1/DTD/svg11.dtd">
<svg xmlns:xlink="http://www.w3.org/1999/xlink" width="308.975625pt" height="261.768437pt" viewBox="0 0 308.975625 261.768437" xmlns="http://www.w3.org/2000/svg" version="1.1">
 <metadata>
  <rdf:RDF xmlns:dc="http://purl.org/dc/elements/1.1/" xmlns:cc="http://creativecommons.org/ns#" xmlns:rdf="http://www.w3.org/1999/02/22-rdf-syntax-ns#">
   <cc:Work>
    <dc:type rdf:resource="http://purl.org/dc/dcmitype/StillImage"/>
    <dc:date>2024-01-11T19:22:00.133986</dc:date>
    <dc:format>image/svg+xml</dc:format>
    <dc:creator>
     <cc:Agent>
      <dc:title>Matplotlib v3.7.1, https://matplotlib.org/</dc:title>
     </cc:Agent>
    </dc:creator>
   </cc:Work>
  </rdf:RDF>
 </metadata>
 <defs>
  <style type="text/css">*{stroke-linejoin: round; stroke-linecap: butt}</style>
 </defs>
 <g id="figure_1">
  <g id="patch_1">
   <path d="M 0 261.768437 
L 308.975625 261.768437 
L 308.975625 0 
L 0 0 
z
" style="fill: #ffffff"/>
  </g>
  <g id="axes_1">
   <g id="patch_2">
    <path d="M 49.735625 221.707812 
L 301.775625 221.707812 
L 301.775625 25.587812 
L 49.735625 25.587812 
z
" style="fill: #ffffff"/>
   </g>
   <g id="matplotlib.axis_1">
    <g id="xtick_1">
     <g id="line2d_1">
      <path d="M 77.558063 221.707812 
L 77.558063 25.587812 
" clip-path="url(#pe9acaef83f)" style="fill: none; stroke-dasharray: 0.8,1.32; stroke-dashoffset: 0; stroke: #b0b0b0; stroke-width: 0.8"/>
     </g>
     <g id="line2d_2">
      <defs>
       <path id="m2604e3d3f9" d="M 0 0 
L 0 3.5 
" style="stroke: #000000; stroke-width: 0.8"/>
      </defs>
      <g>
       <use xlink:href="#m2604e3d3f9" x="77.558063" y="221.707812" style="stroke: #000000; stroke-width: 0.8"/>
      </g>
     </g>
     <g id="text_1">
      <!-- −30 -->
      <g transform="translate(67.590563 237.092812) scale(0.12 -0.12)">
       <defs>
        <path id="Cambria-2212" d="M 397 1613 
L 397 2047 
L 3147 2047 
L 3147 1613 
L 397 1613 
z
" transform="scale(0.015625)"/>
        <path id="Cambria-33" d="M 497 3381 
L 497 3975 
Q 859 4147 1175 4231 
Q 1491 4316 1784 4316 
Q 2138 4316 2403 4206 
Q 2669 4097 2809 3892 
Q 2950 3688 2950 3403 
Q 2950 3138 2844 2936 
Q 2738 2734 2545 2584 
Q 2353 2434 2047 2291 
L 2047 2263 
Q 2238 2228 2414 2145 
Q 2591 2063 2728 1931 
Q 2866 1800 2948 1617 
Q 3031 1434 3031 1200 
Q 3031 838 2873 556 
Q 2716 275 2391 112 
Q 2066 -50 1600 -50 
Q 1331 -50 1020 11 
Q 709 72 450 172 
L 450 834 
L 825 834 
Q 934 509 1114 362 
Q 1294 216 1603 216 
Q 2009 216 2217 437 
Q 2425 659 2425 1094 
Q 2425 1550 2150 1790 
Q 1875 2031 1344 2031 
L 1063 2031 
L 1063 2306 
Q 1484 2331 1773 2468 
Q 2063 2606 2203 2822 
Q 2344 3038 2344 3306 
Q 2344 3653 2159 3840 
Q 1975 4028 1622 4028 
Q 1328 4028 1143 3868 
Q 959 3709 872 3381 
L 497 3381 
z
" transform="scale(0.015625)"/>
        <path id="Cambria-30" d="M 1738 -50 
Q 1063 -50 733 481 
Q 403 1013 403 2094 
Q 403 2669 504 3087 
Q 606 3506 789 3779 
Q 972 4053 1228 4184 
Q 1484 4316 1788 4316 
Q 2472 4316 2806 3787 
Q 3141 3259 3141 2191 
Q 3141 1084 2783 517 
Q 2425 -50 1738 -50 
z
M 1013 2188 
Q 1013 1169 1202 692 
Q 1391 216 1788 216 
Q 2166 216 2348 664 
Q 2531 1113 2531 2053 
Q 2531 2772 2437 3217 
Q 2344 3663 2176 3856 
Q 2009 4050 1772 4050 
Q 1556 4050 1411 3922 
Q 1266 3794 1177 3553 
Q 1088 3313 1050 2967 
Q 1013 2622 1013 2188 
z
" transform="scale(0.015625)"/>
       </defs>
       <use xlink:href="#Cambria-2212"/>
       <use xlink:href="#Cambria-33" x="55.371094"/>
       <use xlink:href="#Cambria-30" x="110.742188"/>
      </g>
     </g>
    </g>
    <g id="xtick_2">
     <g id="line2d_3">
      <path d="M 110.291328 221.707812 
L 110.291328 25.587812 
" clip-path="url(#pe9acaef83f)" style="fill: none; stroke-dasharray: 0.8,1.32; stroke-dashoffset: 0; stroke: #b0b0b0; stroke-width: 0.8"/>
     </g>
     <g id="line2d_4">
      <g>
       <use xlink:href="#m2604e3d3f9" x="110.291328" y="221.707812" style="stroke: #000000; stroke-width: 0.8"/>
      </g>
     </g>
     <g id="text_2">
      <!-- −20 -->
      <g transform="translate(100.323828 237.092812) scale(0.12 -0.12)">
       <defs>
        <path id="Cambria-32" d="M 2194 500 
Q 2347 500 2440 519 
Q 2534 538 2590 581 
Q 2647 625 2680 695 
Q 2713 766 2763 913 
L 3028 913 
L 2975 0 
L 403 0 
L 403 150 
Q 538 478 766 822 
Q 994 1166 1413 1631 
Q 1775 2031 1934 2238 
Q 2109 2463 2195 2627 
Q 2281 2791 2318 2936 
Q 2356 3081 2356 3228 
Q 2356 3463 2281 3642 
Q 2206 3822 2051 3925 
Q 1897 4028 1663 4028 
Q 1078 4028 875 3378 
L 497 3378 
L 497 3978 
Q 875 4156 1204 4236 
Q 1534 4316 1797 4316 
Q 2378 4316 2675 4061 
Q 2972 3806 2972 3322 
Q 2972 3156 2939 3017 
Q 2906 2878 2836 2742 
Q 2766 2606 2647 2450 
Q 2528 2294 2384 2133 
Q 2241 1972 1888 1597 
Q 1294 969 1016 500 
L 2194 500 
z
" transform="scale(0.015625)"/>
       </defs>
       <use xlink:href="#Cambria-2212"/>
       <use xlink:href="#Cambria-32" x="55.371094"/>
       <use xlink:href="#Cambria-30" x="110.742188"/>
      </g>
     </g>
    </g>
    <g id="xtick_3">
     <g id="line2d_5">
      <path d="M 143.024594 221.707812 
L 143.024594 25.587812 
" clip-path="url(#pe9acaef83f)" style="fill: none; stroke-dasharray: 0.8,1.32; stroke-dashoffset: 0; stroke: #b0b0b0; stroke-width: 0.8"/>
     </g>
     <g id="line2d_6">
      <g>
       <use xlink:href="#m2604e3d3f9" x="143.024594" y="221.707812" style="stroke: #000000; stroke-width: 0.8"/>
      </g>
     </g>
     <g id="text_3">
      <!-- −10 -->
      <g transform="translate(133.057094 237.092812) scale(0.12 -0.12)">
       <defs>
        <path id="Cambria-31" d="M 2172 816 
Q 2172 634 2192 542 
Q 2213 450 2264 392 
Q 2316 334 2412 301 
Q 2509 269 2656 251 
Q 2803 234 3044 228 
L 3044 0 
L 734 0 
L 734 228 
Q 1081 244 1229 270 
Q 1378 297 1456 350 
Q 1534 403 1570 500 
Q 1606 597 1606 816 
L 1606 3350 
Q 1606 3475 1562 3533 
Q 1519 3591 1434 3591 
Q 1334 3591 1150 3487 
Q 966 3384 694 3203 
L 556 3444 
L 2019 4316 
L 2191 4316 
Q 2172 4016 2172 3484 
L 2172 816 
z
" transform="scale(0.015625)"/>
       </defs>
       <use xlink:href="#Cambria-2212"/>
       <use xlink:href="#Cambria-31" x="55.371094"/>
       <use xlink:href="#Cambria-30" x="110.742188"/>
      </g>
     </g>
    </g>
    <g id="xtick_4">
     <g id="line2d_7">
      <path d="M 175.75786 221.707812 
L 175.75786 25.587812 
" clip-path="url(#pe9acaef83f)" style="fill: none; stroke-dasharray: 0.8,1.32; stroke-dashoffset: 0; stroke: #b0b0b0; stroke-width: 0.8"/>
     </g>
     <g id="line2d_8">
      <g>
       <use xlink:href="#m2604e3d3f9" x="175.75786" y="221.707812" style="stroke: #000000; stroke-width: 0.8"/>
      </g>
     </g>
     <g id="text_4">
      <!-- 0 -->
      <g transform="translate(172.43536 237.092812) scale(0.12 -0.12)">
       <use xlink:href="#Cambria-30"/>
      </g>
     </g>
    </g>
    <g id="xtick_5">
     <g id="line2d_9">
      <path d="M 208.491125 221.707812 
L 208.491125 25.587812 
" clip-path="url(#pe9acaef83f)" style="fill: none; stroke-dasharray: 0.8,1.32; stroke-dashoffset: 0; stroke: #b0b0b0; stroke-width: 0.8"/>
     </g>
     <g id="line2d_10">
      <g>
       <use xlink:href="#m2604e3d3f9" x="208.491125" y="221.707812" style="stroke: #000000; stroke-width: 0.8"/>
      </g>
     </g>
     <g id="text_5">
      <!-- 10 -->
      <g transform="translate(201.846125 237.092812) scale(0.12 -0.12)">
       <use xlink:href="#Cambria-31"/>
       <use xlink:href="#Cambria-30" x="55.371094"/>
      </g>
     </g>
    </g>
    <g id="xtick_6">
     <g id="line2d_11">
      <path d="M 241.224391 221.707812 
L 241.224391 25.587812 
" clip-path="url(#pe9acaef83f)" style="fill: none; stroke-dasharray: 0.8,1.32; stroke-dashoffset: 0; stroke: #b0b0b0; stroke-width: 0.8"/>
     </g>
     <g id="line2d_12">
      <g>
       <use xlink:href="#m2604e3d3f9" x="241.224391" y="221.707812" style="stroke: #000000; stroke-width: 0.8"/>
      </g>
     </g>
     <g id="text_6">
      <!-- 20 -->
      <g transform="translate(234.579391 237.092812) scale(0.12 -0.12)">
       <use xlink:href="#Cambria-32"/>
       <use xlink:href="#Cambria-30" x="55.371094"/>
      </g>
     </g>
    </g>
    <g id="xtick_7">
     <g id="line2d_13">
      <path d="M 273.957656 221.707812 
L 273.957656 25.587812 
" clip-path="url(#pe9acaef83f)" style="fill: none; stroke-dasharray: 0.8,1.32; stroke-dashoffset: 0; stroke: #b0b0b0; stroke-width: 0.8"/>
     </g>
     <g id="line2d_14">
      <g>
       <use xlink:href="#m2604e3d3f9" x="273.957656" y="221.707812" style="stroke: #000000; stroke-width: 0.8"/>
      </g>
     </g>
     <g id="text_7">
      <!-- 30 -->
      <g transform="translate(267.312656 237.092812) scale(0.12 -0.12)">
       <use xlink:href="#Cambria-33"/>
       <use xlink:href="#Cambria-30" x="55.371094"/>
      </g>
     </g>
    </g>
    <g id="text_8">
     <!-- Displacement (mm) -->
     <g transform="translate(126.518125 252.020312) scale(0.12 -0.12)">
      <defs>
       <path id="Cambria-Italic-44" d="M 2134 4266 
Q 2606 4266 2900 4194 
Q 3194 4122 3448 3934 
Q 3703 3747 3831 3436 
Q 3959 3125 3959 2700 
Q 3959 2278 3862 1893 
Q 3766 1509 3584 1186 
Q 3403 863 3150 623 
Q 2897 384 2659 256 
Q 2422 128 2128 64 
Q 1834 0 1444 0 
L 131 0 
L 166 153 
Q 284 172 343 214 
Q 403 256 443 331 
Q 484 406 518 514 
Q 553 622 622 931 
L 1153 3338 
Q 1184 3481 1203 3614 
Q 1222 3747 1222 3841 
Q 1222 3988 1147 4045 
Q 1072 4103 916 4113 
L 950 4266 
L 2134 4266 
z
M 1038 288 
Q 1128 278 1384 278 
Q 1700 278 1958 347 
Q 2216 416 2433 567 
Q 2650 719 2828 972 
Q 3006 1225 3117 1486 
Q 3228 1747 3290 2047 
Q 3353 2347 3353 2681 
Q 3353 3334 3048 3664 
Q 2744 3994 2144 3994 
Q 2006 3994 1847 3984 
L 1038 288 
z
" transform="scale(0.015625)"/>
       <path id="Cambria-Italic-69" d="M 1750 4213 
L 1606 3606 
L 1053 3606 
L 1197 4213 
L 1750 4213 
z
M 978 781 
Q 944 622 934 548 
Q 925 475 925 425 
Q 925 331 956 278 
Q 988 225 1053 197 
Q 1119 169 1269 153 
L 1241 0 
L 272 0 
L 744 2106 
Q 784 2288 800 2395 
Q 816 2503 816 2575 
Q 816 2666 789 2716 
Q 763 2766 700 2791 
Q 638 2816 484 2822 
L 519 2988 
L 1281 3016 
L 1466 3016 
L 978 781 
z
" transform="scale(0.015625)"/>
       <path id="Cambria-Italic-73" d="M 2063 2259 
Q 2028 2541 1901 2667 
Q 1775 2794 1509 2794 
Q 1363 2794 1244 2739 
Q 1125 2684 1056 2579 
Q 988 2475 988 2334 
Q 988 2219 1034 2123 
Q 1081 2028 1192 1925 
Q 1303 1822 1503 1688 
Q 1806 1484 1928 1293 
Q 2050 1103 2050 853 
Q 2050 559 1909 354 
Q 1769 150 1525 50 
Q 1281 -50 975 -50 
Q 700 -50 461 -9 
Q 222 31 -3 94 
L 144 769 
L 388 769 
Q 409 481 551 339 
Q 694 197 966 197 
Q 1244 197 1400 336 
Q 1556 475 1556 703 
Q 1556 838 1509 944 
Q 1463 1050 1363 1147 
Q 1263 1244 1078 1369 
Q 881 1503 759 1622 
Q 638 1741 570 1883 
Q 503 2025 503 2197 
Q 503 2456 631 2647 
Q 759 2838 995 2938 
Q 1231 3038 1547 3038 
Q 2063 3038 2456 2903 
L 2313 2259 
L 2063 2259 
z
" transform="scale(0.015625)"/>
       <path id="Cambria-Italic-70" d="M 669 -553 
Q 638 -703 630 -784 
Q 622 -866 622 -919 
Q 622 -1013 653 -1066 
Q 684 -1119 750 -1147 
Q 816 -1175 966 -1191 
L 941 -1344 
L -25 -1344 
L 766 2131 
Q 825 2394 825 2581 
Q 825 2669 798 2717 
Q 772 2766 708 2789 
Q 644 2813 491 2822 
L 528 2988 
L 1238 3016 
L 1416 3016 
L 1206 2203 
L 1244 2191 
Q 1822 3038 2394 3038 
Q 2734 3038 2923 2778 
Q 3113 2519 3113 2047 
Q 3113 1709 3020 1368 
Q 2928 1028 2764 753 
Q 2600 478 2398 301 
Q 2197 125 1973 37 
Q 1750 -50 1503 -50 
Q 1088 -50 813 131 
L 669 -553 
z
M 1044 1088 
Q 1013 922 1005 834 
Q 997 747 997 663 
Q 997 419 1101 308 
Q 1206 197 1463 197 
Q 1622 197 1756 259 
Q 1891 322 2011 440 
Q 2131 559 2228 728 
Q 2325 897 2401 1120 
Q 2478 1344 2517 1580 
Q 2556 1816 2556 2022 
Q 2556 2350 2464 2511 
Q 2372 2672 2172 2672 
Q 2013 2672 1858 2564 
Q 1703 2456 1518 2218 
Q 1334 1981 1231 1750 
Q 1128 1519 1069 1219 
L 1044 1088 
z
" transform="scale(0.015625)"/>
       <path id="Cambria-Italic-6c" d="M 1578 4469 
L 1763 4469 
L 950 781 
Q 916 631 906 554 
Q 897 478 897 425 
Q 897 331 928 278 
Q 959 225 1025 197 
Q 1091 169 1241 153 
L 1216 0 
L 241 0 
L 1047 3588 
Q 1078 3725 1090 3794 
Q 1103 3863 1109 3925 
Q 1116 3988 1116 4034 
Q 1116 4128 1081 4176 
Q 1047 4225 983 4247 
Q 919 4269 753 4278 
L 791 4441 
L 1578 4469 
z
" transform="scale(0.015625)"/>
       <path id="Cambria-Italic-61" d="M 2606 2834 
L 2894 3041 
L 3094 2991 
L 2616 869 
Q 2572 681 2556 579 
Q 2541 478 2541 413 
Q 2541 284 2612 226 
Q 2684 169 2888 153 
L 2859 0 
L 1966 0 
L 2163 784 
L 2122 797 
Q 1822 359 1553 156 
Q 1284 -47 984 -47 
Q 641 -47 452 212 
Q 263 472 263 941 
Q 263 1241 331 1542 
Q 400 1844 539 2114 
Q 678 2384 872 2590 
Q 1066 2797 1320 2919 
Q 1575 3041 1875 3041 
Q 2069 3041 2244 2995 
Q 2419 2950 2606 2834 
z
M 2331 1903 
Q 2359 2031 2368 2125 
Q 2378 2219 2378 2328 
Q 2378 2572 2275 2683 
Q 2172 2794 1931 2794 
Q 1800 2794 1681 2751 
Q 1563 2709 1441 2611 
Q 1319 2513 1208 2353 
Q 1097 2194 1006 1966 
Q 916 1738 866 1477 
Q 816 1216 816 969 
Q 816 644 905 483 
Q 994 322 1203 322 
Q 1300 322 1404 365 
Q 1509 409 1637 526 
Q 1766 644 1928 872 
Q 2075 1081 2161 1286 
Q 2247 1491 2303 1769 
L 2331 1903 
z
" transform="scale(0.015625)"/>
       <path id="Cambria-Italic-63" d="M 2297 2238 
Q 2291 2475 2258 2581 
Q 2225 2688 2151 2741 
Q 2078 2794 1944 2794 
Q 1628 2794 1376 2542 
Q 1125 2291 965 1830 
Q 806 1369 806 944 
Q 806 813 829 697 
Q 853 581 911 497 
Q 969 413 1064 364 
Q 1159 316 1306 316 
Q 1591 316 1798 423 
Q 2006 531 2238 763 
L 2428 572 
Q 2134 247 1836 97 
Q 1538 -53 1194 -53 
Q 741 -53 506 215 
Q 272 484 272 997 
Q 272 1331 397 1731 
Q 522 2131 762 2434 
Q 1003 2738 1325 2888 
Q 1647 3038 2013 3038 
Q 2263 3038 2448 3009 
Q 2634 2981 2778 2944 
L 2625 2238 
L 2297 2238 
z
" transform="scale(0.015625)"/>
       <path id="Cambria-Italic-65" d="M 2544 622 
Q 2313 369 2100 222 
Q 1888 75 1675 12 
Q 1463 -50 1206 -50 
Q 959 -50 781 29 
Q 603 109 486 248 
Q 369 388 312 580 
Q 256 772 256 997 
Q 256 1331 376 1714 
Q 497 2097 740 2401 
Q 984 2706 1325 2873 
Q 1666 3041 2050 3041 
Q 2428 3041 2617 2887 
Q 2806 2734 2806 2409 
Q 2806 1878 2307 1612 
Q 1809 1347 828 1347 
Q 791 1159 791 941 
Q 791 613 919 464 
Q 1047 316 1338 316 
Q 1625 316 1859 441 
Q 2094 566 2350 825 
L 2544 622 
z
M 881 1613 
Q 1169 1616 1386 1645 
Q 1603 1675 1759 1726 
Q 1916 1778 2019 1850 
Q 2122 1922 2183 2008 
Q 2244 2094 2267 2189 
Q 2291 2284 2291 2388 
Q 2291 2578 2202 2686 
Q 2113 2794 1938 2794 
Q 1719 2794 1508 2636 
Q 1297 2478 1136 2211 
Q 975 1944 881 1613 
z
" transform="scale(0.015625)"/>
       <path id="Cambria-Italic-6d" d="M 2997 2375 
L 2997 2331 
Q 2997 2309 2994 2284 
Q 3266 2669 3534 2853 
Q 3803 3038 4091 3038 
Q 4388 3038 4542 2870 
Q 4697 2703 4697 2375 
Q 4697 2175 4634 1894 
L 4372 781 
Q 4319 556 4319 425 
Q 4319 331 4350 278 
Q 4381 225 4447 197 
Q 4513 169 4663 153 
L 4634 0 
L 3653 0 
L 4047 1588 
Q 4091 1759 4123 1936 
Q 4156 2113 4156 2256 
Q 4156 2481 4078 2576 
Q 4000 2672 3831 2672 
Q 3709 2672 3557 2572 
Q 3406 2472 3240 2265 
Q 3075 2059 2970 1857 
Q 2866 1656 2803 1366 
L 2519 0 
L 1978 0 
L 2338 1588 
Q 2403 1878 2426 2017 
Q 2450 2156 2450 2256 
Q 2450 2481 2370 2576 
Q 2291 2672 2122 2672 
Q 1997 2672 1845 2570 
Q 1694 2469 1525 2256 
Q 1356 2044 1254 1839 
Q 1153 1634 1097 1353 
L 813 0 
L 272 0 
L 747 2134 
Q 763 2206 789 2347 
Q 816 2488 816 2581 
Q 816 2669 789 2717 
Q 763 2766 698 2789 
Q 634 2813 481 2822 
L 519 2988 
L 1231 3016 
L 1406 3016 
L 1200 2206 
L 1238 2194 
Q 1525 2622 1809 2830 
Q 2094 3038 2384 3038 
Q 2684 3038 2840 2867 
Q 2997 2697 2997 2375 
z
" transform="scale(0.015625)"/>
       <path id="Cambria-Italic-6e" d="M 2947 0 
L 1963 0 
L 2359 1588 
Q 2397 1741 2433 1925 
Q 2469 2109 2469 2256 
Q 2469 2478 2392 2575 
Q 2316 2672 2153 2672 
Q 2022 2672 1870 2570 
Q 1719 2469 1553 2267 
Q 1388 2066 1273 1858 
Q 1159 1650 1097 1353 
L 813 0 
L 272 0 
L 747 2134 
Q 763 2206 789 2347 
Q 816 2488 816 2581 
Q 816 2669 789 2717 
Q 763 2766 698 2789 
Q 634 2813 481 2822 
L 519 2988 
L 1228 3016 
L 1406 3016 
L 1197 2203 
L 1234 2191 
Q 1541 2622 1825 2830 
Q 2109 3038 2394 3038 
Q 2697 3038 2853 2870 
Q 3009 2703 3009 2375 
Q 3009 2263 2989 2130 
Q 2969 1997 2944 1894 
L 2681 781 
Q 2628 556 2628 425 
Q 2628 331 2659 278 
Q 2691 225 2756 197 
Q 2822 169 2972 153 
L 2947 0 
z
" transform="scale(0.015625)"/>
       <path id="Cambria-Italic-74" d="M 2109 575 
Q 1853 266 1603 108 
Q 1353 -50 1072 -50 
Q 741 -50 578 119 
Q 416 288 416 609 
Q 416 806 472 1050 
L 859 2672 
L 394 2672 
L 428 2831 
Q 613 2853 720 2911 
Q 828 2969 901 3064 
Q 975 3159 1037 3312 
Q 1100 3466 1194 3759 
L 1625 3759 
L 1453 2988 
L 2444 2988 
L 2375 2672 
L 1381 2672 
L 1081 1459 
Q 956 953 956 703 
Q 956 513 1039 414 
Q 1122 316 1281 316 
Q 1425 316 1583 427 
Q 1741 538 1928 763 
L 2109 575 
z
" transform="scale(0.015625)"/>
       <path id="Cambria-Italic-20" transform="scale(0.015625)"/>
       <path id="Cambria-Italic-28" d="M 1616 -1359 
Q 1172 -1359 897 -1200 
Q 622 -1041 498 -736 
Q 375 -431 375 28 
Q 375 353 431 747 
Q 506 1253 648 1875 
Q 791 2497 928 2906 
Q 1088 3372 1272 3667 
Q 1456 3963 1675 4134 
Q 1894 4306 2172 4391 
Q 2478 4484 2906 4484 
L 2850 4228 
Q 2575 4228 2397 4165 
Q 2219 4103 2078 3978 
Q 1916 3834 1769 3575 
Q 1597 3266 1438 2766 
Q 1300 2334 1163 1713 
Q 1050 1203 981 797 
Q 888 228 888 -147 
Q 888 -513 977 -722 
Q 1066 -931 1233 -1017 
Q 1400 -1103 1672 -1103 
L 1616 -1359 
z
" transform="scale(0.015625)"/>
       <path id="Cambria-Italic-29" d="M 794 4484 
Q 1238 4484 1513 4325 
Q 1788 4166 1911 3861 
Q 2034 3556 2034 3097 
Q 2034 2778 1978 2394 
Q 1903 1850 1747 1184 
Q 1600 569 1466 178 
Q 1313 -263 1133 -552 
Q 953 -841 733 -1012 
Q 513 -1184 234 -1266 
Q -72 -1359 -497 -1359 
L -441 -1103 
Q -166 -1103 11 -1040 
Q 188 -978 325 -856 
Q 494 -709 644 -441 
Q 819 -125 973 367 
Q 1128 859 1266 1506 
Q 1375 2006 1438 2394 
Q 1522 2922 1522 3272 
Q 1522 3641 1431 3850 
Q 1341 4059 1173 4143 
Q 1006 4228 738 4228 
L 794 4484 
z
" transform="scale(0.015625)"/>
      </defs>
      <use xlink:href="#Cambria-Italic-44"/>
      <use xlink:href="#Cambria-Italic-69" x="64.648438"/>
      <use xlink:href="#Cambria-Italic-73" x="91.748047"/>
      <use xlink:href="#Cambria-Italic-70" x="129.931641"/>
      <use xlink:href="#Cambria-Italic-6c" x="182.617188"/>
      <use xlink:href="#Cambria-Italic-61" x="209.277344"/>
      <use xlink:href="#Cambria-Italic-63" x="261.865234"/>
      <use xlink:href="#Cambria-Italic-65" x="305.175781"/>
      <use xlink:href="#Cambria-Italic-6d" x="350.878906"/>
      <use xlink:href="#Cambria-Italic-65" x="430.761719"/>
      <use xlink:href="#Cambria-Italic-6e" x="476.464844"/>
      <use xlink:href="#Cambria-Italic-74" x="529.980469"/>
      <use xlink:href="#Cambria-Italic-20" x="564.501953"/>
      <use xlink:href="#Cambria-Italic-28" x="586.523438"/>
      <use xlink:href="#Cambria-Italic-6d" x="623.681641"/>
      <use xlink:href="#Cambria-Italic-6d" x="703.564453"/>
      <use xlink:href="#Cambria-Italic-29" x="783.447266"/>
     </g>
    </g>
   </g>
   <g id="matplotlib.axis_2">
    <g id="ytick_1">
     <g id="line2d_15">
      <path d="M 49.735625 190.651042 
L 301.775625 190.651042 
" clip-path="url(#pe9acaef83f)" style="fill: none; stroke-dasharray: 0.8,1.32; stroke-dashoffset: 0; stroke: #b0b0b0; stroke-width: 0.8"/>
     </g>
     <g id="line2d_16">
      <defs>
       <path id="mf7465c7a78" d="M 0 0 
L -3.5 0 
" style="stroke: #000000; stroke-width: 0.8"/>
      </defs>
      <g>
       <use xlink:href="#mf7465c7a78" x="49.735625" y="190.651042" style="stroke: #000000; stroke-width: 0.8"/>
      </g>
     </g>
     <g id="text_9">
      <!-- −400 -->
      <g transform="translate(16.155625 194.843542) scale(0.12 -0.12)">
       <defs>
        <path id="Cambria-34" d="M 1613 153 
Q 1806 203 1872 264 
Q 1938 325 1958 437 
Q 1978 550 1978 781 
L 1978 1294 
L 241 1294 
L 241 1528 
L 2069 4288 
L 2516 4288 
L 2516 1597 
L 2581 1597 
Q 2763 1597 2841 1623 
Q 2919 1650 2970 1717 
Q 3022 1784 3066 1938 
L 3303 1938 
L 3266 1294 
L 2516 1294 
L 2516 781 
Q 2516 572 2530 475 
Q 2544 378 2576 322 
Q 2609 266 2673 228 
Q 2738 191 2881 153 
L 2881 0 
L 1613 0 
L 1613 153 
z
M 756 1597 
L 1978 1597 
L 1978 2375 
Q 1978 2669 1987 3033 
Q 1997 3397 2009 3581 
L 1978 3581 
L 756 1641 
L 756 1597 
z
" transform="scale(0.015625)"/>
       </defs>
       <use xlink:href="#Cambria-2212"/>
       <use xlink:href="#Cambria-34" x="55.371094"/>
       <use xlink:href="#Cambria-30" x="110.742188"/>
       <use xlink:href="#Cambria-30" x="166.113281"/>
      </g>
     </g>
    </g>
    <g id="ytick_2">
     <g id="line2d_17">
      <path d="M 49.735625 157.373328 
L 301.775625 157.373328 
" clip-path="url(#pe9acaef83f)" style="fill: none; stroke-dasharray: 0.8,1.32; stroke-dashoffset: 0; stroke: #b0b0b0; stroke-width: 0.8"/>
     </g>
     <g id="line2d_18">
      <g>
       <use xlink:href="#mf7465c7a78" x="49.735625" y="157.373328" style="stroke: #000000; stroke-width: 0.8"/>
      </g>
     </g>
     <g id="text_10">
      <!-- −200 -->
      <g transform="translate(16.155625 161.565828) scale(0.12 -0.12)">
       <use xlink:href="#Cambria-2212"/>
       <use xlink:href="#Cambria-32" x="55.371094"/>
       <use xlink:href="#Cambria-30" x="110.742188"/>
       <use xlink:href="#Cambria-30" x="166.113281"/>
      </g>
     </g>
    </g>
    <g id="ytick_3">
     <g id="line2d_19">
      <path d="M 49.735625 124.095613 
L 301.775625 124.095613 
" clip-path="url(#pe9acaef83f)" style="fill: none; stroke-dasharray: 0.8,1.32; stroke-dashoffset: 0; stroke: #b0b0b0; stroke-width: 0.8"/>
     </g>
     <g id="line2d_20">
      <g>
       <use xlink:href="#mf7465c7a78" x="49.735625" y="124.095613" style="stroke: #000000; stroke-width: 0.8"/>
      </g>
     </g>
     <g id="text_11">
      <!-- 0 -->
      <g transform="translate(36.090625 128.288113) scale(0.12 -0.12)">
       <use xlink:href="#Cambria-30"/>
      </g>
     </g>
    </g>
    <g id="ytick_4">
     <g id="line2d_21">
      <path d="M 49.735625 90.817898 
L 301.775625 90.817898 
" clip-path="url(#pe9acaef83f)" style="fill: none; stroke-dasharray: 0.8,1.32; stroke-dashoffset: 0; stroke: #b0b0b0; stroke-width: 0.8"/>
     </g>
     <g id="line2d_22">
      <g>
       <use xlink:href="#mf7465c7a78" x="49.735625" y="90.817898" style="stroke: #000000; stroke-width: 0.8"/>
      </g>
     </g>
     <g id="text_12">
      <!-- 200 -->
      <g transform="translate(22.800625 95.010398) scale(0.12 -0.12)">
       <use xlink:href="#Cambria-32"/>
       <use xlink:href="#Cambria-30" x="55.371094"/>
       <use xlink:href="#Cambria-30" x="110.742188"/>
      </g>
     </g>
    </g>
    <g id="ytick_5">
     <g id="line2d_23">
      <path d="M 49.735625 57.540184 
L 301.775625 57.540184 
" clip-path="url(#pe9acaef83f)" style="fill: none; stroke-dasharray: 0.8,1.32; stroke-dashoffset: 0; stroke: #b0b0b0; stroke-width: 0.8"/>
     </g>
     <g id="line2d_24">
      <g>
       <use xlink:href="#mf7465c7a78" x="49.735625" y="57.540184" style="stroke: #000000; stroke-width: 0.8"/>
      </g>
     </g>
     <g id="text_13">
      <!-- 400 -->
      <g transform="translate(22.800625 61.732684) scale(0.12 -0.12)">
       <use xlink:href="#Cambria-34"/>
       <use xlink:href="#Cambria-30" x="55.371094"/>
       <use xlink:href="#Cambria-30" x="110.742188"/>
      </g>
     </g>
    </g>
    <g id="text_14">
     <!-- Base Shear (kN) -->
     <g transform="translate(15.6075 163.934062) rotate(-90) scale(0.12 -0.12)">
      <defs>
       <path id="Cambria-Italic-42" d="M 2797 2184 
Q 3088 2069 3244 1855 
Q 3400 1641 3400 1369 
Q 3400 1047 3283 792 
Q 3166 538 2912 347 
Q 2659 156 2331 78 
Q 2003 0 1522 0 
L 131 0 
L 166 153 
Q 284 172 343 214 
Q 403 256 443 331 
Q 484 406 518 514 
Q 553 622 622 931 
L 1153 3338 
Q 1222 3650 1222 3831 
Q 1222 3984 1150 4043 
Q 1078 4103 916 4113 
L 950 4266 
L 2497 4266 
Q 2966 4266 3248 4167 
Q 3531 4069 3664 3878 
Q 3797 3688 3797 3400 
Q 3797 2991 3547 2686 
Q 3297 2381 2803 2219 
L 2797 2184 
z
M 1934 2353 
Q 2259 2353 2457 2397 
Q 2656 2441 2781 2528 
Q 2906 2616 3004 2733 
Q 3103 2850 3161 3009 
Q 3219 3169 3219 3384 
Q 3219 3519 3172 3636 
Q 3125 3753 3011 3836 
Q 2897 3919 2748 3955 
Q 2600 3991 2353 3991 
Q 2081 3991 1847 3981 
L 1494 2353 
L 1934 2353 
z
M 1041 288 
Q 1284 275 1497 275 
Q 1969 275 2226 394 
Q 2484 513 2643 781 
Q 2803 1050 2803 1425 
Q 2803 1628 2723 1768 
Q 2644 1909 2470 1993 
Q 2297 2078 1994 2078 
L 1428 2078 
L 1041 288 
z
" transform="scale(0.015625)"/>
       <path id="Cambria-Italic-53" d="M 497 972 
Q 497 594 672 408 
Q 847 222 1219 222 
Q 1506 222 1712 328 
Q 1919 434 2025 629 
Q 2131 825 2131 1094 
Q 2131 1284 2064 1429 
Q 1997 1575 1861 1708 
Q 1725 1841 1469 2013 
Q 1238 2169 1084 2320 
Q 931 2472 840 2659 
Q 750 2847 750 3078 
Q 750 3447 928 3728 
Q 1106 4009 1431 4162 
Q 1756 4316 2181 4316 
Q 2469 4316 2714 4277 
Q 2959 4238 3256 4144 
L 3081 3341 
L 2781 3341 
Q 2769 3606 2700 3757 
Q 2631 3909 2503 3975 
Q 2375 4041 2163 4041 
Q 1903 4041 1706 3934 
Q 1509 3828 1406 3645 
Q 1303 3463 1303 3238 
Q 1303 3075 1359 2947 
Q 1416 2819 1539 2695 
Q 1663 2572 1900 2409 
Q 2206 2197 2367 2030 
Q 2528 1863 2604 1675 
Q 2681 1488 2681 1241 
Q 2681 863 2498 567 
Q 2316 272 1983 111 
Q 1650 -50 1225 -50 
Q 934 -50 607 -6 
Q 281 38 9 113 
L 197 972 
L 497 972 
z
" transform="scale(0.015625)"/>
       <path id="Cambria-Italic-68" d="M 2916 0 
L 1934 0 
L 2328 1588 
Q 2372 1759 2405 1936 
Q 2438 2113 2438 2256 
Q 2438 2481 2363 2576 
Q 2288 2672 2109 2672 
Q 1981 2672 1826 2565 
Q 1672 2459 1500 2242 
Q 1328 2025 1226 1826 
Q 1125 1628 1066 1353 
L 781 0 
L 241 0 
L 1044 3572 
Q 1078 3728 1092 3798 
Q 1106 3869 1112 3928 
Q 1119 3988 1119 4034 
Q 1119 4166 1039 4219 
Q 959 4272 753 4278 
L 791 4441 
L 1581 4469 
L 1763 4469 
L 1225 2303 
L 1263 2291 
Q 1556 2681 1822 2859 
Q 2088 3038 2363 3038 
Q 2666 3038 2822 2870 
Q 2978 2703 2978 2375 
Q 2978 2175 2916 1894 
L 2653 781 
Q 2622 647 2609 565 
Q 2597 484 2597 425 
Q 2597 328 2630 275 
Q 2663 222 2730 195 
Q 2797 169 2944 153 
L 2916 0 
z
" transform="scale(0.015625)"/>
       <path id="Cambria-Italic-72" d="M 1244 3016 
L 1431 3016 
L 1213 2247 
L 1250 2234 
Q 1547 2644 1830 2841 
Q 2113 3038 2413 3038 
Q 2641 3038 2794 3003 
L 2644 2303 
L 2322 2303 
Q 2297 2466 2244 2550 
Q 2191 2634 2078 2634 
Q 1956 2634 1797 2509 
Q 1638 2384 1472 2165 
Q 1306 1947 1223 1762 
Q 1141 1578 1097 1353 
L 813 0 
L 272 0 
L 747 2134 
Q 813 2428 813 2581 
Q 813 2669 784 2717 
Q 756 2766 693 2789 
Q 631 2813 481 2822 
L 516 2988 
L 1244 3016 
z
" transform="scale(0.015625)"/>
       <path id="Cambria-Italic-6b" d="M 1150 1741 
L 1250 1741 
Q 1347 1741 1459 1778 
Q 1572 1816 1700 1895 
Q 1828 1975 2044 2147 
Q 2206 2278 2284 2370 
Q 2363 2463 2391 2531 
Q 2419 2600 2419 2663 
Q 2419 2816 2206 2834 
L 2241 2988 
L 3253 2988 
L 3313 2834 
Q 3053 2600 2763 2375 
L 1972 1759 
L 2441 575 
Q 2503 416 2568 330 
Q 2634 244 2720 203 
Q 2806 163 2941 153 
L 2906 0 
L 2072 0 
L 1616 1284 
Q 1572 1406 1540 1450 
Q 1509 1494 1468 1512 
Q 1428 1531 1338 1531 
L 1106 1531 
L 781 0 
L 241 0 
L 1044 3572 
Q 1078 3728 1092 3798 
Q 1106 3869 1112 3928 
Q 1119 3988 1119 4034 
Q 1119 4166 1039 4219 
Q 959 4272 753 4278 
L 791 4441 
L 1581 4469 
L 1763 4469 
L 1150 1741 
z
" transform="scale(0.015625)"/>
       <path id="Cambria-Italic-4e" d="M 4463 4266 
L 4428 4113 
Q 4309 4088 4257 4056 
Q 4206 4025 4164 3962 
Q 4122 3900 4080 3767 
Q 4038 3634 3972 3334 
L 3238 0 
L 2813 0 
L 1900 2681 
Q 1734 3163 1609 3641 
L 1569 3641 
Q 1550 3481 1465 3032 
Q 1381 2584 1288 2156 
L 1013 909 
Q 984 778 965 656 
Q 947 534 947 422 
Q 947 281 1017 223 
Q 1088 166 1253 153 
L 1219 0 
L 125 0 
L 159 153 
Q 278 172 337 214 
Q 397 256 437 331 
Q 478 406 512 514 
Q 547 622 616 931 
L 1147 3338 
Q 1178 3472 1197 3594 
Q 1216 3716 1216 3841 
Q 1216 3988 1141 4045 
Q 1066 4103 909 4113 
L 944 4266 
L 1941 4266 
L 2766 1831 
Q 2944 1306 3041 944 
L 3075 944 
Q 3100 1134 3189 1578 
Q 3278 2022 3353 2353 
L 3572 3338 
Q 3594 3441 3617 3581 
Q 3641 3722 3641 3841 
Q 3641 3988 3566 4045 
Q 3491 4103 3334 4113 
L 3369 4266 
L 4463 4266 
z
" transform="scale(0.015625)"/>
      </defs>
      <use xlink:href="#Cambria-Italic-42"/>
      <use xlink:href="#Cambria-Italic-61" x="59.619141"/>
      <use xlink:href="#Cambria-Italic-73" x="112.207031"/>
      <use xlink:href="#Cambria-Italic-65" x="150.390625"/>
      <use xlink:href="#Cambria-Italic-20" x="196.09375"/>
      <use xlink:href="#Cambria-Italic-53" x="218.115234"/>
      <use xlink:href="#Cambria-Italic-68" x="266.259766"/>
      <use xlink:href="#Cambria-Italic-65" x="319.287109"/>
      <use xlink:href="#Cambria-Italic-61" x="364.990234"/>
      <use xlink:href="#Cambria-Italic-72" x="417.578125"/>
      <use xlink:href="#Cambria-Italic-20" x="458.300781"/>
      <use xlink:href="#Cambria-Italic-28" x="480.322266"/>
      <use xlink:href="#Cambria-Italic-6b" x="517.480469"/>
      <use xlink:href="#Cambria-Italic-4e" x="567.1875"/>
      <use xlink:href="#Cambria-Italic-29" x="634.277344"/>
     </g>
    </g>
   </g>
   <g id="line2d_25">
    <path d="M 175.75786 123.782547 
L 178.595999 97.560228 
L 181.291258 84.019187 
L 185.724411 72.922758 
L 188.175843 65.208276 
L 188.487401 64.675297 
L 188.158117 66.600775 
L 185.674757 77.792925 
L 183.645702 86.106402 
L 178.51844 105.377449 
L 175.678355 122.66713 
L 172.842272 147.988767 
L 170.152968 158.255332 
L 167.745831 164.120519 
L 164.24248 173.477988 
L 163.028815 177.055799 
L 170.368091 144.068548 
L 173.074946 128.202733 
L 175.916866 110.602812 
L 178.750782 97.808404 
L 181.434025 89.104446 
L 183.831514 82.496162 
L 188.209841 71.396907 
L 188.485911 70.97467 
L 187.134109 76.911631 
L 181.075496 102.780405 
L 178.363002 117.070506 
L 175.519357 133.671989 
L 172.687719 146.12811 
L 170.010641 154.31382 
L 165.644686 165.702198 
L 163.031298 172.219598 
L 164.417505 166.439514 
L 168.058598 151.476651 
L 170.512562 140.447888 
L 176.393837 108.592471 
L 182.052336 92.319026 
L 187.393953 79.080095 
L 192.149775 68.750543 
L 196.08038 61.719132 
L 198.987891 57.625465 
L 200.725934 55.715845 
L 201.207011 55.712103 
L 195.186727 78.054065 
L 191.029455 92.338713 
L 174.962935 143.095544 
L 169.309433 157.138361 
L 163.980563 167.568583 
L 159.244597 175.989837 
L 155.339957 182.349904 
L 150.75919 189.069503 
L 150.313673 189.261565 
L 151.14909 185.748891 
L 153.223384 178.040446 
L 156.432129 166.638837 
L 165.557844 136.29273 
L 171.015398 121.25696 
L 176.711701 109.74707 
L 182.359986 97.409291 
L 187.6759 86.930114 
L 192.391825 78.647758 
L 200.786149 64.646988 
L 201.196089 64.22498 
L 190.773816 100.202345 
L 185.811986 116.017112 
L 180.344002 129.045993 
L 163.699541 159.869826 
L 155.151586 174.509995 
L 150.32658 182.618858 
L 153.373133 171.517367 
L 156.640661 159.926977 
L 160.870604 145.457198 
L 165.850015 130.349382 
L 171.328215 119.706052 
L 177.665196 109.264208 
L 194.05505 80.05059 
L 201.067988 69.090413 
L 206.806741 61.354543 
L 210.982403 56.600211 
L 213.384759 54.142847 
L 213.892866 54.03733 
L 212.481147 58.541475 
L 204.275578 87.013717 
L 197.894821 106.727636 
L 190.399625 124.138354 
L 182.16732 135.507995 
L 173.612343 144.935552 
L 165.165379 155.738149 
L 157.25167 167.612907 
L 150.269617 177.508777 
L 144.570717 184.982401 
L 137.636253 192.975156 
L 142.410633 175.843663 
L 147.399333 158.822731 
L 153.815683 139.423782 
L 161.336667 124.074543 
L 169.583656 114.950021 
L 178.141472 106.717445 
L 186.57929 96.859508 
L 194.472326 85.697425 
L 201.423221 76.385162 
L 213.463352 61.253993 
L 213.864579 61.306507 
L 203.956088 94.299323 
L 197.504394 112.864158 
L 189.957916 126.242437 
L 181.696566 135.413443 
L 173.136244 143.51568 
L 164.707902 152.036234 
L 156.835847 161.921868 
L 144.29785 178.960625 
L 137.667514 187.407283 
L 147.721029 152.388863 
L 154.207815 134.239846 
L 161.779493 122.767106 
L 170.054882 114.48932 
L 179.570548 105.597331 
L 190.795265 93.45102 
L 201.262955 79.453596 
L 210.446644 68.008309 
L 217.883999 59.804044 
L 226.128797 51.952131 
L 226.521174 52.32612 
L 224.357978 59.320157 
L 219.74811 75.238615 
L 212.923644 97.265176 
L 204.228145 118.162225 
L 194.099369 131.190511 
L 183.047228 140.388615 
L 171.628119 148.284408 
L 160.416912 156.774008 
L 149.978014 168.198537 
L 140.836949 179.216692 
L 133.453903 187.419662 
L 125.341395 195.465196 
L 125.020338 195.435795 
L 131.928623 170.884193 
L 138.81018 148.831561 
L 147.551792 129.336927 
L 157.713379 118.49681 
L 168.783377 109.844638 
L 180.204492 102.14106 
L 191.40175 94.051604 
L 201.811449 83.266092 
L 210.909534 73.124113 
L 226.217885 57.080264 
L 226.467609 57.824514 
L 224.164456 65.214445 
L 219.424374 80.94307 
L 212.485992 102.359526 
L 203.698609 120.211848 
L 193.504608 131.373273 
L 182.417183 140.05309 
L 159.811636 154.983015 
L 149.431542 164.45598 
L 133.103227 182.912592 
L 127.977021 188.311376 
L 125.256242 191.378449 
L 125.077861 190.947122 
L 132.255772 165.829818 
L 139.250707 144.024149 
L 148.083518 127.574449 
L 158.309536 118.039752 
L 169.413954 109.35157 
L 182.107713 101.200361 
L 196.067778 91.030284 
L 220.26921 65.395955 
L 229.292207 56.865631 
L 238.934409 48.841927 
L 239.068198 49.956789 
L 236.014761 59.830875 
L 229.927815 80.404638 
L 221.113796 105.918684 
L 210.016427 124.403115 
L 197.194382 135.747539 
L 183.29316 144.499876 
L 169.012589 151.628664 
L 155.071595 158.984448 
L 142.172007 170.093675 
L 130.963229 181.848397 
L 122.009543 190.449363 
L 115.761704 195.66986 
L 112.534247 198.670009 
L 112.48965 197.927942 
L 115.630159 186.818525 
L 121.797671 165.515951 
L 130.681697 140.410692 
L 141.834988 124.127888 
L 154.696055 114.235849 
L 168.617435 105.424943 
L 182.898284 98.361364 
L 196.819664 91.102414 
L 209.680731 80.298574 
L 220.834022 69.388895 
L 229.718048 61.106326 
L 239.026069 52.754791 
L 238.981473 54.403006 
L 235.754015 64.645125 
L 229.506176 85.080663 
L 220.55249 109.026176 
L 209.343712 125.04735 
L 196.444124 135.671436 
L 182.50313 144.225956 
L 154.321337 157.946233 
L 141.499292 167.42834 
L 130.401923 178.437777 
L 121.587904 186.973717 
L 115.500958 192.398016 
L 112.447521 195.469131 
L 112.58131 194.159755 
L 115.89559 182.625896 
L 122.223512 161.246808 
L 131.246509 137.398009 
L 142.510336 123.423639 
L 155.447941 113.780801 
L 169.408007 105.008961 
L 185.273718 97.529419 
L 201.930345 88.311919 
L 217.269372 74.612089 
L 230.518589 62.114493 
L 241.010991 53.421056 
L 251.777857 45.533071 
L 251.510286 47.650752 
L 239.739808 86.121267 
L 228.829461 112.722159 
L 215.247336 129.024267 
L 199.677195 139.84408 
L 182.902885 148.188374 
L 165.768874 154.641827 
L 149.137737 161.391839 
L 133.846735 172.71791 
L 120.665661 185.098047 
L 110.258089 193.896808 
L 103.147966 199.103473 
L 99.693236 202.169891 
L 100.067821 200.290464 
L 104.252863 185.405308 
L 112.037675 159.816144 
L 123.030347 134.131842 
L 136.677475 120.385076 
L 152.292024 110.27754 
L 169.087911 101.730555 
L 186.219583 95.247509 
L 202.824581 88.314057 
L 218.066961 77.07184 
L 231.179378 65.44914 
L 241.501715 56.82438 
L 251.864142 48.680495 
L 251.382557 51.501783 
L 239.213794 90.09856 
L 228.139226 114.495026 
L 214.427627 129.238151 
L 198.76928 139.722707 
L 181.952471 147.977913 
L 148.245595 160.705758 
L 133.052431 170.616427 
L 120.009182 182.329918 
L 109.772484 191.077509 
L 102.857682 196.467239 
L 99.612888 199.535475 
L 100.201453 196.922035 
L 104.593747 181.619785 
L 112.568651 156.107014 
L 123.724683 132.325072 
L 137.500217 119.887248 
L 153.201752 109.815273 
L 170.038827 101.350394 
L 189.064807 94.444027 
L 208.374049 85.571608 
L 226.041297 71.452778 
L 241.177131 58.536479 
L 253.019567 49.852481 
L 264.635332 42.306784 
L 263.823889 45.762358 
L 258.578946 62.958587 
L 249.164548 92.276835 
L 236.054643 118.173424 
L 219.909223 133.140487 
L 201.541094 143.6124 
L 181.874962 151.430486 
L 161.900878 157.269749 
L 142.624394 163.763315 
L 125.015946 175.732048 
L 109.961993 188.656365 
L 98.220396 197.511895 
L 90.38226 202.650538 
L 86.842181 205.742209 
L 87.778376 202.168424 
L 93.143715 183.107736 
L 102.66809 153.820407 
L 115.872017 129.371464 
L 132.090772 116.950057 
L 150.507855 106.639769 
L 170.196097 98.574095 
L 190.164335 92.574811 
L 209.407308 85.630109 
L 226.95627 73.647845 
L 241.927755 61.399461 
L 253.568055 52.636275 
L 261.291163 47.179793 
L 264.708275 44.919076 
L 263.647364 49.240421 
L 258.16184 66.773348 
L 248.527859 95.577356 
L 235.230424 119.176582 
L 218.938968 133.19688 
L 200.473648 143.485413 
L 180.764064 151.263102 
L 160.802453 157.113599 
L 141.59374 163.268875 
L 124.104949 173.962032 
L 109.216516 186.323289 
L 97.677968 195.143315 
L 90.070189 200.459986 
L 86.776177 203.476749 
L 87.961762 199.008229 
L 93.567258 179.587654 
L 103.310469 150.614345 
L 116.700892 128.202641 
L 133.064415 116.460556 
L 151.57725 106.191398 
L 171.307408 98.213263 
L 193.476437 91.776158 
L 215.389239 82.811479 
L 235.306883 68.010309 
L 252.226655 54.812534 
L 265.296765 46.290949 
L 277.482978 39.238959 
L 275.985592 44.448676 
L 269.44245 65.990152 
L 258.182952 98.457009 
L 242.773936 122.809488 
L 223.991134 136.953336 
L 202.78013 146.986772 
L 180.208745 154.219962 
L 157.41329 159.537628 
L 135.541354 166.09451 
L 115.694034 179.035461 
L 98.870502 192.383899 
L 85.917703 201.170397 
L 77.48772 206.200249 
L 74.004942 209.237973 
L 75.644702 203.331748 
L 82.32445 179.915516 
L 93.707908 147.784287 
L 109.221999 125.470359 
L 128.0857 113.578574 
L 149.349355 103.359003 
L 171.942492 95.833616 
L 194.727706 90.220254 
L 216.557922 82.961852 
L 236.334145 70.020921 
L 253.06078 57.284675 
L 265.895762 48.576725 
L 274.192939 43.324375 
L 277.534607 41.462811 
L 275.752537 47.677091 
L 268.936444 69.485805 
L 257.42947 101.073366 
L 241.810909 123.394916 
L 222.867045 136.95099 
L 201.551568 146.866598 
L 178.93756 154.080699 
L 156.163476 159.445713 
L 134.375831 165.71637 
L 114.671478 177.488227 
L 98.042391 190.375476 
L 85.325727 199.136936 
L 77.161681 204.349471 
L 73.961253 207.214723 
L 75.885562 200.279476 
L 82.837734 176.600343 
L 94.467776 145.081163 
L 110.190197 124.606312 
L 129.213486 113.078591 
L 150.579954 102.931517 
L 173.213951 95.491735 
L 198.503285 89.411806 
L 222.965537 79.972834 
L 263.648467 51.026011 
L 277.821048 42.794793 
L 290.296917 36.373595 
L 287.972133 43.829274 
L 279.998155 69.911114 
L 266.776418 104.301382 
L 248.972541 126.952476 
L 227.482824 140.444435 
L 203.389121 149.930257 
L 177.90438 156.586242 
L 152.311578 161.50074 
L 127.899129 168.449877 
L 105.896028 182.593144 
L 87.409975 196.193851 
L 73.371612 204.791283 
L 64.487671 209.695262 
L 61.205396 212.559281 
L 63.690025 203.663672 
L 71.816475 175.920814 
L 85.175637 141.996543 
L 103.094973 122.019481 
L 124.672369 110.291422 
L 148.821558 100.419735 
L 174.326799 93.43439 
L 199.904084 88.136185 
L 224.265777 80.225972 
L 246.185441 66.184559 
L 264.559575 53.231051 
L 278.463171 44.812443 
L 287.196284 39.872071 
L 290.319261 38.664332 
L 287.674884 47.74988 
L 279.396278 74.486317 
L 265.900212 107.209093 
L 247.866117 127.547491 
L 226.201883 140.377378 
L 201.99815 149.628657 
L 176.473404 156.215465 
L 150.912635 161.213416 
L 126.602647 167.980665 
L 104.767276 180.976325 
L 86.505778 194.238867 
L 72.737489 203.17683 
L 64.155546 208.483898 
L 61.191989 209.675855 
L 63.996011 201.676621 
L 72.42645 170.917245 
L 86.058893 141.194588 
L 86.058893 141.194588 
" clip-path="url(#pe9acaef83f)" style="fill: none; stroke: #ff0000; stroke-linecap: square"/>
   </g>
   <g id="line2d_26">
    <path d="M 175.75786 124.095613 
L 178.595999 94.720074 
L 181.291258 86.379256 
L 183.70795 79.838372 
L 188.487401 65.879465 
L 188.158117 67.334322 
L 185.674757 77.955221 
L 183.645702 86.186347 
L 181.21955 95.54832 
L 178.51844 105.490039 
L 175.678355 125.364892 
L 172.842272 151.699884 
L 167.745831 163.973788 
L 163.322635 174.274311 
L 163.028815 174.864594 
L 170.368091 142.555794 
L 173.074946 127.847743 
L 175.916866 107.751198 
L 178.750782 97.617731 
L 183.831514 82.768586 
L 187.306902 73.674271 
L 188.485911 70.920558 
L 181.075496 102.453767 
L 178.363002 117.206676 
L 175.519357 134.86029 
L 172.687719 145.315525 
L 170.010641 153.407754 
L 165.644686 165.669559 
L 163.031298 172.311047 
L 168.058598 151.086675 
L 170.512562 140.011345 
L 173.23059 125.69672 
L 176.393837 107.432668 
L 182.052336 90.546922 
L 187.393953 76.334255 
L 192.149775 66.327496 
L 196.08038 60.429903 
L 200.725934 54.697495 
L 201.207011 54.161973 
L 198.365893 65.02542 
L 195.186727 76.648061 
L 191.029455 90.827625 
L 186.103367 106.458975 
L 180.656455 124.727025 
L 174.962935 141.47961 
L 169.309433 155.277543 
L 163.980563 167.885706 
L 159.244597 176.895615 
L 155.339957 183.153544 
L 150.313673 189.650984 
L 153.223384 178.616916 
L 156.432129 166.94749 
L 160.613788 152.563077 
L 165.557844 136.24394 
L 171.015398 119.092698 
L 182.359986 96.244563 
L 187.6759 85.628398 
L 192.391825 76.856072 
L 196.270348 70.349808 
L 200.786149 63.631457 
L 201.196089 63.064112 
L 198.217899 74.230748 
L 194.979699 85.830968 
L 190.773816 100.045292 
L 185.811986 116.003278 
L 180.344002 129.173916 
L 174.645138 139.190096 
L 169.002292 149.67956 
L 163.699541 160.017808 
L 159.003841 168.824425 
L 155.151586 175.505937 
L 150.32658 182.945075 
L 153.373133 171.500058 
L 156.640661 159.759811 
L 160.870604 145.403955 
L 165.850015 129.393893 
L 171.328215 118.607615 
L 177.665196 108.157757 
L 194.05505 78.735006 
L 201.067988 67.619732 
L 206.806741 59.927695 
L 210.982403 55.129105 
L 213.892866 52.244346 
L 209.22067 69.449179 
L 204.275578 86.212857 
L 197.894821 105.383816 
L 190.399625 124.578223 
L 182.16732 135.00185 
L 173.612343 144.234546 
L 165.165379 155.165719 
L 157.25167 167.533034 
L 150.269617 178.026223 
L 144.570717 185.581414 
L 140.441868 190.363501 
L 137.636253 193.289086 
L 142.410633 175.793139 
L 147.399333 158.91816 
L 153.815683 139.530281 
L 161.336667 124.078417 
L 169.583656 114.363381 
L 178.141472 105.522542 
L 186.57929 96.152278 
L 194.472326 85.123961 
L 201.423221 75.039491 
L 207.082046 67.470403 
L 211.163922 62.54889 
L 213.864579 59.525851 
L 208.988201 77.166685 
L 203.956088 93.952474 
L 197.504394 113.17618 
L 189.957916 125.478097 
L 181.696566 134.596273 
L 173.136244 142.730957 
L 164.707902 151.086977 
L 156.835847 161.480457 
L 149.916381 171.521178 
L 144.29785 179.195022 
L 140.263108 184.239426 
L 137.667514 187.261706 
L 142.645699 169.206752 
L 147.721029 152.230092 
L 154.207815 133.477127 
L 161.779493 122.567346 
L 170.054882 113.503803 
L 179.570548 104.521488 
L 190.795265 92.900556 
L 201.262955 78.756328 
L 210.446644 66.853783 
L 217.883999 58.492973 
L 223.200601 53.299141 
L 226.521174 50.456089 
L 224.357978 58.397163 
L 219.74811 74.557366 
L 212.923644 95.959394 
L 204.228145 118.829647 
L 194.099369 130.574381 
L 183.047228 139.844838 
L 171.628119 147.659014 
L 160.416912 155.874522 
L 149.978014 167.880239 
L 140.836949 179.424528 
L 133.453903 187.814242 
L 128.200563 193.046355 
L 125.020338 195.793967 
L 127.253556 187.573722 
L 131.928623 171.167217 
L 138.81018 149.570146 
L 147.551792 129.432897 
L 157.713379 118.326887 
L 168.783377 109.077607 
L 191.40175 93.671008 
L 201.811449 83.070513 
L 210.909534 72.188073 
L 218.237982 63.989397 
L 223.427857 58.715489 
L 226.467609 55.8458 
L 224.164456 64.258445 
L 219.424374 80.771463 
L 212.485992 102.317212 
L 203.698609 119.830709 
L 193.504608 130.605199 
L 182.417183 139.59001 
L 170.994509 147.004533 
L 159.811636 153.909985 
L 149.431542 163.82241 
L 140.376792 174.711501 
L 133.103227 183.065736 
L 127.977021 188.466646 
L 125.077861 191.310135 
L 127.450859 182.620047 
L 132.255772 165.869026 
L 139.250707 144.152521 
L 148.083518 128.093908 
L 158.309536 117.414455 
L 169.413954 108.466111 
L 182.107713 100.289872 
L 196.067778 90.838495 
L 209.005383 76.958325 
L 220.26921 64.45019 
L 229.292207 55.634639 
L 235.620129 50.327915 
L 239.068198 47.700938 
L 236.014761 58.775798 
L 229.927815 79.417274 
L 221.113796 104.913981 
L 210.016427 124.060437 
L 197.194382 135.14872 
L 183.29316 144.015861 
L 155.071595 157.876267 
L 142.172007 169.763305 
L 130.963229 182.179083 
L 122.009543 191.094942 
L 115.761704 196.431396 
L 112.48965 198.980061 
L 115.630159 187.540548 
L 121.797671 166.579733 
L 130.681697 140.894598 
L 141.834988 124.551502 
L 154.696055 113.474491 
L 168.617435 104.551934 
L 182.898284 97.483056 
L 196.819664 90.772826 
L 209.680731 80.278901 
L 220.834022 68.631958 
L 229.718048 59.977138 
L 235.88556 54.523964 
L 239.026069 51.94563 
L 238.981473 52.10892 
L 235.754015 63.766758 
L 229.506176 84.77524 
L 220.55249 110.334814 
L 209.343712 124.275214 
L 196.444124 135.15317 
L 182.50313 143.862019 
L 168.222559 150.643001 
L 154.321337 156.720021 
L 141.499292 166.829676 
L 130.401923 178.580404 
L 121.587904 187.472369 
L 115.500958 193.05007 
L 112.447521 195.645568 
L 115.89559 183.165421 
L 122.223512 161.91579 
L 131.246509 136.801165 
L 142.510336 123.565625 
L 155.447941 112.751953 
L 169.408007 104.067662 
L 185.273718 96.575579 
L 201.930345 88.232051 
L 217.269372 74.277576 
L 230.518589 61.193699 
L 241.010991 52.122301 
L 248.218361 46.760806 
L 251.777857 44.387754 
L 247.429117 59.969751 
L 239.739808 84.957511 
L 228.829461 113.660147 
L 215.247336 128.339633 
L 199.677195 139.248358 
L 182.902885 147.621609 
L 149.137737 160.229266 
L 133.846735 172.295733 
L 120.665661 185.565877 
L 110.258089 194.808803 
L 103.147966 200.238858 
L 99.693236 202.561824 
L 104.252863 186.200352 
L 112.037675 160.95014 
L 123.030347 133.656655 
L 136.677475 120.065377 
L 152.292024 109.161282 
L 169.087911 100.770054 
L 202.824581 88.140534 
L 218.066961 77.137866 
L 231.179378 64.673744 
L 241.501715 55.682788 
L 248.514314 50.197781 
L 251.864142 47.773637 
L 247.093805 64.670614 
L 239.213794 89.885383 
L 228.139226 115.250874 
L 214.427627 128.623226 
L 198.76928 139.362709 
L 181.952471 147.585466 
L 164.823807 153.817601 
L 148.245595 159.601006 
L 133.052431 170.283995 
L 120.009182 182.820221 
L 109.772484 191.983601 
L 102.857682 197.544106 
L 99.612888 199.956832 
L 104.593747 182.299822 
L 112.568651 156.852577 
L 123.724683 132.455473 
L 137.500217 119.235327 
L 153.201752 108.550827 
L 170.038827 100.376795 
L 189.064807 93.518486 
L 208.374049 85.661084 
L 226.041297 71.14771 
L 241.177131 57.556527 
L 253.019567 48.388664 
L 260.972425 43.093909 
L 264.635332 40.968052 
L 263.823889 43.930244 
L 258.578946 62.438741 
L 249.164548 91.460948 
L 236.054643 118.87087 
L 219.909223 132.406322 
L 201.541094 142.923401 
L 181.874962 150.702994 
L 161.900878 156.597356 
L 142.624394 162.662655 
L 125.015946 175.457734 
L 109.961993 189.366035 
L 98.220396 198.695743 
L 90.38226 204.040344 
L 86.842181 206.117923 
L 87.778376 202.695089 
L 93.143715 183.773831 
L 102.66809 154.570567 
L 115.872017 129.388404 
L 132.090772 115.911418 
L 150.507855 105.405891 
L 170.196097 97.627474 
L 190.164335 91.721535 
L 209.407308 85.599227 
L 226.95627 73.662894 
L 241.927755 60.483578 
L 253.568055 51.339408 
L 261.291163 45.955946 
L 264.708275 43.756562 
L 263.647364 47.574315 
L 258.16184 66.628728 
L 248.527859 95.80132 
L 235.230424 119.354895 
L 218.938968 132.707923 
L 200.473648 143.07141 
L 180.764064 150.727576 
L 160.802453 156.497086 
L 141.59374 162.329304 
L 124.104949 174.048034 
L 109.216516 187.265942 
L 97.677968 196.49532 
L 90.070189 201.901925 
L 86.776177 204.063896 
L 87.961762 199.790662 
L 93.567258 180.337843 
L 103.310469 150.977698 
L 116.700892 128.446011 
L 133.064415 115.174748 
L 151.57725 104.883 
L 171.307408 97.282991 
L 193.476437 90.953297 
L 215.389239 82.980213 
L 235.306883 67.647168 
L 252.226655 53.709509 
L 265.296765 44.601862 
L 273.859226 39.521074 
L 277.482978 37.708089 
L 275.985592 43.139979 
L 269.44245 65.748175 
L 258.182952 98.223536 
L 242.773936 122.724885 
L 223.991134 136.07355 
L 202.78013 146.062979 
L 180.208745 153.273685 
L 157.41329 158.778511 
L 135.541354 165.168 
L 115.694034 179.033741 
L 98.870502 193.340172 
L 85.917703 202.596279 
L 77.48772 207.699359 
L 74.004942 209.490987 
L 75.644702 203.550556 
L 82.32445 180.561738 
L 93.707908 147.987246 
L 109.221999 125.517984 
L 128.0857 112.199965 
L 149.349355 102.236877 
L 171.942492 95.044599 
L 194.727706 89.568224 
L 216.557922 83.04988 
L 236.334145 69.866543 
L 253.06078 56.214757 
L 265.895762 47.116887 
L 274.192939 41.946948 
L 277.534607 40.03737 
L 275.752537 46.395241 
L 268.936444 69.468587 
L 257.42947 102.008661 
L 241.810909 123.198746 
L 222.867045 136.399607 
L 201.551568 146.242212 
L 178.93756 153.346112 
L 156.163476 158.755709 
L 134.375831 165.019762 
L 114.671478 178.007279 
L 98.042391 191.704026 
L 85.325727 200.839306 
L 77.161681 206.003622 
L 73.961253 207.853947 
L 75.885562 200.995393 
L 82.837734 177.541375 
L 94.467776 144.902201 
L 110.190197 124.663078 
L 129.213486 111.542855 
L 150.579954 101.774342 
L 173.213951 94.732356 
L 198.503285 88.808742 
L 222.965537 80.14861 
L 245.051216 63.736741 
L 263.648467 49.743355 
L 277.821048 40.829671 
L 286.855471 36.065192 
L 290.296917 34.502358 
L 287.972133 42.865011 
L 279.998155 69.654713 
L 266.776418 104.906818 
L 248.972541 126.392366 
L 227.482824 139.371742 
L 203.389121 148.774738 
L 177.90438 155.481653 
L 152.311578 160.644436 
L 127.899129 167.782104 
L 105.896028 182.964278 
L 87.409975 197.402477 
L 73.371612 206.447304 
L 64.487671 211.257572 
L 61.205396 212.793267 
L 63.690025 203.863083 
L 71.816475 176.673074 
L 85.175637 141.36178 
L 103.094973 121.798981 
L 124.672369 108.848721 
L 148.821558 99.474944 
L 174.326799 92.78882 
L 199.904084 87.591059 
L 224.265777 80.286156 
L 246.185441 65.896027 
L 264.559575 52.006306 
L 278.463171 43.097314 
L 287.196284 38.199587 
L 290.319261 36.580203 
L 287.674884 45.920183 
L 279.396278 73.100507 
L 265.900212 108.155566 
L 247.866117 126.836835 
L 226.201883 139.67078 
L 201.99815 148.938353 
L 176.473404 155.54787 
L 150.912635 160.666564 
L 126.602647 167.731437 
L 104.767276 182.111735 
L 86.505778 196.047415 
L 72.737489 204.972551 
L 61.191989 211.400686 
L 63.996011 201.494703 
L 72.42645 173.89877 
L 86.058893 139.166884 
L 86.058893 139.166884 
" clip-path="url(#pe9acaef83f)" style="fill: none; stroke-dasharray: 2.96,1.28; stroke-dashoffset: 0; stroke: #000000; stroke-width: 0.8"/>
   </g>
   <g id="line2d_27">
    <path d="M 49.735625 124.095613 
L 301.775625 124.095613 
" clip-path="url(#pe9acaef83f)" style="fill: none; stroke: #000000; stroke-width: 0.4; stroke-linecap: square"/>
   </g>
   <g id="line2d_28">
    <path d="M 175.75786 221.707812 
L 175.75786 25.587812 
" clip-path="url(#pe9acaef83f)" style="fill: none; stroke: #000000; stroke-width: 0.4; stroke-linecap: square"/>
   </g>
   <g id="patch_3">
    <path d="M 49.735625 221.707812 
L 49.735625 25.587812 
" style="fill: none; stroke: #000000; stroke-width: 0.8; stroke-linejoin: miter; stroke-linecap: square"/>
   </g>
   <g id="patch_4">
    <path d="M 301.775625 221.707812 
L 301.775625 25.587812 
" style="fill: none; stroke: #000000; stroke-width: 0.8; stroke-linejoin: miter; stroke-linecap: square"/>
   </g>
   <g id="patch_5">
    <path d="M 49.735625 221.707812 
L 301.775625 221.707812 
" style="fill: none; stroke: #000000; stroke-width: 0.8; stroke-linejoin: miter; stroke-linecap: square"/>
   </g>
   <g id="patch_6">
    <path d="M 49.735625 25.587812 
L 301.775625 25.587812 
" style="fill: none; stroke: #000000; stroke-width: 0.8; stroke-linejoin: miter; stroke-linecap: square"/>
   </g>
   <g id="text_15">
    <!-- Specimen ③ -->
    <g transform="translate(136.853125 19.587812) scale(0.14 -0.14)">
     <defs>
      <path id="Cambria-53" d="M 663 972 
Q 725 697 831 537 
Q 938 378 1106 301 
Q 1275 225 1541 225 
Q 1906 225 2101 415 
Q 2297 606 2297 972 
Q 2297 1206 2215 1365 
Q 2134 1525 1950 1665 
Q 1766 1806 1388 1994 
Q 1022 2175 809 2348 
Q 597 2522 492 2725 
Q 388 2928 388 3169 
Q 388 3519 552 3776 
Q 716 4034 1033 4175 
Q 1350 4316 1759 4316 
Q 1997 4316 2223 4291 
Q 2450 4266 2791 4178 
L 2791 3334 
L 2481 3334 
Q 2409 3609 2300 3762 
Q 2191 3916 2044 3977 
Q 1897 4038 1663 4038 
Q 1459 4038 1298 3963 
Q 1138 3888 1044 3736 
Q 950 3584 950 3375 
Q 950 3153 1029 3000 
Q 1109 2847 1278 2715 
Q 1447 2584 1778 2422 
Q 2178 2222 2398 2050 
Q 2619 1878 2742 1658 
Q 2866 1438 2866 1144 
Q 2866 816 2762 589 
Q 2659 363 2476 220 
Q 2294 78 2039 14 
Q 1784 -50 1481 -50 
Q 991 -50 350 116 
L 350 972 
L 663 972 
z
" transform="scale(0.015625)"/>
      <path id="Cambria-70" d="M 1150 94 
L 1150 -566 
Q 1150 -769 1164 -869 
Q 1178 -969 1214 -1026 
Q 1250 -1084 1317 -1121 
Q 1384 -1159 1534 -1191 
L 1534 -1344 
L 259 -1344 
L 259 -1191 
Q 372 -1159 442 -1126 
Q 513 -1094 550 -1030 
Q 588 -966 600 -856 
Q 613 -747 613 -566 
L 613 2116 
Q 613 2341 606 2436 
Q 600 2531 581 2593 
Q 563 2656 527 2697 
Q 491 2738 430 2766 
Q 369 2794 228 2822 
L 228 2988 
L 963 3016 
L 1153 3016 
L 1113 2506 
L 1159 2494 
Q 1353 2691 1465 2780 
Q 1578 2869 1698 2928 
Q 1819 2988 1930 3013 
Q 2041 3038 2166 3038 
Q 2681 3038 2957 2652 
Q 3234 2266 3234 1522 
Q 3234 1006 3078 654 
Q 2922 303 2623 126 
Q 2325 -50 1913 -50 
Q 1681 -50 1493 -11 
Q 1306 28 1150 94 
z
M 1150 1125 
Q 1150 825 1187 662 
Q 1225 500 1320 398 
Q 1416 297 1545 247 
Q 1675 197 1888 197 
Q 2266 197 2456 511 
Q 2647 825 2647 1438 
Q 2647 2663 1931 2663 
Q 1756 2663 1629 2608 
Q 1503 2553 1378 2431 
Q 1253 2309 1201 2195 
Q 1150 2081 1150 1950 
L 1150 1125 
z
" transform="scale(0.015625)"/>
      <path id="Cambria-65" d="M 2800 531 
Q 2600 322 2433 203 
Q 2266 84 2066 17 
Q 1866 -50 1625 -50 
Q 981 -50 653 336 
Q 325 722 325 1475 
Q 325 1941 492 2297 
Q 659 2653 968 2847 
Q 1278 3041 1681 3041 
Q 1997 3041 2219 2941 
Q 2441 2841 2573 2667 
Q 2706 2494 2779 2230 
Q 2853 1966 2863 1541 
L 894 1541 
L 894 1484 
Q 894 1116 976 864 
Q 1059 613 1248 470 
Q 1438 328 1741 328 
Q 1997 328 2201 423 
Q 2406 519 2609 734 
L 2800 531 
z
M 2275 1800 
Q 2256 2138 2190 2352 
Q 2125 2566 1994 2680 
Q 1863 2794 1650 2794 
Q 1328 2794 1136 2536 
Q 944 2278 909 1800 
L 2275 1800 
z
" transform="scale(0.015625)"/>
      <path id="Cambria-63" d="M 2631 2916 
L 2631 2263 
L 2234 2263 
Q 2181 2466 2103 2583 
Q 2025 2700 1922 2747 
Q 1819 2794 1666 2794 
Q 1447 2794 1278 2653 
Q 1109 2513 1011 2225 
Q 913 1938 913 1522 
Q 913 1256 950 1036 
Q 988 816 1078 659 
Q 1169 503 1319 415 
Q 1469 328 1691 328 
Q 1906 328 2092 412 
Q 2278 497 2478 709 
L 2656 503 
Q 2497 328 2375 233 
Q 2253 138 2114 73 
Q 1975 9 1839 -20 
Q 1703 -50 1544 -50 
Q 953 -50 640 342 
Q 328 734 328 1475 
Q 328 1938 503 2295 
Q 678 2653 993 2847 
Q 1309 3041 1722 3041 
Q 1978 3041 2195 3011 
Q 2413 2981 2631 2916 
z
" transform="scale(0.015625)"/>
      <path id="Cambria-69" d="M 1197 4213 
L 1197 3606 
L 622 3606 
L 622 4213 
L 1197 4213 
z
M 303 153 
Q 425 191 476 219 
Q 528 247 564 297 
Q 600 347 620 450 
Q 641 553 641 772 
L 641 2134 
Q 641 2334 634 2456 
Q 628 2578 590 2651 
Q 553 2725 476 2761 
Q 400 2797 259 2822 
L 259 2988 
L 988 3016 
L 1178 3016 
L 1178 781 
Q 1178 513 1203 408 
Q 1228 303 1298 248 
Q 1369 194 1528 153 
L 1528 0 
L 303 0 
L 303 153 
z
" transform="scale(0.015625)"/>
      <path id="Cambria-6d" d="M 1147 2506 
L 1191 2494 
Q 1378 2681 1498 2776 
Q 1619 2872 1731 2930 
Q 1844 2988 1942 3013 
Q 2041 3038 2144 3038 
Q 2456 3038 2653 2894 
Q 2850 2750 2925 2453 
Q 3159 2691 3304 2803 
Q 3450 2916 3601 2977 
Q 3753 3038 3928 3038 
Q 4138 3038 4289 2977 
Q 4441 2916 4545 2789 
Q 4650 2663 4698 2472 
Q 4747 2281 4747 1959 
L 4747 781 
Q 4747 544 4762 453 
Q 4778 363 4808 313 
Q 4838 263 4897 227 
Q 4956 191 5097 153 
L 5097 0 
L 3869 0 
L 3869 153 
Q 3991 191 4044 219 
Q 4097 247 4133 297 
Q 4169 347 4189 451 
Q 4209 556 4209 769 
L 4209 1588 
Q 4209 1853 4195 2026 
Q 4181 2200 4151 2303 
Q 4122 2406 4080 2465 
Q 4038 2525 3984 2569 
Q 3931 2613 3859 2638 
Q 3788 2663 3669 2663 
Q 3544 2663 3436 2613 
Q 3328 2563 3201 2444 
Q 3075 2325 3019 2204 
Q 2963 2084 2963 1922 
L 2963 781 
Q 2963 544 2978 453 
Q 2994 363 3023 313 
Q 3053 263 3112 227 
Q 3172 191 3313 153 
L 3313 0 
L 2084 0 
L 2084 153 
Q 2206 191 2259 219 
Q 2313 247 2348 297 
Q 2384 347 2404 451 
Q 2425 556 2425 769 
L 2425 1588 
Q 2425 1866 2409 2041 
Q 2394 2216 2361 2322 
Q 2328 2428 2276 2493 
Q 2225 2559 2172 2593 
Q 2119 2628 2047 2645 
Q 1975 2663 1884 2663 
Q 1756 2663 1643 2605 
Q 1531 2547 1414 2437 
Q 1297 2328 1237 2209 
Q 1178 2091 1178 1953 
L 1178 781 
Q 1178 603 1187 509 
Q 1197 416 1217 362 
Q 1238 309 1269 276 
Q 1300 244 1358 214 
Q 1416 184 1531 153 
L 1531 0 
L 306 0 
L 306 153 
Q 425 191 476 219 
Q 528 247 565 297 
Q 603 347 622 450 
Q 641 553 641 772 
L 641 2134 
Q 641 2334 634 2456 
Q 628 2578 590 2651 
Q 553 2725 476 2761 
Q 400 2797 259 2822 
L 259 2988 
L 991 3016 
L 1181 3016 
L 1147 2506 
z
" transform="scale(0.015625)"/>
      <path id="Cambria-6e" d="M 3347 0 
L 2116 0 
L 2116 153 
Q 2238 191 2291 219 
Q 2344 247 2380 297 
Q 2416 347 2436 451 
Q 2456 556 2456 769 
L 2456 1588 
Q 2456 1806 2443 1984 
Q 2431 2163 2401 2277 
Q 2372 2391 2330 2455 
Q 2288 2519 2230 2564 
Q 2172 2609 2097 2636 
Q 2022 2663 1900 2663 
Q 1778 2663 1668 2614 
Q 1559 2566 1428 2447 
Q 1297 2328 1237 2212 
Q 1178 2097 1178 1947 
L 1178 781 
Q 1178 513 1203 408 
Q 1228 303 1298 248 
Q 1369 194 1528 153 
L 1528 0 
L 303 0 
L 303 153 
Q 425 191 476 219 
Q 528 247 564 297 
Q 600 347 620 450 
Q 641 553 641 772 
L 641 2134 
Q 641 2334 634 2456 
Q 628 2578 590 2651 
Q 553 2725 476 2761 
Q 400 2797 259 2822 
L 259 2988 
L 991 3016 
L 1181 3016 
L 1147 2506 
L 1191 2494 
Q 1422 2728 1564 2828 
Q 1706 2928 1851 2983 
Q 1997 3038 2159 3038 
Q 2328 3038 2461 2998 
Q 2594 2959 2695 2878 
Q 2797 2797 2862 2676 
Q 2928 2556 2961 2387 
Q 2994 2219 2994 1959 
L 2994 781 
Q 2994 566 3006 469 
Q 3019 372 3050 319 
Q 3081 266 3140 230 
Q 3200 194 3347 153 
L 3347 0 
z
" transform="scale(0.015625)"/>
      <path id="Cambria-20" transform="scale(0.015625)"/>
      <path id="Cambria-2462" d="M 313 2131 
Q 313 2619 439 3070 
Q 566 3522 794 3914 
Q 1022 4306 1345 4628 
Q 1669 4950 2059 5179 
Q 2450 5409 2901 5536 
Q 3353 5663 3841 5663 
Q 4328 5663 4779 5536 
Q 5231 5409 5623 5179 
Q 6016 4950 6337 4628 
Q 6659 4306 6889 3914 
Q 7119 3522 7245 3070 
Q 7372 2619 7372 2131 
Q 7372 1644 7245 1192 
Q 7119 741 6889 350 
Q 6659 -41 6337 -364 
Q 6016 -688 5623 -916 
Q 5231 -1144 4779 -1270 
Q 4328 -1397 3841 -1397 
Q 3353 -1397 2901 -1270 
Q 2450 -1144 2059 -916 
Q 1669 -688 1345 -364 
Q 1022 -41 794 350 
Q 566 741 439 1192 
Q 313 1644 313 2131 
z
M 594 2131 
Q 594 1678 709 1259 
Q 825 841 1036 477 
Q 1247 113 1544 -187 
Q 1841 -488 2202 -700 
Q 2563 -913 2977 -1030 
Q 3391 -1147 3841 -1147 
Q 4288 -1147 4703 -1030 
Q 5119 -913 5480 -700 
Q 5841 -488 6137 -187 
Q 6434 113 6646 477 
Q 6859 841 6975 1259 
Q 7091 1678 7091 2131 
Q 7091 2584 6975 3003 
Q 6859 3422 6646 3787 
Q 6434 4153 6137 4451 
Q 5841 4750 5480 4964 
Q 5119 5178 4703 5295 
Q 4288 5413 3841 5413 
Q 3391 5413 2977 5295 
Q 2563 5178 2202 4964 
Q 1841 4750 1544 4451 
Q 1247 4153 1036 3787 
Q 825 3422 709 3003 
Q 594 2584 594 2131 
z
M 2772 3194 
L 2772 3722 
Q 3097 3872 3373 3944 
Q 3650 4016 3909 4016 
Q 4147 4016 4339 3962 
Q 4531 3909 4665 3807 
Q 4800 3706 4872 3561 
Q 4944 3416 4944 3231 
Q 4944 2919 4755 2691 
Q 4566 2463 4166 2294 
L 4166 2281 
Q 4331 2253 4484 2181 
Q 4638 2109 4755 1996 
Q 4872 1884 4942 1726 
Q 5013 1569 5013 1366 
Q 5013 1141 4931 948 
Q 4850 756 4692 614 
Q 4534 472 4301 392 
Q 4069 313 3766 313 
Q 3481 313 3226 366 
Q 2972 419 2731 509 
L 2731 1094 
L 3109 1094 
Q 3206 822 3354 698 
Q 3503 575 3753 575 
Q 4088 575 4258 756 
Q 4428 938 4428 1294 
Q 4428 1669 4201 1864 
Q 3975 2059 3531 2059 
L 3256 2059 
L 3256 2328 
Q 3531 2344 3737 2412 
Q 3944 2481 4081 2590 
Q 4219 2700 4287 2844 
Q 4356 2988 4356 3150 
Q 4356 3434 4207 3586 
Q 4059 3738 3769 3738 
Q 3297 3738 3153 3194 
L 2772 3194 
z
" transform="scale(0.015625)"/>
     </defs>
     <use xlink:href="#Cambria-53"/>
     <use xlink:href="#Cambria-70" x="49.609375"/>
     <use xlink:href="#Cambria-65" x="105.224609"/>
     <use xlink:href="#Cambria-63" x="154.003906"/>
     <use xlink:href="#Cambria-69" x="198.095703"/>
     <use xlink:href="#Cambria-6d" x="225.878906"/>
     <use xlink:href="#Cambria-65" x="309.082031"/>
     <use xlink:href="#Cambria-6e" x="357.861328"/>
     <use xlink:href="#Cambria-20" x="413.671875"/>
     <use xlink:href="#Cambria-2462" x="435.693359"/>
    </g>
   </g>
   <g id="legend_1">
    <g id="patch_7">
     <path d="M 56.035625 59.905937 
L 156.544531 59.905937 
Q 158.344531 59.905937 158.344531 58.105937 
L 158.344531 31.887812 
Q 158.344531 30.087812 156.544531 30.087812 
L 56.035625 30.087812 
Q 54.235625 30.087812 54.235625 31.887812 
L 54.235625 58.105937 
Q 54.235625 59.905937 56.035625 59.905937 
z
" style="fill: #ffffff; opacity: 0.8; stroke: #cccccc; stroke-linejoin: miter"/>
    </g>
    <g id="line2d_29">
     <path d="M 57.835625 36.837812 
L 66.835625 36.837812 
L 75.835625 36.837812 
" style="fill: none; stroke: #ff0000; stroke-linecap: square"/>
    </g>
    <g id="text_16">
     <!-- BiLSTM prediction -->
     <g transform="translate(83.035625 39.987812) scale(0.09 -0.09)">
      <defs>
       <path id="Cambria-42" d="M 378 0 
L 378 153 
Q 572 203 637 264 
Q 703 325 723 437 
Q 744 550 744 781 
L 744 3484 
Q 744 3700 728 3798 
Q 713 3897 677 3951 
Q 641 4006 581 4039 
Q 522 4072 378 4113 
L 378 4266 
L 2088 4266 
Q 2584 4266 2886 4159 
Q 3188 4053 3334 3845 
Q 3481 3638 3481 3309 
Q 3481 3038 3376 2838 
Q 3272 2638 3103 2506 
Q 2934 2375 2669 2263 
L 2669 2234 
Q 3094 2106 3312 1839 
Q 3531 1572 3531 1203 
Q 3531 778 3342 509 
Q 3153 241 2812 120 
Q 2472 0 1988 0 
L 378 0 
z
M 1875 2353 
Q 2350 2353 2601 2583 
Q 2853 2813 2853 3250 
Q 2853 3466 2783 3608 
Q 2713 3750 2589 3834 
Q 2466 3919 2297 3955 
Q 2128 3991 1931 3991 
Q 1813 3991 1619 3984 
Q 1425 3978 1328 3972 
L 1328 2353 
L 1875 2353 
z
M 1328 297 
Q 1556 275 1838 275 
Q 2247 275 2473 378 
Q 2700 481 2801 682 
Q 2903 884 2903 1188 
Q 2903 1491 2792 1687 
Q 2681 1884 2450 1981 
Q 2219 2078 1813 2078 
L 1328 2078 
L 1328 297 
z
" transform="scale(0.015625)"/>
       <path id="Cambria-4c" d="M 1328 288 
L 2147 288 
Q 2281 288 2372 303 
Q 2463 319 2527 351 
Q 2591 384 2642 442 
Q 2694 500 2741 594 
Q 2788 688 2830 830 
Q 2872 972 2934 1256 
L 3250 1256 
L 3188 0 
L 378 0 
L 378 153 
Q 572 203 637 264 
Q 703 325 723 437 
Q 744 550 744 781 
L 744 3484 
Q 744 3700 728 3798 
Q 713 3897 677 3951 
Q 641 4006 581 4039 
Q 522 4072 378 4113 
L 378 4266 
L 1694 4266 
L 1694 4113 
Q 1556 4075 1498 4045 
Q 1441 4016 1403 3966 
Q 1366 3916 1347 3812 
Q 1328 3709 1328 3484 
L 1328 288 
z
" transform="scale(0.015625)"/>
       <path id="Cambria-54" d="M 206 4266 
L 3588 4266 
L 3588 3178 
L 3281 3178 
Q 3213 3447 3145 3603 
Q 3078 3759 3003 3840 
Q 2928 3922 2842 3956 
Q 2756 3991 2584 3991 
L 2188 3991 
L 2188 791 
Q 2188 606 2208 497 
Q 2228 388 2270 323 
Q 2313 259 2384 223 
Q 2456 188 2609 153 
L 2609 0 
L 1181 0 
L 1181 153 
Q 1275 175 1347 200 
Q 1419 225 1464 261 
Q 1509 297 1539 353 
Q 1569 409 1586 506 
Q 1603 603 1603 791 
L 1603 3991 
L 1209 3991 
Q 1063 3991 967 3962 
Q 872 3934 790 3845 
Q 709 3756 642 3592 
Q 575 3428 516 3178 
L 206 3178 
L 206 4266 
z
" transform="scale(0.015625)"/>
       <path id="Cambria-4d" d="M 4841 4113 
Q 4703 4078 4642 4043 
Q 4581 4009 4545 3957 
Q 4509 3906 4492 3803 
Q 4475 3700 4475 3484 
L 4475 781 
Q 4475 572 4489 475 
Q 4503 378 4536 322 
Q 4569 266 4633 228 
Q 4697 191 4841 153 
L 4841 0 
L 3538 0 
L 3538 153 
Q 3716 197 3784 253 
Q 3853 309 3878 418 
Q 3903 528 3903 781 
L 3903 1978 
Q 3903 2450 3917 2933 
Q 3931 3416 3950 3594 
L 3897 3594 
L 2659 497 
L 2300 497 
L 1150 3644 
L 1097 3644 
Q 1113 3453 1127 2953 
Q 1141 2453 1141 1925 
L 1141 781 
Q 1141 572 1155 475 
Q 1169 378 1201 322 
Q 1234 266 1298 228 
Q 1363 191 1506 153 
L 1506 0 
L 366 0 
L 366 153 
Q 559 203 625 264 
Q 691 325 711 437 
Q 731 550 731 781 
L 731 3484 
Q 731 3700 715 3798 
Q 700 3897 664 3951 
Q 628 4006 568 4039 
Q 509 4072 366 4113 
L 366 4266 
L 1481 4266 
L 2578 1225 
L 3784 4266 
L 4841 4266 
L 4841 4113 
z
" transform="scale(0.015625)"/>
       <path id="Cambria-72" d="M 1147 2469 
L 1191 2459 
Q 1363 2669 1509 2789 
Q 1656 2909 1826 2975 
Q 1997 3041 2213 3041 
Q 2394 3041 2541 3022 
L 2541 2303 
L 2188 2303 
Q 2113 2472 2028 2548 
Q 1944 2625 1797 2625 
Q 1684 2625 1573 2559 
Q 1463 2494 1359 2369 
Q 1256 2244 1217 2134 
Q 1178 2025 1178 1875 
L 1178 781 
Q 1178 497 1212 389 
Q 1247 281 1326 231 
Q 1406 181 1566 153 
L 1566 0 
L 306 0 
L 306 153 
Q 425 191 476 219 
Q 528 247 565 297 
Q 603 347 622 450 
Q 641 553 641 772 
L 641 2134 
Q 641 2334 634 2456 
Q 628 2578 590 2651 
Q 553 2725 476 2761 
Q 400 2797 259 2822 
L 259 2984 
L 991 3016 
L 1181 3016 
L 1147 2469 
z
" transform="scale(0.015625)"/>
       <path id="Cambria-64" d="M 2413 3397 
Q 2413 3697 2408 3815 
Q 2403 3934 2383 4017 
Q 2363 4100 2327 4147 
Q 2291 4194 2230 4222 
Q 2169 4250 2009 4278 
L 2009 4441 
L 2766 4472 
L 2950 4472 
L 2950 853 
Q 2950 609 2959 504 
Q 2969 400 3000 337 
Q 3031 275 3098 236 
Q 3166 197 3334 163 
L 3334 0 
L 2597 -31 
L 2409 -31 
L 2447 481 
L 2400 494 
Q 2203 284 2058 179 
Q 1913 75 1748 12 
Q 1584 -50 1397 -50 
Q 884 -50 606 339 
Q 328 728 328 1463 
Q 328 1975 509 2333 
Q 691 2691 998 2866 
Q 1306 3041 1691 3041 
Q 1897 3041 2065 3008 
Q 2234 2975 2413 2900 
L 2413 3397 
z
M 2413 1853 
Q 2413 2097 2391 2244 
Q 2369 2391 2317 2491 
Q 2266 2591 2178 2659 
Q 2091 2728 1986 2759 
Q 1881 2791 1734 2791 
Q 1334 2791 1125 2470 
Q 916 2150 916 1550 
Q 916 950 1087 637 
Q 1259 325 1609 325 
Q 1747 325 1837 348 
Q 1928 372 2015 423 
Q 2103 475 2193 565 
Q 2284 656 2326 731 
Q 2369 806 2391 903 
Q 2413 1000 2413 1153 
L 2413 1853 
z
" transform="scale(0.015625)"/>
       <path id="Cambria-74" d="M 116 2831 
Q 272 2856 369 2918 
Q 466 2981 520 3079 
Q 575 3178 606 3326 
Q 638 3475 672 3759 
L 1116 3759 
L 1116 2988 
L 2125 2988 
L 2125 2672 
L 1116 2672 
L 1116 1281 
Q 1116 978 1141 798 
Q 1166 619 1234 517 
Q 1303 416 1390 372 
Q 1478 328 1616 328 
Q 1741 328 1850 379 
Q 1959 431 2066 528 
L 2206 359 
Q 1984 144 1786 47 
Q 1588 -50 1375 -50 
Q 972 -50 775 189 
Q 578 428 578 938 
L 578 2672 
L 116 2672 
L 116 2831 
z
" transform="scale(0.015625)"/>
       <path id="Cambria-6f" d="M 1663 -50 
Q 1013 -50 670 333 
Q 328 716 328 1466 
Q 328 1981 508 2337 
Q 688 2694 1000 2867 
Q 1313 3041 1713 3041 
Q 2381 3041 2725 2652 
Q 3069 2263 3069 1534 
Q 3069 1016 2897 659 
Q 2725 303 2409 126 
Q 2094 -50 1663 -50 
z
M 919 1531 
Q 919 888 1123 542 
Q 1328 197 1709 197 
Q 1919 197 2066 298 
Q 2213 400 2305 572 
Q 2397 744 2437 970 
Q 2478 1197 2478 1444 
Q 2478 1903 2376 2206 
Q 2275 2509 2100 2651 
Q 1925 2794 1700 2794 
Q 1322 2794 1120 2466 
Q 919 2138 919 1531 
z
" transform="scale(0.015625)"/>
      </defs>
      <use xlink:href="#Cambria-42"/>
      <use xlink:href="#Cambria-69" x="61.132812"/>
      <use xlink:href="#Cambria-4c" x="88.916016"/>
      <use xlink:href="#Cambria-53" x="141.953125"/>
      <use xlink:href="#Cambria-54" x="190.3125"/>
      <use xlink:href="#Cambria-4d" x="249.589844"/>
      <use xlink:href="#Cambria-20" x="331.132812"/>
      <use xlink:href="#Cambria-70" x="353.154297"/>
      <use xlink:href="#Cambria-72" x="408.769531"/>
      <use xlink:href="#Cambria-65" x="450.126953"/>
      <use xlink:href="#Cambria-64" x="498.90625"/>
      <use xlink:href="#Cambria-69" x="554.375"/>
      <use xlink:href="#Cambria-63" x="582.158203"/>
      <use xlink:href="#Cambria-74" x="626.25"/>
      <use xlink:href="#Cambria-69" x="660.087891"/>
      <use xlink:href="#Cambria-6f" x="687.871094"/>
      <use xlink:href="#Cambria-6e" x="740.947266"/>
     </g>
    </g>
    <g id="line2d_30">
     <path d="M 57.835625 51.191406 
L 66.835625 51.191406 
L 75.835625 51.191406 
" style="fill: none; stroke-dasharray: 2.96,1.28; stroke-dashoffset: 0; stroke: #000000; stroke-width: 0.8"/>
    </g>
    <g id="text_17">
     <!-- Reference ③ -->
     <g transform="translate(83.035625 54.341406) scale(0.09 -0.09)">
      <defs>
       <path id="Cambria-52" d="M 1331 1853 
L 1331 791 
Q 1331 566 1348 464 
Q 1366 363 1400 311 
Q 1434 259 1493 226 
Q 1553 194 1697 153 
L 1697 0 
L 378 0 
L 378 153 
Q 572 203 637 264 
Q 703 325 723 437 
Q 744 550 744 781 
L 744 3484 
Q 744 3700 728 3798 
Q 713 3897 677 3951 
Q 641 4006 581 4039 
Q 522 4072 378 4113 
L 378 4266 
L 1925 4266 
Q 2656 4266 3018 4000 
Q 3381 3734 3381 3175 
Q 3381 2747 3145 2447 
Q 2909 2147 2438 1978 
L 2438 1953 
Q 2628 1875 2764 1729 
Q 2900 1584 3066 1278 
L 3347 766 
Q 3469 541 3556 422 
Q 3644 303 3734 240 
Q 3825 178 3975 153 
L 3975 0 
L 3109 0 
Q 2991 166 2884 356 
Q 2778 547 2675 744 
L 2400 1266 
Q 2275 1503 2195 1615 
Q 2116 1728 2048 1773 
Q 1981 1819 1904 1836 
Q 1828 1853 1675 1853 
L 1331 1853 
z
M 1331 3978 
L 1331 2122 
L 1684 2122 
Q 1956 2122 2125 2161 
Q 2294 2200 2437 2309 
Q 2581 2419 2667 2614 
Q 2753 2809 2753 3094 
Q 2753 3391 2651 3587 
Q 2550 3784 2344 3887 
Q 2138 3991 1788 3991 
Q 1506 3991 1331 3978 
z
" transform="scale(0.015625)"/>
       <path id="Cambria-66" d="M 1909 2672 
L 1163 2672 
L 1163 781 
Q 1163 572 1183 465 
Q 1203 359 1242 304 
Q 1281 250 1345 217 
Q 1409 184 1550 153 
L 1550 0 
L 272 0 
L 272 153 
Q 409 191 468 225 
Q 528 259 561 312 
Q 594 366 609 466 
Q 625 566 625 781 
L 625 2672 
L 247 2672 
L 247 2831 
Q 366 2850 405 2861 
Q 444 2872 480 2894 
Q 516 2916 542 2956 
Q 569 2997 589 3076 
Q 609 3156 622 3300 
Q 650 3641 745 3853 
Q 841 4066 1023 4216 
Q 1206 4366 1414 4427 
Q 1622 4488 1903 4488 
Q 2150 4488 2322 4453 
L 2322 3888 
L 2013 3888 
Q 1953 4072 1873 4148 
Q 1794 4225 1650 4225 
Q 1547 4225 1476 4197 
Q 1406 4169 1347 4109 
Q 1288 4050 1245 3950 
Q 1203 3850 1183 3701 
Q 1163 3553 1163 3316 
L 1163 2988 
L 1909 2988 
L 1909 2672 
z
" transform="scale(0.015625)"/>
      </defs>
      <use xlink:href="#Cambria-52"/>
      <use xlink:href="#Cambria-65" x="60.359375"/>
      <use xlink:href="#Cambria-66" x="109.138672"/>
      <use xlink:href="#Cambria-65" x="139.412109"/>
      <use xlink:href="#Cambria-72" x="188.191406"/>
      <use xlink:href="#Cambria-65" x="229.548828"/>
      <use xlink:href="#Cambria-6e" x="278.328125"/>
      <use xlink:href="#Cambria-63" x="334.138672"/>
      <use xlink:href="#Cambria-65" x="378.230469"/>
      <use xlink:href="#Cambria-20" x="427.009766"/>
      <use xlink:href="#Cambria-2462" x="449.03125"/>
     </g>
    </g>
   </g>
  </g>
 </g>
 <defs>
  <clipPath id="pe9acaef83f">
   <rect x="49.735625" y="25.587812" width="252.04" height="196.12"/>
  </clipPath>
 </defs>
</svg>
