<?xml version="1.0" encoding="utf-8" standalone="no"?>
<!DOCTYPE svg PUBLIC "-//W3C//DTD SVG 1.1//EN"
  "http://www.w3.org/Graphics/SVG/1.1/DTD/svg11.dtd">
<svg xmlns:xlink="http://www.w3.org/1999/xlink" width="309.000815pt" height="261.768437pt" viewBox="0 0 309.000815 261.768437" xmlns="http://www.w3.org/2000/svg" version="1.1">
 <metadata>
  <rdf:RDF xmlns:dc="http://purl.org/dc/elements/1.1/" xmlns:cc="http://creativecommons.org/ns#" xmlns:rdf="http://www.w3.org/1999/02/22-rdf-syntax-ns#">
   <cc:Work>
    <dc:type rdf:resource="http://purl.org/dc/dcmitype/StillImage"/>
    <dc:date>2024-02-01T15:21:10.016959</dc:date>
    <dc:format>image/svg+xml</dc:format>
    <dc:creator>
     <cc:Agent>
      <dc:title>Matplotlib v3.7.1, https://matplotlib.org/</dc:title>
     </cc:Agent>
    </dc:creator>
   </cc:Work>
  </rdf:RDF>
 </metadata>
 <defs>
  <style type="text/css">*{stroke-linejoin: round; stroke-linecap: butt}</style>
 </defs>
 <g id="figure_1">
  <g id="patch_1">
   <path d="M 0 261.768437 
L 309.000815 261.768437 
L 309.000815 0 
L 0 0 
z
" style="fill: #ffffff"/>
  </g>
  <g id="axes_1">
   <g id="patch_2">
    <path d="M 56.380625 221.707812 
L 293.069951 221.707812 
L 293.069951 25.587812 
L 56.380625 25.587812 
z
" style="fill: #ffffff"/>
   </g>
   <g id="matplotlib.axis_1">
    <g id="xtick_1">
     <g id="line2d_1">
      <path d="M 57.57945 221.707812 
L 57.57945 25.587812 
" clip-path="url(#p673e221586)" style="fill: none; stroke-dasharray: 0.8,1.32; stroke-dashoffset: 0; stroke: #b0b0b0; stroke-width: 0.8"/>
     </g>
     <g id="line2d_2">
      <defs>
       <path id="mf37070c1db" d="M 0 0 
L 0 3.5 
" style="stroke: #000000; stroke-width: 0.8"/>
      </defs>
      <g>
       <use xlink:href="#mf37070c1db" x="57.57945" y="221.707812" style="stroke: #000000; stroke-width: 0.8"/>
      </g>
     </g>
     <g id="text_1">
      <!-- −150 -->
      <g transform="translate(44.28945 237.092812) scale(0.12 -0.12)">
       <defs>
        <path id="Cambria-2212" d="M 397 1613 
L 397 2047 
L 3147 2047 
L 3147 1613 
L 397 1613 
z
" transform="scale(0.015625)"/>
        <path id="Cambria-31" d="M 2172 816 
Q 2172 634 2192 542 
Q 2213 450 2264 392 
Q 2316 334 2412 301 
Q 2509 269 2656 251 
Q 2803 234 3044 228 
L 3044 0 
L 734 0 
L 734 228 
Q 1081 244 1229 270 
Q 1378 297 1456 350 
Q 1534 403 1570 500 
Q 1606 597 1606 816 
L 1606 3350 
Q 1606 3475 1562 3533 
Q 1519 3591 1434 3591 
Q 1334 3591 1150 3487 
Q 966 3384 694 3203 
L 556 3444 
L 2019 4316 
L 2191 4316 
Q 2172 4016 2172 3484 
L 2172 816 
z
" transform="scale(0.015625)"/>
        <path id="Cambria-35" d="M 469 172 
L 469 834 
L 847 834 
Q 941 516 1130 366 
Q 1319 216 1619 216 
Q 2034 216 2246 466 
Q 2459 716 2459 1213 
Q 2459 1544 2346 1761 
Q 2234 1978 2043 2075 
Q 1853 2172 1600 2172 
Q 1388 2172 1234 2145 
Q 1081 2119 906 2063 
L 656 2209 
L 656 4266 
L 2378 4266 
Q 2484 4266 2531 4283 
Q 2578 4300 2606 4336 
Q 2634 4372 2672 4472 
L 2916 4472 
L 2869 3747 
L 1072 3747 
L 1072 2375 
Q 1234 2444 1425 2478 
Q 1616 2513 1806 2513 
Q 2178 2513 2465 2361 
Q 2753 2209 2909 1929 
Q 3066 1650 3066 1281 
Q 3066 863 2891 563 
Q 2716 263 2384 106 
Q 2053 -50 1600 -50 
Q 1059 -50 469 172 
z
" transform="scale(0.015625)"/>
        <path id="Cambria-30" d="M 1738 -50 
Q 1063 -50 733 481 
Q 403 1013 403 2094 
Q 403 2669 504 3087 
Q 606 3506 789 3779 
Q 972 4053 1228 4184 
Q 1484 4316 1788 4316 
Q 2472 4316 2806 3787 
Q 3141 3259 3141 2191 
Q 3141 1084 2783 517 
Q 2425 -50 1738 -50 
z
M 1013 2188 
Q 1013 1169 1202 692 
Q 1391 216 1788 216 
Q 2166 216 2348 664 
Q 2531 1113 2531 2053 
Q 2531 2772 2437 3217 
Q 2344 3663 2176 3856 
Q 2009 4050 1772 4050 
Q 1556 4050 1411 3922 
Q 1266 3794 1177 3553 
Q 1088 3313 1050 2967 
Q 1013 2622 1013 2188 
z
" transform="scale(0.015625)"/>
       </defs>
       <use xlink:href="#Cambria-2212"/>
       <use xlink:href="#Cambria-31" x="55.371094"/>
       <use xlink:href="#Cambria-35" x="110.742188"/>
       <use xlink:href="#Cambria-30" x="166.113281"/>
      </g>
     </g>
    </g>
    <g id="xtick_2">
     <g id="line2d_3">
      <path d="M 96.621761 221.707812 
L 96.621761 25.587812 
" clip-path="url(#p673e221586)" style="fill: none; stroke-dasharray: 0.8,1.32; stroke-dashoffset: 0; stroke: #b0b0b0; stroke-width: 0.8"/>
     </g>
     <g id="line2d_4">
      <g>
       <use xlink:href="#mf37070c1db" x="96.621761" y="221.707812" style="stroke: #000000; stroke-width: 0.8"/>
      </g>
     </g>
     <g id="text_2">
      <!-- −100 -->
      <g transform="translate(83.331761 237.092812) scale(0.12 -0.12)">
       <use xlink:href="#Cambria-2212"/>
       <use xlink:href="#Cambria-31" x="55.371094"/>
       <use xlink:href="#Cambria-30" x="110.742188"/>
       <use xlink:href="#Cambria-30" x="166.113281"/>
      </g>
     </g>
    </g>
    <g id="xtick_3">
     <g id="line2d_5">
      <path d="M 135.664072 221.707812 
L 135.664072 25.587812 
" clip-path="url(#p673e221586)" style="fill: none; stroke-dasharray: 0.8,1.32; stroke-dashoffset: 0; stroke: #b0b0b0; stroke-width: 0.8"/>
     </g>
     <g id="line2d_6">
      <g>
       <use xlink:href="#mf37070c1db" x="135.664072" y="221.707812" style="stroke: #000000; stroke-width: 0.8"/>
      </g>
     </g>
     <g id="text_3">
      <!-- −50 -->
      <g transform="translate(125.696572 237.092812) scale(0.12 -0.12)">
       <use xlink:href="#Cambria-2212"/>
       <use xlink:href="#Cambria-35" x="55.371094"/>
       <use xlink:href="#Cambria-30" x="110.742188"/>
      </g>
     </g>
    </g>
    <g id="xtick_4">
     <g id="line2d_7">
      <path d="M 174.706382 221.707812 
L 174.706382 25.587812 
" clip-path="url(#p673e221586)" style="fill: none; stroke-dasharray: 0.8,1.32; stroke-dashoffset: 0; stroke: #b0b0b0; stroke-width: 0.8"/>
     </g>
     <g id="line2d_8">
      <g>
       <use xlink:href="#mf37070c1db" x="174.706382" y="221.707812" style="stroke: #000000; stroke-width: 0.8"/>
      </g>
     </g>
     <g id="text_4">
      <!-- 0 -->
      <g transform="translate(171.383882 237.092812) scale(0.12 -0.12)">
       <use xlink:href="#Cambria-30"/>
      </g>
     </g>
    </g>
    <g id="xtick_5">
     <g id="line2d_9">
      <path d="M 213.748693 221.707812 
L 213.748693 25.587812 
" clip-path="url(#p673e221586)" style="fill: none; stroke-dasharray: 0.8,1.32; stroke-dashoffset: 0; stroke: #b0b0b0; stroke-width: 0.8"/>
     </g>
     <g id="line2d_10">
      <g>
       <use xlink:href="#mf37070c1db" x="213.748693" y="221.707812" style="stroke: #000000; stroke-width: 0.8"/>
      </g>
     </g>
     <g id="text_5">
      <!-- 50 -->
      <g transform="translate(207.103693 237.092812) scale(0.12 -0.12)">
       <use xlink:href="#Cambria-35"/>
       <use xlink:href="#Cambria-30" x="55.371094"/>
      </g>
     </g>
    </g>
    <g id="xtick_6">
     <g id="line2d_11">
      <path d="M 252.791004 221.707812 
L 252.791004 25.587812 
" clip-path="url(#p673e221586)" style="fill: none; stroke-dasharray: 0.8,1.32; stroke-dashoffset: 0; stroke: #b0b0b0; stroke-width: 0.8"/>
     </g>
     <g id="line2d_12">
      <g>
       <use xlink:href="#mf37070c1db" x="252.791004" y="221.707812" style="stroke: #000000; stroke-width: 0.8"/>
      </g>
     </g>
     <g id="text_6">
      <!-- 100 -->
      <g transform="translate(242.823504 237.092812) scale(0.12 -0.12)">
       <use xlink:href="#Cambria-31"/>
       <use xlink:href="#Cambria-30" x="55.371094"/>
       <use xlink:href="#Cambria-30" x="110.742188"/>
      </g>
     </g>
    </g>
    <g id="xtick_7">
     <g id="line2d_13">
      <path d="M 291.833315 221.707812 
L 291.833315 25.587812 
" clip-path="url(#p673e221586)" style="fill: none; stroke-dasharray: 0.8,1.32; stroke-dashoffset: 0; stroke: #b0b0b0; stroke-width: 0.8"/>
     </g>
     <g id="line2d_14">
      <g>
       <use xlink:href="#mf37070c1db" x="291.833315" y="221.707812" style="stroke: #000000; stroke-width: 0.8"/>
      </g>
     </g>
     <g id="text_7">
      <!-- 150 -->
      <g transform="translate(281.865815 237.092812) scale(0.12 -0.12)">
       <use xlink:href="#Cambria-31"/>
       <use xlink:href="#Cambria-35" x="55.371094"/>
       <use xlink:href="#Cambria-30" x="110.742188"/>
      </g>
     </g>
    </g>
    <g id="text_8">
     <!-- Displacement (mm) -->
     <g transform="translate(125.487788 252.020312) scale(0.12 -0.12)">
      <defs>
       <path id="Cambria-Italic-44" d="M 2134 4266 
Q 2606 4266 2900 4194 
Q 3194 4122 3448 3934 
Q 3703 3747 3831 3436 
Q 3959 3125 3959 2700 
Q 3959 2278 3862 1893 
Q 3766 1509 3584 1186 
Q 3403 863 3150 623 
Q 2897 384 2659 256 
Q 2422 128 2128 64 
Q 1834 0 1444 0 
L 131 0 
L 166 153 
Q 284 172 343 214 
Q 403 256 443 331 
Q 484 406 518 514 
Q 553 622 622 931 
L 1153 3338 
Q 1184 3481 1203 3614 
Q 1222 3747 1222 3841 
Q 1222 3988 1147 4045 
Q 1072 4103 916 4113 
L 950 4266 
L 2134 4266 
z
M 1038 288 
Q 1128 278 1384 278 
Q 1700 278 1958 347 
Q 2216 416 2433 567 
Q 2650 719 2828 972 
Q 3006 1225 3117 1486 
Q 3228 1747 3290 2047 
Q 3353 2347 3353 2681 
Q 3353 3334 3048 3664 
Q 2744 3994 2144 3994 
Q 2006 3994 1847 3984 
L 1038 288 
z
" transform="scale(0.015625)"/>
       <path id="Cambria-Italic-69" d="M 1750 4213 
L 1606 3606 
L 1053 3606 
L 1197 4213 
L 1750 4213 
z
M 978 781 
Q 944 622 934 548 
Q 925 475 925 425 
Q 925 331 956 278 
Q 988 225 1053 197 
Q 1119 169 1269 153 
L 1241 0 
L 272 0 
L 744 2106 
Q 784 2288 800 2395 
Q 816 2503 816 2575 
Q 816 2666 789 2716 
Q 763 2766 700 2791 
Q 638 2816 484 2822 
L 519 2988 
L 1281 3016 
L 1466 3016 
L 978 781 
z
" transform="scale(0.015625)"/>
       <path id="Cambria-Italic-73" d="M 2063 2259 
Q 2028 2541 1901 2667 
Q 1775 2794 1509 2794 
Q 1363 2794 1244 2739 
Q 1125 2684 1056 2579 
Q 988 2475 988 2334 
Q 988 2219 1034 2123 
Q 1081 2028 1192 1925 
Q 1303 1822 1503 1688 
Q 1806 1484 1928 1293 
Q 2050 1103 2050 853 
Q 2050 559 1909 354 
Q 1769 150 1525 50 
Q 1281 -50 975 -50 
Q 700 -50 461 -9 
Q 222 31 -3 94 
L 144 769 
L 388 769 
Q 409 481 551 339 
Q 694 197 966 197 
Q 1244 197 1400 336 
Q 1556 475 1556 703 
Q 1556 838 1509 944 
Q 1463 1050 1363 1147 
Q 1263 1244 1078 1369 
Q 881 1503 759 1622 
Q 638 1741 570 1883 
Q 503 2025 503 2197 
Q 503 2456 631 2647 
Q 759 2838 995 2938 
Q 1231 3038 1547 3038 
Q 2063 3038 2456 2903 
L 2313 2259 
L 2063 2259 
z
" transform="scale(0.015625)"/>
       <path id="Cambria-Italic-70" d="M 669 -553 
Q 638 -703 630 -784 
Q 622 -866 622 -919 
Q 622 -1013 653 -1066 
Q 684 -1119 750 -1147 
Q 816 -1175 966 -1191 
L 941 -1344 
L -25 -1344 
L 766 2131 
Q 825 2394 825 2581 
Q 825 2669 798 2717 
Q 772 2766 708 2789 
Q 644 2813 491 2822 
L 528 2988 
L 1238 3016 
L 1416 3016 
L 1206 2203 
L 1244 2191 
Q 1822 3038 2394 3038 
Q 2734 3038 2923 2778 
Q 3113 2519 3113 2047 
Q 3113 1709 3020 1368 
Q 2928 1028 2764 753 
Q 2600 478 2398 301 
Q 2197 125 1973 37 
Q 1750 -50 1503 -50 
Q 1088 -50 813 131 
L 669 -553 
z
M 1044 1088 
Q 1013 922 1005 834 
Q 997 747 997 663 
Q 997 419 1101 308 
Q 1206 197 1463 197 
Q 1622 197 1756 259 
Q 1891 322 2011 440 
Q 2131 559 2228 728 
Q 2325 897 2401 1120 
Q 2478 1344 2517 1580 
Q 2556 1816 2556 2022 
Q 2556 2350 2464 2511 
Q 2372 2672 2172 2672 
Q 2013 2672 1858 2564 
Q 1703 2456 1518 2218 
Q 1334 1981 1231 1750 
Q 1128 1519 1069 1219 
L 1044 1088 
z
" transform="scale(0.015625)"/>
       <path id="Cambria-Italic-6c" d="M 1578 4469 
L 1763 4469 
L 950 781 
Q 916 631 906 554 
Q 897 478 897 425 
Q 897 331 928 278 
Q 959 225 1025 197 
Q 1091 169 1241 153 
L 1216 0 
L 241 0 
L 1047 3588 
Q 1078 3725 1090 3794 
Q 1103 3863 1109 3925 
Q 1116 3988 1116 4034 
Q 1116 4128 1081 4176 
Q 1047 4225 983 4247 
Q 919 4269 753 4278 
L 791 4441 
L 1578 4469 
z
" transform="scale(0.015625)"/>
       <path id="Cambria-Italic-61" d="M 2606 2834 
L 2894 3041 
L 3094 2991 
L 2616 869 
Q 2572 681 2556 579 
Q 2541 478 2541 413 
Q 2541 284 2612 226 
Q 2684 169 2888 153 
L 2859 0 
L 1966 0 
L 2163 784 
L 2122 797 
Q 1822 359 1553 156 
Q 1284 -47 984 -47 
Q 641 -47 452 212 
Q 263 472 263 941 
Q 263 1241 331 1542 
Q 400 1844 539 2114 
Q 678 2384 872 2590 
Q 1066 2797 1320 2919 
Q 1575 3041 1875 3041 
Q 2069 3041 2244 2995 
Q 2419 2950 2606 2834 
z
M 2331 1903 
Q 2359 2031 2368 2125 
Q 2378 2219 2378 2328 
Q 2378 2572 2275 2683 
Q 2172 2794 1931 2794 
Q 1800 2794 1681 2751 
Q 1563 2709 1441 2611 
Q 1319 2513 1208 2353 
Q 1097 2194 1006 1966 
Q 916 1738 866 1477 
Q 816 1216 816 969 
Q 816 644 905 483 
Q 994 322 1203 322 
Q 1300 322 1404 365 
Q 1509 409 1637 526 
Q 1766 644 1928 872 
Q 2075 1081 2161 1286 
Q 2247 1491 2303 1769 
L 2331 1903 
z
" transform="scale(0.015625)"/>
       <path id="Cambria-Italic-63" d="M 2297 2238 
Q 2291 2475 2258 2581 
Q 2225 2688 2151 2741 
Q 2078 2794 1944 2794 
Q 1628 2794 1376 2542 
Q 1125 2291 965 1830 
Q 806 1369 806 944 
Q 806 813 829 697 
Q 853 581 911 497 
Q 969 413 1064 364 
Q 1159 316 1306 316 
Q 1591 316 1798 423 
Q 2006 531 2238 763 
L 2428 572 
Q 2134 247 1836 97 
Q 1538 -53 1194 -53 
Q 741 -53 506 215 
Q 272 484 272 997 
Q 272 1331 397 1731 
Q 522 2131 762 2434 
Q 1003 2738 1325 2888 
Q 1647 3038 2013 3038 
Q 2263 3038 2448 3009 
Q 2634 2981 2778 2944 
L 2625 2238 
L 2297 2238 
z
" transform="scale(0.015625)"/>
       <path id="Cambria-Italic-65" d="M 2544 622 
Q 2313 369 2100 222 
Q 1888 75 1675 12 
Q 1463 -50 1206 -50 
Q 959 -50 781 29 
Q 603 109 486 248 
Q 369 388 312 580 
Q 256 772 256 997 
Q 256 1331 376 1714 
Q 497 2097 740 2401 
Q 984 2706 1325 2873 
Q 1666 3041 2050 3041 
Q 2428 3041 2617 2887 
Q 2806 2734 2806 2409 
Q 2806 1878 2307 1612 
Q 1809 1347 828 1347 
Q 791 1159 791 941 
Q 791 613 919 464 
Q 1047 316 1338 316 
Q 1625 316 1859 441 
Q 2094 566 2350 825 
L 2544 622 
z
M 881 1613 
Q 1169 1616 1386 1645 
Q 1603 1675 1759 1726 
Q 1916 1778 2019 1850 
Q 2122 1922 2183 2008 
Q 2244 2094 2267 2189 
Q 2291 2284 2291 2388 
Q 2291 2578 2202 2686 
Q 2113 2794 1938 2794 
Q 1719 2794 1508 2636 
Q 1297 2478 1136 2211 
Q 975 1944 881 1613 
z
" transform="scale(0.015625)"/>
       <path id="Cambria-Italic-6d" d="M 2997 2375 
L 2997 2331 
Q 2997 2309 2994 2284 
Q 3266 2669 3534 2853 
Q 3803 3038 4091 3038 
Q 4388 3038 4542 2870 
Q 4697 2703 4697 2375 
Q 4697 2175 4634 1894 
L 4372 781 
Q 4319 556 4319 425 
Q 4319 331 4350 278 
Q 4381 225 4447 197 
Q 4513 169 4663 153 
L 4634 0 
L 3653 0 
L 4047 1588 
Q 4091 1759 4123 1936 
Q 4156 2113 4156 2256 
Q 4156 2481 4078 2576 
Q 4000 2672 3831 2672 
Q 3709 2672 3557 2572 
Q 3406 2472 3240 2265 
Q 3075 2059 2970 1857 
Q 2866 1656 2803 1366 
L 2519 0 
L 1978 0 
L 2338 1588 
Q 2403 1878 2426 2017 
Q 2450 2156 2450 2256 
Q 2450 2481 2370 2576 
Q 2291 2672 2122 2672 
Q 1997 2672 1845 2570 
Q 1694 2469 1525 2256 
Q 1356 2044 1254 1839 
Q 1153 1634 1097 1353 
L 813 0 
L 272 0 
L 747 2134 
Q 763 2206 789 2347 
Q 816 2488 816 2581 
Q 816 2669 789 2717 
Q 763 2766 698 2789 
Q 634 2813 481 2822 
L 519 2988 
L 1231 3016 
L 1406 3016 
L 1200 2206 
L 1238 2194 
Q 1525 2622 1809 2830 
Q 2094 3038 2384 3038 
Q 2684 3038 2840 2867 
Q 2997 2697 2997 2375 
z
" transform="scale(0.015625)"/>
       <path id="Cambria-Italic-6e" d="M 2947 0 
L 1963 0 
L 2359 1588 
Q 2397 1741 2433 1925 
Q 2469 2109 2469 2256 
Q 2469 2478 2392 2575 
Q 2316 2672 2153 2672 
Q 2022 2672 1870 2570 
Q 1719 2469 1553 2267 
Q 1388 2066 1273 1858 
Q 1159 1650 1097 1353 
L 813 0 
L 272 0 
L 747 2134 
Q 763 2206 789 2347 
Q 816 2488 816 2581 
Q 816 2669 789 2717 
Q 763 2766 698 2789 
Q 634 2813 481 2822 
L 519 2988 
L 1228 3016 
L 1406 3016 
L 1197 2203 
L 1234 2191 
Q 1541 2622 1825 2830 
Q 2109 3038 2394 3038 
Q 2697 3038 2853 2870 
Q 3009 2703 3009 2375 
Q 3009 2263 2989 2130 
Q 2969 1997 2944 1894 
L 2681 781 
Q 2628 556 2628 425 
Q 2628 331 2659 278 
Q 2691 225 2756 197 
Q 2822 169 2972 153 
L 2947 0 
z
" transform="scale(0.015625)"/>
       <path id="Cambria-Italic-74" d="M 2109 575 
Q 1853 266 1603 108 
Q 1353 -50 1072 -50 
Q 741 -50 578 119 
Q 416 288 416 609 
Q 416 806 472 1050 
L 859 2672 
L 394 2672 
L 428 2831 
Q 613 2853 720 2911 
Q 828 2969 901 3064 
Q 975 3159 1037 3312 
Q 1100 3466 1194 3759 
L 1625 3759 
L 1453 2988 
L 2444 2988 
L 2375 2672 
L 1381 2672 
L 1081 1459 
Q 956 953 956 703 
Q 956 513 1039 414 
Q 1122 316 1281 316 
Q 1425 316 1583 427 
Q 1741 538 1928 763 
L 2109 575 
z
" transform="scale(0.015625)"/>
       <path id="Cambria-Italic-20" transform="scale(0.015625)"/>
       <path id="Cambria-Italic-28" d="M 1616 -1359 
Q 1172 -1359 897 -1200 
Q 622 -1041 498 -736 
Q 375 -431 375 28 
Q 375 353 431 747 
Q 506 1253 648 1875 
Q 791 2497 928 2906 
Q 1088 3372 1272 3667 
Q 1456 3963 1675 4134 
Q 1894 4306 2172 4391 
Q 2478 4484 2906 4484 
L 2850 4228 
Q 2575 4228 2397 4165 
Q 2219 4103 2078 3978 
Q 1916 3834 1769 3575 
Q 1597 3266 1438 2766 
Q 1300 2334 1163 1713 
Q 1050 1203 981 797 
Q 888 228 888 -147 
Q 888 -513 977 -722 
Q 1066 -931 1233 -1017 
Q 1400 -1103 1672 -1103 
L 1616 -1359 
z
" transform="scale(0.015625)"/>
       <path id="Cambria-Italic-29" d="M 794 4484 
Q 1238 4484 1513 4325 
Q 1788 4166 1911 3861 
Q 2034 3556 2034 3097 
Q 2034 2778 1978 2394 
Q 1903 1850 1747 1184 
Q 1600 569 1466 178 
Q 1313 -263 1133 -552 
Q 953 -841 733 -1012 
Q 513 -1184 234 -1266 
Q -72 -1359 -497 -1359 
L -441 -1103 
Q -166 -1103 11 -1040 
Q 188 -978 325 -856 
Q 494 -709 644 -441 
Q 819 -125 973 367 
Q 1128 859 1266 1506 
Q 1375 2006 1438 2394 
Q 1522 2922 1522 3272 
Q 1522 3641 1431 3850 
Q 1341 4059 1173 4143 
Q 1006 4228 738 4228 
L 794 4484 
z
" transform="scale(0.015625)"/>
      </defs>
      <use xlink:href="#Cambria-Italic-44"/>
      <use xlink:href="#Cambria-Italic-69" x="64.648438"/>
      <use xlink:href="#Cambria-Italic-73" x="91.748047"/>
      <use xlink:href="#Cambria-Italic-70" x="129.931641"/>
      <use xlink:href="#Cambria-Italic-6c" x="182.617188"/>
      <use xlink:href="#Cambria-Italic-61" x="209.277344"/>
      <use xlink:href="#Cambria-Italic-63" x="261.865234"/>
      <use xlink:href="#Cambria-Italic-65" x="305.175781"/>
      <use xlink:href="#Cambria-Italic-6d" x="350.878906"/>
      <use xlink:href="#Cambria-Italic-65" x="430.761719"/>
      <use xlink:href="#Cambria-Italic-6e" x="476.464844"/>
      <use xlink:href="#Cambria-Italic-74" x="529.980469"/>
      <use xlink:href="#Cambria-Italic-20" x="564.501953"/>
      <use xlink:href="#Cambria-Italic-28" x="586.523438"/>
      <use xlink:href="#Cambria-Italic-6d" x="623.681641"/>
      <use xlink:href="#Cambria-Italic-6d" x="703.564453"/>
      <use xlink:href="#Cambria-Italic-29" x="783.447266"/>
     </g>
    </g>
   </g>
   <g id="matplotlib.axis_2">
    <g id="ytick_1">
     <g id="line2d_15">
      <path d="M 56.380625 196.93524 
L 293.069951 196.93524 
" clip-path="url(#p673e221586)" style="fill: none; stroke-dasharray: 0.8,1.32; stroke-dashoffset: 0; stroke: #b0b0b0; stroke-width: 0.8"/>
     </g>
     <g id="line2d_16">
      <defs>
       <path id="m22b55970cd" d="M 0 0 
L -3.5 0 
" style="stroke: #000000; stroke-width: 0.8"/>
      </defs>
      <g>
       <use xlink:href="#m22b55970cd" x="56.380625" y="196.93524" style="stroke: #000000; stroke-width: 0.8"/>
      </g>
     </g>
     <g id="text_9">
      <!-- −2000 -->
      <g transform="translate(16.155625 201.12774) scale(0.12 -0.12)">
       <defs>
        <path id="Cambria-32" d="M 2194 500 
Q 2347 500 2440 519 
Q 2534 538 2590 581 
Q 2647 625 2680 695 
Q 2713 766 2763 913 
L 3028 913 
L 2975 0 
L 403 0 
L 403 150 
Q 538 478 766 822 
Q 994 1166 1413 1631 
Q 1775 2031 1934 2238 
Q 2109 2463 2195 2627 
Q 2281 2791 2318 2936 
Q 2356 3081 2356 3228 
Q 2356 3463 2281 3642 
Q 2206 3822 2051 3925 
Q 1897 4028 1663 4028 
Q 1078 4028 875 3378 
L 497 3378 
L 497 3978 
Q 875 4156 1204 4236 
Q 1534 4316 1797 4316 
Q 2378 4316 2675 4061 
Q 2972 3806 2972 3322 
Q 2972 3156 2939 3017 
Q 2906 2878 2836 2742 
Q 2766 2606 2647 2450 
Q 2528 2294 2384 2133 
Q 2241 1972 1888 1597 
Q 1294 969 1016 500 
L 2194 500 
z
" transform="scale(0.015625)"/>
       </defs>
       <use xlink:href="#Cambria-2212"/>
       <use xlink:href="#Cambria-32" x="55.371094"/>
       <use xlink:href="#Cambria-30" x="110.742188"/>
       <use xlink:href="#Cambria-30" x="166.113281"/>
       <use xlink:href="#Cambria-30" x="221.484375"/>
      </g>
     </g>
    </g>
    <g id="ytick_2">
     <g id="line2d_17">
      <path d="M 56.380625 160.553224 
L 293.069951 160.553224 
" clip-path="url(#p673e221586)" style="fill: none; stroke-dasharray: 0.8,1.32; stroke-dashoffset: 0; stroke: #b0b0b0; stroke-width: 0.8"/>
     </g>
     <g id="line2d_18">
      <g>
       <use xlink:href="#m22b55970cd" x="56.380625" y="160.553224" style="stroke: #000000; stroke-width: 0.8"/>
      </g>
     </g>
     <g id="text_10">
      <!-- −1000 -->
      <g transform="translate(16.155625 164.745724) scale(0.12 -0.12)">
       <use xlink:href="#Cambria-2212"/>
       <use xlink:href="#Cambria-31" x="55.371094"/>
       <use xlink:href="#Cambria-30" x="110.742188"/>
       <use xlink:href="#Cambria-30" x="166.113281"/>
       <use xlink:href="#Cambria-30" x="221.484375"/>
      </g>
     </g>
    </g>
    <g id="ytick_3">
     <g id="line2d_19">
      <path d="M 56.380625 124.171209 
L 293.069951 124.171209 
" clip-path="url(#p673e221586)" style="fill: none; stroke-dasharray: 0.8,1.32; stroke-dashoffset: 0; stroke: #b0b0b0; stroke-width: 0.8"/>
     </g>
     <g id="line2d_20">
      <g>
       <use xlink:href="#m22b55970cd" x="56.380625" y="124.171209" style="stroke: #000000; stroke-width: 0.8"/>
      </g>
     </g>
     <g id="text_11">
      <!-- 0 -->
      <g transform="translate(42.735625 128.363709) scale(0.12 -0.12)">
       <use xlink:href="#Cambria-30"/>
      </g>
     </g>
    </g>
    <g id="ytick_4">
     <g id="line2d_21">
      <path d="M 56.380625 87.789193 
L 293.069951 87.789193 
" clip-path="url(#p673e221586)" style="fill: none; stroke-dasharray: 0.8,1.32; stroke-dashoffset: 0; stroke: #b0b0b0; stroke-width: 0.8"/>
     </g>
     <g id="line2d_22">
      <g>
       <use xlink:href="#m22b55970cd" x="56.380625" y="87.789193" style="stroke: #000000; stroke-width: 0.8"/>
      </g>
     </g>
     <g id="text_12">
      <!-- 1000 -->
      <g transform="translate(22.800625 91.981693) scale(0.12 -0.12)">
       <use xlink:href="#Cambria-31"/>
       <use xlink:href="#Cambria-30" x="55.371094"/>
       <use xlink:href="#Cambria-30" x="110.742188"/>
       <use xlink:href="#Cambria-30" x="166.113281"/>
      </g>
     </g>
    </g>
    <g id="ytick_5">
     <g id="line2d_23">
      <path d="M 56.380625 51.407178 
L 293.069951 51.407178 
" clip-path="url(#p673e221586)" style="fill: none; stroke-dasharray: 0.8,1.32; stroke-dashoffset: 0; stroke: #b0b0b0; stroke-width: 0.8"/>
     </g>
     <g id="line2d_24">
      <g>
       <use xlink:href="#m22b55970cd" x="56.380625" y="51.407178" style="stroke: #000000; stroke-width: 0.8"/>
      </g>
     </g>
     <g id="text_13">
      <!-- 2000 -->
      <g transform="translate(22.800625 55.599678) scale(0.12 -0.12)">
       <use xlink:href="#Cambria-32"/>
       <use xlink:href="#Cambria-30" x="55.371094"/>
       <use xlink:href="#Cambria-30" x="110.742188"/>
       <use xlink:href="#Cambria-30" x="166.113281"/>
      </g>
     </g>
    </g>
    <g id="text_14">
     <!-- Base Shear (kN) -->
     <g transform="translate(15.6075 163.934062) rotate(-90) scale(0.12 -0.12)">
      <defs>
       <path id="Cambria-Italic-42" d="M 2797 2184 
Q 3088 2069 3244 1855 
Q 3400 1641 3400 1369 
Q 3400 1047 3283 792 
Q 3166 538 2912 347 
Q 2659 156 2331 78 
Q 2003 0 1522 0 
L 131 0 
L 166 153 
Q 284 172 343 214 
Q 403 256 443 331 
Q 484 406 518 514 
Q 553 622 622 931 
L 1153 3338 
Q 1222 3650 1222 3831 
Q 1222 3984 1150 4043 
Q 1078 4103 916 4113 
L 950 4266 
L 2497 4266 
Q 2966 4266 3248 4167 
Q 3531 4069 3664 3878 
Q 3797 3688 3797 3400 
Q 3797 2991 3547 2686 
Q 3297 2381 2803 2219 
L 2797 2184 
z
M 1934 2353 
Q 2259 2353 2457 2397 
Q 2656 2441 2781 2528 
Q 2906 2616 3004 2733 
Q 3103 2850 3161 3009 
Q 3219 3169 3219 3384 
Q 3219 3519 3172 3636 
Q 3125 3753 3011 3836 
Q 2897 3919 2748 3955 
Q 2600 3991 2353 3991 
Q 2081 3991 1847 3981 
L 1494 2353 
L 1934 2353 
z
M 1041 288 
Q 1284 275 1497 275 
Q 1969 275 2226 394 
Q 2484 513 2643 781 
Q 2803 1050 2803 1425 
Q 2803 1628 2723 1768 
Q 2644 1909 2470 1993 
Q 2297 2078 1994 2078 
L 1428 2078 
L 1041 288 
z
" transform="scale(0.015625)"/>
       <path id="Cambria-Italic-53" d="M 497 972 
Q 497 594 672 408 
Q 847 222 1219 222 
Q 1506 222 1712 328 
Q 1919 434 2025 629 
Q 2131 825 2131 1094 
Q 2131 1284 2064 1429 
Q 1997 1575 1861 1708 
Q 1725 1841 1469 2013 
Q 1238 2169 1084 2320 
Q 931 2472 840 2659 
Q 750 2847 750 3078 
Q 750 3447 928 3728 
Q 1106 4009 1431 4162 
Q 1756 4316 2181 4316 
Q 2469 4316 2714 4277 
Q 2959 4238 3256 4144 
L 3081 3341 
L 2781 3341 
Q 2769 3606 2700 3757 
Q 2631 3909 2503 3975 
Q 2375 4041 2163 4041 
Q 1903 4041 1706 3934 
Q 1509 3828 1406 3645 
Q 1303 3463 1303 3238 
Q 1303 3075 1359 2947 
Q 1416 2819 1539 2695 
Q 1663 2572 1900 2409 
Q 2206 2197 2367 2030 
Q 2528 1863 2604 1675 
Q 2681 1488 2681 1241 
Q 2681 863 2498 567 
Q 2316 272 1983 111 
Q 1650 -50 1225 -50 
Q 934 -50 607 -6 
Q 281 38 9 113 
L 197 972 
L 497 972 
z
" transform="scale(0.015625)"/>
       <path id="Cambria-Italic-68" d="M 2916 0 
L 1934 0 
L 2328 1588 
Q 2372 1759 2405 1936 
Q 2438 2113 2438 2256 
Q 2438 2481 2363 2576 
Q 2288 2672 2109 2672 
Q 1981 2672 1826 2565 
Q 1672 2459 1500 2242 
Q 1328 2025 1226 1826 
Q 1125 1628 1066 1353 
L 781 0 
L 241 0 
L 1044 3572 
Q 1078 3728 1092 3798 
Q 1106 3869 1112 3928 
Q 1119 3988 1119 4034 
Q 1119 4166 1039 4219 
Q 959 4272 753 4278 
L 791 4441 
L 1581 4469 
L 1763 4469 
L 1225 2303 
L 1263 2291 
Q 1556 2681 1822 2859 
Q 2088 3038 2363 3038 
Q 2666 3038 2822 2870 
Q 2978 2703 2978 2375 
Q 2978 2175 2916 1894 
L 2653 781 
Q 2622 647 2609 565 
Q 2597 484 2597 425 
Q 2597 328 2630 275 
Q 2663 222 2730 195 
Q 2797 169 2944 153 
L 2916 0 
z
" transform="scale(0.015625)"/>
       <path id="Cambria-Italic-72" d="M 1244 3016 
L 1431 3016 
L 1213 2247 
L 1250 2234 
Q 1547 2644 1830 2841 
Q 2113 3038 2413 3038 
Q 2641 3038 2794 3003 
L 2644 2303 
L 2322 2303 
Q 2297 2466 2244 2550 
Q 2191 2634 2078 2634 
Q 1956 2634 1797 2509 
Q 1638 2384 1472 2165 
Q 1306 1947 1223 1762 
Q 1141 1578 1097 1353 
L 813 0 
L 272 0 
L 747 2134 
Q 813 2428 813 2581 
Q 813 2669 784 2717 
Q 756 2766 693 2789 
Q 631 2813 481 2822 
L 516 2988 
L 1244 3016 
z
" transform="scale(0.015625)"/>
       <path id="Cambria-Italic-6b" d="M 1150 1741 
L 1250 1741 
Q 1347 1741 1459 1778 
Q 1572 1816 1700 1895 
Q 1828 1975 2044 2147 
Q 2206 2278 2284 2370 
Q 2363 2463 2391 2531 
Q 2419 2600 2419 2663 
Q 2419 2816 2206 2834 
L 2241 2988 
L 3253 2988 
L 3313 2834 
Q 3053 2600 2763 2375 
L 1972 1759 
L 2441 575 
Q 2503 416 2568 330 
Q 2634 244 2720 203 
Q 2806 163 2941 153 
L 2906 0 
L 2072 0 
L 1616 1284 
Q 1572 1406 1540 1450 
Q 1509 1494 1468 1512 
Q 1428 1531 1338 1531 
L 1106 1531 
L 781 0 
L 241 0 
L 1044 3572 
Q 1078 3728 1092 3798 
Q 1106 3869 1112 3928 
Q 1119 3988 1119 4034 
Q 1119 4166 1039 4219 
Q 959 4272 753 4278 
L 791 4441 
L 1581 4469 
L 1763 4469 
L 1150 1741 
z
" transform="scale(0.015625)"/>
       <path id="Cambria-Italic-4e" d="M 4463 4266 
L 4428 4113 
Q 4309 4088 4257 4056 
Q 4206 4025 4164 3962 
Q 4122 3900 4080 3767 
Q 4038 3634 3972 3334 
L 3238 0 
L 2813 0 
L 1900 2681 
Q 1734 3163 1609 3641 
L 1569 3641 
Q 1550 3481 1465 3032 
Q 1381 2584 1288 2156 
L 1013 909 
Q 984 778 965 656 
Q 947 534 947 422 
Q 947 281 1017 223 
Q 1088 166 1253 153 
L 1219 0 
L 125 0 
L 159 153 
Q 278 172 337 214 
Q 397 256 437 331 
Q 478 406 512 514 
Q 547 622 616 931 
L 1147 3338 
Q 1178 3472 1197 3594 
Q 1216 3716 1216 3841 
Q 1216 3988 1141 4045 
Q 1066 4103 909 4113 
L 944 4266 
L 1941 4266 
L 2766 1831 
Q 2944 1306 3041 944 
L 3075 944 
Q 3100 1134 3189 1578 
Q 3278 2022 3353 2353 
L 3572 3338 
Q 3594 3441 3617 3581 
Q 3641 3722 3641 3841 
Q 3641 3988 3566 4045 
Q 3491 4103 3334 4113 
L 3369 4266 
L 4463 4266 
z
" transform="scale(0.015625)"/>
      </defs>
      <use xlink:href="#Cambria-Italic-42"/>
      <use xlink:href="#Cambria-Italic-61" x="59.619141"/>
      <use xlink:href="#Cambria-Italic-73" x="112.207031"/>
      <use xlink:href="#Cambria-Italic-65" x="150.390625"/>
      <use xlink:href="#Cambria-Italic-20" x="196.09375"/>
      <use xlink:href="#Cambria-Italic-53" x="218.115234"/>
      <use xlink:href="#Cambria-Italic-68" x="266.259766"/>
      <use xlink:href="#Cambria-Italic-65" x="319.287109"/>
      <use xlink:href="#Cambria-Italic-61" x="364.990234"/>
      <use xlink:href="#Cambria-Italic-72" x="417.578125"/>
      <use xlink:href="#Cambria-Italic-20" x="458.300781"/>
      <use xlink:href="#Cambria-Italic-28" x="480.322266"/>
      <use xlink:href="#Cambria-Italic-6b" x="517.480469"/>
      <use xlink:href="#Cambria-Italic-4e" x="567.1875"/>
      <use xlink:href="#Cambria-Italic-29" x="634.277344"/>
     </g>
    </g>
   </g>
   <g id="line2d_25">
    <path d="M 174.706382 124.466284 
L 177.388383 124.238859 
L 180.010234 93.566488 
L 182.513136 82.778628 
L 184.840954 68.873623 
L 186.941484 61.902537 
L 188.767615 57.283318 
L 190.278395 54.355152 
L 192.226199 51.983135 
L 192.619539 51.390786 
L 192.61114 51.129055 
L 192.20119 51.556468 
L 191.398881 53.122893 
L 190.222209 56.507397 
L 186.859133 69.500485 
L 184.748153 79.131642 
L 182.411966 88.949117 
L 179.902965 100.139391 
L 177.27742 112.570859 
L 169.295468 155.559371 
L 164.479405 170.718409 
L 162.389408 176.587221 
L 159.078792 183.080576 
L 157.162241 186.475553 
L 156.785525 187.430172 
L 156.810722 188.006613 
L 157.237266 187.651568 
L 158.055592 185.235149 
L 159.247347 180.761014 
L 160.785803 174.405446 
L 164.757804 156.97558 
L 167.102269 147.767564 
L 174.930716 113.770074 
L 177.609992 104.091463 
L 180.224148 94.145887 
L 182.714557 86.616859 
L 185.025366 81.086527 
L 187.10475 74.622839 
L 188.906075 69.999423 
L 190.388942 66.939465 
L 191.520095 64.20822 
L 192.634241 62.055313 
L 192.592247 61.807216 
L 192.149126 62.211855 
L 191.314814 63.663143 
L 190.108024 67.906493 
L 188.555819 74.631002 
L 186.693013 83.623555 
L 184.56138 92.987454 
L 179.687822 116.19363 
L 177.055196 127.632471 
L 174.369893 135.657419 
L 169.081981 150.185249 
L 164.295795 162.144205 
L 160.43829 171.890739 
L 156.772222 180.496493 
L 156.831011 180.946419 
L 157.290692 180.271056 
L 158.140957 177.735551 
L 159.362736 173.077089 
L 162.803515 158.624718 
L 164.945349 150.320358 
L 169.832807 130.255994 
L 172.46882 121.076367 
L 175.603646 112.246392 
L 180.955912 102.195701 
L 191.123075 75.754314 
L 195.709953 66.868775 
L 199.825781 61.021761 
L 203.378255 56.598845 
L 206.287702 53.88207 
L 210.585908 50.367066 
L 210.434744 49.785176 
L 209.482298 50.472966 
L 207.749928 54.530125 
L 205.276489 62.482331 
L 198.343661 88.438427 
L 194.039757 103.259244 
L 189.302262 118.43158 
L 184.237423 130.829085 
L 178.958831 139.117088 
L 173.584869 145.038884 
L 168.236059 150.447525 
L 163.032359 157.288261 
L 158.090474 166.392178 
L 153.521236 174.523012 
L 149.427118 180.596038 
L 145.899941 184.970851 
L 143.018809 188.14531 
L 139.437202 191.880685 
L 138.817052 192.919197 
L 139.001795 193.440612 
L 139.987289 192.468606 
L 141.75143 187.604568 
L 144.254656 179.231352 
L 147.440824 166.992521 
L 151.23848 153.72738 
L 155.562453 140.02349 
L 160.315769 127.387466 
L 165.391824 116.905854 
L 170.676777 109.471974 
L 176.052103 103.348969 
L 181.397248 97.97523 
L 186.592336 91.198346 
L 191.520858 83.63631 
L 196.072279 75.471523 
L 200.144525 68.805718 
L 203.646268 63.751442 
L 206.498974 60.874647 
L 208.638664 57.770451 
L 210.017352 56.100183 
L 210.604118 55.097497 
L 210.385802 54.848947 
L 209.3673 55.845304 
L 207.571455 60.039158 
L 205.038542 68.149176 
L 201.825367 81.476936 
L 193.660119 110.342221 
L 188.891169 123.777953 
L 183.804096 132.203849 
L 178.512988 138.788556 
L 173.136508 144.037166 
L 167.795236 148.813796 
L 162.608961 154.209399 
L 157.693996 160.780199 
L 149.110353 174.457341 
L 145.63418 179.302429 
L 140.701188 185.704957 
L 139.355001 187.65326 
L 138.801642 188.97937 
L 139.053522 189.681713 
L 140.104993 188.064272 
L 141.932471 182.660109 
L 144.494973 173.82316 
L 147.735029 161.419136 
L 151.579974 149.04387 
L 155.943577 135.784841 
L 160.727976 124.488095 
L 165.825869 115.16178 
L 171.122926 108.504659 
L 177.397333 102.641869 
L 185.403118 96.42102 
L 193.169007 86.687709 
L 200.520833 74.687853 
L 207.293716 65.143836 
L 213.335759 58.252504 
L 218.511459 54.032807 
L 228.571899 46.295869 
L 228.143747 45.720587 
L 226.51715 47.706676 
L 223.728589 54.786628 
L 219.840603 67.059075 
L 214.940387 84.671408 
L 209.137839 102.653307 
L 202.563094 119.703664 
L 195.363605 131.064692 
L 187.700833 138.625092 
L 179.746634 144.286684 
L 171.679397 149.017836 
L 163.680047 153.28887 
L 155.927985 158.89703 
L 148.597068 167.999089 
L 141.851706 177.040317 
L 135.84318 183.85658 
L 130.706242 189.007416 
L 126.556099 192.742723 
L 121.564283 196.827169 
L 120.834561 197.89597 
L 121.313028 198.459345 
L 122.988952 196.257132 
L 125.824748 188.107409 
L 129.756816 175.358284 
L 134.696973 158.198859 
L 140.534424 142.071509 
L 147.138252 127.52406 
L 154.360354 116.239344 
L 162.038758 108.395685 
L 170.00126 102.24258 
L 186.061887 92.860208 
L 193.79982 87.418696 
L 201.109543 79.011628 
L 207.82712 69.637859 
L 213.801894 62.774208 
L 218.899871 57.658001 
L 226.030325 51.766681 
L 227.902887 50.019776 
L 228.582407 48.943886 
L 228.053644 48.868493 
L 226.328457 50.755104 
L 223.445538 57.578642 
L 219.469541 70.309176 
L 214.489637 88.116645 
L 208.61751 106.456635 
L 201.984855 122.223564 
L 194.740423 131.737139 
L 187.046686 138.720218 
L 179.076192 144.174161 
L 171.007696 148.809206 
L 163.022151 152.929915 
L 155.298649 157.932869 
L 148.010406 165.710095 
L 141.320876 174.075423 
L 135.380086 180.738404 
L 126.257883 189.928997 
L 123.281055 192.801031 
L 121.457547 194.748331 
L 120.828256 196.066846 
L 121.407295 196.704681 
L 123.181676 193.525487 
L 126.111607 184.896439 
L 135.150836 155.094878 
L 141.057409 139.227923 
L 147.718632 125.741758 
L 154.985111 115.013794 
L 162.69388 107.722974 
L 170.672056 101.880112 
L 180.085485 97.039077 
L 190.723052 91.376584 
L 201.001411 83.425856 
L 210.69005 70.858068 
L 219.57168 61.545889 
L 227.447111 54.595672 
L 234.139722 50.134984 
L 245.771833 42.160586 
L 246.543884 41.627157 
L 245.704829 41.27381 
L 243.273485 45.301146 
L 239.304381 55.984033 
L 227.141444 94.076307 
L 219.220391 113.642227 
L 210.301017 128.324457 
L 200.58336 136.550796 
L 190.285357 143.030377 
L 179.637964 147.962362 
L 168.879969 152.192314 
L 158.252644 155.960679 
L 147.994328 161.831707 
L 129.491546 181.315338 
L 121.662043 188.629131 
L 115.022171 194.087117 
L 109.720842 197.977048 
L 103.5767 201.897264 
L 102.871683 202.895042 
L 103.777709 203.362208 
L 106.274459 199.145208 
L 110.305938 187.372272 
L 115.781731 169.770394 
L 122.579033 150.159768 
L 130.545399 132.415092 
L 139.502168 119.469786 
L 149.248465 109.975788 
L 159.565709 103.261021 
L 170.222514 98.064888 
L 180.979879 93.322922 
L 191.596548 89.224309 
L 201.83442 83.769034 
L 211.463889 73.758908 
L 220.268994 64.068492 
L 228.052262 57.221008 
L 234.639137 52.518508 
L 239.881895 48.993539 
L 243.662956 46.114314 
L 245.897522 44.108693 
L 246.535477 43.106722 
L 245.562515 43.272227 
L 243.000456 47.230281 
L 238.90676 57.797396 
L 226.523986 96.738559 
L 218.512617 115.602894 
L 209.518802 128.962196 
L 199.744246 136.872998 
L 189.408163 143.162832 
L 178.742362 148.048534 
L 167.986046 152.249864 
L 157.380448 156.036989 
L 147.163419 161.686174 
L 128.797773 179.643297 
L 121.061043 186.55612 
L 114.527422 191.988787 
L 109.34344 196.102873 
L 105.625358 198.902356 
L 103.456563 200.702093 
L 102.885694 201.953817 
L 103.925554 202.340341 
L 106.552822 196.977173 
L 110.708576 184.748877 
L 116.299614 166.496856 
L 123.200546 147.802139 
L 131.256605 130.573895 
L 140.287115 118.094262 
L 150.089549 109.249818 
L 160.444068 102.694277 
L 171.118448 97.843009 
L 183.665024 92.814273 
L 196.907667 87.942216 
L 209.6524 79.704863 
L 221.613395 66.932159 
L 232.522402 57.156731 
L 242.134765 50.665965 
L 256.64116 41.72799 
L 264.468233 37.522527 
L 263.084836 37.526569 
L 259.719368 44.241333 
L 254.447306 58.500969 
L 247.386888 81.000199 
L 238.696457 103.400464 
L 228.570915 122.379227 
L 217.237348 133.122647 
L 204.949935 140.479073 
L 191.984248 146.188606 
L 178.631068 150.829049 
L 151.962098 158.714498 
L 139.244415 165.580715 
L 127.322041 176.668543 
L 116.462359 185.951557 
L 106.908921 193.451089 
L 98.875983 198.935078 
L 92.543701 202.737532 
L 85.507834 206.177133 
L 84.962044 207.078334 
L 86.428958 207.244336 
L 89.875678 200.328041 
L 95.224903 184.76705 
L 102.356667 162.735333 
L 111.111025 142.290886 
L 121.291641 125.531448 
L 132.670194 113.428896 
L 144.991497 105.708842 
L 157.979219 99.773019 
L 171.342081 94.85372 
L 184.780396 90.473835 
L 197.992779 86.564982 
L 210.682917 80.184784 
L 222.566205 68.679549 
L 233.376137 59.776849 
L 242.870277 52.829065 
L 250.835699 47.94267 
L 261.504117 41.154778 
L 263.96785 39.290661 
L 264.429709 38.610035 
L 262.879334 39.020141 
L 259.351497 45.591829 
L 253.925316 60.477398 
L 246.722485 82.641991 
L 237.904542 104.833126 
L 227.669249 123.223496 
L 216.246153 133.545307 
L 203.89144 140.729315 
L 190.882192 146.341595 
L 177.510167 150.935668 
L 164.075262 154.875145 
L 150.878781 159.040857 
L 138.216684 165.87027 
L 126.372946 176.109485 
L 115.613185 184.709311 
L 106.178713 191.754684 
L 98.281117 197.17946 
L 92.097517 201.182449 
L 87.766594 203.755429 
L 85.385477 205.331456 
L 85.007568 206.549587 
L 86.641343 206.437741 
L 90.25016 198.335455 
L 95.753084 182.321283 
L 103.026701 160.246895 
L 111.907885 140.299508 
L 122.197456 124.154164 
L 133.66465 112.569854 
L 146.05229 104.953699 
L 159.082558 99.282426 
L 172.463223 94.433255 
L 188.131759 89.871447 
L 203.947834 85.026168 
L 219.108108 75.098079 
L 233.272581 62.703319 
L 246.123584 53.582829 
L 257.372908 46.60755 
L 266.768261 41.453703 
L 274.098935 37.766063 
L 279.200523 35.639838 
L 282.311345 34.502358 
L 280.250812 35.064645 
L 275.823225 45.068509 
L 269.127881 63.059549 
L 260.314938 88.351358 
L 249.582044 111.389961 
L 237.169907 127.80834 
L 223.356894 136.794581 
L 208.452793 143.467145 
L 192.791857 148.575785 
L 176.725317 152.871414 
L 160.613498 156.666193 
L 144.817742 161.232998 
L 129.692301 169.789376 
L 115.576394 181.065566 
L 102.786601 190.369485 
L 91.60976 197.652395 
L 82.296534 202.89824 
L 75.055792 206.361646 
L 70.049922 208.080323 
L 67.391193 208.831386 
L 67.139231 209.467032 
L 69.299687 208.749731 
L 73.824108 198.428857 
L 80.611025 179.452074 
L 89.508228 155.543056 
L 100.316177 135.428643 
L 112.792481 120.458294 
L 126.657335 109.978919 
L 141.599788 102.841608 
L 157.284727 97.534526 
L 173.360382 92.703546 
L 189.466224 88.605 
L 205.241046 84.225448 
L 220.331064 75.142375 
L 234.397854 63.835265 
L 247.125937 55.513443 
L 258.22986 49.070904 
L 267.460595 43.906585 
L 279.521079 37.678279 
L 282.080345 36.05562 
L 282.231527 35.725046 
L 279.971232 36.567997 
L 275.350153 46.544023 
L 268.471927 64.6804 
L 259.490813 89.828483 
L 248.60823 112.566956 
L 236.068245 128.417811 
L 222.152091 137.098302 
L 207.171868 143.576375 
L 191.463539 148.576473 
L 175.379396 152.834719 
L 159.280159 156.760435 
L 143.526887 161.789995 
L 128.47288 170.535509 
L 114.455757 180.625114 
L 101.789879 188.985023 
L 90.759307 195.658152 
L 81.611423 200.758292 
L 74.551388 204.380008 
L 69.737538 206.556675 
L 67.277834 207.80196 
L 67.22744 208.978726 
L 69.587485 207.770534 
L 74.305042 196.324225 
L 81.274308 176.866508 
L 90.338984 153.358301 
L 101.295775 133.547997 
L 113.898952 119.228356 
L 113.898952 119.228356 
" clip-path="url(#p673e221586)" style="fill: none; stroke: #ff0000; stroke-linecap: square"/>
   </g>
   <g id="line2d_26">
    <path d="M 174.706382 124.171209 
L 177.388383 94.351714 
L 182.513136 70.83781 
L 184.840954 62.149858 
L 186.941484 57.44698 
L 188.767615 54.595632 
L 190.278395 52.836032 
L 192.619539 50.587174 
L 192.61114 50.630751 
L 190.222209 63.611201 
L 186.859133 80.47521 
L 184.748153 90.082018 
L 182.411966 100.146646 
L 179.902965 111.460817 
L 174.594213 137.932447 
L 171.913523 153.786184 
L 166.798764 173.781291 
L 164.479405 181.129877 
L 162.389408 185.6785 
L 160.575644 188.39683 
L 159.078792 190.270921 
L 156.785525 192.626775 
L 159.247347 179.43317 
L 162.636457 162.222603 
L 169.617272 128.098576 
L 172.246409 115.996675 
L 174.930716 105.576837 
L 177.609992 96.14377 
L 180.224148 88.51286 
L 182.714557 82.179782 
L 185.025366 76.977771 
L 187.10475 72.849861 
L 188.906075 69.629162 
L 191.520095 65.504549 
L 192.634241 63.911994 
L 192.592247 64.139942 
L 188.555819 85.662074 
L 184.56138 105.66952 
L 182.208729 116.728992 
L 179.687822 127.770893 
L 177.055196 136.067786 
L 171.692137 150.958921 
L 169.081981 157.804792 
L 166.597964 163.92952 
L 164.295795 169.195191 
L 162.227105 173.481404 
L 160.43829 176.83625 
L 157.853575 181.123543 
L 156.772222 182.749943 
L 159.362736 169.088765 
L 162.803515 151.861817 
L 167.306095 130.882353 
L 169.832807 121.217997 
L 172.46882 113.593458 
L 180.955912 91.156326 
L 186.168019 79.209145 
L 191.123075 70.086728 
L 195.709953 63.376183 
L 199.825781 58.515809 
L 203.378255 55.145892 
L 206.287702 52.843592 
L 210.585908 49.973928 
L 207.749928 64.78366 
L 205.276489 76.828454 
L 202.11745 90.841456 
L 198.343661 105.296981 
L 194.039757 119.174342 
L 189.302262 131.575528 
L 184.237423 139.220763 
L 178.958831 145.21521 
L 173.584869 150.83251 
L 168.236059 158.355132 
L 163.032359 167.173581 
L 158.090474 175.232047 
L 153.521236 181.669857 
L 149.427118 186.597619 
L 145.899941 190.266724 
L 143.018809 192.885187 
L 139.437202 195.625077 
L 138.817052 196.060081 
L 141.75143 180.85478 
L 144.254656 168.819969 
L 147.440824 154.964976 
L 151.23848 140.667791 
L 155.562453 126.850638 
L 160.315769 117.459089 
L 165.391824 110.508634 
L 170.676777 104.574698 
L 176.052103 99.034731 
L 181.397248 92.891283 
L 186.592336 85.64562 
L 191.520858 78.398657 
L 196.072279 72.028657 
L 200.144525 66.907493 
L 203.646268 62.964009 
L 206.498974 60.051359 
L 210.604118 56.326804 
L 207.571455 71.733024 
L 205.038542 83.708303 
L 201.825367 97.466423 
L 198.003992 111.662474 
L 193.660119 124.356357 
L 188.891169 132.153628 
L 183.804096 138.476975 
L 178.512988 143.869987 
L 173.136508 148.708766 
L 167.795236 154.040485 
L 162.608961 160.940254 
L 153.160569 174.948529 
L 149.110353 180.300496 
L 145.63418 184.416873 
L 142.810013 187.435168 
L 138.801642 191.277676 
L 141.932471 175.32349 
L 144.494973 163.28843 
L 147.735029 149.586695 
L 151.579974 135.532694 
L 155.943577 123.867693 
L 160.727976 116.29715 
L 165.825869 109.934342 
L 171.122926 104.477984 
L 177.397333 98.562901 
L 185.403118 89.417581 
L 193.169007 78.608009 
L 200.520833 68.934769 
L 207.293716 61.51602 
L 213.335759 55.987517 
L 218.511459 51.954244 
L 222.704737 49.089254 
L 227.792004 46.098224 
L 228.571899 45.700571 
L 226.51715 56.286612 
L 223.728589 69.811701 
L 219.840603 86.578705 
L 214.940387 104.004887 
L 209.137839 120.173102 
L 202.563094 131.893816 
L 195.363605 138.975363 
L 187.700833 144.680761 
L 179.746634 149.636621 
L 171.679397 154.310418 
L 163.680047 160.047194 
L 155.927985 168.396135 
L 148.597068 177.317162 
L 141.851706 184.80949 
L 135.84318 190.591359 
L 130.706242 194.880141 
L 126.556099 197.891102 
L 121.564283 200.867948 
L 120.834561 201.267757 
L 122.988952 190.153354 
L 125.824748 176.443643 
L 129.756816 159.643984 
L 134.696973 142.326967 
L 140.534424 126.290919 
L 147.138252 116.997691 
L 154.360354 109.947265 
L 162.038758 104.246686 
L 170.00126 99.473358 
L 178.069283 95.039386 
L 186.061887 89.478944 
L 193.79982 81.783997 
L 201.109543 73.527165 
L 207.82712 66.118894 
L 213.801894 60.31412 
L 218.899871 55.984772 
L 223.006716 52.88381 
L 228.582407 49.114375 
L 226.328457 60.488121 
L 223.445538 74.089583 
L 219.469541 90.70981 
L 214.489637 108.004009 
L 208.61751 123.420547 
L 201.984855 132.136482 
L 194.740423 138.996369 
L 187.046686 144.51999 
L 179.076192 149.251506 
L 171.007696 153.648195 
L 163.022151 158.759025 
L 155.298649 166.015624 
L 141.320876 181.687722 
L 135.380086 187.517986 
L 130.32127 191.936599 
L 126.257883 195.137142 
L 120.828256 198.911885 
L 123.181676 187.014226 
L 126.111607 173.211352 
L 130.131378 156.535411 
L 135.150836 139.352245 
L 141.057409 124.625074 
L 147.718632 116.181577 
L 154.985111 109.375054 
L 162.69388 103.88926 
L 170.672056 99.299966 
L 180.085485 94.24039 
L 190.723052 86.061588 
L 210.69005 64.576033 
L 219.57168 56.670666 
L 227.447111 50.867924 
L 234.139722 46.685538 
L 239.499416 43.786616 
L 243.405991 42.075413 
L 246.543884 40.943338 
L 243.273485 57.534367 
L 239.304381 75.596041 
L 233.886532 95.753971 
L 227.141444 114.551905 
L 219.220391 129.055604 
L 210.301017 137.076351 
L 200.58336 143.330395 
L 190.285357 148.398219 
L 179.637964 152.843577 
L 168.879969 157.05951 
L 158.252644 163.044004 
L 147.994328 172.430108 
L 138.335086 182.4083 
L 129.491546 190.491637 
L 121.662043 196.578468 
L 115.022171 200.913216 
L 109.720842 203.815887 
L 103.5767 206.58366 
L 102.871683 206.871237 
L 106.274459 189.68089 
L 110.305938 171.451402 
L 115.781731 151.302405 
L 122.579033 132.576745 
L 130.545399 119.463866 
L 139.502168 111.495349 
L 149.248465 105.26004 
L 159.565709 100.289582 
L 180.979879 91.771415 
L 191.596548 85.675486 
L 201.83442 77.063636 
L 211.463889 67.82837 
L 220.268994 59.917064 
L 228.052262 53.876939 
L 234.639137 49.483228 
L 239.881895 46.371689 
L 246.535477 42.824124 
L 243.000456 60.013129 
L 238.90676 77.857676 
L 233.373236 97.829707 
L 226.523986 116.550787 
L 218.512617 129.484342 
L 209.518802 137.408445 
L 199.744246 143.564618 
L 189.408163 148.533035 
L 178.742362 152.880408 
L 167.986046 157.117721 
L 157.380448 162.966249 
L 147.163419 171.527233 
L 137.5641 180.766968 
L 128.797773 188.614022 
L 121.061043 194.587439 
L 114.527422 199.008554 
L 109.34344 202.106068 
L 102.885694 205.570498 
L 106.552822 187.62556 
L 110.708576 169.501657 
L 116.299614 149.46663 
L 123.200546 130.887818 
L 131.256605 118.604414 
L 140.287115 110.859616 
L 150.089549 104.774993 
L 160.444068 99.917955 
L 183.665024 90.679907 
L 196.907667 82.05709 
L 221.613395 59.624586 
L 232.522402 51.615189 
L 242.134765 45.792486 
L 250.234905 41.600207 
L 256.64116 55.948097 
L 261.209857 55.749034 
L 264.468233 53.669621 
L 263.084836 60.441278 
L 259.719368 75.282665 
L 254.447306 94.052728 
L 247.386888 113.091338 
L 238.696457 127.209246 
L 228.570915 135.819713 
L 217.237348 142.428774 
L 204.949935 147.609801 
L 191.984248 152.137502 
L 178.631068 156.355922 
L 165.189869 161.238506 
L 151.962098 169.777527 
L 139.244415 181.252752 
L 127.322041 191.216454 
L 116.462359 198.767125 
L 106.908921 204.175018 
L 98.875983 207.817419 
L 92.543701 207.038827 
L 88.054088 208.668553 
L 84.962044 209.525559 
L 86.428958 201.939788 
L 89.875678 185.136345 
L 95.224903 163.274241 
L 102.356667 142.044265 
L 111.111025 124.769491 
L 121.291641 114.968664 
L 132.670194 107.873383 
L 144.991497 102.330863 
L 157.979219 97.794311 
L 171.342081 93.835764 
L 184.780396 90.008933 
L 197.992779 84.913918 
L 210.682917 76.550128 
L 222.566205 69.387787 
L 250.835699 53.786029 
L 257.093763 51.101517 
L 264.429709 49.419543 
L 262.879334 57.27101 
L 259.351497 73.251009 
L 253.925316 93.393211 
L 246.722485 113.27408 
L 237.904542 125.661906 
L 227.669249 134.512665 
L 216.246153 141.232504 
L 203.89144 146.503215 
L 190.882192 150.989528 
L 177.510167 155.18806 
L 164.075262 160.08244 
L 150.878781 168.559782 
L 138.216684 179.517089 
L 126.372946 188.096258 
L 115.613185 194.56415 
L 106.178713 199.574341 
L 98.281117 203.425539 
L 87.766594 208.159655 
L 85.007568 209.274252 
L 86.641343 201.121759 
L 90.25016 184.249311 
L 95.753084 162.586877 
L 103.026701 141.692684 
L 111.907885 124.544062 
L 122.197456 114.110614 
L 133.66465 107.077173 
L 146.05229 101.667173 
L 159.082558 97.20242 
L 188.131759 88.638796 
L 203.947834 80.490994 
L 219.108108 71.69168 
L 233.272581 64.636165 
L 246.123584 58.496849 
L 257.372908 52.890454 
L 266.768261 48.909432 
L 282.311345 45.183313 
L 280.250812 55.554285 
L 275.823225 74.382603 
L 269.127881 96.952451 
L 260.314938 116.540228 
L 249.582044 128.119225 
L 237.169907 136.145826 
L 223.356894 142.319429 
L 208.452793 147.479841 
L 192.791857 152.125398 
L 176.725317 156.588928 
L 160.613498 162.411876 
L 144.817742 173.646388 
L 129.692301 185.225182 
L 115.576394 193.976909 
L 102.786601 200.691593 
L 91.60976 205.936457 
L 82.296534 209.829279 
L 70.049922 212.793267 
L 67.139231 210.704682 
L 69.299687 199.649854 
L 73.824108 178.807027 
L 80.611025 155.383982 
L 89.508228 134.546532 
L 100.316177 119.767224 
L 112.792481 111.363323 
L 126.657335 104.985344 
L 141.599788 99.878262 
L 157.284727 95.52594 
L 173.360382 91.65614 
L 189.466224 87.406651 
L 205.241046 79.954829 
L 220.331064 71.865923 
L 234.397854 65.40801 
L 274.611123 48.963995 
L 282.231527 45.643193 
L 279.971232 56.06834 
L 275.350153 75.380011 
L 268.471927 97.936594 
L 259.490813 117.196159 
L 248.60823 128.751597 
L 236.068245 136.657363 
L 222.152091 142.75073 
L 207.171868 147.871609 
L 191.463539 152.499007 
L 175.379396 156.931862 
L 159.280159 162.416709 
L 143.526887 172.686145 
L 128.47288 183.503871 
L 114.455757 191.664566 
L 101.789879 197.879155 
L 90.759307 202.789858 
L 74.551388 209.478684 
L 67.22744 211.723705 
L 69.587485 200.193585 
L 74.305042 179.347801 
L 81.274308 155.445508 
L 90.338984 134.623446 
L 101.295775 119.590325 
L 113.898952 110.795104 
L 113.898952 110.795104 
" clip-path="url(#p673e221586)" style="fill: none; stroke-dasharray: 2.96,1.28; stroke-dashoffset: 0; stroke: #000000; stroke-width: 0.8"/>
   </g>
   <g id="line2d_27">
    <path d="M 56.380625 124.171209 
L 293.069951 124.171209 
" clip-path="url(#p673e221586)" style="fill: none; stroke: #000000; stroke-width: 0.4; stroke-linecap: square"/>
   </g>
   <g id="line2d_28">
    <path d="M 174.706382 221.707812 
L 174.706382 25.587812 
" clip-path="url(#p673e221586)" style="fill: none; stroke: #000000; stroke-width: 0.4; stroke-linecap: square"/>
   </g>
   <g id="patch_3">
    <path d="M 56.380625 221.707812 
L 56.380625 25.587812 
" style="fill: none; stroke: #000000; stroke-width: 0.8; stroke-linejoin: miter; stroke-linecap: square"/>
   </g>
   <g id="patch_4">
    <path d="M 293.069951 221.707812 
L 293.069951 25.587812 
" style="fill: none; stroke: #000000; stroke-width: 0.8; stroke-linejoin: miter; stroke-linecap: square"/>
   </g>
   <g id="patch_5">
    <path d="M 56.380625 221.707812 
L 293.069951 221.707812 
" style="fill: none; stroke: #000000; stroke-width: 0.8; stroke-linejoin: miter; stroke-linecap: square"/>
   </g>
   <g id="patch_6">
    <path d="M 56.380625 25.587812 
L 293.069951 25.587812 
" style="fill: none; stroke: #000000; stroke-width: 0.8; stroke-linejoin: miter; stroke-linecap: square"/>
   </g>
   <g id="text_15">
    <!-- Specimen ① -->
    <g transform="translate(135.822788 19.587812) scale(0.14 -0.14)">
     <defs>
      <path id="Cambria-53" d="M 663 972 
Q 725 697 831 537 
Q 938 378 1106 301 
Q 1275 225 1541 225 
Q 1906 225 2101 415 
Q 2297 606 2297 972 
Q 2297 1206 2215 1365 
Q 2134 1525 1950 1665 
Q 1766 1806 1388 1994 
Q 1022 2175 809 2348 
Q 597 2522 492 2725 
Q 388 2928 388 3169 
Q 388 3519 552 3776 
Q 716 4034 1033 4175 
Q 1350 4316 1759 4316 
Q 1997 4316 2223 4291 
Q 2450 4266 2791 4178 
L 2791 3334 
L 2481 3334 
Q 2409 3609 2300 3762 
Q 2191 3916 2044 3977 
Q 1897 4038 1663 4038 
Q 1459 4038 1298 3963 
Q 1138 3888 1044 3736 
Q 950 3584 950 3375 
Q 950 3153 1029 3000 
Q 1109 2847 1278 2715 
Q 1447 2584 1778 2422 
Q 2178 2222 2398 2050 
Q 2619 1878 2742 1658 
Q 2866 1438 2866 1144 
Q 2866 816 2762 589 
Q 2659 363 2476 220 
Q 2294 78 2039 14 
Q 1784 -50 1481 -50 
Q 991 -50 350 116 
L 350 972 
L 663 972 
z
" transform="scale(0.015625)"/>
      <path id="Cambria-70" d="M 1150 94 
L 1150 -566 
Q 1150 -769 1164 -869 
Q 1178 -969 1214 -1026 
Q 1250 -1084 1317 -1121 
Q 1384 -1159 1534 -1191 
L 1534 -1344 
L 259 -1344 
L 259 -1191 
Q 372 -1159 442 -1126 
Q 513 -1094 550 -1030 
Q 588 -966 600 -856 
Q 613 -747 613 -566 
L 613 2116 
Q 613 2341 606 2436 
Q 600 2531 581 2593 
Q 563 2656 527 2697 
Q 491 2738 430 2766 
Q 369 2794 228 2822 
L 228 2988 
L 963 3016 
L 1153 3016 
L 1113 2506 
L 1159 2494 
Q 1353 2691 1465 2780 
Q 1578 2869 1698 2928 
Q 1819 2988 1930 3013 
Q 2041 3038 2166 3038 
Q 2681 3038 2957 2652 
Q 3234 2266 3234 1522 
Q 3234 1006 3078 654 
Q 2922 303 2623 126 
Q 2325 -50 1913 -50 
Q 1681 -50 1493 -11 
Q 1306 28 1150 94 
z
M 1150 1125 
Q 1150 825 1187 662 
Q 1225 500 1320 398 
Q 1416 297 1545 247 
Q 1675 197 1888 197 
Q 2266 197 2456 511 
Q 2647 825 2647 1438 
Q 2647 2663 1931 2663 
Q 1756 2663 1629 2608 
Q 1503 2553 1378 2431 
Q 1253 2309 1201 2195 
Q 1150 2081 1150 1950 
L 1150 1125 
z
" transform="scale(0.015625)"/>
      <path id="Cambria-65" d="M 2800 531 
Q 2600 322 2433 203 
Q 2266 84 2066 17 
Q 1866 -50 1625 -50 
Q 981 -50 653 336 
Q 325 722 325 1475 
Q 325 1941 492 2297 
Q 659 2653 968 2847 
Q 1278 3041 1681 3041 
Q 1997 3041 2219 2941 
Q 2441 2841 2573 2667 
Q 2706 2494 2779 2230 
Q 2853 1966 2863 1541 
L 894 1541 
L 894 1484 
Q 894 1116 976 864 
Q 1059 613 1248 470 
Q 1438 328 1741 328 
Q 1997 328 2201 423 
Q 2406 519 2609 734 
L 2800 531 
z
M 2275 1800 
Q 2256 2138 2190 2352 
Q 2125 2566 1994 2680 
Q 1863 2794 1650 2794 
Q 1328 2794 1136 2536 
Q 944 2278 909 1800 
L 2275 1800 
z
" transform="scale(0.015625)"/>
      <path id="Cambria-63" d="M 2631 2916 
L 2631 2263 
L 2234 2263 
Q 2181 2466 2103 2583 
Q 2025 2700 1922 2747 
Q 1819 2794 1666 2794 
Q 1447 2794 1278 2653 
Q 1109 2513 1011 2225 
Q 913 1938 913 1522 
Q 913 1256 950 1036 
Q 988 816 1078 659 
Q 1169 503 1319 415 
Q 1469 328 1691 328 
Q 1906 328 2092 412 
Q 2278 497 2478 709 
L 2656 503 
Q 2497 328 2375 233 
Q 2253 138 2114 73 
Q 1975 9 1839 -20 
Q 1703 -50 1544 -50 
Q 953 -50 640 342 
Q 328 734 328 1475 
Q 328 1938 503 2295 
Q 678 2653 993 2847 
Q 1309 3041 1722 3041 
Q 1978 3041 2195 3011 
Q 2413 2981 2631 2916 
z
" transform="scale(0.015625)"/>
      <path id="Cambria-69" d="M 1197 4213 
L 1197 3606 
L 622 3606 
L 622 4213 
L 1197 4213 
z
M 303 153 
Q 425 191 476 219 
Q 528 247 564 297 
Q 600 347 620 450 
Q 641 553 641 772 
L 641 2134 
Q 641 2334 634 2456 
Q 628 2578 590 2651 
Q 553 2725 476 2761 
Q 400 2797 259 2822 
L 259 2988 
L 988 3016 
L 1178 3016 
L 1178 781 
Q 1178 513 1203 408 
Q 1228 303 1298 248 
Q 1369 194 1528 153 
L 1528 0 
L 303 0 
L 303 153 
z
" transform="scale(0.015625)"/>
      <path id="Cambria-6d" d="M 1147 2506 
L 1191 2494 
Q 1378 2681 1498 2776 
Q 1619 2872 1731 2930 
Q 1844 2988 1942 3013 
Q 2041 3038 2144 3038 
Q 2456 3038 2653 2894 
Q 2850 2750 2925 2453 
Q 3159 2691 3304 2803 
Q 3450 2916 3601 2977 
Q 3753 3038 3928 3038 
Q 4138 3038 4289 2977 
Q 4441 2916 4545 2789 
Q 4650 2663 4698 2472 
Q 4747 2281 4747 1959 
L 4747 781 
Q 4747 544 4762 453 
Q 4778 363 4808 313 
Q 4838 263 4897 227 
Q 4956 191 5097 153 
L 5097 0 
L 3869 0 
L 3869 153 
Q 3991 191 4044 219 
Q 4097 247 4133 297 
Q 4169 347 4189 451 
Q 4209 556 4209 769 
L 4209 1588 
Q 4209 1853 4195 2026 
Q 4181 2200 4151 2303 
Q 4122 2406 4080 2465 
Q 4038 2525 3984 2569 
Q 3931 2613 3859 2638 
Q 3788 2663 3669 2663 
Q 3544 2663 3436 2613 
Q 3328 2563 3201 2444 
Q 3075 2325 3019 2204 
Q 2963 2084 2963 1922 
L 2963 781 
Q 2963 544 2978 453 
Q 2994 363 3023 313 
Q 3053 263 3112 227 
Q 3172 191 3313 153 
L 3313 0 
L 2084 0 
L 2084 153 
Q 2206 191 2259 219 
Q 2313 247 2348 297 
Q 2384 347 2404 451 
Q 2425 556 2425 769 
L 2425 1588 
Q 2425 1866 2409 2041 
Q 2394 2216 2361 2322 
Q 2328 2428 2276 2493 
Q 2225 2559 2172 2593 
Q 2119 2628 2047 2645 
Q 1975 2663 1884 2663 
Q 1756 2663 1643 2605 
Q 1531 2547 1414 2437 
Q 1297 2328 1237 2209 
Q 1178 2091 1178 1953 
L 1178 781 
Q 1178 603 1187 509 
Q 1197 416 1217 362 
Q 1238 309 1269 276 
Q 1300 244 1358 214 
Q 1416 184 1531 153 
L 1531 0 
L 306 0 
L 306 153 
Q 425 191 476 219 
Q 528 247 565 297 
Q 603 347 622 450 
Q 641 553 641 772 
L 641 2134 
Q 641 2334 634 2456 
Q 628 2578 590 2651 
Q 553 2725 476 2761 
Q 400 2797 259 2822 
L 259 2988 
L 991 3016 
L 1181 3016 
L 1147 2506 
z
" transform="scale(0.015625)"/>
      <path id="Cambria-6e" d="M 3347 0 
L 2116 0 
L 2116 153 
Q 2238 191 2291 219 
Q 2344 247 2380 297 
Q 2416 347 2436 451 
Q 2456 556 2456 769 
L 2456 1588 
Q 2456 1806 2443 1984 
Q 2431 2163 2401 2277 
Q 2372 2391 2330 2455 
Q 2288 2519 2230 2564 
Q 2172 2609 2097 2636 
Q 2022 2663 1900 2663 
Q 1778 2663 1668 2614 
Q 1559 2566 1428 2447 
Q 1297 2328 1237 2212 
Q 1178 2097 1178 1947 
L 1178 781 
Q 1178 513 1203 408 
Q 1228 303 1298 248 
Q 1369 194 1528 153 
L 1528 0 
L 303 0 
L 303 153 
Q 425 191 476 219 
Q 528 247 564 297 
Q 600 347 620 450 
Q 641 553 641 772 
L 641 2134 
Q 641 2334 634 2456 
Q 628 2578 590 2651 
Q 553 2725 476 2761 
Q 400 2797 259 2822 
L 259 2988 
L 991 3016 
L 1181 3016 
L 1147 2506 
L 1191 2494 
Q 1422 2728 1564 2828 
Q 1706 2928 1851 2983 
Q 1997 3038 2159 3038 
Q 2328 3038 2461 2998 
Q 2594 2959 2695 2878 
Q 2797 2797 2862 2676 
Q 2928 2556 2961 2387 
Q 2994 2219 2994 1959 
L 2994 781 
Q 2994 566 3006 469 
Q 3019 372 3050 319 
Q 3081 266 3140 230 
Q 3200 194 3347 153 
L 3347 0 
z
" transform="scale(0.015625)"/>
      <path id="Cambria-20" transform="scale(0.015625)"/>
      <path id="Cambria-2460" d="M 313 2131 
Q 313 2619 439 3070 
Q 566 3522 794 3914 
Q 1022 4306 1345 4628 
Q 1669 4950 2059 5179 
Q 2450 5409 2901 5536 
Q 3353 5663 3841 5663 
Q 4328 5663 4779 5536 
Q 5231 5409 5623 5179 
Q 6016 4950 6337 4628 
Q 6659 4306 6889 3914 
Q 7119 3522 7245 3070 
Q 7372 2619 7372 2131 
Q 7372 1644 7245 1192 
Q 7119 741 6889 350 
Q 6659 -41 6337 -364 
Q 6016 -688 5623 -916 
Q 5231 -1144 4779 -1270 
Q 4328 -1397 3841 -1397 
Q 3353 -1397 2901 -1270 
Q 2450 -1144 2059 -916 
Q 1669 -688 1345 -364 
Q 1022 -41 794 350 
Q 566 741 439 1192 
Q 313 1644 313 2131 
z
M 594 2131 
Q 594 1678 709 1259 
Q 825 841 1036 477 
Q 1247 113 1544 -187 
Q 1841 -488 2202 -700 
Q 2563 -913 2977 -1030 
Q 3391 -1147 3841 -1147 
Q 4288 -1147 4703 -1030 
Q 5119 -913 5480 -700 
Q 5841 -488 6137 -187 
Q 6434 113 6646 477 
Q 6859 841 6975 1259 
Q 7091 1678 7091 2131 
Q 7091 2584 6975 3003 
Q 6859 3422 6646 3787 
Q 6434 4153 6137 4451 
Q 5841 4750 5480 4964 
Q 5119 5178 4703 5295 
Q 4288 5413 3841 5413 
Q 3391 5413 2977 5295 
Q 2563 5178 2202 4964 
Q 1841 4750 1544 4451 
Q 1247 4153 1036 3787 
Q 825 3422 709 3003 
Q 594 2584 594 2131 
z
M 4125 1031 
Q 4125 891 4140 819 
Q 4156 747 4181 703 
L 4181 706 
Q 4203 672 4231 648 
Q 4259 625 4309 608 
Q 4359 591 4437 577 
Q 4516 563 4634 553 
L 4634 356 
L 3069 356 
L 3069 553 
Q 3241 572 3342 597 
Q 3444 622 3495 673 
Q 3547 725 3561 809 
Q 3575 894 3575 1031 
L 3575 3203 
Q 3575 3384 3459 3384 
Q 3388 3384 3272 3323 
Q 3156 3263 3006 3163 
L 2866 3391 
L 3950 4016 
L 4144 4016 
Q 4138 3891 4131 3708 
Q 4125 3525 4125 3300 
L 4125 1031 
z
" transform="scale(0.015625)"/>
     </defs>
     <use xlink:href="#Cambria-53"/>
     <use xlink:href="#Cambria-70" x="49.609375"/>
     <use xlink:href="#Cambria-65" x="105.224609"/>
     <use xlink:href="#Cambria-63" x="154.003906"/>
     <use xlink:href="#Cambria-69" x="198.095703"/>
     <use xlink:href="#Cambria-6d" x="225.878906"/>
     <use xlink:href="#Cambria-65" x="309.082031"/>
     <use xlink:href="#Cambria-6e" x="357.861328"/>
     <use xlink:href="#Cambria-20" x="413.671875"/>
     <use xlink:href="#Cambria-2460" x="435.693359"/>
    </g>
   </g>
   <g id="legend_1">
    <g id="patch_7">
     <path d="M 62.680625 59.905937 
L 168.959375 59.905937 
Q 170.759375 59.905937 170.759375 58.105937 
L 170.759375 31.887812 
Q 170.759375 30.087812 168.959375 30.087812 
L 62.680625 30.087812 
Q 60.880625 30.087812 60.880625 31.887812 
L 60.880625 58.105937 
Q 60.880625 59.905937 62.680625 59.905937 
z
" style="fill: #ffffff; opacity: 0.8; stroke: #cccccc; stroke-linejoin: miter"/>
    </g>
    <g id="line2d_29">
     <path d="M 64.480625 36.837812 
L 73.480625 36.837812 
L 82.480625 36.837812 
" style="fill: none; stroke: #ff0000; stroke-linecap: square"/>
    </g>
    <g id="text_16">
     <!-- LSTM-AE prediction -->
     <g transform="translate(89.680625 39.987812) scale(0.09 -0.09)">
      <defs>
       <path id="Cambria-4c" d="M 1328 288 
L 2147 288 
Q 2281 288 2372 303 
Q 2463 319 2527 351 
Q 2591 384 2642 442 
Q 2694 500 2741 594 
Q 2788 688 2830 830 
Q 2872 972 2934 1256 
L 3250 1256 
L 3188 0 
L 378 0 
L 378 153 
Q 572 203 637 264 
Q 703 325 723 437 
Q 744 550 744 781 
L 744 3484 
Q 744 3700 728 3798 
Q 713 3897 677 3951 
Q 641 4006 581 4039 
Q 522 4072 378 4113 
L 378 4266 
L 1694 4266 
L 1694 4113 
Q 1556 4075 1498 4045 
Q 1441 4016 1403 3966 
Q 1366 3916 1347 3812 
Q 1328 3709 1328 3484 
L 1328 288 
z
" transform="scale(0.015625)"/>
       <path id="Cambria-54" d="M 206 4266 
L 3588 4266 
L 3588 3178 
L 3281 3178 
Q 3213 3447 3145 3603 
Q 3078 3759 3003 3840 
Q 2928 3922 2842 3956 
Q 2756 3991 2584 3991 
L 2188 3991 
L 2188 791 
Q 2188 606 2208 497 
Q 2228 388 2270 323 
Q 2313 259 2384 223 
Q 2456 188 2609 153 
L 2609 0 
L 1181 0 
L 1181 153 
Q 1275 175 1347 200 
Q 1419 225 1464 261 
Q 1509 297 1539 353 
Q 1569 409 1586 506 
Q 1603 603 1603 791 
L 1603 3991 
L 1209 3991 
Q 1063 3991 967 3962 
Q 872 3934 790 3845 
Q 709 3756 642 3592 
Q 575 3428 516 3178 
L 206 3178 
L 206 4266 
z
" transform="scale(0.015625)"/>
       <path id="Cambria-4d" d="M 4841 4113 
Q 4703 4078 4642 4043 
Q 4581 4009 4545 3957 
Q 4509 3906 4492 3803 
Q 4475 3700 4475 3484 
L 4475 781 
Q 4475 572 4489 475 
Q 4503 378 4536 322 
Q 4569 266 4633 228 
Q 4697 191 4841 153 
L 4841 0 
L 3538 0 
L 3538 153 
Q 3716 197 3784 253 
Q 3853 309 3878 418 
Q 3903 528 3903 781 
L 3903 1978 
Q 3903 2450 3917 2933 
Q 3931 3416 3950 3594 
L 3897 3594 
L 2659 497 
L 2300 497 
L 1150 3644 
L 1097 3644 
Q 1113 3453 1127 2953 
Q 1141 2453 1141 1925 
L 1141 781 
Q 1141 572 1155 475 
Q 1169 378 1201 322 
Q 1234 266 1298 228 
Q 1363 191 1506 153 
L 1506 0 
L 366 0 
L 366 153 
Q 559 203 625 264 
Q 691 325 711 437 
Q 731 550 731 781 
L 731 3484 
Q 731 3700 715 3798 
Q 700 3897 664 3951 
Q 628 4006 568 4039 
Q 509 4072 366 4113 
L 366 4266 
L 1481 4266 
L 2578 1225 
L 3784 4266 
L 4841 4266 
L 4841 4113 
z
" transform="scale(0.015625)"/>
       <path id="Cambria-2d" d="M 1788 1403 
L 338 1403 
L 338 1888 
L 1788 1888 
L 1788 1403 
z
" transform="scale(0.015625)"/>
       <path id="Cambria-41" d="M 2488 0 
L 2488 153 
Q 2644 184 2720 221 
Q 2797 259 2834 326 
Q 2872 394 2872 506 
Q 2872 613 2847 736 
Q 2822 859 2775 1013 
L 2659 1416 
L 1203 1416 
L 1097 1109 
Q 1016 878 991 759 
Q 966 641 966 544 
Q 966 356 1061 268 
Q 1156 181 1353 153 
L 1353 0 
L 19 0 
L 19 153 
Q 194 181 323 356 
Q 453 531 575 856 
L 1878 4316 
L 2372 4316 
L 3434 831 
Q 3509 588 3567 459 
Q 3625 331 3706 259 
Q 3788 188 3928 153 
L 3928 0 
L 2488 0 
z
M 1288 1688 
L 2594 1688 
L 2000 3703 
L 1288 1688 
z
" transform="scale(0.015625)"/>
       <path id="Cambria-45" d="M 3300 4266 
L 3300 3322 
L 2994 3322 
Q 2947 3475 2897 3590 
Q 2847 3706 2794 3784 
Q 2741 3863 2677 3909 
Q 2613 3956 2525 3973 
Q 2438 3991 2316 3991 
L 1328 3991 
L 1328 2353 
L 1997 2353 
Q 2134 2353 2212 2392 
Q 2291 2431 2342 2525 
Q 2394 2619 2441 2819 
L 2734 2819 
L 2734 1619 
L 2441 1619 
Q 2397 1806 2344 1901 
Q 2291 1997 2217 2037 
Q 2144 2078 1997 2078 
L 1328 2078 
L 1328 275 
L 2300 275 
Q 2453 275 2548 301 
Q 2644 328 2712 392 
Q 2781 456 2834 559 
Q 2888 663 2923 773 
Q 2959 884 3022 1097 
L 3331 1097 
L 3272 0 
L 378 0 
L 378 153 
Q 572 203 637 264 
Q 703 325 723 437 
Q 744 550 744 781 
L 744 3484 
Q 744 3700 728 3798 
Q 713 3897 677 3951 
Q 641 4006 581 4039 
Q 522 4072 378 4113 
L 378 4266 
L 3300 4266 
z
" transform="scale(0.015625)"/>
       <path id="Cambria-72" d="M 1147 2469 
L 1191 2459 
Q 1363 2669 1509 2789 
Q 1656 2909 1826 2975 
Q 1997 3041 2213 3041 
Q 2394 3041 2541 3022 
L 2541 2303 
L 2188 2303 
Q 2113 2472 2028 2548 
Q 1944 2625 1797 2625 
Q 1684 2625 1573 2559 
Q 1463 2494 1359 2369 
Q 1256 2244 1217 2134 
Q 1178 2025 1178 1875 
L 1178 781 
Q 1178 497 1212 389 
Q 1247 281 1326 231 
Q 1406 181 1566 153 
L 1566 0 
L 306 0 
L 306 153 
Q 425 191 476 219 
Q 528 247 565 297 
Q 603 347 622 450 
Q 641 553 641 772 
L 641 2134 
Q 641 2334 634 2456 
Q 628 2578 590 2651 
Q 553 2725 476 2761 
Q 400 2797 259 2822 
L 259 2984 
L 991 3016 
L 1181 3016 
L 1147 2469 
z
" transform="scale(0.015625)"/>
       <path id="Cambria-64" d="M 2413 3397 
Q 2413 3697 2408 3815 
Q 2403 3934 2383 4017 
Q 2363 4100 2327 4147 
Q 2291 4194 2230 4222 
Q 2169 4250 2009 4278 
L 2009 4441 
L 2766 4472 
L 2950 4472 
L 2950 853 
Q 2950 609 2959 504 
Q 2969 400 3000 337 
Q 3031 275 3098 236 
Q 3166 197 3334 163 
L 3334 0 
L 2597 -31 
L 2409 -31 
L 2447 481 
L 2400 494 
Q 2203 284 2058 179 
Q 1913 75 1748 12 
Q 1584 -50 1397 -50 
Q 884 -50 606 339 
Q 328 728 328 1463 
Q 328 1975 509 2333 
Q 691 2691 998 2866 
Q 1306 3041 1691 3041 
Q 1897 3041 2065 3008 
Q 2234 2975 2413 2900 
L 2413 3397 
z
M 2413 1853 
Q 2413 2097 2391 2244 
Q 2369 2391 2317 2491 
Q 2266 2591 2178 2659 
Q 2091 2728 1986 2759 
Q 1881 2791 1734 2791 
Q 1334 2791 1125 2470 
Q 916 2150 916 1550 
Q 916 950 1087 637 
Q 1259 325 1609 325 
Q 1747 325 1837 348 
Q 1928 372 2015 423 
Q 2103 475 2193 565 
Q 2284 656 2326 731 
Q 2369 806 2391 903 
Q 2413 1000 2413 1153 
L 2413 1853 
z
" transform="scale(0.015625)"/>
       <path id="Cambria-74" d="M 116 2831 
Q 272 2856 369 2918 
Q 466 2981 520 3079 
Q 575 3178 606 3326 
Q 638 3475 672 3759 
L 1116 3759 
L 1116 2988 
L 2125 2988 
L 2125 2672 
L 1116 2672 
L 1116 1281 
Q 1116 978 1141 798 
Q 1166 619 1234 517 
Q 1303 416 1390 372 
Q 1478 328 1616 328 
Q 1741 328 1850 379 
Q 1959 431 2066 528 
L 2206 359 
Q 1984 144 1786 47 
Q 1588 -50 1375 -50 
Q 972 -50 775 189 
Q 578 428 578 938 
L 578 2672 
L 116 2672 
L 116 2831 
z
" transform="scale(0.015625)"/>
       <path id="Cambria-6f" d="M 1663 -50 
Q 1013 -50 670 333 
Q 328 716 328 1466 
Q 328 1981 508 2337 
Q 688 2694 1000 2867 
Q 1313 3041 1713 3041 
Q 2381 3041 2725 2652 
Q 3069 2263 3069 1534 
Q 3069 1016 2897 659 
Q 2725 303 2409 126 
Q 2094 -50 1663 -50 
z
M 919 1531 
Q 919 888 1123 542 
Q 1328 197 1709 197 
Q 1919 197 2066 298 
Q 2213 400 2305 572 
Q 2397 744 2437 970 
Q 2478 1197 2478 1444 
Q 2478 1903 2376 2206 
Q 2275 2509 2100 2651 
Q 1925 2794 1700 2794 
Q 1322 2794 1120 2466 
Q 919 2138 919 1531 
z
" transform="scale(0.015625)"/>
      </defs>
      <use xlink:href="#Cambria-4c"/>
      <use xlink:href="#Cambria-53" x="53.037109"/>
      <use xlink:href="#Cambria-54" x="101.396484"/>
      <use xlink:href="#Cambria-4d" x="160.673828"/>
      <use xlink:href="#Cambria-2d" x="242.216797"/>
      <use xlink:href="#Cambria-41" x="275.419922"/>
      <use xlink:href="#Cambria-45" x="337.724609"/>
      <use xlink:href="#Cambria-20" x="395.244141"/>
      <use xlink:href="#Cambria-70" x="417.265625"/>
      <use xlink:href="#Cambria-72" x="472.880859"/>
      <use xlink:href="#Cambria-65" x="514.238281"/>
      <use xlink:href="#Cambria-64" x="563.017578"/>
      <use xlink:href="#Cambria-69" x="618.486328"/>
      <use xlink:href="#Cambria-63" x="646.269531"/>
      <use xlink:href="#Cambria-74" x="690.361328"/>
      <use xlink:href="#Cambria-69" x="724.199219"/>
      <use xlink:href="#Cambria-6f" x="751.982422"/>
      <use xlink:href="#Cambria-6e" x="805.058594"/>
     </g>
    </g>
    <g id="line2d_30">
     <path d="M 64.480625 51.191406 
L 73.480625 51.191406 
L 82.480625 51.191406 
" style="fill: none; stroke-dasharray: 2.96,1.28; stroke-dashoffset: 0; stroke: #000000; stroke-width: 0.8"/>
    </g>
    <g id="text_17">
     <!-- Reference ① -->
     <g transform="translate(89.680625 54.341406) scale(0.09 -0.09)">
      <defs>
       <path id="Cambria-52" d="M 1331 1853 
L 1331 791 
Q 1331 566 1348 464 
Q 1366 363 1400 311 
Q 1434 259 1493 226 
Q 1553 194 1697 153 
L 1697 0 
L 378 0 
L 378 153 
Q 572 203 637 264 
Q 703 325 723 437 
Q 744 550 744 781 
L 744 3484 
Q 744 3700 728 3798 
Q 713 3897 677 3951 
Q 641 4006 581 4039 
Q 522 4072 378 4113 
L 378 4266 
L 1925 4266 
Q 2656 4266 3018 4000 
Q 3381 3734 3381 3175 
Q 3381 2747 3145 2447 
Q 2909 2147 2438 1978 
L 2438 1953 
Q 2628 1875 2764 1729 
Q 2900 1584 3066 1278 
L 3347 766 
Q 3469 541 3556 422 
Q 3644 303 3734 240 
Q 3825 178 3975 153 
L 3975 0 
L 3109 0 
Q 2991 166 2884 356 
Q 2778 547 2675 744 
L 2400 1266 
Q 2275 1503 2195 1615 
Q 2116 1728 2048 1773 
Q 1981 1819 1904 1836 
Q 1828 1853 1675 1853 
L 1331 1853 
z
M 1331 3978 
L 1331 2122 
L 1684 2122 
Q 1956 2122 2125 2161 
Q 2294 2200 2437 2309 
Q 2581 2419 2667 2614 
Q 2753 2809 2753 3094 
Q 2753 3391 2651 3587 
Q 2550 3784 2344 3887 
Q 2138 3991 1788 3991 
Q 1506 3991 1331 3978 
z
" transform="scale(0.015625)"/>
       <path id="Cambria-66" d="M 1909 2672 
L 1163 2672 
L 1163 781 
Q 1163 572 1183 465 
Q 1203 359 1242 304 
Q 1281 250 1345 217 
Q 1409 184 1550 153 
L 1550 0 
L 272 0 
L 272 153 
Q 409 191 468 225 
Q 528 259 561 312 
Q 594 366 609 466 
Q 625 566 625 781 
L 625 2672 
L 247 2672 
L 247 2831 
Q 366 2850 405 2861 
Q 444 2872 480 2894 
Q 516 2916 542 2956 
Q 569 2997 589 3076 
Q 609 3156 622 3300 
Q 650 3641 745 3853 
Q 841 4066 1023 4216 
Q 1206 4366 1414 4427 
Q 1622 4488 1903 4488 
Q 2150 4488 2322 4453 
L 2322 3888 
L 2013 3888 
Q 1953 4072 1873 4148 
Q 1794 4225 1650 4225 
Q 1547 4225 1476 4197 
Q 1406 4169 1347 4109 
Q 1288 4050 1245 3950 
Q 1203 3850 1183 3701 
Q 1163 3553 1163 3316 
L 1163 2988 
L 1909 2988 
L 1909 2672 
z
" transform="scale(0.015625)"/>
      </defs>
      <use xlink:href="#Cambria-52"/>
      <use xlink:href="#Cambria-65" x="60.359375"/>
      <use xlink:href="#Cambria-66" x="109.138672"/>
      <use xlink:href="#Cambria-65" x="139.412109"/>
      <use xlink:href="#Cambria-72" x="188.191406"/>
      <use xlink:href="#Cambria-65" x="229.548828"/>
      <use xlink:href="#Cambria-6e" x="278.328125"/>
      <use xlink:href="#Cambria-63" x="334.138672"/>
      <use xlink:href="#Cambria-65" x="378.230469"/>
      <use xlink:href="#Cambria-20" x="427.009766"/>
      <use xlink:href="#Cambria-2460" x="449.03125"/>
     </g>
    </g>
   </g>
  </g>
 </g>
 <defs>
  <clipPath id="p673e221586">
   <rect x="56.380625" y="25.587812" width="236.689326" height="196.12"/>
  </clipPath>
 </defs>
</svg>
