<?xml version="1.0" encoding="utf-8" standalone="no"?>
<!DOCTYPE svg PUBLIC "-//W3C//DTD SVG 1.1//EN"
  "http://www.w3.org/Graphics/SVG/1.1/DTD/svg11.dtd">
<svg xmlns:xlink="http://www.w3.org/1999/xlink" width="488.661562pt" height="416.844062pt" viewBox="0 0 488.661562 416.844062" xmlns="http://www.w3.org/2000/svg" version="1.1">
 <metadata>
  <rdf:RDF xmlns:dc="http://purl.org/dc/elements/1.1/" xmlns:cc="http://creativecommons.org/ns#" xmlns:rdf="http://www.w3.org/1999/02/22-rdf-syntax-ns#">
   <cc:Work>
    <dc:type rdf:resource="http://purl.org/dc/dcmitype/StillImage"/>
    <dc:date>2023-10-16T18:04:12.273674</dc:date>
    <dc:format>image/svg+xml</dc:format>
    <dc:creator>
     <cc:Agent>
      <dc:title>Matplotlib v3.8.0, https://matplotlib.org/</dc:title>
     </cc:Agent>
    </dc:creator>
   </cc:Work>
  </rdf:RDF>
 </metadata>
 <defs>
  <style type="text/css">*{stroke-linejoin: round; stroke-linecap: butt}</style>
 </defs>
 <g id="figure_1">
  <g id="patch_1">
   <path d="M 0 416.844062 
L 488.661562 416.844062 
L 488.661562 0 
L 0 0 
z
" style="fill: #ffffff"/>
  </g>
  <g id="axes_1">
   <g id="patch_2">
    <path d="M 61.991563 373.14 
L 481.461563 373.14 
L 481.461563 24.38 
L 61.991563 24.38 
z
" style="fill: #ffffff"/>
   </g>
   <g id="matplotlib.axis_1">
    <g id="xtick_1">
     <g id="line2d_1">
      <path d="M 90.137818 373.14 
L 90.137818 24.38 
" clip-path="url(#p2f7d4166cc)" style="fill: none; stroke-dasharray: 0.8,1.32; stroke-dashoffset: 0; stroke: #b0b0b0; stroke-width: 0.8"/>
     </g>
     <g id="line2d_2">
      <defs>
       <path id="m0585b42a53" d="M 0 0 
L 0 3.5 
" style="stroke: #000000; stroke-width: 0.8"/>
      </defs>
      <g>
       <use xlink:href="#m0585b42a53" x="90.137818" y="373.14" style="stroke: #000000; stroke-width: 0.8"/>
      </g>
     </g>
     <g id="text_1">
      <!-- −60 -->
      <g transform="translate(78.509068 389.9225) scale(0.14 -0.14)">
       <defs>
        <path id="Cambria-2212" d="M 397 1613 
L 397 2047 
L 3147 2047 
L 3147 1613 
L 397 1613 
z
" transform="scale(0.015625)"/>
        <path id="Cambria-36" d="M 2847 4144 
L 2847 3991 
Q 2366 3991 1994 3784 
Q 1622 3578 1376 3178 
Q 1131 2778 1031 2228 
L 1063 2216 
Q 1325 2403 1579 2490 
Q 1834 2578 2131 2578 
Q 2484 2578 2732 2423 
Q 2981 2269 3106 1989 
Q 3231 1709 3231 1334 
Q 3231 928 3075 617 
Q 2919 306 2592 128 
Q 2266 -50 1788 -50 
Q 1103 -50 754 375 
Q 406 800 406 1628 
Q 406 2184 581 2668 
Q 756 3153 1078 3514 
Q 1400 3875 1825 4083 
Q 2250 4291 2719 4316 
L 2847 4144 
z
M 1916 2250 
Q 1763 2250 1620 2215 
Q 1478 2181 1353 2115 
Q 1228 2050 1109 1950 
Q 1072 1916 1053 1878 
Q 1022 1819 1012 1731 
Q 1003 1644 1003 1438 
Q 1003 841 1203 528 
Q 1403 216 1809 216 
Q 2044 216 2203 297 
Q 2363 378 2461 520 
Q 2559 663 2601 855 
Q 2644 1047 2644 1272 
Q 2644 1734 2453 1992 
Q 2263 2250 1916 2250 
z
" transform="scale(0.015625)"/>
        <path id="Cambria-30" d="M 1738 -50 
Q 1063 -50 733 481 
Q 403 1013 403 2094 
Q 403 2669 504 3087 
Q 606 3506 789 3779 
Q 972 4053 1228 4184 
Q 1484 4316 1788 4316 
Q 2472 4316 2806 3787 
Q 3141 3259 3141 2191 
Q 3141 1084 2783 517 
Q 2425 -50 1738 -50 
z
M 1013 2188 
Q 1013 1169 1202 692 
Q 1391 216 1788 216 
Q 2166 216 2348 664 
Q 2531 1113 2531 2053 
Q 2531 2772 2437 3217 
Q 2344 3663 2176 3856 
Q 2009 4050 1772 4050 
Q 1556 4050 1411 3922 
Q 1266 3794 1177 3553 
Q 1088 3313 1050 2967 
Q 1013 2622 1013 2188 
z
" transform="scale(0.015625)"/>
       </defs>
       <use xlink:href="#Cambria-2212"/>
       <use xlink:href="#Cambria-36" x="55.371094"/>
       <use xlink:href="#Cambria-30" x="110.742188"/>
      </g>
     </g>
    </g>
    <g id="xtick_2">
     <g id="line2d_3">
      <path d="M 150.667399 373.14 
L 150.667399 24.38 
" clip-path="url(#p2f7d4166cc)" style="fill: none; stroke-dasharray: 0.8,1.32; stroke-dashoffset: 0; stroke: #b0b0b0; stroke-width: 0.8"/>
     </g>
     <g id="line2d_4">
      <g>
       <use xlink:href="#m0585b42a53" x="150.667399" y="373.14" style="stroke: #000000; stroke-width: 0.8"/>
      </g>
     </g>
     <g id="text_2">
      <!-- −40 -->
      <g transform="translate(139.038649 389.9225) scale(0.14 -0.14)">
       <defs>
        <path id="Cambria-34" d="M 1613 153 
Q 1806 203 1872 264 
Q 1938 325 1958 437 
Q 1978 550 1978 781 
L 1978 1294 
L 241 1294 
L 241 1528 
L 2069 4288 
L 2516 4288 
L 2516 1597 
L 2581 1597 
Q 2763 1597 2841 1623 
Q 2919 1650 2970 1717 
Q 3022 1784 3066 1938 
L 3303 1938 
L 3266 1294 
L 2516 1294 
L 2516 781 
Q 2516 572 2530 475 
Q 2544 378 2576 322 
Q 2609 266 2673 228 
Q 2738 191 2881 153 
L 2881 0 
L 1613 0 
L 1613 153 
z
M 756 1597 
L 1978 1597 
L 1978 2375 
Q 1978 2669 1987 3033 
Q 1997 3397 2009 3581 
L 1978 3581 
L 756 1641 
L 756 1597 
z
" transform="scale(0.015625)"/>
       </defs>
       <use xlink:href="#Cambria-2212"/>
       <use xlink:href="#Cambria-34" x="55.371094"/>
       <use xlink:href="#Cambria-30" x="110.742188"/>
      </g>
     </g>
    </g>
    <g id="xtick_3">
     <g id="line2d_5">
      <path d="M 211.196981 373.14 
L 211.196981 24.38 
" clip-path="url(#p2f7d4166cc)" style="fill: none; stroke-dasharray: 0.8,1.32; stroke-dashoffset: 0; stroke: #b0b0b0; stroke-width: 0.8"/>
     </g>
     <g id="line2d_6">
      <g>
       <use xlink:href="#m0585b42a53" x="211.196981" y="373.14" style="stroke: #000000; stroke-width: 0.8"/>
      </g>
     </g>
     <g id="text_3">
      <!-- −20 -->
      <g transform="translate(199.568231 389.9225) scale(0.14 -0.14)">
       <defs>
        <path id="Cambria-32" d="M 2194 500 
Q 2347 500 2440 519 
Q 2534 538 2590 581 
Q 2647 625 2680 695 
Q 2713 766 2763 913 
L 3028 913 
L 2975 0 
L 403 0 
L 403 150 
Q 538 478 766 822 
Q 994 1166 1413 1631 
Q 1775 2031 1934 2238 
Q 2109 2463 2195 2627 
Q 2281 2791 2318 2936 
Q 2356 3081 2356 3228 
Q 2356 3463 2281 3642 
Q 2206 3822 2051 3925 
Q 1897 4028 1663 4028 
Q 1078 4028 875 3378 
L 497 3378 
L 497 3978 
Q 875 4156 1204 4236 
Q 1534 4316 1797 4316 
Q 2378 4316 2675 4061 
Q 2972 3806 2972 3322 
Q 2972 3156 2939 3017 
Q 2906 2878 2836 2742 
Q 2766 2606 2647 2450 
Q 2528 2294 2384 2133 
Q 2241 1972 1888 1597 
Q 1294 969 1016 500 
L 2194 500 
z
" transform="scale(0.015625)"/>
       </defs>
       <use xlink:href="#Cambria-2212"/>
       <use xlink:href="#Cambria-32" x="55.371094"/>
       <use xlink:href="#Cambria-30" x="110.742188"/>
      </g>
     </g>
    </g>
    <g id="xtick_4">
     <g id="line2d_7">
      <path d="M 271.726562 373.14 
L 271.726562 24.38 
" clip-path="url(#p2f7d4166cc)" style="fill: none; stroke-dasharray: 0.8,1.32; stroke-dashoffset: 0; stroke: #b0b0b0; stroke-width: 0.8"/>
     </g>
     <g id="line2d_8">
      <g>
       <use xlink:href="#m0585b42a53" x="271.726562" y="373.14" style="stroke: #000000; stroke-width: 0.8"/>
      </g>
     </g>
     <g id="text_4">
      <!-- 0 -->
      <g transform="translate(267.850312 389.9225) scale(0.14 -0.14)">
       <use xlink:href="#Cambria-30"/>
      </g>
     </g>
    </g>
    <g id="xtick_5">
     <g id="line2d_9">
      <path d="M 332.256144 373.14 
L 332.256144 24.38 
" clip-path="url(#p2f7d4166cc)" style="fill: none; stroke-dasharray: 0.8,1.32; stroke-dashoffset: 0; stroke: #b0b0b0; stroke-width: 0.8"/>
     </g>
     <g id="line2d_10">
      <g>
       <use xlink:href="#m0585b42a53" x="332.256144" y="373.14" style="stroke: #000000; stroke-width: 0.8"/>
      </g>
     </g>
     <g id="text_5">
      <!-- 20 -->
      <g transform="translate(324.503644 389.9225) scale(0.14 -0.14)">
       <use xlink:href="#Cambria-32"/>
       <use xlink:href="#Cambria-30" x="55.371094"/>
      </g>
     </g>
    </g>
    <g id="xtick_6">
     <g id="line2d_11">
      <path d="M 392.785726 373.14 
L 392.785726 24.38 
" clip-path="url(#p2f7d4166cc)" style="fill: none; stroke-dasharray: 0.8,1.32; stroke-dashoffset: 0; stroke: #b0b0b0; stroke-width: 0.8"/>
     </g>
     <g id="line2d_12">
      <g>
       <use xlink:href="#m0585b42a53" x="392.785726" y="373.14" style="stroke: #000000; stroke-width: 0.8"/>
      </g>
     </g>
     <g id="text_6">
      <!-- 40 -->
      <g transform="translate(385.033226 389.9225) scale(0.14 -0.14)">
       <use xlink:href="#Cambria-34"/>
       <use xlink:href="#Cambria-30" x="55.371094"/>
      </g>
     </g>
    </g>
    <g id="xtick_7">
     <g id="line2d_13">
      <path d="M 453.315307 373.14 
L 453.315307 24.38 
" clip-path="url(#p2f7d4166cc)" style="fill: none; stroke-dasharray: 0.8,1.32; stroke-dashoffset: 0; stroke: #b0b0b0; stroke-width: 0.8"/>
     </g>
     <g id="line2d_14">
      <g>
       <use xlink:href="#m0585b42a53" x="453.315307" y="373.14" style="stroke: #000000; stroke-width: 0.8"/>
      </g>
     </g>
     <g id="text_7">
      <!-- 60 -->
      <g transform="translate(445.562807 389.9225) scale(0.14 -0.14)">
       <use xlink:href="#Cambria-36"/>
       <use xlink:href="#Cambria-30" x="55.371094"/>
      </g>
     </g>
    </g>
    <g id="text_8">
     <!-- Displacement (mm) -->
     <g transform="translate(214.282812 406.67125) scale(0.14 -0.14)">
      <defs>
       <path id="Cambria-Italic-44" d="M 2134 4266 
Q 2606 4266 2900 4194 
Q 3194 4122 3448 3934 
Q 3703 3747 3831 3436 
Q 3959 3125 3959 2700 
Q 3959 2278 3862 1893 
Q 3766 1509 3584 1186 
Q 3403 863 3150 623 
Q 2897 384 2659 256 
Q 2422 128 2128 64 
Q 1834 0 1444 0 
L 131 0 
L 166 153 
Q 284 172 343 214 
Q 403 256 443 331 
Q 484 406 518 514 
Q 553 622 622 931 
L 1153 3338 
Q 1184 3481 1203 3614 
Q 1222 3747 1222 3841 
Q 1222 3988 1147 4045 
Q 1072 4103 916 4113 
L 950 4266 
L 2134 4266 
z
M 1038 288 
Q 1128 278 1384 278 
Q 1700 278 1958 347 
Q 2216 416 2433 567 
Q 2650 719 2828 972 
Q 3006 1225 3117 1486 
Q 3228 1747 3290 2047 
Q 3353 2347 3353 2681 
Q 3353 3334 3048 3664 
Q 2744 3994 2144 3994 
Q 2006 3994 1847 3984 
L 1038 288 
z
" transform="scale(0.015625)"/>
       <path id="Cambria-Italic-69" d="M 1750 4213 
L 1606 3606 
L 1053 3606 
L 1197 4213 
L 1750 4213 
z
M 978 781 
Q 944 622 934 548 
Q 925 475 925 425 
Q 925 331 956 278 
Q 988 225 1053 197 
Q 1119 169 1269 153 
L 1241 0 
L 272 0 
L 744 2106 
Q 784 2288 800 2395 
Q 816 2503 816 2575 
Q 816 2666 789 2716 
Q 763 2766 700 2791 
Q 638 2816 484 2822 
L 519 2988 
L 1281 3016 
L 1466 3016 
L 978 781 
z
" transform="scale(0.015625)"/>
       <path id="Cambria-Italic-73" d="M 2063 2259 
Q 2028 2541 1901 2667 
Q 1775 2794 1509 2794 
Q 1363 2794 1244 2739 
Q 1125 2684 1056 2579 
Q 988 2475 988 2334 
Q 988 2219 1034 2123 
Q 1081 2028 1192 1925 
Q 1303 1822 1503 1688 
Q 1806 1484 1928 1293 
Q 2050 1103 2050 853 
Q 2050 559 1909 354 
Q 1769 150 1525 50 
Q 1281 -50 975 -50 
Q 700 -50 461 -9 
Q 222 31 -3 94 
L 144 769 
L 388 769 
Q 409 481 551 339 
Q 694 197 966 197 
Q 1244 197 1400 336 
Q 1556 475 1556 703 
Q 1556 838 1509 944 
Q 1463 1050 1363 1147 
Q 1263 1244 1078 1369 
Q 881 1503 759 1622 
Q 638 1741 570 1883 
Q 503 2025 503 2197 
Q 503 2456 631 2647 
Q 759 2838 995 2938 
Q 1231 3038 1547 3038 
Q 2063 3038 2456 2903 
L 2313 2259 
L 2063 2259 
z
" transform="scale(0.015625)"/>
       <path id="Cambria-Italic-70" d="M 669 -553 
Q 638 -703 630 -784 
Q 622 -866 622 -919 
Q 622 -1013 653 -1066 
Q 684 -1119 750 -1147 
Q 816 -1175 966 -1191 
L 941 -1344 
L -25 -1344 
L 766 2131 
Q 825 2394 825 2581 
Q 825 2669 798 2717 
Q 772 2766 708 2789 
Q 644 2813 491 2822 
L 528 2988 
L 1238 3016 
L 1416 3016 
L 1206 2203 
L 1244 2191 
Q 1822 3038 2394 3038 
Q 2734 3038 2923 2778 
Q 3113 2519 3113 2047 
Q 3113 1709 3020 1368 
Q 2928 1028 2764 753 
Q 2600 478 2398 301 
Q 2197 125 1973 37 
Q 1750 -50 1503 -50 
Q 1088 -50 813 131 
L 669 -553 
z
M 1044 1088 
Q 1013 922 1005 834 
Q 997 747 997 663 
Q 997 419 1101 308 
Q 1206 197 1463 197 
Q 1622 197 1756 259 
Q 1891 322 2011 440 
Q 2131 559 2228 728 
Q 2325 897 2401 1120 
Q 2478 1344 2517 1580 
Q 2556 1816 2556 2022 
Q 2556 2350 2464 2511 
Q 2372 2672 2172 2672 
Q 2013 2672 1858 2564 
Q 1703 2456 1518 2218 
Q 1334 1981 1231 1750 
Q 1128 1519 1069 1219 
L 1044 1088 
z
" transform="scale(0.015625)"/>
       <path id="Cambria-Italic-6c" d="M 1578 4469 
L 1763 4469 
L 950 781 
Q 916 631 906 554 
Q 897 478 897 425 
Q 897 331 928 278 
Q 959 225 1025 197 
Q 1091 169 1241 153 
L 1216 0 
L 241 0 
L 1047 3588 
Q 1078 3725 1090 3794 
Q 1103 3863 1109 3925 
Q 1116 3988 1116 4034 
Q 1116 4128 1081 4176 
Q 1047 4225 983 4247 
Q 919 4269 753 4278 
L 791 4441 
L 1578 4469 
z
" transform="scale(0.015625)"/>
       <path id="Cambria-Italic-61" d="M 2606 2834 
L 2894 3041 
L 3094 2991 
L 2616 869 
Q 2572 681 2556 579 
Q 2541 478 2541 413 
Q 2541 284 2612 226 
Q 2684 169 2888 153 
L 2859 0 
L 1966 0 
L 2163 784 
L 2122 797 
Q 1822 359 1553 156 
Q 1284 -47 984 -47 
Q 641 -47 452 212 
Q 263 472 263 941 
Q 263 1241 331 1542 
Q 400 1844 539 2114 
Q 678 2384 872 2590 
Q 1066 2797 1320 2919 
Q 1575 3041 1875 3041 
Q 2069 3041 2244 2995 
Q 2419 2950 2606 2834 
z
M 2331 1903 
Q 2359 2031 2368 2125 
Q 2378 2219 2378 2328 
Q 2378 2572 2275 2683 
Q 2172 2794 1931 2794 
Q 1800 2794 1681 2751 
Q 1563 2709 1441 2611 
Q 1319 2513 1208 2353 
Q 1097 2194 1006 1966 
Q 916 1738 866 1477 
Q 816 1216 816 969 
Q 816 644 905 483 
Q 994 322 1203 322 
Q 1300 322 1404 365 
Q 1509 409 1637 526 
Q 1766 644 1928 872 
Q 2075 1081 2161 1286 
Q 2247 1491 2303 1769 
L 2331 1903 
z
" transform="scale(0.015625)"/>
       <path id="Cambria-Italic-63" d="M 2297 2238 
Q 2291 2475 2258 2581 
Q 2225 2688 2151 2741 
Q 2078 2794 1944 2794 
Q 1628 2794 1376 2542 
Q 1125 2291 965 1830 
Q 806 1369 806 944 
Q 806 813 829 697 
Q 853 581 911 497 
Q 969 413 1064 364 
Q 1159 316 1306 316 
Q 1591 316 1798 423 
Q 2006 531 2238 763 
L 2428 572 
Q 2134 247 1836 97 
Q 1538 -53 1194 -53 
Q 741 -53 506 215 
Q 272 484 272 997 
Q 272 1331 397 1731 
Q 522 2131 762 2434 
Q 1003 2738 1325 2888 
Q 1647 3038 2013 3038 
Q 2263 3038 2448 3009 
Q 2634 2981 2778 2944 
L 2625 2238 
L 2297 2238 
z
" transform="scale(0.015625)"/>
       <path id="Cambria-Italic-65" d="M 2544 622 
Q 2313 369 2100 222 
Q 1888 75 1675 12 
Q 1463 -50 1206 -50 
Q 959 -50 781 29 
Q 603 109 486 248 
Q 369 388 312 580 
Q 256 772 256 997 
Q 256 1331 376 1714 
Q 497 2097 740 2401 
Q 984 2706 1325 2873 
Q 1666 3041 2050 3041 
Q 2428 3041 2617 2887 
Q 2806 2734 2806 2409 
Q 2806 1878 2307 1612 
Q 1809 1347 828 1347 
Q 791 1159 791 941 
Q 791 613 919 464 
Q 1047 316 1338 316 
Q 1625 316 1859 441 
Q 2094 566 2350 825 
L 2544 622 
z
M 881 1613 
Q 1169 1616 1386 1645 
Q 1603 1675 1759 1726 
Q 1916 1778 2019 1850 
Q 2122 1922 2183 2008 
Q 2244 2094 2267 2189 
Q 2291 2284 2291 2388 
Q 2291 2578 2202 2686 
Q 2113 2794 1938 2794 
Q 1719 2794 1508 2636 
Q 1297 2478 1136 2211 
Q 975 1944 881 1613 
z
" transform="scale(0.015625)"/>
       <path id="Cambria-Italic-6d" d="M 2997 2375 
L 2997 2331 
Q 2997 2309 2994 2284 
Q 3266 2669 3534 2853 
Q 3803 3038 4091 3038 
Q 4388 3038 4542 2870 
Q 4697 2703 4697 2375 
Q 4697 2175 4634 1894 
L 4372 781 
Q 4319 556 4319 425 
Q 4319 331 4350 278 
Q 4381 225 4447 197 
Q 4513 169 4663 153 
L 4634 0 
L 3653 0 
L 4047 1588 
Q 4091 1759 4123 1936 
Q 4156 2113 4156 2256 
Q 4156 2481 4078 2576 
Q 4000 2672 3831 2672 
Q 3709 2672 3557 2572 
Q 3406 2472 3240 2265 
Q 3075 2059 2970 1857 
Q 2866 1656 2803 1366 
L 2519 0 
L 1978 0 
L 2338 1588 
Q 2403 1878 2426 2017 
Q 2450 2156 2450 2256 
Q 2450 2481 2370 2576 
Q 2291 2672 2122 2672 
Q 1997 2672 1845 2570 
Q 1694 2469 1525 2256 
Q 1356 2044 1254 1839 
Q 1153 1634 1097 1353 
L 813 0 
L 272 0 
L 747 2134 
Q 763 2206 789 2347 
Q 816 2488 816 2581 
Q 816 2669 789 2717 
Q 763 2766 698 2789 
Q 634 2813 481 2822 
L 519 2988 
L 1231 3016 
L 1406 3016 
L 1200 2206 
L 1238 2194 
Q 1525 2622 1809 2830 
Q 2094 3038 2384 3038 
Q 2684 3038 2840 2867 
Q 2997 2697 2997 2375 
z
" transform="scale(0.015625)"/>
       <path id="Cambria-Italic-6e" d="M 2947 0 
L 1963 0 
L 2359 1588 
Q 2397 1741 2433 1925 
Q 2469 2109 2469 2256 
Q 2469 2478 2392 2575 
Q 2316 2672 2153 2672 
Q 2022 2672 1870 2570 
Q 1719 2469 1553 2267 
Q 1388 2066 1273 1858 
Q 1159 1650 1097 1353 
L 813 0 
L 272 0 
L 747 2134 
Q 763 2206 789 2347 
Q 816 2488 816 2581 
Q 816 2669 789 2717 
Q 763 2766 698 2789 
Q 634 2813 481 2822 
L 519 2988 
L 1228 3016 
L 1406 3016 
L 1197 2203 
L 1234 2191 
Q 1541 2622 1825 2830 
Q 2109 3038 2394 3038 
Q 2697 3038 2853 2870 
Q 3009 2703 3009 2375 
Q 3009 2263 2989 2130 
Q 2969 1997 2944 1894 
L 2681 781 
Q 2628 556 2628 425 
Q 2628 331 2659 278 
Q 2691 225 2756 197 
Q 2822 169 2972 153 
L 2947 0 
z
" transform="scale(0.015625)"/>
       <path id="Cambria-Italic-74" d="M 2109 575 
Q 1853 266 1603 108 
Q 1353 -50 1072 -50 
Q 741 -50 578 119 
Q 416 288 416 609 
Q 416 806 472 1050 
L 859 2672 
L 394 2672 
L 428 2831 
Q 613 2853 720 2911 
Q 828 2969 901 3064 
Q 975 3159 1037 3312 
Q 1100 3466 1194 3759 
L 1625 3759 
L 1453 2988 
L 2444 2988 
L 2375 2672 
L 1381 2672 
L 1081 1459 
Q 956 953 956 703 
Q 956 513 1039 414 
Q 1122 316 1281 316 
Q 1425 316 1583 427 
Q 1741 538 1928 763 
L 2109 575 
z
" transform="scale(0.015625)"/>
       <path id="Cambria-Italic-20" transform="scale(0.015625)"/>
       <path id="Cambria-Italic-28" d="M 1616 -1359 
Q 1172 -1359 897 -1200 
Q 622 -1041 498 -736 
Q 375 -431 375 28 
Q 375 353 431 747 
Q 506 1253 648 1875 
Q 791 2497 928 2906 
Q 1088 3372 1272 3667 
Q 1456 3963 1675 4134 
Q 1894 4306 2172 4391 
Q 2478 4484 2906 4484 
L 2850 4228 
Q 2575 4228 2397 4165 
Q 2219 4103 2078 3978 
Q 1916 3834 1769 3575 
Q 1597 3266 1438 2766 
Q 1300 2334 1163 1713 
Q 1050 1203 981 797 
Q 888 228 888 -147 
Q 888 -513 977 -722 
Q 1066 -931 1233 -1017 
Q 1400 -1103 1672 -1103 
L 1616 -1359 
z
" transform="scale(0.015625)"/>
       <path id="Cambria-Italic-29" d="M 794 4484 
Q 1238 4484 1513 4325 
Q 1788 4166 1911 3861 
Q 2034 3556 2034 3097 
Q 2034 2778 1978 2394 
Q 1903 1850 1747 1184 
Q 1600 569 1466 178 
Q 1313 -263 1133 -552 
Q 953 -841 733 -1012 
Q 513 -1184 234 -1266 
Q -72 -1359 -497 -1359 
L -441 -1103 
Q -166 -1103 11 -1040 
Q 188 -978 325 -856 
Q 494 -709 644 -441 
Q 819 -125 973 367 
Q 1128 859 1266 1506 
Q 1375 2006 1438 2394 
Q 1522 2922 1522 3272 
Q 1522 3641 1431 3850 
Q 1341 4059 1173 4143 
Q 1006 4228 738 4228 
L 794 4484 
z
" transform="scale(0.015625)"/>
      </defs>
      <use xlink:href="#Cambria-Italic-44"/>
      <use xlink:href="#Cambria-Italic-69" x="64.648438"/>
      <use xlink:href="#Cambria-Italic-73" x="91.748047"/>
      <use xlink:href="#Cambria-Italic-70" x="129.931641"/>
      <use xlink:href="#Cambria-Italic-6c" x="182.617188"/>
      <use xlink:href="#Cambria-Italic-61" x="209.277344"/>
      <use xlink:href="#Cambria-Italic-63" x="261.865234"/>
      <use xlink:href="#Cambria-Italic-65" x="305.175781"/>
      <use xlink:href="#Cambria-Italic-6d" x="350.878906"/>
      <use xlink:href="#Cambria-Italic-65" x="430.761719"/>
      <use xlink:href="#Cambria-Italic-6e" x="476.464844"/>
      <use xlink:href="#Cambria-Italic-74" x="529.980469"/>
      <use xlink:href="#Cambria-Italic-20" x="564.501953"/>
      <use xlink:href="#Cambria-Italic-28" x="586.523438"/>
      <use xlink:href="#Cambria-Italic-6d" x="623.681641"/>
      <use xlink:href="#Cambria-Italic-6d" x="703.564453"/>
      <use xlink:href="#Cambria-Italic-29" x="783.447266"/>
     </g>
    </g>
   </g>
   <g id="matplotlib.axis_2">
    <g id="ytick_1">
     <g id="line2d_15">
      <path d="M 61.991563 359.64239 
L 481.461563 359.64239 
" clip-path="url(#p2f7d4166cc)" style="fill: none; stroke-dasharray: 0.8,1.32; stroke-dashoffset: 0; stroke: #b0b0b0; stroke-width: 0.8"/>
     </g>
     <g id="line2d_16">
      <defs>
       <path id="mb2e6c66719" d="M 0 0 
L -3.5 0 
" style="stroke: #000000; stroke-width: 0.8"/>
      </defs>
      <g>
       <use xlink:href="#mb2e6c66719" x="61.991563" y="359.64239" style="stroke: #000000; stroke-width: 0.8"/>
      </g>
     </g>
     <g id="text_9">
      <!-- −400 -->
      <g transform="translate(23.981563 364.53364) scale(0.14 -0.14)">
       <use xlink:href="#Cambria-2212"/>
       <use xlink:href="#Cambria-34" x="55.371094"/>
       <use xlink:href="#Cambria-30" x="110.742188"/>
       <use xlink:href="#Cambria-30" x="166.113281"/>
      </g>
     </g>
    </g>
    <g id="ytick_2">
     <g id="line2d_17">
      <path d="M 61.991563 319.466388 
L 481.461563 319.466388 
" clip-path="url(#p2f7d4166cc)" style="fill: none; stroke-dasharray: 0.8,1.32; stroke-dashoffset: 0; stroke: #b0b0b0; stroke-width: 0.8"/>
     </g>
     <g id="line2d_18">
      <g>
       <use xlink:href="#mb2e6c66719" x="61.991563" y="319.466388" style="stroke: #000000; stroke-width: 0.8"/>
      </g>
     </g>
     <g id="text_10">
      <!-- −300 -->
      <g transform="translate(23.981563 324.357638) scale(0.14 -0.14)">
       <defs>
        <path id="Cambria-33" d="M 497 3381 
L 497 3975 
Q 859 4147 1175 4231 
Q 1491 4316 1784 4316 
Q 2138 4316 2403 4206 
Q 2669 4097 2809 3892 
Q 2950 3688 2950 3403 
Q 2950 3138 2844 2936 
Q 2738 2734 2545 2584 
Q 2353 2434 2047 2291 
L 2047 2263 
Q 2238 2228 2414 2145 
Q 2591 2063 2728 1931 
Q 2866 1800 2948 1617 
Q 3031 1434 3031 1200 
Q 3031 838 2873 556 
Q 2716 275 2391 112 
Q 2066 -50 1600 -50 
Q 1331 -50 1020 11 
Q 709 72 450 172 
L 450 834 
L 825 834 
Q 934 509 1114 362 
Q 1294 216 1603 216 
Q 2009 216 2217 437 
Q 2425 659 2425 1094 
Q 2425 1550 2150 1790 
Q 1875 2031 1344 2031 
L 1063 2031 
L 1063 2306 
Q 1484 2331 1773 2468 
Q 2063 2606 2203 2822 
Q 2344 3038 2344 3306 
Q 2344 3653 2159 3840 
Q 1975 4028 1622 4028 
Q 1328 4028 1143 3868 
Q 959 3709 872 3381 
L 497 3381 
z
" transform="scale(0.015625)"/>
       </defs>
       <use xlink:href="#Cambria-2212"/>
       <use xlink:href="#Cambria-33" x="55.371094"/>
       <use xlink:href="#Cambria-30" x="110.742188"/>
       <use xlink:href="#Cambria-30" x="166.113281"/>
      </g>
     </g>
    </g>
    <g id="ytick_3">
     <g id="line2d_19">
      <path d="M 61.991563 279.290386 
L 481.461563 279.290386 
" clip-path="url(#p2f7d4166cc)" style="fill: none; stroke-dasharray: 0.8,1.32; stroke-dashoffset: 0; stroke: #b0b0b0; stroke-width: 0.8"/>
     </g>
     <g id="line2d_20">
      <g>
       <use xlink:href="#mb2e6c66719" x="61.991563" y="279.290386" style="stroke: #000000; stroke-width: 0.8"/>
      </g>
     </g>
     <g id="text_11">
      <!-- −200 -->
      <g transform="translate(23.981563 284.181636) scale(0.14 -0.14)">
       <use xlink:href="#Cambria-2212"/>
       <use xlink:href="#Cambria-32" x="55.371094"/>
       <use xlink:href="#Cambria-30" x="110.742188"/>
       <use xlink:href="#Cambria-30" x="166.113281"/>
      </g>
     </g>
    </g>
    <g id="ytick_4">
     <g id="line2d_21">
      <path d="M 61.991563 239.114384 
L 481.461563 239.114384 
" clip-path="url(#p2f7d4166cc)" style="fill: none; stroke-dasharray: 0.8,1.32; stroke-dashoffset: 0; stroke: #b0b0b0; stroke-width: 0.8"/>
     </g>
     <g id="line2d_22">
      <g>
       <use xlink:href="#mb2e6c66719" x="61.991563" y="239.114384" style="stroke: #000000; stroke-width: 0.8"/>
      </g>
     </g>
     <g id="text_12">
      <!-- −100 -->
      <g transform="translate(23.981563 244.005634) scale(0.14 -0.14)">
       <defs>
        <path id="Cambria-31" d="M 2172 816 
Q 2172 634 2192 542 
Q 2213 450 2264 392 
Q 2316 334 2412 301 
Q 2509 269 2656 251 
Q 2803 234 3044 228 
L 3044 0 
L 734 0 
L 734 228 
Q 1081 244 1229 270 
Q 1378 297 1456 350 
Q 1534 403 1570 500 
Q 1606 597 1606 816 
L 1606 3350 
Q 1606 3475 1562 3533 
Q 1519 3591 1434 3591 
Q 1334 3591 1150 3487 
Q 966 3384 694 3203 
L 556 3444 
L 2019 4316 
L 2191 4316 
Q 2172 4016 2172 3484 
L 2172 816 
z
" transform="scale(0.015625)"/>
       </defs>
       <use xlink:href="#Cambria-2212"/>
       <use xlink:href="#Cambria-31" x="55.371094"/>
       <use xlink:href="#Cambria-30" x="110.742188"/>
       <use xlink:href="#Cambria-30" x="166.113281"/>
      </g>
     </g>
    </g>
    <g id="ytick_5">
     <g id="line2d_23">
      <path d="M 61.991563 198.938381 
L 481.461563 198.938381 
" clip-path="url(#p2f7d4166cc)" style="fill: none; stroke-dasharray: 0.8,1.32; stroke-dashoffset: 0; stroke: #b0b0b0; stroke-width: 0.8"/>
     </g>
     <g id="line2d_24">
      <g>
       <use xlink:href="#mb2e6c66719" x="61.991563" y="198.938381" style="stroke: #000000; stroke-width: 0.8"/>
      </g>
     </g>
     <g id="text_13">
      <!-- 0 -->
      <g transform="translate(47.239063 203.829631) scale(0.14 -0.14)">
       <use xlink:href="#Cambria-30"/>
      </g>
     </g>
    </g>
    <g id="ytick_6">
     <g id="line2d_25">
      <path d="M 61.991563 158.762379 
L 481.461563 158.762379 
" clip-path="url(#p2f7d4166cc)" style="fill: none; stroke-dasharray: 0.8,1.32; stroke-dashoffset: 0; stroke: #b0b0b0; stroke-width: 0.8"/>
     </g>
     <g id="line2d_26">
      <g>
       <use xlink:href="#mb2e6c66719" x="61.991563" y="158.762379" style="stroke: #000000; stroke-width: 0.8"/>
      </g>
     </g>
     <g id="text_14">
      <!-- 100 -->
      <g transform="translate(31.734063 163.653629) scale(0.14 -0.14)">
       <use xlink:href="#Cambria-31"/>
       <use xlink:href="#Cambria-30" x="55.371094"/>
       <use xlink:href="#Cambria-30" x="110.742188"/>
      </g>
     </g>
    </g>
    <g id="ytick_7">
     <g id="line2d_27">
      <path d="M 61.991563 118.586377 
L 481.461563 118.586377 
" clip-path="url(#p2f7d4166cc)" style="fill: none; stroke-dasharray: 0.8,1.32; stroke-dashoffset: 0; stroke: #b0b0b0; stroke-width: 0.8"/>
     </g>
     <g id="line2d_28">
      <g>
       <use xlink:href="#mb2e6c66719" x="61.991563" y="118.586377" style="stroke: #000000; stroke-width: 0.8"/>
      </g>
     </g>
     <g id="text_15">
      <!-- 200 -->
      <g transform="translate(31.734063 123.477627) scale(0.14 -0.14)">
       <use xlink:href="#Cambria-32"/>
       <use xlink:href="#Cambria-30" x="55.371094"/>
       <use xlink:href="#Cambria-30" x="110.742188"/>
      </g>
     </g>
    </g>
    <g id="ytick_8">
     <g id="line2d_29">
      <path d="M 61.991563 78.410375 
L 481.461563 78.410375 
" clip-path="url(#p2f7d4166cc)" style="fill: none; stroke-dasharray: 0.8,1.32; stroke-dashoffset: 0; stroke: #b0b0b0; stroke-width: 0.8"/>
     </g>
     <g id="line2d_30">
      <g>
       <use xlink:href="#mb2e6c66719" x="61.991563" y="78.410375" style="stroke: #000000; stroke-width: 0.8"/>
      </g>
     </g>
     <g id="text_16">
      <!-- 300 -->
      <g transform="translate(31.734063 83.301625) scale(0.14 -0.14)">
       <use xlink:href="#Cambria-33"/>
       <use xlink:href="#Cambria-30" x="55.371094"/>
       <use xlink:href="#Cambria-30" x="110.742188"/>
      </g>
     </g>
    </g>
    <g id="ytick_9">
     <g id="line2d_31">
      <path d="M 61.991563 38.234373 
L 481.461563 38.234373 
" clip-path="url(#p2f7d4166cc)" style="fill: none; stroke-dasharray: 0.8,1.32; stroke-dashoffset: 0; stroke: #b0b0b0; stroke-width: 0.8"/>
     </g>
     <g id="line2d_32">
      <g>
       <use xlink:href="#mb2e6c66719" x="61.991563" y="38.234373" style="stroke: #000000; stroke-width: 0.8"/>
      </g>
     </g>
     <g id="text_17">
      <!-- 400 -->
      <g transform="translate(31.734063 43.125623) scale(0.14 -0.14)">
       <use xlink:href="#Cambria-34"/>
       <use xlink:href="#Cambria-30" x="55.371094"/>
       <use xlink:href="#Cambria-30" x="110.742188"/>
      </g>
     </g>
    </g>
    <g id="text_18">
     <!-- Base Shear (kN) -->
     <g transform="translate(17.00875 245.760625) rotate(-90) scale(0.14 -0.14)">
      <defs>
       <path id="Cambria-Italic-42" d="M 2797 2184 
Q 3088 2069 3244 1855 
Q 3400 1641 3400 1369 
Q 3400 1047 3283 792 
Q 3166 538 2912 347 
Q 2659 156 2331 78 
Q 2003 0 1522 0 
L 131 0 
L 166 153 
Q 284 172 343 214 
Q 403 256 443 331 
Q 484 406 518 514 
Q 553 622 622 931 
L 1153 3338 
Q 1222 3650 1222 3831 
Q 1222 3984 1150 4043 
Q 1078 4103 916 4113 
L 950 4266 
L 2497 4266 
Q 2966 4266 3248 4167 
Q 3531 4069 3664 3878 
Q 3797 3688 3797 3400 
Q 3797 2991 3547 2686 
Q 3297 2381 2803 2219 
L 2797 2184 
z
M 1934 2353 
Q 2259 2353 2457 2397 
Q 2656 2441 2781 2528 
Q 2906 2616 3004 2733 
Q 3103 2850 3161 3009 
Q 3219 3169 3219 3384 
Q 3219 3519 3172 3636 
Q 3125 3753 3011 3836 
Q 2897 3919 2748 3955 
Q 2600 3991 2353 3991 
Q 2081 3991 1847 3981 
L 1494 2353 
L 1934 2353 
z
M 1041 288 
Q 1284 275 1497 275 
Q 1969 275 2226 394 
Q 2484 513 2643 781 
Q 2803 1050 2803 1425 
Q 2803 1628 2723 1768 
Q 2644 1909 2470 1993 
Q 2297 2078 1994 2078 
L 1428 2078 
L 1041 288 
z
" transform="scale(0.015625)"/>
       <path id="Cambria-Italic-53" d="M 497 972 
Q 497 594 672 408 
Q 847 222 1219 222 
Q 1506 222 1712 328 
Q 1919 434 2025 629 
Q 2131 825 2131 1094 
Q 2131 1284 2064 1429 
Q 1997 1575 1861 1708 
Q 1725 1841 1469 2013 
Q 1238 2169 1084 2320 
Q 931 2472 840 2659 
Q 750 2847 750 3078 
Q 750 3447 928 3728 
Q 1106 4009 1431 4162 
Q 1756 4316 2181 4316 
Q 2469 4316 2714 4277 
Q 2959 4238 3256 4144 
L 3081 3341 
L 2781 3341 
Q 2769 3606 2700 3757 
Q 2631 3909 2503 3975 
Q 2375 4041 2163 4041 
Q 1903 4041 1706 3934 
Q 1509 3828 1406 3645 
Q 1303 3463 1303 3238 
Q 1303 3075 1359 2947 
Q 1416 2819 1539 2695 
Q 1663 2572 1900 2409 
Q 2206 2197 2367 2030 
Q 2528 1863 2604 1675 
Q 2681 1488 2681 1241 
Q 2681 863 2498 567 
Q 2316 272 1983 111 
Q 1650 -50 1225 -50 
Q 934 -50 607 -6 
Q 281 38 9 113 
L 197 972 
L 497 972 
z
" transform="scale(0.015625)"/>
       <path id="Cambria-Italic-68" d="M 2916 0 
L 1934 0 
L 2328 1588 
Q 2372 1759 2405 1936 
Q 2438 2113 2438 2256 
Q 2438 2481 2363 2576 
Q 2288 2672 2109 2672 
Q 1981 2672 1826 2565 
Q 1672 2459 1500 2242 
Q 1328 2025 1226 1826 
Q 1125 1628 1066 1353 
L 781 0 
L 241 0 
L 1044 3572 
Q 1078 3728 1092 3798 
Q 1106 3869 1112 3928 
Q 1119 3988 1119 4034 
Q 1119 4166 1039 4219 
Q 959 4272 753 4278 
L 791 4441 
L 1581 4469 
L 1763 4469 
L 1225 2303 
L 1263 2291 
Q 1556 2681 1822 2859 
Q 2088 3038 2363 3038 
Q 2666 3038 2822 2870 
Q 2978 2703 2978 2375 
Q 2978 2175 2916 1894 
L 2653 781 
Q 2622 647 2609 565 
Q 2597 484 2597 425 
Q 2597 328 2630 275 
Q 2663 222 2730 195 
Q 2797 169 2944 153 
L 2916 0 
z
" transform="scale(0.015625)"/>
       <path id="Cambria-Italic-72" d="M 1244 3016 
L 1431 3016 
L 1213 2247 
L 1250 2234 
Q 1547 2644 1830 2841 
Q 2113 3038 2413 3038 
Q 2641 3038 2794 3003 
L 2644 2303 
L 2322 2303 
Q 2297 2466 2244 2550 
Q 2191 2634 2078 2634 
Q 1956 2634 1797 2509 
Q 1638 2384 1472 2165 
Q 1306 1947 1223 1762 
Q 1141 1578 1097 1353 
L 813 0 
L 272 0 
L 747 2134 
Q 813 2428 813 2581 
Q 813 2669 784 2717 
Q 756 2766 693 2789 
Q 631 2813 481 2822 
L 516 2988 
L 1244 3016 
z
" transform="scale(0.015625)"/>
       <path id="Cambria-Italic-6b" d="M 1150 1741 
L 1250 1741 
Q 1347 1741 1459 1778 
Q 1572 1816 1700 1895 
Q 1828 1975 2044 2147 
Q 2206 2278 2284 2370 
Q 2363 2463 2391 2531 
Q 2419 2600 2419 2663 
Q 2419 2816 2206 2834 
L 2241 2988 
L 3253 2988 
L 3313 2834 
Q 3053 2600 2763 2375 
L 1972 1759 
L 2441 575 
Q 2503 416 2568 330 
Q 2634 244 2720 203 
Q 2806 163 2941 153 
L 2906 0 
L 2072 0 
L 1616 1284 
Q 1572 1406 1540 1450 
Q 1509 1494 1468 1512 
Q 1428 1531 1338 1531 
L 1106 1531 
L 781 0 
L 241 0 
L 1044 3572 
Q 1078 3728 1092 3798 
Q 1106 3869 1112 3928 
Q 1119 3988 1119 4034 
Q 1119 4166 1039 4219 
Q 959 4272 753 4278 
L 791 4441 
L 1581 4469 
L 1763 4469 
L 1150 1741 
z
" transform="scale(0.015625)"/>
       <path id="Cambria-Italic-4e" d="M 4463 4266 
L 4428 4113 
Q 4309 4088 4257 4056 
Q 4206 4025 4164 3962 
Q 4122 3900 4080 3767 
Q 4038 3634 3972 3334 
L 3238 0 
L 2813 0 
L 1900 2681 
Q 1734 3163 1609 3641 
L 1569 3641 
Q 1550 3481 1465 3032 
Q 1381 2584 1288 2156 
L 1013 909 
Q 984 778 965 656 
Q 947 534 947 422 
Q 947 281 1017 223 
Q 1088 166 1253 153 
L 1219 0 
L 125 0 
L 159 153 
Q 278 172 337 214 
Q 397 256 437 331 
Q 478 406 512 514 
Q 547 622 616 931 
L 1147 3338 
Q 1178 3472 1197 3594 
Q 1216 3716 1216 3841 
Q 1216 3988 1141 4045 
Q 1066 4103 909 4113 
L 944 4266 
L 1941 4266 
L 2766 1831 
Q 2944 1306 3041 944 
L 3075 944 
Q 3100 1134 3189 1578 
Q 3278 2022 3353 2353 
L 3572 3338 
Q 3594 3441 3617 3581 
Q 3641 3722 3641 3841 
Q 3641 3988 3566 4045 
Q 3491 4103 3334 4113 
L 3369 4266 
L 4463 4266 
z
" transform="scale(0.015625)"/>
      </defs>
      <use xlink:href="#Cambria-Italic-42"/>
      <use xlink:href="#Cambria-Italic-61" x="59.619141"/>
      <use xlink:href="#Cambria-Italic-73" x="112.207031"/>
      <use xlink:href="#Cambria-Italic-65" x="150.390625"/>
      <use xlink:href="#Cambria-Italic-20" x="196.09375"/>
      <use xlink:href="#Cambria-Italic-53" x="218.115234"/>
      <use xlink:href="#Cambria-Italic-68" x="266.259766"/>
      <use xlink:href="#Cambria-Italic-65" x="319.287109"/>
      <use xlink:href="#Cambria-Italic-61" x="364.990234"/>
      <use xlink:href="#Cambria-Italic-72" x="417.578125"/>
      <use xlink:href="#Cambria-Italic-20" x="458.300781"/>
      <use xlink:href="#Cambria-Italic-28" x="480.322266"/>
      <use xlink:href="#Cambria-Italic-6b" x="517.480469"/>
      <use xlink:href="#Cambria-Italic-4e" x="567.1875"/>
      <use xlink:href="#Cambria-Italic-29" x="634.277344"/>
     </g>
    </g>
   </g>
   <g id="line2d_33">
    <path d="M 274.753042 151.690599 
L 277.779521 135.459093 
L 280.806 124.520774 
L 283.832479 114.952056 
L 286.858958 106.382917 
L 289.885437 98.391106 
L 295.938395 83.357246 
L 289.885437 99.141192 
L 286.858958 107.357185 
L 283.832479 115.933958 
L 280.806 125.266039 
L 277.779521 136.72544 
L 274.753042 156.34981 
L 268.700083 244.506003 
L 265.673604 261.083023 
L 262.647125 272.061919 
L 259.620646 281.492031 
L 256.594167 290.004924 
L 253.567688 297.76291 
L 250.541209 305.106279 
L 247.51473 312.053915 
L 250.541209 304.027956 
L 253.567688 295.486537 
L 256.594167 286.108655 
L 259.620646 275.116903 
L 262.647125 260.900624 
L 265.673604 240.801776 
L 268.700083 212.099678 
L 271.726562 173.77812 
L 274.753042 141.885646 
L 277.779521 128.347137 
L 280.806 119.148841 
L 283.832479 111.445093 
L 286.858958 104.643697 
L 289.885437 98.641403 
L 292.911916 93.483206 
L 295.938395 88.920015 
L 292.911916 97.023917 
L 289.885437 105.691086 
L 286.858958 115.223244 
L 283.832479 126.327489 
L 280.806 140.424043 
L 277.779521 160.054399 
L 274.753042 188.112074 
L 271.726562 225.757269 
L 268.700083 256.27034 
L 265.673604 269.051933 
L 262.647125 278.022833 
L 259.620646 285.704484 
L 256.594167 292.2821 
L 253.567688 298.227344 
L 250.541209 303.402013 
L 247.51473 308.074482 
L 250.541209 299.953305 
L 253.567688 291.27087 
L 256.594167 281.754782 
L 259.620646 270.738522 
L 262.647125 256.855303 
L 265.673604 237.599909 
L 268.700083 209.981037 
L 271.726562 172.667454 
L 274.753042 143.779945 
L 277.779521 131.312528 
L 280.806 122.104188 
L 283.832479 114.682073 
L 286.858958 107.999197 
L 289.885437 101.939852 
L 292.911916 96.706928 
L 295.938395 91.939644 
L 298.964874 87.676568 
L 301.991353 83.845385 
L 305.017832 80.33119 
L 308.044311 77.127154 
L 311.07079 74.162165 
L 314.09727 71.404484 
L 317.123749 68.843665 
L 320.150228 66.663716 
L 323.176707 64.654514 
L 326.203186 62.793963 
L 332.256144 59.460962 
L 338.309102 56.546996 
L 329.229665 77.954779 
L 323.176707 91.828356 
L 317.123749 105.253167 
L 311.07079 118.213142 
L 305.017832 130.750867 
L 295.938395 149.189643 
L 292.911916 155.572807 
L 286.858958 169.112722 
L 283.832479 176.145732 
L 280.806 184.007251 
L 277.779521 196.003625 
L 274.753042 216.725302 
L 271.726562 243.125957 
L 268.700083 260.843976 
L 265.673604 270.532017 
L 262.647125 277.856906 
L 259.620646 284.317207 
L 256.594167 290.212232 
L 253.567688 295.53957 
L 250.541209 300.294801 
L 247.51473 304.74108 
L 244.488251 308.82939 
L 241.461772 312.619192 
L 238.435293 315.927686 
L 235.408814 318.919994 
L 232.382335 321.654775 
L 229.355855 324.175819 
L 226.329376 326.509241 
L 223.302897 328.66388 
L 220.276418 330.667055 
L 214.22346 334.285708 
L 208.170502 337.477691 
L 205.144023 338.940901 
L 217.249939 310.25162 
L 226.329376 289.463351 
L 235.408814 269.376555 
L 241.461772 256.005178 
L 256.594167 222.053765 
L 259.620646 215.298974 
L 262.647125 206.809704 
L 265.673604 194.190422 
L 268.700083 176.753876 
L 271.726562 161.529984 
L 274.753042 149.965442 
L 277.779521 141.762306 
L 280.806 134.732711 
L 283.832479 128.585782 
L 286.858958 123.009353 
L 289.885437 117.825042 
L 292.911916 113.093112 
L 295.938395 108.652459 
L 298.964874 104.456879 
L 301.991353 100.566235 
L 305.017832 96.896961 
L 308.044311 93.478385 
L 311.07079 90.269126 
L 314.09727 87.260345 
L 317.123749 84.43316 
L 323.176707 79.22635 
L 329.229665 74.56513 
L 332.256144 72.467541 
L 338.309102 68.669703 
L 323.176707 104.728067 
L 317.123749 118.483928 
L 311.07079 131.641569 
L 305.017832 144.194561 
L 295.938395 162.210203 
L 283.832479 185.968684 
L 280.806 193.471794 
L 277.779521 205.02384 
L 274.753042 220.733903 
L 271.726562 234.31315 
L 268.700083 246.86112 
L 265.673604 255.109655 
L 262.647125 262.128805 
L 259.620646 268.258457 
L 256.594167 273.858992 
L 253.567688 279.059374 
L 250.541209 283.84072 
L 247.51473 288.336013 
L 244.488251 292.587839 
L 241.461772 296.494152 
L 238.435293 300.141731 
L 235.408814 303.587627 
L 232.382335 306.825009 
L 229.355855 309.862716 
L 226.329376 312.718427 
L 220.276418 317.982286 
L 217.249939 320.398069 
L 211.196981 324.708151 
L 205.144023 328.552592 
L 220.276418 292.328302 
L 226.329376 278.513784 
L 232.382335 265.287844 
L 238.435293 252.651687 
L 247.51473 234.389565 
L 253.567688 222.422299 
L 256.594167 216.587619 
L 259.620646 210.431771 
L 262.647125 202.544571 
L 265.673604 190.828413 
L 268.700083 176.78682 
L 271.726562 164.568575 
L 274.753042 154.994674 
L 277.779521 147.164371 
L 280.806 140.294275 
L 283.832479 134.128865 
L 286.858958 128.415034 
L 289.885437 123.200591 
L 292.911916 118.308359 
L 295.938395 113.758025 
L 298.964874 109.471648 
L 301.991353 105.456458 
L 305.017832 101.675896 
L 308.044311 98.140408 
L 311.07079 94.793345 
L 314.09727 91.629485 
L 317.123749 88.657264 
L 320.150228 85.850971 
L 323.176707 83.209399 
L 329.229665 78.423231 
L 335.282623 74.143684 
L 341.335581 70.354685 
L 347.388539 66.96825 
L 353.441498 63.906437 
L 359.494456 61.120231 
L 365.547414 58.58392 
L 368.573893 57.397121 
L 359.494456 78.755889 
L 353.441498 92.514964 
L 347.388539 105.63725 
L 341.335581 117.992978 
L 335.282623 129.512643 
L 329.229665 140.18138 
L 323.176707 150.042178 
L 317.123749 159.146382 
L 311.07079 167.586114 
L 305.017832 175.530155 
L 301.991353 179.384239 
L 298.964874 183.508386 
L 295.938395 187.994358 
L 289.885437 197.688088 
L 280.806 212.80095 
L 277.779521 218.513375 
L 274.753042 226.050634 
L 271.726562 235.081958 
L 268.700083 243.149661 
L 265.673604 250.629629 
L 262.647125 257.168675 
L 259.620646 263.136017 
L 256.594167 268.808869 
L 253.567688 274.099244 
L 250.541209 278.915142 
L 247.51473 283.355795 
L 244.488251 287.577891 
L 241.461772 291.542058 
L 238.435293 295.243071 
L 235.408814 298.742802 
L 232.382335 302.05893 
L 229.355855 305.195872 
L 226.329376 308.145192 
L 223.302897 310.904078 
L 217.249939 315.960228 
L 211.196981 320.494492 
L 205.144023 324.50245 
L 199.091065 328.096193 
L 193.038107 331.349244 
L 186.985148 334.305394 
L 180.93219 336.992767 
L 174.879232 339.454752 
L 183.958669 318.023668 
L 190.011627 304.212765 
L 196.064586 291.047893 
L 202.117544 278.648373 
L 208.170502 267.065632 
L 214.22346 256.316542 
L 220.276418 246.380214 
L 226.329376 237.236035 
L 232.382335 228.783727 
L 238.435293 220.84061 
L 241.461772 216.97142 
L 244.488251 212.825056 
L 247.51473 208.177215 
L 250.541209 203.222268 
L 256.594167 192.71998 
L 262.647125 184.370443 
L 265.673604 179.274318 
L 268.700083 173.144745 
L 277.779521 152.81834 
L 280.806 146.524367 
L 283.832479 140.614879 
L 286.858958 135.184289 
L 292.911916 125.091274 
L 295.938395 120.34247 
L 298.964874 116.108723 
L 301.991353 112.080677 
L 305.017832 108.24869 
L 308.044311 104.642492 
L 314.09727 97.953991 
L 317.123749 94.870081 
L 323.176707 89.247852 
L 329.229665 84.180051 
L 332.256144 81.835379 
L 338.309102 77.554626 
L 344.36206 73.709381 
L 350.415018 70.215676 
L 356.467977 67.030522 
L 362.520935 64.117361 
L 368.573893 61.460923 
L 359.494456 82.900445 
L 353.441498 96.676796 
L 347.388539 109.755692 
L 341.335581 122.001337 
L 335.282623 133.347844 
L 329.229665 143.80164 
L 323.176707 153.403704 
L 320.150228 157.899399 
L 314.09727 166.303094 
L 308.044311 174.037175 
L 298.964874 185.140817 
L 295.938395 189.201607 
L 292.911916 193.575046 
L 289.885437 198.251681 
L 286.858958 203.139184 
L 283.832479 207.606555 
L 280.806 211.795425 
L 277.779521 216.897617 
L 274.753042 223.414405 
L 268.700083 237.238687 
L 265.673604 244.116296 
L 262.647125 250.623201 
L 259.620646 256.52827 
L 256.594167 262.086218 
L 250.541209 272.425512 
L 247.51473 277.007987 
L 244.488251 281.28874 
L 241.461772 285.373032 
L 238.435293 289.24841 
L 232.382335 296.350321 
L 229.355855 299.624666 
L 226.329376 302.705362 
L 220.276418 308.361741 
L 214.22346 313.454853 
L 208.170502 317.993937 
L 202.117544 322.060954 
L 196.064586 325.743888 
L 190.011627 329.094567 
L 183.958669 332.153568 
L 177.905711 334.93214 
L 174.879232 336.233441 
L 183.958669 314.771018 
L 190.011627 300.987034 
L 196.064586 287.918182 
L 202.117544 275.693428 
L 208.170502 264.362992 
L 214.22346 253.922053 
L 220.276418 244.337264 
L 223.302897 239.85322 
L 229.355855 231.472024 
L 235.408814 223.758312 
L 244.488251 212.612203 
L 247.51473 208.521523 
L 250.541209 204.140049 
L 253.567688 199.481742 
L 259.620646 189.893076 
L 262.647125 185.307548 
L 265.673604 179.674712 
L 271.726562 166.727714 
L 277.779521 153.884611 
L 280.806 147.735674 
L 283.832479 141.9893 
L 289.885437 131.586528 
L 292.911916 126.660147 
L 295.938395 122.001739 
L 298.964874 117.734646 
L 301.991353 113.69294 
L 305.017832 109.856534 
L 308.044311 106.223016 
L 311.07079 102.770692 
L 317.123749 96.406412 
L 323.176707 90.723918 
L 329.229665 85.585407 
L 335.282623 80.99329 
L 341.335581 76.875652 
L 347.388539 73.139685 
L 353.441498 69.73718 
L 359.494456 66.634789 
L 365.547414 63.815237 
L 371.600372 61.219867 
L 377.65333 58.829395 
L 386.732767 55.565497 
L 395.812205 52.613364 
L 398.838684 51.689316 
L 389.759246 72.788145 
L 383.706288 86.289291 
L 377.65333 99.080526 
L 371.600372 111.048556 
L 365.547414 122.144766 
L 362.520935 127.361218 
L 359.494456 132.355095 
L 356.467977 137.133629 
L 350.415018 146.071182 
L 344.36206 154.236954 
L 338.309102 161.702379 
L 332.256144 168.552789 
L 326.203186 174.847967 
L 311.07079 190.00348 
L 298.964874 203.034968 
L 295.938395 206.249409 
L 292.911916 209.121391 
L 286.858958 214.060709 
L 283.832479 216.59477 
L 280.806 219.364584 
L 277.779521 222.660663 
L 274.753042 226.839048 
L 271.726562 231.688412 
L 268.700083 237.228602 
L 262.647125 249.123833 
L 259.620646 254.895517 
L 253.567688 265.175753 
L 247.51473 274.882677 
L 244.488251 279.246594 
L 238.435293 287.110645 
L 232.382335 294.155105 
L 229.355855 297.415789 
L 223.302897 303.41728 
L 217.249939 308.835818 
L 211.196981 313.70073 
L 205.144023 318.077102 
L 199.091065 322.027206 
L 193.038107 325.625771 
L 186.985148 328.902927 
L 180.93219 331.88479 
L 174.879232 334.623186 
L 168.826274 337.147445 
L 162.773316 339.477653 
L 153.693879 342.674457 
L 144.614441 345.571951 
L 153.693879 324.407634 
L 159.746837 310.85426 
L 165.799795 298.012001 
L 171.852753 286.000582 
L 177.905711 274.872633 
L 180.93219 269.642922 
L 183.958669 264.635787 
L 186.985148 259.848013 
L 190.011627 255.273172 
L 193.038107 250.902826 
L 196.064586 246.731754 
L 202.117544 238.953238 
L 208.170502 231.847228 
L 214.22346 225.331604 
L 223.302897 216.251386 
L 232.382335 207.209415 
L 244.488251 194.323284 
L 247.51473 191.409238 
L 259.620646 181.587973 
L 262.647125 178.713621 
L 265.673604 175.311758 
L 268.700083 171.397692 
L 271.726562 166.87287 
L 274.753042 161.908 
L 286.858958 140.679563 
L 292.911916 131.125709 
L 298.964874 122.175299 
L 301.991353 117.949588 
L 305.017832 114.115592 
L 308.044311 110.498546 
L 314.09727 103.773485 
L 317.123749 100.632124 
L 323.176707 94.831512 
L 329.229665 89.558412 
L 335.282623 84.804386 
L 341.335581 80.509973 
L 347.388539 76.608481 
L 353.441498 73.046879 
L 359.494456 69.802667 
L 365.547414 66.820804 
L 371.600372 64.07397 
L 377.65333 61.536454 
L 383.706288 59.18214 
L 392.785726 55.93833 
L 398.838684 53.941181 
L 389.759246 75.060902 
L 383.706288 88.56044 
L 377.65333 101.321544 
L 371.600372 113.228506 
L 365.547414 124.235525 
L 362.520935 129.400552 
L 359.494456 134.343003 
L 356.467977 139.066898 
L 353.441498 143.578261 
L 350.415018 147.884325 
L 347.388539 151.991116 
L 344.36206 155.905464 
L 338.309102 163.197609 
L 332.256144 169.862286 
L 326.203186 175.991135 
L 311.07079 190.712024 
L 298.964874 203.545645 
L 295.938395 206.422447 
L 283.832479 215.883534 
L 280.806 218.536717 
L 277.779521 221.621109 
L 274.753042 225.262823 
L 271.726562 229.613 
L 268.700083 234.578714 
L 265.673604 239.942813 
L 259.620646 251.089243 
L 256.594167 256.415375 
L 250.541209 266.212695 
L 244.488251 275.482906 
L 241.461772 279.592911 
L 238.435293 283.500027 
L 235.408814 287.183765 
L 229.355855 294.017703 
L 223.302897 300.207218 
L 217.249939 305.79811 
L 211.196981 310.839797 
L 205.144023 315.380488 
L 199.091065 319.498529 
L 193.038107 323.242932 
L 186.985148 326.643027 
L 180.93219 329.758274 
L 174.879232 332.620814 
L 168.826274 335.257565 
L 162.773316 337.695445 
L 153.693879 341.042106 
L 144.614441 344.075394 
L 153.693879 322.953665 
L 159.746837 309.456135 
L 165.799795 296.699049 
L 171.852753 284.802533 
L 177.905711 273.813191 
L 180.93219 268.657807 
L 183.958669 263.72339 
L 186.985148 259.005522 
L 190.011627 254.497373 
L 193.038107 250.192916 
L 196.064586 246.086527 
L 199.091065 242.172179 
L 205.144023 234.884373 
L 211.196981 228.230946 
L 217.249939 222.113386 
L 229.355855 210.501236 
L 235.408814 204.185247 
L 244.488251 194.597003 
L 247.51473 191.643102 
L 256.594167 184.427894 
L 259.620646 181.834493 
L 262.647125 178.920287 
L 265.673604 175.500787 
L 268.700083 171.578283 
L 271.726562 167.077807 
L 274.753042 162.283645 
L 286.858958 141.450942 
L 289.885437 136.610135 
L 295.938395 127.505851 
L 301.991353 118.79248 
L 305.017832 114.940003 
L 311.07079 107.873848 
L 317.123749 101.401092 
L 323.176707 95.56151 
L 329.229665 90.247431 
L 335.282623 85.466486 
L 341.335581 81.125871 
L 347.388539 77.178579 
L 353.441498 73.594478 
L 359.494456 70.314911 
L 365.547414 67.30171 
L 371.600372 64.528361 
L 377.65333 61.968346 
L 383.706288 59.592337 
L 392.785726 56.321207 
L 401.865163 53.361441 
L 410.9446 50.657998 
L 420.024037 48.164675 
L 432.129954 45.110094 
L 423.050516 66.065897 
L 416.997558 79.419998 
L 410.9446 92.040486 
L 404.891642 103.82933 
L 398.838684 114.745953 
L 392.785726 124.789552 
L 386.732767 133.991865 
L 380.679809 142.402711 
L 374.626851 150.087979 
L 368.573893 157.119583 
L 362.520935 163.558711 
L 356.467977 169.468079 
L 350.415018 175.001238 
L 344.36206 180.177072 
L 329.229665 192.392264 
L 323.176707 197.082001 
L 320.150228 199.715791 
L 311.07079 208.489222 
L 308.044311 210.856392 
L 298.964874 217.421552 
L 292.911916 222.070799 
L 286.858958 227.187454 
L 265.673604 245.96158 
L 262.647125 248.916525 
L 259.620646 252.206939 
L 256.594167 255.9417 
L 247.51473 268.032668 
L 241.461772 275.92203 
L 238.435293 279.784952 
L 232.382335 287.019445 
L 226.329376 293.422294 
L 220.276418 299.314909 
L 214.22346 304.77322 
L 208.170502 309.81571 
L 202.117544 314.500232 
L 199.091065 316.729197 
L 196.064586 318.797859 
L 190.011627 322.496864 
L 183.958669 325.889727 
L 177.905711 329.011804 
L 171.852753 331.892424 
L 165.799795 334.549263 
L 159.746837 337.016069 
L 150.667399 340.409334 
L 141.587962 343.473156 
L 132.508525 346.272218 
L 123.429088 348.844286 
L 114.349651 351.218286 
L 111.323171 351.972389 
L 120.402609 330.924985 
L 126.455567 317.506201 
L 132.508525 304.825047 
L 138.561483 292.983573 
L 144.614441 282.02597 
L 150.667399 271.954248 
L 153.693879 267.242004 
L 156.720358 262.744703 
L 162.773316 254.349927 
L 168.826274 246.687962 
L 174.879232 239.687695 
L 180.93219 233.289546 
L 186.985148 227.416056 
L 193.038107 221.918814 
L 199.091065 216.775321 
L 214.22346 204.591547 
L 220.276418 199.89721 
L 223.302897 197.28628 
L 226.329376 194.343332 
L 229.355855 191.560701 
L 235.408814 187.148533 
L 244.488251 180.63982 
L 250.541209 175.960079 
L 259.620646 168.34074 
L 271.726562 157.976537 
L 277.779521 152.588533 
L 280.806 149.680192 
L 283.832479 146.529188 
L 286.858958 143.058384 
L 301.991353 124.023797 
L 308.044311 116.777252 
L 314.09727 109.98349 
L 317.123749 106.770213 
L 323.176707 100.943889 
L 329.229665 95.564323 
L 335.282623 90.569642 
L 341.335581 85.904405 
L 347.388539 81.536872 
L 353.441498 77.466239 
L 359.494456 73.945616 
L 365.547414 70.719081 
L 371.600372 67.739629 
L 377.65333 64.987573 
L 383.706288 62.433986 
L 389.759246 60.061593 
L 398.838684 56.798096 
L 407.918121 53.821456 
L 416.997558 51.086676 
L 426.076995 48.556793 
L 432.129954 46.969038 
L 423.050516 67.922831 
L 416.997558 81.268898 
L 410.9446 93.863673 
L 404.891642 105.606716 
L 398.838684 116.461067 
L 395.812205 121.55458 
L 392.785726 126.429536 
L 389.759246 131.091158 
L 386.732767 135.546676 
L 383.706288 139.802922 
L 377.65333 147.745316 
L 371.600372 154.986639 
L 365.547414 161.605193 
L 359.494456 167.664417 
L 353.441498 173.277768 
L 347.388539 178.530218 
L 341.335581 183.46809 
L 326.203186 195.442716 
L 323.176707 197.759589 
L 320.150228 200.291332 
L 314.09727 206.039168 
L 308.044311 210.4519 
L 295.938395 219.08733 
L 289.885437 223.872814 
L 274.753042 236.707439 
L 265.673604 244.589971 
L 262.647125 247.398675 
L 259.620646 250.466917 
L 256.594167 253.884689 
L 247.51473 265.387882 
L 241.461772 273.247513 
L 235.408814 280.625033 
L 229.355855 287.565035 
L 223.302897 293.749729 
L 217.249939 299.437847 
L 211.196981 304.718581 
L 205.144023 309.63532 
L 199.091065 314.23266 
L 193.038107 318.492923 
L 186.985148 322.156975 
L 180.93219 325.528545 
L 174.879232 328.638569 
L 168.826274 331.50593 
L 162.773316 334.163171 
L 156.720358 336.631585 
L 147.64092 340.015609 
L 138.561483 343.091886 
L 129.482046 345.909027 
L 120.402609 348.508013 
L 111.323171 350.920983 
L 120.402609 329.956342 
L 126.455567 316.604651 
L 132.508525 304.004252 
L 138.561483 292.25719 
L 144.614441 281.400429 
L 147.64092 276.306916 
L 150.667399 271.432763 
L 153.693879 266.772347 
L 156.720358 262.318837 
L 159.746837 258.065806 
L 165.799795 250.130242 
L 171.852753 242.896552 
L 177.905711 236.287158 
L 183.958669 230.237134 
L 190.011627 224.635113 
L 196.064586 219.391623 
L 202.117544 214.462951 
L 217.249939 202.481085 
L 220.276418 200.155923 
L 223.302897 197.635751 
L 229.355855 191.853906 
L 235.408814 187.418757 
L 244.488251 180.921333 
L 250.541209 176.256336 
L 259.620646 168.682638 
L 271.726562 158.341737 
L 277.779521 152.97824 
L 280.806 150.069498 
L 283.832479 146.953045 
L 286.858958 143.539692 
L 305.017832 121.028275 
L 308.044311 117.438147 
L 314.09727 110.685766 
L 317.123749 107.468874 
L 323.176707 101.627283 
L 329.229665 96.239681 
L 335.282623 91.221699 
L 341.335581 86.526329 
L 347.388539 82.132682 
L 353.441498 78.039551 
L 359.494456 74.460271 
L 365.547414 71.211237 
L 371.600372 68.217322 
L 377.65333 65.443169 
L 383.706288 62.868289 
L 389.759246 60.481031 
L 398.838684 57.184188 
L 407.918121 54.179425 
L 416.997558 51.420539 
L 426.076995 48.870166 
L 438.182912 45.742464 
L 450.288828 42.879924 
L 462.394744 40.232727 
L 453.315307 61.070814 
L 447.262349 74.316039 
L 441.209391 86.814391 
L 435.156433 98.470655 
L 429.103474 109.250278 
L 423.050516 119.161296 
L 420.024037 123.800419 
L 413.971079 132.470802 
L 407.918121 140.380251 
L 401.865163 147.597067 
L 395.812205 154.18111 
L 389.759246 160.196703 
L 383.706288 165.716082 
L 377.65333 170.801801 
L 371.600372 175.500706 
L 362.520935 182.130068 
L 356.467977 186.291056 
L 350.415018 190.416609 
L 341.335581 196.551477 
L 335.282623 200.414508 
L 329.229665 204.872497 
L 326.203186 207.133201 
L 323.176707 209.02525 
L 305.017832 218.892837 
L 298.964874 222.443793 
L 292.911916 226.405951 
L 286.858958 230.652273 
L 268.700083 243.960815 
L 262.647125 248.546504 
L 259.620646 251.064735 
L 256.594167 253.871833 
L 253.567688 257.03971 
L 247.51473 264.197065 
L 241.461772 271.648107 
L 235.408814 279.002726 
L 229.355855 285.870411 
L 226.329376 289.194574 
L 223.302897 292.283305 
L 217.249939 297.972227 
L 211.196981 303.239702 
L 205.144023 308.137157 
L 199.091065 312.730881 
L 193.038107 317.022482 
L 190.011627 319.06503 
L 183.958669 322.666406 
L 177.905711 325.962044 
L 171.852753 329.000153 
L 165.799795 331.814884 
L 159.746837 334.422708 
L 153.693879 336.843714 
L 144.614441 340.185152 
L 135.535004 343.229288 
L 126.455567 346.020716 
L 117.37613 348.598811 
L 105.270213 351.758251 
L 93.164297 354.636862 
L 81.058381 357.287273 
L 90.137818 336.376869 
L 96.190776 323.083835 
L 102.243734 310.542896 
L 108.296692 298.850474 
L 114.349651 288.042326 
L 120.402609 278.109613 
L 123.429088 273.462053 
L 126.455567 269.020596 
L 129.482046 264.785242 
L 135.535004 256.880613 
L 141.587962 249.674244 
L 147.64092 243.107476 
L 153.693879 237.114342 
L 159.746837 231.620193 
L 165.799795 226.562075 
L 171.852753 221.891132 
L 180.93219 215.301665 
L 186.985148 211.160725 
L 193.038107 207.06225 
L 202.117544 200.972621 
L 208.170502 197.140421 
L 214.22346 192.677152 
L 217.249939 190.679481 
L 241.461772 177.476562 
L 247.51473 173.733484 
L 253.567688 169.659276 
L 265.673604 160.970091 
L 274.753042 154.391632 
L 280.806 149.763357 
L 283.832479 147.255169 
L 286.858958 144.495881 
L 289.885437 141.437684 
L 292.911916 138.063301 
L 311.07079 116.826267 
L 317.123749 110.315344 
L 320.150228 107.138225 
L 326.203186 101.495506 
L 332.256144 96.291107 
L 338.309102 91.43423 
L 344.36206 86.866218 
L 350.415018 82.593902 
L 356.467977 78.591569 
L 359.494456 76.677584 
L 365.547414 73.326102 
L 371.600372 70.228934 
L 377.65333 67.353939 
L 383.706288 64.693886 
L 389.759246 62.218241 
L 398.838684 58.808905 
L 407.918121 55.70089 
L 416.997558 52.848795 
L 426.076995 50.213651 
L 438.182912 46.985108 
L 450.288828 44.028958 
L 462.394744 41.301007 
L 453.315307 62.112176 
L 447.262349 75.335304 
L 441.209391 87.801516 
L 435.156433 99.416398 
L 429.103474 110.145801 
L 423.050516 120.002581 
L 420.024037 124.614786 
L 416.997558 129.024103 
L 410.9446 137.26179 
L 404.891642 144.777113 
L 398.838684 151.628728 
L 392.785726 157.87449 
L 386.732767 163.581692 
L 380.679809 168.822973 
L 374.626851 173.659721 
L 368.573893 178.144046 
L 362.520935 182.482211 
L 356.467977 186.603585 
L 350.415018 190.66325 
L 341.335581 196.765382 
L 335.282623 200.61669 
L 326.203186 207.138464 
L 317.123749 211.995662 
L 305.017832 218.529968 
L 298.964874 222.030262 
L 292.911916 225.854214 
L 286.858958 230.032438 
L 268.700083 243.111896 
L 262.647125 247.665846 
L 259.620646 250.120198 
L 256.594167 252.830069 
L 253.567688 255.862955 
L 250.541209 259.240954 
L 232.382335 280.8002 
L 226.329376 287.444105 
L 223.302897 290.621625 
L 217.249939 296.304119 
L 211.196981 301.555123 
L 205.144023 306.477085 
L 199.091065 311.105762 
L 193.038107 315.427896 
L 186.985148 319.484065 
L 180.93219 322.99143 
L 174.879232 326.213546 
L 168.826274 329.195007 
L 162.773316 331.954295 
L 156.720358 334.517122 
L 147.64092 338.043369 
L 138.561483 341.248611 
L 129.482046 344.181861 
L 120.402609 346.884099 
L 111.323171 349.389474 
L 99.217255 352.471375 
L 87.111339 355.301373 
L 81.058381 356.635216 
L 90.137818 335.818021 
L 96.190776 322.591679 
L 102.243734 310.121852 
L 108.296692 298.504157 
L 114.349651 287.773147 
L 120.402609 277.917973 
L 123.429088 273.308179 
L 126.455567 268.901675 
L 132.508525 260.670416 
L 138.561483 253.162726 
L 144.614441 246.317539 
L 150.667399 240.077402 
L 156.720358 234.375263 
L 162.773316 229.139205 
L 168.826274 224.307639 
L 174.879232 219.831791 
L 180.93219 215.502224 
L 186.985148 211.388242 
L 193.038107 207.323876 
L 202.117544 201.235039 
L 208.170502 197.389548 
L 217.249939 190.902096 
L 223.302897 187.608628 
L 235.408814 181.11241 
L 241.461772 177.681098 
L 247.51473 173.951359 
L 253.567688 169.878075 
L 268.700083 159.039313 
L 271.726562 156.848395 
L 271.726562 156.848395 
" clip-path="url(#p2f7d4166cc)" style="fill: none; stroke: #0000ff; stroke-width: 1.2; stroke-linecap: square"/>
   </g>
   <g id="line2d_34">
    <path d="M 61.991563 198.938381 
L 481.461563 198.938381 
" clip-path="url(#p2f7d4166cc)" style="fill: none; stroke: #000000; stroke-width: 0.4; stroke-linecap: square"/>
   </g>
   <g id="line2d_35">
    <path d="M 271.726562 373.14 
L 271.726562 24.38 
" clip-path="url(#p2f7d4166cc)" style="fill: none; stroke: #000000; stroke-width: 0.4; stroke-linecap: square"/>
   </g>
   <g id="patch_3">
    <path d="M 61.991563 373.14 
L 61.991563 24.38 
" style="fill: none; stroke: #000000; stroke-width: 0.8; stroke-linejoin: miter; stroke-linecap: square"/>
   </g>
   <g id="patch_4">
    <path d="M 481.461563 373.14 
L 481.461563 24.38 
" style="fill: none; stroke: #000000; stroke-width: 0.8; stroke-linejoin: miter; stroke-linecap: square"/>
   </g>
   <g id="patch_5">
    <path d="M 61.991563 373.14 
L 481.461563 373.14 
" style="fill: none; stroke: #000000; stroke-width: 0.8; stroke-linejoin: miter; stroke-linecap: square"/>
   </g>
   <g id="patch_6">
    <path d="M 61.991563 24.38 
L 481.461563 24.38 
" style="fill: none; stroke: #000000; stroke-width: 0.8; stroke-linejoin: miter; stroke-linecap: square"/>
   </g>
   <g id="text_19">
    <!-- Specimen -->
    <g transform="translate(238.632812 18.38) scale(0.16 -0.16)">
     <defs>
      <path id="Cambria-53" d="M 663 972 
Q 725 697 831 537 
Q 938 378 1106 301 
Q 1275 225 1541 225 
Q 1906 225 2101 415 
Q 2297 606 2297 972 
Q 2297 1206 2215 1365 
Q 2134 1525 1950 1665 
Q 1766 1806 1388 1994 
Q 1022 2175 809 2348 
Q 597 2522 492 2725 
Q 388 2928 388 3169 
Q 388 3519 552 3776 
Q 716 4034 1033 4175 
Q 1350 4316 1759 4316 
Q 1997 4316 2223 4291 
Q 2450 4266 2791 4178 
L 2791 3334 
L 2481 3334 
Q 2409 3609 2300 3762 
Q 2191 3916 2044 3977 
Q 1897 4038 1663 4038 
Q 1459 4038 1298 3963 
Q 1138 3888 1044 3736 
Q 950 3584 950 3375 
Q 950 3153 1029 3000 
Q 1109 2847 1278 2715 
Q 1447 2584 1778 2422 
Q 2178 2222 2398 2050 
Q 2619 1878 2742 1658 
Q 2866 1438 2866 1144 
Q 2866 816 2762 589 
Q 2659 363 2476 220 
Q 2294 78 2039 14 
Q 1784 -50 1481 -50 
Q 991 -50 350 116 
L 350 972 
L 663 972 
z
" transform="scale(0.015625)"/>
      <path id="Cambria-70" d="M 1150 94 
L 1150 -566 
Q 1150 -769 1164 -869 
Q 1178 -969 1214 -1026 
Q 1250 -1084 1317 -1121 
Q 1384 -1159 1534 -1191 
L 1534 -1344 
L 259 -1344 
L 259 -1191 
Q 372 -1159 442 -1126 
Q 513 -1094 550 -1030 
Q 588 -966 600 -856 
Q 613 -747 613 -566 
L 613 2116 
Q 613 2341 606 2436 
Q 600 2531 581 2593 
Q 563 2656 527 2697 
Q 491 2738 430 2766 
Q 369 2794 228 2822 
L 228 2988 
L 963 3016 
L 1153 3016 
L 1113 2506 
L 1159 2494 
Q 1353 2691 1465 2780 
Q 1578 2869 1698 2928 
Q 1819 2988 1930 3013 
Q 2041 3038 2166 3038 
Q 2681 3038 2957 2652 
Q 3234 2266 3234 1522 
Q 3234 1006 3078 654 
Q 2922 303 2623 126 
Q 2325 -50 1913 -50 
Q 1681 -50 1493 -11 
Q 1306 28 1150 94 
z
M 1150 1125 
Q 1150 825 1187 662 
Q 1225 500 1320 398 
Q 1416 297 1545 247 
Q 1675 197 1888 197 
Q 2266 197 2456 511 
Q 2647 825 2647 1438 
Q 2647 2663 1931 2663 
Q 1756 2663 1629 2608 
Q 1503 2553 1378 2431 
Q 1253 2309 1201 2195 
Q 1150 2081 1150 1950 
L 1150 1125 
z
" transform="scale(0.015625)"/>
      <path id="Cambria-65" d="M 2800 531 
Q 2600 322 2433 203 
Q 2266 84 2066 17 
Q 1866 -50 1625 -50 
Q 981 -50 653 336 
Q 325 722 325 1475 
Q 325 1941 492 2297 
Q 659 2653 968 2847 
Q 1278 3041 1681 3041 
Q 1997 3041 2219 2941 
Q 2441 2841 2573 2667 
Q 2706 2494 2779 2230 
Q 2853 1966 2863 1541 
L 894 1541 
L 894 1484 
Q 894 1116 976 864 
Q 1059 613 1248 470 
Q 1438 328 1741 328 
Q 1997 328 2201 423 
Q 2406 519 2609 734 
L 2800 531 
z
M 2275 1800 
Q 2256 2138 2190 2352 
Q 2125 2566 1994 2680 
Q 1863 2794 1650 2794 
Q 1328 2794 1136 2536 
Q 944 2278 909 1800 
L 2275 1800 
z
" transform="scale(0.015625)"/>
      <path id="Cambria-63" d="M 2631 2916 
L 2631 2263 
L 2234 2263 
Q 2181 2466 2103 2583 
Q 2025 2700 1922 2747 
Q 1819 2794 1666 2794 
Q 1447 2794 1278 2653 
Q 1109 2513 1011 2225 
Q 913 1938 913 1522 
Q 913 1256 950 1036 
Q 988 816 1078 659 
Q 1169 503 1319 415 
Q 1469 328 1691 328 
Q 1906 328 2092 412 
Q 2278 497 2478 709 
L 2656 503 
Q 2497 328 2375 233 
Q 2253 138 2114 73 
Q 1975 9 1839 -20 
Q 1703 -50 1544 -50 
Q 953 -50 640 342 
Q 328 734 328 1475 
Q 328 1938 503 2295 
Q 678 2653 993 2847 
Q 1309 3041 1722 3041 
Q 1978 3041 2195 3011 
Q 2413 2981 2631 2916 
z
" transform="scale(0.015625)"/>
      <path id="Cambria-69" d="M 1197 4213 
L 1197 3606 
L 622 3606 
L 622 4213 
L 1197 4213 
z
M 303 153 
Q 425 191 476 219 
Q 528 247 564 297 
Q 600 347 620 450 
Q 641 553 641 772 
L 641 2134 
Q 641 2334 634 2456 
Q 628 2578 590 2651 
Q 553 2725 476 2761 
Q 400 2797 259 2822 
L 259 2988 
L 988 3016 
L 1178 3016 
L 1178 781 
Q 1178 513 1203 408 
Q 1228 303 1298 248 
Q 1369 194 1528 153 
L 1528 0 
L 303 0 
L 303 153 
z
" transform="scale(0.015625)"/>
      <path id="Cambria-6d" d="M 1147 2506 
L 1191 2494 
Q 1378 2681 1498 2776 
Q 1619 2872 1731 2930 
Q 1844 2988 1942 3013 
Q 2041 3038 2144 3038 
Q 2456 3038 2653 2894 
Q 2850 2750 2925 2453 
Q 3159 2691 3304 2803 
Q 3450 2916 3601 2977 
Q 3753 3038 3928 3038 
Q 4138 3038 4289 2977 
Q 4441 2916 4545 2789 
Q 4650 2663 4698 2472 
Q 4747 2281 4747 1959 
L 4747 781 
Q 4747 544 4762 453 
Q 4778 363 4808 313 
Q 4838 263 4897 227 
Q 4956 191 5097 153 
L 5097 0 
L 3869 0 
L 3869 153 
Q 3991 191 4044 219 
Q 4097 247 4133 297 
Q 4169 347 4189 451 
Q 4209 556 4209 769 
L 4209 1588 
Q 4209 1853 4195 2026 
Q 4181 2200 4151 2303 
Q 4122 2406 4080 2465 
Q 4038 2525 3984 2569 
Q 3931 2613 3859 2638 
Q 3788 2663 3669 2663 
Q 3544 2663 3436 2613 
Q 3328 2563 3201 2444 
Q 3075 2325 3019 2204 
Q 2963 2084 2963 1922 
L 2963 781 
Q 2963 544 2978 453 
Q 2994 363 3023 313 
Q 3053 263 3112 227 
Q 3172 191 3313 153 
L 3313 0 
L 2084 0 
L 2084 153 
Q 2206 191 2259 219 
Q 2313 247 2348 297 
Q 2384 347 2404 451 
Q 2425 556 2425 769 
L 2425 1588 
Q 2425 1866 2409 2041 
Q 2394 2216 2361 2322 
Q 2328 2428 2276 2493 
Q 2225 2559 2172 2593 
Q 2119 2628 2047 2645 
Q 1975 2663 1884 2663 
Q 1756 2663 1643 2605 
Q 1531 2547 1414 2437 
Q 1297 2328 1237 2209 
Q 1178 2091 1178 1953 
L 1178 781 
Q 1178 603 1187 509 
Q 1197 416 1217 362 
Q 1238 309 1269 276 
Q 1300 244 1358 214 
Q 1416 184 1531 153 
L 1531 0 
L 306 0 
L 306 153 
Q 425 191 476 219 
Q 528 247 565 297 
Q 603 347 622 450 
Q 641 553 641 772 
L 641 2134 
Q 641 2334 634 2456 
Q 628 2578 590 2651 
Q 553 2725 476 2761 
Q 400 2797 259 2822 
L 259 2988 
L 991 3016 
L 1181 3016 
L 1147 2506 
z
" transform="scale(0.015625)"/>
      <path id="Cambria-6e" d="M 3347 0 
L 2116 0 
L 2116 153 
Q 2238 191 2291 219 
Q 2344 247 2380 297 
Q 2416 347 2436 451 
Q 2456 556 2456 769 
L 2456 1588 
Q 2456 1806 2443 1984 
Q 2431 2163 2401 2277 
Q 2372 2391 2330 2455 
Q 2288 2519 2230 2564 
Q 2172 2609 2097 2636 
Q 2022 2663 1900 2663 
Q 1778 2663 1668 2614 
Q 1559 2566 1428 2447 
Q 1297 2328 1237 2212 
Q 1178 2097 1178 1947 
L 1178 781 
Q 1178 513 1203 408 
Q 1228 303 1298 248 
Q 1369 194 1528 153 
L 1528 0 
L 303 0 
L 303 153 
Q 425 191 476 219 
Q 528 247 564 297 
Q 600 347 620 450 
Q 641 553 641 772 
L 641 2134 
Q 641 2334 634 2456 
Q 628 2578 590 2651 
Q 553 2725 476 2761 
Q 400 2797 259 2822 
L 259 2988 
L 991 3016 
L 1181 3016 
L 1147 2506 
L 1191 2494 
Q 1422 2728 1564 2828 
Q 1706 2928 1851 2983 
Q 1997 3038 2159 3038 
Q 2328 3038 2461 2998 
Q 2594 2959 2695 2878 
Q 2797 2797 2862 2676 
Q 2928 2556 2961 2387 
Q 2994 2219 2994 1959 
L 2994 781 
Q 2994 566 3006 469 
Q 3019 372 3050 319 
Q 3081 266 3140 230 
Q 3200 194 3347 153 
L 3347 0 
z
" transform="scale(0.015625)"/>
     </defs>
     <use xlink:href="#Cambria-53"/>
     <use xlink:href="#Cambria-70" x="49.609375"/>
     <use xlink:href="#Cambria-65" x="105.224609"/>
     <use xlink:href="#Cambria-63" x="154.003906"/>
     <use xlink:href="#Cambria-69" x="198.095703"/>
     <use xlink:href="#Cambria-6d" x="225.878906"/>
     <use xlink:href="#Cambria-65" x="309.082031"/>
     <use xlink:href="#Cambria-6e" x="357.861328"/>
    </g>
   </g>
   <g id="legend_1">
    <g id="patch_7">
     <path d="M 71.791563 55.374687 
L 198.618437 55.374687 
Q 201.418438 55.374687 201.418438 52.574687 
L 201.418438 34.18 
Q 201.418438 31.38 198.618437 31.38 
L 71.791563 31.38 
Q 68.991563 31.38 68.991563 34.18 
L 68.991563 52.574687 
Q 68.991563 55.374687 71.791563 55.374687 
z
" style="fill: #ffffff; opacity: 0.8; stroke: #cccccc; stroke-linejoin: miter"/>
    </g>
    <g id="line2d_36">
     <path d="M 74.591563 41.88 
L 88.591563 41.88 
L 102.591563 41.88 
" style="fill: none; stroke: #0000ff; stroke-width: 1.2; stroke-linecap: square"/>
    </g>
    <g id="text_20">
     <!-- Numerical test -->
     <g transform="translate(113.791563 46.78) scale(0.14 -0.14)">
      <defs>
       <path id="TimesNewRomanPSMT-4e" d="M -84 4238 
L 1066 4238 
L 3656 1059 
L 3656 3503 
Q 3656 3894 3569 3991 
Q 3453 4122 3203 4122 
L 3056 4122 
L 3056 4238 
L 4531 4238 
L 4531 4122 
L 4381 4122 
Q 4113 4122 4000 3959 
Q 3931 3859 3931 3503 
L 3931 -69 
L 3819 -69 
L 1025 3344 
L 1025 734 
Q 1025 344 1109 247 
Q 1228 116 1475 116 
L 1625 116 
L 1625 0 
L 150 0 
L 150 116 
L 297 116 
Q 569 116 681 278 
Q 750 378 750 734 
L 750 3681 
Q 566 3897 470 3965 
Q 375 4034 191 4094 
Q 100 4122 -84 4122 
L -84 4238 
z
" transform="scale(0.015625)"/>
       <path id="TimesNewRomanPSMT-75" d="M 2709 2863 
L 2709 1128 
Q 2709 631 2732 520 
Q 2756 409 2807 365 
Q 2859 322 2928 322 
Q 3025 322 3147 375 
L 3191 266 
L 2334 -88 
L 2194 -88 
L 2194 519 
Q 1825 119 1631 15 
Q 1438 -88 1222 -88 
Q 981 -88 804 51 
Q 628 191 559 409 
Q 491 628 491 1028 
L 491 2306 
Q 491 2509 447 2587 
Q 403 2666 317 2708 
Q 231 2750 6 2747 
L 6 2863 
L 1009 2863 
L 1009 947 
Q 1009 547 1148 422 
Q 1288 297 1484 297 
Q 1619 297 1789 381 
Q 1959 466 2194 703 
L 2194 2325 
Q 2194 2569 2105 2655 
Q 2016 2741 1734 2747 
L 1734 2863 
L 2709 2863 
z
" transform="scale(0.015625)"/>
       <path id="TimesNewRomanPSMT-6d" d="M 1050 2338 
Q 1363 2650 1419 2697 
Q 1559 2816 1721 2881 
Q 1884 2947 2044 2947 
Q 2313 2947 2506 2790 
Q 2700 2634 2766 2338 
Q 3088 2713 3309 2830 
Q 3531 2947 3766 2947 
Q 3994 2947 4170 2830 
Q 4347 2713 4450 2447 
Q 4519 2266 4519 1878 
L 4519 647 
Q 4519 378 4559 278 
Q 4591 209 4675 161 
Q 4759 113 4950 113 
L 4950 0 
L 3538 0 
L 3538 113 
L 3597 113 
Q 3781 113 3884 184 
Q 3956 234 3988 344 
Q 4000 397 4000 647 
L 4000 1878 
Q 4000 2228 3916 2372 
Q 3794 2572 3525 2572 
Q 3359 2572 3192 2489 
Q 3025 2406 2788 2181 
L 2781 2147 
L 2788 2013 
L 2788 647 
Q 2788 353 2820 281 
Q 2853 209 2943 161 
Q 3034 113 3253 113 
L 3253 0 
L 1806 0 
L 1806 113 
Q 2044 113 2133 169 
Q 2222 225 2256 338 
Q 2272 391 2272 647 
L 2272 1878 
Q 2272 2228 2169 2381 
Q 2031 2581 1784 2581 
Q 1616 2581 1450 2491 
Q 1191 2353 1050 2181 
L 1050 647 
Q 1050 366 1089 281 
Q 1128 197 1204 155 
Q 1281 113 1516 113 
L 1516 0 
L 100 0 
L 100 113 
Q 297 113 375 155 
Q 453 197 493 289 
Q 534 381 534 647 
L 534 1741 
Q 534 2213 506 2350 
Q 484 2453 437 2492 
Q 391 2531 309 2531 
Q 222 2531 100 2484 
L 53 2597 
L 916 2947 
L 1050 2947 
L 1050 2338 
z
" transform="scale(0.015625)"/>
       <path id="TimesNewRomanPSMT-65" d="M 681 1784 
Q 678 1147 991 784 
Q 1303 422 1725 422 
Q 2006 422 2214 576 
Q 2422 731 2563 1106 
L 2659 1044 
Q 2594 616 2278 264 
Q 1963 -88 1488 -88 
Q 972 -88 605 314 
Q 238 716 238 1394 
Q 238 2128 614 2539 
Q 991 2950 1559 2950 
Q 2041 2950 2350 2633 
Q 2659 2316 2659 1784 
L 681 1784 
z
M 681 1966 
L 2006 1966 
Q 1991 2241 1941 2353 
Q 1863 2528 1708 2628 
Q 1553 2728 1384 2728 
Q 1125 2728 920 2526 
Q 716 2325 681 1966 
z
" transform="scale(0.015625)"/>
       <path id="TimesNewRomanPSMT-72" d="M 1038 2947 
L 1038 2303 
Q 1397 2947 1775 2947 
Q 1947 2947 2059 2842 
Q 2172 2738 2172 2600 
Q 2172 2478 2090 2393 
Q 2009 2309 1897 2309 
Q 1788 2309 1652 2417 
Q 1516 2525 1450 2525 
Q 1394 2525 1328 2463 
Q 1188 2334 1038 2041 
L 1038 669 
Q 1038 431 1097 309 
Q 1138 225 1241 169 
Q 1344 113 1538 113 
L 1538 0 
L 72 0 
L 72 113 
Q 291 113 397 181 
Q 475 231 506 341 
Q 522 394 522 644 
L 522 1753 
Q 522 2253 501 2348 
Q 481 2444 426 2487 
Q 372 2531 291 2531 
Q 194 2531 72 2484 
L 41 2597 
L 906 2947 
L 1038 2947 
z
" transform="scale(0.015625)"/>
       <path id="TimesNewRomanPSMT-69" d="M 928 4444 
Q 1059 4444 1151 4351 
Q 1244 4259 1244 4128 
Q 1244 3997 1151 3903 
Q 1059 3809 928 3809 
Q 797 3809 703 3903 
Q 609 3997 609 4128 
Q 609 4259 701 4351 
Q 794 4444 928 4444 
z
M 1188 2947 
L 1188 647 
Q 1188 378 1227 289 
Q 1266 200 1342 156 
Q 1419 113 1622 113 
L 1622 0 
L 231 0 
L 231 113 
Q 441 113 512 153 
Q 584 194 626 287 
Q 669 381 669 647 
L 669 1750 
Q 669 2216 641 2353 
Q 619 2453 572 2492 
Q 525 2531 444 2531 
Q 356 2531 231 2484 
L 188 2597 
L 1050 2947 
L 1188 2947 
z
" transform="scale(0.015625)"/>
       <path id="TimesNewRomanPSMT-63" d="M 2631 1088 
Q 2516 522 2178 217 
Q 1841 -88 1431 -88 
Q 944 -88 581 321 
Q 219 731 219 1428 
Q 219 2103 620 2525 
Q 1022 2947 1584 2947 
Q 2006 2947 2278 2723 
Q 2550 2500 2550 2259 
Q 2550 2141 2473 2067 
Q 2397 1994 2259 1994 
Q 2075 1994 1981 2113 
Q 1928 2178 1911 2362 
Q 1894 2547 1784 2644 
Q 1675 2738 1481 2738 
Q 1169 2738 978 2506 
Q 725 2200 725 1697 
Q 725 1184 976 792 
Q 1228 400 1656 400 
Q 1963 400 2206 609 
Q 2378 753 2541 1131 
L 2631 1088 
z
" transform="scale(0.015625)"/>
       <path id="TimesNewRomanPSMT-61" d="M 1822 413 
Q 1381 72 1269 19 
Q 1100 -59 909 -59 
Q 613 -59 420 144 
Q 228 347 228 678 
Q 228 888 322 1041 
Q 450 1253 767 1440 
Q 1084 1628 1822 1897 
L 1822 2009 
Q 1822 2438 1686 2597 
Q 1550 2756 1291 2756 
Q 1094 2756 978 2650 
Q 859 2544 859 2406 
L 866 2225 
Q 866 2081 792 2003 
Q 719 1925 600 1925 
Q 484 1925 411 2006 
Q 338 2088 338 2228 
Q 338 2497 613 2722 
Q 888 2947 1384 2947 
Q 1766 2947 2009 2819 
Q 2194 2722 2281 2516 
Q 2338 2381 2338 1966 
L 2338 994 
Q 2338 584 2353 492 
Q 2369 400 2405 369 
Q 2441 338 2488 338 
Q 2538 338 2575 359 
Q 2641 400 2828 588 
L 2828 413 
Q 2478 -56 2159 -56 
Q 2006 -56 1915 50 
Q 1825 156 1822 413 
z
M 1822 616 
L 1822 1706 
Q 1350 1519 1213 1441 
Q 966 1303 859 1153 
Q 753 1003 753 825 
Q 753 600 887 451 
Q 1022 303 1197 303 
Q 1434 303 1822 616 
z
" transform="scale(0.015625)"/>
       <path id="TimesNewRomanPSMT-6c" d="M 1184 4444 
L 1184 647 
Q 1184 378 1223 290 
Q 1263 203 1344 158 
Q 1425 113 1647 113 
L 1647 0 
L 244 0 
L 244 113 
Q 441 113 512 153 
Q 584 194 625 287 
Q 666 381 666 647 
L 666 3247 
Q 666 3731 644 3842 
Q 622 3953 573 3993 
Q 525 4034 450 4034 
Q 369 4034 244 3984 
L 191 4094 
L 1044 4444 
L 1184 4444 
z
" transform="scale(0.015625)"/>
       <path id="TimesNewRomanPSMT-20" transform="scale(0.015625)"/>
       <path id="TimesNewRomanPSMT-74" d="M 1031 3803 
L 1031 2863 
L 1700 2863 
L 1700 2644 
L 1031 2644 
L 1031 788 
Q 1031 509 1111 412 
Q 1191 316 1316 316 
Q 1419 316 1516 380 
Q 1613 444 1666 569 
L 1788 569 
Q 1678 263 1478 108 
Q 1278 -47 1066 -47 
Q 922 -47 784 33 
Q 647 113 581 261 
Q 516 409 516 719 
L 516 2644 
L 63 2644 
L 63 2747 
Q 234 2816 414 2980 
Q 594 3144 734 3369 
Q 806 3488 934 3803 
L 1031 3803 
z
" transform="scale(0.015625)"/>
       <path id="TimesNewRomanPSMT-73" d="M 2050 2947 
L 2050 1972 
L 1947 1972 
Q 1828 2431 1642 2597 
Q 1456 2763 1169 2763 
Q 950 2763 815 2647 
Q 681 2531 681 2391 
Q 681 2216 781 2091 
Q 878 1963 1175 1819 
L 1631 1597 
Q 2266 1288 2266 781 
Q 2266 391 1970 151 
Q 1675 -88 1309 -88 
Q 1047 -88 709 6 
Q 606 38 541 38 
Q 469 38 428 -44 
L 325 -44 
L 325 978 
L 428 978 
Q 516 541 762 319 
Q 1009 97 1316 97 
Q 1531 97 1667 223 
Q 1803 350 1803 528 
Q 1803 744 1651 891 
Q 1500 1038 1047 1263 
Q 594 1488 453 1669 
Q 313 1847 313 2119 
Q 313 2472 555 2709 
Q 797 2947 1181 2947 
Q 1350 2947 1591 2875 
Q 1750 2828 1803 2828 
Q 1853 2828 1881 2850 
Q 1909 2872 1947 2947 
L 2050 2947 
z
" transform="scale(0.015625)"/>
      </defs>
      <use xlink:href="#TimesNewRomanPSMT-4e"/>
      <use xlink:href="#TimesNewRomanPSMT-75" x="72.216797"/>
      <use xlink:href="#TimesNewRomanPSMT-6d" x="122.216797"/>
      <use xlink:href="#TimesNewRomanPSMT-65" x="200"/>
      <use xlink:href="#TimesNewRomanPSMT-72" x="244.384766"/>
      <use xlink:href="#TimesNewRomanPSMT-69" x="277.685547"/>
      <use xlink:href="#TimesNewRomanPSMT-63" x="305.46875"/>
      <use xlink:href="#TimesNewRomanPSMT-61" x="349.853516"/>
      <use xlink:href="#TimesNewRomanPSMT-6c" x="394.238281"/>
      <use xlink:href="#TimesNewRomanPSMT-20" x="422.021484"/>
      <use xlink:href="#TimesNewRomanPSMT-74" x="447.021484"/>
      <use xlink:href="#TimesNewRomanPSMT-65" x="474.804688"/>
      <use xlink:href="#TimesNewRomanPSMT-73" x="519.189453"/>
      <use xlink:href="#TimesNewRomanPSMT-74" x="558.105469"/>
     </g>
    </g>
   </g>
  </g>
 </g>
 <defs>
  <clipPath id="p2f7d4166cc">
   <rect x="61.991563" y="24.38" width="419.47" height="348.76"/>
  </clipPath>
 </defs>
</svg>
