<?xml version="1.0" encoding="utf-8" standalone="no"?>
<!DOCTYPE svg PUBLIC "-//W3C//DTD SVG 1.1//EN"
  "http://www.w3.org/Graphics/SVG/1.1/DTD/svg11.dtd">
<svg xmlns:xlink="http://www.w3.org/1999/xlink" width="308.960625pt" height="261.768437pt" viewBox="0 0 308.960625 261.768437" xmlns="http://www.w3.org/2000/svg" version="1.1">
 <metadata>
  <rdf:RDF xmlns:dc="http://purl.org/dc/elements/1.1/" xmlns:cc="http://creativecommons.org/ns#" xmlns:rdf="http://www.w3.org/1999/02/22-rdf-syntax-ns#">
   <cc:Work>
    <dc:type rdf:resource="http://purl.org/dc/dcmitype/StillImage"/>
    <dc:date>2024-02-01T15:21:31.966995</dc:date>
    <dc:format>image/svg+xml</dc:format>
    <dc:creator>
     <cc:Agent>
      <dc:title>Matplotlib v3.7.1, https://matplotlib.org/</dc:title>
     </cc:Agent>
    </dc:creator>
   </cc:Work>
  </rdf:RDF>
 </metadata>
 <defs>
  <style type="text/css">*{stroke-linejoin: round; stroke-linecap: butt}</style>
 </defs>
 <g id="figure_1">
  <g id="patch_1">
   <path d="M 0 261.768437 
L 308.960625 261.768437 
L 308.960625 0 
L 0 0 
z
" style="fill: #ffffff"/>
  </g>
  <g id="axes_1">
   <g id="patch_2">
    <path d="M 56.380625 221.707812 
L 301.760625 221.707812 
L 301.760625 25.587812 
L 56.380625 25.587812 
z
" style="fill: #ffffff"/>
   </g>
   <g id="matplotlib.axis_1">
    <g id="xtick_1">
     <g id="line2d_1">
      <path d="M 72.657356 221.707812 
L 72.657356 25.587812 
" clip-path="url(#p1af80a54f1)" style="fill: none; stroke-dasharray: 0.8,1.32; stroke-dashoffset: 0; stroke: #b0b0b0; stroke-width: 0.8"/>
     </g>
     <g id="line2d_2">
      <defs>
       <path id="mc6aaebd6bd" d="M 0 0 
L 0 3.5 
" style="stroke: #000000; stroke-width: 0.8"/>
      </defs>
      <g>
       <use xlink:href="#mc6aaebd6bd" x="72.657356" y="221.707812" style="stroke: #000000; stroke-width: 0.8"/>
      </g>
     </g>
     <g id="text_1">
      <!-- −40 -->
      <g transform="translate(62.689856 237.092812) scale(0.12 -0.12)">
       <defs>
        <path id="Cambria-2212" d="M 397 1613 
L 397 2047 
L 3147 2047 
L 3147 1613 
L 397 1613 
z
" transform="scale(0.015625)"/>
        <path id="Cambria-34" d="M 1613 153 
Q 1806 203 1872 264 
Q 1938 325 1958 437 
Q 1978 550 1978 781 
L 1978 1294 
L 241 1294 
L 241 1528 
L 2069 4288 
L 2516 4288 
L 2516 1597 
L 2581 1597 
Q 2763 1597 2841 1623 
Q 2919 1650 2970 1717 
Q 3022 1784 3066 1938 
L 3303 1938 
L 3266 1294 
L 2516 1294 
L 2516 781 
Q 2516 572 2530 475 
Q 2544 378 2576 322 
Q 2609 266 2673 228 
Q 2738 191 2881 153 
L 2881 0 
L 1613 0 
L 1613 153 
z
M 756 1597 
L 1978 1597 
L 1978 2375 
Q 1978 2669 1987 3033 
Q 1997 3397 2009 3581 
L 1978 3581 
L 756 1641 
L 756 1597 
z
" transform="scale(0.015625)"/>
        <path id="Cambria-30" d="M 1738 -50 
Q 1063 -50 733 481 
Q 403 1013 403 2094 
Q 403 2669 504 3087 
Q 606 3506 789 3779 
Q 972 4053 1228 4184 
Q 1484 4316 1788 4316 
Q 2472 4316 2806 3787 
Q 3141 3259 3141 2191 
Q 3141 1084 2783 517 
Q 2425 -50 1738 -50 
z
M 1013 2188 
Q 1013 1169 1202 692 
Q 1391 216 1788 216 
Q 2166 216 2348 664 
Q 2531 1113 2531 2053 
Q 2531 2772 2437 3217 
Q 2344 3663 2176 3856 
Q 2009 4050 1772 4050 
Q 1556 4050 1411 3922 
Q 1266 3794 1177 3553 
Q 1088 3313 1050 2967 
Q 1013 2622 1013 2188 
z
" transform="scale(0.015625)"/>
       </defs>
       <use xlink:href="#Cambria-2212"/>
       <use xlink:href="#Cambria-34" x="55.371094"/>
       <use xlink:href="#Cambria-30" x="110.742188"/>
      </g>
     </g>
    </g>
    <g id="xtick_2">
     <g id="line2d_3">
      <path d="M 125.854191 221.707812 
L 125.854191 25.587812 
" clip-path="url(#p1af80a54f1)" style="fill: none; stroke-dasharray: 0.8,1.32; stroke-dashoffset: 0; stroke: #b0b0b0; stroke-width: 0.8"/>
     </g>
     <g id="line2d_4">
      <g>
       <use xlink:href="#mc6aaebd6bd" x="125.854191" y="221.707812" style="stroke: #000000; stroke-width: 0.8"/>
      </g>
     </g>
     <g id="text_2">
      <!-- −20 -->
      <g transform="translate(115.886691 237.092812) scale(0.12 -0.12)">
       <defs>
        <path id="Cambria-32" d="M 2194 500 
Q 2347 500 2440 519 
Q 2534 538 2590 581 
Q 2647 625 2680 695 
Q 2713 766 2763 913 
L 3028 913 
L 2975 0 
L 403 0 
L 403 150 
Q 538 478 766 822 
Q 994 1166 1413 1631 
Q 1775 2031 1934 2238 
Q 2109 2463 2195 2627 
Q 2281 2791 2318 2936 
Q 2356 3081 2356 3228 
Q 2356 3463 2281 3642 
Q 2206 3822 2051 3925 
Q 1897 4028 1663 4028 
Q 1078 4028 875 3378 
L 497 3378 
L 497 3978 
Q 875 4156 1204 4236 
Q 1534 4316 1797 4316 
Q 2378 4316 2675 4061 
Q 2972 3806 2972 3322 
Q 2972 3156 2939 3017 
Q 2906 2878 2836 2742 
Q 2766 2606 2647 2450 
Q 2528 2294 2384 2133 
Q 2241 1972 1888 1597 
Q 1294 969 1016 500 
L 2194 500 
z
" transform="scale(0.015625)"/>
       </defs>
       <use xlink:href="#Cambria-2212"/>
       <use xlink:href="#Cambria-32" x="55.371094"/>
       <use xlink:href="#Cambria-30" x="110.742188"/>
      </g>
     </g>
    </g>
    <g id="xtick_3">
     <g id="line2d_5">
      <path d="M 179.051025 221.707812 
L 179.051025 25.587812 
" clip-path="url(#p1af80a54f1)" style="fill: none; stroke-dasharray: 0.8,1.32; stroke-dashoffset: 0; stroke: #b0b0b0; stroke-width: 0.8"/>
     </g>
     <g id="line2d_6">
      <g>
       <use xlink:href="#mc6aaebd6bd" x="179.051025" y="221.707812" style="stroke: #000000; stroke-width: 0.8"/>
      </g>
     </g>
     <g id="text_3">
      <!-- 0 -->
      <g transform="translate(175.728525 237.092812) scale(0.12 -0.12)">
       <use xlink:href="#Cambria-30"/>
      </g>
     </g>
    </g>
    <g id="xtick_4">
     <g id="line2d_7">
      <path d="M 232.24786 221.707812 
L 232.24786 25.587812 
" clip-path="url(#p1af80a54f1)" style="fill: none; stroke-dasharray: 0.8,1.32; stroke-dashoffset: 0; stroke: #b0b0b0; stroke-width: 0.8"/>
     </g>
     <g id="line2d_8">
      <g>
       <use xlink:href="#mc6aaebd6bd" x="232.24786" y="221.707812" style="stroke: #000000; stroke-width: 0.8"/>
      </g>
     </g>
     <g id="text_4">
      <!-- 20 -->
      <g transform="translate(225.60286 237.092812) scale(0.12 -0.12)">
       <use xlink:href="#Cambria-32"/>
       <use xlink:href="#Cambria-30" x="55.371094"/>
      </g>
     </g>
    </g>
    <g id="xtick_5">
     <g id="line2d_9">
      <path d="M 285.444694 221.707812 
L 285.444694 25.587812 
" clip-path="url(#p1af80a54f1)" style="fill: none; stroke-dasharray: 0.8,1.32; stroke-dashoffset: 0; stroke: #b0b0b0; stroke-width: 0.8"/>
     </g>
     <g id="line2d_10">
      <g>
       <use xlink:href="#mc6aaebd6bd" x="285.444694" y="221.707812" style="stroke: #000000; stroke-width: 0.8"/>
      </g>
     </g>
     <g id="text_5">
      <!-- 40 -->
      <g transform="translate(278.799694 237.092812) scale(0.12 -0.12)">
       <use xlink:href="#Cambria-34"/>
       <use xlink:href="#Cambria-30" x="55.371094"/>
      </g>
     </g>
    </g>
    <g id="text_6">
     <!-- Displacement (mm) -->
     <g transform="translate(129.833125 252.020312) scale(0.12 -0.12)">
      <defs>
       <path id="Cambria-Italic-44" d="M 2134 4266 
Q 2606 4266 2900 4194 
Q 3194 4122 3448 3934 
Q 3703 3747 3831 3436 
Q 3959 3125 3959 2700 
Q 3959 2278 3862 1893 
Q 3766 1509 3584 1186 
Q 3403 863 3150 623 
Q 2897 384 2659 256 
Q 2422 128 2128 64 
Q 1834 0 1444 0 
L 131 0 
L 166 153 
Q 284 172 343 214 
Q 403 256 443 331 
Q 484 406 518 514 
Q 553 622 622 931 
L 1153 3338 
Q 1184 3481 1203 3614 
Q 1222 3747 1222 3841 
Q 1222 3988 1147 4045 
Q 1072 4103 916 4113 
L 950 4266 
L 2134 4266 
z
M 1038 288 
Q 1128 278 1384 278 
Q 1700 278 1958 347 
Q 2216 416 2433 567 
Q 2650 719 2828 972 
Q 3006 1225 3117 1486 
Q 3228 1747 3290 2047 
Q 3353 2347 3353 2681 
Q 3353 3334 3048 3664 
Q 2744 3994 2144 3994 
Q 2006 3994 1847 3984 
L 1038 288 
z
" transform="scale(0.015625)"/>
       <path id="Cambria-Italic-69" d="M 1750 4213 
L 1606 3606 
L 1053 3606 
L 1197 4213 
L 1750 4213 
z
M 978 781 
Q 944 622 934 548 
Q 925 475 925 425 
Q 925 331 956 278 
Q 988 225 1053 197 
Q 1119 169 1269 153 
L 1241 0 
L 272 0 
L 744 2106 
Q 784 2288 800 2395 
Q 816 2503 816 2575 
Q 816 2666 789 2716 
Q 763 2766 700 2791 
Q 638 2816 484 2822 
L 519 2988 
L 1281 3016 
L 1466 3016 
L 978 781 
z
" transform="scale(0.015625)"/>
       <path id="Cambria-Italic-73" d="M 2063 2259 
Q 2028 2541 1901 2667 
Q 1775 2794 1509 2794 
Q 1363 2794 1244 2739 
Q 1125 2684 1056 2579 
Q 988 2475 988 2334 
Q 988 2219 1034 2123 
Q 1081 2028 1192 1925 
Q 1303 1822 1503 1688 
Q 1806 1484 1928 1293 
Q 2050 1103 2050 853 
Q 2050 559 1909 354 
Q 1769 150 1525 50 
Q 1281 -50 975 -50 
Q 700 -50 461 -9 
Q 222 31 -3 94 
L 144 769 
L 388 769 
Q 409 481 551 339 
Q 694 197 966 197 
Q 1244 197 1400 336 
Q 1556 475 1556 703 
Q 1556 838 1509 944 
Q 1463 1050 1363 1147 
Q 1263 1244 1078 1369 
Q 881 1503 759 1622 
Q 638 1741 570 1883 
Q 503 2025 503 2197 
Q 503 2456 631 2647 
Q 759 2838 995 2938 
Q 1231 3038 1547 3038 
Q 2063 3038 2456 2903 
L 2313 2259 
L 2063 2259 
z
" transform="scale(0.015625)"/>
       <path id="Cambria-Italic-70" d="M 669 -553 
Q 638 -703 630 -784 
Q 622 -866 622 -919 
Q 622 -1013 653 -1066 
Q 684 -1119 750 -1147 
Q 816 -1175 966 -1191 
L 941 -1344 
L -25 -1344 
L 766 2131 
Q 825 2394 825 2581 
Q 825 2669 798 2717 
Q 772 2766 708 2789 
Q 644 2813 491 2822 
L 528 2988 
L 1238 3016 
L 1416 3016 
L 1206 2203 
L 1244 2191 
Q 1822 3038 2394 3038 
Q 2734 3038 2923 2778 
Q 3113 2519 3113 2047 
Q 3113 1709 3020 1368 
Q 2928 1028 2764 753 
Q 2600 478 2398 301 
Q 2197 125 1973 37 
Q 1750 -50 1503 -50 
Q 1088 -50 813 131 
L 669 -553 
z
M 1044 1088 
Q 1013 922 1005 834 
Q 997 747 997 663 
Q 997 419 1101 308 
Q 1206 197 1463 197 
Q 1622 197 1756 259 
Q 1891 322 2011 440 
Q 2131 559 2228 728 
Q 2325 897 2401 1120 
Q 2478 1344 2517 1580 
Q 2556 1816 2556 2022 
Q 2556 2350 2464 2511 
Q 2372 2672 2172 2672 
Q 2013 2672 1858 2564 
Q 1703 2456 1518 2218 
Q 1334 1981 1231 1750 
Q 1128 1519 1069 1219 
L 1044 1088 
z
" transform="scale(0.015625)"/>
       <path id="Cambria-Italic-6c" d="M 1578 4469 
L 1763 4469 
L 950 781 
Q 916 631 906 554 
Q 897 478 897 425 
Q 897 331 928 278 
Q 959 225 1025 197 
Q 1091 169 1241 153 
L 1216 0 
L 241 0 
L 1047 3588 
Q 1078 3725 1090 3794 
Q 1103 3863 1109 3925 
Q 1116 3988 1116 4034 
Q 1116 4128 1081 4176 
Q 1047 4225 983 4247 
Q 919 4269 753 4278 
L 791 4441 
L 1578 4469 
z
" transform="scale(0.015625)"/>
       <path id="Cambria-Italic-61" d="M 2606 2834 
L 2894 3041 
L 3094 2991 
L 2616 869 
Q 2572 681 2556 579 
Q 2541 478 2541 413 
Q 2541 284 2612 226 
Q 2684 169 2888 153 
L 2859 0 
L 1966 0 
L 2163 784 
L 2122 797 
Q 1822 359 1553 156 
Q 1284 -47 984 -47 
Q 641 -47 452 212 
Q 263 472 263 941 
Q 263 1241 331 1542 
Q 400 1844 539 2114 
Q 678 2384 872 2590 
Q 1066 2797 1320 2919 
Q 1575 3041 1875 3041 
Q 2069 3041 2244 2995 
Q 2419 2950 2606 2834 
z
M 2331 1903 
Q 2359 2031 2368 2125 
Q 2378 2219 2378 2328 
Q 2378 2572 2275 2683 
Q 2172 2794 1931 2794 
Q 1800 2794 1681 2751 
Q 1563 2709 1441 2611 
Q 1319 2513 1208 2353 
Q 1097 2194 1006 1966 
Q 916 1738 866 1477 
Q 816 1216 816 969 
Q 816 644 905 483 
Q 994 322 1203 322 
Q 1300 322 1404 365 
Q 1509 409 1637 526 
Q 1766 644 1928 872 
Q 2075 1081 2161 1286 
Q 2247 1491 2303 1769 
L 2331 1903 
z
" transform="scale(0.015625)"/>
       <path id="Cambria-Italic-63" d="M 2297 2238 
Q 2291 2475 2258 2581 
Q 2225 2688 2151 2741 
Q 2078 2794 1944 2794 
Q 1628 2794 1376 2542 
Q 1125 2291 965 1830 
Q 806 1369 806 944 
Q 806 813 829 697 
Q 853 581 911 497 
Q 969 413 1064 364 
Q 1159 316 1306 316 
Q 1591 316 1798 423 
Q 2006 531 2238 763 
L 2428 572 
Q 2134 247 1836 97 
Q 1538 -53 1194 -53 
Q 741 -53 506 215 
Q 272 484 272 997 
Q 272 1331 397 1731 
Q 522 2131 762 2434 
Q 1003 2738 1325 2888 
Q 1647 3038 2013 3038 
Q 2263 3038 2448 3009 
Q 2634 2981 2778 2944 
L 2625 2238 
L 2297 2238 
z
" transform="scale(0.015625)"/>
       <path id="Cambria-Italic-65" d="M 2544 622 
Q 2313 369 2100 222 
Q 1888 75 1675 12 
Q 1463 -50 1206 -50 
Q 959 -50 781 29 
Q 603 109 486 248 
Q 369 388 312 580 
Q 256 772 256 997 
Q 256 1331 376 1714 
Q 497 2097 740 2401 
Q 984 2706 1325 2873 
Q 1666 3041 2050 3041 
Q 2428 3041 2617 2887 
Q 2806 2734 2806 2409 
Q 2806 1878 2307 1612 
Q 1809 1347 828 1347 
Q 791 1159 791 941 
Q 791 613 919 464 
Q 1047 316 1338 316 
Q 1625 316 1859 441 
Q 2094 566 2350 825 
L 2544 622 
z
M 881 1613 
Q 1169 1616 1386 1645 
Q 1603 1675 1759 1726 
Q 1916 1778 2019 1850 
Q 2122 1922 2183 2008 
Q 2244 2094 2267 2189 
Q 2291 2284 2291 2388 
Q 2291 2578 2202 2686 
Q 2113 2794 1938 2794 
Q 1719 2794 1508 2636 
Q 1297 2478 1136 2211 
Q 975 1944 881 1613 
z
" transform="scale(0.015625)"/>
       <path id="Cambria-Italic-6d" d="M 2997 2375 
L 2997 2331 
Q 2997 2309 2994 2284 
Q 3266 2669 3534 2853 
Q 3803 3038 4091 3038 
Q 4388 3038 4542 2870 
Q 4697 2703 4697 2375 
Q 4697 2175 4634 1894 
L 4372 781 
Q 4319 556 4319 425 
Q 4319 331 4350 278 
Q 4381 225 4447 197 
Q 4513 169 4663 153 
L 4634 0 
L 3653 0 
L 4047 1588 
Q 4091 1759 4123 1936 
Q 4156 2113 4156 2256 
Q 4156 2481 4078 2576 
Q 4000 2672 3831 2672 
Q 3709 2672 3557 2572 
Q 3406 2472 3240 2265 
Q 3075 2059 2970 1857 
Q 2866 1656 2803 1366 
L 2519 0 
L 1978 0 
L 2338 1588 
Q 2403 1878 2426 2017 
Q 2450 2156 2450 2256 
Q 2450 2481 2370 2576 
Q 2291 2672 2122 2672 
Q 1997 2672 1845 2570 
Q 1694 2469 1525 2256 
Q 1356 2044 1254 1839 
Q 1153 1634 1097 1353 
L 813 0 
L 272 0 
L 747 2134 
Q 763 2206 789 2347 
Q 816 2488 816 2581 
Q 816 2669 789 2717 
Q 763 2766 698 2789 
Q 634 2813 481 2822 
L 519 2988 
L 1231 3016 
L 1406 3016 
L 1200 2206 
L 1238 2194 
Q 1525 2622 1809 2830 
Q 2094 3038 2384 3038 
Q 2684 3038 2840 2867 
Q 2997 2697 2997 2375 
z
" transform="scale(0.015625)"/>
       <path id="Cambria-Italic-6e" d="M 2947 0 
L 1963 0 
L 2359 1588 
Q 2397 1741 2433 1925 
Q 2469 2109 2469 2256 
Q 2469 2478 2392 2575 
Q 2316 2672 2153 2672 
Q 2022 2672 1870 2570 
Q 1719 2469 1553 2267 
Q 1388 2066 1273 1858 
Q 1159 1650 1097 1353 
L 813 0 
L 272 0 
L 747 2134 
Q 763 2206 789 2347 
Q 816 2488 816 2581 
Q 816 2669 789 2717 
Q 763 2766 698 2789 
Q 634 2813 481 2822 
L 519 2988 
L 1228 3016 
L 1406 3016 
L 1197 2203 
L 1234 2191 
Q 1541 2622 1825 2830 
Q 2109 3038 2394 3038 
Q 2697 3038 2853 2870 
Q 3009 2703 3009 2375 
Q 3009 2263 2989 2130 
Q 2969 1997 2944 1894 
L 2681 781 
Q 2628 556 2628 425 
Q 2628 331 2659 278 
Q 2691 225 2756 197 
Q 2822 169 2972 153 
L 2947 0 
z
" transform="scale(0.015625)"/>
       <path id="Cambria-Italic-74" d="M 2109 575 
Q 1853 266 1603 108 
Q 1353 -50 1072 -50 
Q 741 -50 578 119 
Q 416 288 416 609 
Q 416 806 472 1050 
L 859 2672 
L 394 2672 
L 428 2831 
Q 613 2853 720 2911 
Q 828 2969 901 3064 
Q 975 3159 1037 3312 
Q 1100 3466 1194 3759 
L 1625 3759 
L 1453 2988 
L 2444 2988 
L 2375 2672 
L 1381 2672 
L 1081 1459 
Q 956 953 956 703 
Q 956 513 1039 414 
Q 1122 316 1281 316 
Q 1425 316 1583 427 
Q 1741 538 1928 763 
L 2109 575 
z
" transform="scale(0.015625)"/>
       <path id="Cambria-Italic-20" transform="scale(0.015625)"/>
       <path id="Cambria-Italic-28" d="M 1616 -1359 
Q 1172 -1359 897 -1200 
Q 622 -1041 498 -736 
Q 375 -431 375 28 
Q 375 353 431 747 
Q 506 1253 648 1875 
Q 791 2497 928 2906 
Q 1088 3372 1272 3667 
Q 1456 3963 1675 4134 
Q 1894 4306 2172 4391 
Q 2478 4484 2906 4484 
L 2850 4228 
Q 2575 4228 2397 4165 
Q 2219 4103 2078 3978 
Q 1916 3834 1769 3575 
Q 1597 3266 1438 2766 
Q 1300 2334 1163 1713 
Q 1050 1203 981 797 
Q 888 228 888 -147 
Q 888 -513 977 -722 
Q 1066 -931 1233 -1017 
Q 1400 -1103 1672 -1103 
L 1616 -1359 
z
" transform="scale(0.015625)"/>
       <path id="Cambria-Italic-29" d="M 794 4484 
Q 1238 4484 1513 4325 
Q 1788 4166 1911 3861 
Q 2034 3556 2034 3097 
Q 2034 2778 1978 2394 
Q 1903 1850 1747 1184 
Q 1600 569 1466 178 
Q 1313 -263 1133 -552 
Q 953 -841 733 -1012 
Q 513 -1184 234 -1266 
Q -72 -1359 -497 -1359 
L -441 -1103 
Q -166 -1103 11 -1040 
Q 188 -978 325 -856 
Q 494 -709 644 -441 
Q 819 -125 973 367 
Q 1128 859 1266 1506 
Q 1375 2006 1438 2394 
Q 1522 2922 1522 3272 
Q 1522 3641 1431 3850 
Q 1341 4059 1173 4143 
Q 1006 4228 738 4228 
L 794 4484 
z
" transform="scale(0.015625)"/>
      </defs>
      <use xlink:href="#Cambria-Italic-44"/>
      <use xlink:href="#Cambria-Italic-69" x="64.648438"/>
      <use xlink:href="#Cambria-Italic-73" x="91.748047"/>
      <use xlink:href="#Cambria-Italic-70" x="129.931641"/>
      <use xlink:href="#Cambria-Italic-6c" x="182.617188"/>
      <use xlink:href="#Cambria-Italic-61" x="209.277344"/>
      <use xlink:href="#Cambria-Italic-63" x="261.865234"/>
      <use xlink:href="#Cambria-Italic-65" x="305.175781"/>
      <use xlink:href="#Cambria-Italic-6d" x="350.878906"/>
      <use xlink:href="#Cambria-Italic-65" x="430.761719"/>
      <use xlink:href="#Cambria-Italic-6e" x="476.464844"/>
      <use xlink:href="#Cambria-Italic-74" x="529.980469"/>
      <use xlink:href="#Cambria-Italic-20" x="564.501953"/>
      <use xlink:href="#Cambria-Italic-28" x="586.523438"/>
      <use xlink:href="#Cambria-Italic-6d" x="623.681641"/>
      <use xlink:href="#Cambria-Italic-6d" x="703.564453"/>
      <use xlink:href="#Cambria-Italic-29" x="783.447266"/>
     </g>
    </g>
   </g>
   <g id="matplotlib.axis_2">
    <g id="ytick_1">
     <g id="line2d_11">
      <path d="M 56.380625 212.475321 
L 301.760625 212.475321 
" clip-path="url(#p1af80a54f1)" style="fill: none; stroke-dasharray: 0.8,1.32; stroke-dashoffset: 0; stroke: #b0b0b0; stroke-width: 0.8"/>
     </g>
     <g id="line2d_12">
      <defs>
       <path id="mbf2796f9ab" d="M 0 0 
L -3.5 0 
" style="stroke: #000000; stroke-width: 0.8"/>
      </defs>
      <g>
       <use xlink:href="#mbf2796f9ab" x="56.380625" y="212.475321" style="stroke: #000000; stroke-width: 0.8"/>
      </g>
     </g>
     <g id="text_7">
      <!-- −8000 -->
      <g transform="translate(16.155625 216.667821) scale(0.12 -0.12)">
       <defs>
        <path id="Cambria-38" d="M 2475 2253 
L 2481 2213 
Q 2834 2075 3015 1811 
Q 3197 1547 3197 1175 
Q 3197 809 3022 531 
Q 2847 253 2514 101 
Q 2181 -50 1738 -50 
Q 1322 -50 1008 89 
Q 694 228 520 495 
Q 347 763 347 1125 
Q 347 1397 440 1597 
Q 534 1797 686 1926 
Q 838 2056 1069 2163 
L 1063 2203 
Q 391 2494 391 3200 
Q 391 3522 567 3775 
Q 744 4028 1070 4172 
Q 1397 4316 1794 4316 
Q 2244 4316 2550 4189 
Q 2856 4063 3011 3823 
Q 3166 3584 3166 3250 
Q 3166 2906 2997 2657 
Q 2828 2409 2475 2253 
z
M 978 3228 
Q 978 3044 1022 2881 
Q 1066 2719 1162 2600 
Q 1259 2481 1414 2411 
Q 1569 2341 1794 2341 
Q 2053 2341 2229 2442 
Q 2406 2544 2492 2739 
Q 2578 2934 2578 3191 
Q 2578 3472 2476 3667 
Q 2375 3863 2197 3956 
Q 2019 4050 1788 4050 
Q 1394 4050 1186 3836 
Q 978 3622 978 3228 
z
M 944 1178 
Q 944 975 991 798 
Q 1038 622 1139 494 
Q 1241 366 1400 291 
Q 1559 216 1788 216 
Q 2044 216 2226 320 
Q 2409 425 2504 631 
Q 2600 838 2600 1119 
Q 2600 1419 2497 1636 
Q 2394 1853 2206 1967 
Q 2019 2081 1772 2081 
Q 1541 2081 1383 2009 
Q 1225 1938 1126 1816 
Q 1028 1694 986 1530 
Q 944 1366 944 1178 
z
" transform="scale(0.015625)"/>
       </defs>
       <use xlink:href="#Cambria-2212"/>
       <use xlink:href="#Cambria-38" x="55.371094"/>
       <use xlink:href="#Cambria-30" x="110.742188"/>
       <use xlink:href="#Cambria-30" x="166.113281"/>
       <use xlink:href="#Cambria-30" x="221.484375"/>
      </g>
     </g>
    </g>
    <g id="ytick_2">
     <g id="line2d_13">
      <path d="M 56.380625 190.311213 
L 301.760625 190.311213 
" clip-path="url(#p1af80a54f1)" style="fill: none; stroke-dasharray: 0.8,1.32; stroke-dashoffset: 0; stroke: #b0b0b0; stroke-width: 0.8"/>
     </g>
     <g id="line2d_14">
      <g>
       <use xlink:href="#mbf2796f9ab" x="56.380625" y="190.311213" style="stroke: #000000; stroke-width: 0.8"/>
      </g>
     </g>
     <g id="text_8">
      <!-- −6000 -->
      <g transform="translate(16.155625 194.503713) scale(0.12 -0.12)">
       <defs>
        <path id="Cambria-36" d="M 2847 4144 
L 2847 3991 
Q 2366 3991 1994 3784 
Q 1622 3578 1376 3178 
Q 1131 2778 1031 2228 
L 1063 2216 
Q 1325 2403 1579 2490 
Q 1834 2578 2131 2578 
Q 2484 2578 2732 2423 
Q 2981 2269 3106 1989 
Q 3231 1709 3231 1334 
Q 3231 928 3075 617 
Q 2919 306 2592 128 
Q 2266 -50 1788 -50 
Q 1103 -50 754 375 
Q 406 800 406 1628 
Q 406 2184 581 2668 
Q 756 3153 1078 3514 
Q 1400 3875 1825 4083 
Q 2250 4291 2719 4316 
L 2847 4144 
z
M 1916 2250 
Q 1763 2250 1620 2215 
Q 1478 2181 1353 2115 
Q 1228 2050 1109 1950 
Q 1072 1916 1053 1878 
Q 1022 1819 1012 1731 
Q 1003 1644 1003 1438 
Q 1003 841 1203 528 
Q 1403 216 1809 216 
Q 2044 216 2203 297 
Q 2363 378 2461 520 
Q 2559 663 2601 855 
Q 2644 1047 2644 1272 
Q 2644 1734 2453 1992 
Q 2263 2250 1916 2250 
z
" transform="scale(0.015625)"/>
       </defs>
       <use xlink:href="#Cambria-2212"/>
       <use xlink:href="#Cambria-36" x="55.371094"/>
       <use xlink:href="#Cambria-30" x="110.742188"/>
       <use xlink:href="#Cambria-30" x="166.113281"/>
       <use xlink:href="#Cambria-30" x="221.484375"/>
      </g>
     </g>
    </g>
    <g id="ytick_3">
     <g id="line2d_15">
      <path d="M 56.380625 168.147106 
L 301.760625 168.147106 
" clip-path="url(#p1af80a54f1)" style="fill: none; stroke-dasharray: 0.8,1.32; stroke-dashoffset: 0; stroke: #b0b0b0; stroke-width: 0.8"/>
     </g>
     <g id="line2d_16">
      <g>
       <use xlink:href="#mbf2796f9ab" x="56.380625" y="168.147106" style="stroke: #000000; stroke-width: 0.8"/>
      </g>
     </g>
     <g id="text_9">
      <!-- −4000 -->
      <g transform="translate(16.155625 172.339606) scale(0.12 -0.12)">
       <use xlink:href="#Cambria-2212"/>
       <use xlink:href="#Cambria-34" x="55.371094"/>
       <use xlink:href="#Cambria-30" x="110.742188"/>
       <use xlink:href="#Cambria-30" x="166.113281"/>
       <use xlink:href="#Cambria-30" x="221.484375"/>
      </g>
     </g>
    </g>
    <g id="ytick_4">
     <g id="line2d_17">
      <path d="M 56.380625 145.982998 
L 301.760625 145.982998 
" clip-path="url(#p1af80a54f1)" style="fill: none; stroke-dasharray: 0.8,1.32; stroke-dashoffset: 0; stroke: #b0b0b0; stroke-width: 0.8"/>
     </g>
     <g id="line2d_18">
      <g>
       <use xlink:href="#mbf2796f9ab" x="56.380625" y="145.982998" style="stroke: #000000; stroke-width: 0.8"/>
      </g>
     </g>
     <g id="text_10">
      <!-- −2000 -->
      <g transform="translate(16.155625 150.175498) scale(0.12 -0.12)">
       <use xlink:href="#Cambria-2212"/>
       <use xlink:href="#Cambria-32" x="55.371094"/>
       <use xlink:href="#Cambria-30" x="110.742188"/>
       <use xlink:href="#Cambria-30" x="166.113281"/>
       <use xlink:href="#Cambria-30" x="221.484375"/>
      </g>
     </g>
    </g>
    <g id="ytick_5">
     <g id="line2d_19">
      <path d="M 56.380625 123.81889 
L 301.760625 123.81889 
" clip-path="url(#p1af80a54f1)" style="fill: none; stroke-dasharray: 0.8,1.32; stroke-dashoffset: 0; stroke: #b0b0b0; stroke-width: 0.8"/>
     </g>
     <g id="line2d_20">
      <g>
       <use xlink:href="#mbf2796f9ab" x="56.380625" y="123.81889" style="stroke: #000000; stroke-width: 0.8"/>
      </g>
     </g>
     <g id="text_11">
      <!-- 0 -->
      <g transform="translate(42.735625 128.01139) scale(0.12 -0.12)">
       <use xlink:href="#Cambria-30"/>
      </g>
     </g>
    </g>
    <g id="ytick_6">
     <g id="line2d_21">
      <path d="M 56.380625 101.654782 
L 301.760625 101.654782 
" clip-path="url(#p1af80a54f1)" style="fill: none; stroke-dasharray: 0.8,1.32; stroke-dashoffset: 0; stroke: #b0b0b0; stroke-width: 0.8"/>
     </g>
     <g id="line2d_22">
      <g>
       <use xlink:href="#mbf2796f9ab" x="56.380625" y="101.654782" style="stroke: #000000; stroke-width: 0.8"/>
      </g>
     </g>
     <g id="text_12">
      <!-- 2000 -->
      <g transform="translate(22.800625 105.847282) scale(0.12 -0.12)">
       <use xlink:href="#Cambria-32"/>
       <use xlink:href="#Cambria-30" x="55.371094"/>
       <use xlink:href="#Cambria-30" x="110.742188"/>
       <use xlink:href="#Cambria-30" x="166.113281"/>
      </g>
     </g>
    </g>
    <g id="ytick_7">
     <g id="line2d_23">
      <path d="M 56.380625 79.490674 
L 301.760625 79.490674 
" clip-path="url(#p1af80a54f1)" style="fill: none; stroke-dasharray: 0.8,1.32; stroke-dashoffset: 0; stroke: #b0b0b0; stroke-width: 0.8"/>
     </g>
     <g id="line2d_24">
      <g>
       <use xlink:href="#mbf2796f9ab" x="56.380625" y="79.490674" style="stroke: #000000; stroke-width: 0.8"/>
      </g>
     </g>
     <g id="text_13">
      <!-- 4000 -->
      <g transform="translate(22.800625 83.683174) scale(0.12 -0.12)">
       <use xlink:href="#Cambria-34"/>
       <use xlink:href="#Cambria-30" x="55.371094"/>
       <use xlink:href="#Cambria-30" x="110.742188"/>
       <use xlink:href="#Cambria-30" x="166.113281"/>
      </g>
     </g>
    </g>
    <g id="ytick_8">
     <g id="line2d_25">
      <path d="M 56.380625 57.326567 
L 301.760625 57.326567 
" clip-path="url(#p1af80a54f1)" style="fill: none; stroke-dasharray: 0.8,1.32; stroke-dashoffset: 0; stroke: #b0b0b0; stroke-width: 0.8"/>
     </g>
     <g id="line2d_26">
      <g>
       <use xlink:href="#mbf2796f9ab" x="56.380625" y="57.326567" style="stroke: #000000; stroke-width: 0.8"/>
      </g>
     </g>
     <g id="text_14">
      <!-- 6000 -->
      <g transform="translate(22.800625 61.519067) scale(0.12 -0.12)">
       <use xlink:href="#Cambria-36"/>
       <use xlink:href="#Cambria-30" x="55.371094"/>
       <use xlink:href="#Cambria-30" x="110.742188"/>
       <use xlink:href="#Cambria-30" x="166.113281"/>
      </g>
     </g>
    </g>
    <g id="ytick_9">
     <g id="line2d_27">
      <path d="M 56.380625 35.162459 
L 301.760625 35.162459 
" clip-path="url(#p1af80a54f1)" style="fill: none; stroke-dasharray: 0.8,1.32; stroke-dashoffset: 0; stroke: #b0b0b0; stroke-width: 0.8"/>
     </g>
     <g id="line2d_28">
      <g>
       <use xlink:href="#mbf2796f9ab" x="56.380625" y="35.162459" style="stroke: #000000; stroke-width: 0.8"/>
      </g>
     </g>
     <g id="text_15">
      <!-- 8000 -->
      <g transform="translate(22.800625 39.354959) scale(0.12 -0.12)">
       <use xlink:href="#Cambria-38"/>
       <use xlink:href="#Cambria-30" x="55.371094"/>
       <use xlink:href="#Cambria-30" x="110.742188"/>
       <use xlink:href="#Cambria-30" x="166.113281"/>
      </g>
     </g>
    </g>
    <g id="text_16">
     <!-- Base Shear (kN) -->
     <g transform="translate(15.6075 163.934062) rotate(-90) scale(0.12 -0.12)">
      <defs>
       <path id="Cambria-Italic-42" d="M 2797 2184 
Q 3088 2069 3244 1855 
Q 3400 1641 3400 1369 
Q 3400 1047 3283 792 
Q 3166 538 2912 347 
Q 2659 156 2331 78 
Q 2003 0 1522 0 
L 131 0 
L 166 153 
Q 284 172 343 214 
Q 403 256 443 331 
Q 484 406 518 514 
Q 553 622 622 931 
L 1153 3338 
Q 1222 3650 1222 3831 
Q 1222 3984 1150 4043 
Q 1078 4103 916 4113 
L 950 4266 
L 2497 4266 
Q 2966 4266 3248 4167 
Q 3531 4069 3664 3878 
Q 3797 3688 3797 3400 
Q 3797 2991 3547 2686 
Q 3297 2381 2803 2219 
L 2797 2184 
z
M 1934 2353 
Q 2259 2353 2457 2397 
Q 2656 2441 2781 2528 
Q 2906 2616 3004 2733 
Q 3103 2850 3161 3009 
Q 3219 3169 3219 3384 
Q 3219 3519 3172 3636 
Q 3125 3753 3011 3836 
Q 2897 3919 2748 3955 
Q 2600 3991 2353 3991 
Q 2081 3991 1847 3981 
L 1494 2353 
L 1934 2353 
z
M 1041 288 
Q 1284 275 1497 275 
Q 1969 275 2226 394 
Q 2484 513 2643 781 
Q 2803 1050 2803 1425 
Q 2803 1628 2723 1768 
Q 2644 1909 2470 1993 
Q 2297 2078 1994 2078 
L 1428 2078 
L 1041 288 
z
" transform="scale(0.015625)"/>
       <path id="Cambria-Italic-53" d="M 497 972 
Q 497 594 672 408 
Q 847 222 1219 222 
Q 1506 222 1712 328 
Q 1919 434 2025 629 
Q 2131 825 2131 1094 
Q 2131 1284 2064 1429 
Q 1997 1575 1861 1708 
Q 1725 1841 1469 2013 
Q 1238 2169 1084 2320 
Q 931 2472 840 2659 
Q 750 2847 750 3078 
Q 750 3447 928 3728 
Q 1106 4009 1431 4162 
Q 1756 4316 2181 4316 
Q 2469 4316 2714 4277 
Q 2959 4238 3256 4144 
L 3081 3341 
L 2781 3341 
Q 2769 3606 2700 3757 
Q 2631 3909 2503 3975 
Q 2375 4041 2163 4041 
Q 1903 4041 1706 3934 
Q 1509 3828 1406 3645 
Q 1303 3463 1303 3238 
Q 1303 3075 1359 2947 
Q 1416 2819 1539 2695 
Q 1663 2572 1900 2409 
Q 2206 2197 2367 2030 
Q 2528 1863 2604 1675 
Q 2681 1488 2681 1241 
Q 2681 863 2498 567 
Q 2316 272 1983 111 
Q 1650 -50 1225 -50 
Q 934 -50 607 -6 
Q 281 38 9 113 
L 197 972 
L 497 972 
z
" transform="scale(0.015625)"/>
       <path id="Cambria-Italic-68" d="M 2916 0 
L 1934 0 
L 2328 1588 
Q 2372 1759 2405 1936 
Q 2438 2113 2438 2256 
Q 2438 2481 2363 2576 
Q 2288 2672 2109 2672 
Q 1981 2672 1826 2565 
Q 1672 2459 1500 2242 
Q 1328 2025 1226 1826 
Q 1125 1628 1066 1353 
L 781 0 
L 241 0 
L 1044 3572 
Q 1078 3728 1092 3798 
Q 1106 3869 1112 3928 
Q 1119 3988 1119 4034 
Q 1119 4166 1039 4219 
Q 959 4272 753 4278 
L 791 4441 
L 1581 4469 
L 1763 4469 
L 1225 2303 
L 1263 2291 
Q 1556 2681 1822 2859 
Q 2088 3038 2363 3038 
Q 2666 3038 2822 2870 
Q 2978 2703 2978 2375 
Q 2978 2175 2916 1894 
L 2653 781 
Q 2622 647 2609 565 
Q 2597 484 2597 425 
Q 2597 328 2630 275 
Q 2663 222 2730 195 
Q 2797 169 2944 153 
L 2916 0 
z
" transform="scale(0.015625)"/>
       <path id="Cambria-Italic-72" d="M 1244 3016 
L 1431 3016 
L 1213 2247 
L 1250 2234 
Q 1547 2644 1830 2841 
Q 2113 3038 2413 3038 
Q 2641 3038 2794 3003 
L 2644 2303 
L 2322 2303 
Q 2297 2466 2244 2550 
Q 2191 2634 2078 2634 
Q 1956 2634 1797 2509 
Q 1638 2384 1472 2165 
Q 1306 1947 1223 1762 
Q 1141 1578 1097 1353 
L 813 0 
L 272 0 
L 747 2134 
Q 813 2428 813 2581 
Q 813 2669 784 2717 
Q 756 2766 693 2789 
Q 631 2813 481 2822 
L 516 2988 
L 1244 3016 
z
" transform="scale(0.015625)"/>
       <path id="Cambria-Italic-6b" d="M 1150 1741 
L 1250 1741 
Q 1347 1741 1459 1778 
Q 1572 1816 1700 1895 
Q 1828 1975 2044 2147 
Q 2206 2278 2284 2370 
Q 2363 2463 2391 2531 
Q 2419 2600 2419 2663 
Q 2419 2816 2206 2834 
L 2241 2988 
L 3253 2988 
L 3313 2834 
Q 3053 2600 2763 2375 
L 1972 1759 
L 2441 575 
Q 2503 416 2568 330 
Q 2634 244 2720 203 
Q 2806 163 2941 153 
L 2906 0 
L 2072 0 
L 1616 1284 
Q 1572 1406 1540 1450 
Q 1509 1494 1468 1512 
Q 1428 1531 1338 1531 
L 1106 1531 
L 781 0 
L 241 0 
L 1044 3572 
Q 1078 3728 1092 3798 
Q 1106 3869 1112 3928 
Q 1119 3988 1119 4034 
Q 1119 4166 1039 4219 
Q 959 4272 753 4278 
L 791 4441 
L 1581 4469 
L 1763 4469 
L 1150 1741 
z
" transform="scale(0.015625)"/>
       <path id="Cambria-Italic-4e" d="M 4463 4266 
L 4428 4113 
Q 4309 4088 4257 4056 
Q 4206 4025 4164 3962 
Q 4122 3900 4080 3767 
Q 4038 3634 3972 3334 
L 3238 0 
L 2813 0 
L 1900 2681 
Q 1734 3163 1609 3641 
L 1569 3641 
Q 1550 3481 1465 3032 
Q 1381 2584 1288 2156 
L 1013 909 
Q 984 778 965 656 
Q 947 534 947 422 
Q 947 281 1017 223 
Q 1088 166 1253 153 
L 1219 0 
L 125 0 
L 159 153 
Q 278 172 337 214 
Q 397 256 437 331 
Q 478 406 512 514 
Q 547 622 616 931 
L 1147 3338 
Q 1178 3472 1197 3594 
Q 1216 3716 1216 3841 
Q 1216 3988 1141 4045 
Q 1066 4103 909 4113 
L 944 4266 
L 1941 4266 
L 2766 1831 
Q 2944 1306 3041 944 
L 3075 944 
Q 3100 1134 3189 1578 
Q 3278 2022 3353 2353 
L 3572 3338 
Q 3594 3441 3617 3581 
Q 3641 3722 3641 3841 
Q 3641 3988 3566 4045 
Q 3491 4103 3334 4113 
L 3369 4266 
L 4463 4266 
z
" transform="scale(0.015625)"/>
      </defs>
      <use xlink:href="#Cambria-Italic-42"/>
      <use xlink:href="#Cambria-Italic-61" x="59.619141"/>
      <use xlink:href="#Cambria-Italic-73" x="112.207031"/>
      <use xlink:href="#Cambria-Italic-65" x="150.390625"/>
      <use xlink:href="#Cambria-Italic-20" x="196.09375"/>
      <use xlink:href="#Cambria-Italic-53" x="218.115234"/>
      <use xlink:href="#Cambria-Italic-68" x="266.259766"/>
      <use xlink:href="#Cambria-Italic-65" x="319.287109"/>
      <use xlink:href="#Cambria-Italic-61" x="364.990234"/>
      <use xlink:href="#Cambria-Italic-72" x="417.578125"/>
      <use xlink:href="#Cambria-Italic-20" x="458.300781"/>
      <use xlink:href="#Cambria-Italic-28" x="480.322266"/>
      <use xlink:href="#Cambria-Italic-6b" x="517.480469"/>
      <use xlink:href="#Cambria-Italic-4e" x="567.1875"/>
      <use xlink:href="#Cambria-Italic-29" x="634.277344"/>
     </g>
    </g>
   </g>
   <g id="line2d_29">
    <path d="M 179.051025 123.522349 
L 181.831503 122.08852 
L 184.549622 70.109629 
L 187.144424 56.843047 
L 189.557714 45.911905 
L 191.73537 45.752195 
L 193.628554 45.007262 
L 195.194805 43.635257 
L 196.398999 41.811031 
L 197.214128 41.375325 
L 197.621911 40.751553 
L 197.613204 40.898818 
L 197.188201 41.624481 
L 196.356433 44.608671 
L 195.136556 52.106384 
L 193.555928 64.537526 
L 191.649996 78.267899 
L 189.461506 91.326024 
L 187.03954 102.789436 
L 184.438414 112.470626 
L 181.716465 120.983525 
L 178.934738 128.889285 
L 176.155619 142.155464 
L 173.441435 171.08135 
L 170.853058 182.215659 
L 168.448538 189.652935 
L 166.2818 193.581393 
L 160.472156 202.703114 
L 160.498278 203.172191 
L 160.940484 202.976345 
L 161.788857 198.836197 
L 164.619315 178.238241 
L 166.53792 165.398553 
L 168.737158 152.999239 
L 171.167706 142.69393 
L 173.775054 134.255971 
L 176.500727 126.263759 
L 179.283596 115.029491 
L 182.061248 97.037497 
L 184.77139 80.310968 
L 187.353241 70.827263 
L 189.748897 63.935805 
L 193.772097 54.577232 
L 197.637152 46.466625 
L 197.593617 46.212863 
L 197.134225 46.905388 
L 196.269279 50.503441 
L 193.408981 70.614355 
L 191.477776 82.681676 
L 189.267875 94.809125 
L 186.828841 104.833293 
L 184.215372 113.531009 
L 181.486082 121.406827 
L 178.702181 132.146374 
L 175.926103 151.742178 
L 173.220109 167.03959 
L 170.644884 177.226939 
L 168.258186 184.096935 
L 166.113539 189.396354 
L 162.736286 196.369017 
L 160.814396 200.06308 
L 160.458365 200.978513 
L 160.519312 201.409798 
L 160.995872 200.762375 
L 161.877356 195.827441 
L 166.711113 164.359665 
L 168.93159 152.397183 
L 171.379016 142.311975 
L 173.998504 134.013639 
L 176.731304 126.560185 
L 179.981234 115.049327 
L 190.933506 69.742926 
L 196.0705 56.71418 
L 200.825797 49.350702 
L 205.092749 44.245555 
L 208.775661 40.687994 
L 211.791936 38.607468 
L 214.073927 37.646462 
L 215.570457 38.215949 
L 216.247962 39.684965 
L 216.091248 40.244636 
L 215.10383 40.041523 
L 213.307852 48.681726 
L 210.743594 65.150919 
L 207.468563 83.234956 
L 203.556209 97.400515 
L 199.094276 106.150851 
L 194.182831 114.064491 
L 188.932023 121.253909 
L 183.459613 127.609623 
L 177.888332 134.754302 
L 172.343126 155.612407 
L 166.948359 177.178325 
L 161.82502 189.189556 
L 157.08801 196.42881 
L 152.843566 201.490538 
L 149.18688 204.772953 
L 146.199959 206.937995 
L 143.949792 208.298761 
L 142.486843 208.843281 
L 141.843923 208.699771 
L 142.03545 208.240813 
L 143.057128 206.615701 
L 144.886045 196.443231 
L 147.481183 181.231267 
L 150.78434 165.308806 
L 154.721437 152.142526 
L 159.204176 142.180571 
L 164.132022 134.331015 
L 174.873462 121.554879 
L 180.446157 112.763492 
L 185.987564 93.604246 
L 191.373403 75.821443 
L 196.482888 67.770477 
L 201.201427 61.960851 
L 205.423197 59.909362 
L 209.053516 59.986519 
L 212.010966 61.743626 
L 214.22922 63.543669 
L 216.266841 65.504733 
L 216.040509 65.37052 
L 214.98461 66.518108 
L 213.122826 75.582995 
L 210.49691 89.416883 
L 207.165755 103.124845 
L 203.204068 114.695735 
L 198.700698 123.731763 
L 193.756644 129.598665 
L 188.482785 134.121617 
L 182.9974 139.303058 
L 177.423509 147.091141 
L 171.886118 161.276733 
L 166.509415 173.60624 
L 161.413984 180.253059 
L 156.714101 183.846437 
L 152.51517 185.927617 
L 148.91136 186.600224 
L 145.983496 185.990982 
L 143.79724 184.484217 
L 142.401624 182.875648 
L 141.827948 181.711642 
L 142.089076 180.949957 
L 143.179154 178.210217 
L 147.730324 154.701739 
L 151.089348 141.394036 
L 155.07547 130.839809 
L 159.599294 123.68848 
L 164.559364 118.149725 
L 181.840781 101.459316 
L 190.14052 92.671168 
L 198.191554 85.829166 
L 205.813322 79.794468 
L 212.834889 74.844605 
L 219.098782 71.846714 
L 228.811767 68.470784 
L 232.043024 66.796528 
L 234.085825 65.360975 
L 234.894356 64.363314 
L 234.450484 63.944441 
L 232.764162 67.37852 
L 229.873212 81.532689 
L 225.842467 98.734731 
L 220.762327 112.894326 
L 214.746724 121.889916 
L 207.93057 127.229756 
L 200.466732 131.653462 
L 192.522602 136.091375 
L 184.276343 141.148728 
L 175.912896 147.616605 
L 167.619829 156.157971 
L 159.583129 163.292866 
L 151.983038 167.931909 
L 138.760857 175.166634 
L 133.435303 177.772692 
L 125.949772 180.658073 
L 123.957673 181.657455 
L 123.201158 182.430753 
L 123.697193 182.872244 
L 125.434653 178.841969 
L 128.374572 164.436885 
L 132.451017 147.063514 
L 137.572564 133.70413 
L 143.624353 126.039767 
L 150.470659 120.547426 
L 157.957939 115.608768 
L 165.918275 110.600374 
L 174.173141 105.2321 
L 182.537404 100.640263 
L 190.823478 95.177468 
L 198.845529 90.606088 
L 206.423648 85.846286 
L 213.387878 80.792948 
L 219.582032 76.028772 
L 229.124833 69.295369 
L 232.259462 67.263879 
L 234.20078 65.73961 
L 234.90525 64.629316 
L 234.357072 64.184805 
L 232.568541 68.702246 
L 229.579768 84.219403 
L 225.457781 101.146737 
L 220.295027 114.693007 
L 214.207289 123.660308 
L 207.331099 128.864214 
L 191.844436 138.045663 
L 175.216532 147.086698 
L 158.930686 156.491869 
L 151.374836 160.897835 
L 144.439682 165.302635 
L 138.28076 169.887589 
L 133.036196 173.978284 
L 123.847019 180.803044 
L 123.194621 181.842187 
L 123.794921 182.332383 
L 125.634453 176.062755 
L 128.671965 160.740747 
L 132.839331 143.374059 
L 138.043092 130.927507 
L 144.166541 123.520128 
L 151.072348 118.073712 
L 158.605635 113.337193 
L 166.597453 108.609842 
L 174.868568 104.050227 
L 184.627635 99.531755 
L 206.311546 88.149243 
L 216.355928 81.965157 
L 225.56367 75.56918 
L 233.728269 69.729089 
L 246.223106 61.691695 
L 250.273121 59.368982 
L 252.725831 57.628948 
L 253.52623 56.603944 
L 252.656367 55.988052 
L 250.135751 62.664946 
L 246.02091 81.342876 
L 240.40413 99.529195 
L 233.411379 111.283847 
L 225.199483 117.817441 
L 215.952611 123.744056 
L 205.878145 129.55149 
L 195.202024 135.116856 
L 184.163683 141.253712 
L 173.01068 147.225327 
L 141.34426 164.998506 
L 132.176007 170.626564 
L 105.309629 188.81374 
L 104.578725 189.865323 
L 105.518018 190.225576 
L 108.106443 182.781055 
L 112.285948 163.791647 
L 117.9628 146.036257 
L 125.009682 135.305301 
L 133.268555 129.254188 
L 142.554195 124.018335 
L 152.658353 117.874175 
L 174.40252 105.270915 
L 185.55487 99.613899 
L 196.561358 93.082911 
L 207.175141 87.417084 
L 217.158181 81.669559 
L 226.286588 76.05632 
L 246.619629 62.748283 
L 250.539522 59.635389 
L 252.856135 57.251189 
L 253.517515 55.786318 
L 252.508828 55.282566 
L 249.852697 64.915685 
L 245.608689 84.359522 
L 239.871988 101.109351 
L 232.771249 111.511418 
L 224.465722 117.917601 
L 215.141675 124.075936 
L 205.00822 130.001574 
L 194.292621 135.821413 
L 183.235197 141.980251 
L 150.49675 159.549369 
L 140.544965 164.739709 
L 131.45676 169.743809 
L 123.435956 174.740933 
L 116.662436 179.474777 
L 107.433509 186.286301 
L 105.185081 188.273982 
L 104.593251 189.580561 
L 105.671292 189.959623 
L 108.395027 180.086179 
L 112.70337 160.844606 
L 118.499698 144.102769 
L 125.654016 134.230327 
L 134.005874 128.4358 
L 143.367963 123.22957 
L 153.53032 117.094643 
L 164.265032 111.228789 
L 175.33135 104.829991 
L 188.338607 98.741558 
L 215.280178 84.650334 
L 227.680353 77.364727 
L 238.989913 70.373153 
L 248.955219 64.073276 
L 257.352777 59.125398 
L 268.730703 52.019794 
L 271.455897 49.823951 
L 272.108719 48.766919 
L 270.674528 48.127288 
L 267.185487 60.169579 
L 261.719848 81.915915 
L 254.400187 98.505996 
L 245.390664 106.746618 
L 234.893336 112.769898 
L 223.143628 119.061664 
L 210.40505 126.114064 
L 196.963293 133.081102 
L 169.185088 148.010329 
L 155.471624 155.734724 
L 129.926842 169.583081 
L 118.668419 175.998459 
L 108.764201 181.890541 
L 100.436313 186.989757 
L 89.217063 194.226495 
L 86.577316 196.244403 
L 86.011486 197.42988 
L 87.532262 197.366445 
L 91.105537 184.613804 
L 96.651174 163.543686 
L 104.044799 148.195937 
L 113.120596 139.960756 
L 123.67502 133.571986 
L 135.471368 127.883622 
L 148.24508 120.949658 
L 175.563195 105.537432 
L 189.494933 98.611774 
L 203.192444 90.598117 
L 216.348533 83.48392 
L 228.668148 76.489489 
L 239.874995 69.989566 
L 249.717737 64.018314 
L 257.975631 59.270044 
L 264.463476 55.055308 
L 269.035768 51.492791 
L 271.589964 48.772206 
L 272.06878 47.311068 
L 270.46148 47.353903 
L 266.804109 62.65908 
L 261.178691 84.126128 
L 253.711389 99.086243 
L 244.569673 106.572736 
L 233.958563 112.641158 
L 222.116038 118.995986 
L 209.30769 126.205455 
L 195.820772 133.381873 
L 154.348531 156.448396 
L 141.221512 163.425845 
L 128.942899 169.803716 
L 117.788065 175.864771 
L 108.007181 181.44261 
L 99.819604 186.374471 
L 93.408957 190.561079 
L 88.919013 193.721099 
L 86.450467 195.841099 
L 86.058682 197.244954 
L 87.752445 196.898813 
L 91.49377 182.450368 
L 97.198748 161.671431 
L 104.739435 147.162511 
L 113.946715 139.297592 
L 124.614095 133.145783 
L 136.502337 127.432388 
L 149.344822 120.470685 
L 176.725503 105.210416 
L 192.96935 97.687136 
L 225.083077 80.461239 
L 282.093038 48.129128 
L 287.381945 44.676808 
L 290.241304 42.486804 
L 290.606989 41.557881 
L 288.470798 41.589812 
L 283.88064 59.114841 
L 276.939459 82.26273 
L 267.802925 96.35884 
L 256.675945 103.14332 
L 243.808063 109.269065 
L 197.800556 131.568227 
L 181.144091 140.168745 
L 164.440684 149.123183 
L 148.064944 158.361362 
L 132.384133 166.853214 
L 104.490519 181.78775 
L 92.903291 188.05029 
L 83.248105 193.460789 
L 70.551827 201.167736 
L 67.795475 203.226222 
L 67.534261 204.42113 
L 69.774044 203.068135 
L 74.464592 185.094331 
L 81.500709 164.288278 
L 90.724595 151.425777 
L 101.929387 143.991952 
L 114.863792 137.386705 
L 129.23773 130.927062 
L 144.728835 123.57066 
L 160.989687 114.503777 
L 177.655603 105.420467 
L 194.352814 97.172367 
L 210.70685 87.754307 
L 254.129655 64.215843 
L 265.641288 57.771039 
L 275.210954 52.594578 
L 282.624033 47.855041 
L 287.71427 43.97708 
L 290.367507 41.390514 
L 290.524239 40.113637 
L 288.180952 41.468856 
L 283.390198 61.633736 
L 276.259419 83.709409 
L 266.94854 96.596869 
L 255.666375 103.132958 
L 212.708567 123.82461 
L 196.423465 131.870913 
L 179.74875 140.674254 
L 163.058387 149.85248 
L 146.726692 159.112285 
L 131.119938 167.45563 
L 103.4572 181.99384 
L 82.537838 193.11178 
L 75.218576 197.465583 
L 70.227973 200.708117 
L 67.677954 202.844026 
L 67.625709 204.309216 
L 70.07241 202.240687 
L 74.963184 183.13725 
L 82.188345 162.855896 
L 91.585855 150.708366 
L 102.944953 143.44818 
L 116.01089 136.82873 
L 116.01089 136.82873 
" clip-path="url(#p1af80a54f1)" style="fill: none; stroke: #ff0000; stroke-linecap: square"/>
   </g>
   <g id="line2d_30">
    <path d="M 179.051025 123.81889 
L 181.831503 70.453744 
L 184.549622 53.337764 
L 187.144424 47.393646 
L 189.557714 44.211911 
L 191.73537 42.475743 
L 195.194805 40.276449 
L 197.621911 38.977153 
L 196.356433 52.511817 
L 195.136556 64.293799 
L 193.555928 77.609931 
L 191.649996 90.79875 
L 189.461506 102.420461 
L 187.03954 112.420427 
L 181.716465 129.774848 
L 178.934738 142.521406 
L 176.155619 171.644947 
L 173.441435 183.231875 
L 170.853058 190.629008 
L 168.448538 195.530238 
L 166.2818 198.729194 
L 164.401439 200.967589 
L 161.661163 203.558746 
L 160.472156 204.49767 
L 161.788857 190.56513 
L 163.02437 178.867933 
L 164.619315 165.955577 
L 166.53792 153.529566 
L 168.737158 142.861295 
L 171.167706 133.878155 
L 173.775054 126.32698 
L 176.500727 117.53725 
L 179.283596 96.14755 
L 182.061248 80.491993 
L 184.77139 69.826674 
L 187.353241 62.50397 
L 189.748897 57.268791 
L 191.904632 53.386861 
L 195.309411 48.176566 
L 197.637152 45.074655 
L 196.269279 59.026457 
L 195.018179 70.536066 
L 193.408981 83.192921 
L 191.477776 95.229348 
L 189.267875 105.530089 
L 186.828841 114.066662 
L 184.215372 121.643686 
L 181.486082 130.083889 
L 178.702181 150.987887 
L 175.926103 166.525384 
L 173.220109 177.323066 
L 170.644884 184.847968 
L 168.258186 190.250605 
L 166.113539 194.299665 
L 162.736286 199.688896 
L 160.458365 202.878871 
L 161.877356 188.516516 
L 163.143996 177.154371 
L 164.767384 164.883425 
L 166.711113 153.197191 
L 168.93159 143.091624 
L 171.379016 134.575552 
L 173.998504 126.683025 
L 176.731304 115.814827 
L 179.981234 92.323817 
L 185.530023 69.099668 
L 190.933506 56.322468 
L 196.0705 48.206885 
L 200.825797 42.50517 
L 205.092749 39.579439 
L 208.775661 37.694734 
L 214.073927 35.36817 
L 216.247962 34.502358 
L 215.10383 46.274296 
L 213.307852 62.573803 
L 210.743594 80.295549 
L 207.468563 94.886189 
L 203.556209 105.913352 
L 199.094276 114.073342 
L 194.182831 120.049535 
L 188.932023 125.667294 
L 183.459613 133.458902 
L 177.888332 158.606775 
L 172.343126 179.049966 
L 166.948359 191.587849 
L 161.82502 199.858125 
L 157.08801 205.081012 
L 152.843566 207.708936 
L 149.18688 209.589223 
L 143.949792 211.933449 
L 141.843923 212.793267 
L 143.057128 200.435088 
L 144.886045 184.14777 
L 147.481183 166.642439 
L 150.78434 152.269371 
L 154.721437 141.376763 
L 159.204176 133.21319 
L 164.132022 127.341668 
L 169.394458 121.512497 
L 174.873462 112.671347 
L 180.446157 90.265548 
L 185.987564 72.582712 
L 191.373403 61.126678 
L 196.482888 56.786112 
L 201.201427 54.224365 
L 205.423197 53.180637 
L 209.053516 51.966388 
L 212.010966 50.858967 
L 214.22922 77.840197 
L 215.658531 72.048514 
L 216.266841 70.594168 
L 216.040509 73.026602 
L 214.98461 82.687215 
L 213.122826 94.716779 
L 210.49691 107.357272 
L 207.165755 118.343776 
L 203.204068 126.179312 
L 198.700698 131.699642 
L 193.756644 135.964767 
L 188.482785 140.062718 
L 182.9974 144.765379 
L 177.423509 161.439586 
L 171.886118 178.611046 
L 166.509415 188.500195 
L 161.413984 182.165755 
L 156.714101 180.679712 
L 152.51517 180.804881 
L 148.91136 181.492069 
L 143.79724 182.987753 
L 141.827948 183.67201 
L 143.179154 170.463621 
L 145.073733 156.190981 
L 147.730324 141.043124 
L 151.089348 128.46095 
L 155.07547 120.85157 
L 159.599294 115.859838 
L 164.559364 111.89226 
L 169.84444 108.172668 
L 175.335993 103.29801 
L 181.840781 92.793065 
L 190.14052 86.042625 
L 198.191554 80.379384 
L 205.813322 73.102007 
L 212.834889 64.670084 
L 219.098782 62.484936 
L 228.811767 58.692168 
L 234.894356 56.194693 
L 234.450484 60.793707 
L 232.764162 75.478341 
L 229.873212 94.08073 
L 225.842467 109.373936 
L 220.762327 117.788968 
L 214.746724 123.354233 
L 207.93057 128.140739 
L 200.466732 132.834334 
L 192.522602 137.646159 
L 184.276343 143.705013 
L 175.912896 147.683806 
L 167.619829 152.920751 
L 159.583129 161.436482 
L 151.983038 171.81481 
L 144.990003 173.835441 
L 138.760857 176.085282 
L 129.132777 179.997311 
L 123.201158 182.557759 
L 123.697193 177.184079 
L 125.434653 162.026533 
L 128.374572 142.201518 
L 132.451017 136.855926 
L 137.572564 129.47395 
L 143.624353 123.525748 
L 150.470659 117.93293 
L 157.957939 112.303132 
L 165.918275 106.688653 
L 182.537404 95.780441 
L 190.823478 88.29501 
L 198.845529 79.439355 
L 206.423648 76.315489 
L 219.582032 70.479826 
L 234.90525 63.524765 
L 234.357072 69.207613 
L 232.568541 84.247971 
L 229.579768 102.861633 
L 225.457781 116.580883 
L 220.295027 123.963763 
L 214.207289 129.129071 
L 207.331099 133.785714 
L 199.820669 138.424978 
L 183.581284 147.929647 
L 175.216532 152.724006 
L 166.937776 157.654263 
L 158.930686 163.114076 
L 151.374836 169.388954 
L 144.439682 174.418267 
L 133.036196 179.881246 
L 123.194621 184.32327 
L 123.794921 178.211623 
L 125.634453 162.837729 
L 128.671965 144.040255 
L 132.839331 130.551627 
L 138.043092 123.363986 
L 144.166541 118.230117 
L 151.072348 113.565886 
L 158.605635 108.920943 
L 166.597453 104.2025 
L 174.868568 99.462328 
L 184.627635 94.014135 
L 206.311546 82.152175 
L 216.355928 76.260963 
L 225.56367 69.984808 
L 233.728269 64.05623 
L 240.666617 60.782249 
L 253.52623 55.192351 
L 252.656367 63.393649 
L 250.135751 82.471099 
L 246.02091 101.655554 
L 240.40413 112.455508 
L 233.411379 118.893166 
L 225.199483 124.430798 
L 215.952611 130.009091 
L 195.202024 141.889171 
L 173.01068 154.232449 
L 151.358167 165.962589 
L 141.34426 171.725531 
L 132.176007 177.775073 
L 124.059023 183.843887 
L 117.17535 187.073403 
L 104.578725 192.530662 
L 105.518018 183.797057 
L 108.106443 164.475388 
L 112.285948 145.425024 
L 117.9628 134.907315 
L 125.009682 128.523906 
L 133.268555 122.98031 
L 142.554195 117.388064 
L 163.354422 105.4929 
L 185.55487 93.200613 
L 207.175141 81.691847 
L 226.286588 71.698623 
L 234.35564 67.337822 
L 241.184369 63.354321 
L 246.619629 59.885734 
L 252.856135 55.632702 
L 253.517515 55.336057 
L 252.508828 64.693604 
L 249.852697 84.282079 
L 245.608689 102.951631 
L 239.871988 113.132275 
L 232.771249 119.420996 
L 224.465722 124.935408 
L 215.141675 130.517676 
L 194.292621 142.401847 
L 172.083934 154.701709 
L 150.49675 166.18814 
L 131.45676 176.144175 
L 123.435956 180.488279 
L 116.662436 184.451226 
L 111.28811 187.876108 
L 105.185081 192.047552 
L 104.593251 192.313054 
L 105.671292 182.425165 
L 108.395027 162.627391 
L 112.70337 144.185595 
L 118.499698 134.217498 
L 125.654016 127.982316 
L 134.005874 122.465396 
L 143.367963 116.870881 
L 164.265032 104.969102 
L 175.33135 98.788555 
L 188.338607 91.694631 
L 215.280178 77.459343 
L 227.680353 70.986054 
L 238.989913 64.767143 
L 248.955219 58.521591 
L 257.352777 53.64955 
L 271.455897 47.874763 
L 272.108719 47.615658 
L 270.674528 60.121035 
L 267.185487 82.542772 
L 261.719848 99.374912 
L 254.400187 108.037344 
L 245.390664 114.365764 
L 234.893336 120.417818 
L 169.185088 156.486761 
L 142.286978 170.615644 
L 129.926842 177.044668 
L 118.668419 183.24266 
L 108.764201 189.426173 
L 100.436313 194.148314 
L 86.011486 200.023142 
L 87.532262 186.890825 
L 91.105537 164.345996 
L 96.651174 147.851346 
L 104.044799 139.344115 
L 113.120596 133.041316 
L 123.67502 126.974321 
L 189.494933 90.9222 
L 216.348533 76.88654 
L 239.874995 64.993665 
L 257.975631 55.845304 
L 264.463476 52.308588 
L 272.06878 47.838531 
L 270.46148 61.699799 
L 266.804109 84.32658 
L 261.178691 100.379554 
L 253.711389 108.704564 
L 244.569673 114.962231 
L 233.958563 120.995971 
L 195.820772 141.888184 
L 181.957758 149.518259 
L 168.029555 157.028378 
L 141.221512 171.031314 
L 117.788065 182.881171 
L 99.819604 191.970013 
L 93.408957 195.480222 
L 86.058682 199.807328 
L 87.752445 185.336335 
L 91.49377 162.628297 
L 97.198748 146.901317 
L 104.739435 138.706872 
L 113.946715 132.464672 
L 124.614095 126.401922 
L 192.96935 89.09175 
L 209.366154 80.506279 
L 225.083077 72.454783 
L 253.090498 58.42051 
L 264.75287 52.227516 
L 274.493199 46.872273 
L 290.606989 40.656798 
L 288.470798 58.182229 
L 283.88064 82.210369 
L 276.939459 96.049101 
L 267.802925 103.772982 
L 256.675945 110.427511 
L 243.808063 117.233993 
L 229.487869 124.352181 
L 214.036524 132.337976 
L 164.440684 159.081735 
L 148.064944 167.607942 
L 132.384133 175.600268 
L 104.490519 189.512953 
L 83.248105 200.912818 
L 67.534261 206.964041 
L 69.774044 188.739812 
L 74.464592 164.774754 
L 81.500709 151.247236 
L 90.724595 143.602883 
L 101.929387 136.952966 
L 114.863792 130.138761 
L 129.23773 122.986248 
L 144.728835 114.948003 
L 194.352814 88.270007 
L 210.70685 79.786903 
L 226.350938 71.83886 
L 240.934226 64.586679 
L 254.129655 58.238356 
L 282.624033 45.025179 
L 290.524239 40.891045 
L 288.180952 59.53257 
L 283.390198 83.38207 
L 276.259419 96.878108 
L 266.94854 104.432045 
L 255.666375 111.066901 
L 242.66595 117.877808 
L 228.238828 125.002324 
L 212.708567 133.049924 
L 163.058387 159.734468 
L 146.726692 168.199468 
L 131.119938 176.127233 
L 116.588139 183.352692 
L 103.4572 189.656584 
L 75.218576 202.782441 
L 67.625709 206.780906 
L 70.07241 187.131565 
L 74.963184 163.373599 
L 82.188345 150.476318 
L 91.585855 142.987989 
L 102.944953 136.35116 
L 116.01089 129.520915 
L 116.01089 129.520915 
" clip-path="url(#p1af80a54f1)" style="fill: none; stroke-dasharray: 2.96,1.28; stroke-dashoffset: 0; stroke: #000000; stroke-width: 0.8"/>
   </g>
   <g id="line2d_31">
    <path d="M 56.380625 123.81889 
L 301.760625 123.81889 
" clip-path="url(#p1af80a54f1)" style="fill: none; stroke: #000000; stroke-width: 0.4; stroke-linecap: square"/>
   </g>
   <g id="line2d_32">
    <path d="M 179.051025 221.707812 
L 179.051025 25.587812 
" clip-path="url(#p1af80a54f1)" style="fill: none; stroke: #000000; stroke-width: 0.4; stroke-linecap: square"/>
   </g>
   <g id="patch_3">
    <path d="M 56.380625 221.707812 
L 56.380625 25.587812 
" style="fill: none; stroke: #000000; stroke-width: 0.8; stroke-linejoin: miter; stroke-linecap: square"/>
   </g>
   <g id="patch_4">
    <path d="M 301.760625 221.707812 
L 301.760625 25.587812 
" style="fill: none; stroke: #000000; stroke-width: 0.8; stroke-linejoin: miter; stroke-linecap: square"/>
   </g>
   <g id="patch_5">
    <path d="M 56.380625 221.707812 
L 301.760625 221.707812 
" style="fill: none; stroke: #000000; stroke-width: 0.8; stroke-linejoin: miter; stroke-linecap: square"/>
   </g>
   <g id="patch_6">
    <path d="M 56.380625 25.587812 
L 301.760625 25.587812 
" style="fill: none; stroke: #000000; stroke-width: 0.8; stroke-linejoin: miter; stroke-linecap: square"/>
   </g>
   <g id="text_17">
    <!-- Specimen ③ -->
    <g transform="translate(140.168125 19.587812) scale(0.14 -0.14)">
     <defs>
      <path id="Cambria-53" d="M 663 972 
Q 725 697 831 537 
Q 938 378 1106 301 
Q 1275 225 1541 225 
Q 1906 225 2101 415 
Q 2297 606 2297 972 
Q 2297 1206 2215 1365 
Q 2134 1525 1950 1665 
Q 1766 1806 1388 1994 
Q 1022 2175 809 2348 
Q 597 2522 492 2725 
Q 388 2928 388 3169 
Q 388 3519 552 3776 
Q 716 4034 1033 4175 
Q 1350 4316 1759 4316 
Q 1997 4316 2223 4291 
Q 2450 4266 2791 4178 
L 2791 3334 
L 2481 3334 
Q 2409 3609 2300 3762 
Q 2191 3916 2044 3977 
Q 1897 4038 1663 4038 
Q 1459 4038 1298 3963 
Q 1138 3888 1044 3736 
Q 950 3584 950 3375 
Q 950 3153 1029 3000 
Q 1109 2847 1278 2715 
Q 1447 2584 1778 2422 
Q 2178 2222 2398 2050 
Q 2619 1878 2742 1658 
Q 2866 1438 2866 1144 
Q 2866 816 2762 589 
Q 2659 363 2476 220 
Q 2294 78 2039 14 
Q 1784 -50 1481 -50 
Q 991 -50 350 116 
L 350 972 
L 663 972 
z
" transform="scale(0.015625)"/>
      <path id="Cambria-70" d="M 1150 94 
L 1150 -566 
Q 1150 -769 1164 -869 
Q 1178 -969 1214 -1026 
Q 1250 -1084 1317 -1121 
Q 1384 -1159 1534 -1191 
L 1534 -1344 
L 259 -1344 
L 259 -1191 
Q 372 -1159 442 -1126 
Q 513 -1094 550 -1030 
Q 588 -966 600 -856 
Q 613 -747 613 -566 
L 613 2116 
Q 613 2341 606 2436 
Q 600 2531 581 2593 
Q 563 2656 527 2697 
Q 491 2738 430 2766 
Q 369 2794 228 2822 
L 228 2988 
L 963 3016 
L 1153 3016 
L 1113 2506 
L 1159 2494 
Q 1353 2691 1465 2780 
Q 1578 2869 1698 2928 
Q 1819 2988 1930 3013 
Q 2041 3038 2166 3038 
Q 2681 3038 2957 2652 
Q 3234 2266 3234 1522 
Q 3234 1006 3078 654 
Q 2922 303 2623 126 
Q 2325 -50 1913 -50 
Q 1681 -50 1493 -11 
Q 1306 28 1150 94 
z
M 1150 1125 
Q 1150 825 1187 662 
Q 1225 500 1320 398 
Q 1416 297 1545 247 
Q 1675 197 1888 197 
Q 2266 197 2456 511 
Q 2647 825 2647 1438 
Q 2647 2663 1931 2663 
Q 1756 2663 1629 2608 
Q 1503 2553 1378 2431 
Q 1253 2309 1201 2195 
Q 1150 2081 1150 1950 
L 1150 1125 
z
" transform="scale(0.015625)"/>
      <path id="Cambria-65" d="M 2800 531 
Q 2600 322 2433 203 
Q 2266 84 2066 17 
Q 1866 -50 1625 -50 
Q 981 -50 653 336 
Q 325 722 325 1475 
Q 325 1941 492 2297 
Q 659 2653 968 2847 
Q 1278 3041 1681 3041 
Q 1997 3041 2219 2941 
Q 2441 2841 2573 2667 
Q 2706 2494 2779 2230 
Q 2853 1966 2863 1541 
L 894 1541 
L 894 1484 
Q 894 1116 976 864 
Q 1059 613 1248 470 
Q 1438 328 1741 328 
Q 1997 328 2201 423 
Q 2406 519 2609 734 
L 2800 531 
z
M 2275 1800 
Q 2256 2138 2190 2352 
Q 2125 2566 1994 2680 
Q 1863 2794 1650 2794 
Q 1328 2794 1136 2536 
Q 944 2278 909 1800 
L 2275 1800 
z
" transform="scale(0.015625)"/>
      <path id="Cambria-63" d="M 2631 2916 
L 2631 2263 
L 2234 2263 
Q 2181 2466 2103 2583 
Q 2025 2700 1922 2747 
Q 1819 2794 1666 2794 
Q 1447 2794 1278 2653 
Q 1109 2513 1011 2225 
Q 913 1938 913 1522 
Q 913 1256 950 1036 
Q 988 816 1078 659 
Q 1169 503 1319 415 
Q 1469 328 1691 328 
Q 1906 328 2092 412 
Q 2278 497 2478 709 
L 2656 503 
Q 2497 328 2375 233 
Q 2253 138 2114 73 
Q 1975 9 1839 -20 
Q 1703 -50 1544 -50 
Q 953 -50 640 342 
Q 328 734 328 1475 
Q 328 1938 503 2295 
Q 678 2653 993 2847 
Q 1309 3041 1722 3041 
Q 1978 3041 2195 3011 
Q 2413 2981 2631 2916 
z
" transform="scale(0.015625)"/>
      <path id="Cambria-69" d="M 1197 4213 
L 1197 3606 
L 622 3606 
L 622 4213 
L 1197 4213 
z
M 303 153 
Q 425 191 476 219 
Q 528 247 564 297 
Q 600 347 620 450 
Q 641 553 641 772 
L 641 2134 
Q 641 2334 634 2456 
Q 628 2578 590 2651 
Q 553 2725 476 2761 
Q 400 2797 259 2822 
L 259 2988 
L 988 3016 
L 1178 3016 
L 1178 781 
Q 1178 513 1203 408 
Q 1228 303 1298 248 
Q 1369 194 1528 153 
L 1528 0 
L 303 0 
L 303 153 
z
" transform="scale(0.015625)"/>
      <path id="Cambria-6d" d="M 1147 2506 
L 1191 2494 
Q 1378 2681 1498 2776 
Q 1619 2872 1731 2930 
Q 1844 2988 1942 3013 
Q 2041 3038 2144 3038 
Q 2456 3038 2653 2894 
Q 2850 2750 2925 2453 
Q 3159 2691 3304 2803 
Q 3450 2916 3601 2977 
Q 3753 3038 3928 3038 
Q 4138 3038 4289 2977 
Q 4441 2916 4545 2789 
Q 4650 2663 4698 2472 
Q 4747 2281 4747 1959 
L 4747 781 
Q 4747 544 4762 453 
Q 4778 363 4808 313 
Q 4838 263 4897 227 
Q 4956 191 5097 153 
L 5097 0 
L 3869 0 
L 3869 153 
Q 3991 191 4044 219 
Q 4097 247 4133 297 
Q 4169 347 4189 451 
Q 4209 556 4209 769 
L 4209 1588 
Q 4209 1853 4195 2026 
Q 4181 2200 4151 2303 
Q 4122 2406 4080 2465 
Q 4038 2525 3984 2569 
Q 3931 2613 3859 2638 
Q 3788 2663 3669 2663 
Q 3544 2663 3436 2613 
Q 3328 2563 3201 2444 
Q 3075 2325 3019 2204 
Q 2963 2084 2963 1922 
L 2963 781 
Q 2963 544 2978 453 
Q 2994 363 3023 313 
Q 3053 263 3112 227 
Q 3172 191 3313 153 
L 3313 0 
L 2084 0 
L 2084 153 
Q 2206 191 2259 219 
Q 2313 247 2348 297 
Q 2384 347 2404 451 
Q 2425 556 2425 769 
L 2425 1588 
Q 2425 1866 2409 2041 
Q 2394 2216 2361 2322 
Q 2328 2428 2276 2493 
Q 2225 2559 2172 2593 
Q 2119 2628 2047 2645 
Q 1975 2663 1884 2663 
Q 1756 2663 1643 2605 
Q 1531 2547 1414 2437 
Q 1297 2328 1237 2209 
Q 1178 2091 1178 1953 
L 1178 781 
Q 1178 603 1187 509 
Q 1197 416 1217 362 
Q 1238 309 1269 276 
Q 1300 244 1358 214 
Q 1416 184 1531 153 
L 1531 0 
L 306 0 
L 306 153 
Q 425 191 476 219 
Q 528 247 565 297 
Q 603 347 622 450 
Q 641 553 641 772 
L 641 2134 
Q 641 2334 634 2456 
Q 628 2578 590 2651 
Q 553 2725 476 2761 
Q 400 2797 259 2822 
L 259 2988 
L 991 3016 
L 1181 3016 
L 1147 2506 
z
" transform="scale(0.015625)"/>
      <path id="Cambria-6e" d="M 3347 0 
L 2116 0 
L 2116 153 
Q 2238 191 2291 219 
Q 2344 247 2380 297 
Q 2416 347 2436 451 
Q 2456 556 2456 769 
L 2456 1588 
Q 2456 1806 2443 1984 
Q 2431 2163 2401 2277 
Q 2372 2391 2330 2455 
Q 2288 2519 2230 2564 
Q 2172 2609 2097 2636 
Q 2022 2663 1900 2663 
Q 1778 2663 1668 2614 
Q 1559 2566 1428 2447 
Q 1297 2328 1237 2212 
Q 1178 2097 1178 1947 
L 1178 781 
Q 1178 513 1203 408 
Q 1228 303 1298 248 
Q 1369 194 1528 153 
L 1528 0 
L 303 0 
L 303 153 
Q 425 191 476 219 
Q 528 247 564 297 
Q 600 347 620 450 
Q 641 553 641 772 
L 641 2134 
Q 641 2334 634 2456 
Q 628 2578 590 2651 
Q 553 2725 476 2761 
Q 400 2797 259 2822 
L 259 2988 
L 991 3016 
L 1181 3016 
L 1147 2506 
L 1191 2494 
Q 1422 2728 1564 2828 
Q 1706 2928 1851 2983 
Q 1997 3038 2159 3038 
Q 2328 3038 2461 2998 
Q 2594 2959 2695 2878 
Q 2797 2797 2862 2676 
Q 2928 2556 2961 2387 
Q 2994 2219 2994 1959 
L 2994 781 
Q 2994 566 3006 469 
Q 3019 372 3050 319 
Q 3081 266 3140 230 
Q 3200 194 3347 153 
L 3347 0 
z
" transform="scale(0.015625)"/>
      <path id="Cambria-20" transform="scale(0.015625)"/>
      <path id="Cambria-2462" d="M 313 2131 
Q 313 2619 439 3070 
Q 566 3522 794 3914 
Q 1022 4306 1345 4628 
Q 1669 4950 2059 5179 
Q 2450 5409 2901 5536 
Q 3353 5663 3841 5663 
Q 4328 5663 4779 5536 
Q 5231 5409 5623 5179 
Q 6016 4950 6337 4628 
Q 6659 4306 6889 3914 
Q 7119 3522 7245 3070 
Q 7372 2619 7372 2131 
Q 7372 1644 7245 1192 
Q 7119 741 6889 350 
Q 6659 -41 6337 -364 
Q 6016 -688 5623 -916 
Q 5231 -1144 4779 -1270 
Q 4328 -1397 3841 -1397 
Q 3353 -1397 2901 -1270 
Q 2450 -1144 2059 -916 
Q 1669 -688 1345 -364 
Q 1022 -41 794 350 
Q 566 741 439 1192 
Q 313 1644 313 2131 
z
M 594 2131 
Q 594 1678 709 1259 
Q 825 841 1036 477 
Q 1247 113 1544 -187 
Q 1841 -488 2202 -700 
Q 2563 -913 2977 -1030 
Q 3391 -1147 3841 -1147 
Q 4288 -1147 4703 -1030 
Q 5119 -913 5480 -700 
Q 5841 -488 6137 -187 
Q 6434 113 6646 477 
Q 6859 841 6975 1259 
Q 7091 1678 7091 2131 
Q 7091 2584 6975 3003 
Q 6859 3422 6646 3787 
Q 6434 4153 6137 4451 
Q 5841 4750 5480 4964 
Q 5119 5178 4703 5295 
Q 4288 5413 3841 5413 
Q 3391 5413 2977 5295 
Q 2563 5178 2202 4964 
Q 1841 4750 1544 4451 
Q 1247 4153 1036 3787 
Q 825 3422 709 3003 
Q 594 2584 594 2131 
z
M 2772 3194 
L 2772 3722 
Q 3097 3872 3373 3944 
Q 3650 4016 3909 4016 
Q 4147 4016 4339 3962 
Q 4531 3909 4665 3807 
Q 4800 3706 4872 3561 
Q 4944 3416 4944 3231 
Q 4944 2919 4755 2691 
Q 4566 2463 4166 2294 
L 4166 2281 
Q 4331 2253 4484 2181 
Q 4638 2109 4755 1996 
Q 4872 1884 4942 1726 
Q 5013 1569 5013 1366 
Q 5013 1141 4931 948 
Q 4850 756 4692 614 
Q 4534 472 4301 392 
Q 4069 313 3766 313 
Q 3481 313 3226 366 
Q 2972 419 2731 509 
L 2731 1094 
L 3109 1094 
Q 3206 822 3354 698 
Q 3503 575 3753 575 
Q 4088 575 4258 756 
Q 4428 938 4428 1294 
Q 4428 1669 4201 1864 
Q 3975 2059 3531 2059 
L 3256 2059 
L 3256 2328 
Q 3531 2344 3737 2412 
Q 3944 2481 4081 2590 
Q 4219 2700 4287 2844 
Q 4356 2988 4356 3150 
Q 4356 3434 4207 3586 
Q 4059 3738 3769 3738 
Q 3297 3738 3153 3194 
L 2772 3194 
z
" transform="scale(0.015625)"/>
     </defs>
     <use xlink:href="#Cambria-53"/>
     <use xlink:href="#Cambria-70" x="49.609375"/>
     <use xlink:href="#Cambria-65" x="105.224609"/>
     <use xlink:href="#Cambria-63" x="154.003906"/>
     <use xlink:href="#Cambria-69" x="198.095703"/>
     <use xlink:href="#Cambria-6d" x="225.878906"/>
     <use xlink:href="#Cambria-65" x="309.082031"/>
     <use xlink:href="#Cambria-6e" x="357.861328"/>
     <use xlink:href="#Cambria-20" x="413.671875"/>
     <use xlink:href="#Cambria-2462" x="435.693359"/>
    </g>
   </g>
   <g id="legend_1">
    <g id="patch_7">
     <path d="M 62.680625 59.905937 
L 168.959375 59.905937 
Q 170.759375 59.905937 170.759375 58.105937 
L 170.759375 31.887812 
Q 170.759375 30.087812 168.959375 30.087812 
L 62.680625 30.087812 
Q 60.880625 30.087812 60.880625 31.887812 
L 60.880625 58.105937 
Q 60.880625 59.905937 62.680625 59.905937 
z
" style="fill: #ffffff; opacity: 0.8; stroke: #cccccc; stroke-linejoin: miter"/>
    </g>
    <g id="line2d_33">
     <path d="M 64.480625 36.837812 
L 73.480625 36.837812 
L 82.480625 36.837812 
" style="fill: none; stroke: #ff0000; stroke-linecap: square"/>
    </g>
    <g id="text_18">
     <!-- LSTM-AE prediction -->
     <g transform="translate(89.680625 39.987812) scale(0.09 -0.09)">
      <defs>
       <path id="Cambria-4c" d="M 1328 288 
L 2147 288 
Q 2281 288 2372 303 
Q 2463 319 2527 351 
Q 2591 384 2642 442 
Q 2694 500 2741 594 
Q 2788 688 2830 830 
Q 2872 972 2934 1256 
L 3250 1256 
L 3188 0 
L 378 0 
L 378 153 
Q 572 203 637 264 
Q 703 325 723 437 
Q 744 550 744 781 
L 744 3484 
Q 744 3700 728 3798 
Q 713 3897 677 3951 
Q 641 4006 581 4039 
Q 522 4072 378 4113 
L 378 4266 
L 1694 4266 
L 1694 4113 
Q 1556 4075 1498 4045 
Q 1441 4016 1403 3966 
Q 1366 3916 1347 3812 
Q 1328 3709 1328 3484 
L 1328 288 
z
" transform="scale(0.015625)"/>
       <path id="Cambria-54" d="M 206 4266 
L 3588 4266 
L 3588 3178 
L 3281 3178 
Q 3213 3447 3145 3603 
Q 3078 3759 3003 3840 
Q 2928 3922 2842 3956 
Q 2756 3991 2584 3991 
L 2188 3991 
L 2188 791 
Q 2188 606 2208 497 
Q 2228 388 2270 323 
Q 2313 259 2384 223 
Q 2456 188 2609 153 
L 2609 0 
L 1181 0 
L 1181 153 
Q 1275 175 1347 200 
Q 1419 225 1464 261 
Q 1509 297 1539 353 
Q 1569 409 1586 506 
Q 1603 603 1603 791 
L 1603 3991 
L 1209 3991 
Q 1063 3991 967 3962 
Q 872 3934 790 3845 
Q 709 3756 642 3592 
Q 575 3428 516 3178 
L 206 3178 
L 206 4266 
z
" transform="scale(0.015625)"/>
       <path id="Cambria-4d" d="M 4841 4113 
Q 4703 4078 4642 4043 
Q 4581 4009 4545 3957 
Q 4509 3906 4492 3803 
Q 4475 3700 4475 3484 
L 4475 781 
Q 4475 572 4489 475 
Q 4503 378 4536 322 
Q 4569 266 4633 228 
Q 4697 191 4841 153 
L 4841 0 
L 3538 0 
L 3538 153 
Q 3716 197 3784 253 
Q 3853 309 3878 418 
Q 3903 528 3903 781 
L 3903 1978 
Q 3903 2450 3917 2933 
Q 3931 3416 3950 3594 
L 3897 3594 
L 2659 497 
L 2300 497 
L 1150 3644 
L 1097 3644 
Q 1113 3453 1127 2953 
Q 1141 2453 1141 1925 
L 1141 781 
Q 1141 572 1155 475 
Q 1169 378 1201 322 
Q 1234 266 1298 228 
Q 1363 191 1506 153 
L 1506 0 
L 366 0 
L 366 153 
Q 559 203 625 264 
Q 691 325 711 437 
Q 731 550 731 781 
L 731 3484 
Q 731 3700 715 3798 
Q 700 3897 664 3951 
Q 628 4006 568 4039 
Q 509 4072 366 4113 
L 366 4266 
L 1481 4266 
L 2578 1225 
L 3784 4266 
L 4841 4266 
L 4841 4113 
z
" transform="scale(0.015625)"/>
       <path id="Cambria-2d" d="M 1788 1403 
L 338 1403 
L 338 1888 
L 1788 1888 
L 1788 1403 
z
" transform="scale(0.015625)"/>
       <path id="Cambria-41" d="M 2488 0 
L 2488 153 
Q 2644 184 2720 221 
Q 2797 259 2834 326 
Q 2872 394 2872 506 
Q 2872 613 2847 736 
Q 2822 859 2775 1013 
L 2659 1416 
L 1203 1416 
L 1097 1109 
Q 1016 878 991 759 
Q 966 641 966 544 
Q 966 356 1061 268 
Q 1156 181 1353 153 
L 1353 0 
L 19 0 
L 19 153 
Q 194 181 323 356 
Q 453 531 575 856 
L 1878 4316 
L 2372 4316 
L 3434 831 
Q 3509 588 3567 459 
Q 3625 331 3706 259 
Q 3788 188 3928 153 
L 3928 0 
L 2488 0 
z
M 1288 1688 
L 2594 1688 
L 2000 3703 
L 1288 1688 
z
" transform="scale(0.015625)"/>
       <path id="Cambria-45" d="M 3300 4266 
L 3300 3322 
L 2994 3322 
Q 2947 3475 2897 3590 
Q 2847 3706 2794 3784 
Q 2741 3863 2677 3909 
Q 2613 3956 2525 3973 
Q 2438 3991 2316 3991 
L 1328 3991 
L 1328 2353 
L 1997 2353 
Q 2134 2353 2212 2392 
Q 2291 2431 2342 2525 
Q 2394 2619 2441 2819 
L 2734 2819 
L 2734 1619 
L 2441 1619 
Q 2397 1806 2344 1901 
Q 2291 1997 2217 2037 
Q 2144 2078 1997 2078 
L 1328 2078 
L 1328 275 
L 2300 275 
Q 2453 275 2548 301 
Q 2644 328 2712 392 
Q 2781 456 2834 559 
Q 2888 663 2923 773 
Q 2959 884 3022 1097 
L 3331 1097 
L 3272 0 
L 378 0 
L 378 153 
Q 572 203 637 264 
Q 703 325 723 437 
Q 744 550 744 781 
L 744 3484 
Q 744 3700 728 3798 
Q 713 3897 677 3951 
Q 641 4006 581 4039 
Q 522 4072 378 4113 
L 378 4266 
L 3300 4266 
z
" transform="scale(0.015625)"/>
       <path id="Cambria-72" d="M 1147 2469 
L 1191 2459 
Q 1363 2669 1509 2789 
Q 1656 2909 1826 2975 
Q 1997 3041 2213 3041 
Q 2394 3041 2541 3022 
L 2541 2303 
L 2188 2303 
Q 2113 2472 2028 2548 
Q 1944 2625 1797 2625 
Q 1684 2625 1573 2559 
Q 1463 2494 1359 2369 
Q 1256 2244 1217 2134 
Q 1178 2025 1178 1875 
L 1178 781 
Q 1178 497 1212 389 
Q 1247 281 1326 231 
Q 1406 181 1566 153 
L 1566 0 
L 306 0 
L 306 153 
Q 425 191 476 219 
Q 528 247 565 297 
Q 603 347 622 450 
Q 641 553 641 772 
L 641 2134 
Q 641 2334 634 2456 
Q 628 2578 590 2651 
Q 553 2725 476 2761 
Q 400 2797 259 2822 
L 259 2984 
L 991 3016 
L 1181 3016 
L 1147 2469 
z
" transform="scale(0.015625)"/>
       <path id="Cambria-64" d="M 2413 3397 
Q 2413 3697 2408 3815 
Q 2403 3934 2383 4017 
Q 2363 4100 2327 4147 
Q 2291 4194 2230 4222 
Q 2169 4250 2009 4278 
L 2009 4441 
L 2766 4472 
L 2950 4472 
L 2950 853 
Q 2950 609 2959 504 
Q 2969 400 3000 337 
Q 3031 275 3098 236 
Q 3166 197 3334 163 
L 3334 0 
L 2597 -31 
L 2409 -31 
L 2447 481 
L 2400 494 
Q 2203 284 2058 179 
Q 1913 75 1748 12 
Q 1584 -50 1397 -50 
Q 884 -50 606 339 
Q 328 728 328 1463 
Q 328 1975 509 2333 
Q 691 2691 998 2866 
Q 1306 3041 1691 3041 
Q 1897 3041 2065 3008 
Q 2234 2975 2413 2900 
L 2413 3397 
z
M 2413 1853 
Q 2413 2097 2391 2244 
Q 2369 2391 2317 2491 
Q 2266 2591 2178 2659 
Q 2091 2728 1986 2759 
Q 1881 2791 1734 2791 
Q 1334 2791 1125 2470 
Q 916 2150 916 1550 
Q 916 950 1087 637 
Q 1259 325 1609 325 
Q 1747 325 1837 348 
Q 1928 372 2015 423 
Q 2103 475 2193 565 
Q 2284 656 2326 731 
Q 2369 806 2391 903 
Q 2413 1000 2413 1153 
L 2413 1853 
z
" transform="scale(0.015625)"/>
       <path id="Cambria-74" d="M 116 2831 
Q 272 2856 369 2918 
Q 466 2981 520 3079 
Q 575 3178 606 3326 
Q 638 3475 672 3759 
L 1116 3759 
L 1116 2988 
L 2125 2988 
L 2125 2672 
L 1116 2672 
L 1116 1281 
Q 1116 978 1141 798 
Q 1166 619 1234 517 
Q 1303 416 1390 372 
Q 1478 328 1616 328 
Q 1741 328 1850 379 
Q 1959 431 2066 528 
L 2206 359 
Q 1984 144 1786 47 
Q 1588 -50 1375 -50 
Q 972 -50 775 189 
Q 578 428 578 938 
L 578 2672 
L 116 2672 
L 116 2831 
z
" transform="scale(0.015625)"/>
       <path id="Cambria-6f" d="M 1663 -50 
Q 1013 -50 670 333 
Q 328 716 328 1466 
Q 328 1981 508 2337 
Q 688 2694 1000 2867 
Q 1313 3041 1713 3041 
Q 2381 3041 2725 2652 
Q 3069 2263 3069 1534 
Q 3069 1016 2897 659 
Q 2725 303 2409 126 
Q 2094 -50 1663 -50 
z
M 919 1531 
Q 919 888 1123 542 
Q 1328 197 1709 197 
Q 1919 197 2066 298 
Q 2213 400 2305 572 
Q 2397 744 2437 970 
Q 2478 1197 2478 1444 
Q 2478 1903 2376 2206 
Q 2275 2509 2100 2651 
Q 1925 2794 1700 2794 
Q 1322 2794 1120 2466 
Q 919 2138 919 1531 
z
" transform="scale(0.015625)"/>
      </defs>
      <use xlink:href="#Cambria-4c"/>
      <use xlink:href="#Cambria-53" x="53.037109"/>
      <use xlink:href="#Cambria-54" x="101.396484"/>
      <use xlink:href="#Cambria-4d" x="160.673828"/>
      <use xlink:href="#Cambria-2d" x="242.216797"/>
      <use xlink:href="#Cambria-41" x="275.419922"/>
      <use xlink:href="#Cambria-45" x="337.724609"/>
      <use xlink:href="#Cambria-20" x="395.244141"/>
      <use xlink:href="#Cambria-70" x="417.265625"/>
      <use xlink:href="#Cambria-72" x="472.880859"/>
      <use xlink:href="#Cambria-65" x="514.238281"/>
      <use xlink:href="#Cambria-64" x="563.017578"/>
      <use xlink:href="#Cambria-69" x="618.486328"/>
      <use xlink:href="#Cambria-63" x="646.269531"/>
      <use xlink:href="#Cambria-74" x="690.361328"/>
      <use xlink:href="#Cambria-69" x="724.199219"/>
      <use xlink:href="#Cambria-6f" x="751.982422"/>
      <use xlink:href="#Cambria-6e" x="805.058594"/>
     </g>
    </g>
    <g id="line2d_34">
     <path d="M 64.480625 51.191406 
L 73.480625 51.191406 
L 82.480625 51.191406 
" style="fill: none; stroke-dasharray: 2.96,1.28; stroke-dashoffset: 0; stroke: #000000; stroke-width: 0.8"/>
    </g>
    <g id="text_19">
     <!-- Reference ③ -->
     <g transform="translate(89.680625 54.341406) scale(0.09 -0.09)">
      <defs>
       <path id="Cambria-52" d="M 1331 1853 
L 1331 791 
Q 1331 566 1348 464 
Q 1366 363 1400 311 
Q 1434 259 1493 226 
Q 1553 194 1697 153 
L 1697 0 
L 378 0 
L 378 153 
Q 572 203 637 264 
Q 703 325 723 437 
Q 744 550 744 781 
L 744 3484 
Q 744 3700 728 3798 
Q 713 3897 677 3951 
Q 641 4006 581 4039 
Q 522 4072 378 4113 
L 378 4266 
L 1925 4266 
Q 2656 4266 3018 4000 
Q 3381 3734 3381 3175 
Q 3381 2747 3145 2447 
Q 2909 2147 2438 1978 
L 2438 1953 
Q 2628 1875 2764 1729 
Q 2900 1584 3066 1278 
L 3347 766 
Q 3469 541 3556 422 
Q 3644 303 3734 240 
Q 3825 178 3975 153 
L 3975 0 
L 3109 0 
Q 2991 166 2884 356 
Q 2778 547 2675 744 
L 2400 1266 
Q 2275 1503 2195 1615 
Q 2116 1728 2048 1773 
Q 1981 1819 1904 1836 
Q 1828 1853 1675 1853 
L 1331 1853 
z
M 1331 3978 
L 1331 2122 
L 1684 2122 
Q 1956 2122 2125 2161 
Q 2294 2200 2437 2309 
Q 2581 2419 2667 2614 
Q 2753 2809 2753 3094 
Q 2753 3391 2651 3587 
Q 2550 3784 2344 3887 
Q 2138 3991 1788 3991 
Q 1506 3991 1331 3978 
z
" transform="scale(0.015625)"/>
       <path id="Cambria-66" d="M 1909 2672 
L 1163 2672 
L 1163 781 
Q 1163 572 1183 465 
Q 1203 359 1242 304 
Q 1281 250 1345 217 
Q 1409 184 1550 153 
L 1550 0 
L 272 0 
L 272 153 
Q 409 191 468 225 
Q 528 259 561 312 
Q 594 366 609 466 
Q 625 566 625 781 
L 625 2672 
L 247 2672 
L 247 2831 
Q 366 2850 405 2861 
Q 444 2872 480 2894 
Q 516 2916 542 2956 
Q 569 2997 589 3076 
Q 609 3156 622 3300 
Q 650 3641 745 3853 
Q 841 4066 1023 4216 
Q 1206 4366 1414 4427 
Q 1622 4488 1903 4488 
Q 2150 4488 2322 4453 
L 2322 3888 
L 2013 3888 
Q 1953 4072 1873 4148 
Q 1794 4225 1650 4225 
Q 1547 4225 1476 4197 
Q 1406 4169 1347 4109 
Q 1288 4050 1245 3950 
Q 1203 3850 1183 3701 
Q 1163 3553 1163 3316 
L 1163 2988 
L 1909 2988 
L 1909 2672 
z
" transform="scale(0.015625)"/>
      </defs>
      <use xlink:href="#Cambria-52"/>
      <use xlink:href="#Cambria-65" x="60.359375"/>
      <use xlink:href="#Cambria-66" x="109.138672"/>
      <use xlink:href="#Cambria-65" x="139.412109"/>
      <use xlink:href="#Cambria-72" x="188.191406"/>
      <use xlink:href="#Cambria-65" x="229.548828"/>
      <use xlink:href="#Cambria-6e" x="278.328125"/>
      <use xlink:href="#Cambria-63" x="334.138672"/>
      <use xlink:href="#Cambria-65" x="378.230469"/>
      <use xlink:href="#Cambria-20" x="427.009766"/>
      <use xlink:href="#Cambria-2462" x="449.03125"/>
     </g>
    </g>
   </g>
  </g>
 </g>
 <defs>
  <clipPath id="p1af80a54f1">
   <rect x="56.380625" y="25.587812" width="245.38" height="196.12"/>
  </clipPath>
 </defs>
</svg>
