<?xml version="1.0" encoding="utf-8" standalone="no"?>
<!DOCTYPE svg PUBLIC "-//W3C//DTD SVG 1.1//EN"
  "http://www.w3.org/Graphics/SVG/1.1/DTD/svg11.dtd">
<svg xmlns:xlink="http://www.w3.org/1999/xlink" width="147.8525pt" height="123.9725pt" viewBox="0 0 147.8525 123.9725" xmlns="http://www.w3.org/2000/svg" version="1.1">
 <metadata>
  <rdf:RDF xmlns:dc="http://purl.org/dc/elements/1.1/" xmlns:cc="http://creativecommons.org/ns#" xmlns:rdf="http://www.w3.org/1999/02/22-rdf-syntax-ns#">
   <cc:Work>
    <dc:type rdf:resource="http://purl.org/dc/dcmitype/StillImage"/>
    <dc:date>2024-06-12T12:09:56.308874</dc:date>
    <dc:format>image/svg+xml</dc:format>
    <dc:creator>
     <cc:Agent>
      <dc:title>Matplotlib v3.8.0, https://matplotlib.org/</dc:title>
     </cc:Agent>
    </dc:creator>
   </cc:Work>
  </rdf:RDF>
 </metadata>
 <defs>
  <style type="text/css">*{stroke-linejoin: round; stroke-linecap: butt}</style>
 </defs>
 <g id="figure_1">
  <g id="patch_1">
   <path d="M 0 123.9725 
L 147.8525 123.9725 
L 147.8525 0 
L 0 0 
z
" style="fill: #ffffff"/>
  </g>
  <g id="axes_1">
   <g id="patch_2">
    <path d="M 31.2225 95.24 
L 140.6525 95.24 
L 140.6525 7.2 
L 31.2225 7.2 
z
" style="fill: #ffffff"/>
   </g>
   <g id="matplotlib.axis_1">
    <g id="xtick_1">
     <g id="line2d_1">
      <path d="M 36.196591 95.24 
L 36.196591 7.2 
" clip-path="url(#p41fc766e56)" style="fill: none; stroke-dasharray: 0.8,1.32; stroke-dashoffset: 0; stroke: #b0b0b0; stroke-width: 0.8"/>
     </g>
     <g id="line2d_2">
      <defs>
       <path id="m82257380f6" d="M 0 0 
L 0 3.5 
" style="stroke: #000000; stroke-width: 0.8"/>
      </defs>
      <g>
       <use xlink:href="#m82257380f6" x="36.196591" y="95.24" style="stroke: #000000; stroke-width: 0.8"/>
      </g>
     </g>
     <g id="text_1">
      <!-- 0 -->
      <g transform="translate(32.196591 113.35) scale(0.16 -0.16)">
       <defs>
        <path id="TimesNewRomanPSMT-30" d="M 231 2094 
Q 231 2819 450 3342 
Q 669 3866 1031 4122 
Q 1313 4325 1613 4325 
Q 2100 4325 2488 3828 
Q 2972 3213 2972 2159 
Q 2972 1422 2759 906 
Q 2547 391 2217 158 
Q 1888 -75 1581 -75 
Q 975 -75 572 641 
Q 231 1244 231 2094 
z
M 844 2016 
Q 844 1141 1059 588 
Q 1238 122 1591 122 
Q 1759 122 1940 273 
Q 2122 425 2216 781 
Q 2359 1319 2359 2297 
Q 2359 3022 2209 3506 
Q 2097 3866 1919 4016 
Q 1791 4119 1609 4119 
Q 1397 4119 1231 3928 
Q 1006 3669 925 3112 
Q 844 2556 844 2016 
z
" transform="scale(0.015625)"/>
       </defs>
       <use xlink:href="#TimesNewRomanPSMT-30"/>
      </g>
     </g>
    </g>
    <g id="xtick_2">
     <g id="line2d_3">
      <path d="M 119.098106 95.24 
L 119.098106 7.2 
" clip-path="url(#p41fc766e56)" style="fill: none; stroke-dasharray: 0.8,1.32; stroke-dashoffset: 0; stroke: #b0b0b0; stroke-width: 0.8"/>
     </g>
     <g id="line2d_4">
      <g>
       <use xlink:href="#m82257380f6" x="119.098106" y="95.24" style="stroke: #000000; stroke-width: 0.8"/>
      </g>
     </g>
     <g id="text_2">
      <!-- 10 -->
      <g transform="translate(111.098106 113.35) scale(0.16 -0.16)">
       <defs>
        <path id="TimesNewRomanPSMT-31" d="M 750 3822 
L 1781 4325 
L 1884 4325 
L 1884 747 
Q 1884 391 1914 303 
Q 1944 216 2037 169 
Q 2131 122 2419 116 
L 2419 0 
L 825 0 
L 825 116 
Q 1125 122 1212 167 
Q 1300 213 1334 289 
Q 1369 366 1369 747 
L 1369 3034 
Q 1369 3497 1338 3628 
Q 1316 3728 1258 3775 
Q 1200 3822 1119 3822 
Q 1003 3822 797 3725 
L 750 3822 
z
" transform="scale(0.015625)"/>
       </defs>
       <use xlink:href="#TimesNewRomanPSMT-31"/>
       <use xlink:href="#TimesNewRomanPSMT-30" x="50"/>
      </g>
     </g>
    </g>
   </g>
   <g id="matplotlib.axis_2">
    <g id="ytick_1">
     <g id="line2d_5">
      <path d="M 31.2225 76.236222 
L 140.6525 76.236222 
" clip-path="url(#p41fc766e56)" style="fill: none; stroke-dasharray: 0.8,1.32; stroke-dashoffset: 0; stroke: #b0b0b0; stroke-width: 0.8"/>
     </g>
     <g id="line2d_6">
      <defs>
       <path id="ma1386e8b59" d="M 0 0 
L -3.5 0 
" style="stroke: #000000; stroke-width: 0.8"/>
      </defs>
      <g>
       <use xlink:href="#ma1386e8b59" x="31.2225" y="76.236222" style="stroke: #000000; stroke-width: 0.8"/>
      </g>
     </g>
     <g id="text_3">
      <!-- −5 -->
      <g transform="translate(7.2 81.791222) scale(0.16 -0.16)">
       <defs>
        <path id="TimesNewRomanPSMT-2212" d="M 3484 2000 
L 116 2000 
L 116 2256 
L 3484 2256 
L 3484 2000 
z
" transform="scale(0.015625)"/>
        <path id="TimesNewRomanPSMT-35" d="M 2778 4238 
L 2534 3706 
L 1259 3706 
L 981 3138 
Q 1809 3016 2294 2522 
Q 2709 2097 2709 1522 
Q 2709 1188 2573 903 
Q 2438 619 2231 419 
Q 2025 219 1772 97 
Q 1413 -75 1034 -75 
Q 653 -75 479 54 
Q 306 184 306 341 
Q 306 428 378 495 
Q 450 563 559 563 
Q 641 563 702 538 
Q 763 513 909 409 
Q 1144 247 1384 247 
Q 1750 247 2026 523 
Q 2303 800 2303 1197 
Q 2303 1581 2056 1914 
Q 1809 2247 1375 2428 
Q 1034 2569 447 2591 
L 1259 4238 
L 2778 4238 
z
" transform="scale(0.015625)"/>
       </defs>
       <use xlink:href="#TimesNewRomanPSMT-2212"/>
       <use xlink:href="#TimesNewRomanPSMT-35" x="56.396484"/>
      </g>
     </g>
    </g>
    <g id="ytick_2">
     <g id="line2d_7">
      <path d="M 31.2225 51.220731 
L 140.6525 51.220731 
" clip-path="url(#p41fc766e56)" style="fill: none; stroke-dasharray: 0.8,1.32; stroke-dashoffset: 0; stroke: #b0b0b0; stroke-width: 0.8"/>
     </g>
     <g id="line2d_8">
      <g>
       <use xlink:href="#ma1386e8b59" x="31.2225" y="51.220731" style="stroke: #000000; stroke-width: 0.8"/>
      </g>
     </g>
     <g id="text_4">
      <!-- 0 -->
      <g transform="translate(16.2225 56.775731) scale(0.16 -0.16)">
       <use xlink:href="#TimesNewRomanPSMT-30"/>
      </g>
     </g>
    </g>
    <g id="ytick_3">
     <g id="line2d_9">
      <path d="M 31.2225 26.205241 
L 140.6525 26.205241 
" clip-path="url(#p41fc766e56)" style="fill: none; stroke-dasharray: 0.8,1.32; stroke-dashoffset: 0; stroke: #b0b0b0; stroke-width: 0.8"/>
     </g>
     <g id="line2d_10">
      <g>
       <use xlink:href="#ma1386e8b59" x="31.2225" y="26.205241" style="stroke: #000000; stroke-width: 0.8"/>
      </g>
     </g>
     <g id="text_5">
      <!-- 5 -->
      <g transform="translate(16.2225 31.760241) scale(0.16 -0.16)">
       <use xlink:href="#TimesNewRomanPSMT-35"/>
      </g>
     </g>
    </g>
   </g>
   <g id="line2d_11">
    <path d="M 36.196591 51.220731 
L 37.217572 44.227739 
L 37.728062 42.044158 
L 38.11093 41.286374 
L 38.302364 41.21771 
L 38.493798 41.359249 
L 38.749043 41.869183 
L 39.131911 43.278703 
L 39.642401 46.162438 
L 40.727193 54.103058 
L 41.492929 58.885202 
L 41.939608 60.586551 
L 42.258664 61.15748 
L 42.450098 61.223225 
L 42.641532 61.078777 
L 42.896778 60.565087 
L 43.279645 59.150478 
L 43.790136 56.261617 
L 44.874928 48.319101 
L 45.640663 43.543313 
L 46.087343 41.847833 
L 46.406399 41.281631 
L 46.597833 41.218806 
L 46.789267 41.366163 
L 47.044512 41.883606 
L 47.42738 43.303299 
L 47.93787 46.197274 
L 49.022662 54.141653 
L 49.788398 58.911065 
L 50.235077 60.60067 
L 50.554134 61.162142 
L 50.745568 61.222047 
L 50.937001 61.071783 
L 51.192247 60.550588 
L 51.575114 59.125818 
L 52.085605 56.22674 
L 52.787529 51.091684 
L 53.80851 39.940005 
L 54.319 36.487242 
L 54.638057 35.415826 
L 54.829491 35.212646 
L 54.957113 35.264106 
L 55.148547 35.620465 
L 55.403792 36.60327 
L 55.78666 39.082914 
L 56.360962 44.616695 
L 58.275301 64.910469 
L 58.658169 66.713283 
L 58.913414 67.200416 
L 59.104848 67.174694 
L 59.296282 66.813714 
L 59.615338 65.490792 
L 60.062017 62.270252 
L 60.70013 55.61574 
L 62.231602 38.8545 
L 62.678281 36.179401 
L 62.997337 35.303768 
L 63.188771 35.221942 
L 63.380205 35.476315 
L 63.63545 36.328212 
L 64.018318 38.632162 
L 64.528809 43.295067 
L 65.677412 56.750305 
L 66.379336 63.607428 
L 66.826015 66.273082 
L 67.145072 67.141133 
L 67.336506 67.218286 
L 67.52794 66.959265 
L 67.783185 66.101379 
L 68.166053 63.789342 
L 68.676543 59.118348 
L 69.442279 49.802182 
L 70.399448 35.584327 
L 70.909939 30.893414 
L 71.228995 29.461388 
L 71.420429 29.207647 
L 71.548052 29.29555 
L 71.739486 29.810945 
L 72.058542 31.66009 
L 72.505221 36.124222 
L 73.143334 45.305672 
L 74.674805 68.308511 
L 75.121484 71.947769 
L 75.440541 73.120475 
L 75.631975 73.213705 
L 75.823409 72.844773 
L 76.078654 71.648726 
L 76.461522 68.447475 
L 76.972012 62.002691 
L 78.184427 42.505349 
L 78.886351 33.45576 
L 79.33303 30.146567 
L 79.652087 29.236157 
L 79.779709 29.229723 
L 79.971143 29.605042 
L 80.226389 30.809309 
L 80.609256 34.021641 
L 81.119747 40.477469 
L 83.289331 71.172378 
L 83.672199 72.999847 
L 83.863633 73.234352 
L 83.991255 73.133594 
L 84.182689 72.59917 
L 84.501746 70.719965 
L 84.948425 66.220108 
L 85.586538 57.007496 
L 86.288462 43.855758 
L 87.054198 30.239368 
L 87.500877 25.263756 
L 87.819933 23.493694 
L 88.011367 23.203396 
L 88.13899 23.337086 
L 88.330424 24.025329 
L 88.64948 26.429778 
L 89.096159 32.171979 
L 89.734272 43.910246 
L 91.201932 72.239468 
L 91.648611 77.198905 
L 91.967668 78.955819 
L 92.159102 79.237952 
L 92.286724 79.098811 
L 92.478158 78.402503 
L 92.797215 75.985331 
L 93.243894 70.228043 
L 93.882007 58.476699 
L 95.349667 30.164706 
L 95.796346 25.221465 
L 96.115403 23.477706 
L 96.306836 23.203738 
L 96.434459 23.34833 
L 96.625893 24.0527 
L 96.944949 26.482586 
L 97.391629 32.254937 
L 98.029742 44.01931 
L 99.497401 72.313959 
L 99.944081 77.240984 
L 100.263137 78.971581 
L 100.454571 79.237384 
L 100.582194 79.08734 
L 100.773627 78.374912 
L 101.092684 75.932322 
L 101.539363 70.144931 
L 102.177476 58.367576 
L 102.943212 40.440679 
L 103.708947 24.512433 
L 104.155626 19.02957 
L 104.474683 17.330289 
L 104.602306 17.201063 
L 104.729928 17.389877 
L 104.921362 18.264751 
L 105.240419 21.246167 
L 105.687098 28.291948 
L 106.325211 42.608727 
L 107.792871 76.923974 
L 108.23955 82.867335 
L 108.558606 84.936785 
L 108.75004 85.239709 
L 108.877663 85.044278 
L 109.069097 84.159625 
L 109.388153 81.162807 
L 109.834832 74.098821 
L 110.472945 59.766394 
L 111.940605 25.472627 
L 112.387284 19.549029 
L 112.706341 17.495587 
L 112.897775 17.202583 
L 113.025397 17.404631 
L 113.216831 18.299059 
L 113.535888 21.311266 
L 113.982567 28.393429 
L 114.62068 42.741445 
L 116.08834 77.013593 
L 116.535019 82.917404 
L 116.854075 84.95483 
L 117.045509 85.237913 
L 117.173132 85.029249 
L 117.364566 84.12505 
L 117.683622 81.097465 
L 118.130301 73.997154 
L 118.768414 59.633607 
L 119.789395 31.196699 
L 120.427508 17.378371 
L 120.810376 12.678756 
L 121.065621 11.322675 
L 121.193244 11.201818 
L 121.320866 11.455087 
L 121.5123 12.530343 
L 121.831357 16.110284 
L 122.278036 24.484908 
L 122.916149 41.4014 
L 124.383809 81.670216 
L 124.830488 88.569234 
L 125.149544 90.928492 
L 125.340978 91.238182 
L 125.468601 90.977132 
L 125.660035 89.890389 
L 125.979091 86.292386 
L 126.42577 77.896479 
L 127.063883 60.961852 
L 128.531543 20.718961 
L 128.978222 13.843307 
L 129.297279 11.50292 
L 129.488713 11.204906 
L 129.616336 11.473736 
L 129.807769 12.571962 
L 130.126826 16.188013 
L 130.573505 24.605168 
L 131.211618 41.557861 
L 132.679278 81.774664 
L 133.125957 88.626926 
L 133.445014 90.948432 
L 133.636447 91.234769 
L 133.76407 90.95816 
L 133.955504 89.848455 
L 134.27456 86.214372 
L 134.72124 77.776002 
L 135.359353 60.805313 
L 135.678409 51.220731 
L 135.678409 51.220731 
" clip-path="url(#p41fc766e56)" style="fill: none; stroke: #ff0000; stroke-width: 1.1; stroke-linecap: square"/>
   </g>
   <g id="line2d_12">
    <path d="M 31.2225 51.220731 
L 140.6525 51.220731 
" clip-path="url(#p41fc766e56)" style="fill: none; stroke: #000000; stroke-width: 0.4; stroke-linecap: square"/>
   </g>
   <g id="line2d_13">
    <path d="M 36.196591 95.24 
L 36.196591 7.2 
" clip-path="url(#p41fc766e56)" style="fill: none; stroke: #000000; stroke-width: 0.4; stroke-linecap: square"/>
   </g>
   <g id="patch_3">
    <path d="M 31.2225 95.24 
L 31.2225 7.2 
" style="fill: none; stroke: #000000; stroke-width: 0.8; stroke-linejoin: miter; stroke-linecap: square"/>
   </g>
   <g id="patch_4">
    <path d="M 140.6525 95.24 
L 140.6525 7.2 
" style="fill: none; stroke: #000000; stroke-width: 0.8; stroke-linejoin: miter; stroke-linecap: square"/>
   </g>
   <g id="patch_5">
    <path d="M 31.2225 95.24 
L 140.6525 95.24 
" style="fill: none; stroke: #000000; stroke-width: 0.8; stroke-linejoin: miter; stroke-linecap: square"/>
   </g>
   <g id="patch_6">
    <path d="M 31.2225 7.2 
L 140.6525 7.2 
" style="fill: none; stroke: #000000; stroke-width: 0.8; stroke-linejoin: miter; stroke-linecap: square"/>
   </g>
  </g>
 </g>
 <defs>
  <clipPath id="p41fc766e56">
   <rect x="31.2225" y="7.2" width="109.43" height="88.04"/>
  </clipPath>
 </defs>
</svg>
