<?xml version="1.0" encoding="utf-8" standalone="no"?>
<!DOCTYPE svg PUBLIC "-//W3C//DTD SVG 1.1//EN"
  "http://www.w3.org/Graphics/SVG/1.1/DTD/svg11.dtd">
<svg xmlns:xlink="http://www.w3.org/1999/xlink" width="308.960625pt" height="261.768437pt" viewBox="0 0 308.960625 261.768437" xmlns="http://www.w3.org/2000/svg" version="1.1">
 <metadata>
  <rdf:RDF xmlns:dc="http://purl.org/dc/elements/1.1/" xmlns:cc="http://creativecommons.org/ns#" xmlns:rdf="http://www.w3.org/1999/02/22-rdf-syntax-ns#">
   <cc:Work>
    <dc:type rdf:resource="http://purl.org/dc/dcmitype/StillImage"/>
    <dc:date>2024-02-01T15:21:13.788604</dc:date>
    <dc:format>image/svg+xml</dc:format>
    <dc:creator>
     <cc:Agent>
      <dc:title>Matplotlib v3.7.1, https://matplotlib.org/</dc:title>
     </cc:Agent>
    </dc:creator>
   </cc:Work>
  </rdf:RDF>
 </metadata>
 <defs>
  <style type="text/css">*{stroke-linejoin: round; stroke-linecap: butt}</style>
 </defs>
 <g id="figure_1">
  <g id="patch_1">
   <path d="M 0 261.768437 
L 308.960625 261.768437 
L 308.960625 0 
L 0 0 
z
" style="fill: #ffffff"/>
  </g>
  <g id="axes_1">
   <g id="patch_2">
    <path d="M 56.380625 221.707812 
L 301.760625 221.707812 
L 301.760625 25.587812 
L 56.380625 25.587812 
z
" style="fill: #ffffff"/>
   </g>
   <g id="matplotlib.axis_1">
    <g id="xtick_1">
     <g id="line2d_1">
      <path d="M 65.643225 221.707812 
L 65.643225 25.587812 
" clip-path="url(#p927ba35c35)" style="fill: none; stroke-dasharray: 0.8,1.32; stroke-dashoffset: 0; stroke: #b0b0b0; stroke-width: 0.8"/>
     </g>
     <g id="line2d_2">
      <defs>
       <path id="mdd03a6df12" d="M 0 0 
L 0 3.5 
" style="stroke: #000000; stroke-width: 0.8"/>
      </defs>
      <g>
       <use xlink:href="#mdd03a6df12" x="65.643225" y="221.707812" style="stroke: #000000; stroke-width: 0.8"/>
      </g>
     </g>
     <g id="text_1">
      <!-- −60 -->
      <g transform="translate(55.675725 237.092812) scale(0.12 -0.12)">
       <defs>
        <path id="Cambria-2212" d="M 397 1613 
L 397 2047 
L 3147 2047 
L 3147 1613 
L 397 1613 
z
" transform="scale(0.015625)"/>
        <path id="Cambria-36" d="M 2847 4144 
L 2847 3991 
Q 2366 3991 1994 3784 
Q 1622 3578 1376 3178 
Q 1131 2778 1031 2228 
L 1063 2216 
Q 1325 2403 1579 2490 
Q 1834 2578 2131 2578 
Q 2484 2578 2732 2423 
Q 2981 2269 3106 1989 
Q 3231 1709 3231 1334 
Q 3231 928 3075 617 
Q 2919 306 2592 128 
Q 2266 -50 1788 -50 
Q 1103 -50 754 375 
Q 406 800 406 1628 
Q 406 2184 581 2668 
Q 756 3153 1078 3514 
Q 1400 3875 1825 4083 
Q 2250 4291 2719 4316 
L 2847 4144 
z
M 1916 2250 
Q 1763 2250 1620 2215 
Q 1478 2181 1353 2115 
Q 1228 2050 1109 1950 
Q 1072 1916 1053 1878 
Q 1022 1819 1012 1731 
Q 1003 1644 1003 1438 
Q 1003 841 1203 528 
Q 1403 216 1809 216 
Q 2044 216 2203 297 
Q 2363 378 2461 520 
Q 2559 663 2601 855 
Q 2644 1047 2644 1272 
Q 2644 1734 2453 1992 
Q 2263 2250 1916 2250 
z
" transform="scale(0.015625)"/>
        <path id="Cambria-30" d="M 1738 -50 
Q 1063 -50 733 481 
Q 403 1013 403 2094 
Q 403 2669 504 3087 
Q 606 3506 789 3779 
Q 972 4053 1228 4184 
Q 1484 4316 1788 4316 
Q 2472 4316 2806 3787 
Q 3141 3259 3141 2191 
Q 3141 1084 2783 517 
Q 2425 -50 1738 -50 
z
M 1013 2188 
Q 1013 1169 1202 692 
Q 1391 216 1788 216 
Q 2166 216 2348 664 
Q 2531 1113 2531 2053 
Q 2531 2772 2437 3217 
Q 2344 3663 2176 3856 
Q 2009 4050 1772 4050 
Q 1556 4050 1411 3922 
Q 1266 3794 1177 3553 
Q 1088 3313 1050 2967 
Q 1013 2622 1013 2188 
z
" transform="scale(0.015625)"/>
       </defs>
       <use xlink:href="#Cambria-2212"/>
       <use xlink:href="#Cambria-36" x="55.371094"/>
       <use xlink:href="#Cambria-30" x="110.742188"/>
      </g>
     </g>
    </g>
    <g id="xtick_2">
     <g id="line2d_3">
      <path d="M 103.453083 221.707812 
L 103.453083 25.587812 
" clip-path="url(#p927ba35c35)" style="fill: none; stroke-dasharray: 0.8,1.32; stroke-dashoffset: 0; stroke: #b0b0b0; stroke-width: 0.8"/>
     </g>
     <g id="line2d_4">
      <g>
       <use xlink:href="#mdd03a6df12" x="103.453083" y="221.707812" style="stroke: #000000; stroke-width: 0.8"/>
      </g>
     </g>
     <g id="text_2">
      <!-- −40 -->
      <g transform="translate(93.485583 237.092812) scale(0.12 -0.12)">
       <defs>
        <path id="Cambria-34" d="M 1613 153 
Q 1806 203 1872 264 
Q 1938 325 1958 437 
Q 1978 550 1978 781 
L 1978 1294 
L 241 1294 
L 241 1528 
L 2069 4288 
L 2516 4288 
L 2516 1597 
L 2581 1597 
Q 2763 1597 2841 1623 
Q 2919 1650 2970 1717 
Q 3022 1784 3066 1938 
L 3303 1938 
L 3266 1294 
L 2516 1294 
L 2516 781 
Q 2516 572 2530 475 
Q 2544 378 2576 322 
Q 2609 266 2673 228 
Q 2738 191 2881 153 
L 2881 0 
L 1613 0 
L 1613 153 
z
M 756 1597 
L 1978 1597 
L 1978 2375 
Q 1978 2669 1987 3033 
Q 1997 3397 2009 3581 
L 1978 3581 
L 756 1641 
L 756 1597 
z
" transform="scale(0.015625)"/>
       </defs>
       <use xlink:href="#Cambria-2212"/>
       <use xlink:href="#Cambria-34" x="55.371094"/>
       <use xlink:href="#Cambria-30" x="110.742188"/>
      </g>
     </g>
    </g>
    <g id="xtick_3">
     <g id="line2d_5">
      <path d="M 141.262942 221.707812 
L 141.262942 25.587812 
" clip-path="url(#p927ba35c35)" style="fill: none; stroke-dasharray: 0.8,1.32; stroke-dashoffset: 0; stroke: #b0b0b0; stroke-width: 0.8"/>
     </g>
     <g id="line2d_6">
      <g>
       <use xlink:href="#mdd03a6df12" x="141.262942" y="221.707812" style="stroke: #000000; stroke-width: 0.8"/>
      </g>
     </g>
     <g id="text_3">
      <!-- −20 -->
      <g transform="translate(131.295442 237.092812) scale(0.12 -0.12)">
       <defs>
        <path id="Cambria-32" d="M 2194 500 
Q 2347 500 2440 519 
Q 2534 538 2590 581 
Q 2647 625 2680 695 
Q 2713 766 2763 913 
L 3028 913 
L 2975 0 
L 403 0 
L 403 150 
Q 538 478 766 822 
Q 994 1166 1413 1631 
Q 1775 2031 1934 2238 
Q 2109 2463 2195 2627 
Q 2281 2791 2318 2936 
Q 2356 3081 2356 3228 
Q 2356 3463 2281 3642 
Q 2206 3822 2051 3925 
Q 1897 4028 1663 4028 
Q 1078 4028 875 3378 
L 497 3378 
L 497 3978 
Q 875 4156 1204 4236 
Q 1534 4316 1797 4316 
Q 2378 4316 2675 4061 
Q 2972 3806 2972 3322 
Q 2972 3156 2939 3017 
Q 2906 2878 2836 2742 
Q 2766 2606 2647 2450 
Q 2528 2294 2384 2133 
Q 2241 1972 1888 1597 
Q 1294 969 1016 500 
L 2194 500 
z
" transform="scale(0.015625)"/>
       </defs>
       <use xlink:href="#Cambria-2212"/>
       <use xlink:href="#Cambria-32" x="55.371094"/>
       <use xlink:href="#Cambria-30" x="110.742188"/>
      </g>
     </g>
    </g>
    <g id="xtick_4">
     <g id="line2d_7">
      <path d="M 179.0728 221.707812 
L 179.0728 25.587812 
" clip-path="url(#p927ba35c35)" style="fill: none; stroke-dasharray: 0.8,1.32; stroke-dashoffset: 0; stroke: #b0b0b0; stroke-width: 0.8"/>
     </g>
     <g id="line2d_8">
      <g>
       <use xlink:href="#mdd03a6df12" x="179.0728" y="221.707812" style="stroke: #000000; stroke-width: 0.8"/>
      </g>
     </g>
     <g id="text_4">
      <!-- 0 -->
      <g transform="translate(175.7503 237.092812) scale(0.12 -0.12)">
       <use xlink:href="#Cambria-30"/>
      </g>
     </g>
    </g>
    <g id="xtick_5">
     <g id="line2d_9">
      <path d="M 216.882659 221.707812 
L 216.882659 25.587812 
" clip-path="url(#p927ba35c35)" style="fill: none; stroke-dasharray: 0.8,1.32; stroke-dashoffset: 0; stroke: #b0b0b0; stroke-width: 0.8"/>
     </g>
     <g id="line2d_10">
      <g>
       <use xlink:href="#mdd03a6df12" x="216.882659" y="221.707812" style="stroke: #000000; stroke-width: 0.8"/>
      </g>
     </g>
     <g id="text_5">
      <!-- 20 -->
      <g transform="translate(210.237659 237.092812) scale(0.12 -0.12)">
       <use xlink:href="#Cambria-32"/>
       <use xlink:href="#Cambria-30" x="55.371094"/>
      </g>
     </g>
    </g>
    <g id="xtick_6">
     <g id="line2d_11">
      <path d="M 254.692518 221.707812 
L 254.692518 25.587812 
" clip-path="url(#p927ba35c35)" style="fill: none; stroke-dasharray: 0.8,1.32; stroke-dashoffset: 0; stroke: #b0b0b0; stroke-width: 0.8"/>
     </g>
     <g id="line2d_12">
      <g>
       <use xlink:href="#mdd03a6df12" x="254.692518" y="221.707812" style="stroke: #000000; stroke-width: 0.8"/>
      </g>
     </g>
     <g id="text_6">
      <!-- 40 -->
      <g transform="translate(248.047518 237.092812) scale(0.12 -0.12)">
       <use xlink:href="#Cambria-34"/>
       <use xlink:href="#Cambria-30" x="55.371094"/>
      </g>
     </g>
    </g>
    <g id="xtick_7">
     <g id="line2d_13">
      <path d="M 292.502376 221.707812 
L 292.502376 25.587812 
" clip-path="url(#p927ba35c35)" style="fill: none; stroke-dasharray: 0.8,1.32; stroke-dashoffset: 0; stroke: #b0b0b0; stroke-width: 0.8"/>
     </g>
     <g id="line2d_14">
      <g>
       <use xlink:href="#mdd03a6df12" x="292.502376" y="221.707812" style="stroke: #000000; stroke-width: 0.8"/>
      </g>
     </g>
     <g id="text_7">
      <!-- 60 -->
      <g transform="translate(285.857376 237.092812) scale(0.12 -0.12)">
       <use xlink:href="#Cambria-36"/>
       <use xlink:href="#Cambria-30" x="55.371094"/>
      </g>
     </g>
    </g>
    <g id="text_8">
     <!-- Displacement (mm) -->
     <g transform="translate(129.833125 252.020312) scale(0.12 -0.12)">
      <defs>
       <path id="Cambria-Italic-44" d="M 2134 4266 
Q 2606 4266 2900 4194 
Q 3194 4122 3448 3934 
Q 3703 3747 3831 3436 
Q 3959 3125 3959 2700 
Q 3959 2278 3862 1893 
Q 3766 1509 3584 1186 
Q 3403 863 3150 623 
Q 2897 384 2659 256 
Q 2422 128 2128 64 
Q 1834 0 1444 0 
L 131 0 
L 166 153 
Q 284 172 343 214 
Q 403 256 443 331 
Q 484 406 518 514 
Q 553 622 622 931 
L 1153 3338 
Q 1184 3481 1203 3614 
Q 1222 3747 1222 3841 
Q 1222 3988 1147 4045 
Q 1072 4103 916 4113 
L 950 4266 
L 2134 4266 
z
M 1038 288 
Q 1128 278 1384 278 
Q 1700 278 1958 347 
Q 2216 416 2433 567 
Q 2650 719 2828 972 
Q 3006 1225 3117 1486 
Q 3228 1747 3290 2047 
Q 3353 2347 3353 2681 
Q 3353 3334 3048 3664 
Q 2744 3994 2144 3994 
Q 2006 3994 1847 3984 
L 1038 288 
z
" transform="scale(0.015625)"/>
       <path id="Cambria-Italic-69" d="M 1750 4213 
L 1606 3606 
L 1053 3606 
L 1197 4213 
L 1750 4213 
z
M 978 781 
Q 944 622 934 548 
Q 925 475 925 425 
Q 925 331 956 278 
Q 988 225 1053 197 
Q 1119 169 1269 153 
L 1241 0 
L 272 0 
L 744 2106 
Q 784 2288 800 2395 
Q 816 2503 816 2575 
Q 816 2666 789 2716 
Q 763 2766 700 2791 
Q 638 2816 484 2822 
L 519 2988 
L 1281 3016 
L 1466 3016 
L 978 781 
z
" transform="scale(0.015625)"/>
       <path id="Cambria-Italic-73" d="M 2063 2259 
Q 2028 2541 1901 2667 
Q 1775 2794 1509 2794 
Q 1363 2794 1244 2739 
Q 1125 2684 1056 2579 
Q 988 2475 988 2334 
Q 988 2219 1034 2123 
Q 1081 2028 1192 1925 
Q 1303 1822 1503 1688 
Q 1806 1484 1928 1293 
Q 2050 1103 2050 853 
Q 2050 559 1909 354 
Q 1769 150 1525 50 
Q 1281 -50 975 -50 
Q 700 -50 461 -9 
Q 222 31 -3 94 
L 144 769 
L 388 769 
Q 409 481 551 339 
Q 694 197 966 197 
Q 1244 197 1400 336 
Q 1556 475 1556 703 
Q 1556 838 1509 944 
Q 1463 1050 1363 1147 
Q 1263 1244 1078 1369 
Q 881 1503 759 1622 
Q 638 1741 570 1883 
Q 503 2025 503 2197 
Q 503 2456 631 2647 
Q 759 2838 995 2938 
Q 1231 3038 1547 3038 
Q 2063 3038 2456 2903 
L 2313 2259 
L 2063 2259 
z
" transform="scale(0.015625)"/>
       <path id="Cambria-Italic-70" d="M 669 -553 
Q 638 -703 630 -784 
Q 622 -866 622 -919 
Q 622 -1013 653 -1066 
Q 684 -1119 750 -1147 
Q 816 -1175 966 -1191 
L 941 -1344 
L -25 -1344 
L 766 2131 
Q 825 2394 825 2581 
Q 825 2669 798 2717 
Q 772 2766 708 2789 
Q 644 2813 491 2822 
L 528 2988 
L 1238 3016 
L 1416 3016 
L 1206 2203 
L 1244 2191 
Q 1822 3038 2394 3038 
Q 2734 3038 2923 2778 
Q 3113 2519 3113 2047 
Q 3113 1709 3020 1368 
Q 2928 1028 2764 753 
Q 2600 478 2398 301 
Q 2197 125 1973 37 
Q 1750 -50 1503 -50 
Q 1088 -50 813 131 
L 669 -553 
z
M 1044 1088 
Q 1013 922 1005 834 
Q 997 747 997 663 
Q 997 419 1101 308 
Q 1206 197 1463 197 
Q 1622 197 1756 259 
Q 1891 322 2011 440 
Q 2131 559 2228 728 
Q 2325 897 2401 1120 
Q 2478 1344 2517 1580 
Q 2556 1816 2556 2022 
Q 2556 2350 2464 2511 
Q 2372 2672 2172 2672 
Q 2013 2672 1858 2564 
Q 1703 2456 1518 2218 
Q 1334 1981 1231 1750 
Q 1128 1519 1069 1219 
L 1044 1088 
z
" transform="scale(0.015625)"/>
       <path id="Cambria-Italic-6c" d="M 1578 4469 
L 1763 4469 
L 950 781 
Q 916 631 906 554 
Q 897 478 897 425 
Q 897 331 928 278 
Q 959 225 1025 197 
Q 1091 169 1241 153 
L 1216 0 
L 241 0 
L 1047 3588 
Q 1078 3725 1090 3794 
Q 1103 3863 1109 3925 
Q 1116 3988 1116 4034 
Q 1116 4128 1081 4176 
Q 1047 4225 983 4247 
Q 919 4269 753 4278 
L 791 4441 
L 1578 4469 
z
" transform="scale(0.015625)"/>
       <path id="Cambria-Italic-61" d="M 2606 2834 
L 2894 3041 
L 3094 2991 
L 2616 869 
Q 2572 681 2556 579 
Q 2541 478 2541 413 
Q 2541 284 2612 226 
Q 2684 169 2888 153 
L 2859 0 
L 1966 0 
L 2163 784 
L 2122 797 
Q 1822 359 1553 156 
Q 1284 -47 984 -47 
Q 641 -47 452 212 
Q 263 472 263 941 
Q 263 1241 331 1542 
Q 400 1844 539 2114 
Q 678 2384 872 2590 
Q 1066 2797 1320 2919 
Q 1575 3041 1875 3041 
Q 2069 3041 2244 2995 
Q 2419 2950 2606 2834 
z
M 2331 1903 
Q 2359 2031 2368 2125 
Q 2378 2219 2378 2328 
Q 2378 2572 2275 2683 
Q 2172 2794 1931 2794 
Q 1800 2794 1681 2751 
Q 1563 2709 1441 2611 
Q 1319 2513 1208 2353 
Q 1097 2194 1006 1966 
Q 916 1738 866 1477 
Q 816 1216 816 969 
Q 816 644 905 483 
Q 994 322 1203 322 
Q 1300 322 1404 365 
Q 1509 409 1637 526 
Q 1766 644 1928 872 
Q 2075 1081 2161 1286 
Q 2247 1491 2303 1769 
L 2331 1903 
z
" transform="scale(0.015625)"/>
       <path id="Cambria-Italic-63" d="M 2297 2238 
Q 2291 2475 2258 2581 
Q 2225 2688 2151 2741 
Q 2078 2794 1944 2794 
Q 1628 2794 1376 2542 
Q 1125 2291 965 1830 
Q 806 1369 806 944 
Q 806 813 829 697 
Q 853 581 911 497 
Q 969 413 1064 364 
Q 1159 316 1306 316 
Q 1591 316 1798 423 
Q 2006 531 2238 763 
L 2428 572 
Q 2134 247 1836 97 
Q 1538 -53 1194 -53 
Q 741 -53 506 215 
Q 272 484 272 997 
Q 272 1331 397 1731 
Q 522 2131 762 2434 
Q 1003 2738 1325 2888 
Q 1647 3038 2013 3038 
Q 2263 3038 2448 3009 
Q 2634 2981 2778 2944 
L 2625 2238 
L 2297 2238 
z
" transform="scale(0.015625)"/>
       <path id="Cambria-Italic-65" d="M 2544 622 
Q 2313 369 2100 222 
Q 1888 75 1675 12 
Q 1463 -50 1206 -50 
Q 959 -50 781 29 
Q 603 109 486 248 
Q 369 388 312 580 
Q 256 772 256 997 
Q 256 1331 376 1714 
Q 497 2097 740 2401 
Q 984 2706 1325 2873 
Q 1666 3041 2050 3041 
Q 2428 3041 2617 2887 
Q 2806 2734 2806 2409 
Q 2806 1878 2307 1612 
Q 1809 1347 828 1347 
Q 791 1159 791 941 
Q 791 613 919 464 
Q 1047 316 1338 316 
Q 1625 316 1859 441 
Q 2094 566 2350 825 
L 2544 622 
z
M 881 1613 
Q 1169 1616 1386 1645 
Q 1603 1675 1759 1726 
Q 1916 1778 2019 1850 
Q 2122 1922 2183 2008 
Q 2244 2094 2267 2189 
Q 2291 2284 2291 2388 
Q 2291 2578 2202 2686 
Q 2113 2794 1938 2794 
Q 1719 2794 1508 2636 
Q 1297 2478 1136 2211 
Q 975 1944 881 1613 
z
" transform="scale(0.015625)"/>
       <path id="Cambria-Italic-6d" d="M 2997 2375 
L 2997 2331 
Q 2997 2309 2994 2284 
Q 3266 2669 3534 2853 
Q 3803 3038 4091 3038 
Q 4388 3038 4542 2870 
Q 4697 2703 4697 2375 
Q 4697 2175 4634 1894 
L 4372 781 
Q 4319 556 4319 425 
Q 4319 331 4350 278 
Q 4381 225 4447 197 
Q 4513 169 4663 153 
L 4634 0 
L 3653 0 
L 4047 1588 
Q 4091 1759 4123 1936 
Q 4156 2113 4156 2256 
Q 4156 2481 4078 2576 
Q 4000 2672 3831 2672 
Q 3709 2672 3557 2572 
Q 3406 2472 3240 2265 
Q 3075 2059 2970 1857 
Q 2866 1656 2803 1366 
L 2519 0 
L 1978 0 
L 2338 1588 
Q 2403 1878 2426 2017 
Q 2450 2156 2450 2256 
Q 2450 2481 2370 2576 
Q 2291 2672 2122 2672 
Q 1997 2672 1845 2570 
Q 1694 2469 1525 2256 
Q 1356 2044 1254 1839 
Q 1153 1634 1097 1353 
L 813 0 
L 272 0 
L 747 2134 
Q 763 2206 789 2347 
Q 816 2488 816 2581 
Q 816 2669 789 2717 
Q 763 2766 698 2789 
Q 634 2813 481 2822 
L 519 2988 
L 1231 3016 
L 1406 3016 
L 1200 2206 
L 1238 2194 
Q 1525 2622 1809 2830 
Q 2094 3038 2384 3038 
Q 2684 3038 2840 2867 
Q 2997 2697 2997 2375 
z
" transform="scale(0.015625)"/>
       <path id="Cambria-Italic-6e" d="M 2947 0 
L 1963 0 
L 2359 1588 
Q 2397 1741 2433 1925 
Q 2469 2109 2469 2256 
Q 2469 2478 2392 2575 
Q 2316 2672 2153 2672 
Q 2022 2672 1870 2570 
Q 1719 2469 1553 2267 
Q 1388 2066 1273 1858 
Q 1159 1650 1097 1353 
L 813 0 
L 272 0 
L 747 2134 
Q 763 2206 789 2347 
Q 816 2488 816 2581 
Q 816 2669 789 2717 
Q 763 2766 698 2789 
Q 634 2813 481 2822 
L 519 2988 
L 1228 3016 
L 1406 3016 
L 1197 2203 
L 1234 2191 
Q 1541 2622 1825 2830 
Q 2109 3038 2394 3038 
Q 2697 3038 2853 2870 
Q 3009 2703 3009 2375 
Q 3009 2263 2989 2130 
Q 2969 1997 2944 1894 
L 2681 781 
Q 2628 556 2628 425 
Q 2628 331 2659 278 
Q 2691 225 2756 197 
Q 2822 169 2972 153 
L 2947 0 
z
" transform="scale(0.015625)"/>
       <path id="Cambria-Italic-74" d="M 2109 575 
Q 1853 266 1603 108 
Q 1353 -50 1072 -50 
Q 741 -50 578 119 
Q 416 288 416 609 
Q 416 806 472 1050 
L 859 2672 
L 394 2672 
L 428 2831 
Q 613 2853 720 2911 
Q 828 2969 901 3064 
Q 975 3159 1037 3312 
Q 1100 3466 1194 3759 
L 1625 3759 
L 1453 2988 
L 2444 2988 
L 2375 2672 
L 1381 2672 
L 1081 1459 
Q 956 953 956 703 
Q 956 513 1039 414 
Q 1122 316 1281 316 
Q 1425 316 1583 427 
Q 1741 538 1928 763 
L 2109 575 
z
" transform="scale(0.015625)"/>
       <path id="Cambria-Italic-20" transform="scale(0.015625)"/>
       <path id="Cambria-Italic-28" d="M 1616 -1359 
Q 1172 -1359 897 -1200 
Q 622 -1041 498 -736 
Q 375 -431 375 28 
Q 375 353 431 747 
Q 506 1253 648 1875 
Q 791 2497 928 2906 
Q 1088 3372 1272 3667 
Q 1456 3963 1675 4134 
Q 1894 4306 2172 4391 
Q 2478 4484 2906 4484 
L 2850 4228 
Q 2575 4228 2397 4165 
Q 2219 4103 2078 3978 
Q 1916 3834 1769 3575 
Q 1597 3266 1438 2766 
Q 1300 2334 1163 1713 
Q 1050 1203 981 797 
Q 888 228 888 -147 
Q 888 -513 977 -722 
Q 1066 -931 1233 -1017 
Q 1400 -1103 1672 -1103 
L 1616 -1359 
z
" transform="scale(0.015625)"/>
       <path id="Cambria-Italic-29" d="M 794 4484 
Q 1238 4484 1513 4325 
Q 1788 4166 1911 3861 
Q 2034 3556 2034 3097 
Q 2034 2778 1978 2394 
Q 1903 1850 1747 1184 
Q 1600 569 1466 178 
Q 1313 -263 1133 -552 
Q 953 -841 733 -1012 
Q 513 -1184 234 -1266 
Q -72 -1359 -497 -1359 
L -441 -1103 
Q -166 -1103 11 -1040 
Q 188 -978 325 -856 
Q 494 -709 644 -441 
Q 819 -125 973 367 
Q 1128 859 1266 1506 
Q 1375 2006 1438 2394 
Q 1522 2922 1522 3272 
Q 1522 3641 1431 3850 
Q 1341 4059 1173 4143 
Q 1006 4228 738 4228 
L 794 4484 
z
" transform="scale(0.015625)"/>
      </defs>
      <use xlink:href="#Cambria-Italic-44"/>
      <use xlink:href="#Cambria-Italic-69" x="64.648438"/>
      <use xlink:href="#Cambria-Italic-73" x="91.748047"/>
      <use xlink:href="#Cambria-Italic-70" x="129.931641"/>
      <use xlink:href="#Cambria-Italic-6c" x="182.617188"/>
      <use xlink:href="#Cambria-Italic-61" x="209.277344"/>
      <use xlink:href="#Cambria-Italic-63" x="261.865234"/>
      <use xlink:href="#Cambria-Italic-65" x="305.175781"/>
      <use xlink:href="#Cambria-Italic-6d" x="350.878906"/>
      <use xlink:href="#Cambria-Italic-65" x="430.761719"/>
      <use xlink:href="#Cambria-Italic-6e" x="476.464844"/>
      <use xlink:href="#Cambria-Italic-74" x="529.980469"/>
      <use xlink:href="#Cambria-Italic-20" x="564.501953"/>
      <use xlink:href="#Cambria-Italic-28" x="586.523438"/>
      <use xlink:href="#Cambria-Italic-6d" x="623.681641"/>
      <use xlink:href="#Cambria-Italic-6d" x="703.564453"/>
      <use xlink:href="#Cambria-Italic-29" x="783.447266"/>
     </g>
    </g>
   </g>
   <g id="matplotlib.axis_2">
    <g id="ytick_1">
     <g id="line2d_15">
      <path d="M 56.380625 215.477678 
L 301.760625 215.477678 
" clip-path="url(#p927ba35c35)" style="fill: none; stroke-dasharray: 0.8,1.32; stroke-dashoffset: 0; stroke: #b0b0b0; stroke-width: 0.8"/>
     </g>
     <g id="line2d_16">
      <defs>
       <path id="m037e8d081a" d="M 0 0 
L -3.5 0 
" style="stroke: #000000; stroke-width: 0.8"/>
      </defs>
      <g>
       <use xlink:href="#m037e8d081a" x="56.380625" y="215.477678" style="stroke: #000000; stroke-width: 0.8"/>
      </g>
     </g>
     <g id="text_9">
      <!-- −1000 -->
      <g transform="translate(16.155625 219.670178) scale(0.12 -0.12)">
       <defs>
        <path id="Cambria-31" d="M 2172 816 
Q 2172 634 2192 542 
Q 2213 450 2264 392 
Q 2316 334 2412 301 
Q 2509 269 2656 251 
Q 2803 234 3044 228 
L 3044 0 
L 734 0 
L 734 228 
Q 1081 244 1229 270 
Q 1378 297 1456 350 
Q 1534 403 1570 500 
Q 1606 597 1606 816 
L 1606 3350 
Q 1606 3475 1562 3533 
Q 1519 3591 1434 3591 
Q 1334 3591 1150 3487 
Q 966 3384 694 3203 
L 556 3444 
L 2019 4316 
L 2191 4316 
Q 2172 4016 2172 3484 
L 2172 816 
z
" transform="scale(0.015625)"/>
       </defs>
       <use xlink:href="#Cambria-2212"/>
       <use xlink:href="#Cambria-31" x="55.371094"/>
       <use xlink:href="#Cambria-30" x="110.742188"/>
       <use xlink:href="#Cambria-30" x="166.113281"/>
       <use xlink:href="#Cambria-30" x="221.484375"/>
      </g>
     </g>
    </g>
    <g id="ytick_2">
     <g id="line2d_17">
      <path d="M 56.380625 193.220744 
L 301.760625 193.220744 
" clip-path="url(#p927ba35c35)" style="fill: none; stroke-dasharray: 0.8,1.32; stroke-dashoffset: 0; stroke: #b0b0b0; stroke-width: 0.8"/>
     </g>
     <g id="line2d_18">
      <g>
       <use xlink:href="#m037e8d081a" x="56.380625" y="193.220744" style="stroke: #000000; stroke-width: 0.8"/>
      </g>
     </g>
     <g id="text_10">
      <!-- −750 -->
      <g transform="translate(22.800625 197.413244) scale(0.12 -0.12)">
       <defs>
        <path id="Cambria-37" d="M 3206 4116 
L 1388 -22 
L 934 -22 
L 934 131 
L 2619 3697 
L 2619 3744 
L 1244 3744 
Q 1116 3744 1039 3720 
Q 963 3697 911 3653 
Q 859 3609 825 3537 
Q 791 3466 731 3253 
L 463 3253 
L 525 4266 
L 3206 4266 
L 3206 4116 
z
" transform="scale(0.015625)"/>
        <path id="Cambria-35" d="M 469 172 
L 469 834 
L 847 834 
Q 941 516 1130 366 
Q 1319 216 1619 216 
Q 2034 216 2246 466 
Q 2459 716 2459 1213 
Q 2459 1544 2346 1761 
Q 2234 1978 2043 2075 
Q 1853 2172 1600 2172 
Q 1388 2172 1234 2145 
Q 1081 2119 906 2063 
L 656 2209 
L 656 4266 
L 2378 4266 
Q 2484 4266 2531 4283 
Q 2578 4300 2606 4336 
Q 2634 4372 2672 4472 
L 2916 4472 
L 2869 3747 
L 1072 3747 
L 1072 2375 
Q 1234 2444 1425 2478 
Q 1616 2513 1806 2513 
Q 2178 2513 2465 2361 
Q 2753 2209 2909 1929 
Q 3066 1650 3066 1281 
Q 3066 863 2891 563 
Q 2716 263 2384 106 
Q 2053 -50 1600 -50 
Q 1059 -50 469 172 
z
" transform="scale(0.015625)"/>
       </defs>
       <use xlink:href="#Cambria-2212"/>
       <use xlink:href="#Cambria-37" x="55.371094"/>
       <use xlink:href="#Cambria-35" x="110.742188"/>
       <use xlink:href="#Cambria-30" x="166.113281"/>
      </g>
     </g>
    </g>
    <g id="ytick_3">
     <g id="line2d_19">
      <path d="M 56.380625 170.963811 
L 301.760625 170.963811 
" clip-path="url(#p927ba35c35)" style="fill: none; stroke-dasharray: 0.8,1.32; stroke-dashoffset: 0; stroke: #b0b0b0; stroke-width: 0.8"/>
     </g>
     <g id="line2d_20">
      <g>
       <use xlink:href="#m037e8d081a" x="56.380625" y="170.963811" style="stroke: #000000; stroke-width: 0.8"/>
      </g>
     </g>
     <g id="text_11">
      <!-- −500 -->
      <g transform="translate(22.800625 175.156311) scale(0.12 -0.12)">
       <use xlink:href="#Cambria-2212"/>
       <use xlink:href="#Cambria-35" x="55.371094"/>
       <use xlink:href="#Cambria-30" x="110.742188"/>
       <use xlink:href="#Cambria-30" x="166.113281"/>
      </g>
     </g>
    </g>
    <g id="ytick_4">
     <g id="line2d_21">
      <path d="M 56.380625 148.706878 
L 301.760625 148.706878 
" clip-path="url(#p927ba35c35)" style="fill: none; stroke-dasharray: 0.8,1.32; stroke-dashoffset: 0; stroke: #b0b0b0; stroke-width: 0.8"/>
     </g>
     <g id="line2d_22">
      <g>
       <use xlink:href="#m037e8d081a" x="56.380625" y="148.706878" style="stroke: #000000; stroke-width: 0.8"/>
      </g>
     </g>
     <g id="text_12">
      <!-- −250 -->
      <g transform="translate(22.800625 152.899378) scale(0.12 -0.12)">
       <use xlink:href="#Cambria-2212"/>
       <use xlink:href="#Cambria-32" x="55.371094"/>
       <use xlink:href="#Cambria-35" x="110.742188"/>
       <use xlink:href="#Cambria-30" x="166.113281"/>
      </g>
     </g>
    </g>
    <g id="ytick_5">
     <g id="line2d_23">
      <path d="M 56.380625 126.449944 
L 301.760625 126.449944 
" clip-path="url(#p927ba35c35)" style="fill: none; stroke-dasharray: 0.8,1.32; stroke-dashoffset: 0; stroke: #b0b0b0; stroke-width: 0.8"/>
     </g>
     <g id="line2d_24">
      <g>
       <use xlink:href="#m037e8d081a" x="56.380625" y="126.449944" style="stroke: #000000; stroke-width: 0.8"/>
      </g>
     </g>
     <g id="text_13">
      <!-- 0 -->
      <g transform="translate(42.735625 130.642444) scale(0.12 -0.12)">
       <use xlink:href="#Cambria-30"/>
      </g>
     </g>
    </g>
    <g id="ytick_6">
     <g id="line2d_25">
      <path d="M 56.380625 104.193011 
L 301.760625 104.193011 
" clip-path="url(#p927ba35c35)" style="fill: none; stroke-dasharray: 0.8,1.32; stroke-dashoffset: 0; stroke: #b0b0b0; stroke-width: 0.8"/>
     </g>
     <g id="line2d_26">
      <g>
       <use xlink:href="#m037e8d081a" x="56.380625" y="104.193011" style="stroke: #000000; stroke-width: 0.8"/>
      </g>
     </g>
     <g id="text_14">
      <!-- 250 -->
      <g transform="translate(29.445625 108.385511) scale(0.12 -0.12)">
       <use xlink:href="#Cambria-32"/>
       <use xlink:href="#Cambria-35" x="55.371094"/>
       <use xlink:href="#Cambria-30" x="110.742188"/>
      </g>
     </g>
    </g>
    <g id="ytick_7">
     <g id="line2d_27">
      <path d="M 56.380625 81.936078 
L 301.760625 81.936078 
" clip-path="url(#p927ba35c35)" style="fill: none; stroke-dasharray: 0.8,1.32; stroke-dashoffset: 0; stroke: #b0b0b0; stroke-width: 0.8"/>
     </g>
     <g id="line2d_28">
      <g>
       <use xlink:href="#m037e8d081a" x="56.380625" y="81.936078" style="stroke: #000000; stroke-width: 0.8"/>
      </g>
     </g>
     <g id="text_15">
      <!-- 500 -->
      <g transform="translate(29.445625 86.128578) scale(0.12 -0.12)">
       <use xlink:href="#Cambria-35"/>
       <use xlink:href="#Cambria-30" x="55.371094"/>
       <use xlink:href="#Cambria-30" x="110.742188"/>
      </g>
     </g>
    </g>
    <g id="ytick_8">
     <g id="line2d_29">
      <path d="M 56.380625 59.679144 
L 301.760625 59.679144 
" clip-path="url(#p927ba35c35)" style="fill: none; stroke-dasharray: 0.8,1.32; stroke-dashoffset: 0; stroke: #b0b0b0; stroke-width: 0.8"/>
     </g>
     <g id="line2d_30">
      <g>
       <use xlink:href="#m037e8d081a" x="56.380625" y="59.679144" style="stroke: #000000; stroke-width: 0.8"/>
      </g>
     </g>
     <g id="text_16">
      <!-- 750 -->
      <g transform="translate(29.445625 63.871644) scale(0.12 -0.12)">
       <use xlink:href="#Cambria-37"/>
       <use xlink:href="#Cambria-35" x="55.371094"/>
       <use xlink:href="#Cambria-30" x="110.742188"/>
      </g>
     </g>
    </g>
    <g id="ytick_9">
     <g id="line2d_31">
      <path d="M 56.380625 37.422211 
L 301.760625 37.422211 
" clip-path="url(#p927ba35c35)" style="fill: none; stroke-dasharray: 0.8,1.32; stroke-dashoffset: 0; stroke: #b0b0b0; stroke-width: 0.8"/>
     </g>
     <g id="line2d_32">
      <g>
       <use xlink:href="#m037e8d081a" x="56.380625" y="37.422211" style="stroke: #000000; stroke-width: 0.8"/>
      </g>
     </g>
     <g id="text_17">
      <!-- 1000 -->
      <g transform="translate(22.800625 41.614711) scale(0.12 -0.12)">
       <use xlink:href="#Cambria-31"/>
       <use xlink:href="#Cambria-30" x="55.371094"/>
       <use xlink:href="#Cambria-30" x="110.742188"/>
       <use xlink:href="#Cambria-30" x="166.113281"/>
      </g>
     </g>
    </g>
    <g id="text_18">
     <!-- Base Shear (kN) -->
     <g transform="translate(15.6075 163.934062) rotate(-90) scale(0.12 -0.12)">
      <defs>
       <path id="Cambria-Italic-42" d="M 2797 2184 
Q 3088 2069 3244 1855 
Q 3400 1641 3400 1369 
Q 3400 1047 3283 792 
Q 3166 538 2912 347 
Q 2659 156 2331 78 
Q 2003 0 1522 0 
L 131 0 
L 166 153 
Q 284 172 343 214 
Q 403 256 443 331 
Q 484 406 518 514 
Q 553 622 622 931 
L 1153 3338 
Q 1222 3650 1222 3831 
Q 1222 3984 1150 4043 
Q 1078 4103 916 4113 
L 950 4266 
L 2497 4266 
Q 2966 4266 3248 4167 
Q 3531 4069 3664 3878 
Q 3797 3688 3797 3400 
Q 3797 2991 3547 2686 
Q 3297 2381 2803 2219 
L 2797 2184 
z
M 1934 2353 
Q 2259 2353 2457 2397 
Q 2656 2441 2781 2528 
Q 2906 2616 3004 2733 
Q 3103 2850 3161 3009 
Q 3219 3169 3219 3384 
Q 3219 3519 3172 3636 
Q 3125 3753 3011 3836 
Q 2897 3919 2748 3955 
Q 2600 3991 2353 3991 
Q 2081 3991 1847 3981 
L 1494 2353 
L 1934 2353 
z
M 1041 288 
Q 1284 275 1497 275 
Q 1969 275 2226 394 
Q 2484 513 2643 781 
Q 2803 1050 2803 1425 
Q 2803 1628 2723 1768 
Q 2644 1909 2470 1993 
Q 2297 2078 1994 2078 
L 1428 2078 
L 1041 288 
z
" transform="scale(0.015625)"/>
       <path id="Cambria-Italic-53" d="M 497 972 
Q 497 594 672 408 
Q 847 222 1219 222 
Q 1506 222 1712 328 
Q 1919 434 2025 629 
Q 2131 825 2131 1094 
Q 2131 1284 2064 1429 
Q 1997 1575 1861 1708 
Q 1725 1841 1469 2013 
Q 1238 2169 1084 2320 
Q 931 2472 840 2659 
Q 750 2847 750 3078 
Q 750 3447 928 3728 
Q 1106 4009 1431 4162 
Q 1756 4316 2181 4316 
Q 2469 4316 2714 4277 
Q 2959 4238 3256 4144 
L 3081 3341 
L 2781 3341 
Q 2769 3606 2700 3757 
Q 2631 3909 2503 3975 
Q 2375 4041 2163 4041 
Q 1903 4041 1706 3934 
Q 1509 3828 1406 3645 
Q 1303 3463 1303 3238 
Q 1303 3075 1359 2947 
Q 1416 2819 1539 2695 
Q 1663 2572 1900 2409 
Q 2206 2197 2367 2030 
Q 2528 1863 2604 1675 
Q 2681 1488 2681 1241 
Q 2681 863 2498 567 
Q 2316 272 1983 111 
Q 1650 -50 1225 -50 
Q 934 -50 607 -6 
Q 281 38 9 113 
L 197 972 
L 497 972 
z
" transform="scale(0.015625)"/>
       <path id="Cambria-Italic-68" d="M 2916 0 
L 1934 0 
L 2328 1588 
Q 2372 1759 2405 1936 
Q 2438 2113 2438 2256 
Q 2438 2481 2363 2576 
Q 2288 2672 2109 2672 
Q 1981 2672 1826 2565 
Q 1672 2459 1500 2242 
Q 1328 2025 1226 1826 
Q 1125 1628 1066 1353 
L 781 0 
L 241 0 
L 1044 3572 
Q 1078 3728 1092 3798 
Q 1106 3869 1112 3928 
Q 1119 3988 1119 4034 
Q 1119 4166 1039 4219 
Q 959 4272 753 4278 
L 791 4441 
L 1581 4469 
L 1763 4469 
L 1225 2303 
L 1263 2291 
Q 1556 2681 1822 2859 
Q 2088 3038 2363 3038 
Q 2666 3038 2822 2870 
Q 2978 2703 2978 2375 
Q 2978 2175 2916 1894 
L 2653 781 
Q 2622 647 2609 565 
Q 2597 484 2597 425 
Q 2597 328 2630 275 
Q 2663 222 2730 195 
Q 2797 169 2944 153 
L 2916 0 
z
" transform="scale(0.015625)"/>
       <path id="Cambria-Italic-72" d="M 1244 3016 
L 1431 3016 
L 1213 2247 
L 1250 2234 
Q 1547 2644 1830 2841 
Q 2113 3038 2413 3038 
Q 2641 3038 2794 3003 
L 2644 2303 
L 2322 2303 
Q 2297 2466 2244 2550 
Q 2191 2634 2078 2634 
Q 1956 2634 1797 2509 
Q 1638 2384 1472 2165 
Q 1306 1947 1223 1762 
Q 1141 1578 1097 1353 
L 813 0 
L 272 0 
L 747 2134 
Q 813 2428 813 2581 
Q 813 2669 784 2717 
Q 756 2766 693 2789 
Q 631 2813 481 2822 
L 516 2988 
L 1244 3016 
z
" transform="scale(0.015625)"/>
       <path id="Cambria-Italic-6b" d="M 1150 1741 
L 1250 1741 
Q 1347 1741 1459 1778 
Q 1572 1816 1700 1895 
Q 1828 1975 2044 2147 
Q 2206 2278 2284 2370 
Q 2363 2463 2391 2531 
Q 2419 2600 2419 2663 
Q 2419 2816 2206 2834 
L 2241 2988 
L 3253 2988 
L 3313 2834 
Q 3053 2600 2763 2375 
L 1972 1759 
L 2441 575 
Q 2503 416 2568 330 
Q 2634 244 2720 203 
Q 2806 163 2941 153 
L 2906 0 
L 2072 0 
L 1616 1284 
Q 1572 1406 1540 1450 
Q 1509 1494 1468 1512 
Q 1428 1531 1338 1531 
L 1106 1531 
L 781 0 
L 241 0 
L 1044 3572 
Q 1078 3728 1092 3798 
Q 1106 3869 1112 3928 
Q 1119 3988 1119 4034 
Q 1119 4166 1039 4219 
Q 959 4272 753 4278 
L 791 4441 
L 1581 4469 
L 1763 4469 
L 1150 1741 
z
" transform="scale(0.015625)"/>
       <path id="Cambria-Italic-4e" d="M 4463 4266 
L 4428 4113 
Q 4309 4088 4257 4056 
Q 4206 4025 4164 3962 
Q 4122 3900 4080 3767 
Q 4038 3634 3972 3334 
L 3238 0 
L 2813 0 
L 1900 2681 
Q 1734 3163 1609 3641 
L 1569 3641 
Q 1550 3481 1465 3032 
Q 1381 2584 1288 2156 
L 1013 909 
Q 984 778 965 656 
Q 947 534 947 422 
Q 947 281 1017 223 
Q 1088 166 1253 153 
L 1219 0 
L 125 0 
L 159 153 
Q 278 172 337 214 
Q 397 256 437 331 
Q 478 406 512 514 
Q 547 622 616 931 
L 1147 3338 
Q 1178 3472 1197 3594 
Q 1216 3716 1216 3841 
Q 1216 3988 1141 4045 
Q 1066 4103 909 4113 
L 944 4266 
L 1941 4266 
L 2766 1831 
Q 2944 1306 3041 944 
L 3075 944 
Q 3100 1134 3189 1578 
Q 3278 2022 3353 2353 
L 3572 3338 
Q 3594 3441 3617 3581 
Q 3641 3722 3641 3841 
Q 3641 3988 3566 4045 
Q 3491 4103 3334 4113 
L 3369 4266 
L 4463 4266 
z
" transform="scale(0.015625)"/>
      </defs>
      <use xlink:href="#Cambria-Italic-42"/>
      <use xlink:href="#Cambria-Italic-61" x="59.619141"/>
      <use xlink:href="#Cambria-Italic-73" x="112.207031"/>
      <use xlink:href="#Cambria-Italic-65" x="150.390625"/>
      <use xlink:href="#Cambria-Italic-20" x="196.09375"/>
      <use xlink:href="#Cambria-Italic-53" x="218.115234"/>
      <use xlink:href="#Cambria-Italic-68" x="266.259766"/>
      <use xlink:href="#Cambria-Italic-65" x="319.287109"/>
      <use xlink:href="#Cambria-Italic-61" x="364.990234"/>
      <use xlink:href="#Cambria-Italic-72" x="417.578125"/>
      <use xlink:href="#Cambria-Italic-20" x="458.300781"/>
      <use xlink:href="#Cambria-Italic-28" x="480.322266"/>
      <use xlink:href="#Cambria-Italic-6b" x="517.480469"/>
      <use xlink:href="#Cambria-Italic-4e" x="567.1875"/>
      <use xlink:href="#Cambria-Italic-29" x="634.277344"/>
     </g>
    </g>
   </g>
   <g id="line2d_33">
    <path d="M 179.0728 127.143622 
L 181.845182 126.165832 
L 184.532992 87.827625 
L 187.054238 69.249892 
L 189.332009 62.269496 
L 191.296822 55.527368 
L 192.88874 53.123146 
L 194.059201 50.927502 
L 195.006878 50.199071 
L 194.025098 51.564542 
L 192.83889 54.830763 
L 181.747127 96.140587 
L 178.973281 112.190889 
L 176.202471 145.863768 
L 173.519221 171.145771 
L 171.005384 177.036694 
L 168.737644 181.570843 
L 166.78518 185.188643 
L 165.20755 187.8507 
L 163.356398 191.720988 
L 163.139345 192.732358 
L 163.408344 192.432737 
L 165.357097 186.3489 
L 168.966684 174.387325 
L 173.800019 157.822855 
L 176.496634 147.789642 
L 179.271836 134.05957 
L 182.040965 110.928544 
L 184.719551 90.892445 
L 187.225881 79.984216 
L 189.483501 73.260014 
L 191.423541 68.086804 
L 194.125651 62.340543 
L 194.805293 60.946611 
L 195.005013 60.095908 
L 194.718719 60.288841 
L 193.955144 61.824901 
L 192.737582 65.117145 
L 191.103174 71.140047 
L 186.794447 88.70112 
L 184.251566 98.386932 
L 181.550706 111.411199 
L 176.006916 149.714058 
L 173.3331 162.51524 
L 170.834374 169.85357 
L 168.586962 175.387377 
L 165.110553 182.805679 
L 163.324832 186.152989 
L 163.142453 186.808721 
L 163.446031 186.385459 
L 164.226305 184.329083 
L 171.438358 159.614595 
L 173.988253 150.631084 
L 176.693252 140.465141 
L 179.868879 127.271369 
L 185.39977 103.240709 
L 190.737655 82.226871 
L 195.719703 69.330421 
L 200.193936 62.155891 
L 204.023865 56.759346 
L 207.09266 52.964761 
L 209.306705 51.175632 
L 210.598462 49.94135 
L 210.928524 48.866502 
L 210.286824 48.899524 
L 208.692936 51.702979 
L 206.195482 59.84211 
L 202.870648 69.408277 
L 198.819858 81.691412 
L 194.166681 94.383602 
L 183.634998 121.764524 
L 178.077761 135.176201 
L 172.550878 152.463884 
L 167.222947 167.843097 
L 162.256497 177.94562 
L 157.803031 184.642957 
L 150.958669 191.799642 
L 147.518645 195.062201 
L 147.223292 195.711624 
L 147.899511 195.198873 
L 149.526676 192.106648 
L 152.055148 185.445598 
L 159.48235 164.810038 
L 169.281758 140.483215 
L 174.707681 129.779476 
L 180.266763 119.600578 
L 185.789422 104.20103 
L 191.10719 87.737568 
L 196.057848 76.400127 
L 200.490375 68.54186 
L 204.269556 62.931711 
L 207.280107 59.277982 
L 209.430191 56.490996 
L 210.654219 54.411533 
L 210.914852 53.175561 
L 210.20414 53.475627 
L 208.543762 56.852106 
L 205.984369 63.816396 
L 198.505879 87.035187 
L 193.814915 99.808028 
L 188.67424 114.419448 
L 183.240672 126.20307 
L 177.679963 137.209381 
L 172.161742 150.474763 
L 166.854344 164.084039 
L 161.919672 173.895363 
L 157.508257 180.375032 
L 153.754672 185.027204 
L 150.773419 188.054017 
L 148.655443 190.481343 
L 147.465351 192.267239 
L 147.239448 193.264764 
L 147.984626 192.576728 
L 149.678152 188.762163 
L 152.268365 182.509709 
L 155.676251 173.098265 
L 164.507436 149.70969 
L 169.661339 138.175167 
L 175.10234 127.949992 
L 181.46029 118.357873 
L 189.730639 100.373583 
L 197.67587 80.839848 
L 205.053613 67.581231 
L 217.230572 53.645592 
L 221.658329 50.586562 
L 224.787009 48.626746 
L 226.521172 47.102401 
L 226.807917 45.690439 
L 225.638497 46.150352 
L 223.048584 51.322204 
L 219.117185 62.329855 
L 213.964228 75.925891 
L 207.746903 91.449825 
L 200.654871 106.246921 
L 192.904475 121.193748 
L 184.732143 131.846971 
L 176.387172 140.211341 
L 168.124126 153.549997 
L 160.195071 169.485543 
L 152.841883 180.739234 
L 146.288873 187.583116 
L 140.73594 192.280269 
L 133.272203 197.012172 
L 131.589082 198.591094 
L 131.354457 199.480154 
L 132.575486 198.30785 
L 135.214921 193.635834 
L 139.192246 184.144301 
L 144.386132 171.419413 
L 150.638139 157.090308 
L 157.757548 143.379748 
L 165.527182 132.075248 
L 173.710027 122.796893 
L 182.056464 113.618445 
L 190.311883 100.103017 
L 198.224453 83.644795 
L 205.5528 70.867715 
L 212.073371 62.808857 
L 217.587256 56.864751 
L 221.926253 52.567006 
L 224.958 50.586503 
L 226.590013 49.093049 
L 226.772509 48.339617 
L 225.499919 48.943353 
L 222.811064 53.386219 
L 218.787969 64.493815 
L 213.553357 78.358428 
L 207.266912 94.184401 
L 200.120403 109.834941 
L 192.331833 123.600872 
L 184.138796 132.52267 
L 175.791219 140.392041 
L 167.543748 153.383032 
L 159.647972 168.080161 
L 152.344752 178.729231 
L 145.856875 185.641443 
L 136.087891 193.498358 
L 133.104789 195.487664 
L 131.523947 197.004879 
L 131.393588 197.933302 
L 132.717689 196.56769 
L 135.455858 191.446672 
L 139.524568 181.921797 
L 144.7997 168.94579 
L 151.120338 155.146592 
L 158.293669 141.456276 
L 166.10087 131.135632 
L 174.303781 122.319284 
L 183.845296 112.5709 
L 194.830897 96.035592 
L 205.335797 76.419119 
L 215.03954 63.365324 
L 223.646114 55.338456 
L 230.892974 49.919175 
L 242.510986 43.327656 
L 242.615276 42.377465 
L 240.781195 43.321939 
L 237.064692 50.997636 
L 231.57914 64.804586 
L 224.491876 82.166352 
L 216.019097 99.068974 
L 206.419267 115.62955 
L 195.98523 127.383902 
L 185.035277 135.757777 
L 173.903438 143.21214 
L 162.929291 155.693552 
L 152.447604 173.225243 
L 142.778122 184.507345 
L 134.215813 191.267014 
L 127.021872 195.432239 
L 121.41575 198.274579 
L 117.568464 200.574031 
L 115.597375 202.111813 
L 115.562611 202.847085 
L 117.465233 201.191476 
L 121.247202 194.207956 
L 133.933889 166.015648 
L 142.451599 150.175164 
L 152.086443 136.908161 
L 162.544509 126.240687 
L 173.506773 118.245953 
L 184.638828 108.697281 
L 195.601092 95.975081 
L 206.059158 78.13538 
L 215.694002 65.652854 
L 224.211712 57.440089 
L 231.352454 51.241278 
L 236.898399 48.316268 
L 240.680368 45.887497 
L 242.58299 44.377856 
L 242.548226 43.816374 
L 240.577137 45.02535 
L 236.729851 52.612063 
L 231.123729 66.918228 
L 223.929788 84.605837 
L 215.367479 101.806555 
L 205.697997 118.31748 
L 195.21631 128.703293 
L 173.110324 143.741715 
L 162.160371 156.265682 
L 151.726334 172.918949 
L 142.126504 183.608689 
L 133.653725 189.832159 
L 126.566461 194.323761 
L 121.080909 197.049323 
L 117.364406 199.432619 
L 115.530325 201.305939 
L 115.634615 202.005147 
L 117.674094 199.645554 
L 121.586548 192.316312 
L 127.252627 179.392858 
L 134.499487 163.979011 
L 143.106061 148.242679 
L 152.809804 135.552924 
L 163.314703 125.532858 
L 174.300305 117.781128 
L 187.021166 107.680745 
L 200.692685 91.778386 
L 213.704686 71.648598 
L 225.660238 59.346274 
L 236.194634 51.05862 
L 244.986522 46.085782 
L 258.538155 40.262209 
L 258.32089 39.497442 
L 255.686152 41.367671 
L 250.714316 51.676473 
L 243.557046 68.628453 
L 234.432677 88.832888 
L 223.619548 106.538412 
L 211.447515 122.109322 
L 198.287888 131.919137 
L 184.542102 138.554713 
L 170.629475 146.009727 
L 156.974412 159.18534 
L 143.993464 177.133877 
L 132.082614 187.98329 
L 121.605206 194.508946 
L 101.69427 203.333402 
L 99.573287 204.839342 
L 99.877446 205.513652 
L 102.597469 202.739392 
L 107.65038 193.631041 
L 114.882042 177.856 
L 124.07185 160.325472 
L 134.939468 143.888526 
L 147.153379 131.773288 
L 160.340996 122.531076 
L 174.100029 113.944403 
L 188.010756 104.805638 
L 201.648831 91.793209 
L 214.598221 73.166058 
L 226.463903 61.161062 
L 236.883915 52.075777 
L 245.540391 47.283543 
L 252.169266 44.11637 
L 256.568324 42.268104 
L 258.603373 40.967008 
L 258.212331 40.576968 
L 255.407129 42.84949 
L 250.273339 53.43495 
L 242.967569 70.628262 
L 233.71268 90.915911 
L 222.790996 108.876368 
L 210.535683 123.676511 
L 197.320591 132.565724 
L 183.548848 138.919823 
L 169.640563 146.551668 
L 156.020009 160.181096 
L 143.102683 177.005987 
L 131.28263 187.302052 
L 120.920422 193.671969 
L 112.332159 197.392517 
L 101.463306 202.671535 
L 99.514272 204.24618 
L 99.992181 204.801832 
L 102.882453 201.575881 
L 108.09692 191.617061 
L 115.476515 175.795207 
L 124.796123 158.088229 
L 135.771447 142.056191 
L 148.067684 130.811224 
L 161.309736 121.927822 
L 190.984182 103.494474 
L 207.307185 87.342211 
L 222.768894 67.262102 
L 236.897649 54.797872 
L 249.26245 47.708718 
L 259.486107 42.864689 
L 274.572857 37.70126 
L 273.895149 37.010458 
L 270.324874 40.378248 
L 263.970944 53.695779 
L 255.027186 73.572345 
L 243.76643 94.935632 
L 230.532187 113.114505 
L 215.72817 126.071218 
L 199.805976 134.74209 
L 183.251314 140.97376 
L 166.569186 148.65787 
L 150.268483 163.231646 
L 134.846458 181.434889 
L 120.773564 191.486198 
L 108.479094 197.071868 
L 98.338094 201.305016 
L 90.659916 203.773492 
L 85.678783 205.790809 
L 83.546646 207.723484 
L 84.328545 208.280706 
L 88.00063 203.582542 
L 94.450881 191.791291 
L 103.482535 173.471911 
L 114.820078 154.278659 
L 128.117659 138.292828 
L 142.969632 127.173448 
L 158.922936 119.04477 
L 175.490914 109.858638 
L 192.168159 101.232711 
L 208.445928 87.417788 
L 223.827666 68.417724 
L 237.844151 56.341039 
L 250.06781 48.589117 
L 260.125757 43.57903 
L 272.592668 39.275704 
L 274.621326 38.258835 
L 273.735266 37.978298 
L 269.961516 41.567543 
L 263.415194 55.932236 
L 254.295998 75.616652 
L 242.882109 96.853141 
L 229.52171 115.352563 
L 214.622361 127.274631 
L 198.638568 135.360116 
L 182.057919 141.430792 
L 165.386209 149.366761 
L 149.13201 164.040652 
L 133.791158 181.326967 
L 119.831628 190.808964 
L 107.679257 196.336411 
L 97.704755 200.500191 
L 90.212394 203.18996 
L 85.430731 205.237847 
L 83.50563 207.169283 
L 84.495817 207.467899 
L 88.371087 202.409478 
L 95.013222 189.659418 
L 104.219606 171.354658 
L 115.709394 152.522779 
L 129.132092 137.232014 
L 144.078236 126.297525 
L 160.091893 118.340955 
L 176.684566 109.297683 
L 195.72964 99.865532 
L 214.664635 82.900046 
L 232.513896 63.151329 
L 248.732931 51.013655 
L 262.826975 44.22096 
L 274.366088 40.105503 
L 282.998268 37.779751 
L 288.460189 35.897568 
L 290.585235 35.011018 
L 289.30858 34.502358 
L 284.669171 40.125461 
L 276.808531 57.09214 
L 265.966451 78.900957 
L 252.473671 100.650559 
L 236.741788 118.463303 
L 219.250705 129.556731 
L 200.533991 137.244274 
L 181.162601 143.631748 
L 161.727461 151.672965 
L 142.821443 167.004381 
L 125.021276 185.158513 
L 108.869958 194.418554 
L 94.860186 199.805167 
L 83.41933 203.472127 
L 74.896394 206.054735 
L 69.551372 208.525228 
L 67.547314 210.68202 
L 68.945354 210.754078 
L 73.702845 203.812741 
L 81.67466 188.880333 
L 92.617616 168.140702 
L 106.197897 148.28837 
L 122.001236 133.951386 
L 139.54555 124.044638 
L 158.295648 115.649604 
L 177.679555 106.576511 
L 197.105963 98.089373 
L 215.982267 83.036706 
L 233.732644 64.138459 
L 249.815616 51.769598 
L 263.74057 44.799124 
L 275.082723 40.6678 
L 283.496082 38.404728 
L 288.723997 36.567732 
L 290.606989 35.456939 
L 289.087617 35.308558 
L 284.21223 41.274117 
L 276.129552 59.104279 
L 265.086147 81.002661 
L 251.418894 102.567383 
L 235.544715 120.041917 
L 217.947854 130.622709 
L 199.165104 137.685279 
L 179.769437 144.241026 
L 160.352518 152.588542 
L 141.506664 168.023722 
L 123.806769 185.060829 
L 107.792771 193.976698 
L 93.953179 199.144327 
L 82.710171 202.961728 
L 74.406717 205.511565 
L 69.296114 208.018231 
L 67.534261 210.220205 
L 69.174905 209.901327 
L 74.167998 202.581551 
L 82.361224 187.000741 
L 93.504648 166.090977 
L 107.258338 146.729071 
L 107.258338 146.729071 
" clip-path="url(#p927ba35c35)" style="fill: none; stroke: #ff0000; stroke-linecap: square"/>
   </g>
   <g id="line2d_34">
    <path d="M 179.0728 126.449944 
L 181.845182 82.079912 
L 184.532992 69.388645 
L 187.054238 63.348936 
L 191.296822 56.072656 
L 192.88874 54.37952 
L 195.006878 52.481596 
L 192.83889 63.484228 
L 191.232746 71.165685 
L 189.255662 79.912916 
L 186.967948 89.244412 
L 184.439391 98.974446 
L 181.747127 110.144403 
L 178.973281 131.2147 
L 176.202471 170.492284 
L 173.519221 176.834831 
L 171.005384 183.087297 
L 168.737644 186.686018 
L 166.78518 189.371267 
L 165.20755 191.811927 
L 164.052882 193.347825 
L 163.356398 190.665617 
L 163.139345 191.548451 
L 163.408344 190.243812 
L 166.977405 173.298769 
L 173.800019 140.726828 
L 176.496634 127.483682 
L 179.271836 106.664515 
L 182.040965 93.845063 
L 184.719551 85.105224 
L 187.225881 78.65867 
L 189.483501 73.647342 
L 191.423541 70.005893 
L 192.986821 67.467157 
L 195.005013 64.702268 
L 192.737582 75.478356 
L 189.101778 91.754271 
L 184.251566 112.183501 
L 181.550706 124.779501 
L 178.774258 142.337636 
L 176.006916 156.809091 
L 173.3331 165.692626 
L 170.834374 172.297482 
L 168.586962 177.306356 
L 166.659422 180.965934 
L 163.987605 185.23975 
L 163.142453 186.438426 
L 165.459474 175.396758 
L 176.693252 124.480237 
L 179.868879 107.0303 
L 185.39977 87.777964 
L 190.737655 75.451051 
L 195.719703 67.336582 
L 200.193936 62.502228 
L 204.023865 59.13108 
L 207.09266 56.90786 
L 210.928524 54.56382 
L 208.692936 64.513934 
L 206.195482 74.851977 
L 202.870648 87.060779 
L 198.819858 99.842241 
L 194.166681 112.172895 
L 189.053064 123.387196 
L 183.634998 133.808311 
L 178.077761 149.311212 
L 172.550878 165.38796 
L 167.222947 176.624384 
L 162.256497 184.220759 
L 157.803031 189.187958 
L 153.998401 192.565912 
L 150.958669 194.805862 
L 147.223292 197.124861 
L 149.526676 186.792917 
L 152.055148 176.370783 
L 155.407797 164.251018 
L 159.48235 151.794534 
L 164.154512 139.414262 
L 169.281758 127.776105 
L 174.707681 118.455681 
L 180.266763 107.251328 
L 185.789422 93.341025 
L 191.10719 82.260222 
L 196.057848 74.222639 
L 200.490375 68.599153 
L 204.269556 64.708002 
L 207.280107 62.089237 
L 210.914852 59.378263 
L 208.543762 69.857729 
L 205.984369 80.271037 
L 202.604036 92.301216 
L 198.505879 104.5851 
L 193.814915 116.131359 
L 188.67424 126.30251 
L 183.240672 134.40614 
L 177.679963 145.017639 
L 172.161742 158.666934 
L 166.854344 169.893935 
L 161.919672 178.101389 
L 157.508257 183.842164 
L 153.754672 187.792327 
L 150.773419 190.42812 
L 147.239448 193.104879 
L 149.678152 182.321178 
L 152.268365 171.829901 
L 155.676251 159.881297 
L 159.797851 147.876003 
L 164.507436 136.450819 
L 169.661339 126.256403 
L 175.10234 118.523992 
L 181.46029 105.457575 
L 189.730639 86.923316 
L 197.67587 73.803794 
L 205.053613 65.455794 
L 211.638807 60.117021 
L 217.230572 56.607498 
L 221.658329 54.284148 
L 226.807917 51.957564 
L 225.638497 57.277301 
L 223.048584 68.400925 
L 219.117185 83.068567 
L 213.964228 98.166246 
L 207.746903 111.721006 
L 200.654871 123.210884 
L 192.904475 132.118398 
L 184.732143 139.474587 
L 176.387172 148.903799 
L 168.124126 165.202062 
L 160.195071 178.092218 
L 152.841883 186.353198 
L 146.288873 191.71225 
L 140.73594 195.278199 
L 136.352477 197.643337 
L 131.354457 199.969314 
L 132.575486 194.421442 
L 135.214921 183.127484 
L 139.192246 168.411862 
L 144.386132 153.44451 
L 150.638139 140.231381 
L 157.757548 128.999621 
L 165.527182 121.149716 
L 173.710027 114.41707 
L 182.056464 104.951462 
L 190.311883 89.37731 
L 198.224453 76.992493 
L 205.5528 68.587052 
L 212.073371 62.986414 
L 217.587256 59.231997 
L 221.926253 56.735964 
L 226.772509 54.310877 
L 225.499919 60.020364 
L 222.811064 71.437178 
L 218.787969 86.212103 
L 213.553357 101.170936 
L 207.266912 114.249726 
L 200.120403 125.095314 
L 192.331833 132.516719 
L 184.138796 139.273105 
L 175.791219 147.569797 
L 167.543748 162.65059 
L 159.647972 175.428118 
L 152.344752 183.966391 
L 145.856875 189.619428 
L 140.382253 193.401145 
L 136.087891 195.905789 
L 131.393588 198.289833 
L 132.717689 192.351644 
L 135.455858 180.760362 
L 139.524568 165.930355 
L 144.7997 151.070478 
L 151.120338 138.264547 
L 158.293669 127.680779 
L 166.10087 120.583033 
L 174.303781 114.130232 
L 183.845296 102.479863 
L 194.830897 82.864428 
L 205.335797 69.650989 
L 215.03954 61.564465 
L 223.646114 56.414468 
L 230.892974 52.995201 
L 236.559053 50.732301 
L 240.471507 49.334747 
L 242.615276 49.006401 
L 240.781195 56.693077 
L 237.064692 71.009006 
L 231.57914 88.399829 
L 224.491876 105.026722 
L 216.019097 118.607738 
L 206.419267 128.80166 
L 185.035277 143.093155 
L 173.903438 152.638152 
L 162.929291 169.022861 
L 152.447604 182.46764 
L 142.778122 190.602846 
L 134.215813 195.831881 
L 127.021872 199.275912 
L 121.41575 201.106137 
L 115.562611 203.243535 
L 117.465233 195.336087 
L 121.247202 180.907574 
L 126.793147 163.488529 
L 133.933889 146.951185 
L 142.451599 133.609562 
L 152.086443 124.082555 
L 162.544509 117.23306 
L 173.506773 110.5028 
L 184.638828 101.257943 
L 195.601092 84.689938 
L 206.059158 71.905774 
L 215.694002 63.792505 
L 224.211712 58.470986 
L 231.352454 54.908893 
L 236.898399 52.543783 
L 242.58299 50.395888 
L 240.577137 58.667438 
L 236.729851 73.234893 
L 231.123729 90.596412 
L 223.929788 106.943359 
L 215.367479 120.149445 
L 205.697997 129.375438 
L 184.242163 143.110266 
L 173.110324 152.410919 
L 162.160371 167.838445 
L 151.726334 180.820487 
L 142.126504 189.006569 
L 133.653725 194.348129 
L 126.566461 197.915582 
L 121.080909 200.272387 
L 115.530325 202.381985 
L 117.674094 193.556273 
L 121.586548 178.842033 
L 127.252627 161.52335 
L 134.499487 145.370461 
L 143.106061 132.402724 
L 152.809804 123.474127 
L 163.314703 116.816003 
L 174.300305 110.152832 
L 187.021166 98.390445 
L 200.692685 78.437569 
L 213.704686 65.788277 
L 225.660238 58.12063 
L 236.194634 53.189455 
L 244.986522 49.885174 
L 251.767704 47.684189 
L 258.538155 45.710778 
L 255.686152 57.420665 
L 250.714316 75.285869 
L 243.557046 94.699672 
L 234.432677 111.357559 
L 223.619548 124.015766 
L 211.447515 132.259782 
L 198.287888 139.021412 
L 184.542102 146.455422 
L 170.629475 155.536905 
L 156.974412 173.492805 
L 143.993464 186.658344 
L 132.082614 194.382747 
L 121.605206 199.359603 
L 112.880853 202.69409 
L 106.175694 204.906149 
L 99.573287 206.862796 
L 102.597469 194.461647 
L 107.65038 176.440362 
L 114.882042 157.080672 
L 124.07185 140.561931 
L 134.939468 128.02234 
L 147.153379 120.236992 
L 160.340996 113.252062 
L 174.100029 105.75386 
L 188.010756 96.476246 
L 201.648831 80.184976 
L 214.598221 67.133989 
L 226.463903 59.306208 
L 236.883915 54.23553 
L 245.540391 50.842226 
L 252.169266 48.590672 
L 258.603373 46.623328 
L 255.407129 59.607987 
L 250.273339 77.721992 
L 242.967569 96.965848 
L 233.71268 113.115199 
L 222.790996 125.271576 
L 210.535683 132.781725 
L 197.320591 139.39763 
L 183.548848 146.654922 
L 169.640563 155.616613 
L 156.020009 173.003329 
L 143.102683 185.966865 
L 131.28263 193.751018 
L 120.920422 198.78121 
L 112.332159 202.144514 
L 105.779827 204.367121 
L 99.514272 206.282169 
L 102.882453 192.614914 
L 108.09692 174.353852 
L 115.476515 155.16371 
L 124.796123 139.138392 
L 135.771447 127.152716 
L 148.067684 119.667522 
L 161.309736 112.778443 
L 175.093652 105.337232 
L 190.984182 93.786419 
L 207.307185 74.226298 
L 222.768894 61.794235 
L 236.897649 54.508859 
L 249.26245 49.78544 
L 259.486107 46.582316 
L 272.337325 43.155958 
L 274.572857 42.611342 
L 273.895149 45.459674 
L 270.324874 59.706011 
L 263.970944 80.637831 
L 255.027186 100.976193 
L 243.76643 116.809287 
L 230.532187 127.961936 
L 215.72817 135.191431 
L 199.805976 142.217494 
L 183.251314 149.992584 
L 166.569186 159.288165 
L 150.268483 178.097005 
L 134.846458 190.818488 
L 120.773564 198.143485 
L 108.479094 202.896669 
L 98.338094 206.110646 
L 85.678783 209.521646 
L 83.546646 210.046104 
L 84.328545 206.761667 
L 88.00063 192.183059 
L 94.450881 171.187654 
L 103.482535 151.037393 
L 114.820078 135.460348 
L 128.117659 124.78319 
L 142.969632 117.704415 
L 158.922936 110.914829 
L 175.490914 103.554484 
L 192.168159 93.150644 
L 208.445928 74.730545 
L 223.827666 62.435031 
L 237.844151 55.113503 
L 250.06781 50.341338 
L 260.125757 47.120034 
L 272.592668 43.706141 
L 274.621326 43.196879 
L 273.735266 46.881228 
L 269.961516 61.739565 
L 263.415194 82.837197 
L 254.295998 102.877512 
L 242.882109 118.225696 
L 229.52171 128.607478 
L 214.622361 135.654264 
L 198.638568 142.591508 
L 182.057919 150.248789 
L 165.386209 159.835922 
L 149.13201 178.263492 
L 133.791158 190.689897 
L 119.831628 197.961013 
L 107.679257 202.683606 
L 97.704755 205.869351 
L 85.430731 209.226012 
L 83.50563 209.709369 
L 84.495817 205.596856 
L 88.371087 190.418033 
L 95.013222 169.271636 
L 104.219606 149.415518 
L 115.709394 134.292359 
L 129.132092 124.15116 
L 144.078236 117.225389 
L 160.091893 110.480154 
L 176.684566 103.081306 
L 195.72964 89.545822 
L 214.664635 69.516451 
L 232.513896 57.738766 
L 248.732931 50.897208 
L 262.826975 46.402393 
L 274.366088 43.322738 
L 290.585235 39.844725 
L 289.30858 44.884463 
L 284.669171 61.872481 
L 276.808531 84.529404 
L 265.966451 105.130489 
L 252.473671 120.252914 
L 236.741788 130.078678 
L 219.250705 136.985599 
L 200.533991 144.150983 
L 181.162601 151.879848 
L 161.727461 163.238555 
L 142.821443 183.055764 
L 125.021276 194.976044 
L 108.869958 201.816118 
L 94.860186 206.020818 
L 83.41933 209.106754 
L 69.551372 212.357778 
L 67.547314 212.793267 
L 68.945354 207.303838 
L 73.702845 190.021237 
L 81.67466 167.320489 
L 92.617616 146.820833 
L 106.197897 131.774494 
L 122.001236 122.241493 
L 139.54555 115.225135 
L 158.295648 107.503282 
L 177.679555 99.706829 
L 197.105963 89.111581 
L 215.982267 70.591443 
L 233.732644 58.674086 
L 249.815616 51.770738 
L 263.74057 47.21752 
L 275.082723 44.115968 
L 288.723997 40.867582 
L 290.606989 40.450892 
L 289.087617 46.373838 
L 284.21223 63.917392 
L 276.129552 86.535255 
L 265.086147 106.683353 
L 251.418894 121.418437 
L 235.544715 130.651742 
L 217.947854 137.481036 
L 199.165104 144.576256 
L 179.769437 152.269543 
L 160.352518 163.992894 
L 141.506664 182.993271 
L 123.806769 194.581133 
L 107.792771 201.36981 
L 93.953179 205.853527 
L 82.710171 208.908857 
L 69.296114 212.092463 
L 67.534261 212.481627 
L 69.174905 206.085182 
L 74.167998 188.200422 
L 82.361224 165.539317 
L 93.504648 145.534196 
L 107.258338 130.859382 
L 107.258338 130.859382 
" clip-path="url(#p927ba35c35)" style="fill: none; stroke-dasharray: 2.96,1.28; stroke-dashoffset: 0; stroke: #000000; stroke-width: 0.8"/>
   </g>
   <g id="line2d_35">
    <path d="M 56.380625 126.449944 
L 301.760625 126.449944 
" clip-path="url(#p927ba35c35)" style="fill: none; stroke: #000000; stroke-width: 0.4; stroke-linecap: square"/>
   </g>
   <g id="line2d_36">
    <path d="M 179.0728 221.707812 
L 179.0728 25.587812 
" clip-path="url(#p927ba35c35)" style="fill: none; stroke: #000000; stroke-width: 0.4; stroke-linecap: square"/>
   </g>
   <g id="patch_3">
    <path d="M 56.380625 221.707812 
L 56.380625 25.587812 
" style="fill: none; stroke: #000000; stroke-width: 0.8; stroke-linejoin: miter; stroke-linecap: square"/>
   </g>
   <g id="patch_4">
    <path d="M 301.760625 221.707812 
L 301.760625 25.587812 
" style="fill: none; stroke: #000000; stroke-width: 0.8; stroke-linejoin: miter; stroke-linecap: square"/>
   </g>
   <g id="patch_5">
    <path d="M 56.380625 221.707812 
L 301.760625 221.707812 
" style="fill: none; stroke: #000000; stroke-width: 0.8; stroke-linejoin: miter; stroke-linecap: square"/>
   </g>
   <g id="patch_6">
    <path d="M 56.380625 25.587812 
L 301.760625 25.587812 
" style="fill: none; stroke: #000000; stroke-width: 0.8; stroke-linejoin: miter; stroke-linecap: square"/>
   </g>
   <g id="text_19">
    <!-- Specimen ② -->
    <g transform="translate(140.168125 19.587812) scale(0.14 -0.14)">
     <defs>
      <path id="Cambria-53" d="M 663 972 
Q 725 697 831 537 
Q 938 378 1106 301 
Q 1275 225 1541 225 
Q 1906 225 2101 415 
Q 2297 606 2297 972 
Q 2297 1206 2215 1365 
Q 2134 1525 1950 1665 
Q 1766 1806 1388 1994 
Q 1022 2175 809 2348 
Q 597 2522 492 2725 
Q 388 2928 388 3169 
Q 388 3519 552 3776 
Q 716 4034 1033 4175 
Q 1350 4316 1759 4316 
Q 1997 4316 2223 4291 
Q 2450 4266 2791 4178 
L 2791 3334 
L 2481 3334 
Q 2409 3609 2300 3762 
Q 2191 3916 2044 3977 
Q 1897 4038 1663 4038 
Q 1459 4038 1298 3963 
Q 1138 3888 1044 3736 
Q 950 3584 950 3375 
Q 950 3153 1029 3000 
Q 1109 2847 1278 2715 
Q 1447 2584 1778 2422 
Q 2178 2222 2398 2050 
Q 2619 1878 2742 1658 
Q 2866 1438 2866 1144 
Q 2866 816 2762 589 
Q 2659 363 2476 220 
Q 2294 78 2039 14 
Q 1784 -50 1481 -50 
Q 991 -50 350 116 
L 350 972 
L 663 972 
z
" transform="scale(0.015625)"/>
      <path id="Cambria-70" d="M 1150 94 
L 1150 -566 
Q 1150 -769 1164 -869 
Q 1178 -969 1214 -1026 
Q 1250 -1084 1317 -1121 
Q 1384 -1159 1534 -1191 
L 1534 -1344 
L 259 -1344 
L 259 -1191 
Q 372 -1159 442 -1126 
Q 513 -1094 550 -1030 
Q 588 -966 600 -856 
Q 613 -747 613 -566 
L 613 2116 
Q 613 2341 606 2436 
Q 600 2531 581 2593 
Q 563 2656 527 2697 
Q 491 2738 430 2766 
Q 369 2794 228 2822 
L 228 2988 
L 963 3016 
L 1153 3016 
L 1113 2506 
L 1159 2494 
Q 1353 2691 1465 2780 
Q 1578 2869 1698 2928 
Q 1819 2988 1930 3013 
Q 2041 3038 2166 3038 
Q 2681 3038 2957 2652 
Q 3234 2266 3234 1522 
Q 3234 1006 3078 654 
Q 2922 303 2623 126 
Q 2325 -50 1913 -50 
Q 1681 -50 1493 -11 
Q 1306 28 1150 94 
z
M 1150 1125 
Q 1150 825 1187 662 
Q 1225 500 1320 398 
Q 1416 297 1545 247 
Q 1675 197 1888 197 
Q 2266 197 2456 511 
Q 2647 825 2647 1438 
Q 2647 2663 1931 2663 
Q 1756 2663 1629 2608 
Q 1503 2553 1378 2431 
Q 1253 2309 1201 2195 
Q 1150 2081 1150 1950 
L 1150 1125 
z
" transform="scale(0.015625)"/>
      <path id="Cambria-65" d="M 2800 531 
Q 2600 322 2433 203 
Q 2266 84 2066 17 
Q 1866 -50 1625 -50 
Q 981 -50 653 336 
Q 325 722 325 1475 
Q 325 1941 492 2297 
Q 659 2653 968 2847 
Q 1278 3041 1681 3041 
Q 1997 3041 2219 2941 
Q 2441 2841 2573 2667 
Q 2706 2494 2779 2230 
Q 2853 1966 2863 1541 
L 894 1541 
L 894 1484 
Q 894 1116 976 864 
Q 1059 613 1248 470 
Q 1438 328 1741 328 
Q 1997 328 2201 423 
Q 2406 519 2609 734 
L 2800 531 
z
M 2275 1800 
Q 2256 2138 2190 2352 
Q 2125 2566 1994 2680 
Q 1863 2794 1650 2794 
Q 1328 2794 1136 2536 
Q 944 2278 909 1800 
L 2275 1800 
z
" transform="scale(0.015625)"/>
      <path id="Cambria-63" d="M 2631 2916 
L 2631 2263 
L 2234 2263 
Q 2181 2466 2103 2583 
Q 2025 2700 1922 2747 
Q 1819 2794 1666 2794 
Q 1447 2794 1278 2653 
Q 1109 2513 1011 2225 
Q 913 1938 913 1522 
Q 913 1256 950 1036 
Q 988 816 1078 659 
Q 1169 503 1319 415 
Q 1469 328 1691 328 
Q 1906 328 2092 412 
Q 2278 497 2478 709 
L 2656 503 
Q 2497 328 2375 233 
Q 2253 138 2114 73 
Q 1975 9 1839 -20 
Q 1703 -50 1544 -50 
Q 953 -50 640 342 
Q 328 734 328 1475 
Q 328 1938 503 2295 
Q 678 2653 993 2847 
Q 1309 3041 1722 3041 
Q 1978 3041 2195 3011 
Q 2413 2981 2631 2916 
z
" transform="scale(0.015625)"/>
      <path id="Cambria-69" d="M 1197 4213 
L 1197 3606 
L 622 3606 
L 622 4213 
L 1197 4213 
z
M 303 153 
Q 425 191 476 219 
Q 528 247 564 297 
Q 600 347 620 450 
Q 641 553 641 772 
L 641 2134 
Q 641 2334 634 2456 
Q 628 2578 590 2651 
Q 553 2725 476 2761 
Q 400 2797 259 2822 
L 259 2988 
L 988 3016 
L 1178 3016 
L 1178 781 
Q 1178 513 1203 408 
Q 1228 303 1298 248 
Q 1369 194 1528 153 
L 1528 0 
L 303 0 
L 303 153 
z
" transform="scale(0.015625)"/>
      <path id="Cambria-6d" d="M 1147 2506 
L 1191 2494 
Q 1378 2681 1498 2776 
Q 1619 2872 1731 2930 
Q 1844 2988 1942 3013 
Q 2041 3038 2144 3038 
Q 2456 3038 2653 2894 
Q 2850 2750 2925 2453 
Q 3159 2691 3304 2803 
Q 3450 2916 3601 2977 
Q 3753 3038 3928 3038 
Q 4138 3038 4289 2977 
Q 4441 2916 4545 2789 
Q 4650 2663 4698 2472 
Q 4747 2281 4747 1959 
L 4747 781 
Q 4747 544 4762 453 
Q 4778 363 4808 313 
Q 4838 263 4897 227 
Q 4956 191 5097 153 
L 5097 0 
L 3869 0 
L 3869 153 
Q 3991 191 4044 219 
Q 4097 247 4133 297 
Q 4169 347 4189 451 
Q 4209 556 4209 769 
L 4209 1588 
Q 4209 1853 4195 2026 
Q 4181 2200 4151 2303 
Q 4122 2406 4080 2465 
Q 4038 2525 3984 2569 
Q 3931 2613 3859 2638 
Q 3788 2663 3669 2663 
Q 3544 2663 3436 2613 
Q 3328 2563 3201 2444 
Q 3075 2325 3019 2204 
Q 2963 2084 2963 1922 
L 2963 781 
Q 2963 544 2978 453 
Q 2994 363 3023 313 
Q 3053 263 3112 227 
Q 3172 191 3313 153 
L 3313 0 
L 2084 0 
L 2084 153 
Q 2206 191 2259 219 
Q 2313 247 2348 297 
Q 2384 347 2404 451 
Q 2425 556 2425 769 
L 2425 1588 
Q 2425 1866 2409 2041 
Q 2394 2216 2361 2322 
Q 2328 2428 2276 2493 
Q 2225 2559 2172 2593 
Q 2119 2628 2047 2645 
Q 1975 2663 1884 2663 
Q 1756 2663 1643 2605 
Q 1531 2547 1414 2437 
Q 1297 2328 1237 2209 
Q 1178 2091 1178 1953 
L 1178 781 
Q 1178 603 1187 509 
Q 1197 416 1217 362 
Q 1238 309 1269 276 
Q 1300 244 1358 214 
Q 1416 184 1531 153 
L 1531 0 
L 306 0 
L 306 153 
Q 425 191 476 219 
Q 528 247 565 297 
Q 603 347 622 450 
Q 641 553 641 772 
L 641 2134 
Q 641 2334 634 2456 
Q 628 2578 590 2651 
Q 553 2725 476 2761 
Q 400 2797 259 2822 
L 259 2988 
L 991 3016 
L 1181 3016 
L 1147 2506 
z
" transform="scale(0.015625)"/>
      <path id="Cambria-6e" d="M 3347 0 
L 2116 0 
L 2116 153 
Q 2238 191 2291 219 
Q 2344 247 2380 297 
Q 2416 347 2436 451 
Q 2456 556 2456 769 
L 2456 1588 
Q 2456 1806 2443 1984 
Q 2431 2163 2401 2277 
Q 2372 2391 2330 2455 
Q 2288 2519 2230 2564 
Q 2172 2609 2097 2636 
Q 2022 2663 1900 2663 
Q 1778 2663 1668 2614 
Q 1559 2566 1428 2447 
Q 1297 2328 1237 2212 
Q 1178 2097 1178 1947 
L 1178 781 
Q 1178 513 1203 408 
Q 1228 303 1298 248 
Q 1369 194 1528 153 
L 1528 0 
L 303 0 
L 303 153 
Q 425 191 476 219 
Q 528 247 564 297 
Q 600 347 620 450 
Q 641 553 641 772 
L 641 2134 
Q 641 2334 634 2456 
Q 628 2578 590 2651 
Q 553 2725 476 2761 
Q 400 2797 259 2822 
L 259 2988 
L 991 3016 
L 1181 3016 
L 1147 2506 
L 1191 2494 
Q 1422 2728 1564 2828 
Q 1706 2928 1851 2983 
Q 1997 3038 2159 3038 
Q 2328 3038 2461 2998 
Q 2594 2959 2695 2878 
Q 2797 2797 2862 2676 
Q 2928 2556 2961 2387 
Q 2994 2219 2994 1959 
L 2994 781 
Q 2994 566 3006 469 
Q 3019 372 3050 319 
Q 3081 266 3140 230 
Q 3200 194 3347 153 
L 3347 0 
z
" transform="scale(0.015625)"/>
      <path id="Cambria-20" transform="scale(0.015625)"/>
      <path id="Cambria-2461" d="M 313 2131 
Q 313 2619 439 3070 
Q 566 3522 794 3914 
Q 1022 4306 1345 4628 
Q 1669 4950 2059 5179 
Q 2450 5409 2901 5536 
Q 3353 5663 3841 5663 
Q 4328 5663 4779 5536 
Q 5231 5409 5623 5179 
Q 6016 4950 6337 4628 
Q 6659 4306 6889 3914 
Q 7119 3522 7245 3070 
Q 7372 2619 7372 2131 
Q 7372 1644 7245 1192 
Q 7119 741 6889 350 
Q 6659 -41 6337 -364 
Q 6016 -688 5623 -916 
Q 5231 -1144 4779 -1270 
Q 4328 -1397 3841 -1397 
Q 3353 -1397 2901 -1270 
Q 2450 -1144 2059 -916 
Q 1669 -688 1345 -364 
Q 1022 -41 794 350 
Q 566 741 439 1192 
Q 313 1644 313 2131 
z
M 594 2131 
Q 594 1678 709 1259 
Q 825 841 1036 477 
Q 1247 113 1544 -187 
Q 1841 -488 2202 -700 
Q 2563 -913 2977 -1030 
Q 3391 -1147 3841 -1147 
Q 4288 -1147 4703 -1030 
Q 5119 -913 5480 -700 
Q 5841 -488 6137 -187 
Q 6434 113 6646 477 
Q 6859 841 6975 1259 
Q 7091 1678 7091 2131 
Q 7091 2584 6975 3003 
Q 6859 3422 6646 3787 
Q 6434 4153 6137 4451 
Q 5841 4750 5480 4964 
Q 5119 5178 4703 5295 
Q 4288 5413 3841 5413 
Q 3391 5413 2977 5295 
Q 2563 5178 2202 4964 
Q 1841 4750 1544 4451 
Q 1247 4153 1036 3787 
Q 825 3422 709 3003 
Q 594 2584 594 2131 
z
M 4178 816 
Q 4303 816 4383 827 
Q 4463 838 4506 872 
Q 4528 888 4543 911 
Q 4559 934 4575 967 
Q 4591 1000 4606 1047 
Q 4622 1094 4644 1159 
L 4928 1159 
L 4881 356 
L 2609 356 
L 2609 503 
Q 2669 647 2744 784 
Q 2819 922 2920 1070 
Q 3022 1219 3159 1386 
Q 3297 1553 3484 1756 
Q 3744 2038 3901 2236 
Q 4059 2434 4145 2582 
Q 4231 2731 4259 2847 
Q 4288 2963 4288 3084 
Q 4288 3228 4253 3347 
Q 4219 3466 4148 3553 
Q 4078 3641 3972 3689 
Q 3866 3738 3722 3738 
Q 3244 3738 3072 3191 
L 2691 3191 
L 2691 3722 
Q 3028 3878 3317 3947 
Q 3606 4016 3838 4016 
Q 4356 4016 4618 3798 
Q 4881 3581 4881 3163 
Q 4881 3025 4854 2906 
Q 4828 2788 4767 2670 
Q 4706 2553 4607 2428 
Q 4509 2303 4366 2150 
L 3941 1703 
Q 3697 1450 3514 1231 
Q 3331 1013 3213 816 
L 4178 816 
z
" transform="scale(0.015625)"/>
     </defs>
     <use xlink:href="#Cambria-53"/>
     <use xlink:href="#Cambria-70" x="49.609375"/>
     <use xlink:href="#Cambria-65" x="105.224609"/>
     <use xlink:href="#Cambria-63" x="154.003906"/>
     <use xlink:href="#Cambria-69" x="198.095703"/>
     <use xlink:href="#Cambria-6d" x="225.878906"/>
     <use xlink:href="#Cambria-65" x="309.082031"/>
     <use xlink:href="#Cambria-6e" x="357.861328"/>
     <use xlink:href="#Cambria-20" x="413.671875"/>
     <use xlink:href="#Cambria-2461" x="435.693359"/>
    </g>
   </g>
   <g id="legend_1">
    <g id="patch_7">
     <path d="M 62.680625 59.905937 
L 168.959375 59.905937 
Q 170.759375 59.905937 170.759375 58.105937 
L 170.759375 31.887812 
Q 170.759375 30.087812 168.959375 30.087812 
L 62.680625 30.087812 
Q 60.880625 30.087812 60.880625 31.887812 
L 60.880625 58.105937 
Q 60.880625 59.905937 62.680625 59.905937 
z
" style="fill: #ffffff; opacity: 0.8; stroke: #cccccc; stroke-linejoin: miter"/>
    </g>
    <g id="line2d_37">
     <path d="M 64.480625 36.837812 
L 73.480625 36.837812 
L 82.480625 36.837812 
" style="fill: none; stroke: #ff0000; stroke-linecap: square"/>
    </g>
    <g id="text_20">
     <!-- LSTM-AE prediction -->
     <g transform="translate(89.680625 39.987812) scale(0.09 -0.09)">
      <defs>
       <path id="Cambria-4c" d="M 1328 288 
L 2147 288 
Q 2281 288 2372 303 
Q 2463 319 2527 351 
Q 2591 384 2642 442 
Q 2694 500 2741 594 
Q 2788 688 2830 830 
Q 2872 972 2934 1256 
L 3250 1256 
L 3188 0 
L 378 0 
L 378 153 
Q 572 203 637 264 
Q 703 325 723 437 
Q 744 550 744 781 
L 744 3484 
Q 744 3700 728 3798 
Q 713 3897 677 3951 
Q 641 4006 581 4039 
Q 522 4072 378 4113 
L 378 4266 
L 1694 4266 
L 1694 4113 
Q 1556 4075 1498 4045 
Q 1441 4016 1403 3966 
Q 1366 3916 1347 3812 
Q 1328 3709 1328 3484 
L 1328 288 
z
" transform="scale(0.015625)"/>
       <path id="Cambria-54" d="M 206 4266 
L 3588 4266 
L 3588 3178 
L 3281 3178 
Q 3213 3447 3145 3603 
Q 3078 3759 3003 3840 
Q 2928 3922 2842 3956 
Q 2756 3991 2584 3991 
L 2188 3991 
L 2188 791 
Q 2188 606 2208 497 
Q 2228 388 2270 323 
Q 2313 259 2384 223 
Q 2456 188 2609 153 
L 2609 0 
L 1181 0 
L 1181 153 
Q 1275 175 1347 200 
Q 1419 225 1464 261 
Q 1509 297 1539 353 
Q 1569 409 1586 506 
Q 1603 603 1603 791 
L 1603 3991 
L 1209 3991 
Q 1063 3991 967 3962 
Q 872 3934 790 3845 
Q 709 3756 642 3592 
Q 575 3428 516 3178 
L 206 3178 
L 206 4266 
z
" transform="scale(0.015625)"/>
       <path id="Cambria-4d" d="M 4841 4113 
Q 4703 4078 4642 4043 
Q 4581 4009 4545 3957 
Q 4509 3906 4492 3803 
Q 4475 3700 4475 3484 
L 4475 781 
Q 4475 572 4489 475 
Q 4503 378 4536 322 
Q 4569 266 4633 228 
Q 4697 191 4841 153 
L 4841 0 
L 3538 0 
L 3538 153 
Q 3716 197 3784 253 
Q 3853 309 3878 418 
Q 3903 528 3903 781 
L 3903 1978 
Q 3903 2450 3917 2933 
Q 3931 3416 3950 3594 
L 3897 3594 
L 2659 497 
L 2300 497 
L 1150 3644 
L 1097 3644 
Q 1113 3453 1127 2953 
Q 1141 2453 1141 1925 
L 1141 781 
Q 1141 572 1155 475 
Q 1169 378 1201 322 
Q 1234 266 1298 228 
Q 1363 191 1506 153 
L 1506 0 
L 366 0 
L 366 153 
Q 559 203 625 264 
Q 691 325 711 437 
Q 731 550 731 781 
L 731 3484 
Q 731 3700 715 3798 
Q 700 3897 664 3951 
Q 628 4006 568 4039 
Q 509 4072 366 4113 
L 366 4266 
L 1481 4266 
L 2578 1225 
L 3784 4266 
L 4841 4266 
L 4841 4113 
z
" transform="scale(0.015625)"/>
       <path id="Cambria-2d" d="M 1788 1403 
L 338 1403 
L 338 1888 
L 1788 1888 
L 1788 1403 
z
" transform="scale(0.015625)"/>
       <path id="Cambria-41" d="M 2488 0 
L 2488 153 
Q 2644 184 2720 221 
Q 2797 259 2834 326 
Q 2872 394 2872 506 
Q 2872 613 2847 736 
Q 2822 859 2775 1013 
L 2659 1416 
L 1203 1416 
L 1097 1109 
Q 1016 878 991 759 
Q 966 641 966 544 
Q 966 356 1061 268 
Q 1156 181 1353 153 
L 1353 0 
L 19 0 
L 19 153 
Q 194 181 323 356 
Q 453 531 575 856 
L 1878 4316 
L 2372 4316 
L 3434 831 
Q 3509 588 3567 459 
Q 3625 331 3706 259 
Q 3788 188 3928 153 
L 3928 0 
L 2488 0 
z
M 1288 1688 
L 2594 1688 
L 2000 3703 
L 1288 1688 
z
" transform="scale(0.015625)"/>
       <path id="Cambria-45" d="M 3300 4266 
L 3300 3322 
L 2994 3322 
Q 2947 3475 2897 3590 
Q 2847 3706 2794 3784 
Q 2741 3863 2677 3909 
Q 2613 3956 2525 3973 
Q 2438 3991 2316 3991 
L 1328 3991 
L 1328 2353 
L 1997 2353 
Q 2134 2353 2212 2392 
Q 2291 2431 2342 2525 
Q 2394 2619 2441 2819 
L 2734 2819 
L 2734 1619 
L 2441 1619 
Q 2397 1806 2344 1901 
Q 2291 1997 2217 2037 
Q 2144 2078 1997 2078 
L 1328 2078 
L 1328 275 
L 2300 275 
Q 2453 275 2548 301 
Q 2644 328 2712 392 
Q 2781 456 2834 559 
Q 2888 663 2923 773 
Q 2959 884 3022 1097 
L 3331 1097 
L 3272 0 
L 378 0 
L 378 153 
Q 572 203 637 264 
Q 703 325 723 437 
Q 744 550 744 781 
L 744 3484 
Q 744 3700 728 3798 
Q 713 3897 677 3951 
Q 641 4006 581 4039 
Q 522 4072 378 4113 
L 378 4266 
L 3300 4266 
z
" transform="scale(0.015625)"/>
       <path id="Cambria-72" d="M 1147 2469 
L 1191 2459 
Q 1363 2669 1509 2789 
Q 1656 2909 1826 2975 
Q 1997 3041 2213 3041 
Q 2394 3041 2541 3022 
L 2541 2303 
L 2188 2303 
Q 2113 2472 2028 2548 
Q 1944 2625 1797 2625 
Q 1684 2625 1573 2559 
Q 1463 2494 1359 2369 
Q 1256 2244 1217 2134 
Q 1178 2025 1178 1875 
L 1178 781 
Q 1178 497 1212 389 
Q 1247 281 1326 231 
Q 1406 181 1566 153 
L 1566 0 
L 306 0 
L 306 153 
Q 425 191 476 219 
Q 528 247 565 297 
Q 603 347 622 450 
Q 641 553 641 772 
L 641 2134 
Q 641 2334 634 2456 
Q 628 2578 590 2651 
Q 553 2725 476 2761 
Q 400 2797 259 2822 
L 259 2984 
L 991 3016 
L 1181 3016 
L 1147 2469 
z
" transform="scale(0.015625)"/>
       <path id="Cambria-64" d="M 2413 3397 
Q 2413 3697 2408 3815 
Q 2403 3934 2383 4017 
Q 2363 4100 2327 4147 
Q 2291 4194 2230 4222 
Q 2169 4250 2009 4278 
L 2009 4441 
L 2766 4472 
L 2950 4472 
L 2950 853 
Q 2950 609 2959 504 
Q 2969 400 3000 337 
Q 3031 275 3098 236 
Q 3166 197 3334 163 
L 3334 0 
L 2597 -31 
L 2409 -31 
L 2447 481 
L 2400 494 
Q 2203 284 2058 179 
Q 1913 75 1748 12 
Q 1584 -50 1397 -50 
Q 884 -50 606 339 
Q 328 728 328 1463 
Q 328 1975 509 2333 
Q 691 2691 998 2866 
Q 1306 3041 1691 3041 
Q 1897 3041 2065 3008 
Q 2234 2975 2413 2900 
L 2413 3397 
z
M 2413 1853 
Q 2413 2097 2391 2244 
Q 2369 2391 2317 2491 
Q 2266 2591 2178 2659 
Q 2091 2728 1986 2759 
Q 1881 2791 1734 2791 
Q 1334 2791 1125 2470 
Q 916 2150 916 1550 
Q 916 950 1087 637 
Q 1259 325 1609 325 
Q 1747 325 1837 348 
Q 1928 372 2015 423 
Q 2103 475 2193 565 
Q 2284 656 2326 731 
Q 2369 806 2391 903 
Q 2413 1000 2413 1153 
L 2413 1853 
z
" transform="scale(0.015625)"/>
       <path id="Cambria-74" d="M 116 2831 
Q 272 2856 369 2918 
Q 466 2981 520 3079 
Q 575 3178 606 3326 
Q 638 3475 672 3759 
L 1116 3759 
L 1116 2988 
L 2125 2988 
L 2125 2672 
L 1116 2672 
L 1116 1281 
Q 1116 978 1141 798 
Q 1166 619 1234 517 
Q 1303 416 1390 372 
Q 1478 328 1616 328 
Q 1741 328 1850 379 
Q 1959 431 2066 528 
L 2206 359 
Q 1984 144 1786 47 
Q 1588 -50 1375 -50 
Q 972 -50 775 189 
Q 578 428 578 938 
L 578 2672 
L 116 2672 
L 116 2831 
z
" transform="scale(0.015625)"/>
       <path id="Cambria-6f" d="M 1663 -50 
Q 1013 -50 670 333 
Q 328 716 328 1466 
Q 328 1981 508 2337 
Q 688 2694 1000 2867 
Q 1313 3041 1713 3041 
Q 2381 3041 2725 2652 
Q 3069 2263 3069 1534 
Q 3069 1016 2897 659 
Q 2725 303 2409 126 
Q 2094 -50 1663 -50 
z
M 919 1531 
Q 919 888 1123 542 
Q 1328 197 1709 197 
Q 1919 197 2066 298 
Q 2213 400 2305 572 
Q 2397 744 2437 970 
Q 2478 1197 2478 1444 
Q 2478 1903 2376 2206 
Q 2275 2509 2100 2651 
Q 1925 2794 1700 2794 
Q 1322 2794 1120 2466 
Q 919 2138 919 1531 
z
" transform="scale(0.015625)"/>
      </defs>
      <use xlink:href="#Cambria-4c"/>
      <use xlink:href="#Cambria-53" x="53.037109"/>
      <use xlink:href="#Cambria-54" x="101.396484"/>
      <use xlink:href="#Cambria-4d" x="160.673828"/>
      <use xlink:href="#Cambria-2d" x="242.216797"/>
      <use xlink:href="#Cambria-41" x="275.419922"/>
      <use xlink:href="#Cambria-45" x="337.724609"/>
      <use xlink:href="#Cambria-20" x="395.244141"/>
      <use xlink:href="#Cambria-70" x="417.265625"/>
      <use xlink:href="#Cambria-72" x="472.880859"/>
      <use xlink:href="#Cambria-65" x="514.238281"/>
      <use xlink:href="#Cambria-64" x="563.017578"/>
      <use xlink:href="#Cambria-69" x="618.486328"/>
      <use xlink:href="#Cambria-63" x="646.269531"/>
      <use xlink:href="#Cambria-74" x="690.361328"/>
      <use xlink:href="#Cambria-69" x="724.199219"/>
      <use xlink:href="#Cambria-6f" x="751.982422"/>
      <use xlink:href="#Cambria-6e" x="805.058594"/>
     </g>
    </g>
    <g id="line2d_38">
     <path d="M 64.480625 51.191406 
L 73.480625 51.191406 
L 82.480625 51.191406 
" style="fill: none; stroke-dasharray: 2.96,1.28; stroke-dashoffset: 0; stroke: #000000; stroke-width: 0.8"/>
    </g>
    <g id="text_21">
     <!-- Reference ② -->
     <g transform="translate(89.680625 54.341406) scale(0.09 -0.09)">
      <defs>
       <path id="Cambria-52" d="M 1331 1853 
L 1331 791 
Q 1331 566 1348 464 
Q 1366 363 1400 311 
Q 1434 259 1493 226 
Q 1553 194 1697 153 
L 1697 0 
L 378 0 
L 378 153 
Q 572 203 637 264 
Q 703 325 723 437 
Q 744 550 744 781 
L 744 3484 
Q 744 3700 728 3798 
Q 713 3897 677 3951 
Q 641 4006 581 4039 
Q 522 4072 378 4113 
L 378 4266 
L 1925 4266 
Q 2656 4266 3018 4000 
Q 3381 3734 3381 3175 
Q 3381 2747 3145 2447 
Q 2909 2147 2438 1978 
L 2438 1953 
Q 2628 1875 2764 1729 
Q 2900 1584 3066 1278 
L 3347 766 
Q 3469 541 3556 422 
Q 3644 303 3734 240 
Q 3825 178 3975 153 
L 3975 0 
L 3109 0 
Q 2991 166 2884 356 
Q 2778 547 2675 744 
L 2400 1266 
Q 2275 1503 2195 1615 
Q 2116 1728 2048 1773 
Q 1981 1819 1904 1836 
Q 1828 1853 1675 1853 
L 1331 1853 
z
M 1331 3978 
L 1331 2122 
L 1684 2122 
Q 1956 2122 2125 2161 
Q 2294 2200 2437 2309 
Q 2581 2419 2667 2614 
Q 2753 2809 2753 3094 
Q 2753 3391 2651 3587 
Q 2550 3784 2344 3887 
Q 2138 3991 1788 3991 
Q 1506 3991 1331 3978 
z
" transform="scale(0.015625)"/>
       <path id="Cambria-66" d="M 1909 2672 
L 1163 2672 
L 1163 781 
Q 1163 572 1183 465 
Q 1203 359 1242 304 
Q 1281 250 1345 217 
Q 1409 184 1550 153 
L 1550 0 
L 272 0 
L 272 153 
Q 409 191 468 225 
Q 528 259 561 312 
Q 594 366 609 466 
Q 625 566 625 781 
L 625 2672 
L 247 2672 
L 247 2831 
Q 366 2850 405 2861 
Q 444 2872 480 2894 
Q 516 2916 542 2956 
Q 569 2997 589 3076 
Q 609 3156 622 3300 
Q 650 3641 745 3853 
Q 841 4066 1023 4216 
Q 1206 4366 1414 4427 
Q 1622 4488 1903 4488 
Q 2150 4488 2322 4453 
L 2322 3888 
L 2013 3888 
Q 1953 4072 1873 4148 
Q 1794 4225 1650 4225 
Q 1547 4225 1476 4197 
Q 1406 4169 1347 4109 
Q 1288 4050 1245 3950 
Q 1203 3850 1183 3701 
Q 1163 3553 1163 3316 
L 1163 2988 
L 1909 2988 
L 1909 2672 
z
" transform="scale(0.015625)"/>
      </defs>
      <use xlink:href="#Cambria-52"/>
      <use xlink:href="#Cambria-65" x="60.359375"/>
      <use xlink:href="#Cambria-66" x="109.138672"/>
      <use xlink:href="#Cambria-65" x="139.412109"/>
      <use xlink:href="#Cambria-72" x="188.191406"/>
      <use xlink:href="#Cambria-65" x="229.548828"/>
      <use xlink:href="#Cambria-6e" x="278.328125"/>
      <use xlink:href="#Cambria-63" x="334.138672"/>
      <use xlink:href="#Cambria-65" x="378.230469"/>
      <use xlink:href="#Cambria-20" x="427.009766"/>
      <use xlink:href="#Cambria-2461" x="449.03125"/>
     </g>
    </g>
   </g>
  </g>
 </g>
 <defs>
  <clipPath id="p927ba35c35">
   <rect x="56.380625" y="25.587812" width="245.38" height="196.12"/>
  </clipPath>
 </defs>
</svg>
