<?xml version="1.0" encoding="utf-8" standalone="no"?>
<!DOCTYPE svg PUBLIC "-//W3C//DTD SVG 1.1//EN"
  "http://www.w3.org/Graphics/SVG/1.1/DTD/svg11.dtd">
<svg xmlns:xlink="http://www.w3.org/1999/xlink" width="309.023046pt" height="261.768437pt" viewBox="0 0 309.023046 261.768437" xmlns="http://www.w3.org/2000/svg" version="1.1">
 <metadata>
  <rdf:RDF xmlns:dc="http://purl.org/dc/elements/1.1/" xmlns:cc="http://creativecommons.org/ns#" xmlns:rdf="http://www.w3.org/1999/02/22-rdf-syntax-ns#">
   <cc:Work>
    <dc:type rdf:resource="http://purl.org/dc/dcmitype/StillImage"/>
    <dc:date>2024-01-11T19:21:57.448781</dc:date>
    <dc:format>image/svg+xml</dc:format>
    <dc:creator>
     <cc:Agent>
      <dc:title>Matplotlib v3.7.1, https://matplotlib.org/</dc:title>
     </cc:Agent>
    </dc:creator>
   </cc:Work>
  </rdf:RDF>
 </metadata>
 <defs>
  <style type="text/css">*{stroke-linejoin: round; stroke-linecap: butt}</style>
 </defs>
 <g id="figure_1">
  <g id="patch_1">
   <path d="M 0 261.768437 
L 309.023046 261.768437 
L 309.023046 0 
L 0 0 
z
" style="fill: #ffffff"/>
  </g>
  <g id="axes_1">
   <g id="patch_2">
    <path d="M 56.380625 221.707812 
L 297.72102 221.707812 
L 297.72102 25.587812 
L 56.380625 25.587812 
z
" style="fill: #ffffff"/>
   </g>
   <g id="matplotlib.axis_1">
    <g id="xtick_1">
     <g id="line2d_1">
      <path d="M 58.855025 221.707812 
L 58.855025 25.587812 
" clip-path="url(#pd29375ec11)" style="fill: none; stroke-dasharray: 0.8,1.32; stroke-dashoffset: 0; stroke: #b0b0b0; stroke-width: 0.8"/>
     </g>
     <g id="line2d_2">
      <defs>
       <path id="m6de040caa8" d="M 0 0 
L 0 3.5 
" style="stroke: #000000; stroke-width: 0.8"/>
      </defs>
      <g>
       <use xlink:href="#m6de040caa8" x="58.855025" y="221.707812" style="stroke: #000000; stroke-width: 0.8"/>
      </g>
     </g>
     <g id="text_1">
      <!-- −30 -->
      <g transform="translate(48.887525 237.092812) scale(0.12 -0.12)">
       <defs>
        <path id="Cambria-2212" d="M 397 1613 
L 397 2047 
L 3147 2047 
L 3147 1613 
L 397 1613 
z
" transform="scale(0.015625)"/>
        <path id="Cambria-33" d="M 497 3381 
L 497 3975 
Q 859 4147 1175 4231 
Q 1491 4316 1784 4316 
Q 2138 4316 2403 4206 
Q 2669 4097 2809 3892 
Q 2950 3688 2950 3403 
Q 2950 3138 2844 2936 
Q 2738 2734 2545 2584 
Q 2353 2434 2047 2291 
L 2047 2263 
Q 2238 2228 2414 2145 
Q 2591 2063 2728 1931 
Q 2866 1800 2948 1617 
Q 3031 1434 3031 1200 
Q 3031 838 2873 556 
Q 2716 275 2391 112 
Q 2066 -50 1600 -50 
Q 1331 -50 1020 11 
Q 709 72 450 172 
L 450 834 
L 825 834 
Q 934 509 1114 362 
Q 1294 216 1603 216 
Q 2009 216 2217 437 
Q 2425 659 2425 1094 
Q 2425 1550 2150 1790 
Q 1875 2031 1344 2031 
L 1063 2031 
L 1063 2306 
Q 1484 2331 1773 2468 
Q 2063 2606 2203 2822 
Q 2344 3038 2344 3306 
Q 2344 3653 2159 3840 
Q 1975 4028 1622 4028 
Q 1328 4028 1143 3868 
Q 959 3709 872 3381 
L 497 3381 
z
" transform="scale(0.015625)"/>
        <path id="Cambria-30" d="M 1738 -50 
Q 1063 -50 733 481 
Q 403 1013 403 2094 
Q 403 2669 504 3087 
Q 606 3506 789 3779 
Q 972 4053 1228 4184 
Q 1484 4316 1788 4316 
Q 2472 4316 2806 3787 
Q 3141 3259 3141 2191 
Q 3141 1084 2783 517 
Q 2425 -50 1738 -50 
z
M 1013 2188 
Q 1013 1169 1202 692 
Q 1391 216 1788 216 
Q 2166 216 2348 664 
Q 2531 1113 2531 2053 
Q 2531 2772 2437 3217 
Q 2344 3663 2176 3856 
Q 2009 4050 1772 4050 
Q 1556 4050 1411 3922 
Q 1266 3794 1177 3553 
Q 1088 3313 1050 2967 
Q 1013 2622 1013 2188 
z
" transform="scale(0.015625)"/>
       </defs>
       <use xlink:href="#Cambria-2212"/>
       <use xlink:href="#Cambria-33" x="55.371094"/>
       <use xlink:href="#Cambria-30" x="110.742188"/>
      </g>
     </g>
    </g>
    <g id="xtick_2">
     <g id="line2d_3">
      <path d="M 98.242195 221.707812 
L 98.242195 25.587812 
" clip-path="url(#pd29375ec11)" style="fill: none; stroke-dasharray: 0.8,1.32; stroke-dashoffset: 0; stroke: #b0b0b0; stroke-width: 0.8"/>
     </g>
     <g id="line2d_4">
      <g>
       <use xlink:href="#m6de040caa8" x="98.242195" y="221.707812" style="stroke: #000000; stroke-width: 0.8"/>
      </g>
     </g>
     <g id="text_2">
      <!-- −20 -->
      <g transform="translate(88.274695 237.092812) scale(0.12 -0.12)">
       <defs>
        <path id="Cambria-32" d="M 2194 500 
Q 2347 500 2440 519 
Q 2534 538 2590 581 
Q 2647 625 2680 695 
Q 2713 766 2763 913 
L 3028 913 
L 2975 0 
L 403 0 
L 403 150 
Q 538 478 766 822 
Q 994 1166 1413 1631 
Q 1775 2031 1934 2238 
Q 2109 2463 2195 2627 
Q 2281 2791 2318 2936 
Q 2356 3081 2356 3228 
Q 2356 3463 2281 3642 
Q 2206 3822 2051 3925 
Q 1897 4028 1663 4028 
Q 1078 4028 875 3378 
L 497 3378 
L 497 3978 
Q 875 4156 1204 4236 
Q 1534 4316 1797 4316 
Q 2378 4316 2675 4061 
Q 2972 3806 2972 3322 
Q 2972 3156 2939 3017 
Q 2906 2878 2836 2742 
Q 2766 2606 2647 2450 
Q 2528 2294 2384 2133 
Q 2241 1972 1888 1597 
Q 1294 969 1016 500 
L 2194 500 
z
" transform="scale(0.015625)"/>
       </defs>
       <use xlink:href="#Cambria-2212"/>
       <use xlink:href="#Cambria-32" x="55.371094"/>
       <use xlink:href="#Cambria-30" x="110.742188"/>
      </g>
     </g>
    </g>
    <g id="xtick_3">
     <g id="line2d_5">
      <path d="M 137.629365 221.707812 
L 137.629365 25.587812 
" clip-path="url(#pd29375ec11)" style="fill: none; stroke-dasharray: 0.8,1.32; stroke-dashoffset: 0; stroke: #b0b0b0; stroke-width: 0.8"/>
     </g>
     <g id="line2d_6">
      <g>
       <use xlink:href="#m6de040caa8" x="137.629365" y="221.707812" style="stroke: #000000; stroke-width: 0.8"/>
      </g>
     </g>
     <g id="text_3">
      <!-- −10 -->
      <g transform="translate(127.661865 237.092812) scale(0.12 -0.12)">
       <defs>
        <path id="Cambria-31" d="M 2172 816 
Q 2172 634 2192 542 
Q 2213 450 2264 392 
Q 2316 334 2412 301 
Q 2509 269 2656 251 
Q 2803 234 3044 228 
L 3044 0 
L 734 0 
L 734 228 
Q 1081 244 1229 270 
Q 1378 297 1456 350 
Q 1534 403 1570 500 
Q 1606 597 1606 816 
L 1606 3350 
Q 1606 3475 1562 3533 
Q 1519 3591 1434 3591 
Q 1334 3591 1150 3487 
Q 966 3384 694 3203 
L 556 3444 
L 2019 4316 
L 2191 4316 
Q 2172 4016 2172 3484 
L 2172 816 
z
" transform="scale(0.015625)"/>
       </defs>
       <use xlink:href="#Cambria-2212"/>
       <use xlink:href="#Cambria-31" x="55.371094"/>
       <use xlink:href="#Cambria-30" x="110.742188"/>
      </g>
     </g>
    </g>
    <g id="xtick_4">
     <g id="line2d_7">
      <path d="M 177.016535 221.707812 
L 177.016535 25.587812 
" clip-path="url(#pd29375ec11)" style="fill: none; stroke-dasharray: 0.8,1.32; stroke-dashoffset: 0; stroke: #b0b0b0; stroke-width: 0.8"/>
     </g>
     <g id="line2d_8">
      <g>
       <use xlink:href="#m6de040caa8" x="177.016535" y="221.707812" style="stroke: #000000; stroke-width: 0.8"/>
      </g>
     </g>
     <g id="text_4">
      <!-- 0 -->
      <g transform="translate(173.694035 237.092812) scale(0.12 -0.12)">
       <use xlink:href="#Cambria-30"/>
      </g>
     </g>
    </g>
    <g id="xtick_5">
     <g id="line2d_9">
      <path d="M 216.403705 221.707812 
L 216.403705 25.587812 
" clip-path="url(#pd29375ec11)" style="fill: none; stroke-dasharray: 0.8,1.32; stroke-dashoffset: 0; stroke: #b0b0b0; stroke-width: 0.8"/>
     </g>
     <g id="line2d_10">
      <g>
       <use xlink:href="#m6de040caa8" x="216.403705" y="221.707812" style="stroke: #000000; stroke-width: 0.8"/>
      </g>
     </g>
     <g id="text_5">
      <!-- 10 -->
      <g transform="translate(209.758705 237.092812) scale(0.12 -0.12)">
       <use xlink:href="#Cambria-31"/>
       <use xlink:href="#Cambria-30" x="55.371094"/>
      </g>
     </g>
    </g>
    <g id="xtick_6">
     <g id="line2d_11">
      <path d="M 255.790876 221.707812 
L 255.790876 25.587812 
" clip-path="url(#pd29375ec11)" style="fill: none; stroke-dasharray: 0.8,1.32; stroke-dashoffset: 0; stroke: #b0b0b0; stroke-width: 0.8"/>
     </g>
     <g id="line2d_12">
      <g>
       <use xlink:href="#m6de040caa8" x="255.790876" y="221.707812" style="stroke: #000000; stroke-width: 0.8"/>
      </g>
     </g>
     <g id="text_6">
      <!-- 20 -->
      <g transform="translate(249.145876 237.092812) scale(0.12 -0.12)">
       <use xlink:href="#Cambria-32"/>
       <use xlink:href="#Cambria-30" x="55.371094"/>
      </g>
     </g>
    </g>
    <g id="xtick_7">
     <g id="line2d_13">
      <path d="M 295.178046 221.707812 
L 295.178046 25.587812 
" clip-path="url(#pd29375ec11)" style="fill: none; stroke-dasharray: 0.8,1.32; stroke-dashoffset: 0; stroke: #b0b0b0; stroke-width: 0.8"/>
     </g>
     <g id="line2d_14">
      <g>
       <use xlink:href="#m6de040caa8" x="295.178046" y="221.707812" style="stroke: #000000; stroke-width: 0.8"/>
      </g>
     </g>
     <g id="text_7">
      <!-- 30 -->
      <g transform="translate(288.533046 237.092812) scale(0.12 -0.12)">
       <use xlink:href="#Cambria-33"/>
       <use xlink:href="#Cambria-30" x="55.371094"/>
      </g>
     </g>
    </g>
    <g id="text_8">
     <!-- Displacement (mm) -->
     <g transform="translate(127.813322 252.020312) scale(0.12 -0.12)">
      <defs>
       <path id="Cambria-Italic-44" d="M 2134 4266 
Q 2606 4266 2900 4194 
Q 3194 4122 3448 3934 
Q 3703 3747 3831 3436 
Q 3959 3125 3959 2700 
Q 3959 2278 3862 1893 
Q 3766 1509 3584 1186 
Q 3403 863 3150 623 
Q 2897 384 2659 256 
Q 2422 128 2128 64 
Q 1834 0 1444 0 
L 131 0 
L 166 153 
Q 284 172 343 214 
Q 403 256 443 331 
Q 484 406 518 514 
Q 553 622 622 931 
L 1153 3338 
Q 1184 3481 1203 3614 
Q 1222 3747 1222 3841 
Q 1222 3988 1147 4045 
Q 1072 4103 916 4113 
L 950 4266 
L 2134 4266 
z
M 1038 288 
Q 1128 278 1384 278 
Q 1700 278 1958 347 
Q 2216 416 2433 567 
Q 2650 719 2828 972 
Q 3006 1225 3117 1486 
Q 3228 1747 3290 2047 
Q 3353 2347 3353 2681 
Q 3353 3334 3048 3664 
Q 2744 3994 2144 3994 
Q 2006 3994 1847 3984 
L 1038 288 
z
" transform="scale(0.015625)"/>
       <path id="Cambria-Italic-69" d="M 1750 4213 
L 1606 3606 
L 1053 3606 
L 1197 4213 
L 1750 4213 
z
M 978 781 
Q 944 622 934 548 
Q 925 475 925 425 
Q 925 331 956 278 
Q 988 225 1053 197 
Q 1119 169 1269 153 
L 1241 0 
L 272 0 
L 744 2106 
Q 784 2288 800 2395 
Q 816 2503 816 2575 
Q 816 2666 789 2716 
Q 763 2766 700 2791 
Q 638 2816 484 2822 
L 519 2988 
L 1281 3016 
L 1466 3016 
L 978 781 
z
" transform="scale(0.015625)"/>
       <path id="Cambria-Italic-73" d="M 2063 2259 
Q 2028 2541 1901 2667 
Q 1775 2794 1509 2794 
Q 1363 2794 1244 2739 
Q 1125 2684 1056 2579 
Q 988 2475 988 2334 
Q 988 2219 1034 2123 
Q 1081 2028 1192 1925 
Q 1303 1822 1503 1688 
Q 1806 1484 1928 1293 
Q 2050 1103 2050 853 
Q 2050 559 1909 354 
Q 1769 150 1525 50 
Q 1281 -50 975 -50 
Q 700 -50 461 -9 
Q 222 31 -3 94 
L 144 769 
L 388 769 
Q 409 481 551 339 
Q 694 197 966 197 
Q 1244 197 1400 336 
Q 1556 475 1556 703 
Q 1556 838 1509 944 
Q 1463 1050 1363 1147 
Q 1263 1244 1078 1369 
Q 881 1503 759 1622 
Q 638 1741 570 1883 
Q 503 2025 503 2197 
Q 503 2456 631 2647 
Q 759 2838 995 2938 
Q 1231 3038 1547 3038 
Q 2063 3038 2456 2903 
L 2313 2259 
L 2063 2259 
z
" transform="scale(0.015625)"/>
       <path id="Cambria-Italic-70" d="M 669 -553 
Q 638 -703 630 -784 
Q 622 -866 622 -919 
Q 622 -1013 653 -1066 
Q 684 -1119 750 -1147 
Q 816 -1175 966 -1191 
L 941 -1344 
L -25 -1344 
L 766 2131 
Q 825 2394 825 2581 
Q 825 2669 798 2717 
Q 772 2766 708 2789 
Q 644 2813 491 2822 
L 528 2988 
L 1238 3016 
L 1416 3016 
L 1206 2203 
L 1244 2191 
Q 1822 3038 2394 3038 
Q 2734 3038 2923 2778 
Q 3113 2519 3113 2047 
Q 3113 1709 3020 1368 
Q 2928 1028 2764 753 
Q 2600 478 2398 301 
Q 2197 125 1973 37 
Q 1750 -50 1503 -50 
Q 1088 -50 813 131 
L 669 -553 
z
M 1044 1088 
Q 1013 922 1005 834 
Q 997 747 997 663 
Q 997 419 1101 308 
Q 1206 197 1463 197 
Q 1622 197 1756 259 
Q 1891 322 2011 440 
Q 2131 559 2228 728 
Q 2325 897 2401 1120 
Q 2478 1344 2517 1580 
Q 2556 1816 2556 2022 
Q 2556 2350 2464 2511 
Q 2372 2672 2172 2672 
Q 2013 2672 1858 2564 
Q 1703 2456 1518 2218 
Q 1334 1981 1231 1750 
Q 1128 1519 1069 1219 
L 1044 1088 
z
" transform="scale(0.015625)"/>
       <path id="Cambria-Italic-6c" d="M 1578 4469 
L 1763 4469 
L 950 781 
Q 916 631 906 554 
Q 897 478 897 425 
Q 897 331 928 278 
Q 959 225 1025 197 
Q 1091 169 1241 153 
L 1216 0 
L 241 0 
L 1047 3588 
Q 1078 3725 1090 3794 
Q 1103 3863 1109 3925 
Q 1116 3988 1116 4034 
Q 1116 4128 1081 4176 
Q 1047 4225 983 4247 
Q 919 4269 753 4278 
L 791 4441 
L 1578 4469 
z
" transform="scale(0.015625)"/>
       <path id="Cambria-Italic-61" d="M 2606 2834 
L 2894 3041 
L 3094 2991 
L 2616 869 
Q 2572 681 2556 579 
Q 2541 478 2541 413 
Q 2541 284 2612 226 
Q 2684 169 2888 153 
L 2859 0 
L 1966 0 
L 2163 784 
L 2122 797 
Q 1822 359 1553 156 
Q 1284 -47 984 -47 
Q 641 -47 452 212 
Q 263 472 263 941 
Q 263 1241 331 1542 
Q 400 1844 539 2114 
Q 678 2384 872 2590 
Q 1066 2797 1320 2919 
Q 1575 3041 1875 3041 
Q 2069 3041 2244 2995 
Q 2419 2950 2606 2834 
z
M 2331 1903 
Q 2359 2031 2368 2125 
Q 2378 2219 2378 2328 
Q 2378 2572 2275 2683 
Q 2172 2794 1931 2794 
Q 1800 2794 1681 2751 
Q 1563 2709 1441 2611 
Q 1319 2513 1208 2353 
Q 1097 2194 1006 1966 
Q 916 1738 866 1477 
Q 816 1216 816 969 
Q 816 644 905 483 
Q 994 322 1203 322 
Q 1300 322 1404 365 
Q 1509 409 1637 526 
Q 1766 644 1928 872 
Q 2075 1081 2161 1286 
Q 2247 1491 2303 1769 
L 2331 1903 
z
" transform="scale(0.015625)"/>
       <path id="Cambria-Italic-63" d="M 2297 2238 
Q 2291 2475 2258 2581 
Q 2225 2688 2151 2741 
Q 2078 2794 1944 2794 
Q 1628 2794 1376 2542 
Q 1125 2291 965 1830 
Q 806 1369 806 944 
Q 806 813 829 697 
Q 853 581 911 497 
Q 969 413 1064 364 
Q 1159 316 1306 316 
Q 1591 316 1798 423 
Q 2006 531 2238 763 
L 2428 572 
Q 2134 247 1836 97 
Q 1538 -53 1194 -53 
Q 741 -53 506 215 
Q 272 484 272 997 
Q 272 1331 397 1731 
Q 522 2131 762 2434 
Q 1003 2738 1325 2888 
Q 1647 3038 2013 3038 
Q 2263 3038 2448 3009 
Q 2634 2981 2778 2944 
L 2625 2238 
L 2297 2238 
z
" transform="scale(0.015625)"/>
       <path id="Cambria-Italic-65" d="M 2544 622 
Q 2313 369 2100 222 
Q 1888 75 1675 12 
Q 1463 -50 1206 -50 
Q 959 -50 781 29 
Q 603 109 486 248 
Q 369 388 312 580 
Q 256 772 256 997 
Q 256 1331 376 1714 
Q 497 2097 740 2401 
Q 984 2706 1325 2873 
Q 1666 3041 2050 3041 
Q 2428 3041 2617 2887 
Q 2806 2734 2806 2409 
Q 2806 1878 2307 1612 
Q 1809 1347 828 1347 
Q 791 1159 791 941 
Q 791 613 919 464 
Q 1047 316 1338 316 
Q 1625 316 1859 441 
Q 2094 566 2350 825 
L 2544 622 
z
M 881 1613 
Q 1169 1616 1386 1645 
Q 1603 1675 1759 1726 
Q 1916 1778 2019 1850 
Q 2122 1922 2183 2008 
Q 2244 2094 2267 2189 
Q 2291 2284 2291 2388 
Q 2291 2578 2202 2686 
Q 2113 2794 1938 2794 
Q 1719 2794 1508 2636 
Q 1297 2478 1136 2211 
Q 975 1944 881 1613 
z
" transform="scale(0.015625)"/>
       <path id="Cambria-Italic-6d" d="M 2997 2375 
L 2997 2331 
Q 2997 2309 2994 2284 
Q 3266 2669 3534 2853 
Q 3803 3038 4091 3038 
Q 4388 3038 4542 2870 
Q 4697 2703 4697 2375 
Q 4697 2175 4634 1894 
L 4372 781 
Q 4319 556 4319 425 
Q 4319 331 4350 278 
Q 4381 225 4447 197 
Q 4513 169 4663 153 
L 4634 0 
L 3653 0 
L 4047 1588 
Q 4091 1759 4123 1936 
Q 4156 2113 4156 2256 
Q 4156 2481 4078 2576 
Q 4000 2672 3831 2672 
Q 3709 2672 3557 2572 
Q 3406 2472 3240 2265 
Q 3075 2059 2970 1857 
Q 2866 1656 2803 1366 
L 2519 0 
L 1978 0 
L 2338 1588 
Q 2403 1878 2426 2017 
Q 2450 2156 2450 2256 
Q 2450 2481 2370 2576 
Q 2291 2672 2122 2672 
Q 1997 2672 1845 2570 
Q 1694 2469 1525 2256 
Q 1356 2044 1254 1839 
Q 1153 1634 1097 1353 
L 813 0 
L 272 0 
L 747 2134 
Q 763 2206 789 2347 
Q 816 2488 816 2581 
Q 816 2669 789 2717 
Q 763 2766 698 2789 
Q 634 2813 481 2822 
L 519 2988 
L 1231 3016 
L 1406 3016 
L 1200 2206 
L 1238 2194 
Q 1525 2622 1809 2830 
Q 2094 3038 2384 3038 
Q 2684 3038 2840 2867 
Q 2997 2697 2997 2375 
z
" transform="scale(0.015625)"/>
       <path id="Cambria-Italic-6e" d="M 2947 0 
L 1963 0 
L 2359 1588 
Q 2397 1741 2433 1925 
Q 2469 2109 2469 2256 
Q 2469 2478 2392 2575 
Q 2316 2672 2153 2672 
Q 2022 2672 1870 2570 
Q 1719 2469 1553 2267 
Q 1388 2066 1273 1858 
Q 1159 1650 1097 1353 
L 813 0 
L 272 0 
L 747 2134 
Q 763 2206 789 2347 
Q 816 2488 816 2581 
Q 816 2669 789 2717 
Q 763 2766 698 2789 
Q 634 2813 481 2822 
L 519 2988 
L 1228 3016 
L 1406 3016 
L 1197 2203 
L 1234 2191 
Q 1541 2622 1825 2830 
Q 2109 3038 2394 3038 
Q 2697 3038 2853 2870 
Q 3009 2703 3009 2375 
Q 3009 2263 2989 2130 
Q 2969 1997 2944 1894 
L 2681 781 
Q 2628 556 2628 425 
Q 2628 331 2659 278 
Q 2691 225 2756 197 
Q 2822 169 2972 153 
L 2947 0 
z
" transform="scale(0.015625)"/>
       <path id="Cambria-Italic-74" d="M 2109 575 
Q 1853 266 1603 108 
Q 1353 -50 1072 -50 
Q 741 -50 578 119 
Q 416 288 416 609 
Q 416 806 472 1050 
L 859 2672 
L 394 2672 
L 428 2831 
Q 613 2853 720 2911 
Q 828 2969 901 3064 
Q 975 3159 1037 3312 
Q 1100 3466 1194 3759 
L 1625 3759 
L 1453 2988 
L 2444 2988 
L 2375 2672 
L 1381 2672 
L 1081 1459 
Q 956 953 956 703 
Q 956 513 1039 414 
Q 1122 316 1281 316 
Q 1425 316 1583 427 
Q 1741 538 1928 763 
L 2109 575 
z
" transform="scale(0.015625)"/>
       <path id="Cambria-Italic-20" transform="scale(0.015625)"/>
       <path id="Cambria-Italic-28" d="M 1616 -1359 
Q 1172 -1359 897 -1200 
Q 622 -1041 498 -736 
Q 375 -431 375 28 
Q 375 353 431 747 
Q 506 1253 648 1875 
Q 791 2497 928 2906 
Q 1088 3372 1272 3667 
Q 1456 3963 1675 4134 
Q 1894 4306 2172 4391 
Q 2478 4484 2906 4484 
L 2850 4228 
Q 2575 4228 2397 4165 
Q 2219 4103 2078 3978 
Q 1916 3834 1769 3575 
Q 1597 3266 1438 2766 
Q 1300 2334 1163 1713 
Q 1050 1203 981 797 
Q 888 228 888 -147 
Q 888 -513 977 -722 
Q 1066 -931 1233 -1017 
Q 1400 -1103 1672 -1103 
L 1616 -1359 
z
" transform="scale(0.015625)"/>
       <path id="Cambria-Italic-29" d="M 794 4484 
Q 1238 4484 1513 4325 
Q 1788 4166 1911 3861 
Q 2034 3556 2034 3097 
Q 2034 2778 1978 2394 
Q 1903 1850 1747 1184 
Q 1600 569 1466 178 
Q 1313 -263 1133 -552 
Q 953 -841 733 -1012 
Q 513 -1184 234 -1266 
Q -72 -1359 -497 -1359 
L -441 -1103 
Q -166 -1103 11 -1040 
Q 188 -978 325 -856 
Q 494 -709 644 -441 
Q 819 -125 973 367 
Q 1128 859 1266 1506 
Q 1375 2006 1438 2394 
Q 1522 2922 1522 3272 
Q 1522 3641 1431 3850 
Q 1341 4059 1173 4143 
Q 1006 4228 738 4228 
L 794 4484 
z
" transform="scale(0.015625)"/>
      </defs>
      <use xlink:href="#Cambria-Italic-44"/>
      <use xlink:href="#Cambria-Italic-69" x="64.648438"/>
      <use xlink:href="#Cambria-Italic-73" x="91.748047"/>
      <use xlink:href="#Cambria-Italic-70" x="129.931641"/>
      <use xlink:href="#Cambria-Italic-6c" x="182.617188"/>
      <use xlink:href="#Cambria-Italic-61" x="209.277344"/>
      <use xlink:href="#Cambria-Italic-63" x="261.865234"/>
      <use xlink:href="#Cambria-Italic-65" x="305.175781"/>
      <use xlink:href="#Cambria-Italic-6d" x="350.878906"/>
      <use xlink:href="#Cambria-Italic-65" x="430.761719"/>
      <use xlink:href="#Cambria-Italic-6e" x="476.464844"/>
      <use xlink:href="#Cambria-Italic-74" x="529.980469"/>
      <use xlink:href="#Cambria-Italic-20" x="564.501953"/>
      <use xlink:href="#Cambria-Italic-28" x="586.523438"/>
      <use xlink:href="#Cambria-Italic-6d" x="623.681641"/>
      <use xlink:href="#Cambria-Italic-6d" x="703.564453"/>
      <use xlink:href="#Cambria-Italic-29" x="783.447266"/>
     </g>
    </g>
   </g>
   <g id="matplotlib.axis_2">
    <g id="ytick_1">
     <g id="line2d_15">
      <path d="M 56.380625 220.344923 
L 297.72102 220.344923 
" clip-path="url(#pd29375ec11)" style="fill: none; stroke-dasharray: 0.8,1.32; stroke-dashoffset: 0; stroke: #b0b0b0; stroke-width: 0.8"/>
     </g>
     <g id="line2d_16">
      <defs>
       <path id="me9a0df7200" d="M 0 0 
L -3.5 0 
" style="stroke: #000000; stroke-width: 0.8"/>
      </defs>
      <g>
       <use xlink:href="#me9a0df7200" x="56.380625" y="220.344923" style="stroke: #000000; stroke-width: 0.8"/>
      </g>
     </g>
     <g id="text_9">
      <!-- −4000 -->
      <g transform="translate(16.155625 224.537423) scale(0.12 -0.12)">
       <defs>
        <path id="Cambria-34" d="M 1613 153 
Q 1806 203 1872 264 
Q 1938 325 1958 437 
Q 1978 550 1978 781 
L 1978 1294 
L 241 1294 
L 241 1528 
L 2069 4288 
L 2516 4288 
L 2516 1597 
L 2581 1597 
Q 2763 1597 2841 1623 
Q 2919 1650 2970 1717 
Q 3022 1784 3066 1938 
L 3303 1938 
L 3266 1294 
L 2516 1294 
L 2516 781 
Q 2516 572 2530 475 
Q 2544 378 2576 322 
Q 2609 266 2673 228 
Q 2738 191 2881 153 
L 2881 0 
L 1613 0 
L 1613 153 
z
M 756 1597 
L 1978 1597 
L 1978 2375 
Q 1978 2669 1987 3033 
Q 1997 3397 2009 3581 
L 1978 3581 
L 756 1641 
L 756 1597 
z
" transform="scale(0.015625)"/>
       </defs>
       <use xlink:href="#Cambria-2212"/>
       <use xlink:href="#Cambria-34" x="55.371094"/>
       <use xlink:href="#Cambria-30" x="110.742188"/>
       <use xlink:href="#Cambria-30" x="166.113281"/>
       <use xlink:href="#Cambria-30" x="221.484375"/>
      </g>
     </g>
    </g>
    <g id="ytick_2">
     <g id="line2d_17">
      <path d="M 56.380625 196.370707 
L 297.72102 196.370707 
" clip-path="url(#pd29375ec11)" style="fill: none; stroke-dasharray: 0.8,1.32; stroke-dashoffset: 0; stroke: #b0b0b0; stroke-width: 0.8"/>
     </g>
     <g id="line2d_18">
      <g>
       <use xlink:href="#me9a0df7200" x="56.380625" y="196.370707" style="stroke: #000000; stroke-width: 0.8"/>
      </g>
     </g>
     <g id="text_10">
      <!-- −3000 -->
      <g transform="translate(16.155625 200.563207) scale(0.12 -0.12)">
       <use xlink:href="#Cambria-2212"/>
       <use xlink:href="#Cambria-33" x="55.371094"/>
       <use xlink:href="#Cambria-30" x="110.742188"/>
       <use xlink:href="#Cambria-30" x="166.113281"/>
       <use xlink:href="#Cambria-30" x="221.484375"/>
      </g>
     </g>
    </g>
    <g id="ytick_3">
     <g id="line2d_19">
      <path d="M 56.380625 172.396491 
L 297.72102 172.396491 
" clip-path="url(#pd29375ec11)" style="fill: none; stroke-dasharray: 0.8,1.32; stroke-dashoffset: 0; stroke: #b0b0b0; stroke-width: 0.8"/>
     </g>
     <g id="line2d_20">
      <g>
       <use xlink:href="#me9a0df7200" x="56.380625" y="172.396491" style="stroke: #000000; stroke-width: 0.8"/>
      </g>
     </g>
     <g id="text_11">
      <!-- −2000 -->
      <g transform="translate(16.155625 176.588991) scale(0.12 -0.12)">
       <use xlink:href="#Cambria-2212"/>
       <use xlink:href="#Cambria-32" x="55.371094"/>
       <use xlink:href="#Cambria-30" x="110.742188"/>
       <use xlink:href="#Cambria-30" x="166.113281"/>
       <use xlink:href="#Cambria-30" x="221.484375"/>
      </g>
     </g>
    </g>
    <g id="ytick_4">
     <g id="line2d_21">
      <path d="M 56.380625 148.422276 
L 297.72102 148.422276 
" clip-path="url(#pd29375ec11)" style="fill: none; stroke-dasharray: 0.8,1.32; stroke-dashoffset: 0; stroke: #b0b0b0; stroke-width: 0.8"/>
     </g>
     <g id="line2d_22">
      <g>
       <use xlink:href="#me9a0df7200" x="56.380625" y="148.422276" style="stroke: #000000; stroke-width: 0.8"/>
      </g>
     </g>
     <g id="text_12">
      <!-- −1000 -->
      <g transform="translate(16.155625 152.614776) scale(0.12 -0.12)">
       <use xlink:href="#Cambria-2212"/>
       <use xlink:href="#Cambria-31" x="55.371094"/>
       <use xlink:href="#Cambria-30" x="110.742188"/>
       <use xlink:href="#Cambria-30" x="166.113281"/>
       <use xlink:href="#Cambria-30" x="221.484375"/>
      </g>
     </g>
    </g>
    <g id="ytick_5">
     <g id="line2d_23">
      <path d="M 56.380625 124.44806 
L 297.72102 124.44806 
" clip-path="url(#pd29375ec11)" style="fill: none; stroke-dasharray: 0.8,1.32; stroke-dashoffset: 0; stroke: #b0b0b0; stroke-width: 0.8"/>
     </g>
     <g id="line2d_24">
      <g>
       <use xlink:href="#me9a0df7200" x="56.380625" y="124.44806" style="stroke: #000000; stroke-width: 0.8"/>
      </g>
     </g>
     <g id="text_13">
      <!-- 0 -->
      <g transform="translate(42.735625 128.64056) scale(0.12 -0.12)">
       <use xlink:href="#Cambria-30"/>
      </g>
     </g>
    </g>
    <g id="ytick_6">
     <g id="line2d_25">
      <path d="M 56.380625 100.473845 
L 297.72102 100.473845 
" clip-path="url(#pd29375ec11)" style="fill: none; stroke-dasharray: 0.8,1.32; stroke-dashoffset: 0; stroke: #b0b0b0; stroke-width: 0.8"/>
     </g>
     <g id="line2d_26">
      <g>
       <use xlink:href="#me9a0df7200" x="56.380625" y="100.473845" style="stroke: #000000; stroke-width: 0.8"/>
      </g>
     </g>
     <g id="text_14">
      <!-- 1000 -->
      <g transform="translate(22.800625 104.666345) scale(0.12 -0.12)">
       <use xlink:href="#Cambria-31"/>
       <use xlink:href="#Cambria-30" x="55.371094"/>
       <use xlink:href="#Cambria-30" x="110.742188"/>
       <use xlink:href="#Cambria-30" x="166.113281"/>
      </g>
     </g>
    </g>
    <g id="ytick_7">
     <g id="line2d_27">
      <path d="M 56.380625 76.499629 
L 297.72102 76.499629 
" clip-path="url(#pd29375ec11)" style="fill: none; stroke-dasharray: 0.8,1.32; stroke-dashoffset: 0; stroke: #b0b0b0; stroke-width: 0.8"/>
     </g>
     <g id="line2d_28">
      <g>
       <use xlink:href="#me9a0df7200" x="56.380625" y="76.499629" style="stroke: #000000; stroke-width: 0.8"/>
      </g>
     </g>
     <g id="text_15">
      <!-- 2000 -->
      <g transform="translate(22.800625 80.692129) scale(0.12 -0.12)">
       <use xlink:href="#Cambria-32"/>
       <use xlink:href="#Cambria-30" x="55.371094"/>
       <use xlink:href="#Cambria-30" x="110.742188"/>
       <use xlink:href="#Cambria-30" x="166.113281"/>
      </g>
     </g>
    </g>
    <g id="ytick_8">
     <g id="line2d_29">
      <path d="M 56.380625 52.525413 
L 297.72102 52.525413 
" clip-path="url(#pd29375ec11)" style="fill: none; stroke-dasharray: 0.8,1.32; stroke-dashoffset: 0; stroke: #b0b0b0; stroke-width: 0.8"/>
     </g>
     <g id="line2d_30">
      <g>
       <use xlink:href="#me9a0df7200" x="56.380625" y="52.525413" style="stroke: #000000; stroke-width: 0.8"/>
      </g>
     </g>
     <g id="text_16">
      <!-- 3000 -->
      <g transform="translate(22.800625 56.717913) scale(0.12 -0.12)">
       <use xlink:href="#Cambria-33"/>
       <use xlink:href="#Cambria-30" x="55.371094"/>
       <use xlink:href="#Cambria-30" x="110.742188"/>
       <use xlink:href="#Cambria-30" x="166.113281"/>
      </g>
     </g>
    </g>
    <g id="ytick_9">
     <g id="line2d_31">
      <path d="M 56.380625 28.551198 
L 297.72102 28.551198 
" clip-path="url(#pd29375ec11)" style="fill: none; stroke-dasharray: 0.8,1.32; stroke-dashoffset: 0; stroke: #b0b0b0; stroke-width: 0.8"/>
     </g>
     <g id="line2d_32">
      <g>
       <use xlink:href="#me9a0df7200" x="56.380625" y="28.551198" style="stroke: #000000; stroke-width: 0.8"/>
      </g>
     </g>
     <g id="text_17">
      <!-- 4000 -->
      <g transform="translate(22.800625 32.743698) scale(0.12 -0.12)">
       <use xlink:href="#Cambria-34"/>
       <use xlink:href="#Cambria-30" x="55.371094"/>
       <use xlink:href="#Cambria-30" x="110.742188"/>
       <use xlink:href="#Cambria-30" x="166.113281"/>
      </g>
     </g>
    </g>
    <g id="text_18">
     <!-- Base Shear (kN) -->
     <g transform="translate(15.6075 163.934062) rotate(-90) scale(0.12 -0.12)">
      <defs>
       <path id="Cambria-Italic-42" d="M 2797 2184 
Q 3088 2069 3244 1855 
Q 3400 1641 3400 1369 
Q 3400 1047 3283 792 
Q 3166 538 2912 347 
Q 2659 156 2331 78 
Q 2003 0 1522 0 
L 131 0 
L 166 153 
Q 284 172 343 214 
Q 403 256 443 331 
Q 484 406 518 514 
Q 553 622 622 931 
L 1153 3338 
Q 1222 3650 1222 3831 
Q 1222 3984 1150 4043 
Q 1078 4103 916 4113 
L 950 4266 
L 2497 4266 
Q 2966 4266 3248 4167 
Q 3531 4069 3664 3878 
Q 3797 3688 3797 3400 
Q 3797 2991 3547 2686 
Q 3297 2381 2803 2219 
L 2797 2184 
z
M 1934 2353 
Q 2259 2353 2457 2397 
Q 2656 2441 2781 2528 
Q 2906 2616 3004 2733 
Q 3103 2850 3161 3009 
Q 3219 3169 3219 3384 
Q 3219 3519 3172 3636 
Q 3125 3753 3011 3836 
Q 2897 3919 2748 3955 
Q 2600 3991 2353 3991 
Q 2081 3991 1847 3981 
L 1494 2353 
L 1934 2353 
z
M 1041 288 
Q 1284 275 1497 275 
Q 1969 275 2226 394 
Q 2484 513 2643 781 
Q 2803 1050 2803 1425 
Q 2803 1628 2723 1768 
Q 2644 1909 2470 1993 
Q 2297 2078 1994 2078 
L 1428 2078 
L 1041 288 
z
" transform="scale(0.015625)"/>
       <path id="Cambria-Italic-53" d="M 497 972 
Q 497 594 672 408 
Q 847 222 1219 222 
Q 1506 222 1712 328 
Q 1919 434 2025 629 
Q 2131 825 2131 1094 
Q 2131 1284 2064 1429 
Q 1997 1575 1861 1708 
Q 1725 1841 1469 2013 
Q 1238 2169 1084 2320 
Q 931 2472 840 2659 
Q 750 2847 750 3078 
Q 750 3447 928 3728 
Q 1106 4009 1431 4162 
Q 1756 4316 2181 4316 
Q 2469 4316 2714 4277 
Q 2959 4238 3256 4144 
L 3081 3341 
L 2781 3341 
Q 2769 3606 2700 3757 
Q 2631 3909 2503 3975 
Q 2375 4041 2163 4041 
Q 1903 4041 1706 3934 
Q 1509 3828 1406 3645 
Q 1303 3463 1303 3238 
Q 1303 3075 1359 2947 
Q 1416 2819 1539 2695 
Q 1663 2572 1900 2409 
Q 2206 2197 2367 2030 
Q 2528 1863 2604 1675 
Q 2681 1488 2681 1241 
Q 2681 863 2498 567 
Q 2316 272 1983 111 
Q 1650 -50 1225 -50 
Q 934 -50 607 -6 
Q 281 38 9 113 
L 197 972 
L 497 972 
z
" transform="scale(0.015625)"/>
       <path id="Cambria-Italic-68" d="M 2916 0 
L 1934 0 
L 2328 1588 
Q 2372 1759 2405 1936 
Q 2438 2113 2438 2256 
Q 2438 2481 2363 2576 
Q 2288 2672 2109 2672 
Q 1981 2672 1826 2565 
Q 1672 2459 1500 2242 
Q 1328 2025 1226 1826 
Q 1125 1628 1066 1353 
L 781 0 
L 241 0 
L 1044 3572 
Q 1078 3728 1092 3798 
Q 1106 3869 1112 3928 
Q 1119 3988 1119 4034 
Q 1119 4166 1039 4219 
Q 959 4272 753 4278 
L 791 4441 
L 1581 4469 
L 1763 4469 
L 1225 2303 
L 1263 2291 
Q 1556 2681 1822 2859 
Q 2088 3038 2363 3038 
Q 2666 3038 2822 2870 
Q 2978 2703 2978 2375 
Q 2978 2175 2916 1894 
L 2653 781 
Q 2622 647 2609 565 
Q 2597 484 2597 425 
Q 2597 328 2630 275 
Q 2663 222 2730 195 
Q 2797 169 2944 153 
L 2916 0 
z
" transform="scale(0.015625)"/>
       <path id="Cambria-Italic-72" d="M 1244 3016 
L 1431 3016 
L 1213 2247 
L 1250 2234 
Q 1547 2644 1830 2841 
Q 2113 3038 2413 3038 
Q 2641 3038 2794 3003 
L 2644 2303 
L 2322 2303 
Q 2297 2466 2244 2550 
Q 2191 2634 2078 2634 
Q 1956 2634 1797 2509 
Q 1638 2384 1472 2165 
Q 1306 1947 1223 1762 
Q 1141 1578 1097 1353 
L 813 0 
L 272 0 
L 747 2134 
Q 813 2428 813 2581 
Q 813 2669 784 2717 
Q 756 2766 693 2789 
Q 631 2813 481 2822 
L 516 2988 
L 1244 3016 
z
" transform="scale(0.015625)"/>
       <path id="Cambria-Italic-6b" d="M 1150 1741 
L 1250 1741 
Q 1347 1741 1459 1778 
Q 1572 1816 1700 1895 
Q 1828 1975 2044 2147 
Q 2206 2278 2284 2370 
Q 2363 2463 2391 2531 
Q 2419 2600 2419 2663 
Q 2419 2816 2206 2834 
L 2241 2988 
L 3253 2988 
L 3313 2834 
Q 3053 2600 2763 2375 
L 1972 1759 
L 2441 575 
Q 2503 416 2568 330 
Q 2634 244 2720 203 
Q 2806 163 2941 153 
L 2906 0 
L 2072 0 
L 1616 1284 
Q 1572 1406 1540 1450 
Q 1509 1494 1468 1512 
Q 1428 1531 1338 1531 
L 1106 1531 
L 781 0 
L 241 0 
L 1044 3572 
Q 1078 3728 1092 3798 
Q 1106 3869 1112 3928 
Q 1119 3988 1119 4034 
Q 1119 4166 1039 4219 
Q 959 4272 753 4278 
L 791 4441 
L 1581 4469 
L 1763 4469 
L 1150 1741 
z
" transform="scale(0.015625)"/>
       <path id="Cambria-Italic-4e" d="M 4463 4266 
L 4428 4113 
Q 4309 4088 4257 4056 
Q 4206 4025 4164 3962 
Q 4122 3900 4080 3767 
Q 4038 3634 3972 3334 
L 3238 0 
L 2813 0 
L 1900 2681 
Q 1734 3163 1609 3641 
L 1569 3641 
Q 1550 3481 1465 3032 
Q 1381 2584 1288 2156 
L 1013 909 
Q 984 778 965 656 
Q 947 534 947 422 
Q 947 281 1017 223 
Q 1088 166 1253 153 
L 1219 0 
L 125 0 
L 159 153 
Q 278 172 337 214 
Q 397 256 437 331 
Q 478 406 512 514 
Q 547 622 616 931 
L 1147 3338 
Q 1178 3472 1197 3594 
Q 1216 3716 1216 3841 
Q 1216 3988 1141 4045 
Q 1066 4103 909 4113 
L 944 4266 
L 1941 4266 
L 2766 1831 
Q 2944 1306 3041 944 
L 3075 944 
Q 3100 1134 3189 1578 
Q 3278 2022 3353 2353 
L 3572 3338 
Q 3594 3441 3617 3581 
Q 3641 3722 3641 3841 
Q 3641 3988 3566 4045 
Q 3491 4103 3334 4113 
L 3369 4266 
L 4463 4266 
z
" transform="scale(0.015625)"/>
      </defs>
      <use xlink:href="#Cambria-Italic-42"/>
      <use xlink:href="#Cambria-Italic-61" x="59.619141"/>
      <use xlink:href="#Cambria-Italic-73" x="112.207031"/>
      <use xlink:href="#Cambria-Italic-65" x="150.390625"/>
      <use xlink:href="#Cambria-Italic-20" x="196.09375"/>
      <use xlink:href="#Cambria-Italic-53" x="218.115234"/>
      <use xlink:href="#Cambria-Italic-68" x="266.259766"/>
      <use xlink:href="#Cambria-Italic-65" x="319.287109"/>
      <use xlink:href="#Cambria-Italic-61" x="364.990234"/>
      <use xlink:href="#Cambria-Italic-72" x="417.578125"/>
      <use xlink:href="#Cambria-Italic-20" x="458.300781"/>
      <use xlink:href="#Cambria-Italic-28" x="480.322266"/>
      <use xlink:href="#Cambria-Italic-6b" x="517.480469"/>
      <use xlink:href="#Cambria-Italic-4e" x="567.1875"/>
      <use xlink:href="#Cambria-Italic-29" x="634.277344"/>
     </g>
    </g>
   </g>
   <g id="line2d_33">
    <path d="M 177.016535 123.690316 
L 182.150784 99.304382 
L 184.341246 92.027938 
L 186.10439 87.854048 
L 187.337352 85.497147 
L 187.968205 84.566637 
L 187.960143 85.273978 
L 186.066403 92.728192 
L 182.091609 107.210216 
L 179.595934 115.61983 
L 176.949779 125.435301 
L 174.307518 137.923987 
L 171.8233 149.093489 
L 169.642053 155.604239 
L 167.891028 159.21081 
L 166.672381 161.323845 
L 166.057205 162.124664 
L 166.081391 161.294764 
L 168.004985 153.732137 
L 172.000823 138.210892 
L 177.150046 117.571568 
L 179.790214 108.07555 
L 182.268567 100.421758 
L 184.44052 94.62166 
L 187.983125 86.242508 
L 187.942816 86.581167 
L 185.989438 93.792276 
L 181.972703 109.189654 
L 176.816276 129.855176 
L 174.178297 139.506775 
L 171.7059 147.07431 
L 169.543321 152.619136 
L 166.043089 160.441804 
L 166.099519 159.990643 
L 169.893577 146.350034 
L 172.120094 137.739424 
L 177.550537 114.281375 
L 182.821923 100.33291 
L 187.754626 88.77856 
L 192.060875 80.683232 
L 195.489445 75.378984 
L 198.976339 70.705847 
L 198.83124 71.659565 
L 194.80578 83.136513 
L 186.689607 104.574668 
L 181.65463 119.312564 
L 176.34907 135.440746 
L 171.082449 148.330104 
L 166.162019 157.965468 
L 161.874836 165.476708 
L 155.044625 176.587215 
L 155.221958 176.158623 
L 156.670774 172.388669 
L 167.46363 142.710554 
L 177.81744 111.991401 
L 183.079103 99.897032 
L 187.987079 90.764428 
L 192.25504 83.665291 
L 198.999746 73.214406 
L 198.790187 74.032099 
L 190.95433 94.921432 
L 186.448925 106.819005 
L 181.39324 121.155461 
L 176.08222 135.634402 
L 170.825708 147.194799 
L 165.930365 156.311818 
L 161.681783 163.655944 
L 155.022829 174.52847 
L 155.264608 173.800481 
L 159.467014 162.481734 
L 167.705007 140.10769 
L 172.770769 124.965691 
L 178.618072 109.485835 
L 186.494825 95.241738 
L 193.81862 83.183805 
L 200.162191 73.881265 
L 205.155457 67.346746 
L 210.021629 61.658694 
L 209.610645 63.049614 
L 203.219021 78.885546 
L 197.611265 91.809887 
L 190.802023 106.750509 
L 183.188544 124.228911 
L 175.214994 141.104903 
L 167.346544 154.651522 
L 160.042237 166.007828 
L 153.7282 175.047831 
L 148.772792 181.315034 
L 143.998116 186.593787 
L 144.457401 185.133139 
L 150.936806 169.056651 
L 156.578922 155.665372 
L 163.413356 139.774772 
L 171.041393 122.382324 
L 179.018016 107.949671 
L 186.877873 95.790962 
L 194.162426 85.478467 
L 200.446697 77.006839 
L 210.04707 64.642899 
L 209.539501 66.027948 
L 202.972553 81.66736 
L 197.296284 94.633773 
L 190.436907 109.847239 
L 182.794592 126.236308 
L 174.815189 140.49522 
L 166.964212 152.624986 
L 159.699681 163.22 
L 153.445406 171.932205 
L 148.566257 178.253587 
L 143.975096 183.754188 
L 144.53093 182.159364 
L 151.185181 165.905753 
L 163.779463 136.342091 
L 171.435776 120.520146 
L 180.218043 106.516481 
L 190.67379 91.92908 
L 200.33278 78.954619 
L 208.631514 68.696625 
L 215.085847 61.525507 
L 221.084714 55.565691 
L 220.279276 57.633601 
L 211.290861 78.490829 
L 203.632264 94.985107 
L 194.420919 113.295087 
L 184.194213 130.575352 
L 173.548765 144.989601 
L 163.105624 158.761586 
L 153.474039 171.099262 
L 145.215909 180.91236 
L 138.813011 187.590584 
L 132.937046 192.912239 
L 133.806781 190.696889 
L 142.910945 169.418994 
L 150.614242 152.557345 
L 159.857835 133.535723 
L 170.102456 117.750883 
L 191.180593 92.282521 
L 200.784421 81.011426 
L 209.001643 71.663533 
L 219.467582 60.398128 
L 221.105721 58.712265 
L 220.171721 61.038537 
L 210.952141 81.985329 
L 203.204426 98.550549 
L 193.928924 116.632591 
L 183.666762 131.660457 
L 173.01663 144.089939 
L 144.848117 177.557105 
L 138.54879 184.322054 
L 132.919269 189.923762 
L 133.9175 187.510988 
L 143.252158 165.876143 
L 151.044007 148.758582 
L 160.351079 130.622319 
L 170.630404 116.654948 
L 207.286588 75.173368 
L 217.454722 64.523314 
L 225.263716 57.208018 
L 232.146199 51.450144 
L 230.818168 54.561975 
L 226.35138 64.73605 
L 219.006425 81.093141 
L 209.211804 101.075219 
L 197.538928 120.917847 
L 184.668787 135.570554 
L 171.352219 148.31431 
L 158.366103 161.917409 
L 146.468044 174.781504 
L 136.352166 185.035779 
L 128.608624 191.964309 
L 121.880811 197.273521 
L 135.243766 166.859966 
L 145.092839 146.502521 
L 156.804323 127.2508 
L 169.694976 113.425506 
L 183.012764 101.173838 
L 195.980736 88.585818 
L 207.842347 76.791039 
L 217.905598 66.999062 
L 225.583403 59.915319 
L 232.156301 54.238095 
L 230.667933 57.757008 
L 226.049574 68.152493 
L 218.570654 84.526253 
L 208.66749 104.466204 
L 196.917827 122.780322 
L 184.007134 135.930063 
L 170.688614 147.695291 
L 157.739261 160.084927 
L 145.914533 172.153834 
L 135.904279 182.079171 
L 128.29249 189.041141 
L 121.87475 194.478225 
L 123.443205 190.974179 
L 128.137098 180.173994 
L 135.68259 163.332102 
L 145.639482 142.984681 
L 157.426893 125.502807 
L 170.357153 112.436215 
L 185.007794 99.44938 
L 200.524106 84.920991 
L 214.668999 71.337616 
L 226.617269 60.547013 
L 235.67186 53.279928 
L 243.186678 47.951044 
L 235.48539 65.274235 
L 226.351244 84.934409 
L 214.338938 107.693448 
L 200.149265 126.440929 
L 184.610041 139.786504 
L 168.627816 151.99127 
L 153.134985 165.137247 
L 139.03539 178.235144 
L 127.151593 188.73201 
L 118.176889 195.723942 
L 110.848817 200.775928 
L 112.922964 196.262167 
L 118.736294 182.831122 
L 127.949661 162.784057 
L 140.025561 139.965137 
L 154.259494 122.243173 
L 169.821061 108.903608 
L 185.802407 97.062052 
L 201.27119 84.679185 
L 227.143859 62.487607 
L 236.038347 55.400757 
L 241.489535 51.279258 
L 243.179405 50.253927 
L 235.106029 68.251732 
L 225.813779 87.987024 
L 213.674725 110.167158 
L 199.397054 127.269604 
L 183.813715 139.948851 
L 167.833833 151.63166 
L 152.389664 163.85146 
L 138.382213 176.21301 
L 126.628667 186.38897 
L 117.814721 193.358291 
L 110.860939 198.379589 
L 113.126783 193.487211 
L 119.119919 179.817009 
L 128.490711 159.595724 
L 140.692472 137.418799 
L 155.013359 121.058569 
L 170.617899 107.979252 
L 188.192265 95.307808 
L 206.181084 81.116182 
L 222.46846 67.416422 
L 236.104196 56.574627 
L 246.292791 49.453243 
L 252.439848 45.57117 
L 254.186751 44.696041 
L 251.431587 50.690871 
L 244.33509 66.494193 
L 233.311267 89.41627 
L 219.003241 113.494571 
L 202.245734 130.772109 
L 184.016369 143.943404 
L 165.378638 155.823153 
L 147.419856 168.565387 
L 131.187727 181.862929 
L 117.629225 192.483922 
L 107.535346 199.383305 
L 99.860461 203.976141 
L 102.727204 197.828545 
L 109.927945 181.353003 
L 121.042596 158.090361 
L 135.422736 134.440718 
L 152.229435 117.770321 
L 170.482199 104.453326 
L 189.116173 93.052002 
L 207.044261 80.827373 
L 236.701319 58.153255 
L 246.700113 51.15773 
L 252.633606 47.253351 
L 254.155642 46.661242 
L 243.872704 69.189876 
L 232.667631 92.169647 
L 218.215904 115.127893 
L 201.360629 131.245305 
L 183.085134 144.085476 
L 164.4556 155.643027 
L 146.558864 167.679029 
L 130.439011 180.319297 
L 117.036465 190.637826 
L 107.133123 197.488388 
L 101.306739 201.235764 
L 99.897223 201.941001 
L 102.986805 195.352897 
L 110.395239 178.64545 
L 121.690323 155.266057 
L 136.213106 132.684978 
L 153.116339 116.797352 
L 171.413896 103.608289 
L 191.898561 91.335814 
L 212.315394 77.377325 
L 230.672912 63.531557 
L 245.900146 52.705103 
L 257.108749 45.799148 
L 263.644818 42.153276 
L 265.12704 41.732837 
L 261.468946 49.590498 
L 252.883945 68.466142 
L 239.872881 94.399957 
L 223.194814 118.428485 
L 203.822732 134.842615 
L 182.886791 148.087155 
L 161.608383 159.539604 
L 141.228878 172.054326 
L 122.937205 185.607238 
L 107.800489 196.257385 
L 96.701799 202.957828 
L 90.288626 206.443922 
L 88.93511 206.948241 
L 92.720216 198.814298 
L 101.423121 179.201651 
L 114.536104 153.068817 
L 131.29416 129.785801 
L 150.719634 113.447867 
L 171.679254 100.256657 
L 192.950249 89.312756 
L 213.291679 77.103313 
L 231.516838 64.349888 
L 246.56248 54.018745 
L 257.55085 47.193509 
L 263.840894 43.534673 
L 265.065653 43.465969 
L 252.333185 70.986344 
L 239.118763 96.823659 
L 222.281332 119.487977 
L 202.803178 135.195071 
L 181.820646 148.240854 
L 160.557844 159.483037 
L 140.255234 171.433941 
L 122.097257 184.398841 
L 107.14324 194.76718 
L 96.265592 201.410133 
L 90.098909 204.925188 
L 89.002951 205.170813 
L 93.041657 196.535834 
L 101.97941 176.690879 
L 115.294787 150.583795 
L 132.210976 128.458797 
L 151.741096 112.568705 
L 172.745772 99.468446 
L 196.122484 87.624511 
L 218.918412 73.720347 
L 239.269807 59.699645 
L 255.989382 48.959056 
L 268.101725 42.327124 
L 274.900209 38.932133 
L 275.988214 39.077582 
L 261.115743 71.169323 
L 246.022919 99.580922 
L 226.904301 122.782685 
L 204.875258 138.891937 
L 181.220954 152.063412 
L 157.321365 163.008868 
L 134.570782 175.52827 
L 114.296461 189.374948 
L 97.681193 199.956274 
L 85.694305 206.383214 
L 79.035105 209.641623 
L 78.092086 209.628156 
L 82.920265 199.133039 
L 93.237967 176.365114 
L 108.443264 147.926368 
L 127.649087 125.53099 
L 149.734979 109.230466 
L 173.412462 96.368676 
L 197.300205 85.843445 
L 220.00461 73.472065 
L 240.201114 60.395752 
L 256.711466 50.056637 
L 268.57246 43.470997 
L 275.092133 40.073302 
L 275.89013 40.644908 
L 260.471395 73.568576 
L 245.154183 101.614535 
L 225.861858 123.502485 
L 203.719925 139.203612 
L 180.020131 152.238443 
L 156.145109 163.046281 
L 133.487715 175.091911 
L 113.369767 188.407539 
L 96.964936 198.726718 
L 85.230271 205.095659 
L 78.850364 208.371464 
L 78.197418 208.026091 
L 93.888443 173.993229 
L 109.317009 145.799029 
L 128.695128 124.430334 
L 150.89229 108.424064 
L 174.613526 95.637594 
L 200.859222 84.178905 
L 225.980949 70.126954 
L 248.246119 55.93087 
L 266.355796 45.355361 
L 279.25347 39.050306 
L 286.186699 35.914051 
L 286.751002 36.779604 
L 280.913457 49.330756 
L 269.014624 74.60185 
L 251.748674 104.722048 
L 230.122893 126.889232 
L 205.398917 142.957763 
L 179.019128 155.808081 
L 152.52251 166.273324 
L 127.454859 179.035792 
L 105.278609 193.163834 
L 87.287509 203.589662 
L 74.53115 209.713663 
L 67.753731 212.793267 
L 67.350643 212.177699 
L 73.345402 199.08879 
L 85.388276 173.394099 
L 102.776692 143.538369 
L 124.496219 121.849584 
L 149.279751 105.655777 
L 175.681433 93.178908 
L 202.161003 82.871456 
L 227.173659 70.681732 
L 267.13204 47.408815 
L 279.746616 41.180371 
L 286.367977 34.502358 
L 286.367977 34.502358 
" clip-path="url(#pd29375ec11)" style="fill: none; stroke: #ff0000; stroke-linecap: square"/>
   </g>
   <g id="line2d_34">
    <path d="M 177.016535 124.44806 
L 179.660792 109.708742 
L 182.150784 99.122589 
L 184.341246 92.739439 
L 186.10439 88.69413 
L 187.968205 84.915154 
L 187.960143 84.957838 
L 186.066403 92.572715 
L 184.291206 99.189258 
L 179.595934 115.523351 
L 176.949779 125.565838 
L 174.307518 138.997552 
L 171.8233 149.25726 
L 169.642053 155.539775 
L 167.891028 159.522881 
L 166.057205 163.135057 
L 166.081391 163.012114 
L 168.004985 155.224436 
L 174.502089 130.386974 
L 177.150046 118.470554 
L 179.790214 109.211484 
L 182.268567 102.984006 
L 187.983125 86.251307 
L 187.942816 86.408402 
L 179.465938 119.008929 
L 176.816276 130.870179 
L 174.178297 139.888369 
L 171.7059 146.136056 
L 167.816726 157.436348 
L 166.043089 162.739648 
L 166.099519 162.506692 
L 169.893577 147.880601 
L 172.120094 139.585682 
L 174.632267 129.708809 
L 177.550537 116.664 
L 182.821923 101.63122 
L 187.754626 87.13027 
L 192.060875 80.545755 
L 195.489445 75.860709 
L 198.976339 71.375586 
L 197.413483 75.738921 
L 191.160262 92.451748 
L 186.689607 104.201896 
L 181.65463 119.012645 
L 176.34907 136.894454 
L 171.082449 149.575575 
L 166.162019 162.267308 
L 161.874836 168.167122 
L 155.044625 176.722982 
L 159.306551 165.216526 
L 167.46363 143.501857 
L 172.509053 128.242998 
L 177.81744 111.238383 
L 183.079103 101.078825 
L 192.25504 84.691213 
L 197.926818 75.085526 
L 198.999746 73.420007 
L 190.95433 94.616958 
L 186.448925 106.452846 
L 181.39324 121.398806 
L 176.08222 137.574627 
L 170.825708 147.589223 
L 161.681783 163.922879 
L 156.06415 173.41629 
L 155.022829 175.059797 
L 163.182475 153.55737 
L 167.705007 141.647053 
L 172.770769 126.637542 
L 178.618072 110.411326 
L 186.494825 96.010618 
L 193.81862 83.232634 
L 200.162191 73.02712 
L 205.155457 66.84025 
L 210.021629 61.632416 
L 207.298139 68.482216 
L 203.219021 78.45176 
L 197.611265 91.598753 
L 190.802023 106.910719 
L 183.188544 125.08249 
L 175.214994 141.804344 
L 160.042237 166.631705 
L 153.7282 176.126589 
L 148.772792 182.005134 
L 143.998116 186.93025 
L 146.816167 179.904573 
L 150.936806 169.915986 
L 156.578922 156.751159 
L 163.413356 141.295339 
L 171.041393 122.891409 
L 179.018016 108.319929 
L 186.877873 96.219774 
L 194.162426 85.48305 
L 200.446697 76.626668 
L 205.364066 70.177635 
L 210.04707 64.510468 
L 207.134561 71.666892 
L 202.972553 81.67618 
L 197.296284 94.827751 
L 190.436907 110.169824 
L 182.794592 127.588571 
L 174.815189 140.878488 
L 166.964212 152.642398 
L 159.699681 163.244752 
L 153.445406 172.033122 
L 148.566257 178.424057 
L 143.975096 183.999072 
L 146.981955 176.606227 
L 151.185181 166.528217 
L 156.895394 153.351744 
L 163.779463 137.962671 
L 171.435776 121.452259 
L 180.218043 107.442625 
L 190.67379 92.139973 
L 200.33278 78.645837 
L 208.631514 68.057154 
L 215.085847 60.924304 
L 219.319239 56.9446 
L 221.084714 55.458342 
L 216.949914 65.437479 
L 211.290861 78.578497 
L 203.632264 95.225866 
L 194.420919 113.83284 
L 184.194213 131.521932 
L 173.548765 145.104975 
L 153.474039 171.127174 
L 145.215909 181.100582 
L 138.813011 187.917036 
L 134.638884 191.768415 
L 132.937046 193.179464 
L 137.197348 182.935236 
L 142.910945 169.708729 
L 150.614242 152.994663 
L 159.857835 134.248836 
L 170.102456 118.471515 
L 191.180593 92.465023 
L 200.784421 80.683958 
L 209.001643 71.082879 
L 215.352873 64.274995 
L 221.105721 58.638906 
L 216.720072 69.054551 
L 210.952141 82.254416 
L 203.204426 98.901389 
L 193.928924 117.454314 
L 183.666762 131.616031 
L 173.01663 144.040949 
L 162.599851 156.380823 
L 153.024132 167.966313 
L 144.848117 177.505394 
L 138.54879 184.284914 
L 132.919269 189.844358 
L 137.430104 179.128034 
L 143.252158 165.814386 
L 151.044007 149.089207 
L 160.351079 130.99409 
L 170.630404 117.435128 
L 182.348732 103.938852 
L 207.286588 74.917845 
L 217.454722 64.094763 
L 225.263716 56.769157 
L 232.146199 51.252706 
L 226.35138 64.82849 
L 219.006425 81.155679 
L 209.211804 101.063643 
L 197.538928 121.640769 
L 184.668787 135.830149 
L 171.352219 148.543253 
L 158.366103 161.794215 
L 146.468044 174.679097 
L 136.352166 184.97679 
L 128.608624 192.026675 
L 121.880811 197.317359 
L 127.831693 183.377257 
L 135.243766 166.920133 
L 145.092839 146.916229 
L 156.804323 127.848153 
L 169.694976 114.010802 
L 183.012764 101.525368 
L 195.980736 88.917298 
L 207.842347 76.666125 
L 217.905598 66.640703 
L 225.583403 59.667648 
L 232.156301 54.234071 
L 226.049574 68.417455 
L 218.570654 84.887674 
L 208.66749 104.841937 
L 196.917827 122.538494 
L 184.007134 135.876028 
L 170.688614 147.8675 
L 157.739261 159.937033 
L 145.914533 171.970057 
L 135.904279 181.946439 
L 128.29249 188.905862 
L 121.87475 194.263792 
L 128.137098 179.713851 
L 135.68259 163.104872 
L 145.639482 143.066635 
L 157.426893 126.256645 
L 170.357153 113.029962 
L 185.007794 99.90475 
L 200.524106 85.417313 
L 214.668999 71.410611 
L 226.617269 60.48048 
L 235.67186 53.182063 
L 243.186678 47.930076 
L 241.208495 52.572921 
L 235.48539 65.670142 
L 226.351244 85.243108 
L 214.338938 108.140883 
L 200.149265 126.510559 
L 184.610041 140.289965 
L 168.627816 152.447549 
L 153.134985 164.9956 
L 139.03539 178.007354 
L 127.151593 188.553778 
L 118.176889 195.650717 
L 110.848817 200.69094 
L 112.922964 195.82947 
L 118.736294 182.545715 
L 127.949661 162.832345 
L 140.025561 139.824628 
L 154.259494 123.036598 
L 169.821061 109.294787 
L 185.802407 97.234319 
L 201.27119 85.18572 
L 227.143859 62.533504 
L 236.038347 55.531225 
L 243.179405 50.430015 
L 241.00937 55.477115 
L 235.106029 68.901593 
L 225.813779 88.669652 
L 213.674725 110.959233 
L 199.397054 126.935879 
L 183.813715 140.387522 
L 167.833833 152.075792 
L 152.389664 163.647278 
L 126.628667 186.115886 
L 117.814721 193.127287 
L 110.860939 198.155484 
L 113.126783 192.879264 
L 119.119919 179.247708 
L 128.490711 159.329701 
L 140.692472 137.489782 
L 155.013359 121.803337 
L 170.617899 108.413829 
L 188.192265 95.611215 
L 206.181084 81.842474 
L 222.46846 67.808395 
L 236.104196 56.846795 
L 246.292791 49.648565 
L 254.186751 44.78744 
L 251.431587 51.164698 
L 244.33509 67.075027 
L 233.311267 89.799954 
L 219.003241 114.28559 
L 202.245734 130.834629 
L 184.016369 144.595238 
L 165.378638 156.294636 
L 147.419856 168.29453 
L 131.187727 181.474753 
L 117.629225 192.168769 
L 107.535346 199.183916 
L 99.860461 203.865748 
L 102.727204 197.21783 
L 109.927945 181.061168 
L 121.042596 158.172391 
L 135.422736 134.820261 
L 152.229435 118.546849 
L 170.482199 104.81296 
L 189.116173 93.142027 
L 207.044261 81.50959 
L 236.701319 58.500943 
L 246.700113 51.550155 
L 254.155642 46.855873 
L 251.177425 53.708447 
L 243.872704 70.009814 
L 232.667631 92.939008 
L 218.215904 115.170949 
L 201.360629 131.185931 
L 183.085134 144.693382 
L 164.4556 156.066315 
L 146.558864 167.289307 
L 117.036465 190.219937 
L 107.133123 197.187945 
L 99.897223 201.803928 
L 102.986805 194.686259 
L 110.395239 178.152749 
L 121.690323 155.072282 
L 136.213106 133.39922 
L 153.116339 117.525538 
L 171.413896 104.074541 
L 191.898561 91.628624 
L 212.315394 78.280316 
L 230.672912 64.109752 
L 245.900146 53.178823 
L 257.108749 46.14364 
L 265.12704 41.735791 
L 261.468946 50.140419 
L 252.883945 69.058924 
L 239.872881 94.815668 
L 223.194814 118.587766 
L 203.822732 135.089759 
L 182.886791 148.719476 
L 161.608383 159.937237 
L 141.228878 171.640766 
L 122.937205 185.071676 
L 107.800489 195.835067 
L 96.701799 202.714633 
L 88.93511 206.938012 
L 92.720216 198.222227 
L 101.423121 179.00659 
L 114.536104 153.088398 
L 131.29416 130.644596 
L 150.719634 114.19856 
L 171.679254 100.569082 
L 192.950249 89.358747 
L 213.291679 77.944668 
L 231.516838 65.047953 
L 246.56248 54.5517 
L 257.55085 47.717955 
L 265.065653 43.496616 
L 261.153676 52.426116 
L 252.333185 71.751647 
L 239.118763 97.696013 
L 222.281332 119.133137 
L 202.803178 135.39816 
L 181.820646 148.824496 
L 160.557844 159.774791 
L 140.255234 170.883704 
L 107.14324 194.240146 
L 96.265592 201.076034 
L 89.002951 205.204454 
L 93.041657 195.980624 
L 101.97941 176.40351 
L 115.294787 150.317501 
L 132.210976 129.438492 
L 151.741096 113.268561 
L 172.745772 99.883752 
L 196.122484 87.885338 
L 218.918412 74.732831 
L 239.269807 60.371083 
L 255.989382 49.507643 
L 268.101725 42.694506 
L 275.988214 38.825815 
L 271.302267 49.562 
L 261.115743 71.69898 
L 246.022919 100.259559 
L 226.904301 122.57844 
L 204.875258 139.182675 
L 181.220954 152.54411 
L 157.321365 163.25871 
L 134.570782 175.008328 
L 114.296461 188.757703 
L 97.681193 199.488424 
L 85.694305 206.17673 
L 78.092086 209.85626 
L 82.920265 198.779358 
L 93.237967 176.356976 
L 108.443264 147.668458 
L 127.649087 126.551261 
L 149.734979 109.980465 
L 173.412462 96.615901 
L 197.300205 85.887732 
L 220.00461 74.383608 
L 240.201114 61.141007 
L 256.711466 50.671228 
L 268.57246 44.040527 
L 275.89013 40.34165 
L 270.919897 51.618219 
L 260.471395 74.098204 
L 245.154183 102.82999 
L 225.861858 123.06827 
L 203.719925 139.486665 
L 180.020131 152.680828 
L 156.145109 163.198216 
L 133.487715 174.481684 
L 113.369767 187.700028 
L 96.964936 198.164589 
L 85.230271 204.784408 
L 78.197418 208.374677 
L 83.309523 196.770814 
L 93.888443 174.029926 
L 109.317009 145.217511 
L 128.695128 125.500258 
L 150.89229 109.153616 
L 174.613526 96.012261 
L 200.859222 84.479092 
L 225.980949 71.176931 
L 248.246119 56.618066 
L 266.355796 45.915041 
L 279.25347 39.362981 
L 286.751002 36.073323 
L 280.913457 49.401883 
L 269.014624 74.790733 
L 251.748674 105.888109 
L 230.122893 126.534266 
L 205.398917 143.122506 
L 179.019128 156.09452 
L 152.52251 166.342033 
L 127.454859 178.459074 
L 105.278609 192.493754 
L 87.287509 203.066921 
L 74.53115 209.49319 
L 67.350643 212.617231 
L 73.345402 198.919441 
L 85.388276 173.262424 
L 102.776692 142.621169 
L 124.496219 122.519542 
L 149.279751 105.947749 
L 175.681433 92.971591 
L 202.161003 82.675839 
L 227.173659 70.82997 
L 249.260176 57.259464 
L 267.13204 46.913778 
L 279.746616 40.533755 
L 286.367977 37.500846 
L 286.367977 37.500846 
" clip-path="url(#pd29375ec11)" style="fill: none; stroke-dasharray: 2.96,1.28; stroke-dashoffset: 0; stroke: #000000; stroke-width: 0.8"/>
   </g>
   <g id="line2d_35">
    <path d="M 56.380625 124.44806 
L 297.72102 124.44806 
" clip-path="url(#pd29375ec11)" style="fill: none; stroke: #000000; stroke-width: 0.4; stroke-linecap: square"/>
   </g>
   <g id="line2d_36">
    <path d="M 177.016535 221.707812 
L 177.016535 25.587812 
" clip-path="url(#pd29375ec11)" style="fill: none; stroke: #000000; stroke-width: 0.4; stroke-linecap: square"/>
   </g>
   <g id="patch_3">
    <path d="M 56.380625 221.707812 
L 56.380625 25.587812 
" style="fill: none; stroke: #000000; stroke-width: 0.8; stroke-linejoin: miter; stroke-linecap: square"/>
   </g>
   <g id="patch_4">
    <path d="M 297.72102 221.707812 
L 297.72102 25.587812 
" style="fill: none; stroke: #000000; stroke-width: 0.8; stroke-linejoin: miter; stroke-linecap: square"/>
   </g>
   <g id="patch_5">
    <path d="M 56.380625 221.707812 
L 297.72102 221.707812 
" style="fill: none; stroke: #000000; stroke-width: 0.8; stroke-linejoin: miter; stroke-linecap: square"/>
   </g>
   <g id="patch_6">
    <path d="M 56.380625 25.587812 
L 297.72102 25.587812 
" style="fill: none; stroke: #000000; stroke-width: 0.8; stroke-linejoin: miter; stroke-linecap: square"/>
   </g>
   <g id="text_19">
    <!-- Specimen ① -->
    <g transform="translate(138.148322 19.587812) scale(0.14 -0.14)">
     <defs>
      <path id="Cambria-53" d="M 663 972 
Q 725 697 831 537 
Q 938 378 1106 301 
Q 1275 225 1541 225 
Q 1906 225 2101 415 
Q 2297 606 2297 972 
Q 2297 1206 2215 1365 
Q 2134 1525 1950 1665 
Q 1766 1806 1388 1994 
Q 1022 2175 809 2348 
Q 597 2522 492 2725 
Q 388 2928 388 3169 
Q 388 3519 552 3776 
Q 716 4034 1033 4175 
Q 1350 4316 1759 4316 
Q 1997 4316 2223 4291 
Q 2450 4266 2791 4178 
L 2791 3334 
L 2481 3334 
Q 2409 3609 2300 3762 
Q 2191 3916 2044 3977 
Q 1897 4038 1663 4038 
Q 1459 4038 1298 3963 
Q 1138 3888 1044 3736 
Q 950 3584 950 3375 
Q 950 3153 1029 3000 
Q 1109 2847 1278 2715 
Q 1447 2584 1778 2422 
Q 2178 2222 2398 2050 
Q 2619 1878 2742 1658 
Q 2866 1438 2866 1144 
Q 2866 816 2762 589 
Q 2659 363 2476 220 
Q 2294 78 2039 14 
Q 1784 -50 1481 -50 
Q 991 -50 350 116 
L 350 972 
L 663 972 
z
" transform="scale(0.015625)"/>
      <path id="Cambria-70" d="M 1150 94 
L 1150 -566 
Q 1150 -769 1164 -869 
Q 1178 -969 1214 -1026 
Q 1250 -1084 1317 -1121 
Q 1384 -1159 1534 -1191 
L 1534 -1344 
L 259 -1344 
L 259 -1191 
Q 372 -1159 442 -1126 
Q 513 -1094 550 -1030 
Q 588 -966 600 -856 
Q 613 -747 613 -566 
L 613 2116 
Q 613 2341 606 2436 
Q 600 2531 581 2593 
Q 563 2656 527 2697 
Q 491 2738 430 2766 
Q 369 2794 228 2822 
L 228 2988 
L 963 3016 
L 1153 3016 
L 1113 2506 
L 1159 2494 
Q 1353 2691 1465 2780 
Q 1578 2869 1698 2928 
Q 1819 2988 1930 3013 
Q 2041 3038 2166 3038 
Q 2681 3038 2957 2652 
Q 3234 2266 3234 1522 
Q 3234 1006 3078 654 
Q 2922 303 2623 126 
Q 2325 -50 1913 -50 
Q 1681 -50 1493 -11 
Q 1306 28 1150 94 
z
M 1150 1125 
Q 1150 825 1187 662 
Q 1225 500 1320 398 
Q 1416 297 1545 247 
Q 1675 197 1888 197 
Q 2266 197 2456 511 
Q 2647 825 2647 1438 
Q 2647 2663 1931 2663 
Q 1756 2663 1629 2608 
Q 1503 2553 1378 2431 
Q 1253 2309 1201 2195 
Q 1150 2081 1150 1950 
L 1150 1125 
z
" transform="scale(0.015625)"/>
      <path id="Cambria-65" d="M 2800 531 
Q 2600 322 2433 203 
Q 2266 84 2066 17 
Q 1866 -50 1625 -50 
Q 981 -50 653 336 
Q 325 722 325 1475 
Q 325 1941 492 2297 
Q 659 2653 968 2847 
Q 1278 3041 1681 3041 
Q 1997 3041 2219 2941 
Q 2441 2841 2573 2667 
Q 2706 2494 2779 2230 
Q 2853 1966 2863 1541 
L 894 1541 
L 894 1484 
Q 894 1116 976 864 
Q 1059 613 1248 470 
Q 1438 328 1741 328 
Q 1997 328 2201 423 
Q 2406 519 2609 734 
L 2800 531 
z
M 2275 1800 
Q 2256 2138 2190 2352 
Q 2125 2566 1994 2680 
Q 1863 2794 1650 2794 
Q 1328 2794 1136 2536 
Q 944 2278 909 1800 
L 2275 1800 
z
" transform="scale(0.015625)"/>
      <path id="Cambria-63" d="M 2631 2916 
L 2631 2263 
L 2234 2263 
Q 2181 2466 2103 2583 
Q 2025 2700 1922 2747 
Q 1819 2794 1666 2794 
Q 1447 2794 1278 2653 
Q 1109 2513 1011 2225 
Q 913 1938 913 1522 
Q 913 1256 950 1036 
Q 988 816 1078 659 
Q 1169 503 1319 415 
Q 1469 328 1691 328 
Q 1906 328 2092 412 
Q 2278 497 2478 709 
L 2656 503 
Q 2497 328 2375 233 
Q 2253 138 2114 73 
Q 1975 9 1839 -20 
Q 1703 -50 1544 -50 
Q 953 -50 640 342 
Q 328 734 328 1475 
Q 328 1938 503 2295 
Q 678 2653 993 2847 
Q 1309 3041 1722 3041 
Q 1978 3041 2195 3011 
Q 2413 2981 2631 2916 
z
" transform="scale(0.015625)"/>
      <path id="Cambria-69" d="M 1197 4213 
L 1197 3606 
L 622 3606 
L 622 4213 
L 1197 4213 
z
M 303 153 
Q 425 191 476 219 
Q 528 247 564 297 
Q 600 347 620 450 
Q 641 553 641 772 
L 641 2134 
Q 641 2334 634 2456 
Q 628 2578 590 2651 
Q 553 2725 476 2761 
Q 400 2797 259 2822 
L 259 2988 
L 988 3016 
L 1178 3016 
L 1178 781 
Q 1178 513 1203 408 
Q 1228 303 1298 248 
Q 1369 194 1528 153 
L 1528 0 
L 303 0 
L 303 153 
z
" transform="scale(0.015625)"/>
      <path id="Cambria-6d" d="M 1147 2506 
L 1191 2494 
Q 1378 2681 1498 2776 
Q 1619 2872 1731 2930 
Q 1844 2988 1942 3013 
Q 2041 3038 2144 3038 
Q 2456 3038 2653 2894 
Q 2850 2750 2925 2453 
Q 3159 2691 3304 2803 
Q 3450 2916 3601 2977 
Q 3753 3038 3928 3038 
Q 4138 3038 4289 2977 
Q 4441 2916 4545 2789 
Q 4650 2663 4698 2472 
Q 4747 2281 4747 1959 
L 4747 781 
Q 4747 544 4762 453 
Q 4778 363 4808 313 
Q 4838 263 4897 227 
Q 4956 191 5097 153 
L 5097 0 
L 3869 0 
L 3869 153 
Q 3991 191 4044 219 
Q 4097 247 4133 297 
Q 4169 347 4189 451 
Q 4209 556 4209 769 
L 4209 1588 
Q 4209 1853 4195 2026 
Q 4181 2200 4151 2303 
Q 4122 2406 4080 2465 
Q 4038 2525 3984 2569 
Q 3931 2613 3859 2638 
Q 3788 2663 3669 2663 
Q 3544 2663 3436 2613 
Q 3328 2563 3201 2444 
Q 3075 2325 3019 2204 
Q 2963 2084 2963 1922 
L 2963 781 
Q 2963 544 2978 453 
Q 2994 363 3023 313 
Q 3053 263 3112 227 
Q 3172 191 3313 153 
L 3313 0 
L 2084 0 
L 2084 153 
Q 2206 191 2259 219 
Q 2313 247 2348 297 
Q 2384 347 2404 451 
Q 2425 556 2425 769 
L 2425 1588 
Q 2425 1866 2409 2041 
Q 2394 2216 2361 2322 
Q 2328 2428 2276 2493 
Q 2225 2559 2172 2593 
Q 2119 2628 2047 2645 
Q 1975 2663 1884 2663 
Q 1756 2663 1643 2605 
Q 1531 2547 1414 2437 
Q 1297 2328 1237 2209 
Q 1178 2091 1178 1953 
L 1178 781 
Q 1178 603 1187 509 
Q 1197 416 1217 362 
Q 1238 309 1269 276 
Q 1300 244 1358 214 
Q 1416 184 1531 153 
L 1531 0 
L 306 0 
L 306 153 
Q 425 191 476 219 
Q 528 247 565 297 
Q 603 347 622 450 
Q 641 553 641 772 
L 641 2134 
Q 641 2334 634 2456 
Q 628 2578 590 2651 
Q 553 2725 476 2761 
Q 400 2797 259 2822 
L 259 2988 
L 991 3016 
L 1181 3016 
L 1147 2506 
z
" transform="scale(0.015625)"/>
      <path id="Cambria-6e" d="M 3347 0 
L 2116 0 
L 2116 153 
Q 2238 191 2291 219 
Q 2344 247 2380 297 
Q 2416 347 2436 451 
Q 2456 556 2456 769 
L 2456 1588 
Q 2456 1806 2443 1984 
Q 2431 2163 2401 2277 
Q 2372 2391 2330 2455 
Q 2288 2519 2230 2564 
Q 2172 2609 2097 2636 
Q 2022 2663 1900 2663 
Q 1778 2663 1668 2614 
Q 1559 2566 1428 2447 
Q 1297 2328 1237 2212 
Q 1178 2097 1178 1947 
L 1178 781 
Q 1178 513 1203 408 
Q 1228 303 1298 248 
Q 1369 194 1528 153 
L 1528 0 
L 303 0 
L 303 153 
Q 425 191 476 219 
Q 528 247 564 297 
Q 600 347 620 450 
Q 641 553 641 772 
L 641 2134 
Q 641 2334 634 2456 
Q 628 2578 590 2651 
Q 553 2725 476 2761 
Q 400 2797 259 2822 
L 259 2988 
L 991 3016 
L 1181 3016 
L 1147 2506 
L 1191 2494 
Q 1422 2728 1564 2828 
Q 1706 2928 1851 2983 
Q 1997 3038 2159 3038 
Q 2328 3038 2461 2998 
Q 2594 2959 2695 2878 
Q 2797 2797 2862 2676 
Q 2928 2556 2961 2387 
Q 2994 2219 2994 1959 
L 2994 781 
Q 2994 566 3006 469 
Q 3019 372 3050 319 
Q 3081 266 3140 230 
Q 3200 194 3347 153 
L 3347 0 
z
" transform="scale(0.015625)"/>
      <path id="Cambria-20" transform="scale(0.015625)"/>
      <path id="Cambria-2460" d="M 313 2131 
Q 313 2619 439 3070 
Q 566 3522 794 3914 
Q 1022 4306 1345 4628 
Q 1669 4950 2059 5179 
Q 2450 5409 2901 5536 
Q 3353 5663 3841 5663 
Q 4328 5663 4779 5536 
Q 5231 5409 5623 5179 
Q 6016 4950 6337 4628 
Q 6659 4306 6889 3914 
Q 7119 3522 7245 3070 
Q 7372 2619 7372 2131 
Q 7372 1644 7245 1192 
Q 7119 741 6889 350 
Q 6659 -41 6337 -364 
Q 6016 -688 5623 -916 
Q 5231 -1144 4779 -1270 
Q 4328 -1397 3841 -1397 
Q 3353 -1397 2901 -1270 
Q 2450 -1144 2059 -916 
Q 1669 -688 1345 -364 
Q 1022 -41 794 350 
Q 566 741 439 1192 
Q 313 1644 313 2131 
z
M 594 2131 
Q 594 1678 709 1259 
Q 825 841 1036 477 
Q 1247 113 1544 -187 
Q 1841 -488 2202 -700 
Q 2563 -913 2977 -1030 
Q 3391 -1147 3841 -1147 
Q 4288 -1147 4703 -1030 
Q 5119 -913 5480 -700 
Q 5841 -488 6137 -187 
Q 6434 113 6646 477 
Q 6859 841 6975 1259 
Q 7091 1678 7091 2131 
Q 7091 2584 6975 3003 
Q 6859 3422 6646 3787 
Q 6434 4153 6137 4451 
Q 5841 4750 5480 4964 
Q 5119 5178 4703 5295 
Q 4288 5413 3841 5413 
Q 3391 5413 2977 5295 
Q 2563 5178 2202 4964 
Q 1841 4750 1544 4451 
Q 1247 4153 1036 3787 
Q 825 3422 709 3003 
Q 594 2584 594 2131 
z
M 4125 1031 
Q 4125 891 4140 819 
Q 4156 747 4181 703 
L 4181 706 
Q 4203 672 4231 648 
Q 4259 625 4309 608 
Q 4359 591 4437 577 
Q 4516 563 4634 553 
L 4634 356 
L 3069 356 
L 3069 553 
Q 3241 572 3342 597 
Q 3444 622 3495 673 
Q 3547 725 3561 809 
Q 3575 894 3575 1031 
L 3575 3203 
Q 3575 3384 3459 3384 
Q 3388 3384 3272 3323 
Q 3156 3263 3006 3163 
L 2866 3391 
L 3950 4016 
L 4144 4016 
Q 4138 3891 4131 3708 
Q 4125 3525 4125 3300 
L 4125 1031 
z
" transform="scale(0.015625)"/>
     </defs>
     <use xlink:href="#Cambria-53"/>
     <use xlink:href="#Cambria-70" x="49.609375"/>
     <use xlink:href="#Cambria-65" x="105.224609"/>
     <use xlink:href="#Cambria-63" x="154.003906"/>
     <use xlink:href="#Cambria-69" x="198.095703"/>
     <use xlink:href="#Cambria-6d" x="225.878906"/>
     <use xlink:href="#Cambria-65" x="309.082031"/>
     <use xlink:href="#Cambria-6e" x="357.861328"/>
     <use xlink:href="#Cambria-20" x="413.671875"/>
     <use xlink:href="#Cambria-2460" x="435.693359"/>
    </g>
   </g>
   <g id="legend_1">
    <g id="patch_7">
     <path d="M 62.680625 59.905937 
L 163.189531 59.905937 
Q 164.989531 59.905937 164.989531 58.105937 
L 164.989531 31.887812 
Q 164.989531 30.087812 163.189531 30.087812 
L 62.680625 30.087812 
Q 60.880625 30.087812 60.880625 31.887812 
L 60.880625 58.105937 
Q 60.880625 59.905937 62.680625 59.905937 
z
" style="fill: #ffffff; opacity: 0.8; stroke: #cccccc; stroke-linejoin: miter"/>
    </g>
    <g id="line2d_37">
     <path d="M 64.480625 36.837812 
L 73.480625 36.837812 
L 82.480625 36.837812 
" style="fill: none; stroke: #ff0000; stroke-linecap: square"/>
    </g>
    <g id="text_20">
     <!-- BiLSTM prediction -->
     <g transform="translate(89.680625 39.987812) scale(0.09 -0.09)">
      <defs>
       <path id="Cambria-42" d="M 378 0 
L 378 153 
Q 572 203 637 264 
Q 703 325 723 437 
Q 744 550 744 781 
L 744 3484 
Q 744 3700 728 3798 
Q 713 3897 677 3951 
Q 641 4006 581 4039 
Q 522 4072 378 4113 
L 378 4266 
L 2088 4266 
Q 2584 4266 2886 4159 
Q 3188 4053 3334 3845 
Q 3481 3638 3481 3309 
Q 3481 3038 3376 2838 
Q 3272 2638 3103 2506 
Q 2934 2375 2669 2263 
L 2669 2234 
Q 3094 2106 3312 1839 
Q 3531 1572 3531 1203 
Q 3531 778 3342 509 
Q 3153 241 2812 120 
Q 2472 0 1988 0 
L 378 0 
z
M 1875 2353 
Q 2350 2353 2601 2583 
Q 2853 2813 2853 3250 
Q 2853 3466 2783 3608 
Q 2713 3750 2589 3834 
Q 2466 3919 2297 3955 
Q 2128 3991 1931 3991 
Q 1813 3991 1619 3984 
Q 1425 3978 1328 3972 
L 1328 2353 
L 1875 2353 
z
M 1328 297 
Q 1556 275 1838 275 
Q 2247 275 2473 378 
Q 2700 481 2801 682 
Q 2903 884 2903 1188 
Q 2903 1491 2792 1687 
Q 2681 1884 2450 1981 
Q 2219 2078 1813 2078 
L 1328 2078 
L 1328 297 
z
" transform="scale(0.015625)"/>
       <path id="Cambria-4c" d="M 1328 288 
L 2147 288 
Q 2281 288 2372 303 
Q 2463 319 2527 351 
Q 2591 384 2642 442 
Q 2694 500 2741 594 
Q 2788 688 2830 830 
Q 2872 972 2934 1256 
L 3250 1256 
L 3188 0 
L 378 0 
L 378 153 
Q 572 203 637 264 
Q 703 325 723 437 
Q 744 550 744 781 
L 744 3484 
Q 744 3700 728 3798 
Q 713 3897 677 3951 
Q 641 4006 581 4039 
Q 522 4072 378 4113 
L 378 4266 
L 1694 4266 
L 1694 4113 
Q 1556 4075 1498 4045 
Q 1441 4016 1403 3966 
Q 1366 3916 1347 3812 
Q 1328 3709 1328 3484 
L 1328 288 
z
" transform="scale(0.015625)"/>
       <path id="Cambria-54" d="M 206 4266 
L 3588 4266 
L 3588 3178 
L 3281 3178 
Q 3213 3447 3145 3603 
Q 3078 3759 3003 3840 
Q 2928 3922 2842 3956 
Q 2756 3991 2584 3991 
L 2188 3991 
L 2188 791 
Q 2188 606 2208 497 
Q 2228 388 2270 323 
Q 2313 259 2384 223 
Q 2456 188 2609 153 
L 2609 0 
L 1181 0 
L 1181 153 
Q 1275 175 1347 200 
Q 1419 225 1464 261 
Q 1509 297 1539 353 
Q 1569 409 1586 506 
Q 1603 603 1603 791 
L 1603 3991 
L 1209 3991 
Q 1063 3991 967 3962 
Q 872 3934 790 3845 
Q 709 3756 642 3592 
Q 575 3428 516 3178 
L 206 3178 
L 206 4266 
z
" transform="scale(0.015625)"/>
       <path id="Cambria-4d" d="M 4841 4113 
Q 4703 4078 4642 4043 
Q 4581 4009 4545 3957 
Q 4509 3906 4492 3803 
Q 4475 3700 4475 3484 
L 4475 781 
Q 4475 572 4489 475 
Q 4503 378 4536 322 
Q 4569 266 4633 228 
Q 4697 191 4841 153 
L 4841 0 
L 3538 0 
L 3538 153 
Q 3716 197 3784 253 
Q 3853 309 3878 418 
Q 3903 528 3903 781 
L 3903 1978 
Q 3903 2450 3917 2933 
Q 3931 3416 3950 3594 
L 3897 3594 
L 2659 497 
L 2300 497 
L 1150 3644 
L 1097 3644 
Q 1113 3453 1127 2953 
Q 1141 2453 1141 1925 
L 1141 781 
Q 1141 572 1155 475 
Q 1169 378 1201 322 
Q 1234 266 1298 228 
Q 1363 191 1506 153 
L 1506 0 
L 366 0 
L 366 153 
Q 559 203 625 264 
Q 691 325 711 437 
Q 731 550 731 781 
L 731 3484 
Q 731 3700 715 3798 
Q 700 3897 664 3951 
Q 628 4006 568 4039 
Q 509 4072 366 4113 
L 366 4266 
L 1481 4266 
L 2578 1225 
L 3784 4266 
L 4841 4266 
L 4841 4113 
z
" transform="scale(0.015625)"/>
       <path id="Cambria-72" d="M 1147 2469 
L 1191 2459 
Q 1363 2669 1509 2789 
Q 1656 2909 1826 2975 
Q 1997 3041 2213 3041 
Q 2394 3041 2541 3022 
L 2541 2303 
L 2188 2303 
Q 2113 2472 2028 2548 
Q 1944 2625 1797 2625 
Q 1684 2625 1573 2559 
Q 1463 2494 1359 2369 
Q 1256 2244 1217 2134 
Q 1178 2025 1178 1875 
L 1178 781 
Q 1178 497 1212 389 
Q 1247 281 1326 231 
Q 1406 181 1566 153 
L 1566 0 
L 306 0 
L 306 153 
Q 425 191 476 219 
Q 528 247 565 297 
Q 603 347 622 450 
Q 641 553 641 772 
L 641 2134 
Q 641 2334 634 2456 
Q 628 2578 590 2651 
Q 553 2725 476 2761 
Q 400 2797 259 2822 
L 259 2984 
L 991 3016 
L 1181 3016 
L 1147 2469 
z
" transform="scale(0.015625)"/>
       <path id="Cambria-64" d="M 2413 3397 
Q 2413 3697 2408 3815 
Q 2403 3934 2383 4017 
Q 2363 4100 2327 4147 
Q 2291 4194 2230 4222 
Q 2169 4250 2009 4278 
L 2009 4441 
L 2766 4472 
L 2950 4472 
L 2950 853 
Q 2950 609 2959 504 
Q 2969 400 3000 337 
Q 3031 275 3098 236 
Q 3166 197 3334 163 
L 3334 0 
L 2597 -31 
L 2409 -31 
L 2447 481 
L 2400 494 
Q 2203 284 2058 179 
Q 1913 75 1748 12 
Q 1584 -50 1397 -50 
Q 884 -50 606 339 
Q 328 728 328 1463 
Q 328 1975 509 2333 
Q 691 2691 998 2866 
Q 1306 3041 1691 3041 
Q 1897 3041 2065 3008 
Q 2234 2975 2413 2900 
L 2413 3397 
z
M 2413 1853 
Q 2413 2097 2391 2244 
Q 2369 2391 2317 2491 
Q 2266 2591 2178 2659 
Q 2091 2728 1986 2759 
Q 1881 2791 1734 2791 
Q 1334 2791 1125 2470 
Q 916 2150 916 1550 
Q 916 950 1087 637 
Q 1259 325 1609 325 
Q 1747 325 1837 348 
Q 1928 372 2015 423 
Q 2103 475 2193 565 
Q 2284 656 2326 731 
Q 2369 806 2391 903 
Q 2413 1000 2413 1153 
L 2413 1853 
z
" transform="scale(0.015625)"/>
       <path id="Cambria-74" d="M 116 2831 
Q 272 2856 369 2918 
Q 466 2981 520 3079 
Q 575 3178 606 3326 
Q 638 3475 672 3759 
L 1116 3759 
L 1116 2988 
L 2125 2988 
L 2125 2672 
L 1116 2672 
L 1116 1281 
Q 1116 978 1141 798 
Q 1166 619 1234 517 
Q 1303 416 1390 372 
Q 1478 328 1616 328 
Q 1741 328 1850 379 
Q 1959 431 2066 528 
L 2206 359 
Q 1984 144 1786 47 
Q 1588 -50 1375 -50 
Q 972 -50 775 189 
Q 578 428 578 938 
L 578 2672 
L 116 2672 
L 116 2831 
z
" transform="scale(0.015625)"/>
       <path id="Cambria-6f" d="M 1663 -50 
Q 1013 -50 670 333 
Q 328 716 328 1466 
Q 328 1981 508 2337 
Q 688 2694 1000 2867 
Q 1313 3041 1713 3041 
Q 2381 3041 2725 2652 
Q 3069 2263 3069 1534 
Q 3069 1016 2897 659 
Q 2725 303 2409 126 
Q 2094 -50 1663 -50 
z
M 919 1531 
Q 919 888 1123 542 
Q 1328 197 1709 197 
Q 1919 197 2066 298 
Q 2213 400 2305 572 
Q 2397 744 2437 970 
Q 2478 1197 2478 1444 
Q 2478 1903 2376 2206 
Q 2275 2509 2100 2651 
Q 1925 2794 1700 2794 
Q 1322 2794 1120 2466 
Q 919 2138 919 1531 
z
" transform="scale(0.015625)"/>
      </defs>
      <use xlink:href="#Cambria-42"/>
      <use xlink:href="#Cambria-69" x="61.132812"/>
      <use xlink:href="#Cambria-4c" x="88.916016"/>
      <use xlink:href="#Cambria-53" x="141.953125"/>
      <use xlink:href="#Cambria-54" x="190.3125"/>
      <use xlink:href="#Cambria-4d" x="249.589844"/>
      <use xlink:href="#Cambria-20" x="331.132812"/>
      <use xlink:href="#Cambria-70" x="353.154297"/>
      <use xlink:href="#Cambria-72" x="408.769531"/>
      <use xlink:href="#Cambria-65" x="450.126953"/>
      <use xlink:href="#Cambria-64" x="498.90625"/>
      <use xlink:href="#Cambria-69" x="554.375"/>
      <use xlink:href="#Cambria-63" x="582.158203"/>
      <use xlink:href="#Cambria-74" x="626.25"/>
      <use xlink:href="#Cambria-69" x="660.087891"/>
      <use xlink:href="#Cambria-6f" x="687.871094"/>
      <use xlink:href="#Cambria-6e" x="740.947266"/>
     </g>
    </g>
    <g id="line2d_38">
     <path d="M 64.480625 51.191406 
L 73.480625 51.191406 
L 82.480625 51.191406 
" style="fill: none; stroke-dasharray: 2.96,1.28; stroke-dashoffset: 0; stroke: #000000; stroke-width: 0.8"/>
    </g>
    <g id="text_21">
     <!-- Reference ① -->
     <g transform="translate(89.680625 54.341406) scale(0.09 -0.09)">
      <defs>
       <path id="Cambria-52" d="M 1331 1853 
L 1331 791 
Q 1331 566 1348 464 
Q 1366 363 1400 311 
Q 1434 259 1493 226 
Q 1553 194 1697 153 
L 1697 0 
L 378 0 
L 378 153 
Q 572 203 637 264 
Q 703 325 723 437 
Q 744 550 744 781 
L 744 3484 
Q 744 3700 728 3798 
Q 713 3897 677 3951 
Q 641 4006 581 4039 
Q 522 4072 378 4113 
L 378 4266 
L 1925 4266 
Q 2656 4266 3018 4000 
Q 3381 3734 3381 3175 
Q 3381 2747 3145 2447 
Q 2909 2147 2438 1978 
L 2438 1953 
Q 2628 1875 2764 1729 
Q 2900 1584 3066 1278 
L 3347 766 
Q 3469 541 3556 422 
Q 3644 303 3734 240 
Q 3825 178 3975 153 
L 3975 0 
L 3109 0 
Q 2991 166 2884 356 
Q 2778 547 2675 744 
L 2400 1266 
Q 2275 1503 2195 1615 
Q 2116 1728 2048 1773 
Q 1981 1819 1904 1836 
Q 1828 1853 1675 1853 
L 1331 1853 
z
M 1331 3978 
L 1331 2122 
L 1684 2122 
Q 1956 2122 2125 2161 
Q 2294 2200 2437 2309 
Q 2581 2419 2667 2614 
Q 2753 2809 2753 3094 
Q 2753 3391 2651 3587 
Q 2550 3784 2344 3887 
Q 2138 3991 1788 3991 
Q 1506 3991 1331 3978 
z
" transform="scale(0.015625)"/>
       <path id="Cambria-66" d="M 1909 2672 
L 1163 2672 
L 1163 781 
Q 1163 572 1183 465 
Q 1203 359 1242 304 
Q 1281 250 1345 217 
Q 1409 184 1550 153 
L 1550 0 
L 272 0 
L 272 153 
Q 409 191 468 225 
Q 528 259 561 312 
Q 594 366 609 466 
Q 625 566 625 781 
L 625 2672 
L 247 2672 
L 247 2831 
Q 366 2850 405 2861 
Q 444 2872 480 2894 
Q 516 2916 542 2956 
Q 569 2997 589 3076 
Q 609 3156 622 3300 
Q 650 3641 745 3853 
Q 841 4066 1023 4216 
Q 1206 4366 1414 4427 
Q 1622 4488 1903 4488 
Q 2150 4488 2322 4453 
L 2322 3888 
L 2013 3888 
Q 1953 4072 1873 4148 
Q 1794 4225 1650 4225 
Q 1547 4225 1476 4197 
Q 1406 4169 1347 4109 
Q 1288 4050 1245 3950 
Q 1203 3850 1183 3701 
Q 1163 3553 1163 3316 
L 1163 2988 
L 1909 2988 
L 1909 2672 
z
" transform="scale(0.015625)"/>
      </defs>
      <use xlink:href="#Cambria-52"/>
      <use xlink:href="#Cambria-65" x="60.359375"/>
      <use xlink:href="#Cambria-66" x="109.138672"/>
      <use xlink:href="#Cambria-65" x="139.412109"/>
      <use xlink:href="#Cambria-72" x="188.191406"/>
      <use xlink:href="#Cambria-65" x="229.548828"/>
      <use xlink:href="#Cambria-6e" x="278.328125"/>
      <use xlink:href="#Cambria-63" x="334.138672"/>
      <use xlink:href="#Cambria-65" x="378.230469"/>
      <use xlink:href="#Cambria-20" x="427.009766"/>
      <use xlink:href="#Cambria-2460" x="449.03125"/>
     </g>
    </g>
   </g>
  </g>
 </g>
 <defs>
  <clipPath id="pd29375ec11">
   <rect x="56.380625" y="25.587812" width="241.340395" height="196.12"/>
  </clipPath>
 </defs>
</svg>
