<?xml version="1.0" encoding="utf-8" standalone="no"?>
<!DOCTYPE svg PUBLIC "-//W3C//DTD SVG 1.1//EN"
  "http://www.w3.org/Graphics/SVG/1.1/DTD/svg11.dtd">
<svg xmlns:xlink="http://www.w3.org/1999/xlink" width="488.751562pt" height="416.844062pt" viewBox="0 0 488.751562 416.844062" xmlns="http://www.w3.org/2000/svg" version="1.1">
 <metadata>
  <rdf:RDF xmlns:dc="http://purl.org/dc/elements/1.1/" xmlns:cc="http://creativecommons.org/ns#" xmlns:rdf="http://www.w3.org/1999/02/22-rdf-syntax-ns#">
   <cc:Work>
    <dc:type rdf:resource="http://purl.org/dc/dcmitype/StillImage"/>
    <dc:date>2023-11-30T17:30:24.571215</dc:date>
    <dc:format>image/svg+xml</dc:format>
    <dc:creator>
     <cc:Agent>
      <dc:title>Matplotlib v3.7.1, https://matplotlib.org/</dc:title>
     </cc:Agent>
    </dc:creator>
   </cc:Work>
  </rdf:RDF>
 </metadata>
 <defs>
  <style type="text/css">*{stroke-linejoin: round; stroke-linecap: butt}</style>
 </defs>
 <g id="figure_1">
  <g id="patch_1">
   <path d="M 0 416.844062 
L 488.751562 416.844062 
L 488.751562 0 
L 0 0 
z
" style="fill: #ffffff"/>
  </g>
  <g id="axes_1">
   <g id="patch_2">
    <path d="M 61.991563 373.14 
L 481.551562 373.14 
L 481.551562 24.38 
L 61.991563 24.38 
z
" style="fill: #ffffff"/>
   </g>
   <g id="matplotlib.axis_1">
    <g id="xtick_1">
     <g id="line2d_1">
      <path d="M 66.121081 373.14 
L 66.121081 24.38 
" clip-path="url(#p2907b50399)" style="fill: none; stroke-dasharray: 0.8,1.32; stroke-dashoffset: 0; stroke: #b0b0b0; stroke-width: 0.8"/>
     </g>
     <g id="line2d_2">
      <defs>
       <path id="m1ce54ae73c" d="M 0 0 
L 0 3.5 
" style="stroke: #000000; stroke-width: 0.8"/>
      </defs>
      <g>
       <use xlink:href="#m1ce54ae73c" x="66.121081" y="373.14" style="stroke: #000000; stroke-width: 0.8"/>
      </g>
     </g>
     <g id="text_1">
      <!-- −80 -->
      <g transform="translate(54.492331 389.9225) scale(0.14 -0.14)">
       <defs>
        <path id="Cambria-2212" d="M 397 1613 
L 397 2047 
L 3147 2047 
L 3147 1613 
L 397 1613 
z
" transform="scale(0.015625)"/>
        <path id="Cambria-38" d="M 2475 2253 
L 2481 2213 
Q 2834 2075 3015 1811 
Q 3197 1547 3197 1175 
Q 3197 809 3022 531 
Q 2847 253 2514 101 
Q 2181 -50 1738 -50 
Q 1322 -50 1008 89 
Q 694 228 520 495 
Q 347 763 347 1125 
Q 347 1397 440 1597 
Q 534 1797 686 1926 
Q 838 2056 1069 2163 
L 1063 2203 
Q 391 2494 391 3200 
Q 391 3522 567 3775 
Q 744 4028 1070 4172 
Q 1397 4316 1794 4316 
Q 2244 4316 2550 4189 
Q 2856 4063 3011 3823 
Q 3166 3584 3166 3250 
Q 3166 2906 2997 2657 
Q 2828 2409 2475 2253 
z
M 978 3228 
Q 978 3044 1022 2881 
Q 1066 2719 1162 2600 
Q 1259 2481 1414 2411 
Q 1569 2341 1794 2341 
Q 2053 2341 2229 2442 
Q 2406 2544 2492 2739 
Q 2578 2934 2578 3191 
Q 2578 3472 2476 3667 
Q 2375 3863 2197 3956 
Q 2019 4050 1788 4050 
Q 1394 4050 1186 3836 
Q 978 3622 978 3228 
z
M 944 1178 
Q 944 975 991 798 
Q 1038 622 1139 494 
Q 1241 366 1400 291 
Q 1559 216 1788 216 
Q 2044 216 2226 320 
Q 2409 425 2504 631 
Q 2600 838 2600 1119 
Q 2600 1419 2497 1636 
Q 2394 1853 2206 1967 
Q 2019 2081 1772 2081 
Q 1541 2081 1383 2009 
Q 1225 1938 1126 1816 
Q 1028 1694 986 1530 
Q 944 1366 944 1178 
z
" transform="scale(0.015625)"/>
        <path id="Cambria-30" d="M 1738 -50 
Q 1063 -50 733 481 
Q 403 1013 403 2094 
Q 403 2669 504 3087 
Q 606 3506 789 3779 
Q 972 4053 1228 4184 
Q 1484 4316 1788 4316 
Q 2472 4316 2806 3787 
Q 3141 3259 3141 2191 
Q 3141 1084 2783 517 
Q 2425 -50 1738 -50 
z
M 1013 2188 
Q 1013 1169 1202 692 
Q 1391 216 1788 216 
Q 2166 216 2348 664 
Q 2531 1113 2531 2053 
Q 2531 2772 2437 3217 
Q 2344 3663 2176 3856 
Q 2009 4050 1772 4050 
Q 1556 4050 1411 3922 
Q 1266 3794 1177 3553 
Q 1088 3313 1050 2967 
Q 1013 2622 1013 2188 
z
" transform="scale(0.015625)"/>
       </defs>
       <use xlink:href="#Cambria-2212"/>
       <use xlink:href="#Cambria-38" x="55.371094"/>
       <use xlink:href="#Cambria-30" x="110.742188"/>
      </g>
     </g>
    </g>
    <g id="xtick_2">
     <g id="line2d_3">
      <path d="M 121.722745 373.14 
L 121.722745 24.38 
" clip-path="url(#p2907b50399)" style="fill: none; stroke-dasharray: 0.8,1.32; stroke-dashoffset: 0; stroke: #b0b0b0; stroke-width: 0.8"/>
     </g>
     <g id="line2d_4">
      <g>
       <use xlink:href="#m1ce54ae73c" x="121.722745" y="373.14" style="stroke: #000000; stroke-width: 0.8"/>
      </g>
     </g>
     <g id="text_2">
      <!-- −60 -->
      <g transform="translate(110.093995 389.9225) scale(0.14 -0.14)">
       <defs>
        <path id="Cambria-36" d="M 2847 4144 
L 2847 3991 
Q 2366 3991 1994 3784 
Q 1622 3578 1376 3178 
Q 1131 2778 1031 2228 
L 1063 2216 
Q 1325 2403 1579 2490 
Q 1834 2578 2131 2578 
Q 2484 2578 2732 2423 
Q 2981 2269 3106 1989 
Q 3231 1709 3231 1334 
Q 3231 928 3075 617 
Q 2919 306 2592 128 
Q 2266 -50 1788 -50 
Q 1103 -50 754 375 
Q 406 800 406 1628 
Q 406 2184 581 2668 
Q 756 3153 1078 3514 
Q 1400 3875 1825 4083 
Q 2250 4291 2719 4316 
L 2847 4144 
z
M 1916 2250 
Q 1763 2250 1620 2215 
Q 1478 2181 1353 2115 
Q 1228 2050 1109 1950 
Q 1072 1916 1053 1878 
Q 1022 1819 1012 1731 
Q 1003 1644 1003 1438 
Q 1003 841 1203 528 
Q 1403 216 1809 216 
Q 2044 216 2203 297 
Q 2363 378 2461 520 
Q 2559 663 2601 855 
Q 2644 1047 2644 1272 
Q 2644 1734 2453 1992 
Q 2263 2250 1916 2250 
z
" transform="scale(0.015625)"/>
       </defs>
       <use xlink:href="#Cambria-2212"/>
       <use xlink:href="#Cambria-36" x="55.371094"/>
       <use xlink:href="#Cambria-30" x="110.742188"/>
      </g>
     </g>
    </g>
    <g id="xtick_3">
     <g id="line2d_5">
      <path d="M 177.324409 373.14 
L 177.324409 24.38 
" clip-path="url(#p2907b50399)" style="fill: none; stroke-dasharray: 0.8,1.32; stroke-dashoffset: 0; stroke: #b0b0b0; stroke-width: 0.8"/>
     </g>
     <g id="line2d_6">
      <g>
       <use xlink:href="#m1ce54ae73c" x="177.324409" y="373.14" style="stroke: #000000; stroke-width: 0.8"/>
      </g>
     </g>
     <g id="text_3">
      <!-- −40 -->
      <g transform="translate(165.695659 389.9225) scale(0.14 -0.14)">
       <defs>
        <path id="Cambria-34" d="M 1613 153 
Q 1806 203 1872 264 
Q 1938 325 1958 437 
Q 1978 550 1978 781 
L 1978 1294 
L 241 1294 
L 241 1528 
L 2069 4288 
L 2516 4288 
L 2516 1597 
L 2581 1597 
Q 2763 1597 2841 1623 
Q 2919 1650 2970 1717 
Q 3022 1784 3066 1938 
L 3303 1938 
L 3266 1294 
L 2516 1294 
L 2516 781 
Q 2516 572 2530 475 
Q 2544 378 2576 322 
Q 2609 266 2673 228 
Q 2738 191 2881 153 
L 2881 0 
L 1613 0 
L 1613 153 
z
M 756 1597 
L 1978 1597 
L 1978 2375 
Q 1978 2669 1987 3033 
Q 1997 3397 2009 3581 
L 1978 3581 
L 756 1641 
L 756 1597 
z
" transform="scale(0.015625)"/>
       </defs>
       <use xlink:href="#Cambria-2212"/>
       <use xlink:href="#Cambria-34" x="55.371094"/>
       <use xlink:href="#Cambria-30" x="110.742188"/>
      </g>
     </g>
    </g>
    <g id="xtick_4">
     <g id="line2d_7">
      <path d="M 232.926073 373.14 
L 232.926073 24.38 
" clip-path="url(#p2907b50399)" style="fill: none; stroke-dasharray: 0.8,1.32; stroke-dashoffset: 0; stroke: #b0b0b0; stroke-width: 0.8"/>
     </g>
     <g id="line2d_8">
      <g>
       <use xlink:href="#m1ce54ae73c" x="232.926073" y="373.14" style="stroke: #000000; stroke-width: 0.8"/>
      </g>
     </g>
     <g id="text_4">
      <!-- −20 -->
      <g transform="translate(221.297323 389.9225) scale(0.14 -0.14)">
       <defs>
        <path id="Cambria-32" d="M 2194 500 
Q 2347 500 2440 519 
Q 2534 538 2590 581 
Q 2647 625 2680 695 
Q 2713 766 2763 913 
L 3028 913 
L 2975 0 
L 403 0 
L 403 150 
Q 538 478 766 822 
Q 994 1166 1413 1631 
Q 1775 2031 1934 2238 
Q 2109 2463 2195 2627 
Q 2281 2791 2318 2936 
Q 2356 3081 2356 3228 
Q 2356 3463 2281 3642 
Q 2206 3822 2051 3925 
Q 1897 4028 1663 4028 
Q 1078 4028 875 3378 
L 497 3378 
L 497 3978 
Q 875 4156 1204 4236 
Q 1534 4316 1797 4316 
Q 2378 4316 2675 4061 
Q 2972 3806 2972 3322 
Q 2972 3156 2939 3017 
Q 2906 2878 2836 2742 
Q 2766 2606 2647 2450 
Q 2528 2294 2384 2133 
Q 2241 1972 1888 1597 
Q 1294 969 1016 500 
L 2194 500 
z
" transform="scale(0.015625)"/>
       </defs>
       <use xlink:href="#Cambria-2212"/>
       <use xlink:href="#Cambria-32" x="55.371094"/>
       <use xlink:href="#Cambria-30" x="110.742188"/>
      </g>
     </g>
    </g>
    <g id="xtick_5">
     <g id="line2d_9">
      <path d="M 288.527738 373.14 
L 288.527738 24.38 
" clip-path="url(#p2907b50399)" style="fill: none; stroke-dasharray: 0.8,1.32; stroke-dashoffset: 0; stroke: #b0b0b0; stroke-width: 0.8"/>
     </g>
     <g id="line2d_10">
      <g>
       <use xlink:href="#m1ce54ae73c" x="288.527738" y="373.14" style="stroke: #000000; stroke-width: 0.8"/>
      </g>
     </g>
     <g id="text_5">
      <!-- 0 -->
      <g transform="translate(284.651488 389.9225) scale(0.14 -0.14)">
       <use xlink:href="#Cambria-30"/>
      </g>
     </g>
    </g>
    <g id="xtick_6">
     <g id="line2d_11">
      <path d="M 344.129402 373.14 
L 344.129402 24.38 
" clip-path="url(#p2907b50399)" style="fill: none; stroke-dasharray: 0.8,1.32; stroke-dashoffset: 0; stroke: #b0b0b0; stroke-width: 0.8"/>
     </g>
     <g id="line2d_12">
      <g>
       <use xlink:href="#m1ce54ae73c" x="344.129402" y="373.14" style="stroke: #000000; stroke-width: 0.8"/>
      </g>
     </g>
     <g id="text_6">
      <!-- 20 -->
      <g transform="translate(336.376902 389.9225) scale(0.14 -0.14)">
       <use xlink:href="#Cambria-32"/>
       <use xlink:href="#Cambria-30" x="55.371094"/>
      </g>
     </g>
    </g>
    <g id="xtick_7">
     <g id="line2d_13">
      <path d="M 399.731066 373.14 
L 399.731066 24.38 
" clip-path="url(#p2907b50399)" style="fill: none; stroke-dasharray: 0.8,1.32; stroke-dashoffset: 0; stroke: #b0b0b0; stroke-width: 0.8"/>
     </g>
     <g id="line2d_14">
      <g>
       <use xlink:href="#m1ce54ae73c" x="399.731066" y="373.14" style="stroke: #000000; stroke-width: 0.8"/>
      </g>
     </g>
     <g id="text_7">
      <!-- 40 -->
      <g transform="translate(391.978566 389.9225) scale(0.14 -0.14)">
       <use xlink:href="#Cambria-34"/>
       <use xlink:href="#Cambria-30" x="55.371094"/>
      </g>
     </g>
    </g>
    <g id="xtick_8">
     <g id="line2d_15">
      <path d="M 455.33273 373.14 
L 455.33273 24.38 
" clip-path="url(#p2907b50399)" style="fill: none; stroke-dasharray: 0.8,1.32; stroke-dashoffset: 0; stroke: #b0b0b0; stroke-width: 0.8"/>
     </g>
     <g id="line2d_16">
      <g>
       <use xlink:href="#m1ce54ae73c" x="455.33273" y="373.14" style="stroke: #000000; stroke-width: 0.8"/>
      </g>
     </g>
     <g id="text_8">
      <!-- 60 -->
      <g transform="translate(447.58023 389.9225) scale(0.14 -0.14)">
       <use xlink:href="#Cambria-36"/>
       <use xlink:href="#Cambria-30" x="55.371094"/>
      </g>
     </g>
    </g>
    <g id="text_9">
     <!-- Displacement (mm) -->
     <g transform="translate(212.424688 406.67125) scale(0.14 -0.14)">
      <defs>
       <path id="Cambria-44" d="M 375 0 
L 375 153 
Q 519 191 581 225 
Q 644 259 678 312 
Q 713 366 728 466 
Q 744 566 744 781 
L 744 3484 
Q 744 3703 728 3801 
Q 713 3900 677 3953 
Q 641 4006 581 4039 
Q 522 4072 375 4113 
L 375 4266 
L 1744 4266 
Q 2334 4266 2711 4136 
Q 3088 4006 3347 3753 
Q 3606 3500 3734 3123 
Q 3863 2747 3863 2225 
Q 3863 1697 3742 1295 
Q 3622 894 3391 622 
Q 3191 384 2900 231 
Q 2659 106 2343 53 
Q 2028 0 1506 0 
L 375 0 
z
M 1328 291 
Q 1453 278 1697 278 
Q 1959 278 2165 322 
Q 2372 366 2540 459 
Q 2709 553 2843 720 
Q 2978 888 3062 1105 
Q 3147 1322 3186 1587 
Q 3225 1853 3225 2169 
Q 3225 2803 3042 3211 
Q 2859 3619 2526 3806 
Q 2194 3994 1731 3994 
Q 1519 3994 1328 3981 
L 1328 291 
z
" transform="scale(0.015625)"/>
       <path id="Cambria-69" d="M 1197 4213 
L 1197 3606 
L 622 3606 
L 622 4213 
L 1197 4213 
z
M 303 153 
Q 425 191 476 219 
Q 528 247 564 297 
Q 600 347 620 450 
Q 641 553 641 772 
L 641 2134 
Q 641 2334 634 2456 
Q 628 2578 590 2651 
Q 553 2725 476 2761 
Q 400 2797 259 2822 
L 259 2988 
L 988 3016 
L 1178 3016 
L 1178 781 
Q 1178 513 1203 408 
Q 1228 303 1298 248 
Q 1369 194 1528 153 
L 1528 0 
L 303 0 
L 303 153 
z
" transform="scale(0.015625)"/>
       <path id="Cambria-73" d="M 2397 2303 
L 2097 2303 
Q 2028 2491 1934 2598 
Q 1841 2706 1722 2750 
Q 1603 2794 1431 2794 
Q 1181 2794 1032 2676 
Q 884 2559 884 2356 
Q 884 2213 943 2119 
Q 1003 2025 1128 1944 
Q 1253 1863 1569 1728 
Q 1888 1591 2061 1475 
Q 2234 1359 2332 1206 
Q 2431 1053 2431 841 
Q 2431 594 2347 425 
Q 2263 256 2109 150 
Q 1956 44 1745 -3 
Q 1534 -50 1284 -50 
Q 1022 -50 775 -11 
Q 528 28 294 91 
L 294 744 
L 600 744 
Q 684 456 850 326 
Q 1016 197 1306 197 
Q 1419 197 1526 220 
Q 1634 244 1718 298 
Q 1803 353 1853 447 
Q 1903 541 1903 681 
Q 1903 841 1840 941 
Q 1778 1041 1647 1123 
Q 1516 1206 1184 1347 
Q 900 1466 728 1578 
Q 556 1691 457 1844 
Q 359 1997 359 2206 
Q 359 2463 498 2652 
Q 638 2841 900 2941 
Q 1163 3041 1516 3041 
Q 1722 3041 1914 3020 
Q 2106 3000 2397 2941 
L 2397 2303 
z
" transform="scale(0.015625)"/>
       <path id="Cambria-70" d="M 1150 94 
L 1150 -566 
Q 1150 -769 1164 -869 
Q 1178 -969 1214 -1026 
Q 1250 -1084 1317 -1121 
Q 1384 -1159 1534 -1191 
L 1534 -1344 
L 259 -1344 
L 259 -1191 
Q 372 -1159 442 -1126 
Q 513 -1094 550 -1030 
Q 588 -966 600 -856 
Q 613 -747 613 -566 
L 613 2116 
Q 613 2341 606 2436 
Q 600 2531 581 2593 
Q 563 2656 527 2697 
Q 491 2738 430 2766 
Q 369 2794 228 2822 
L 228 2988 
L 963 3016 
L 1153 3016 
L 1113 2506 
L 1159 2494 
Q 1353 2691 1465 2780 
Q 1578 2869 1698 2928 
Q 1819 2988 1930 3013 
Q 2041 3038 2166 3038 
Q 2681 3038 2957 2652 
Q 3234 2266 3234 1522 
Q 3234 1006 3078 654 
Q 2922 303 2623 126 
Q 2325 -50 1913 -50 
Q 1681 -50 1493 -11 
Q 1306 28 1150 94 
z
M 1150 1125 
Q 1150 825 1187 662 
Q 1225 500 1320 398 
Q 1416 297 1545 247 
Q 1675 197 1888 197 
Q 2266 197 2456 511 
Q 2647 825 2647 1438 
Q 2647 2663 1931 2663 
Q 1756 2663 1629 2608 
Q 1503 2553 1378 2431 
Q 1253 2309 1201 2195 
Q 1150 2081 1150 1950 
L 1150 1125 
z
" transform="scale(0.015625)"/>
       <path id="Cambria-6c" d="M 1138 781 
Q 1138 513 1163 408 
Q 1188 303 1258 248 
Q 1328 194 1488 153 
L 1488 0 
L 247 0 
L 247 153 
Q 403 194 464 237 
Q 525 281 551 342 
Q 578 403 589 508 
Q 600 613 600 781 
L 600 3397 
Q 600 3697 595 3815 
Q 591 3934 570 4017 
Q 550 4100 514 4147 
Q 478 4194 417 4222 
Q 356 4250 197 4278 
L 197 4441 
L 950 4472 
L 1138 4472 
L 1138 781 
z
" transform="scale(0.015625)"/>
       <path id="Cambria-61" d="M 2109 447 
L 2063 459 
Q 1791 181 1552 65 
Q 1313 -50 1044 -50 
Q 806 -50 625 42 
Q 444 134 347 301 
Q 250 469 250 688 
Q 250 1144 701 1392 
Q 1153 1641 2056 1681 
L 2056 1884 
Q 2056 2209 1993 2396 
Q 1931 2584 1797 2671 
Q 1663 2759 1438 2759 
Q 1194 2759 1045 2631 
Q 897 2503 822 2247 
L 413 2247 
L 413 2653 
Q 713 2809 913 2882 
Q 1113 2956 1313 2998 
Q 1513 3041 1719 3041 
Q 2028 3041 2215 2942 
Q 2403 2844 2497 2641 
Q 2591 2438 2591 2028 
L 2591 941 
Q 2591 709 2594 614 
Q 2597 519 2612 437 
Q 2628 356 2659 307 
Q 2691 259 2752 225 
Q 2813 191 2950 153 
L 2950 0 
L 2094 0 
L 2109 447 
z
M 2056 1425 
Q 1422 1419 1106 1256 
Q 791 1094 791 766 
Q 791 588 862 484 
Q 934 381 1043 342 
Q 1153 303 1303 303 
Q 1516 303 1689 406 
Q 1863 509 1959 668 
Q 2056 828 2056 984 
L 2056 1425 
z
" transform="scale(0.015625)"/>
       <path id="Cambria-63" d="M 2631 2916 
L 2631 2263 
L 2234 2263 
Q 2181 2466 2103 2583 
Q 2025 2700 1922 2747 
Q 1819 2794 1666 2794 
Q 1447 2794 1278 2653 
Q 1109 2513 1011 2225 
Q 913 1938 913 1522 
Q 913 1256 950 1036 
Q 988 816 1078 659 
Q 1169 503 1319 415 
Q 1469 328 1691 328 
Q 1906 328 2092 412 
Q 2278 497 2478 709 
L 2656 503 
Q 2497 328 2375 233 
Q 2253 138 2114 73 
Q 1975 9 1839 -20 
Q 1703 -50 1544 -50 
Q 953 -50 640 342 
Q 328 734 328 1475 
Q 328 1938 503 2295 
Q 678 2653 993 2847 
Q 1309 3041 1722 3041 
Q 1978 3041 2195 3011 
Q 2413 2981 2631 2916 
z
" transform="scale(0.015625)"/>
       <path id="Cambria-65" d="M 2800 531 
Q 2600 322 2433 203 
Q 2266 84 2066 17 
Q 1866 -50 1625 -50 
Q 981 -50 653 336 
Q 325 722 325 1475 
Q 325 1941 492 2297 
Q 659 2653 968 2847 
Q 1278 3041 1681 3041 
Q 1997 3041 2219 2941 
Q 2441 2841 2573 2667 
Q 2706 2494 2779 2230 
Q 2853 1966 2863 1541 
L 894 1541 
L 894 1484 
Q 894 1116 976 864 
Q 1059 613 1248 470 
Q 1438 328 1741 328 
Q 1997 328 2201 423 
Q 2406 519 2609 734 
L 2800 531 
z
M 2275 1800 
Q 2256 2138 2190 2352 
Q 2125 2566 1994 2680 
Q 1863 2794 1650 2794 
Q 1328 2794 1136 2536 
Q 944 2278 909 1800 
L 2275 1800 
z
" transform="scale(0.015625)"/>
       <path id="Cambria-6d" d="M 1147 2506 
L 1191 2494 
Q 1378 2681 1498 2776 
Q 1619 2872 1731 2930 
Q 1844 2988 1942 3013 
Q 2041 3038 2144 3038 
Q 2456 3038 2653 2894 
Q 2850 2750 2925 2453 
Q 3159 2691 3304 2803 
Q 3450 2916 3601 2977 
Q 3753 3038 3928 3038 
Q 4138 3038 4289 2977 
Q 4441 2916 4545 2789 
Q 4650 2663 4698 2472 
Q 4747 2281 4747 1959 
L 4747 781 
Q 4747 544 4762 453 
Q 4778 363 4808 313 
Q 4838 263 4897 227 
Q 4956 191 5097 153 
L 5097 0 
L 3869 0 
L 3869 153 
Q 3991 191 4044 219 
Q 4097 247 4133 297 
Q 4169 347 4189 451 
Q 4209 556 4209 769 
L 4209 1588 
Q 4209 1853 4195 2026 
Q 4181 2200 4151 2303 
Q 4122 2406 4080 2465 
Q 4038 2525 3984 2569 
Q 3931 2613 3859 2638 
Q 3788 2663 3669 2663 
Q 3544 2663 3436 2613 
Q 3328 2563 3201 2444 
Q 3075 2325 3019 2204 
Q 2963 2084 2963 1922 
L 2963 781 
Q 2963 544 2978 453 
Q 2994 363 3023 313 
Q 3053 263 3112 227 
Q 3172 191 3313 153 
L 3313 0 
L 2084 0 
L 2084 153 
Q 2206 191 2259 219 
Q 2313 247 2348 297 
Q 2384 347 2404 451 
Q 2425 556 2425 769 
L 2425 1588 
Q 2425 1866 2409 2041 
Q 2394 2216 2361 2322 
Q 2328 2428 2276 2493 
Q 2225 2559 2172 2593 
Q 2119 2628 2047 2645 
Q 1975 2663 1884 2663 
Q 1756 2663 1643 2605 
Q 1531 2547 1414 2437 
Q 1297 2328 1237 2209 
Q 1178 2091 1178 1953 
L 1178 781 
Q 1178 603 1187 509 
Q 1197 416 1217 362 
Q 1238 309 1269 276 
Q 1300 244 1358 214 
Q 1416 184 1531 153 
L 1531 0 
L 306 0 
L 306 153 
Q 425 191 476 219 
Q 528 247 565 297 
Q 603 347 622 450 
Q 641 553 641 772 
L 641 2134 
Q 641 2334 634 2456 
Q 628 2578 590 2651 
Q 553 2725 476 2761 
Q 400 2797 259 2822 
L 259 2988 
L 991 3016 
L 1181 3016 
L 1147 2506 
z
" transform="scale(0.015625)"/>
       <path id="Cambria-6e" d="M 3347 0 
L 2116 0 
L 2116 153 
Q 2238 191 2291 219 
Q 2344 247 2380 297 
Q 2416 347 2436 451 
Q 2456 556 2456 769 
L 2456 1588 
Q 2456 1806 2443 1984 
Q 2431 2163 2401 2277 
Q 2372 2391 2330 2455 
Q 2288 2519 2230 2564 
Q 2172 2609 2097 2636 
Q 2022 2663 1900 2663 
Q 1778 2663 1668 2614 
Q 1559 2566 1428 2447 
Q 1297 2328 1237 2212 
Q 1178 2097 1178 1947 
L 1178 781 
Q 1178 513 1203 408 
Q 1228 303 1298 248 
Q 1369 194 1528 153 
L 1528 0 
L 303 0 
L 303 153 
Q 425 191 476 219 
Q 528 247 564 297 
Q 600 347 620 450 
Q 641 553 641 772 
L 641 2134 
Q 641 2334 634 2456 
Q 628 2578 590 2651 
Q 553 2725 476 2761 
Q 400 2797 259 2822 
L 259 2988 
L 991 3016 
L 1181 3016 
L 1147 2506 
L 1191 2494 
Q 1422 2728 1564 2828 
Q 1706 2928 1851 2983 
Q 1997 3038 2159 3038 
Q 2328 3038 2461 2998 
Q 2594 2959 2695 2878 
Q 2797 2797 2862 2676 
Q 2928 2556 2961 2387 
Q 2994 2219 2994 1959 
L 2994 781 
Q 2994 566 3006 469 
Q 3019 372 3050 319 
Q 3081 266 3140 230 
Q 3200 194 3347 153 
L 3347 0 
z
" transform="scale(0.015625)"/>
       <path id="Cambria-74" d="M 116 2831 
Q 272 2856 369 2918 
Q 466 2981 520 3079 
Q 575 3178 606 3326 
Q 638 3475 672 3759 
L 1116 3759 
L 1116 2988 
L 2125 2988 
L 2125 2672 
L 1116 2672 
L 1116 1281 
Q 1116 978 1141 798 
Q 1166 619 1234 517 
Q 1303 416 1390 372 
Q 1478 328 1616 328 
Q 1741 328 1850 379 
Q 1959 431 2066 528 
L 2206 359 
Q 1984 144 1786 47 
Q 1588 -50 1375 -50 
Q 972 -50 775 189 
Q 578 428 578 938 
L 578 2672 
L 116 2672 
L 116 2831 
z
" transform="scale(0.015625)"/>
       <path id="Cambria-20" transform="scale(0.015625)"/>
       <path id="Cambria-28" d="M 2309 -1359 
Q 1778 -1359 1442 -1200 
Q 1106 -1041 918 -714 
Q 731 -388 647 134 
Q 563 656 563 1550 
Q 563 2438 645 2964 
Q 728 3491 915 3822 
Q 1103 4153 1440 4318 
Q 1778 4484 2309 4484 
L 2309 4228 
Q 2091 4228 1922 4191 
Q 1731 4147 1597 4022 
Q 1447 3884 1353 3638 
Q 1244 3350 1191 2875 
Q 1134 2372 1134 1575 
Q 1134 872 1181 379 
Q 1228 -113 1338 -425 
Q 1425 -688 1556 -834 
Q 1672 -963 1831 -1028 
Q 2016 -1103 2309 -1103 
L 2309 -1359 
z
" transform="scale(0.015625)"/>
       <path id="Cambria-29" d="M 134 4484 
Q 666 4484 1002 4325 
Q 1338 4166 1525 3839 
Q 1713 3513 1797 2991 
Q 1881 2469 1881 1575 
Q 1881 688 1798 161 
Q 1716 -366 1528 -697 
Q 1341 -1028 1003 -1193 
Q 666 -1359 134 -1359 
L 134 -1103 
Q 353 -1103 522 -1066 
Q 713 -1022 847 -897 
Q 997 -759 1091 -513 
Q 1200 -225 1253 250 
Q 1309 753 1309 1550 
Q 1309 2253 1262 2745 
Q 1216 3238 1106 3550 
Q 1019 3813 888 3959 
Q 772 4088 613 4153 
Q 428 4228 134 4228 
L 134 4484 
z
" transform="scale(0.015625)"/>
      </defs>
      <use xlink:href="#Cambria-44"/>
      <use xlink:href="#Cambria-69" x="66.162109"/>
      <use xlink:href="#Cambria-73" x="93.945312"/>
      <use xlink:href="#Cambria-70" x="136.914062"/>
      <use xlink:href="#Cambria-6c" x="192.529297"/>
      <use xlink:href="#Cambria-61" x="219.677734"/>
      <use xlink:href="#Cambria-63" x="268.505859"/>
      <use xlink:href="#Cambria-65" x="312.597656"/>
      <use xlink:href="#Cambria-6d" x="361.376953"/>
      <use xlink:href="#Cambria-65" x="444.580078"/>
      <use xlink:href="#Cambria-6e" x="493.359375"/>
      <use xlink:href="#Cambria-74" x="549.169922"/>
      <use xlink:href="#Cambria-20" x="583.007812"/>
      <use xlink:href="#Cambria-28" x="605.029297"/>
      <use xlink:href="#Cambria-6d" x="643.212891"/>
      <use xlink:href="#Cambria-6d" x="726.416016"/>
      <use xlink:href="#Cambria-29" x="809.619141"/>
     </g>
    </g>
   </g>
   <g id="matplotlib.axis_2">
    <g id="ytick_1">
     <g id="line2d_17">
      <path d="M 61.991563 330.639051 
L 481.551562 330.639051 
" clip-path="url(#p2907b50399)" style="fill: none; stroke-dasharray: 0.8,1.32; stroke-dashoffset: 0; stroke: #b0b0b0; stroke-width: 0.8"/>
     </g>
     <g id="line2d_18">
      <defs>
       <path id="m1f7a6429b9" d="M 0 0 
L -3.5 0 
" style="stroke: #000000; stroke-width: 0.8"/>
      </defs>
      <g>
       <use xlink:href="#m1f7a6429b9" x="61.991563" y="330.639051" style="stroke: #000000; stroke-width: 0.8"/>
      </g>
     </g>
     <g id="text_10">
      <!-- −300 -->
      <g transform="translate(23.981563 335.530301) scale(0.14 -0.14)">
       <defs>
        <path id="Cambria-33" d="M 497 3381 
L 497 3975 
Q 859 4147 1175 4231 
Q 1491 4316 1784 4316 
Q 2138 4316 2403 4206 
Q 2669 4097 2809 3892 
Q 2950 3688 2950 3403 
Q 2950 3138 2844 2936 
Q 2738 2734 2545 2584 
Q 2353 2434 2047 2291 
L 2047 2263 
Q 2238 2228 2414 2145 
Q 2591 2063 2728 1931 
Q 2866 1800 2948 1617 
Q 3031 1434 3031 1200 
Q 3031 838 2873 556 
Q 2716 275 2391 112 
Q 2066 -50 1600 -50 
Q 1331 -50 1020 11 
Q 709 72 450 172 
L 450 834 
L 825 834 
Q 934 509 1114 362 
Q 1294 216 1603 216 
Q 2009 216 2217 437 
Q 2425 659 2425 1094 
Q 2425 1550 2150 1790 
Q 1875 2031 1344 2031 
L 1063 2031 
L 1063 2306 
Q 1484 2331 1773 2468 
Q 2063 2606 2203 2822 
Q 2344 3038 2344 3306 
Q 2344 3653 2159 3840 
Q 1975 4028 1622 4028 
Q 1328 4028 1143 3868 
Q 959 3709 872 3381 
L 497 3381 
z
" transform="scale(0.015625)"/>
       </defs>
       <use xlink:href="#Cambria-2212"/>
       <use xlink:href="#Cambria-33" x="55.371094"/>
       <use xlink:href="#Cambria-30" x="110.742188"/>
       <use xlink:href="#Cambria-30" x="166.113281"/>
      </g>
     </g>
    </g>
    <g id="ytick_2">
     <g id="line2d_19">
      <path d="M 61.991563 287.142575 
L 481.551562 287.142575 
" clip-path="url(#p2907b50399)" style="fill: none; stroke-dasharray: 0.8,1.32; stroke-dashoffset: 0; stroke: #b0b0b0; stroke-width: 0.8"/>
     </g>
     <g id="line2d_20">
      <g>
       <use xlink:href="#m1f7a6429b9" x="61.991563" y="287.142575" style="stroke: #000000; stroke-width: 0.8"/>
      </g>
     </g>
     <g id="text_11">
      <!-- −200 -->
      <g transform="translate(23.981563 292.033825) scale(0.14 -0.14)">
       <use xlink:href="#Cambria-2212"/>
       <use xlink:href="#Cambria-32" x="55.371094"/>
       <use xlink:href="#Cambria-30" x="110.742188"/>
       <use xlink:href="#Cambria-30" x="166.113281"/>
      </g>
     </g>
    </g>
    <g id="ytick_3">
     <g id="line2d_21">
      <path d="M 61.991563 243.6461 
L 481.551562 243.6461 
" clip-path="url(#p2907b50399)" style="fill: none; stroke-dasharray: 0.8,1.32; stroke-dashoffset: 0; stroke: #b0b0b0; stroke-width: 0.8"/>
     </g>
     <g id="line2d_22">
      <g>
       <use xlink:href="#m1f7a6429b9" x="61.991563" y="243.6461" style="stroke: #000000; stroke-width: 0.8"/>
      </g>
     </g>
     <g id="text_12">
      <!-- −100 -->
      <g transform="translate(23.981563 248.53735) scale(0.14 -0.14)">
       <defs>
        <path id="Cambria-31" d="M 2172 816 
Q 2172 634 2192 542 
Q 2213 450 2264 392 
Q 2316 334 2412 301 
Q 2509 269 2656 251 
Q 2803 234 3044 228 
L 3044 0 
L 734 0 
L 734 228 
Q 1081 244 1229 270 
Q 1378 297 1456 350 
Q 1534 403 1570 500 
Q 1606 597 1606 816 
L 1606 3350 
Q 1606 3475 1562 3533 
Q 1519 3591 1434 3591 
Q 1334 3591 1150 3487 
Q 966 3384 694 3203 
L 556 3444 
L 2019 4316 
L 2191 4316 
Q 2172 4016 2172 3484 
L 2172 816 
z
" transform="scale(0.015625)"/>
       </defs>
       <use xlink:href="#Cambria-2212"/>
       <use xlink:href="#Cambria-31" x="55.371094"/>
       <use xlink:href="#Cambria-30" x="110.742188"/>
       <use xlink:href="#Cambria-30" x="166.113281"/>
      </g>
     </g>
    </g>
    <g id="ytick_4">
     <g id="line2d_23">
      <path d="M 61.991563 200.149624 
L 481.551562 200.149624 
" clip-path="url(#p2907b50399)" style="fill: none; stroke-dasharray: 0.8,1.32; stroke-dashoffset: 0; stroke: #b0b0b0; stroke-width: 0.8"/>
     </g>
     <g id="line2d_24">
      <g>
       <use xlink:href="#m1f7a6429b9" x="61.991563" y="200.149624" style="stroke: #000000; stroke-width: 0.8"/>
      </g>
     </g>
     <g id="text_13">
      <!-- 0 -->
      <g transform="translate(47.239063 205.040874) scale(0.14 -0.14)">
       <use xlink:href="#Cambria-30"/>
      </g>
     </g>
    </g>
    <g id="ytick_5">
     <g id="line2d_25">
      <path d="M 61.991563 156.653149 
L 481.551562 156.653149 
" clip-path="url(#p2907b50399)" style="fill: none; stroke-dasharray: 0.8,1.32; stroke-dashoffset: 0; stroke: #b0b0b0; stroke-width: 0.8"/>
     </g>
     <g id="line2d_26">
      <g>
       <use xlink:href="#m1f7a6429b9" x="61.991563" y="156.653149" style="stroke: #000000; stroke-width: 0.8"/>
      </g>
     </g>
     <g id="text_14">
      <!-- 100 -->
      <g transform="translate(31.734063 161.544399) scale(0.14 -0.14)">
       <use xlink:href="#Cambria-31"/>
       <use xlink:href="#Cambria-30" x="55.371094"/>
       <use xlink:href="#Cambria-30" x="110.742188"/>
      </g>
     </g>
    </g>
    <g id="ytick_6">
     <g id="line2d_27">
      <path d="M 61.991563 113.156673 
L 481.551562 113.156673 
" clip-path="url(#p2907b50399)" style="fill: none; stroke-dasharray: 0.8,1.32; stroke-dashoffset: 0; stroke: #b0b0b0; stroke-width: 0.8"/>
     </g>
     <g id="line2d_28">
      <g>
       <use xlink:href="#m1f7a6429b9" x="61.991563" y="113.156673" style="stroke: #000000; stroke-width: 0.8"/>
      </g>
     </g>
     <g id="text_15">
      <!-- 200 -->
      <g transform="translate(31.734063 118.047923) scale(0.14 -0.14)">
       <use xlink:href="#Cambria-32"/>
       <use xlink:href="#Cambria-30" x="55.371094"/>
       <use xlink:href="#Cambria-30" x="110.742188"/>
      </g>
     </g>
    </g>
    <g id="ytick_7">
     <g id="line2d_29">
      <path d="M 61.991563 69.660198 
L 481.551562 69.660198 
" clip-path="url(#p2907b50399)" style="fill: none; stroke-dasharray: 0.8,1.32; stroke-dashoffset: 0; stroke: #b0b0b0; stroke-width: 0.8"/>
     </g>
     <g id="line2d_30">
      <g>
       <use xlink:href="#m1f7a6429b9" x="61.991563" y="69.660198" style="stroke: #000000; stroke-width: 0.8"/>
      </g>
     </g>
     <g id="text_16">
      <!-- 300 -->
      <g transform="translate(31.734063 74.551448) scale(0.14 -0.14)">
       <use xlink:href="#Cambria-33"/>
       <use xlink:href="#Cambria-30" x="55.371094"/>
       <use xlink:href="#Cambria-30" x="110.742188"/>
      </g>
     </g>
    </g>
    <g id="ytick_8">
     <g id="line2d_31">
      <path d="M 61.991563 26.163722 
L 481.551562 26.163722 
" clip-path="url(#p2907b50399)" style="fill: none; stroke-dasharray: 0.8,1.32; stroke-dashoffset: 0; stroke: #b0b0b0; stroke-width: 0.8"/>
     </g>
     <g id="line2d_32">
      <g>
       <use xlink:href="#m1f7a6429b9" x="61.991563" y="26.163722" style="stroke: #000000; stroke-width: 0.8"/>
      </g>
     </g>
     <g id="text_17">
      <!-- 400 -->
      <g transform="translate(31.734063 31.054972) scale(0.14 -0.14)">
       <use xlink:href="#Cambria-34"/>
       <use xlink:href="#Cambria-30" x="55.371094"/>
       <use xlink:href="#Cambria-30" x="110.742188"/>
      </g>
     </g>
    </g>
    <g id="text_18">
     <!-- Base Shear (kN) -->
     <g transform="translate(17.00875 246.80625) rotate(-90) scale(0.14 -0.14)">
      <defs>
       <path id="Cambria-42" d="M 378 0 
L 378 153 
Q 572 203 637 264 
Q 703 325 723 437 
Q 744 550 744 781 
L 744 3484 
Q 744 3700 728 3798 
Q 713 3897 677 3951 
Q 641 4006 581 4039 
Q 522 4072 378 4113 
L 378 4266 
L 2088 4266 
Q 2584 4266 2886 4159 
Q 3188 4053 3334 3845 
Q 3481 3638 3481 3309 
Q 3481 3038 3376 2838 
Q 3272 2638 3103 2506 
Q 2934 2375 2669 2263 
L 2669 2234 
Q 3094 2106 3312 1839 
Q 3531 1572 3531 1203 
Q 3531 778 3342 509 
Q 3153 241 2812 120 
Q 2472 0 1988 0 
L 378 0 
z
M 1875 2353 
Q 2350 2353 2601 2583 
Q 2853 2813 2853 3250 
Q 2853 3466 2783 3608 
Q 2713 3750 2589 3834 
Q 2466 3919 2297 3955 
Q 2128 3991 1931 3991 
Q 1813 3991 1619 3984 
Q 1425 3978 1328 3972 
L 1328 2353 
L 1875 2353 
z
M 1328 297 
Q 1556 275 1838 275 
Q 2247 275 2473 378 
Q 2700 481 2801 682 
Q 2903 884 2903 1188 
Q 2903 1491 2792 1687 
Q 2681 1884 2450 1981 
Q 2219 2078 1813 2078 
L 1328 2078 
L 1328 297 
z
" transform="scale(0.015625)"/>
       <path id="Cambria-53" d="M 663 972 
Q 725 697 831 537 
Q 938 378 1106 301 
Q 1275 225 1541 225 
Q 1906 225 2101 415 
Q 2297 606 2297 972 
Q 2297 1206 2215 1365 
Q 2134 1525 1950 1665 
Q 1766 1806 1388 1994 
Q 1022 2175 809 2348 
Q 597 2522 492 2725 
Q 388 2928 388 3169 
Q 388 3519 552 3776 
Q 716 4034 1033 4175 
Q 1350 4316 1759 4316 
Q 1997 4316 2223 4291 
Q 2450 4266 2791 4178 
L 2791 3334 
L 2481 3334 
Q 2409 3609 2300 3762 
Q 2191 3916 2044 3977 
Q 1897 4038 1663 4038 
Q 1459 4038 1298 3963 
Q 1138 3888 1044 3736 
Q 950 3584 950 3375 
Q 950 3153 1029 3000 
Q 1109 2847 1278 2715 
Q 1447 2584 1778 2422 
Q 2178 2222 2398 2050 
Q 2619 1878 2742 1658 
Q 2866 1438 2866 1144 
Q 2866 816 2762 589 
Q 2659 363 2476 220 
Q 2294 78 2039 14 
Q 1784 -50 1481 -50 
Q 991 -50 350 116 
L 350 972 
L 663 972 
z
" transform="scale(0.015625)"/>
       <path id="Cambria-68" d="M 1141 2497 
L 1153 2494 
Q 1397 2741 1539 2839 
Q 1681 2938 1820 2988 
Q 1959 3038 2119 3038 
Q 2291 3038 2425 2997 
Q 2559 2956 2661 2873 
Q 2763 2791 2827 2670 
Q 2891 2550 2922 2383 
Q 2953 2216 2953 1959 
L 2953 781 
Q 2953 509 2976 411 
Q 3000 313 3061 258 
Q 3122 203 3306 153 
L 3306 0 
L 2075 0 
L 2075 153 
Q 2197 191 2250 219 
Q 2303 247 2339 297 
Q 2375 347 2395 451 
Q 2416 556 2416 769 
L 2416 1588 
Q 2416 2003 2373 2223 
Q 2331 2444 2207 2553 
Q 2084 2663 1863 2663 
Q 1738 2663 1638 2619 
Q 1538 2575 1406 2462 
Q 1275 2350 1208 2231 
Q 1141 2113 1141 1978 
L 1141 781 
Q 1141 569 1152 478 
Q 1163 388 1194 327 
Q 1225 266 1289 227 
Q 1353 188 1488 153 
L 1488 0 
L 250 0 
L 250 153 
Q 388 191 447 225 
Q 506 259 539 312 
Q 572 366 587 466 
Q 603 566 603 781 
L 603 3397 
Q 603 3697 598 3815 
Q 594 3934 573 4017 
Q 553 4100 517 4147 
Q 481 4194 420 4222 
Q 359 4250 200 4278 
L 200 4441 
L 953 4472 
L 1141 4472 
L 1141 2497 
z
" transform="scale(0.015625)"/>
       <path id="Cambria-72" d="M 1147 2469 
L 1191 2459 
Q 1363 2669 1509 2789 
Q 1656 2909 1826 2975 
Q 1997 3041 2213 3041 
Q 2394 3041 2541 3022 
L 2541 2303 
L 2188 2303 
Q 2113 2472 2028 2548 
Q 1944 2625 1797 2625 
Q 1684 2625 1573 2559 
Q 1463 2494 1359 2369 
Q 1256 2244 1217 2134 
Q 1178 2025 1178 1875 
L 1178 781 
Q 1178 497 1212 389 
Q 1247 281 1326 231 
Q 1406 181 1566 153 
L 1566 0 
L 306 0 
L 306 153 
Q 425 191 476 219 
Q 528 247 565 297 
Q 603 347 622 450 
Q 641 553 641 772 
L 641 2134 
Q 641 2334 634 2456 
Q 628 2578 590 2651 
Q 553 2725 476 2761 
Q 400 2797 259 2822 
L 259 2984 
L 991 3016 
L 1181 3016 
L 1147 2469 
z
" transform="scale(0.015625)"/>
       <path id="Cambria-6b" d="M 1138 1741 
L 1238 1741 
Q 1341 1741 1406 1763 
Q 1484 1791 1578 1858 
Q 1672 1925 1844 2084 
Q 1988 2219 2061 2312 
Q 2134 2406 2163 2484 
Q 2188 2550 2188 2616 
Q 2188 2709 2130 2762 
Q 2072 2816 1941 2834 
L 1941 2988 
L 3288 2988 
L 3288 2834 
Q 3144 2806 2981 2706 
Q 2819 2606 2647 2444 
L 1928 1763 
L 2828 588 
Q 2984 381 3111 282 
Q 3238 184 3388 153 
L 3388 0 
L 2188 0 
L 2188 153 
Q 2269 163 2308 189 
Q 2347 216 2347 278 
Q 2347 325 2330 370 
Q 2313 416 2259 494 
Q 2206 572 2066 766 
L 1694 1266 
Q 1588 1406 1542 1450 
Q 1497 1494 1447 1512 
Q 1397 1531 1313 1531 
L 1138 1531 
L 1138 781 
Q 1138 513 1163 408 
Q 1188 303 1258 248 
Q 1328 194 1488 153 
L 1488 0 
L 247 0 
L 247 153 
Q 403 194 464 237 
Q 525 281 551 342 
Q 578 403 589 508 
Q 600 613 600 781 
L 600 3397 
Q 600 3697 595 3815 
Q 591 3934 570 4017 
Q 550 4100 514 4147 
Q 478 4194 417 4222 
Q 356 4250 197 4278 
L 197 4441 
L 950 4472 
L 1138 4472 
L 1138 1741 
z
" transform="scale(0.015625)"/>
       <path id="Cambria-4e" d="M 2888 1691 
Q 3000 1503 3076 1362 
Q 3153 1222 3234 1047 
L 3275 1047 
Q 3259 1238 3246 1805 
Q 3234 2372 3234 2828 
L 3234 3484 
Q 3234 3700 3221 3800 
Q 3209 3900 3176 3953 
Q 3144 4006 3086 4039 
Q 3028 4072 2884 4113 
L 2884 4266 
L 4009 4266 
L 4009 4113 
Q 3869 4075 3811 4044 
Q 3753 4013 3717 3963 
Q 3681 3913 3662 3813 
Q 3644 3713 3644 3484 
L 3644 -19 
L 3253 -19 
L 1513 2900 
Q 1350 3172 1281 3297 
Q 1213 3422 1153 3544 
L 1100 3544 
Q 1122 3303 1131 2673 
Q 1141 2044 1141 1419 
L 1141 781 
Q 1141 572 1155 475 
Q 1169 378 1201 322 
Q 1234 266 1298 228 
Q 1363 191 1506 153 
L 1506 0 
L 366 0 
L 366 153 
Q 559 203 625 264 
Q 691 325 711 437 
Q 731 550 731 781 
L 731 3484 
Q 731 3700 715 3798 
Q 700 3897 664 3951 
Q 628 4006 568 4039 
Q 509 4072 366 4113 
L 366 4266 
L 1344 4266 
L 2888 1691 
z
" transform="scale(0.015625)"/>
      </defs>
      <use xlink:href="#Cambria-42"/>
      <use xlink:href="#Cambria-61" x="61.132812"/>
      <use xlink:href="#Cambria-73" x="109.960938"/>
      <use xlink:href="#Cambria-65" x="152.929688"/>
      <use xlink:href="#Cambria-20" x="201.708984"/>
      <use xlink:href="#Cambria-53" x="223.730469"/>
      <use xlink:href="#Cambria-68" x="273.339844"/>
      <use xlink:href="#Cambria-65" x="328.515625"/>
      <use xlink:href="#Cambria-61" x="377.294922"/>
      <use xlink:href="#Cambria-72" x="426.123047"/>
      <use xlink:href="#Cambria-20" x="467.480469"/>
      <use xlink:href="#Cambria-28" x="489.501953"/>
      <use xlink:href="#Cambria-6b" x="527.685547"/>
      <use xlink:href="#Cambria-4e" x="580.126953"/>
      <use xlink:href="#Cambria-29" x="648.193359"/>
     </g>
    </g>
   </g>
   <g id="line2d_33">
    <path d="M 286.961522 193.625153 
L 287.937359 177.792436 
L 289.008108 154.478325 
L 291.745906 121.855968 
L 297.343326 107.937096 
L 302.90516 97.062977 
L 308.395825 91.408436 
L 304.311271 107.937096 
L 300.953458 128.38044 
L 296.821421 148.823783 
L 293.48735 167.614261 
L 290.212579 181.533133 
L 289.213 199.253597 
L 285.772147 226.24751 
L 284.701426 249.735606 
L 282.129682 268.874056 
L 277.247161 287.57754 
L 270.113189 300.626483 
L 266.099778 311.500602 
L 259.072534 316.285214 
L 256.011245 313.240461 
L 251.46086 305.84606 
L 257.070151 291.057258 
L 264.287163 271.483844 
L 272.290245 251.040501 
L 276.386697 233.511421 
L 280.400109 222.41982 
L 282.983696 201.93733 
L 290.461647 161.959719 
L 292.974091 147.083924 
L 296.225149 134.904911 
L 301.846282 119.24618 
L 295.02393 168.571183 
L 286.700556 214.111993 
L 279.376788 241.949737 
L 273.708198 261.479655 
L 269.623644 278.008316 
L 261.739162 289.317399 
L 252.2588 304.106201 
L 259.546983 278.878245 
L 266.692825 264.959373 
L 277.291392 223.289749 
L 282.292511 195.408509 
L 289.675578 162.873145 
L 300.250403 123.160863 
L 305.144768 103.587449 
L 314.803055 74.879775 
L 322.687537 63.570691 
L 330.524564 56.611255 
L 338.326034 51.826643 
L 338.207407 61.395868 
L 336.374304 83.57907 
L 327.573283 105.762273 
L 317.986166 128.815405 
L 310.01867 146.64896 
L 302.051147 164.04755 
L 286.831053 203.872923 
L 271.373707 262.349584 
L 261.679835 293.667047 
L 255.260762 311.500602 
L 246.566496 325.419474 
L 238.765027 329.769121 
L 233.298076 333.248839 
L 235.024425 319.329967 
L 251.125499 271.483844 
L 261.427514 252.78036 
L 268.703854 228.726809 
L 275.920866 209.283884 
L 285.496112 187.057185 
L 310.970793 132.295123 
L 315.150259 108.372061 
L 323.082198 93.583259 
L 327.952848 75.749704 
L 332.728614 65.745515 
L 321.094883 127.945475 
L 306.803198 155.783219 
L 299.598029 174.269221 
L 290.737709 201.145694 
L 279.54287 228.900795 
L 269.110358 257.564972 
L 260.273752 282.792928 
L 248.399572 302.801307 
L 240.432076 320.634862 
L 235.715609 325.854439 
L 240.621844 305.411095 
L 250.327587 273.223703 
L 265.440926 241.732255 
L 272.859606 206.413117 
L 284.828642 178.662365 
L 291.271457 159.175944 
L 307.956961 125.770651 
L 317.544078 102.717519 
L 329.41823 82.709141 
L 335.837331 64.875586 
L 342.923874 55.741326 
L 351.546997 47.476995 
L 361.623631 46.607066 
L 367.054996 45.737136 
L 366.841486 62.700762 
L 361.255937 75.749704 
L 356.409001 91.408436 
L 350.013642 107.067167 
L 341.295635 122.725898 
L 333.328139 140.559453 
L 325.408071 154.04336 
L 318.250358 169.006148 
L 309.579806 180.967679 
L 301.67161 193.886132 
L 289.035075 213.242064 
L 272.981429 257.564972 
L 261.107277 278.008316 
L 253.866522 299.321589 
L 240.491375 315.850249 
L 231.737783 334.553734 
L 219.291044 338.903381 
L 206.129408 338.468416 
L 211.011901 319.764932 
L 218.264526 297.581729 
L 228.602127 276.268457 
L 240.48815 255.390148 
L 252.362302 234.946805 
L 261.878249 217.417725 
L 274.550369 195.234523 
L 282.505994 178.618869 
L 293.677119 152.738466 
L 305.634312 125.770651 
L 345.033012 72.704951 
L 363.089041 53.131537 
L 366.971983 52.261608 
L 363.566715 76.619634 
L 354.753823 99.672766 
L 342.046146 124.900722 
L 328.587958 147.953854 
L 319.846237 165.308948 
L 304.851497 187.405157 
L 293.704086 211.458708 
L 278.67376 236.338692 
L 268.312418 259.304831 
L 254.937271 275.833492 
L 246.159965 296.276835 
L 229.699815 311.935566 
L 217.93239 323.679615 
L 212.429882 330.204086 
L 206.164993 335.858628 
L 212.67895 310.630672 
L 220.753229 284.532787 
L 236.628922 254.085254 
L 254.017481 226.595481 
L 268.249894 203.529301 
L 279.361692 182.272573 
L 294.368303 159.262937 
L 315.067246 114.896532 
L 330.073857 91.8434 
L 344.223202 75.31474 
L 352.119555 63.135727 
L 364.637464 53.131537 
L 377.882142 47.042031 
L 388.756743 44.432242 
L 393.402012 44.432242 
L 395.594191 54.871396 
L 389.925601 74.44481 
L 381.219465 89.233612 
L 374.038037 105.762273 
L 362.997382 121.421004 
L 355.029858 138.819594 
L 343.977359 155.348255 
L 336.045448 170.267546 
L 326.565086 185.012851 
L 314.809532 195.995711 
L 300.707588 208.805423 
L 285.009793 225.290587 
L 259.796078 259.304831 
L 256.568735 269.30902 
L 245.492494 288.012505 
L 238.346652 301.931377 
L 228.890032 314.545355 
L 213.239665 327.594298 
L 185.178144 341.948135 
L 178.210227 341.948135 
L 185.474696 318.460038 
L 193.465934 299.321589 
L 203.791663 278.878245 
L 215.642102 260.174761 
L 227.504411 240.992815 
L 237.83014 220.679961 
L 248.108441 204.090405 
L 262.2341 189.449491 
L 273.954069 181.272154 
L 303.896121 140.559453 
L 315.699103 126.205616 
L 336.982475 96.628013 
L 346.391667 87.493753 
L 356.622512 74.44481 
L 366.805901 65.31055 
L 376.191378 58.351114 
L 384.778916 52.696572 
L 391.79429 49.216854 
L 394.891163 49.216854 
L 393.058032 71.400057 
L 382.756017 90.103541 
L 373.228227 108.372061 
L 365.260731 126.205616 
L 352.683495 140.559453 
L 343.143834 160.132867 
L 332.901118 173.964746 
L 310.843549 203.381413 
L 295.216924 214.285979 
L 277.899535 236.338692 
L 262.083141 262.349584 
L 246.373475 279.748175 
L 232.950872 299.756553 
L 211.833582 316.285214 
L 199.280089 328.899192 
L 188.393644 332.813875 
L 179.043752 337.163522 
L 193.465934 299.321589 
L 205.351957 278.008316 
L 214.117393 258.434902 
L 223.597755 243.6461 
L 233.089987 228.074362 
L 241.843552 209.58836 
L 266.950539 183.925439 
L 279.468447 173.877753 
L 298.369872 149.258748 
L 312.542958 130.555264 
L 327.549569 107.502132 
L 342.532438 86.623823 
L 355.895742 70.965092 
L 374.631085 59.221044 
L 385.553114 52.696572 
L 397.99988 48.346925 
L 409.648679 45.737136 
L 419.677885 48.78189 
L 419.476245 64.440621 
L 413.009716 85.753894 
L 405.042192 103.587449 
L 394.716463 123.595827 
L 368.799665 152.303501 
L 357.699738 172.529362 
L 341.978201 190.884875 
L 323.230988 203.611944 
L 304.495646 215.373391 
L 270.836706 243.6461 
L 260.522847 263.219514 
L 243.252887 281.488034 
L 218.027302 316.285214 
L 201.61458 328.029262 
L 182.926666 336.293593 
L 168.216607 335.858628 
L 160.521892 331.943945 
L 155.173568 326.289403 
L 155.304038 316.285214 
L 159.32932 304.106201 
L 166.487033 289.317399 
L 175.943653 276.268457 
L 184.626076 263.654479 
L 194.130151 247.125818 
L 213.817644 221.158422 
L 229.479855 207.457032 
L 244.332254 196.561165 
L 257.612517 187.49215 
L 277.884439 176.661528 
L 299.95388 146.213995 
L 317.306853 121.421004 
L 334.564942 104.022414 
L 359.648188 80.099352 
L 372.130539 73.139916 
L 384.612834 65.745515 
L 402.455381 63.135727 
L 411.745946 63.570691 
L 422.573091 64.440621 
L 416.189603 79.229422 
L 408.984434 97.932907 
L 401.099951 108.807026 
L 390.833521 124.465757 
L 383.675807 139.254559 
L 372.670764 152.303501 
L 355.341505 175.313137 
L 343.550366 189.058023 
L 320.955796 199.838625 
L 306.05594 214.503461 
L 276.244357 244.516029 
L 247.254428 271.048879 
L 229.984495 289.752364 
L 203.400228 309.760743 
L 185.49841 316.720179 
L 171.526963 319.329967 
L 162.23637 318.895002 
L 156.042678 318.895002 
L 163.330861 294.102011 
L 173.65659 273.658668 
L 187.829677 255.390148 
L 202.848159 231.249604 
L 218.593382 211.023743 
L 247.571468 185.447816 
L 263.972291 174.5302 
L 283.49373 161.829229 
L 296.809578 150.128678 
L 319.582045 125.335687 
L 335.303555 106.632202 
L 354.884293 89.668577 
L 372.035627 80.534317 
L 387.59111 75.31474 
L 403.873334 73.574881 
L 417.821067 73.139916 
L 436.437783 70.530127 
L 441.643795 87.493753 
L 434.438625 105.762273 
L 420.301124 121.421004 
L 411.594987 136.209805 
L 391.978665 156.218184 
L 375.494801 173.79076 
L 366.133065 179.22782 
L 342.752426 190.928372 
L 316.132602 213.720525 
L 286.451488 233.685407 
L 268.383588 254.085254 
L 237.082882 279.31321 
L 223.004679 290.187329 
L 198.063775 302.801307 
L 172.419787 309.760743 
L 153.779329 314.11039 
L 139.819753 315.850249 
L 127.432313 315.850249 
L 122.787017 315.415284 
L 133.100903 296.276835 
L 145.01064 273.223703 
L 158.385815 256.695043 
L 177.227913 236.338692 
L 194.474131 219.897024 
L 206.229685 208.892416 
L 225.668082 202.742014 
L 246.678617 194.756061 
L 294.392045 157.392589 
L 339.210239 104.022414 
L 357.171356 92.278365 
L 398.370799 80.099352 
L 417.773611 76.619634 
L 432.507413 74.879775 
L 444.156212 72.269986 
L 451.100415 74.44481 
L 437.618512 99.237801 
L 427.269069 121.421004 
L 401.399727 146.213995 
L 377.066966 171.963908 
L 351.280638 190.145435 
L 315.429546 208.109479 
L 287.320598 226.24751 
L 252.792548 261.91462 
L 237.940148 272.788738 
L 224.683599 280.183139 
L 198.194244 292.797117 
L 189.713461 289.752364 
L 179.601214 293.232082 
L 164.808113 299.321589 
L 142.296584 303.671236 
L 124.465909 305.411095 
L 99.667344 306.715989 
L 91.139106 307.585919 
L 81.062472 308.455848 
L 81.062472 308.455848 
" clip-path="url(#p2907b50399)" style="fill: none; stroke-dasharray: 3.7,1.6; stroke-dashoffset: 0; stroke: #000000"/>
   </g>
   <g id="line2d_34">
    <path d="M 288.527738 200.149624 
L 290.970846 143.275703 
L 293.375296 100.748216 
L 295.703042 94.853156 
L 297.917252 95.01996 
L 299.982889 84.769137 
L 301.867269 85.503659 
L 304.976328 73.737637 
L 306.151812 69.986853 
L 307.048427 75.340921 
L 307.952934 71.617496 
L 307.632827 73.209328 
L 304.921558 86.448632 
L 301.792771 100.924179 
L 295.608069 128.60934 
L 293.276381 140.758037 
L 290.869555 162.495564 
L 288.425673 207.316611 
L 285.983406 258.028569 
L 283.581398 295.522358 
L 281.257658 293.121889 
L 279.048953 304.97967 
L 276.990234 301.098605 
L 275.114075 308.596063 
L 273.450164 313.427053 
L 272.024829 308.170276 
L 270.860623 313.070467 
L 269.096656 317.19255 
L 279.317535 265.431311 
L 281.542573 251.645636 
L 283.878139 232.728549 
L 286.287276 204.875634 
L 288.731865 167.303826 
L 291.173224 138.828895 
L 293.572722 125.386299 
L 298.095531 107.693435 
L 300.147275 100.418497 
L 302.015161 94.869957 
L 305.084511 86.664977 
L 307.964169 79.963106 
L 299.733952 115.878919 
L 297.647903 126.331673 
L 295.417542 140.207986 
L 293.078163 160.080747 
L 290.666782 188.584353 
L 288.221554 225.756002 
L 285.781171 249.900377 
L 283.384247 262.551574 
L 281.06871 272.968126 
L 278.871198 281.783886 
L 276.826485 289.182123 
L 273.321937 300.274463 
L 270.776001 307.397996 
L 269.08649 311.729239 
L 269.131423 311.507358 
L 279.497861 259.912566 
L 281.733482 246.469241 
L 284.07661 228.240746 
L 286.490169 201.087605 
L 289.554149 155.655894 
L 295.687349 120.927946 
L 301.70726 99.818021 
L 307.518629 84.522717 
L 313.029501 73.331705 
L 318.152675 65.529967 
L 322.807088 60.334157 
L 326.71349 60.023479 
L 330.218017 56.320807 
L 333.059616 54.529095 
L 336.585379 52.639862 
L 337.213753 52.341564 
L 332.074796 71.383892 
L 328.978748 82.355401 
L 325.239383 94.9239 
L 320.915867 108.541023 
L 316.076613 122.732104 
L 310.798193 137.185893 
L 305.16413 152.267613 
L 299.263572 169.073826 
L 293.189886 194.716306 
L 287.039176 247.267673 
L 280.908766 273.266272 
L 274.89566 292.718513 
L 269.095004 307.932073 
L 263.598584 315.521089 
L 258.49337 323.500336 
L 253.860143 329.316551 
L 249.772216 333.482052 
L 246.294274 334.538941 
L 243.481348 336.793795 
L 239.421103 339.659663 
L 244.684963 320.50612 
L 247.808866 309.537858 
L 251.573821 296.788747 
L 255.920252 282.661109 
L 260.779386 267.633544 
L 266.074335 252.197612 
L 271.721316 236.737833 
L 277.630975 221.056586 
L 283.709804 195.910351 
L 289.861614 155.994625 
L 295.989065 135.25572 
L 301.9952 119.309402 
L 307.784984 106.320578 
L 313.266802 95.689591 
L 318.353915 87.245712 
L 322.965829 80.765535 
L 327.029567 75.78607 
L 330.480829 72.034451 
L 333.265004 69.382367 
L 337.231246 66.02236 
L 331.842629 85.348034 
L 328.690955 96.195941 
L 324.900516 108.598355 
L 320.531288 122.130956 
L 315.652408 136.364723 
L 310.341075 151.082948 
L 304.681332 166.29638 
L 298.762733 181.737541 
L 292.67893 206.012495 
L 286.526189 241.122237 
L 280.401865 262.043411 
L 274.402865 278.075396 
L 268.624114 291.194034 
L 263.157049 301.995684 
L 258.088176 310.494811 
L 253.497703 317.134807 
L 249.458264 322.22338 
L 246.033778 325.976226 
L 241.235818 330.570828 
L 239.4063 332.141325 
L 244.919527 312.291858 
L 248.098885 301.264613 
L 251.914704 288.535297 
L 256.306607 274.567449 
L 261.205099 259.889684 
L 266.53267 245.096664 
L 272.205021 230.549062 
L 278.132396 215.901328 
L 284.221006 190.816449 
L 291.610597 153.347691 
L 301.418153 125.190819 
L 311.018488 104.17842 
L 320.259694 88.401553 
L 328.995544 77.044686 
L 337.08781 69.14463 
L 344.408445 63.566311 
L 350.841614 59.64319 
L 356.285523 56.876191 
L 360.654032 54.938454 
L 366.707276 52.589598 
L 361.715209 70.541203 
L 357.674167 84.380377 
L 352.535751 100.71852 
L 346.381269 118.299616 
L 339.308104 135.991262 
L 331.428176 152.89304 
L 322.866172 168.606816 
L 313.75757 182.760412 
L 304.246496 196.911508 
L 294.483449 212.53618 
L 284.622909 247.189924 
L 274.820903 274.455621 
L 265.23253 294.68681 
L 256.009509 309.979797 
L 247.297779 321.069626 
L 239.235186 328.955919 
L 231.949307 334.544492 
L 225.555428 338.523201 
L 220.154721 341.360586 
L 215.832643 343.353743 
L 209.93053 345.758937 
L 215.074638 327.139074 
L 219.162806 313.12009 
L 224.345297 296.657932 
L 230.540108 279.002854 
L 237.649218 261.297998 
L 245.560136 244.508683 
L 254.147688 229.379083 
L 263.27599 216.043903 
L 272.800602 202.592429 
L 282.570816 187.180812 
L 292.432033 156.103945 
L 302.22822 130.569731 
L 311.804366 110.849353 
L 321.008949 95.526923 
L 329.69632 84.148294 
L 337.729018 75.862938 
L 344.97994 69.840479 
L 351.334353 65.509806 
L 356.691709 62.383166 
L 360.967237 60.173621 
L 366.718058 57.536145 
L 361.422049 76.509868 
L 357.286869 90.52934 
L 352.060445 106.871141 
L 345.825475 124.257468 
L 338.680617 141.552545 
L 330.738925 157.816958 
L 322.126062 172.5928 
L 312.978312 185.514842 
L 303.440422 198.58322 
L 293.663312 213.692411 
L 283.801687 244.160552 
L 274.011591 269.718372 
L 264.447933 289.428785 
L 255.262042 304.686538 
L 246.599269 316.006901 
L 238.596686 324.272539 
L 231.380921 330.215308 
L 225.066149 334.529407 
L 219.752291 337.643766 
L 215.52343 339.84186 
L 209.924061 342.431287 
L 215.371825 322.88928 
L 219.553903 308.707713 
L 224.824116 292.251005 
L 231.099073 274.822337 
L 238.279484 257.573379 
L 246.251731 241.47935 
L 254.889668 227.096436 
L 264.056614 214.46337 
L 273.607519 201.606686 
L 283.391257 184.885273 
L 295.106469 150.468589 
L 308.567782 119.032448 
L 321.708744 96.271224 
L 334.321422 80.643857 
L 346.206243 70.190059 
L 357.17515 63.155479 
L 367.05458 58.274077 
L 375.688209 54.829304 
L 382.939425 52.379075 
L 392.859356 49.518047 
L 396.188995 48.657705 
L 392.718434 61.351794 
L 388.484898 76.213926 
L 382.666465 95.053031 
L 375.3552 115.757693 
L 366.66679 136.254589 
L 356.738716 155.305609 
L 345.72807 172.23759 
L 333.809077 187.654284 
L 321.170334 201.553336 
L 308.011826 221.103557 
L 294.541764 238.784659 
L 280.973287 254.549928 
L 267.521093 276.394179 
L 254.398039 299.140969 
L 241.811773 315.569462 
L 229.961452 327.371165 
L 219.034584 334.864775 
L 209.20407 340.091573 
L 200.625459 343.780071 
L 193.434492 346.404913 
L 183.646873 349.447976 
L 180.458247 350.334059 
L 184.069635 337.152794 
L 188.370723 322.117856 
L 194.253365 303.209287 
L 201.624479 282.584255 
L 210.36743 262.329639 
L 220.343876 243.783514 
L 231.395957 227.646787 
L 243.348794 213.426986 
L 256.013255 200.974778 
L 269.188947 186.823675 
L 282.667387 173.985771 
L 296.235304 153.062536 
L 309.678009 124.53029 
L 322.782795 101.23181 
L 335.342302 85.222574 
L 347.157799 74.219618 
L 358.042325 66.65488 
L 367.823653 61.354497 
L 376.34701 57.610887 
L 383.47753 54.940297 
L 393.13257 51.839637 
L 396.180094 50.961498 
L 392.427978 64.516961 
L 388.059456 79.649936 
L 382.112767 98.574689 
L 374.682007 119.095641 
L 365.884755 139.131305 
L 355.860213 157.350676 
L 344.767 173.158974 
L 332.780647 186.906934 
L 320.090817 199.340938 
L 306.898304 213.07303 
L 293.411856 226.09752 
L 279.844873 248.142025 
L 266.412027 276.773083 
L 253.325869 299.712248 
L 240.793466 315.348551 
L 229.013119 326.103123 
L 218.171233 333.552654 
L 208.439361 338.759791 
L 199.971491 342.471846 
L 192.901615 345.124104 
L 183.379421 348.198272 
L 180.473082 349.042945 
L 184.365822 334.969329 
L 188.801659 319.61647 
L 194.812231 300.546401 
L 202.302432 279.990241 
L 211.153743 260.05315 
L 221.226106 242.041617 
L 232.360145 226.500214 
L 244.379684 212.85571 
L 257.094534 200.424008 
L 270.303506 186.418953 
L 283.79759 173.298432 
L 299.833267 146.130058 
L 316.922889 112.469117 
L 333.559954 88.40728 
L 349.481211 73.504185 
L 364.434734 63.969698 
L 378.18391 57.673175 
L 390.511182 53.310312 
L 401.221494 50.199199 
L 410.145374 47.965796 
L 422.09952 45.366504 
L 425.62 45.072079 
L 420.484874 62.282479 
L 414.751636 80.369262 
L 407.017874 102.347621 
L 397.405963 125.651778 
L 386.067994 147.502787 
L 373.18337 166.392632 
L 358.955967 182.066901 
L 343.610908 196.208342 
L 327.391003 209.194042 
L 310.552903 225.494291 
L 293.36304 243.238365 
L 276.093413 259.213852 
L 259.017285 284.818414 
L 242.404854 308.571244 
L 226.518982 325.007969 
L 211.611036 335.109953 
L 197.916907 341.676113 
L 185.653281 346.217604 
L 173.687281 349.799395 
L 166.773977 351.01234 
L 158.562411 352.962552 
L 163.876301 335.389137 
L 169.694931 317.190926 
L 177.509605 295.042132 
L 187.19667 271.737807 
L 198.602845 250.036898 
L 211.547648 231.377785 
L 225.82625 215.806857 
L 241.212717 201.612917 
L 257.463586 187.19252 
L 274.321716 167.940564 
L 291.520356 150.907854 
L 308.78737 131.624409 
L 325.849536 106.317034 
L 342.436876 86.368348 
L 358.286925 72.31897 
L 373.148884 63.493053 
L 386.787589 57.590633 
L 398.987231 53.410422 
L 409.554774 50.389831 
L 418.323003 48.204058 
L 429.937223 45.654263 
L 433.097701 45.01891 
L 427.605192 63.140414 
L 421.701331 81.4718 
L 413.805959 103.554783 
L 404.044007 126.729463 
L 392.56994 148.368873 
L 379.565315 167.025088 
L 365.235907 182.516803 
L 349.808454 196.465143 
L 333.527068 210.371925 
L 316.649373 223.538821 
L 282.178503 252.723068 
L 265.130769 271.40927 
L 248.568976 296.422447 
L 232.755185 315.069454 
L 217.939622 328.073868 
L 204.356716 336.087404 
L 192.221393 341.585949 
L 181.725672 345.436162 
L 173.035631 348.14767 
L 161.591856 351.217591 
L 158.611512 351.939624 
L 164.282488 333.319296 
L 170.271418 314.814108 
L 178.24727 292.658476 
L 188.083841 269.555586 
L 199.625484 248.16403 
L 212.689574 229.845911 
L 227.069393 214.607758 
L 242.537408 200.673055 
L 258.848863 186.317906 
L 275.74566 167.218303 
L 292.960436 150.298865 
L 313.306258 125.413677 
L 333.99391 96.011835 
L 354.077866 76.060402 
L 373.240332 64.089108 
L 391.178097 56.486456 
L 407.607328 51.323488 
L 422.268061 47.655821 
L 434.928316 44.989067 
L 445.387766 43.042737 
L 462.480653 40.232727 
L 460.229026 47.752154 
L 455.376256 63.508563 
L 447.99913 85.57613 
L 438.214376 110.766419 
L 426.176822 135.59726 
L 412.076941 157.375321 
L 396.137839 175.202059 
L 378.611722 189.854699 
L 359.775912 202.544068 
L 319.383391 227.861425 
L 298.46582 242.841773 
L 277.506722 258.037544 
L 256.837738 281.213147 
L 236.785917 308.609666 
L 217.668544 326.495377 
L 199.788118 337.059803 
L 183.427565 343.87402 
L 168.845762 348.513837 
L 156.273439 351.776018 
L 145.909532 354.089467 
L 132.425387 356.717562 
L 129.243401 357.287273 
L 131.604408 349.392478 
L 136.564175 333.288407 
L 144.044221 310.967848 
L 153.926189 285.663811 
L 166.053713 260.921055 
L 180.234897 239.339447 
L 196.245349 221.686657 
L 213.831731 207.274002 
L 232.715772 192.600381 
L 252.598663 179.026587 
L 273.165794 164.027593 
L 294.091725 147.482447 
L 315.045343 127.372532 
L 335.695091 98.960468 
L 355.714225 78.778898 
L 374.785978 65.854799 
L 392.608573 57.933734 
L 408.899998 52.556632 
L 423.402471 48.753959 
L 435.886516 45.997134 
L 446.154595 43.993906 
L 462.393512 41.193616 
L 459.923189 49.389131 
L 454.856562 65.698424 
L 447.273802 88.109903 
L 437.294892 113.27892 
L 425.077731 137.78406 
L 410.815634 159.128346 
L 394.734274 176.535641 
L 377.088108 190.858742 
L 358.156357 203.366166 
L 338.238583 215.531294 
L 317.649947 228.25584 
L 296.71623 243.154865 
L 275.76867 258.309651 
L 255.138726 281.837159 
L 235.152828 308.435811 
L 216.12722 325.834524 
L 198.362947 336.356511 
L 182.141098 343.182034 
L 167.718354 347.850669 
L 155.32293 351.129763 
L 145.150962 353.455651 
L 132.083477 356.077519 
L 129.339707 356.584949 
L 131.919277 348.024158 
L 137.092625 331.387135 
L 144.77789 308.75456 
L 154.853467 283.515236 
L 167.159929 259.100328 
L 181.502546 237.92307 
L 197.654374 220.65329 
L 215.359836 206.550195 
L 234.338777 192.014422 
L 254.290887 178.249346 
L 274.900461 163.104545 
L 274.900461 163.104545 
" clip-path="url(#p2907b50399)" style="fill: none; stroke: #0000ff; stroke-width: 1.2; stroke-linecap: square"/>
   </g>
   <g id="line2d_35">
    <path d="M 61.991563 200.149624 
L 481.551562 200.149624 
" clip-path="url(#p2907b50399)" style="fill: none; stroke: #000000; stroke-width: 0.4; stroke-linecap: square"/>
   </g>
   <g id="line2d_36">
    <path d="M 288.527738 373.14 
L 288.527738 24.38 
" clip-path="url(#p2907b50399)" style="fill: none; stroke: #000000; stroke-width: 0.4; stroke-linecap: square"/>
   </g>
   <g id="patch_3">
    <path d="M 61.991563 373.14 
L 61.991563 24.38 
" style="fill: none; stroke: #000000; stroke-width: 0.8; stroke-linejoin: miter; stroke-linecap: square"/>
   </g>
   <g id="patch_4">
    <path d="M 481.551562 373.14 
L 481.551562 24.38 
" style="fill: none; stroke: #000000; stroke-width: 0.8; stroke-linejoin: miter; stroke-linecap: square"/>
   </g>
   <g id="patch_5">
    <path d="M 61.991562 373.14 
L 481.551563 373.14 
" style="fill: none; stroke: #000000; stroke-width: 0.8; stroke-linejoin: miter; stroke-linecap: square"/>
   </g>
   <g id="patch_6">
    <path d="M 61.991562 24.38 
L 481.551563 24.38 
" style="fill: none; stroke: #000000; stroke-width: 0.8; stroke-linejoin: miter; stroke-linecap: square"/>
   </g>
   <g id="text_19">
    <!-- Specimen : Dazio_WSH2 -->
    <g transform="translate(189.514063 18.38) scale(0.16 -0.16)">
     <defs>
      <path id="Cambria-3a" d="M 1156 2822 
L 1156 2091 
L 531 2091 
L 531 2822 
L 1156 2822 
z
M 1156 725 
L 1156 0 
L 531 0 
L 531 725 
L 1156 725 
z
" transform="scale(0.015625)"/>
      <path id="Cambria-7a" d="M 2659 906 
L 2659 0 
L 253 0 
L 253 153 
L 1966 2734 
L 1119 2734 
Q 963 2734 872 2678 
Q 781 2622 700 2490 
Q 619 2359 544 2138 
L 272 2138 
L 272 2988 
L 2641 2988 
L 2641 2831 
L 931 253 
L 1753 253 
Q 1916 253 1997 278 
Q 2078 303 2137 358 
Q 2197 413 2253 531 
Q 2309 650 2388 906 
L 2659 906 
z
" transform="scale(0.015625)"/>
      <path id="Cambria-6f" d="M 1663 -50 
Q 1013 -50 670 333 
Q 328 716 328 1466 
Q 328 1981 508 2337 
Q 688 2694 1000 2867 
Q 1313 3041 1713 3041 
Q 2381 3041 2725 2652 
Q 3069 2263 3069 1534 
Q 3069 1016 2897 659 
Q 2725 303 2409 126 
Q 2094 -50 1663 -50 
z
M 919 1531 
Q 919 888 1123 542 
Q 1328 197 1709 197 
Q 1919 197 2066 298 
Q 2213 400 2305 572 
Q 2397 744 2437 970 
Q 2478 1197 2478 1444 
Q 2478 1903 2376 2206 
Q 2275 2509 2100 2651 
Q 1925 2794 1700 2794 
Q 1322 2794 1120 2466 
Q 919 2138 919 1531 
z
" transform="scale(0.015625)"/>
      <path id="Cambria-5f" d="M 0 -753 
L 0 -391 
L 2372 -391 
L 2372 -753 
L 0 -753 
z
" transform="scale(0.015625)"/>
      <path id="Cambria-57" d="M 2941 3469 
L 1941 -22 
L 1434 -22 
L 525 3372 
Q 469 3584 422 3718 
Q 375 3853 328 3929 
Q 281 4006 226 4045 
Q 172 4084 69 4113 
L 69 4266 
L 1406 4266 
L 1406 4113 
Q 1213 4075 1136 4000 
Q 1059 3925 1059 3791 
Q 1059 3681 1087 3531 
Q 1116 3381 1166 3191 
L 1794 722 
L 2800 4266 
L 3325 4266 
L 4141 719 
L 4878 3103 
Q 5013 3538 5013 3722 
Q 5013 3913 4933 3997 
Q 4853 4081 4669 4113 
L 4669 4266 
L 5900 4266 
L 5900 4113 
Q 5806 4081 5750 4042 
Q 5694 4003 5642 3936 
Q 5591 3869 5530 3728 
Q 5469 3588 5388 3350 
L 4250 -22 
L 3803 -22 
L 2941 3469 
z
" transform="scale(0.015625)"/>
      <path id="Cambria-48" d="M 3650 781 
Q 3650 600 3659 509 
Q 3669 419 3691 364 
Q 3713 309 3744 275 
Q 3775 241 3833 212 
Q 3891 184 4013 153 
L 4013 0 
L 2703 0 
L 2703 153 
Q 2875 197 2944 250 
Q 3013 303 3039 412 
Q 3066 522 3066 781 
L 3066 2091 
L 1328 2091 
L 1328 781 
Q 1328 572 1342 475 
Q 1356 378 1389 322 
Q 1422 266 1486 228 
Q 1550 191 1694 153 
L 1694 0 
L 378 0 
L 378 153 
Q 572 203 637 264 
Q 703 325 723 437 
Q 744 550 744 781 
L 744 3484 
Q 744 3700 728 3798 
Q 713 3897 677 3951 
Q 641 4006 581 4039 
Q 522 4072 378 4113 
L 378 4266 
L 1694 4266 
L 1694 4113 
Q 1556 4078 1495 4043 
Q 1434 4009 1398 3957 
Q 1363 3906 1345 3803 
Q 1328 3700 1328 3484 
L 1328 2378 
L 3066 2378 
L 3066 3484 
Q 3066 3756 3039 3856 
Q 3013 3956 2950 4009 
Q 2888 4063 2703 4113 
L 2703 4266 
L 4013 4266 
L 4013 4113 
Q 3838 4069 3769 4014 
Q 3700 3959 3675 3850 
Q 3650 3741 3650 3484 
L 3650 781 
z
" transform="scale(0.015625)"/>
     </defs>
     <use xlink:href="#Cambria-53"/>
     <use xlink:href="#Cambria-70" x="49.609375"/>
     <use xlink:href="#Cambria-65" x="105.224609"/>
     <use xlink:href="#Cambria-63" x="154.003906"/>
     <use xlink:href="#Cambria-69" x="198.095703"/>
     <use xlink:href="#Cambria-6d" x="225.878906"/>
     <use xlink:href="#Cambria-65" x="309.082031"/>
     <use xlink:href="#Cambria-6e" x="357.861328"/>
     <use xlink:href="#Cambria-20" x="413.671875"/>
     <use xlink:href="#Cambria-3a" x="435.693359"/>
     <use xlink:href="#Cambria-20" x="462.060547"/>
     <use xlink:href="#Cambria-44" x="484.082031"/>
     <use xlink:href="#Cambria-61" x="550.244141"/>
     <use xlink:href="#Cambria-7a" x="599.072266"/>
     <use xlink:href="#Cambria-69" x="644.53125"/>
     <use xlink:href="#Cambria-6f" x="672.314453"/>
     <use xlink:href="#Cambria-5f" x="725.390625"/>
     <use xlink:href="#Cambria-57" x="762.451172"/>
     <use xlink:href="#Cambria-53" x="854.589844"/>
     <use xlink:href="#Cambria-48" x="904.199219"/>
     <use xlink:href="#Cambria-32" x="972.851562"/>
    </g>
   </g>
   <g id="legend_1">
    <g id="patch_7">
     <path d="M 71.791563 75.114687 
L 232.052188 75.114687 
Q 234.852188 75.114687 234.852188 72.314687 
L 234.852188 34.18 
Q 234.852188 31.38 232.052188 31.38 
L 71.791563 31.38 
Q 68.991563 31.38 68.991563 34.18 
L 68.991563 72.314687 
Q 68.991563 75.114687 71.791563 75.114687 
z
" style="fill: #ffffff; opacity: 0.8; stroke: #cccccc; stroke-linejoin: miter"/>
    </g>
    <g id="line2d_37">
     <path d="M 74.591563 41.88 
L 88.591563 41.88 
L 102.591563 41.88 
" style="fill: none; stroke-dasharray: 3.7,1.6; stroke-dashoffset: 0; stroke: #000000"/>
    </g>
    <g id="text_20">
     <!-- Experimental Data -->
     <g transform="translate(113.791563 46.78) scale(0.14 -0.14)">
      <defs>
       <path id="Cambria-45" d="M 3300 4266 
L 3300 3322 
L 2994 3322 
Q 2947 3475 2897 3590 
Q 2847 3706 2794 3784 
Q 2741 3863 2677 3909 
Q 2613 3956 2525 3973 
Q 2438 3991 2316 3991 
L 1328 3991 
L 1328 2353 
L 1997 2353 
Q 2134 2353 2212 2392 
Q 2291 2431 2342 2525 
Q 2394 2619 2441 2819 
L 2734 2819 
L 2734 1619 
L 2441 1619 
Q 2397 1806 2344 1901 
Q 2291 1997 2217 2037 
Q 2144 2078 1997 2078 
L 1328 2078 
L 1328 275 
L 2300 275 
Q 2453 275 2548 301 
Q 2644 328 2712 392 
Q 2781 456 2834 559 
Q 2888 663 2923 773 
Q 2959 884 3022 1097 
L 3331 1097 
L 3272 0 
L 378 0 
L 378 153 
Q 572 203 637 264 
Q 703 325 723 437 
Q 744 550 744 781 
L 744 3484 
Q 744 3700 728 3798 
Q 713 3897 677 3951 
Q 641 4006 581 4039 
Q 522 4072 378 4113 
L 378 4266 
L 3300 4266 
z
" transform="scale(0.015625)"/>
       <path id="Cambria-78" d="M 1625 1803 
L 2031 2319 
Q 2097 2403 2137 2483 
Q 2178 2563 2178 2647 
Q 2178 2719 2125 2766 
Q 2072 2813 1959 2834 
L 1959 2988 
L 2981 2988 
L 2981 2834 
Q 2863 2800 2739 2700 
Q 2616 2600 2438 2378 
L 1791 1584 
L 2503 625 
Q 2656 419 2778 309 
Q 2900 200 3022 153 
L 3022 0 
L 1766 0 
L 1766 153 
Q 2025 184 2025 347 
Q 2025 413 2003 472 
Q 1981 531 1922 609 
L 1469 1241 
L 988 616 
Q 934 547 904 489 
Q 875 431 875 359 
Q 875 275 933 220 
Q 991 166 1116 153 
L 1116 0 
L 72 0 
L 72 153 
Q 175 191 258 247 
Q 341 303 427 392 
Q 513 481 653 653 
L 1303 1459 
L 638 2372 
Q 500 2559 419 2643 
Q 338 2728 269 2772 
Q 200 2816 131 2834 
L 131 2988 
L 1356 2988 
L 1356 2834 
Q 1109 2797 1109 2641 
Q 1109 2569 1142 2497 
Q 1175 2425 1244 2338 
L 1625 1803 
z
" transform="scale(0.015625)"/>
      </defs>
      <use xlink:href="#Cambria-45"/>
      <use xlink:href="#Cambria-78" x="57.519531"/>
      <use xlink:href="#Cambria-70" x="105.859375"/>
      <use xlink:href="#Cambria-65" x="161.474609"/>
      <use xlink:href="#Cambria-72" x="210.253906"/>
      <use xlink:href="#Cambria-69" x="251.611328"/>
      <use xlink:href="#Cambria-6d" x="279.394531"/>
      <use xlink:href="#Cambria-65" x="362.597656"/>
      <use xlink:href="#Cambria-6e" x="411.376953"/>
      <use xlink:href="#Cambria-74" x="467.1875"/>
      <use xlink:href="#Cambria-61" x="501.025391"/>
      <use xlink:href="#Cambria-6c" x="549.853516"/>
      <use xlink:href="#Cambria-20" x="577.001953"/>
      <use xlink:href="#Cambria-44" x="599.023438"/>
      <use xlink:href="#Cambria-61" x="665.185547"/>
      <use xlink:href="#Cambria-74" x="714.013672"/>
      <use xlink:href="#Cambria-61" x="747.851562"/>
     </g>
    </g>
    <g id="line2d_38">
     <path d="M 74.591563 61.62 
L 88.591563 61.62 
L 102.591563 61.62 
" style="fill: none; stroke: #0000ff; stroke-width: 1.2; stroke-linecap: square"/>
    </g>
    <g id="text_21">
     <!-- Numerical Analysis -->
     <g transform="translate(113.791563 66.52) scale(0.14 -0.14)">
      <defs>
       <path id="Cambria-75" d="M 228 2988 
L 1119 2988 
L 1119 1397 
Q 1119 1031 1147 840 
Q 1175 650 1231 553 
Q 1288 456 1391 390 
Q 1494 325 1675 325 
Q 1794 325 1903 372 
Q 2013 419 2147 536 
Q 2281 653 2339 768 
Q 2397 884 2397 1038 
L 2397 2209 
Q 2397 2388 2387 2478 
Q 2378 2569 2356 2623 
Q 2334 2678 2304 2712 
Q 2275 2747 2220 2775 
Q 2166 2803 2044 2834 
L 2044 2988 
L 2934 2988 
L 2934 853 
Q 2934 613 2943 506 
Q 2953 400 2984 337 
Q 3016 275 3081 236 
Q 3147 197 3316 163 
L 3316 0 
L 2600 -31 
L 2409 -31 
L 2428 481 
L 2381 494 
Q 2122 213 1886 81 
Q 1650 -50 1413 -50 
Q 1128 -50 943 62 
Q 759 175 668 398 
Q 578 622 578 1028 
L 578 2209 
Q 578 2472 558 2570 
Q 538 2669 480 2726 
Q 422 2784 228 2834 
L 228 2988 
z
" transform="scale(0.015625)"/>
       <path id="Cambria-41" d="M 2488 0 
L 2488 153 
Q 2644 184 2720 221 
Q 2797 259 2834 326 
Q 2872 394 2872 506 
Q 2872 613 2847 736 
Q 2822 859 2775 1013 
L 2659 1416 
L 1203 1416 
L 1097 1109 
Q 1016 878 991 759 
Q 966 641 966 544 
Q 966 356 1061 268 
Q 1156 181 1353 153 
L 1353 0 
L 19 0 
L 19 153 
Q 194 181 323 356 
Q 453 531 575 856 
L 1878 4316 
L 2372 4316 
L 3434 831 
Q 3509 588 3567 459 
Q 3625 331 3706 259 
Q 3788 188 3928 153 
L 3928 0 
L 2488 0 
z
M 1288 1688 
L 2594 1688 
L 2000 3703 
L 1288 1688 
z
" transform="scale(0.015625)"/>
       <path id="Cambria-79" d="M 1625 -256 
Q 1453 -644 1290 -884 
Q 1128 -1125 933 -1247 
Q 738 -1369 469 -1369 
Q 297 -1369 81 -1328 
L 81 -709 
L 359 -709 
Q 397 -838 453 -888 
Q 509 -938 616 -938 
Q 709 -938 782 -902 
Q 856 -866 936 -778 
Q 1016 -691 1123 -509 
Q 1231 -328 1366 -50 
L 491 2303 
Q 406 2531 354 2622 
Q 303 2713 243 2759 
Q 184 2806 63 2834 
L 63 2988 
L 1334 2988 
L 1334 2834 
Q 1188 2800 1128 2767 
Q 1069 2734 1041 2682 
Q 1013 2631 1013 2550 
Q 1013 2466 1033 2375 
Q 1053 2284 1097 2163 
L 1653 597 
L 2278 2097 
Q 2331 2222 2361 2326 
Q 2391 2431 2391 2522 
Q 2391 2656 2317 2725 
Q 2244 2794 2063 2834 
L 2063 2988 
L 3231 2988 
L 3231 2834 
Q 3109 2809 3043 2757 
Q 2978 2706 2912 2595 
Q 2847 2484 2756 2284 
L 1625 -256 
z
" transform="scale(0.015625)"/>
      </defs>
      <use xlink:href="#Cambria-4e"/>
      <use xlink:href="#Cambria-75" x="68.066406"/>
      <use xlink:href="#Cambria-6d" x="123.291016"/>
      <use xlink:href="#Cambria-65" x="206.494141"/>
      <use xlink:href="#Cambria-72" x="255.273438"/>
      <use xlink:href="#Cambria-69" x="296.630859"/>
      <use xlink:href="#Cambria-63" x="324.414062"/>
      <use xlink:href="#Cambria-61" x="368.505859"/>
      <use xlink:href="#Cambria-6c" x="417.333984"/>
      <use xlink:href="#Cambria-20" x="444.482422"/>
      <use xlink:href="#Cambria-41" x="466.503906"/>
      <use xlink:href="#Cambria-6e" x="528.808594"/>
      <use xlink:href="#Cambria-61" x="584.619141"/>
      <use xlink:href="#Cambria-6c" x="633.447266"/>
      <use xlink:href="#Cambria-79" x="660.595703"/>
      <use xlink:href="#Cambria-73" x="710.986328"/>
      <use xlink:href="#Cambria-69" x="753.955078"/>
      <use xlink:href="#Cambria-73" x="781.738281"/>
     </g>
    </g>
   </g>
  </g>
 </g>
 <defs>
  <clipPath id="p2907b50399">
   <rect x="61.991563" y="24.38" width="419.56" height="348.76"/>
  </clipPath>
 </defs>
</svg>
