<?xml version="1.0" encoding="utf-8" standalone="no"?>
<!DOCTYPE svg PUBLIC "-//W3C//DTD SVG 1.1//EN"
  "http://www.w3.org/Graphics/SVG/1.1/DTD/svg11.dtd">
<svg xmlns:xlink="http://www.w3.org/1999/xlink" width="488.661562pt" height="416.844062pt" viewBox="0 0 488.661562 416.844062" xmlns="http://www.w3.org/2000/svg" version="1.1">
 <metadata>
  <rdf:RDF xmlns:dc="http://purl.org/dc/elements/1.1/" xmlns:cc="http://creativecommons.org/ns#" xmlns:rdf="http://www.w3.org/1999/02/22-rdf-syntax-ns#">
   <cc:Work>
    <dc:type rdf:resource="http://purl.org/dc/dcmitype/StillImage"/>
    <dc:date>2023-10-13T14:34:52.831235</dc:date>
    <dc:format>image/svg+xml</dc:format>
    <dc:creator>
     <cc:Agent>
      <dc:title>Matplotlib v3.8.0, https://matplotlib.org/</dc:title>
     </cc:Agent>
    </dc:creator>
   </cc:Work>
  </rdf:RDF>
 </metadata>
 <defs>
  <style type="text/css">*{stroke-linejoin: round; stroke-linecap: butt}</style>
 </defs>
 <g id="figure_1">
  <g id="patch_1">
   <path d="M 0 416.844062 
L 488.661562 416.844062 
L 488.661562 0 
L 0 0 
z
" style="fill: #ffffff"/>
  </g>
  <g id="axes_1">
   <g id="patch_2">
    <path d="M 61.991563 373.14 
L 481.461563 373.14 
L 481.461563 24.38 
L 61.991563 24.38 
z
" style="fill: #ffffff"/>
   </g>
   <g id="matplotlib.axis_1">
    <g id="xtick_1">
     <g id="line2d_1">
      <path d="M 90.137818 373.14 
L 90.137818 24.38 
" clip-path="url(#p4601d8f619)" style="fill: none; stroke-dasharray: 0.8,1.32; stroke-dashoffset: 0; stroke: #b0b0b0; stroke-width: 0.8"/>
     </g>
     <g id="line2d_2">
      <defs>
       <path id="m5a887633b2" d="M 0 0 
L 0 3.5 
" style="stroke: #000000; stroke-width: 0.8"/>
      </defs>
      <g>
       <use xlink:href="#m5a887633b2" x="90.137818" y="373.14" style="stroke: #000000; stroke-width: 0.8"/>
      </g>
     </g>
     <g id="text_1">
      <!-- −60 -->
      <g transform="translate(78.509068 389.9225) scale(0.14 -0.14)">
       <defs>
        <path id="Cambria-2212" d="M 397 1613 
L 397 2047 
L 3147 2047 
L 3147 1613 
L 397 1613 
z
" transform="scale(0.015625)"/>
        <path id="Cambria-36" d="M 2847 4144 
L 2847 3991 
Q 2366 3991 1994 3784 
Q 1622 3578 1376 3178 
Q 1131 2778 1031 2228 
L 1063 2216 
Q 1325 2403 1579 2490 
Q 1834 2578 2131 2578 
Q 2484 2578 2732 2423 
Q 2981 2269 3106 1989 
Q 3231 1709 3231 1334 
Q 3231 928 3075 617 
Q 2919 306 2592 128 
Q 2266 -50 1788 -50 
Q 1103 -50 754 375 
Q 406 800 406 1628 
Q 406 2184 581 2668 
Q 756 3153 1078 3514 
Q 1400 3875 1825 4083 
Q 2250 4291 2719 4316 
L 2847 4144 
z
M 1916 2250 
Q 1763 2250 1620 2215 
Q 1478 2181 1353 2115 
Q 1228 2050 1109 1950 
Q 1072 1916 1053 1878 
Q 1022 1819 1012 1731 
Q 1003 1644 1003 1438 
Q 1003 841 1203 528 
Q 1403 216 1809 216 
Q 2044 216 2203 297 
Q 2363 378 2461 520 
Q 2559 663 2601 855 
Q 2644 1047 2644 1272 
Q 2644 1734 2453 1992 
Q 2263 2250 1916 2250 
z
" transform="scale(0.015625)"/>
        <path id="Cambria-30" d="M 1738 -50 
Q 1063 -50 733 481 
Q 403 1013 403 2094 
Q 403 2669 504 3087 
Q 606 3506 789 3779 
Q 972 4053 1228 4184 
Q 1484 4316 1788 4316 
Q 2472 4316 2806 3787 
Q 3141 3259 3141 2191 
Q 3141 1084 2783 517 
Q 2425 -50 1738 -50 
z
M 1013 2188 
Q 1013 1169 1202 692 
Q 1391 216 1788 216 
Q 2166 216 2348 664 
Q 2531 1113 2531 2053 
Q 2531 2772 2437 3217 
Q 2344 3663 2176 3856 
Q 2009 4050 1772 4050 
Q 1556 4050 1411 3922 
Q 1266 3794 1177 3553 
Q 1088 3313 1050 2967 
Q 1013 2622 1013 2188 
z
" transform="scale(0.015625)"/>
       </defs>
       <use xlink:href="#Cambria-2212"/>
       <use xlink:href="#Cambria-36" x="55.371094"/>
       <use xlink:href="#Cambria-30" x="110.742188"/>
      </g>
     </g>
    </g>
    <g id="xtick_2">
     <g id="line2d_3">
      <path d="M 150.667399 373.14 
L 150.667399 24.38 
" clip-path="url(#p4601d8f619)" style="fill: none; stroke-dasharray: 0.8,1.32; stroke-dashoffset: 0; stroke: #b0b0b0; stroke-width: 0.8"/>
     </g>
     <g id="line2d_4">
      <g>
       <use xlink:href="#m5a887633b2" x="150.667399" y="373.14" style="stroke: #000000; stroke-width: 0.8"/>
      </g>
     </g>
     <g id="text_2">
      <!-- −40 -->
      <g transform="translate(139.038649 389.9225) scale(0.14 -0.14)">
       <defs>
        <path id="Cambria-34" d="M 1613 153 
Q 1806 203 1872 264 
Q 1938 325 1958 437 
Q 1978 550 1978 781 
L 1978 1294 
L 241 1294 
L 241 1528 
L 2069 4288 
L 2516 4288 
L 2516 1597 
L 2581 1597 
Q 2763 1597 2841 1623 
Q 2919 1650 2970 1717 
Q 3022 1784 3066 1938 
L 3303 1938 
L 3266 1294 
L 2516 1294 
L 2516 781 
Q 2516 572 2530 475 
Q 2544 378 2576 322 
Q 2609 266 2673 228 
Q 2738 191 2881 153 
L 2881 0 
L 1613 0 
L 1613 153 
z
M 756 1597 
L 1978 1597 
L 1978 2375 
Q 1978 2669 1987 3033 
Q 1997 3397 2009 3581 
L 1978 3581 
L 756 1641 
L 756 1597 
z
" transform="scale(0.015625)"/>
       </defs>
       <use xlink:href="#Cambria-2212"/>
       <use xlink:href="#Cambria-34" x="55.371094"/>
       <use xlink:href="#Cambria-30" x="110.742188"/>
      </g>
     </g>
    </g>
    <g id="xtick_3">
     <g id="line2d_5">
      <path d="M 211.196981 373.14 
L 211.196981 24.38 
" clip-path="url(#p4601d8f619)" style="fill: none; stroke-dasharray: 0.8,1.32; stroke-dashoffset: 0; stroke: #b0b0b0; stroke-width: 0.8"/>
     </g>
     <g id="line2d_6">
      <g>
       <use xlink:href="#m5a887633b2" x="211.196981" y="373.14" style="stroke: #000000; stroke-width: 0.8"/>
      </g>
     </g>
     <g id="text_3">
      <!-- −20 -->
      <g transform="translate(199.568231 389.9225) scale(0.14 -0.14)">
       <defs>
        <path id="Cambria-32" d="M 2194 500 
Q 2347 500 2440 519 
Q 2534 538 2590 581 
Q 2647 625 2680 695 
Q 2713 766 2763 913 
L 3028 913 
L 2975 0 
L 403 0 
L 403 150 
Q 538 478 766 822 
Q 994 1166 1413 1631 
Q 1775 2031 1934 2238 
Q 2109 2463 2195 2627 
Q 2281 2791 2318 2936 
Q 2356 3081 2356 3228 
Q 2356 3463 2281 3642 
Q 2206 3822 2051 3925 
Q 1897 4028 1663 4028 
Q 1078 4028 875 3378 
L 497 3378 
L 497 3978 
Q 875 4156 1204 4236 
Q 1534 4316 1797 4316 
Q 2378 4316 2675 4061 
Q 2972 3806 2972 3322 
Q 2972 3156 2939 3017 
Q 2906 2878 2836 2742 
Q 2766 2606 2647 2450 
Q 2528 2294 2384 2133 
Q 2241 1972 1888 1597 
Q 1294 969 1016 500 
L 2194 500 
z
" transform="scale(0.015625)"/>
       </defs>
       <use xlink:href="#Cambria-2212"/>
       <use xlink:href="#Cambria-32" x="55.371094"/>
       <use xlink:href="#Cambria-30" x="110.742188"/>
      </g>
     </g>
    </g>
    <g id="xtick_4">
     <g id="line2d_7">
      <path d="M 271.726562 373.14 
L 271.726562 24.38 
" clip-path="url(#p4601d8f619)" style="fill: none; stroke-dasharray: 0.8,1.32; stroke-dashoffset: 0; stroke: #b0b0b0; stroke-width: 0.8"/>
     </g>
     <g id="line2d_8">
      <g>
       <use xlink:href="#m5a887633b2" x="271.726562" y="373.14" style="stroke: #000000; stroke-width: 0.8"/>
      </g>
     </g>
     <g id="text_4">
      <!-- 0 -->
      <g transform="translate(267.850312 389.9225) scale(0.14 -0.14)">
       <use xlink:href="#Cambria-30"/>
      </g>
     </g>
    </g>
    <g id="xtick_5">
     <g id="line2d_9">
      <path d="M 332.256144 373.14 
L 332.256144 24.38 
" clip-path="url(#p4601d8f619)" style="fill: none; stroke-dasharray: 0.8,1.32; stroke-dashoffset: 0; stroke: #b0b0b0; stroke-width: 0.8"/>
     </g>
     <g id="line2d_10">
      <g>
       <use xlink:href="#m5a887633b2" x="332.256144" y="373.14" style="stroke: #000000; stroke-width: 0.8"/>
      </g>
     </g>
     <g id="text_5">
      <!-- 20 -->
      <g transform="translate(324.503644 389.9225) scale(0.14 -0.14)">
       <use xlink:href="#Cambria-32"/>
       <use xlink:href="#Cambria-30" x="55.371094"/>
      </g>
     </g>
    </g>
    <g id="xtick_6">
     <g id="line2d_11">
      <path d="M 392.785726 373.14 
L 392.785726 24.38 
" clip-path="url(#p4601d8f619)" style="fill: none; stroke-dasharray: 0.8,1.32; stroke-dashoffset: 0; stroke: #b0b0b0; stroke-width: 0.8"/>
     </g>
     <g id="line2d_12">
      <g>
       <use xlink:href="#m5a887633b2" x="392.785726" y="373.14" style="stroke: #000000; stroke-width: 0.8"/>
      </g>
     </g>
     <g id="text_6">
      <!-- 40 -->
      <g transform="translate(385.033226 389.9225) scale(0.14 -0.14)">
       <use xlink:href="#Cambria-34"/>
       <use xlink:href="#Cambria-30" x="55.371094"/>
      </g>
     </g>
    </g>
    <g id="xtick_7">
     <g id="line2d_13">
      <path d="M 453.315307 373.14 
L 453.315307 24.38 
" clip-path="url(#p4601d8f619)" style="fill: none; stroke-dasharray: 0.8,1.32; stroke-dashoffset: 0; stroke: #b0b0b0; stroke-width: 0.8"/>
     </g>
     <g id="line2d_14">
      <g>
       <use xlink:href="#m5a887633b2" x="453.315307" y="373.14" style="stroke: #000000; stroke-width: 0.8"/>
      </g>
     </g>
     <g id="text_7">
      <!-- 60 -->
      <g transform="translate(445.562807 389.9225) scale(0.14 -0.14)">
       <use xlink:href="#Cambria-36"/>
       <use xlink:href="#Cambria-30" x="55.371094"/>
      </g>
     </g>
    </g>
    <g id="text_8">
     <!-- Displacement (mm) -->
     <g transform="translate(214.282812 406.67125) scale(0.14 -0.14)">
      <defs>
       <path id="Cambria-Italic-44" d="M 2134 4266 
Q 2606 4266 2900 4194 
Q 3194 4122 3448 3934 
Q 3703 3747 3831 3436 
Q 3959 3125 3959 2700 
Q 3959 2278 3862 1893 
Q 3766 1509 3584 1186 
Q 3403 863 3150 623 
Q 2897 384 2659 256 
Q 2422 128 2128 64 
Q 1834 0 1444 0 
L 131 0 
L 166 153 
Q 284 172 343 214 
Q 403 256 443 331 
Q 484 406 518 514 
Q 553 622 622 931 
L 1153 3338 
Q 1184 3481 1203 3614 
Q 1222 3747 1222 3841 
Q 1222 3988 1147 4045 
Q 1072 4103 916 4113 
L 950 4266 
L 2134 4266 
z
M 1038 288 
Q 1128 278 1384 278 
Q 1700 278 1958 347 
Q 2216 416 2433 567 
Q 2650 719 2828 972 
Q 3006 1225 3117 1486 
Q 3228 1747 3290 2047 
Q 3353 2347 3353 2681 
Q 3353 3334 3048 3664 
Q 2744 3994 2144 3994 
Q 2006 3994 1847 3984 
L 1038 288 
z
" transform="scale(0.015625)"/>
       <path id="Cambria-Italic-69" d="M 1750 4213 
L 1606 3606 
L 1053 3606 
L 1197 4213 
L 1750 4213 
z
M 978 781 
Q 944 622 934 548 
Q 925 475 925 425 
Q 925 331 956 278 
Q 988 225 1053 197 
Q 1119 169 1269 153 
L 1241 0 
L 272 0 
L 744 2106 
Q 784 2288 800 2395 
Q 816 2503 816 2575 
Q 816 2666 789 2716 
Q 763 2766 700 2791 
Q 638 2816 484 2822 
L 519 2988 
L 1281 3016 
L 1466 3016 
L 978 781 
z
" transform="scale(0.015625)"/>
       <path id="Cambria-Italic-73" d="M 2063 2259 
Q 2028 2541 1901 2667 
Q 1775 2794 1509 2794 
Q 1363 2794 1244 2739 
Q 1125 2684 1056 2579 
Q 988 2475 988 2334 
Q 988 2219 1034 2123 
Q 1081 2028 1192 1925 
Q 1303 1822 1503 1688 
Q 1806 1484 1928 1293 
Q 2050 1103 2050 853 
Q 2050 559 1909 354 
Q 1769 150 1525 50 
Q 1281 -50 975 -50 
Q 700 -50 461 -9 
Q 222 31 -3 94 
L 144 769 
L 388 769 
Q 409 481 551 339 
Q 694 197 966 197 
Q 1244 197 1400 336 
Q 1556 475 1556 703 
Q 1556 838 1509 944 
Q 1463 1050 1363 1147 
Q 1263 1244 1078 1369 
Q 881 1503 759 1622 
Q 638 1741 570 1883 
Q 503 2025 503 2197 
Q 503 2456 631 2647 
Q 759 2838 995 2938 
Q 1231 3038 1547 3038 
Q 2063 3038 2456 2903 
L 2313 2259 
L 2063 2259 
z
" transform="scale(0.015625)"/>
       <path id="Cambria-Italic-70" d="M 669 -553 
Q 638 -703 630 -784 
Q 622 -866 622 -919 
Q 622 -1013 653 -1066 
Q 684 -1119 750 -1147 
Q 816 -1175 966 -1191 
L 941 -1344 
L -25 -1344 
L 766 2131 
Q 825 2394 825 2581 
Q 825 2669 798 2717 
Q 772 2766 708 2789 
Q 644 2813 491 2822 
L 528 2988 
L 1238 3016 
L 1416 3016 
L 1206 2203 
L 1244 2191 
Q 1822 3038 2394 3038 
Q 2734 3038 2923 2778 
Q 3113 2519 3113 2047 
Q 3113 1709 3020 1368 
Q 2928 1028 2764 753 
Q 2600 478 2398 301 
Q 2197 125 1973 37 
Q 1750 -50 1503 -50 
Q 1088 -50 813 131 
L 669 -553 
z
M 1044 1088 
Q 1013 922 1005 834 
Q 997 747 997 663 
Q 997 419 1101 308 
Q 1206 197 1463 197 
Q 1622 197 1756 259 
Q 1891 322 2011 440 
Q 2131 559 2228 728 
Q 2325 897 2401 1120 
Q 2478 1344 2517 1580 
Q 2556 1816 2556 2022 
Q 2556 2350 2464 2511 
Q 2372 2672 2172 2672 
Q 2013 2672 1858 2564 
Q 1703 2456 1518 2218 
Q 1334 1981 1231 1750 
Q 1128 1519 1069 1219 
L 1044 1088 
z
" transform="scale(0.015625)"/>
       <path id="Cambria-Italic-6c" d="M 1578 4469 
L 1763 4469 
L 950 781 
Q 916 631 906 554 
Q 897 478 897 425 
Q 897 331 928 278 
Q 959 225 1025 197 
Q 1091 169 1241 153 
L 1216 0 
L 241 0 
L 1047 3588 
Q 1078 3725 1090 3794 
Q 1103 3863 1109 3925 
Q 1116 3988 1116 4034 
Q 1116 4128 1081 4176 
Q 1047 4225 983 4247 
Q 919 4269 753 4278 
L 791 4441 
L 1578 4469 
z
" transform="scale(0.015625)"/>
       <path id="Cambria-Italic-61" d="M 2606 2834 
L 2894 3041 
L 3094 2991 
L 2616 869 
Q 2572 681 2556 579 
Q 2541 478 2541 413 
Q 2541 284 2612 226 
Q 2684 169 2888 153 
L 2859 0 
L 1966 0 
L 2163 784 
L 2122 797 
Q 1822 359 1553 156 
Q 1284 -47 984 -47 
Q 641 -47 452 212 
Q 263 472 263 941 
Q 263 1241 331 1542 
Q 400 1844 539 2114 
Q 678 2384 872 2590 
Q 1066 2797 1320 2919 
Q 1575 3041 1875 3041 
Q 2069 3041 2244 2995 
Q 2419 2950 2606 2834 
z
M 2331 1903 
Q 2359 2031 2368 2125 
Q 2378 2219 2378 2328 
Q 2378 2572 2275 2683 
Q 2172 2794 1931 2794 
Q 1800 2794 1681 2751 
Q 1563 2709 1441 2611 
Q 1319 2513 1208 2353 
Q 1097 2194 1006 1966 
Q 916 1738 866 1477 
Q 816 1216 816 969 
Q 816 644 905 483 
Q 994 322 1203 322 
Q 1300 322 1404 365 
Q 1509 409 1637 526 
Q 1766 644 1928 872 
Q 2075 1081 2161 1286 
Q 2247 1491 2303 1769 
L 2331 1903 
z
" transform="scale(0.015625)"/>
       <path id="Cambria-Italic-63" d="M 2297 2238 
Q 2291 2475 2258 2581 
Q 2225 2688 2151 2741 
Q 2078 2794 1944 2794 
Q 1628 2794 1376 2542 
Q 1125 2291 965 1830 
Q 806 1369 806 944 
Q 806 813 829 697 
Q 853 581 911 497 
Q 969 413 1064 364 
Q 1159 316 1306 316 
Q 1591 316 1798 423 
Q 2006 531 2238 763 
L 2428 572 
Q 2134 247 1836 97 
Q 1538 -53 1194 -53 
Q 741 -53 506 215 
Q 272 484 272 997 
Q 272 1331 397 1731 
Q 522 2131 762 2434 
Q 1003 2738 1325 2888 
Q 1647 3038 2013 3038 
Q 2263 3038 2448 3009 
Q 2634 2981 2778 2944 
L 2625 2238 
L 2297 2238 
z
" transform="scale(0.015625)"/>
       <path id="Cambria-Italic-65" d="M 2544 622 
Q 2313 369 2100 222 
Q 1888 75 1675 12 
Q 1463 -50 1206 -50 
Q 959 -50 781 29 
Q 603 109 486 248 
Q 369 388 312 580 
Q 256 772 256 997 
Q 256 1331 376 1714 
Q 497 2097 740 2401 
Q 984 2706 1325 2873 
Q 1666 3041 2050 3041 
Q 2428 3041 2617 2887 
Q 2806 2734 2806 2409 
Q 2806 1878 2307 1612 
Q 1809 1347 828 1347 
Q 791 1159 791 941 
Q 791 613 919 464 
Q 1047 316 1338 316 
Q 1625 316 1859 441 
Q 2094 566 2350 825 
L 2544 622 
z
M 881 1613 
Q 1169 1616 1386 1645 
Q 1603 1675 1759 1726 
Q 1916 1778 2019 1850 
Q 2122 1922 2183 2008 
Q 2244 2094 2267 2189 
Q 2291 2284 2291 2388 
Q 2291 2578 2202 2686 
Q 2113 2794 1938 2794 
Q 1719 2794 1508 2636 
Q 1297 2478 1136 2211 
Q 975 1944 881 1613 
z
" transform="scale(0.015625)"/>
       <path id="Cambria-Italic-6d" d="M 2997 2375 
L 2997 2331 
Q 2997 2309 2994 2284 
Q 3266 2669 3534 2853 
Q 3803 3038 4091 3038 
Q 4388 3038 4542 2870 
Q 4697 2703 4697 2375 
Q 4697 2175 4634 1894 
L 4372 781 
Q 4319 556 4319 425 
Q 4319 331 4350 278 
Q 4381 225 4447 197 
Q 4513 169 4663 153 
L 4634 0 
L 3653 0 
L 4047 1588 
Q 4091 1759 4123 1936 
Q 4156 2113 4156 2256 
Q 4156 2481 4078 2576 
Q 4000 2672 3831 2672 
Q 3709 2672 3557 2572 
Q 3406 2472 3240 2265 
Q 3075 2059 2970 1857 
Q 2866 1656 2803 1366 
L 2519 0 
L 1978 0 
L 2338 1588 
Q 2403 1878 2426 2017 
Q 2450 2156 2450 2256 
Q 2450 2481 2370 2576 
Q 2291 2672 2122 2672 
Q 1997 2672 1845 2570 
Q 1694 2469 1525 2256 
Q 1356 2044 1254 1839 
Q 1153 1634 1097 1353 
L 813 0 
L 272 0 
L 747 2134 
Q 763 2206 789 2347 
Q 816 2488 816 2581 
Q 816 2669 789 2717 
Q 763 2766 698 2789 
Q 634 2813 481 2822 
L 519 2988 
L 1231 3016 
L 1406 3016 
L 1200 2206 
L 1238 2194 
Q 1525 2622 1809 2830 
Q 2094 3038 2384 3038 
Q 2684 3038 2840 2867 
Q 2997 2697 2997 2375 
z
" transform="scale(0.015625)"/>
       <path id="Cambria-Italic-6e" d="M 2947 0 
L 1963 0 
L 2359 1588 
Q 2397 1741 2433 1925 
Q 2469 2109 2469 2256 
Q 2469 2478 2392 2575 
Q 2316 2672 2153 2672 
Q 2022 2672 1870 2570 
Q 1719 2469 1553 2267 
Q 1388 2066 1273 1858 
Q 1159 1650 1097 1353 
L 813 0 
L 272 0 
L 747 2134 
Q 763 2206 789 2347 
Q 816 2488 816 2581 
Q 816 2669 789 2717 
Q 763 2766 698 2789 
Q 634 2813 481 2822 
L 519 2988 
L 1228 3016 
L 1406 3016 
L 1197 2203 
L 1234 2191 
Q 1541 2622 1825 2830 
Q 2109 3038 2394 3038 
Q 2697 3038 2853 2870 
Q 3009 2703 3009 2375 
Q 3009 2263 2989 2130 
Q 2969 1997 2944 1894 
L 2681 781 
Q 2628 556 2628 425 
Q 2628 331 2659 278 
Q 2691 225 2756 197 
Q 2822 169 2972 153 
L 2947 0 
z
" transform="scale(0.015625)"/>
       <path id="Cambria-Italic-74" d="M 2109 575 
Q 1853 266 1603 108 
Q 1353 -50 1072 -50 
Q 741 -50 578 119 
Q 416 288 416 609 
Q 416 806 472 1050 
L 859 2672 
L 394 2672 
L 428 2831 
Q 613 2853 720 2911 
Q 828 2969 901 3064 
Q 975 3159 1037 3312 
Q 1100 3466 1194 3759 
L 1625 3759 
L 1453 2988 
L 2444 2988 
L 2375 2672 
L 1381 2672 
L 1081 1459 
Q 956 953 956 703 
Q 956 513 1039 414 
Q 1122 316 1281 316 
Q 1425 316 1583 427 
Q 1741 538 1928 763 
L 2109 575 
z
" transform="scale(0.015625)"/>
       <path id="Cambria-Italic-20" transform="scale(0.015625)"/>
       <path id="Cambria-Italic-28" d="M 1616 -1359 
Q 1172 -1359 897 -1200 
Q 622 -1041 498 -736 
Q 375 -431 375 28 
Q 375 353 431 747 
Q 506 1253 648 1875 
Q 791 2497 928 2906 
Q 1088 3372 1272 3667 
Q 1456 3963 1675 4134 
Q 1894 4306 2172 4391 
Q 2478 4484 2906 4484 
L 2850 4228 
Q 2575 4228 2397 4165 
Q 2219 4103 2078 3978 
Q 1916 3834 1769 3575 
Q 1597 3266 1438 2766 
Q 1300 2334 1163 1713 
Q 1050 1203 981 797 
Q 888 228 888 -147 
Q 888 -513 977 -722 
Q 1066 -931 1233 -1017 
Q 1400 -1103 1672 -1103 
L 1616 -1359 
z
" transform="scale(0.015625)"/>
       <path id="Cambria-Italic-29" d="M 794 4484 
Q 1238 4484 1513 4325 
Q 1788 4166 1911 3861 
Q 2034 3556 2034 3097 
Q 2034 2778 1978 2394 
Q 1903 1850 1747 1184 
Q 1600 569 1466 178 
Q 1313 -263 1133 -552 
Q 953 -841 733 -1012 
Q 513 -1184 234 -1266 
Q -72 -1359 -497 -1359 
L -441 -1103 
Q -166 -1103 11 -1040 
Q 188 -978 325 -856 
Q 494 -709 644 -441 
Q 819 -125 973 367 
Q 1128 859 1266 1506 
Q 1375 2006 1438 2394 
Q 1522 2922 1522 3272 
Q 1522 3641 1431 3850 
Q 1341 4059 1173 4143 
Q 1006 4228 738 4228 
L 794 4484 
z
" transform="scale(0.015625)"/>
      </defs>
      <use xlink:href="#Cambria-Italic-44"/>
      <use xlink:href="#Cambria-Italic-69" x="64.648438"/>
      <use xlink:href="#Cambria-Italic-73" x="91.748047"/>
      <use xlink:href="#Cambria-Italic-70" x="129.931641"/>
      <use xlink:href="#Cambria-Italic-6c" x="182.617188"/>
      <use xlink:href="#Cambria-Italic-61" x="209.277344"/>
      <use xlink:href="#Cambria-Italic-63" x="261.865234"/>
      <use xlink:href="#Cambria-Italic-65" x="305.175781"/>
      <use xlink:href="#Cambria-Italic-6d" x="350.878906"/>
      <use xlink:href="#Cambria-Italic-65" x="430.761719"/>
      <use xlink:href="#Cambria-Italic-6e" x="476.464844"/>
      <use xlink:href="#Cambria-Italic-74" x="529.980469"/>
      <use xlink:href="#Cambria-Italic-20" x="564.501953"/>
      <use xlink:href="#Cambria-Italic-28" x="586.523438"/>
      <use xlink:href="#Cambria-Italic-6d" x="623.681641"/>
      <use xlink:href="#Cambria-Italic-6d" x="703.564453"/>
      <use xlink:href="#Cambria-Italic-29" x="783.447266"/>
     </g>
    </g>
   </g>
   <g id="matplotlib.axis_2">
    <g id="ytick_1">
     <g id="line2d_15">
      <path d="M 61.991563 335.312754 
L 481.461563 335.312754 
" clip-path="url(#p4601d8f619)" style="fill: none; stroke-dasharray: 0.8,1.32; stroke-dashoffset: 0; stroke: #b0b0b0; stroke-width: 0.8"/>
     </g>
     <g id="line2d_16">
      <defs>
       <path id="m3c65892060" d="M 0 0 
L -3.5 0 
" style="stroke: #000000; stroke-width: 0.8"/>
      </defs>
      <g>
       <use xlink:href="#m3c65892060" x="61.991563" y="335.312754" style="stroke: #000000; stroke-width: 0.8"/>
      </g>
     </g>
     <g id="text_9">
      <!-- −300 -->
      <g transform="translate(23.981563 340.204004) scale(0.14 -0.14)">
       <defs>
        <path id="Cambria-33" d="M 497 3381 
L 497 3975 
Q 859 4147 1175 4231 
Q 1491 4316 1784 4316 
Q 2138 4316 2403 4206 
Q 2669 4097 2809 3892 
Q 2950 3688 2950 3403 
Q 2950 3138 2844 2936 
Q 2738 2734 2545 2584 
Q 2353 2434 2047 2291 
L 2047 2263 
Q 2238 2228 2414 2145 
Q 2591 2063 2728 1931 
Q 2866 1800 2948 1617 
Q 3031 1434 3031 1200 
Q 3031 838 2873 556 
Q 2716 275 2391 112 
Q 2066 -50 1600 -50 
Q 1331 -50 1020 11 
Q 709 72 450 172 
L 450 834 
L 825 834 
Q 934 509 1114 362 
Q 1294 216 1603 216 
Q 2009 216 2217 437 
Q 2425 659 2425 1094 
Q 2425 1550 2150 1790 
Q 1875 2031 1344 2031 
L 1063 2031 
L 1063 2306 
Q 1484 2331 1773 2468 
Q 2063 2606 2203 2822 
Q 2344 3038 2344 3306 
Q 2344 3653 2159 3840 
Q 1975 4028 1622 4028 
Q 1328 4028 1143 3868 
Q 959 3709 872 3381 
L 497 3381 
z
" transform="scale(0.015625)"/>
       </defs>
       <use xlink:href="#Cambria-2212"/>
       <use xlink:href="#Cambria-33" x="55.371094"/>
       <use xlink:href="#Cambria-30" x="110.742188"/>
       <use xlink:href="#Cambria-30" x="166.113281"/>
      </g>
     </g>
    </g>
    <g id="ytick_2">
     <g id="line2d_17">
      <path d="M 61.991563 289.862965 
L 481.461563 289.862965 
" clip-path="url(#p4601d8f619)" style="fill: none; stroke-dasharray: 0.8,1.32; stroke-dashoffset: 0; stroke: #b0b0b0; stroke-width: 0.8"/>
     </g>
     <g id="line2d_18">
      <g>
       <use xlink:href="#m3c65892060" x="61.991563" y="289.862965" style="stroke: #000000; stroke-width: 0.8"/>
      </g>
     </g>
     <g id="text_10">
      <!-- −200 -->
      <g transform="translate(23.981563 294.754215) scale(0.14 -0.14)">
       <use xlink:href="#Cambria-2212"/>
       <use xlink:href="#Cambria-32" x="55.371094"/>
       <use xlink:href="#Cambria-30" x="110.742188"/>
       <use xlink:href="#Cambria-30" x="166.113281"/>
      </g>
     </g>
    </g>
    <g id="ytick_3">
     <g id="line2d_19">
      <path d="M 61.991563 244.413177 
L 481.461563 244.413177 
" clip-path="url(#p4601d8f619)" style="fill: none; stroke-dasharray: 0.8,1.32; stroke-dashoffset: 0; stroke: #b0b0b0; stroke-width: 0.8"/>
     </g>
     <g id="line2d_20">
      <g>
       <use xlink:href="#m3c65892060" x="61.991563" y="244.413177" style="stroke: #000000; stroke-width: 0.8"/>
      </g>
     </g>
     <g id="text_11">
      <!-- −100 -->
      <g transform="translate(23.981563 249.304427) scale(0.14 -0.14)">
       <defs>
        <path id="Cambria-31" d="M 2172 816 
Q 2172 634 2192 542 
Q 2213 450 2264 392 
Q 2316 334 2412 301 
Q 2509 269 2656 251 
Q 2803 234 3044 228 
L 3044 0 
L 734 0 
L 734 228 
Q 1081 244 1229 270 
Q 1378 297 1456 350 
Q 1534 403 1570 500 
Q 1606 597 1606 816 
L 1606 3350 
Q 1606 3475 1562 3533 
Q 1519 3591 1434 3591 
Q 1334 3591 1150 3487 
Q 966 3384 694 3203 
L 556 3444 
L 2019 4316 
L 2191 4316 
Q 2172 4016 2172 3484 
L 2172 816 
z
" transform="scale(0.015625)"/>
       </defs>
       <use xlink:href="#Cambria-2212"/>
       <use xlink:href="#Cambria-31" x="55.371094"/>
       <use xlink:href="#Cambria-30" x="110.742188"/>
       <use xlink:href="#Cambria-30" x="166.113281"/>
      </g>
     </g>
    </g>
    <g id="ytick_4">
     <g id="line2d_21">
      <path d="M 61.991563 198.963388 
L 481.461563 198.963388 
" clip-path="url(#p4601d8f619)" style="fill: none; stroke-dasharray: 0.8,1.32; stroke-dashoffset: 0; stroke: #b0b0b0; stroke-width: 0.8"/>
     </g>
     <g id="line2d_22">
      <g>
       <use xlink:href="#m3c65892060" x="61.991563" y="198.963388" style="stroke: #000000; stroke-width: 0.8"/>
      </g>
     </g>
     <g id="text_12">
      <!-- 0 -->
      <g transform="translate(47.239063 203.854638) scale(0.14 -0.14)">
       <use xlink:href="#Cambria-30"/>
      </g>
     </g>
    </g>
    <g id="ytick_5">
     <g id="line2d_23">
      <path d="M 61.991563 153.513599 
L 481.461563 153.513599 
" clip-path="url(#p4601d8f619)" style="fill: none; stroke-dasharray: 0.8,1.32; stroke-dashoffset: 0; stroke: #b0b0b0; stroke-width: 0.8"/>
     </g>
     <g id="line2d_24">
      <g>
       <use xlink:href="#m3c65892060" x="61.991563" y="153.513599" style="stroke: #000000; stroke-width: 0.8"/>
      </g>
     </g>
     <g id="text_13">
      <!-- 100 -->
      <g transform="translate(31.734063 158.404849) scale(0.14 -0.14)">
       <use xlink:href="#Cambria-31"/>
       <use xlink:href="#Cambria-30" x="55.371094"/>
       <use xlink:href="#Cambria-30" x="110.742188"/>
      </g>
     </g>
    </g>
    <g id="ytick_6">
     <g id="line2d_25">
      <path d="M 61.991563 108.06381 
L 481.461563 108.06381 
" clip-path="url(#p4601d8f619)" style="fill: none; stroke-dasharray: 0.8,1.32; stroke-dashoffset: 0; stroke: #b0b0b0; stroke-width: 0.8"/>
     </g>
     <g id="line2d_26">
      <g>
       <use xlink:href="#m3c65892060" x="61.991563" y="108.06381" style="stroke: #000000; stroke-width: 0.8"/>
      </g>
     </g>
     <g id="text_14">
      <!-- 200 -->
      <g transform="translate(31.734063 112.95506) scale(0.14 -0.14)">
       <use xlink:href="#Cambria-32"/>
       <use xlink:href="#Cambria-30" x="55.371094"/>
       <use xlink:href="#Cambria-30" x="110.742188"/>
      </g>
     </g>
    </g>
    <g id="ytick_7">
     <g id="line2d_27">
      <path d="M 61.991563 62.614021 
L 481.461563 62.614021 
" clip-path="url(#p4601d8f619)" style="fill: none; stroke-dasharray: 0.8,1.32; stroke-dashoffset: 0; stroke: #b0b0b0; stroke-width: 0.8"/>
     </g>
     <g id="line2d_28">
      <g>
       <use xlink:href="#m3c65892060" x="61.991563" y="62.614021" style="stroke: #000000; stroke-width: 0.8"/>
      </g>
     </g>
     <g id="text_15">
      <!-- 300 -->
      <g transform="translate(31.734063 67.505271) scale(0.14 -0.14)">
       <use xlink:href="#Cambria-33"/>
       <use xlink:href="#Cambria-30" x="55.371094"/>
       <use xlink:href="#Cambria-30" x="110.742188"/>
      </g>
     </g>
    </g>
    <g id="text_16">
     <!-- Base Shear (kN) -->
     <g transform="translate(17.00875 245.760625) rotate(-90) scale(0.14 -0.14)">
      <defs>
       <path id="Cambria-Italic-42" d="M 2797 2184 
Q 3088 2069 3244 1855 
Q 3400 1641 3400 1369 
Q 3400 1047 3283 792 
Q 3166 538 2912 347 
Q 2659 156 2331 78 
Q 2003 0 1522 0 
L 131 0 
L 166 153 
Q 284 172 343 214 
Q 403 256 443 331 
Q 484 406 518 514 
Q 553 622 622 931 
L 1153 3338 
Q 1222 3650 1222 3831 
Q 1222 3984 1150 4043 
Q 1078 4103 916 4113 
L 950 4266 
L 2497 4266 
Q 2966 4266 3248 4167 
Q 3531 4069 3664 3878 
Q 3797 3688 3797 3400 
Q 3797 2991 3547 2686 
Q 3297 2381 2803 2219 
L 2797 2184 
z
M 1934 2353 
Q 2259 2353 2457 2397 
Q 2656 2441 2781 2528 
Q 2906 2616 3004 2733 
Q 3103 2850 3161 3009 
Q 3219 3169 3219 3384 
Q 3219 3519 3172 3636 
Q 3125 3753 3011 3836 
Q 2897 3919 2748 3955 
Q 2600 3991 2353 3991 
Q 2081 3991 1847 3981 
L 1494 2353 
L 1934 2353 
z
M 1041 288 
Q 1284 275 1497 275 
Q 1969 275 2226 394 
Q 2484 513 2643 781 
Q 2803 1050 2803 1425 
Q 2803 1628 2723 1768 
Q 2644 1909 2470 1993 
Q 2297 2078 1994 2078 
L 1428 2078 
L 1041 288 
z
" transform="scale(0.015625)"/>
       <path id="Cambria-Italic-53" d="M 497 972 
Q 497 594 672 408 
Q 847 222 1219 222 
Q 1506 222 1712 328 
Q 1919 434 2025 629 
Q 2131 825 2131 1094 
Q 2131 1284 2064 1429 
Q 1997 1575 1861 1708 
Q 1725 1841 1469 2013 
Q 1238 2169 1084 2320 
Q 931 2472 840 2659 
Q 750 2847 750 3078 
Q 750 3447 928 3728 
Q 1106 4009 1431 4162 
Q 1756 4316 2181 4316 
Q 2469 4316 2714 4277 
Q 2959 4238 3256 4144 
L 3081 3341 
L 2781 3341 
Q 2769 3606 2700 3757 
Q 2631 3909 2503 3975 
Q 2375 4041 2163 4041 
Q 1903 4041 1706 3934 
Q 1509 3828 1406 3645 
Q 1303 3463 1303 3238 
Q 1303 3075 1359 2947 
Q 1416 2819 1539 2695 
Q 1663 2572 1900 2409 
Q 2206 2197 2367 2030 
Q 2528 1863 2604 1675 
Q 2681 1488 2681 1241 
Q 2681 863 2498 567 
Q 2316 272 1983 111 
Q 1650 -50 1225 -50 
Q 934 -50 607 -6 
Q 281 38 9 113 
L 197 972 
L 497 972 
z
" transform="scale(0.015625)"/>
       <path id="Cambria-Italic-68" d="M 2916 0 
L 1934 0 
L 2328 1588 
Q 2372 1759 2405 1936 
Q 2438 2113 2438 2256 
Q 2438 2481 2363 2576 
Q 2288 2672 2109 2672 
Q 1981 2672 1826 2565 
Q 1672 2459 1500 2242 
Q 1328 2025 1226 1826 
Q 1125 1628 1066 1353 
L 781 0 
L 241 0 
L 1044 3572 
Q 1078 3728 1092 3798 
Q 1106 3869 1112 3928 
Q 1119 3988 1119 4034 
Q 1119 4166 1039 4219 
Q 959 4272 753 4278 
L 791 4441 
L 1581 4469 
L 1763 4469 
L 1225 2303 
L 1263 2291 
Q 1556 2681 1822 2859 
Q 2088 3038 2363 3038 
Q 2666 3038 2822 2870 
Q 2978 2703 2978 2375 
Q 2978 2175 2916 1894 
L 2653 781 
Q 2622 647 2609 565 
Q 2597 484 2597 425 
Q 2597 328 2630 275 
Q 2663 222 2730 195 
Q 2797 169 2944 153 
L 2916 0 
z
" transform="scale(0.015625)"/>
       <path id="Cambria-Italic-72" d="M 1244 3016 
L 1431 3016 
L 1213 2247 
L 1250 2234 
Q 1547 2644 1830 2841 
Q 2113 3038 2413 3038 
Q 2641 3038 2794 3003 
L 2644 2303 
L 2322 2303 
Q 2297 2466 2244 2550 
Q 2191 2634 2078 2634 
Q 1956 2634 1797 2509 
Q 1638 2384 1472 2165 
Q 1306 1947 1223 1762 
Q 1141 1578 1097 1353 
L 813 0 
L 272 0 
L 747 2134 
Q 813 2428 813 2581 
Q 813 2669 784 2717 
Q 756 2766 693 2789 
Q 631 2813 481 2822 
L 516 2988 
L 1244 3016 
z
" transform="scale(0.015625)"/>
       <path id="Cambria-Italic-6b" d="M 1150 1741 
L 1250 1741 
Q 1347 1741 1459 1778 
Q 1572 1816 1700 1895 
Q 1828 1975 2044 2147 
Q 2206 2278 2284 2370 
Q 2363 2463 2391 2531 
Q 2419 2600 2419 2663 
Q 2419 2816 2206 2834 
L 2241 2988 
L 3253 2988 
L 3313 2834 
Q 3053 2600 2763 2375 
L 1972 1759 
L 2441 575 
Q 2503 416 2568 330 
Q 2634 244 2720 203 
Q 2806 163 2941 153 
L 2906 0 
L 2072 0 
L 1616 1284 
Q 1572 1406 1540 1450 
Q 1509 1494 1468 1512 
Q 1428 1531 1338 1531 
L 1106 1531 
L 781 0 
L 241 0 
L 1044 3572 
Q 1078 3728 1092 3798 
Q 1106 3869 1112 3928 
Q 1119 3988 1119 4034 
Q 1119 4166 1039 4219 
Q 959 4272 753 4278 
L 791 4441 
L 1581 4469 
L 1763 4469 
L 1150 1741 
z
" transform="scale(0.015625)"/>
       <path id="Cambria-Italic-4e" d="M 4463 4266 
L 4428 4113 
Q 4309 4088 4257 4056 
Q 4206 4025 4164 3962 
Q 4122 3900 4080 3767 
Q 4038 3634 3972 3334 
L 3238 0 
L 2813 0 
L 1900 2681 
Q 1734 3163 1609 3641 
L 1569 3641 
Q 1550 3481 1465 3032 
Q 1381 2584 1288 2156 
L 1013 909 
Q 984 778 965 656 
Q 947 534 947 422 
Q 947 281 1017 223 
Q 1088 166 1253 153 
L 1219 0 
L 125 0 
L 159 153 
Q 278 172 337 214 
Q 397 256 437 331 
Q 478 406 512 514 
Q 547 622 616 931 
L 1147 3338 
Q 1178 3472 1197 3594 
Q 1216 3716 1216 3841 
Q 1216 3988 1141 4045 
Q 1066 4103 909 4113 
L 944 4266 
L 1941 4266 
L 2766 1831 
Q 2944 1306 3041 944 
L 3075 944 
Q 3100 1134 3189 1578 
Q 3278 2022 3353 2353 
L 3572 3338 
Q 3594 3441 3617 3581 
Q 3641 3722 3641 3841 
Q 3641 3988 3566 4045 
Q 3491 4103 3334 4113 
L 3369 4266 
L 4463 4266 
z
" transform="scale(0.015625)"/>
      </defs>
      <use xlink:href="#Cambria-Italic-42"/>
      <use xlink:href="#Cambria-Italic-61" x="59.619141"/>
      <use xlink:href="#Cambria-Italic-73" x="112.207031"/>
      <use xlink:href="#Cambria-Italic-65" x="150.390625"/>
      <use xlink:href="#Cambria-Italic-20" x="196.09375"/>
      <use xlink:href="#Cambria-Italic-53" x="218.115234"/>
      <use xlink:href="#Cambria-Italic-68" x="266.259766"/>
      <use xlink:href="#Cambria-Italic-65" x="319.287109"/>
      <use xlink:href="#Cambria-Italic-61" x="364.990234"/>
      <use xlink:href="#Cambria-Italic-72" x="417.578125"/>
      <use xlink:href="#Cambria-Italic-20" x="458.300781"/>
      <use xlink:href="#Cambria-Italic-28" x="480.322266"/>
      <use xlink:href="#Cambria-Italic-6b" x="517.480469"/>
      <use xlink:href="#Cambria-Italic-4e" x="567.1875"/>
      <use xlink:href="#Cambria-Italic-29" x="634.277344"/>
     </g>
    </g>
   </g>
   <g id="line2d_29">
    <path d="M 274.753042 147.28516 
L 277.779521 118.335462 
L 280.806 107.202082 
L 283.832479 99.418351 
L 286.858958 92.54907 
L 289.885437 86.061113 
L 292.911916 79.878124 
L 295.938395 74.103728 
L 292.911916 94.62249 
L 289.885437 107.055279 
L 286.858958 116.044793 
L 283.832479 124.540268 
L 280.806 133.7843 
L 277.779521 145.794861 
L 274.753042 167.177533 
L 271.726562 208.340588 
L 268.700083 252.435973 
L 265.673604 275.751715 
L 262.647125 285.751123 
L 259.620646 293.912996 
L 256.594167 301.424937 
L 253.567688 308.591005 
L 250.541209 314.671278 
L 247.51473 320.482943 
L 250.541209 300.964985 
L 253.567688 289.222123 
L 256.594167 280.197159 
L 259.620646 270.472722 
L 262.647125 256.563723 
L 265.673604 236.000421 
L 268.700083 208.079252 
L 271.726562 174.881908 
L 274.753042 148.897264 
L 277.779521 132.24128 
L 280.806 119.579423 
L 283.832479 110.31312 
L 286.858958 102.38804 
L 289.885437 95.217427 
L 292.911916 89.276231 
L 295.938395 84.404468 
L 292.911916 100.770028 
L 289.885437 112.248372 
L 283.832479 130.478737 
L 280.806 143.838702 
L 277.779521 164.152667 
L 274.753042 192.026477 
L 271.726562 224.149161 
L 268.700083 248.81408 
L 265.673604 263.561627 
L 262.647125 274.350953 
L 259.620646 283.346375 
L 253.567688 300.418679 
L 250.541209 308.323306 
L 247.51473 315.483466 
L 250.541209 298.192094 
L 253.567688 286.749655 
L 256.594167 277.811045 
L 259.620646 268.057975 
L 262.647125 254.350318 
L 265.673604 234.065487 
L 268.700083 206.511871 
L 271.726562 174.856593 
L 274.753042 150.868876 
L 277.779521 136.68536 
L 280.806 126.445523 
L 283.832479 117.98959 
L 289.885437 102.038986 
L 292.911916 94.769747 
L 295.938395 88.135441 
L 298.964874 82.667377 
L 301.991353 78.367373 
L 305.017832 74.75366 
L 308.044311 71.509908 
L 311.07079 68.619302 
L 314.09727 66.042753 
L 317.123749 63.721178 
L 323.176707 59.666148 
L 329.229665 56.033346 
L 335.282623 52.756871 
L 338.309102 51.242484 
L 335.282623 63.700271 
L 332.256144 73.534697 
L 329.229665 82.021536 
L 326.203186 89.431669 
L 323.176707 95.936897 
L 320.150228 101.943996 
L 311.07079 118.983576 
L 295.938395 147.147902 
L 292.911916 152.950476 
L 289.885437 158.995798 
L 286.858958 165.628922 
L 283.832479 173.630994 
L 280.806 184.409366 
L 277.779521 199.57181 
L 274.753042 218.845216 
L 271.726562 240.4505 
L 268.700083 258.319449 
L 265.673604 270.032768 
L 262.647125 278.537333 
L 259.620646 285.694311 
L 256.594167 292.284985 
L 253.567688 298.291174 
L 250.541209 303.668339 
L 247.51473 308.816891 
L 244.488251 313.13962 
L 241.461772 316.731063 
L 238.435293 320.002538 
L 235.408814 323.043129 
L 232.382335 325.921919 
L 229.355855 328.607092 
L 226.329376 331.11183 
L 223.302897 333.374321 
L 220.276418 335.373657 
L 214.22346 338.9601 
L 211.196981 340.543116 
L 205.144023 343.352822 
L 208.170502 331.051382 
L 211.196981 321.461022 
L 214.22346 313.264607 
L 217.249939 306.176713 
L 220.276418 299.888734 
L 226.329376 288.166325 
L 247.51473 247.678289 
L 250.541209 241.583064 
L 253.567688 235.123467 
L 256.594167 227.915312 
L 259.620646 219.248538 
L 262.647125 208.263324 
L 265.673604 194.358052 
L 268.700083 178.654104 
L 271.726562 162.043388 
L 274.753042 150.477553 
L 277.779521 142.852442 
L 280.806 136.258132 
L 283.832479 130.357841 
L 286.858958 124.938862 
L 289.885437 119.913479 
L 292.911916 115.175793 
L 295.938395 110.728531 
L 298.964874 106.517154 
L 301.991353 102.521663 
L 305.017832 98.725697 
L 311.07079 91.693705 
L 317.123749 85.251198 
L 323.176707 79.336817 
L 329.229665 73.889659 
L 332.256144 71.299476 
L 335.282623 68.863822 
L 338.309102 66.586333 
L 335.282623 77.61427 
L 332.256144 86.616055 
L 329.229665 94.507956 
L 326.203186 101.51995 
L 323.176707 107.863377 
L 317.123749 119.619873 
L 308.044311 136.810802 
L 298.964874 153.424063 
L 289.885437 169.850662 
L 286.858958 175.841399 
L 283.832479 182.871117 
L 280.806 191.919852 
L 277.779521 203.914461 
L 274.753042 218.719366 
L 271.726562 234.101029 
L 268.700083 244.883127 
L 265.673604 252.391887 
L 262.647125 258.855756 
L 259.620646 264.682873 
L 256.594167 270.066401 
L 253.567688 275.10042 
L 250.541209 279.864012 
L 247.51473 284.379903 
L 244.488251 288.689906 
L 238.435293 296.735428 
L 232.382335 304.121928 
L 226.329376 310.91349 
L 220.276418 317.168744 
L 214.22346 322.921778 
L 208.170502 328.231223 
L 205.144023 330.694601 
L 208.170502 319.358969 
L 211.196981 310.265376 
L 214.22346 302.433014 
L 217.249939 295.584639 
L 223.302897 283.277746 
L 232.382335 265.588688 
L 241.461772 248.526383 
L 253.567688 226.041327 
L 256.594167 219.791844 
L 259.620646 212.464111 
L 262.647125 203.309528 
L 265.673604 191.887628 
L 271.726562 165.696688 
L 274.753042 156.479561 
L 277.779521 149.302676 
L 280.806 143.011062 
L 283.832479 137.252119 
L 286.858958 131.897679 
L 289.885437 126.890476 
L 292.911916 122.155063 
L 295.938395 117.666896 
L 301.991353 109.285955 
L 308.044311 101.618121 
L 314.09727 94.552497 
L 320.150228 88.017726 
L 326.203186 81.988357 
L 332.256144 76.416668 
L 338.309102 71.230847 
L 341.335581 68.868821 
L 344.36206 66.73359 
L 347.388539 64.777431 
L 353.441498 61.300522 
L 359.494456 58.278111 
L 365.547414 55.632479 
L 368.573893 54.428969 
L 365.547414 65.211022 
L 362.520935 74.195536 
L 359.494456 82.200608 
L 356.467977 89.407581 
L 353.441498 95.896902 
L 350.415018 101.834008 
L 344.36206 112.856945 
L 338.309102 123.287217 
L 332.256144 133.239812 
L 326.203186 142.642464 
L 320.150228 151.47154 
L 314.09727 159.734357 
L 308.044311 167.488682 
L 301.991353 174.816279 
L 289.885437 189.126008 
L 286.858958 193.164358 
L 283.832479 198.211194 
L 280.806 204.991439 
L 277.779521 213.638806 
L 271.726562 235.271315 
L 268.700083 243.568538 
L 265.673604 250.601165 
L 262.647125 256.713707 
L 259.620646 262.339482 
L 256.594167 267.563027 
L 253.567688 272.444334 
L 250.541209 277.051125 
L 247.51473 281.41794 
L 241.461772 289.542544 
L 235.408814 296.965858 
L 229.355855 303.787872 
L 223.302897 310.081759 
L 217.249939 315.864335 
L 211.196981 321.183324 
L 205.144023 326.126897 
L 202.117544 328.380753 
L 199.091065 330.455081 
L 196.064586 332.357609 
L 193.038107 334.08561 
L 186.985148 337.160288 
L 180.93219 339.86955 
L 174.879232 342.312022 
L 177.905711 331.384984 
L 180.93219 322.362291 
L 183.958669 314.377218 
L 186.985148 307.237511 
L 190.011627 300.84318 
L 193.038107 294.953342 
L 199.091065 283.948584 
L 205.144023 273.506041 
L 211.196981 263.536175 
L 217.249939 254.117616 
L 223.302897 245.280359 
L 229.355855 237.019087 
L 235.408814 229.271398 
L 241.461772 221.956072 
L 253.567688 207.641071 
L 256.594167 203.517638 
L 259.620646 198.449542 
L 262.647125 192.381077 
L 265.673604 184.74224 
L 268.700083 175.615331 
L 271.726562 166.956874 
L 274.753042 159.541423 
L 277.779521 153.01047 
L 280.806 147.209713 
L 283.832479 141.84073 
L 286.858958 136.779896 
L 289.885437 132.016758 
L 292.911916 127.501321 
L 295.938395 123.214043 
L 301.991353 115.266693 
L 308.044311 107.978365 
L 314.09727 101.31588 
L 320.150228 95.164251 
L 326.203186 89.499844 
L 332.256144 84.305842 
L 338.309102 79.522706 
L 344.36206 75.127712 
L 350.415018 71.078135 
L 356.467977 67.337618 
L 362.520935 63.883434 
L 368.573893 60.630593 
L 365.547414 70.521376 
L 362.520935 79.148654 
L 359.494456 86.883754 
L 356.467977 93.887112 
L 353.441498 100.238265 
L 350.415018 106.115378 
L 344.36206 117.015601 
L 338.309102 127.304978 
L 332.256144 137.053958 
L 326.203186 146.182548 
L 320.150228 154.680795 
L 314.09727 162.554835 
L 308.044311 169.874705 
L 301.991353 176.721034 
L 289.885437 189.790711 
L 286.858958 193.405333 
L 283.832479 197.833138 
L 280.806 203.729525 
L 277.779521 211.257783 
L 271.726562 229.321711 
L 268.700083 236.757069 
L 265.673604 243.323427 
L 262.647125 249.18495 
L 259.620646 254.571204 
L 256.594167 259.640674 
L 253.567688 264.421083 
L 250.541209 268.960608 
L 247.51473 273.271975 
L 241.461772 281.33204 
L 235.408814 288.748537 
L 229.355855 295.591002 
L 223.302897 301.923521 
L 217.249939 307.755638 
L 211.196981 313.122804 
L 205.144023 318.059105 
L 199.091065 322.584995 
L 193.038107 326.752741 
L 186.985148 330.593703 
L 180.93219 334.137877 
L 174.879232 337.501616 
L 177.905711 327.413581 
L 180.93219 318.5486 
L 183.958669 310.686241 
L 186.985148 303.650613 
L 190.011627 297.344455 
L 193.038107 291.50643 
L 199.091065 280.559394 
L 205.144023 270.170935 
L 211.196981 260.347873 
L 217.249939 251.145199 
L 223.302897 242.577323 
L 229.355855 234.631609 
L 235.408814 227.217476 
L 241.461772 220.233571 
L 250.541209 210.085542 
L 253.567688 206.501372 
L 256.594167 202.433816 
L 259.620646 197.523307 
L 262.647125 191.59575 
L 265.673604 184.189479 
L 268.700083 175.486799 
L 271.726562 167.322836 
L 274.753042 160.30107 
L 277.779521 154.068768 
L 280.806 148.445039 
L 283.832479 143.206496 
L 286.858958 138.249287 
L 289.885437 133.568868 
L 292.911916 129.112062 
L 295.938395 124.877051 
L 301.991353 116.958788 
L 308.044311 109.690458 
L 314.09727 102.997522 
L 320.150228 96.803625 
L 326.203186 91.090132 
L 332.256144 85.835227 
L 338.309102 80.986189 
L 344.36206 76.520293 
L 350.415018 72.410269 
L 356.467977 68.611575 
L 362.520935 65.100579 
L 371.600372 60.213363 
L 377.65333 57.379115 
L 383.706288 54.938461 
L 389.759246 52.783686 
L 398.838684 49.896716 
L 395.812205 59.746594 
L 392.785726 68.1998 
L 389.759246 75.883542 
L 386.732767 82.934167 
L 383.706288 89.409853 
L 380.679809 95.376502 
L 377.65333 100.975461 
L 374.626851 106.27627 
L 368.573893 116.278859 
L 362.520935 125.706509 
L 356.467977 134.504225 
L 350.415018 142.666098 
L 344.36206 150.20849 
L 338.309102 157.160081 
L 332.256144 163.566456 
L 326.203186 169.461248 
L 320.150228 174.905906 
L 314.09727 179.978057 
L 308.044311 184.719288 
L 298.964874 191.382727 
L 292.911916 195.846841 
L 289.885437 198.238032 
L 286.858958 200.971773 
L 283.832479 204.435361 
L 280.806 209.024789 
L 277.779521 215.385851 
L 271.726562 230.984946 
L 268.700083 237.726922 
L 265.673604 243.880778 
L 262.647125 249.486282 
L 259.620646 254.649833 
L 256.594167 259.551592 
L 253.567688 264.193379 
L 250.541209 268.607463 
L 247.51473 272.822022 
L 241.461772 280.660747 
L 235.408814 287.884082 
L 229.355855 294.525659 
L 223.302897 300.686378 
L 217.249939 306.378964 
L 211.196981 311.61887 
L 205.144023 316.456091 
L 199.091065 320.908353 
L 193.038107 325.015196 
L 186.985148 328.809344 
L 180.93219 332.315795 
L 171.852753 337.205738 
L 168.826274 338.717853 
L 162.773316 341.361667 
L 156.720358 343.62143 
L 150.667399 345.623948 
L 144.614441 347.467846 
L 147.64092 337.367085 
L 150.667399 328.812526 
L 153.693879 321.085607 
L 156.720358 314.036345 
L 159.746837 307.602473 
L 162.773316 301.685365 
L 165.799795 296.11822 
L 171.852753 285.773848 
L 177.905711 276.051229 
L 183.958669 266.917185 
L 190.011627 258.407621 
L 196.064586 250.526173 
L 202.117544 243.255252 
L 208.170502 236.563589 
L 214.22346 230.419096 
L 220.276418 224.762097 
L 226.329376 219.512737 
L 232.382335 214.612205 
L 238.435293 209.989507 
L 250.541209 200.858599 
L 253.567688 198.281377 
L 256.594167 195.261384 
L 259.620646 191.62152 
L 262.647125 186.662357 
L 265.673604 180.374015 
L 268.700083 173.362385 
L 271.726562 166.795345 
L 274.753042 160.7143 
L 277.779521 155.127066 
L 280.806 149.953063 
L 283.832479 145.070392 
L 286.858958 140.411334 
L 292.911916 131.705427 
L 295.938395 127.634944 
L 301.991353 120.037102 
L 308.044311 113.025109 
L 314.09727 106.57533 
L 320.150228 100.596864 
L 326.203186 95.071079 
L 332.256144 89.972522 
L 338.309102 85.253016 
L 344.36206 80.893472 
L 350.415018 76.87662 
L 356.467977 73.16928 
L 362.520935 69.741912 
L 368.573893 66.567244 
L 374.626851 63.608917 
L 380.679809 60.843752 
L 386.732767 58.254023 
L 395.812205 54.632129 
L 398.838684 53.492249 
L 395.812205 62.593569 
L 392.785726 70.805437 
L 389.759246 78.302379 
L 386.732767 85.204839 
L 383.706288 91.565991 
L 380.679809 97.459011 
L 377.65333 103.007521 
L 371.600372 113.307807 
L 365.547414 122.904984 
L 359.494456 131.94222 
L 353.441498 140.318616 
L 347.388539 148.046444 
L 341.335581 155.1507 
L 335.282623 161.677972 
L 329.229665 167.682798 
L 323.176707 173.201902 
L 317.123749 178.293097 
L 311.07079 183.035646 
L 305.017832 187.479317 
L 289.885437 198.293217 
L 286.858958 200.864021 
L 283.832479 204.08876 
L 280.806 208.348087 
L 277.779521 214.207838 
L 271.726562 228.202782 
L 268.700083 234.52862 
L 265.673604 240.344602 
L 262.647125 245.768944 
L 259.620646 250.789328 
L 256.594167 255.551556 
L 253.567688 260.087445 
L 247.51473 268.561104 
L 241.461772 276.284841 
L 235.408814 283.404096 
L 229.355855 289.961137 
L 223.302897 296.056863 
L 217.249939 301.70309 
L 211.196981 306.91709 
L 205.144023 311.748857 
L 199.091065 316.207027 
L 193.038107 320.315687 
L 186.985148 324.114835 
L 180.93219 327.628104 
L 174.879232 330.887763 
L 168.826274 333.93199 
L 162.773316 336.7826 
L 156.720358 339.459593 
L 147.64092 343.206928 
L 144.614441 344.390441 
L 147.64092 334.944611 
L 150.667399 326.599575 
L 153.693879 319.02355 
L 156.720358 312.086094 
L 159.746837 305.733123 
L 162.773316 299.866464 
L 165.799795 294.332498 
L 171.852753 284.047211 
L 177.905711 274.445488 
L 183.958669 265.441885 
L 190.011627 257.089577 
L 196.064586 249.378112 
L 202.117544 242.287036 
L 208.170502 235.773126 
L 214.22346 229.782662 
L 220.276418 224.273239 
L 226.329376 219.176545 
L 232.382335 214.403817 
L 241.461772 207.664068 
L 247.51473 203.216479 
L 250.541209 200.879955 
L 253.567688 198.327118 
L 256.594167 195.380186 
L 259.620646 191.741235 
L 262.647125 186.82434 
L 265.673604 180.653577 
L 268.700083 173.712985 
L 271.726562 167.257342 
L 274.753042 161.386911 
L 277.779521 155.970933 
L 280.806 150.934323 
L 286.858958 141.56894 
L 292.911916 132.959386 
L 298.964874 125.073394 
L 305.017832 117.787792 
L 311.07079 111.093039 
L 317.123749 104.875962 
L 323.176707 99.115201 
L 329.229665 93.790304 
L 335.282623 88.85173 
L 341.335581 84.275845 
L 347.388539 80.046742 
L 353.441498 76.146241 
L 359.494456 72.538892 
L 365.547414 69.195151 
L 371.600372 66.089567 
L 377.65333 63.191234 
L 383.706288 60.477881 
L 392.785726 56.71373 
L 401.865163 53.243184 
L 407.918121 51.103862 
L 413.971079 49.195426 
L 423.050516 46.647965 
L 432.129954 44.381384 
L 429.103474 53.532244 
L 426.076995 61.543679 
L 423.050516 68.923815 
L 420.024037 75.78128 
L 416.997558 82.164248 
L 413.971079 88.102717 
L 410.9446 93.674407 
L 407.918121 98.956581 
L 401.865163 108.853273 
L 395.812205 118.01595 
L 389.759246 126.57051 
L 383.706288 134.518769 
L 377.65333 141.850274 
L 371.600372 148.585478 
L 365.547414 154.767922 
L 359.494456 160.437374 
L 353.441498 165.644875 
L 347.388539 170.442418 
L 341.335581 174.870182 
L 335.282623 178.954436 
L 329.229665 182.730041 
L 323.176707 186.250582 
L 317.123749 189.567508 
L 308.044311 194.237519 
L 292.911916 201.865939 
L 289.885437 203.581632 
L 286.858958 205.598693 
L 283.832479 208.132974 
L 280.806 211.899761 
L 277.779521 217.145758 
L 271.726562 229.852473 
L 268.700083 235.737176 
L 265.673604 241.170016 
L 262.647125 246.242076 
L 259.620646 251.002487 
L 253.567688 259.896556 
L 247.51473 268.0757 
L 241.461772 275.590823 
L 235.408814 282.546913 
L 229.355855 288.96715 
L 223.302897 294.949706 
L 217.249939 300.502307 
L 211.196981 305.65404 
L 205.144023 310.425813 
L 199.091065 314.84626 
L 193.038107 318.930832 
L 186.985148 322.712709 
L 180.93219 326.219615 
L 174.879232 329.473365 
L 168.826274 332.507593 
L 162.773316 335.349114 
L 156.720358 338.017471 
L 147.64092 341.745263 
L 138.561483 345.178085 
L 132.508525 347.262867 
L 126.455567 349.095403 
L 117.37613 351.529239 
L 111.323171 353.000449 
L 114.349651 343.677788 
L 117.37613 335.588635 
L 120.402609 328.167139 
L 123.429088 321.29513 
L 126.455567 314.921707 
L 129.482046 309.008689 
L 132.508525 303.461997 
L 135.535004 298.200275 
L 141.587962 288.317673 
L 147.64092 279.145905 
L 153.693879 270.599072 
L 159.746837 262.670811 
L 165.799795 255.358849 
L 171.852753 248.635462 
L 177.905711 242.461608 
L 183.958669 236.801928 
L 190.011627 231.598836 
L 196.064586 226.807246 
L 202.117544 222.39239 
L 208.170502 218.324498 
L 214.22346 214.559256 
L 220.276418 211.04026 
L 226.329376 207.721608 
L 235.408814 203.048169 
L 247.51473 196.955334 
L 250.541209 195.233219 
L 253.567688 193.351021 
L 256.594167 191.003857 
L 259.620646 187.781513 
L 262.647125 183.509142 
L 265.673604 178.187062 
L 268.700083 172.345083 
L 271.726562 166.782665 
L 274.753042 161.562029 
L 277.779521 156.584687 
L 283.832479 147.406511 
L 289.885437 138.907855 
L 295.938395 131.041405 
L 301.991353 123.751714 
L 308.044311 117.008329 
L 314.09727 110.758074 
L 320.150228 104.938683 
L 326.203186 99.534703 
L 332.256144 94.521591 
L 338.309102 89.852534 
L 344.36206 85.515715 
L 350.415018 81.495227 
L 356.467977 77.771526 
L 362.520935 74.316433 
L 368.573893 71.109496 
L 374.626851 68.121172 
L 380.679809 65.325556 
L 386.732767 62.704921 
L 395.812205 59.068029 
L 404.891642 55.74065 
L 413.971079 52.668244 
L 423.050516 49.806725 
L 432.129954 47.111098 
L 429.103474 55.696563 
L 426.076995 63.506201 
L 423.050516 70.726809 
L 420.024037 77.455195 
L 416.997558 83.733175 
L 413.971079 89.592107 
L 410.9446 95.102894 
L 407.918121 100.344163 
L 401.865163 110.167226 
L 395.812205 119.25173 
L 389.759246 127.694937 
L 383.706288 135.550479 
L 377.65333 142.805629 
L 371.600372 149.459932 
L 365.547414 155.561657 
L 359.494456 161.156935 
L 353.441498 166.28958 
L 347.388539 171.00745 
L 341.335581 175.362903 
L 335.282623 179.386437 
L 329.229665 183.10482 
L 323.176707 186.56214 
L 317.123749 189.809119 
L 308.044311 194.365778 
L 295.938395 200.239913 
L 292.911916 201.794673 
L 289.885437 203.542772 
L 286.858958 205.601375 
L 283.832479 208.281731 
L 280.806 212.083833 
L 277.779521 217.073947 
L 271.726562 228.6371 
L 268.700083 234.067169 
L 265.673604 239.195859 
L 262.647125 244.039125 
L 256.594167 253.021821 
L 250.541209 261.313226 
L 244.488251 268.972425 
L 238.435293 276.069409 
L 232.382335 282.616451 
L 226.329376 288.720358 
L 220.276418 294.408399 
L 214.22346 299.691482 
L 208.170502 304.619148 
L 202.117544 309.213213 
L 196.064586 313.482766 
L 190.011627 317.437807 
L 183.958669 321.10515 
L 177.905711 324.512975 
L 171.852753 327.678099 
L 165.799795 330.627336 
L 159.746837 333.391137 
L 150.667399 337.225281 
L 141.587962 340.72946 
L 132.508525 343.955941 
L 123.429088 346.953809 
L 111.323171 350.677964 
L 114.349651 341.928426 
L 117.37613 334.006073 
L 120.402609 326.710927 
L 123.429088 319.936636 
L 126.455567 313.63775 
L 129.482046 307.781999 
L 132.508525 302.278939 
L 135.535004 297.043123 
L 141.587962 287.223696 
L 147.64092 278.12374 
L 153.693879 269.674169 
L 159.746837 261.842716 
L 165.799795 254.622108 
L 171.852753 248.002801 
L 177.905711 241.934572 
L 183.958669 236.370518 
L 190.011627 231.259781 
L 196.064586 226.557591 
L 202.117544 222.216318 
L 208.170502 218.203465 
L 214.22346 214.488581 
L 220.276418 211.025989 
L 226.329376 207.764739 
L 235.408814 203.178978 
L 247.51473 197.190642 
L 250.541209 195.49066 
L 253.567688 193.656716 
L 256.594167 191.357547 
L 259.620646 188.225284 
L 262.647125 184.041768 
L 265.673604 178.768456 
L 268.700083 172.877754 
L 271.726562 167.330471 
L 274.753042 162.200735 
L 277.779521 157.346561 
L 283.832479 148.328687 
L 289.885437 139.939111 
L 295.938395 132.146744 
L 301.991353 124.887958 
L 308.044311 118.178661 
L 314.09727 111.936587 
L 320.150228 106.11765 
L 326.203186 100.714125 
L 332.256144 95.680561 
L 338.309102 90.985597 
L 344.36206 86.614237 
L 350.415018 82.554207 
L 356.467977 78.784147 
L 362.520935 75.286786 
L 368.573893 72.035308 
L 374.626851 69.008352 
L 380.679809 66.176376 
L 386.732767 63.521654 
L 395.812205 59.837948 
L 404.891642 56.473755 
L 413.971079 53.372716 
L 423.050516 50.487109 
L 435.156433 46.904302 
L 444.23587 44.393201 
L 453.315307 42.202521 
L 462.394744 40.232727 
L 459.368265 48.894548 
L 456.341786 56.593288 
L 453.315307 63.745267 
L 450.288828 70.443656 
L 447.262349 76.728908 
L 444.23587 82.624654 
L 441.209391 88.171801 
L 438.182912 93.442613 
L 435.156433 98.473905 
L 429.103474 107.900191 
L 423.050516 116.621551 
L 416.997558 124.707523 
L 410.9446 132.199011 
L 404.891642 139.117378 
L 398.838684 145.492166 
L 392.785726 151.343826 
L 386.732767 156.706447 
L 380.679809 161.634522 
L 374.626851 166.166184 
L 368.573893 170.338974 
L 362.520935 174.186754 
L 356.467977 177.750381 
L 350.415018 181.063897 
L 344.36206 184.150302 
L 338.309102 187.02841 
L 332.256144 189.722991 
L 323.176707 193.488143 
L 314.09727 197.005865 
L 295.938395 203.903553 
L 289.885437 206.637221 
L 286.858958 208.374039 
L 283.832479 210.852507 
L 280.806 214.340688 
L 277.779521 218.909528 
L 268.700083 234.834406 
L 265.673604 239.69917 
L 262.647125 244.297825 
L 256.594167 252.914105 
L 250.541209 260.918267 
L 244.488251 268.358852 
L 238.435293 275.278583 
L 232.382335 281.686548 
L 226.329376 287.67774 
L 220.276418 293.269882 
L 214.22346 298.478882 
L 208.170502 303.355644 
L 202.117544 307.916985 
L 196.064586 312.172903 
L 190.011627 316.132034 
L 183.958669 319.810286 
L 177.905711 323.234018 
L 171.852753 326.423685 
L 165.799795 329.395646 
L 159.746837 332.1799 
L 150.667399 336.046314 
L 141.587962 339.582762 
L 132.508525 342.833785 
L 123.429088 345.853015 
L 111.323171 349.596259 
L 99.217255 353.08544 
L 90.137818 355.31157 
L 81.058381 357.287273 
L 84.08486 348.472286 
L 87.111339 340.692191 
L 90.137818 333.487491 
L 93.164297 326.759104 
L 96.190776 320.462945 
L 99.217255 314.575834 
L 102.243734 309.044594 
L 105.270213 303.785599 
L 111.323171 293.954355 
L 117.37613 284.897576 
L 123.429088 276.485275 
L 129.482046 268.696999 
L 135.535004 261.50866 
L 141.587962 254.884808 
L 147.64092 248.801808 
L 153.693879 243.229664 
L 159.746837 238.11579 
L 165.799795 233.412828 
L 171.852753 229.08569 
L 177.905711 225.097425 
L 183.958669 221.409857 
L 190.011627 217.987215 
L 196.064586 214.80323 
L 202.117544 211.836995 
L 208.170502 209.063422 
L 217.249939 205.196872 
L 226.329376 201.595071 
L 247.51473 193.350112 
L 250.541209 192.014115 
L 253.567688 190.359243 
L 256.594167 188.160837 
L 259.620646 185.186648 
L 262.647125 181.271739 
L 265.673604 176.487785 
L 268.700083 171.313009 
L 271.726562 166.379207 
L 277.779521 157.196986 
L 283.832479 148.691831 
L 289.885437 140.709484 
L 295.938395 133.232085 
L 301.991353 126.230545 
L 308.044311 119.725317 
L 314.09727 113.656407 
L 320.150228 107.987 
L 326.203186 102.71846 
L 332.256144 97.792612 
L 338.309102 93.188094 
L 344.36206 88.887181 
L 350.415018 84.875782 
L 356.467977 81.137083 
L 362.520935 77.660174 
L 368.573893 74.414604 
L 374.626851 71.385831 
L 380.679809 68.555218 
L 386.732767 65.898678 
L 395.812205 62.209064 
L 404.891642 58.837144 
L 413.971079 55.736105 
L 423.050516 52.856861 
L 432.129954 50.169415 
L 444.23587 46.841127 
L 456.341786 43.749632 
L 462.394744 42.273423 
L 459.368265 50.437568 
L 456.341786 57.982688 
L 453.315307 65.012861 
L 450.288828 71.611261 
L 447.262349 77.814703 
L 444.23587 83.646366 
L 441.209391 89.147608 
L 438.182912 94.382969 
L 435.156433 99.384718 
L 429.103474 108.755556 
L 423.050516 117.416468 
L 416.997558 125.431538 
L 410.9446 132.843035 
L 404.891642 139.685501 
L 398.838684 145.991204 
L 392.785726 151.791961 
L 386.732767 157.110223 
L 380.679809 161.990848 
L 374.626851 166.480924 
L 368.573893 170.620354 
L 362.520935 174.435909 
L 356.467977 177.961359 
L 350.415018 181.235425 
L 344.36206 184.287696 
L 338.309102 187.135853 
L 332.256144 189.798256 
L 323.176707 193.511458 
L 311.07079 198.103251 
L 295.938395 203.774021 
L 292.911916 205.094655 
L 289.885437 206.537141 
L 286.858958 208.367722 
L 283.832479 210.90991 
L 280.806 214.375593 
L 277.779521 218.782132 
L 268.700083 233.807832 
L 265.673604 238.449983 
L 259.620646 247.146072 
L 253.567688 255.237498 
L 247.51473 262.802616 
L 241.461772 269.865967 
L 235.408814 276.428462 
L 229.355855 282.560548 
L 223.302897 288.296766 
L 217.249939 293.631662 
L 211.196981 298.63023 
L 205.144023 303.318375 
L 199.091065 307.711552 
L 193.038107 311.820667 
L 186.985148 315.657539 
L 180.93219 319.223984 
L 174.879232 322.550908 
L 168.826274 325.659674 
L 162.773316 328.561643 
L 156.720358 331.279995 
L 147.64092 335.05869 
L 138.561483 338.51651 
L 129.482046 341.692996 
L 120.402609 344.640414 
L 111.323171 347.392854 
L 99.217255 350.806133 
L 87.111339 353.979892 
L 81.058381 355.491552 
L 84.08486 347.193329 
L 87.111339 339.543675 
L 90.137818 332.439419 
L 93.164297 325.791478 
L 96.190776 319.559858 
L 99.217255 313.722741 
L 102.243734 308.229225 
L 105.270213 303.001136 
L 108.296692 298.00575 
L 114.349651 288.63673 
L 120.402609 279.969001 
L 126.455567 271.937569 
L 132.508525 264.520163 
L 138.561483 257.694514 
L 144.614441 251.415171 
L 150.667399 245.646229 
L 156.720358 240.361237 
L 162.773316 235.511245 
L 168.826274 231.051893 
L 174.879232 226.940778 
L 180.93219 223.14663 
L 186.985148 219.634906 
L 193.038107 216.369975 
L 199.091065 213.325203 
L 205.144023 210.482 
L 214.22346 206.542095 
L 223.302897 202.89873 
L 247.51473 193.557408 
L 250.541209 192.241955 
L 253.567688 190.621306 
L 256.594167 188.482712 
L 259.620646 185.576607 
L 262.647125 181.717375 
L 265.673604 176.943283 
L 268.700083 171.691651 
L 271.726562 166.743623 
L 271.726562 166.743623 
" clip-path="url(#p4601d8f619)" style="fill: none; stroke: #0000ff; stroke-width: 1.2; stroke-linecap: square"/>
   </g>
   <g id="line2d_30">
    <path d="M 61.991563 198.963388 
L 481.461563 198.963388 
" clip-path="url(#p4601d8f619)" style="fill: none; stroke: #000000; stroke-width: 0.4; stroke-linecap: square"/>
   </g>
   <g id="line2d_31">
    <path d="M 271.726562 373.14 
L 271.726562 24.38 
" clip-path="url(#p4601d8f619)" style="fill: none; stroke: #000000; stroke-width: 0.4; stroke-linecap: square"/>
   </g>
   <g id="patch_3">
    <path d="M 61.991563 373.14 
L 61.991563 24.38 
" style="fill: none; stroke: #000000; stroke-width: 0.8; stroke-linejoin: miter; stroke-linecap: square"/>
   </g>
   <g id="patch_4">
    <path d="M 481.461563 373.14 
L 481.461563 24.38 
" style="fill: none; stroke: #000000; stroke-width: 0.8; stroke-linejoin: miter; stroke-linecap: square"/>
   </g>
   <g id="patch_5">
    <path d="M 61.991563 373.14 
L 481.461563 373.14 
" style="fill: none; stroke: #000000; stroke-width: 0.8; stroke-linejoin: miter; stroke-linecap: square"/>
   </g>
   <g id="patch_6">
    <path d="M 61.991563 24.38 
L 481.461563 24.38 
" style="fill: none; stroke: #000000; stroke-width: 0.8; stroke-linejoin: miter; stroke-linecap: square"/>
   </g>
   <g id="text_17">
    <!-- Specimen: Dazio_WSH2 -->
    <g transform="translate(191.230312 18.38) scale(0.16 -0.16)">
     <defs>
      <path id="Cambria-53" d="M 663 972 
Q 725 697 831 537 
Q 938 378 1106 301 
Q 1275 225 1541 225 
Q 1906 225 2101 415 
Q 2297 606 2297 972 
Q 2297 1206 2215 1365 
Q 2134 1525 1950 1665 
Q 1766 1806 1388 1994 
Q 1022 2175 809 2348 
Q 597 2522 492 2725 
Q 388 2928 388 3169 
Q 388 3519 552 3776 
Q 716 4034 1033 4175 
Q 1350 4316 1759 4316 
Q 1997 4316 2223 4291 
Q 2450 4266 2791 4178 
L 2791 3334 
L 2481 3334 
Q 2409 3609 2300 3762 
Q 2191 3916 2044 3977 
Q 1897 4038 1663 4038 
Q 1459 4038 1298 3963 
Q 1138 3888 1044 3736 
Q 950 3584 950 3375 
Q 950 3153 1029 3000 
Q 1109 2847 1278 2715 
Q 1447 2584 1778 2422 
Q 2178 2222 2398 2050 
Q 2619 1878 2742 1658 
Q 2866 1438 2866 1144 
Q 2866 816 2762 589 
Q 2659 363 2476 220 
Q 2294 78 2039 14 
Q 1784 -50 1481 -50 
Q 991 -50 350 116 
L 350 972 
L 663 972 
z
" transform="scale(0.015625)"/>
      <path id="Cambria-70" d="M 1150 94 
L 1150 -566 
Q 1150 -769 1164 -869 
Q 1178 -969 1214 -1026 
Q 1250 -1084 1317 -1121 
Q 1384 -1159 1534 -1191 
L 1534 -1344 
L 259 -1344 
L 259 -1191 
Q 372 -1159 442 -1126 
Q 513 -1094 550 -1030 
Q 588 -966 600 -856 
Q 613 -747 613 -566 
L 613 2116 
Q 613 2341 606 2436 
Q 600 2531 581 2593 
Q 563 2656 527 2697 
Q 491 2738 430 2766 
Q 369 2794 228 2822 
L 228 2988 
L 963 3016 
L 1153 3016 
L 1113 2506 
L 1159 2494 
Q 1353 2691 1465 2780 
Q 1578 2869 1698 2928 
Q 1819 2988 1930 3013 
Q 2041 3038 2166 3038 
Q 2681 3038 2957 2652 
Q 3234 2266 3234 1522 
Q 3234 1006 3078 654 
Q 2922 303 2623 126 
Q 2325 -50 1913 -50 
Q 1681 -50 1493 -11 
Q 1306 28 1150 94 
z
M 1150 1125 
Q 1150 825 1187 662 
Q 1225 500 1320 398 
Q 1416 297 1545 247 
Q 1675 197 1888 197 
Q 2266 197 2456 511 
Q 2647 825 2647 1438 
Q 2647 2663 1931 2663 
Q 1756 2663 1629 2608 
Q 1503 2553 1378 2431 
Q 1253 2309 1201 2195 
Q 1150 2081 1150 1950 
L 1150 1125 
z
" transform="scale(0.015625)"/>
      <path id="Cambria-65" d="M 2800 531 
Q 2600 322 2433 203 
Q 2266 84 2066 17 
Q 1866 -50 1625 -50 
Q 981 -50 653 336 
Q 325 722 325 1475 
Q 325 1941 492 2297 
Q 659 2653 968 2847 
Q 1278 3041 1681 3041 
Q 1997 3041 2219 2941 
Q 2441 2841 2573 2667 
Q 2706 2494 2779 2230 
Q 2853 1966 2863 1541 
L 894 1541 
L 894 1484 
Q 894 1116 976 864 
Q 1059 613 1248 470 
Q 1438 328 1741 328 
Q 1997 328 2201 423 
Q 2406 519 2609 734 
L 2800 531 
z
M 2275 1800 
Q 2256 2138 2190 2352 
Q 2125 2566 1994 2680 
Q 1863 2794 1650 2794 
Q 1328 2794 1136 2536 
Q 944 2278 909 1800 
L 2275 1800 
z
" transform="scale(0.015625)"/>
      <path id="Cambria-63" d="M 2631 2916 
L 2631 2263 
L 2234 2263 
Q 2181 2466 2103 2583 
Q 2025 2700 1922 2747 
Q 1819 2794 1666 2794 
Q 1447 2794 1278 2653 
Q 1109 2513 1011 2225 
Q 913 1938 913 1522 
Q 913 1256 950 1036 
Q 988 816 1078 659 
Q 1169 503 1319 415 
Q 1469 328 1691 328 
Q 1906 328 2092 412 
Q 2278 497 2478 709 
L 2656 503 
Q 2497 328 2375 233 
Q 2253 138 2114 73 
Q 1975 9 1839 -20 
Q 1703 -50 1544 -50 
Q 953 -50 640 342 
Q 328 734 328 1475 
Q 328 1938 503 2295 
Q 678 2653 993 2847 
Q 1309 3041 1722 3041 
Q 1978 3041 2195 3011 
Q 2413 2981 2631 2916 
z
" transform="scale(0.015625)"/>
      <path id="Cambria-69" d="M 1197 4213 
L 1197 3606 
L 622 3606 
L 622 4213 
L 1197 4213 
z
M 303 153 
Q 425 191 476 219 
Q 528 247 564 297 
Q 600 347 620 450 
Q 641 553 641 772 
L 641 2134 
Q 641 2334 634 2456 
Q 628 2578 590 2651 
Q 553 2725 476 2761 
Q 400 2797 259 2822 
L 259 2988 
L 988 3016 
L 1178 3016 
L 1178 781 
Q 1178 513 1203 408 
Q 1228 303 1298 248 
Q 1369 194 1528 153 
L 1528 0 
L 303 0 
L 303 153 
z
" transform="scale(0.015625)"/>
      <path id="Cambria-6d" d="M 1147 2506 
L 1191 2494 
Q 1378 2681 1498 2776 
Q 1619 2872 1731 2930 
Q 1844 2988 1942 3013 
Q 2041 3038 2144 3038 
Q 2456 3038 2653 2894 
Q 2850 2750 2925 2453 
Q 3159 2691 3304 2803 
Q 3450 2916 3601 2977 
Q 3753 3038 3928 3038 
Q 4138 3038 4289 2977 
Q 4441 2916 4545 2789 
Q 4650 2663 4698 2472 
Q 4747 2281 4747 1959 
L 4747 781 
Q 4747 544 4762 453 
Q 4778 363 4808 313 
Q 4838 263 4897 227 
Q 4956 191 5097 153 
L 5097 0 
L 3869 0 
L 3869 153 
Q 3991 191 4044 219 
Q 4097 247 4133 297 
Q 4169 347 4189 451 
Q 4209 556 4209 769 
L 4209 1588 
Q 4209 1853 4195 2026 
Q 4181 2200 4151 2303 
Q 4122 2406 4080 2465 
Q 4038 2525 3984 2569 
Q 3931 2613 3859 2638 
Q 3788 2663 3669 2663 
Q 3544 2663 3436 2613 
Q 3328 2563 3201 2444 
Q 3075 2325 3019 2204 
Q 2963 2084 2963 1922 
L 2963 781 
Q 2963 544 2978 453 
Q 2994 363 3023 313 
Q 3053 263 3112 227 
Q 3172 191 3313 153 
L 3313 0 
L 2084 0 
L 2084 153 
Q 2206 191 2259 219 
Q 2313 247 2348 297 
Q 2384 347 2404 451 
Q 2425 556 2425 769 
L 2425 1588 
Q 2425 1866 2409 2041 
Q 2394 2216 2361 2322 
Q 2328 2428 2276 2493 
Q 2225 2559 2172 2593 
Q 2119 2628 2047 2645 
Q 1975 2663 1884 2663 
Q 1756 2663 1643 2605 
Q 1531 2547 1414 2437 
Q 1297 2328 1237 2209 
Q 1178 2091 1178 1953 
L 1178 781 
Q 1178 603 1187 509 
Q 1197 416 1217 362 
Q 1238 309 1269 276 
Q 1300 244 1358 214 
Q 1416 184 1531 153 
L 1531 0 
L 306 0 
L 306 153 
Q 425 191 476 219 
Q 528 247 565 297 
Q 603 347 622 450 
Q 641 553 641 772 
L 641 2134 
Q 641 2334 634 2456 
Q 628 2578 590 2651 
Q 553 2725 476 2761 
Q 400 2797 259 2822 
L 259 2988 
L 991 3016 
L 1181 3016 
L 1147 2506 
z
" transform="scale(0.015625)"/>
      <path id="Cambria-6e" d="M 3347 0 
L 2116 0 
L 2116 153 
Q 2238 191 2291 219 
Q 2344 247 2380 297 
Q 2416 347 2436 451 
Q 2456 556 2456 769 
L 2456 1588 
Q 2456 1806 2443 1984 
Q 2431 2163 2401 2277 
Q 2372 2391 2330 2455 
Q 2288 2519 2230 2564 
Q 2172 2609 2097 2636 
Q 2022 2663 1900 2663 
Q 1778 2663 1668 2614 
Q 1559 2566 1428 2447 
Q 1297 2328 1237 2212 
Q 1178 2097 1178 1947 
L 1178 781 
Q 1178 513 1203 408 
Q 1228 303 1298 248 
Q 1369 194 1528 153 
L 1528 0 
L 303 0 
L 303 153 
Q 425 191 476 219 
Q 528 247 564 297 
Q 600 347 620 450 
Q 641 553 641 772 
L 641 2134 
Q 641 2334 634 2456 
Q 628 2578 590 2651 
Q 553 2725 476 2761 
Q 400 2797 259 2822 
L 259 2988 
L 991 3016 
L 1181 3016 
L 1147 2506 
L 1191 2494 
Q 1422 2728 1564 2828 
Q 1706 2928 1851 2983 
Q 1997 3038 2159 3038 
Q 2328 3038 2461 2998 
Q 2594 2959 2695 2878 
Q 2797 2797 2862 2676 
Q 2928 2556 2961 2387 
Q 2994 2219 2994 1959 
L 2994 781 
Q 2994 566 3006 469 
Q 3019 372 3050 319 
Q 3081 266 3140 230 
Q 3200 194 3347 153 
L 3347 0 
z
" transform="scale(0.015625)"/>
      <path id="Cambria-3a" d="M 1156 2822 
L 1156 2091 
L 531 2091 
L 531 2822 
L 1156 2822 
z
M 1156 725 
L 1156 0 
L 531 0 
L 531 725 
L 1156 725 
z
" transform="scale(0.015625)"/>
      <path id="Cambria-20" transform="scale(0.015625)"/>
      <path id="Cambria-44" d="M 375 0 
L 375 153 
Q 519 191 581 225 
Q 644 259 678 312 
Q 713 366 728 466 
Q 744 566 744 781 
L 744 3484 
Q 744 3703 728 3801 
Q 713 3900 677 3953 
Q 641 4006 581 4039 
Q 522 4072 375 4113 
L 375 4266 
L 1744 4266 
Q 2334 4266 2711 4136 
Q 3088 4006 3347 3753 
Q 3606 3500 3734 3123 
Q 3863 2747 3863 2225 
Q 3863 1697 3742 1295 
Q 3622 894 3391 622 
Q 3191 384 2900 231 
Q 2659 106 2343 53 
Q 2028 0 1506 0 
L 375 0 
z
M 1328 291 
Q 1453 278 1697 278 
Q 1959 278 2165 322 
Q 2372 366 2540 459 
Q 2709 553 2843 720 
Q 2978 888 3062 1105 
Q 3147 1322 3186 1587 
Q 3225 1853 3225 2169 
Q 3225 2803 3042 3211 
Q 2859 3619 2526 3806 
Q 2194 3994 1731 3994 
Q 1519 3994 1328 3981 
L 1328 291 
z
" transform="scale(0.015625)"/>
      <path id="Cambria-61" d="M 2109 447 
L 2063 459 
Q 1791 181 1552 65 
Q 1313 -50 1044 -50 
Q 806 -50 625 42 
Q 444 134 347 301 
Q 250 469 250 688 
Q 250 1144 701 1392 
Q 1153 1641 2056 1681 
L 2056 1884 
Q 2056 2209 1993 2396 
Q 1931 2584 1797 2671 
Q 1663 2759 1438 2759 
Q 1194 2759 1045 2631 
Q 897 2503 822 2247 
L 413 2247 
L 413 2653 
Q 713 2809 913 2882 
Q 1113 2956 1313 2998 
Q 1513 3041 1719 3041 
Q 2028 3041 2215 2942 
Q 2403 2844 2497 2641 
Q 2591 2438 2591 2028 
L 2591 941 
Q 2591 709 2594 614 
Q 2597 519 2612 437 
Q 2628 356 2659 307 
Q 2691 259 2752 225 
Q 2813 191 2950 153 
L 2950 0 
L 2094 0 
L 2109 447 
z
M 2056 1425 
Q 1422 1419 1106 1256 
Q 791 1094 791 766 
Q 791 588 862 484 
Q 934 381 1043 342 
Q 1153 303 1303 303 
Q 1516 303 1689 406 
Q 1863 509 1959 668 
Q 2056 828 2056 984 
L 2056 1425 
z
" transform="scale(0.015625)"/>
      <path id="Cambria-7a" d="M 2659 906 
L 2659 0 
L 253 0 
L 253 153 
L 1966 2734 
L 1119 2734 
Q 963 2734 872 2678 
Q 781 2622 700 2490 
Q 619 2359 544 2138 
L 272 2138 
L 272 2988 
L 2641 2988 
L 2641 2831 
L 931 253 
L 1753 253 
Q 1916 253 1997 278 
Q 2078 303 2137 358 
Q 2197 413 2253 531 
Q 2309 650 2388 906 
L 2659 906 
z
" transform="scale(0.015625)"/>
      <path id="Cambria-6f" d="M 1663 -50 
Q 1013 -50 670 333 
Q 328 716 328 1466 
Q 328 1981 508 2337 
Q 688 2694 1000 2867 
Q 1313 3041 1713 3041 
Q 2381 3041 2725 2652 
Q 3069 2263 3069 1534 
Q 3069 1016 2897 659 
Q 2725 303 2409 126 
Q 2094 -50 1663 -50 
z
M 919 1531 
Q 919 888 1123 542 
Q 1328 197 1709 197 
Q 1919 197 2066 298 
Q 2213 400 2305 572 
Q 2397 744 2437 970 
Q 2478 1197 2478 1444 
Q 2478 1903 2376 2206 
Q 2275 2509 2100 2651 
Q 1925 2794 1700 2794 
Q 1322 2794 1120 2466 
Q 919 2138 919 1531 
z
" transform="scale(0.015625)"/>
      <path id="Cambria-5f" d="M 0 -753 
L 0 -391 
L 2372 -391 
L 2372 -753 
L 0 -753 
z
" transform="scale(0.015625)"/>
      <path id="Cambria-57" d="M 2941 3469 
L 1941 -22 
L 1434 -22 
L 525 3372 
Q 469 3584 422 3718 
Q 375 3853 328 3929 
Q 281 4006 226 4045 
Q 172 4084 69 4113 
L 69 4266 
L 1406 4266 
L 1406 4113 
Q 1213 4075 1136 4000 
Q 1059 3925 1059 3791 
Q 1059 3681 1087 3531 
Q 1116 3381 1166 3191 
L 1794 722 
L 2800 4266 
L 3325 4266 
L 4141 719 
L 4878 3103 
Q 5013 3538 5013 3722 
Q 5013 3913 4933 3997 
Q 4853 4081 4669 4113 
L 4669 4266 
L 5900 4266 
L 5900 4113 
Q 5806 4081 5750 4042 
Q 5694 4003 5642 3936 
Q 5591 3869 5530 3728 
Q 5469 3588 5388 3350 
L 4250 -22 
L 3803 -22 
L 2941 3469 
z
" transform="scale(0.015625)"/>
      <path id="Cambria-48" d="M 3650 781 
Q 3650 600 3659 509 
Q 3669 419 3691 364 
Q 3713 309 3744 275 
Q 3775 241 3833 212 
Q 3891 184 4013 153 
L 4013 0 
L 2703 0 
L 2703 153 
Q 2875 197 2944 250 
Q 3013 303 3039 412 
Q 3066 522 3066 781 
L 3066 2091 
L 1328 2091 
L 1328 781 
Q 1328 572 1342 475 
Q 1356 378 1389 322 
Q 1422 266 1486 228 
Q 1550 191 1694 153 
L 1694 0 
L 378 0 
L 378 153 
Q 572 203 637 264 
Q 703 325 723 437 
Q 744 550 744 781 
L 744 3484 
Q 744 3700 728 3798 
Q 713 3897 677 3951 
Q 641 4006 581 4039 
Q 522 4072 378 4113 
L 378 4266 
L 1694 4266 
L 1694 4113 
Q 1556 4078 1495 4043 
Q 1434 4009 1398 3957 
Q 1363 3906 1345 3803 
Q 1328 3700 1328 3484 
L 1328 2378 
L 3066 2378 
L 3066 3484 
Q 3066 3756 3039 3856 
Q 3013 3956 2950 4009 
Q 2888 4063 2703 4113 
L 2703 4266 
L 4013 4266 
L 4013 4113 
Q 3838 4069 3769 4014 
Q 3700 3959 3675 3850 
Q 3650 3741 3650 3484 
L 3650 781 
z
" transform="scale(0.015625)"/>
     </defs>
     <use xlink:href="#Cambria-53"/>
     <use xlink:href="#Cambria-70" x="49.609375"/>
     <use xlink:href="#Cambria-65" x="105.224609"/>
     <use xlink:href="#Cambria-63" x="154.003906"/>
     <use xlink:href="#Cambria-69" x="198.095703"/>
     <use xlink:href="#Cambria-6d" x="225.878906"/>
     <use xlink:href="#Cambria-65" x="309.082031"/>
     <use xlink:href="#Cambria-6e" x="357.861328"/>
     <use xlink:href="#Cambria-3a" x="413.671875"/>
     <use xlink:href="#Cambria-20" x="440.039062"/>
     <use xlink:href="#Cambria-44" x="462.060547"/>
     <use xlink:href="#Cambria-61" x="528.222656"/>
     <use xlink:href="#Cambria-7a" x="577.050781"/>
     <use xlink:href="#Cambria-69" x="622.509766"/>
     <use xlink:href="#Cambria-6f" x="650.292969"/>
     <use xlink:href="#Cambria-5f" x="703.369141"/>
     <use xlink:href="#Cambria-57" x="740.429688"/>
     <use xlink:href="#Cambria-53" x="832.568359"/>
     <use xlink:href="#Cambria-48" x="882.177734"/>
     <use xlink:href="#Cambria-32" x="950.830078"/>
    </g>
   </g>
   <g id="legend_1">
    <g id="patch_7">
     <path d="M 71.791563 55.374687 
L 198.618437 55.374687 
Q 201.418438 55.374687 201.418438 52.574687 
L 201.418438 34.18 
Q 201.418438 31.38 198.618437 31.38 
L 71.791563 31.38 
Q 68.991563 31.38 68.991563 34.18 
L 68.991563 52.574687 
Q 68.991563 55.374687 71.791563 55.374687 
z
" style="fill: #ffffff; opacity: 0.8; stroke: #cccccc; stroke-linejoin: miter"/>
    </g>
    <g id="line2d_32">
     <path d="M 74.591563 41.88 
L 88.591563 41.88 
L 102.591563 41.88 
" style="fill: none; stroke: #0000ff; stroke-width: 1.2; stroke-linecap: square"/>
    </g>
    <g id="text_18">
     <!-- Numerical test -->
     <g transform="translate(113.791563 46.78) scale(0.14 -0.14)">
      <defs>
       <path id="TimesNewRomanPSMT-4e" d="M -84 4238 
L 1066 4238 
L 3656 1059 
L 3656 3503 
Q 3656 3894 3569 3991 
Q 3453 4122 3203 4122 
L 3056 4122 
L 3056 4238 
L 4531 4238 
L 4531 4122 
L 4381 4122 
Q 4113 4122 4000 3959 
Q 3931 3859 3931 3503 
L 3931 -69 
L 3819 -69 
L 1025 3344 
L 1025 734 
Q 1025 344 1109 247 
Q 1228 116 1475 116 
L 1625 116 
L 1625 0 
L 150 0 
L 150 116 
L 297 116 
Q 569 116 681 278 
Q 750 378 750 734 
L 750 3681 
Q 566 3897 470 3965 
Q 375 4034 191 4094 
Q 100 4122 -84 4122 
L -84 4238 
z
" transform="scale(0.015625)"/>
       <path id="TimesNewRomanPSMT-75" d="M 2709 2863 
L 2709 1128 
Q 2709 631 2732 520 
Q 2756 409 2807 365 
Q 2859 322 2928 322 
Q 3025 322 3147 375 
L 3191 266 
L 2334 -88 
L 2194 -88 
L 2194 519 
Q 1825 119 1631 15 
Q 1438 -88 1222 -88 
Q 981 -88 804 51 
Q 628 191 559 409 
Q 491 628 491 1028 
L 491 2306 
Q 491 2509 447 2587 
Q 403 2666 317 2708 
Q 231 2750 6 2747 
L 6 2863 
L 1009 2863 
L 1009 947 
Q 1009 547 1148 422 
Q 1288 297 1484 297 
Q 1619 297 1789 381 
Q 1959 466 2194 703 
L 2194 2325 
Q 2194 2569 2105 2655 
Q 2016 2741 1734 2747 
L 1734 2863 
L 2709 2863 
z
" transform="scale(0.015625)"/>
       <path id="TimesNewRomanPSMT-6d" d="M 1050 2338 
Q 1363 2650 1419 2697 
Q 1559 2816 1721 2881 
Q 1884 2947 2044 2947 
Q 2313 2947 2506 2790 
Q 2700 2634 2766 2338 
Q 3088 2713 3309 2830 
Q 3531 2947 3766 2947 
Q 3994 2947 4170 2830 
Q 4347 2713 4450 2447 
Q 4519 2266 4519 1878 
L 4519 647 
Q 4519 378 4559 278 
Q 4591 209 4675 161 
Q 4759 113 4950 113 
L 4950 0 
L 3538 0 
L 3538 113 
L 3597 113 
Q 3781 113 3884 184 
Q 3956 234 3988 344 
Q 4000 397 4000 647 
L 4000 1878 
Q 4000 2228 3916 2372 
Q 3794 2572 3525 2572 
Q 3359 2572 3192 2489 
Q 3025 2406 2788 2181 
L 2781 2147 
L 2788 2013 
L 2788 647 
Q 2788 353 2820 281 
Q 2853 209 2943 161 
Q 3034 113 3253 113 
L 3253 0 
L 1806 0 
L 1806 113 
Q 2044 113 2133 169 
Q 2222 225 2256 338 
Q 2272 391 2272 647 
L 2272 1878 
Q 2272 2228 2169 2381 
Q 2031 2581 1784 2581 
Q 1616 2581 1450 2491 
Q 1191 2353 1050 2181 
L 1050 647 
Q 1050 366 1089 281 
Q 1128 197 1204 155 
Q 1281 113 1516 113 
L 1516 0 
L 100 0 
L 100 113 
Q 297 113 375 155 
Q 453 197 493 289 
Q 534 381 534 647 
L 534 1741 
Q 534 2213 506 2350 
Q 484 2453 437 2492 
Q 391 2531 309 2531 
Q 222 2531 100 2484 
L 53 2597 
L 916 2947 
L 1050 2947 
L 1050 2338 
z
" transform="scale(0.015625)"/>
       <path id="TimesNewRomanPSMT-65" d="M 681 1784 
Q 678 1147 991 784 
Q 1303 422 1725 422 
Q 2006 422 2214 576 
Q 2422 731 2563 1106 
L 2659 1044 
Q 2594 616 2278 264 
Q 1963 -88 1488 -88 
Q 972 -88 605 314 
Q 238 716 238 1394 
Q 238 2128 614 2539 
Q 991 2950 1559 2950 
Q 2041 2950 2350 2633 
Q 2659 2316 2659 1784 
L 681 1784 
z
M 681 1966 
L 2006 1966 
Q 1991 2241 1941 2353 
Q 1863 2528 1708 2628 
Q 1553 2728 1384 2728 
Q 1125 2728 920 2526 
Q 716 2325 681 1966 
z
" transform="scale(0.015625)"/>
       <path id="TimesNewRomanPSMT-72" d="M 1038 2947 
L 1038 2303 
Q 1397 2947 1775 2947 
Q 1947 2947 2059 2842 
Q 2172 2738 2172 2600 
Q 2172 2478 2090 2393 
Q 2009 2309 1897 2309 
Q 1788 2309 1652 2417 
Q 1516 2525 1450 2525 
Q 1394 2525 1328 2463 
Q 1188 2334 1038 2041 
L 1038 669 
Q 1038 431 1097 309 
Q 1138 225 1241 169 
Q 1344 113 1538 113 
L 1538 0 
L 72 0 
L 72 113 
Q 291 113 397 181 
Q 475 231 506 341 
Q 522 394 522 644 
L 522 1753 
Q 522 2253 501 2348 
Q 481 2444 426 2487 
Q 372 2531 291 2531 
Q 194 2531 72 2484 
L 41 2597 
L 906 2947 
L 1038 2947 
z
" transform="scale(0.015625)"/>
       <path id="TimesNewRomanPSMT-69" d="M 928 4444 
Q 1059 4444 1151 4351 
Q 1244 4259 1244 4128 
Q 1244 3997 1151 3903 
Q 1059 3809 928 3809 
Q 797 3809 703 3903 
Q 609 3997 609 4128 
Q 609 4259 701 4351 
Q 794 4444 928 4444 
z
M 1188 2947 
L 1188 647 
Q 1188 378 1227 289 
Q 1266 200 1342 156 
Q 1419 113 1622 113 
L 1622 0 
L 231 0 
L 231 113 
Q 441 113 512 153 
Q 584 194 626 287 
Q 669 381 669 647 
L 669 1750 
Q 669 2216 641 2353 
Q 619 2453 572 2492 
Q 525 2531 444 2531 
Q 356 2531 231 2484 
L 188 2597 
L 1050 2947 
L 1188 2947 
z
" transform="scale(0.015625)"/>
       <path id="TimesNewRomanPSMT-63" d="M 2631 1088 
Q 2516 522 2178 217 
Q 1841 -88 1431 -88 
Q 944 -88 581 321 
Q 219 731 219 1428 
Q 219 2103 620 2525 
Q 1022 2947 1584 2947 
Q 2006 2947 2278 2723 
Q 2550 2500 2550 2259 
Q 2550 2141 2473 2067 
Q 2397 1994 2259 1994 
Q 2075 1994 1981 2113 
Q 1928 2178 1911 2362 
Q 1894 2547 1784 2644 
Q 1675 2738 1481 2738 
Q 1169 2738 978 2506 
Q 725 2200 725 1697 
Q 725 1184 976 792 
Q 1228 400 1656 400 
Q 1963 400 2206 609 
Q 2378 753 2541 1131 
L 2631 1088 
z
" transform="scale(0.015625)"/>
       <path id="TimesNewRomanPSMT-61" d="M 1822 413 
Q 1381 72 1269 19 
Q 1100 -59 909 -59 
Q 613 -59 420 144 
Q 228 347 228 678 
Q 228 888 322 1041 
Q 450 1253 767 1440 
Q 1084 1628 1822 1897 
L 1822 2009 
Q 1822 2438 1686 2597 
Q 1550 2756 1291 2756 
Q 1094 2756 978 2650 
Q 859 2544 859 2406 
L 866 2225 
Q 866 2081 792 2003 
Q 719 1925 600 1925 
Q 484 1925 411 2006 
Q 338 2088 338 2228 
Q 338 2497 613 2722 
Q 888 2947 1384 2947 
Q 1766 2947 2009 2819 
Q 2194 2722 2281 2516 
Q 2338 2381 2338 1966 
L 2338 994 
Q 2338 584 2353 492 
Q 2369 400 2405 369 
Q 2441 338 2488 338 
Q 2538 338 2575 359 
Q 2641 400 2828 588 
L 2828 413 
Q 2478 -56 2159 -56 
Q 2006 -56 1915 50 
Q 1825 156 1822 413 
z
M 1822 616 
L 1822 1706 
Q 1350 1519 1213 1441 
Q 966 1303 859 1153 
Q 753 1003 753 825 
Q 753 600 887 451 
Q 1022 303 1197 303 
Q 1434 303 1822 616 
z
" transform="scale(0.015625)"/>
       <path id="TimesNewRomanPSMT-6c" d="M 1184 4444 
L 1184 647 
Q 1184 378 1223 290 
Q 1263 203 1344 158 
Q 1425 113 1647 113 
L 1647 0 
L 244 0 
L 244 113 
Q 441 113 512 153 
Q 584 194 625 287 
Q 666 381 666 647 
L 666 3247 
Q 666 3731 644 3842 
Q 622 3953 573 3993 
Q 525 4034 450 4034 
Q 369 4034 244 3984 
L 191 4094 
L 1044 4444 
L 1184 4444 
z
" transform="scale(0.015625)"/>
       <path id="TimesNewRomanPSMT-20" transform="scale(0.015625)"/>
       <path id="TimesNewRomanPSMT-74" d="M 1031 3803 
L 1031 2863 
L 1700 2863 
L 1700 2644 
L 1031 2644 
L 1031 788 
Q 1031 509 1111 412 
Q 1191 316 1316 316 
Q 1419 316 1516 380 
Q 1613 444 1666 569 
L 1788 569 
Q 1678 263 1478 108 
Q 1278 -47 1066 -47 
Q 922 -47 784 33 
Q 647 113 581 261 
Q 516 409 516 719 
L 516 2644 
L 63 2644 
L 63 2747 
Q 234 2816 414 2980 
Q 594 3144 734 3369 
Q 806 3488 934 3803 
L 1031 3803 
z
" transform="scale(0.015625)"/>
       <path id="TimesNewRomanPSMT-73" d="M 2050 2947 
L 2050 1972 
L 1947 1972 
Q 1828 2431 1642 2597 
Q 1456 2763 1169 2763 
Q 950 2763 815 2647 
Q 681 2531 681 2391 
Q 681 2216 781 2091 
Q 878 1963 1175 1819 
L 1631 1597 
Q 2266 1288 2266 781 
Q 2266 391 1970 151 
Q 1675 -88 1309 -88 
Q 1047 -88 709 6 
Q 606 38 541 38 
Q 469 38 428 -44 
L 325 -44 
L 325 978 
L 428 978 
Q 516 541 762 319 
Q 1009 97 1316 97 
Q 1531 97 1667 223 
Q 1803 350 1803 528 
Q 1803 744 1651 891 
Q 1500 1038 1047 1263 
Q 594 1488 453 1669 
Q 313 1847 313 2119 
Q 313 2472 555 2709 
Q 797 2947 1181 2947 
Q 1350 2947 1591 2875 
Q 1750 2828 1803 2828 
Q 1853 2828 1881 2850 
Q 1909 2872 1947 2947 
L 2050 2947 
z
" transform="scale(0.015625)"/>
      </defs>
      <use xlink:href="#TimesNewRomanPSMT-4e"/>
      <use xlink:href="#TimesNewRomanPSMT-75" x="72.216797"/>
      <use xlink:href="#TimesNewRomanPSMT-6d" x="122.216797"/>
      <use xlink:href="#TimesNewRomanPSMT-65" x="200"/>
      <use xlink:href="#TimesNewRomanPSMT-72" x="244.384766"/>
      <use xlink:href="#TimesNewRomanPSMT-69" x="277.685547"/>
      <use xlink:href="#TimesNewRomanPSMT-63" x="305.46875"/>
      <use xlink:href="#TimesNewRomanPSMT-61" x="349.853516"/>
      <use xlink:href="#TimesNewRomanPSMT-6c" x="394.238281"/>
      <use xlink:href="#TimesNewRomanPSMT-20" x="422.021484"/>
      <use xlink:href="#TimesNewRomanPSMT-74" x="447.021484"/>
      <use xlink:href="#TimesNewRomanPSMT-65" x="474.804688"/>
      <use xlink:href="#TimesNewRomanPSMT-73" x="519.189453"/>
      <use xlink:href="#TimesNewRomanPSMT-74" x="558.105469"/>
     </g>
    </g>
   </g>
  </g>
 </g>
 <defs>
  <clipPath id="p4601d8f619">
   <rect x="61.991563" y="24.38" width="419.47" height="348.76"/>
  </clipPath>
 </defs>
</svg>
