<?xml version="1.0" encoding="utf-8" standalone="no"?>
<!DOCTYPE svg PUBLIC "-//W3C//DTD SVG 1.1//EN"
  "http://www.w3.org/Graphics/SVG/1.1/DTD/svg11.dtd">
<svg xmlns:xlink="http://www.w3.org/1999/xlink" width="488.661562pt" height="416.844062pt" viewBox="0 0 488.661562 416.844062" xmlns="http://www.w3.org/2000/svg" version="1.1">
 <metadata>
  <rdf:RDF xmlns:dc="http://purl.org/dc/elements/1.1/" xmlns:cc="http://creativecommons.org/ns#" xmlns:rdf="http://www.w3.org/1999/02/22-rdf-syntax-ns#">
   <cc:Work>
    <dc:type rdf:resource="http://purl.org/dc/dcmitype/StillImage"/>
    <dc:date>2023-10-13T17:06:17.568274</dc:date>
    <dc:format>image/svg+xml</dc:format>
    <dc:creator>
     <cc:Agent>
      <dc:title>Matplotlib v3.8.0, https://matplotlib.org/</dc:title>
     </cc:Agent>
    </dc:creator>
   </cc:Work>
  </rdf:RDF>
 </metadata>
 <defs>
  <style type="text/css">*{stroke-linejoin: round; stroke-linecap: butt}</style>
 </defs>
 <g id="figure_1">
  <g id="patch_1">
   <path d="M 0 416.844062 
L 488.661562 416.844062 
L 488.661562 0 
L 0 0 
z
" style="fill: #ffffff"/>
  </g>
  <g id="axes_1">
   <g id="patch_2">
    <path d="M 61.991563 373.14 
L 481.461563 373.14 
L 481.461563 24.38 
L 61.991563 24.38 
z
" style="fill: #ffffff"/>
   </g>
   <g id="matplotlib.axis_1">
    <g id="xtick_1">
     <g id="line2d_1">
      <path d="M 103.489931 373.14 
L 103.489931 24.38 
" clip-path="url(#pd4b8325c5e)" style="fill: none; stroke-dasharray: 0.8,1.32; stroke-dashoffset: 0; stroke: #b0b0b0; stroke-width: 0.8"/>
     </g>
     <g id="line2d_2">
      <defs>
       <path id="m8308fda97c" d="M 0 0 
L 0 3.5 
" style="stroke: #000000; stroke-width: 0.8"/>
      </defs>
      <g>
       <use xlink:href="#m8308fda97c" x="103.489931" y="373.14" style="stroke: #000000; stroke-width: 0.8"/>
      </g>
     </g>
     <g id="text_1">
      <!-- −75 -->
      <g transform="translate(91.861181 389.9225) scale(0.14 -0.14)">
       <defs>
        <path id="Cambria-2212" d="M 397 1613 
L 397 2047 
L 3147 2047 
L 3147 1613 
L 397 1613 
z
" transform="scale(0.015625)"/>
        <path id="Cambria-37" d="M 3206 4116 
L 1388 -22 
L 934 -22 
L 934 131 
L 2619 3697 
L 2619 3744 
L 1244 3744 
Q 1116 3744 1039 3720 
Q 963 3697 911 3653 
Q 859 3609 825 3537 
Q 791 3466 731 3253 
L 463 3253 
L 525 4266 
L 3206 4266 
L 3206 4116 
z
" transform="scale(0.015625)"/>
        <path id="Cambria-35" d="M 469 172 
L 469 834 
L 847 834 
Q 941 516 1130 366 
Q 1319 216 1619 216 
Q 2034 216 2246 466 
Q 2459 716 2459 1213 
Q 2459 1544 2346 1761 
Q 2234 1978 2043 2075 
Q 1853 2172 1600 2172 
Q 1388 2172 1234 2145 
Q 1081 2119 906 2063 
L 656 2209 
L 656 4266 
L 2378 4266 
Q 2484 4266 2531 4283 
Q 2578 4300 2606 4336 
Q 2634 4372 2672 4472 
L 2916 4472 
L 2869 3747 
L 1072 3747 
L 1072 2375 
Q 1234 2444 1425 2478 
Q 1616 2513 1806 2513 
Q 2178 2513 2465 2361 
Q 2753 2209 2909 1929 
Q 3066 1650 3066 1281 
Q 3066 863 2891 563 
Q 2716 263 2384 106 
Q 2053 -50 1600 -50 
Q 1059 -50 469 172 
z
" transform="scale(0.015625)"/>
       </defs>
       <use xlink:href="#Cambria-2212"/>
       <use xlink:href="#Cambria-37" x="55.371094"/>
       <use xlink:href="#Cambria-35" x="110.742188"/>
      </g>
     </g>
    </g>
    <g id="xtick_2">
     <g id="line2d_3">
      <path d="M 159.568808 373.14 
L 159.568808 24.38 
" clip-path="url(#pd4b8325c5e)" style="fill: none; stroke-dasharray: 0.8,1.32; stroke-dashoffset: 0; stroke: #b0b0b0; stroke-width: 0.8"/>
     </g>
     <g id="line2d_4">
      <g>
       <use xlink:href="#m8308fda97c" x="159.568808" y="373.14" style="stroke: #000000; stroke-width: 0.8"/>
      </g>
     </g>
     <g id="text_2">
      <!-- −50 -->
      <g transform="translate(147.940058 389.9225) scale(0.14 -0.14)">
       <defs>
        <path id="Cambria-30" d="M 1738 -50 
Q 1063 -50 733 481 
Q 403 1013 403 2094 
Q 403 2669 504 3087 
Q 606 3506 789 3779 
Q 972 4053 1228 4184 
Q 1484 4316 1788 4316 
Q 2472 4316 2806 3787 
Q 3141 3259 3141 2191 
Q 3141 1084 2783 517 
Q 2425 -50 1738 -50 
z
M 1013 2188 
Q 1013 1169 1202 692 
Q 1391 216 1788 216 
Q 2166 216 2348 664 
Q 2531 1113 2531 2053 
Q 2531 2772 2437 3217 
Q 2344 3663 2176 3856 
Q 2009 4050 1772 4050 
Q 1556 4050 1411 3922 
Q 1266 3794 1177 3553 
Q 1088 3313 1050 2967 
Q 1013 2622 1013 2188 
z
" transform="scale(0.015625)"/>
       </defs>
       <use xlink:href="#Cambria-2212"/>
       <use xlink:href="#Cambria-35" x="55.371094"/>
       <use xlink:href="#Cambria-30" x="110.742188"/>
      </g>
     </g>
    </g>
    <g id="xtick_3">
     <g id="line2d_5">
      <path d="M 215.647685 373.14 
L 215.647685 24.38 
" clip-path="url(#pd4b8325c5e)" style="fill: none; stroke-dasharray: 0.8,1.32; stroke-dashoffset: 0; stroke: #b0b0b0; stroke-width: 0.8"/>
     </g>
     <g id="line2d_6">
      <g>
       <use xlink:href="#m8308fda97c" x="215.647685" y="373.14" style="stroke: #000000; stroke-width: 0.8"/>
      </g>
     </g>
     <g id="text_3">
      <!-- −25 -->
      <g transform="translate(204.018935 389.9225) scale(0.14 -0.14)">
       <defs>
        <path id="Cambria-32" d="M 2194 500 
Q 2347 500 2440 519 
Q 2534 538 2590 581 
Q 2647 625 2680 695 
Q 2713 766 2763 913 
L 3028 913 
L 2975 0 
L 403 0 
L 403 150 
Q 538 478 766 822 
Q 994 1166 1413 1631 
Q 1775 2031 1934 2238 
Q 2109 2463 2195 2627 
Q 2281 2791 2318 2936 
Q 2356 3081 2356 3228 
Q 2356 3463 2281 3642 
Q 2206 3822 2051 3925 
Q 1897 4028 1663 4028 
Q 1078 4028 875 3378 
L 497 3378 
L 497 3978 
Q 875 4156 1204 4236 
Q 1534 4316 1797 4316 
Q 2378 4316 2675 4061 
Q 2972 3806 2972 3322 
Q 2972 3156 2939 3017 
Q 2906 2878 2836 2742 
Q 2766 2606 2647 2450 
Q 2528 2294 2384 2133 
Q 2241 1972 1888 1597 
Q 1294 969 1016 500 
L 2194 500 
z
" transform="scale(0.015625)"/>
       </defs>
       <use xlink:href="#Cambria-2212"/>
       <use xlink:href="#Cambria-32" x="55.371094"/>
       <use xlink:href="#Cambria-35" x="110.742188"/>
      </g>
     </g>
    </g>
    <g id="xtick_4">
     <g id="line2d_7">
      <path d="M 271.726562 373.14 
L 271.726562 24.38 
" clip-path="url(#pd4b8325c5e)" style="fill: none; stroke-dasharray: 0.8,1.32; stroke-dashoffset: 0; stroke: #b0b0b0; stroke-width: 0.8"/>
     </g>
     <g id="line2d_8">
      <g>
       <use xlink:href="#m8308fda97c" x="271.726562" y="373.14" style="stroke: #000000; stroke-width: 0.8"/>
      </g>
     </g>
     <g id="text_4">
      <!-- 0 -->
      <g transform="translate(267.850312 389.9225) scale(0.14 -0.14)">
       <use xlink:href="#Cambria-30"/>
      </g>
     </g>
    </g>
    <g id="xtick_5">
     <g id="line2d_9">
      <path d="M 327.80544 373.14 
L 327.80544 24.38 
" clip-path="url(#pd4b8325c5e)" style="fill: none; stroke-dasharray: 0.8,1.32; stroke-dashoffset: 0; stroke: #b0b0b0; stroke-width: 0.8"/>
     </g>
     <g id="line2d_10">
      <g>
       <use xlink:href="#m8308fda97c" x="327.80544" y="373.14" style="stroke: #000000; stroke-width: 0.8"/>
      </g>
     </g>
     <g id="text_5">
      <!-- 25 -->
      <g transform="translate(320.05294 389.9225) scale(0.14 -0.14)">
       <use xlink:href="#Cambria-32"/>
       <use xlink:href="#Cambria-35" x="55.371094"/>
      </g>
     </g>
    </g>
    <g id="xtick_6">
     <g id="line2d_11">
      <path d="M 383.884317 373.14 
L 383.884317 24.38 
" clip-path="url(#pd4b8325c5e)" style="fill: none; stroke-dasharray: 0.8,1.32; stroke-dashoffset: 0; stroke: #b0b0b0; stroke-width: 0.8"/>
     </g>
     <g id="line2d_12">
      <g>
       <use xlink:href="#m8308fda97c" x="383.884317" y="373.14" style="stroke: #000000; stroke-width: 0.8"/>
      </g>
     </g>
     <g id="text_6">
      <!-- 50 -->
      <g transform="translate(376.131817 389.9225) scale(0.14 -0.14)">
       <use xlink:href="#Cambria-35"/>
       <use xlink:href="#Cambria-30" x="55.371094"/>
      </g>
     </g>
    </g>
    <g id="xtick_7">
     <g id="line2d_13">
      <path d="M 439.963194 373.14 
L 439.963194 24.38 
" clip-path="url(#pd4b8325c5e)" style="fill: none; stroke-dasharray: 0.8,1.32; stroke-dashoffset: 0; stroke: #b0b0b0; stroke-width: 0.8"/>
     </g>
     <g id="line2d_14">
      <g>
       <use xlink:href="#m8308fda97c" x="439.963194" y="373.14" style="stroke: #000000; stroke-width: 0.8"/>
      </g>
     </g>
     <g id="text_7">
      <!-- 75 -->
      <g transform="translate(432.210694 389.9225) scale(0.14 -0.14)">
       <use xlink:href="#Cambria-37"/>
       <use xlink:href="#Cambria-35" x="55.371094"/>
      </g>
     </g>
    </g>
    <g id="text_8">
     <!-- Displacement (mm) -->
     <g transform="translate(214.282812 406.67125) scale(0.14 -0.14)">
      <defs>
       <path id="Cambria-Italic-44" d="M 2134 4266 
Q 2606 4266 2900 4194 
Q 3194 4122 3448 3934 
Q 3703 3747 3831 3436 
Q 3959 3125 3959 2700 
Q 3959 2278 3862 1893 
Q 3766 1509 3584 1186 
Q 3403 863 3150 623 
Q 2897 384 2659 256 
Q 2422 128 2128 64 
Q 1834 0 1444 0 
L 131 0 
L 166 153 
Q 284 172 343 214 
Q 403 256 443 331 
Q 484 406 518 514 
Q 553 622 622 931 
L 1153 3338 
Q 1184 3481 1203 3614 
Q 1222 3747 1222 3841 
Q 1222 3988 1147 4045 
Q 1072 4103 916 4113 
L 950 4266 
L 2134 4266 
z
M 1038 288 
Q 1128 278 1384 278 
Q 1700 278 1958 347 
Q 2216 416 2433 567 
Q 2650 719 2828 972 
Q 3006 1225 3117 1486 
Q 3228 1747 3290 2047 
Q 3353 2347 3353 2681 
Q 3353 3334 3048 3664 
Q 2744 3994 2144 3994 
Q 2006 3994 1847 3984 
L 1038 288 
z
" transform="scale(0.015625)"/>
       <path id="Cambria-Italic-69" d="M 1750 4213 
L 1606 3606 
L 1053 3606 
L 1197 4213 
L 1750 4213 
z
M 978 781 
Q 944 622 934 548 
Q 925 475 925 425 
Q 925 331 956 278 
Q 988 225 1053 197 
Q 1119 169 1269 153 
L 1241 0 
L 272 0 
L 744 2106 
Q 784 2288 800 2395 
Q 816 2503 816 2575 
Q 816 2666 789 2716 
Q 763 2766 700 2791 
Q 638 2816 484 2822 
L 519 2988 
L 1281 3016 
L 1466 3016 
L 978 781 
z
" transform="scale(0.015625)"/>
       <path id="Cambria-Italic-73" d="M 2063 2259 
Q 2028 2541 1901 2667 
Q 1775 2794 1509 2794 
Q 1363 2794 1244 2739 
Q 1125 2684 1056 2579 
Q 988 2475 988 2334 
Q 988 2219 1034 2123 
Q 1081 2028 1192 1925 
Q 1303 1822 1503 1688 
Q 1806 1484 1928 1293 
Q 2050 1103 2050 853 
Q 2050 559 1909 354 
Q 1769 150 1525 50 
Q 1281 -50 975 -50 
Q 700 -50 461 -9 
Q 222 31 -3 94 
L 144 769 
L 388 769 
Q 409 481 551 339 
Q 694 197 966 197 
Q 1244 197 1400 336 
Q 1556 475 1556 703 
Q 1556 838 1509 944 
Q 1463 1050 1363 1147 
Q 1263 1244 1078 1369 
Q 881 1503 759 1622 
Q 638 1741 570 1883 
Q 503 2025 503 2197 
Q 503 2456 631 2647 
Q 759 2838 995 2938 
Q 1231 3038 1547 3038 
Q 2063 3038 2456 2903 
L 2313 2259 
L 2063 2259 
z
" transform="scale(0.015625)"/>
       <path id="Cambria-Italic-70" d="M 669 -553 
Q 638 -703 630 -784 
Q 622 -866 622 -919 
Q 622 -1013 653 -1066 
Q 684 -1119 750 -1147 
Q 816 -1175 966 -1191 
L 941 -1344 
L -25 -1344 
L 766 2131 
Q 825 2394 825 2581 
Q 825 2669 798 2717 
Q 772 2766 708 2789 
Q 644 2813 491 2822 
L 528 2988 
L 1238 3016 
L 1416 3016 
L 1206 2203 
L 1244 2191 
Q 1822 3038 2394 3038 
Q 2734 3038 2923 2778 
Q 3113 2519 3113 2047 
Q 3113 1709 3020 1368 
Q 2928 1028 2764 753 
Q 2600 478 2398 301 
Q 2197 125 1973 37 
Q 1750 -50 1503 -50 
Q 1088 -50 813 131 
L 669 -553 
z
M 1044 1088 
Q 1013 922 1005 834 
Q 997 747 997 663 
Q 997 419 1101 308 
Q 1206 197 1463 197 
Q 1622 197 1756 259 
Q 1891 322 2011 440 
Q 2131 559 2228 728 
Q 2325 897 2401 1120 
Q 2478 1344 2517 1580 
Q 2556 1816 2556 2022 
Q 2556 2350 2464 2511 
Q 2372 2672 2172 2672 
Q 2013 2672 1858 2564 
Q 1703 2456 1518 2218 
Q 1334 1981 1231 1750 
Q 1128 1519 1069 1219 
L 1044 1088 
z
" transform="scale(0.015625)"/>
       <path id="Cambria-Italic-6c" d="M 1578 4469 
L 1763 4469 
L 950 781 
Q 916 631 906 554 
Q 897 478 897 425 
Q 897 331 928 278 
Q 959 225 1025 197 
Q 1091 169 1241 153 
L 1216 0 
L 241 0 
L 1047 3588 
Q 1078 3725 1090 3794 
Q 1103 3863 1109 3925 
Q 1116 3988 1116 4034 
Q 1116 4128 1081 4176 
Q 1047 4225 983 4247 
Q 919 4269 753 4278 
L 791 4441 
L 1578 4469 
z
" transform="scale(0.015625)"/>
       <path id="Cambria-Italic-61" d="M 2606 2834 
L 2894 3041 
L 3094 2991 
L 2616 869 
Q 2572 681 2556 579 
Q 2541 478 2541 413 
Q 2541 284 2612 226 
Q 2684 169 2888 153 
L 2859 0 
L 1966 0 
L 2163 784 
L 2122 797 
Q 1822 359 1553 156 
Q 1284 -47 984 -47 
Q 641 -47 452 212 
Q 263 472 263 941 
Q 263 1241 331 1542 
Q 400 1844 539 2114 
Q 678 2384 872 2590 
Q 1066 2797 1320 2919 
Q 1575 3041 1875 3041 
Q 2069 3041 2244 2995 
Q 2419 2950 2606 2834 
z
M 2331 1903 
Q 2359 2031 2368 2125 
Q 2378 2219 2378 2328 
Q 2378 2572 2275 2683 
Q 2172 2794 1931 2794 
Q 1800 2794 1681 2751 
Q 1563 2709 1441 2611 
Q 1319 2513 1208 2353 
Q 1097 2194 1006 1966 
Q 916 1738 866 1477 
Q 816 1216 816 969 
Q 816 644 905 483 
Q 994 322 1203 322 
Q 1300 322 1404 365 
Q 1509 409 1637 526 
Q 1766 644 1928 872 
Q 2075 1081 2161 1286 
Q 2247 1491 2303 1769 
L 2331 1903 
z
" transform="scale(0.015625)"/>
       <path id="Cambria-Italic-63" d="M 2297 2238 
Q 2291 2475 2258 2581 
Q 2225 2688 2151 2741 
Q 2078 2794 1944 2794 
Q 1628 2794 1376 2542 
Q 1125 2291 965 1830 
Q 806 1369 806 944 
Q 806 813 829 697 
Q 853 581 911 497 
Q 969 413 1064 364 
Q 1159 316 1306 316 
Q 1591 316 1798 423 
Q 2006 531 2238 763 
L 2428 572 
Q 2134 247 1836 97 
Q 1538 -53 1194 -53 
Q 741 -53 506 215 
Q 272 484 272 997 
Q 272 1331 397 1731 
Q 522 2131 762 2434 
Q 1003 2738 1325 2888 
Q 1647 3038 2013 3038 
Q 2263 3038 2448 3009 
Q 2634 2981 2778 2944 
L 2625 2238 
L 2297 2238 
z
" transform="scale(0.015625)"/>
       <path id="Cambria-Italic-65" d="M 2544 622 
Q 2313 369 2100 222 
Q 1888 75 1675 12 
Q 1463 -50 1206 -50 
Q 959 -50 781 29 
Q 603 109 486 248 
Q 369 388 312 580 
Q 256 772 256 997 
Q 256 1331 376 1714 
Q 497 2097 740 2401 
Q 984 2706 1325 2873 
Q 1666 3041 2050 3041 
Q 2428 3041 2617 2887 
Q 2806 2734 2806 2409 
Q 2806 1878 2307 1612 
Q 1809 1347 828 1347 
Q 791 1159 791 941 
Q 791 613 919 464 
Q 1047 316 1338 316 
Q 1625 316 1859 441 
Q 2094 566 2350 825 
L 2544 622 
z
M 881 1613 
Q 1169 1616 1386 1645 
Q 1603 1675 1759 1726 
Q 1916 1778 2019 1850 
Q 2122 1922 2183 2008 
Q 2244 2094 2267 2189 
Q 2291 2284 2291 2388 
Q 2291 2578 2202 2686 
Q 2113 2794 1938 2794 
Q 1719 2794 1508 2636 
Q 1297 2478 1136 2211 
Q 975 1944 881 1613 
z
" transform="scale(0.015625)"/>
       <path id="Cambria-Italic-6d" d="M 2997 2375 
L 2997 2331 
Q 2997 2309 2994 2284 
Q 3266 2669 3534 2853 
Q 3803 3038 4091 3038 
Q 4388 3038 4542 2870 
Q 4697 2703 4697 2375 
Q 4697 2175 4634 1894 
L 4372 781 
Q 4319 556 4319 425 
Q 4319 331 4350 278 
Q 4381 225 4447 197 
Q 4513 169 4663 153 
L 4634 0 
L 3653 0 
L 4047 1588 
Q 4091 1759 4123 1936 
Q 4156 2113 4156 2256 
Q 4156 2481 4078 2576 
Q 4000 2672 3831 2672 
Q 3709 2672 3557 2572 
Q 3406 2472 3240 2265 
Q 3075 2059 2970 1857 
Q 2866 1656 2803 1366 
L 2519 0 
L 1978 0 
L 2338 1588 
Q 2403 1878 2426 2017 
Q 2450 2156 2450 2256 
Q 2450 2481 2370 2576 
Q 2291 2672 2122 2672 
Q 1997 2672 1845 2570 
Q 1694 2469 1525 2256 
Q 1356 2044 1254 1839 
Q 1153 1634 1097 1353 
L 813 0 
L 272 0 
L 747 2134 
Q 763 2206 789 2347 
Q 816 2488 816 2581 
Q 816 2669 789 2717 
Q 763 2766 698 2789 
Q 634 2813 481 2822 
L 519 2988 
L 1231 3016 
L 1406 3016 
L 1200 2206 
L 1238 2194 
Q 1525 2622 1809 2830 
Q 2094 3038 2384 3038 
Q 2684 3038 2840 2867 
Q 2997 2697 2997 2375 
z
" transform="scale(0.015625)"/>
       <path id="Cambria-Italic-6e" d="M 2947 0 
L 1963 0 
L 2359 1588 
Q 2397 1741 2433 1925 
Q 2469 2109 2469 2256 
Q 2469 2478 2392 2575 
Q 2316 2672 2153 2672 
Q 2022 2672 1870 2570 
Q 1719 2469 1553 2267 
Q 1388 2066 1273 1858 
Q 1159 1650 1097 1353 
L 813 0 
L 272 0 
L 747 2134 
Q 763 2206 789 2347 
Q 816 2488 816 2581 
Q 816 2669 789 2717 
Q 763 2766 698 2789 
Q 634 2813 481 2822 
L 519 2988 
L 1228 3016 
L 1406 3016 
L 1197 2203 
L 1234 2191 
Q 1541 2622 1825 2830 
Q 2109 3038 2394 3038 
Q 2697 3038 2853 2870 
Q 3009 2703 3009 2375 
Q 3009 2263 2989 2130 
Q 2969 1997 2944 1894 
L 2681 781 
Q 2628 556 2628 425 
Q 2628 331 2659 278 
Q 2691 225 2756 197 
Q 2822 169 2972 153 
L 2947 0 
z
" transform="scale(0.015625)"/>
       <path id="Cambria-Italic-74" d="M 2109 575 
Q 1853 266 1603 108 
Q 1353 -50 1072 -50 
Q 741 -50 578 119 
Q 416 288 416 609 
Q 416 806 472 1050 
L 859 2672 
L 394 2672 
L 428 2831 
Q 613 2853 720 2911 
Q 828 2969 901 3064 
Q 975 3159 1037 3312 
Q 1100 3466 1194 3759 
L 1625 3759 
L 1453 2988 
L 2444 2988 
L 2375 2672 
L 1381 2672 
L 1081 1459 
Q 956 953 956 703 
Q 956 513 1039 414 
Q 1122 316 1281 316 
Q 1425 316 1583 427 
Q 1741 538 1928 763 
L 2109 575 
z
" transform="scale(0.015625)"/>
       <path id="Cambria-Italic-20" transform="scale(0.015625)"/>
       <path id="Cambria-Italic-28" d="M 1616 -1359 
Q 1172 -1359 897 -1200 
Q 622 -1041 498 -736 
Q 375 -431 375 28 
Q 375 353 431 747 
Q 506 1253 648 1875 
Q 791 2497 928 2906 
Q 1088 3372 1272 3667 
Q 1456 3963 1675 4134 
Q 1894 4306 2172 4391 
Q 2478 4484 2906 4484 
L 2850 4228 
Q 2575 4228 2397 4165 
Q 2219 4103 2078 3978 
Q 1916 3834 1769 3575 
Q 1597 3266 1438 2766 
Q 1300 2334 1163 1713 
Q 1050 1203 981 797 
Q 888 228 888 -147 
Q 888 -513 977 -722 
Q 1066 -931 1233 -1017 
Q 1400 -1103 1672 -1103 
L 1616 -1359 
z
" transform="scale(0.015625)"/>
       <path id="Cambria-Italic-29" d="M 794 4484 
Q 1238 4484 1513 4325 
Q 1788 4166 1911 3861 
Q 2034 3556 2034 3097 
Q 2034 2778 1978 2394 
Q 1903 1850 1747 1184 
Q 1600 569 1466 178 
Q 1313 -263 1133 -552 
Q 953 -841 733 -1012 
Q 513 -1184 234 -1266 
Q -72 -1359 -497 -1359 
L -441 -1103 
Q -166 -1103 11 -1040 
Q 188 -978 325 -856 
Q 494 -709 644 -441 
Q 819 -125 973 367 
Q 1128 859 1266 1506 
Q 1375 2006 1438 2394 
Q 1522 2922 1522 3272 
Q 1522 3641 1431 3850 
Q 1341 4059 1173 4143 
Q 1006 4228 738 4228 
L 794 4484 
z
" transform="scale(0.015625)"/>
      </defs>
      <use xlink:href="#Cambria-Italic-44"/>
      <use xlink:href="#Cambria-Italic-69" x="64.648438"/>
      <use xlink:href="#Cambria-Italic-73" x="91.748047"/>
      <use xlink:href="#Cambria-Italic-70" x="129.931641"/>
      <use xlink:href="#Cambria-Italic-6c" x="182.617188"/>
      <use xlink:href="#Cambria-Italic-61" x="209.277344"/>
      <use xlink:href="#Cambria-Italic-63" x="261.865234"/>
      <use xlink:href="#Cambria-Italic-65" x="305.175781"/>
      <use xlink:href="#Cambria-Italic-6d" x="350.878906"/>
      <use xlink:href="#Cambria-Italic-65" x="430.761719"/>
      <use xlink:href="#Cambria-Italic-6e" x="476.464844"/>
      <use xlink:href="#Cambria-Italic-74" x="529.980469"/>
      <use xlink:href="#Cambria-Italic-20" x="564.501953"/>
      <use xlink:href="#Cambria-Italic-28" x="586.523438"/>
      <use xlink:href="#Cambria-Italic-6d" x="623.681641"/>
      <use xlink:href="#Cambria-Italic-6d" x="703.564453"/>
      <use xlink:href="#Cambria-Italic-29" x="783.447266"/>
     </g>
    </g>
   </g>
   <g id="matplotlib.axis_2">
    <g id="ytick_1">
     <g id="line2d_15">
      <path d="M 61.991563 346.805731 
L 481.461563 346.805731 
" clip-path="url(#pd4b8325c5e)" style="fill: none; stroke-dasharray: 0.8,1.32; stroke-dashoffset: 0; stroke: #b0b0b0; stroke-width: 0.8"/>
     </g>
     <g id="line2d_16">
      <defs>
       <path id="m8f662f8c57" d="M 0 0 
L -3.5 0 
" style="stroke: #000000; stroke-width: 0.8"/>
      </defs>
      <g>
       <use xlink:href="#m8f662f8c57" x="61.991563" y="346.805731" style="stroke: #000000; stroke-width: 0.8"/>
      </g>
     </g>
     <g id="text_9">
      <!-- −150 -->
      <g transform="translate(23.981563 351.696981) scale(0.14 -0.14)">
       <defs>
        <path id="Cambria-31" d="M 2172 816 
Q 2172 634 2192 542 
Q 2213 450 2264 392 
Q 2316 334 2412 301 
Q 2509 269 2656 251 
Q 2803 234 3044 228 
L 3044 0 
L 734 0 
L 734 228 
Q 1081 244 1229 270 
Q 1378 297 1456 350 
Q 1534 403 1570 500 
Q 1606 597 1606 816 
L 1606 3350 
Q 1606 3475 1562 3533 
Q 1519 3591 1434 3591 
Q 1334 3591 1150 3487 
Q 966 3384 694 3203 
L 556 3444 
L 2019 4316 
L 2191 4316 
Q 2172 4016 2172 3484 
L 2172 816 
z
" transform="scale(0.015625)"/>
       </defs>
       <use xlink:href="#Cambria-2212"/>
       <use xlink:href="#Cambria-31" x="55.371094"/>
       <use xlink:href="#Cambria-35" x="110.742188"/>
       <use xlink:href="#Cambria-30" x="166.113281"/>
      </g>
     </g>
    </g>
    <g id="ytick_2">
     <g id="line2d_17">
      <path d="M 61.991563 297.499393 
L 481.461563 297.499393 
" clip-path="url(#pd4b8325c5e)" style="fill: none; stroke-dasharray: 0.8,1.32; stroke-dashoffset: 0; stroke: #b0b0b0; stroke-width: 0.8"/>
     </g>
     <g id="line2d_18">
      <g>
       <use xlink:href="#m8f662f8c57" x="61.991563" y="297.499393" style="stroke: #000000; stroke-width: 0.8"/>
      </g>
     </g>
     <g id="text_10">
      <!-- −100 -->
      <g transform="translate(23.981563 302.390643) scale(0.14 -0.14)">
       <use xlink:href="#Cambria-2212"/>
       <use xlink:href="#Cambria-31" x="55.371094"/>
       <use xlink:href="#Cambria-30" x="110.742188"/>
       <use xlink:href="#Cambria-30" x="166.113281"/>
      </g>
     </g>
    </g>
    <g id="ytick_3">
     <g id="line2d_19">
      <path d="M 61.991563 248.193055 
L 481.461563 248.193055 
" clip-path="url(#pd4b8325c5e)" style="fill: none; stroke-dasharray: 0.8,1.32; stroke-dashoffset: 0; stroke: #b0b0b0; stroke-width: 0.8"/>
     </g>
     <g id="line2d_20">
      <g>
       <use xlink:href="#m8f662f8c57" x="61.991563" y="248.193055" style="stroke: #000000; stroke-width: 0.8"/>
      </g>
     </g>
     <g id="text_11">
      <!-- −50 -->
      <g transform="translate(31.734063 253.084305) scale(0.14 -0.14)">
       <use xlink:href="#Cambria-2212"/>
       <use xlink:href="#Cambria-35" x="55.371094"/>
       <use xlink:href="#Cambria-30" x="110.742188"/>
      </g>
     </g>
    </g>
    <g id="ytick_4">
     <g id="line2d_21">
      <path d="M 61.991563 198.886717 
L 481.461563 198.886717 
" clip-path="url(#pd4b8325c5e)" style="fill: none; stroke-dasharray: 0.8,1.32; stroke-dashoffset: 0; stroke: #b0b0b0; stroke-width: 0.8"/>
     </g>
     <g id="line2d_22">
      <g>
       <use xlink:href="#m8f662f8c57" x="61.991563" y="198.886717" style="stroke: #000000; stroke-width: 0.8"/>
      </g>
     </g>
     <g id="text_12">
      <!-- 0 -->
      <g transform="translate(47.239063 203.777967) scale(0.14 -0.14)">
       <use xlink:href="#Cambria-30"/>
      </g>
     </g>
    </g>
    <g id="ytick_5">
     <g id="line2d_23">
      <path d="M 61.991563 149.580379 
L 481.461563 149.580379 
" clip-path="url(#pd4b8325c5e)" style="fill: none; stroke-dasharray: 0.8,1.32; stroke-dashoffset: 0; stroke: #b0b0b0; stroke-width: 0.8"/>
     </g>
     <g id="line2d_24">
      <g>
       <use xlink:href="#m8f662f8c57" x="61.991563" y="149.580379" style="stroke: #000000; stroke-width: 0.8"/>
      </g>
     </g>
     <g id="text_13">
      <!-- 50 -->
      <g transform="translate(39.486563 154.471629) scale(0.14 -0.14)">
       <use xlink:href="#Cambria-35"/>
       <use xlink:href="#Cambria-30" x="55.371094"/>
      </g>
     </g>
    </g>
    <g id="ytick_6">
     <g id="line2d_25">
      <path d="M 61.991563 100.274041 
L 481.461563 100.274041 
" clip-path="url(#pd4b8325c5e)" style="fill: none; stroke-dasharray: 0.8,1.32; stroke-dashoffset: 0; stroke: #b0b0b0; stroke-width: 0.8"/>
     </g>
     <g id="line2d_26">
      <g>
       <use xlink:href="#m8f662f8c57" x="61.991563" y="100.274041" style="stroke: #000000; stroke-width: 0.8"/>
      </g>
     </g>
     <g id="text_14">
      <!-- 100 -->
      <g transform="translate(31.734063 105.165291) scale(0.14 -0.14)">
       <use xlink:href="#Cambria-31"/>
       <use xlink:href="#Cambria-30" x="55.371094"/>
       <use xlink:href="#Cambria-30" x="110.742188"/>
      </g>
     </g>
    </g>
    <g id="ytick_7">
     <g id="line2d_27">
      <path d="M 61.991563 50.967703 
L 481.461563 50.967703 
" clip-path="url(#pd4b8325c5e)" style="fill: none; stroke-dasharray: 0.8,1.32; stroke-dashoffset: 0; stroke: #b0b0b0; stroke-width: 0.8"/>
     </g>
     <g id="line2d_28">
      <g>
       <use xlink:href="#m8f662f8c57" x="61.991563" y="50.967703" style="stroke: #000000; stroke-width: 0.8"/>
      </g>
     </g>
     <g id="text_15">
      <!-- 150 -->
      <g transform="translate(31.734063 55.858953) scale(0.14 -0.14)">
       <use xlink:href="#Cambria-31"/>
       <use xlink:href="#Cambria-35" x="55.371094"/>
       <use xlink:href="#Cambria-30" x="110.742188"/>
      </g>
     </g>
    </g>
    <g id="text_16">
     <!-- Base Shear (kN) -->
     <g transform="translate(17.00875 245.760625) rotate(-90) scale(0.14 -0.14)">
      <defs>
       <path id="Cambria-Italic-42" d="M 2797 2184 
Q 3088 2069 3244 1855 
Q 3400 1641 3400 1369 
Q 3400 1047 3283 792 
Q 3166 538 2912 347 
Q 2659 156 2331 78 
Q 2003 0 1522 0 
L 131 0 
L 166 153 
Q 284 172 343 214 
Q 403 256 443 331 
Q 484 406 518 514 
Q 553 622 622 931 
L 1153 3338 
Q 1222 3650 1222 3831 
Q 1222 3984 1150 4043 
Q 1078 4103 916 4113 
L 950 4266 
L 2497 4266 
Q 2966 4266 3248 4167 
Q 3531 4069 3664 3878 
Q 3797 3688 3797 3400 
Q 3797 2991 3547 2686 
Q 3297 2381 2803 2219 
L 2797 2184 
z
M 1934 2353 
Q 2259 2353 2457 2397 
Q 2656 2441 2781 2528 
Q 2906 2616 3004 2733 
Q 3103 2850 3161 3009 
Q 3219 3169 3219 3384 
Q 3219 3519 3172 3636 
Q 3125 3753 3011 3836 
Q 2897 3919 2748 3955 
Q 2600 3991 2353 3991 
Q 2081 3991 1847 3981 
L 1494 2353 
L 1934 2353 
z
M 1041 288 
Q 1284 275 1497 275 
Q 1969 275 2226 394 
Q 2484 513 2643 781 
Q 2803 1050 2803 1425 
Q 2803 1628 2723 1768 
Q 2644 1909 2470 1993 
Q 2297 2078 1994 2078 
L 1428 2078 
L 1041 288 
z
" transform="scale(0.015625)"/>
       <path id="Cambria-Italic-53" d="M 497 972 
Q 497 594 672 408 
Q 847 222 1219 222 
Q 1506 222 1712 328 
Q 1919 434 2025 629 
Q 2131 825 2131 1094 
Q 2131 1284 2064 1429 
Q 1997 1575 1861 1708 
Q 1725 1841 1469 2013 
Q 1238 2169 1084 2320 
Q 931 2472 840 2659 
Q 750 2847 750 3078 
Q 750 3447 928 3728 
Q 1106 4009 1431 4162 
Q 1756 4316 2181 4316 
Q 2469 4316 2714 4277 
Q 2959 4238 3256 4144 
L 3081 3341 
L 2781 3341 
Q 2769 3606 2700 3757 
Q 2631 3909 2503 3975 
Q 2375 4041 2163 4041 
Q 1903 4041 1706 3934 
Q 1509 3828 1406 3645 
Q 1303 3463 1303 3238 
Q 1303 3075 1359 2947 
Q 1416 2819 1539 2695 
Q 1663 2572 1900 2409 
Q 2206 2197 2367 2030 
Q 2528 1863 2604 1675 
Q 2681 1488 2681 1241 
Q 2681 863 2498 567 
Q 2316 272 1983 111 
Q 1650 -50 1225 -50 
Q 934 -50 607 -6 
Q 281 38 9 113 
L 197 972 
L 497 972 
z
" transform="scale(0.015625)"/>
       <path id="Cambria-Italic-68" d="M 2916 0 
L 1934 0 
L 2328 1588 
Q 2372 1759 2405 1936 
Q 2438 2113 2438 2256 
Q 2438 2481 2363 2576 
Q 2288 2672 2109 2672 
Q 1981 2672 1826 2565 
Q 1672 2459 1500 2242 
Q 1328 2025 1226 1826 
Q 1125 1628 1066 1353 
L 781 0 
L 241 0 
L 1044 3572 
Q 1078 3728 1092 3798 
Q 1106 3869 1112 3928 
Q 1119 3988 1119 4034 
Q 1119 4166 1039 4219 
Q 959 4272 753 4278 
L 791 4441 
L 1581 4469 
L 1763 4469 
L 1225 2303 
L 1263 2291 
Q 1556 2681 1822 2859 
Q 2088 3038 2363 3038 
Q 2666 3038 2822 2870 
Q 2978 2703 2978 2375 
Q 2978 2175 2916 1894 
L 2653 781 
Q 2622 647 2609 565 
Q 2597 484 2597 425 
Q 2597 328 2630 275 
Q 2663 222 2730 195 
Q 2797 169 2944 153 
L 2916 0 
z
" transform="scale(0.015625)"/>
       <path id="Cambria-Italic-72" d="M 1244 3016 
L 1431 3016 
L 1213 2247 
L 1250 2234 
Q 1547 2644 1830 2841 
Q 2113 3038 2413 3038 
Q 2641 3038 2794 3003 
L 2644 2303 
L 2322 2303 
Q 2297 2466 2244 2550 
Q 2191 2634 2078 2634 
Q 1956 2634 1797 2509 
Q 1638 2384 1472 2165 
Q 1306 1947 1223 1762 
Q 1141 1578 1097 1353 
L 813 0 
L 272 0 
L 747 2134 
Q 813 2428 813 2581 
Q 813 2669 784 2717 
Q 756 2766 693 2789 
Q 631 2813 481 2822 
L 516 2988 
L 1244 3016 
z
" transform="scale(0.015625)"/>
       <path id="Cambria-Italic-6b" d="M 1150 1741 
L 1250 1741 
Q 1347 1741 1459 1778 
Q 1572 1816 1700 1895 
Q 1828 1975 2044 2147 
Q 2206 2278 2284 2370 
Q 2363 2463 2391 2531 
Q 2419 2600 2419 2663 
Q 2419 2816 2206 2834 
L 2241 2988 
L 3253 2988 
L 3313 2834 
Q 3053 2600 2763 2375 
L 1972 1759 
L 2441 575 
Q 2503 416 2568 330 
Q 2634 244 2720 203 
Q 2806 163 2941 153 
L 2906 0 
L 2072 0 
L 1616 1284 
Q 1572 1406 1540 1450 
Q 1509 1494 1468 1512 
Q 1428 1531 1338 1531 
L 1106 1531 
L 781 0 
L 241 0 
L 1044 3572 
Q 1078 3728 1092 3798 
Q 1106 3869 1112 3928 
Q 1119 3988 1119 4034 
Q 1119 4166 1039 4219 
Q 959 4272 753 4278 
L 791 4441 
L 1581 4469 
L 1763 4469 
L 1150 1741 
z
" transform="scale(0.015625)"/>
       <path id="Cambria-Italic-4e" d="M 4463 4266 
L 4428 4113 
Q 4309 4088 4257 4056 
Q 4206 4025 4164 3962 
Q 4122 3900 4080 3767 
Q 4038 3634 3972 3334 
L 3238 0 
L 2813 0 
L 1900 2681 
Q 1734 3163 1609 3641 
L 1569 3641 
Q 1550 3481 1465 3032 
Q 1381 2584 1288 2156 
L 1013 909 
Q 984 778 965 656 
Q 947 534 947 422 
Q 947 281 1017 223 
Q 1088 166 1253 153 
L 1219 0 
L 125 0 
L 159 153 
Q 278 172 337 214 
Q 397 256 437 331 
Q 478 406 512 514 
Q 547 622 616 931 
L 1147 3338 
Q 1178 3472 1197 3594 
Q 1216 3716 1216 3841 
Q 1216 3988 1141 4045 
Q 1066 4103 909 4113 
L 944 4266 
L 1941 4266 
L 2766 1831 
Q 2944 1306 3041 944 
L 3075 944 
Q 3100 1134 3189 1578 
Q 3278 2022 3353 2353 
L 3572 3338 
Q 3594 3441 3617 3581 
Q 3641 3722 3641 3841 
Q 3641 3988 3566 4045 
Q 3491 4103 3334 4113 
L 3369 4266 
L 4463 4266 
z
" transform="scale(0.015625)"/>
      </defs>
      <use xlink:href="#Cambria-Italic-42"/>
      <use xlink:href="#Cambria-Italic-61" x="59.619141"/>
      <use xlink:href="#Cambria-Italic-73" x="112.207031"/>
      <use xlink:href="#Cambria-Italic-65" x="150.390625"/>
      <use xlink:href="#Cambria-Italic-20" x="196.09375"/>
      <use xlink:href="#Cambria-Italic-53" x="218.115234"/>
      <use xlink:href="#Cambria-Italic-68" x="266.259766"/>
      <use xlink:href="#Cambria-Italic-65" x="319.287109"/>
      <use xlink:href="#Cambria-Italic-61" x="364.990234"/>
      <use xlink:href="#Cambria-Italic-72" x="417.578125"/>
      <use xlink:href="#Cambria-Italic-20" x="458.300781"/>
      <use xlink:href="#Cambria-Italic-28" x="480.322266"/>
      <use xlink:href="#Cambria-Italic-6b" x="517.480469"/>
      <use xlink:href="#Cambria-Italic-4e" x="567.1875"/>
      <use xlink:href="#Cambria-Italic-29" x="634.277344"/>
     </g>
    </g>
   </g>
   <g id="line2d_29">
    <path d="M 271.726562 198.886717 
L 273.969718 163.952585 
L 276.212873 138.00976 
L 278.456028 124.98697 
L 280.699183 115.422625 
L 278.456028 138.577078 
L 276.212873 153.086849 
L 273.969718 173.426699 
L 269.483407 236.76 
L 267.240252 259.115888 
L 264.997097 271.731802 
L 262.753942 280.912741 
L 264.997097 258.020795 
L 267.240252 241.533445 
L 269.483407 217.839876 
L 271.726562 189.870057 
L 273.969718 164.537851 
L 276.212873 147.268011 
L 278.456028 132.537742 
L 280.699183 120.687851 
L 278.456028 141.275121 
L 276.212873 157.24929 
L 273.969718 180.91791 
L 271.726562 208.878351 
L 269.483407 233.101766 
L 267.240252 249.893236 
L 264.997097 264.208148 
L 262.753942 277.456466 
L 264.997097 256.63223 
L 267.240252 240.511029 
L 269.483407 216.96104 
L 271.726562 189.238068 
L 273.969718 165.310876 
L 276.212873 149.456719 
L 280.699183 122.496605 
L 282.942338 112.812249 
L 285.185493 106.109348 
L 287.428648 100.603309 
L 289.671803 96.169782 
L 291.914958 92.336707 
L 289.671803 108.662923 
L 287.428648 120.712504 
L 282.942338 139.188773 
L 280.699183 149.454845 
L 278.456028 161.766835 
L 276.212873 177.625824 
L 273.969718 197.681749 
L 271.726562 220.107968 
L 269.483407 238.252109 
L 267.240252 253.171911 
L 264.997097 265.891368 
L 262.753942 276.252898 
L 260.510787 283.973975 
L 258.267632 290.51377 
L 256.024477 295.455153 
L 253.781322 299.693525 
L 251.538167 303.482224 
L 253.781322 287.814347 
L 256.024477 276.189194 
L 260.510787 257.683243 
L 262.753942 247.1521 
L 264.997097 234.407398 
L 267.240252 218.355325 
L 269.483407 198.657633 
L 271.726562 177.457098 
L 273.969718 160.992134 
L 276.212873 148.834769 
L 278.456028 139.239657 
L 280.699183 130.87385 
L 282.942338 123.327614 
L 285.185493 116.444745 
L 287.428648 110.144184 
L 289.671803 104.293987 
L 291.914958 98.83331 
L 289.671803 113.37513 
L 287.428648 124.723871 
L 282.942338 143.150537 
L 280.699183 153.497965 
L 278.456028 165.884112 
L 276.212873 181.539071 
L 273.969718 200.614461 
L 271.726562 220.682683 
L 269.483407 236.171973 
L 267.240252 247.325067 
L 264.997097 256.315781 
L 262.753942 264.381608 
L 260.510787 271.922815 
L 256.024477 285.856885 
L 251.538167 298.316892 
L 253.781322 283.675573 
L 256.024477 272.504926 
L 260.510787 253.870187 
L 262.753942 243.361724 
L 264.997097 230.898561 
L 267.240252 215.365783 
L 271.726562 177.21599 
L 273.969718 162.249643 
L 276.212873 151.505397 
L 278.456028 142.676111 
L 280.699183 134.736608 
L 282.942338 127.327048 
L 287.428648 113.637735 
L 291.914958 101.306516 
L 294.158113 96.202324 
L 296.401268 92.217386 
L 298.644423 88.754108 
L 300.887579 85.611322 
L 303.130734 82.779166 
L 305.373889 80.198473 
L 307.617044 77.81599 
L 309.860199 75.656373 
L 307.617044 88.523355 
L 305.373889 99.135065 
L 303.130734 108.403473 
L 300.887579 116.464172 
L 294.158113 138.323841 
L 282.942338 174.191638 
L 280.699183 182.00758 
L 278.456028 191.148462 
L 276.212873 202.913171 
L 271.726562 231.03583 
L 269.483407 243.301768 
L 267.240252 252.915814 
L 264.997097 260.893086 
L 262.753942 268.040533 
L 260.510787 274.648963 
L 258.267632 280.769556 
L 256.024477 286.462564 
L 253.781322 291.773843 
L 251.538167 296.788297 
L 249.295012 301.230897 
L 247.051857 305.025513 
L 244.808702 308.319176 
L 242.565546 311.27657 
L 240.322391 313.950946 
L 238.079236 316.411332 
L 235.836081 318.666604 
L 233.592926 320.722679 
L 235.836081 308.151535 
L 238.079236 297.801148 
L 240.322391 288.745546 
L 242.565546 280.78987 
L 249.295012 258.978028 
L 260.510787 222.889832 
L 262.753942 214.897274 
L 264.997097 205.61649 
L 267.240252 194.30964 
L 271.726562 169.794499 
L 273.969718 159.632857 
L 276.212873 151.537249 
L 278.456028 144.43477 
L 280.699183 137.975344 
L 282.942338 131.991921 
L 285.185493 126.403836 
L 287.428648 121.180717 
L 289.671803 116.281245 
L 291.914958 111.718831 
L 294.158113 107.422967 
L 296.401268 103.385666 
L 300.887579 95.999182 
L 305.373889 89.397063 
L 309.860199 83.44283 
L 307.617044 95.173794 
L 305.373889 105.209014 
L 303.130734 114.109794 
L 300.887579 122.071289 
L 294.158113 143.879778 
L 287.428648 164.831224 
L 282.942338 178.566589 
L 280.699183 185.780501 
L 278.456028 193.992856 
L 276.212873 204.090824 
L 271.726562 227.271193 
L 269.483407 237.140054 
L 267.240252 244.865173 
L 264.997097 251.72122 
L 262.753942 258.010144 
L 260.510787 263.887559 
L 256.024477 274.650146 
L 251.538167 284.268038 
L 247.051857 292.901577 
L 242.565546 300.667819 
L 238.079236 307.646638 
L 233.592926 313.953904 
L 235.836081 302.193357 
L 238.079236 292.143147 
L 240.322391 283.299464 
L 242.565546 275.436681 
L 249.295012 253.447139 
L 256.024477 232.375286 
L 260.510787 218.412717 
L 262.753942 210.948132 
L 264.997097 202.426557 
L 267.240252 192.319981 
L 271.726562 170.827269 
L 273.969718 161.721868 
L 276.212873 154.312506 
L 278.456028 147.608816 
L 280.699183 141.412784 
L 282.942338 135.609527 
L 285.185493 130.132875 
L 289.671803 120.050025 
L 294.158113 111.005368 
L 298.644423 102.853749 
L 303.130734 95.487382 
L 307.617044 88.854693 
L 309.860199 85.748394 
L 312.103354 82.904404 
L 314.346509 80.464727 
L 316.589664 78.32286 
L 321.075974 74.581495 
L 325.562284 71.362777 
L 330.048595 68.589788 
L 327.80544 79.876995 
L 325.562284 89.633733 
L 323.319129 98.47436 
L 321.075974 106.516224 
L 318.832819 113.824409 
L 314.346509 127.322512 
L 309.860199 140.014654 
L 305.373889 151.836539 
L 300.887579 162.756315 
L 296.401268 172.792324 
L 291.914958 182.01685 
L 285.185493 194.896336 
L 282.942338 199.156439 
L 280.699183 203.780588 
L 278.456028 209.474662 
L 276.212873 216.264736 
L 273.969718 224.435684 
L 271.726562 233.430442 
L 269.483407 241.611251 
L 267.240252 248.461676 
L 264.997097 254.730583 
L 262.753942 260.537587 
L 260.510787 265.997081 
L 258.267632 271.133618 
L 253.781322 280.575486 
L 249.295012 288.99336 
L 244.808702 296.513267 
L 240.322391 303.244568 
L 235.836081 309.259941 
L 233.592926 312.053638 
L 231.349771 314.61954 
L 229.106616 316.911299 
L 226.863461 318.969345 
L 224.620306 320.846931 
L 220.133996 324.148483 
L 215.647685 327.034876 
L 213.40453 328.36023 
L 215.647685 317.156844 
L 217.890841 307.480968 
L 220.133996 298.712329 
L 222.377151 290.730028 
L 224.620306 283.465133 
L 229.106616 270.026296 
L 233.592926 257.369359 
L 238.079236 245.579524 
L 242.565546 234.686176 
L 247.051857 224.65776 
L 251.538167 215.44842 
L 256.024477 206.860025 
L 260.510787 198.553878 
L 262.753942 194.151968 
L 264.997097 189.31688 
L 267.240252 183.43559 
L 269.483407 176.312008 
L 271.726562 168.642012 
L 273.969718 161.495157 
L 276.212873 155.111466 
L 278.456028 149.161275 
L 280.699183 143.569049 
L 282.942338 138.291397 
L 287.428648 128.568385 
L 291.914958 119.821144 
L 296.401268 111.962207 
L 300.887579 104.901441 
L 305.373889 98.544375 
L 309.860199 92.830756 
L 314.346509 87.72262 
L 318.832819 83.1677 
L 323.319129 79.075274 
L 327.80544 75.385188 
L 330.048595 73.639744 
L 327.80544 84.16073 
L 325.562284 93.590074 
L 323.319129 102.195904 
L 321.075974 110.077818 
L 318.832819 117.325751 
L 314.346509 130.69408 
L 309.860199 143.207239 
L 305.373889 154.779634 
L 300.887579 165.362451 
L 296.401268 174.99543 
L 291.914958 183.769986 
L 287.428648 191.870968 
L 280.699183 203.696856 
L 278.456028 208.318872 
L 276.212873 213.999899 
L 273.969718 220.950416 
L 271.726562 228.482551 
L 269.483407 235.5445 
L 267.240252 241.855613 
L 264.997097 247.683721 
L 260.510787 258.407159 
L 256.024477 268.065876 
L 251.538167 276.812623 
L 247.051857 284.733292 
L 242.565546 291.898884 
L 238.079236 298.39381 
L 233.592926 304.249431 
L 229.106616 309.507459 
L 224.620306 314.205367 
L 220.133996 318.439795 
L 215.647685 322.262022 
L 213.40453 324.08044 
L 215.647685 313.577204 
L 217.890841 304.022622 
L 220.133996 295.357427 
L 222.377151 287.478275 
L 224.620306 280.29868 
L 229.106616 266.890117 
L 233.592926 254.350628 
L 238.079236 242.759102 
L 242.565546 232.139503 
L 247.051857 222.443116 
L 251.538167 213.586613 
L 256.024477 205.357168 
L 260.510787 197.33198 
L 262.753942 193.06925 
L 264.997097 188.490673 
L 267.240252 182.765221 
L 269.483407 175.924854 
L 271.726562 168.638561 
L 273.969718 161.834878 
L 276.212873 155.723752 
L 278.456028 150.007964 
L 282.942338 139.46617 
L 287.428648 129.903009 
L 291.914958 121.211386 
L 296.401268 113.372073 
L 300.887579 106.281821 
L 305.373889 99.87466 
L 309.860199 94.099902 
L 314.346509 88.919778 
L 318.832819 84.286954 
L 323.319129 80.127472 
L 327.80544 76.372301 
L 332.29175 72.94058 
L 334.534905 71.393347 
L 339.021215 68.691359 
L 343.507525 66.356211 
L 350.23699 63.225259 
L 347.993835 73.555923 
L 345.75068 82.768319 
L 343.507525 91.278593 
L 341.26437 99.169579 
L 339.021215 106.473426 
L 336.77806 113.264881 
L 332.29175 125.892234 
L 327.80544 137.60811 
L 323.319129 148.350285 
L 318.832819 158.096373 
L 314.346509 166.866886 
L 309.860199 174.733317 
L 305.373889 181.783236 
L 300.887579 188.132216 
L 296.401268 193.891995 
L 291.914958 199.160467 
L 280.699183 211.557164 
L 278.456028 214.803987 
L 276.212873 219.326857 
L 273.969718 225.15388 
L 269.483407 238.211677 
L 267.240252 244.097276 
L 262.753942 254.831759 
L 258.267632 264.581693 
L 253.781322 273.432279 
L 249.295012 281.448603 
L 244.808702 288.703438 
L 240.322391 295.256941 
L 235.836081 301.183563 
L 231.349771 306.505689 
L 226.863461 311.272626 
L 222.377151 315.545513 
L 217.890841 319.39338 
L 213.40453 322.897088 
L 208.91822 326.063541 
L 204.43191 328.741861 
L 199.9456 331.039537 
L 195.45929 333.110403 
L 197.702445 322.64957 
L 199.9456 313.390826 
L 202.188755 304.861816 
L 204.43191 296.976056 
L 206.675065 289.705541 
L 211.161375 276.514912 
L 215.647685 264.329245 
L 220.133996 253.101994 
L 224.620306 242.860969 
L 229.106616 233.600943 
L 233.592926 225.273201 
L 238.079236 217.805756 
L 242.565546 211.086979 
L 247.051857 205.016166 
L 251.538167 199.489498 
L 256.024477 194.321976 
L 262.753942 186.823231 
L 264.997097 183.406204 
L 267.240252 178.985003 
L 269.483407 173.596215 
L 273.969718 161.88734 
L 278.456028 151.232536 
L 282.942338 141.38961 
L 287.428648 132.365466 
L 291.914958 124.115727 
L 296.401268 116.612485 
L 300.887579 109.791545 
L 305.373889 103.595316 
L 309.860199 97.972421 
L 314.346509 92.888938 
L 318.832819 88.305421 
L 323.319129 84.180452 
L 327.80544 80.450921 
L 332.29175 77.076395 
L 336.77806 74.002638 
L 341.26437 71.182316 
L 345.75068 68.581899 
L 350.23699 66.150111 
L 347.993835 75.949252 
L 345.75068 84.964423 
L 343.507525 93.324806 
L 341.26437 101.099429 
L 339.021215 108.318863 
L 334.534905 121.478429 
L 330.048595 133.467561 
L 325.562284 144.533382 
L 321.075974 154.624516 
L 316.589664 163.724494 
L 312.103354 171.874634 
L 307.617044 179.165365 
L 303.130734 185.689876 
L 298.644423 191.572852 
L 294.158113 196.920499 
L 289.671803 201.842455 
L 285.185493 206.460289 
L 282.942338 208.647351 
L 280.699183 211.125734 
L 278.456028 214.301654 
L 276.212873 218.535194 
L 273.969718 223.839176 
L 269.483407 235.699322 
L 267.240252 241.256837 
L 262.753942 251.536913 
L 258.267632 260.992882 
L 253.781322 269.642003 
L 249.295012 277.529538 
L 244.808702 284.700158 
L 240.322391 291.221217 
L 235.836081 297.149417 
L 231.349771 302.513848 
L 226.863461 307.356716 
L 222.377151 311.711452 
L 217.890841 315.639195 
L 213.40453 319.193196 
L 208.91822 322.425719 
L 204.43191 325.385086 
L 199.9456 328.108768 
L 195.45929 330.648044 
L 197.702445 320.674358 
L 199.9456 311.597062 
L 202.188755 303.201178 
L 204.43191 295.413439 
L 206.675065 288.206529 
L 211.161375 275.066094 
L 215.647685 263.058127 
L 220.133996 251.998025 
L 224.620306 241.93115 
L 229.106616 232.842809 
L 233.592926 224.692964 
L 238.079236 217.402135 
L 242.565546 210.858 
L 247.051857 204.933617 
L 251.538167 199.513407 
L 256.024477 194.469727 
L 260.510787 189.814065 
L 262.753942 187.235925 
L 264.997097 183.986638 
L 267.240252 179.746293 
L 269.483407 174.49497 
L 273.969718 162.904727 
L 278.456028 152.40011 
L 282.942338 142.674731 
L 287.428648 133.70719 
L 291.914958 125.469383 
L 296.401268 117.961014 
L 300.887579 111.118576 
L 305.373889 104.880141 
L 309.860199 99.20508 
L 314.346509 94.05454 
L 318.832819 89.398049 
L 323.319129 85.204052 
L 327.80544 81.412395 
L 332.29175 77.979687 
L 336.77806 74.85761 
L 341.26437 71.991926 
L 345.75068 69.351078 
L 352.480145 65.723118 
L 356.966456 63.538847 
L 361.452766 61.613928 
L 368.182231 59.066762 
L 377.154851 56.030478 
L 383.884317 53.977362 
L 392.856937 51.482461 
L 395.100092 50.891771 
L 392.856937 60.457201 
L 390.613782 69.194284 
L 388.370627 77.397873 
L 386.127472 85.121217 
L 383.884317 92.382069 
L 381.641161 99.19226 
L 377.154851 111.71183 
L 372.668541 123.11392 
L 368.182231 133.519135 
L 363.695921 142.959228 
L 359.209611 151.480646 
L 354.7233 159.136342 
L 350.23699 165.988148 
L 345.75068 172.111995 
L 341.26437 177.582139 
L 336.77806 182.475793 
L 332.29175 186.871946 
L 327.80544 190.840574 
L 323.319129 194.436298 
L 318.832819 197.704765 
L 314.346509 200.695333 
L 309.860199 203.460896 
L 303.130734 207.281516 
L 296.401268 210.79124 
L 285.185493 216.432575 
L 282.942338 217.845596 
L 280.699183 219.689259 
L 278.456028 222.241256 
L 276.212873 225.708872 
L 273.969718 230.060255 
L 264.997097 249.626292 
L 260.510787 258.570955 
L 256.024477 266.897513 
L 251.538167 274.587921 
L 247.051857 281.639615 
L 242.565546 288.102 
L 238.079236 294.01097 
L 233.592926 299.406563 
L 229.106616 304.313529 
L 224.620306 308.760961 
L 220.133996 312.780414 
L 215.647685 316.426124 
L 211.161375 319.738524 
L 206.675065 322.760016 
L 202.188755 325.536949 
L 197.702445 328.100879 
L 193.216135 330.507028 
L 188.729825 332.70116 
L 184.243514 334.658622 
L 177.514049 337.284678 
L 170.784584 339.669132 
L 164.055119 341.826777 
L 155.082498 344.440013 
L 148.353033 346.261389 
L 150.596188 336.697932 
L 152.839343 327.990433 
L 155.082498 319.820373 
L 157.325653 312.132528 
L 159.568808 304.90915 
L 161.811964 298.131501 
L 166.298274 285.664196 
L 170.784584 274.267627 
L 175.270894 263.852157 
L 179.757204 254.407034 
L 184.243514 245.884631 
L 188.729825 238.230118 
L 193.216135 231.375452 
L 197.702445 225.249436 
L 202.188755 219.783532 
L 206.675065 214.894513 
L 211.161375 210.505953 
L 215.647685 206.552798 
L 220.133996 202.983039 
L 224.620306 199.744598 
L 229.106616 196.782776 
L 233.592926 194.050022 
L 238.079236 191.523782 
L 242.565546 189.214411 
L 253.781322 183.748094 
L 258.267632 181.258419 
L 260.510787 179.696099 
L 262.753942 177.684696 
L 264.997097 175.070869 
L 267.240252 171.802647 
L 269.483407 167.954583 
L 285.185493 138.493849 
L 289.671803 130.827305 
L 294.158113 123.69327 
L 298.644423 117.109592 
L 303.130734 111.04935 
L 307.617044 105.484538 
L 312.103354 100.385474 
L 316.589664 95.715177 
L 321.075974 91.449193 
L 325.562284 87.557937 
L 330.048595 84.018728 
L 334.534905 80.78719 
L 339.021215 77.825852 
L 343.507525 75.098225 
L 347.993835 72.575713 
L 354.7233 69.124269 
L 361.452766 66.011067 
L 368.182231 63.171022 
L 374.911696 60.553841 
L 383.884317 57.349916 
L 392.856937 54.390549 
L 395.100092 53.689413 
L 392.856937 62.834753 
L 390.613782 71.37461 
L 388.370627 79.418446 
L 386.127472 87.011622 
L 383.884317 94.16893 
L 381.641161 100.899344 
L 377.154851 113.313004 
L 372.668541 124.589659 
L 368.182231 134.856422 
L 363.695921 144.153921 
L 359.209611 152.544085 
L 354.7233 160.08115 
L 350.23699 166.824285 
L 345.75068 172.848829 
L 341.26437 178.231208 
L 336.77806 183.041731 
L 332.29175 187.354458 
L 327.80544 191.242223 
L 323.319129 194.762193 
L 318.832819 197.960445 
L 314.346509 200.880833 
L 309.860199 203.568541 
L 305.373889 206.061667 
L 300.887579 208.35807 
L 287.428648 214.825879 
L 285.185493 216.068793 
L 282.942338 217.521653 
L 280.699183 219.380206 
L 278.456028 221.828463 
L 276.212873 224.960698 
L 273.969718 228.72711 
L 269.483407 237.307202 
L 262.753942 250.175663 
L 258.267632 258.365742 
L 253.781322 266.070449 
L 249.295012 273.223122 
L 244.808702 279.84309 
L 240.322391 285.937846 
L 235.836081 291.543089 
L 231.349771 296.692643 
L 226.863461 301.420233 
L 222.377151 305.744399 
L 217.890841 309.690878 
L 213.40453 313.276435 
L 208.91822 316.551362 
L 204.43191 319.550174 
L 199.9456 322.313301 
L 195.45929 324.868355 
L 190.97298 327.239004 
L 184.243514 330.500125 
L 177.514049 333.469353 
L 170.784584 336.197966 
L 164.055119 338.727381 
L 155.082498 341.851431 
L 148.353033 344.039646 
L 150.596188 334.890362 
L 152.839343 326.296267 
L 155.082498 318.214958 
L 157.325653 310.598115 
L 159.568808 303.432918 
L 161.811964 296.705068 
L 166.298274 284.295945 
L 170.784584 273.020177 
L 175.270894 262.748089 
L 179.757204 253.451773 
L 184.243514 245.0765 
L 188.729825 237.551071 
L 193.216135 230.806359 
L 197.702445 224.772052 
L 202.188755 219.380404 
L 206.675065 214.559526 
L 211.161375 210.236839 
L 215.647685 206.340159 
L 220.133996 202.814707 
L 224.620306 199.612806 
L 229.106616 196.688069 
L 233.592926 193.996672 
L 238.079236 191.516337 
L 242.565546 189.232162 
L 253.781322 183.7903 
L 258.267632 181.316601 
L 260.510787 179.768086 
L 262.753942 177.777589 
L 264.997097 175.198671 
L 267.240252 171.968119 
L 269.483407 168.162755 
L 285.185493 139.134832 
L 289.671803 131.558913 
L 294.158113 124.500908 
L 298.644423 117.949673 
L 303.130734 111.912112 
L 307.617044 106.355781 
L 312.103354 101.24222 
L 316.589664 96.545496 
L 321.075974 92.244011 
L 325.562284 88.316268 
L 330.048595 84.746489 
L 334.534905 81.483396 
L 339.021215 78.491487 
L 343.507525 75.736249 
L 347.993835 73.188097 
L 350.23699 71.984037 
L 347.993835 80.856219 
L 345.75068 89.052905 
L 343.507525 96.797944 
L 341.26437 104.125655 
L 339.021215 111.050928 
L 334.534905 123.842471 
L 330.048595 135.398299 
L 325.562284 145.833689 
L 321.075974 155.231379 
L 316.589664 163.661776 
L 312.103354 171.201307 
L 307.617044 177.992565 
L 303.130734 184.104776 
L 298.644423 189.610696 
L 294.158113 194.62235 
L 289.671803 199.240495 
L 282.942338 205.679868 
L 280.699183 207.777084 
L 278.456028 210.159625 
L 276.212873 213.399939 
L 273.969718 217.768777 
L 264.997097 238.221539 
L 260.510787 247.596744 
L 256.024477 256.368243 
L 251.538167 264.487715 
L 247.051857 271.979715 
L 242.565546 278.847693 
L 238.079236 285.137407 
L 233.592926 290.909503 
L 229.106616 296.211019 
L 224.620306 301.071144 
L 220.133996 305.510687 
L 215.647685 309.531126 
L 211.161375 313.17585 
L 206.675065 316.498112 
L 202.188755 319.534396 
L 197.702445 322.326121 
L 195.45929 323.638655 
L 197.702445 314.860155 
L 199.9456 306.697984 
L 202.188755 298.958861 
L 204.43191 291.623754 
L 206.675065 284.684183 
L 211.161375 271.866507 
L 215.647685 260.28859 
L 220.133996 249.844916 
L 224.620306 240.32051 
L 229.106616 231.720695 
L 233.592926 223.987982 
L 238.079236 217.02997 
L 242.565546 210.738087 
L 247.051857 204.975833 
L 253.781322 196.949195 
L 258.267632 191.534531 
L 260.510787 188.538106 
L 262.753942 185.213084 
L 264.997097 181.306345 
L 267.240252 176.678551 
L 273.969718 161.114907 
L 278.456028 151.727374 
L 282.942338 142.926489 
L 287.428648 134.713532 
L 291.914958 127.099056 
L 296.401268 120.078524 
L 300.887579 113.631818 
L 305.373889 107.719989 
L 309.860199 102.288304 
L 314.346509 97.306786 
L 318.832819 92.743977 
L 323.319129 88.588439 
L 327.80544 84.832282 
L 332.29175 81.419298 
L 336.77806 78.305109 
L 341.26437 75.451258 
L 345.75068 72.820272 
L 350.23699 70.387497 
L 347.993835 79.128525 
L 345.75068 87.335072 
L 343.507525 95.092931 
L 341.26437 102.435631 
L 339.021215 109.375794 
L 334.534905 122.192089 
L 330.048595 133.820989 
L 325.562284 144.358345 
L 321.075974 153.868157 
L 316.589664 162.422412 
L 312.103354 170.10858 
L 307.617044 177.057618 
L 303.130734 183.346444 
L 298.644423 189.050754 
L 294.158113 194.283152 
L 289.671803 199.186456 
L 280.699183 208.62539 
L 278.456028 211.410527 
L 276.212873 215.358091 
L 273.969718 220.563361 
L 269.483407 232.375483 
L 267.240252 237.632229 
L 262.753942 247.395772 
L 258.267632 256.442302 
L 253.781322 264.785526 
L 249.295012 272.456803 
L 244.808702 279.45495 
L 240.322391 285.837557 
L 235.836081 291.675131 
L 231.349771 297.025461 
L 226.863461 301.924144 
L 222.377151 306.395243 
L 217.890841 310.43639 
L 213.40453 314.081115 
L 208.91822 317.392528 
L 204.43191 320.403173 
L 199.9456 323.164328 
L 195.45929 325.708535 
L 197.702445 316.940882 
L 202.188755 301.044519 
L 204.43191 293.702016 
L 208.91822 280.153325 
L 213.40453 267.900897 
L 217.890841 256.798589 
L 222.377151 246.706075 
L 226.863461 237.500384 
L 231.349771 229.176685 
L 235.836081 221.657272 
L 240.322391 214.847968 
L 244.808702 208.631602 
L 249.295012 202.869851 
L 258.267632 191.828574 
L 260.510787 188.799331 
L 262.753942 185.456164 
L 264.997097 181.450123 
L 267.240252 176.680425 
L 273.969718 160.734065 
L 278.456028 151.253935 
L 282.942338 142.417154 
L 287.428648 134.183588 
L 291.914958 126.563983 
L 296.401268 119.550058 
L 300.887579 113.116863 
L 305.373889 107.222093 
L 309.860199 101.808849 
L 314.346509 96.846265 
L 318.832819 92.304165 
L 323.319129 88.171307 
L 327.80544 84.438818 
L 332.29175 81.046542 
L 336.77806 77.953062 
L 341.26437 75.117948 
L 345.75068 72.502739 
L 350.23699 70.08377 
L 354.7233 67.864985 
L 361.452766 64.832645 
L 368.182231 62.070504 
L 374.911696 59.529256 
L 383.884317 56.415067 
L 392.856937 53.565161 
L 395.100092 52.887692 
L 392.856937 61.884126 
L 390.613782 70.31551 
L 388.370627 78.278484 
L 386.127472 85.812492 
L 383.884317 92.929369 
L 381.641161 99.640948 
L 377.154851 112.034688 
L 372.668541 123.290437 
L 368.182231 133.519826 
L 363.695921 142.790502 
L 359.209611 151.160253 
L 354.7233 158.69436 
L 350.23699 165.461162 
L 345.75068 171.530476 
L 341.26437 176.977742 
L 336.77806 181.87396 
L 332.29175 186.280369 
L 327.80544 190.26369 
L 323.319129 193.884136 
L 318.832819 197.18839 
L 314.346509 200.218935 
L 309.860199 203.022385 
L 303.130734 206.899076 
L 296.401268 210.480807 
L 287.428648 215.159978 
L 285.185493 216.490066 
L 282.942338 218.087887 
L 280.699183 220.176898 
L 278.456028 222.958762 
L 276.212873 226.561083 
L 273.969718 230.927159 
L 269.483407 240.58844 
L 264.997097 249.554601 
L 260.510787 257.979969 
L 256.024477 265.87204 
L 251.538167 273.177168 
L 247.051857 279.926713 
L 242.565546 286.120674 
L 238.079236 291.793269 
L 233.592926 296.99992 
L 229.106616 301.775239 
L 224.620306 306.146739 
L 220.133996 310.134636 
L 215.647685 313.743859 
L 211.161375 317.028648 
L 206.675065 320.026473 
L 202.188755 322.772836 
L 197.702445 325.306196 
L 193.216135 327.652191 
L 186.486669 330.861048 
L 179.757204 333.768149 
L 173.027739 336.43365 
L 166.298274 338.901925 
L 157.325653 341.93821 
L 148.353033 344.732893 
L 150.596188 335.60629 
L 152.839343 327.121655 
L 155.082498 319.121209 
L 157.325653 311.562547 
L 159.568808 304.432851 
L 161.811964 297.722258 
L 166.298274 285.327927 
L 170.784584 274.076319 
L 175.270894 263.840126 
L 179.757204 254.559687 
L 184.243514 246.185696 
L 188.729825 238.65149 
L 193.216135 231.881335 
L 197.702445 225.808767 
L 202.188755 220.365248 
L 206.675065 215.479878 
L 211.161375 211.087078 
L 215.647685 207.12202 
L 220.133996 203.529244 
L 224.620306 200.261368 
L 229.106616 197.273552 
L 233.592926 194.524092 
L 238.079236 191.982765 
L 242.565546 189.608793 
L 256.024477 182.822219 
L 258.267632 181.492427 
L 260.510787 179.912061 
L 262.753942 177.887345 
L 264.997097 175.266713 
L 267.240252 171.98084 
L 269.483407 168.107334 
L 280.699183 147.132418 
L 285.185493 139.193703 
L 289.671803 131.704761 
L 294.158113 124.710262 
L 298.644423 118.219773 
L 303.130734 112.235857 
L 307.617044 106.728537 
L 312.103354 101.649787 
L 316.589664 96.976433 
L 321.075974 92.682837 
L 325.562284 88.750164 
L 330.048595 85.167565 
L 334.534905 81.893625 
L 339.021215 78.888896 
L 343.507525 76.122811 
L 347.993835 73.562826 
L 352.480145 71.18626 
L 359.209611 67.922181 
L 365.939076 64.95887 
L 372.668541 62.240118 
L 379.398006 59.723523 
L 388.370627 56.629057 
L 395.100092 54.460564 
L 392.856937 63.353455 
L 390.613782 71.748352 
L 388.370627 79.680756 
L 386.127472 87.186167 
L 383.884317 94.277404 
L 381.641161 100.965612 
L 377.154851 113.331148 
L 372.668541 124.539662 
L 368.182231 134.698642 
L 363.695921 143.878496 
L 359.209611 152.152987 
L 354.7233 159.586903 
L 350.23699 166.25884 
L 345.75068 172.244136 
L 341.26437 177.608173 
L 336.77806 182.429346 
L 332.29175 186.769389 
L 327.80544 190.681689 
L 323.319129 194.229122 
L 318.832819 197.460926 
L 314.346509 200.410609 
L 309.860199 203.109135 
L 305.373889 205.598493 
L 298.644423 209.026368 
L 287.428648 214.504697 
L 285.185493 215.744751 
L 282.942338 217.169606 
L 280.699183 218.96978 
L 278.456028 221.353643 
L 276.212873 224.454322 
L 273.969718 228.253276 
L 260.510787 253.77473 
L 256.024477 261.604971 
L 251.538167 268.921045 
L 247.051857 275.736956 
L 242.565546 282.032291 
L 238.079236 287.827462 
L 233.592926 293.164873 
L 229.106616 298.093042 
L 224.620306 302.628239 
L 220.133996 306.79561 
L 215.647685 310.600087 
L 211.161375 314.062378 
L 206.675065 317.234748 
L 202.188755 320.142836 
L 197.702445 322.825101 
L 193.216135 325.308168 
L 186.486669 328.706361 
L 179.757204 331.775187 
L 173.027739 334.579732 
L 166.298274 337.168315 
L 157.325653 340.349559 
L 148.353033 343.275398 
L 150.596188 334.286852 
L 152.839343 325.855468 
L 155.082498 317.899398 
L 157.325653 310.379195 
L 159.568808 303.282041 
L 161.811964 296.595214 
L 166.298274 284.237369 
L 170.784584 273.032011 
L 175.270894 262.87244 
L 179.757204 253.683612 
L 184.243514 245.402612 
L 188.729825 237.966132 
L 193.216135 231.295971 
L 197.702445 225.312351 
L 202.188755 219.950188 
L 206.675065 215.141439 
L 211.161375 210.817471 
L 215.647685 206.91727 
L 220.133996 203.382834 
L 224.620306 200.169254 
L 229.106616 197.23957 
L 233.592926 194.551024 
L 238.079236 192.062513 
L 244.808702 188.6238 
L 253.781322 184.257527 
L 258.267632 181.825147 
L 260.510787 180.355522 
L 262.753942 178.490066 
L 264.997097 176.043781 
L 267.240252 172.900798 
L 269.483407 169.105788 
L 280.699183 148.129195 
L 285.185493 140.211781 
L 289.671803 132.737729 
L 294.158113 125.738891 
L 298.644423 119.240119 
L 303.130734 113.242989 
L 307.617044 107.713677 
L 312.103354 102.599525 
L 316.589664 97.877753 
L 321.075974 93.52499 
L 325.562284 89.53019 
L 330.048595 85.883493 
L 334.534905 82.55926 
L 339.021215 79.50917 
L 343.507525 76.704626 
L 347.993835 74.111112 
L 352.480145 71.704963 
L 359.209611 68.40341 
L 365.939076 65.413474 
L 372.668541 62.671056 
L 379.398006 60.128821 
L 388.370627 57.001813 
L 397.343247 54.117392 
L 406.315867 51.410474 
L 415.288488 49.024047 
L 424.261108 46.875277 
L 428.747418 45.861539 
L 426.504263 54.826417 
L 424.261108 63.132563 
L 419.774798 78.491487 
L 417.531643 85.5916 
L 415.288488 92.31304 
L 410.802177 104.732715 
L 406.315867 115.987084 
L 401.829557 126.194186 
L 397.343247 135.42808 
L 392.856937 143.748524 
L 388.370627 151.230071 
L 383.884317 157.953582 
L 379.398006 163.989663 
L 374.911696 169.407345 
L 370.425386 174.277924 
L 365.939076 178.662342 
L 361.452766 182.620951 
L 356.966456 186.208973 
L 352.480145 189.471692 
L 347.993835 192.447714 
L 343.507525 195.172155 
L 339.021215 197.67882 
L 332.29175 201.099477 
L 325.562284 204.182248 
L 318.832819 206.985559 
L 312.103354 209.570612 
L 303.130734 212.73884 
L 291.914958 216.663723 
L 287.428648 218.474055 
L 285.185493 219.567965 
L 282.942338 220.920635 
L 280.699183 222.678899 
L 278.456028 224.974405 
L 276.212873 227.889396 
L 273.969718 231.390343 
L 269.483407 239.40351 
L 262.753942 251.311188 
L 258.267632 258.919748 
L 253.781322 266.12015 
L 249.295012 272.882908 
L 244.808702 279.17844 
L 240.322391 285.004674 
L 235.836081 290.386067 
L 231.349771 295.371529 
L 226.863461 299.986405 
L 222.377151 304.249431 
L 217.890841 308.177174 
L 213.40453 311.77062 
L 208.91822 315.056394 
L 204.43191 318.078873 
L 199.9456 320.858764 
L 195.45929 323.432555 
L 188.729825 326.956972 
L 182.000359 330.1323 
L 175.270894 333.02461 
L 168.541429 335.686166 
L 159.568808 338.944329 
L 150.596188 341.940182 
L 139.380413 345.409376 
L 132.650948 347.290906 
L 123.678327 349.543219 
L 114.705707 351.598307 
L 116.948862 342.606804 
L 119.192017 334.291783 
L 123.678327 318.933845 
L 125.921482 311.842607 
L 128.164637 305.133001 
L 132.650948 292.739754 
L 137.137258 281.506192 
L 141.623568 271.311614 
L 146.109878 262.083637 
L 150.596188 253.763291 
L 155.082498 246.280857 
L 159.568808 239.558529 
L 164.055119 233.527575 
L 168.541429 228.113739 
L 173.027739 223.245626 
L 177.514049 218.862687 
L 182.000359 214.904374 
L 186.486669 211.320001 
L 190.97298 208.065418 
L 195.45929 205.100706 
L 199.9456 202.388799 
L 204.43191 199.895071 
L 208.91822 197.588886 
L 215.647685 194.432333 
L 222.377151 191.573236 
L 229.106616 188.958097 
L 238.079236 185.757721 
L 251.538167 180.966625 
L 256.024477 179.045157 
L 258.267632 177.838335 
L 260.510787 176.330843 
L 262.753942 174.413714 
L 264.997097 172.008945 
L 267.240252 169.092179 
L 269.483407 165.733136 
L 276.212873 154.556079 
L 282.942338 143.313149 
L 287.428648 136.118566 
L 291.914958 129.297921 
L 296.401268 122.896677 
L 300.887579 116.942147 
L 305.373889 111.423486 
L 309.860199 106.311504 
L 314.346509 101.56922 
L 318.832819 97.178589 
L 323.319129 93.117719 
L 327.80544 89.375368 
L 332.29175 85.933786 
L 336.77806 82.777194 
L 341.26437 79.866148 
L 345.75068 77.178952 
L 350.23699 74.685038 
L 356.966456 71.262192 
L 363.695921 68.168712 
L 370.425386 65.34839 
L 377.154851 62.749946 
L 386.127472 59.571659 
L 395.100092 56.661599 
L 404.072712 53.967501 
L 415.288488 50.837534 
L 428.747418 47.339743 
L 424.261108 64.176871 
L 419.774798 79.385904 
L 417.531643 86.426849 
L 413.045333 99.428931 
L 408.559022 111.181491 
L 404.072712 121.843197 
L 399.586402 131.499351 
L 395.100092 140.208724 
L 390.613782 148.040444 
L 386.127472 155.074979 
L 381.641161 161.387669 
L 377.154851 167.051784 
L 372.668541 172.140889 
L 368.182231 176.722434 
L 363.695921 180.857066 
L 359.209611 184.597642 
L 354.7233 187.993468 
L 350.23699 191.089531 
L 345.75068 193.920583 
L 341.26437 196.516039 
L 336.77806 198.90462 
L 330.048595 202.16198 
L 323.319129 205.100125 
L 316.589664 207.787133 
L 309.860199 210.246602 
L 289.671803 217.400557 
L 287.428648 218.36351 
L 285.185493 219.485032 
L 282.942338 220.877541 
L 280.699183 222.664896 
L 278.456028 224.947779 
L 276.212873 227.780823 
L 273.969718 231.123497 
L 269.483407 238.693203 
L 260.510787 253.884091 
L 256.024477 261.128376 
L 251.538167 267.982055 
L 247.051857 274.424027 
L 242.565546 280.412775 
L 238.079236 285.958752 
L 233.592926 291.095486 
L 229.106616 295.864494 
L 224.620306 300.283229 
L 220.133996 304.377628 
L 215.647685 308.155479 
L 211.161375 311.629604 
L 206.675065 314.813807 
L 202.188755 317.750493 
L 197.702445 320.456424 
L 193.216135 322.963159 
L 186.486669 326.403755 
L 179.757204 329.509068 
L 173.027739 332.340238 
L 166.298274 334.948543 
L 157.325653 338.136691 
L 148.353033 341.053654 
L 139.380413 343.752683 
L 128.164637 346.892511 
L 114.705707 350.394247 
L 119.192017 333.501895 
L 123.678327 318.27314 
L 125.921482 311.226278 
L 130.407792 298.226169 
L 134.894103 286.48061 
L 139.380413 275.827581 
L 143.866723 266.174781 
L 148.353033 257.465901 
L 152.839343 249.627968 
L 157.325653 242.584361 
L 161.811964 236.266345 
L 166.298274 230.598384 
L 170.784584 225.509477 
L 175.270894 220.931187 
L 179.757204 216.799907 
L 184.243514 213.06012 
L 188.729825 209.664984 
L 193.216135 206.573161 
L 197.702445 203.74916 
L 202.188755 201.160647 
L 206.675065 198.777418 
L 213.40453 195.525366 
L 220.133996 192.588622 
L 226.863461 189.897768 
L 235.836081 186.640601 
L 251.538167 181.108528 
L 256.024477 179.235676 
L 258.267632 178.078259 
L 260.510787 176.641473 
L 262.753942 174.812701 
L 264.997097 172.499149 
L 267.240252 169.660287 
L 269.483407 166.338617 
L 276.212873 155.147755 
L 282.942338 143.981349 
L 287.428648 136.837551 
L 291.914958 130.056943 
L 296.401268 123.671969 
L 300.887579 117.734895 
L 305.373889 112.225898 
L 309.860199 107.112633 
L 314.346509 102.362658 
L 318.832819 97.952699 
L 323.319129 93.862245 
L 327.80544 90.079463 
L 332.29175 86.592519 
L 336.77806 83.395496 
L 341.26437 80.452893 
L 345.75068 77.7371 
L 350.23699 75.219519 
L 356.966456 71.763144 
L 363.695921 68.640081 
L 370.425386 65.797077 
L 377.154851 63.178911 
L 386.127472 59.976957 
L 395.100092 57.049147 
L 404.072712 54.339271 
L 415.288488 51.189582 
L 428.747418 47.685873 
L 439.963194 44.918802 
L 451.178969 42.466304 
L 462.394744 40.232727 
L 460.151589 48.899795 
L 455.665279 64.735019 
L 451.178969 79.149234 
L 446.692659 92.194705 
L 442.206349 103.985329 
L 437.720038 114.68372 
L 433.233728 124.383164 
L 428.747418 133.143914 
L 424.261108 141.033717 
L 419.774798 148.125744 
L 415.288488 154.495136 
L 410.802177 160.218518 
L 406.315867 165.368466 
L 401.829557 170.008685 
L 397.343247 174.196174 
L 392.856937 177.983887 
L 388.370627 181.424976 
L 383.884317 184.561352 
L 379.398006 187.429404 
L 374.911696 190.062046 
L 370.425386 192.489861 
L 363.695921 195.803128 
L 356.966456 198.782671 
L 350.23699 201.485339 
L 343.507525 203.963189 
L 334.534905 206.989711 
L 325.562284 209.764879 
L 316.589664 212.333443 
L 294.158113 218.559749 
L 289.671803 220.088837 
L 287.428648 221.020431 
L 285.185493 222.153688 
L 282.942338 223.574894 
L 280.699183 225.367869 
L 278.456028 227.609138 
L 276.212873 230.333018 
L 273.969718 233.504993 
L 269.483407 240.670585 
L 258.267632 258.612569 
L 253.781322 265.36379 
L 249.295012 271.761584 
L 244.808702 277.750923 
L 240.322391 283.325498 
L 235.836081 288.500691 
L 231.349771 293.31792 
L 226.863461 297.796218 
L 222.377151 301.963589 
L 217.890841 305.832164 
L 213.40453 309.414763 
L 208.91822 312.717302 
L 204.43191 315.754572 
L 199.9456 318.563061 
L 195.45929 321.159533 
L 188.729825 324.71945 
L 182.000359 327.934224 
L 175.270894 330.854145 
L 168.541429 333.535424 
L 161.811964 336.019477 
L 152.839343 339.072525 
L 143.866723 341.881014 
L 132.650948 345.122413 
L 121.435172 348.133058 
L 105.733087 352.094329 
L 96.760466 354.115889 
L 85.544691 356.418495 
L 81.058381 357.287273 
L 83.301536 348.589635 
L 87.787846 332.737647 
L 92.274156 318.329349 
L 96.760466 305.302614 
L 101.246776 293.533487 
L 105.733087 282.851269 
L 110.219397 273.164842 
L 114.705707 264.413066 
L 119.192017 256.531842 
L 123.678327 249.445042 
L 128.164637 243.078114 
L 132.650948 237.35779 
L 137.137258 232.212477 
L 141.623568 227.57778 
L 146.109878 223.398081 
L 150.596188 219.617173 
L 155.082498 216.181803 
L 159.568808 213.051442 
L 164.055119 210.189209 
L 168.541429 207.561339 
L 173.027739 205.138593 
L 179.757204 201.835542 
L 186.486669 198.869179 
L 193.216135 196.179494 
L 199.9456 193.713053 
L 208.91822 190.710139 
L 217.890841 187.948796 
L 229.106616 184.790824 
L 247.051857 179.780314 
L 251.538167 178.30852 
L 253.781322 177.440827 
L 256.024477 176.416734 
L 258.267632 175.16889 
L 260.510787 173.627278 
L 262.753942 171.728984 
L 264.997097 169.426871 
L 267.240252 166.719262 
L 269.483407 163.648464 
L 273.969718 156.912626 
L 287.428648 136.330188 
L 291.914958 129.889696 
L 296.401268 123.802631 
L 300.887579 118.113272 
L 305.373889 112.804754 
L 309.860199 107.863273 
L 314.346509 103.264964 
L 318.832819 98.984187 
L 323.319129 95.001221 
L 327.80544 91.300288 
L 332.29175 87.866594 
L 336.77806 84.691266 
L 341.26437 81.768386 
L 345.75068 79.061468 
L 350.23699 76.549804 
L 356.966456 73.09836 
L 363.695921 69.973324 
L 370.425386 67.126376 
L 377.154851 64.509196 
L 386.127472 61.309215 
L 395.100092 58.385349 
L 404.072712 55.687306 
L 415.288488 52.565229 
L 426.504263 49.667988 
L 439.963194 46.425603 
L 455.665279 42.897242 
L 462.394744 41.445663 
L 457.908434 57.812409 
L 453.422124 72.797591 
L 448.935814 86.440655 
L 444.449504 98.773156 
L 439.963194 109.95682 
L 435.476883 120.092329 
L 430.990573 129.265182 
L 426.504263 137.535334 
L 422.017953 144.973096 
L 417.531643 151.658543 
L 413.045333 157.664055 
L 408.559022 163.064874 
L 404.072712 167.925197 
L 399.586402 172.306459 
L 395.100092 176.26349 
L 390.613782 179.850822 
L 386.127472 183.115395 
L 381.641161 186.097935 
L 377.154851 188.833747 
L 372.668541 191.350608 
L 368.182231 193.674771 
L 361.452766 196.851953 
L 354.7233 199.721901 
L 347.993835 202.335735 
L 341.26437 204.738719 
L 332.29175 207.664232 
L 323.319129 210.35902 
L 312.103354 213.473899 
L 296.401268 217.819562 
L 291.914958 219.243036 
L 289.671803 220.070002 
L 287.428648 221.033448 
L 285.185493 222.204868 
L 282.942338 223.660884 
L 280.699183 225.475259 
L 278.456028 227.709033 
L 276.212873 230.384789 
L 273.969718 233.465548 
L 269.483407 240.35818 
L 258.267632 257.797536 
L 253.781322 264.427956 
L 249.295012 270.73187 
L 244.808702 276.646264 
L 240.322391 282.159008 
L 235.836081 287.28953 
L 231.349771 292.065046 
L 226.863461 296.50804 
L 222.377151 300.650068 
L 217.890841 304.507796 
L 213.40453 308.090395 
L 208.91822 311.412656 
L 204.43191 314.473593 
L 199.9456 317.299833 
L 195.45929 319.917999 
L 188.729825 323.499612 
L 182.000359 326.735093 
L 175.270894 329.672765 
L 168.541429 332.366863 
L 161.811964 334.858806 
L 152.839343 337.918757 
L 143.866723 340.72626 
L 132.650948 343.954839 
L 121.435172 346.937872 
L 107.976242 350.26605 
L 94.517311 353.374322 
L 81.058381 356.308049 
L 85.544691 339.859454 
L 90.031001 324.867369 
L 94.517311 311.225292 
L 99.003621 298.904624 
L 103.489931 287.731709 
L 107.976242 277.59975 
L 112.462552 268.431039 
L 116.948862 260.164043 
L 121.435172 252.729929 
L 125.921482 246.046948 
L 130.407792 240.041436 
L 134.894103 234.639039 
L 139.380413 229.776941 
L 143.866723 225.395974 
L 148.353033 221.439535 
L 152.839343 217.851907 
L 157.325653 214.588912 
L 161.811964 211.60864 
L 166.298274 208.875787 
L 170.784584 206.360937 
L 175.270894 204.037918 
L 182.000359 200.862186 
L 188.729825 197.995499 
L 195.45929 195.383906 
L 202.188755 192.981928 
L 211.161375 190.052866 
L 220.133996 187.35002 
L 231.349771 184.227943 
L 247.051857 179.849146 
L 251.538167 178.397666 
L 253.781322 177.551569 
L 256.024477 176.560906 
L 258.267632 175.359508 
L 260.510787 173.875781 
L 262.753942 172.0406 
L 264.997097 169.79864 
L 267.240252 167.131661 
L 269.483407 164.072991 
L 271.726562 160.733276 
L 271.726562 160.733276 
" clip-path="url(#pd4b8325c5e)" style="fill: none; stroke: #0000ff; stroke-width: 1.2; stroke-linecap: square"/>
   </g>
   <g id="line2d_30">
    <path d="M 61.991563 198.886717 
L 481.461563 198.886717 
" clip-path="url(#pd4b8325c5e)" style="fill: none; stroke: #000000; stroke-width: 0.4; stroke-linecap: square"/>
   </g>
   <g id="line2d_31">
    <path d="M 271.726562 373.14 
L 271.726562 24.38 
" clip-path="url(#pd4b8325c5e)" style="fill: none; stroke: #000000; stroke-width: 0.4; stroke-linecap: square"/>
   </g>
   <g id="patch_3">
    <path d="M 61.991563 373.14 
L 61.991563 24.38 
" style="fill: none; stroke: #000000; stroke-width: 0.8; stroke-linejoin: miter; stroke-linecap: square"/>
   </g>
   <g id="patch_4">
    <path d="M 481.461563 373.14 
L 481.461563 24.38 
" style="fill: none; stroke: #000000; stroke-width: 0.8; stroke-linejoin: miter; stroke-linecap: square"/>
   </g>
   <g id="patch_5">
    <path d="M 61.991562 373.14 
L 481.461563 373.14 
" style="fill: none; stroke: #000000; stroke-width: 0.8; stroke-linejoin: miter; stroke-linecap: square"/>
   </g>
   <g id="patch_6">
    <path d="M 61.991562 24.38 
L 481.461563 24.38 
" style="fill: none; stroke: #000000; stroke-width: 0.8; stroke-linejoin: miter; stroke-linecap: square"/>
   </g>
   <g id="text_17">
    <!-- Specimen: Thomsen_and_Wallace_RW2 -->
    <g transform="translate(138.055312 18.38) scale(0.16 -0.16)">
     <defs>
      <path id="Cambria-53" d="M 663 972 
Q 725 697 831 537 
Q 938 378 1106 301 
Q 1275 225 1541 225 
Q 1906 225 2101 415 
Q 2297 606 2297 972 
Q 2297 1206 2215 1365 
Q 2134 1525 1950 1665 
Q 1766 1806 1388 1994 
Q 1022 2175 809 2348 
Q 597 2522 492 2725 
Q 388 2928 388 3169 
Q 388 3519 552 3776 
Q 716 4034 1033 4175 
Q 1350 4316 1759 4316 
Q 1997 4316 2223 4291 
Q 2450 4266 2791 4178 
L 2791 3334 
L 2481 3334 
Q 2409 3609 2300 3762 
Q 2191 3916 2044 3977 
Q 1897 4038 1663 4038 
Q 1459 4038 1298 3963 
Q 1138 3888 1044 3736 
Q 950 3584 950 3375 
Q 950 3153 1029 3000 
Q 1109 2847 1278 2715 
Q 1447 2584 1778 2422 
Q 2178 2222 2398 2050 
Q 2619 1878 2742 1658 
Q 2866 1438 2866 1144 
Q 2866 816 2762 589 
Q 2659 363 2476 220 
Q 2294 78 2039 14 
Q 1784 -50 1481 -50 
Q 991 -50 350 116 
L 350 972 
L 663 972 
z
" transform="scale(0.015625)"/>
      <path id="Cambria-70" d="M 1150 94 
L 1150 -566 
Q 1150 -769 1164 -869 
Q 1178 -969 1214 -1026 
Q 1250 -1084 1317 -1121 
Q 1384 -1159 1534 -1191 
L 1534 -1344 
L 259 -1344 
L 259 -1191 
Q 372 -1159 442 -1126 
Q 513 -1094 550 -1030 
Q 588 -966 600 -856 
Q 613 -747 613 -566 
L 613 2116 
Q 613 2341 606 2436 
Q 600 2531 581 2593 
Q 563 2656 527 2697 
Q 491 2738 430 2766 
Q 369 2794 228 2822 
L 228 2988 
L 963 3016 
L 1153 3016 
L 1113 2506 
L 1159 2494 
Q 1353 2691 1465 2780 
Q 1578 2869 1698 2928 
Q 1819 2988 1930 3013 
Q 2041 3038 2166 3038 
Q 2681 3038 2957 2652 
Q 3234 2266 3234 1522 
Q 3234 1006 3078 654 
Q 2922 303 2623 126 
Q 2325 -50 1913 -50 
Q 1681 -50 1493 -11 
Q 1306 28 1150 94 
z
M 1150 1125 
Q 1150 825 1187 662 
Q 1225 500 1320 398 
Q 1416 297 1545 247 
Q 1675 197 1888 197 
Q 2266 197 2456 511 
Q 2647 825 2647 1438 
Q 2647 2663 1931 2663 
Q 1756 2663 1629 2608 
Q 1503 2553 1378 2431 
Q 1253 2309 1201 2195 
Q 1150 2081 1150 1950 
L 1150 1125 
z
" transform="scale(0.015625)"/>
      <path id="Cambria-65" d="M 2800 531 
Q 2600 322 2433 203 
Q 2266 84 2066 17 
Q 1866 -50 1625 -50 
Q 981 -50 653 336 
Q 325 722 325 1475 
Q 325 1941 492 2297 
Q 659 2653 968 2847 
Q 1278 3041 1681 3041 
Q 1997 3041 2219 2941 
Q 2441 2841 2573 2667 
Q 2706 2494 2779 2230 
Q 2853 1966 2863 1541 
L 894 1541 
L 894 1484 
Q 894 1116 976 864 
Q 1059 613 1248 470 
Q 1438 328 1741 328 
Q 1997 328 2201 423 
Q 2406 519 2609 734 
L 2800 531 
z
M 2275 1800 
Q 2256 2138 2190 2352 
Q 2125 2566 1994 2680 
Q 1863 2794 1650 2794 
Q 1328 2794 1136 2536 
Q 944 2278 909 1800 
L 2275 1800 
z
" transform="scale(0.015625)"/>
      <path id="Cambria-63" d="M 2631 2916 
L 2631 2263 
L 2234 2263 
Q 2181 2466 2103 2583 
Q 2025 2700 1922 2747 
Q 1819 2794 1666 2794 
Q 1447 2794 1278 2653 
Q 1109 2513 1011 2225 
Q 913 1938 913 1522 
Q 913 1256 950 1036 
Q 988 816 1078 659 
Q 1169 503 1319 415 
Q 1469 328 1691 328 
Q 1906 328 2092 412 
Q 2278 497 2478 709 
L 2656 503 
Q 2497 328 2375 233 
Q 2253 138 2114 73 
Q 1975 9 1839 -20 
Q 1703 -50 1544 -50 
Q 953 -50 640 342 
Q 328 734 328 1475 
Q 328 1938 503 2295 
Q 678 2653 993 2847 
Q 1309 3041 1722 3041 
Q 1978 3041 2195 3011 
Q 2413 2981 2631 2916 
z
" transform="scale(0.015625)"/>
      <path id="Cambria-69" d="M 1197 4213 
L 1197 3606 
L 622 3606 
L 622 4213 
L 1197 4213 
z
M 303 153 
Q 425 191 476 219 
Q 528 247 564 297 
Q 600 347 620 450 
Q 641 553 641 772 
L 641 2134 
Q 641 2334 634 2456 
Q 628 2578 590 2651 
Q 553 2725 476 2761 
Q 400 2797 259 2822 
L 259 2988 
L 988 3016 
L 1178 3016 
L 1178 781 
Q 1178 513 1203 408 
Q 1228 303 1298 248 
Q 1369 194 1528 153 
L 1528 0 
L 303 0 
L 303 153 
z
" transform="scale(0.015625)"/>
      <path id="Cambria-6d" d="M 1147 2506 
L 1191 2494 
Q 1378 2681 1498 2776 
Q 1619 2872 1731 2930 
Q 1844 2988 1942 3013 
Q 2041 3038 2144 3038 
Q 2456 3038 2653 2894 
Q 2850 2750 2925 2453 
Q 3159 2691 3304 2803 
Q 3450 2916 3601 2977 
Q 3753 3038 3928 3038 
Q 4138 3038 4289 2977 
Q 4441 2916 4545 2789 
Q 4650 2663 4698 2472 
Q 4747 2281 4747 1959 
L 4747 781 
Q 4747 544 4762 453 
Q 4778 363 4808 313 
Q 4838 263 4897 227 
Q 4956 191 5097 153 
L 5097 0 
L 3869 0 
L 3869 153 
Q 3991 191 4044 219 
Q 4097 247 4133 297 
Q 4169 347 4189 451 
Q 4209 556 4209 769 
L 4209 1588 
Q 4209 1853 4195 2026 
Q 4181 2200 4151 2303 
Q 4122 2406 4080 2465 
Q 4038 2525 3984 2569 
Q 3931 2613 3859 2638 
Q 3788 2663 3669 2663 
Q 3544 2663 3436 2613 
Q 3328 2563 3201 2444 
Q 3075 2325 3019 2204 
Q 2963 2084 2963 1922 
L 2963 781 
Q 2963 544 2978 453 
Q 2994 363 3023 313 
Q 3053 263 3112 227 
Q 3172 191 3313 153 
L 3313 0 
L 2084 0 
L 2084 153 
Q 2206 191 2259 219 
Q 2313 247 2348 297 
Q 2384 347 2404 451 
Q 2425 556 2425 769 
L 2425 1588 
Q 2425 1866 2409 2041 
Q 2394 2216 2361 2322 
Q 2328 2428 2276 2493 
Q 2225 2559 2172 2593 
Q 2119 2628 2047 2645 
Q 1975 2663 1884 2663 
Q 1756 2663 1643 2605 
Q 1531 2547 1414 2437 
Q 1297 2328 1237 2209 
Q 1178 2091 1178 1953 
L 1178 781 
Q 1178 603 1187 509 
Q 1197 416 1217 362 
Q 1238 309 1269 276 
Q 1300 244 1358 214 
Q 1416 184 1531 153 
L 1531 0 
L 306 0 
L 306 153 
Q 425 191 476 219 
Q 528 247 565 297 
Q 603 347 622 450 
Q 641 553 641 772 
L 641 2134 
Q 641 2334 634 2456 
Q 628 2578 590 2651 
Q 553 2725 476 2761 
Q 400 2797 259 2822 
L 259 2988 
L 991 3016 
L 1181 3016 
L 1147 2506 
z
" transform="scale(0.015625)"/>
      <path id="Cambria-6e" d="M 3347 0 
L 2116 0 
L 2116 153 
Q 2238 191 2291 219 
Q 2344 247 2380 297 
Q 2416 347 2436 451 
Q 2456 556 2456 769 
L 2456 1588 
Q 2456 1806 2443 1984 
Q 2431 2163 2401 2277 
Q 2372 2391 2330 2455 
Q 2288 2519 2230 2564 
Q 2172 2609 2097 2636 
Q 2022 2663 1900 2663 
Q 1778 2663 1668 2614 
Q 1559 2566 1428 2447 
Q 1297 2328 1237 2212 
Q 1178 2097 1178 1947 
L 1178 781 
Q 1178 513 1203 408 
Q 1228 303 1298 248 
Q 1369 194 1528 153 
L 1528 0 
L 303 0 
L 303 153 
Q 425 191 476 219 
Q 528 247 564 297 
Q 600 347 620 450 
Q 641 553 641 772 
L 641 2134 
Q 641 2334 634 2456 
Q 628 2578 590 2651 
Q 553 2725 476 2761 
Q 400 2797 259 2822 
L 259 2988 
L 991 3016 
L 1181 3016 
L 1147 2506 
L 1191 2494 
Q 1422 2728 1564 2828 
Q 1706 2928 1851 2983 
Q 1997 3038 2159 3038 
Q 2328 3038 2461 2998 
Q 2594 2959 2695 2878 
Q 2797 2797 2862 2676 
Q 2928 2556 2961 2387 
Q 2994 2219 2994 1959 
L 2994 781 
Q 2994 566 3006 469 
Q 3019 372 3050 319 
Q 3081 266 3140 230 
Q 3200 194 3347 153 
L 3347 0 
z
" transform="scale(0.015625)"/>
      <path id="Cambria-3a" d="M 1156 2822 
L 1156 2091 
L 531 2091 
L 531 2822 
L 1156 2822 
z
M 1156 725 
L 1156 0 
L 531 0 
L 531 725 
L 1156 725 
z
" transform="scale(0.015625)"/>
      <path id="Cambria-20" transform="scale(0.015625)"/>
      <path id="Cambria-54" d="M 206 4266 
L 3588 4266 
L 3588 3178 
L 3281 3178 
Q 3213 3447 3145 3603 
Q 3078 3759 3003 3840 
Q 2928 3922 2842 3956 
Q 2756 3991 2584 3991 
L 2188 3991 
L 2188 791 
Q 2188 606 2208 497 
Q 2228 388 2270 323 
Q 2313 259 2384 223 
Q 2456 188 2609 153 
L 2609 0 
L 1181 0 
L 1181 153 
Q 1275 175 1347 200 
Q 1419 225 1464 261 
Q 1509 297 1539 353 
Q 1569 409 1586 506 
Q 1603 603 1603 791 
L 1603 3991 
L 1209 3991 
Q 1063 3991 967 3962 
Q 872 3934 790 3845 
Q 709 3756 642 3592 
Q 575 3428 516 3178 
L 206 3178 
L 206 4266 
z
" transform="scale(0.015625)"/>
      <path id="Cambria-68" d="M 1141 2497 
L 1153 2494 
Q 1397 2741 1539 2839 
Q 1681 2938 1820 2988 
Q 1959 3038 2119 3038 
Q 2291 3038 2425 2997 
Q 2559 2956 2661 2873 
Q 2763 2791 2827 2670 
Q 2891 2550 2922 2383 
Q 2953 2216 2953 1959 
L 2953 781 
Q 2953 509 2976 411 
Q 3000 313 3061 258 
Q 3122 203 3306 153 
L 3306 0 
L 2075 0 
L 2075 153 
Q 2197 191 2250 219 
Q 2303 247 2339 297 
Q 2375 347 2395 451 
Q 2416 556 2416 769 
L 2416 1588 
Q 2416 2003 2373 2223 
Q 2331 2444 2207 2553 
Q 2084 2663 1863 2663 
Q 1738 2663 1638 2619 
Q 1538 2575 1406 2462 
Q 1275 2350 1208 2231 
Q 1141 2113 1141 1978 
L 1141 781 
Q 1141 569 1152 478 
Q 1163 388 1194 327 
Q 1225 266 1289 227 
Q 1353 188 1488 153 
L 1488 0 
L 250 0 
L 250 153 
Q 388 191 447 225 
Q 506 259 539 312 
Q 572 366 587 466 
Q 603 566 603 781 
L 603 3397 
Q 603 3697 598 3815 
Q 594 3934 573 4017 
Q 553 4100 517 4147 
Q 481 4194 420 4222 
Q 359 4250 200 4278 
L 200 4441 
L 953 4472 
L 1141 4472 
L 1141 2497 
z
" transform="scale(0.015625)"/>
      <path id="Cambria-6f" d="M 1663 -50 
Q 1013 -50 670 333 
Q 328 716 328 1466 
Q 328 1981 508 2337 
Q 688 2694 1000 2867 
Q 1313 3041 1713 3041 
Q 2381 3041 2725 2652 
Q 3069 2263 3069 1534 
Q 3069 1016 2897 659 
Q 2725 303 2409 126 
Q 2094 -50 1663 -50 
z
M 919 1531 
Q 919 888 1123 542 
Q 1328 197 1709 197 
Q 1919 197 2066 298 
Q 2213 400 2305 572 
Q 2397 744 2437 970 
Q 2478 1197 2478 1444 
Q 2478 1903 2376 2206 
Q 2275 2509 2100 2651 
Q 1925 2794 1700 2794 
Q 1322 2794 1120 2466 
Q 919 2138 919 1531 
z
" transform="scale(0.015625)"/>
      <path id="Cambria-73" d="M 2397 2303 
L 2097 2303 
Q 2028 2491 1934 2598 
Q 1841 2706 1722 2750 
Q 1603 2794 1431 2794 
Q 1181 2794 1032 2676 
Q 884 2559 884 2356 
Q 884 2213 943 2119 
Q 1003 2025 1128 1944 
Q 1253 1863 1569 1728 
Q 1888 1591 2061 1475 
Q 2234 1359 2332 1206 
Q 2431 1053 2431 841 
Q 2431 594 2347 425 
Q 2263 256 2109 150 
Q 1956 44 1745 -3 
Q 1534 -50 1284 -50 
Q 1022 -50 775 -11 
Q 528 28 294 91 
L 294 744 
L 600 744 
Q 684 456 850 326 
Q 1016 197 1306 197 
Q 1419 197 1526 220 
Q 1634 244 1718 298 
Q 1803 353 1853 447 
Q 1903 541 1903 681 
Q 1903 841 1840 941 
Q 1778 1041 1647 1123 
Q 1516 1206 1184 1347 
Q 900 1466 728 1578 
Q 556 1691 457 1844 
Q 359 1997 359 2206 
Q 359 2463 498 2652 
Q 638 2841 900 2941 
Q 1163 3041 1516 3041 
Q 1722 3041 1914 3020 
Q 2106 3000 2397 2941 
L 2397 2303 
z
" transform="scale(0.015625)"/>
      <path id="Cambria-5f" d="M 0 -753 
L 0 -391 
L 2372 -391 
L 2372 -753 
L 0 -753 
z
" transform="scale(0.015625)"/>
      <path id="Cambria-61" d="M 2109 447 
L 2063 459 
Q 1791 181 1552 65 
Q 1313 -50 1044 -50 
Q 806 -50 625 42 
Q 444 134 347 301 
Q 250 469 250 688 
Q 250 1144 701 1392 
Q 1153 1641 2056 1681 
L 2056 1884 
Q 2056 2209 1993 2396 
Q 1931 2584 1797 2671 
Q 1663 2759 1438 2759 
Q 1194 2759 1045 2631 
Q 897 2503 822 2247 
L 413 2247 
L 413 2653 
Q 713 2809 913 2882 
Q 1113 2956 1313 2998 
Q 1513 3041 1719 3041 
Q 2028 3041 2215 2942 
Q 2403 2844 2497 2641 
Q 2591 2438 2591 2028 
L 2591 941 
Q 2591 709 2594 614 
Q 2597 519 2612 437 
Q 2628 356 2659 307 
Q 2691 259 2752 225 
Q 2813 191 2950 153 
L 2950 0 
L 2094 0 
L 2109 447 
z
M 2056 1425 
Q 1422 1419 1106 1256 
Q 791 1094 791 766 
Q 791 588 862 484 
Q 934 381 1043 342 
Q 1153 303 1303 303 
Q 1516 303 1689 406 
Q 1863 509 1959 668 
Q 2056 828 2056 984 
L 2056 1425 
z
" transform="scale(0.015625)"/>
      <path id="Cambria-64" d="M 2413 3397 
Q 2413 3697 2408 3815 
Q 2403 3934 2383 4017 
Q 2363 4100 2327 4147 
Q 2291 4194 2230 4222 
Q 2169 4250 2009 4278 
L 2009 4441 
L 2766 4472 
L 2950 4472 
L 2950 853 
Q 2950 609 2959 504 
Q 2969 400 3000 337 
Q 3031 275 3098 236 
Q 3166 197 3334 163 
L 3334 0 
L 2597 -31 
L 2409 -31 
L 2447 481 
L 2400 494 
Q 2203 284 2058 179 
Q 1913 75 1748 12 
Q 1584 -50 1397 -50 
Q 884 -50 606 339 
Q 328 728 328 1463 
Q 328 1975 509 2333 
Q 691 2691 998 2866 
Q 1306 3041 1691 3041 
Q 1897 3041 2065 3008 
Q 2234 2975 2413 2900 
L 2413 3397 
z
M 2413 1853 
Q 2413 2097 2391 2244 
Q 2369 2391 2317 2491 
Q 2266 2591 2178 2659 
Q 2091 2728 1986 2759 
Q 1881 2791 1734 2791 
Q 1334 2791 1125 2470 
Q 916 2150 916 1550 
Q 916 950 1087 637 
Q 1259 325 1609 325 
Q 1747 325 1837 348 
Q 1928 372 2015 423 
Q 2103 475 2193 565 
Q 2284 656 2326 731 
Q 2369 806 2391 903 
Q 2413 1000 2413 1153 
L 2413 1853 
z
" transform="scale(0.015625)"/>
      <path id="Cambria-57" d="M 2941 3469 
L 1941 -22 
L 1434 -22 
L 525 3372 
Q 469 3584 422 3718 
Q 375 3853 328 3929 
Q 281 4006 226 4045 
Q 172 4084 69 4113 
L 69 4266 
L 1406 4266 
L 1406 4113 
Q 1213 4075 1136 4000 
Q 1059 3925 1059 3791 
Q 1059 3681 1087 3531 
Q 1116 3381 1166 3191 
L 1794 722 
L 2800 4266 
L 3325 4266 
L 4141 719 
L 4878 3103 
Q 5013 3538 5013 3722 
Q 5013 3913 4933 3997 
Q 4853 4081 4669 4113 
L 4669 4266 
L 5900 4266 
L 5900 4113 
Q 5806 4081 5750 4042 
Q 5694 4003 5642 3936 
Q 5591 3869 5530 3728 
Q 5469 3588 5388 3350 
L 4250 -22 
L 3803 -22 
L 2941 3469 
z
" transform="scale(0.015625)"/>
      <path id="Cambria-6c" d="M 1138 781 
Q 1138 513 1163 408 
Q 1188 303 1258 248 
Q 1328 194 1488 153 
L 1488 0 
L 247 0 
L 247 153 
Q 403 194 464 237 
Q 525 281 551 342 
Q 578 403 589 508 
Q 600 613 600 781 
L 600 3397 
Q 600 3697 595 3815 
Q 591 3934 570 4017 
Q 550 4100 514 4147 
Q 478 4194 417 4222 
Q 356 4250 197 4278 
L 197 4441 
L 950 4472 
L 1138 4472 
L 1138 781 
z
" transform="scale(0.015625)"/>
      <path id="Cambria-52" d="M 1331 1853 
L 1331 791 
Q 1331 566 1348 464 
Q 1366 363 1400 311 
Q 1434 259 1493 226 
Q 1553 194 1697 153 
L 1697 0 
L 378 0 
L 378 153 
Q 572 203 637 264 
Q 703 325 723 437 
Q 744 550 744 781 
L 744 3484 
Q 744 3700 728 3798 
Q 713 3897 677 3951 
Q 641 4006 581 4039 
Q 522 4072 378 4113 
L 378 4266 
L 1925 4266 
Q 2656 4266 3018 4000 
Q 3381 3734 3381 3175 
Q 3381 2747 3145 2447 
Q 2909 2147 2438 1978 
L 2438 1953 
Q 2628 1875 2764 1729 
Q 2900 1584 3066 1278 
L 3347 766 
Q 3469 541 3556 422 
Q 3644 303 3734 240 
Q 3825 178 3975 153 
L 3975 0 
L 3109 0 
Q 2991 166 2884 356 
Q 2778 547 2675 744 
L 2400 1266 
Q 2275 1503 2195 1615 
Q 2116 1728 2048 1773 
Q 1981 1819 1904 1836 
Q 1828 1853 1675 1853 
L 1331 1853 
z
M 1331 3978 
L 1331 2122 
L 1684 2122 
Q 1956 2122 2125 2161 
Q 2294 2200 2437 2309 
Q 2581 2419 2667 2614 
Q 2753 2809 2753 3094 
Q 2753 3391 2651 3587 
Q 2550 3784 2344 3887 
Q 2138 3991 1788 3991 
Q 1506 3991 1331 3978 
z
" transform="scale(0.015625)"/>
     </defs>
     <use xlink:href="#Cambria-53"/>
     <use xlink:href="#Cambria-70" x="49.609375"/>
     <use xlink:href="#Cambria-65" x="105.224609"/>
     <use xlink:href="#Cambria-63" x="154.003906"/>
     <use xlink:href="#Cambria-69" x="198.095703"/>
     <use xlink:href="#Cambria-6d" x="225.878906"/>
     <use xlink:href="#Cambria-65" x="309.082031"/>
     <use xlink:href="#Cambria-6e" x="357.861328"/>
     <use xlink:href="#Cambria-3a" x="413.671875"/>
     <use xlink:href="#Cambria-20" x="440.039062"/>
     <use xlink:href="#Cambria-54" x="462.060547"/>
     <use xlink:href="#Cambria-68" x="521.337891"/>
     <use xlink:href="#Cambria-6f" x="576.513672"/>
     <use xlink:href="#Cambria-6d" x="629.589844"/>
     <use xlink:href="#Cambria-73" x="712.792969"/>
     <use xlink:href="#Cambria-65" x="755.761719"/>
     <use xlink:href="#Cambria-6e" x="804.541016"/>
     <use xlink:href="#Cambria-5f" x="860.351562"/>
     <use xlink:href="#Cambria-61" x="897.412109"/>
     <use xlink:href="#Cambria-6e" x="946.240234"/>
     <use xlink:href="#Cambria-64" x="1002.050781"/>
     <use xlink:href="#Cambria-5f" x="1057.519531"/>
     <use xlink:href="#Cambria-57" x="1094.580078"/>
     <use xlink:href="#Cambria-61" x="1182.34375"/>
     <use xlink:href="#Cambria-6c" x="1231.171875"/>
     <use xlink:href="#Cambria-6c" x="1258.320312"/>
     <use xlink:href="#Cambria-61" x="1285.46875"/>
     <use xlink:href="#Cambria-63" x="1334.296875"/>
     <use xlink:href="#Cambria-65" x="1378.388672"/>
     <use xlink:href="#Cambria-5f" x="1427.167969"/>
     <use xlink:href="#Cambria-52" x="1464.228516"/>
     <use xlink:href="#Cambria-57" x="1523.337891"/>
     <use xlink:href="#Cambria-32" x="1615.476562"/>
    </g>
   </g>
   <g id="legend_1">
    <g id="patch_7">
     <path d="M 71.791563 55.374687 
L 198.618437 55.374687 
Q 201.418438 55.374687 201.418438 52.574687 
L 201.418438 34.18 
Q 201.418438 31.38 198.618437 31.38 
L 71.791563 31.38 
Q 68.991563 31.38 68.991563 34.18 
L 68.991563 52.574687 
Q 68.991563 55.374687 71.791563 55.374687 
z
" style="fill: #ffffff; opacity: 0.8; stroke: #cccccc; stroke-linejoin: miter"/>
    </g>
    <g id="line2d_32">
     <path d="M 74.591563 41.88 
L 88.591563 41.88 
L 102.591563 41.88 
" style="fill: none; stroke: #0000ff; stroke-width: 1.2; stroke-linecap: square"/>
    </g>
    <g id="text_18">
     <!-- Numerical test -->
     <g transform="translate(113.791563 46.78) scale(0.14 -0.14)">
      <defs>
       <path id="TimesNewRomanPSMT-4e" d="M -84 4238 
L 1066 4238 
L 3656 1059 
L 3656 3503 
Q 3656 3894 3569 3991 
Q 3453 4122 3203 4122 
L 3056 4122 
L 3056 4238 
L 4531 4238 
L 4531 4122 
L 4381 4122 
Q 4113 4122 4000 3959 
Q 3931 3859 3931 3503 
L 3931 -69 
L 3819 -69 
L 1025 3344 
L 1025 734 
Q 1025 344 1109 247 
Q 1228 116 1475 116 
L 1625 116 
L 1625 0 
L 150 0 
L 150 116 
L 297 116 
Q 569 116 681 278 
Q 750 378 750 734 
L 750 3681 
Q 566 3897 470 3965 
Q 375 4034 191 4094 
Q 100 4122 -84 4122 
L -84 4238 
z
" transform="scale(0.015625)"/>
       <path id="TimesNewRomanPSMT-75" d="M 2709 2863 
L 2709 1128 
Q 2709 631 2732 520 
Q 2756 409 2807 365 
Q 2859 322 2928 322 
Q 3025 322 3147 375 
L 3191 266 
L 2334 -88 
L 2194 -88 
L 2194 519 
Q 1825 119 1631 15 
Q 1438 -88 1222 -88 
Q 981 -88 804 51 
Q 628 191 559 409 
Q 491 628 491 1028 
L 491 2306 
Q 491 2509 447 2587 
Q 403 2666 317 2708 
Q 231 2750 6 2747 
L 6 2863 
L 1009 2863 
L 1009 947 
Q 1009 547 1148 422 
Q 1288 297 1484 297 
Q 1619 297 1789 381 
Q 1959 466 2194 703 
L 2194 2325 
Q 2194 2569 2105 2655 
Q 2016 2741 1734 2747 
L 1734 2863 
L 2709 2863 
z
" transform="scale(0.015625)"/>
       <path id="TimesNewRomanPSMT-6d" d="M 1050 2338 
Q 1363 2650 1419 2697 
Q 1559 2816 1721 2881 
Q 1884 2947 2044 2947 
Q 2313 2947 2506 2790 
Q 2700 2634 2766 2338 
Q 3088 2713 3309 2830 
Q 3531 2947 3766 2947 
Q 3994 2947 4170 2830 
Q 4347 2713 4450 2447 
Q 4519 2266 4519 1878 
L 4519 647 
Q 4519 378 4559 278 
Q 4591 209 4675 161 
Q 4759 113 4950 113 
L 4950 0 
L 3538 0 
L 3538 113 
L 3597 113 
Q 3781 113 3884 184 
Q 3956 234 3988 344 
Q 4000 397 4000 647 
L 4000 1878 
Q 4000 2228 3916 2372 
Q 3794 2572 3525 2572 
Q 3359 2572 3192 2489 
Q 3025 2406 2788 2181 
L 2781 2147 
L 2788 2013 
L 2788 647 
Q 2788 353 2820 281 
Q 2853 209 2943 161 
Q 3034 113 3253 113 
L 3253 0 
L 1806 0 
L 1806 113 
Q 2044 113 2133 169 
Q 2222 225 2256 338 
Q 2272 391 2272 647 
L 2272 1878 
Q 2272 2228 2169 2381 
Q 2031 2581 1784 2581 
Q 1616 2581 1450 2491 
Q 1191 2353 1050 2181 
L 1050 647 
Q 1050 366 1089 281 
Q 1128 197 1204 155 
Q 1281 113 1516 113 
L 1516 0 
L 100 0 
L 100 113 
Q 297 113 375 155 
Q 453 197 493 289 
Q 534 381 534 647 
L 534 1741 
Q 534 2213 506 2350 
Q 484 2453 437 2492 
Q 391 2531 309 2531 
Q 222 2531 100 2484 
L 53 2597 
L 916 2947 
L 1050 2947 
L 1050 2338 
z
" transform="scale(0.015625)"/>
       <path id="TimesNewRomanPSMT-65" d="M 681 1784 
Q 678 1147 991 784 
Q 1303 422 1725 422 
Q 2006 422 2214 576 
Q 2422 731 2563 1106 
L 2659 1044 
Q 2594 616 2278 264 
Q 1963 -88 1488 -88 
Q 972 -88 605 314 
Q 238 716 238 1394 
Q 238 2128 614 2539 
Q 991 2950 1559 2950 
Q 2041 2950 2350 2633 
Q 2659 2316 2659 1784 
L 681 1784 
z
M 681 1966 
L 2006 1966 
Q 1991 2241 1941 2353 
Q 1863 2528 1708 2628 
Q 1553 2728 1384 2728 
Q 1125 2728 920 2526 
Q 716 2325 681 1966 
z
" transform="scale(0.015625)"/>
       <path id="TimesNewRomanPSMT-72" d="M 1038 2947 
L 1038 2303 
Q 1397 2947 1775 2947 
Q 1947 2947 2059 2842 
Q 2172 2738 2172 2600 
Q 2172 2478 2090 2393 
Q 2009 2309 1897 2309 
Q 1788 2309 1652 2417 
Q 1516 2525 1450 2525 
Q 1394 2525 1328 2463 
Q 1188 2334 1038 2041 
L 1038 669 
Q 1038 431 1097 309 
Q 1138 225 1241 169 
Q 1344 113 1538 113 
L 1538 0 
L 72 0 
L 72 113 
Q 291 113 397 181 
Q 475 231 506 341 
Q 522 394 522 644 
L 522 1753 
Q 522 2253 501 2348 
Q 481 2444 426 2487 
Q 372 2531 291 2531 
Q 194 2531 72 2484 
L 41 2597 
L 906 2947 
L 1038 2947 
z
" transform="scale(0.015625)"/>
       <path id="TimesNewRomanPSMT-69" d="M 928 4444 
Q 1059 4444 1151 4351 
Q 1244 4259 1244 4128 
Q 1244 3997 1151 3903 
Q 1059 3809 928 3809 
Q 797 3809 703 3903 
Q 609 3997 609 4128 
Q 609 4259 701 4351 
Q 794 4444 928 4444 
z
M 1188 2947 
L 1188 647 
Q 1188 378 1227 289 
Q 1266 200 1342 156 
Q 1419 113 1622 113 
L 1622 0 
L 231 0 
L 231 113 
Q 441 113 512 153 
Q 584 194 626 287 
Q 669 381 669 647 
L 669 1750 
Q 669 2216 641 2353 
Q 619 2453 572 2492 
Q 525 2531 444 2531 
Q 356 2531 231 2484 
L 188 2597 
L 1050 2947 
L 1188 2947 
z
" transform="scale(0.015625)"/>
       <path id="TimesNewRomanPSMT-63" d="M 2631 1088 
Q 2516 522 2178 217 
Q 1841 -88 1431 -88 
Q 944 -88 581 321 
Q 219 731 219 1428 
Q 219 2103 620 2525 
Q 1022 2947 1584 2947 
Q 2006 2947 2278 2723 
Q 2550 2500 2550 2259 
Q 2550 2141 2473 2067 
Q 2397 1994 2259 1994 
Q 2075 1994 1981 2113 
Q 1928 2178 1911 2362 
Q 1894 2547 1784 2644 
Q 1675 2738 1481 2738 
Q 1169 2738 978 2506 
Q 725 2200 725 1697 
Q 725 1184 976 792 
Q 1228 400 1656 400 
Q 1963 400 2206 609 
Q 2378 753 2541 1131 
L 2631 1088 
z
" transform="scale(0.015625)"/>
       <path id="TimesNewRomanPSMT-61" d="M 1822 413 
Q 1381 72 1269 19 
Q 1100 -59 909 -59 
Q 613 -59 420 144 
Q 228 347 228 678 
Q 228 888 322 1041 
Q 450 1253 767 1440 
Q 1084 1628 1822 1897 
L 1822 2009 
Q 1822 2438 1686 2597 
Q 1550 2756 1291 2756 
Q 1094 2756 978 2650 
Q 859 2544 859 2406 
L 866 2225 
Q 866 2081 792 2003 
Q 719 1925 600 1925 
Q 484 1925 411 2006 
Q 338 2088 338 2228 
Q 338 2497 613 2722 
Q 888 2947 1384 2947 
Q 1766 2947 2009 2819 
Q 2194 2722 2281 2516 
Q 2338 2381 2338 1966 
L 2338 994 
Q 2338 584 2353 492 
Q 2369 400 2405 369 
Q 2441 338 2488 338 
Q 2538 338 2575 359 
Q 2641 400 2828 588 
L 2828 413 
Q 2478 -56 2159 -56 
Q 2006 -56 1915 50 
Q 1825 156 1822 413 
z
M 1822 616 
L 1822 1706 
Q 1350 1519 1213 1441 
Q 966 1303 859 1153 
Q 753 1003 753 825 
Q 753 600 887 451 
Q 1022 303 1197 303 
Q 1434 303 1822 616 
z
" transform="scale(0.015625)"/>
       <path id="TimesNewRomanPSMT-6c" d="M 1184 4444 
L 1184 647 
Q 1184 378 1223 290 
Q 1263 203 1344 158 
Q 1425 113 1647 113 
L 1647 0 
L 244 0 
L 244 113 
Q 441 113 512 153 
Q 584 194 625 287 
Q 666 381 666 647 
L 666 3247 
Q 666 3731 644 3842 
Q 622 3953 573 3993 
Q 525 4034 450 4034 
Q 369 4034 244 3984 
L 191 4094 
L 1044 4444 
L 1184 4444 
z
" transform="scale(0.015625)"/>
       <path id="TimesNewRomanPSMT-20" transform="scale(0.015625)"/>
       <path id="TimesNewRomanPSMT-74" d="M 1031 3803 
L 1031 2863 
L 1700 2863 
L 1700 2644 
L 1031 2644 
L 1031 788 
Q 1031 509 1111 412 
Q 1191 316 1316 316 
Q 1419 316 1516 380 
Q 1613 444 1666 569 
L 1788 569 
Q 1678 263 1478 108 
Q 1278 -47 1066 -47 
Q 922 -47 784 33 
Q 647 113 581 261 
Q 516 409 516 719 
L 516 2644 
L 63 2644 
L 63 2747 
Q 234 2816 414 2980 
Q 594 3144 734 3369 
Q 806 3488 934 3803 
L 1031 3803 
z
" transform="scale(0.015625)"/>
       <path id="TimesNewRomanPSMT-73" d="M 2050 2947 
L 2050 1972 
L 1947 1972 
Q 1828 2431 1642 2597 
Q 1456 2763 1169 2763 
Q 950 2763 815 2647 
Q 681 2531 681 2391 
Q 681 2216 781 2091 
Q 878 1963 1175 1819 
L 1631 1597 
Q 2266 1288 2266 781 
Q 2266 391 1970 151 
Q 1675 -88 1309 -88 
Q 1047 -88 709 6 
Q 606 38 541 38 
Q 469 38 428 -44 
L 325 -44 
L 325 978 
L 428 978 
Q 516 541 762 319 
Q 1009 97 1316 97 
Q 1531 97 1667 223 
Q 1803 350 1803 528 
Q 1803 744 1651 891 
Q 1500 1038 1047 1263 
Q 594 1488 453 1669 
Q 313 1847 313 2119 
Q 313 2472 555 2709 
Q 797 2947 1181 2947 
Q 1350 2947 1591 2875 
Q 1750 2828 1803 2828 
Q 1853 2828 1881 2850 
Q 1909 2872 1947 2947 
L 2050 2947 
z
" transform="scale(0.015625)"/>
      </defs>
      <use xlink:href="#TimesNewRomanPSMT-4e"/>
      <use xlink:href="#TimesNewRomanPSMT-75" x="72.216797"/>
      <use xlink:href="#TimesNewRomanPSMT-6d" x="122.216797"/>
      <use xlink:href="#TimesNewRomanPSMT-65" x="200"/>
      <use xlink:href="#TimesNewRomanPSMT-72" x="244.384766"/>
      <use xlink:href="#TimesNewRomanPSMT-69" x="277.685547"/>
      <use xlink:href="#TimesNewRomanPSMT-63" x="305.46875"/>
      <use xlink:href="#TimesNewRomanPSMT-61" x="349.853516"/>
      <use xlink:href="#TimesNewRomanPSMT-6c" x="394.238281"/>
      <use xlink:href="#TimesNewRomanPSMT-20" x="422.021484"/>
      <use xlink:href="#TimesNewRomanPSMT-74" x="447.021484"/>
      <use xlink:href="#TimesNewRomanPSMT-65" x="474.804688"/>
      <use xlink:href="#TimesNewRomanPSMT-73" x="519.189453"/>
      <use xlink:href="#TimesNewRomanPSMT-74" x="558.105469"/>
     </g>
    </g>
   </g>
  </g>
 </g>
 <defs>
  <clipPath id="pd4b8325c5e">
   <rect x="61.991563" y="24.38" width="419.47" height="348.76"/>
  </clipPath>
 </defs>
</svg>
