<?xml version="1.0" encoding="utf-8" standalone="no"?>
<!DOCTYPE svg PUBLIC "-//W3C//DTD SVG 1.1//EN"
  "http://www.w3.org/Graphics/SVG/1.1/DTD/svg11.dtd">
<svg xmlns:xlink="http://www.w3.org/1999/xlink" width="488.751562pt" height="416.844062pt" viewBox="0 0 488.751562 416.844062" xmlns="http://www.w3.org/2000/svg" version="1.1">
 <metadata>
  <rdf:RDF xmlns:dc="http://purl.org/dc/elements/1.1/" xmlns:cc="http://creativecommons.org/ns#" xmlns:rdf="http://www.w3.org/1999/02/22-rdf-syntax-ns#">
   <cc:Work>
    <dc:type rdf:resource="http://purl.org/dc/dcmitype/StillImage"/>
    <dc:date>2023-11-30T17:05:35.284717</dc:date>
    <dc:format>image/svg+xml</dc:format>
    <dc:creator>
     <cc:Agent>
      <dc:title>Matplotlib v3.7.1, https://matplotlib.org/</dc:title>
     </cc:Agent>
    </dc:creator>
   </cc:Work>
  </rdf:RDF>
 </metadata>
 <defs>
  <style type="text/css">*{stroke-linejoin: round; stroke-linecap: butt}</style>
 </defs>
 <g id="figure_1">
  <g id="patch_1">
   <path d="M 0 416.844062 
L 488.751562 416.844062 
L 488.751562 0 
L 0 0 
z
" style="fill: #ffffff"/>
  </g>
  <g id="axes_1">
   <g id="patch_2">
    <path d="M 61.991563 373.14 
L 481.551562 373.14 
L 481.551562 24.38 
L 61.991563 24.38 
z
" style="fill: #ffffff"/>
   </g>
   <g id="matplotlib.axis_1">
    <g id="xtick_1">
     <g id="line2d_1">
      <path d="M 103.438312 373.14 
L 103.438312 24.38 
" clip-path="url(#p21bd097c30)" style="fill: none; stroke-dasharray: 0.8,1.32; stroke-dashoffset: 0; stroke: #b0b0b0; stroke-width: 0.8"/>
     </g>
     <g id="line2d_2">
      <defs>
       <path id="m09c48243e2" d="M 0 0 
L 0 3.5 
" style="stroke: #000000; stroke-width: 0.8"/>
      </defs>
      <g>
       <use xlink:href="#m09c48243e2" x="103.438312" y="373.14" style="stroke: #000000; stroke-width: 0.8"/>
      </g>
     </g>
     <g id="text_1">
      <!-- −75 -->
      <g transform="translate(91.809562 389.9225) scale(0.14 -0.14)">
       <defs>
        <path id="Cambria-2212" d="M 397 1613 
L 397 2047 
L 3147 2047 
L 3147 1613 
L 397 1613 
z
" transform="scale(0.015625)"/>
        <path id="Cambria-37" d="M 3206 4116 
L 1388 -22 
L 934 -22 
L 934 131 
L 2619 3697 
L 2619 3744 
L 1244 3744 
Q 1116 3744 1039 3720 
Q 963 3697 911 3653 
Q 859 3609 825 3537 
Q 791 3466 731 3253 
L 463 3253 
L 525 4266 
L 3206 4266 
L 3206 4116 
z
" transform="scale(0.015625)"/>
        <path id="Cambria-35" d="M 469 172 
L 469 834 
L 847 834 
Q 941 516 1130 366 
Q 1319 216 1619 216 
Q 2034 216 2246 466 
Q 2459 716 2459 1213 
Q 2459 1544 2346 1761 
Q 2234 1978 2043 2075 
Q 1853 2172 1600 2172 
Q 1388 2172 1234 2145 
Q 1081 2119 906 2063 
L 656 2209 
L 656 4266 
L 2378 4266 
Q 2484 4266 2531 4283 
Q 2578 4300 2606 4336 
Q 2634 4372 2672 4472 
L 2916 4472 
L 2869 3747 
L 1072 3747 
L 1072 2375 
Q 1234 2444 1425 2478 
Q 1616 2513 1806 2513 
Q 2178 2513 2465 2361 
Q 2753 2209 2909 1929 
Q 3066 1650 3066 1281 
Q 3066 863 2891 563 
Q 2716 263 2384 106 
Q 2053 -50 1600 -50 
Q 1059 -50 469 172 
z
" transform="scale(0.015625)"/>
       </defs>
       <use xlink:href="#Cambria-2212"/>
       <use xlink:href="#Cambria-37" x="55.371094"/>
       <use xlink:href="#Cambria-35" x="110.742188"/>
      </g>
     </g>
    </g>
    <g id="xtick_2">
     <g id="line2d_3">
      <path d="M 159.377913 373.14 
L 159.377913 24.38 
" clip-path="url(#p21bd097c30)" style="fill: none; stroke-dasharray: 0.8,1.32; stroke-dashoffset: 0; stroke: #b0b0b0; stroke-width: 0.8"/>
     </g>
     <g id="line2d_4">
      <g>
       <use xlink:href="#m09c48243e2" x="159.377913" y="373.14" style="stroke: #000000; stroke-width: 0.8"/>
      </g>
     </g>
     <g id="text_2">
      <!-- −50 -->
      <g transform="translate(147.749163 389.9225) scale(0.14 -0.14)">
       <defs>
        <path id="Cambria-30" d="M 1738 -50 
Q 1063 -50 733 481 
Q 403 1013 403 2094 
Q 403 2669 504 3087 
Q 606 3506 789 3779 
Q 972 4053 1228 4184 
Q 1484 4316 1788 4316 
Q 2472 4316 2806 3787 
Q 3141 3259 3141 2191 
Q 3141 1084 2783 517 
Q 2425 -50 1738 -50 
z
M 1013 2188 
Q 1013 1169 1202 692 
Q 1391 216 1788 216 
Q 2166 216 2348 664 
Q 2531 1113 2531 2053 
Q 2531 2772 2437 3217 
Q 2344 3663 2176 3856 
Q 2009 4050 1772 4050 
Q 1556 4050 1411 3922 
Q 1266 3794 1177 3553 
Q 1088 3313 1050 2967 
Q 1013 2622 1013 2188 
z
" transform="scale(0.015625)"/>
       </defs>
       <use xlink:href="#Cambria-2212"/>
       <use xlink:href="#Cambria-35" x="55.371094"/>
       <use xlink:href="#Cambria-30" x="110.742188"/>
      </g>
     </g>
    </g>
    <g id="xtick_3">
     <g id="line2d_5">
      <path d="M 215.317514 373.14 
L 215.317514 24.38 
" clip-path="url(#p21bd097c30)" style="fill: none; stroke-dasharray: 0.8,1.32; stroke-dashoffset: 0; stroke: #b0b0b0; stroke-width: 0.8"/>
     </g>
     <g id="line2d_6">
      <g>
       <use xlink:href="#m09c48243e2" x="215.317514" y="373.14" style="stroke: #000000; stroke-width: 0.8"/>
      </g>
     </g>
     <g id="text_3">
      <!-- −25 -->
      <g transform="translate(203.688764 389.9225) scale(0.14 -0.14)">
       <defs>
        <path id="Cambria-32" d="M 2194 500 
Q 2347 500 2440 519 
Q 2534 538 2590 581 
Q 2647 625 2680 695 
Q 2713 766 2763 913 
L 3028 913 
L 2975 0 
L 403 0 
L 403 150 
Q 538 478 766 822 
Q 994 1166 1413 1631 
Q 1775 2031 1934 2238 
Q 2109 2463 2195 2627 
Q 2281 2791 2318 2936 
Q 2356 3081 2356 3228 
Q 2356 3463 2281 3642 
Q 2206 3822 2051 3925 
Q 1897 4028 1663 4028 
Q 1078 4028 875 3378 
L 497 3378 
L 497 3978 
Q 875 4156 1204 4236 
Q 1534 4316 1797 4316 
Q 2378 4316 2675 4061 
Q 2972 3806 2972 3322 
Q 2972 3156 2939 3017 
Q 2906 2878 2836 2742 
Q 2766 2606 2647 2450 
Q 2528 2294 2384 2133 
Q 2241 1972 1888 1597 
Q 1294 969 1016 500 
L 2194 500 
z
" transform="scale(0.015625)"/>
       </defs>
       <use xlink:href="#Cambria-2212"/>
       <use xlink:href="#Cambria-32" x="55.371094"/>
       <use xlink:href="#Cambria-35" x="110.742188"/>
      </g>
     </g>
    </g>
    <g id="xtick_4">
     <g id="line2d_7">
      <path d="M 271.257115 373.14 
L 271.257115 24.38 
" clip-path="url(#p21bd097c30)" style="fill: none; stroke-dasharray: 0.8,1.32; stroke-dashoffset: 0; stroke: #b0b0b0; stroke-width: 0.8"/>
     </g>
     <g id="line2d_8">
      <g>
       <use xlink:href="#m09c48243e2" x="271.257115" y="373.14" style="stroke: #000000; stroke-width: 0.8"/>
      </g>
     </g>
     <g id="text_4">
      <!-- 0 -->
      <g transform="translate(267.380865 389.9225) scale(0.14 -0.14)">
       <use xlink:href="#Cambria-30"/>
      </g>
     </g>
    </g>
    <g id="xtick_5">
     <g id="line2d_9">
      <path d="M 327.196716 373.14 
L 327.196716 24.38 
" clip-path="url(#p21bd097c30)" style="fill: none; stroke-dasharray: 0.8,1.32; stroke-dashoffset: 0; stroke: #b0b0b0; stroke-width: 0.8"/>
     </g>
     <g id="line2d_10">
      <g>
       <use xlink:href="#m09c48243e2" x="327.196716" y="373.14" style="stroke: #000000; stroke-width: 0.8"/>
      </g>
     </g>
     <g id="text_5">
      <!-- 25 -->
      <g transform="translate(319.444216 389.9225) scale(0.14 -0.14)">
       <use xlink:href="#Cambria-32"/>
       <use xlink:href="#Cambria-35" x="55.371094"/>
      </g>
     </g>
    </g>
    <g id="xtick_6">
     <g id="line2d_11">
      <path d="M 383.136317 373.14 
L 383.136317 24.38 
" clip-path="url(#p21bd097c30)" style="fill: none; stroke-dasharray: 0.8,1.32; stroke-dashoffset: 0; stroke: #b0b0b0; stroke-width: 0.8"/>
     </g>
     <g id="line2d_12">
      <g>
       <use xlink:href="#m09c48243e2" x="383.136317" y="373.14" style="stroke: #000000; stroke-width: 0.8"/>
      </g>
     </g>
     <g id="text_6">
      <!-- 50 -->
      <g transform="translate(375.383817 389.9225) scale(0.14 -0.14)">
       <use xlink:href="#Cambria-35"/>
       <use xlink:href="#Cambria-30" x="55.371094"/>
      </g>
     </g>
    </g>
    <g id="xtick_7">
     <g id="line2d_13">
      <path d="M 439.075918 373.14 
L 439.075918 24.38 
" clip-path="url(#p21bd097c30)" style="fill: none; stroke-dasharray: 0.8,1.32; stroke-dashoffset: 0; stroke: #b0b0b0; stroke-width: 0.8"/>
     </g>
     <g id="line2d_14">
      <g>
       <use xlink:href="#m09c48243e2" x="439.075918" y="373.14" style="stroke: #000000; stroke-width: 0.8"/>
      </g>
     </g>
     <g id="text_7">
      <!-- 75 -->
      <g transform="translate(431.323418 389.9225) scale(0.14 -0.14)">
       <use xlink:href="#Cambria-37"/>
       <use xlink:href="#Cambria-35" x="55.371094"/>
      </g>
     </g>
    </g>
    <g id="text_8">
     <!-- Displacement (mm) -->
     <g transform="translate(212.424688 406.67125) scale(0.14 -0.14)">
      <defs>
       <path id="Cambria-44" d="M 375 0 
L 375 153 
Q 519 191 581 225 
Q 644 259 678 312 
Q 713 366 728 466 
Q 744 566 744 781 
L 744 3484 
Q 744 3703 728 3801 
Q 713 3900 677 3953 
Q 641 4006 581 4039 
Q 522 4072 375 4113 
L 375 4266 
L 1744 4266 
Q 2334 4266 2711 4136 
Q 3088 4006 3347 3753 
Q 3606 3500 3734 3123 
Q 3863 2747 3863 2225 
Q 3863 1697 3742 1295 
Q 3622 894 3391 622 
Q 3191 384 2900 231 
Q 2659 106 2343 53 
Q 2028 0 1506 0 
L 375 0 
z
M 1328 291 
Q 1453 278 1697 278 
Q 1959 278 2165 322 
Q 2372 366 2540 459 
Q 2709 553 2843 720 
Q 2978 888 3062 1105 
Q 3147 1322 3186 1587 
Q 3225 1853 3225 2169 
Q 3225 2803 3042 3211 
Q 2859 3619 2526 3806 
Q 2194 3994 1731 3994 
Q 1519 3994 1328 3981 
L 1328 291 
z
" transform="scale(0.015625)"/>
       <path id="Cambria-69" d="M 1197 4213 
L 1197 3606 
L 622 3606 
L 622 4213 
L 1197 4213 
z
M 303 153 
Q 425 191 476 219 
Q 528 247 564 297 
Q 600 347 620 450 
Q 641 553 641 772 
L 641 2134 
Q 641 2334 634 2456 
Q 628 2578 590 2651 
Q 553 2725 476 2761 
Q 400 2797 259 2822 
L 259 2988 
L 988 3016 
L 1178 3016 
L 1178 781 
Q 1178 513 1203 408 
Q 1228 303 1298 248 
Q 1369 194 1528 153 
L 1528 0 
L 303 0 
L 303 153 
z
" transform="scale(0.015625)"/>
       <path id="Cambria-73" d="M 2397 2303 
L 2097 2303 
Q 2028 2491 1934 2598 
Q 1841 2706 1722 2750 
Q 1603 2794 1431 2794 
Q 1181 2794 1032 2676 
Q 884 2559 884 2356 
Q 884 2213 943 2119 
Q 1003 2025 1128 1944 
Q 1253 1863 1569 1728 
Q 1888 1591 2061 1475 
Q 2234 1359 2332 1206 
Q 2431 1053 2431 841 
Q 2431 594 2347 425 
Q 2263 256 2109 150 
Q 1956 44 1745 -3 
Q 1534 -50 1284 -50 
Q 1022 -50 775 -11 
Q 528 28 294 91 
L 294 744 
L 600 744 
Q 684 456 850 326 
Q 1016 197 1306 197 
Q 1419 197 1526 220 
Q 1634 244 1718 298 
Q 1803 353 1853 447 
Q 1903 541 1903 681 
Q 1903 841 1840 941 
Q 1778 1041 1647 1123 
Q 1516 1206 1184 1347 
Q 900 1466 728 1578 
Q 556 1691 457 1844 
Q 359 1997 359 2206 
Q 359 2463 498 2652 
Q 638 2841 900 2941 
Q 1163 3041 1516 3041 
Q 1722 3041 1914 3020 
Q 2106 3000 2397 2941 
L 2397 2303 
z
" transform="scale(0.015625)"/>
       <path id="Cambria-70" d="M 1150 94 
L 1150 -566 
Q 1150 -769 1164 -869 
Q 1178 -969 1214 -1026 
Q 1250 -1084 1317 -1121 
Q 1384 -1159 1534 -1191 
L 1534 -1344 
L 259 -1344 
L 259 -1191 
Q 372 -1159 442 -1126 
Q 513 -1094 550 -1030 
Q 588 -966 600 -856 
Q 613 -747 613 -566 
L 613 2116 
Q 613 2341 606 2436 
Q 600 2531 581 2593 
Q 563 2656 527 2697 
Q 491 2738 430 2766 
Q 369 2794 228 2822 
L 228 2988 
L 963 3016 
L 1153 3016 
L 1113 2506 
L 1159 2494 
Q 1353 2691 1465 2780 
Q 1578 2869 1698 2928 
Q 1819 2988 1930 3013 
Q 2041 3038 2166 3038 
Q 2681 3038 2957 2652 
Q 3234 2266 3234 1522 
Q 3234 1006 3078 654 
Q 2922 303 2623 126 
Q 2325 -50 1913 -50 
Q 1681 -50 1493 -11 
Q 1306 28 1150 94 
z
M 1150 1125 
Q 1150 825 1187 662 
Q 1225 500 1320 398 
Q 1416 297 1545 247 
Q 1675 197 1888 197 
Q 2266 197 2456 511 
Q 2647 825 2647 1438 
Q 2647 2663 1931 2663 
Q 1756 2663 1629 2608 
Q 1503 2553 1378 2431 
Q 1253 2309 1201 2195 
Q 1150 2081 1150 1950 
L 1150 1125 
z
" transform="scale(0.015625)"/>
       <path id="Cambria-6c" d="M 1138 781 
Q 1138 513 1163 408 
Q 1188 303 1258 248 
Q 1328 194 1488 153 
L 1488 0 
L 247 0 
L 247 153 
Q 403 194 464 237 
Q 525 281 551 342 
Q 578 403 589 508 
Q 600 613 600 781 
L 600 3397 
Q 600 3697 595 3815 
Q 591 3934 570 4017 
Q 550 4100 514 4147 
Q 478 4194 417 4222 
Q 356 4250 197 4278 
L 197 4441 
L 950 4472 
L 1138 4472 
L 1138 781 
z
" transform="scale(0.015625)"/>
       <path id="Cambria-61" d="M 2109 447 
L 2063 459 
Q 1791 181 1552 65 
Q 1313 -50 1044 -50 
Q 806 -50 625 42 
Q 444 134 347 301 
Q 250 469 250 688 
Q 250 1144 701 1392 
Q 1153 1641 2056 1681 
L 2056 1884 
Q 2056 2209 1993 2396 
Q 1931 2584 1797 2671 
Q 1663 2759 1438 2759 
Q 1194 2759 1045 2631 
Q 897 2503 822 2247 
L 413 2247 
L 413 2653 
Q 713 2809 913 2882 
Q 1113 2956 1313 2998 
Q 1513 3041 1719 3041 
Q 2028 3041 2215 2942 
Q 2403 2844 2497 2641 
Q 2591 2438 2591 2028 
L 2591 941 
Q 2591 709 2594 614 
Q 2597 519 2612 437 
Q 2628 356 2659 307 
Q 2691 259 2752 225 
Q 2813 191 2950 153 
L 2950 0 
L 2094 0 
L 2109 447 
z
M 2056 1425 
Q 1422 1419 1106 1256 
Q 791 1094 791 766 
Q 791 588 862 484 
Q 934 381 1043 342 
Q 1153 303 1303 303 
Q 1516 303 1689 406 
Q 1863 509 1959 668 
Q 2056 828 2056 984 
L 2056 1425 
z
" transform="scale(0.015625)"/>
       <path id="Cambria-63" d="M 2631 2916 
L 2631 2263 
L 2234 2263 
Q 2181 2466 2103 2583 
Q 2025 2700 1922 2747 
Q 1819 2794 1666 2794 
Q 1447 2794 1278 2653 
Q 1109 2513 1011 2225 
Q 913 1938 913 1522 
Q 913 1256 950 1036 
Q 988 816 1078 659 
Q 1169 503 1319 415 
Q 1469 328 1691 328 
Q 1906 328 2092 412 
Q 2278 497 2478 709 
L 2656 503 
Q 2497 328 2375 233 
Q 2253 138 2114 73 
Q 1975 9 1839 -20 
Q 1703 -50 1544 -50 
Q 953 -50 640 342 
Q 328 734 328 1475 
Q 328 1938 503 2295 
Q 678 2653 993 2847 
Q 1309 3041 1722 3041 
Q 1978 3041 2195 3011 
Q 2413 2981 2631 2916 
z
" transform="scale(0.015625)"/>
       <path id="Cambria-65" d="M 2800 531 
Q 2600 322 2433 203 
Q 2266 84 2066 17 
Q 1866 -50 1625 -50 
Q 981 -50 653 336 
Q 325 722 325 1475 
Q 325 1941 492 2297 
Q 659 2653 968 2847 
Q 1278 3041 1681 3041 
Q 1997 3041 2219 2941 
Q 2441 2841 2573 2667 
Q 2706 2494 2779 2230 
Q 2853 1966 2863 1541 
L 894 1541 
L 894 1484 
Q 894 1116 976 864 
Q 1059 613 1248 470 
Q 1438 328 1741 328 
Q 1997 328 2201 423 
Q 2406 519 2609 734 
L 2800 531 
z
M 2275 1800 
Q 2256 2138 2190 2352 
Q 2125 2566 1994 2680 
Q 1863 2794 1650 2794 
Q 1328 2794 1136 2536 
Q 944 2278 909 1800 
L 2275 1800 
z
" transform="scale(0.015625)"/>
       <path id="Cambria-6d" d="M 1147 2506 
L 1191 2494 
Q 1378 2681 1498 2776 
Q 1619 2872 1731 2930 
Q 1844 2988 1942 3013 
Q 2041 3038 2144 3038 
Q 2456 3038 2653 2894 
Q 2850 2750 2925 2453 
Q 3159 2691 3304 2803 
Q 3450 2916 3601 2977 
Q 3753 3038 3928 3038 
Q 4138 3038 4289 2977 
Q 4441 2916 4545 2789 
Q 4650 2663 4698 2472 
Q 4747 2281 4747 1959 
L 4747 781 
Q 4747 544 4762 453 
Q 4778 363 4808 313 
Q 4838 263 4897 227 
Q 4956 191 5097 153 
L 5097 0 
L 3869 0 
L 3869 153 
Q 3991 191 4044 219 
Q 4097 247 4133 297 
Q 4169 347 4189 451 
Q 4209 556 4209 769 
L 4209 1588 
Q 4209 1853 4195 2026 
Q 4181 2200 4151 2303 
Q 4122 2406 4080 2465 
Q 4038 2525 3984 2569 
Q 3931 2613 3859 2638 
Q 3788 2663 3669 2663 
Q 3544 2663 3436 2613 
Q 3328 2563 3201 2444 
Q 3075 2325 3019 2204 
Q 2963 2084 2963 1922 
L 2963 781 
Q 2963 544 2978 453 
Q 2994 363 3023 313 
Q 3053 263 3112 227 
Q 3172 191 3313 153 
L 3313 0 
L 2084 0 
L 2084 153 
Q 2206 191 2259 219 
Q 2313 247 2348 297 
Q 2384 347 2404 451 
Q 2425 556 2425 769 
L 2425 1588 
Q 2425 1866 2409 2041 
Q 2394 2216 2361 2322 
Q 2328 2428 2276 2493 
Q 2225 2559 2172 2593 
Q 2119 2628 2047 2645 
Q 1975 2663 1884 2663 
Q 1756 2663 1643 2605 
Q 1531 2547 1414 2437 
Q 1297 2328 1237 2209 
Q 1178 2091 1178 1953 
L 1178 781 
Q 1178 603 1187 509 
Q 1197 416 1217 362 
Q 1238 309 1269 276 
Q 1300 244 1358 214 
Q 1416 184 1531 153 
L 1531 0 
L 306 0 
L 306 153 
Q 425 191 476 219 
Q 528 247 565 297 
Q 603 347 622 450 
Q 641 553 641 772 
L 641 2134 
Q 641 2334 634 2456 
Q 628 2578 590 2651 
Q 553 2725 476 2761 
Q 400 2797 259 2822 
L 259 2988 
L 991 3016 
L 1181 3016 
L 1147 2506 
z
" transform="scale(0.015625)"/>
       <path id="Cambria-6e" d="M 3347 0 
L 2116 0 
L 2116 153 
Q 2238 191 2291 219 
Q 2344 247 2380 297 
Q 2416 347 2436 451 
Q 2456 556 2456 769 
L 2456 1588 
Q 2456 1806 2443 1984 
Q 2431 2163 2401 2277 
Q 2372 2391 2330 2455 
Q 2288 2519 2230 2564 
Q 2172 2609 2097 2636 
Q 2022 2663 1900 2663 
Q 1778 2663 1668 2614 
Q 1559 2566 1428 2447 
Q 1297 2328 1237 2212 
Q 1178 2097 1178 1947 
L 1178 781 
Q 1178 513 1203 408 
Q 1228 303 1298 248 
Q 1369 194 1528 153 
L 1528 0 
L 303 0 
L 303 153 
Q 425 191 476 219 
Q 528 247 564 297 
Q 600 347 620 450 
Q 641 553 641 772 
L 641 2134 
Q 641 2334 634 2456 
Q 628 2578 590 2651 
Q 553 2725 476 2761 
Q 400 2797 259 2822 
L 259 2988 
L 991 3016 
L 1181 3016 
L 1147 2506 
L 1191 2494 
Q 1422 2728 1564 2828 
Q 1706 2928 1851 2983 
Q 1997 3038 2159 3038 
Q 2328 3038 2461 2998 
Q 2594 2959 2695 2878 
Q 2797 2797 2862 2676 
Q 2928 2556 2961 2387 
Q 2994 2219 2994 1959 
L 2994 781 
Q 2994 566 3006 469 
Q 3019 372 3050 319 
Q 3081 266 3140 230 
Q 3200 194 3347 153 
L 3347 0 
z
" transform="scale(0.015625)"/>
       <path id="Cambria-74" d="M 116 2831 
Q 272 2856 369 2918 
Q 466 2981 520 3079 
Q 575 3178 606 3326 
Q 638 3475 672 3759 
L 1116 3759 
L 1116 2988 
L 2125 2988 
L 2125 2672 
L 1116 2672 
L 1116 1281 
Q 1116 978 1141 798 
Q 1166 619 1234 517 
Q 1303 416 1390 372 
Q 1478 328 1616 328 
Q 1741 328 1850 379 
Q 1959 431 2066 528 
L 2206 359 
Q 1984 144 1786 47 
Q 1588 -50 1375 -50 
Q 972 -50 775 189 
Q 578 428 578 938 
L 578 2672 
L 116 2672 
L 116 2831 
z
" transform="scale(0.015625)"/>
       <path id="Cambria-20" transform="scale(0.015625)"/>
       <path id="Cambria-28" d="M 2309 -1359 
Q 1778 -1359 1442 -1200 
Q 1106 -1041 918 -714 
Q 731 -388 647 134 
Q 563 656 563 1550 
Q 563 2438 645 2964 
Q 728 3491 915 3822 
Q 1103 4153 1440 4318 
Q 1778 4484 2309 4484 
L 2309 4228 
Q 2091 4228 1922 4191 
Q 1731 4147 1597 4022 
Q 1447 3884 1353 3638 
Q 1244 3350 1191 2875 
Q 1134 2372 1134 1575 
Q 1134 872 1181 379 
Q 1228 -113 1338 -425 
Q 1425 -688 1556 -834 
Q 1672 -963 1831 -1028 
Q 2016 -1103 2309 -1103 
L 2309 -1359 
z
" transform="scale(0.015625)"/>
       <path id="Cambria-29" d="M 134 4484 
Q 666 4484 1002 4325 
Q 1338 4166 1525 3839 
Q 1713 3513 1797 2991 
Q 1881 2469 1881 1575 
Q 1881 688 1798 161 
Q 1716 -366 1528 -697 
Q 1341 -1028 1003 -1193 
Q 666 -1359 134 -1359 
L 134 -1103 
Q 353 -1103 522 -1066 
Q 713 -1022 847 -897 
Q 997 -759 1091 -513 
Q 1200 -225 1253 250 
Q 1309 753 1309 1550 
Q 1309 2253 1262 2745 
Q 1216 3238 1106 3550 
Q 1019 3813 888 3959 
Q 772 4088 613 4153 
Q 428 4228 134 4228 
L 134 4484 
z
" transform="scale(0.015625)"/>
      </defs>
      <use xlink:href="#Cambria-44"/>
      <use xlink:href="#Cambria-69" x="66.162109"/>
      <use xlink:href="#Cambria-73" x="93.945312"/>
      <use xlink:href="#Cambria-70" x="136.914062"/>
      <use xlink:href="#Cambria-6c" x="192.529297"/>
      <use xlink:href="#Cambria-61" x="219.677734"/>
      <use xlink:href="#Cambria-63" x="268.505859"/>
      <use xlink:href="#Cambria-65" x="312.597656"/>
      <use xlink:href="#Cambria-6d" x="361.376953"/>
      <use xlink:href="#Cambria-65" x="444.580078"/>
      <use xlink:href="#Cambria-6e" x="493.359375"/>
      <use xlink:href="#Cambria-74" x="549.169922"/>
      <use xlink:href="#Cambria-20" x="583.007812"/>
      <use xlink:href="#Cambria-28" x="605.029297"/>
      <use xlink:href="#Cambria-6d" x="643.212891"/>
      <use xlink:href="#Cambria-6d" x="726.416016"/>
      <use xlink:href="#Cambria-29" x="809.619141"/>
     </g>
    </g>
   </g>
   <g id="matplotlib.axis_2">
    <g id="ytick_1">
     <g id="line2d_15">
      <path d="M 61.991563 348.111468 
L 481.551562 348.111468 
" clip-path="url(#p21bd097c30)" style="fill: none; stroke-dasharray: 0.8,1.32; stroke-dashoffset: 0; stroke: #b0b0b0; stroke-width: 0.8"/>
     </g>
     <g id="line2d_16">
      <defs>
       <path id="m55eba2c178" d="M 0 0 
L -3.5 0 
" style="stroke: #000000; stroke-width: 0.8"/>
      </defs>
      <g>
       <use xlink:href="#m55eba2c178" x="61.991563" y="348.111468" style="stroke: #000000; stroke-width: 0.8"/>
      </g>
     </g>
     <g id="text_9">
      <!-- −150 -->
      <g transform="translate(23.981563 353.002718) scale(0.14 -0.14)">
       <defs>
        <path id="Cambria-31" d="M 2172 816 
Q 2172 634 2192 542 
Q 2213 450 2264 392 
Q 2316 334 2412 301 
Q 2509 269 2656 251 
Q 2803 234 3044 228 
L 3044 0 
L 734 0 
L 734 228 
Q 1081 244 1229 270 
Q 1378 297 1456 350 
Q 1534 403 1570 500 
Q 1606 597 1606 816 
L 1606 3350 
Q 1606 3475 1562 3533 
Q 1519 3591 1434 3591 
Q 1334 3591 1150 3487 
Q 966 3384 694 3203 
L 556 3444 
L 2019 4316 
L 2191 4316 
Q 2172 4016 2172 3484 
L 2172 816 
z
" transform="scale(0.015625)"/>
       </defs>
       <use xlink:href="#Cambria-2212"/>
       <use xlink:href="#Cambria-31" x="55.371094"/>
       <use xlink:href="#Cambria-35" x="110.742188"/>
       <use xlink:href="#Cambria-30" x="166.113281"/>
      </g>
     </g>
    </g>
    <g id="ytick_2">
     <g id="line2d_17">
      <path d="M 61.991563 298.509231 
L 481.551562 298.509231 
" clip-path="url(#p21bd097c30)" style="fill: none; stroke-dasharray: 0.8,1.32; stroke-dashoffset: 0; stroke: #b0b0b0; stroke-width: 0.8"/>
     </g>
     <g id="line2d_18">
      <g>
       <use xlink:href="#m55eba2c178" x="61.991563" y="298.509231" style="stroke: #000000; stroke-width: 0.8"/>
      </g>
     </g>
     <g id="text_10">
      <!-- −100 -->
      <g transform="translate(23.981563 303.400481) scale(0.14 -0.14)">
       <use xlink:href="#Cambria-2212"/>
       <use xlink:href="#Cambria-31" x="55.371094"/>
       <use xlink:href="#Cambria-30" x="110.742188"/>
       <use xlink:href="#Cambria-30" x="166.113281"/>
      </g>
     </g>
    </g>
    <g id="ytick_3">
     <g id="line2d_19">
      <path d="M 61.991563 248.906995 
L 481.551562 248.906995 
" clip-path="url(#p21bd097c30)" style="fill: none; stroke-dasharray: 0.8,1.32; stroke-dashoffset: 0; stroke: #b0b0b0; stroke-width: 0.8"/>
     </g>
     <g id="line2d_20">
      <g>
       <use xlink:href="#m55eba2c178" x="61.991563" y="248.906995" style="stroke: #000000; stroke-width: 0.8"/>
      </g>
     </g>
     <g id="text_11">
      <!-- −50 -->
      <g transform="translate(31.734063 253.798245) scale(0.14 -0.14)">
       <use xlink:href="#Cambria-2212"/>
       <use xlink:href="#Cambria-35" x="55.371094"/>
       <use xlink:href="#Cambria-30" x="110.742188"/>
      </g>
     </g>
    </g>
    <g id="ytick_4">
     <g id="line2d_21">
      <path d="M 61.991563 199.304759 
L 481.551562 199.304759 
" clip-path="url(#p21bd097c30)" style="fill: none; stroke-dasharray: 0.8,1.32; stroke-dashoffset: 0; stroke: #b0b0b0; stroke-width: 0.8"/>
     </g>
     <g id="line2d_22">
      <g>
       <use xlink:href="#m55eba2c178" x="61.991563" y="199.304759" style="stroke: #000000; stroke-width: 0.8"/>
      </g>
     </g>
     <g id="text_12">
      <!-- 0 -->
      <g transform="translate(47.239063 204.196009) scale(0.14 -0.14)">
       <use xlink:href="#Cambria-30"/>
      </g>
     </g>
    </g>
    <g id="ytick_5">
     <g id="line2d_23">
      <path d="M 61.991563 149.702523 
L 481.551562 149.702523 
" clip-path="url(#p21bd097c30)" style="fill: none; stroke-dasharray: 0.8,1.32; stroke-dashoffset: 0; stroke: #b0b0b0; stroke-width: 0.8"/>
     </g>
     <g id="line2d_24">
      <g>
       <use xlink:href="#m55eba2c178" x="61.991563" y="149.702523" style="stroke: #000000; stroke-width: 0.8"/>
      </g>
     </g>
     <g id="text_13">
      <!-- 50 -->
      <g transform="translate(39.486563 154.593773) scale(0.14 -0.14)">
       <use xlink:href="#Cambria-35"/>
       <use xlink:href="#Cambria-30" x="55.371094"/>
      </g>
     </g>
    </g>
    <g id="ytick_6">
     <g id="line2d_25">
      <path d="M 61.991563 100.100287 
L 481.551562 100.100287 
" clip-path="url(#p21bd097c30)" style="fill: none; stroke-dasharray: 0.8,1.32; stroke-dashoffset: 0; stroke: #b0b0b0; stroke-width: 0.8"/>
     </g>
     <g id="line2d_26">
      <g>
       <use xlink:href="#m55eba2c178" x="61.991563" y="100.100287" style="stroke: #000000; stroke-width: 0.8"/>
      </g>
     </g>
     <g id="text_14">
      <!-- 100 -->
      <g transform="translate(31.734063 104.991537) scale(0.14 -0.14)">
       <use xlink:href="#Cambria-31"/>
       <use xlink:href="#Cambria-30" x="55.371094"/>
       <use xlink:href="#Cambria-30" x="110.742188"/>
      </g>
     </g>
    </g>
    <g id="ytick_7">
     <g id="line2d_27">
      <path d="M 61.991563 50.498051 
L 481.551562 50.498051 
" clip-path="url(#p21bd097c30)" style="fill: none; stroke-dasharray: 0.8,1.32; stroke-dashoffset: 0; stroke: #b0b0b0; stroke-width: 0.8"/>
     </g>
     <g id="line2d_28">
      <g>
       <use xlink:href="#m55eba2c178" x="61.991563" y="50.498051" style="stroke: #000000; stroke-width: 0.8"/>
      </g>
     </g>
     <g id="text_15">
      <!-- 150 -->
      <g transform="translate(31.734063 55.389301) scale(0.14 -0.14)">
       <use xlink:href="#Cambria-31"/>
       <use xlink:href="#Cambria-35" x="55.371094"/>
       <use xlink:href="#Cambria-30" x="110.742188"/>
      </g>
     </g>
    </g>
    <g id="text_16">
     <!-- Base Shear (kN) -->
     <g transform="translate(17.00875 246.80625) rotate(-90) scale(0.14 -0.14)">
      <defs>
       <path id="Cambria-42" d="M 378 0 
L 378 153 
Q 572 203 637 264 
Q 703 325 723 437 
Q 744 550 744 781 
L 744 3484 
Q 744 3700 728 3798 
Q 713 3897 677 3951 
Q 641 4006 581 4039 
Q 522 4072 378 4113 
L 378 4266 
L 2088 4266 
Q 2584 4266 2886 4159 
Q 3188 4053 3334 3845 
Q 3481 3638 3481 3309 
Q 3481 3038 3376 2838 
Q 3272 2638 3103 2506 
Q 2934 2375 2669 2263 
L 2669 2234 
Q 3094 2106 3312 1839 
Q 3531 1572 3531 1203 
Q 3531 778 3342 509 
Q 3153 241 2812 120 
Q 2472 0 1988 0 
L 378 0 
z
M 1875 2353 
Q 2350 2353 2601 2583 
Q 2853 2813 2853 3250 
Q 2853 3466 2783 3608 
Q 2713 3750 2589 3834 
Q 2466 3919 2297 3955 
Q 2128 3991 1931 3991 
Q 1813 3991 1619 3984 
Q 1425 3978 1328 3972 
L 1328 2353 
L 1875 2353 
z
M 1328 297 
Q 1556 275 1838 275 
Q 2247 275 2473 378 
Q 2700 481 2801 682 
Q 2903 884 2903 1188 
Q 2903 1491 2792 1687 
Q 2681 1884 2450 1981 
Q 2219 2078 1813 2078 
L 1328 2078 
L 1328 297 
z
" transform="scale(0.015625)"/>
       <path id="Cambria-53" d="M 663 972 
Q 725 697 831 537 
Q 938 378 1106 301 
Q 1275 225 1541 225 
Q 1906 225 2101 415 
Q 2297 606 2297 972 
Q 2297 1206 2215 1365 
Q 2134 1525 1950 1665 
Q 1766 1806 1388 1994 
Q 1022 2175 809 2348 
Q 597 2522 492 2725 
Q 388 2928 388 3169 
Q 388 3519 552 3776 
Q 716 4034 1033 4175 
Q 1350 4316 1759 4316 
Q 1997 4316 2223 4291 
Q 2450 4266 2791 4178 
L 2791 3334 
L 2481 3334 
Q 2409 3609 2300 3762 
Q 2191 3916 2044 3977 
Q 1897 4038 1663 4038 
Q 1459 4038 1298 3963 
Q 1138 3888 1044 3736 
Q 950 3584 950 3375 
Q 950 3153 1029 3000 
Q 1109 2847 1278 2715 
Q 1447 2584 1778 2422 
Q 2178 2222 2398 2050 
Q 2619 1878 2742 1658 
Q 2866 1438 2866 1144 
Q 2866 816 2762 589 
Q 2659 363 2476 220 
Q 2294 78 2039 14 
Q 1784 -50 1481 -50 
Q 991 -50 350 116 
L 350 972 
L 663 972 
z
" transform="scale(0.015625)"/>
       <path id="Cambria-68" d="M 1141 2497 
L 1153 2494 
Q 1397 2741 1539 2839 
Q 1681 2938 1820 2988 
Q 1959 3038 2119 3038 
Q 2291 3038 2425 2997 
Q 2559 2956 2661 2873 
Q 2763 2791 2827 2670 
Q 2891 2550 2922 2383 
Q 2953 2216 2953 1959 
L 2953 781 
Q 2953 509 2976 411 
Q 3000 313 3061 258 
Q 3122 203 3306 153 
L 3306 0 
L 2075 0 
L 2075 153 
Q 2197 191 2250 219 
Q 2303 247 2339 297 
Q 2375 347 2395 451 
Q 2416 556 2416 769 
L 2416 1588 
Q 2416 2003 2373 2223 
Q 2331 2444 2207 2553 
Q 2084 2663 1863 2663 
Q 1738 2663 1638 2619 
Q 1538 2575 1406 2462 
Q 1275 2350 1208 2231 
Q 1141 2113 1141 1978 
L 1141 781 
Q 1141 569 1152 478 
Q 1163 388 1194 327 
Q 1225 266 1289 227 
Q 1353 188 1488 153 
L 1488 0 
L 250 0 
L 250 153 
Q 388 191 447 225 
Q 506 259 539 312 
Q 572 366 587 466 
Q 603 566 603 781 
L 603 3397 
Q 603 3697 598 3815 
Q 594 3934 573 4017 
Q 553 4100 517 4147 
Q 481 4194 420 4222 
Q 359 4250 200 4278 
L 200 4441 
L 953 4472 
L 1141 4472 
L 1141 2497 
z
" transform="scale(0.015625)"/>
       <path id="Cambria-72" d="M 1147 2469 
L 1191 2459 
Q 1363 2669 1509 2789 
Q 1656 2909 1826 2975 
Q 1997 3041 2213 3041 
Q 2394 3041 2541 3022 
L 2541 2303 
L 2188 2303 
Q 2113 2472 2028 2548 
Q 1944 2625 1797 2625 
Q 1684 2625 1573 2559 
Q 1463 2494 1359 2369 
Q 1256 2244 1217 2134 
Q 1178 2025 1178 1875 
L 1178 781 
Q 1178 497 1212 389 
Q 1247 281 1326 231 
Q 1406 181 1566 153 
L 1566 0 
L 306 0 
L 306 153 
Q 425 191 476 219 
Q 528 247 565 297 
Q 603 347 622 450 
Q 641 553 641 772 
L 641 2134 
Q 641 2334 634 2456 
Q 628 2578 590 2651 
Q 553 2725 476 2761 
Q 400 2797 259 2822 
L 259 2984 
L 991 3016 
L 1181 3016 
L 1147 2469 
z
" transform="scale(0.015625)"/>
       <path id="Cambria-6b" d="M 1138 1741 
L 1238 1741 
Q 1341 1741 1406 1763 
Q 1484 1791 1578 1858 
Q 1672 1925 1844 2084 
Q 1988 2219 2061 2312 
Q 2134 2406 2163 2484 
Q 2188 2550 2188 2616 
Q 2188 2709 2130 2762 
Q 2072 2816 1941 2834 
L 1941 2988 
L 3288 2988 
L 3288 2834 
Q 3144 2806 2981 2706 
Q 2819 2606 2647 2444 
L 1928 1763 
L 2828 588 
Q 2984 381 3111 282 
Q 3238 184 3388 153 
L 3388 0 
L 2188 0 
L 2188 153 
Q 2269 163 2308 189 
Q 2347 216 2347 278 
Q 2347 325 2330 370 
Q 2313 416 2259 494 
Q 2206 572 2066 766 
L 1694 1266 
Q 1588 1406 1542 1450 
Q 1497 1494 1447 1512 
Q 1397 1531 1313 1531 
L 1138 1531 
L 1138 781 
Q 1138 513 1163 408 
Q 1188 303 1258 248 
Q 1328 194 1488 153 
L 1488 0 
L 247 0 
L 247 153 
Q 403 194 464 237 
Q 525 281 551 342 
Q 578 403 589 508 
Q 600 613 600 781 
L 600 3397 
Q 600 3697 595 3815 
Q 591 3934 570 4017 
Q 550 4100 514 4147 
Q 478 4194 417 4222 
Q 356 4250 197 4278 
L 197 4441 
L 950 4472 
L 1138 4472 
L 1138 1741 
z
" transform="scale(0.015625)"/>
       <path id="Cambria-4e" d="M 2888 1691 
Q 3000 1503 3076 1362 
Q 3153 1222 3234 1047 
L 3275 1047 
Q 3259 1238 3246 1805 
Q 3234 2372 3234 2828 
L 3234 3484 
Q 3234 3700 3221 3800 
Q 3209 3900 3176 3953 
Q 3144 4006 3086 4039 
Q 3028 4072 2884 4113 
L 2884 4266 
L 4009 4266 
L 4009 4113 
Q 3869 4075 3811 4044 
Q 3753 4013 3717 3963 
Q 3681 3913 3662 3813 
Q 3644 3713 3644 3484 
L 3644 -19 
L 3253 -19 
L 1513 2900 
Q 1350 3172 1281 3297 
Q 1213 3422 1153 3544 
L 1100 3544 
Q 1122 3303 1131 2673 
Q 1141 2044 1141 1419 
L 1141 781 
Q 1141 572 1155 475 
Q 1169 378 1201 322 
Q 1234 266 1298 228 
Q 1363 191 1506 153 
L 1506 0 
L 366 0 
L 366 153 
Q 559 203 625 264 
Q 691 325 711 437 
Q 731 550 731 781 
L 731 3484 
Q 731 3700 715 3798 
Q 700 3897 664 3951 
Q 628 4006 568 4039 
Q 509 4072 366 4113 
L 366 4266 
L 1344 4266 
L 2888 1691 
z
" transform="scale(0.015625)"/>
      </defs>
      <use xlink:href="#Cambria-42"/>
      <use xlink:href="#Cambria-61" x="61.132812"/>
      <use xlink:href="#Cambria-73" x="109.960938"/>
      <use xlink:href="#Cambria-65" x="152.929688"/>
      <use xlink:href="#Cambria-20" x="201.708984"/>
      <use xlink:href="#Cambria-53" x="223.730469"/>
      <use xlink:href="#Cambria-68" x="273.339844"/>
      <use xlink:href="#Cambria-65" x="328.515625"/>
      <use xlink:href="#Cambria-61" x="377.294922"/>
      <use xlink:href="#Cambria-72" x="426.123047"/>
      <use xlink:href="#Cambria-20" x="467.480469"/>
      <use xlink:href="#Cambria-28" x="489.501953"/>
      <use xlink:href="#Cambria-6b" x="527.685547"/>
      <use xlink:href="#Cambria-4e" x="580.126953"/>
      <use xlink:href="#Cambria-29" x="648.193359"/>
     </g>
    </g>
   </g>
   <g id="line2d_29">
    <path d="M 269.868077 200.394278 
L 273.57199 178.603594 
L 275.42423 161.171029 
L 277.276471 145.917546 
L 281.906221 133.932708 
L 282.832625 129.574544 
L 285.610702 144.828028 
L 286.536538 160.081511 
L 280.980384 175.334994 
L 276.350067 188.409395 
L 269.868077 200.394278 
L 266.164163 224.364044 
L 257.829933 266.855893 
L 258.755769 242.886127 
L 263.386087 222.184962 
L 268.015836 205.84196 
L 271.720317 187.319877 
L 277.276471 150.27571 
L 283.758461 136.111745 
L 284.684298 149.186191 
L 283.758461 168.797793 
L 277.276471 186.230358 
L 271.720317 202.57336 
L 267.09 225.453606 
L 265.237759 246.154727 
L 259.681605 257.050091 
L 258.755769 262.497774 
L 256.903528 248.333809 
L 263.386087 227.632644 
L 268.94224 200.394278 
L 275.42423 169.887312 
L 280.054548 149.186191 
L 285.610702 128.485026 
L 291.166856 114.321061 
L 295.796605 104.51526 
L 301.352759 94.709459 
L 298.574682 112.14198 
L 294.870769 131.753626 
L 289.314615 144.828028 
L 280.980384 155.723392 
L 277.276471 169.887312 
L 270.793913 192.767559 
L 266.164163 215.647761 
L 263.386087 241.796608 
L 257.829933 263.587292 
L 253.199615 276.661694 
L 250.421538 286.467539 
L 244.865384 296.27334 
L 242.087307 304.989623 
L 236.531153 309.347742 
L 238.383394 297.362859 
L 242.087307 278.840775 
L 252.273779 243.97569 
L 256.903528 223.274525 
L 264.311923 202.57336 
L 275.42423 170.976875 
L 286.536538 137.201308 
L 294.870769 119.768743 
L 301.352759 104.51526 
L 298.574682 121.947825 
L 291.166856 140.469908 
L 285.610702 155.723392 
L 281.906221 178.603594 
L 275.42423 198.215241 
L 269.868077 214.558242 
L 260.60801 246.154727 
L 251.347374 262.497774 
L 244.865384 276.661694 
L 242.087307 290.825658 
L 237.457558 301.721022 
L 243.939548 277.751257 
L 247.643461 260.318692 
L 251.347374 243.97569 
L 255.977692 228.722207 
L 264.311923 208.021042 
L 271.720317 188.409395 
L 279.128144 151.365228 
L 292.092692 125.216425 
L 300.426923 104.51526 
L 307.834749 90.351296 
L 315.243144 78.366413 
L 321.725134 71.829212 
L 318.947057 87.082695 
L 317.095385 105.604779 
L 311.539231 120.858262 
L 302.278595 132.843145 
L 294.870769 153.54431 
L 287.462374 170.976875 
L 280.054548 191.677996 
L 268.94224 211.289642 
L 262.459682 240.70709 
L 254.125451 257.050091 
L 246.717625 272.303575 
L 241.161471 295.183821 
L 234.679481 308.258223 
L 229.123327 318.064024 
L 223.567173 325.690788 
L 216.158779 331.138426 
L 219.862692 315.884942 
L 227.271086 293.00474 
L 234.679481 271.214056 
L 243.013143 251.602409 
L 252.273779 228.722207 
L 260.60801 206.931523 
L 271.720317 180.782676 
L 281.906221 151.365228 
L 292.092692 135.022226 
L 304.130836 111.052461 
L 311.539231 100.157097 
L 316.16898 89.261777 
L 323.577375 77.276894 
L 317.095385 99.067578 
L 315.243144 113.231543 
L 305.056672 128.485026 
L 296.72301 145.917546 
L 288.388779 170.976875 
L 268.015836 209.11056 
L 264.311923 230.901244 
L 253.199615 259.229173 
L 240.235635 281.019857 
L 234.679481 298.452422 
L 228.196922 306.079141 
L 223.567173 319.153543 
L 220.789096 323.511706 
L 233.753076 276.661694 
L 243.939548 253.781491 
L 251.347374 234.169845 
L 259.681605 208.021042 
L 272.646154 172.066393 
L 290.240451 141.559427 
L 307.834749 105.604779 
L 317.095385 82.724576 
L 325.429615 71.829212 
L 332.837442 66.38153 
L 336.541923 63.11293 
L 343.023913 64.202493 
L 340.245836 76.187376 
L 334.689682 93.619896 
L 325.429615 113.231543 
L 320.799298 124.126862 
L 313.390903 138.290827 
L 306.908913 152.454791 
L 294.870769 173.155912 
L 287.462374 191.677996 
L 280.980384 210.200123 
L 277.276471 216.737324 
L 272.646154 222.184962 
L 262.459682 242.886127 
L 244.865384 271.214056 
L 242.087307 287.557058 
L 231.901404 310.43726 
L 221.714932 325.690788 
L 217.084615 328.959388 
L 208.750384 334.407026 
L 202.268394 335.496589 
L 196.71224 335.496589 
L 201.342558 321.332624 
L 206.898712 301.721022 
L 216.158779 281.019857 
L 223.567173 262.497774 
L 231.901404 246.154727 
L 241.161471 228.722207 
L 249.495702 211.289642 
L 255.977692 193.857077 
L 265.237759 182.961757 
L 274.498394 166.618711 
L 289.314615 147.007109 
L 299.501087 128.485026 
L 311.539231 112.14198 
L 321.725134 93.619896 
L 329.133529 81.635013 
L 336.541923 72.918731 
L 340.245836 67.471093 
L 342.098077 89.261777 
L 337.467759 107.783861 
L 331.911606 119.768743 
L 324.503211 132.843145 
L 315.243144 145.917546 
L 302.278595 175.334994 
L 292.092692 193.857077 
L 262.459682 238.528008 
L 242.087307 271.214056 
L 228.196922 286.467539 
L 207.824548 308.258223 
L 202.268394 311.526823 
L 203.19423 297.362859 
L 212.454865 273.393093 
L 219.862692 254.87101 
L 238.383394 224.364044 
L 244.865384 209.11056 
L 254.125451 194.94664 
L 263.386087 185.140795 
L 270.793913 175.334994 
L 278.202307 158.991992 
L 294.870769 137.201308 
L 306.908913 116.500143 
L 317.095385 102.336179 
L 327.281288 83.814095 
L 337.467759 71.829212 
L 348.580067 62.023411 
L 362.470452 58.754811 
L 371.730519 57.665248 
L 380.06475 60.933892 
L 377.286673 77.276894 
L 369.878278 95.798978 
L 360.618211 109.962942 
L 355.062057 127.395463 
L 341.171673 145.917546 
L 328.207692 169.887312 
L 314.317308 187.319877 
L 304.130836 202.57336 
L 290.240451 217.826843 
L 276.350067 230.901244 
L 266.164163 242.886127 
L 254.125451 259.229173 
L 238.383394 279.930294 
L 225.418846 299.541941 
L 212.454865 316.974505 
L 203.19423 328.959388 
L 192.081922 338.765189 
L 176.339865 345.30239 
L 164.301721 346.391909 
L 158.745567 344.212871 
L 159.671403 328.959388 
L 168.931471 313.705905 
L 179.117942 295.183821 
L 189.303845 272.303575 
L 200.416153 252.691972 
L 220.789096 217.826843 
L 234.679481 198.215241 
L 243.013143 186.230358 
L 259.681605 172.066393 
L 277.276471 156.81291 
L 323.577375 104.51526 
L 334.689682 94.709459 
L 347.654231 79.455976 
L 358.76597 70.739694 
L 366.174365 65.292011 
L 381.91699 56.575729 
L 378.212509 76.187376 
L 369.878278 96.888497 
L 361.544047 115.41058 
L 346.727826 137.201308 
L 338.393596 156.81291 
L 326.355452 173.155912 
L 313.390903 192.767559 
L 298.574682 210.200123 
L 284.684298 225.453606 
L 268.015836 239.617527 
L 218.936855 297.362859 
L 202.268394 311.526823 
L 189.303845 326.780306 
L 175.414029 337.675626 
L 164.301721 343.123308 
L 165.227557 325.690788 
L 173.561788 301.721022 
L 182.821855 278.840775 
L 195.786404 254.87101 
L 205.046471 237.438489 
L 215.232942 218.916362 
L 224.493009 204.752441 
L 236.531153 192.767559 
L 254.125451 178.603594 
L 273.57199 165.529193 
L 284.684298 142.648946 
L 329.133529 97.978059 
L 343.023913 82.724576 
L 356.914298 74.008294 
L 368.952442 63.11293 
L 382.842827 54.396647 
L 396.733211 47.859447 
L 410.623596 45.680365 
L 419.883663 51.128047 
L 411.549432 74.008294 
L 402.289365 91.440859 
L 395.807375 112.14198 
L 382.842827 129.574544 
L 368.952442 154.633829 
L 355.988462 169.887312 
L 340.245836 192.767559 
L 323.577375 206.931523 
L 314.317308 215.647761 
L 305.056672 222.184962 
L 290.240451 230.901244 
L 276.350067 241.796608 
L 256.903528 255.960573 
L 234.679481 278.840775 
L 221.714932 295.183821 
L 202.268394 312.616342 
L 181.896019 330.048907 
L 168.931471 339.854708 
L 153.189413 348.57099 
L 135.594547 349.660509 
L 124.482808 349.660509 
L 126.33448 333.317507 
L 141.150701 298.452422 
L 148.559096 278.840775 
L 157.819163 263.587292 
L 172.635952 245.065209 
L 185.599932 226.543125 
L 198.564481 210.200123 
L 210.602625 197.125678 
L 224.493009 184.051276 
L 242.087307 175.334994 
L 257.829933 165.529193 
L 274.498394 155.723392 
L 293.018528 140.469908 
L 314.317308 125.216425 
L 328.207692 104.51526 
L 346.727826 89.261777 
L 363.396288 76.187376 
L 377.286673 67.471093 
L 393.029298 58.754811 
L 408.771355 48.94901 
L 421.735904 44.590846 
L 436.552125 41.322246 
L 450.442509 40.232727 
L 462.480653 40.232727 
L 456.9245 56.575729 
L 450.442509 74.008294 
L 443.034115 88.172258 
L 438.404365 101.24666 
L 427.292058 115.41058 
L 418.031422 133.932708 
L 407.845519 150.27571 
L 395.807375 163.350111 
L 383.768663 181.872195 
L 366.174365 200.394278 
L 343.023913 213.468724 
L 323.577375 225.453606 
L 305.056672 235.259408 
L 286.536538 242.886127 
L 265.237759 247.24429 
L 243.013143 271.214056 
L 196.71224 315.884942 
L 173.561788 327.869825 
L 155.041086 337.675626 
L 134.668711 347.481472 
L 118.000249 355.108191 
L 95.775634 357.287273 
L 83.73749 352.929154 
L 91.145885 330.048907 
L 101.331788 307.16866 
L 113.3705 284.288457 
L 126.33448 261.408211 
L 158.745567 218.916362 
L 180.043778 205.84196 
L 203.19423 192.767559 
L 224.493009 181.872195 
L 250.421538 172.066393 
L 271.720317 161.171029 
L 289.314615 143.738509 
L 303.205 127.395463 
L 322.651538 109.962942 
L 345.80199 93.619896 
L 365.248529 83.814095 
L 381.91699 76.187376 
L 394.880971 66.38153 
L 414.327509 60.933892 
L 434.699884 57.665248 
L 450.442509 56.575729 
L 462.480653 59.84433 
L 448.590269 94.709459 
L 439.330202 113.231543 
L 424.513981 136.111745 
L 412.475268 155.723392 
L 394.880971 173.155912 
L 380.06475 191.677996 
L 358.76597 211.289642 
L 334.689682 222.184962 
L 293.944933 241.796608 
L 262.459682 258.13961 
L 236.531153 274.482656 
L 212.454865 291.915177 
L 192.081922 306.079141 
L 173.561788 319.153543 
L 155.96749 328.959388 
L 131.890634 336.586108 
L 114.296336 346.391909 
L 100.405952 349.660509 
L 89.293644 348.57099 
L 82.811654 347.481472 
L 90.21948 328.959388 
L 98.553711 311.526823 
L 107.814346 290.825658 
L 119.85249 269.034974 
L 132.81647 246.154727 
L 152.263009 226.543125 
L 168.005634 205.84196 
L 186.525768 193.857077 
L 203.19423 186.230358 
L 222.640769 175.334994 
L 241.161471 166.618711 
L 273.57199 157.902429 
L 273.57199 157.902429 
" clip-path="url(#p21bd097c30)" style="fill: none; stroke-dasharray: 3.7,1.6; stroke-dashoffset: 0; stroke: #000000"/>
   </g>
   <g id="line2d_30">
    <path d="M 271.257115 199.304759 
L 273.494699 170.189007 
L 275.732283 147.886261 
L 277.969867 138.627137 
L 282.445035 124.068435 
L 289.157787 104.261154 
L 280.207451 137.229284 
L 277.969867 146.641348 
L 275.732283 158.543294 
L 273.494699 175.739981 
L 271.257115 200.812129 
L 269.019531 228.170872 
L 266.781947 249.043068 
L 264.544363 257.244605 
L 262.306779 264.502859 
L 257.831611 277.216631 
L 255.594027 282.807376 
L 253.356443 288.092853 
L 255.594027 279.96818 
L 257.831611 271.18932 
L 260.069195 261.372423 
L 262.306779 250.158637 
L 264.544363 236.890204 
L 266.781947 221.05292 
L 269.019531 202.644471 
L 273.494699 160.331567 
L 275.732283 147.649465 
L 277.969867 138.443763 
L 280.207451 130.559812 
L 282.445035 123.492825 
L 286.920203 110.916165 
L 289.157787 105.147583 
L 286.920203 113.11733 
L 284.682619 121.63428 
L 282.445035 131.262436 
L 280.207451 142.557886 
L 277.969867 156.227565 
L 275.732283 172.52643 
L 273.494699 191.219707 
L 269.019531 232.395915 
L 266.781947 244.923815 
L 264.544363 254.113413 
L 262.306779 261.789823 
L 260.069195 268.911033 
L 257.831611 275.358077 
L 255.594027 281.113749 
L 253.356443 286.535989 
L 255.594027 278.437415 
L 257.831611 269.587039 
L 260.069195 259.661089 
L 262.306779 248.45485 
L 264.544363 235.33993 
L 266.781947 219.782446 
L 269.019531 201.638042 
L 273.494699 159.754123 
L 275.732283 147.217199 
L 277.969867 138.15813 
L 280.207451 130.326893 
L 282.445035 123.357022 
L 286.920203 110.892943 
L 289.157787 105.115674 
L 291.395371 100.343905 
L 293.632955 96.052961 
L 295.87054 92.240078 
L 298.108124 88.750073 
L 300.345708 85.623107 
L 302.583292 82.802885 
L 304.820876 80.2341 
L 291.395371 121.510369 
L 286.920203 136.174125 
L 284.682619 144.151318 
L 282.445035 152.899334 
L 280.207451 162.854339 
L 277.969867 174.560205 
L 275.732283 188.457187 
L 273.494699 204.766951 
L 271.257115 223.321194 
L 269.019531 238.988827 
L 266.781947 249.342257 
L 264.544363 257.30631 
L 262.306779 264.301737 
L 260.069195 270.765423 
L 257.831611 276.528197 
L 255.594027 281.944653 
L 253.356443 287.006205 
L 251.118859 291.477902 
L 248.881275 295.596118 
L 246.643691 299.275813 
L 244.406107 302.72183 
L 242.168523 305.845091 
L 239.930939 308.754603 
L 237.693354 311.453672 
L 244.406107 290.527721 
L 248.881275 275.97162 
L 253.356443 260.431097 
L 257.831611 243.404455 
L 260.069195 234.275353 
L 262.306779 224.514285 
L 264.544363 213.606906 
L 266.781947 200.85755 
L 269.019531 185.741507 
L 271.257115 168.247934 
L 273.494699 155.092798 
L 275.732283 146.45132 
L 277.969867 139.452014 
L 280.207451 133.140198 
L 282.445035 127.274401 
L 284.682619 121.849233 
L 286.920203 116.737543 
L 289.157787 111.928158 
L 291.395371 107.426682 
L 293.632955 103.238075 
L 295.87054 99.328016 
L 298.108124 95.687488 
L 300.345708 92.298217 
L 302.583292 89.139981 
L 304.820876 86.195824 
L 298.108124 106.809151 
L 293.632955 120.973931 
L 289.157787 135.779115 
L 286.920203 143.60645 
L 284.682619 151.85665 
L 282.445035 160.708828 
L 280.207451 170.467181 
L 277.969867 181.568317 
L 275.732283 194.504264 
L 273.494699 209.661423 
L 271.257115 225.690327 
L 269.019531 237.3854 
L 266.781947 246.297357 
L 264.544363 253.570663 
L 262.306779 259.911421 
L 260.069195 265.708683 
L 257.831611 271.115003 
L 253.356443 281.016287 
L 251.118859 285.559301 
L 248.881275 289.843775 
L 244.406107 297.60201 
L 242.168523 301.109119 
L 239.930939 304.378837 
L 237.693354 307.399041 
L 244.406107 286.47262 
L 248.881275 271.899431 
L 253.356443 256.427937 
L 257.831611 239.665979 
L 262.306779 221.561161 
L 264.544363 211.371611 
L 266.781947 199.471725 
L 269.019531 185.18992 
L 271.257115 169.47187 
L 273.494699 158.396162 
L 275.732283 150.18763 
L 277.969867 143.180191 
L 280.207451 136.901608 
L 282.445035 131.103902 
L 284.682619 125.65209 
L 286.920203 120.55138 
L 289.157787 115.728577 
L 291.395371 111.199078 
L 293.632955 106.947045 
L 295.87054 102.95604 
L 298.108124 99.229204 
L 300.345708 95.718653 
L 302.583292 92.436562 
L 304.820876 89.38924 
L 307.05846 86.6426 
L 309.296044 84.099827 
L 311.533628 81.748425 
L 313.771212 79.61404 
L 318.24638 75.91203 
L 320.483964 74.254092 
L 311.533628 100.80868 
L 302.583292 126.799153 
L 282.445035 184.539659 
L 280.207451 191.377051 
L 277.969867 199.238255 
L 275.732283 209.020502 
L 271.257115 231.806206 
L 269.019531 240.917951 
L 266.781947 248.467758 
L 264.544363 254.876132 
L 262.306779 260.641973 
L 260.069195 266.043668 
L 255.594027 275.897686 
L 251.118859 284.797999 
L 246.643691 292.710978 
L 244.406107 296.331356 
L 242.168523 299.725066 
L 239.930939 302.876805 
L 237.693354 305.796713 
L 235.45577 308.529778 
L 233.218186 311.076259 
L 230.980602 313.40071 
L 226.505434 317.532753 
L 222.030266 321.136449 
L 237.693354 274.863885 
L 257.831611 216.44992 
L 262.306779 203.855199 
L 264.544363 196.565033 
L 266.781947 187.345637 
L 269.019531 177.385933 
L 271.257115 168.128108 
L 273.494699 160.050948 
L 275.732283 153.183145 
L 277.969867 147.034947 
L 280.207451 141.388934 
L 282.445035 136.149752 
L 284.682619 131.212467 
L 289.157787 122.139473 
L 293.632955 114.011249 
L 295.87054 110.237624 
L 300.345708 103.302791 
L 302.583292 100.159016 
L 304.820876 97.211365 
L 309.296044 91.845158 
L 313.771212 87.087927 
L 318.24638 82.886153 
L 320.483964 80.969682 
L 302.583292 133.92197 
L 293.632955 159.677739 
L 286.920203 178.328048 
L 280.207451 196.177992 
L 277.969867 202.912506 
L 275.732283 211.095159 
L 271.257115 228.916674 
L 269.019531 236.76409 
L 266.781947 243.34065 
L 264.544363 249.285698 
L 260.069195 260.008808 
L 255.594027 269.594457 
L 251.118859 278.237352 
L 246.643691 286.062762 
L 242.168523 293.072102 
L 237.693354 299.265789 
L 233.218186 304.762667 
L 228.743018 309.633749 
L 224.26785 313.962654 
L 222.030266 315.946021 
L 239.930939 263.097984 
L 248.881275 237.51419 
L 255.594027 218.883102 
L 262.306779 201.071146 
L 264.544363 194.197984 
L 266.781947 186.236311 
L 271.257115 169.385858 
L 273.494699 161.887455 
L 275.732283 155.064062 
L 277.969867 148.954957 
L 280.207451 143.357137 
L 282.445035 138.160181 
L 286.920203 128.600239 
L 291.395371 120.019453 
L 295.87054 112.295292 
L 300.345708 105.337483 
L 304.820876 99.172869 
L 309.296044 93.719537 
L 313.771212 88.863496 
L 316.008796 86.638601 
L 320.483964 82.663267 
L 324.959132 79.153903 
L 329.4343 76.036697 
L 333.909468 73.266364 
L 338.384636 70.805031 
L 342.859804 68.581487 
L 347.334972 66.55881 
L 349.572557 65.610617 
L 340.62222 91.487683 
L 333.909468 110.103859 
L 329.4343 121.985596 
L 324.959132 133.373412 
L 320.483964 144.205877 
L 316.008796 154.391774 
L 311.533628 163.935572 
L 307.05846 172.800775 
L 302.583292 180.909413 
L 298.108124 188.221929 
L 293.632955 194.87 
L 289.157787 201.052837 
L 284.682619 206.796326 
L 282.445035 209.634508 
L 280.207451 212.809546 
L 277.969867 216.564181 
L 275.732283 221.68918 
L 269.019531 240.21553 
L 266.781947 245.812269 
L 262.306779 256.01085 
L 257.831611 265.259497 
L 253.356443 273.778745 
L 248.881275 281.527094 
L 244.406107 288.550102 
L 239.930939 294.884205 
L 235.45577 300.551843 
L 230.980602 305.614456 
L 226.505434 310.13771 
L 222.030266 314.120213 
L 217.555098 317.66851 
L 213.07993 320.836753 
L 208.604762 323.640112 
L 204.129594 326.150111 
L 199.654426 328.429746 
L 195.179258 330.507618 
L 204.129594 304.633519 
L 210.842346 285.999504 
L 215.317514 274.184695 
L 219.792682 262.937239 
L 224.26785 252.27822 
L 228.743018 242.247179 
L 233.218186 232.825731 
L 237.693354 224.057177 
L 242.168523 216.006695 
L 246.643691 208.64783 
L 251.118859 201.827183 
L 255.594027 195.503083 
L 257.831611 192.508943 
L 260.069195 189.791998 
L 262.306779 186.818061 
L 264.544363 183.068267 
L 266.781947 178.383625 
L 269.019531 173.022179 
L 273.494699 161.741834 
L 277.969867 151.24836 
L 280.207451 146.366698 
L 284.682619 137.313444 
L 289.157787 129.097344 
L 293.632955 121.584276 
L 298.108124 114.722174 
L 302.583292 108.466205 
L 307.05846 102.827935 
L 311.533628 97.716666 
L 316.008796 93.148327 
L 320.483964 89.043589 
L 324.959132 85.344238 
L 329.4343 82.006849 
L 333.909468 78.982101 
L 338.384636 76.241802 
L 342.859804 73.766671 
L 347.334972 71.500337 
L 349.572557 70.436079 
L 340.62222 96.254397 
L 333.909468 114.895613 
L 329.4343 126.749433 
L 324.959132 138.060586 
L 320.483964 148.721454 
L 316.008796 158.652267 
L 311.533628 167.803197 
L 307.05846 176.159489 
L 302.583292 183.728038 
L 298.108124 190.509147 
L 293.632955 196.561302 
L 289.157787 202.106448 
L 284.682619 207.340589 
L 282.445035 209.810232 
L 280.207451 212.550007 
L 277.969867 215.984754 
L 275.732283 220.396132 
L 273.494699 225.348357 
L 269.019531 235.857562 
L 264.544363 245.699835 
L 260.069195 254.886588 
L 255.594027 263.477618 
L 251.118859 271.370338 
L 246.643691 278.630378 
L 242.168523 285.262955 
L 237.693354 291.306471 
L 233.218186 296.79396 
L 228.743018 301.716625 
L 224.26785 306.145498 
L 219.792682 310.14361 
L 215.317514 313.755264 
L 210.842346 317.018391 
L 206.367178 319.964143 
L 201.89201 322.623088 
L 197.416842 325.051749 
L 195.179258 326.18929 
L 204.129594 300.355336 
L 208.604762 287.868647 
L 213.07993 275.883144 
L 217.555098 264.503001 
L 222.030266 253.763584 
L 226.505434 243.72077 
L 230.980602 234.376299 
L 235.45577 225.735539 
L 239.930939 217.805635 
L 244.406107 210.598632 
L 248.881275 204.068825 
L 253.356443 198.026614 
L 257.831611 192.30351 
L 260.069195 189.644451 
L 262.306779 186.626915 
L 264.544363 182.907276 
L 266.781947 178.549963 
L 271.257115 168.422357 
L 275.732283 158.001756 
L 280.207451 148.278852 
L 284.682619 139.361684 
L 289.157787 131.178572 
L 293.632955 123.681219 
L 298.108124 116.796074 
L 302.583292 110.485439 
L 307.05846 104.77178 
L 311.533628 99.583979 
L 316.008796 94.926708 
L 320.483964 90.728261 
L 324.959132 86.931176 
L 329.4343 83.496807 
L 333.909468 80.416661 
L 338.384636 77.618985 
L 342.859804 75.072343 
L 347.334972 72.738648 
L 351.810141 70.59046 
L 358.522893 67.663994 
L 365.235645 65.037072 
L 371.948397 62.66644 
L 378.661149 60.497825 
L 387.611485 57.869932 
L 394.324237 56.059102 
L 387.611485 75.198958 
L 380.898733 93.584365 
L 376.423565 105.226768 
L 371.948397 116.285094 
L 367.473229 126.697815 
L 362.998061 136.434711 
L 358.522893 145.448982 
L 354.047725 153.752121 
L 349.572557 161.367107 
L 345.097388 168.31993 
L 340.62222 174.641302 
L 336.147052 180.3626 
L 331.671884 185.521711 
L 327.196716 190.172443 
L 322.721548 194.387377 
L 318.24638 198.246538 
L 313.771212 201.811932 
L 302.583292 210.176449 
L 293.632955 216.307237 
L 289.157787 219.648455 
L 280.207451 226.740472 
L 277.969867 228.680493 
L 275.732283 230.926966 
L 273.494699 233.626337 
L 271.257115 236.852671 
L 266.781947 244.17259 
L 253.356443 267.326356 
L 248.881275 274.416793 
L 244.406107 281.136868 
L 242.168523 284.311128 
L 237.693354 290.115312 
L 233.218186 295.404703 
L 228.743018 300.191133 
L 224.26785 304.540988 
L 219.792682 308.497914 
L 215.317514 312.09843 
L 210.842346 315.342883 
L 206.367178 318.286638 
L 201.89201 320.974068 
L 197.416842 323.43903 
L 192.941674 325.708669 
L 186.228922 328.798829 
L 179.516169 331.566391 
L 172.803417 334.056899 
L 166.090665 336.319048 
L 157.140329 339.062085 
L 148.189993 341.549763 
L 154.902745 322.419386 
L 161.615497 304.041511 
L 166.090665 292.425536 
L 170.565833 281.427496 
L 175.041001 271.11666 
L 179.516169 261.52656 
L 183.991337 252.682728 
L 188.466506 244.559486 
L 192.941674 237.114537 
L 197.416842 230.302546 
L 201.89201 224.082198 
L 206.367178 218.421232 
L 210.842346 213.288649 
L 215.317514 208.640852 
L 219.792682 204.415964 
L 224.26785 200.542577 
L 228.743018 196.963046 
L 235.45577 192.012047 
L 251.118859 181.496005 
L 260.069195 174.822917 
L 264.544363 171.182958 
L 266.781947 169.037293 
L 269.019531 166.494628 
L 271.257115 163.535058 
L 273.494699 160.237307 
L 277.969867 153.029163 
L 289.157787 134.595616 
L 295.87054 124.517861 
L 300.345708 118.193036 
L 304.820876 112.455602 
L 309.296044 107.201493 
L 313.771212 102.388164 
L 318.24638 97.990845 
L 322.721548 93.953877 
L 327.196716 90.277179 
L 331.671884 86.918006 
L 336.147052 83.84595 
L 340.62222 81.029923 
L 345.097388 78.435422 
L 349.572557 76.037267 
L 356.285309 72.760491 
L 362.998061 69.825317 
L 369.710813 67.169325 
L 376.423565 64.742392 
L 383.136317 62.508794 
L 392.086653 59.782128 
L 394.324237 59.138604 
L 385.373901 84.416737 
L 380.898733 96.527157 
L 376.423565 108.109165 
L 371.948397 119.077789 
L 367.473229 129.375259 
L 362.998061 138.97108 
L 358.522893 147.834225 
L 354.047725 155.962614 
L 349.572557 163.370026 
L 345.097388 170.087399 
L 340.62222 176.162712 
L 336.147052 181.644944 
L 331.671884 186.594144 
L 327.196716 191.066192 
L 322.721548 195.11037 
L 318.24638 198.786043 
L 313.771212 202.163371 
L 307.05846 206.867785 
L 298.108124 212.433041 
L 293.632955 215.335443 
L 289.157787 218.526608 
L 282.445035 223.525827 
L 277.969867 227.092386 
L 275.732283 229.10337 
L 273.494699 231.440168 
L 271.257115 234.146855 
L 269.019531 237.19082 
L 264.544363 244.003418 
L 257.831611 254.795001 
L 251.118859 265.556923 
L 246.643691 272.248888 
L 242.168523 278.602568 
L 239.930939 281.671629 
L 235.45577 287.264981 
L 230.980602 292.382632 
L 226.505434 297.065386 
L 222.030266 301.371435 
L 217.555098 305.31343 
L 213.07993 308.910587 
L 208.604762 312.194949 
L 204.129594 315.203369 
L 199.654426 317.970798 
L 195.179258 320.523068 
L 190.70409 322.884031 
L 183.991337 326.09539 
L 177.278585 328.98399 
L 170.565833 331.605017 
L 163.853081 334.000497 
L 154.902745 336.904863 
L 148.189993 338.899731 
L 154.902745 319.844071 
L 159.377913 307.534918 
L 163.853081 295.715711 
L 168.328249 284.503497 
L 172.803417 273.974675 
L 177.278585 264.171823 
L 181.753753 255.118636 
L 186.228922 246.818292 
L 190.70409 239.255227 
L 195.179258 232.363815 
L 199.654426 226.091931 
L 204.129594 220.384909 
L 208.604762 215.191508 
L 213.07993 210.468303 
L 217.555098 206.175911 
L 222.030266 202.268889 
L 226.505434 198.688976 
L 233.218186 193.733385 
L 237.693354 190.739674 
L 246.643691 185.084194 
L 251.118859 182.013822 
L 257.831611 177.081671 
L 262.306779 173.600871 
L 264.544363 171.695897 
L 266.781947 169.546409 
L 269.019531 167.038457 
L 271.257115 164.155153 
L 273.494699 160.936652 
L 277.969867 153.946946 
L 291.395371 132.482939 
L 295.87054 125.868465 
L 300.345708 119.591951 
L 302.583292 116.586058 
L 307.05846 111.0718 
L 311.533628 106.001846 
L 316.008796 101.357867 
L 320.483964 97.087105 
L 324.959132 93.177955 
L 329.4343 89.604151 
L 333.909468 86.33663 
L 338.384636 83.34335 
L 342.859804 80.588186 
L 347.334972 78.046001 
L 351.810141 75.706516 
L 358.522893 72.508545 
L 365.235645 69.62877 
L 371.948397 67.014341 
L 378.661149 64.623677 
L 387.611485 61.72345 
L 396.561821 59.089644 
L 405.512158 56.671735 
L 416.700078 53.902626 
L 427.887998 51.363166 
L 421.175246 70.325096 
L 416.700078 82.53049 
L 412.22491 94.231647 
L 407.749742 105.340059 
L 403.274573 115.795058 
L 398.799405 125.563174 
L 394.324237 134.628665 
L 389.849069 142.979578 
L 385.373901 150.639198 
L 380.898733 157.637862 
L 376.423565 164.011596 
L 371.948397 169.800316 
L 367.473229 175.046658 
L 362.998061 179.797111 
L 358.522893 184.102698 
L 354.047725 188.016825 
L 349.572557 191.591925 
L 345.097388 194.87446 
L 340.62222 197.901697 
L 336.147052 200.702883 
L 329.4343 204.619988 
L 324.959132 206.986257 
L 318.24638 210.426483 
L 304.820876 216.877989 
L 295.87054 221.191844 
L 291.395371 223.550148 
L 284.682619 227.44581 
L 277.969867 231.627524 
L 275.732283 233.167036 
L 273.494699 234.89445 
L 271.257115 236.920024 
L 269.019531 239.29178 
L 266.781947 241.980755 
L 264.544363 244.897353 
L 262.306779 248.000562 
L 257.831611 254.731648 
L 251.118859 265.10055 
L 246.643691 271.661539 
L 239.930939 280.728168 
L 237.693354 283.625093 
L 233.218186 288.907102 
L 228.743018 293.73764 
L 224.26785 298.191952 
L 219.792682 302.299333 
L 215.317514 306.056794 
L 210.842346 309.492578 
L 206.367178 312.644125 
L 201.89201 315.548638 
L 197.416842 318.228641 
L 192.941674 320.697417 
L 186.228922 324.069725 
L 179.516169 327.101409 
L 172.803417 329.847507 
L 166.090665 332.350525 
L 159.377913 334.650234 
L 150.427577 337.446535 
L 141.477241 339.996731 
L 132.526905 342.343274 
L 121.338984 345.034801 
L 114.626232 346.548291 
L 121.338984 327.596471 
L 125.814152 315.384658 
L 130.28932 303.686261 
L 134.764489 292.595537 
L 139.239657 282.18071 
L 143.714825 272.477866 
L 148.189993 263.506242 
L 152.665161 255.271814 
L 157.140329 247.743004 
L 161.615497 240.880953 
L 166.090665 234.639351 
L 170.565833 228.967134 
L 175.041001 223.811979 
L 179.516169 219.122816 
L 183.991337 214.850927 
L 188.466506 210.949252 
L 192.941674 207.372456 
L 197.416842 204.079383 
L 201.89201 201.035877 
L 206.367178 198.21442 
L 213.07993 194.27645 
L 217.555098 192.009442 
L 251.118859 175.586554 
L 257.831611 171.735279 
L 262.306779 168.988882 
L 266.781947 165.96024 
L 269.019531 164.170256 
L 271.257115 162.088361 
L 273.494699 159.699893 
L 275.732283 157.033294 
L 280.207451 151.085542 
L 284.682619 144.526439 
L 291.395371 134.391449 
L 295.87054 127.980709 
L 302.583292 119.087134 
L 307.05846 113.526531 
L 311.533628 108.514552 
L 316.008796 103.896146 
L 320.483964 99.634082 
L 324.959132 95.705553 
L 329.4343 92.09751 
L 333.909468 88.780767 
L 338.384636 85.723033 
L 342.859804 82.903701 
L 347.334972 80.300766 
L 351.810141 77.88918 
L 358.522893 74.583234 
L 365.235645 71.599202 
L 371.948397 68.887988 
L 378.661149 66.408711 
L 387.611485 63.400826 
L 396.561821 60.67412 
L 405.512158 58.179562 
L 416.700078 55.319675 
L 427.887998 52.691798 
L 421.175246 71.575642 
L 416.700078 83.754463 
L 412.22491 95.430147 
L 407.749742 106.499654 
L 403.274573 116.901369 
L 398.799405 126.606361 
L 394.324237 135.601281 
L 389.849069 143.880435 
L 385.373901 151.459157 
L 380.898733 158.36803 
L 376.423565 164.647918 
L 371.948397 170.346436 
L 367.473229 175.513228 
L 362.998061 180.196904 
L 358.522893 184.444877 
L 354.047725 188.304412 
L 349.572557 191.822991 
L 345.097388 195.047137 
L 340.62222 198.019523 
L 333.909468 202.101546 
L 329.4343 204.640361 
L 324.959132 206.861013 
L 311.533628 213.247159 
L 295.87054 220.646493 
L 291.395371 222.946505 
L 286.920203 225.436387 
L 280.207451 229.445672 
L 275.732283 232.364993 
L 273.494699 234.033639 
L 271.257115 235.955967 
L 269.019531 238.178796 
L 266.781947 240.689942 
L 264.544363 243.435154 
L 260.069195 249.47291 
L 255.594027 256.08675 
L 248.881275 266.048503 
L 244.406107 272.251422 
L 237.693354 280.993799 
L 235.45577 283.795144 
L 230.980602 288.896218 
L 226.505434 293.574585 
L 222.030266 297.903062 
L 217.555098 301.891826 
L 213.07993 305.556077 
L 208.604762 308.928047 
L 204.129594 312.038136 
L 199.654426 314.900607 
L 195.179258 317.548184 
L 190.70409 320.003063 
L 183.991337 323.36689 
L 177.278585 326.400024 
L 170.565833 329.151931 
L 163.853081 331.664839 
L 157.140329 333.973012 
L 148.189993 336.791577 
L 139.239657 339.365418 
L 128.051736 342.30494 
L 116.863816 344.996211 
L 114.626232 345.509142 
L 121.338984 326.631379 
L 125.814152 314.468256 
L 130.28932 302.820502 
L 134.764489 291.793444 
L 139.239657 281.449692 
L 143.714825 271.81992 
L 148.189993 262.915791 
L 152.665161 254.737817 
L 157.140329 247.263608 
L 161.615497 240.454352 
L 166.090665 234.263265 
L 170.565833 228.63919 
L 175.041001 223.529311 
L 179.516169 218.882269 
L 183.991337 214.650141 
L 188.466506 210.788396 
L 192.941674 207.25451 
L 197.416842 204.006781 
L 201.89201 201.006614 
L 208.604762 196.882884 
L 213.07993 194.31523 
L 217.555098 192.051527 
L 237.693354 182.451465 
L 246.643691 178.166798 
L 251.118859 175.833649 
L 257.831611 171.98822 
L 262.306779 169.253054 
L 266.781947 166.24905 
L 269.019531 164.486022 
L 271.257115 162.44034 
L 273.494699 160.094008 
L 275.732283 157.46778 
L 280.207451 151.632178 
L 284.682619 145.194461 
L 291.395371 135.160972 
L 295.87054 128.789503 
L 302.583292 119.931069 
L 307.05846 114.342891 
L 311.533628 109.328183 
L 316.008796 104.693006 
L 320.483964 100.401345 
L 324.959132 96.439427 
L 329.4343 92.80153 
L 333.909468 89.455769 
L 338.384636 86.368989 
L 342.859804 83.525418 
L 347.334972 80.893745 
L 351.810141 78.452825 
L 358.522893 75.106792 
L 365.235645 72.088507 
L 371.948397 69.348523 
L 378.661149 66.842578 
L 385.373901 64.540525 
L 394.324237 61.730083 
L 403.274573 59.162551 
L 414.462494 56.228992 
L 425.650414 53.542259 
L 439.075918 50.578379 
L 452.501422 47.854559 
L 461.451759 46.143312 
L 454.739006 65.009051 
L 450.263838 77.133415 
L 445.78867 88.735852 
L 441.313502 99.731208 
L 436.838334 110.062297 
L 432.363166 119.699733 
L 427.887998 128.643793 
L 423.41283 136.881596 
L 418.937662 144.440585 
L 414.462494 151.359155 
L 409.987326 157.675796 
L 405.512158 163.433289 
L 401.036989 168.67756 
L 396.561821 173.456745 
L 392.086653 177.819263 
L 387.611485 181.811143 
L 383.136317 185.473867 
L 378.661149 188.843729 
L 374.185981 191.952688 
L 369.710813 194.82977 
L 365.235645 197.502316 
L 358.522893 201.18508 
L 351.810141 204.550976 
L 347.334972 206.629648 
L 338.384636 210.440467 
L 333.909468 212.31824 
L 322.721548 217.356797 
L 313.771212 221.703531 
L 289.157787 233.997317 
L 284.682619 236.477672 
L 277.969867 240.495055 
L 271.257115 244.730169 
L 266.781947 247.729897 
L 264.544363 249.362754 
L 262.306779 251.153473 
L 260.069195 253.143854 
L 257.831611 255.339901 
L 253.356443 260.254392 
L 248.881275 265.719156 
L 239.930939 276.873873 
L 233.218186 284.676844 
L 228.743018 289.6769 
L 224.26785 294.122689 
L 219.792682 298.25471 
L 215.317514 302.133763 
L 210.842346 305.777194 
L 206.367178 309.201641 
L 201.89201 312.358365 
L 197.416842 315.159093 
L 192.941674 317.757849 
L 188.466506 320.173732 
L 181.753753 323.492098 
L 175.041001 326.483127 
L 168.328249 329.204544 
L 161.615497 331.691702 
L 152.665161 334.712668 
L 143.714825 337.454623 
L 134.764489 339.968386 
L 123.576568 342.849612 
L 112.388648 345.495969 
L 98.963144 348.41636 
L 85.53764 351.100803 
L 81.062472 351.955095 
L 87.775224 333.087037 
L 92.250392 320.965981 
L 96.72556 309.372554 
L 101.200728 298.394499 
L 105.675896 288.091011 
L 110.151064 278.492788 
L 114.626232 269.600104 
L 119.1014 261.425715 
L 123.576568 253.935998 
L 128.051736 247.091207 
L 132.526905 240.847421 
L 137.002073 235.157035 
L 141.477241 229.97135 
L 145.952409 225.242123 
L 150.427577 220.922181 
L 154.902745 216.966635 
L 159.377913 213.33407 
L 163.853081 209.987733 
L 168.328249 206.895686 
L 172.803417 204.02973 
L 177.278585 201.363879 
L 183.991337 197.68596 
L 190.70409 194.322812 
L 197.416842 191.339719 
L 204.129594 188.596573 
L 210.842346 185.841222 
L 222.030266 180.826082 
L 233.218186 175.488521 
L 246.643691 168.939072 
L 251.118859 166.560664 
L 255.594027 163.977367 
L 262.306779 159.808714 
L 273.494699 152.485566 
L 277.969867 149.230683 
L 280.207451 147.413851 
L 282.445035 145.42842 
L 286.920203 140.966553 
L 291.395371 135.915256 
L 302.583292 122.337982 
L 309.296044 114.700398 
L 313.771212 109.826894 
L 318.24638 105.403803 
L 322.721548 101.319485 
L 327.196716 97.478489 
L 331.671884 93.866377 
L 336.147052 90.46679 
L 340.62222 87.261009 
L 345.097388 84.377791 
L 349.572557 81.764035 
L 356.285309 78.174156 
L 362.998061 74.934625 
L 369.710813 71.994699 
L 376.423565 69.317198 
L 383.136317 66.859444 
L 392.086653 63.869486 
L 401.036989 61.149675 
L 409.987326 58.651068 
L 421.175246 55.782018 
L 432.363166 53.14295 
L 445.78867 50.219952 
L 461.451759 47.077936 
L 454.739006 65.880338 
L 450.263838 77.967748 
L 445.78867 89.531973 
L 441.313502 100.484292 
L 436.838334 110.766556 
L 432.363166 120.353464 
L 427.887998 129.247017 
L 423.41283 137.445494 
L 418.937662 144.969577 
L 414.462494 151.852859 
L 409.987326 158.134687 
L 405.512158 163.857903 
L 401.036989 169.067671 
L 396.561821 173.810821 
L 392.086653 178.134934 
L 387.611485 182.086826 
L 383.136317 185.710464 
L 378.661149 189.045191 
L 374.185981 192.124916 
L 369.710813 194.978719 
L 365.235645 197.632354 
L 358.522893 201.289738 
L 351.810141 204.628522 
L 345.097388 207.53558 
L 324.959132 216.02104 
L 318.24638 219.147166 
L 302.583292 226.813128 
L 289.157787 233.504139 
L 284.682619 235.943303 
L 277.969867 239.899002 
L 271.257115 244.09352 
L 266.781947 247.060127 
L 264.544363 248.66649 
L 262.306779 250.409642 
L 260.069195 252.328228 
L 257.831611 254.441323 
L 253.356443 259.171709 
L 248.881275 264.382429 
L 242.168523 272.5657 
L 237.693354 277.878498 
L 228.743018 287.879938 
L 226.505434 290.252413 
L 222.030266 294.528826 
L 217.555098 298.530407 
L 213.07993 302.293898 
L 208.604762 305.831125 
L 204.129594 309.165141 
L 199.654426 312.260121 
L 195.179258 315.004536 
L 190.70409 317.558451 
L 183.991337 321.065303 
L 177.278585 324.234238 
L 170.565833 327.107607 
L 163.853081 329.731254 
L 157.140329 332.144986 
L 148.189993 335.089098 
L 139.239657 337.772359 
L 130.28932 340.240874 
L 119.1014 343.079291 
L 107.91348 345.693575 
L 94.487976 348.589755 
L 81.062472 351.271947 
L 87.775224 332.481745 
L 92.250392 320.406 
L 96.72556 308.858278 
L 101.200728 297.929704 
L 105.675896 287.678711 
L 110.151064 278.132252 
L 114.626232 269.288896 
L 119.1014 261.147913 
L 123.576568 253.687149 
L 128.051736 246.86964 
L 132.526905 240.651504 
L 137.002073 234.984968 
L 141.477241 229.821249 
L 145.952409 225.112551 
L 150.427577 220.812816 
L 154.902745 216.877922 
L 159.377913 213.266346 
L 163.853081 209.939941 
L 168.328249 206.865207 
L 172.803417 204.013257 
L 177.278585 201.358768 
L 183.991337 197.696576 
L 190.70409 194.351436 
L 195.179258 192.327173 
L 201.89201 189.530719 
L 210.842346 185.917092 
L 219.792682 181.994286 
L 228.743018 177.818028 
L 246.643691 169.15189 
L 251.118859 166.782906 
L 255.594027 164.214433 
L 262.306779 160.052098 
L 269.019531 155.721095 
L 269.019531 155.721095 
" clip-path="url(#p21bd097c30)" style="fill: none; stroke: #0000ff; stroke-width: 1.2; stroke-linecap: square"/>
   </g>
   <g id="line2d_31">
    <path d="M 61.991563 199.304759 
L 481.551562 199.304759 
" clip-path="url(#p21bd097c30)" style="fill: none; stroke: #000000; stroke-width: 0.4; stroke-linecap: square"/>
   </g>
   <g id="line2d_32">
    <path d="M 271.257115 373.14 
L 271.257115 24.38 
" clip-path="url(#p21bd097c30)" style="fill: none; stroke: #000000; stroke-width: 0.4; stroke-linecap: square"/>
   </g>
   <g id="patch_3">
    <path d="M 61.991563 373.14 
L 61.991563 24.38 
" style="fill: none; stroke: #000000; stroke-width: 0.8; stroke-linejoin: miter; stroke-linecap: square"/>
   </g>
   <g id="patch_4">
    <path d="M 481.551562 373.14 
L 481.551562 24.38 
" style="fill: none; stroke: #000000; stroke-width: 0.8; stroke-linejoin: miter; stroke-linecap: square"/>
   </g>
   <g id="patch_5">
    <path d="M 61.991562 373.14 
L 481.551563 373.14 
" style="fill: none; stroke: #000000; stroke-width: 0.8; stroke-linejoin: miter; stroke-linecap: square"/>
   </g>
   <g id="patch_6">
    <path d="M 61.991562 24.38 
L 481.551563 24.38 
" style="fill: none; stroke: #000000; stroke-width: 0.8; stroke-linejoin: miter; stroke-linecap: square"/>
   </g>
   <g id="text_17">
    <!-- Specimen : Thomsen_and_Wallace_RW2 -->
    <g transform="translate(136.339063 18.38) scale(0.16 -0.16)">
     <defs>
      <path id="Cambria-3a" d="M 1156 2822 
L 1156 2091 
L 531 2091 
L 531 2822 
L 1156 2822 
z
M 1156 725 
L 1156 0 
L 531 0 
L 531 725 
L 1156 725 
z
" transform="scale(0.015625)"/>
      <path id="Cambria-54" d="M 206 4266 
L 3588 4266 
L 3588 3178 
L 3281 3178 
Q 3213 3447 3145 3603 
Q 3078 3759 3003 3840 
Q 2928 3922 2842 3956 
Q 2756 3991 2584 3991 
L 2188 3991 
L 2188 791 
Q 2188 606 2208 497 
Q 2228 388 2270 323 
Q 2313 259 2384 223 
Q 2456 188 2609 153 
L 2609 0 
L 1181 0 
L 1181 153 
Q 1275 175 1347 200 
Q 1419 225 1464 261 
Q 1509 297 1539 353 
Q 1569 409 1586 506 
Q 1603 603 1603 791 
L 1603 3991 
L 1209 3991 
Q 1063 3991 967 3962 
Q 872 3934 790 3845 
Q 709 3756 642 3592 
Q 575 3428 516 3178 
L 206 3178 
L 206 4266 
z
" transform="scale(0.015625)"/>
      <path id="Cambria-6f" d="M 1663 -50 
Q 1013 -50 670 333 
Q 328 716 328 1466 
Q 328 1981 508 2337 
Q 688 2694 1000 2867 
Q 1313 3041 1713 3041 
Q 2381 3041 2725 2652 
Q 3069 2263 3069 1534 
Q 3069 1016 2897 659 
Q 2725 303 2409 126 
Q 2094 -50 1663 -50 
z
M 919 1531 
Q 919 888 1123 542 
Q 1328 197 1709 197 
Q 1919 197 2066 298 
Q 2213 400 2305 572 
Q 2397 744 2437 970 
Q 2478 1197 2478 1444 
Q 2478 1903 2376 2206 
Q 2275 2509 2100 2651 
Q 1925 2794 1700 2794 
Q 1322 2794 1120 2466 
Q 919 2138 919 1531 
z
" transform="scale(0.015625)"/>
      <path id="Cambria-5f" d="M 0 -753 
L 0 -391 
L 2372 -391 
L 2372 -753 
L 0 -753 
z
" transform="scale(0.015625)"/>
      <path id="Cambria-64" d="M 2413 3397 
Q 2413 3697 2408 3815 
Q 2403 3934 2383 4017 
Q 2363 4100 2327 4147 
Q 2291 4194 2230 4222 
Q 2169 4250 2009 4278 
L 2009 4441 
L 2766 4472 
L 2950 4472 
L 2950 853 
Q 2950 609 2959 504 
Q 2969 400 3000 337 
Q 3031 275 3098 236 
Q 3166 197 3334 163 
L 3334 0 
L 2597 -31 
L 2409 -31 
L 2447 481 
L 2400 494 
Q 2203 284 2058 179 
Q 1913 75 1748 12 
Q 1584 -50 1397 -50 
Q 884 -50 606 339 
Q 328 728 328 1463 
Q 328 1975 509 2333 
Q 691 2691 998 2866 
Q 1306 3041 1691 3041 
Q 1897 3041 2065 3008 
Q 2234 2975 2413 2900 
L 2413 3397 
z
M 2413 1853 
Q 2413 2097 2391 2244 
Q 2369 2391 2317 2491 
Q 2266 2591 2178 2659 
Q 2091 2728 1986 2759 
Q 1881 2791 1734 2791 
Q 1334 2791 1125 2470 
Q 916 2150 916 1550 
Q 916 950 1087 637 
Q 1259 325 1609 325 
Q 1747 325 1837 348 
Q 1928 372 2015 423 
Q 2103 475 2193 565 
Q 2284 656 2326 731 
Q 2369 806 2391 903 
Q 2413 1000 2413 1153 
L 2413 1853 
z
" transform="scale(0.015625)"/>
      <path id="Cambria-57" d="M 2941 3469 
L 1941 -22 
L 1434 -22 
L 525 3372 
Q 469 3584 422 3718 
Q 375 3853 328 3929 
Q 281 4006 226 4045 
Q 172 4084 69 4113 
L 69 4266 
L 1406 4266 
L 1406 4113 
Q 1213 4075 1136 4000 
Q 1059 3925 1059 3791 
Q 1059 3681 1087 3531 
Q 1116 3381 1166 3191 
L 1794 722 
L 2800 4266 
L 3325 4266 
L 4141 719 
L 4878 3103 
Q 5013 3538 5013 3722 
Q 5013 3913 4933 3997 
Q 4853 4081 4669 4113 
L 4669 4266 
L 5900 4266 
L 5900 4113 
Q 5806 4081 5750 4042 
Q 5694 4003 5642 3936 
Q 5591 3869 5530 3728 
Q 5469 3588 5388 3350 
L 4250 -22 
L 3803 -22 
L 2941 3469 
z
" transform="scale(0.015625)"/>
      <path id="Cambria-52" d="M 1331 1853 
L 1331 791 
Q 1331 566 1348 464 
Q 1366 363 1400 311 
Q 1434 259 1493 226 
Q 1553 194 1697 153 
L 1697 0 
L 378 0 
L 378 153 
Q 572 203 637 264 
Q 703 325 723 437 
Q 744 550 744 781 
L 744 3484 
Q 744 3700 728 3798 
Q 713 3897 677 3951 
Q 641 4006 581 4039 
Q 522 4072 378 4113 
L 378 4266 
L 1925 4266 
Q 2656 4266 3018 4000 
Q 3381 3734 3381 3175 
Q 3381 2747 3145 2447 
Q 2909 2147 2438 1978 
L 2438 1953 
Q 2628 1875 2764 1729 
Q 2900 1584 3066 1278 
L 3347 766 
Q 3469 541 3556 422 
Q 3644 303 3734 240 
Q 3825 178 3975 153 
L 3975 0 
L 3109 0 
Q 2991 166 2884 356 
Q 2778 547 2675 744 
L 2400 1266 
Q 2275 1503 2195 1615 
Q 2116 1728 2048 1773 
Q 1981 1819 1904 1836 
Q 1828 1853 1675 1853 
L 1331 1853 
z
M 1331 3978 
L 1331 2122 
L 1684 2122 
Q 1956 2122 2125 2161 
Q 2294 2200 2437 2309 
Q 2581 2419 2667 2614 
Q 2753 2809 2753 3094 
Q 2753 3391 2651 3587 
Q 2550 3784 2344 3887 
Q 2138 3991 1788 3991 
Q 1506 3991 1331 3978 
z
" transform="scale(0.015625)"/>
     </defs>
     <use xlink:href="#Cambria-53"/>
     <use xlink:href="#Cambria-70" x="49.609375"/>
     <use xlink:href="#Cambria-65" x="105.224609"/>
     <use xlink:href="#Cambria-63" x="154.003906"/>
     <use xlink:href="#Cambria-69" x="198.095703"/>
     <use xlink:href="#Cambria-6d" x="225.878906"/>
     <use xlink:href="#Cambria-65" x="309.082031"/>
     <use xlink:href="#Cambria-6e" x="357.861328"/>
     <use xlink:href="#Cambria-20" x="413.671875"/>
     <use xlink:href="#Cambria-3a" x="435.693359"/>
     <use xlink:href="#Cambria-20" x="462.060547"/>
     <use xlink:href="#Cambria-54" x="484.082031"/>
     <use xlink:href="#Cambria-68" x="543.359375"/>
     <use xlink:href="#Cambria-6f" x="598.535156"/>
     <use xlink:href="#Cambria-6d" x="651.611328"/>
     <use xlink:href="#Cambria-73" x="734.814453"/>
     <use xlink:href="#Cambria-65" x="777.783203"/>
     <use xlink:href="#Cambria-6e" x="826.5625"/>
     <use xlink:href="#Cambria-5f" x="882.373047"/>
     <use xlink:href="#Cambria-61" x="919.433594"/>
     <use xlink:href="#Cambria-6e" x="968.261719"/>
     <use xlink:href="#Cambria-64" x="1024.072266"/>
     <use xlink:href="#Cambria-5f" x="1079.541016"/>
     <use xlink:href="#Cambria-57" x="1116.601562"/>
     <use xlink:href="#Cambria-61" x="1204.365234"/>
     <use xlink:href="#Cambria-6c" x="1253.193359"/>
     <use xlink:href="#Cambria-6c" x="1280.341797"/>
     <use xlink:href="#Cambria-61" x="1307.490234"/>
     <use xlink:href="#Cambria-63" x="1356.318359"/>
     <use xlink:href="#Cambria-65" x="1400.410156"/>
     <use xlink:href="#Cambria-5f" x="1449.189453"/>
     <use xlink:href="#Cambria-52" x="1486.25"/>
     <use xlink:href="#Cambria-57" x="1545.359375"/>
     <use xlink:href="#Cambria-32" x="1637.498047"/>
    </g>
   </g>
   <g id="legend_1">
    <g id="patch_7">
     <path d="M 71.791563 75.114687 
L 232.052188 75.114687 
Q 234.852188 75.114687 234.852188 72.314687 
L 234.852188 34.18 
Q 234.852188 31.38 232.052188 31.38 
L 71.791563 31.38 
Q 68.991563 31.38 68.991563 34.18 
L 68.991563 72.314687 
Q 68.991563 75.114687 71.791563 75.114687 
z
" style="fill: #ffffff; opacity: 0.8; stroke: #cccccc; stroke-linejoin: miter"/>
    </g>
    <g id="line2d_33">
     <path d="M 74.591563 41.88 
L 88.591563 41.88 
L 102.591563 41.88 
" style="fill: none; stroke-dasharray: 3.7,1.6; stroke-dashoffset: 0; stroke: #000000"/>
    </g>
    <g id="text_18">
     <!-- Experimental Data -->
     <g transform="translate(113.791563 46.78) scale(0.14 -0.14)">
      <defs>
       <path id="Cambria-45" d="M 3300 4266 
L 3300 3322 
L 2994 3322 
Q 2947 3475 2897 3590 
Q 2847 3706 2794 3784 
Q 2741 3863 2677 3909 
Q 2613 3956 2525 3973 
Q 2438 3991 2316 3991 
L 1328 3991 
L 1328 2353 
L 1997 2353 
Q 2134 2353 2212 2392 
Q 2291 2431 2342 2525 
Q 2394 2619 2441 2819 
L 2734 2819 
L 2734 1619 
L 2441 1619 
Q 2397 1806 2344 1901 
Q 2291 1997 2217 2037 
Q 2144 2078 1997 2078 
L 1328 2078 
L 1328 275 
L 2300 275 
Q 2453 275 2548 301 
Q 2644 328 2712 392 
Q 2781 456 2834 559 
Q 2888 663 2923 773 
Q 2959 884 3022 1097 
L 3331 1097 
L 3272 0 
L 378 0 
L 378 153 
Q 572 203 637 264 
Q 703 325 723 437 
Q 744 550 744 781 
L 744 3484 
Q 744 3700 728 3798 
Q 713 3897 677 3951 
Q 641 4006 581 4039 
Q 522 4072 378 4113 
L 378 4266 
L 3300 4266 
z
" transform="scale(0.015625)"/>
       <path id="Cambria-78" d="M 1625 1803 
L 2031 2319 
Q 2097 2403 2137 2483 
Q 2178 2563 2178 2647 
Q 2178 2719 2125 2766 
Q 2072 2813 1959 2834 
L 1959 2988 
L 2981 2988 
L 2981 2834 
Q 2863 2800 2739 2700 
Q 2616 2600 2438 2378 
L 1791 1584 
L 2503 625 
Q 2656 419 2778 309 
Q 2900 200 3022 153 
L 3022 0 
L 1766 0 
L 1766 153 
Q 2025 184 2025 347 
Q 2025 413 2003 472 
Q 1981 531 1922 609 
L 1469 1241 
L 988 616 
Q 934 547 904 489 
Q 875 431 875 359 
Q 875 275 933 220 
Q 991 166 1116 153 
L 1116 0 
L 72 0 
L 72 153 
Q 175 191 258 247 
Q 341 303 427 392 
Q 513 481 653 653 
L 1303 1459 
L 638 2372 
Q 500 2559 419 2643 
Q 338 2728 269 2772 
Q 200 2816 131 2834 
L 131 2988 
L 1356 2988 
L 1356 2834 
Q 1109 2797 1109 2641 
Q 1109 2569 1142 2497 
Q 1175 2425 1244 2338 
L 1625 1803 
z
" transform="scale(0.015625)"/>
      </defs>
      <use xlink:href="#Cambria-45"/>
      <use xlink:href="#Cambria-78" x="57.519531"/>
      <use xlink:href="#Cambria-70" x="105.859375"/>
      <use xlink:href="#Cambria-65" x="161.474609"/>
      <use xlink:href="#Cambria-72" x="210.253906"/>
      <use xlink:href="#Cambria-69" x="251.611328"/>
      <use xlink:href="#Cambria-6d" x="279.394531"/>
      <use xlink:href="#Cambria-65" x="362.597656"/>
      <use xlink:href="#Cambria-6e" x="411.376953"/>
      <use xlink:href="#Cambria-74" x="467.1875"/>
      <use xlink:href="#Cambria-61" x="501.025391"/>
      <use xlink:href="#Cambria-6c" x="549.853516"/>
      <use xlink:href="#Cambria-20" x="577.001953"/>
      <use xlink:href="#Cambria-44" x="599.023438"/>
      <use xlink:href="#Cambria-61" x="665.185547"/>
      <use xlink:href="#Cambria-74" x="714.013672"/>
      <use xlink:href="#Cambria-61" x="747.851562"/>
     </g>
    </g>
    <g id="line2d_34">
     <path d="M 74.591563 61.62 
L 88.591563 61.62 
L 102.591563 61.62 
" style="fill: none; stroke: #0000ff; stroke-width: 1.2; stroke-linecap: square"/>
    </g>
    <g id="text_19">
     <!-- Numerical Analysis -->
     <g transform="translate(113.791563 66.52) scale(0.14 -0.14)">
      <defs>
       <path id="Cambria-75" d="M 228 2988 
L 1119 2988 
L 1119 1397 
Q 1119 1031 1147 840 
Q 1175 650 1231 553 
Q 1288 456 1391 390 
Q 1494 325 1675 325 
Q 1794 325 1903 372 
Q 2013 419 2147 536 
Q 2281 653 2339 768 
Q 2397 884 2397 1038 
L 2397 2209 
Q 2397 2388 2387 2478 
Q 2378 2569 2356 2623 
Q 2334 2678 2304 2712 
Q 2275 2747 2220 2775 
Q 2166 2803 2044 2834 
L 2044 2988 
L 2934 2988 
L 2934 853 
Q 2934 613 2943 506 
Q 2953 400 2984 337 
Q 3016 275 3081 236 
Q 3147 197 3316 163 
L 3316 0 
L 2600 -31 
L 2409 -31 
L 2428 481 
L 2381 494 
Q 2122 213 1886 81 
Q 1650 -50 1413 -50 
Q 1128 -50 943 62 
Q 759 175 668 398 
Q 578 622 578 1028 
L 578 2209 
Q 578 2472 558 2570 
Q 538 2669 480 2726 
Q 422 2784 228 2834 
L 228 2988 
z
" transform="scale(0.015625)"/>
       <path id="Cambria-41" d="M 2488 0 
L 2488 153 
Q 2644 184 2720 221 
Q 2797 259 2834 326 
Q 2872 394 2872 506 
Q 2872 613 2847 736 
Q 2822 859 2775 1013 
L 2659 1416 
L 1203 1416 
L 1097 1109 
Q 1016 878 991 759 
Q 966 641 966 544 
Q 966 356 1061 268 
Q 1156 181 1353 153 
L 1353 0 
L 19 0 
L 19 153 
Q 194 181 323 356 
Q 453 531 575 856 
L 1878 4316 
L 2372 4316 
L 3434 831 
Q 3509 588 3567 459 
Q 3625 331 3706 259 
Q 3788 188 3928 153 
L 3928 0 
L 2488 0 
z
M 1288 1688 
L 2594 1688 
L 2000 3703 
L 1288 1688 
z
" transform="scale(0.015625)"/>
       <path id="Cambria-79" d="M 1625 -256 
Q 1453 -644 1290 -884 
Q 1128 -1125 933 -1247 
Q 738 -1369 469 -1369 
Q 297 -1369 81 -1328 
L 81 -709 
L 359 -709 
Q 397 -838 453 -888 
Q 509 -938 616 -938 
Q 709 -938 782 -902 
Q 856 -866 936 -778 
Q 1016 -691 1123 -509 
Q 1231 -328 1366 -50 
L 491 2303 
Q 406 2531 354 2622 
Q 303 2713 243 2759 
Q 184 2806 63 2834 
L 63 2988 
L 1334 2988 
L 1334 2834 
Q 1188 2800 1128 2767 
Q 1069 2734 1041 2682 
Q 1013 2631 1013 2550 
Q 1013 2466 1033 2375 
Q 1053 2284 1097 2163 
L 1653 597 
L 2278 2097 
Q 2331 2222 2361 2326 
Q 2391 2431 2391 2522 
Q 2391 2656 2317 2725 
Q 2244 2794 2063 2834 
L 2063 2988 
L 3231 2988 
L 3231 2834 
Q 3109 2809 3043 2757 
Q 2978 2706 2912 2595 
Q 2847 2484 2756 2284 
L 1625 -256 
z
" transform="scale(0.015625)"/>
      </defs>
      <use xlink:href="#Cambria-4e"/>
      <use xlink:href="#Cambria-75" x="68.066406"/>
      <use xlink:href="#Cambria-6d" x="123.291016"/>
      <use xlink:href="#Cambria-65" x="206.494141"/>
      <use xlink:href="#Cambria-72" x="255.273438"/>
      <use xlink:href="#Cambria-69" x="296.630859"/>
      <use xlink:href="#Cambria-63" x="324.414062"/>
      <use xlink:href="#Cambria-61" x="368.505859"/>
      <use xlink:href="#Cambria-6c" x="417.333984"/>
      <use xlink:href="#Cambria-20" x="444.482422"/>
      <use xlink:href="#Cambria-41" x="466.503906"/>
      <use xlink:href="#Cambria-6e" x="528.808594"/>
      <use xlink:href="#Cambria-61" x="584.619141"/>
      <use xlink:href="#Cambria-6c" x="633.447266"/>
      <use xlink:href="#Cambria-79" x="660.595703"/>
      <use xlink:href="#Cambria-73" x="710.986328"/>
      <use xlink:href="#Cambria-69" x="753.955078"/>
      <use xlink:href="#Cambria-73" x="781.738281"/>
     </g>
    </g>
   </g>
  </g>
 </g>
 <defs>
  <clipPath id="p21bd097c30">
   <rect x="61.991563" y="24.38" width="419.56" height="348.76"/>
  </clipPath>
 </defs>
</svg>
