<?xml version="1.0" encoding="utf-8" standalone="no"?>
<!DOCTYPE svg PUBLIC "-//W3C//DTD SVG 1.1//EN"
  "http://www.w3.org/Graphics/SVG/1.1/DTD/svg11.dtd">
<svg xmlns:xlink="http://www.w3.org/1999/xlink" width="488.751562pt" height="416.844062pt" viewBox="0 0 488.751562 416.844062" xmlns="http://www.w3.org/2000/svg" version="1.1">
 <metadata>
  <rdf:RDF xmlns:dc="http://purl.org/dc/elements/1.1/" xmlns:cc="http://creativecommons.org/ns#" xmlns:rdf="http://www.w3.org/1999/02/22-rdf-syntax-ns#">
   <cc:Work>
    <dc:type rdf:resource="http://purl.org/dc/dcmitype/StillImage"/>
    <dc:date>2023-11-21T19:47:25.984642</dc:date>
    <dc:format>image/svg+xml</dc:format>
    <dc:creator>
     <cc:Agent>
      <dc:title>Matplotlib v3.7.1, https://matplotlib.org/</dc:title>
     </cc:Agent>
    </dc:creator>
   </cc:Work>
  </rdf:RDF>
 </metadata>
 <defs>
  <style type="text/css">*{stroke-linejoin: round; stroke-linecap: butt}</style>
 </defs>
 <g id="figure_1">
  <g id="patch_1">
   <path d="M 0 416.844062 
L 488.751562 416.844062 
L 488.751562 0 
L 0 0 
z
" style="fill: #ffffff"/>
  </g>
  <g id="axes_1">
   <g id="patch_2">
    <path d="M 61.991563 373.14 
L 481.551562 373.14 
L 481.551562 24.38 
L 61.991563 24.38 
z
" style="fill: #ffffff"/>
   </g>
   <g id="matplotlib.axis_1">
    <g id="xtick_1">
     <g id="line2d_1">
      <path d="M 101.784159 373.14 
L 101.784159 24.38 
" clip-path="url(#pbe817346ad)" style="fill: none; stroke-dasharray: 0.8,1.32; stroke-dashoffset: 0; stroke: #b0b0b0; stroke-width: 0.8"/>
     </g>
     <g id="line2d_2">
      <defs>
       <path id="m22b3bc4b79" d="M 0 0 
L 0 3.5 
" style="stroke: #000000; stroke-width: 0.8"/>
      </defs>
      <g>
       <use xlink:href="#m22b3bc4b79" x="101.784159" y="373.14" style="stroke: #000000; stroke-width: 0.8"/>
      </g>
     </g>
     <g id="text_1">
      <!-- −75 -->
      <g transform="translate(90.155409 389.9225) scale(0.14 -0.14)">
       <defs>
        <path id="Cambria-2212" d="M 397 1613 
L 397 2047 
L 3147 2047 
L 3147 1613 
L 397 1613 
z
" transform="scale(0.015625)"/>
        <path id="Cambria-37" d="M 3206 4116 
L 1388 -22 
L 934 -22 
L 934 131 
L 2619 3697 
L 2619 3744 
L 1244 3744 
Q 1116 3744 1039 3720 
Q 963 3697 911 3653 
Q 859 3609 825 3537 
Q 791 3466 731 3253 
L 463 3253 
L 525 4266 
L 3206 4266 
L 3206 4116 
z
" transform="scale(0.015625)"/>
        <path id="Cambria-35" d="M 469 172 
L 469 834 
L 847 834 
Q 941 516 1130 366 
Q 1319 216 1619 216 
Q 2034 216 2246 466 
Q 2459 716 2459 1213 
Q 2459 1544 2346 1761 
Q 2234 1978 2043 2075 
Q 1853 2172 1600 2172 
Q 1388 2172 1234 2145 
Q 1081 2119 906 2063 
L 656 2209 
L 656 4266 
L 2378 4266 
Q 2484 4266 2531 4283 
Q 2578 4300 2606 4336 
Q 2634 4372 2672 4472 
L 2916 4472 
L 2869 3747 
L 1072 3747 
L 1072 2375 
Q 1234 2444 1425 2478 
Q 1616 2513 1806 2513 
Q 2178 2513 2465 2361 
Q 2753 2209 2909 1929 
Q 3066 1650 3066 1281 
Q 3066 863 2891 563 
Q 2716 263 2384 106 
Q 2053 -50 1600 -50 
Q 1059 -50 469 172 
z
" transform="scale(0.015625)"/>
       </defs>
       <use xlink:href="#Cambria-2212"/>
       <use xlink:href="#Cambria-37" x="55.371094"/>
       <use xlink:href="#Cambria-35" x="110.742188"/>
      </g>
     </g>
    </g>
    <g id="xtick_2">
     <g id="line2d_3">
      <path d="M 157.981481 373.14 
L 157.981481 24.38 
" clip-path="url(#pbe817346ad)" style="fill: none; stroke-dasharray: 0.8,1.32; stroke-dashoffset: 0; stroke: #b0b0b0; stroke-width: 0.8"/>
     </g>
     <g id="line2d_4">
      <g>
       <use xlink:href="#m22b3bc4b79" x="157.981481" y="373.14" style="stroke: #000000; stroke-width: 0.8"/>
      </g>
     </g>
     <g id="text_2">
      <!-- −50 -->
      <g transform="translate(146.352731 389.9225) scale(0.14 -0.14)">
       <defs>
        <path id="Cambria-30" d="M 1738 -50 
Q 1063 -50 733 481 
Q 403 1013 403 2094 
Q 403 2669 504 3087 
Q 606 3506 789 3779 
Q 972 4053 1228 4184 
Q 1484 4316 1788 4316 
Q 2472 4316 2806 3787 
Q 3141 3259 3141 2191 
Q 3141 1084 2783 517 
Q 2425 -50 1738 -50 
z
M 1013 2188 
Q 1013 1169 1202 692 
Q 1391 216 1788 216 
Q 2166 216 2348 664 
Q 2531 1113 2531 2053 
Q 2531 2772 2437 3217 
Q 2344 3663 2176 3856 
Q 2009 4050 1772 4050 
Q 1556 4050 1411 3922 
Q 1266 3794 1177 3553 
Q 1088 3313 1050 2967 
Q 1013 2622 1013 2188 
z
" transform="scale(0.015625)"/>
       </defs>
       <use xlink:href="#Cambria-2212"/>
       <use xlink:href="#Cambria-35" x="55.371094"/>
       <use xlink:href="#Cambria-30" x="110.742188"/>
      </g>
     </g>
    </g>
    <g id="xtick_3">
     <g id="line2d_5">
      <path d="M 214.178803 373.14 
L 214.178803 24.38 
" clip-path="url(#pbe817346ad)" style="fill: none; stroke-dasharray: 0.8,1.32; stroke-dashoffset: 0; stroke: #b0b0b0; stroke-width: 0.8"/>
     </g>
     <g id="line2d_6">
      <g>
       <use xlink:href="#m22b3bc4b79" x="214.178803" y="373.14" style="stroke: #000000; stroke-width: 0.8"/>
      </g>
     </g>
     <g id="text_3">
      <!-- −25 -->
      <g transform="translate(202.550053 389.9225) scale(0.14 -0.14)">
       <defs>
        <path id="Cambria-32" d="M 2194 500 
Q 2347 500 2440 519 
Q 2534 538 2590 581 
Q 2647 625 2680 695 
Q 2713 766 2763 913 
L 3028 913 
L 2975 0 
L 403 0 
L 403 150 
Q 538 478 766 822 
Q 994 1166 1413 1631 
Q 1775 2031 1934 2238 
Q 2109 2463 2195 2627 
Q 2281 2791 2318 2936 
Q 2356 3081 2356 3228 
Q 2356 3463 2281 3642 
Q 2206 3822 2051 3925 
Q 1897 4028 1663 4028 
Q 1078 4028 875 3378 
L 497 3378 
L 497 3978 
Q 875 4156 1204 4236 
Q 1534 4316 1797 4316 
Q 2378 4316 2675 4061 
Q 2972 3806 2972 3322 
Q 2972 3156 2939 3017 
Q 2906 2878 2836 2742 
Q 2766 2606 2647 2450 
Q 2528 2294 2384 2133 
Q 2241 1972 1888 1597 
Q 1294 969 1016 500 
L 2194 500 
z
" transform="scale(0.015625)"/>
       </defs>
       <use xlink:href="#Cambria-2212"/>
       <use xlink:href="#Cambria-32" x="55.371094"/>
       <use xlink:href="#Cambria-35" x="110.742188"/>
      </g>
     </g>
    </g>
    <g id="xtick_4">
     <g id="line2d_7">
      <path d="M 270.376125 373.14 
L 270.376125 24.38 
" clip-path="url(#pbe817346ad)" style="fill: none; stroke-dasharray: 0.8,1.32; stroke-dashoffset: 0; stroke: #b0b0b0; stroke-width: 0.8"/>
     </g>
     <g id="line2d_8">
      <g>
       <use xlink:href="#m22b3bc4b79" x="270.376125" y="373.14" style="stroke: #000000; stroke-width: 0.8"/>
      </g>
     </g>
     <g id="text_4">
      <!-- 0 -->
      <g transform="translate(266.499875 389.9225) scale(0.14 -0.14)">
       <use xlink:href="#Cambria-30"/>
      </g>
     </g>
    </g>
    <g id="xtick_5">
     <g id="line2d_9">
      <path d="M 326.573446 373.14 
L 326.573446 24.38 
" clip-path="url(#pbe817346ad)" style="fill: none; stroke-dasharray: 0.8,1.32; stroke-dashoffset: 0; stroke: #b0b0b0; stroke-width: 0.8"/>
     </g>
     <g id="line2d_10">
      <g>
       <use xlink:href="#m22b3bc4b79" x="326.573446" y="373.14" style="stroke: #000000; stroke-width: 0.8"/>
      </g>
     </g>
     <g id="text_5">
      <!-- 25 -->
      <g transform="translate(318.820946 389.9225) scale(0.14 -0.14)">
       <use xlink:href="#Cambria-32"/>
       <use xlink:href="#Cambria-35" x="55.371094"/>
      </g>
     </g>
    </g>
    <g id="xtick_6">
     <g id="line2d_11">
      <path d="M 382.770768 373.14 
L 382.770768 24.38 
" clip-path="url(#pbe817346ad)" style="fill: none; stroke-dasharray: 0.8,1.32; stroke-dashoffset: 0; stroke: #b0b0b0; stroke-width: 0.8"/>
     </g>
     <g id="line2d_12">
      <g>
       <use xlink:href="#m22b3bc4b79" x="382.770768" y="373.14" style="stroke: #000000; stroke-width: 0.8"/>
      </g>
     </g>
     <g id="text_6">
      <!-- 50 -->
      <g transform="translate(375.018268 389.9225) scale(0.14 -0.14)">
       <use xlink:href="#Cambria-35"/>
       <use xlink:href="#Cambria-30" x="55.371094"/>
      </g>
     </g>
    </g>
    <g id="xtick_7">
     <g id="line2d_13">
      <path d="M 438.96809 373.14 
L 438.96809 24.38 
" clip-path="url(#pbe817346ad)" style="fill: none; stroke-dasharray: 0.8,1.32; stroke-dashoffset: 0; stroke: #b0b0b0; stroke-width: 0.8"/>
     </g>
     <g id="line2d_14">
      <g>
       <use xlink:href="#m22b3bc4b79" x="438.96809" y="373.14" style="stroke: #000000; stroke-width: 0.8"/>
      </g>
     </g>
     <g id="text_7">
      <!-- 75 -->
      <g transform="translate(431.21559 389.9225) scale(0.14 -0.14)">
       <use xlink:href="#Cambria-37"/>
       <use xlink:href="#Cambria-35" x="55.371094"/>
      </g>
     </g>
    </g>
    <g id="text_8">
     <!-- Displacement (mm) -->
     <g transform="translate(212.424688 406.67125) scale(0.14 -0.14)">
      <defs>
       <path id="Cambria-44" d="M 375 0 
L 375 153 
Q 519 191 581 225 
Q 644 259 678 312 
Q 713 366 728 466 
Q 744 566 744 781 
L 744 3484 
Q 744 3703 728 3801 
Q 713 3900 677 3953 
Q 641 4006 581 4039 
Q 522 4072 375 4113 
L 375 4266 
L 1744 4266 
Q 2334 4266 2711 4136 
Q 3088 4006 3347 3753 
Q 3606 3500 3734 3123 
Q 3863 2747 3863 2225 
Q 3863 1697 3742 1295 
Q 3622 894 3391 622 
Q 3191 384 2900 231 
Q 2659 106 2343 53 
Q 2028 0 1506 0 
L 375 0 
z
M 1328 291 
Q 1453 278 1697 278 
Q 1959 278 2165 322 
Q 2372 366 2540 459 
Q 2709 553 2843 720 
Q 2978 888 3062 1105 
Q 3147 1322 3186 1587 
Q 3225 1853 3225 2169 
Q 3225 2803 3042 3211 
Q 2859 3619 2526 3806 
Q 2194 3994 1731 3994 
Q 1519 3994 1328 3981 
L 1328 291 
z
" transform="scale(0.015625)"/>
       <path id="Cambria-69" d="M 1197 4213 
L 1197 3606 
L 622 3606 
L 622 4213 
L 1197 4213 
z
M 303 153 
Q 425 191 476 219 
Q 528 247 564 297 
Q 600 347 620 450 
Q 641 553 641 772 
L 641 2134 
Q 641 2334 634 2456 
Q 628 2578 590 2651 
Q 553 2725 476 2761 
Q 400 2797 259 2822 
L 259 2988 
L 988 3016 
L 1178 3016 
L 1178 781 
Q 1178 513 1203 408 
Q 1228 303 1298 248 
Q 1369 194 1528 153 
L 1528 0 
L 303 0 
L 303 153 
z
" transform="scale(0.015625)"/>
       <path id="Cambria-73" d="M 2397 2303 
L 2097 2303 
Q 2028 2491 1934 2598 
Q 1841 2706 1722 2750 
Q 1603 2794 1431 2794 
Q 1181 2794 1032 2676 
Q 884 2559 884 2356 
Q 884 2213 943 2119 
Q 1003 2025 1128 1944 
Q 1253 1863 1569 1728 
Q 1888 1591 2061 1475 
Q 2234 1359 2332 1206 
Q 2431 1053 2431 841 
Q 2431 594 2347 425 
Q 2263 256 2109 150 
Q 1956 44 1745 -3 
Q 1534 -50 1284 -50 
Q 1022 -50 775 -11 
Q 528 28 294 91 
L 294 744 
L 600 744 
Q 684 456 850 326 
Q 1016 197 1306 197 
Q 1419 197 1526 220 
Q 1634 244 1718 298 
Q 1803 353 1853 447 
Q 1903 541 1903 681 
Q 1903 841 1840 941 
Q 1778 1041 1647 1123 
Q 1516 1206 1184 1347 
Q 900 1466 728 1578 
Q 556 1691 457 1844 
Q 359 1997 359 2206 
Q 359 2463 498 2652 
Q 638 2841 900 2941 
Q 1163 3041 1516 3041 
Q 1722 3041 1914 3020 
Q 2106 3000 2397 2941 
L 2397 2303 
z
" transform="scale(0.015625)"/>
       <path id="Cambria-70" d="M 1150 94 
L 1150 -566 
Q 1150 -769 1164 -869 
Q 1178 -969 1214 -1026 
Q 1250 -1084 1317 -1121 
Q 1384 -1159 1534 -1191 
L 1534 -1344 
L 259 -1344 
L 259 -1191 
Q 372 -1159 442 -1126 
Q 513 -1094 550 -1030 
Q 588 -966 600 -856 
Q 613 -747 613 -566 
L 613 2116 
Q 613 2341 606 2436 
Q 600 2531 581 2593 
Q 563 2656 527 2697 
Q 491 2738 430 2766 
Q 369 2794 228 2822 
L 228 2988 
L 963 3016 
L 1153 3016 
L 1113 2506 
L 1159 2494 
Q 1353 2691 1465 2780 
Q 1578 2869 1698 2928 
Q 1819 2988 1930 3013 
Q 2041 3038 2166 3038 
Q 2681 3038 2957 2652 
Q 3234 2266 3234 1522 
Q 3234 1006 3078 654 
Q 2922 303 2623 126 
Q 2325 -50 1913 -50 
Q 1681 -50 1493 -11 
Q 1306 28 1150 94 
z
M 1150 1125 
Q 1150 825 1187 662 
Q 1225 500 1320 398 
Q 1416 297 1545 247 
Q 1675 197 1888 197 
Q 2266 197 2456 511 
Q 2647 825 2647 1438 
Q 2647 2663 1931 2663 
Q 1756 2663 1629 2608 
Q 1503 2553 1378 2431 
Q 1253 2309 1201 2195 
Q 1150 2081 1150 1950 
L 1150 1125 
z
" transform="scale(0.015625)"/>
       <path id="Cambria-6c" d="M 1138 781 
Q 1138 513 1163 408 
Q 1188 303 1258 248 
Q 1328 194 1488 153 
L 1488 0 
L 247 0 
L 247 153 
Q 403 194 464 237 
Q 525 281 551 342 
Q 578 403 589 508 
Q 600 613 600 781 
L 600 3397 
Q 600 3697 595 3815 
Q 591 3934 570 4017 
Q 550 4100 514 4147 
Q 478 4194 417 4222 
Q 356 4250 197 4278 
L 197 4441 
L 950 4472 
L 1138 4472 
L 1138 781 
z
" transform="scale(0.015625)"/>
       <path id="Cambria-61" d="M 2109 447 
L 2063 459 
Q 1791 181 1552 65 
Q 1313 -50 1044 -50 
Q 806 -50 625 42 
Q 444 134 347 301 
Q 250 469 250 688 
Q 250 1144 701 1392 
Q 1153 1641 2056 1681 
L 2056 1884 
Q 2056 2209 1993 2396 
Q 1931 2584 1797 2671 
Q 1663 2759 1438 2759 
Q 1194 2759 1045 2631 
Q 897 2503 822 2247 
L 413 2247 
L 413 2653 
Q 713 2809 913 2882 
Q 1113 2956 1313 2998 
Q 1513 3041 1719 3041 
Q 2028 3041 2215 2942 
Q 2403 2844 2497 2641 
Q 2591 2438 2591 2028 
L 2591 941 
Q 2591 709 2594 614 
Q 2597 519 2612 437 
Q 2628 356 2659 307 
Q 2691 259 2752 225 
Q 2813 191 2950 153 
L 2950 0 
L 2094 0 
L 2109 447 
z
M 2056 1425 
Q 1422 1419 1106 1256 
Q 791 1094 791 766 
Q 791 588 862 484 
Q 934 381 1043 342 
Q 1153 303 1303 303 
Q 1516 303 1689 406 
Q 1863 509 1959 668 
Q 2056 828 2056 984 
L 2056 1425 
z
" transform="scale(0.015625)"/>
       <path id="Cambria-63" d="M 2631 2916 
L 2631 2263 
L 2234 2263 
Q 2181 2466 2103 2583 
Q 2025 2700 1922 2747 
Q 1819 2794 1666 2794 
Q 1447 2794 1278 2653 
Q 1109 2513 1011 2225 
Q 913 1938 913 1522 
Q 913 1256 950 1036 
Q 988 816 1078 659 
Q 1169 503 1319 415 
Q 1469 328 1691 328 
Q 1906 328 2092 412 
Q 2278 497 2478 709 
L 2656 503 
Q 2497 328 2375 233 
Q 2253 138 2114 73 
Q 1975 9 1839 -20 
Q 1703 -50 1544 -50 
Q 953 -50 640 342 
Q 328 734 328 1475 
Q 328 1938 503 2295 
Q 678 2653 993 2847 
Q 1309 3041 1722 3041 
Q 1978 3041 2195 3011 
Q 2413 2981 2631 2916 
z
" transform="scale(0.015625)"/>
       <path id="Cambria-65" d="M 2800 531 
Q 2600 322 2433 203 
Q 2266 84 2066 17 
Q 1866 -50 1625 -50 
Q 981 -50 653 336 
Q 325 722 325 1475 
Q 325 1941 492 2297 
Q 659 2653 968 2847 
Q 1278 3041 1681 3041 
Q 1997 3041 2219 2941 
Q 2441 2841 2573 2667 
Q 2706 2494 2779 2230 
Q 2853 1966 2863 1541 
L 894 1541 
L 894 1484 
Q 894 1116 976 864 
Q 1059 613 1248 470 
Q 1438 328 1741 328 
Q 1997 328 2201 423 
Q 2406 519 2609 734 
L 2800 531 
z
M 2275 1800 
Q 2256 2138 2190 2352 
Q 2125 2566 1994 2680 
Q 1863 2794 1650 2794 
Q 1328 2794 1136 2536 
Q 944 2278 909 1800 
L 2275 1800 
z
" transform="scale(0.015625)"/>
       <path id="Cambria-6d" d="M 1147 2506 
L 1191 2494 
Q 1378 2681 1498 2776 
Q 1619 2872 1731 2930 
Q 1844 2988 1942 3013 
Q 2041 3038 2144 3038 
Q 2456 3038 2653 2894 
Q 2850 2750 2925 2453 
Q 3159 2691 3304 2803 
Q 3450 2916 3601 2977 
Q 3753 3038 3928 3038 
Q 4138 3038 4289 2977 
Q 4441 2916 4545 2789 
Q 4650 2663 4698 2472 
Q 4747 2281 4747 1959 
L 4747 781 
Q 4747 544 4762 453 
Q 4778 363 4808 313 
Q 4838 263 4897 227 
Q 4956 191 5097 153 
L 5097 0 
L 3869 0 
L 3869 153 
Q 3991 191 4044 219 
Q 4097 247 4133 297 
Q 4169 347 4189 451 
Q 4209 556 4209 769 
L 4209 1588 
Q 4209 1853 4195 2026 
Q 4181 2200 4151 2303 
Q 4122 2406 4080 2465 
Q 4038 2525 3984 2569 
Q 3931 2613 3859 2638 
Q 3788 2663 3669 2663 
Q 3544 2663 3436 2613 
Q 3328 2563 3201 2444 
Q 3075 2325 3019 2204 
Q 2963 2084 2963 1922 
L 2963 781 
Q 2963 544 2978 453 
Q 2994 363 3023 313 
Q 3053 263 3112 227 
Q 3172 191 3313 153 
L 3313 0 
L 2084 0 
L 2084 153 
Q 2206 191 2259 219 
Q 2313 247 2348 297 
Q 2384 347 2404 451 
Q 2425 556 2425 769 
L 2425 1588 
Q 2425 1866 2409 2041 
Q 2394 2216 2361 2322 
Q 2328 2428 2276 2493 
Q 2225 2559 2172 2593 
Q 2119 2628 2047 2645 
Q 1975 2663 1884 2663 
Q 1756 2663 1643 2605 
Q 1531 2547 1414 2437 
Q 1297 2328 1237 2209 
Q 1178 2091 1178 1953 
L 1178 781 
Q 1178 603 1187 509 
Q 1197 416 1217 362 
Q 1238 309 1269 276 
Q 1300 244 1358 214 
Q 1416 184 1531 153 
L 1531 0 
L 306 0 
L 306 153 
Q 425 191 476 219 
Q 528 247 565 297 
Q 603 347 622 450 
Q 641 553 641 772 
L 641 2134 
Q 641 2334 634 2456 
Q 628 2578 590 2651 
Q 553 2725 476 2761 
Q 400 2797 259 2822 
L 259 2988 
L 991 3016 
L 1181 3016 
L 1147 2506 
z
" transform="scale(0.015625)"/>
       <path id="Cambria-6e" d="M 3347 0 
L 2116 0 
L 2116 153 
Q 2238 191 2291 219 
Q 2344 247 2380 297 
Q 2416 347 2436 451 
Q 2456 556 2456 769 
L 2456 1588 
Q 2456 1806 2443 1984 
Q 2431 2163 2401 2277 
Q 2372 2391 2330 2455 
Q 2288 2519 2230 2564 
Q 2172 2609 2097 2636 
Q 2022 2663 1900 2663 
Q 1778 2663 1668 2614 
Q 1559 2566 1428 2447 
Q 1297 2328 1237 2212 
Q 1178 2097 1178 1947 
L 1178 781 
Q 1178 513 1203 408 
Q 1228 303 1298 248 
Q 1369 194 1528 153 
L 1528 0 
L 303 0 
L 303 153 
Q 425 191 476 219 
Q 528 247 564 297 
Q 600 347 620 450 
Q 641 553 641 772 
L 641 2134 
Q 641 2334 634 2456 
Q 628 2578 590 2651 
Q 553 2725 476 2761 
Q 400 2797 259 2822 
L 259 2988 
L 991 3016 
L 1181 3016 
L 1147 2506 
L 1191 2494 
Q 1422 2728 1564 2828 
Q 1706 2928 1851 2983 
Q 1997 3038 2159 3038 
Q 2328 3038 2461 2998 
Q 2594 2959 2695 2878 
Q 2797 2797 2862 2676 
Q 2928 2556 2961 2387 
Q 2994 2219 2994 1959 
L 2994 781 
Q 2994 566 3006 469 
Q 3019 372 3050 319 
Q 3081 266 3140 230 
Q 3200 194 3347 153 
L 3347 0 
z
" transform="scale(0.015625)"/>
       <path id="Cambria-74" d="M 116 2831 
Q 272 2856 369 2918 
Q 466 2981 520 3079 
Q 575 3178 606 3326 
Q 638 3475 672 3759 
L 1116 3759 
L 1116 2988 
L 2125 2988 
L 2125 2672 
L 1116 2672 
L 1116 1281 
Q 1116 978 1141 798 
Q 1166 619 1234 517 
Q 1303 416 1390 372 
Q 1478 328 1616 328 
Q 1741 328 1850 379 
Q 1959 431 2066 528 
L 2206 359 
Q 1984 144 1786 47 
Q 1588 -50 1375 -50 
Q 972 -50 775 189 
Q 578 428 578 938 
L 578 2672 
L 116 2672 
L 116 2831 
z
" transform="scale(0.015625)"/>
       <path id="Cambria-20" transform="scale(0.015625)"/>
       <path id="Cambria-28" d="M 2309 -1359 
Q 1778 -1359 1442 -1200 
Q 1106 -1041 918 -714 
Q 731 -388 647 134 
Q 563 656 563 1550 
Q 563 2438 645 2964 
Q 728 3491 915 3822 
Q 1103 4153 1440 4318 
Q 1778 4484 2309 4484 
L 2309 4228 
Q 2091 4228 1922 4191 
Q 1731 4147 1597 4022 
Q 1447 3884 1353 3638 
Q 1244 3350 1191 2875 
Q 1134 2372 1134 1575 
Q 1134 872 1181 379 
Q 1228 -113 1338 -425 
Q 1425 -688 1556 -834 
Q 1672 -963 1831 -1028 
Q 2016 -1103 2309 -1103 
L 2309 -1359 
z
" transform="scale(0.015625)"/>
       <path id="Cambria-29" d="M 134 4484 
Q 666 4484 1002 4325 
Q 1338 4166 1525 3839 
Q 1713 3513 1797 2991 
Q 1881 2469 1881 1575 
Q 1881 688 1798 161 
Q 1716 -366 1528 -697 
Q 1341 -1028 1003 -1193 
Q 666 -1359 134 -1359 
L 134 -1103 
Q 353 -1103 522 -1066 
Q 713 -1022 847 -897 
Q 997 -759 1091 -513 
Q 1200 -225 1253 250 
Q 1309 753 1309 1550 
Q 1309 2253 1262 2745 
Q 1216 3238 1106 3550 
Q 1019 3813 888 3959 
Q 772 4088 613 4153 
Q 428 4228 134 4228 
L 134 4484 
z
" transform="scale(0.015625)"/>
      </defs>
      <use xlink:href="#Cambria-44"/>
      <use xlink:href="#Cambria-69" x="66.162109"/>
      <use xlink:href="#Cambria-73" x="93.945312"/>
      <use xlink:href="#Cambria-70" x="136.914062"/>
      <use xlink:href="#Cambria-6c" x="192.529297"/>
      <use xlink:href="#Cambria-61" x="219.677734"/>
      <use xlink:href="#Cambria-63" x="268.505859"/>
      <use xlink:href="#Cambria-65" x="312.597656"/>
      <use xlink:href="#Cambria-6d" x="361.376953"/>
      <use xlink:href="#Cambria-65" x="444.580078"/>
      <use xlink:href="#Cambria-6e" x="493.359375"/>
      <use xlink:href="#Cambria-74" x="549.169922"/>
      <use xlink:href="#Cambria-20" x="583.007812"/>
      <use xlink:href="#Cambria-28" x="605.029297"/>
      <use xlink:href="#Cambria-6d" x="643.212891"/>
      <use xlink:href="#Cambria-6d" x="726.416016"/>
      <use xlink:href="#Cambria-29" x="809.619141"/>
     </g>
    </g>
   </g>
   <g id="matplotlib.axis_2">
    <g id="ytick_1">
     <g id="line2d_15">
      <path d="M 61.991563 348.111468 
L 481.551562 348.111468 
" clip-path="url(#pbe817346ad)" style="fill: none; stroke-dasharray: 0.8,1.32; stroke-dashoffset: 0; stroke: #b0b0b0; stroke-width: 0.8"/>
     </g>
     <g id="line2d_16">
      <defs>
       <path id="mfe8f5fd9bd" d="M 0 0 
L -3.5 0 
" style="stroke: #000000; stroke-width: 0.8"/>
      </defs>
      <g>
       <use xlink:href="#mfe8f5fd9bd" x="61.991563" y="348.111468" style="stroke: #000000; stroke-width: 0.8"/>
      </g>
     </g>
     <g id="text_9">
      <!-- −150 -->
      <g transform="translate(23.981563 353.002718) scale(0.14 -0.14)">
       <defs>
        <path id="Cambria-31" d="M 2172 816 
Q 2172 634 2192 542 
Q 2213 450 2264 392 
Q 2316 334 2412 301 
Q 2509 269 2656 251 
Q 2803 234 3044 228 
L 3044 0 
L 734 0 
L 734 228 
Q 1081 244 1229 270 
Q 1378 297 1456 350 
Q 1534 403 1570 500 
Q 1606 597 1606 816 
L 1606 3350 
Q 1606 3475 1562 3533 
Q 1519 3591 1434 3591 
Q 1334 3591 1150 3487 
Q 966 3384 694 3203 
L 556 3444 
L 2019 4316 
L 2191 4316 
Q 2172 4016 2172 3484 
L 2172 816 
z
" transform="scale(0.015625)"/>
       </defs>
       <use xlink:href="#Cambria-2212"/>
       <use xlink:href="#Cambria-31" x="55.371094"/>
       <use xlink:href="#Cambria-35" x="110.742188"/>
       <use xlink:href="#Cambria-30" x="166.113281"/>
      </g>
     </g>
    </g>
    <g id="ytick_2">
     <g id="line2d_17">
      <path d="M 61.991563 298.509231 
L 481.551562 298.509231 
" clip-path="url(#pbe817346ad)" style="fill: none; stroke-dasharray: 0.8,1.32; stroke-dashoffset: 0; stroke: #b0b0b0; stroke-width: 0.8"/>
     </g>
     <g id="line2d_18">
      <g>
       <use xlink:href="#mfe8f5fd9bd" x="61.991563" y="298.509231" style="stroke: #000000; stroke-width: 0.8"/>
      </g>
     </g>
     <g id="text_10">
      <!-- −100 -->
      <g transform="translate(23.981563 303.400481) scale(0.14 -0.14)">
       <use xlink:href="#Cambria-2212"/>
       <use xlink:href="#Cambria-31" x="55.371094"/>
       <use xlink:href="#Cambria-30" x="110.742188"/>
       <use xlink:href="#Cambria-30" x="166.113281"/>
      </g>
     </g>
    </g>
    <g id="ytick_3">
     <g id="line2d_19">
      <path d="M 61.991563 248.906995 
L 481.551562 248.906995 
" clip-path="url(#pbe817346ad)" style="fill: none; stroke-dasharray: 0.8,1.32; stroke-dashoffset: 0; stroke: #b0b0b0; stroke-width: 0.8"/>
     </g>
     <g id="line2d_20">
      <g>
       <use xlink:href="#mfe8f5fd9bd" x="61.991563" y="248.906995" style="stroke: #000000; stroke-width: 0.8"/>
      </g>
     </g>
     <g id="text_11">
      <!-- −50 -->
      <g transform="translate(31.734063 253.798245) scale(0.14 -0.14)">
       <use xlink:href="#Cambria-2212"/>
       <use xlink:href="#Cambria-35" x="55.371094"/>
       <use xlink:href="#Cambria-30" x="110.742188"/>
      </g>
     </g>
    </g>
    <g id="ytick_4">
     <g id="line2d_21">
      <path d="M 61.991563 199.304759 
L 481.551562 199.304759 
" clip-path="url(#pbe817346ad)" style="fill: none; stroke-dasharray: 0.8,1.32; stroke-dashoffset: 0; stroke: #b0b0b0; stroke-width: 0.8"/>
     </g>
     <g id="line2d_22">
      <g>
       <use xlink:href="#mfe8f5fd9bd" x="61.991563" y="199.304759" style="stroke: #000000; stroke-width: 0.8"/>
      </g>
     </g>
     <g id="text_12">
      <!-- 0 -->
      <g transform="translate(47.239063 204.196009) scale(0.14 -0.14)">
       <use xlink:href="#Cambria-30"/>
      </g>
     </g>
    </g>
    <g id="ytick_5">
     <g id="line2d_23">
      <path d="M 61.991563 149.702523 
L 481.551562 149.702523 
" clip-path="url(#pbe817346ad)" style="fill: none; stroke-dasharray: 0.8,1.32; stroke-dashoffset: 0; stroke: #b0b0b0; stroke-width: 0.8"/>
     </g>
     <g id="line2d_24">
      <g>
       <use xlink:href="#mfe8f5fd9bd" x="61.991563" y="149.702523" style="stroke: #000000; stroke-width: 0.8"/>
      </g>
     </g>
     <g id="text_13">
      <!-- 50 -->
      <g transform="translate(39.486563 154.593773) scale(0.14 -0.14)">
       <use xlink:href="#Cambria-35"/>
       <use xlink:href="#Cambria-30" x="55.371094"/>
      </g>
     </g>
    </g>
    <g id="ytick_6">
     <g id="line2d_25">
      <path d="M 61.991563 100.100287 
L 481.551562 100.100287 
" clip-path="url(#pbe817346ad)" style="fill: none; stroke-dasharray: 0.8,1.32; stroke-dashoffset: 0; stroke: #b0b0b0; stroke-width: 0.8"/>
     </g>
     <g id="line2d_26">
      <g>
       <use xlink:href="#mfe8f5fd9bd" x="61.991563" y="100.100287" style="stroke: #000000; stroke-width: 0.8"/>
      </g>
     </g>
     <g id="text_14">
      <!-- 100 -->
      <g transform="translate(31.734063 104.991537) scale(0.14 -0.14)">
       <use xlink:href="#Cambria-31"/>
       <use xlink:href="#Cambria-30" x="55.371094"/>
       <use xlink:href="#Cambria-30" x="110.742188"/>
      </g>
     </g>
    </g>
    <g id="ytick_7">
     <g id="line2d_27">
      <path d="M 61.991563 50.498051 
L 481.551562 50.498051 
" clip-path="url(#pbe817346ad)" style="fill: none; stroke-dasharray: 0.8,1.32; stroke-dashoffset: 0; stroke: #b0b0b0; stroke-width: 0.8"/>
     </g>
     <g id="line2d_28">
      <g>
       <use xlink:href="#mfe8f5fd9bd" x="61.991563" y="50.498051" style="stroke: #000000; stroke-width: 0.8"/>
      </g>
     </g>
     <g id="text_15">
      <!-- 150 -->
      <g transform="translate(31.734063 55.389301) scale(0.14 -0.14)">
       <use xlink:href="#Cambria-31"/>
       <use xlink:href="#Cambria-35" x="55.371094"/>
       <use xlink:href="#Cambria-30" x="110.742188"/>
      </g>
     </g>
    </g>
    <g id="text_16">
     <!-- Base Shear (kN) -->
     <g transform="translate(17.00875 246.80625) rotate(-90) scale(0.14 -0.14)">
      <defs>
       <path id="Cambria-42" d="M 378 0 
L 378 153 
Q 572 203 637 264 
Q 703 325 723 437 
Q 744 550 744 781 
L 744 3484 
Q 744 3700 728 3798 
Q 713 3897 677 3951 
Q 641 4006 581 4039 
Q 522 4072 378 4113 
L 378 4266 
L 2088 4266 
Q 2584 4266 2886 4159 
Q 3188 4053 3334 3845 
Q 3481 3638 3481 3309 
Q 3481 3038 3376 2838 
Q 3272 2638 3103 2506 
Q 2934 2375 2669 2263 
L 2669 2234 
Q 3094 2106 3312 1839 
Q 3531 1572 3531 1203 
Q 3531 778 3342 509 
Q 3153 241 2812 120 
Q 2472 0 1988 0 
L 378 0 
z
M 1875 2353 
Q 2350 2353 2601 2583 
Q 2853 2813 2853 3250 
Q 2853 3466 2783 3608 
Q 2713 3750 2589 3834 
Q 2466 3919 2297 3955 
Q 2128 3991 1931 3991 
Q 1813 3991 1619 3984 
Q 1425 3978 1328 3972 
L 1328 2353 
L 1875 2353 
z
M 1328 297 
Q 1556 275 1838 275 
Q 2247 275 2473 378 
Q 2700 481 2801 682 
Q 2903 884 2903 1188 
Q 2903 1491 2792 1687 
Q 2681 1884 2450 1981 
Q 2219 2078 1813 2078 
L 1328 2078 
L 1328 297 
z
" transform="scale(0.015625)"/>
       <path id="Cambria-53" d="M 663 972 
Q 725 697 831 537 
Q 938 378 1106 301 
Q 1275 225 1541 225 
Q 1906 225 2101 415 
Q 2297 606 2297 972 
Q 2297 1206 2215 1365 
Q 2134 1525 1950 1665 
Q 1766 1806 1388 1994 
Q 1022 2175 809 2348 
Q 597 2522 492 2725 
Q 388 2928 388 3169 
Q 388 3519 552 3776 
Q 716 4034 1033 4175 
Q 1350 4316 1759 4316 
Q 1997 4316 2223 4291 
Q 2450 4266 2791 4178 
L 2791 3334 
L 2481 3334 
Q 2409 3609 2300 3762 
Q 2191 3916 2044 3977 
Q 1897 4038 1663 4038 
Q 1459 4038 1298 3963 
Q 1138 3888 1044 3736 
Q 950 3584 950 3375 
Q 950 3153 1029 3000 
Q 1109 2847 1278 2715 
Q 1447 2584 1778 2422 
Q 2178 2222 2398 2050 
Q 2619 1878 2742 1658 
Q 2866 1438 2866 1144 
Q 2866 816 2762 589 
Q 2659 363 2476 220 
Q 2294 78 2039 14 
Q 1784 -50 1481 -50 
Q 991 -50 350 116 
L 350 972 
L 663 972 
z
" transform="scale(0.015625)"/>
       <path id="Cambria-68" d="M 1141 2497 
L 1153 2494 
Q 1397 2741 1539 2839 
Q 1681 2938 1820 2988 
Q 1959 3038 2119 3038 
Q 2291 3038 2425 2997 
Q 2559 2956 2661 2873 
Q 2763 2791 2827 2670 
Q 2891 2550 2922 2383 
Q 2953 2216 2953 1959 
L 2953 781 
Q 2953 509 2976 411 
Q 3000 313 3061 258 
Q 3122 203 3306 153 
L 3306 0 
L 2075 0 
L 2075 153 
Q 2197 191 2250 219 
Q 2303 247 2339 297 
Q 2375 347 2395 451 
Q 2416 556 2416 769 
L 2416 1588 
Q 2416 2003 2373 2223 
Q 2331 2444 2207 2553 
Q 2084 2663 1863 2663 
Q 1738 2663 1638 2619 
Q 1538 2575 1406 2462 
Q 1275 2350 1208 2231 
Q 1141 2113 1141 1978 
L 1141 781 
Q 1141 569 1152 478 
Q 1163 388 1194 327 
Q 1225 266 1289 227 
Q 1353 188 1488 153 
L 1488 0 
L 250 0 
L 250 153 
Q 388 191 447 225 
Q 506 259 539 312 
Q 572 366 587 466 
Q 603 566 603 781 
L 603 3397 
Q 603 3697 598 3815 
Q 594 3934 573 4017 
Q 553 4100 517 4147 
Q 481 4194 420 4222 
Q 359 4250 200 4278 
L 200 4441 
L 953 4472 
L 1141 4472 
L 1141 2497 
z
" transform="scale(0.015625)"/>
       <path id="Cambria-72" d="M 1147 2469 
L 1191 2459 
Q 1363 2669 1509 2789 
Q 1656 2909 1826 2975 
Q 1997 3041 2213 3041 
Q 2394 3041 2541 3022 
L 2541 2303 
L 2188 2303 
Q 2113 2472 2028 2548 
Q 1944 2625 1797 2625 
Q 1684 2625 1573 2559 
Q 1463 2494 1359 2369 
Q 1256 2244 1217 2134 
Q 1178 2025 1178 1875 
L 1178 781 
Q 1178 497 1212 389 
Q 1247 281 1326 231 
Q 1406 181 1566 153 
L 1566 0 
L 306 0 
L 306 153 
Q 425 191 476 219 
Q 528 247 565 297 
Q 603 347 622 450 
Q 641 553 641 772 
L 641 2134 
Q 641 2334 634 2456 
Q 628 2578 590 2651 
Q 553 2725 476 2761 
Q 400 2797 259 2822 
L 259 2984 
L 991 3016 
L 1181 3016 
L 1147 2469 
z
" transform="scale(0.015625)"/>
       <path id="Cambria-6b" d="M 1138 1741 
L 1238 1741 
Q 1341 1741 1406 1763 
Q 1484 1791 1578 1858 
Q 1672 1925 1844 2084 
Q 1988 2219 2061 2312 
Q 2134 2406 2163 2484 
Q 2188 2550 2188 2616 
Q 2188 2709 2130 2762 
Q 2072 2816 1941 2834 
L 1941 2988 
L 3288 2988 
L 3288 2834 
Q 3144 2806 2981 2706 
Q 2819 2606 2647 2444 
L 1928 1763 
L 2828 588 
Q 2984 381 3111 282 
Q 3238 184 3388 153 
L 3388 0 
L 2188 0 
L 2188 153 
Q 2269 163 2308 189 
Q 2347 216 2347 278 
Q 2347 325 2330 370 
Q 2313 416 2259 494 
Q 2206 572 2066 766 
L 1694 1266 
Q 1588 1406 1542 1450 
Q 1497 1494 1447 1512 
Q 1397 1531 1313 1531 
L 1138 1531 
L 1138 781 
Q 1138 513 1163 408 
Q 1188 303 1258 248 
Q 1328 194 1488 153 
L 1488 0 
L 247 0 
L 247 153 
Q 403 194 464 237 
Q 525 281 551 342 
Q 578 403 589 508 
Q 600 613 600 781 
L 600 3397 
Q 600 3697 595 3815 
Q 591 3934 570 4017 
Q 550 4100 514 4147 
Q 478 4194 417 4222 
Q 356 4250 197 4278 
L 197 4441 
L 950 4472 
L 1138 4472 
L 1138 1741 
z
" transform="scale(0.015625)"/>
       <path id="Cambria-4e" d="M 2888 1691 
Q 3000 1503 3076 1362 
Q 3153 1222 3234 1047 
L 3275 1047 
Q 3259 1238 3246 1805 
Q 3234 2372 3234 2828 
L 3234 3484 
Q 3234 3700 3221 3800 
Q 3209 3900 3176 3953 
Q 3144 4006 3086 4039 
Q 3028 4072 2884 4113 
L 2884 4266 
L 4009 4266 
L 4009 4113 
Q 3869 4075 3811 4044 
Q 3753 4013 3717 3963 
Q 3681 3913 3662 3813 
Q 3644 3713 3644 3484 
L 3644 -19 
L 3253 -19 
L 1513 2900 
Q 1350 3172 1281 3297 
Q 1213 3422 1153 3544 
L 1100 3544 
Q 1122 3303 1131 2673 
Q 1141 2044 1141 1419 
L 1141 781 
Q 1141 572 1155 475 
Q 1169 378 1201 322 
Q 1234 266 1298 228 
Q 1363 191 1506 153 
L 1506 0 
L 366 0 
L 366 153 
Q 559 203 625 264 
Q 691 325 711 437 
Q 731 550 731 781 
L 731 3484 
Q 731 3700 715 3798 
Q 700 3897 664 3951 
Q 628 4006 568 4039 
Q 509 4072 366 4113 
L 366 4266 
L 1344 4266 
L 2888 1691 
z
" transform="scale(0.015625)"/>
      </defs>
      <use xlink:href="#Cambria-42"/>
      <use xlink:href="#Cambria-61" x="61.132812"/>
      <use xlink:href="#Cambria-73" x="109.960938"/>
      <use xlink:href="#Cambria-65" x="152.929688"/>
      <use xlink:href="#Cambria-20" x="201.708984"/>
      <use xlink:href="#Cambria-53" x="223.730469"/>
      <use xlink:href="#Cambria-68" x="273.339844"/>
      <use xlink:href="#Cambria-65" x="328.515625"/>
      <use xlink:href="#Cambria-61" x="377.294922"/>
      <use xlink:href="#Cambria-72" x="426.123047"/>
      <use xlink:href="#Cambria-20" x="467.480469"/>
      <use xlink:href="#Cambria-28" x="489.501953"/>
      <use xlink:href="#Cambria-6b" x="527.685547"/>
      <use xlink:href="#Cambria-4e" x="580.126953"/>
      <use xlink:href="#Cambria-29" x="648.193359"/>
     </g>
    </g>
   </g>
   <g id="line2d_29">
    <path d="M 268.980687 200.394278 
L 272.701664 178.603594 
L 274.562438 161.171029 
L 276.423213 145.917546 
L 281.074292 133.932708 
L 282.004964 129.574544 
L 284.79584 144.828028 
L 285.725942 160.081511 
L 280.14419 175.334994 
L 275.49254 188.409395 
L 268.980687 200.394278 
L 265.259709 224.364044 
L 256.887081 266.855893 
L 257.817183 242.886127 
L 262.468833 222.184962 
L 267.119912 205.84196 
L 270.841461 187.319877 
L 276.423213 150.27571 
L 282.935066 136.111745 
L 283.865168 149.186191 
L 282.935066 168.797793 
L 276.423213 186.230358 
L 270.841461 202.57336 
L 266.189811 225.453606 
L 264.329036 246.154727 
L 258.747285 257.050091 
L 257.817183 262.497774 
L 255.956409 248.333809 
L 262.468833 227.632644 
L 268.050585 200.394278 
L 274.562438 169.887312 
L 279.214089 149.186191 
L 284.79584 128.485026 
L 290.377592 114.321061 
L 295.028671 104.51526 
L 300.610423 94.709459 
L 297.819547 112.14198 
L 294.09857 131.753626 
L 288.516818 144.828028 
L 280.14419 155.723392 
L 276.423213 169.887312 
L 269.910788 192.767559 
L 265.259709 215.647761 
L 262.468833 241.796608 
L 256.887081 263.587292 
L 252.235431 276.661694 
L 249.444555 286.467539 
L 243.862804 296.27334 
L 241.071928 304.989623 
L 235.490176 309.347742 
L 237.35095 297.362859 
L 241.071928 278.840775 
L 251.30533 243.97569 
L 255.956409 223.274525 
L 263.398935 202.57336 
L 274.562438 170.976875 
L 285.725942 137.201308 
L 294.09857 119.768743 
L 300.610423 104.51526 
L 297.819547 121.947825 
L 290.377592 140.469908 
L 284.79584 155.723392 
L 281.074292 178.603594 
L 274.562438 198.215241 
L 268.980687 214.558242 
L 259.677957 246.154727 
L 250.374657 262.497774 
L 243.862804 276.661694 
L 241.071928 290.825658 
L 236.420849 301.721022 
L 242.932702 277.751257 
L 246.65368 260.318692 
L 250.374657 243.97569 
L 255.026307 228.722207 
L 263.398935 208.021042 
L 270.841461 188.409395 
L 278.283416 151.365228 
L 291.307694 125.216425 
L 299.680321 104.51526 
L 307.122276 90.351296 
L 314.564802 78.366413 
L 321.076656 71.829212 
L 318.28578 87.082695 
L 316.425577 105.604779 
L 310.843825 120.858262 
L 301.540525 132.843145 
L 294.09857 153.54431 
L 286.656044 170.976875 
L 279.214089 191.677996 
L 268.050585 211.289642 
L 261.538161 240.70709 
L 253.165533 257.050091 
L 245.723578 272.303575 
L 240.141826 295.183821 
L 233.629973 308.258223 
L 228.048221 318.064024 
L 222.466469 325.690788 
L 215.023943 331.138426 
L 218.744921 315.884942 
L 226.187447 293.00474 
L 233.629973 271.214056 
L 242.002029 251.602409 
L 251.30533 228.722207 
L 259.677957 206.931523 
L 270.841461 180.782676 
L 281.074292 151.365228 
L 291.307694 135.022226 
L 303.401299 111.052461 
L 310.843825 100.157097 
L 315.494904 89.261777 
L 322.93743 77.276894 
L 316.425577 99.067578 
L 314.564802 113.231543 
L 304.331401 128.485026 
L 295.959344 145.917546 
L 287.586716 170.976875 
L 267.119912 209.11056 
L 263.398935 230.901244 
L 252.235431 259.229173 
L 239.211724 281.019857 
L 233.629973 298.452422 
L 227.117548 306.079141 
L 222.466469 319.153543 
L 219.675593 323.511706 
L 232.6993 276.661694 
L 242.932702 253.781491 
L 250.374657 234.169845 
L 258.747285 208.021042 
L 271.771563 172.066393 
L 289.446919 141.559427 
L 307.122276 105.604779 
L 316.425577 82.724576 
L 324.798204 71.829212 
L 332.240159 66.38153 
L 335.961708 63.11293 
L 342.473561 64.202493 
L 339.682685 76.187376 
L 334.100934 93.619896 
L 324.798204 113.231543 
L 320.146554 124.126862 
L 312.704028 138.290827 
L 306.192175 152.454791 
L 294.09857 173.155912 
L 286.656044 191.677996 
L 280.14419 210.200123 
L 276.423213 216.737324 
L 271.771563 222.184962 
L 261.538161 242.886127 
L 243.862804 271.214056 
L 241.071928 287.557058 
L 230.839097 310.43726 
L 220.605695 325.690788 
L 215.954045 328.959388 
L 207.581417 334.407026 
L 201.069564 335.496589 
L 195.487812 335.496589 
L 200.139462 321.332624 
L 205.721214 301.721022 
L 215.023943 281.019857 
L 222.466469 262.497774 
L 230.839097 246.154727 
L 240.141826 228.722207 
L 248.514454 211.289642 
L 255.026307 193.857077 
L 264.329036 182.961757 
L 273.632337 166.618711 
L 288.516818 147.007109 
L 298.75022 128.485026 
L 310.843825 112.14198 
L 321.076656 93.619896 
L 328.519182 81.635013 
L 335.961708 72.918731 
L 339.682685 67.471093 
L 341.54346 89.261777 
L 336.89181 107.783861 
L 331.310058 119.768743 
L 323.867532 132.843145 
L 314.564802 145.917546 
L 301.540525 175.334994 
L 291.307694 193.857077 
L 261.538161 238.528008 
L 241.071928 271.214056 
L 227.117548 286.467539 
L 206.651315 308.258223 
L 201.069564 311.526823 
L 201.999665 297.362859 
L 211.302966 273.393093 
L 218.744921 254.87101 
L 237.35095 224.364044 
L 243.862804 209.11056 
L 253.165533 194.94664 
L 262.468833 185.140795 
L 269.910788 175.334994 
L 277.353314 158.991992 
L 294.09857 137.201308 
L 306.192175 116.500143 
L 316.425577 102.336179 
L 326.658408 83.814095 
L 336.89181 71.829212 
L 348.055313 62.023411 
L 362.009692 58.754811 
L 371.312422 57.665248 
L 379.685049 60.933892 
L 376.894174 77.276894 
L 369.451648 95.798978 
L 360.148918 109.962942 
L 354.567166 127.395463 
L 340.612787 145.917546 
L 327.58908 169.887312 
L 313.634701 187.319877 
L 303.401299 202.57336 
L 289.446919 217.826843 
L 275.49254 230.901244 
L 265.259709 242.886127 
L 253.165533 259.229173 
L 237.35095 279.930294 
L 224.326672 299.541941 
L 211.302966 316.974505 
L 201.999665 328.959388 
L 190.836162 338.765189 
L 175.021579 345.30239 
L 162.927974 346.391909 
L 157.346222 344.212871 
L 158.276324 328.959388 
L 167.579053 313.705905 
L 177.812455 295.183821 
L 188.045286 272.303575 
L 199.208789 252.691972 
L 219.675593 217.826843 
L 233.629973 198.215241 
L 242.002029 186.230358 
L 258.747285 172.066393 
L 276.423213 156.81291 
L 322.93743 104.51526 
L 334.100934 94.709459 
L 347.125211 79.455976 
L 358.288144 70.739694 
L 365.73067 65.292011 
L 381.545824 56.575729 
L 377.824275 76.187376 
L 369.451648 96.888497 
L 361.07902 115.41058 
L 346.194539 137.201308 
L 337.821911 156.81291 
L 325.728306 173.155912 
L 312.704028 192.767559 
L 297.819547 210.200123 
L 283.865168 225.453606 
L 267.119912 239.617527 
L 217.814819 297.362859 
L 201.069564 311.526823 
L 188.045286 326.780306 
L 174.091477 337.675626 
L 162.927974 343.123308 
L 163.858076 325.690788 
L 172.230703 301.721022 
L 181.533433 278.840775 
L 194.55771 254.87101 
L 203.86044 237.438489 
L 214.093842 218.916362 
L 223.396571 204.752441 
L 235.490176 192.767559 
L 253.165533 178.603594 
L 272.701664 165.529193 
L 283.865168 142.648946 
L 328.519182 97.978059 
L 342.473561 82.724576 
L 356.427941 74.008294 
L 368.521546 63.11293 
L 382.475925 54.396647 
L 396.430305 47.859447 
L 410.384684 45.680365 
L 419.687413 51.128047 
L 411.314786 74.008294 
L 402.012057 91.440859 
L 395.500203 112.14198 
L 382.475925 129.574544 
L 368.521546 154.633829 
L 355.497839 169.887312 
L 339.682685 192.767559 
L 322.93743 206.931523 
L 313.634701 215.647761 
L 304.331401 222.184962 
L 289.446919 230.901244 
L 275.49254 241.796608 
L 255.956409 255.960573 
L 233.629973 278.840775 
L 220.605695 295.183821 
L 201.069564 312.616342 
L 180.603331 330.048907 
L 167.579053 339.854708 
L 151.76447 348.57099 
L 134.088542 349.660509 
L 122.92561 349.660509 
L 124.785813 333.317507 
L 139.670294 298.452422 
L 147.11282 278.840775 
L 156.41555 263.587292 
L 171.300602 245.065209 
L 184.324308 226.543125 
L 197.348586 210.200123 
L 209.442191 197.125678 
L 223.396571 184.051276 
L 241.071928 175.334994 
L 256.887081 165.529193 
L 273.632337 155.723392 
L 292.237795 140.469908 
L 313.634701 125.216425 
L 327.58908 104.51526 
L 346.194539 89.261777 
L 362.939794 76.187376 
L 376.894174 67.471093 
L 392.709327 58.754811 
L 408.52391 48.94901 
L 421.548188 44.590846 
L 436.432669 41.322246 
L 450.387048 40.232727 
L 462.480653 40.232727 
L 456.898902 56.575729 
L 450.387048 74.008294 
L 442.944522 88.172258 
L 438.293443 101.24666 
L 427.129939 115.41058 
L 417.826639 133.932708 
L 407.593808 150.27571 
L 395.500203 163.350111 
L 383.406027 181.872195 
L 365.73067 200.394278 
L 342.473561 213.468724 
L 322.93743 225.453606 
L 304.331401 235.259408 
L 285.725942 242.886127 
L 264.329036 247.24429 
L 242.002029 271.214056 
L 195.487812 315.884942 
L 172.230703 327.869825 
L 153.624674 337.675626 
L 133.158441 347.481472 
L 116.413186 355.108191 
L 94.086178 357.287273 
L 81.992573 352.929154 
L 89.435099 330.048907 
L 99.66793 307.16866 
L 111.762106 284.288457 
L 124.785813 261.408211 
L 157.346222 218.916362 
L 178.742557 205.84196 
L 201.999665 192.767559 
L 223.396571 181.872195 
L 249.444555 172.066393 
L 270.841461 161.171029 
L 288.516818 143.738509 
L 302.471197 127.395463 
L 322.007328 109.962942 
L 345.264437 93.619896 
L 364.800568 83.814095 
L 381.545824 76.187376 
L 394.569531 66.38153 
L 414.105662 60.933892 
L 434.571895 57.665248 
L 450.387048 56.575729 
L 462.480653 59.84433 
L 448.526274 94.709459 
L 439.223545 113.231543 
L 424.339064 136.111745 
L 412.244887 155.723392 
L 394.569531 173.155912 
L 379.685049 191.677996 
L 358.288144 211.289642 
L 334.100934 222.184962 
L 293.168468 241.796608 
L 261.538161 258.13961 
L 235.490176 274.482656 
L 211.302966 291.915177 
L 190.836162 306.079141 
L 172.230703 319.153543 
L 154.555346 328.959388 
L 130.367565 336.586108 
L 112.692208 346.391909 
L 98.737829 349.660509 
L 87.574325 348.57099 
L 81.062472 347.481472 
L 88.504427 328.959388 
L 96.877054 311.526823 
L 106.180355 290.825658 
L 118.27396 269.034974 
L 131.297667 246.154727 
L 150.833798 226.543125 
L 166.648951 205.84196 
L 185.25441 193.857077 
L 201.999665 186.230358 
L 221.535797 175.334994 
L 240.141826 166.618711 
L 272.701664 157.902429 
L 272.701664 157.902429 
" clip-path="url(#pbe817346ad)" style="fill: none; stroke-dasharray: 3.7,1.6; stroke-dashoffset: 0; stroke: #000000"/>
   </g>
   <g id="line2d_30">
    <path d="M 270.376125 199.304759 
L 272.624017 171.0018 
L 274.87191 146.314294 
L 277.119803 127.165421 
L 279.255301 122.059366 
L 283.751087 110.37841 
L 288.246873 101.337896 
L 285.99898 112.425875 
L 283.751087 122.781798 
L 281.503194 132.580191 
L 277.007409 150.86105 
L 274.759516 161.856533 
L 272.511623 180.662513 
L 270.26373 208.717872 
L 268.015837 233.424744 
L 265.767944 254.55665 
L 263.520051 265.466777 
L 261.272158 271.070232 
L 259.024266 275.57527 
L 254.52848 284.193719 
L 252.280587 287.611608 
L 256.776373 258.263115 
L 263.520051 216.108233 
L 268.015837 187.820564 
L 270.26373 171.89618 
L 272.511623 157.921622 
L 274.759516 148.335254 
L 277.007409 140.228919 
L 281.503194 126.644625 
L 285.99898 113.976737 
L 288.246873 108.034491 
L 281.503194 146.357969 
L 277.007409 171.993296 
L 274.759516 186.161327 
L 270.26373 218.47049 
L 268.015837 231.78989 
L 265.767944 241.717833 
L 263.520051 250.088401 
L 259.024266 264.943792 
L 254.52848 278.544989 
L 252.280587 284.64424 
L 256.776373 255.793931 
L 263.520051 214.472966 
L 268.015837 186.705687 
L 270.26373 171.585715 
L 272.511623 158.747485 
L 274.759516 149.206691 
L 277.007409 141.786063 
L 281.503194 128.362789 
L 285.99898 115.775919 
L 288.246873 109.90966 
L 290.494766 104.609821 
L 292.742659 100.505927 
L 294.990551 96.698365 
L 297.238444 93.46903 
L 299.486337 90.603729 
L 303.982123 85.622042 
L 299.486337 107.012374 
L 294.990551 127.672601 
L 290.494766 147.404878 
L 285.99898 166.219952 
L 277.119803 202.606776 
L 270.376125 232.130483 
L 268.128232 240.215721 
L 265.880339 247.057166 
L 261.384553 259.840646 
L 256.888767 272.120889 
L 254.640874 278.075551 
L 252.392982 283.627448 
L 250.145089 288.332386 
L 247.897196 292.243388 
L 243.176621 299.241725 
L 238.680835 304.672658 
L 245.424514 272.52979 
L 249.920299 252.001946 
L 254.416085 232.476886 
L 265.65555 185.193299 
L 270.151335 168.066259 
L 274.647121 151.616686 
L 276.895014 145.277052 
L 281.3908 134.21093 
L 285.886585 124.138509 
L 290.382371 114.906917 
L 294.878157 106.598035 
L 297.12605 102.798663 
L 299.373943 99.217658 
L 301.621835 95.853102 
L 303.869728 92.718405 
L 306.117621 89.794607 
L 299.373943 118.550469 
L 294.878157 136.875442 
L 292.967448 144.421999 
L 290.719555 154.103783 
L 283.975876 180.055421 
L 277.232198 205.815775 
L 272.736412 222.744764 
L 270.488519 230.249942 
L 268.240626 237.088465 
L 265.992733 243.226092 
L 261.496948 254.453048 
L 257.001162 264.908711 
L 252.505376 274.882933 
L 248.009591 284.304587 
L 245.761698 288.576375 
L 243.513805 292.53521 
L 241.265912 296.230092 
L 239.018019 299.705257 
L 241.265912 288.476007 
L 248.009591 256.993673 
L 252.505376 237.087819 
L 257.001162 218.204911 
L 261.496948 200.099195 
L 263.744841 191.309633 
L 265.992733 183.402221 
L 270.488519 168.57458 
L 272.736412 160.858164 
L 274.984305 153.718296 
L 277.232198 147.767146 
L 281.727984 137.06866 
L 286.223769 127.201709 
L 290.719555 118.10796 
L 295.215341 109.847858 
L 299.711126 102.433194 
L 304.206912 95.816888 
L 306.454805 92.786938 
L 308.702698 89.943847 
L 311.849748 86.361058 
L 311.849748 86.361058 
L 305.106069 114.199595 
L 300.610284 131.843962 
L 296.114498 148.577476 
L 291.056739 166.36806 
L 288.808846 175.163002 
L 284.31306 190.195956 
L 279.817275 204.736347 
L 273.073596 225.024012 
L 270.825703 231.628149 
L 268.57781 237.666681 
L 264.082025 248.620162 
L 259.586239 258.889547 
L 255.090453 268.600597 
L 250.594667 277.777789 
L 246.098882 286.369966 
L 243.850989 290.421371 
L 241.603096 294.184438 
L 239.355203 297.679253 
L 237.10731 300.946117 
L 237.10731 300.946117 
" clip-path="url(#pbe817346ad)" style="fill: none; stroke: #0000ff; stroke-width: 1.2; stroke-linecap: square"/>
   </g>
   <g id="line2d_31">
    <path d="M 61.991563 199.304759 
L 481.551562 199.304759 
" clip-path="url(#pbe817346ad)" style="fill: none; stroke: #000000; stroke-width: 0.4; stroke-linecap: square"/>
   </g>
   <g id="line2d_32">
    <path d="M 270.376125 373.14 
L 270.376125 24.38 
" clip-path="url(#pbe817346ad)" style="fill: none; stroke: #000000; stroke-width: 0.4; stroke-linecap: square"/>
   </g>
   <g id="patch_3">
    <path d="M 61.991563 373.14 
L 61.991563 24.38 
" style="fill: none; stroke: #000000; stroke-width: 0.8; stroke-linejoin: miter; stroke-linecap: square"/>
   </g>
   <g id="patch_4">
    <path d="M 481.551562 373.14 
L 481.551562 24.38 
" style="fill: none; stroke: #000000; stroke-width: 0.8; stroke-linejoin: miter; stroke-linecap: square"/>
   </g>
   <g id="patch_5">
    <path d="M 61.991562 373.14 
L 481.551563 373.14 
" style="fill: none; stroke: #000000; stroke-width: 0.8; stroke-linejoin: miter; stroke-linecap: square"/>
   </g>
   <g id="patch_6">
    <path d="M 61.991562 24.38 
L 481.551563 24.38 
" style="fill: none; stroke: #000000; stroke-width: 0.8; stroke-linejoin: miter; stroke-linecap: square"/>
   </g>
   <g id="text_17">
    <!-- Specimen : Thomsen_and_Wallace_RW2 -->
    <g transform="translate(136.339063 18.38) scale(0.16 -0.16)">
     <defs>
      <path id="Cambria-3a" d="M 1156 2822 
L 1156 2091 
L 531 2091 
L 531 2822 
L 1156 2822 
z
M 1156 725 
L 1156 0 
L 531 0 
L 531 725 
L 1156 725 
z
" transform="scale(0.015625)"/>
      <path id="Cambria-54" d="M 206 4266 
L 3588 4266 
L 3588 3178 
L 3281 3178 
Q 3213 3447 3145 3603 
Q 3078 3759 3003 3840 
Q 2928 3922 2842 3956 
Q 2756 3991 2584 3991 
L 2188 3991 
L 2188 791 
Q 2188 606 2208 497 
Q 2228 388 2270 323 
Q 2313 259 2384 223 
Q 2456 188 2609 153 
L 2609 0 
L 1181 0 
L 1181 153 
Q 1275 175 1347 200 
Q 1419 225 1464 261 
Q 1509 297 1539 353 
Q 1569 409 1586 506 
Q 1603 603 1603 791 
L 1603 3991 
L 1209 3991 
Q 1063 3991 967 3962 
Q 872 3934 790 3845 
Q 709 3756 642 3592 
Q 575 3428 516 3178 
L 206 3178 
L 206 4266 
z
" transform="scale(0.015625)"/>
      <path id="Cambria-6f" d="M 1663 -50 
Q 1013 -50 670 333 
Q 328 716 328 1466 
Q 328 1981 508 2337 
Q 688 2694 1000 2867 
Q 1313 3041 1713 3041 
Q 2381 3041 2725 2652 
Q 3069 2263 3069 1534 
Q 3069 1016 2897 659 
Q 2725 303 2409 126 
Q 2094 -50 1663 -50 
z
M 919 1531 
Q 919 888 1123 542 
Q 1328 197 1709 197 
Q 1919 197 2066 298 
Q 2213 400 2305 572 
Q 2397 744 2437 970 
Q 2478 1197 2478 1444 
Q 2478 1903 2376 2206 
Q 2275 2509 2100 2651 
Q 1925 2794 1700 2794 
Q 1322 2794 1120 2466 
Q 919 2138 919 1531 
z
" transform="scale(0.015625)"/>
      <path id="Cambria-5f" d="M 0 -753 
L 0 -391 
L 2372 -391 
L 2372 -753 
L 0 -753 
z
" transform="scale(0.015625)"/>
      <path id="Cambria-64" d="M 2413 3397 
Q 2413 3697 2408 3815 
Q 2403 3934 2383 4017 
Q 2363 4100 2327 4147 
Q 2291 4194 2230 4222 
Q 2169 4250 2009 4278 
L 2009 4441 
L 2766 4472 
L 2950 4472 
L 2950 853 
Q 2950 609 2959 504 
Q 2969 400 3000 337 
Q 3031 275 3098 236 
Q 3166 197 3334 163 
L 3334 0 
L 2597 -31 
L 2409 -31 
L 2447 481 
L 2400 494 
Q 2203 284 2058 179 
Q 1913 75 1748 12 
Q 1584 -50 1397 -50 
Q 884 -50 606 339 
Q 328 728 328 1463 
Q 328 1975 509 2333 
Q 691 2691 998 2866 
Q 1306 3041 1691 3041 
Q 1897 3041 2065 3008 
Q 2234 2975 2413 2900 
L 2413 3397 
z
M 2413 1853 
Q 2413 2097 2391 2244 
Q 2369 2391 2317 2491 
Q 2266 2591 2178 2659 
Q 2091 2728 1986 2759 
Q 1881 2791 1734 2791 
Q 1334 2791 1125 2470 
Q 916 2150 916 1550 
Q 916 950 1087 637 
Q 1259 325 1609 325 
Q 1747 325 1837 348 
Q 1928 372 2015 423 
Q 2103 475 2193 565 
Q 2284 656 2326 731 
Q 2369 806 2391 903 
Q 2413 1000 2413 1153 
L 2413 1853 
z
" transform="scale(0.015625)"/>
      <path id="Cambria-57" d="M 2941 3469 
L 1941 -22 
L 1434 -22 
L 525 3372 
Q 469 3584 422 3718 
Q 375 3853 328 3929 
Q 281 4006 226 4045 
Q 172 4084 69 4113 
L 69 4266 
L 1406 4266 
L 1406 4113 
Q 1213 4075 1136 4000 
Q 1059 3925 1059 3791 
Q 1059 3681 1087 3531 
Q 1116 3381 1166 3191 
L 1794 722 
L 2800 4266 
L 3325 4266 
L 4141 719 
L 4878 3103 
Q 5013 3538 5013 3722 
Q 5013 3913 4933 3997 
Q 4853 4081 4669 4113 
L 4669 4266 
L 5900 4266 
L 5900 4113 
Q 5806 4081 5750 4042 
Q 5694 4003 5642 3936 
Q 5591 3869 5530 3728 
Q 5469 3588 5388 3350 
L 4250 -22 
L 3803 -22 
L 2941 3469 
z
" transform="scale(0.015625)"/>
      <path id="Cambria-52" d="M 1331 1853 
L 1331 791 
Q 1331 566 1348 464 
Q 1366 363 1400 311 
Q 1434 259 1493 226 
Q 1553 194 1697 153 
L 1697 0 
L 378 0 
L 378 153 
Q 572 203 637 264 
Q 703 325 723 437 
Q 744 550 744 781 
L 744 3484 
Q 744 3700 728 3798 
Q 713 3897 677 3951 
Q 641 4006 581 4039 
Q 522 4072 378 4113 
L 378 4266 
L 1925 4266 
Q 2656 4266 3018 4000 
Q 3381 3734 3381 3175 
Q 3381 2747 3145 2447 
Q 2909 2147 2438 1978 
L 2438 1953 
Q 2628 1875 2764 1729 
Q 2900 1584 3066 1278 
L 3347 766 
Q 3469 541 3556 422 
Q 3644 303 3734 240 
Q 3825 178 3975 153 
L 3975 0 
L 3109 0 
Q 2991 166 2884 356 
Q 2778 547 2675 744 
L 2400 1266 
Q 2275 1503 2195 1615 
Q 2116 1728 2048 1773 
Q 1981 1819 1904 1836 
Q 1828 1853 1675 1853 
L 1331 1853 
z
M 1331 3978 
L 1331 2122 
L 1684 2122 
Q 1956 2122 2125 2161 
Q 2294 2200 2437 2309 
Q 2581 2419 2667 2614 
Q 2753 2809 2753 3094 
Q 2753 3391 2651 3587 
Q 2550 3784 2344 3887 
Q 2138 3991 1788 3991 
Q 1506 3991 1331 3978 
z
" transform="scale(0.015625)"/>
     </defs>
     <use xlink:href="#Cambria-53"/>
     <use xlink:href="#Cambria-70" x="49.609375"/>
     <use xlink:href="#Cambria-65" x="105.224609"/>
     <use xlink:href="#Cambria-63" x="154.003906"/>
     <use xlink:href="#Cambria-69" x="198.095703"/>
     <use xlink:href="#Cambria-6d" x="225.878906"/>
     <use xlink:href="#Cambria-65" x="309.082031"/>
     <use xlink:href="#Cambria-6e" x="357.861328"/>
     <use xlink:href="#Cambria-20" x="413.671875"/>
     <use xlink:href="#Cambria-3a" x="435.693359"/>
     <use xlink:href="#Cambria-20" x="462.060547"/>
     <use xlink:href="#Cambria-54" x="484.082031"/>
     <use xlink:href="#Cambria-68" x="543.359375"/>
     <use xlink:href="#Cambria-6f" x="598.535156"/>
     <use xlink:href="#Cambria-6d" x="651.611328"/>
     <use xlink:href="#Cambria-73" x="734.814453"/>
     <use xlink:href="#Cambria-65" x="777.783203"/>
     <use xlink:href="#Cambria-6e" x="826.5625"/>
     <use xlink:href="#Cambria-5f" x="882.373047"/>
     <use xlink:href="#Cambria-61" x="919.433594"/>
     <use xlink:href="#Cambria-6e" x="968.261719"/>
     <use xlink:href="#Cambria-64" x="1024.072266"/>
     <use xlink:href="#Cambria-5f" x="1079.541016"/>
     <use xlink:href="#Cambria-57" x="1116.601562"/>
     <use xlink:href="#Cambria-61" x="1204.365234"/>
     <use xlink:href="#Cambria-6c" x="1253.193359"/>
     <use xlink:href="#Cambria-6c" x="1280.341797"/>
     <use xlink:href="#Cambria-61" x="1307.490234"/>
     <use xlink:href="#Cambria-63" x="1356.318359"/>
     <use xlink:href="#Cambria-65" x="1400.410156"/>
     <use xlink:href="#Cambria-5f" x="1449.189453"/>
     <use xlink:href="#Cambria-52" x="1486.25"/>
     <use xlink:href="#Cambria-57" x="1545.359375"/>
     <use xlink:href="#Cambria-32" x="1637.498047"/>
    </g>
   </g>
   <g id="legend_1">
    <g id="patch_7">
     <path d="M 71.791563 75.114687 
L 232.052188 75.114687 
Q 234.852188 75.114687 234.852188 72.314687 
L 234.852188 34.18 
Q 234.852188 31.38 232.052188 31.38 
L 71.791563 31.38 
Q 68.991563 31.38 68.991563 34.18 
L 68.991563 72.314687 
Q 68.991563 75.114687 71.791563 75.114687 
z
" style="fill: #ffffff; opacity: 0.8; stroke: #cccccc; stroke-linejoin: miter"/>
    </g>
    <g id="line2d_33">
     <path d="M 74.591563 41.88 
L 88.591563 41.88 
L 102.591563 41.88 
" style="fill: none; stroke-dasharray: 3.7,1.6; stroke-dashoffset: 0; stroke: #000000"/>
    </g>
    <g id="text_18">
     <!-- Experimental Data -->
     <g transform="translate(113.791563 46.78) scale(0.14 -0.14)">
      <defs>
       <path id="Cambria-45" d="M 3300 4266 
L 3300 3322 
L 2994 3322 
Q 2947 3475 2897 3590 
Q 2847 3706 2794 3784 
Q 2741 3863 2677 3909 
Q 2613 3956 2525 3973 
Q 2438 3991 2316 3991 
L 1328 3991 
L 1328 2353 
L 1997 2353 
Q 2134 2353 2212 2392 
Q 2291 2431 2342 2525 
Q 2394 2619 2441 2819 
L 2734 2819 
L 2734 1619 
L 2441 1619 
Q 2397 1806 2344 1901 
Q 2291 1997 2217 2037 
Q 2144 2078 1997 2078 
L 1328 2078 
L 1328 275 
L 2300 275 
Q 2453 275 2548 301 
Q 2644 328 2712 392 
Q 2781 456 2834 559 
Q 2888 663 2923 773 
Q 2959 884 3022 1097 
L 3331 1097 
L 3272 0 
L 378 0 
L 378 153 
Q 572 203 637 264 
Q 703 325 723 437 
Q 744 550 744 781 
L 744 3484 
Q 744 3700 728 3798 
Q 713 3897 677 3951 
Q 641 4006 581 4039 
Q 522 4072 378 4113 
L 378 4266 
L 3300 4266 
z
" transform="scale(0.015625)"/>
       <path id="Cambria-78" d="M 1625 1803 
L 2031 2319 
Q 2097 2403 2137 2483 
Q 2178 2563 2178 2647 
Q 2178 2719 2125 2766 
Q 2072 2813 1959 2834 
L 1959 2988 
L 2981 2988 
L 2981 2834 
Q 2863 2800 2739 2700 
Q 2616 2600 2438 2378 
L 1791 1584 
L 2503 625 
Q 2656 419 2778 309 
Q 2900 200 3022 153 
L 3022 0 
L 1766 0 
L 1766 153 
Q 2025 184 2025 347 
Q 2025 413 2003 472 
Q 1981 531 1922 609 
L 1469 1241 
L 988 616 
Q 934 547 904 489 
Q 875 431 875 359 
Q 875 275 933 220 
Q 991 166 1116 153 
L 1116 0 
L 72 0 
L 72 153 
Q 175 191 258 247 
Q 341 303 427 392 
Q 513 481 653 653 
L 1303 1459 
L 638 2372 
Q 500 2559 419 2643 
Q 338 2728 269 2772 
Q 200 2816 131 2834 
L 131 2988 
L 1356 2988 
L 1356 2834 
Q 1109 2797 1109 2641 
Q 1109 2569 1142 2497 
Q 1175 2425 1244 2338 
L 1625 1803 
z
" transform="scale(0.015625)"/>
      </defs>
      <use xlink:href="#Cambria-45"/>
      <use xlink:href="#Cambria-78" x="57.519531"/>
      <use xlink:href="#Cambria-70" x="105.859375"/>
      <use xlink:href="#Cambria-65" x="161.474609"/>
      <use xlink:href="#Cambria-72" x="210.253906"/>
      <use xlink:href="#Cambria-69" x="251.611328"/>
      <use xlink:href="#Cambria-6d" x="279.394531"/>
      <use xlink:href="#Cambria-65" x="362.597656"/>
      <use xlink:href="#Cambria-6e" x="411.376953"/>
      <use xlink:href="#Cambria-74" x="467.1875"/>
      <use xlink:href="#Cambria-61" x="501.025391"/>
      <use xlink:href="#Cambria-6c" x="549.853516"/>
      <use xlink:href="#Cambria-20" x="577.001953"/>
      <use xlink:href="#Cambria-44" x="599.023438"/>
      <use xlink:href="#Cambria-61" x="665.185547"/>
      <use xlink:href="#Cambria-74" x="714.013672"/>
      <use xlink:href="#Cambria-61" x="747.851562"/>
     </g>
    </g>
    <g id="line2d_34">
     <path d="M 74.591563 61.62 
L 88.591563 61.62 
L 102.591563 61.62 
" style="fill: none; stroke: #0000ff; stroke-width: 1.2; stroke-linecap: square"/>
    </g>
    <g id="text_19">
     <!-- Numerical Analysis -->
     <g transform="translate(113.791563 66.52) scale(0.14 -0.14)">
      <defs>
       <path id="Cambria-75" d="M 228 2988 
L 1119 2988 
L 1119 1397 
Q 1119 1031 1147 840 
Q 1175 650 1231 553 
Q 1288 456 1391 390 
Q 1494 325 1675 325 
Q 1794 325 1903 372 
Q 2013 419 2147 536 
Q 2281 653 2339 768 
Q 2397 884 2397 1038 
L 2397 2209 
Q 2397 2388 2387 2478 
Q 2378 2569 2356 2623 
Q 2334 2678 2304 2712 
Q 2275 2747 2220 2775 
Q 2166 2803 2044 2834 
L 2044 2988 
L 2934 2988 
L 2934 853 
Q 2934 613 2943 506 
Q 2953 400 2984 337 
Q 3016 275 3081 236 
Q 3147 197 3316 163 
L 3316 0 
L 2600 -31 
L 2409 -31 
L 2428 481 
L 2381 494 
Q 2122 213 1886 81 
Q 1650 -50 1413 -50 
Q 1128 -50 943 62 
Q 759 175 668 398 
Q 578 622 578 1028 
L 578 2209 
Q 578 2472 558 2570 
Q 538 2669 480 2726 
Q 422 2784 228 2834 
L 228 2988 
z
" transform="scale(0.015625)"/>
       <path id="Cambria-41" d="M 2488 0 
L 2488 153 
Q 2644 184 2720 221 
Q 2797 259 2834 326 
Q 2872 394 2872 506 
Q 2872 613 2847 736 
Q 2822 859 2775 1013 
L 2659 1416 
L 1203 1416 
L 1097 1109 
Q 1016 878 991 759 
Q 966 641 966 544 
Q 966 356 1061 268 
Q 1156 181 1353 153 
L 1353 0 
L 19 0 
L 19 153 
Q 194 181 323 356 
Q 453 531 575 856 
L 1878 4316 
L 2372 4316 
L 3434 831 
Q 3509 588 3567 459 
Q 3625 331 3706 259 
Q 3788 188 3928 153 
L 3928 0 
L 2488 0 
z
M 1288 1688 
L 2594 1688 
L 2000 3703 
L 1288 1688 
z
" transform="scale(0.015625)"/>
       <path id="Cambria-79" d="M 1625 -256 
Q 1453 -644 1290 -884 
Q 1128 -1125 933 -1247 
Q 738 -1369 469 -1369 
Q 297 -1369 81 -1328 
L 81 -709 
L 359 -709 
Q 397 -838 453 -888 
Q 509 -938 616 -938 
Q 709 -938 782 -902 
Q 856 -866 936 -778 
Q 1016 -691 1123 -509 
Q 1231 -328 1366 -50 
L 491 2303 
Q 406 2531 354 2622 
Q 303 2713 243 2759 
Q 184 2806 63 2834 
L 63 2988 
L 1334 2988 
L 1334 2834 
Q 1188 2800 1128 2767 
Q 1069 2734 1041 2682 
Q 1013 2631 1013 2550 
Q 1013 2466 1033 2375 
Q 1053 2284 1097 2163 
L 1653 597 
L 2278 2097 
Q 2331 2222 2361 2326 
Q 2391 2431 2391 2522 
Q 2391 2656 2317 2725 
Q 2244 2794 2063 2834 
L 2063 2988 
L 3231 2988 
L 3231 2834 
Q 3109 2809 3043 2757 
Q 2978 2706 2912 2595 
Q 2847 2484 2756 2284 
L 1625 -256 
z
" transform="scale(0.015625)"/>
      </defs>
      <use xlink:href="#Cambria-4e"/>
      <use xlink:href="#Cambria-75" x="68.066406"/>
      <use xlink:href="#Cambria-6d" x="123.291016"/>
      <use xlink:href="#Cambria-65" x="206.494141"/>
      <use xlink:href="#Cambria-72" x="255.273438"/>
      <use xlink:href="#Cambria-69" x="296.630859"/>
      <use xlink:href="#Cambria-63" x="324.414062"/>
      <use xlink:href="#Cambria-61" x="368.505859"/>
      <use xlink:href="#Cambria-6c" x="417.333984"/>
      <use xlink:href="#Cambria-20" x="444.482422"/>
      <use xlink:href="#Cambria-41" x="466.503906"/>
      <use xlink:href="#Cambria-6e" x="528.808594"/>
      <use xlink:href="#Cambria-61" x="584.619141"/>
      <use xlink:href="#Cambria-6c" x="633.447266"/>
      <use xlink:href="#Cambria-79" x="660.595703"/>
      <use xlink:href="#Cambria-73" x="710.986328"/>
      <use xlink:href="#Cambria-69" x="753.955078"/>
      <use xlink:href="#Cambria-73" x="781.738281"/>
     </g>
    </g>
   </g>
  </g>
 </g>
 <defs>
  <clipPath id="pbe817346ad">
   <rect x="61.991563" y="24.38" width="419.56" height="348.76"/>
  </clipPath>
 </defs>
</svg>
