<?xml version="1.0" encoding="utf-8" standalone="no"?>
<!DOCTYPE svg PUBLIC "-//W3C//DTD SVG 1.1//EN"
  "http://www.w3.org/Graphics/SVG/1.1/DTD/svg11.dtd">
<svg xmlns:xlink="http://www.w3.org/1999/xlink" width="279.452813pt" height="292.774063pt" viewBox="0 0 279.452813 292.774063" xmlns="http://www.w3.org/2000/svg" version="1.1">
 <metadata>
  <rdf:RDF xmlns:dc="http://purl.org/dc/elements/1.1/" xmlns:cc="http://creativecommons.org/ns#" xmlns:rdf="http://www.w3.org/1999/02/22-rdf-syntax-ns#">
   <cc:Work>
    <dc:type rdf:resource="http://purl.org/dc/dcmitype/StillImage"/>
    <dc:date>2024-01-30T19:24:17.730753</dc:date>
    <dc:format>image/svg+xml</dc:format>
    <dc:creator>
     <cc:Agent>
      <dc:title>Matplotlib v3.7.1, https://matplotlib.org/</dc:title>
     </cc:Agent>
    </dc:creator>
   </cc:Work>
  </rdf:RDF>
 </metadata>
 <defs>
  <style type="text/css">*{stroke-linejoin: round; stroke-linecap: butt}</style>
 </defs>
 <g id="figure_1">
  <g id="patch_1">
   <path d="M 0 292.774063 
L 279.452813 292.774063 
L 279.452813 0 
L 0 0 
z
" style="fill: #ffffff"/>
  </g>
  <g id="axes_1">
   <g id="patch_2">
    <path d="M 49.432813 256.40375 
L 272.252813 256.40375 
L 272.252813 20.14375 
L 49.432813 20.14375 
z
" style="fill: #ffffff"/>
   </g>
   <g id="matplotlib.axis_1">
    <g id="xtick_1">
     <g id="line2d_1">
      <path d="M 58.137853 256.40375 
L 58.137853 20.14375 
" clip-path="url(#p7765edecb4)" style="fill: none; stroke-dasharray: 0.8,1.32; stroke-dashoffset: 0; stroke: #b0b0b0; stroke-width: 0.8"/>
     </g>
     <g id="line2d_2">
      <defs>
       <path id="m87d890a74c" d="M 0 0 
L 0 3.5 
" style="stroke: #000000; stroke-width: 0.8"/>
      </defs>
      <g>
       <use xlink:href="#m87d890a74c" x="58.137853" y="256.40375" style="stroke: #000000; stroke-width: 0.8"/>
      </g>
     </g>
     <g id="text_1">
      <!-- −40 -->
      <g transform="translate(49.831603 270.39125) scale(0.1 -0.1)">
       <defs>
        <path id="Cambria-2212" d="M 397 1613 
L 397 2047 
L 3147 2047 
L 3147 1613 
L 397 1613 
z
" transform="scale(0.015625)"/>
        <path id="Cambria-34" d="M 1613 153 
Q 1806 203 1872 264 
Q 1938 325 1958 437 
Q 1978 550 1978 781 
L 1978 1294 
L 241 1294 
L 241 1528 
L 2069 4288 
L 2516 4288 
L 2516 1597 
L 2581 1597 
Q 2763 1597 2841 1623 
Q 2919 1650 2970 1717 
Q 3022 1784 3066 1938 
L 3303 1938 
L 3266 1294 
L 2516 1294 
L 2516 781 
Q 2516 572 2530 475 
Q 2544 378 2576 322 
Q 2609 266 2673 228 
Q 2738 191 2881 153 
L 2881 0 
L 1613 0 
L 1613 153 
z
M 756 1597 
L 1978 1597 
L 1978 2375 
Q 1978 2669 1987 3033 
Q 1997 3397 2009 3581 
L 1978 3581 
L 756 1641 
L 756 1597 
z
" transform="scale(0.015625)"/>
        <path id="Cambria-30" d="M 1738 -50 
Q 1063 -50 733 481 
Q 403 1013 403 2094 
Q 403 2669 504 3087 
Q 606 3506 789 3779 
Q 972 4053 1228 4184 
Q 1484 4316 1788 4316 
Q 2472 4316 2806 3787 
Q 3141 3259 3141 2191 
Q 3141 1084 2783 517 
Q 2425 -50 1738 -50 
z
M 1013 2188 
Q 1013 1169 1202 692 
Q 1391 216 1788 216 
Q 2166 216 2348 664 
Q 2531 1113 2531 2053 
Q 2531 2772 2437 3217 
Q 2344 3663 2176 3856 
Q 2009 4050 1772 4050 
Q 1556 4050 1411 3922 
Q 1266 3794 1177 3553 
Q 1088 3313 1050 2967 
Q 1013 2622 1013 2188 
z
" transform="scale(0.015625)"/>
       </defs>
       <use xlink:href="#Cambria-2212"/>
       <use xlink:href="#Cambria-34" x="55.371094"/>
       <use xlink:href="#Cambria-30" x="110.742188"/>
      </g>
     </g>
    </g>
    <g id="xtick_2">
     <g id="line2d_3">
      <path d="M 104.612712 256.40375 
L 104.612712 20.14375 
" clip-path="url(#p7765edecb4)" style="fill: none; stroke-dasharray: 0.8,1.32; stroke-dashoffset: 0; stroke: #b0b0b0; stroke-width: 0.8"/>
     </g>
     <g id="line2d_4">
      <g>
       <use xlink:href="#m87d890a74c" x="104.612712" y="256.40375" style="stroke: #000000; stroke-width: 0.8"/>
      </g>
     </g>
     <g id="text_2">
      <!-- −20 -->
      <g transform="translate(96.306462 270.39125) scale(0.1 -0.1)">
       <defs>
        <path id="Cambria-32" d="M 2194 500 
Q 2347 500 2440 519 
Q 2534 538 2590 581 
Q 2647 625 2680 695 
Q 2713 766 2763 913 
L 3028 913 
L 2975 0 
L 403 0 
L 403 150 
Q 538 478 766 822 
Q 994 1166 1413 1631 
Q 1775 2031 1934 2238 
Q 2109 2463 2195 2627 
Q 2281 2791 2318 2936 
Q 2356 3081 2356 3228 
Q 2356 3463 2281 3642 
Q 2206 3822 2051 3925 
Q 1897 4028 1663 4028 
Q 1078 4028 875 3378 
L 497 3378 
L 497 3978 
Q 875 4156 1204 4236 
Q 1534 4316 1797 4316 
Q 2378 4316 2675 4061 
Q 2972 3806 2972 3322 
Q 2972 3156 2939 3017 
Q 2906 2878 2836 2742 
Q 2766 2606 2647 2450 
Q 2528 2294 2384 2133 
Q 2241 1972 1888 1597 
Q 1294 969 1016 500 
L 2194 500 
z
" transform="scale(0.015625)"/>
       </defs>
       <use xlink:href="#Cambria-2212"/>
       <use xlink:href="#Cambria-32" x="55.371094"/>
       <use xlink:href="#Cambria-30" x="110.742188"/>
      </g>
     </g>
    </g>
    <g id="xtick_3">
     <g id="line2d_5">
      <path d="M 151.087572 256.40375 
L 151.087572 20.14375 
" clip-path="url(#p7765edecb4)" style="fill: none; stroke-dasharray: 0.8,1.32; stroke-dashoffset: 0; stroke: #b0b0b0; stroke-width: 0.8"/>
     </g>
     <g id="line2d_6">
      <g>
       <use xlink:href="#m87d890a74c" x="151.087572" y="256.40375" style="stroke: #000000; stroke-width: 0.8"/>
      </g>
     </g>
     <g id="text_3">
      <!-- 0 -->
      <g transform="translate(148.318822 270.39125) scale(0.1 -0.1)">
       <use xlink:href="#Cambria-30"/>
      </g>
     </g>
    </g>
    <g id="xtick_4">
     <g id="line2d_7">
      <path d="M 197.562431 256.40375 
L 197.562431 20.14375 
" clip-path="url(#p7765edecb4)" style="fill: none; stroke-dasharray: 0.8,1.32; stroke-dashoffset: 0; stroke: #b0b0b0; stroke-width: 0.8"/>
     </g>
     <g id="line2d_8">
      <g>
       <use xlink:href="#m87d890a74c" x="197.562431" y="256.40375" style="stroke: #000000; stroke-width: 0.8"/>
      </g>
     </g>
     <g id="text_4">
      <!-- 20 -->
      <g transform="translate(192.024931 270.39125) scale(0.1 -0.1)">
       <use xlink:href="#Cambria-32"/>
       <use xlink:href="#Cambria-30" x="55.371094"/>
      </g>
     </g>
    </g>
    <g id="xtick_5">
     <g id="line2d_9">
      <path d="M 244.03729 256.40375 
L 244.03729 20.14375 
" clip-path="url(#p7765edecb4)" style="fill: none; stroke-dasharray: 0.8,1.32; stroke-dashoffset: 0; stroke: #b0b0b0; stroke-width: 0.8"/>
     </g>
     <g id="line2d_10">
      <g>
       <use xlink:href="#m87d890a74c" x="244.03729" y="256.40375" style="stroke: #000000; stroke-width: 0.8"/>
      </g>
     </g>
     <g id="text_5">
      <!-- 40 -->
      <g transform="translate(238.49979 270.39125) scale(0.1 -0.1)">
       <use xlink:href="#Cambria-34"/>
       <use xlink:href="#Cambria-30" x="55.371094"/>
      </g>
     </g>
    </g>
    <g id="text_6">
     <!-- Displacement (mm) -->
     <g transform="translate(120.993594 283.435) scale(0.1 -0.1)">
      <defs>
       <path id="TimesNewRomanPSMT-44" d="M 109 0 
L 109 116 
L 269 116 
Q 538 116 650 288 
Q 719 391 719 750 
L 719 3488 
Q 719 3884 631 3984 
Q 509 4122 269 4122 
L 109 4122 
L 109 4238 
L 1834 4238 
Q 2784 4238 3279 4022 
Q 3775 3806 4076 3303 
Q 4378 2800 4378 2141 
Q 4378 1256 3841 663 
Q 3238 0 2003 0 
L 109 0 
z
M 1319 306 
Q 1716 219 1984 219 
Q 2709 219 3187 728 
Q 3666 1238 3666 2109 
Q 3666 2988 3187 3494 
Q 2709 4000 1959 4000 
Q 1678 4000 1319 3909 
L 1319 306 
z
" transform="scale(0.015625)"/>
       <path id="TimesNewRomanPSMT-69" d="M 928 4444 
Q 1059 4444 1151 4351 
Q 1244 4259 1244 4128 
Q 1244 3997 1151 3903 
Q 1059 3809 928 3809 
Q 797 3809 703 3903 
Q 609 3997 609 4128 
Q 609 4259 701 4351 
Q 794 4444 928 4444 
z
M 1188 2947 
L 1188 647 
Q 1188 378 1227 289 
Q 1266 200 1342 156 
Q 1419 113 1622 113 
L 1622 0 
L 231 0 
L 231 113 
Q 441 113 512 153 
Q 584 194 626 287 
Q 669 381 669 647 
L 669 1750 
Q 669 2216 641 2353 
Q 619 2453 572 2492 
Q 525 2531 444 2531 
Q 356 2531 231 2484 
L 188 2597 
L 1050 2947 
L 1188 2947 
z
" transform="scale(0.015625)"/>
       <path id="TimesNewRomanPSMT-73" d="M 2050 2947 
L 2050 1972 
L 1947 1972 
Q 1828 2431 1642 2597 
Q 1456 2763 1169 2763 
Q 950 2763 815 2647 
Q 681 2531 681 2391 
Q 681 2216 781 2091 
Q 878 1963 1175 1819 
L 1631 1597 
Q 2266 1288 2266 781 
Q 2266 391 1970 151 
Q 1675 -88 1309 -88 
Q 1047 -88 709 6 
Q 606 38 541 38 
Q 469 38 428 -44 
L 325 -44 
L 325 978 
L 428 978 
Q 516 541 762 319 
Q 1009 97 1316 97 
Q 1531 97 1667 223 
Q 1803 350 1803 528 
Q 1803 744 1651 891 
Q 1500 1038 1047 1263 
Q 594 1488 453 1669 
Q 313 1847 313 2119 
Q 313 2472 555 2709 
Q 797 2947 1181 2947 
Q 1350 2947 1591 2875 
Q 1750 2828 1803 2828 
Q 1853 2828 1881 2850 
Q 1909 2872 1947 2947 
L 2050 2947 
z
" transform="scale(0.015625)"/>
       <path id="TimesNewRomanPSMT-70" d="M -6 2578 
L 875 2934 
L 994 2934 
L 994 2266 
Q 1216 2644 1439 2795 
Q 1663 2947 1909 2947 
Q 2341 2947 2628 2609 
Q 2981 2197 2981 1534 
Q 2981 794 2556 309 
Q 2206 -88 1675 -88 
Q 1444 -88 1275 -22 
Q 1150 25 994 166 
L 994 -706 
Q 994 -1000 1030 -1079 
Q 1066 -1159 1155 -1206 
Q 1244 -1253 1478 -1253 
L 1478 -1369 
L -22 -1369 
L -22 -1253 
L 56 -1253 
Q 228 -1256 350 -1188 
Q 409 -1153 442 -1076 
Q 475 -1000 475 -688 
L 475 2019 
Q 475 2297 450 2372 
Q 425 2447 370 2484 
Q 316 2522 222 2522 
Q 147 2522 31 2478 
L -6 2578 
z
M 994 2081 
L 994 1013 
Q 994 666 1022 556 
Q 1066 375 1236 237 
Q 1406 100 1666 100 
Q 1978 100 2172 344 
Q 2425 663 2425 1241 
Q 2425 1897 2138 2250 
Q 1938 2494 1663 2494 
Q 1513 2494 1366 2419 
Q 1253 2363 994 2081 
z
" transform="scale(0.015625)"/>
       <path id="TimesNewRomanPSMT-6c" d="M 1184 4444 
L 1184 647 
Q 1184 378 1223 290 
Q 1263 203 1344 158 
Q 1425 113 1647 113 
L 1647 0 
L 244 0 
L 244 113 
Q 441 113 512 153 
Q 584 194 625 287 
Q 666 381 666 647 
L 666 3247 
Q 666 3731 644 3842 
Q 622 3953 573 3993 
Q 525 4034 450 4034 
Q 369 4034 244 3984 
L 191 4094 
L 1044 4444 
L 1184 4444 
z
" transform="scale(0.015625)"/>
       <path id="TimesNewRomanPSMT-61" d="M 1822 413 
Q 1381 72 1269 19 
Q 1100 -59 909 -59 
Q 613 -59 420 144 
Q 228 347 228 678 
Q 228 888 322 1041 
Q 450 1253 767 1440 
Q 1084 1628 1822 1897 
L 1822 2009 
Q 1822 2438 1686 2597 
Q 1550 2756 1291 2756 
Q 1094 2756 978 2650 
Q 859 2544 859 2406 
L 866 2225 
Q 866 2081 792 2003 
Q 719 1925 600 1925 
Q 484 1925 411 2006 
Q 338 2088 338 2228 
Q 338 2497 613 2722 
Q 888 2947 1384 2947 
Q 1766 2947 2009 2819 
Q 2194 2722 2281 2516 
Q 2338 2381 2338 1966 
L 2338 994 
Q 2338 584 2353 492 
Q 2369 400 2405 369 
Q 2441 338 2488 338 
Q 2538 338 2575 359 
Q 2641 400 2828 588 
L 2828 413 
Q 2478 -56 2159 -56 
Q 2006 -56 1915 50 
Q 1825 156 1822 413 
z
M 1822 616 
L 1822 1706 
Q 1350 1519 1213 1441 
Q 966 1303 859 1153 
Q 753 1003 753 825 
Q 753 600 887 451 
Q 1022 303 1197 303 
Q 1434 303 1822 616 
z
" transform="scale(0.015625)"/>
       <path id="TimesNewRomanPSMT-63" d="M 2631 1088 
Q 2516 522 2178 217 
Q 1841 -88 1431 -88 
Q 944 -88 581 321 
Q 219 731 219 1428 
Q 219 2103 620 2525 
Q 1022 2947 1584 2947 
Q 2006 2947 2278 2723 
Q 2550 2500 2550 2259 
Q 2550 2141 2473 2067 
Q 2397 1994 2259 1994 
Q 2075 1994 1981 2113 
Q 1928 2178 1911 2362 
Q 1894 2547 1784 2644 
Q 1675 2738 1481 2738 
Q 1169 2738 978 2506 
Q 725 2200 725 1697 
Q 725 1184 976 792 
Q 1228 400 1656 400 
Q 1963 400 2206 609 
Q 2378 753 2541 1131 
L 2631 1088 
z
" transform="scale(0.015625)"/>
       <path id="TimesNewRomanPSMT-65" d="M 681 1784 
Q 678 1147 991 784 
Q 1303 422 1725 422 
Q 2006 422 2214 576 
Q 2422 731 2563 1106 
L 2659 1044 
Q 2594 616 2278 264 
Q 1963 -88 1488 -88 
Q 972 -88 605 314 
Q 238 716 238 1394 
Q 238 2128 614 2539 
Q 991 2950 1559 2950 
Q 2041 2950 2350 2633 
Q 2659 2316 2659 1784 
L 681 1784 
z
M 681 1966 
L 2006 1966 
Q 1991 2241 1941 2353 
Q 1863 2528 1708 2628 
Q 1553 2728 1384 2728 
Q 1125 2728 920 2526 
Q 716 2325 681 1966 
z
" transform="scale(0.015625)"/>
       <path id="TimesNewRomanPSMT-6d" d="M 1050 2338 
Q 1363 2650 1419 2697 
Q 1559 2816 1721 2881 
Q 1884 2947 2044 2947 
Q 2313 2947 2506 2790 
Q 2700 2634 2766 2338 
Q 3088 2713 3309 2830 
Q 3531 2947 3766 2947 
Q 3994 2947 4170 2830 
Q 4347 2713 4450 2447 
Q 4519 2266 4519 1878 
L 4519 647 
Q 4519 378 4559 278 
Q 4591 209 4675 161 
Q 4759 113 4950 113 
L 4950 0 
L 3538 0 
L 3538 113 
L 3597 113 
Q 3781 113 3884 184 
Q 3956 234 3988 344 
Q 4000 397 4000 647 
L 4000 1878 
Q 4000 2228 3916 2372 
Q 3794 2572 3525 2572 
Q 3359 2572 3192 2489 
Q 3025 2406 2788 2181 
L 2781 2147 
L 2788 2013 
L 2788 647 
Q 2788 353 2820 281 
Q 2853 209 2943 161 
Q 3034 113 3253 113 
L 3253 0 
L 1806 0 
L 1806 113 
Q 2044 113 2133 169 
Q 2222 225 2256 338 
Q 2272 391 2272 647 
L 2272 1878 
Q 2272 2228 2169 2381 
Q 2031 2581 1784 2581 
Q 1616 2581 1450 2491 
Q 1191 2353 1050 2181 
L 1050 647 
Q 1050 366 1089 281 
Q 1128 197 1204 155 
Q 1281 113 1516 113 
L 1516 0 
L 100 0 
L 100 113 
Q 297 113 375 155 
Q 453 197 493 289 
Q 534 381 534 647 
L 534 1741 
Q 534 2213 506 2350 
Q 484 2453 437 2492 
Q 391 2531 309 2531 
Q 222 2531 100 2484 
L 53 2597 
L 916 2947 
L 1050 2947 
L 1050 2338 
z
" transform="scale(0.015625)"/>
       <path id="TimesNewRomanPSMT-6e" d="M 1034 2341 
Q 1538 2947 1994 2947 
Q 2228 2947 2397 2830 
Q 2566 2713 2666 2444 
Q 2734 2256 2734 1869 
L 2734 647 
Q 2734 375 2778 278 
Q 2813 200 2889 156 
Q 2966 113 3172 113 
L 3172 0 
L 1756 0 
L 1756 113 
L 1816 113 
Q 2016 113 2095 173 
Q 2175 234 2206 353 
Q 2219 400 2219 647 
L 2219 1819 
Q 2219 2209 2117 2386 
Q 2016 2563 1775 2563 
Q 1403 2563 1034 2156 
L 1034 647 
Q 1034 356 1069 288 
Q 1113 197 1189 155 
Q 1266 113 1500 113 
L 1500 0 
L 84 0 
L 84 113 
L 147 113 
Q 366 113 442 223 
Q 519 334 519 647 
L 519 1709 
Q 519 2225 495 2337 
Q 472 2450 423 2490 
Q 375 2531 294 2531 
Q 206 2531 84 2484 
L 38 2597 
L 900 2947 
L 1034 2947 
L 1034 2341 
z
" transform="scale(0.015625)"/>
       <path id="TimesNewRomanPSMT-74" d="M 1031 3803 
L 1031 2863 
L 1700 2863 
L 1700 2644 
L 1031 2644 
L 1031 788 
Q 1031 509 1111 412 
Q 1191 316 1316 316 
Q 1419 316 1516 380 
Q 1613 444 1666 569 
L 1788 569 
Q 1678 263 1478 108 
Q 1278 -47 1066 -47 
Q 922 -47 784 33 
Q 647 113 581 261 
Q 516 409 516 719 
L 516 2644 
L 63 2644 
L 63 2747 
Q 234 2816 414 2980 
Q 594 3144 734 3369 
Q 806 3488 934 3803 
L 1031 3803 
z
" transform="scale(0.015625)"/>
       <path id="TimesNewRomanPSMT-20" transform="scale(0.015625)"/>
       <path id="TimesNewRomanPSMT-28" d="M 1988 -1253 
L 1988 -1369 
Q 1516 -1131 1200 -813 
Q 750 -359 506 256 
Q 263 872 263 1534 
Q 263 2503 741 3301 
Q 1219 4100 1988 4444 
L 1988 4313 
Q 1603 4100 1356 3731 
Q 1109 3363 987 2797 
Q 866 2231 866 1616 
Q 866 947 969 400 
Q 1050 -31 1165 -292 
Q 1281 -553 1476 -793 
Q 1672 -1034 1988 -1253 
z
" transform="scale(0.015625)"/>
       <path id="TimesNewRomanPSMT-29" d="M 144 4313 
L 144 4444 
Q 619 4209 934 3891 
Q 1381 3434 1625 2820 
Q 1869 2206 1869 1541 
Q 1869 572 1392 -226 
Q 916 -1025 144 -1369 
L 144 -1253 
Q 528 -1038 776 -670 
Q 1025 -303 1145 264 
Q 1266 831 1266 1447 
Q 1266 2113 1163 2663 
Q 1084 3094 967 3353 
Q 850 3613 656 3853 
Q 463 4094 144 4313 
z
" transform="scale(0.015625)"/>
      </defs>
      <use xlink:href="#TimesNewRomanPSMT-44"/>
      <use xlink:href="#TimesNewRomanPSMT-69" x="72.216797"/>
      <use xlink:href="#TimesNewRomanPSMT-73" x="100"/>
      <use xlink:href="#TimesNewRomanPSMT-70" x="138.916016"/>
      <use xlink:href="#TimesNewRomanPSMT-6c" x="188.916016"/>
      <use xlink:href="#TimesNewRomanPSMT-61" x="216.699219"/>
      <use xlink:href="#TimesNewRomanPSMT-63" x="261.083984"/>
      <use xlink:href="#TimesNewRomanPSMT-65" x="305.46875"/>
      <use xlink:href="#TimesNewRomanPSMT-6d" x="349.853516"/>
      <use xlink:href="#TimesNewRomanPSMT-65" x="427.636719"/>
      <use xlink:href="#TimesNewRomanPSMT-6e" x="472.021484"/>
      <use xlink:href="#TimesNewRomanPSMT-74" x="522.021484"/>
      <use xlink:href="#TimesNewRomanPSMT-20" x="549.804688"/>
      <use xlink:href="#TimesNewRomanPSMT-28" x="574.804688"/>
      <use xlink:href="#TimesNewRomanPSMT-6d" x="608.105469"/>
      <use xlink:href="#TimesNewRomanPSMT-6d" x="685.888672"/>
      <use xlink:href="#TimesNewRomanPSMT-29" x="763.671875"/>
     </g>
    </g>
   </g>
   <g id="matplotlib.axis_2">
    <g id="ytick_1">
     <g id="line2d_11">
      <path d="M 49.432813 244.094903 
L 272.252813 244.094903 
" clip-path="url(#p7765edecb4)" style="fill: none; stroke-dasharray: 0.8,1.32; stroke-dashoffset: 0; stroke: #b0b0b0; stroke-width: 0.8"/>
     </g>
     <g id="line2d_12">
      <defs>
       <path id="m61a8888efd" d="M 0 0 
L -3.5 0 
" style="stroke: #000000; stroke-width: 0.8"/>
      </defs>
      <g>
       <use xlink:href="#m61a8888efd" x="49.432813" y="244.094903" style="stroke: #000000; stroke-width: 0.8"/>
      </g>
     </g>
     <g id="text_7">
      <!-- −150 -->
      <g transform="translate(20.282813 247.588653) scale(0.1 -0.1)">
       <defs>
        <path id="Cambria-31" d="M 2172 816 
Q 2172 634 2192 542 
Q 2213 450 2264 392 
Q 2316 334 2412 301 
Q 2509 269 2656 251 
Q 2803 234 3044 228 
L 3044 0 
L 734 0 
L 734 228 
Q 1081 244 1229 270 
Q 1378 297 1456 350 
Q 1534 403 1570 500 
Q 1606 597 1606 816 
L 1606 3350 
Q 1606 3475 1562 3533 
Q 1519 3591 1434 3591 
Q 1334 3591 1150 3487 
Q 966 3384 694 3203 
L 556 3444 
L 2019 4316 
L 2191 4316 
Q 2172 4016 2172 3484 
L 2172 816 
z
" transform="scale(0.015625)"/>
        <path id="Cambria-35" d="M 469 172 
L 469 834 
L 847 834 
Q 941 516 1130 366 
Q 1319 216 1619 216 
Q 2034 216 2246 466 
Q 2459 716 2459 1213 
Q 2459 1544 2346 1761 
Q 2234 1978 2043 2075 
Q 1853 2172 1600 2172 
Q 1388 2172 1234 2145 
Q 1081 2119 906 2063 
L 656 2209 
L 656 4266 
L 2378 4266 
Q 2484 4266 2531 4283 
Q 2578 4300 2606 4336 
Q 2634 4372 2672 4472 
L 2916 4472 
L 2869 3747 
L 1072 3747 
L 1072 2375 
Q 1234 2444 1425 2478 
Q 1616 2513 1806 2513 
Q 2178 2513 2465 2361 
Q 2753 2209 2909 1929 
Q 3066 1650 3066 1281 
Q 3066 863 2891 563 
Q 2716 263 2384 106 
Q 2053 -50 1600 -50 
Q 1059 -50 469 172 
z
" transform="scale(0.015625)"/>
       </defs>
       <use xlink:href="#Cambria-2212"/>
       <use xlink:href="#Cambria-31" x="55.371094"/>
       <use xlink:href="#Cambria-35" x="110.742188"/>
       <use xlink:href="#Cambria-30" x="166.113281"/>
      </g>
     </g>
    </g>
    <g id="ytick_2">
     <g id="line2d_13">
      <path d="M 49.432813 208.736909 
L 272.252813 208.736909 
" clip-path="url(#p7765edecb4)" style="fill: none; stroke-dasharray: 0.8,1.32; stroke-dashoffset: 0; stroke: #b0b0b0; stroke-width: 0.8"/>
     </g>
     <g id="line2d_14">
      <g>
       <use xlink:href="#m61a8888efd" x="49.432813" y="208.736909" style="stroke: #000000; stroke-width: 0.8"/>
      </g>
     </g>
     <g id="text_8">
      <!-- −100 -->
      <g transform="translate(20.282813 212.230659) scale(0.1 -0.1)">
       <use xlink:href="#Cambria-2212"/>
       <use xlink:href="#Cambria-31" x="55.371094"/>
       <use xlink:href="#Cambria-30" x="110.742188"/>
       <use xlink:href="#Cambria-30" x="166.113281"/>
      </g>
     </g>
    </g>
    <g id="ytick_3">
     <g id="line2d_15">
      <path d="M 49.432813 173.378915 
L 272.252813 173.378915 
" clip-path="url(#p7765edecb4)" style="fill: none; stroke-dasharray: 0.8,1.32; stroke-dashoffset: 0; stroke: #b0b0b0; stroke-width: 0.8"/>
     </g>
     <g id="line2d_16">
      <g>
       <use xlink:href="#m61a8888efd" x="49.432813" y="173.378915" style="stroke: #000000; stroke-width: 0.8"/>
      </g>
     </g>
     <g id="text_9">
      <!-- −50 -->
      <g transform="translate(25.820313 176.872665) scale(0.1 -0.1)">
       <use xlink:href="#Cambria-2212"/>
       <use xlink:href="#Cambria-35" x="55.371094"/>
       <use xlink:href="#Cambria-30" x="110.742188"/>
      </g>
     </g>
    </g>
    <g id="ytick_4">
     <g id="line2d_17">
      <path d="M 49.432813 138.020921 
L 272.252813 138.020921 
" clip-path="url(#p7765edecb4)" style="fill: none; stroke-dasharray: 0.8,1.32; stroke-dashoffset: 0; stroke: #b0b0b0; stroke-width: 0.8"/>
     </g>
     <g id="line2d_18">
      <g>
       <use xlink:href="#m61a8888efd" x="49.432813" y="138.020921" style="stroke: #000000; stroke-width: 0.8"/>
      </g>
     </g>
     <g id="text_10">
      <!-- 0 -->
      <g transform="translate(36.895313 141.514671) scale(0.1 -0.1)">
       <use xlink:href="#Cambria-30"/>
      </g>
     </g>
    </g>
    <g id="ytick_5">
     <g id="line2d_19">
      <path d="M 49.432813 102.662927 
L 272.252813 102.662927 
" clip-path="url(#p7765edecb4)" style="fill: none; stroke-dasharray: 0.8,1.32; stroke-dashoffset: 0; stroke: #b0b0b0; stroke-width: 0.8"/>
     </g>
     <g id="line2d_20">
      <g>
       <use xlink:href="#m61a8888efd" x="49.432813" y="102.662927" style="stroke: #000000; stroke-width: 0.8"/>
      </g>
     </g>
     <g id="text_11">
      <!-- 50 -->
      <g transform="translate(31.357813 106.156677) scale(0.1 -0.1)">
       <use xlink:href="#Cambria-35"/>
       <use xlink:href="#Cambria-30" x="55.371094"/>
      </g>
     </g>
    </g>
    <g id="ytick_6">
     <g id="line2d_21">
      <path d="M 49.432813 67.304933 
L 272.252813 67.304933 
" clip-path="url(#p7765edecb4)" style="fill: none; stroke-dasharray: 0.8,1.32; stroke-dashoffset: 0; stroke: #b0b0b0; stroke-width: 0.8"/>
     </g>
     <g id="line2d_22">
      <g>
       <use xlink:href="#m61a8888efd" x="49.432813" y="67.304933" style="stroke: #000000; stroke-width: 0.8"/>
      </g>
     </g>
     <g id="text_12">
      <!-- 100 -->
      <g transform="translate(25.820313 70.798683) scale(0.1 -0.1)">
       <use xlink:href="#Cambria-31"/>
       <use xlink:href="#Cambria-30" x="55.371094"/>
       <use xlink:href="#Cambria-30" x="110.742188"/>
      </g>
     </g>
    </g>
    <g id="ytick_7">
     <g id="line2d_23">
      <path d="M 49.432813 31.946939 
L 272.252813 31.946939 
" clip-path="url(#p7765edecb4)" style="fill: none; stroke-dasharray: 0.8,1.32; stroke-dashoffset: 0; stroke: #b0b0b0; stroke-width: 0.8"/>
     </g>
     <g id="line2d_24">
      <g>
       <use xlink:href="#m61a8888efd" x="49.432813" y="31.946939" style="stroke: #000000; stroke-width: 0.8"/>
      </g>
     </g>
     <g id="text_13">
      <!-- 150 -->
      <g transform="translate(25.820313 35.440689) scale(0.1 -0.1)">
       <use xlink:href="#Cambria-31"/>
       <use xlink:href="#Cambria-35" x="55.371094"/>
       <use xlink:href="#Cambria-30" x="110.742188"/>
      </g>
     </g>
    </g>
    <g id="text_14">
     <!-- Base Shear (kN) -->
     <g transform="translate(14.14375 171.319063) rotate(-90) scale(0.1 -0.1)">
      <defs>
       <path id="TimesNewRomanPSMT-42" d="M 2956 2163 
Q 3397 2069 3616 1863 
Q 3919 1575 3919 1159 
Q 3919 844 3719 555 
Q 3519 266 3170 133 
Q 2822 0 2106 0 
L 106 0 
L 106 116 
L 266 116 
Q 531 116 647 284 
Q 719 394 719 750 
L 719 3488 
Q 719 3881 628 3984 
Q 506 4122 266 4122 
L 106 4122 
L 106 4238 
L 1938 4238 
Q 2450 4238 2759 4163 
Q 3228 4050 3475 3764 
Q 3722 3478 3722 3106 
Q 3722 2788 3528 2536 
Q 3334 2284 2956 2163 
z
M 1319 2331 
Q 1434 2309 1582 2298 
Q 1731 2288 1909 2288 
Q 2366 2288 2595 2386 
Q 2825 2484 2947 2687 
Q 3069 2891 3069 3131 
Q 3069 3503 2766 3765 
Q 2463 4028 1881 4028 
Q 1569 4028 1319 3959 
L 1319 2331 
z
M 1319 306 
Q 1681 222 2034 222 
Q 2600 222 2897 476 
Q 3194 731 3194 1106 
Q 3194 1353 3059 1581 
Q 2925 1809 2622 1940 
Q 2319 2072 1872 2072 
Q 1678 2072 1540 2065 
Q 1403 2059 1319 2044 
L 1319 306 
z
" transform="scale(0.015625)"/>
       <path id="TimesNewRomanPSMT-53" d="M 2934 4334 
L 2934 2869 
L 2819 2869 
Q 2763 3291 2617 3541 
Q 2472 3791 2203 3937 
Q 1934 4084 1647 4084 
Q 1322 4084 1109 3886 
Q 897 3688 897 3434 
Q 897 3241 1031 3081 
Q 1225 2847 1953 2456 
Q 2547 2138 2764 1967 
Q 2981 1797 3098 1565 
Q 3216 1334 3216 1081 
Q 3216 600 2842 251 
Q 2469 -97 1881 -97 
Q 1697 -97 1534 -69 
Q 1438 -53 1133 45 
Q 828 144 747 144 
Q 669 144 623 97 
Q 578 50 556 -97 
L 441 -97 
L 441 1356 
L 556 1356 
Q 638 900 775 673 
Q 913 447 1195 297 
Q 1478 147 1816 147 
Q 2206 147 2432 353 
Q 2659 559 2659 841 
Q 2659 997 2573 1156 
Q 2488 1316 2306 1453 
Q 2184 1547 1640 1851 
Q 1097 2156 867 2337 
Q 638 2519 519 2737 
Q 400 2956 400 3219 
Q 400 3675 750 4004 
Q 1100 4334 1641 4334 
Q 1978 4334 2356 4169 
Q 2531 4091 2603 4091 
Q 2684 4091 2736 4139 
Q 2788 4188 2819 4334 
L 2934 4334 
z
" transform="scale(0.015625)"/>
       <path id="TimesNewRomanPSMT-68" d="M 1041 4444 
L 1041 2350 
Q 1388 2731 1591 2839 
Q 1794 2947 1997 2947 
Q 2241 2947 2416 2812 
Q 2591 2678 2675 2391 
Q 2734 2191 2734 1659 
L 2734 647 
Q 2734 375 2778 275 
Q 2809 200 2884 156 
Q 2959 113 3159 113 
L 3159 0 
L 1753 0 
L 1753 113 
L 1819 113 
Q 2019 113 2097 173 
Q 2175 234 2206 353 
Q 2216 403 2216 647 
L 2216 1659 
Q 2216 2128 2167 2275 
Q 2119 2422 2012 2495 
Q 1906 2569 1756 2569 
Q 1603 2569 1437 2487 
Q 1272 2406 1041 2159 
L 1041 647 
Q 1041 353 1073 281 
Q 1106 209 1195 161 
Q 1284 113 1503 113 
L 1503 0 
L 84 0 
L 84 113 
Q 275 113 384 172 
Q 447 203 484 290 
Q 522 378 522 647 
L 522 3238 
Q 522 3728 498 3840 
Q 475 3953 426 3993 
Q 378 4034 297 4034 
Q 231 4034 84 3984 
L 41 4094 
L 897 4444 
L 1041 4444 
z
" transform="scale(0.015625)"/>
       <path id="TimesNewRomanPSMT-72" d="M 1038 2947 
L 1038 2303 
Q 1397 2947 1775 2947 
Q 1947 2947 2059 2842 
Q 2172 2738 2172 2600 
Q 2172 2478 2090 2393 
Q 2009 2309 1897 2309 
Q 1788 2309 1652 2417 
Q 1516 2525 1450 2525 
Q 1394 2525 1328 2463 
Q 1188 2334 1038 2041 
L 1038 669 
Q 1038 431 1097 309 
Q 1138 225 1241 169 
Q 1344 113 1538 113 
L 1538 0 
L 72 0 
L 72 113 
Q 291 113 397 181 
Q 475 231 506 341 
Q 522 394 522 644 
L 522 1753 
Q 522 2253 501 2348 
Q 481 2444 426 2487 
Q 372 2531 291 2531 
Q 194 2531 72 2484 
L 41 2597 
L 906 2947 
L 1038 2947 
z
" transform="scale(0.015625)"/>
       <path id="TimesNewRomanPSMT-6b" d="M 1047 4444 
L 1047 1597 
L 1775 2259 
Q 2006 2472 2044 2528 
Q 2069 2566 2069 2603 
Q 2069 2666 2017 2711 
Q 1966 2756 1847 2763 
L 1847 2863 
L 3091 2863 
L 3091 2763 
Q 2834 2756 2664 2684 
Q 2494 2613 2291 2428 
L 1556 1750 
L 2291 822 
Q 2597 438 2703 334 
Q 2853 188 2966 144 
Q 3044 113 3238 113 
L 3238 0 
L 1847 0 
L 1847 113 
Q 1966 116 2008 148 
Q 2050 181 2050 241 
Q 2050 313 1925 472 
L 1047 1594 
L 1047 644 
Q 1047 366 1086 278 
Q 1125 191 1197 153 
Q 1269 116 1509 113 
L 1509 0 
L 53 0 
L 53 113 
Q 272 113 381 166 
Q 447 200 481 272 
Q 528 375 528 628 
L 528 3234 
Q 528 3731 506 3842 
Q 484 3953 434 3995 
Q 384 4038 303 4038 
Q 238 4038 106 3984 
L 53 4094 
L 903 4444 
L 1047 4444 
z
" transform="scale(0.015625)"/>
       <path id="TimesNewRomanPSMT-4e" d="M -84 4238 
L 1066 4238 
L 3656 1059 
L 3656 3503 
Q 3656 3894 3569 3991 
Q 3453 4122 3203 4122 
L 3056 4122 
L 3056 4238 
L 4531 4238 
L 4531 4122 
L 4381 4122 
Q 4113 4122 4000 3959 
Q 3931 3859 3931 3503 
L 3931 -69 
L 3819 -69 
L 1025 3344 
L 1025 734 
Q 1025 344 1109 247 
Q 1228 116 1475 116 
L 1625 116 
L 1625 0 
L 150 0 
L 150 116 
L 297 116 
Q 569 116 681 278 
Q 750 378 750 734 
L 750 3681 
Q 566 3897 470 3965 
Q 375 4034 191 4094 
Q 100 4122 -84 4122 
L -84 4238 
z
" transform="scale(0.015625)"/>
      </defs>
      <use xlink:href="#TimesNewRomanPSMT-42"/>
      <use xlink:href="#TimesNewRomanPSMT-61" x="66.699219"/>
      <use xlink:href="#TimesNewRomanPSMT-73" x="111.083984"/>
      <use xlink:href="#TimesNewRomanPSMT-65" x="150"/>
      <use xlink:href="#TimesNewRomanPSMT-20" x="194.384766"/>
      <use xlink:href="#TimesNewRomanPSMT-53" x="219.384766"/>
      <use xlink:href="#TimesNewRomanPSMT-68" x="275"/>
      <use xlink:href="#TimesNewRomanPSMT-65" x="325"/>
      <use xlink:href="#TimesNewRomanPSMT-61" x="369.384766"/>
      <use xlink:href="#TimesNewRomanPSMT-72" x="413.769531"/>
      <use xlink:href="#TimesNewRomanPSMT-20" x="447.070312"/>
      <use xlink:href="#TimesNewRomanPSMT-28" x="472.070312"/>
      <use xlink:href="#TimesNewRomanPSMT-6b" x="505.371094"/>
      <use xlink:href="#TimesNewRomanPSMT-4e" x="555.371094"/>
      <use xlink:href="#TimesNewRomanPSMT-29" x="627.587891"/>
     </g>
    </g>
   </g>
   <g id="line2d_25">
    <path d="M 151.371148 137.051083 
L 151.812397 129.859487 
L 153.577392 119.928236 
L 155.489471 111.024355 
L 157.254467 104.175216 
L 160.049043 98.010992 
L 161.37279 93.216594 
L 163.579035 87.05237 
L 163.579035 90.819396 
L 162.990703 97.326078 
L 162.108205 103.490303 
L 160.343209 111.024355 
L 159.313629 117.18858 
L 157.548633 121.64052 
L 156.371969 127.119831 
L 154.754056 133.284056 
L 152.253646 145.270049 
L 151.224065 149.379532 
L 149.606152 155.2013 
L 148.135322 159.995697 
L 146.517409 164.447638 
L 145.781994 167.187293 
L 145.929077 160.338154 
L 146.664492 151.776731 
L 148.282405 142.530394 
L 149.900318 133.96897 
L 154.165724 115.133838 
L 156.519052 108.2847 
L 158.431131 100.40819 
L 162.549454 90.819396 
L 165.638197 82.600429 
L 167.256109 78.833403 
L 171.521516 74.381463 
L 169.903603 84.997628 
L 168.726939 92.189224 
L 166.226529 103.490303 
L 164.31445 108.969614 
L 162.402371 116.503666 
L 160.637375 119.585779 
L 158.431131 125.750004 
L 156.666135 131.229315 
L 154.754056 136.023712 
L 152.98906 142.530394 
L 149.164903 155.886214 
L 145.634912 169.242035 
L 144.605331 172.324147 
L 143.281584 174.721346 
L 137.986597 188.419623 
L 137.986597 184.995054 
L 138.427846 178.145915 
L 139.457426 170.269406 
L 140.928256 163.07781 
L 143.428667 156.228671 
L 144.899497 151.776731 
L 146.664492 145.954963 
L 148.135322 141.503023 
L 152.253646 125.750004 
L 153.283226 121.298063 
L 157.842799 106.229958 
L 164.461533 86.709913 
L 167.403192 80.888145 
L 172.256931 71.984264 
L 175.934005 64.792669 
L 177.699001 62.053013 
L 177.257752 68.559695 
L 176.816503 73.354092 
L 175.492756 81.915515 
L 174.316092 86.367456 
L 172.551097 91.161853 
L 171.080267 98.353448 
L 169.021105 103.832759 
L 166.520695 111.024355 
L 161.225707 123.352805 
L 158.725297 130.886858 
L 155.195305 139.105824 
L 153.136143 144.585135 
L 151.076982 150.406903 
L 149.606152 153.831473 
L 147.105741 161.365525 
L 142.693252 175.748717 
L 140.192841 182.597855 
L 136.957016 190.474365 
L 131.662029 201.432987 
L 131.956194 193.898934 
L 132.691609 184.31014 
L 134.162439 175.40626 
L 136.515767 167.187293 
L 140.045758 158.968327 
L 143.57575 151.434274 
L 155.048222 114.448925 
L 158.284048 105.545044 
L 160.490292 98.353448 
L 165.344031 86.709913 
L 168.432773 80.545688 
L 173.286512 70.27198 
L 177.846084 62.737927 
L 182.405656 56.916159 
L 185.935648 51.779305 
L 189.906888 47.327365 
L 192.995631 44.930166 
L 192.407299 54.861417 
L 191.083552 62.053013 
L 189.759805 70.614436 
L 186.52398 80.545688 
L 181.670241 92.531681 
L 177.993167 101.093104 
L 172.992346 109.996984 
L 169.462354 118.900865 
L 164.902782 127.462288 
L 159.754877 136.023712 
L 155.93072 145.612506 
L 151.812397 152.461645 
L 147.54699 159.995697 
L 143.722833 173.009061 
L 139.310343 185.337511 
L 135.633269 192.529107 
L 127.543705 206.569841 
L 123.719548 213.076523 
L 122.83705 208.96704 
L 124.749129 198.008418 
L 128.132037 184.652597 
L 132.838692 171.296776 
L 136.957016 160.680611 
L 142.10492 150.064446 
L 145.634912 140.133195 
L 155.783637 114.791382 
L 163.431952 96.641164 
L 170.050686 86.024999 
L 175.639839 77.463575 
L 180.787743 67.874781 
L 185.494399 59.998271 
L 189.906888 53.834046 
L 192.995631 47.327365 
L 196.231456 43.560338 
L 200.496863 41.505597 
L 204.615186 40.135769 
L 206.968514 40.135769 
L 206.086016 51.779305 
L 203.879771 64.450212 
L 201.232277 73.354092 
L 197.849369 82.942886 
L 194.760626 89.107111 
L 191.230635 96.641164 
L 186.082731 105.545044 
L 181.376075 115.133838 
L 174.757341 124.037719 
L 169.903603 132.599142 
L 164.31445 140.133195 
L 158.578214 149.037075 
L 154.45989 155.886214 
L 148.135322 163.762724 
L 141.222422 180.200657 
L 136.66285 192.18665 
L 132.103277 197.323504 
L 126.367041 208.96704 
L 122.83705 215.473721 
L 112.688324 227.802171 
L 107.54042 231.911654 
L 108.864167 217.186006 
L 111.952909 202.117901 
L 118.130394 186.022425 
L 123.131216 173.693975 
L 130.044116 160.680611 
L 137.839514 146.982334 
L 144.311165 135.338798 
L 150.194484 124.037719 
L 156.077803 112.394183 
L 161.37279 104.517673 
L 165.491114 95.271336 
L 172.109848 85.340085 
L 180.346495 74.72392 
L 187.406477 66.162496 
L 195.201875 55.888788 
L 200.643946 48.354735 
L 206.233099 43.902795 
L 211.086837 40.478226 
L 222.265143 36.368743 
L 221.676812 44.930166 
L 220.794314 52.121762 
L 219.176401 61.710556 
L 215.646409 73.354092 
L 208.733509 88.422197 
L 201.526443 103.490303 
L 193.289797 116.161209 
L 185.494399 126.777374 
L 169.315271 144.242678 
L 162.696537 151.776731 
L 156.077803 158.968327 
L 150.047401 164.790095 
L 142.10492 174.721346 
L 136.66285 182.597855 
L 129.161618 194.583848 
L 120.630805 208.96704 
L 115.629984 218.213377 
L 109.452499 226.7748 
L 104.010429 232.939025 
L 100.921686 233.966396 
L 96.067948 236.021138 
L 93.420454 236.363595 
L 94.008786 225.74743 
L 96.65628 210.336867 
L 101.068769 196.981047 
L 106.216673 182.255398 
L 111.658743 172.324147 
L 120.483722 156.913585 
L 133.72119 138.763367 
L 140.192841 131.229315 
L 146.958658 123.695262 
L 152.253646 116.846123 
L 157.254467 111.024355 
L 163.873201 101.778018 
L 169.021105 94.928879 
L 175.639839 84.312714 
L 183.58232 77.121118 
L 191.96605 67.532324 
L 197.40812 62.39547 
L 203.879771 54.861417 
L 210.057256 50.06702 
L 217.999737 43.217881 
L 224.471388 39.450855 
L 229.913458 37.73857 
L 236.532192 36.7112 
L 238.444271 36.7112 
L 238.003022 42.875424 
L 236.973441 51.436848 
L 236.238026 60.340728 
L 234.325948 68.217238 
L 230.648873 77.121118 
L 227.265965 84.655171 
L 221.823895 95.271336 
L 216.381824 102.805389 
L 210.204339 113.079097 
L 203.438522 121.298063 
L 192.407299 131.571772 
L 185.935648 138.42091 
L 177.257752 145.954963 
L 168.874022 152.461645 
L 162.696537 156.228671 
L 151.812397 163.420267 
L 143.722833 171.639233 
L 137.545348 179.515743 
L 126.80829 194.926305 
L 118.571643 205.54247 
L 109.305416 216.158635 
L 101.510018 225.404973 
L 94.891284 231.569198 
L 80.182986 239.10325 
L 75.182165 240.130621 
L 76.652994 228.144628 
L 78.41799 215.131264 
L 81.212567 206.912298 
L 86.507554 194.241391 
L 94.302952 177.803458 
L 103.275014 160.680611 
L 111.952909 149.721989 
L 118.865809 142.87285 
L 128.720369 132.941599 
L 136.809933 127.462288 
L 141.663671 121.982977 
L 148.135322 117.18858 
L 153.430309 111.709269 
L 165.049865 100.40819 
L 174.757341 88.422197 
L 188.583141 76.436204 
L 197.261037 69.929523 
L 205.056435 63.765298 
L 212.116418 57.94353 
L 219.61765 51.436848 
L 226.971799 47.327365 
L 233.149284 44.245252 
L 238.297188 41.505597 
L 237.267607 51.779305 
L 232.413869 71.29935 
L 228.589712 81.230602 
L 225.206803 88.422197 
L 218.882235 100.40819 
L 213.881414 107.257329 
L 207.115597 117.531037 
L 196.084373 128.147202 
L 179.758163 144.242678 
L 171.374433 151.091817 
L 165.491114 154.858843 
L 157.989882 158.968327 
L 151.518231 164.447638 
L 144.899497 171.639233 
L 132.985775 183.625226 
L 124.160797 193.556477 
L 114.747486 203.487729 
L 104.010429 212.391609 
L 93.861703 222.665317 
L 81.35965 232.254111 
L 74.005501 235.678681 
L 67.386767 238.418336 
L 60.179701 239.10325 
L 59.885535 230.19937 
L 62.165321 208.96704 
L 65.327605 200.063159 
L 69.51947 189.96068 
L 78.565073 170.269406 
L 86.654637 158.112184 
L 94.155869 148.694618 
L 104.892926 138.42091 
L 115.92415 131.914228 
L 122.101635 127.804745 
L 132.691609 123.695262 
L 146.370326 116.503666 
L 157.842799 106.572415 
L 168.28569 96.983621 
L 181.964407 85.682542 
L 193.142714 76.093747 
L 205.938933 67.874781 
L 219.176401 57.601073 
L 226.53055 52.121762 
L 235.502612 48.697192 
L 240.503433 49.382106 
L 245.79842 50.409477 
L 248.445914 53.49159 
L 250.652158 56.573702 
L 255.064648 58.457215 
L 257.565058 60.340728 
L 260.506718 64.450212 
L 261.536299 71.641807 
L 262.124631 77.463575 
L 262.124631 82.600429 
L 262.124631 82.600429 
" clip-path="url(#p7765edecb4)" style="fill: none; stroke-dasharray: 3.7,1.6; stroke-dashoffset: 0; stroke: #000000"/>
   </g>
   <g id="line2d_26">
    <path d="M 151.087572 138.020921 
L 152.801145 106.114231 
L 153.329932 98.669903 
L 153.823238 93.363738 
L 154.672868 87.290664 
L 155.726607 81.558174 
L 155.725074 81.570727 
L 154.657309 94.620152 
L 152.221621 123.936439 
L 151.646834 132.146552 
L 149.351365 169.717429 
L 148.823892 176.416407 
L 148.332239 181.037718 
L 147.486816 185.698677 
L 146.868393 188.152289 
L 146.447131 189.845664 
L 146.45173 189.800375 
L 147.533491 176.927591 
L 149.419407 154.165791 
L 152.292391 112.352079 
L 153.372508 102.355541 
L 155.663508 83.201437 
L 155.72929 82.784213 
L 155.640634 83.811444 
L 153.265607 111.893234 
L 152.174283 127.120432 
L 149.859227 160.64034 
L 148.293133 174.761472 
L 146.444703 189.728611 
L 146.53946 188.636651 
L 149.464999 153.994608 
L 151.545784 122.723781 
L 154.283779 95.177558 
L 156.971199 79.175854 
L 159.565521 71.275443 
L 162.025695 65.438954 
L 164.312792 60.987503 
L 166.390624 57.612885 
L 168.226312 55.140976 
L 171.059362 51.953002 
L 172.913859 50.196698 
L 170.619716 64.18296 
L 167.568238 81.221634 
L 165.638126 91.066086 
L 163.477777 101.279931 
L 161.121375 111.650254 
L 155.972068 133.313069 
L 153.260641 146.947593 
L 150.514829 168.140815 
L 147.77808 186.239162 
L 145.093698 196.571052 
L 142.504159 203.490424 
L 140.050436 208.857894 
L 137.771357 212.90163 
L 135.702983 216.063522 
L 133.878043 218.467783 
L 131.069662 221.653176 
L 129.257079 223.413624 
L 131.606982 209.311077 
L 134.682319 192.287356 
L 136.622661 182.414091 
L 138.791884 172.172936 
L 141.155666 161.779069 
L 146.314803 139.981637 
L 149.028525 126.408891 
L 151.774828 109.222061 
L 154.510256 97.468815 
L 157.191526 88.426601 
L 159.776212 80.862742 
L 162.223416 74.6112 
L 164.494415 69.604641 
L 166.553274 65.628127 
L 168.367416 62.481943 
L 171.151051 58.272419 
L 172.921668 55.881541 
L 170.516072 69.906543 
L 167.41696 86.688871 
L 165.466442 96.411591 
L 163.288403 106.521477 
L 160.917308 116.732272 
L 155.748482 137.333472 
L 153.032539 150.044639 
L 150.285821 166.629731 
L 147.551789 178.165992 
L 144.873704 187.242874 
L 142.293943 194.896498 
L 139.853325 201.144044 
L 137.59047 206.137259 
L 135.541182 210.148715 
L 133.737888 213.282945 
L 130.979075 217.537706 
L 129.250471 219.900847 
L 131.711696 205.47637 
L 134.834497 188.636542 
L 136.795138 178.987068 
L 138.981932 169.005331 
L 141.360277 158.933025 
L 146.538648 138.293323 
L 149.256737 124.849773 
L 152.725078 106.198328 
L 157.608804 89.005465 
L 162.389343 76.015132 
L 166.991051 66.439435 
L 171.341115 59.420253 
L 175.370703 54.172625 
L 179.016053 50.687422 
L 182.219484 48.397237 
L 187.105631 45.517304 
L 190.119876 44.000741 
L 187.63405 58.37672 
L 185.621791 69.245247 
L 183.063089 81.87611 
L 179.998431 95.291755 
L 176.47631 108.151916 
L 172.552458 120.093559 
L 168.288961 130.707811 
L 163.753283 139.679651 
L 159.017193 146.592832 
L 154.15563 156.198883 
L 149.245521 177.49084 
L 144.364559 191.844514 
L 139.589976 203.105406 
L 134.997323 211.517457 
L 130.65927 217.855707 
L 126.644458 222.698887 
L 123.016415 225.730012 
L 119.832548 227.906511 
L 114.991035 230.680417 
L 112.052046 232.130627 
L 114.613582 217.43084 
L 116.649307 206.51698 
L 119.229957 193.858128 
L 122.314697 180.466327 
L 125.854716 167.666005 
L 129.794001 155.806828 
L 134.070219 145.272275 
L 138.615706 136.436865 
L 143.358539 129.415341 
L 148.22367 119.355407 
L 153.134117 101.511478 
L 158.012181 88.094184 
L 162.780675 77.334585 
L 167.364147 69.098252 
L 171.69007 62.891394 
L 175.689996 58.158751 
L 179.300632 54.471105 
L 182.464846 51.597415 
L 187.261593 47.688266 
L 190.125246 45.544631 
L 187.488069 60.180606 
L 185.428934 70.867331 
L 182.826408 83.225512 
L 179.721671 96.204679 
L 176.16385 108.863048 
L 172.209241 120.475827 
L 167.920419 130.690268 
L 163.365248 139.66875 
L 158.615804 146.986688 
L 153.747239 157.246526 
L 148.836589 175.16774 
L 143.961557 188.595375 
L 139.199282 199.347614 
L 134.625118 207.443575 
L 130.311443 213.548089 
L 126.326514 218.237197 
L 122.733384 221.890177 
L 119.588909 224.747581 
L 114.83706 228.646111 
L 112.048824 230.749912 
L 114.761568 215.632717 
L 116.844056 204.821668 
L 119.468388 192.402872 
L 122.593036 179.420386 
L 126.168561 166.846475 
L 130.138385 155.332246 
L 134.439692 145.201986 
L 139.004423 136.318823 
L 143.760348 128.8157 
L 148.632213 117.550121 
L 154.624457 97.470612 
L 161.642263 80.264397 
L 168.49306 67.846501 
L 175.068446 59.288125 
L 181.264377 53.058511 
L 186.982813 48.278699 
L 192.133271 44.470342 
L 196.634254 42.407028 
L 203.414316 39.884926 
L 207.321958 38.60281 
L 205.512645 48.936377 
L 203.30557 60.861129 
L 200.272238 75.699964 
L 196.460645 91.683944 
L 191.931104 106.632543 
L 186.755286 119.865585 
L 181.01509 130.950503 
L 174.801344 139.641694 
L 168.21237 145.889429 
L 161.352426 151.508809 
L 154.330059 161.466493 
L 147.256385 183.821958 
L 140.243333 199.239761 
L 133.401872 210.318712 
L 126.840255 218.158027 
L 120.66231 223.984145 
L 114.96579 228.566243 
L 109.840834 232.073728 
L 105.368534 233.979223 
L 98.653522 236.418088 
L 94.854732 237.641575 
L 96.737462 226.946554 
L 98.979755 214.902991 
L 102.046561 199.982388 
L 105.889355 183.986949 
L 110.44733 169.088246 
L 115.648365 155.918863 
L 121.410163 144.893406 
L 127.641553 136.318289 
L 134.243935 130.058415 
L 141.112837 124.343461 
L 148.139572 114.199845 
L 155.212954 93.753044 
L 162.221059 79.066912 
L 169.052997 68.182487 
L 175.600663 60.619417 
L 181.760453 55.081701 
L 187.434899 50.82843 
L 192.534213 47.44854 
L 200.695072 42.59826 
L 207.317318 38.968958 
L 205.361222 49.620251 
L 203.083774 61.354478 
L 199.983577 75.808892 
L 196.109689 91.267255 
L 191.523405 106.10081 
L 186.297295 119.16318 
L 180.514054 130.043906 
L 174.265192 139.041775 
L 167.649584 146.177283 
L 160.771912 151.92221 
L 153.741002 162.839424 
L 146.668107 183.286724 
L 139.665142 197.908057 
L 132.842916 208.458304 
L 126.30938 215.844652 
L 120.167915 221.281522 
L 114.515698 225.483671 
L 109.442167 228.830584 
L 101.341851 233.650621 
L 95.177712 237.010281 
L 94.862466 237.115944 
L 96.891874 225.664455 
L 99.204415 213.355661 
L 102.337916 198.32111 
L 106.242793 182.445252 
L 110.85726 167.786302 
L 116.1083 154.915194 
L 121.912825 144.168472 
L 128.178988 135.805797 
L 134.80764 129.631499 
L 141.693892 123.800631 
L 148.728783 111.624565 
L 157.242293 89.039178 
L 166.379698 72.180083 
L 175.275132 61.124164 
L 183.787841 53.659769 
L 191.783126 48.095819 
L 199.134476 43.654789 
L 205.725568 39.988432 
L 211.452112 37.741474 
L 219.964214 35.405567 
L 224.497399 34.27619 
L 221.751773 49.597494 
L 218.686349 65.231676 
L 214.551295 83.374821 
L 209.41204 100.758982 
L 203.349904 115.951255 
L 196.460808 128.399585 
L 188.853762 138.1985 
L 180.649133 144.967385 
L 171.976744 151.184826 
L 162.973821 158.950005 
L 153.782819 171.131297 
L 144.54917 190.159765 
L 135.41898 205.576567 
L 126.536717 216.102872 
L 118.042928 223.159031 
L 110.072012 228.507431 
L 102.750094 232.823185 
L 96.193031 236.402683 
L 90.504577 238.571044 
L 82.078367 240.843531 
L 77.687842 241.925492 
L 80.52905 226.105805 
L 83.64013 210.317718 
L 87.818446 192.150916 
L 92.997884 174.822858 
L 99.096488 159.699903 
L 106.01776 147.326529 
L 113.652181 137.687017 
L 121.87895 130.949978 
L 130.567895 124.690844 
L 139.581527 116.921363 
L 148.777222 105.113714 
L 157.547861 87.194355 
L 166.670586 72.067394 
L 175.539433 61.830773 
L 184.014069 55.04867 
L 191.960397 49.996949 
L 199.252681 46.016277 
L 205.775533 42.767068 
L 216.1139 37.965081 
L 222.323741 35.207789 
L 224.013572 34.599423 
L 221.076861 50.442349 
L 217.92021 65.95355 
L 213.698747 83.72066 
L 208.479268 100.847132 
L 202.344364 115.86082 
L 195.391107 128.068386 
L 187.729521 137.677811 
L 179.480837 144.890199 
L 170.775576 150.681204 
L 161.751483 156.906227 
L 152.551348 171.002524 
L 143.320747 191.48106 
L 134.205738 206.173029 
L 125.350551 215.481019 
L 116.895301 221.936471 
L 108.97378 226.810893 
L 101.71133 230.698059 
L 95.222868 233.894007 
L 84.964708 238.635581 
L 78.846 241.281381 
L 77.252483 241.694282 
L 80.284615 224.959869 
L 83.486751 208.903749 
L 87.751245 190.700705 
L 93.01062 173.586721 
L 99.181656 158.744556 
L 106.166707 146.637988 
L 113.855247 137.209696 
L 122.125618 130.580803 
L 130.846956 124.28464 
L 139.881263 116.298501 
L 149.085584 103.543141 
L 159.563254 83.217633 
L 170.802957 66.839687 
L 181.714669 56.819087 
L 192.125732 50.032534 
L 201.871408 44.83759 
L 210.79749 40.569158 
L 218.762739 36.978876 
L 225.641118 34.212018 
L 238.762678 31.268582 
L 240.610439 30.882841 
L 239.387119 37.774483 
L 236.750585 51.944186 
L 232.742555 71.038009 
L 227.426451 91.089057 
L 220.886388 108.760015 
L 213.225853 123.191897 
L 204.56606 134.465728 
L 195.044035 142.204882 
L 184.810446 148.264121 
L 174.027222 154.516682 
L 162.86499 163.349426 
L 151.50037 178.20627 
L 140.113189 197.99691 
L 128.883627 212.51922 
L 117.989374 221.33363 
L 107.602811 227.560249 
L 97.888288 232.472468 
L 88.999518 236.577503 
L 81.077153 240.058622 
L 74.246548 242.485205 
L 61.289783 245.311734 
L 59.560994 245.664659 
L 60.843741 238.440226 
L 63.538407 223.995279 
L 67.602353 204.748203 
L 72.971275 184.741657 
L 79.560218 167.154428 
L 87.264926 152.822433 
L 95.963483 141.637845 
L 105.518252 133.925144 
L 126.580517 121.183626 
L 137.754741 113.416809 
L 149.123903 100.716096 
L 160.508107 81.482247 
L 171.727217 66.364131 
L 182.603711 57.111962 
L 192.965489 50.896746 
L 202.648592 46.075155 
L 211.499804 42.167282 
L 226.161713 36.226752 
L 236.02689 32.409579 
L 240.563094 31.12478 
L 239.220956 38.511931 
L 236.468232 52.951673 
L 232.348481 72.03044 
L 226.92689 91.77052 
L 220.289247 109.317079 
L 212.540579 123.583627 
L 203.803496 134.7256 
L 194.216247 142.687417 
L 173.109108 155.255188 
L 161.923201 164.528383 
L 150.549809 179.555223 
L 139.168897 198.738586 
L 127.960546 212.368983 
L 117.102109 220.517093 
L 117.102109 220.517093 
" clip-path="url(#p7765edecb4)" style="fill: none; stroke: #0000ff; stroke-width: 1.2; stroke-linecap: square"/>
   </g>
   <g id="line2d_27">
    <path d="M 49.432813 138.020921 
L 272.252813 138.020921 
" clip-path="url(#p7765edecb4)" style="fill: none; stroke: #000000; stroke-width: 0.4; stroke-linecap: square"/>
   </g>
   <g id="line2d_28">
    <path d="M 151.087572 256.40375 
L 151.087572 20.14375 
" clip-path="url(#p7765edecb4)" style="fill: none; stroke: #000000; stroke-width: 0.4; stroke-linecap: square"/>
   </g>
   <g id="patch_3">
    <path d="M 49.432813 256.40375 
L 49.432813 20.14375 
" style="fill: none; stroke: #000000; stroke-width: 0.8; stroke-linejoin: miter; stroke-linecap: square"/>
   </g>
   <g id="patch_4">
    <path d="M 272.252813 256.40375 
L 272.252813 20.14375 
" style="fill: none; stroke: #000000; stroke-width: 0.8; stroke-linejoin: miter; stroke-linecap: square"/>
   </g>
   <g id="patch_5">
    <path d="M 49.432813 256.40375 
L 272.252813 256.40375 
" style="fill: none; stroke: #000000; stroke-width: 0.8; stroke-linejoin: miter; stroke-linecap: square"/>
   </g>
   <g id="patch_6">
    <path d="M 49.432813 20.14375 
L 272.252813 20.14375 
" style="fill: none; stroke: #000000; stroke-width: 0.8; stroke-linejoin: miter; stroke-linecap: square"/>
   </g>
   <g id="text_15">
    <!-- Specimen : Alarcon-W1 -->
    <g transform="translate(112.523281 14.14375) scale(0.1 -0.1)">
     <defs>
      <path id="TimesNewRomanPSMT-3a" d="M 903 2950 
Q 1047 2950 1148 2848 
Q 1250 2747 1250 2603 
Q 1250 2459 1148 2357 
Q 1047 2256 903 2256 
Q 759 2256 657 2357 
Q 556 2459 556 2603 
Q 556 2747 657 2848 
Q 759 2950 903 2950 
z
M 897 609 
Q 1044 609 1145 506 
Q 1247 403 1247 259 
Q 1247 116 1144 14 
Q 1041 -88 897 -88 
Q 753 -88 651 14 
Q 550 116 550 259 
Q 550 403 651 506 
Q 753 609 897 609 
z
" transform="scale(0.015625)"/>
      <path id="TimesNewRomanPSMT-41" d="M 2928 1419 
L 1288 1419 
L 1000 750 
Q 894 503 894 381 
Q 894 284 986 211 
Q 1078 138 1384 116 
L 1384 0 
L 50 0 
L 50 116 
Q 316 163 394 238 
Q 553 388 747 847 
L 2238 4334 
L 2347 4334 
L 3822 809 
Q 4000 384 4145 257 
Q 4291 131 4550 116 
L 4550 0 
L 2878 0 
L 2878 116 
Q 3131 128 3220 200 
Q 3309 272 3309 375 
Q 3309 513 3184 809 
L 2928 1419 
z
M 2841 1650 
L 2122 3363 
L 1384 1650 
L 2841 1650 
z
" transform="scale(0.015625)"/>
      <path id="TimesNewRomanPSMT-6f" d="M 1600 2947 
Q 2250 2947 2644 2453 
Q 2978 2031 2978 1484 
Q 2978 1100 2793 706 
Q 2609 313 2286 112 
Q 1963 -88 1566 -88 
Q 919 -88 538 428 
Q 216 863 216 1403 
Q 216 1797 411 2186 
Q 606 2575 925 2761 
Q 1244 2947 1600 2947 
z
M 1503 2744 
Q 1338 2744 1170 2645 
Q 1003 2547 900 2300 
Q 797 2053 797 1666 
Q 797 1041 1045 587 
Q 1294 134 1700 134 
Q 2003 134 2200 384 
Q 2397 634 2397 1244 
Q 2397 2006 2069 2444 
Q 1847 2744 1503 2744 
z
" transform="scale(0.015625)"/>
      <path id="TimesNewRomanPSMT-2d" d="M 259 1672 
L 1875 1672 
L 1875 1200 
L 259 1200 
L 259 1672 
z
" transform="scale(0.015625)"/>
      <path id="TimesNewRomanPSMT-57" d="M 5991 4238 
L 5991 4122 
Q 5825 4122 5722 4062 
Q 5619 4003 5525 3841 
Q 5463 3731 5328 3319 
L 4147 -97 
L 4022 -97 
L 3056 2613 
L 2097 -97 
L 1984 -97 
L 725 3422 
Q 584 3816 547 3888 
Q 484 4006 376 4064 
Q 269 4122 84 4122 
L 84 4238 
L 1653 4238 
L 1653 4122 
L 1578 4122 
Q 1413 4122 1325 4047 
Q 1238 3972 1238 3866 
Q 1238 3756 1375 3363 
L 2209 984 
L 2913 3006 
L 2788 3363 
L 2688 3647 
Q 2622 3803 2541 3922 
Q 2500 3981 2441 4022 
Q 2363 4078 2284 4103 
Q 2225 4122 2097 4122 
L 2097 4238 
L 3747 4238 
L 3747 4122 
L 3634 4122 
Q 3459 4122 3378 4047 
Q 3297 3972 3297 3844 
Q 3297 3684 3438 3288 
L 4250 984 
L 5056 3319 
Q 5194 3706 5194 3856 
Q 5194 3928 5148 3990 
Q 5103 4053 5034 4078 
Q 4916 4122 4725 4122 
L 4725 4238 
L 5991 4238 
z
" transform="scale(0.015625)"/>
      <path id="TimesNewRomanPSMT-31" d="M 750 3822 
L 1781 4325 
L 1884 4325 
L 1884 747 
Q 1884 391 1914 303 
Q 1944 216 2037 169 
Q 2131 122 2419 116 
L 2419 0 
L 825 0 
L 825 116 
Q 1125 122 1212 167 
Q 1300 213 1334 289 
Q 1369 366 1369 747 
L 1369 3034 
Q 1369 3497 1338 3628 
Q 1316 3728 1258 3775 
Q 1200 3822 1119 3822 
Q 1003 3822 797 3725 
L 750 3822 
z
" transform="scale(0.015625)"/>
     </defs>
     <use xlink:href="#TimesNewRomanPSMT-53"/>
     <use xlink:href="#TimesNewRomanPSMT-70" x="55.615234"/>
     <use xlink:href="#TimesNewRomanPSMT-65" x="105.615234"/>
     <use xlink:href="#TimesNewRomanPSMT-63" x="150"/>
     <use xlink:href="#TimesNewRomanPSMT-69" x="194.384766"/>
     <use xlink:href="#TimesNewRomanPSMT-6d" x="222.167969"/>
     <use xlink:href="#TimesNewRomanPSMT-65" x="299.951172"/>
     <use xlink:href="#TimesNewRomanPSMT-6e" x="344.335938"/>
     <use xlink:href="#TimesNewRomanPSMT-20" x="394.335938"/>
     <use xlink:href="#TimesNewRomanPSMT-3a" x="419.335938"/>
     <use xlink:href="#TimesNewRomanPSMT-20" x="447.119141"/>
     <use xlink:href="#TimesNewRomanPSMT-41" x="466.619141"/>
     <use xlink:href="#TimesNewRomanPSMT-6c" x="538.835938"/>
     <use xlink:href="#TimesNewRomanPSMT-61" x="566.619141"/>
     <use xlink:href="#TimesNewRomanPSMT-72" x="611.003906"/>
     <use xlink:href="#TimesNewRomanPSMT-63" x="644.304688"/>
     <use xlink:href="#TimesNewRomanPSMT-6f" x="688.689453"/>
     <use xlink:href="#TimesNewRomanPSMT-6e" x="738.689453"/>
     <use xlink:href="#TimesNewRomanPSMT-2d" x="788.689453"/>
     <use xlink:href="#TimesNewRomanPSMT-57" x="821.990234"/>
     <use xlink:href="#TimesNewRomanPSMT-31" x="916.375"/>
    </g>
   </g>
   <g id="legend_1">
    <g id="patch_7">
     <path d="M 55.263813 50.363428 
L 142.486722 50.363428 
Q 144.152722 50.363428 144.152722 48.697428 
L 144.152722 25.97475 
Q 144.152722 24.30875 142.486722 24.30875 
L 55.263813 24.30875 
Q 53.597813 24.30875 53.597813 25.97475 
L 53.597813 48.697428 
Q 53.597813 50.363428 55.263813 50.363428 
z
" style="fill: #ffffff; opacity: 0.8; stroke: #cccccc; stroke-linejoin: miter"/>
    </g>
    <g id="line2d_29">
     <path d="M 56.929813 30.55625 
L 65.259813 30.55625 
L 73.589813 30.55625 
" style="fill: none; stroke-dasharray: 3.7,1.6; stroke-dashoffset: 0; stroke: #000000"/>
    </g>
    <g id="text_16">
     <!-- Experimental Test -->
     <g transform="translate(80.253813 33.47175) scale(0.0833 -0.0833)">
      <defs>
       <path id="TimesNewRomanPSMT-45" d="M 1338 4006 
L 1338 2331 
L 2269 2331 
Q 2631 2331 2753 2441 
Q 2916 2584 2934 2947 
L 3050 2947 
L 3050 1472 
L 2934 1472 
Q 2891 1781 2847 1869 
Q 2791 1978 2662 2040 
Q 2534 2103 2269 2103 
L 1338 2103 
L 1338 706 
Q 1338 425 1363 364 
Q 1388 303 1450 267 
Q 1513 231 1688 231 
L 2406 231 
Q 2766 231 2928 281 
Q 3091 331 3241 478 
Q 3434 672 3638 1063 
L 3763 1063 
L 3397 0 
L 131 0 
L 131 116 
L 281 116 
Q 431 116 566 188 
Q 666 238 702 338 
Q 738 438 738 747 
L 738 3500 
Q 738 3903 656 3997 
Q 544 4122 281 4122 
L 131 4122 
L 131 4238 
L 3397 4238 
L 3444 3309 
L 3322 3309 
Q 3256 3644 3176 3769 
Q 3097 3894 2941 3959 
Q 2816 4006 2500 4006 
L 1338 4006 
z
" transform="scale(0.015625)"/>
       <path id="TimesNewRomanPSMT-78" d="M 84 2863 
L 1431 2863 
L 1431 2747 
Q 1303 2747 1251 2703 
Q 1200 2659 1200 2588 
Q 1200 2513 1309 2356 
Q 1344 2306 1413 2200 
L 1616 1875 
L 1850 2200 
Q 2075 2509 2075 2591 
Q 2075 2656 2022 2701 
Q 1969 2747 1850 2747 
L 1850 2863 
L 2819 2863 
L 2819 2747 
Q 2666 2738 2553 2663 
Q 2400 2556 2134 2200 
L 1744 1678 
L 2456 653 
Q 2719 275 2831 198 
Q 2944 122 3122 113 
L 3122 0 
L 1772 0 
L 1772 113 
Q 1913 113 1991 175 
Q 2050 219 2050 291 
Q 2050 363 1850 653 
L 1431 1266 
L 972 653 
Q 759 369 759 316 
Q 759 241 829 180 
Q 900 119 1041 113 
L 1041 0 
L 106 0 
L 106 113 
Q 219 128 303 191 
Q 422 281 703 653 
L 1303 1450 
L 759 2238 
Q 528 2575 401 2661 
Q 275 2747 84 2747 
L 84 2863 
z
" transform="scale(0.015625)"/>
       <path id="TimesNewRomanPSMT-54" d="M 3703 4238 
L 3750 3244 
L 3631 3244 
Q 3597 3506 3538 3619 
Q 3441 3800 3280 3886 
Q 3119 3972 2856 3972 
L 2259 3972 
L 2259 734 
Q 2259 344 2344 247 
Q 2463 116 2709 116 
L 2856 116 
L 2856 0 
L 1059 0 
L 1059 116 
L 1209 116 
Q 1478 116 1591 278 
Q 1659 378 1659 734 
L 1659 3972 
L 1150 3972 
Q 853 3972 728 3928 
Q 566 3869 450 3700 
Q 334 3531 313 3244 
L 194 3244 
L 244 4238 
L 3703 4238 
z
" transform="scale(0.015625)"/>
      </defs>
      <use xlink:href="#TimesNewRomanPSMT-45"/>
      <use xlink:href="#TimesNewRomanPSMT-78" x="61.083984"/>
      <use xlink:href="#TimesNewRomanPSMT-70" x="111.083984"/>
      <use xlink:href="#TimesNewRomanPSMT-65" x="161.083984"/>
      <use xlink:href="#TimesNewRomanPSMT-72" x="205.46875"/>
      <use xlink:href="#TimesNewRomanPSMT-69" x="238.769531"/>
      <use xlink:href="#TimesNewRomanPSMT-6d" x="266.552734"/>
      <use xlink:href="#TimesNewRomanPSMT-65" x="344.335938"/>
      <use xlink:href="#TimesNewRomanPSMT-6e" x="388.720703"/>
      <use xlink:href="#TimesNewRomanPSMT-74" x="438.720703"/>
      <use xlink:href="#TimesNewRomanPSMT-61" x="466.503906"/>
      <use xlink:href="#TimesNewRomanPSMT-6c" x="510.888672"/>
      <use xlink:href="#TimesNewRomanPSMT-20" x="538.671875"/>
      <use xlink:href="#TimesNewRomanPSMT-54" x="561.921875"/>
      <use xlink:href="#TimesNewRomanPSMT-65" x="616.005859"/>
      <use xlink:href="#TimesNewRomanPSMT-73" x="660.390625"/>
      <use xlink:href="#TimesNewRomanPSMT-74" x="699.306641"/>
     </g>
    </g>
    <g id="line2d_30">
     <path d="M 56.929813 42.334089 
L 65.259813 42.334089 
L 73.589813 42.334089 
" style="fill: none; stroke: #0000ff; stroke-width: 1.2; stroke-linecap: square"/>
    </g>
    <g id="text_17">
     <!-- Numerical Test -->
     <g transform="translate(80.253813 45.249589) scale(0.0833 -0.0833)">
      <defs>
       <path id="TimesNewRomanPSMT-75" d="M 2709 2863 
L 2709 1128 
Q 2709 631 2732 520 
Q 2756 409 2807 365 
Q 2859 322 2928 322 
Q 3025 322 3147 375 
L 3191 266 
L 2334 -88 
L 2194 -88 
L 2194 519 
Q 1825 119 1631 15 
Q 1438 -88 1222 -88 
Q 981 -88 804 51 
Q 628 191 559 409 
Q 491 628 491 1028 
L 491 2306 
Q 491 2509 447 2587 
Q 403 2666 317 2708 
Q 231 2750 6 2747 
L 6 2863 
L 1009 2863 
L 1009 947 
Q 1009 547 1148 422 
Q 1288 297 1484 297 
Q 1619 297 1789 381 
Q 1959 466 2194 703 
L 2194 2325 
Q 2194 2569 2105 2655 
Q 2016 2741 1734 2747 
L 1734 2863 
L 2709 2863 
z
" transform="scale(0.015625)"/>
      </defs>
      <use xlink:href="#TimesNewRomanPSMT-4e"/>
      <use xlink:href="#TimesNewRomanPSMT-75" x="72.216797"/>
      <use xlink:href="#TimesNewRomanPSMT-6d" x="122.216797"/>
      <use xlink:href="#TimesNewRomanPSMT-65" x="200"/>
      <use xlink:href="#TimesNewRomanPSMT-72" x="244.384766"/>
      <use xlink:href="#TimesNewRomanPSMT-69" x="277.685547"/>
      <use xlink:href="#TimesNewRomanPSMT-63" x="305.46875"/>
      <use xlink:href="#TimesNewRomanPSMT-61" x="349.853516"/>
      <use xlink:href="#TimesNewRomanPSMT-6c" x="394.238281"/>
      <use xlink:href="#TimesNewRomanPSMT-20" x="422.021484"/>
      <use xlink:href="#TimesNewRomanPSMT-54" x="445.271484"/>
      <use xlink:href="#TimesNewRomanPSMT-65" x="499.355469"/>
      <use xlink:href="#TimesNewRomanPSMT-73" x="543.740234"/>
      <use xlink:href="#TimesNewRomanPSMT-74" x="582.65625"/>
     </g>
    </g>
   </g>
  </g>
 </g>
 <defs>
  <clipPath id="p7765edecb4">
   <rect x="49.432813" y="20.14375" width="222.82" height="236.26"/>
  </clipPath>
 </defs>
</svg>
