<?xml version="1.0" encoding="utf-8" standalone="no"?>
<!DOCTYPE svg PUBLIC "-//W3C//DTD SVG 1.1//EN"
  "http://www.w3.org/Graphics/SVG/1.1/DTD/svg11.dtd">
<svg xmlns:xlink="http://www.w3.org/1999/xlink" width="320.882063pt" height="275.066563pt" viewBox="0 0 320.882063 275.066563" xmlns="http://www.w3.org/2000/svg" version="1.1">
 <metadata>
  <rdf:RDF xmlns:dc="http://purl.org/dc/elements/1.1/" xmlns:cc="http://creativecommons.org/ns#" xmlns:rdf="http://www.w3.org/1999/02/22-rdf-syntax-ns#">
   <cc:Work>
    <dc:type rdf:resource="http://purl.org/dc/dcmitype/StillImage"/>
    <dc:date>2024-02-27T18:52:12.413307</dc:date>
    <dc:format>image/svg+xml</dc:format>
    <dc:creator>
     <cc:Agent>
      <dc:title>Matplotlib v3.7.1, https://matplotlib.org/</dc:title>
     </cc:Agent>
    </dc:creator>
   </cc:Work>
  </rdf:RDF>
 </metadata>
 <defs>
  <style type="text/css">*{stroke-linejoin: round; stroke-linecap: butt}</style>
 </defs>
 <g id="figure_1">
  <g id="patch_1">
   <path d="M 0 275.066563 
L 320.882063 275.066563 
L 320.882063 0 
L 0 0 
z
" style="fill: #ffffff"/>
  </g>
  <g id="axes_1">
   <g id="patch_2">
    <path d="M 64.994062 233.25125 
L 313.682062 233.25125 
L 313.682062 22.92125 
L 64.994062 22.92125 
z
" style="fill: #ffffff"/>
   </g>
   <g id="matplotlib.axis_1">
    <g id="xtick_1">
     <g id="line2d_1">
      <path d="M 108.618301 233.25125 
L 108.618301 22.92125 
" clip-path="url(#p39b451fc9b)" style="fill: none; stroke-dasharray: 0.8,1.32; stroke-dashoffset: 0; stroke: #b0b0b0; stroke-width: 0.8"/>
     </g>
     <g id="line2d_2">
      <defs>
       <path id="m246f287f2e" d="M 0 0 
L 0 3.5 
" style="stroke: #000000; stroke-width: 0.8"/>
      </defs>
      <g>
       <use xlink:href="#m246f287f2e" x="108.618301" y="233.25125" style="stroke: #000000; stroke-width: 0.8"/>
      </g>
     </g>
     <g id="text_1">
      <!-- −100 -->
      <g transform="translate(94.170957 249.9725) scale(0.14 -0.14)">
       <defs>
        <path id="TimesNewRomanPSMT-2212" d="M 3484 2000 
L 116 2000 
L 116 2256 
L 3484 2256 
L 3484 2000 
z
" transform="scale(0.015625)"/>
        <path id="TimesNewRomanPSMT-31" d="M 750 3822 
L 1781 4325 
L 1884 4325 
L 1884 747 
Q 1884 391 1914 303 
Q 1944 216 2037 169 
Q 2131 122 2419 116 
L 2419 0 
L 825 0 
L 825 116 
Q 1125 122 1212 167 
Q 1300 213 1334 289 
Q 1369 366 1369 747 
L 1369 3034 
Q 1369 3497 1338 3628 
Q 1316 3728 1258 3775 
Q 1200 3822 1119 3822 
Q 1003 3822 797 3725 
L 750 3822 
z
" transform="scale(0.015625)"/>
        <path id="TimesNewRomanPSMT-30" d="M 231 2094 
Q 231 2819 450 3342 
Q 669 3866 1031 4122 
Q 1313 4325 1613 4325 
Q 2100 4325 2488 3828 
Q 2972 3213 2972 2159 
Q 2972 1422 2759 906 
Q 2547 391 2217 158 
Q 1888 -75 1581 -75 
Q 975 -75 572 641 
Q 231 1244 231 2094 
z
M 844 2016 
Q 844 1141 1059 588 
Q 1238 122 1591 122 
Q 1759 122 1940 273 
Q 2122 425 2216 781 
Q 2359 1319 2359 2297 
Q 2359 3022 2209 3506 
Q 2097 3866 1919 4016 
Q 1791 4119 1609 4119 
Q 1397 4119 1231 3928 
Q 1006 3669 925 3112 
Q 844 2556 844 2016 
z
" transform="scale(0.015625)"/>
       </defs>
       <use xlink:href="#TimesNewRomanPSMT-2212"/>
       <use xlink:href="#TimesNewRomanPSMT-31" x="56.396484"/>
       <use xlink:href="#TimesNewRomanPSMT-30" x="106.396484"/>
       <use xlink:href="#TimesNewRomanPSMT-30" x="156.396484"/>
      </g>
     </g>
    </g>
    <g id="xtick_2">
     <g id="line2d_3">
      <path d="M 189.06691 233.25125 
L 189.06691 22.92125 
" clip-path="url(#p39b451fc9b)" style="fill: none; stroke-dasharray: 0.8,1.32; stroke-dashoffset: 0; stroke: #b0b0b0; stroke-width: 0.8"/>
     </g>
     <g id="line2d_4">
      <g>
       <use xlink:href="#m246f287f2e" x="189.06691" y="233.25125" style="stroke: #000000; stroke-width: 0.8"/>
      </g>
     </g>
     <g id="text_2">
      <!-- 0 -->
      <g transform="translate(185.56691 249.9725) scale(0.14 -0.14)">
       <use xlink:href="#TimesNewRomanPSMT-30"/>
      </g>
     </g>
    </g>
    <g id="xtick_3">
     <g id="line2d_5">
      <path d="M 269.515518 233.25125 
L 269.515518 22.92125 
" clip-path="url(#p39b451fc9b)" style="fill: none; stroke-dasharray: 0.8,1.32; stroke-dashoffset: 0; stroke: #b0b0b0; stroke-width: 0.8"/>
     </g>
     <g id="line2d_6">
      <g>
       <use xlink:href="#m246f287f2e" x="269.515518" y="233.25125" style="stroke: #000000; stroke-width: 0.8"/>
      </g>
     </g>
     <g id="text_3">
      <!-- 100 -->
      <g transform="translate(259.015518 249.9725) scale(0.14 -0.14)">
       <use xlink:href="#TimesNewRomanPSMT-31"/>
       <use xlink:href="#TimesNewRomanPSMT-30" x="50"/>
       <use xlink:href="#TimesNewRomanPSMT-30" x="100"/>
      </g>
     </g>
    </g>
    <g id="text_4">
     <!-- Displacement (mm) -->
     <g transform="translate(142.183687 265.299688) scale(0.12 -0.12)">
      <defs>
       <path id="TimesNewRomanPS-ItalicMT-44" d="M 938 4122 
L 975 4238 
L 2328 4238 
Q 3188 4238 3602 4041 
Q 4016 3844 4262 3420 
Q 4509 2997 4509 2513 
Q 4509 2097 4367 1705 
Q 4225 1313 4045 1077 
Q 3866 841 3494 556 
Q 3122 272 2687 136 
Q 2253 0 1603 0 
L -191 0 
L -150 116 
Q 97 122 181 159 
Q 306 213 366 303 
Q 456 434 569 831 
L 1319 3394 
Q 1406 3697 1406 3869 
Q 1406 3991 1325 4056 
Q 1244 4122 1006 4122 
L 938 4122 
z
M 2047 4003 
L 1128 831 
Q 1025 475 1025 391 
Q 1025 341 1058 294 
Q 1091 247 1147 231 
Q 1228 203 1409 203 
Q 1900 203 2320 304 
Q 2741 406 3009 606 
Q 3391 897 3619 1406 
Q 3847 1916 3847 2566 
Q 3847 3300 3497 3658 
Q 3147 4016 2475 4016 
Q 2309 4016 2047 4003 
z
" transform="scale(0.015625)"/>
       <path id="TimesNewRomanPS-ItalicMT-69" d="M 1431 4069 
Q 1563 4069 1653 3978 
Q 1744 3888 1744 3756 
Q 1744 3628 1651 3536 
Q 1559 3444 1431 3444 
Q 1303 3444 1211 3536 
Q 1119 3628 1119 3756 
Q 1119 3888 1209 3978 
Q 1300 4069 1431 4069 
z
M 1472 2828 
L 853 638 
Q 791 416 791 372 
Q 791 322 820 290 
Q 850 259 891 259 
Q 938 259 1003 309 
Q 1181 450 1363 709 
L 1472 638 
Q 1259 313 972 91 
Q 759 -75 566 -75 
Q 438 -75 356 1 
Q 275 78 275 194 
Q 275 309 353 578 
L 759 1978 
Q 859 2322 859 2409 
Q 859 2478 811 2522 
Q 763 2566 678 2566 
Q 609 2566 394 2531 
L 394 2653 
L 1472 2828 
z
" transform="scale(0.015625)"/>
       <path id="TimesNewRomanPS-ItalicMT-73" d="M 2322 2828 
L 2131 1869 
L 2016 1869 
Q 2000 2288 1837 2478 
Q 1675 2669 1434 2669 
Q 1241 2669 1127 2562 
Q 1013 2456 1013 2306 
Q 1013 2203 1058 2109 
Q 1103 2016 1256 1847 
Q 1663 1403 1781 1178 
Q 1900 953 1900 753 
Q 1900 428 1629 176 
Q 1359 -75 947 -75 
Q 722 -75 428 31 
Q 325 69 269 69 
Q 128 69 56 -75 
L -59 -75 
L 131 938 
L 247 938 
Q 266 463 444 266 
Q 622 69 931 69 
Q 1169 69 1308 201 
Q 1447 334 1447 528 
Q 1447 653 1397 759 
Q 1309 947 1029 1278 
Q 750 1609 670 1775 
Q 591 1941 591 2106 
Q 591 2409 811 2618 
Q 1031 2828 1378 2828 
Q 1478 2828 1559 2813 
Q 1603 2803 1764 2742 
Q 1925 2681 1978 2681 
Q 2113 2681 2203 2828 
L 2322 2828 
z
" transform="scale(0.015625)"/>
       <path id="TimesNewRomanPS-ItalicMT-70" d="M 1416 2828 
L 1200 2109 
Q 1541 2509 1808 2668 
Q 2075 2828 2353 2828 
Q 2631 2828 2828 2608 
Q 3025 2388 3025 2034 
Q 3025 1347 2465 636 
Q 1906 -75 1163 -75 
Q 1006 -75 886 -40 
Q 766 -6 616 81 
L 388 -725 
Q 319 -963 319 -1034 
Q 319 -1103 355 -1151 
Q 391 -1200 472 -1226 
Q 553 -1253 794 -1253 
L 766 -1369 
L -706 -1369 
L -675 -1253 
Q -384 -1241 -282 -1153 
Q -181 -1066 -69 -669 
L 722 2069 
Q 794 2328 794 2391 
Q 794 2475 745 2522 
Q 697 2569 597 2569 
Q 506 2569 344 2547 
L 344 2669 
L 1416 2828 
z
M 688 328 
Q 881 97 1209 97 
Q 1372 97 1540 187 
Q 1709 278 1870 456 
Q 2031 634 2159 867 
Q 2288 1100 2389 1415 
Q 2491 1731 2491 2041 
Q 2491 2291 2377 2423 
Q 2263 2556 2109 2556 
Q 1772 2556 1442 2168 
Q 1113 1781 959 1263 
L 688 328 
z
" transform="scale(0.015625)"/>
       <path id="TimesNewRomanPS-ItalicMT-6c" d="M 1903 4444 
L 834 725 
Q 756 447 756 384 
Q 756 338 786 306 
Q 816 275 859 275 
Q 919 275 988 328 
Q 1150 456 1328 725 
L 1422 628 
Q 1125 209 875 44 
Q 691 -75 525 -75 
Q 406 -75 326 6 
Q 247 88 247 194 
Q 247 306 347 656 
L 1194 3588 
Q 1297 3947 1297 4000 
Q 1297 4075 1237 4123 
Q 1178 4172 1053 4172 
Q 981 4172 834 4150 
L 834 4266 
L 1903 4444 
z
" transform="scale(0.015625)"/>
       <path id="TimesNewRomanPS-ItalicMT-61" d="M 3003 2828 
L 2394 709 
L 2325 425 
Q 2316 384 2316 356 
Q 2316 306 2347 269 
Q 2372 241 2409 241 
Q 2450 241 2516 291 
Q 2638 381 2841 666 
L 2947 591 
Q 2731 266 2503 95 
Q 2275 -75 2081 -75 
Q 1947 -75 1880 -8 
Q 1813 59 1813 188 
Q 1813 341 1881 591 
L 1947 825 
Q 1538 291 1194 78 
Q 947 -75 709 -75 
Q 481 -75 315 114 
Q 150 303 150 634 
Q 150 1131 448 1682 
Q 747 2234 1206 2566 
Q 1566 2828 1884 2828 
Q 2075 2828 2201 2728 
Q 2328 2628 2394 2397 
L 2506 2753 
L 3003 2828 
z
M 1891 2666 
Q 1691 2666 1466 2478 
Q 1147 2213 898 1691 
Q 650 1169 650 747 
Q 650 534 756 411 
Q 863 288 1000 288 
Q 1341 288 1741 791 
Q 2275 1459 2275 2163 
Q 2275 2428 2172 2547 
Q 2069 2666 1891 2666 
z
" transform="scale(0.015625)"/>
       <path id="TimesNewRomanPS-ItalicMT-63" d="M 2472 681 
Q 2147 291 1815 108 
Q 1484 -75 1116 -75 
Q 672 -75 423 175 
Q 175 425 175 847 
Q 175 1325 442 1787 
Q 709 2250 1161 2539 
Q 1613 2828 2047 2828 
Q 2388 2828 2556 2686 
Q 2725 2544 2725 2338 
Q 2725 2144 2606 2006 
Q 2519 1900 2391 1900 
Q 2294 1900 2230 1962 
Q 2166 2025 2166 2119 
Q 2166 2178 2189 2228 
Q 2213 2278 2286 2348 
Q 2359 2419 2375 2450 
Q 2391 2481 2391 2516 
Q 2391 2581 2331 2625 
Q 2241 2688 2075 2688 
Q 1769 2688 1469 2472 
Q 1169 2256 956 1859 
Q 700 1378 700 897 
Q 700 578 881 392 
Q 1063 206 1375 206 
Q 1616 206 1852 326 
Q 2088 447 2381 763 
L 2472 681 
z
" transform="scale(0.015625)"/>
       <path id="TimesNewRomanPS-ItalicMT-65" d="M 763 1178 
Q 741 1022 741 919 
Q 741 641 937 445 
Q 1134 250 1416 250 
Q 1641 250 1848 342 
Q 2056 434 2466 750 
L 2531 659 
Q 1791 -75 1119 -75 
Q 663 -75 431 212 
Q 200 500 200 847 
Q 200 1313 487 1800 
Q 775 2288 1209 2558 
Q 1644 2828 2103 2828 
Q 2434 2828 2593 2693 
Q 2753 2559 2753 2375 
Q 2753 2116 2547 1878 
Q 2275 1569 1747 1378 
Q 1397 1250 763 1178 
z
M 784 1331 
Q 1247 1384 1538 1513 
Q 1922 1684 2114 1923 
Q 2306 2163 2306 2378 
Q 2306 2509 2223 2590 
Q 2141 2672 1988 2672 
Q 1669 2672 1311 2333 
Q 953 1994 784 1331 
z
" transform="scale(0.015625)"/>
       <path id="TimesNewRomanPS-ItalicMT-6d" d="M 1388 2828 
L 981 1419 
Q 1253 1916 1444 2166 
Q 1741 2553 2022 2728 
Q 2188 2828 2369 2828 
Q 2525 2828 2628 2728 
Q 2731 2628 2731 2472 
Q 2731 2319 2659 2072 
L 2438 1278 
Q 2947 2231 3403 2616 
Q 3656 2828 3903 2828 
Q 4047 2828 4139 2729 
Q 4231 2631 4231 2425 
Q 4231 2244 4175 2041 
L 3831 825 
Q 3719 428 3719 384 
Q 3719 341 3747 309 
Q 3766 288 3797 288 
Q 3828 288 3906 347 
Q 4084 484 4241 709 
L 4344 644 
Q 4266 519 4067 300 
Q 3869 81 3728 3 
Q 3588 -75 3469 -75 
Q 3359 -75 3286 0 
Q 3213 75 3213 184 
Q 3213 334 3341 788 
L 3625 1791 
Q 3722 2138 3728 2175 
Q 3738 2234 3738 2291 
Q 3738 2369 3703 2413 
Q 3666 2456 3619 2456 
Q 3488 2456 3341 2322 
Q 2909 1925 2534 1209 
Q 2288 738 2072 0 
L 1600 0 
L 2134 1891 
Q 2222 2197 2222 2300 
Q 2222 2384 2187 2425 
Q 2153 2466 2103 2466 
Q 2000 2466 1884 2391 
Q 1697 2269 1401 1869 
Q 1106 1469 944 1103 
Q 866 931 572 0 
L 109 0 
L 688 2025 
L 763 2288 
Q 784 2347 784 2375 
Q 784 2444 721 2498 
Q 659 2553 563 2553 
Q 522 2553 338 2516 
L 309 2631 
L 1388 2828 
z
" transform="scale(0.015625)"/>
       <path id="TimesNewRomanPS-ItalicMT-6e" d="M 1413 2828 
L 997 1406 
Q 1581 2278 1892 2553 
Q 2203 2828 2491 2828 
Q 2647 2828 2748 2725 
Q 2850 2622 2850 2456 
Q 2850 2269 2759 1956 
L 2378 641 
Q 2313 413 2313 363 
Q 2313 319 2338 289 
Q 2363 259 2391 259 
Q 2428 259 2481 300 
Q 2647 431 2844 700 
L 2941 641 
Q 2650 225 2391 47 
Q 2209 -75 2066 -75 
Q 1950 -75 1881 -4 
Q 1813 66 1813 184 
Q 1813 334 1919 700 
L 2281 1956 
Q 2350 2191 2350 2322 
Q 2350 2384 2309 2423 
Q 2269 2463 2209 2463 
Q 2122 2463 2000 2388 
Q 1769 2247 1519 1923 
Q 1269 1600 991 1097 
Q 844 831 747 516 
L 591 0 
L 122 0 
L 691 1956 
Q 791 2309 791 2381 
Q 791 2450 736 2501 
Q 681 2553 600 2553 
Q 563 2553 469 2541 
L 350 2522 
L 331 2634 
L 1413 2828 
z
" transform="scale(0.015625)"/>
       <path id="TimesNewRomanPS-ItalicMT-74" d="M 1663 3603 
L 1419 2753 
L 1909 2753 
L 1856 2556 
L 1369 2556 
L 831 713 
Q 744 416 744 328 
Q 744 275 769 247 
Q 794 219 828 219 
Q 906 219 1034 328 
Q 1109 391 1369 713 
L 1472 634 
Q 1184 216 928 44 
Q 753 -75 575 -75 
Q 438 -75 350 11 
Q 263 97 263 231 
Q 263 400 363 747 
L 884 2556 
L 413 2556 
L 444 2678 
Q 788 2772 1016 2958 
Q 1244 3144 1525 3603 
L 1663 3603 
z
" transform="scale(0.015625)"/>
       <path id="TimesNewRomanPS-ItalicMT-20" transform="scale(0.015625)"/>
       <path id="TimesNewRomanPS-ItalicMT-28" d="M 1203 -1319 
L 1097 -1369 
Q 725 -659 563 -116 
Q 438 309 438 741 
Q 438 1747 903 2544 
Q 1475 3519 2756 4444 
L 2831 4334 
Q 2253 3906 1888 3375 
Q 1431 2713 1140 1775 
Q 850 838 850 69 
Q 850 -519 1203 -1319 
z
" transform="scale(0.015625)"/>
       <path id="TimesNewRomanPS-ItalicMT-29" d="M 931 4384 
L 1038 4444 
Q 1409 3738 1569 3194 
Q 1697 2769 1697 2338 
Q 1697 1328 1231 534 
Q 656 -444 -622 -1369 
L -697 -1272 
Q -119 -841 247 -313 
Q 703 350 993 1289 
Q 1284 2228 1284 2997 
Q 1284 3584 931 4384 
z
" transform="scale(0.015625)"/>
      </defs>
      <use xlink:href="#TimesNewRomanPS-ItalicMT-44"/>
      <use xlink:href="#TimesNewRomanPS-ItalicMT-69" x="72.216797"/>
      <use xlink:href="#TimesNewRomanPS-ItalicMT-73" x="100"/>
      <use xlink:href="#TimesNewRomanPS-ItalicMT-70" x="138.916016"/>
      <use xlink:href="#TimesNewRomanPS-ItalicMT-6c" x="188.916016"/>
      <use xlink:href="#TimesNewRomanPS-ItalicMT-61" x="216.699219"/>
      <use xlink:href="#TimesNewRomanPS-ItalicMT-63" x="266.699219"/>
      <use xlink:href="#TimesNewRomanPS-ItalicMT-65" x="311.083984"/>
      <use xlink:href="#TimesNewRomanPS-ItalicMT-6d" x="355.46875"/>
      <use xlink:href="#TimesNewRomanPS-ItalicMT-65" x="427.685547"/>
      <use xlink:href="#TimesNewRomanPS-ItalicMT-6e" x="472.070312"/>
      <use xlink:href="#TimesNewRomanPS-ItalicMT-74" x="522.070312"/>
      <use xlink:href="#TimesNewRomanPS-ItalicMT-20" x="549.853516"/>
      <use xlink:href="#TimesNewRomanPS-ItalicMT-28" x="574.853516"/>
      <use xlink:href="#TimesNewRomanPS-ItalicMT-6d" x="608.154297"/>
      <use xlink:href="#TimesNewRomanPS-ItalicMT-6d" x="680.371094"/>
      <use xlink:href="#TimesNewRomanPS-ItalicMT-29" x="752.587891"/>
     </g>
    </g>
   </g>
   <g id="matplotlib.axis_2">
    <g id="ytick_1">
     <g id="line2d_7">
      <path d="M 64.994062 182.359572 
L 313.682062 182.359572 
" clip-path="url(#p39b451fc9b)" style="fill: none; stroke-dasharray: 0.8,1.32; stroke-dashoffset: 0; stroke: #b0b0b0; stroke-width: 0.8"/>
     </g>
     <g id="line2d_8">
      <defs>
       <path id="mdff92ddbae" d="M 0 0 
L -3.5 0 
" style="stroke: #000000; stroke-width: 0.8"/>
      </defs>
      <g>
       <use xlink:href="#mdff92ddbae" x="64.994062" y="182.359572" style="stroke: #000000; stroke-width: 0.8"/>
      </g>
     </g>
     <g id="text_5">
      <!-- −1000 -->
      <g transform="translate(22.099375 187.220197) scale(0.14 -0.14)">
       <use xlink:href="#TimesNewRomanPSMT-2212"/>
       <use xlink:href="#TimesNewRomanPSMT-31" x="56.396484"/>
       <use xlink:href="#TimesNewRomanPSMT-30" x="106.396484"/>
       <use xlink:href="#TimesNewRomanPSMT-30" x="156.396484"/>
       <use xlink:href="#TimesNewRomanPSMT-30" x="206.396484"/>
      </g>
     </g>
    </g>
    <g id="ytick_2">
     <g id="line2d_9">
      <path d="M 64.994062 123.431747 
L 313.682062 123.431747 
" clip-path="url(#p39b451fc9b)" style="fill: none; stroke-dasharray: 0.8,1.32; stroke-dashoffset: 0; stroke: #b0b0b0; stroke-width: 0.8"/>
     </g>
     <g id="line2d_10">
      <g>
       <use xlink:href="#mdff92ddbae" x="64.994062" y="123.431747" style="stroke: #000000; stroke-width: 0.8"/>
      </g>
     </g>
     <g id="text_6">
      <!-- 0 -->
      <g transform="translate(50.994062 128.292372) scale(0.14 -0.14)">
       <use xlink:href="#TimesNewRomanPSMT-30"/>
      </g>
     </g>
    </g>
    <g id="ytick_3">
     <g id="line2d_11">
      <path d="M 64.994062 64.503921 
L 313.682062 64.503921 
" clip-path="url(#p39b451fc9b)" style="fill: none; stroke-dasharray: 0.8,1.32; stroke-dashoffset: 0; stroke: #b0b0b0; stroke-width: 0.8"/>
     </g>
     <g id="line2d_12">
      <g>
       <use xlink:href="#mdff92ddbae" x="64.994062" y="64.503921" style="stroke: #000000; stroke-width: 0.8"/>
      </g>
     </g>
     <g id="text_7">
      <!-- 1000 -->
      <g transform="translate(29.994062 69.364546) scale(0.14 -0.14)">
       <use xlink:href="#TimesNewRomanPSMT-31"/>
       <use xlink:href="#TimesNewRomanPSMT-30" x="50"/>
       <use xlink:href="#TimesNewRomanPSMT-30" x="100"/>
       <use xlink:href="#TimesNewRomanPSMT-30" x="150"/>
      </g>
     </g>
    </g>
    <g id="text_8">
     <!-- Base Shear (kN) -->
     <g transform="translate(15.5325 167.409688) rotate(-90) scale(0.12 -0.12)">
      <defs>
       <path id="TimesNewRomanPS-ItalicMT-42" d="M 947 4122 
L 991 4238 
L 2503 4238 
Q 2884 4238 3182 4119 
Q 3481 4000 3629 3787 
Q 3778 3575 3778 3338 
Q 3778 2972 3514 2676 
Q 3250 2381 2653 2241 
Q 3038 2097 3219 1859 
Q 3400 1622 3400 1338 
Q 3400 1022 3237 734 
Q 3075 447 2820 287 
Q 2566 128 2206 53 
Q 1950 0 1406 0 
L -147 0 
L -106 116 
Q 138 122 225 163 
Q 350 216 403 303 
Q 478 422 603 847 
L 1363 3413 
Q 1459 3738 1459 3869 
Q 1459 3984 1373 4051 
Q 1288 4119 1047 4119 
Q 994 4119 947 4122 
z
M 1581 2363 
Q 1784 2356 1875 2356 
Q 2525 2356 2842 2639 
Q 3159 2922 3159 3347 
Q 3159 3669 2965 3848 
Q 2772 4028 2347 4028 
Q 2234 4028 2059 3991 
L 1581 2363 
z
M 966 275 
Q 1303 231 1494 231 
Q 1981 231 2357 525 
Q 2734 819 2734 1322 
Q 2734 1706 2501 1922 
Q 2269 2138 1750 2138 
Q 1650 2138 1506 2128 
L 966 275 
z
" transform="scale(0.015625)"/>
       <path id="TimesNewRomanPS-ItalicMT-53" d="M 44 -97 
L 394 1475 
L 500 1475 
Q 478 1247 478 1097 
Q 478 669 751 400 
Q 1025 131 1466 131 
Q 1875 131 2087 382 
Q 2300 634 2300 963 
Q 2300 1175 2203 1350 
Q 2056 1609 1419 2263 
Q 1109 2575 1022 2728 
Q 878 2981 878 3259 
Q 878 3703 1209 4018 
Q 1541 4334 2059 4334 
Q 2234 4334 2391 4300 
Q 2488 4281 2744 4175 
Q 2925 4103 2944 4097 
Q 2988 4088 3041 4088 
Q 3131 4088 3197 4134 
Q 3263 4181 3350 4334 
L 3469 4334 
L 3144 2928 
L 3038 2928 
Q 3050 3116 3050 3231 
Q 3050 3609 2800 3850 
Q 2550 4091 2141 4091 
Q 1816 4091 1612 3900 
Q 1409 3709 1409 3459 
Q 1409 3241 1539 3042 
Q 1669 2844 2136 2395 
Q 2603 1947 2740 1695 
Q 2878 1444 2878 1159 
Q 2878 838 2708 536 
Q 2538 234 2219 68 
Q 1900 -97 1522 -97 
Q 1334 -97 1171 -62 
Q 1009 -28 653 106 
Q 531 153 450 153 
Q 266 153 163 -97 
L 44 -97 
z
" transform="scale(0.015625)"/>
       <path id="TimesNewRomanPS-ItalicMT-68" d="M 1878 4444 
L 1000 1409 
Q 1569 2266 1887 2547 
Q 2206 2828 2497 2828 
Q 2647 2828 2747 2725 
Q 2847 2622 2847 2450 
Q 2847 2244 2759 1950 
L 2378 641 
Q 2306 403 2306 378 
Q 2306 334 2332 306 
Q 2359 278 2394 278 
Q 2434 278 2488 319 
Q 2666 456 2841 700 
L 2938 641 
Q 2831 475 2642 276 
Q 2453 78 2317 1 
Q 2181 -75 2075 -75 
Q 1959 -75 1886 -1 
Q 1813 72 1813 188 
Q 1813 325 1922 700 
L 2281 1950 
Q 2350 2184 2350 2319 
Q 2350 2381 2311 2418 
Q 2272 2456 2209 2456 
Q 2119 2456 2003 2388 
Q 1791 2256 1513 1900 
Q 1438 1803 1013 1119 
Q 881 900 797 641 
L 597 0 
L 128 0 
L 1156 3575 
L 1266 3963 
Q 1266 4044 1198 4106 
Q 1131 4169 1034 4169 
Q 978 4169 863 4150 
L 797 4141 
L 797 4263 
L 1878 4444 
z
" transform="scale(0.015625)"/>
       <path id="TimesNewRomanPS-ItalicMT-72" d="M 334 2653 
L 1413 2828 
L 963 1309 
Q 1509 2244 1956 2616 
Q 2209 2828 2369 2828 
Q 2472 2828 2531 2767 
Q 2591 2706 2591 2591 
Q 2591 2384 2484 2197 
Q 2409 2056 2269 2056 
Q 2197 2056 2145 2103 
Q 2094 2150 2081 2247 
Q 2075 2306 2053 2325 
Q 2028 2350 1994 2350 
Q 1941 2350 1894 2325 
Q 1813 2281 1647 2081 
Q 1388 1775 1084 1288 
Q 953 1081 859 822 
Q 728 466 709 394 
L 609 0 
L 131 0 
L 709 1941 
Q 809 2278 809 2422 
Q 809 2478 763 2516 
Q 700 2566 597 2566 
Q 531 2566 356 2538 
L 334 2653 
z
" transform="scale(0.015625)"/>
       <path id="TimesNewRomanPS-ItalicMT-6b" d="M 1831 4444 
L 944 1372 
L 1300 1675 
Q 1884 2169 2059 2406 
Q 2116 2484 2116 2525 
Q 2116 2553 2097 2578 
Q 2078 2603 2023 2618 
Q 1969 2634 1831 2634 
L 1722 2634 
L 1756 2753 
L 3122 2753 
L 3091 2634 
Q 2856 2622 2686 2561 
Q 2516 2500 2356 2381 
Q 2041 2147 1941 2056 
L 1672 1819 
Q 1741 1594 1841 1191 
Q 2009 522 2069 397 
Q 2128 272 2191 272 
Q 2244 272 2316 325 
Q 2478 444 2663 703 
L 2772 625 
Q 2431 197 2250 61 
Q 2069 -75 1919 -75 
Q 1788 -75 1716 28 
Q 1591 213 1300 1481 
L 872 1109 
L 550 0 
L 63 0 
L 1100 3566 
L 1188 3869 
Q 1203 3947 1203 4006 
Q 1203 4081 1145 4131 
Q 1088 4181 978 4181 
Q 906 4181 750 4150 
L 750 4259 
L 1831 4444 
z
" transform="scale(0.015625)"/>
       <path id="TimesNewRomanPS-ItalicMT-4e" d="M 1834 4238 
L 3144 916 
L 3853 3397 
Q 3941 3703 3941 3872 
Q 3941 3988 3859 4053 
Q 3778 4119 3556 4119 
Q 3519 4119 3478 4122 
L 3513 4238 
L 4875 4238 
L 4838 4122 
Q 4625 4125 4522 4078 
Q 4375 4013 4303 3909 
Q 4203 3763 4100 3397 
L 3103 -97 
L 2991 -97 
L 1581 3478 
L 828 838 
Q 744 538 744 378 
Q 744 259 820 198 
Q 897 138 1184 116 
L 1153 0 
L -178 0 
L -134 116 
Q 116 122 200 159 
Q 328 216 391 306 
Q 481 444 594 838 
L 1434 3784 
Q 1313 3972 1173 4042 
Q 1034 4113 741 4122 
L 775 4238 
L 1834 4238 
z
" transform="scale(0.015625)"/>
      </defs>
      <use xlink:href="#TimesNewRomanPS-ItalicMT-42"/>
      <use xlink:href="#TimesNewRomanPS-ItalicMT-61" x="61.083984"/>
      <use xlink:href="#TimesNewRomanPS-ItalicMT-73" x="111.083984"/>
      <use xlink:href="#TimesNewRomanPS-ItalicMT-65" x="150"/>
      <use xlink:href="#TimesNewRomanPS-ItalicMT-20" x="194.384766"/>
      <use xlink:href="#TimesNewRomanPS-ItalicMT-53" x="219.384766"/>
      <use xlink:href="#TimesNewRomanPS-ItalicMT-68" x="269.384766"/>
      <use xlink:href="#TimesNewRomanPS-ItalicMT-65" x="319.384766"/>
      <use xlink:href="#TimesNewRomanPS-ItalicMT-61" x="363.769531"/>
      <use xlink:href="#TimesNewRomanPS-ItalicMT-72" x="413.769531"/>
      <use xlink:href="#TimesNewRomanPS-ItalicMT-20" x="452.685547"/>
      <use xlink:href="#TimesNewRomanPS-ItalicMT-28" x="477.685547"/>
      <use xlink:href="#TimesNewRomanPS-ItalicMT-6b" x="510.986328"/>
      <use xlink:href="#TimesNewRomanPS-ItalicMT-4e" x="555.371094"/>
      <use xlink:href="#TimesNewRomanPS-ItalicMT-29" x="622.070312"/>
     </g>
    </g>
   </g>
   <g id="line2d_13">
    <path d="M 189.06691 125.341529 
L 191.425669 79.602443 
L 193.693428 69.240468 
L 195.782699 64.048957 
L 197.612878 56.685748 
L 199.113357 54.532343 
L 200.22625 52.391016 
L 201.134144 51.547216 
L 200.894119 52.212786 
L 200.197806 54.650803 
L 199.072069 60.580322 
L 197.560338 69.828854 
L 195.720934 79.645372 
L 191.352867 99.160449 
L 188.992721 113.837823 
L 186.635438 144.556081 
L 184.371959 170.358351 
L 182.289609 178.111975 
L 180.468724 185.574218 
L 177.879547 193.839852 
L 177.000131 196.271776 
L 177.254648 195.69049 
L 182.474901 168.394152 
L 184.577777 155.738193 
L 186.85384 136.537959 
L 189.215284 109.165259 
L 191.571002 93.153084 
L 193.830115 83.92838 
L 195.905465 76.374263 
L 199.194793 67.538164 
L 201.132776 62.584753 
L 200.139658 68.634882 
L 193.487094 105.681947 
L 191.207007 123.300325 
L 188.844356 147.842426 
L 186.49029 163.043366 
L 184.23563 172.965914 
L 182.167358 179.98968 
L 180.365267 184.82924 
L 177.002412 192.344221 
L 178.023863 187.156105 
L 182.599679 163.720684 
L 184.715841 152.048666 
L 186.999865 135.400548 
L 189.466273 110.900396 
L 192.632264 92.547365 
L 195.660705 81.692294 
L 198.434761 73.167495 
L 200.84741 67.569542 
L 202.805573 63.714121 
L 205.302064 59.50058 
L 204.901074 61.438919 
L 202.305509 75.703042 
L 200.211069 86.246059 
L 194.829769 111.0422 
L 191.750518 128.382987 
L 188.567734 151.168471 
L 185.404208 166.216783 
L 182.381988 176.949801 
L 179.617668 184.294314 
L 177.217896 189.160773 
L 172.834824 196.366742 
L 177.995597 171.267467 
L 183.397512 146.887395 
L 186.48183 130.784998 
L 189.665879 110.304306 
L 192.82682 96.438195 
L 195.842705 86.110277 
L 198.597184 77.661525 
L 200.983989 72.193294 
L 205.109101 63.760346 
L 205.295313 63.46503 
L 200.064957 90.996568 
L 194.642631 115.610199 
L 188.36817 149.302202 
L 185.209933 162.844381 
L 182.200496 172.733731 
L 179.455963 180.164259 
L 177.082215 185.458261 
L 173.79555 191.567513 
L 172.842802 193.409554 
L 174.369579 185.704359 
L 178.142543 167.577065 
L 183.585075 143.319354 
L 186.679176 128.219677 
L 190.14159 109.819387 
L 194.388461 93.25592 
L 198.430029 80.861428 
L 202.110373 71.64824 
L 205.287506 65.601926 
L 207.838856 61.516154 
L 210.69843 57.856471 
L 210.896332 57.824216 
L 208.790486 69.757726 
L 206.567981 81.209859 
L 203.670293 94.24327 
L 200.209214 107.678908 
L 196.31827 121.764013 
L 192.147572 136.028436 
L 187.858023 152.177833 
L 183.615113 167.152046 
L 179.582531 178.031967 
L 175.915851 186.053452 
L 172.756533 191.420236 
L 170.226461 194.818858 
L 168.423244 196.934419 
L 167.244919 198.65262 
L 171.64669 177.966752 
L 174.563801 165.326517 
L 178.040435 151.593906 
L 181.942465 137.653345 
L 186.119353 124.648557 
L 190.409955 110.560171 
L 194.648744 95.787051 
L 198.672189 84.14473 
L 202.325066 74.977036 
L 205.46645 68.823657 
L 207.975148 64.728123 
L 210.735491 60.634293 
L 210.880643 60.731756 
L 208.673124 73.237935 
L 206.405619 84.634122 
L 203.469195 97.458951 
L 199.977138 110.886358 
L 196.064169 124.946367 
L 191.88125 137.071907 
L 183.355247 164.955507 
L 179.341093 175.556092 
L 175.702156 183.466073 
L 172.578825 189.057786 
L 170.091596 192.734819 
L 167.262258 196.578521 
L 171.810365 175.289611 
L 174.765992 162.695245 
L 178.27334 149.050745 
L 182.197099 135.545664 
L 186.385892 123.806169 
L 191.235435 108.759328 
L 196.928681 90.683974 
L 202.318625 77.026044 
L 207.197323 67.267328 
L 211.376559 61.019302 
L 214.6951 57.100559 
L 217.024917 54.948456 
L 218.276129 53.978995 
L 218.400463 54.26201 
L 215.292971 71.380457 
L 212.181031 86.208804 
L 208.17736 101.633945 
L 203.436417 116.961861 
L 198.141105 130.510101 
L 192.495715 140.477052 
L 186.718044 154.41722 
L 181.03099 170.241358 
L 175.653959 182.0215 
L 170.794392 190.363499 
L 166.639771 195.733556 
L 163.350377 198.875887 
L 161.053114 200.84571 
L 159.747797 202.307397 
L 162.92331 187.971441 
L 166.065126 174.712184 
L 170.09434 159.30642 
L 174.855506 143.631431 
L 180.164941 130.248547 
L 185.81781 120.661449 
L 191.596027 108.638956 
L 197.276672 92.576329 
L 202.640589 79.351499 
L 207.48084 69.664328 
L 211.61069 63.360252 
L 214.870813 59.467253 
L 218.317184 55.962558 
L 218.370473 56.466531 
L 215.12706 74.209741 
L 211.955486 88.901821 
L 207.900882 104.265687 
L 203.119673 119.582984 
L 197.796315 131.589549 
L 192.136181 140.602162 
L 186.357636 153.486923 
L 180.683613 168.723586 
L 175.333014 180.316704 
L 170.512262 188.593621 
L 166.407339 194.058594 
L 163.176611 197.467043 
L 160.944718 199.626986 
L 159.797766 201.026652 
L 159.780002 200.634241 
L 160.892113 195.451908 
L 163.091194 185.742211 
L 166.292406 172.509328 
L 170.372246 157.290048 
L 175.173318 141.887513 
L 180.510397 129.436208 
L 186.177582 120.399795 
L 192.955655 105.564279 
L 200.583121 85.663718 
L 207.766298 70.834814 
L 214.228061 61.091301 
L 219.719119 55.115564 
L 224.02763 51.620573 
L 226.987373 49.802536 
L 228.484164 49.149431 
L 228.460256 49.966717 
L 226.916572 58.733411 
L 223.912667 74.162243 
L 219.56443 92.332191 
L 214.039613 110.036728 
L 207.551362 126.060103 
L 200.349989 136.415087 
L 192.713321 144.270567 
L 184.935976 157.286408 
L 177.318001 174.617163 
L 170.153292 187.359489 
L 163.718262 195.758632 
L 158.26117 200.691341 
L 151.077079 205.414573 
L 149.627238 206.976333 
L 149.69896 206.438157 
L 151.289478 199.436377 
L 154.337431 186.993866 
L 158.725231 170.289327 
L 164.283597 152.216288 
L 170.798092 135.686839 
L 178.017388 124.684676 
L 185.66297 116.612323 
L 193.439874 105.061049 
L 201.048071 87.455237 
L 208.194041 72.867615 
L 214.602095 63.113492 
L 220.025015 57.121125 
L 224.253586 53.64931 
L 227.124672 51.644103 
L 228.527509 50.822343 
L 228.407975 51.906436 
L 226.770682 60.838268 
L 223.678796 76.620531 
L 219.2516 94.70623 
L 213.659894 112.428961 
L 207.119403 127.412223 
L 199.882455 136.555366 
L 192.228249 144.187901 
L 184.45208 156.587755 
L 176.853948 173.407765 
L 169.726987 185.994776 
L 163.346151 194.341537 
L 157.957609 199.405122 
L 150.942654 204.665193 
L 149.586875 206.146812 
L 149.754216 204.850817 
L 151.438222 197.423811 
L 154.573924 184.812371 
L 159.040348 168.314346 
L 164.665183 150.57137 
L 171.231424 134.631717 
L 178.485749 124.537767 
L 186.148291 116.512245 
L 195.603302 100.998041 
L 205.815694 78.869506 
L 215.381926 63.643173 
L 223.932938 54.50449 
L 231.138835 48.919446 
L 236.721619 45.778036 
L 240.465906 44.347979 
L 242.227246 44.027998 
L 241.937686 45.844582 
L 239.608398 58.917884 
L 235.329243 79.018426 
L 229.265311 100.204185 
L 221.650544 119.321454 
L 212.778716 133.050372 
L 202.992098 141.245879 
L 192.668254 148.211288 
L 182.205471 160.677096 
L 172.0074 179.665764 
L 162.467475 193.350935 
L 153.953744 201.391311 
L 146.794662 205.843965 
L 137.582302 210.410224 
L 135.884432 212.216105 
L 136.238317 210.862901 
L 138.630302 201.123632 
L 142.968107 184.643069 
L 149.084381 164.025782 
L 156.743162 143.928496 
L 165.648977 128.796371 
L 175.458244 119.986041 
L 185.792527 112.029946 
L 196.253134 100.498164 
L 206.4365 80.935239 
L 215.949755 65.591906 
L 224.425884 56.317614 
L 231.537881 50.852123 
L 237.011368 47.767526 
L 240.635182 46.06323 
L 242.269518 45.719684 
L 241.851322 47.676905 
L 239.39673 60.608865 
L 235.000438 81.069995 
L 228.832054 102.201848 
L 221.129549 121.006086 
L 212.190084 133.327818 
L 202.358537 140.958272 
L 192.014207 148.015496 
L 181.556171 160.164265 
L 171.387896 178.747092 
L 161.901668 192.198484 
L 153.463462 200.206539 
L 146.39882 204.859068 
L 137.416921 210.016267 
L 135.846182 211.644493 
L 136.328672 209.07732 
L 138.845778 198.749996 
L 143.300391 182.179753 
L 149.520653 162.05694 
L 157.26659 142.548922 
L 166.239368 128.28311 
L 176.092822 119.950692 
L 186.446809 111.966976 
L 199.611996 95.351016 
L 213.276652 70.688541 
L 226.007308 56.378218 
L 237.312822 48.064108 
L 246.757031 42.598092 
L 253.975585 39.702032 
L 258.689993 38.705309 
L 260.718377 38.668623 
L 259.982483 42.085135 
L 256.5107 60.699307 
L 250.43697 85.800288 
L 241.995612 109.130249 
L 231.512291 127.096376 
L 219.391448 137.960256 
L 206.1007 145.430814 
L 192.152796 152.225003 
L 178.08584 164.308588 
L 164.442528 185.268155 
L 151.749213 199.61252 
L 140.495596 207.165231 
L 131.115837 211.338381 
L 119.339104 215.789187 
L 117.39647 217.78495 
L 118.218847 215.712463 
L 121.774507 201.887601 
L 127.926276 179.79914 
L 136.43682 155.411206 
L 146.977807 135.421016 
L 159.14257 123.561516 
L 172.461801 115.263136 
L 186.421648 107.22134 
L 200.483548 95.010566 
L 214.105 73.287836 
L 226.760494 57.922499 
L 237.961789 49.46332 
L 247.276743 44.48417 
L 254.34599 41.648614 
L 258.896802 40.351497 
L 260.753612 40.524928 
L 259.844783 43.760959 
L 256.205379 61.855873 
L 249.975806 87.517345 
L 241.396398 110.775209 
L 230.798143 127.826294 
L 218.589918 137.71565 
L 205.24271 144.873124 
L 191.271447 151.770688 
L 177.215134 164.032612 
L 163.616057 184.725864 
L 150.998862 198.623595 
L 139.850313 206.156976 
L 130.600516 210.530871 
L 119.137569 215.543132 
L 117.366654 217.476629 
L 122.084909 198.905192 
L 128.392052 176.983289 
L 137.040001 153.523093 
L 147.695123 134.504947 
L 159.946348 123.241727 
L 173.321029 115.10686 
L 187.303179 107.085798 
L 205.603264 88.641426 
L 223.875458 61.536755 
L 240.804756 49.209582 
L 255.738033 41.540692 
L 268.09917 35.822334 
L 277.411282 33.37288 
L 283.315111 32.481705 
L 285.582891 32.613307 
L 284.127132 38.204134 
L 279.003996 63.211731 
L 270.411132 93.322224 
L 258.680047 117.028741 
L 244.263321 131.845495 
L 227.717145 141.240242 
L 209.679862 148.815945 
L 190.847342 155.713294 
L 171.946133 168.039456 
L 153.705435 191.525094 
L 136.828966 206.161443 
L 121.96781 213.358651 
L 109.695306 217.426995 
L 94.691981 221.6599 
L 92.539982 223.690795 
L 94.111944 220.922353 
L 99.347222 200.886835 
L 108.043842 171.939885 
L 119.866292 145.421947 
L 134.358468 128.852408 
L 150.961269 119.227303 
L 169.034167 110.715863 
L 187.879917 102.359445 
L 206.771462 88.628733 
L 224.979974 64.962942 
L 241.802977 49.750284 
L 256.591449 42.353684 
L 268.774857 37.72016 
L 277.883171 35.094044 
L 283.564998 34.234066 
L 285.601135 34.601754 
L 283.913029 39.860401 
L 278.565806 64.46202 
L 269.76576 95.239735 
L 257.852391 118.489243 
L 243.285313 132.107153 
L 226.626515 140.704304 
L 208.518686 148.067347 
L 189.660417 155.050356 
L 170.779251 168.117148 
L 152.603613 191.380817 
L 135.834712 205.331656 
L 135.834712 205.331656 
" clip-path="url(#p39b451fc9b)" style="fill: none; stroke: #0000ff; stroke-width: 1.2; stroke-linecap: square"/>
   </g>
   <g id="line2d_14">
    <path d="M 188.946045 119.389309 
L 191.114489 99.868191 
L 191.50342 88.418406 
L 195.522373 72.794777 
L 197.994863 66.022383 
L 200.931909 60.5496 
L 203.873585 55.857393 
L 206.355335 50.646149 
L 206.400093 58.191711 
L 206.185563 60.53411 
L 204.838195 64.441027 
L 201.046119 79.803791 
L 199.490395 87.093875 
L 197.473201 93.604731 
L 196.593477 99.331644 
L 194.56548 104.021157 
L 192.992779 108.449132 
L 192.116141 114.696428 
L 190.78112 120.68488 
L 190.369038 128.231788 
L 189.493944 134.739276 
L 189.527898 140.463495 
L 188.875049 145.929543 
L 188.452164 151.655109 
L 186.669564 159.206058 
L 186.027519 166.493448 
L 184.698672 173.522667 
L 183.359021 178.730544 
L 181.556357 182.899 
L 178.619311 188.371782 
L 177.2704 192.018508 
L 175.231599 194.886679 
L 173.884231 198.793597 
L 172.296096 200.619653 
L 171.834627 199.840425 
L 172.266772 195.67601 
L 173.834843 190.46746 
L 176.531122 182.913817 
L 178.321439 176.663826 
L 179.878706 169.633934 
L 180.986851 163.906347 
L 185.882442 142.035422 
L 187.422732 132.14342 
L 187.628001 128.23987 
L 189.196072 123.03132 
L 190.003258 105.075394 
L 191.307411 93.883107 
L 193.298367 82.948991 
L 195.76777 75.656213 
L 197.556544 69.146031 
L 200.712749 62.111424 
L 203.421375 56.639315 
L 206.589928 51.686243 
L 210.232297 49.593933 
L 213.646246 47.502296 
L 215.462801 45.675566 
L 217.297876 46.971137 
L 216.853383 49.054018 
L 215.09702 61.028227 
L 213.755826 65.975912 
L 211.726286 70.405233 
L 209.482216 77.176954 
L 206.349161 88.114438 
L 205.2333 92.541065 
L 204.120525 97.488076 
L 200.311471 109.988731 
L 198.055054 114.678917 
L 195.794007 118.588529 
L 193.978996 120.675451 
L 193.978996 120.675451 
L 191.708689 123.023912 
L 189.890591 124.59045 
L 188.771643 128.496694 
L 188.341041 132.921302 
L 187.016824 140.731096 
L 187.097079 154.261068 
L 184.422408 165.457396 
L 182.645981 174.049112 
L 180.857207 180.559294 
L 178.148581 186.031403 
L 175.669918 191.763031 
L 172.269859 196.196393 
L 168.412961 200.631103 
L 165.687357 203.241102 
L 163.869259 204.807641 
L 162.273408 205.332739 
L 161.566541 201.692074 
L 162.907736 196.74439 
L 163.580648 194.660835 
L 164.474263 191.275648 
L 166.945209 184.243062 
L 167.81876 177.475382 
L 170.278903 168.621453 
L 172.294553 161.850406 
L 173.180451 157.16426 
L 176.558903 149.088213 
L 177.893924 143.099761 
L 179.235118 138.152077 
L 180.125647 134.246506 
L 182.15673 130.077376 
L 183.266418 124.609982 
L 184.62922 123.304982 
L 187.104796 117.052971 
L 190.271805 111.839707 
L 194.107097 103.762312 
L 196.331103 93.608098 
L 199.018122 84.493305 
L 202.17124 76.938314 
L 205.089766 68.343231 
L 206.8878 63.394199 
L 210.516278 58.960163 
L 214.368547 53.744878 
L 217.771692 49.831899 
L 220.728802 47.74161 
L 225.048714 44.34632 
L 225.740147 45.385067 
L 225.758667 48.507368 
L 225.105819 53.973416 
L 223.102516 62.825998 
L 220.642373 71.679926 
L 219.528055 76.366746 
L 216.601813 83.660871 
L 214.796062 87.308943 
L 213.456411 92.51682 
L 212.792759 96.161525 
L 211.903774 100.327287 
L 211.008615 103.452282 
L 206.040486 113.094195 
L 199.691034 120.918806 
L 195.831049 124.833131 
L 192.648606 127.444478 
L 191.971063 128.747457 
L 190.609805 130.312649 
L 188.353388 135.002836 
L 187.45823 138.127831 
L 185.431776 143.077536 
L 183.413039 149.3282 
L 182.531771 154.794921 
L 177.572902 165.997984 
L 176.682373 169.903555 
L 175.112759 174.851913 
L 174.447564 178.236426 
L 172.64953 183.185458 
L 171.072199 186.832857 
L 168.584275 191.003334 
L 166.776981 194.391215 
L 164.741267 197.779769 
L 161.111245 201.953613 
L 158.840938 204.302074 
L 157.248173 205.347556 
L 154.968606 206.134866 
L 154.054927 206.13756 
L 153.820333 205.097466 
L 154.720122 202.753046 
L 156.06286 198.065553 
L 156.261955 193.121236 
L 158.059989 188.172205 
L 159.631147 183.484038 
L 160.745465 178.797219 
L 162.762658 172.286363 
L 164.560692 167.337332 
L 166.340206 159.265999 
L 167.902103 153.016682 
L 168.562668 148.851593 
L 169.894602 142.342758 
L 171.459586 136.613825 
L 173.927446 129.060855 
L 175.960073 125.151917 
L 180.496057 119.67442 
L 182.976264 114.202984 
L 188.65589 108.982312 
L 193.841636 97.518383 
L 199.726531 88.394161 
L 202.430527 82.141476 
L 208.533039 71.195238 
L 210.346507 68.848124 
L 219.416932 57.632938 
L 223.965263 54.236975 
L 225.994804 49.807654 
L 228.039778 47.98025 
L 230.310085 45.631789 
L 234.183961 44.059189 
L 238.962255 40.922744 
L 240.3266 39.877936 
L 242.610798 39.871202 
L 243.979773 39.606969 
L 245.353378 40.123311 
L 245.371899 43.245613 
L 240.670773 59.391646 
L 240.704728 65.115865 
L 239.829633 71.623353 
L 236.230478 81.001033 
L 234.210198 86.991505 
L 229.033713 100.016584 
L 225.650631 107.312056 
L 222.722845 114.345989 
L 219.565096 121.120404 
L 216.171211 126.594533 
L 214.138584 130.503471 
L 210.499301 133.116165 
L 205.4895 135.732899 
L 200.928822 137.047328 
L 200.701946 137.308193 
L 197.059576 139.400503 
L 193.645627 141.49214 
L 190.003258 143.58445 
L 187.285371 147.495408 
L 185.251201 151.144154 
L 183.666153 153.490595 
L 179.116278 156.626366 
L 174.365765 164.446262 
L 172.567731 169.395294 
L 170.535104 173.304232 
L 167.817217 177.21519 
L 165.78922 181.904704 
L 162.856804 188.158061 
L 159.001449 192.852963 
L 146.280938 204.8595 
L 144.68663 205.644789 
L 142.862358 206.170561 
L 139.899075 207.220083 
L 136.712002 209.050855 
L 136.483582 209.051528 
L 135.554469 206.452304 
L 135.537492 203.590195 
L 136.190341 198.124147 
L 137.763042 193.696173 
L 138.428237 190.311659 
L 139.294071 182.24302 
L 140.635266 177.295336 
L 141.521164 172.60919 
L 143.084605 166.620065 
L 145.334848 160.889111 
L 145.782427 159.326613 
L 151.656519 148.381048 
L 153.679886 142.910959 
L 155.251044 138.222793 
L 156.833005 135.355969 
L 158.856372 129.885881 
L 164.284428 120.763005 
L 166.550105 117.633969 
L 167.911363 116.068777 
L 171.779065 113.45541 
L 180.210532 110.047998 
L 182.709259 107.698864 
L 185.894789 105.6079 
L 192.251958 99.084248 
L 199.082943 95.421359 
L 203.163631 90.205401 
L 205.424678 86.295789 
L 216.104846 76.897231 
L 217.676003 72.209065 
L 220.622309 68.297433 
L 224.026998 64.644646 
L 228.107687 59.428688 
L 230.152661 57.601284 
L 234.241066 53.686285 
L 238.335644 50.812052 
L 240.607495 48.723783 
L 244.019901 46.371955 
L 251.077763 42.4482 
L 255.626094 39.052237 
L 261.554204 37.213384 
L 264.972784 35.902323 
L 265.219724 39.023951 
L 265.017542 43.447884 
L 265.036062 46.570186 
L 262.376824 60.368431 
L 259.679001 67.661883 
L 256.078303 76.779371 
L 251.580904 88.761662 
L 247.737895 95.538097 
L 243.447308 103.87703 
L 242.103027 108.304331 
L 239.175241 115.338265 
L 236.466615 120.810374 
L 233.069643 125.76412 
L 229.664954 129.416907 
L 218.75328 138.295755 
L 214.880948 140.128546 
L 211.232405 141.180089 
L 202.797851 144.067118 
L 202.570975 144.327983 
L 199.380815 145.638371 
L 196.871284 146.166163 
L 194.59326 147.213665 
L 191.633064 148.783571 
L 190.279522 151.649721 
L 187.10171 155.041643 
L 181.874293 159.480393 
L 178.690306 161.831548 
L 174.137345 164.446936 
L 171.183322 167.057609 
L 168.230842 169.928474 
L 165.736745 173.058183 
L 163.012685 175.928375 
L 161.654514 178.01395 
L 155.298888 184.797794 
L 146.429102 191.328854 
L 144.160338 193.937507 
L 140.749476 196.549527 
L 136.207318 200.986257 
L 134.1608 202.553469 
L 119.3521 209.10204 
L 118.438421 209.104734 
L 117.980038 208.845889 
L 117.728468 204.943686 
L 118.152897 199.478312 
L 119.040338 195.052358 
L 119.469397 190.367559 
L 120.353752 185.421221 
L 120.801331 183.858724 
L 123.276907 177.606713 
L 124.395856 173.700469 
L 126.178456 166.149519 
L 127.744983 160.680778 
L 129.995226 154.949824 
L 132.697679 148.436948 
L 134.04659 144.790222 
L 139.920682 133.844657 
L 143.092322 129.411968 
L 146.268591 125.759854 
L 151.043799 122.103026 
L 154.905327 118.448892 
L 156.726512 117.402737 
L 166.284644 111.39004 
L 170.369962 106.954657 
L 177.418564 101.469751 
L 185.839227 96.240997 
L 192.43562 91.538014 
L 196.294062 87.363496 
L 201.282255 81.104077 
L 209.016116 75.617151 
L 211.277163 71.707539 
L 215.810061 65.709659 
L 224.44834 58.658888 
L 231.276239 54.475615 
L 242.20952 49.239452 
L 255.426998 43.996554 
L 262.954047 42.152987 
L 270.942565 41.088648 
L 276.646885 40.031043 
L 282.812675 39.752667 
L 282.84663 45.476886 
L 283.099744 49.639281 
L 282.459242 57.186863 
L 280.446679 64.478294 
L 276.856785 75.417124 
L 273.02921 84.795477 
L 269.198549 93.653447 
L 263.088321 103.298727 
L 260.384324 109.551411 
L 254.957812 118.934478 
L 249.964988 124.413322 
L 245.657424 129.890146 
L 237.244477 136.419859 
L 228.586133 140.088137 
L 218.782604 143.239398 
L 212.175408 146.121039 
L 201.916583 149.533839 
L 193.715079 153.200769 
L 181.869662 158.699818 
L 175.503233 163.662319 
L 161.870586 175.931742 
L 160.297886 180.359717 
L 156.669407 184.793753 
L 140.959375 193.426552 
L 138.669004 192.39252 
L 133.432326 195.270119 
L 128.877822 197.625315 
L 123.178131 199.463495 
L 114.050601 201.051585 
L 108.122491 202.890438 
L 101.059999 206.033618 
L 98.095172 206.822948 
L 96.0147 202.665942 
L 94.837104 196.684898 
L 97.28953 186.530011 
L 99.541316 181.059249 
L 103.59268 170.899647 
L 106.30285 165.687729 
L 113.974976 149.793133 
L 118.279454 143.795926 
L 121.664079 136.760646 
L 126.413049 128.680557 
L 130.501454 124.765558 
L 132.995551 121.635848 
L 142.769756 113.540943 
L 154.63215 110.904004 
L 158.044556 108.552176 
L 171.47502 100.706687 
L 177.856883 98.346103 
L 182.868227 95.98956 
L 192.66867 92.317915 
L 198.809766 87.876471 
L 204.512543 86.558675 
L 206.333727 85.51252 
L 207.468109 84.208194 
L 211.798824 82.634247 
L 224.113427 79.215385 
L 233.907696 74.502973 
L 238.684447 71.106337 
L 250.755197 65.086231 
L 258.507578 62.721607 
L 264.889441 60.361023 
L 271.505897 59.040533 
L 272.644909 58.516782 
L 278.114637 56.419084 
L 280.167328 55.892639 
L 281.775526 57.449075 
L 280.210542 63.178009 
L 278.406335 67.086273 
L 269.593654 83.244429 
L 266.213658 91.060284 
L 262.622221 101.738923 
L 261.29183 108.50795 
L 255.176971 117.372654 
L 250.40485 121.549866 
L 243.820805 128.334383 
L 237.2275 133.55775 
L 233.591304 136.690827 
L 230.175811 138.522272 
L 221.742801 141.669492 
L 212.849864 144.297676 
L 209.199778 145.089027 
L 200.328448 151.359896 
L 175.720849 161.840304 
L 167.520889 165.767426 
L 164.105396 167.598871 
L 156.130768 171.004936 
L 152.718362 173.356764 
L 144.978328 177.802923 
L 138.155059 182.766771 
L 131.780913 186.428314 
L 123.13183 191.657742 
L 118.347362 193.753419 
L 111.277153 195.59564 
L 107.173314 196.908722 
L 104.200771 196.397093 
L 101.675806 194.322968 
L 98.905445 189.387406 
L 99.79443 185.221644 
L 101.140255 181.054534 
L 105.617591 165.68975 
L 107.645588 161.000237 
L 108.985239 155.79236 
L 114.633998 145.367852 
L 119.145288 135.727287 
L 125.948493 127.380945 
L 134.588316 120.590367 
L 140.041066 115.630559 
L 150.269023 107.013924 
L 159.834873 102.302185 
L 172.836278 99.141495 
L 180.817079 96.776197 
L 203.591147 85.26041 
L 215.215861 81.062994 
L 222.957438 76.877027 
L 227.05819 75.043561 
L 240.056509 71.362488 
L 248.946359 68.21392 
L 257.158667 66.368332 
L 266.971456 64.778222 
L 272.67732 63.980809 
L 287.282295 61.59598 
L 293.216578 60.797894 
L 301.896529 60.772301 
L 302.378062 64.934022 
L 300.831599 73.785257 
L 296.775605 83.164284 
L 294.074696 89.937352 
L 287.516888 101.145129 
L 277.770464 113.923486 
L 272.996799 117.840506 
L 263.665543 123.592338 
L 254.547274 126.741579 
L 248.62225 129.100815 
L 239.044054 131.73102 
L 220.785907 134.386817 
L 215.766846 135.4424 
L 197.534936 142.521457 
L 184.525814 144.381189 
L 174.723828 147.792642 
L 158.765312 153.043622 
L 153.321823 159.56458 
L 143.981307 163.755261 
L 133.043396 168.210849 
L 120.503459 172.150767 
L 115.723622 175.02702 
L 109.789338 175.825106 
L 99.735782 175.334356 
L 94.923533 172.746582 
L 93.76137 169.367456 
L 91.443219 163.649972 
L 87.765352 159.757871 
L 82.962363 158.731248 
L 79.068424 156.921355 
L 76.773423 155.106747 
L 76.298062 151.985793 
L 76.943194 145.218786 
L 78.285932 140.531293 
L 82.579606 132.712744 
L 88.253059 126.451304 
L 94.392612 121.749668 
L 101.90577 117.564375 
L 113.982693 112.585036 
L 118.998667 111.009069 
L 130.410395 109.414243 
L 142.735802 107.816724 
L 151.178072 106.230655 
L 161.906084 104.898042 
L 174.45065 101.738698 
L 176.958638 100.950715 
L 182.434538 99.893784 
L 186.995217 98.579355 
L 186.995217 98.579355 
" clip-path="url(#p39b451fc9b)" style="fill: none; stroke-dasharray: 3.7,1.6; stroke-dashoffset: 0; stroke: #000000"/>
   </g>
   <g id="line2d_15">
    <path d="M 64.994062 123.431747 
L 313.682062 123.431747 
" clip-path="url(#p39b451fc9b)" style="fill: none; stroke: #000000; stroke-width: 0.4; stroke-linecap: square"/>
   </g>
   <g id="line2d_16">
    <path d="M 189.06691 233.25125 
L 189.06691 22.92125 
" clip-path="url(#p39b451fc9b)" style="fill: none; stroke: #000000; stroke-width: 0.4; stroke-linecap: square"/>
   </g>
   <g id="patch_3">
    <path d="M 64.994062 233.25125 
L 64.994062 22.92125 
" style="fill: none; stroke: #000000; stroke-width: 0.8; stroke-linejoin: miter; stroke-linecap: square"/>
   </g>
   <g id="patch_4">
    <path d="M 313.682062 233.25125 
L 313.682062 22.92125 
" style="fill: none; stroke: #000000; stroke-width: 0.8; stroke-linejoin: miter; stroke-linecap: square"/>
   </g>
   <g id="patch_5">
    <path d="M 64.994062 233.25125 
L 313.682062 233.25125 
" style="fill: none; stroke: #000000; stroke-width: 0.8; stroke-linejoin: miter; stroke-linecap: square"/>
   </g>
   <g id="patch_6">
    <path d="M 64.994062 22.92125 
L 313.682062 22.92125 
" style="fill: none; stroke: #000000; stroke-width: 0.8; stroke-linejoin: miter; stroke-linecap: square"/>
   </g>
   <g id="text_9">
    <!-- Specimen (5) - AR2_8  -->
    <g transform="translate(124.402125 16.92125) scale(0.14 -0.14)">
     <defs>
      <path id="TimesNewRomanPSMT-53" d="M 2934 4334 
L 2934 2869 
L 2819 2869 
Q 2763 3291 2617 3541 
Q 2472 3791 2203 3937 
Q 1934 4084 1647 4084 
Q 1322 4084 1109 3886 
Q 897 3688 897 3434 
Q 897 3241 1031 3081 
Q 1225 2847 1953 2456 
Q 2547 2138 2764 1967 
Q 2981 1797 3098 1565 
Q 3216 1334 3216 1081 
Q 3216 600 2842 251 
Q 2469 -97 1881 -97 
Q 1697 -97 1534 -69 
Q 1438 -53 1133 45 
Q 828 144 747 144 
Q 669 144 623 97 
Q 578 50 556 -97 
L 441 -97 
L 441 1356 
L 556 1356 
Q 638 900 775 673 
Q 913 447 1195 297 
Q 1478 147 1816 147 
Q 2206 147 2432 353 
Q 2659 559 2659 841 
Q 2659 997 2573 1156 
Q 2488 1316 2306 1453 
Q 2184 1547 1640 1851 
Q 1097 2156 867 2337 
Q 638 2519 519 2737 
Q 400 2956 400 3219 
Q 400 3675 750 4004 
Q 1100 4334 1641 4334 
Q 1978 4334 2356 4169 
Q 2531 4091 2603 4091 
Q 2684 4091 2736 4139 
Q 2788 4188 2819 4334 
L 2934 4334 
z
" transform="scale(0.015625)"/>
      <path id="TimesNewRomanPSMT-70" d="M -6 2578 
L 875 2934 
L 994 2934 
L 994 2266 
Q 1216 2644 1439 2795 
Q 1663 2947 1909 2947 
Q 2341 2947 2628 2609 
Q 2981 2197 2981 1534 
Q 2981 794 2556 309 
Q 2206 -88 1675 -88 
Q 1444 -88 1275 -22 
Q 1150 25 994 166 
L 994 -706 
Q 994 -1000 1030 -1079 
Q 1066 -1159 1155 -1206 
Q 1244 -1253 1478 -1253 
L 1478 -1369 
L -22 -1369 
L -22 -1253 
L 56 -1253 
Q 228 -1256 350 -1188 
Q 409 -1153 442 -1076 
Q 475 -1000 475 -688 
L 475 2019 
Q 475 2297 450 2372 
Q 425 2447 370 2484 
Q 316 2522 222 2522 
Q 147 2522 31 2478 
L -6 2578 
z
M 994 2081 
L 994 1013 
Q 994 666 1022 556 
Q 1066 375 1236 237 
Q 1406 100 1666 100 
Q 1978 100 2172 344 
Q 2425 663 2425 1241 
Q 2425 1897 2138 2250 
Q 1938 2494 1663 2494 
Q 1513 2494 1366 2419 
Q 1253 2363 994 2081 
z
" transform="scale(0.015625)"/>
      <path id="TimesNewRomanPSMT-65" d="M 681 1784 
Q 678 1147 991 784 
Q 1303 422 1725 422 
Q 2006 422 2214 576 
Q 2422 731 2563 1106 
L 2659 1044 
Q 2594 616 2278 264 
Q 1963 -88 1488 -88 
Q 972 -88 605 314 
Q 238 716 238 1394 
Q 238 2128 614 2539 
Q 991 2950 1559 2950 
Q 2041 2950 2350 2633 
Q 2659 2316 2659 1784 
L 681 1784 
z
M 681 1966 
L 2006 1966 
Q 1991 2241 1941 2353 
Q 1863 2528 1708 2628 
Q 1553 2728 1384 2728 
Q 1125 2728 920 2526 
Q 716 2325 681 1966 
z
" transform="scale(0.015625)"/>
      <path id="TimesNewRomanPSMT-63" d="M 2631 1088 
Q 2516 522 2178 217 
Q 1841 -88 1431 -88 
Q 944 -88 581 321 
Q 219 731 219 1428 
Q 219 2103 620 2525 
Q 1022 2947 1584 2947 
Q 2006 2947 2278 2723 
Q 2550 2500 2550 2259 
Q 2550 2141 2473 2067 
Q 2397 1994 2259 1994 
Q 2075 1994 1981 2113 
Q 1928 2178 1911 2362 
Q 1894 2547 1784 2644 
Q 1675 2738 1481 2738 
Q 1169 2738 978 2506 
Q 725 2200 725 1697 
Q 725 1184 976 792 
Q 1228 400 1656 400 
Q 1963 400 2206 609 
Q 2378 753 2541 1131 
L 2631 1088 
z
" transform="scale(0.015625)"/>
      <path id="TimesNewRomanPSMT-69" d="M 928 4444 
Q 1059 4444 1151 4351 
Q 1244 4259 1244 4128 
Q 1244 3997 1151 3903 
Q 1059 3809 928 3809 
Q 797 3809 703 3903 
Q 609 3997 609 4128 
Q 609 4259 701 4351 
Q 794 4444 928 4444 
z
M 1188 2947 
L 1188 647 
Q 1188 378 1227 289 
Q 1266 200 1342 156 
Q 1419 113 1622 113 
L 1622 0 
L 231 0 
L 231 113 
Q 441 113 512 153 
Q 584 194 626 287 
Q 669 381 669 647 
L 669 1750 
Q 669 2216 641 2353 
Q 619 2453 572 2492 
Q 525 2531 444 2531 
Q 356 2531 231 2484 
L 188 2597 
L 1050 2947 
L 1188 2947 
z
" transform="scale(0.015625)"/>
      <path id="TimesNewRomanPSMT-6d" d="M 1050 2338 
Q 1363 2650 1419 2697 
Q 1559 2816 1721 2881 
Q 1884 2947 2044 2947 
Q 2313 2947 2506 2790 
Q 2700 2634 2766 2338 
Q 3088 2713 3309 2830 
Q 3531 2947 3766 2947 
Q 3994 2947 4170 2830 
Q 4347 2713 4450 2447 
Q 4519 2266 4519 1878 
L 4519 647 
Q 4519 378 4559 278 
Q 4591 209 4675 161 
Q 4759 113 4950 113 
L 4950 0 
L 3538 0 
L 3538 113 
L 3597 113 
Q 3781 113 3884 184 
Q 3956 234 3988 344 
Q 4000 397 4000 647 
L 4000 1878 
Q 4000 2228 3916 2372 
Q 3794 2572 3525 2572 
Q 3359 2572 3192 2489 
Q 3025 2406 2788 2181 
L 2781 2147 
L 2788 2013 
L 2788 647 
Q 2788 353 2820 281 
Q 2853 209 2943 161 
Q 3034 113 3253 113 
L 3253 0 
L 1806 0 
L 1806 113 
Q 2044 113 2133 169 
Q 2222 225 2256 338 
Q 2272 391 2272 647 
L 2272 1878 
Q 2272 2228 2169 2381 
Q 2031 2581 1784 2581 
Q 1616 2581 1450 2491 
Q 1191 2353 1050 2181 
L 1050 647 
Q 1050 366 1089 281 
Q 1128 197 1204 155 
Q 1281 113 1516 113 
L 1516 0 
L 100 0 
L 100 113 
Q 297 113 375 155 
Q 453 197 493 289 
Q 534 381 534 647 
L 534 1741 
Q 534 2213 506 2350 
Q 484 2453 437 2492 
Q 391 2531 309 2531 
Q 222 2531 100 2484 
L 53 2597 
L 916 2947 
L 1050 2947 
L 1050 2338 
z
" transform="scale(0.015625)"/>
      <path id="TimesNewRomanPSMT-6e" d="M 1034 2341 
Q 1538 2947 1994 2947 
Q 2228 2947 2397 2830 
Q 2566 2713 2666 2444 
Q 2734 2256 2734 1869 
L 2734 647 
Q 2734 375 2778 278 
Q 2813 200 2889 156 
Q 2966 113 3172 113 
L 3172 0 
L 1756 0 
L 1756 113 
L 1816 113 
Q 2016 113 2095 173 
Q 2175 234 2206 353 
Q 2219 400 2219 647 
L 2219 1819 
Q 2219 2209 2117 2386 
Q 2016 2563 1775 2563 
Q 1403 2563 1034 2156 
L 1034 647 
Q 1034 356 1069 288 
Q 1113 197 1189 155 
Q 1266 113 1500 113 
L 1500 0 
L 84 0 
L 84 113 
L 147 113 
Q 366 113 442 223 
Q 519 334 519 647 
L 519 1709 
Q 519 2225 495 2337 
Q 472 2450 423 2490 
Q 375 2531 294 2531 
Q 206 2531 84 2484 
L 38 2597 
L 900 2947 
L 1034 2947 
L 1034 2341 
z
" transform="scale(0.015625)"/>
      <path id="TimesNewRomanPSMT-20" transform="scale(0.015625)"/>
      <path id="TimesNewRomanPSMT-28" d="M 1988 -1253 
L 1988 -1369 
Q 1516 -1131 1200 -813 
Q 750 -359 506 256 
Q 263 872 263 1534 
Q 263 2503 741 3301 
Q 1219 4100 1988 4444 
L 1988 4313 
Q 1603 4100 1356 3731 
Q 1109 3363 987 2797 
Q 866 2231 866 1616 
Q 866 947 969 400 
Q 1050 -31 1165 -292 
Q 1281 -553 1476 -793 
Q 1672 -1034 1988 -1253 
z
" transform="scale(0.015625)"/>
      <path id="TimesNewRomanPSMT-35" d="M 2778 4238 
L 2534 3706 
L 1259 3706 
L 981 3138 
Q 1809 3016 2294 2522 
Q 2709 2097 2709 1522 
Q 2709 1188 2573 903 
Q 2438 619 2231 419 
Q 2025 219 1772 97 
Q 1413 -75 1034 -75 
Q 653 -75 479 54 
Q 306 184 306 341 
Q 306 428 378 495 
Q 450 563 559 563 
Q 641 563 702 538 
Q 763 513 909 409 
Q 1144 247 1384 247 
Q 1750 247 2026 523 
Q 2303 800 2303 1197 
Q 2303 1581 2056 1914 
Q 1809 2247 1375 2428 
Q 1034 2569 447 2591 
L 1259 4238 
L 2778 4238 
z
" transform="scale(0.015625)"/>
      <path id="TimesNewRomanPSMT-29" d="M 144 4313 
L 144 4444 
Q 619 4209 934 3891 
Q 1381 3434 1625 2820 
Q 1869 2206 1869 1541 
Q 1869 572 1392 -226 
Q 916 -1025 144 -1369 
L 144 -1253 
Q 528 -1038 776 -670 
Q 1025 -303 1145 264 
Q 1266 831 1266 1447 
Q 1266 2113 1163 2663 
Q 1084 3094 967 3353 
Q 850 3613 656 3853 
Q 463 4094 144 4313 
z
" transform="scale(0.015625)"/>
      <path id="TimesNewRomanPSMT-2d" d="M 259 1672 
L 1875 1672 
L 1875 1200 
L 259 1200 
L 259 1672 
z
" transform="scale(0.015625)"/>
      <path id="TimesNewRomanPSMT-41" d="M 2928 1419 
L 1288 1419 
L 1000 750 
Q 894 503 894 381 
Q 894 284 986 211 
Q 1078 138 1384 116 
L 1384 0 
L 50 0 
L 50 116 
Q 316 163 394 238 
Q 553 388 747 847 
L 2238 4334 
L 2347 4334 
L 3822 809 
Q 4000 384 4145 257 
Q 4291 131 4550 116 
L 4550 0 
L 2878 0 
L 2878 116 
Q 3131 128 3220 200 
Q 3309 272 3309 375 
Q 3309 513 3184 809 
L 2928 1419 
z
M 2841 1650 
L 2122 3363 
L 1384 1650 
L 2841 1650 
z
" transform="scale(0.015625)"/>
      <path id="TimesNewRomanPSMT-52" d="M 4325 0 
L 3194 0 
L 1759 1981 
Q 1600 1975 1500 1975 
Q 1459 1975 1412 1976 
Q 1366 1978 1316 1981 
L 1316 750 
Q 1316 350 1403 253 
Q 1522 116 1759 116 
L 1925 116 
L 1925 0 
L 109 0 
L 109 116 
L 269 116 
Q 538 116 653 291 
Q 719 388 719 750 
L 719 3488 
Q 719 3888 631 3984 
Q 509 4122 269 4122 
L 109 4122 
L 109 4238 
L 1653 4238 
Q 2328 4238 2648 4139 
Q 2969 4041 3192 3777 
Q 3416 3513 3416 3147 
Q 3416 2756 3161 2468 
Q 2906 2181 2372 2063 
L 3247 847 
Q 3547 428 3762 290 
Q 3978 153 4325 116 
L 4325 0 
z
M 1316 2178 
Q 1375 2178 1419 2176 
Q 1463 2175 1491 2175 
Q 2097 2175 2405 2437 
Q 2713 2700 2713 3106 
Q 2713 3503 2464 3751 
Q 2216 4000 1806 4000 
Q 1625 4000 1316 3941 
L 1316 2178 
z
" transform="scale(0.015625)"/>
      <path id="TimesNewRomanPSMT-32" d="M 2934 816 
L 2638 0 
L 138 0 
L 138 116 
Q 1241 1122 1691 1759 
Q 2141 2397 2141 2925 
Q 2141 3328 1894 3587 
Q 1647 3847 1303 3847 
Q 991 3847 742 3664 
Q 494 3481 375 3128 
L 259 3128 
Q 338 3706 661 4015 
Q 984 4325 1469 4325 
Q 1984 4325 2329 3994 
Q 2675 3663 2675 3213 
Q 2675 2891 2525 2569 
Q 2294 2063 1775 1497 
Q 997 647 803 472 
L 1909 472 
Q 2247 472 2383 497 
Q 2519 522 2628 598 
Q 2738 675 2819 816 
L 2934 816 
z
" transform="scale(0.015625)"/>
      <path id="TimesNewRomanPSMT-5f" d="M 3256 -1381 
L -53 -1381 
L -53 -1119 
L 3256 -1119 
L 3256 -1381 
z
" transform="scale(0.015625)"/>
      <path id="TimesNewRomanPSMT-38" d="M 1228 2134 
Q 725 2547 579 2797 
Q 434 3047 434 3316 
Q 434 3728 753 4026 
Q 1072 4325 1600 4325 
Q 2113 4325 2425 4047 
Q 2738 3769 2738 3413 
Q 2738 3175 2569 2928 
Q 2400 2681 1866 2347 
Q 2416 1922 2594 1678 
Q 2831 1359 2831 1006 
Q 2831 559 2490 242 
Q 2150 -75 1597 -75 
Q 994 -75 656 303 
Q 388 606 388 966 
Q 388 1247 577 1523 
Q 766 1800 1228 2134 
z
M 1719 2469 
Q 2094 2806 2194 3001 
Q 2294 3197 2294 3444 
Q 2294 3772 2109 3958 
Q 1925 4144 1606 4144 
Q 1288 4144 1088 3959 
Q 888 3775 888 3528 
Q 888 3366 970 3203 
Q 1053 3041 1206 2894 
L 1719 2469 
z
M 1375 2016 
Q 1116 1797 991 1539 
Q 866 1281 866 981 
Q 866 578 1086 336 
Q 1306 94 1647 94 
Q 1984 94 2187 284 
Q 2391 475 2391 747 
Q 2391 972 2272 1150 
Q 2050 1481 1375 2016 
z
" transform="scale(0.015625)"/>
     </defs>
     <use xlink:href="#TimesNewRomanPSMT-53"/>
     <use xlink:href="#TimesNewRomanPSMT-70" x="55.615234"/>
     <use xlink:href="#TimesNewRomanPSMT-65" x="105.615234"/>
     <use xlink:href="#TimesNewRomanPSMT-63" x="150"/>
     <use xlink:href="#TimesNewRomanPSMT-69" x="194.384766"/>
     <use xlink:href="#TimesNewRomanPSMT-6d" x="222.167969"/>
     <use xlink:href="#TimesNewRomanPSMT-65" x="299.951172"/>
     <use xlink:href="#TimesNewRomanPSMT-6e" x="344.335938"/>
     <use xlink:href="#TimesNewRomanPSMT-20" x="394.335938"/>
     <use xlink:href="#TimesNewRomanPSMT-28" x="419.335938"/>
     <use xlink:href="#TimesNewRomanPSMT-35" x="452.636719"/>
     <use xlink:href="#TimesNewRomanPSMT-29" x="502.636719"/>
     <use xlink:href="#TimesNewRomanPSMT-20" x="535.9375"/>
     <use xlink:href="#TimesNewRomanPSMT-2d" x="560.9375"/>
     <use xlink:href="#TimesNewRomanPSMT-20" x="594.238281"/>
     <use xlink:href="#TimesNewRomanPSMT-41" x="613.738281"/>
     <use xlink:href="#TimesNewRomanPSMT-52" x="685.955078"/>
     <use xlink:href="#TimesNewRomanPSMT-32" x="752.654297"/>
     <use xlink:href="#TimesNewRomanPSMT-5f" x="802.654297"/>
     <use xlink:href="#TimesNewRomanPSMT-38" x="852.654297"/>
     <use xlink:href="#TimesNewRomanPSMT-20" x="902.654297"/>
    </g>
   </g>
   <g id="legend_1">
    <g id="patch_7">
     <path d="M 71.294062 55.571563 
L 158.331094 55.571563 
Q 160.131094 55.571563 160.131094 53.771563 
L 160.131094 29.22125 
Q 160.131094 27.42125 158.331094 27.42125 
L 71.294062 27.42125 
Q 69.494062 27.42125 69.494062 29.22125 
L 69.494062 53.771563 
Q 69.494062 55.571563 71.294062 55.571563 
z
" style="fill: #ffffff; opacity: 0.8; stroke: #cccccc; stroke-linejoin: miter"/>
    </g>
    <g id="line2d_17">
     <path d="M 73.094062 34.17125 
L 82.094062 34.17125 
L 91.094062 34.17125 
" style="fill: none; stroke: #0000ff; stroke-width: 1.2; stroke-linecap: square"/>
    </g>
    <g id="text_10">
     <!-- DNN prediction -->
     <g transform="translate(98.294062 37.32125) scale(0.09 -0.09)">
      <defs>
       <path id="TimesNewRomanPSMT-44" d="M 109 0 
L 109 116 
L 269 116 
Q 538 116 650 288 
Q 719 391 719 750 
L 719 3488 
Q 719 3884 631 3984 
Q 509 4122 269 4122 
L 109 4122 
L 109 4238 
L 1834 4238 
Q 2784 4238 3279 4022 
Q 3775 3806 4076 3303 
Q 4378 2800 4378 2141 
Q 4378 1256 3841 663 
Q 3238 0 2003 0 
L 109 0 
z
M 1319 306 
Q 1716 219 1984 219 
Q 2709 219 3187 728 
Q 3666 1238 3666 2109 
Q 3666 2988 3187 3494 
Q 2709 4000 1959 4000 
Q 1678 4000 1319 3909 
L 1319 306 
z
" transform="scale(0.015625)"/>
       <path id="TimesNewRomanPSMT-4e" d="M -84 4238 
L 1066 4238 
L 3656 1059 
L 3656 3503 
Q 3656 3894 3569 3991 
Q 3453 4122 3203 4122 
L 3056 4122 
L 3056 4238 
L 4531 4238 
L 4531 4122 
L 4381 4122 
Q 4113 4122 4000 3959 
Q 3931 3859 3931 3503 
L 3931 -69 
L 3819 -69 
L 1025 3344 
L 1025 734 
Q 1025 344 1109 247 
Q 1228 116 1475 116 
L 1625 116 
L 1625 0 
L 150 0 
L 150 116 
L 297 116 
Q 569 116 681 278 
Q 750 378 750 734 
L 750 3681 
Q 566 3897 470 3965 
Q 375 4034 191 4094 
Q 100 4122 -84 4122 
L -84 4238 
z
" transform="scale(0.015625)"/>
       <path id="TimesNewRomanPSMT-72" d="M 1038 2947 
L 1038 2303 
Q 1397 2947 1775 2947 
Q 1947 2947 2059 2842 
Q 2172 2738 2172 2600 
Q 2172 2478 2090 2393 
Q 2009 2309 1897 2309 
Q 1788 2309 1652 2417 
Q 1516 2525 1450 2525 
Q 1394 2525 1328 2463 
Q 1188 2334 1038 2041 
L 1038 669 
Q 1038 431 1097 309 
Q 1138 225 1241 169 
Q 1344 113 1538 113 
L 1538 0 
L 72 0 
L 72 113 
Q 291 113 397 181 
Q 475 231 506 341 
Q 522 394 522 644 
L 522 1753 
Q 522 2253 501 2348 
Q 481 2444 426 2487 
Q 372 2531 291 2531 
Q 194 2531 72 2484 
L 41 2597 
L 906 2947 
L 1038 2947 
z
" transform="scale(0.015625)"/>
       <path id="TimesNewRomanPSMT-64" d="M 2222 322 
Q 2013 103 1813 7 
Q 1613 -88 1381 -88 
Q 913 -88 563 304 
Q 213 697 213 1313 
Q 213 1928 600 2439 
Q 988 2950 1597 2950 
Q 1975 2950 2222 2709 
L 2222 3238 
Q 2222 3728 2198 3840 
Q 2175 3953 2125 3993 
Q 2075 4034 2000 4034 
Q 1919 4034 1784 3984 
L 1744 4094 
L 2597 4444 
L 2738 4444 
L 2738 1134 
Q 2738 631 2761 520 
Q 2784 409 2836 365 
Q 2888 322 2956 322 
Q 3041 322 3181 375 
L 3216 266 
L 2366 -88 
L 2222 -88 
L 2222 322 
z
M 2222 541 
L 2222 2016 
Q 2203 2228 2109 2403 
Q 2016 2578 1861 2667 
Q 1706 2756 1559 2756 
Q 1284 2756 1069 2509 
Q 784 2184 784 1559 
Q 784 928 1059 592 
Q 1334 256 1672 256 
Q 1956 256 2222 541 
z
" transform="scale(0.015625)"/>
       <path id="TimesNewRomanPSMT-74" d="M 1031 3803 
L 1031 2863 
L 1700 2863 
L 1700 2644 
L 1031 2644 
L 1031 788 
Q 1031 509 1111 412 
Q 1191 316 1316 316 
Q 1419 316 1516 380 
Q 1613 444 1666 569 
L 1788 569 
Q 1678 263 1478 108 
Q 1278 -47 1066 -47 
Q 922 -47 784 33 
Q 647 113 581 261 
Q 516 409 516 719 
L 516 2644 
L 63 2644 
L 63 2747 
Q 234 2816 414 2980 
Q 594 3144 734 3369 
Q 806 3488 934 3803 
L 1031 3803 
z
" transform="scale(0.015625)"/>
       <path id="TimesNewRomanPSMT-6f" d="M 1600 2947 
Q 2250 2947 2644 2453 
Q 2978 2031 2978 1484 
Q 2978 1100 2793 706 
Q 2609 313 2286 112 
Q 1963 -88 1566 -88 
Q 919 -88 538 428 
Q 216 863 216 1403 
Q 216 1797 411 2186 
Q 606 2575 925 2761 
Q 1244 2947 1600 2947 
z
M 1503 2744 
Q 1338 2744 1170 2645 
Q 1003 2547 900 2300 
Q 797 2053 797 1666 
Q 797 1041 1045 587 
Q 1294 134 1700 134 
Q 2003 134 2200 384 
Q 2397 634 2397 1244 
Q 2397 2006 2069 2444 
Q 1847 2744 1503 2744 
z
" transform="scale(0.015625)"/>
      </defs>
      <use xlink:href="#TimesNewRomanPSMT-44"/>
      <use xlink:href="#TimesNewRomanPSMT-4e" x="72.216797"/>
      <use xlink:href="#TimesNewRomanPSMT-4e" x="144.433594"/>
      <use xlink:href="#TimesNewRomanPSMT-20" x="216.650391"/>
      <use xlink:href="#TimesNewRomanPSMT-70" x="241.650391"/>
      <use xlink:href="#TimesNewRomanPSMT-72" x="291.650391"/>
      <use xlink:href="#TimesNewRomanPSMT-65" x="324.951172"/>
      <use xlink:href="#TimesNewRomanPSMT-64" x="369.335938"/>
      <use xlink:href="#TimesNewRomanPSMT-69" x="419.335938"/>
      <use xlink:href="#TimesNewRomanPSMT-63" x="447.119141"/>
      <use xlink:href="#TimesNewRomanPSMT-74" x="491.503906"/>
      <use xlink:href="#TimesNewRomanPSMT-69" x="519.287109"/>
      <use xlink:href="#TimesNewRomanPSMT-6f" x="547.070312"/>
      <use xlink:href="#TimesNewRomanPSMT-6e" x="597.070312"/>
     </g>
    </g>
    <g id="line2d_18">
     <path d="M 73.094062 46.896406 
L 82.094062 46.896406 
L 91.094062 46.896406 
" style="fill: none; stroke-dasharray: 3.7,1.6; stroke-dashoffset: 0; stroke: #000000"/>
    </g>
    <g id="text_11">
     <!-- Reference (5) -->
     <g transform="translate(98.294062 50.046406) scale(0.09 -0.09)">
      <defs>
       <path id="TimesNewRomanPSMT-66" d="M 1319 2638 
L 1319 756 
Q 1319 356 1406 250 
Q 1522 113 1716 113 
L 1975 113 
L 1975 0 
L 266 0 
L 266 113 
L 394 113 
Q 519 113 622 175 
Q 725 238 764 344 
Q 803 450 803 756 
L 803 2638 
L 247 2638 
L 247 2863 
L 803 2863 
L 803 3050 
Q 803 3478 940 3775 
Q 1078 4072 1361 4255 
Q 1644 4438 1997 4438 
Q 2325 4438 2600 4225 
Q 2781 4084 2781 3909 
Q 2781 3816 2700 3733 
Q 2619 3650 2525 3650 
Q 2453 3650 2373 3701 
Q 2294 3753 2178 3923 
Q 2063 4094 1966 4153 
Q 1869 4213 1750 4213 
Q 1606 4213 1506 4136 
Q 1406 4059 1362 3898 
Q 1319 3738 1319 3069 
L 1319 2863 
L 2056 2863 
L 2056 2638 
L 1319 2638 
z
" transform="scale(0.015625)"/>
      </defs>
      <use xlink:href="#TimesNewRomanPSMT-52"/>
      <use xlink:href="#TimesNewRomanPSMT-65" x="66.699219"/>
      <use xlink:href="#TimesNewRomanPSMT-66" x="111.083984"/>
      <use xlink:href="#TimesNewRomanPSMT-65" x="144.384766"/>
      <use xlink:href="#TimesNewRomanPSMT-72" x="188.769531"/>
      <use xlink:href="#TimesNewRomanPSMT-65" x="222.070312"/>
      <use xlink:href="#TimesNewRomanPSMT-6e" x="266.455078"/>
      <use xlink:href="#TimesNewRomanPSMT-63" x="316.455078"/>
      <use xlink:href="#TimesNewRomanPSMT-65" x="360.839844"/>
      <use xlink:href="#TimesNewRomanPSMT-20" x="405.224609"/>
      <use xlink:href="#TimesNewRomanPSMT-28" x="430.224609"/>
      <use xlink:href="#TimesNewRomanPSMT-35" x="463.525391"/>
      <use xlink:href="#TimesNewRomanPSMT-29" x="513.525391"/>
     </g>
    </g>
   </g>
  </g>
 </g>
 <defs>
  <clipPath id="p39b451fc9b">
   <rect x="64.994062" y="22.92125" width="248.688" height="210.33"/>
  </clipPath>
 </defs>
</svg>
