<?xml version="1.0" encoding="utf-8" standalone="no"?>
<!DOCTYPE svg PUBLIC "-//W3C//DTD SVG 1.1//EN"
  "http://www.w3.org/Graphics/SVG/1.1/DTD/svg11.dtd">
<svg xmlns:xlink="http://www.w3.org/1999/xlink" width="299.701875pt" height="252.003125pt" viewBox="0 0 299.701875 252.003125" xmlns="http://www.w3.org/2000/svg" version="1.1">
 <metadata>
  <rdf:RDF xmlns:dc="http://purl.org/dc/elements/1.1/" xmlns:cc="http://creativecommons.org/ns#" xmlns:rdf="http://www.w3.org/1999/02/22-rdf-syntax-ns#">
   <cc:Work>
    <dc:type rdf:resource="http://purl.org/dc/dcmitype/StillImage"/>
    <dc:date>2024-02-27T18:42:12.989519</dc:date>
    <dc:format>image/svg+xml</dc:format>
    <dc:creator>
     <cc:Agent>
      <dc:title>Matplotlib v3.7.1, https://matplotlib.org/</dc:title>
     </cc:Agent>
    </dc:creator>
   </cc:Work>
  </rdf:RDF>
 </metadata>
 <defs>
  <style type="text/css">*{stroke-linejoin: round; stroke-linecap: butt}</style>
 </defs>
 <g id="figure_1">
  <g id="patch_1">
   <path d="M 0 252.003125 
L 299.701875 252.003125 
L 299.701875 0 
L 0 0 
z
" style="fill: #ffffff"/>
  </g>
  <g id="axes_1">
   <g id="patch_2">
    <path d="M 57.324375 211.99875 
L 292.501875 211.99875 
L 292.501875 22.92125 
L 57.324375 22.92125 
z
" style="fill: #ffffff"/>
   </g>
   <g id="matplotlib.axis_1">
    <g id="xtick_1">
     <g id="line2d_1">
      <path d="M 96.311188 211.99875 
L 96.311188 22.92125 
" clip-path="url(#p127d3efabd)" style="fill: none; stroke-dasharray: 0.8,1.32; stroke-dashoffset: 0; stroke: #b0b0b0; stroke-width: 0.8"/>
     </g>
     <g id="line2d_2">
      <defs>
       <path id="mbcaa04327c" d="M 0 0 
L 0 3.5 
" style="stroke: #000000; stroke-width: 0.8"/>
      </defs>
      <g>
       <use xlink:href="#mbcaa04327c" x="96.311188" y="211.99875" style="stroke: #000000; stroke-width: 0.8"/>
      </g>
     </g>
     <g id="text_1">
      <!-- −50 -->
      <g transform="translate(86.343688 227.38375) scale(0.12 -0.12)">
       <defs>
        <path id="Cambria-2212" d="M 397 1613 
L 397 2047 
L 3147 2047 
L 3147 1613 
L 397 1613 
z
" transform="scale(0.015625)"/>
        <path id="Cambria-35" d="M 469 172 
L 469 834 
L 847 834 
Q 941 516 1130 366 
Q 1319 216 1619 216 
Q 2034 216 2246 466 
Q 2459 716 2459 1213 
Q 2459 1544 2346 1761 
Q 2234 1978 2043 2075 
Q 1853 2172 1600 2172 
Q 1388 2172 1234 2145 
Q 1081 2119 906 2063 
L 656 2209 
L 656 4266 
L 2378 4266 
Q 2484 4266 2531 4283 
Q 2578 4300 2606 4336 
Q 2634 4372 2672 4472 
L 2916 4472 
L 2869 3747 
L 1072 3747 
L 1072 2375 
Q 1234 2444 1425 2478 
Q 1616 2513 1806 2513 
Q 2178 2513 2465 2361 
Q 2753 2209 2909 1929 
Q 3066 1650 3066 1281 
Q 3066 863 2891 563 
Q 2716 263 2384 106 
Q 2053 -50 1600 -50 
Q 1059 -50 469 172 
z
" transform="scale(0.015625)"/>
        <path id="Cambria-30" d="M 1738 -50 
Q 1063 -50 733 481 
Q 403 1013 403 2094 
Q 403 2669 504 3087 
Q 606 3506 789 3779 
Q 972 4053 1228 4184 
Q 1484 4316 1788 4316 
Q 2472 4316 2806 3787 
Q 3141 3259 3141 2191 
Q 3141 1084 2783 517 
Q 2425 -50 1738 -50 
z
M 1013 2188 
Q 1013 1169 1202 692 
Q 1391 216 1788 216 
Q 2166 216 2348 664 
Q 2531 1113 2531 2053 
Q 2531 2772 2437 3217 
Q 2344 3663 2176 3856 
Q 2009 4050 1772 4050 
Q 1556 4050 1411 3922 
Q 1266 3794 1177 3553 
Q 1088 3313 1050 2967 
Q 1013 2622 1013 2188 
z
" transform="scale(0.015625)"/>
       </defs>
       <use xlink:href="#Cambria-2212"/>
       <use xlink:href="#Cambria-35" x="55.371094"/>
       <use xlink:href="#Cambria-30" x="110.742188"/>
      </g>
     </g>
    </g>
    <g id="xtick_2">
     <g id="line2d_3">
      <path d="M 174.91521 211.99875 
L 174.91521 22.92125 
" clip-path="url(#p127d3efabd)" style="fill: none; stroke-dasharray: 0.8,1.32; stroke-dashoffset: 0; stroke: #b0b0b0; stroke-width: 0.8"/>
     </g>
     <g id="line2d_4">
      <g>
       <use xlink:href="#mbcaa04327c" x="174.91521" y="211.99875" style="stroke: #000000; stroke-width: 0.8"/>
      </g>
     </g>
     <g id="text_2">
      <!-- 0 -->
      <g transform="translate(171.59271 227.38375) scale(0.12 -0.12)">
       <use xlink:href="#Cambria-30"/>
      </g>
     </g>
    </g>
    <g id="xtick_3">
     <g id="line2d_5">
      <path d="M 253.519232 211.99875 
L 253.519232 22.92125 
" clip-path="url(#p127d3efabd)" style="fill: none; stroke-dasharray: 0.8,1.32; stroke-dashoffset: 0; stroke: #b0b0b0; stroke-width: 0.8"/>
     </g>
     <g id="line2d_6">
      <g>
       <use xlink:href="#mbcaa04327c" x="253.519232" y="211.99875" style="stroke: #000000; stroke-width: 0.8"/>
      </g>
     </g>
     <g id="text_3">
      <!-- 50 -->
      <g transform="translate(246.874232 227.38375) scale(0.12 -0.12)">
       <use xlink:href="#Cambria-35"/>
       <use xlink:href="#Cambria-30" x="55.371094"/>
      </g>
     </g>
    </g>
    <g id="text_4">
     <!-- Displacement (mm) -->
     <g transform="translate(127.75875 242.23625) scale(0.12 -0.12)">
      <defs>
       <path id="TimesNewRomanPS-ItalicMT-44" d="M 938 4122 
L 975 4238 
L 2328 4238 
Q 3188 4238 3602 4041 
Q 4016 3844 4262 3420 
Q 4509 2997 4509 2513 
Q 4509 2097 4367 1705 
Q 4225 1313 4045 1077 
Q 3866 841 3494 556 
Q 3122 272 2687 136 
Q 2253 0 1603 0 
L -191 0 
L -150 116 
Q 97 122 181 159 
Q 306 213 366 303 
Q 456 434 569 831 
L 1319 3394 
Q 1406 3697 1406 3869 
Q 1406 3991 1325 4056 
Q 1244 4122 1006 4122 
L 938 4122 
z
M 2047 4003 
L 1128 831 
Q 1025 475 1025 391 
Q 1025 341 1058 294 
Q 1091 247 1147 231 
Q 1228 203 1409 203 
Q 1900 203 2320 304 
Q 2741 406 3009 606 
Q 3391 897 3619 1406 
Q 3847 1916 3847 2566 
Q 3847 3300 3497 3658 
Q 3147 4016 2475 4016 
Q 2309 4016 2047 4003 
z
" transform="scale(0.015625)"/>
       <path id="TimesNewRomanPS-ItalicMT-69" d="M 1431 4069 
Q 1563 4069 1653 3978 
Q 1744 3888 1744 3756 
Q 1744 3628 1651 3536 
Q 1559 3444 1431 3444 
Q 1303 3444 1211 3536 
Q 1119 3628 1119 3756 
Q 1119 3888 1209 3978 
Q 1300 4069 1431 4069 
z
M 1472 2828 
L 853 638 
Q 791 416 791 372 
Q 791 322 820 290 
Q 850 259 891 259 
Q 938 259 1003 309 
Q 1181 450 1363 709 
L 1472 638 
Q 1259 313 972 91 
Q 759 -75 566 -75 
Q 438 -75 356 1 
Q 275 78 275 194 
Q 275 309 353 578 
L 759 1978 
Q 859 2322 859 2409 
Q 859 2478 811 2522 
Q 763 2566 678 2566 
Q 609 2566 394 2531 
L 394 2653 
L 1472 2828 
z
" transform="scale(0.015625)"/>
       <path id="TimesNewRomanPS-ItalicMT-73" d="M 2322 2828 
L 2131 1869 
L 2016 1869 
Q 2000 2288 1837 2478 
Q 1675 2669 1434 2669 
Q 1241 2669 1127 2562 
Q 1013 2456 1013 2306 
Q 1013 2203 1058 2109 
Q 1103 2016 1256 1847 
Q 1663 1403 1781 1178 
Q 1900 953 1900 753 
Q 1900 428 1629 176 
Q 1359 -75 947 -75 
Q 722 -75 428 31 
Q 325 69 269 69 
Q 128 69 56 -75 
L -59 -75 
L 131 938 
L 247 938 
Q 266 463 444 266 
Q 622 69 931 69 
Q 1169 69 1308 201 
Q 1447 334 1447 528 
Q 1447 653 1397 759 
Q 1309 947 1029 1278 
Q 750 1609 670 1775 
Q 591 1941 591 2106 
Q 591 2409 811 2618 
Q 1031 2828 1378 2828 
Q 1478 2828 1559 2813 
Q 1603 2803 1764 2742 
Q 1925 2681 1978 2681 
Q 2113 2681 2203 2828 
L 2322 2828 
z
" transform="scale(0.015625)"/>
       <path id="TimesNewRomanPS-ItalicMT-70" d="M 1416 2828 
L 1200 2109 
Q 1541 2509 1808 2668 
Q 2075 2828 2353 2828 
Q 2631 2828 2828 2608 
Q 3025 2388 3025 2034 
Q 3025 1347 2465 636 
Q 1906 -75 1163 -75 
Q 1006 -75 886 -40 
Q 766 -6 616 81 
L 388 -725 
Q 319 -963 319 -1034 
Q 319 -1103 355 -1151 
Q 391 -1200 472 -1226 
Q 553 -1253 794 -1253 
L 766 -1369 
L -706 -1369 
L -675 -1253 
Q -384 -1241 -282 -1153 
Q -181 -1066 -69 -669 
L 722 2069 
Q 794 2328 794 2391 
Q 794 2475 745 2522 
Q 697 2569 597 2569 
Q 506 2569 344 2547 
L 344 2669 
L 1416 2828 
z
M 688 328 
Q 881 97 1209 97 
Q 1372 97 1540 187 
Q 1709 278 1870 456 
Q 2031 634 2159 867 
Q 2288 1100 2389 1415 
Q 2491 1731 2491 2041 
Q 2491 2291 2377 2423 
Q 2263 2556 2109 2556 
Q 1772 2556 1442 2168 
Q 1113 1781 959 1263 
L 688 328 
z
" transform="scale(0.015625)"/>
       <path id="TimesNewRomanPS-ItalicMT-6c" d="M 1903 4444 
L 834 725 
Q 756 447 756 384 
Q 756 338 786 306 
Q 816 275 859 275 
Q 919 275 988 328 
Q 1150 456 1328 725 
L 1422 628 
Q 1125 209 875 44 
Q 691 -75 525 -75 
Q 406 -75 326 6 
Q 247 88 247 194 
Q 247 306 347 656 
L 1194 3588 
Q 1297 3947 1297 4000 
Q 1297 4075 1237 4123 
Q 1178 4172 1053 4172 
Q 981 4172 834 4150 
L 834 4266 
L 1903 4444 
z
" transform="scale(0.015625)"/>
       <path id="TimesNewRomanPS-ItalicMT-61" d="M 3003 2828 
L 2394 709 
L 2325 425 
Q 2316 384 2316 356 
Q 2316 306 2347 269 
Q 2372 241 2409 241 
Q 2450 241 2516 291 
Q 2638 381 2841 666 
L 2947 591 
Q 2731 266 2503 95 
Q 2275 -75 2081 -75 
Q 1947 -75 1880 -8 
Q 1813 59 1813 188 
Q 1813 341 1881 591 
L 1947 825 
Q 1538 291 1194 78 
Q 947 -75 709 -75 
Q 481 -75 315 114 
Q 150 303 150 634 
Q 150 1131 448 1682 
Q 747 2234 1206 2566 
Q 1566 2828 1884 2828 
Q 2075 2828 2201 2728 
Q 2328 2628 2394 2397 
L 2506 2753 
L 3003 2828 
z
M 1891 2666 
Q 1691 2666 1466 2478 
Q 1147 2213 898 1691 
Q 650 1169 650 747 
Q 650 534 756 411 
Q 863 288 1000 288 
Q 1341 288 1741 791 
Q 2275 1459 2275 2163 
Q 2275 2428 2172 2547 
Q 2069 2666 1891 2666 
z
" transform="scale(0.015625)"/>
       <path id="TimesNewRomanPS-ItalicMT-63" d="M 2472 681 
Q 2147 291 1815 108 
Q 1484 -75 1116 -75 
Q 672 -75 423 175 
Q 175 425 175 847 
Q 175 1325 442 1787 
Q 709 2250 1161 2539 
Q 1613 2828 2047 2828 
Q 2388 2828 2556 2686 
Q 2725 2544 2725 2338 
Q 2725 2144 2606 2006 
Q 2519 1900 2391 1900 
Q 2294 1900 2230 1962 
Q 2166 2025 2166 2119 
Q 2166 2178 2189 2228 
Q 2213 2278 2286 2348 
Q 2359 2419 2375 2450 
Q 2391 2481 2391 2516 
Q 2391 2581 2331 2625 
Q 2241 2688 2075 2688 
Q 1769 2688 1469 2472 
Q 1169 2256 956 1859 
Q 700 1378 700 897 
Q 700 578 881 392 
Q 1063 206 1375 206 
Q 1616 206 1852 326 
Q 2088 447 2381 763 
L 2472 681 
z
" transform="scale(0.015625)"/>
       <path id="TimesNewRomanPS-ItalicMT-65" d="M 763 1178 
Q 741 1022 741 919 
Q 741 641 937 445 
Q 1134 250 1416 250 
Q 1641 250 1848 342 
Q 2056 434 2466 750 
L 2531 659 
Q 1791 -75 1119 -75 
Q 663 -75 431 212 
Q 200 500 200 847 
Q 200 1313 487 1800 
Q 775 2288 1209 2558 
Q 1644 2828 2103 2828 
Q 2434 2828 2593 2693 
Q 2753 2559 2753 2375 
Q 2753 2116 2547 1878 
Q 2275 1569 1747 1378 
Q 1397 1250 763 1178 
z
M 784 1331 
Q 1247 1384 1538 1513 
Q 1922 1684 2114 1923 
Q 2306 2163 2306 2378 
Q 2306 2509 2223 2590 
Q 2141 2672 1988 2672 
Q 1669 2672 1311 2333 
Q 953 1994 784 1331 
z
" transform="scale(0.015625)"/>
       <path id="TimesNewRomanPS-ItalicMT-6d" d="M 1388 2828 
L 981 1419 
Q 1253 1916 1444 2166 
Q 1741 2553 2022 2728 
Q 2188 2828 2369 2828 
Q 2525 2828 2628 2728 
Q 2731 2628 2731 2472 
Q 2731 2319 2659 2072 
L 2438 1278 
Q 2947 2231 3403 2616 
Q 3656 2828 3903 2828 
Q 4047 2828 4139 2729 
Q 4231 2631 4231 2425 
Q 4231 2244 4175 2041 
L 3831 825 
Q 3719 428 3719 384 
Q 3719 341 3747 309 
Q 3766 288 3797 288 
Q 3828 288 3906 347 
Q 4084 484 4241 709 
L 4344 644 
Q 4266 519 4067 300 
Q 3869 81 3728 3 
Q 3588 -75 3469 -75 
Q 3359 -75 3286 0 
Q 3213 75 3213 184 
Q 3213 334 3341 788 
L 3625 1791 
Q 3722 2138 3728 2175 
Q 3738 2234 3738 2291 
Q 3738 2369 3703 2413 
Q 3666 2456 3619 2456 
Q 3488 2456 3341 2322 
Q 2909 1925 2534 1209 
Q 2288 738 2072 0 
L 1600 0 
L 2134 1891 
Q 2222 2197 2222 2300 
Q 2222 2384 2187 2425 
Q 2153 2466 2103 2466 
Q 2000 2466 1884 2391 
Q 1697 2269 1401 1869 
Q 1106 1469 944 1103 
Q 866 931 572 0 
L 109 0 
L 688 2025 
L 763 2288 
Q 784 2347 784 2375 
Q 784 2444 721 2498 
Q 659 2553 563 2553 
Q 522 2553 338 2516 
L 309 2631 
L 1388 2828 
z
" transform="scale(0.015625)"/>
       <path id="TimesNewRomanPS-ItalicMT-6e" d="M 1413 2828 
L 997 1406 
Q 1581 2278 1892 2553 
Q 2203 2828 2491 2828 
Q 2647 2828 2748 2725 
Q 2850 2622 2850 2456 
Q 2850 2269 2759 1956 
L 2378 641 
Q 2313 413 2313 363 
Q 2313 319 2338 289 
Q 2363 259 2391 259 
Q 2428 259 2481 300 
Q 2647 431 2844 700 
L 2941 641 
Q 2650 225 2391 47 
Q 2209 -75 2066 -75 
Q 1950 -75 1881 -4 
Q 1813 66 1813 184 
Q 1813 334 1919 700 
L 2281 1956 
Q 2350 2191 2350 2322 
Q 2350 2384 2309 2423 
Q 2269 2463 2209 2463 
Q 2122 2463 2000 2388 
Q 1769 2247 1519 1923 
Q 1269 1600 991 1097 
Q 844 831 747 516 
L 591 0 
L 122 0 
L 691 1956 
Q 791 2309 791 2381 
Q 791 2450 736 2501 
Q 681 2553 600 2553 
Q 563 2553 469 2541 
L 350 2522 
L 331 2634 
L 1413 2828 
z
" transform="scale(0.015625)"/>
       <path id="TimesNewRomanPS-ItalicMT-74" d="M 1663 3603 
L 1419 2753 
L 1909 2753 
L 1856 2556 
L 1369 2556 
L 831 713 
Q 744 416 744 328 
Q 744 275 769 247 
Q 794 219 828 219 
Q 906 219 1034 328 
Q 1109 391 1369 713 
L 1472 634 
Q 1184 216 928 44 
Q 753 -75 575 -75 
Q 438 -75 350 11 
Q 263 97 263 231 
Q 263 400 363 747 
L 884 2556 
L 413 2556 
L 444 2678 
Q 788 2772 1016 2958 
Q 1244 3144 1525 3603 
L 1663 3603 
z
" transform="scale(0.015625)"/>
       <path id="TimesNewRomanPS-ItalicMT-20" transform="scale(0.015625)"/>
       <path id="TimesNewRomanPS-ItalicMT-28" d="M 1203 -1319 
L 1097 -1369 
Q 725 -659 563 -116 
Q 438 309 438 741 
Q 438 1747 903 2544 
Q 1475 3519 2756 4444 
L 2831 4334 
Q 2253 3906 1888 3375 
Q 1431 2713 1140 1775 
Q 850 838 850 69 
Q 850 -519 1203 -1319 
z
" transform="scale(0.015625)"/>
       <path id="TimesNewRomanPS-ItalicMT-29" d="M 931 4384 
L 1038 4444 
Q 1409 3738 1569 3194 
Q 1697 2769 1697 2338 
Q 1697 1328 1231 534 
Q 656 -444 -622 -1369 
L -697 -1272 
Q -119 -841 247 -313 
Q 703 350 993 1289 
Q 1284 2228 1284 2997 
Q 1284 3584 931 4384 
z
" transform="scale(0.015625)"/>
      </defs>
      <use xlink:href="#TimesNewRomanPS-ItalicMT-44"/>
      <use xlink:href="#TimesNewRomanPS-ItalicMT-69" x="72.216797"/>
      <use xlink:href="#TimesNewRomanPS-ItalicMT-73" x="100"/>
      <use xlink:href="#TimesNewRomanPS-ItalicMT-70" x="138.916016"/>
      <use xlink:href="#TimesNewRomanPS-ItalicMT-6c" x="188.916016"/>
      <use xlink:href="#TimesNewRomanPS-ItalicMT-61" x="216.699219"/>
      <use xlink:href="#TimesNewRomanPS-ItalicMT-63" x="266.699219"/>
      <use xlink:href="#TimesNewRomanPS-ItalicMT-65" x="311.083984"/>
      <use xlink:href="#TimesNewRomanPS-ItalicMT-6d" x="355.46875"/>
      <use xlink:href="#TimesNewRomanPS-ItalicMT-65" x="427.685547"/>
      <use xlink:href="#TimesNewRomanPS-ItalicMT-6e" x="472.070312"/>
      <use xlink:href="#TimesNewRomanPS-ItalicMT-74" x="522.070312"/>
      <use xlink:href="#TimesNewRomanPS-ItalicMT-20" x="549.853516"/>
      <use xlink:href="#TimesNewRomanPS-ItalicMT-28" x="574.853516"/>
      <use xlink:href="#TimesNewRomanPS-ItalicMT-6d" x="608.154297"/>
      <use xlink:href="#TimesNewRomanPS-ItalicMT-6d" x="680.371094"/>
      <use xlink:href="#TimesNewRomanPS-ItalicMT-29" x="752.587891"/>
     </g>
    </g>
   </g>
   <g id="matplotlib.axis_2">
    <g id="ytick_1">
     <g id="line2d_7">
      <path d="M 57.324375 198.075604 
L 292.501875 198.075604 
" clip-path="url(#p127d3efabd)" style="fill: none; stroke-dasharray: 0.8,1.32; stroke-dashoffset: 0; stroke: #b0b0b0; stroke-width: 0.8"/>
     </g>
     <g id="line2d_8">
      <defs>
       <path id="m83f3e99bf0" d="M 0 0 
L -3.5 0 
" style="stroke: #000000; stroke-width: 0.8"/>
      </defs>
      <g>
       <use xlink:href="#m83f3e99bf0" x="57.324375" y="198.075604" style="stroke: #000000; stroke-width: 0.8"/>
      </g>
     </g>
     <g id="text_5">
      <!-- −2000 -->
      <g transform="translate(17.099375 202.268104) scale(0.12 -0.12)">
       <defs>
        <path id="Cambria-32" d="M 2194 500 
Q 2347 500 2440 519 
Q 2534 538 2590 581 
Q 2647 625 2680 695 
Q 2713 766 2763 913 
L 3028 913 
L 2975 0 
L 403 0 
L 403 150 
Q 538 478 766 822 
Q 994 1166 1413 1631 
Q 1775 2031 1934 2238 
Q 2109 2463 2195 2627 
Q 2281 2791 2318 2936 
Q 2356 3081 2356 3228 
Q 2356 3463 2281 3642 
Q 2206 3822 2051 3925 
Q 1897 4028 1663 4028 
Q 1078 4028 875 3378 
L 497 3378 
L 497 3978 
Q 875 4156 1204 4236 
Q 1534 4316 1797 4316 
Q 2378 4316 2675 4061 
Q 2972 3806 2972 3322 
Q 2972 3156 2939 3017 
Q 2906 2878 2836 2742 
Q 2766 2606 2647 2450 
Q 2528 2294 2384 2133 
Q 2241 1972 1888 1597 
Q 1294 969 1016 500 
L 2194 500 
z
" transform="scale(0.015625)"/>
       </defs>
       <use xlink:href="#Cambria-2212"/>
       <use xlink:href="#Cambria-32" x="55.371094"/>
       <use xlink:href="#Cambria-30" x="110.742188"/>
       <use xlink:href="#Cambria-30" x="166.113281"/>
       <use xlink:href="#Cambria-30" x="221.484375"/>
      </g>
     </g>
    </g>
    <g id="ytick_2">
     <g id="line2d_9">
      <path d="M 57.324375 157.785664 
L 292.501875 157.785664 
" clip-path="url(#p127d3efabd)" style="fill: none; stroke-dasharray: 0.8,1.32; stroke-dashoffset: 0; stroke: #b0b0b0; stroke-width: 0.8"/>
     </g>
     <g id="line2d_10">
      <g>
       <use xlink:href="#m83f3e99bf0" x="57.324375" y="157.785664" style="stroke: #000000; stroke-width: 0.8"/>
      </g>
     </g>
     <g id="text_6">
      <!-- −1000 -->
      <g transform="translate(17.099375 161.978164) scale(0.12 -0.12)">
       <defs>
        <path id="Cambria-31" d="M 2172 816 
Q 2172 634 2192 542 
Q 2213 450 2264 392 
Q 2316 334 2412 301 
Q 2509 269 2656 251 
Q 2803 234 3044 228 
L 3044 0 
L 734 0 
L 734 228 
Q 1081 244 1229 270 
Q 1378 297 1456 350 
Q 1534 403 1570 500 
Q 1606 597 1606 816 
L 1606 3350 
Q 1606 3475 1562 3533 
Q 1519 3591 1434 3591 
Q 1334 3591 1150 3487 
Q 966 3384 694 3203 
L 556 3444 
L 2019 4316 
L 2191 4316 
Q 2172 4016 2172 3484 
L 2172 816 
z
" transform="scale(0.015625)"/>
       </defs>
       <use xlink:href="#Cambria-2212"/>
       <use xlink:href="#Cambria-31" x="55.371094"/>
       <use xlink:href="#Cambria-30" x="110.742188"/>
       <use xlink:href="#Cambria-30" x="166.113281"/>
       <use xlink:href="#Cambria-30" x="221.484375"/>
      </g>
     </g>
    </g>
    <g id="ytick_3">
     <g id="line2d_11">
      <path d="M 57.324375 117.495723 
L 292.501875 117.495723 
" clip-path="url(#p127d3efabd)" style="fill: none; stroke-dasharray: 0.8,1.32; stroke-dashoffset: 0; stroke: #b0b0b0; stroke-width: 0.8"/>
     </g>
     <g id="line2d_12">
      <g>
       <use xlink:href="#m83f3e99bf0" x="57.324375" y="117.495723" style="stroke: #000000; stroke-width: 0.8"/>
      </g>
     </g>
     <g id="text_7">
      <!-- 0 -->
      <g transform="translate(43.679375 121.688223) scale(0.12 -0.12)">
       <use xlink:href="#Cambria-30"/>
      </g>
     </g>
    </g>
    <g id="ytick_4">
     <g id="line2d_13">
      <path d="M 57.324375 77.205783 
L 292.501875 77.205783 
" clip-path="url(#p127d3efabd)" style="fill: none; stroke-dasharray: 0.8,1.32; stroke-dashoffset: 0; stroke: #b0b0b0; stroke-width: 0.8"/>
     </g>
     <g id="line2d_14">
      <g>
       <use xlink:href="#m83f3e99bf0" x="57.324375" y="77.205783" style="stroke: #000000; stroke-width: 0.8"/>
      </g>
     </g>
     <g id="text_8">
      <!-- 1000 -->
      <g transform="translate(23.744375 81.398283) scale(0.12 -0.12)">
       <use xlink:href="#Cambria-31"/>
       <use xlink:href="#Cambria-30" x="55.371094"/>
       <use xlink:href="#Cambria-30" x="110.742188"/>
       <use xlink:href="#Cambria-30" x="166.113281"/>
      </g>
     </g>
    </g>
    <g id="ytick_5">
     <g id="line2d_15">
      <path d="M 57.324375 36.915842 
L 292.501875 36.915842 
" clip-path="url(#p127d3efabd)" style="fill: none; stroke-dasharray: 0.8,1.32; stroke-dashoffset: 0; stroke: #b0b0b0; stroke-width: 0.8"/>
     </g>
     <g id="line2d_16">
      <g>
       <use xlink:href="#m83f3e99bf0" x="57.324375" y="36.915842" style="stroke: #000000; stroke-width: 0.8"/>
      </g>
     </g>
     <g id="text_9">
      <!-- 2000 -->
      <g transform="translate(23.744375 41.108342) scale(0.12 -0.12)">
       <use xlink:href="#Cambria-32"/>
       <use xlink:href="#Cambria-30" x="55.371094"/>
       <use xlink:href="#Cambria-30" x="110.742188"/>
       <use xlink:href="#Cambria-30" x="166.113281"/>
      </g>
     </g>
    </g>
    <g id="text_10">
     <!-- Base Shear (kN) -->
     <g transform="translate(15.5325 156.783437) rotate(-90) scale(0.12 -0.12)">
      <defs>
       <path id="TimesNewRomanPS-ItalicMT-42" d="M 947 4122 
L 991 4238 
L 2503 4238 
Q 2884 4238 3182 4119 
Q 3481 4000 3629 3787 
Q 3778 3575 3778 3338 
Q 3778 2972 3514 2676 
Q 3250 2381 2653 2241 
Q 3038 2097 3219 1859 
Q 3400 1622 3400 1338 
Q 3400 1022 3237 734 
Q 3075 447 2820 287 
Q 2566 128 2206 53 
Q 1950 0 1406 0 
L -147 0 
L -106 116 
Q 138 122 225 163 
Q 350 216 403 303 
Q 478 422 603 847 
L 1363 3413 
Q 1459 3738 1459 3869 
Q 1459 3984 1373 4051 
Q 1288 4119 1047 4119 
Q 994 4119 947 4122 
z
M 1581 2363 
Q 1784 2356 1875 2356 
Q 2525 2356 2842 2639 
Q 3159 2922 3159 3347 
Q 3159 3669 2965 3848 
Q 2772 4028 2347 4028 
Q 2234 4028 2059 3991 
L 1581 2363 
z
M 966 275 
Q 1303 231 1494 231 
Q 1981 231 2357 525 
Q 2734 819 2734 1322 
Q 2734 1706 2501 1922 
Q 2269 2138 1750 2138 
Q 1650 2138 1506 2128 
L 966 275 
z
" transform="scale(0.015625)"/>
       <path id="TimesNewRomanPS-ItalicMT-53" d="M 44 -97 
L 394 1475 
L 500 1475 
Q 478 1247 478 1097 
Q 478 669 751 400 
Q 1025 131 1466 131 
Q 1875 131 2087 382 
Q 2300 634 2300 963 
Q 2300 1175 2203 1350 
Q 2056 1609 1419 2263 
Q 1109 2575 1022 2728 
Q 878 2981 878 3259 
Q 878 3703 1209 4018 
Q 1541 4334 2059 4334 
Q 2234 4334 2391 4300 
Q 2488 4281 2744 4175 
Q 2925 4103 2944 4097 
Q 2988 4088 3041 4088 
Q 3131 4088 3197 4134 
Q 3263 4181 3350 4334 
L 3469 4334 
L 3144 2928 
L 3038 2928 
Q 3050 3116 3050 3231 
Q 3050 3609 2800 3850 
Q 2550 4091 2141 4091 
Q 1816 4091 1612 3900 
Q 1409 3709 1409 3459 
Q 1409 3241 1539 3042 
Q 1669 2844 2136 2395 
Q 2603 1947 2740 1695 
Q 2878 1444 2878 1159 
Q 2878 838 2708 536 
Q 2538 234 2219 68 
Q 1900 -97 1522 -97 
Q 1334 -97 1171 -62 
Q 1009 -28 653 106 
Q 531 153 450 153 
Q 266 153 163 -97 
L 44 -97 
z
" transform="scale(0.015625)"/>
       <path id="TimesNewRomanPS-ItalicMT-68" d="M 1878 4444 
L 1000 1409 
Q 1569 2266 1887 2547 
Q 2206 2828 2497 2828 
Q 2647 2828 2747 2725 
Q 2847 2622 2847 2450 
Q 2847 2244 2759 1950 
L 2378 641 
Q 2306 403 2306 378 
Q 2306 334 2332 306 
Q 2359 278 2394 278 
Q 2434 278 2488 319 
Q 2666 456 2841 700 
L 2938 641 
Q 2831 475 2642 276 
Q 2453 78 2317 1 
Q 2181 -75 2075 -75 
Q 1959 -75 1886 -1 
Q 1813 72 1813 188 
Q 1813 325 1922 700 
L 2281 1950 
Q 2350 2184 2350 2319 
Q 2350 2381 2311 2418 
Q 2272 2456 2209 2456 
Q 2119 2456 2003 2388 
Q 1791 2256 1513 1900 
Q 1438 1803 1013 1119 
Q 881 900 797 641 
L 597 0 
L 128 0 
L 1156 3575 
L 1266 3963 
Q 1266 4044 1198 4106 
Q 1131 4169 1034 4169 
Q 978 4169 863 4150 
L 797 4141 
L 797 4263 
L 1878 4444 
z
" transform="scale(0.015625)"/>
       <path id="TimesNewRomanPS-ItalicMT-72" d="M 334 2653 
L 1413 2828 
L 963 1309 
Q 1509 2244 1956 2616 
Q 2209 2828 2369 2828 
Q 2472 2828 2531 2767 
Q 2591 2706 2591 2591 
Q 2591 2384 2484 2197 
Q 2409 2056 2269 2056 
Q 2197 2056 2145 2103 
Q 2094 2150 2081 2247 
Q 2075 2306 2053 2325 
Q 2028 2350 1994 2350 
Q 1941 2350 1894 2325 
Q 1813 2281 1647 2081 
Q 1388 1775 1084 1288 
Q 953 1081 859 822 
Q 728 466 709 394 
L 609 0 
L 131 0 
L 709 1941 
Q 809 2278 809 2422 
Q 809 2478 763 2516 
Q 700 2566 597 2566 
Q 531 2566 356 2538 
L 334 2653 
z
" transform="scale(0.015625)"/>
       <path id="TimesNewRomanPS-ItalicMT-6b" d="M 1831 4444 
L 944 1372 
L 1300 1675 
Q 1884 2169 2059 2406 
Q 2116 2484 2116 2525 
Q 2116 2553 2097 2578 
Q 2078 2603 2023 2618 
Q 1969 2634 1831 2634 
L 1722 2634 
L 1756 2753 
L 3122 2753 
L 3091 2634 
Q 2856 2622 2686 2561 
Q 2516 2500 2356 2381 
Q 2041 2147 1941 2056 
L 1672 1819 
Q 1741 1594 1841 1191 
Q 2009 522 2069 397 
Q 2128 272 2191 272 
Q 2244 272 2316 325 
Q 2478 444 2663 703 
L 2772 625 
Q 2431 197 2250 61 
Q 2069 -75 1919 -75 
Q 1788 -75 1716 28 
Q 1591 213 1300 1481 
L 872 1109 
L 550 0 
L 63 0 
L 1100 3566 
L 1188 3869 
Q 1203 3947 1203 4006 
Q 1203 4081 1145 4131 
Q 1088 4181 978 4181 
Q 906 4181 750 4150 
L 750 4259 
L 1831 4444 
z
" transform="scale(0.015625)"/>
       <path id="TimesNewRomanPS-ItalicMT-4e" d="M 1834 4238 
L 3144 916 
L 3853 3397 
Q 3941 3703 3941 3872 
Q 3941 3988 3859 4053 
Q 3778 4119 3556 4119 
Q 3519 4119 3478 4122 
L 3513 4238 
L 4875 4238 
L 4838 4122 
Q 4625 4125 4522 4078 
Q 4375 4013 4303 3909 
Q 4203 3763 4100 3397 
L 3103 -97 
L 2991 -97 
L 1581 3478 
L 828 838 
Q 744 538 744 378 
Q 744 259 820 198 
Q 897 138 1184 116 
L 1153 0 
L -178 0 
L -134 116 
Q 116 122 200 159 
Q 328 216 391 306 
Q 481 444 594 838 
L 1434 3784 
Q 1313 3972 1173 4042 
Q 1034 4113 741 4122 
L 775 4238 
L 1834 4238 
z
" transform="scale(0.015625)"/>
      </defs>
      <use xlink:href="#TimesNewRomanPS-ItalicMT-42"/>
      <use xlink:href="#TimesNewRomanPS-ItalicMT-61" x="61.083984"/>
      <use xlink:href="#TimesNewRomanPS-ItalicMT-73" x="111.083984"/>
      <use xlink:href="#TimesNewRomanPS-ItalicMT-65" x="150"/>
      <use xlink:href="#TimesNewRomanPS-ItalicMT-20" x="194.384766"/>
      <use xlink:href="#TimesNewRomanPS-ItalicMT-53" x="219.384766"/>
      <use xlink:href="#TimesNewRomanPS-ItalicMT-68" x="269.384766"/>
      <use xlink:href="#TimesNewRomanPS-ItalicMT-65" x="319.384766"/>
      <use xlink:href="#TimesNewRomanPS-ItalicMT-61" x="363.769531"/>
      <use xlink:href="#TimesNewRomanPS-ItalicMT-72" x="413.769531"/>
      <use xlink:href="#TimesNewRomanPS-ItalicMT-20" x="452.685547"/>
      <use xlink:href="#TimesNewRomanPS-ItalicMT-28" x="477.685547"/>
      <use xlink:href="#TimesNewRomanPS-ItalicMT-6b" x="510.986328"/>
      <use xlink:href="#TimesNewRomanPS-ItalicMT-4e" x="555.371094"/>
      <use xlink:href="#TimesNewRomanPS-ItalicMT-29" x="622.070312"/>
     </g>
    </g>
   </g>
   <g id="line2d_17">
    <path d="M 176.24886 88.808784 
L 177.572321 79.389309 
L 178.875478 74.087793 
L 180.148376 73.487781 
L 181.381287 71.954619 
L 182.564792 70.797764 
L 183.689848 69.954838 
L 184.747858 68.818344 
L 189.2785 66.071757 
L 190.132595 65.21681 
L 190.186774 65.607178 
L 189.945546 69.476763 
L 188.730151 85.857858 
L 187.386894 100.862892 
L 186.569565 108.274329 
L 185.663187 115.290649 
L 184.674685 121.738391 
L 183.611611 127.181964 
L 182.48209 131.151076 
L 181.294751 134.055313 
L 180.058667 136.356139 
L 178.783282 138.253871 
L 176.153817 141.401606 
L 173.486568 144.372746 
L 172.164224 146.174931 
L 170.862901 148.559599 
L 168.362849 156.283777 
L 167.183224 158.610267 
L 166.062678 160.221538 
L 164.032554 162.335078 
L 161.626454 164.553621 
L 159.690089 166.233316 
L 159.644242 166.387773 
L 161.141193 146.765027 
L 162.498816 131.401587 
L 163.322721 124.257815 
L 164.235203 118.662877 
L 165.229289 114.07544 
L 166.297385 110.002279 
L 167.431328 106.480138 
L 168.622454 103.452027 
L 169.861663 100.932396 
L 171.139485 98.823224 
L 172.446157 97.080624 
L 175.296729 93.973596 
L 177.962364 90.646243 
L 180.604716 86.659565 
L 185.739145 76.99144 
L 188.191989 73.528868 
L 190.543388 70.91253 
L 192.775373 68.845999 
L 196.81393 65.573656 
L 200.184465 63.271685 
L 202.784157 61.780529 
L 204.533704 60.962917 
L 205.379736 60.235686 
L 205.454764 59.945173 
L 203.44233 86.247004 
L 202.380321 97.11304 
L 201.108454 107.139608 
L 199.636448 115.181636 
L 197.97555 120.724829 
L 196.138451 125.112546 
L 194.139188 128.779119 
L 191.993037 131.789916 
L 189.716396 134.285719 
L 187.326661 136.360422 
L 184.842092 138.176175 
L 179.664967 141.511907 
L 171.678304 146.443591 
L 169.03839 148.288633 
L 166.443381 150.9769 
L 161.466892 159.254029 
L 159.123437 162.31509 
L 156.900646 164.539959 
L 154.815501 166.235003 
L 151.120709 168.728199 
L 144.728823 172.866058 
L 144.37923 173.503305 
L 144.961142 164.603595 
L 146.456806 146.383227 
L 147.534093 135.41967 
L 148.820596 125.935766 
L 150.306485 119.158009 
L 151.980406 113.774163 
L 153.82957 109.420691 
L 155.839846 105.923673 
L 157.995874 102.952626 
L 160.281181 100.385907 
L 162.678305 98.135921 
L 165.168929 96.149806 
L 167.734023 94.409732 
L 170.353988 92.856907 
L 176.059678 89.672829 
L 180.055008 87.020642 
L 184.011066 83.956561 
L 187.897623 80.057127 
L 191.684984 74.838296 
L 195.344209 70.427025 
L 198.847338 67.098934 
L 202.167605 64.58521 
L 208.159663 60.747647 
L 213.137596 57.896897 
L 216.94955 56.008184 
L 219.479242 54.91918 
L 220.712032 53.961969 
L 218.811493 78.575119 
L 217.498078 91.911663 
L 215.859292 104.146177 
L 213.907658 113.242745 
L 211.658087 119.248411 
L 209.127768 123.822052 
L 206.336036 127.58853 
L 203.304221 130.737309 
L 200.055489 133.426318 
L 196.614663 135.710042 
L 193.008034 137.70777 
L 185.408656 141.34632 
L 173.484709 146.947938 
L 169.491174 148.935965 
L 165.539083 151.253829 
L 161.658634 154.459826 
L 157.879476 158.895526 
L 154.230487 163.367444 
L 150.739547 166.824849 
L 147.43333 169.470952 
L 144.337099 171.527425 
L 138.86744 174.659201 
L 129.551933 179.937616 
L 129.164841 180.623396 
L 129.127323 180.444963 
L 130.099478 166.876928 
L 131.101724 154.868305 
L 132.438742 141.149784 
L 134.100319 129.230146 
L 136.073756 120.968335 
L 138.343977 114.981335 
L 140.893634 110.46248 
L 143.703245 106.966246 
L 146.751343 103.916737 
L 150.014638 101.175175 
L 153.468195 98.7073 
L 157.085625 96.426462 
L 160.83929 94.268668 
L 164.700507 92.245931 
L 168.639773 90.375493 
L 177.203848 86.517493 
L 182.525961 83.799092 
L 187.789921 80.844143 
L 192.955507 76.72821 
L 197.983249 71.033228 
L 202.834731 66.144748 
L 207.472884 62.479465 
L 211.862267 59.770335 
L 223.213441 53.795862 
L 228.984195 51.006255 
L 234.506368 48.637928 
L 235.451839 48.084767 
L 235.934757 47.561785 
L 235.951432 48.40749 
L 234.589108 67.465547 
L 233.220518 82.583462 
L 231.406424 97.10877 
L 229.160688 108.137376 
L 226.500469 115.432229 
L 223.446094 120.572068 
L 220.0209 124.739464 
L 216.251059 128.247301 
L 212.165376 131.356687 
L 207.79507 134.095008 
L 203.173532 136.508338 
L 198.336076 138.686115 
L 188.162626 142.790903 
L 172.245358 149.201192 
L 166.926054 151.598905 
L 161.667794 154.601932 
L 156.510756 158.65174 
L 146.656888 168.197677 
L 142.03535 171.838492 
L 137.665044 174.680472 
L 133.579361 176.903486 
L 118.423996 184.330572 
L 114.328683 186.413791 
L 113.878988 187.027618 
L 113.895663 186.343785 
L 114.378581 179.113807 
L 115.324052 166.980943 
L 116.724851 151.566337 
L 118.570276 136.711957 
L 120.846225 126.069369 
L 123.535308 118.948047 
L 126.616979 113.87686 
L 130.067691 110.078934 
L 133.861077 106.792799 
L 137.968153 103.713231 
L 142.357536 100.866369 
L 146.995689 98.23902 
L 151.847171 95.783877 
L 156.874913 93.398345 
L 162.040499 91.082834 
L 167.304459 88.891813 
L 178.728912 84.398929 
L 185.374272 81.500714 
L 191.939716 78.234371 
L 198.375077 73.3526 
L 204.631185 67.201247 
L 210.660236 62.076049 
L 216.416164 58.145852 
L 221.854988 55.261866 
L 231.617837 50.651987 
L 239.650966 46.796325 
L 245.709323 44.309627 
L 247.937688 43.471486 
L 250.707787 42.202175 
L 251.228355 41.466953 
L 251.165824 43.360983 
L 250.520672 52.435299 
L 249.297828 67.732517 
L 247.506636 84.928423 
L 245.160781 99.149433 
L 242.278189 108.935257 
L 238.880884 115.363158 
L 234.994826 120.23594 
L 230.649707 124.237497 
L 225.878728 127.773909 
L 220.718343 130.993906 
L 215.207982 133.914041 
L 209.389749 136.576481 
L 203.3081 139.049664 
L 190.542089 143.79794 
L 170.625269 151.08859 
L 163.983939 153.914465 
L 157.426133 157.619099 
L 151.001959 162.405339 
L 138.749455 172.515109 
L 133.014746 176.387685 
L 127.600192 179.414988 
L 117.89428 183.765667 
L 101.754738 190.958976 
L 99.066172 192.147711 
L 98.587174 192.719187 
L 99.378021 180.911967 
L 100.641824 165.707988 
L 102.47314 148.355654 
L 104.857976 134.243089 
L 107.778112 124.98856 
L 111.211233 118.783815 
L 115.131109 114.361985 
L 119.507788 110.738803 
L 124.307828 107.303174 
L 129.494552 104.009502 
L 135.02833 100.908951 
L 140.866879 98.058344 
L 146.965587 95.403751 
L 159.75545 90.264597 
L 166.34888 87.851131 
L 180.634425 82.914282 
L 188.598875 79.666973 
L 196.45877 75.684675 
L 204.154053 69.736966 
L 211.625927 63.348178 
L 218.817298 58.134653 
L 225.673218 54.052012 
L 232.141304 51.046147 
L 238.172131 48.501049 
L 248.741384 43.532201 
L 253.199051 41.603935 
L 257.058561 40.096057 
L 262.869945 38.007954 
L 265.998259 36.852471 
L 266.523149 35.848291 
L 266.348074 39.507358 
L 265.474372 51.650885 
L 263.908719 69.314945 
L 261.663078 87.375356 
L 258.754606 100.162492 
L 255.205529 108.708432 
L 251.042963 114.604586 
L 246.298714 119.276905 
L 241.009033 123.248799 
L 235.214337 126.902576 
L 228.958903 130.237557 
L 222.290528 133.303626 
L 215.260164 136.195158 
L 207.92153 138.994673 
L 192.545669 144.522476 
L 176.63199 150.106896 
L 168.624933 152.866052 
L 160.66594 156.183408 
L 152.815823 160.62756 
L 145.134565 166.012818 
L 130.511653 176.654306 
L 123.68173 180.733406 
L 117.243276 183.832028 
L 100.751495 190.296788 
L 84.942891 197.03593 
L 83.771511 197.368706 
L 83.296548 197.939311 
L 83.521633 195.318129 
L 84.445044 182.337656 
L 86.059727 165.256202 
L 88.353344 147.159507 
L 91.308368 134.089225 
L 94.902223 125.546123 
L 99.107446 119.864416 
L 103.891908 115.603441 
L 109.219049 111.826278 
L 115.048167 108.115918 
L 121.334721 104.509306 
L 128.030677 101.118033 
L 135.084872 98.016637 
L 142.443406 95.129123 
L 157.846691 89.481914 
L 165.773747 86.817567 
L 173.770653 84.439398 
L 182.919819 81.5647 
L 192.198583 77.906961 
L 201.345287 73.137772 
L 210.290042 66.276738 
L 218.964502 59.772519 
L 227.302387 54.460331 
L 235.239988 50.274239 
L 249.675259 44.347162 
L 256.062631 41.42354 
L 261.829966 38.916185 
L 266.933197 36.936056 
L 271.333329 35.443218 
L 280.007289 32.786005 
L 281.316137 32.229048 
L 281.811989 31.515682 
L 281.491056 37.451199 
L 280.35579 52.425167 
L 278.414866 72.177458 
L 275.683114 89.414724 
L 272.181407 100.500396 
L 267.936501 107.950981 
L 262.98083 113.538776 
L 257.352262 118.050729 
L 251.093802 122.121009 
L 244.253271 125.957864 
L 236.882937 129.426634 
L 229.039115 132.587484 
L 212.173902 138.726493 
L 194.172109 145.136577 
L 184.915701 148.349457 
L 166.24496 154.620538 
L 156.973287 158.585194 
L 147.838705 163.920102 
L 121.94705 180.900419 
L 114.040401 184.991845 
L 106.598888 187.956736 
L 93.334724 192.49563 
L 82.559182 196.870255 
L 69.702859 202.027451 
L 68.451823 202.200749 
L 68.014261 202.972937 
L 69.58669 182.120803 
L 71.584666 164.481201 
L 74.372178 146.593566 
L 77.927926 134.860396 
L 82.224743 126.721058 
L 87.229795 121.317288 
L 92.904841 116.957308 
L 99.206518 112.915716 
L 106.086676 108.8945 
L 113.492744 104.976669 
L 121.368133 101.339425 
L 129.652669 98.005669 
L 138.283051 94.865045 
L 138.283051 94.865045 
" clip-path="url(#p127d3efabd)" style="fill: none; stroke: #0000ff; stroke-width: 0.8; stroke-linecap: square"/>
   </g>
   <g id="line2d_18">
    <path d="M 176.24886 88.839138 
L 177.572321 78.019593 
L 178.875478 74.673369 
L 180.148376 72.92865 
L 182.564792 70.637871 
L 184.747858 68.8914 
L 190.186774 65.541668 
L 188.730151 86.713761 
L 187.386894 101.997622 
L 186.569565 109.744028 
L 185.663187 117.225942 
L 184.674685 123.448321 
L 183.611611 128.334257 
L 182.48209 132.09332 
L 181.294751 134.793368 
L 180.058667 137.272592 
L 177.478342 141.598057 
L 176.153817 143.293862 
L 173.486568 145.79459 
L 172.164224 146.843341 
L 170.862901 150.147651 
L 169.59254 154.28772 
L 168.362849 157.134131 
L 167.183224 159.238167 
L 165.009773 162.066137 
L 163.138488 163.987504 
L 160.519795 166.214522 
L 159.644242 166.878754 
L 161.141193 145.550935 
L 162.498816 130.09452 
L 163.322721 122.964266 
L 164.235203 117.705437 
L 165.229289 113.137484 
L 166.297385 109.182296 
L 167.431328 105.871071 
L 168.622454 103.038108 
L 169.861663 100.607801 
L 171.139485 98.523732 
L 173.771694 94.934139 
L 175.296729 93.174381 
L 177.962364 90.36799 
L 180.604716 86.757944 
L 183.203596 81.555673 
L 185.739145 76.91215 
L 188.191989 73.405822 
L 190.543388 70.793094 
L 192.775373 68.724819 
L 194.870891 67.022847 
L 198.589644 64.386144 
L 202.784157 61.822494 
L 205.454764 60.332037 
L 204.286367 76.906222 
L 203.44233 87.231949 
L 202.380321 98.020079 
L 201.108454 108.053282 
L 199.636448 116.058843 
L 197.97555 121.428521 
L 196.138451 125.695394 
L 194.139188 129.159372 
L 191.993037 132.022205 
L 189.716396 134.436497 
L 187.326661 136.537793 
L 184.842092 138.422447 
L 182.281672 140.133999 
L 179.664967 141.696689 
L 174.34295 144.433585 
L 171.678304 145.687306 
L 169.03839 147.190105 
L 166.443381 149.606847 
L 161.466892 158.439494 
L 159.123437 161.757939 
L 156.900646 164.308146 
L 154.815501 166.321818 
L 151.120709 169.291958 
L 148.151771 171.349018 
L 144.37923 173.677757 
L 145.596965 156.502901 
L 146.456806 146.11692 
L 147.534093 135.382727 
L 148.820596 125.683833 
L 150.306485 118.995065 
L 151.980406 113.7649 
L 153.82957 109.436572 
L 155.839846 105.896881 
L 157.995874 102.95171 
L 160.281181 100.438603 
L 162.678305 98.251525 
L 165.168929 96.272452 
L 167.734023 94.426507 
L 170.353988 92.695711 
L 173.008805 91.090094 
L 176.059678 89.411021 
L 180.055008 87.347669 
L 184.011066 84.761218 
L 187.897623 80.160481 
L 191.684984 74.710234 
L 195.344209 70.33524 
L 198.847338 67.099443 
L 202.167605 64.559734 
L 205.27964 62.469062 
L 210.785671 59.207257 
L 216.94955 55.985962 
L 220.712032 54.171549 
L 219.789503 67.385703 
L 218.811493 79.682828 
L 217.498078 92.916087 
L 215.859292 104.814967 
L 213.907658 113.902436 
L 211.658087 119.527499 
L 209.127768 123.894434 
L 206.336036 127.438726 
L 203.304221 130.422494 
L 200.055489 133.03175 
L 196.614663 135.37201 
L 193.008034 137.527025 
L 189.263161 139.528719 
L 185.408656 141.380589 
L 181.473973 143.070521 
L 173.484709 146.143748 
L 169.491174 147.901934 
L 165.539083 150.215257 
L 161.658634 153.6798 
L 157.879476 158.97127 
L 154.230487 163.63434 
L 150.739547 167.094822 
L 147.43333 169.784897 
L 144.337099 171.969526 
L 138.86744 175.330164 
L 132.767867 178.602701 
L 129.127323 180.402371 
L 130.099478 166.505672 
L 131.101724 154.022121 
L 132.438742 140.77706 
L 134.100319 129.063788 
L 136.073756 120.769001 
L 138.343977 115.203565 
L 140.893634 110.762897 
L 143.703245 107.140713 
L 146.751343 104.078187 
L 150.014638 101.403256 
L 153.468195 99.010044 
L 157.085625 96.737801 
L 160.83929 94.60421 
L 164.700507 92.631179 
L 168.639773 90.809438 
L 172.626989 89.107325 
L 177.203848 87.278591 
L 182.525961 84.956879 
L 187.789921 81.878966 
L 192.955507 76.888593 
L 197.983249 70.822649 
L 202.834731 66.22068 
L 207.472884 62.769346 
L 211.862267 59.992654 
L 215.969343 57.659965 
L 223.213441 53.952281 
L 231.260144 50.254731 
L 235.951432 48.228037 
L 234.589108 67.135971 
L 233.220518 82.461796 
L 231.406424 96.90789 
L 229.160688 108.172839 
L 226.500469 115.442858 
L 223.446094 120.252425 
L 220.0209 124.129134 
L 216.251059 127.441637 
L 212.165376 130.389292 
L 207.79507 133.072704 
L 203.173532 135.568267 
L 198.336076 137.909269 
L 193.319664 140.110241 
L 188.162626 142.173693 
L 182.904366 144.090982 
L 177.585062 145.872315 
L 172.245358 147.840539 
L 166.926054 150.359313 
L 161.667794 153.826115 
L 156.510756 158.523489 
L 151.494344 163.86248 
L 146.656888 168.422189 
L 142.03535 171.905695 
L 137.665044 174.731831 
L 133.579361 177.08916 
L 126.384326 180.826112 
L 118.423996 184.547387 
L 113.878988 186.54321 
L 115.324052 166.637743 
L 116.724851 151.259427 
L 118.570276 136.95463 
L 120.846225 126.226557 
L 123.535308 119.160609 
L 126.616979 114.314722 
L 130.067691 110.373371 
L 133.861077 106.99439 
L 137.968153 103.985586 
L 142.357536 101.248075 
L 146.995689 98.633583 
L 151.847171 96.131575 
L 156.874913 93.763074 
L 162.040499 91.569837 
L 167.304459 89.555874 
L 178.728912 85.49134 
L 185.374272 82.593429 
L 191.939716 78.701676 
L 198.375077 72.95088 
L 204.631185 66.737037 
L 210.660236 62.117032 
L 216.416164 58.514993 
L 221.854988 55.528208 
L 226.935152 52.978335 
L 235.867265 48.856172 
L 245.709323 44.691453 
L 251.228355 42.472733 
L 250.520672 52.631747 
L 249.297828 68.162571 
L 247.506636 85.278391 
L 245.160781 99.380361 
L 242.278189 109.063789 
L 238.880884 115.260693 
L 234.994826 119.59834 
L 230.649707 123.316265 
L 225.878728 126.664495 
L 220.718343 129.757513 
L 215.207982 132.657522 
L 209.389749 135.390619 
L 203.3081 137.969885 
L 197.009504 140.408756 
L 190.542089 142.710817 
L 177.299379 147.001483 
L 170.625269 149.567922 
L 163.983939 153.002222 
L 157.426133 157.626299 
L 151.001959 162.973781 
L 144.760503 168.338951 
L 138.749455 172.82369 
L 133.014746 176.390814 
L 127.600192 179.386593 
L 122.547167 181.946637 
L 113.677082 186.077404 
L 103.943764 190.231791 
L 98.587174 192.402934 
L 99.378021 181.084186 
L 100.641824 165.279685 
L 102.47314 148.297613 
L 104.857976 134.554356 
L 107.778112 125.321103 
L 111.211233 119.238016 
L 115.131109 114.860721 
L 119.507788 111.087775 
L 124.307828 107.682914 
L 129.494552 104.536898 
L 135.02833 101.548729 
L 140.866879 98.676193 
L 146.965587 95.929406 
L 153.277854 93.326877 
L 159.75545 90.893698 
L 166.34888 88.65017 
L 173.007764 86.525511 
L 180.634425 83.813444 
L 188.598875 80.179338 
L 196.45877 75.26867 
L 211.625927 62.736502 
L 218.817298 58.101025 
L 225.673218 54.339097 
L 232.141304 51.144992 
L 238.172131 48.378625 
L 248.741384 43.85581 
L 260.290424 39.264511 
L 266.523149 36.896551 
L 265.474372 51.689922 
L 263.908719 69.932763 
L 261.663078 87.530729 
L 258.754606 100.291311 
L 255.205529 108.44419 
L 251.042963 114.063272 
L 246.298714 118.248106 
L 241.009033 122.0097 
L 235.214337 125.52032 
L 228.958903 128.846952 
L 222.290528 132.027045 
L 215.260164 135.040384 
L 207.92153 137.889976 
L 200.330698 140.589686 
L 192.545669 143.131741 
L 184.625929 145.528138 
L 176.63199 148.104934 
L 168.624933 151.409593 
L 160.66594 155.897854 
L 145.134565 167.031214 
L 137.680858 172.477406 
L 130.511653 176.946827 
L 123.68173 180.659814 
L 117.243276 183.843445 
L 111.245487 186.610343 
L 100.751495 191.130276 
L 89.333849 195.699247 
L 83.296548 198.007823 
L 84.445044 181.893988 
L 86.059727 163.487802 
L 88.353344 146.180622 
L 91.308368 133.858 
L 94.902223 125.925708 
L 99.107446 120.37085 
L 103.891908 116.146527 
L 109.219049 112.326443 
L 115.048167 108.756038 
L 121.334721 105.368626 
L 128.030677 102.075394 
L 135.084872 98.91608 
L 142.443406 95.894529 
L 150.050053 93.032017 
L 157.846691 90.371031 
L 173.770653 85.446399 
L 182.919819 82.143852 
L 192.198583 77.664295 
L 201.345287 71.814195 
L 210.290042 64.976099 
L 218.964502 58.998055 
L 227.302387 54.273774 
L 235.239988 50.329901 
L 242.716655 46.920781 
L 256.062631 41.31048 
L 266.933197 37.032272 
L 281.811989 31.551083 
L 280.35579 51.541003 
L 278.414866 71.741307 
L 275.683114 88.730195 
L 272.181407 99.858635 
L 267.936501 106.950764 
L 262.98083 112.263251 
L 257.352262 116.602311 
L 251.093802 120.513834 
L 244.253271 124.250328 
L 236.882937 127.855312 
L 229.039115 131.331801 
L 220.781739 134.642766 
L 212.173902 137.771167 
L 203.281377 140.735133 
L 194.172109 143.529848 
L 184.915701 146.202202 
L 175.582881 149.295099 
L 166.24496 153.353579 
L 156.973287 158.799136 
L 138.911012 170.782905 
L 130.258423 176.323929 
L 121.94705 180.897179 
L 114.040401 184.794417 
L 106.598888 188.178589 
L 93.334724 193.768005 
L 82.559182 198.019923 
L 68.014261 203.404318 
L 69.58669 181.993432 
L 71.584666 161.778007 
L 74.372178 145.187696 
L 77.927926 134.438983 
L 82.224743 127.454587 
L 87.229795 122.141846 
L 92.904841 117.790243 
L 99.206518 113.812938 
L 106.086676 110.010826 
L 113.492744 106.309239 
L 121.368133 102.691884 
L 129.652669 99.225021 
L 138.283051 95.927903 
L 138.283051 95.927903 
" clip-path="url(#p127d3efabd)" style="fill: none; stroke-dasharray: 2.96,1.28; stroke-dashoffset: 0; stroke: #000000; stroke-width: 0.8"/>
   </g>
   <g id="line2d_19">
    <path d="M 57.324375 117.495723 
L 292.501875 117.495723 
" clip-path="url(#p127d3efabd)" style="fill: none; stroke: #000000; stroke-width: 0.4; stroke-linecap: square"/>
   </g>
   <g id="line2d_20">
    <path d="M 174.91521 211.99875 
L 174.91521 22.92125 
" clip-path="url(#p127d3efabd)" style="fill: none; stroke: #000000; stroke-width: 0.4; stroke-linecap: square"/>
   </g>
   <g id="patch_3">
    <path d="M 57.324375 211.99875 
L 57.324375 22.92125 
" style="fill: none; stroke: #000000; stroke-width: 0.8; stroke-linejoin: miter; stroke-linecap: square"/>
   </g>
   <g id="patch_4">
    <path d="M 292.501875 211.99875 
L 292.501875 22.92125 
" style="fill: none; stroke: #000000; stroke-width: 0.8; stroke-linejoin: miter; stroke-linecap: square"/>
   </g>
   <g id="patch_5">
    <path d="M 57.324375 211.99875 
L 292.501875 211.99875 
" style="fill: none; stroke: #000000; stroke-width: 0.8; stroke-linejoin: miter; stroke-linecap: square"/>
   </g>
   <g id="patch_6">
    <path d="M 57.324375 22.92125 
L 292.501875 22.92125 
" style="fill: none; stroke: #000000; stroke-width: 0.8; stroke-linejoin: miter; stroke-linecap: square"/>
   </g>
   <g id="text_11">
    <!-- Specimen (2) -->
    <g transform="translate(137.3975 16.92125) scale(0.14 -0.14)">
     <defs>
      <path id="TimesNewRomanPSMT-53" d="M 2934 4334 
L 2934 2869 
L 2819 2869 
Q 2763 3291 2617 3541 
Q 2472 3791 2203 3937 
Q 1934 4084 1647 4084 
Q 1322 4084 1109 3886 
Q 897 3688 897 3434 
Q 897 3241 1031 3081 
Q 1225 2847 1953 2456 
Q 2547 2138 2764 1967 
Q 2981 1797 3098 1565 
Q 3216 1334 3216 1081 
Q 3216 600 2842 251 
Q 2469 -97 1881 -97 
Q 1697 -97 1534 -69 
Q 1438 -53 1133 45 
Q 828 144 747 144 
Q 669 144 623 97 
Q 578 50 556 -97 
L 441 -97 
L 441 1356 
L 556 1356 
Q 638 900 775 673 
Q 913 447 1195 297 
Q 1478 147 1816 147 
Q 2206 147 2432 353 
Q 2659 559 2659 841 
Q 2659 997 2573 1156 
Q 2488 1316 2306 1453 
Q 2184 1547 1640 1851 
Q 1097 2156 867 2337 
Q 638 2519 519 2737 
Q 400 2956 400 3219 
Q 400 3675 750 4004 
Q 1100 4334 1641 4334 
Q 1978 4334 2356 4169 
Q 2531 4091 2603 4091 
Q 2684 4091 2736 4139 
Q 2788 4188 2819 4334 
L 2934 4334 
z
" transform="scale(0.015625)"/>
      <path id="TimesNewRomanPSMT-70" d="M -6 2578 
L 875 2934 
L 994 2934 
L 994 2266 
Q 1216 2644 1439 2795 
Q 1663 2947 1909 2947 
Q 2341 2947 2628 2609 
Q 2981 2197 2981 1534 
Q 2981 794 2556 309 
Q 2206 -88 1675 -88 
Q 1444 -88 1275 -22 
Q 1150 25 994 166 
L 994 -706 
Q 994 -1000 1030 -1079 
Q 1066 -1159 1155 -1206 
Q 1244 -1253 1478 -1253 
L 1478 -1369 
L -22 -1369 
L -22 -1253 
L 56 -1253 
Q 228 -1256 350 -1188 
Q 409 -1153 442 -1076 
Q 475 -1000 475 -688 
L 475 2019 
Q 475 2297 450 2372 
Q 425 2447 370 2484 
Q 316 2522 222 2522 
Q 147 2522 31 2478 
L -6 2578 
z
M 994 2081 
L 994 1013 
Q 994 666 1022 556 
Q 1066 375 1236 237 
Q 1406 100 1666 100 
Q 1978 100 2172 344 
Q 2425 663 2425 1241 
Q 2425 1897 2138 2250 
Q 1938 2494 1663 2494 
Q 1513 2494 1366 2419 
Q 1253 2363 994 2081 
z
" transform="scale(0.015625)"/>
      <path id="TimesNewRomanPSMT-65" d="M 681 1784 
Q 678 1147 991 784 
Q 1303 422 1725 422 
Q 2006 422 2214 576 
Q 2422 731 2563 1106 
L 2659 1044 
Q 2594 616 2278 264 
Q 1963 -88 1488 -88 
Q 972 -88 605 314 
Q 238 716 238 1394 
Q 238 2128 614 2539 
Q 991 2950 1559 2950 
Q 2041 2950 2350 2633 
Q 2659 2316 2659 1784 
L 681 1784 
z
M 681 1966 
L 2006 1966 
Q 1991 2241 1941 2353 
Q 1863 2528 1708 2628 
Q 1553 2728 1384 2728 
Q 1125 2728 920 2526 
Q 716 2325 681 1966 
z
" transform="scale(0.015625)"/>
      <path id="TimesNewRomanPSMT-63" d="M 2631 1088 
Q 2516 522 2178 217 
Q 1841 -88 1431 -88 
Q 944 -88 581 321 
Q 219 731 219 1428 
Q 219 2103 620 2525 
Q 1022 2947 1584 2947 
Q 2006 2947 2278 2723 
Q 2550 2500 2550 2259 
Q 2550 2141 2473 2067 
Q 2397 1994 2259 1994 
Q 2075 1994 1981 2113 
Q 1928 2178 1911 2362 
Q 1894 2547 1784 2644 
Q 1675 2738 1481 2738 
Q 1169 2738 978 2506 
Q 725 2200 725 1697 
Q 725 1184 976 792 
Q 1228 400 1656 400 
Q 1963 400 2206 609 
Q 2378 753 2541 1131 
L 2631 1088 
z
" transform="scale(0.015625)"/>
      <path id="TimesNewRomanPSMT-69" d="M 928 4444 
Q 1059 4444 1151 4351 
Q 1244 4259 1244 4128 
Q 1244 3997 1151 3903 
Q 1059 3809 928 3809 
Q 797 3809 703 3903 
Q 609 3997 609 4128 
Q 609 4259 701 4351 
Q 794 4444 928 4444 
z
M 1188 2947 
L 1188 647 
Q 1188 378 1227 289 
Q 1266 200 1342 156 
Q 1419 113 1622 113 
L 1622 0 
L 231 0 
L 231 113 
Q 441 113 512 153 
Q 584 194 626 287 
Q 669 381 669 647 
L 669 1750 
Q 669 2216 641 2353 
Q 619 2453 572 2492 
Q 525 2531 444 2531 
Q 356 2531 231 2484 
L 188 2597 
L 1050 2947 
L 1188 2947 
z
" transform="scale(0.015625)"/>
      <path id="TimesNewRomanPSMT-6d" d="M 1050 2338 
Q 1363 2650 1419 2697 
Q 1559 2816 1721 2881 
Q 1884 2947 2044 2947 
Q 2313 2947 2506 2790 
Q 2700 2634 2766 2338 
Q 3088 2713 3309 2830 
Q 3531 2947 3766 2947 
Q 3994 2947 4170 2830 
Q 4347 2713 4450 2447 
Q 4519 2266 4519 1878 
L 4519 647 
Q 4519 378 4559 278 
Q 4591 209 4675 161 
Q 4759 113 4950 113 
L 4950 0 
L 3538 0 
L 3538 113 
L 3597 113 
Q 3781 113 3884 184 
Q 3956 234 3988 344 
Q 4000 397 4000 647 
L 4000 1878 
Q 4000 2228 3916 2372 
Q 3794 2572 3525 2572 
Q 3359 2572 3192 2489 
Q 3025 2406 2788 2181 
L 2781 2147 
L 2788 2013 
L 2788 647 
Q 2788 353 2820 281 
Q 2853 209 2943 161 
Q 3034 113 3253 113 
L 3253 0 
L 1806 0 
L 1806 113 
Q 2044 113 2133 169 
Q 2222 225 2256 338 
Q 2272 391 2272 647 
L 2272 1878 
Q 2272 2228 2169 2381 
Q 2031 2581 1784 2581 
Q 1616 2581 1450 2491 
Q 1191 2353 1050 2181 
L 1050 647 
Q 1050 366 1089 281 
Q 1128 197 1204 155 
Q 1281 113 1516 113 
L 1516 0 
L 100 0 
L 100 113 
Q 297 113 375 155 
Q 453 197 493 289 
Q 534 381 534 647 
L 534 1741 
Q 534 2213 506 2350 
Q 484 2453 437 2492 
Q 391 2531 309 2531 
Q 222 2531 100 2484 
L 53 2597 
L 916 2947 
L 1050 2947 
L 1050 2338 
z
" transform="scale(0.015625)"/>
      <path id="TimesNewRomanPSMT-6e" d="M 1034 2341 
Q 1538 2947 1994 2947 
Q 2228 2947 2397 2830 
Q 2566 2713 2666 2444 
Q 2734 2256 2734 1869 
L 2734 647 
Q 2734 375 2778 278 
Q 2813 200 2889 156 
Q 2966 113 3172 113 
L 3172 0 
L 1756 0 
L 1756 113 
L 1816 113 
Q 2016 113 2095 173 
Q 2175 234 2206 353 
Q 2219 400 2219 647 
L 2219 1819 
Q 2219 2209 2117 2386 
Q 2016 2563 1775 2563 
Q 1403 2563 1034 2156 
L 1034 647 
Q 1034 356 1069 288 
Q 1113 197 1189 155 
Q 1266 113 1500 113 
L 1500 0 
L 84 0 
L 84 113 
L 147 113 
Q 366 113 442 223 
Q 519 334 519 647 
L 519 1709 
Q 519 2225 495 2337 
Q 472 2450 423 2490 
Q 375 2531 294 2531 
Q 206 2531 84 2484 
L 38 2597 
L 900 2947 
L 1034 2947 
L 1034 2341 
z
" transform="scale(0.015625)"/>
      <path id="TimesNewRomanPSMT-20" transform="scale(0.015625)"/>
      <path id="TimesNewRomanPSMT-28" d="M 1988 -1253 
L 1988 -1369 
Q 1516 -1131 1200 -813 
Q 750 -359 506 256 
Q 263 872 263 1534 
Q 263 2503 741 3301 
Q 1219 4100 1988 4444 
L 1988 4313 
Q 1603 4100 1356 3731 
Q 1109 3363 987 2797 
Q 866 2231 866 1616 
Q 866 947 969 400 
Q 1050 -31 1165 -292 
Q 1281 -553 1476 -793 
Q 1672 -1034 1988 -1253 
z
" transform="scale(0.015625)"/>
      <path id="TimesNewRomanPSMT-32" d="M 2934 816 
L 2638 0 
L 138 0 
L 138 116 
Q 1241 1122 1691 1759 
Q 2141 2397 2141 2925 
Q 2141 3328 1894 3587 
Q 1647 3847 1303 3847 
Q 991 3847 742 3664 
Q 494 3481 375 3128 
L 259 3128 
Q 338 3706 661 4015 
Q 984 4325 1469 4325 
Q 1984 4325 2329 3994 
Q 2675 3663 2675 3213 
Q 2675 2891 2525 2569 
Q 2294 2063 1775 1497 
Q 997 647 803 472 
L 1909 472 
Q 2247 472 2383 497 
Q 2519 522 2628 598 
Q 2738 675 2819 816 
L 2934 816 
z
" transform="scale(0.015625)"/>
      <path id="TimesNewRomanPSMT-29" d="M 144 4313 
L 144 4444 
Q 619 4209 934 3891 
Q 1381 3434 1625 2820 
Q 1869 2206 1869 1541 
Q 1869 572 1392 -226 
Q 916 -1025 144 -1369 
L 144 -1253 
Q 528 -1038 776 -670 
Q 1025 -303 1145 264 
Q 1266 831 1266 1447 
Q 1266 2113 1163 2663 
Q 1084 3094 967 3353 
Q 850 3613 656 3853 
Q 463 4094 144 4313 
z
" transform="scale(0.015625)"/>
     </defs>
     <use xlink:href="#TimesNewRomanPSMT-53"/>
     <use xlink:href="#TimesNewRomanPSMT-70" x="55.615234"/>
     <use xlink:href="#TimesNewRomanPSMT-65" x="105.615234"/>
     <use xlink:href="#TimesNewRomanPSMT-63" x="150"/>
     <use xlink:href="#TimesNewRomanPSMT-69" x="194.384766"/>
     <use xlink:href="#TimesNewRomanPSMT-6d" x="222.167969"/>
     <use xlink:href="#TimesNewRomanPSMT-65" x="299.951172"/>
     <use xlink:href="#TimesNewRomanPSMT-6e" x="344.335938"/>
     <use xlink:href="#TimesNewRomanPSMT-20" x="394.335938"/>
     <use xlink:href="#TimesNewRomanPSMT-28" x="419.335938"/>
     <use xlink:href="#TimesNewRomanPSMT-32" x="452.636719"/>
     <use xlink:href="#TimesNewRomanPSMT-29" x="502.636719"/>
    </g>
   </g>
   <g id="legend_1">
    <g id="patch_7">
     <path d="M 63.624375 55.571562 
L 150.661406 55.571562 
Q 152.461406 55.571562 152.461406 53.771562 
L 152.461406 29.22125 
Q 152.461406 27.42125 150.661406 27.42125 
L 63.624375 27.42125 
Q 61.824375 27.42125 61.824375 29.22125 
L 61.824375 53.771562 
Q 61.824375 55.571562 63.624375 55.571562 
z
" style="fill: #ffffff; opacity: 0.8; stroke: #cccccc; stroke-linejoin: miter"/>
    </g>
    <g id="line2d_21">
     <path d="M 65.424375 34.17125 
L 74.424375 34.17125 
L 83.424375 34.17125 
" style="fill: none; stroke: #0000ff; stroke-width: 0.8; stroke-linecap: square"/>
    </g>
    <g id="text_12">
     <!-- DNN prediction -->
     <g transform="translate(90.624375 37.32125) scale(0.09 -0.09)">
      <defs>
       <path id="TimesNewRomanPSMT-44" d="M 109 0 
L 109 116 
L 269 116 
Q 538 116 650 288 
Q 719 391 719 750 
L 719 3488 
Q 719 3884 631 3984 
Q 509 4122 269 4122 
L 109 4122 
L 109 4238 
L 1834 4238 
Q 2784 4238 3279 4022 
Q 3775 3806 4076 3303 
Q 4378 2800 4378 2141 
Q 4378 1256 3841 663 
Q 3238 0 2003 0 
L 109 0 
z
M 1319 306 
Q 1716 219 1984 219 
Q 2709 219 3187 728 
Q 3666 1238 3666 2109 
Q 3666 2988 3187 3494 
Q 2709 4000 1959 4000 
Q 1678 4000 1319 3909 
L 1319 306 
z
" transform="scale(0.015625)"/>
       <path id="TimesNewRomanPSMT-4e" d="M -84 4238 
L 1066 4238 
L 3656 1059 
L 3656 3503 
Q 3656 3894 3569 3991 
Q 3453 4122 3203 4122 
L 3056 4122 
L 3056 4238 
L 4531 4238 
L 4531 4122 
L 4381 4122 
Q 4113 4122 4000 3959 
Q 3931 3859 3931 3503 
L 3931 -69 
L 3819 -69 
L 1025 3344 
L 1025 734 
Q 1025 344 1109 247 
Q 1228 116 1475 116 
L 1625 116 
L 1625 0 
L 150 0 
L 150 116 
L 297 116 
Q 569 116 681 278 
Q 750 378 750 734 
L 750 3681 
Q 566 3897 470 3965 
Q 375 4034 191 4094 
Q 100 4122 -84 4122 
L -84 4238 
z
" transform="scale(0.015625)"/>
       <path id="TimesNewRomanPSMT-72" d="M 1038 2947 
L 1038 2303 
Q 1397 2947 1775 2947 
Q 1947 2947 2059 2842 
Q 2172 2738 2172 2600 
Q 2172 2478 2090 2393 
Q 2009 2309 1897 2309 
Q 1788 2309 1652 2417 
Q 1516 2525 1450 2525 
Q 1394 2525 1328 2463 
Q 1188 2334 1038 2041 
L 1038 669 
Q 1038 431 1097 309 
Q 1138 225 1241 169 
Q 1344 113 1538 113 
L 1538 0 
L 72 0 
L 72 113 
Q 291 113 397 181 
Q 475 231 506 341 
Q 522 394 522 644 
L 522 1753 
Q 522 2253 501 2348 
Q 481 2444 426 2487 
Q 372 2531 291 2531 
Q 194 2531 72 2484 
L 41 2597 
L 906 2947 
L 1038 2947 
z
" transform="scale(0.015625)"/>
       <path id="TimesNewRomanPSMT-64" d="M 2222 322 
Q 2013 103 1813 7 
Q 1613 -88 1381 -88 
Q 913 -88 563 304 
Q 213 697 213 1313 
Q 213 1928 600 2439 
Q 988 2950 1597 2950 
Q 1975 2950 2222 2709 
L 2222 3238 
Q 2222 3728 2198 3840 
Q 2175 3953 2125 3993 
Q 2075 4034 2000 4034 
Q 1919 4034 1784 3984 
L 1744 4094 
L 2597 4444 
L 2738 4444 
L 2738 1134 
Q 2738 631 2761 520 
Q 2784 409 2836 365 
Q 2888 322 2956 322 
Q 3041 322 3181 375 
L 3216 266 
L 2366 -88 
L 2222 -88 
L 2222 322 
z
M 2222 541 
L 2222 2016 
Q 2203 2228 2109 2403 
Q 2016 2578 1861 2667 
Q 1706 2756 1559 2756 
Q 1284 2756 1069 2509 
Q 784 2184 784 1559 
Q 784 928 1059 592 
Q 1334 256 1672 256 
Q 1956 256 2222 541 
z
" transform="scale(0.015625)"/>
       <path id="TimesNewRomanPSMT-74" d="M 1031 3803 
L 1031 2863 
L 1700 2863 
L 1700 2644 
L 1031 2644 
L 1031 788 
Q 1031 509 1111 412 
Q 1191 316 1316 316 
Q 1419 316 1516 380 
Q 1613 444 1666 569 
L 1788 569 
Q 1678 263 1478 108 
Q 1278 -47 1066 -47 
Q 922 -47 784 33 
Q 647 113 581 261 
Q 516 409 516 719 
L 516 2644 
L 63 2644 
L 63 2747 
Q 234 2816 414 2980 
Q 594 3144 734 3369 
Q 806 3488 934 3803 
L 1031 3803 
z
" transform="scale(0.015625)"/>
       <path id="TimesNewRomanPSMT-6f" d="M 1600 2947 
Q 2250 2947 2644 2453 
Q 2978 2031 2978 1484 
Q 2978 1100 2793 706 
Q 2609 313 2286 112 
Q 1963 -88 1566 -88 
Q 919 -88 538 428 
Q 216 863 216 1403 
Q 216 1797 411 2186 
Q 606 2575 925 2761 
Q 1244 2947 1600 2947 
z
M 1503 2744 
Q 1338 2744 1170 2645 
Q 1003 2547 900 2300 
Q 797 2053 797 1666 
Q 797 1041 1045 587 
Q 1294 134 1700 134 
Q 2003 134 2200 384 
Q 2397 634 2397 1244 
Q 2397 2006 2069 2444 
Q 1847 2744 1503 2744 
z
" transform="scale(0.015625)"/>
      </defs>
      <use xlink:href="#TimesNewRomanPSMT-44"/>
      <use xlink:href="#TimesNewRomanPSMT-4e" x="72.216797"/>
      <use xlink:href="#TimesNewRomanPSMT-4e" x="144.433594"/>
      <use xlink:href="#TimesNewRomanPSMT-20" x="216.650391"/>
      <use xlink:href="#TimesNewRomanPSMT-70" x="241.650391"/>
      <use xlink:href="#TimesNewRomanPSMT-72" x="291.650391"/>
      <use xlink:href="#TimesNewRomanPSMT-65" x="324.951172"/>
      <use xlink:href="#TimesNewRomanPSMT-64" x="369.335938"/>
      <use xlink:href="#TimesNewRomanPSMT-69" x="419.335938"/>
      <use xlink:href="#TimesNewRomanPSMT-63" x="447.119141"/>
      <use xlink:href="#TimesNewRomanPSMT-74" x="491.503906"/>
      <use xlink:href="#TimesNewRomanPSMT-69" x="519.287109"/>
      <use xlink:href="#TimesNewRomanPSMT-6f" x="547.070312"/>
      <use xlink:href="#TimesNewRomanPSMT-6e" x="597.070312"/>
     </g>
    </g>
    <g id="line2d_22">
     <path d="M 65.424375 46.896406 
L 74.424375 46.896406 
L 83.424375 46.896406 
" style="fill: none; stroke-dasharray: 2.96,1.28; stroke-dashoffset: 0; stroke: #000000; stroke-width: 0.8"/>
    </g>
    <g id="text_13">
     <!-- Reference (2) -->
     <g transform="translate(90.624375 50.046406) scale(0.09 -0.09)">
      <defs>
       <path id="TimesNewRomanPSMT-52" d="M 4325 0 
L 3194 0 
L 1759 1981 
Q 1600 1975 1500 1975 
Q 1459 1975 1412 1976 
Q 1366 1978 1316 1981 
L 1316 750 
Q 1316 350 1403 253 
Q 1522 116 1759 116 
L 1925 116 
L 1925 0 
L 109 0 
L 109 116 
L 269 116 
Q 538 116 653 291 
Q 719 388 719 750 
L 719 3488 
Q 719 3888 631 3984 
Q 509 4122 269 4122 
L 109 4122 
L 109 4238 
L 1653 4238 
Q 2328 4238 2648 4139 
Q 2969 4041 3192 3777 
Q 3416 3513 3416 3147 
Q 3416 2756 3161 2468 
Q 2906 2181 2372 2063 
L 3247 847 
Q 3547 428 3762 290 
Q 3978 153 4325 116 
L 4325 0 
z
M 1316 2178 
Q 1375 2178 1419 2176 
Q 1463 2175 1491 2175 
Q 2097 2175 2405 2437 
Q 2713 2700 2713 3106 
Q 2713 3503 2464 3751 
Q 2216 4000 1806 4000 
Q 1625 4000 1316 3941 
L 1316 2178 
z
" transform="scale(0.015625)"/>
       <path id="TimesNewRomanPSMT-66" d="M 1319 2638 
L 1319 756 
Q 1319 356 1406 250 
Q 1522 113 1716 113 
L 1975 113 
L 1975 0 
L 266 0 
L 266 113 
L 394 113 
Q 519 113 622 175 
Q 725 238 764 344 
Q 803 450 803 756 
L 803 2638 
L 247 2638 
L 247 2863 
L 803 2863 
L 803 3050 
Q 803 3478 940 3775 
Q 1078 4072 1361 4255 
Q 1644 4438 1997 4438 
Q 2325 4438 2600 4225 
Q 2781 4084 2781 3909 
Q 2781 3816 2700 3733 
Q 2619 3650 2525 3650 
Q 2453 3650 2373 3701 
Q 2294 3753 2178 3923 
Q 2063 4094 1966 4153 
Q 1869 4213 1750 4213 
Q 1606 4213 1506 4136 
Q 1406 4059 1362 3898 
Q 1319 3738 1319 3069 
L 1319 2863 
L 2056 2863 
L 2056 2638 
L 1319 2638 
z
" transform="scale(0.015625)"/>
      </defs>
      <use xlink:href="#TimesNewRomanPSMT-52"/>
      <use xlink:href="#TimesNewRomanPSMT-65" x="66.699219"/>
      <use xlink:href="#TimesNewRomanPSMT-66" x="111.083984"/>
      <use xlink:href="#TimesNewRomanPSMT-65" x="144.384766"/>
      <use xlink:href="#TimesNewRomanPSMT-72" x="188.769531"/>
      <use xlink:href="#TimesNewRomanPSMT-65" x="222.070312"/>
      <use xlink:href="#TimesNewRomanPSMT-6e" x="266.455078"/>
      <use xlink:href="#TimesNewRomanPSMT-63" x="316.455078"/>
      <use xlink:href="#TimesNewRomanPSMT-65" x="360.839844"/>
      <use xlink:href="#TimesNewRomanPSMT-20" x="405.224609"/>
      <use xlink:href="#TimesNewRomanPSMT-28" x="430.224609"/>
      <use xlink:href="#TimesNewRomanPSMT-32" x="463.525391"/>
      <use xlink:href="#TimesNewRomanPSMT-29" x="513.525391"/>
     </g>
    </g>
   </g>
  </g>
 </g>
 <defs>
  <clipPath id="p127d3efabd">
   <rect x="57.324375" y="22.92125" width="235.1775" height="189.0775"/>
  </clipPath>
 </defs>
</svg>
