<?xml version="1.0" encoding="utf-8" standalone="no"?>
<!DOCTYPE svg PUBLIC "-//W3C//DTD SVG 1.1//EN"
  "http://www.w3.org/Graphics/SVG/1.1/DTD/svg11.dtd">
<svg xmlns:xlink="http://www.w3.org/1999/xlink" width="299.701875pt" height="252.003125pt" viewBox="0 0 299.701875 252.003125" xmlns="http://www.w3.org/2000/svg" version="1.1">
 <metadata>
  <rdf:RDF xmlns:dc="http://purl.org/dc/elements/1.1/" xmlns:cc="http://creativecommons.org/ns#" xmlns:rdf="http://www.w3.org/1999/02/22-rdf-syntax-ns#">
   <cc:Work>
    <dc:type rdf:resource="http://purl.org/dc/dcmitype/StillImage"/>
    <dc:date>2024-02-27T18:42:11.045127</dc:date>
    <dc:format>image/svg+xml</dc:format>
    <dc:creator>
     <cc:Agent>
      <dc:title>Matplotlib v3.7.1, https://matplotlib.org/</dc:title>
     </cc:Agent>
    </dc:creator>
   </cc:Work>
  </rdf:RDF>
 </metadata>
 <defs>
  <style type="text/css">*{stroke-linejoin: round; stroke-linecap: butt}</style>
 </defs>
 <g id="figure_1">
  <g id="patch_1">
   <path d="M 0 252.003125 
L 299.701875 252.003125 
L 299.701875 0 
L 0 0 
z
" style="fill: #ffffff"/>
  </g>
  <g id="axes_1">
   <g id="patch_2">
    <path d="M 57.324375 211.99875 
L 292.501875 211.99875 
L 292.501875 22.92125 
L 57.324375 22.92125 
z
" style="fill: #ffffff"/>
   </g>
   <g id="matplotlib.axis_1">
    <g id="xtick_1">
     <g id="line2d_1">
      <path d="M 79.722346 211.99875 
L 79.722346 22.92125 
" clip-path="url(#pb52f60daa9)" style="fill: none; stroke-dasharray: 0.8,1.32; stroke-dashoffset: 0; stroke: #b0b0b0; stroke-width: 0.8"/>
     </g>
     <g id="line2d_2">
      <defs>
       <path id="m596a8b3197" d="M 0 0 
L 0 3.5 
" style="stroke: #000000; stroke-width: 0.8"/>
      </defs>
      <g>
       <use xlink:href="#m596a8b3197" x="79.722346" y="211.99875" style="stroke: #000000; stroke-width: 0.8"/>
      </g>
     </g>
     <g id="text_1">
      <!-- −40 -->
      <g transform="translate(69.754846 227.38375) scale(0.12 -0.12)">
       <defs>
        <path id="Cambria-2212" d="M 397 1613 
L 397 2047 
L 3147 2047 
L 3147 1613 
L 397 1613 
z
" transform="scale(0.015625)"/>
        <path id="Cambria-34" d="M 1613 153 
Q 1806 203 1872 264 
Q 1938 325 1958 437 
Q 1978 550 1978 781 
L 1978 1294 
L 241 1294 
L 241 1528 
L 2069 4288 
L 2516 4288 
L 2516 1597 
L 2581 1597 
Q 2763 1597 2841 1623 
Q 2919 1650 2970 1717 
Q 3022 1784 3066 1938 
L 3303 1938 
L 3266 1294 
L 2516 1294 
L 2516 781 
Q 2516 572 2530 475 
Q 2544 378 2576 322 
Q 2609 266 2673 228 
Q 2738 191 2881 153 
L 2881 0 
L 1613 0 
L 1613 153 
z
M 756 1597 
L 1978 1597 
L 1978 2375 
Q 1978 2669 1987 3033 
Q 1997 3397 2009 3581 
L 1978 3581 
L 756 1641 
L 756 1597 
z
" transform="scale(0.015625)"/>
        <path id="Cambria-30" d="M 1738 -50 
Q 1063 -50 733 481 
Q 403 1013 403 2094 
Q 403 2669 504 3087 
Q 606 3506 789 3779 
Q 972 4053 1228 4184 
Q 1484 4316 1788 4316 
Q 2472 4316 2806 3787 
Q 3141 3259 3141 2191 
Q 3141 1084 2783 517 
Q 2425 -50 1738 -50 
z
M 1013 2188 
Q 1013 1169 1202 692 
Q 1391 216 1788 216 
Q 2166 216 2348 664 
Q 2531 1113 2531 2053 
Q 2531 2772 2437 3217 
Q 2344 3663 2176 3856 
Q 2009 4050 1772 4050 
Q 1556 4050 1411 3922 
Q 1266 3794 1177 3553 
Q 1088 3313 1050 2967 
Q 1013 2622 1013 2188 
z
" transform="scale(0.015625)"/>
       </defs>
       <use xlink:href="#Cambria-2212"/>
       <use xlink:href="#Cambria-34" x="55.371094"/>
       <use xlink:href="#Cambria-30" x="110.742188"/>
      </g>
     </g>
    </g>
    <g id="xtick_2">
     <g id="line2d_3">
      <path d="M 127.308343 211.99875 
L 127.308343 22.92125 
" clip-path="url(#pb52f60daa9)" style="fill: none; stroke-dasharray: 0.8,1.32; stroke-dashoffset: 0; stroke: #b0b0b0; stroke-width: 0.8"/>
     </g>
     <g id="line2d_4">
      <g>
       <use xlink:href="#m596a8b3197" x="127.308343" y="211.99875" style="stroke: #000000; stroke-width: 0.8"/>
      </g>
     </g>
     <g id="text_2">
      <!-- −20 -->
      <g transform="translate(117.340843 227.38375) scale(0.12 -0.12)">
       <defs>
        <path id="Cambria-32" d="M 2194 500 
Q 2347 500 2440 519 
Q 2534 538 2590 581 
Q 2647 625 2680 695 
Q 2713 766 2763 913 
L 3028 913 
L 2975 0 
L 403 0 
L 403 150 
Q 538 478 766 822 
Q 994 1166 1413 1631 
Q 1775 2031 1934 2238 
Q 2109 2463 2195 2627 
Q 2281 2791 2318 2936 
Q 2356 3081 2356 3228 
Q 2356 3463 2281 3642 
Q 2206 3822 2051 3925 
Q 1897 4028 1663 4028 
Q 1078 4028 875 3378 
L 497 3378 
L 497 3978 
Q 875 4156 1204 4236 
Q 1534 4316 1797 4316 
Q 2378 4316 2675 4061 
Q 2972 3806 2972 3322 
Q 2972 3156 2939 3017 
Q 2906 2878 2836 2742 
Q 2766 2606 2647 2450 
Q 2528 2294 2384 2133 
Q 2241 1972 1888 1597 
Q 1294 969 1016 500 
L 2194 500 
z
" transform="scale(0.015625)"/>
       </defs>
       <use xlink:href="#Cambria-2212"/>
       <use xlink:href="#Cambria-32" x="55.371094"/>
       <use xlink:href="#Cambria-30" x="110.742188"/>
      </g>
     </g>
    </g>
    <g id="xtick_3">
     <g id="line2d_5">
      <path d="M 174.89434 211.99875 
L 174.89434 22.92125 
" clip-path="url(#pb52f60daa9)" style="fill: none; stroke-dasharray: 0.8,1.32; stroke-dashoffset: 0; stroke: #b0b0b0; stroke-width: 0.8"/>
     </g>
     <g id="line2d_6">
      <g>
       <use xlink:href="#m596a8b3197" x="174.89434" y="211.99875" style="stroke: #000000; stroke-width: 0.8"/>
      </g>
     </g>
     <g id="text_3">
      <!-- 0 -->
      <g transform="translate(171.57184 227.38375) scale(0.12 -0.12)">
       <use xlink:href="#Cambria-30"/>
      </g>
     </g>
    </g>
    <g id="xtick_4">
     <g id="line2d_7">
      <path d="M 222.480337 211.99875 
L 222.480337 22.92125 
" clip-path="url(#pb52f60daa9)" style="fill: none; stroke-dasharray: 0.8,1.32; stroke-dashoffset: 0; stroke: #b0b0b0; stroke-width: 0.8"/>
     </g>
     <g id="line2d_8">
      <g>
       <use xlink:href="#m596a8b3197" x="222.480337" y="211.99875" style="stroke: #000000; stroke-width: 0.8"/>
      </g>
     </g>
     <g id="text_4">
      <!-- 20 -->
      <g transform="translate(215.835337 227.38375) scale(0.12 -0.12)">
       <use xlink:href="#Cambria-32"/>
       <use xlink:href="#Cambria-30" x="55.371094"/>
      </g>
     </g>
    </g>
    <g id="xtick_5">
     <g id="line2d_9">
      <path d="M 270.066334 211.99875 
L 270.066334 22.92125 
" clip-path="url(#pb52f60daa9)" style="fill: none; stroke-dasharray: 0.8,1.32; stroke-dashoffset: 0; stroke: #b0b0b0; stroke-width: 0.8"/>
     </g>
     <g id="line2d_10">
      <g>
       <use xlink:href="#m596a8b3197" x="270.066334" y="211.99875" style="stroke: #000000; stroke-width: 0.8"/>
      </g>
     </g>
     <g id="text_5">
      <!-- 40 -->
      <g transform="translate(263.421334 227.38375) scale(0.12 -0.12)">
       <use xlink:href="#Cambria-34"/>
       <use xlink:href="#Cambria-30" x="55.371094"/>
      </g>
     </g>
    </g>
    <g id="text_6">
     <!-- Displacement (mm) -->
     <g transform="translate(127.75875 242.23625) scale(0.12 -0.12)">
      <defs>
       <path id="TimesNewRomanPS-ItalicMT-44" d="M 938 4122 
L 975 4238 
L 2328 4238 
Q 3188 4238 3602 4041 
Q 4016 3844 4262 3420 
Q 4509 2997 4509 2513 
Q 4509 2097 4367 1705 
Q 4225 1313 4045 1077 
Q 3866 841 3494 556 
Q 3122 272 2687 136 
Q 2253 0 1603 0 
L -191 0 
L -150 116 
Q 97 122 181 159 
Q 306 213 366 303 
Q 456 434 569 831 
L 1319 3394 
Q 1406 3697 1406 3869 
Q 1406 3991 1325 4056 
Q 1244 4122 1006 4122 
L 938 4122 
z
M 2047 4003 
L 1128 831 
Q 1025 475 1025 391 
Q 1025 341 1058 294 
Q 1091 247 1147 231 
Q 1228 203 1409 203 
Q 1900 203 2320 304 
Q 2741 406 3009 606 
Q 3391 897 3619 1406 
Q 3847 1916 3847 2566 
Q 3847 3300 3497 3658 
Q 3147 4016 2475 4016 
Q 2309 4016 2047 4003 
z
" transform="scale(0.015625)"/>
       <path id="TimesNewRomanPS-ItalicMT-69" d="M 1431 4069 
Q 1563 4069 1653 3978 
Q 1744 3888 1744 3756 
Q 1744 3628 1651 3536 
Q 1559 3444 1431 3444 
Q 1303 3444 1211 3536 
Q 1119 3628 1119 3756 
Q 1119 3888 1209 3978 
Q 1300 4069 1431 4069 
z
M 1472 2828 
L 853 638 
Q 791 416 791 372 
Q 791 322 820 290 
Q 850 259 891 259 
Q 938 259 1003 309 
Q 1181 450 1363 709 
L 1472 638 
Q 1259 313 972 91 
Q 759 -75 566 -75 
Q 438 -75 356 1 
Q 275 78 275 194 
Q 275 309 353 578 
L 759 1978 
Q 859 2322 859 2409 
Q 859 2478 811 2522 
Q 763 2566 678 2566 
Q 609 2566 394 2531 
L 394 2653 
L 1472 2828 
z
" transform="scale(0.015625)"/>
       <path id="TimesNewRomanPS-ItalicMT-73" d="M 2322 2828 
L 2131 1869 
L 2016 1869 
Q 2000 2288 1837 2478 
Q 1675 2669 1434 2669 
Q 1241 2669 1127 2562 
Q 1013 2456 1013 2306 
Q 1013 2203 1058 2109 
Q 1103 2016 1256 1847 
Q 1663 1403 1781 1178 
Q 1900 953 1900 753 
Q 1900 428 1629 176 
Q 1359 -75 947 -75 
Q 722 -75 428 31 
Q 325 69 269 69 
Q 128 69 56 -75 
L -59 -75 
L 131 938 
L 247 938 
Q 266 463 444 266 
Q 622 69 931 69 
Q 1169 69 1308 201 
Q 1447 334 1447 528 
Q 1447 653 1397 759 
Q 1309 947 1029 1278 
Q 750 1609 670 1775 
Q 591 1941 591 2106 
Q 591 2409 811 2618 
Q 1031 2828 1378 2828 
Q 1478 2828 1559 2813 
Q 1603 2803 1764 2742 
Q 1925 2681 1978 2681 
Q 2113 2681 2203 2828 
L 2322 2828 
z
" transform="scale(0.015625)"/>
       <path id="TimesNewRomanPS-ItalicMT-70" d="M 1416 2828 
L 1200 2109 
Q 1541 2509 1808 2668 
Q 2075 2828 2353 2828 
Q 2631 2828 2828 2608 
Q 3025 2388 3025 2034 
Q 3025 1347 2465 636 
Q 1906 -75 1163 -75 
Q 1006 -75 886 -40 
Q 766 -6 616 81 
L 388 -725 
Q 319 -963 319 -1034 
Q 319 -1103 355 -1151 
Q 391 -1200 472 -1226 
Q 553 -1253 794 -1253 
L 766 -1369 
L -706 -1369 
L -675 -1253 
Q -384 -1241 -282 -1153 
Q -181 -1066 -69 -669 
L 722 2069 
Q 794 2328 794 2391 
Q 794 2475 745 2522 
Q 697 2569 597 2569 
Q 506 2569 344 2547 
L 344 2669 
L 1416 2828 
z
M 688 328 
Q 881 97 1209 97 
Q 1372 97 1540 187 
Q 1709 278 1870 456 
Q 2031 634 2159 867 
Q 2288 1100 2389 1415 
Q 2491 1731 2491 2041 
Q 2491 2291 2377 2423 
Q 2263 2556 2109 2556 
Q 1772 2556 1442 2168 
Q 1113 1781 959 1263 
L 688 328 
z
" transform="scale(0.015625)"/>
       <path id="TimesNewRomanPS-ItalicMT-6c" d="M 1903 4444 
L 834 725 
Q 756 447 756 384 
Q 756 338 786 306 
Q 816 275 859 275 
Q 919 275 988 328 
Q 1150 456 1328 725 
L 1422 628 
Q 1125 209 875 44 
Q 691 -75 525 -75 
Q 406 -75 326 6 
Q 247 88 247 194 
Q 247 306 347 656 
L 1194 3588 
Q 1297 3947 1297 4000 
Q 1297 4075 1237 4123 
Q 1178 4172 1053 4172 
Q 981 4172 834 4150 
L 834 4266 
L 1903 4444 
z
" transform="scale(0.015625)"/>
       <path id="TimesNewRomanPS-ItalicMT-61" d="M 3003 2828 
L 2394 709 
L 2325 425 
Q 2316 384 2316 356 
Q 2316 306 2347 269 
Q 2372 241 2409 241 
Q 2450 241 2516 291 
Q 2638 381 2841 666 
L 2947 591 
Q 2731 266 2503 95 
Q 2275 -75 2081 -75 
Q 1947 -75 1880 -8 
Q 1813 59 1813 188 
Q 1813 341 1881 591 
L 1947 825 
Q 1538 291 1194 78 
Q 947 -75 709 -75 
Q 481 -75 315 114 
Q 150 303 150 634 
Q 150 1131 448 1682 
Q 747 2234 1206 2566 
Q 1566 2828 1884 2828 
Q 2075 2828 2201 2728 
Q 2328 2628 2394 2397 
L 2506 2753 
L 3003 2828 
z
M 1891 2666 
Q 1691 2666 1466 2478 
Q 1147 2213 898 1691 
Q 650 1169 650 747 
Q 650 534 756 411 
Q 863 288 1000 288 
Q 1341 288 1741 791 
Q 2275 1459 2275 2163 
Q 2275 2428 2172 2547 
Q 2069 2666 1891 2666 
z
" transform="scale(0.015625)"/>
       <path id="TimesNewRomanPS-ItalicMT-63" d="M 2472 681 
Q 2147 291 1815 108 
Q 1484 -75 1116 -75 
Q 672 -75 423 175 
Q 175 425 175 847 
Q 175 1325 442 1787 
Q 709 2250 1161 2539 
Q 1613 2828 2047 2828 
Q 2388 2828 2556 2686 
Q 2725 2544 2725 2338 
Q 2725 2144 2606 2006 
Q 2519 1900 2391 1900 
Q 2294 1900 2230 1962 
Q 2166 2025 2166 2119 
Q 2166 2178 2189 2228 
Q 2213 2278 2286 2348 
Q 2359 2419 2375 2450 
Q 2391 2481 2391 2516 
Q 2391 2581 2331 2625 
Q 2241 2688 2075 2688 
Q 1769 2688 1469 2472 
Q 1169 2256 956 1859 
Q 700 1378 700 897 
Q 700 578 881 392 
Q 1063 206 1375 206 
Q 1616 206 1852 326 
Q 2088 447 2381 763 
L 2472 681 
z
" transform="scale(0.015625)"/>
       <path id="TimesNewRomanPS-ItalicMT-65" d="M 763 1178 
Q 741 1022 741 919 
Q 741 641 937 445 
Q 1134 250 1416 250 
Q 1641 250 1848 342 
Q 2056 434 2466 750 
L 2531 659 
Q 1791 -75 1119 -75 
Q 663 -75 431 212 
Q 200 500 200 847 
Q 200 1313 487 1800 
Q 775 2288 1209 2558 
Q 1644 2828 2103 2828 
Q 2434 2828 2593 2693 
Q 2753 2559 2753 2375 
Q 2753 2116 2547 1878 
Q 2275 1569 1747 1378 
Q 1397 1250 763 1178 
z
M 784 1331 
Q 1247 1384 1538 1513 
Q 1922 1684 2114 1923 
Q 2306 2163 2306 2378 
Q 2306 2509 2223 2590 
Q 2141 2672 1988 2672 
Q 1669 2672 1311 2333 
Q 953 1994 784 1331 
z
" transform="scale(0.015625)"/>
       <path id="TimesNewRomanPS-ItalicMT-6d" d="M 1388 2828 
L 981 1419 
Q 1253 1916 1444 2166 
Q 1741 2553 2022 2728 
Q 2188 2828 2369 2828 
Q 2525 2828 2628 2728 
Q 2731 2628 2731 2472 
Q 2731 2319 2659 2072 
L 2438 1278 
Q 2947 2231 3403 2616 
Q 3656 2828 3903 2828 
Q 4047 2828 4139 2729 
Q 4231 2631 4231 2425 
Q 4231 2244 4175 2041 
L 3831 825 
Q 3719 428 3719 384 
Q 3719 341 3747 309 
Q 3766 288 3797 288 
Q 3828 288 3906 347 
Q 4084 484 4241 709 
L 4344 644 
Q 4266 519 4067 300 
Q 3869 81 3728 3 
Q 3588 -75 3469 -75 
Q 3359 -75 3286 0 
Q 3213 75 3213 184 
Q 3213 334 3341 788 
L 3625 1791 
Q 3722 2138 3728 2175 
Q 3738 2234 3738 2291 
Q 3738 2369 3703 2413 
Q 3666 2456 3619 2456 
Q 3488 2456 3341 2322 
Q 2909 1925 2534 1209 
Q 2288 738 2072 0 
L 1600 0 
L 2134 1891 
Q 2222 2197 2222 2300 
Q 2222 2384 2187 2425 
Q 2153 2466 2103 2466 
Q 2000 2466 1884 2391 
Q 1697 2269 1401 1869 
Q 1106 1469 944 1103 
Q 866 931 572 0 
L 109 0 
L 688 2025 
L 763 2288 
Q 784 2347 784 2375 
Q 784 2444 721 2498 
Q 659 2553 563 2553 
Q 522 2553 338 2516 
L 309 2631 
L 1388 2828 
z
" transform="scale(0.015625)"/>
       <path id="TimesNewRomanPS-ItalicMT-6e" d="M 1413 2828 
L 997 1406 
Q 1581 2278 1892 2553 
Q 2203 2828 2491 2828 
Q 2647 2828 2748 2725 
Q 2850 2622 2850 2456 
Q 2850 2269 2759 1956 
L 2378 641 
Q 2313 413 2313 363 
Q 2313 319 2338 289 
Q 2363 259 2391 259 
Q 2428 259 2481 300 
Q 2647 431 2844 700 
L 2941 641 
Q 2650 225 2391 47 
Q 2209 -75 2066 -75 
Q 1950 -75 1881 -4 
Q 1813 66 1813 184 
Q 1813 334 1919 700 
L 2281 1956 
Q 2350 2191 2350 2322 
Q 2350 2384 2309 2423 
Q 2269 2463 2209 2463 
Q 2122 2463 2000 2388 
Q 1769 2247 1519 1923 
Q 1269 1600 991 1097 
Q 844 831 747 516 
L 591 0 
L 122 0 
L 691 1956 
Q 791 2309 791 2381 
Q 791 2450 736 2501 
Q 681 2553 600 2553 
Q 563 2553 469 2541 
L 350 2522 
L 331 2634 
L 1413 2828 
z
" transform="scale(0.015625)"/>
       <path id="TimesNewRomanPS-ItalicMT-74" d="M 1663 3603 
L 1419 2753 
L 1909 2753 
L 1856 2556 
L 1369 2556 
L 831 713 
Q 744 416 744 328 
Q 744 275 769 247 
Q 794 219 828 219 
Q 906 219 1034 328 
Q 1109 391 1369 713 
L 1472 634 
Q 1184 216 928 44 
Q 753 -75 575 -75 
Q 438 -75 350 11 
Q 263 97 263 231 
Q 263 400 363 747 
L 884 2556 
L 413 2556 
L 444 2678 
Q 788 2772 1016 2958 
Q 1244 3144 1525 3603 
L 1663 3603 
z
" transform="scale(0.015625)"/>
       <path id="TimesNewRomanPS-ItalicMT-20" transform="scale(0.015625)"/>
       <path id="TimesNewRomanPS-ItalicMT-28" d="M 1203 -1319 
L 1097 -1369 
Q 725 -659 563 -116 
Q 438 309 438 741 
Q 438 1747 903 2544 
Q 1475 3519 2756 4444 
L 2831 4334 
Q 2253 3906 1888 3375 
Q 1431 2713 1140 1775 
Q 850 838 850 69 
Q 850 -519 1203 -1319 
z
" transform="scale(0.015625)"/>
       <path id="TimesNewRomanPS-ItalicMT-29" d="M 931 4384 
L 1038 4444 
Q 1409 3738 1569 3194 
Q 1697 2769 1697 2338 
Q 1697 1328 1231 534 
Q 656 -444 -622 -1369 
L -697 -1272 
Q -119 -841 247 -313 
Q 703 350 993 1289 
Q 1284 2228 1284 2997 
Q 1284 3584 931 4384 
z
" transform="scale(0.015625)"/>
      </defs>
      <use xlink:href="#TimesNewRomanPS-ItalicMT-44"/>
      <use xlink:href="#TimesNewRomanPS-ItalicMT-69" x="72.216797"/>
      <use xlink:href="#TimesNewRomanPS-ItalicMT-73" x="100"/>
      <use xlink:href="#TimesNewRomanPS-ItalicMT-70" x="138.916016"/>
      <use xlink:href="#TimesNewRomanPS-ItalicMT-6c" x="188.916016"/>
      <use xlink:href="#TimesNewRomanPS-ItalicMT-61" x="216.699219"/>
      <use xlink:href="#TimesNewRomanPS-ItalicMT-63" x="266.699219"/>
      <use xlink:href="#TimesNewRomanPS-ItalicMT-65" x="311.083984"/>
      <use xlink:href="#TimesNewRomanPS-ItalicMT-6d" x="355.46875"/>
      <use xlink:href="#TimesNewRomanPS-ItalicMT-65" x="427.685547"/>
      <use xlink:href="#TimesNewRomanPS-ItalicMT-6e" x="472.070312"/>
      <use xlink:href="#TimesNewRomanPS-ItalicMT-74" x="522.070312"/>
      <use xlink:href="#TimesNewRomanPS-ItalicMT-20" x="549.853516"/>
      <use xlink:href="#TimesNewRomanPS-ItalicMT-28" x="574.853516"/>
      <use xlink:href="#TimesNewRomanPS-ItalicMT-6d" x="608.154297"/>
      <use xlink:href="#TimesNewRomanPS-ItalicMT-6d" x="680.371094"/>
      <use xlink:href="#TimesNewRomanPS-ItalicMT-29" x="752.587891"/>
     </g>
    </g>
   </g>
   <g id="matplotlib.axis_2">
    <g id="ytick_1">
     <g id="line2d_11">
      <path d="M 57.324375 174.441334 
L 292.501875 174.441334 
" clip-path="url(#pb52f60daa9)" style="fill: none; stroke-dasharray: 0.8,1.32; stroke-dashoffset: 0; stroke: #b0b0b0; stroke-width: 0.8"/>
     </g>
     <g id="line2d_12">
      <defs>
       <path id="m713ae85e09" d="M 0 0 
L -3.5 0 
" style="stroke: #000000; stroke-width: 0.8"/>
      </defs>
      <g>
       <use xlink:href="#m713ae85e09" x="57.324375" y="174.441334" style="stroke: #000000; stroke-width: 0.8"/>
      </g>
     </g>
     <g id="text_7">
      <!-- −1000 -->
      <g transform="translate(17.099375 178.633834) scale(0.12 -0.12)">
       <defs>
        <path id="Cambria-31" d="M 2172 816 
Q 2172 634 2192 542 
Q 2213 450 2264 392 
Q 2316 334 2412 301 
Q 2509 269 2656 251 
Q 2803 234 3044 228 
L 3044 0 
L 734 0 
L 734 228 
Q 1081 244 1229 270 
Q 1378 297 1456 350 
Q 1534 403 1570 500 
Q 1606 597 1606 816 
L 1606 3350 
Q 1606 3475 1562 3533 
Q 1519 3591 1434 3591 
Q 1334 3591 1150 3487 
Q 966 3384 694 3203 
L 556 3444 
L 2019 4316 
L 2191 4316 
Q 2172 4016 2172 3484 
L 2172 816 
z
" transform="scale(0.015625)"/>
       </defs>
       <use xlink:href="#Cambria-2212"/>
       <use xlink:href="#Cambria-31" x="55.371094"/>
       <use xlink:href="#Cambria-30" x="110.742188"/>
       <use xlink:href="#Cambria-30" x="166.113281"/>
       <use xlink:href="#Cambria-30" x="221.484375"/>
      </g>
     </g>
    </g>
    <g id="ytick_2">
     <g id="line2d_13">
      <path d="M 57.324375 117.509025 
L 292.501875 117.509025 
" clip-path="url(#pb52f60daa9)" style="fill: none; stroke-dasharray: 0.8,1.32; stroke-dashoffset: 0; stroke: #b0b0b0; stroke-width: 0.8"/>
     </g>
     <g id="line2d_14">
      <g>
       <use xlink:href="#m713ae85e09" x="57.324375" y="117.509025" style="stroke: #000000; stroke-width: 0.8"/>
      </g>
     </g>
     <g id="text_8">
      <!-- 0 -->
      <g transform="translate(43.679375 121.701525) scale(0.12 -0.12)">
       <use xlink:href="#Cambria-30"/>
      </g>
     </g>
    </g>
    <g id="ytick_3">
     <g id="line2d_15">
      <path d="M 57.324375 60.576717 
L 292.501875 60.576717 
" clip-path="url(#pb52f60daa9)" style="fill: none; stroke-dasharray: 0.8,1.32; stroke-dashoffset: 0; stroke: #b0b0b0; stroke-width: 0.8"/>
     </g>
     <g id="line2d_16">
      <g>
       <use xlink:href="#m713ae85e09" x="57.324375" y="60.576717" style="stroke: #000000; stroke-width: 0.8"/>
      </g>
     </g>
     <g id="text_9">
      <!-- 1000 -->
      <g transform="translate(23.744375 64.769217) scale(0.12 -0.12)">
       <use xlink:href="#Cambria-31"/>
       <use xlink:href="#Cambria-30" x="55.371094"/>
       <use xlink:href="#Cambria-30" x="110.742188"/>
       <use xlink:href="#Cambria-30" x="166.113281"/>
      </g>
     </g>
    </g>
    <g id="text_10">
     <!-- Base Shear (kN) -->
     <g transform="translate(15.5325 156.783437) rotate(-90) scale(0.12 -0.12)">
      <defs>
       <path id="TimesNewRomanPS-ItalicMT-42" d="M 947 4122 
L 991 4238 
L 2503 4238 
Q 2884 4238 3182 4119 
Q 3481 4000 3629 3787 
Q 3778 3575 3778 3338 
Q 3778 2972 3514 2676 
Q 3250 2381 2653 2241 
Q 3038 2097 3219 1859 
Q 3400 1622 3400 1338 
Q 3400 1022 3237 734 
Q 3075 447 2820 287 
Q 2566 128 2206 53 
Q 1950 0 1406 0 
L -147 0 
L -106 116 
Q 138 122 225 163 
Q 350 216 403 303 
Q 478 422 603 847 
L 1363 3413 
Q 1459 3738 1459 3869 
Q 1459 3984 1373 4051 
Q 1288 4119 1047 4119 
Q 994 4119 947 4122 
z
M 1581 2363 
Q 1784 2356 1875 2356 
Q 2525 2356 2842 2639 
Q 3159 2922 3159 3347 
Q 3159 3669 2965 3848 
Q 2772 4028 2347 4028 
Q 2234 4028 2059 3991 
L 1581 2363 
z
M 966 275 
Q 1303 231 1494 231 
Q 1981 231 2357 525 
Q 2734 819 2734 1322 
Q 2734 1706 2501 1922 
Q 2269 2138 1750 2138 
Q 1650 2138 1506 2128 
L 966 275 
z
" transform="scale(0.015625)"/>
       <path id="TimesNewRomanPS-ItalicMT-53" d="M 44 -97 
L 394 1475 
L 500 1475 
Q 478 1247 478 1097 
Q 478 669 751 400 
Q 1025 131 1466 131 
Q 1875 131 2087 382 
Q 2300 634 2300 963 
Q 2300 1175 2203 1350 
Q 2056 1609 1419 2263 
Q 1109 2575 1022 2728 
Q 878 2981 878 3259 
Q 878 3703 1209 4018 
Q 1541 4334 2059 4334 
Q 2234 4334 2391 4300 
Q 2488 4281 2744 4175 
Q 2925 4103 2944 4097 
Q 2988 4088 3041 4088 
Q 3131 4088 3197 4134 
Q 3263 4181 3350 4334 
L 3469 4334 
L 3144 2928 
L 3038 2928 
Q 3050 3116 3050 3231 
Q 3050 3609 2800 3850 
Q 2550 4091 2141 4091 
Q 1816 4091 1612 3900 
Q 1409 3709 1409 3459 
Q 1409 3241 1539 3042 
Q 1669 2844 2136 2395 
Q 2603 1947 2740 1695 
Q 2878 1444 2878 1159 
Q 2878 838 2708 536 
Q 2538 234 2219 68 
Q 1900 -97 1522 -97 
Q 1334 -97 1171 -62 
Q 1009 -28 653 106 
Q 531 153 450 153 
Q 266 153 163 -97 
L 44 -97 
z
" transform="scale(0.015625)"/>
       <path id="TimesNewRomanPS-ItalicMT-68" d="M 1878 4444 
L 1000 1409 
Q 1569 2266 1887 2547 
Q 2206 2828 2497 2828 
Q 2647 2828 2747 2725 
Q 2847 2622 2847 2450 
Q 2847 2244 2759 1950 
L 2378 641 
Q 2306 403 2306 378 
Q 2306 334 2332 306 
Q 2359 278 2394 278 
Q 2434 278 2488 319 
Q 2666 456 2841 700 
L 2938 641 
Q 2831 475 2642 276 
Q 2453 78 2317 1 
Q 2181 -75 2075 -75 
Q 1959 -75 1886 -1 
Q 1813 72 1813 188 
Q 1813 325 1922 700 
L 2281 1950 
Q 2350 2184 2350 2319 
Q 2350 2381 2311 2418 
Q 2272 2456 2209 2456 
Q 2119 2456 2003 2388 
Q 1791 2256 1513 1900 
Q 1438 1803 1013 1119 
Q 881 900 797 641 
L 597 0 
L 128 0 
L 1156 3575 
L 1266 3963 
Q 1266 4044 1198 4106 
Q 1131 4169 1034 4169 
Q 978 4169 863 4150 
L 797 4141 
L 797 4263 
L 1878 4444 
z
" transform="scale(0.015625)"/>
       <path id="TimesNewRomanPS-ItalicMT-72" d="M 334 2653 
L 1413 2828 
L 963 1309 
Q 1509 2244 1956 2616 
Q 2209 2828 2369 2828 
Q 2472 2828 2531 2767 
Q 2591 2706 2591 2591 
Q 2591 2384 2484 2197 
Q 2409 2056 2269 2056 
Q 2197 2056 2145 2103 
Q 2094 2150 2081 2247 
Q 2075 2306 2053 2325 
Q 2028 2350 1994 2350 
Q 1941 2350 1894 2325 
Q 1813 2281 1647 2081 
Q 1388 1775 1084 1288 
Q 953 1081 859 822 
Q 728 466 709 394 
L 609 0 
L 131 0 
L 709 1941 
Q 809 2278 809 2422 
Q 809 2478 763 2516 
Q 700 2566 597 2566 
Q 531 2566 356 2538 
L 334 2653 
z
" transform="scale(0.015625)"/>
       <path id="TimesNewRomanPS-ItalicMT-6b" d="M 1831 4444 
L 944 1372 
L 1300 1675 
Q 1884 2169 2059 2406 
Q 2116 2484 2116 2525 
Q 2116 2553 2097 2578 
Q 2078 2603 2023 2618 
Q 1969 2634 1831 2634 
L 1722 2634 
L 1756 2753 
L 3122 2753 
L 3091 2634 
Q 2856 2622 2686 2561 
Q 2516 2500 2356 2381 
Q 2041 2147 1941 2056 
L 1672 1819 
Q 1741 1594 1841 1191 
Q 2009 522 2069 397 
Q 2128 272 2191 272 
Q 2244 272 2316 325 
Q 2478 444 2663 703 
L 2772 625 
Q 2431 197 2250 61 
Q 2069 -75 1919 -75 
Q 1788 -75 1716 28 
Q 1591 213 1300 1481 
L 872 1109 
L 550 0 
L 63 0 
L 1100 3566 
L 1188 3869 
Q 1203 3947 1203 4006 
Q 1203 4081 1145 4131 
Q 1088 4181 978 4181 
Q 906 4181 750 4150 
L 750 4259 
L 1831 4444 
z
" transform="scale(0.015625)"/>
       <path id="TimesNewRomanPS-ItalicMT-4e" d="M 1834 4238 
L 3144 916 
L 3853 3397 
Q 3941 3703 3941 3872 
Q 3941 3988 3859 4053 
Q 3778 4119 3556 4119 
Q 3519 4119 3478 4122 
L 3513 4238 
L 4875 4238 
L 4838 4122 
Q 4625 4125 4522 4078 
Q 4375 4013 4303 3909 
Q 4203 3763 4100 3397 
L 3103 -97 
L 2991 -97 
L 1581 3478 
L 828 838 
Q 744 538 744 378 
Q 744 259 820 198 
Q 897 138 1184 116 
L 1153 0 
L -178 0 
L -134 116 
Q 116 122 200 159 
Q 328 216 391 306 
Q 481 444 594 838 
L 1434 3784 
Q 1313 3972 1173 4042 
Q 1034 4113 741 4122 
L 775 4238 
L 1834 4238 
z
" transform="scale(0.015625)"/>
      </defs>
      <use xlink:href="#TimesNewRomanPS-ItalicMT-42"/>
      <use xlink:href="#TimesNewRomanPS-ItalicMT-61" x="61.083984"/>
      <use xlink:href="#TimesNewRomanPS-ItalicMT-73" x="111.083984"/>
      <use xlink:href="#TimesNewRomanPS-ItalicMT-65" x="150"/>
      <use xlink:href="#TimesNewRomanPS-ItalicMT-20" x="194.384766"/>
      <use xlink:href="#TimesNewRomanPS-ItalicMT-53" x="219.384766"/>
      <use xlink:href="#TimesNewRomanPS-ItalicMT-68" x="269.384766"/>
      <use xlink:href="#TimesNewRomanPS-ItalicMT-65" x="319.384766"/>
      <use xlink:href="#TimesNewRomanPS-ItalicMT-61" x="363.769531"/>
      <use xlink:href="#TimesNewRomanPS-ItalicMT-72" x="413.769531"/>
      <use xlink:href="#TimesNewRomanPS-ItalicMT-20" x="452.685547"/>
      <use xlink:href="#TimesNewRomanPS-ItalicMT-28" x="477.685547"/>
      <use xlink:href="#TimesNewRomanPS-ItalicMT-6b" x="510.986328"/>
      <use xlink:href="#TimesNewRomanPS-ItalicMT-4e" x="555.371094"/>
      <use xlink:href="#TimesNewRomanPS-ItalicMT-29" x="622.070312"/>
     </g>
    </g>
   </g>
   <g id="line2d_17">
    <path d="M 177.55921 88.700282 
L 180.164314 75.997422 
L 182.651229 67.309213 
L 184.964178 59.80337 
L 187.051291 54.69954 
L 190.366888 49.022926 
L 192.30225 46.638976 
L 192.693079 46.339171 
L 192.684734 46.869451 
L 191.480218 52.521219 
L 188.796152 66.499272 
L 186.969466 75.09456 
L 182.550705 93.199279 
L 177.448955 113.794936 
L 174.782888 128.280264 
L 172.11932 146.398977 
L 169.517987 155.272471 
L 164.732687 167.25781 
L 162.656039 171.533098 
L 160.85386 174.619546 
L 157.08795 180.18568 
L 157.112986 179.741091 
L 158.349905 172.835022 
L 161.062677 159.32206 
L 165.009307 141.342181 
L 169.837736 119.779683 
L 172.450079 107.824428 
L 175.117241 96.943195 
L 177.779403 88.516157 
L 180.376862 81.388238 
L 182.851363 75.257246 
L 185.147412 70.270645 
L 187.213515 66.129591 
L 189.003334 62.849346 
L 191.600657 58.784385 
L 192.707687 57.135787 
L 192.665961 57.492983 
L 190.197605 70.215429 
L 186.804407 86.564655 
L 184.68639 96.053251 
L 179.843962 115.702317 
L 177.228151 126.093652 
L 174.56 135.856078 
L 171.899347 143.854041 
L 169.305864 150.664506 
L 166.837713 156.522724 
L 164.550249 161.492729 
L 160.717383 168.967048 
L 157.415961 174.576485 
L 157.074732 175.133473 
L 157.589891 172.477141 
L 159.648699 161.831095 
L 163.067501 146.170735 
L 170.051894 116.804533 
L 172.67107 106.621208 
L 175.785873 96.514761 
L 181.103952 82.694787 
L 186.282767 71.395975 
L 191.206173 62.501657 
L 195.763753 55.681727 
L 199.853292 51.189391 
L 203.383074 48.27651 
L 206.273937 46.433479 
L 208.461047 45.259598 
L 209.895354 44.769898 
L 210.544689 43.836784 
L 210.394491 45.139833 
L 207.726824 58.998006 
L 205.269183 70.031188 
L 202.130323 82.690975 
L 198.380639 95.614762 
L 194.104225 108.254878 
L 189.39699 119.338808 
L 184.364502 128.211874 
L 179.119626 135.315473 
L 173.77999 143.712624 
L 168.465345 153.836439 
L 163.294883 162.846936 
L 158.384564 170.746307 
L 153.844511 177.011655 
L 149.776544 181.460541 
L 146.271897 184.342684 
L 139.234249 189.000819 
L 139.417812 187.692968 
L 140.397011 182.427612 
L 142.149884 173.906547 
L 144.63712 162.684155 
L 147.802938 149.89347 
L 151.576337 136.950611 
L 155.872691 124.437374 
L 160.595645 113.501735 
L 165.639277 105.854409 
L 170.890473 99.902586 
L 176.231465 93.401391 
L 181.542468 85.619093 
L 186.704374 77.621247 
L 191.601415 70.640406 
L 196.123764 64.694983 
L 200.17 59.745736 
L 203.649376 55.808761 
L 206.48386 52.886665 
L 210.562783 49.016282 
L 210.345861 49.999094 
L 209.333865 55.14062 
L 207.549491 63.581199 
L 205.032756 74.757195 
L 201.840105 87.161624 
L 198.043139 99.652869 
L 193.727012 111.565544 
L 188.988523 121.962124 
L 183.933943 129.39084 
L 178.676631 135.070839 
L 173.334493 141.166686 
L 168.027338 148.756217 
L 162.87419 156.525771 
L 157.990619 163.502908 
L 153.486149 169.439866 
L 149.461802 174.345479 
L 146.007833 178.266035 
L 143.201705 181.21509 
L 139.218937 185.033412 
L 139.469209 184.074229 
L 142.329769 170.482498 
L 144.875903 159.428064 
L 148.095264 146.955507 
L 151.915649 134.15799 
L 156.25138 121.828796 
L 161.005219 111.759641 
L 166.07055 105.212741 
L 171.333773 99.681572 
L 177.568103 92.261494 
L 185.522752 81.365082 
L 193.239037 70.014098 
L 200.543904 60.898164 
L 207.273526 53.463945 
L 213.276976 48.147926 
L 218.419616 44.599011 
L 222.586111 42.433401 
L 225.683018 41.088472 
L 227.640883 40.56255 
L 228.415797 39.865317 
L 227.990379 42.375968 
L 226.374173 50.742988 
L 223.603423 64.273022 
L 219.740271 79.569493 
L 214.871354 95.244568 
L 209.10587 109.578858 
L 202.573121 121.485816 
L 195.419617 129.475069 
L 187.805791 135.008616 
L 179.902398 139.886791 
L 171.88669 145.858191 
L 163.938434 155.252592 
L 156.235887 164.883972 
L 148.951796 173.63133 
L 142.24952 180.657776 
L 136.279372 185.896264 
L 131.175245 189.243866 
L 127.051611 191.1662 
L 124.00095 192.274851 
L 122.09168 193.110071 
L 121.366619 193.778442 
L 123.507249 182.510307 
L 126.324931 169.541121 
L 130.231884 153.996724 
L 135.140486 138.531186 
L 140.940651 124.175622 
L 147.502299 112.377299 
L 154.67827 105.103737 
L 162.307629 99.818207 
L 170.219271 95.019045 
L 178.235761 89.909027 
L 186.177313 82.685644 
L 193.865821 73.889745 
L 201.128853 66.061108 
L 207.803522 59.557926 
L 213.740134 54.255125 
L 218.805548 50.002541 
L 222.886161 46.823151 
L 228.426238 42.881861 
L 227.900852 45.215578 
L 226.186685 53.735048 
L 223.32218 66.408248 
L 219.371579 81.552287 
L 214.423483 96.491595 
L 208.588864 110.54312 
L 201.998574 122.214171 
L 194.800416 129.713491 
L 187.155822 134.982933 
L 179.236238 139.730087 
L 171.219279 144.968987 
L 163.28474 152.407182 
L 155.610571 161.013058 
L 148.368881 168.776291 
L 141.72208 175.212192 
L 135.819236 180.458235 
L 130.792733 184.636727 
L 126.7553 187.737731 
L 121.360354 191.383241 
L 121.935694 189.214461 
L 123.698742 180.85257 
L 126.609959 168.023835 
L 130.604053 152.845061 
L 135.59145 137.446453 
L 141.460296 123.020819 
L 148.078971 111.576375 
L 155.299036 104.773947 
L 162.958567 99.722021 
L 170.885782 95.116312 
L 180.239084 88.546838 
L 190.808705 78.27511 
L 201.021413 66.612063 
L 210.648166 57.245072 
L 219.473066 49.708234 
L 227.298194 44.195919 
L 233.948056 40.487257 
L 239.273516 38.317616 
L 243.155137 37.074105 
L 245.505868 36.670693 
L 246.272988 36.168143 
L 245.439292 40.790307 
L 243.023479 53.191675 
L 239.079727 70.745872 
L 233.696483 88.781006 
L 226.994479 105.31301 
L 219.12402 119.105158 
L 210.261619 128.079024 
L 200.606032 133.880421 
L 190.373806 138.49814 
L 179.794422 142.801436 
L 169.105142 148.330973 
L 158.545698 157.721461 
L 148.352906 168.04704 
L 138.755361 177.238606 
L 129.968308 184.550655 
L 122.188816 190.099859 
L 115.591355 193.644097 
L 110.323887 195.501235 
L 106.504547 196.364088 
L 104.218991 197.083664 
L 103.518477 197.812977 
L 104.418716 193.061673 
L 106.899518 180.701962 
L 110.905246 163.429494 
L 116.346063 145.439563 
L 123.099948 129.092172 
L 131.01543 115.256859 
L 139.914989 106.502549 
L 149.599032 100.840825 
L 159.850376 96.028548 
L 170.439112 91.845401 
L 181.127766 87.0387 
L 191.676622 79.464618 
L 201.849101 69.924193 
L 211.417062 61.694743 
L 220.165925 55.036283 
L 227.899479 49.602702 
L 234.444281 45.212138 
L 239.653552 41.93213 
L 246.264635 38.213655 
L 242.752193 54.750065 
L 238.684645 71.318784 
L 233.186466 88.862638 
L 226.380964 105.116914 
L 218.420768 119.167439 
L 209.4844 128.283468 
L 199.772277 134.080643 
L 189.502215 138.677873 
L 178.904541 142.971708 
L 168.216929 148.143062 
L 157.679073 155.986217 
L 147.527305 165.266037 
L 137.9893 173.351492 
L 129.278967 179.964039 
L 121.591655 185.378571 
L 115.099766 189.713001 
L 109.948896 192.847524 
L 106.254563 194.753081 
L 104.099621 195.731585 
L 103.532398 196.214015 
L 104.565616 191.89438 
L 107.176103 179.780628 
L 111.305312 162.872733 
L 116.860638 145.145253 
L 123.717492 128.583651 
L 131.722093 114.746604 
L 140.694922 106.169664 
L 150.434744 100.667473 
L 160.723124 96.092357 
L 171.329323 92.045044 
L 183.795759 85.601952 
L 196.953816 75.032273 
L 209.617144 63.245249 
L 221.501739 53.810084 
L 232.341067 46.276387 
L 241.892032 40.622402 
L 249.940433 36.948259 
L 256.305769 34.89732 
L 260.845283 33.858563 
L 264.082847 33.491157 
L 262.708287 40.907772 
L 259.364315 57.425459 
L 254.125928 77.865545 
L 247.110607 96.934061 
L 238.475685 113.316934 
L 228.414819 124.808254 
L 217.153644 131.610206 
L 204.944716 136.680108 
L 192.061845 140.928725 
L 178.793958 145.118719 
L 165.438613 150.730428 
L 152.295332 160.435489 
L 139.658882 171.362385 
L 127.81266 180.651431 
L 117.022344 188.073522 
L 107.529928 193.70686 
L 99.548299 197.28388 
L 93.256463 198.974523 
L 88.795527 199.546765 
L 86.265537 200.191736 
L 85.723233 200.815205 
L 87.180777 193.330573 
L 90.605482 177.082334 
L 95.92054 156.481046 
L 103.00675 137.77569 
L 111.705191 121.505638 
L 121.820779 109.914773 
L 133.126654 103.207554 
L 145.369256 97.942229 
L 158.274019 93.608879 
L 171.551528 89.641182 
L 184.904007 84.669717 
L 198.031998 76.112152 
L 210.641078 65.881728 
L 222.448464 57.611219 
L 233.189348 50.957958 
L 242.622846 45.551577 
L 250.53739 41.238378 
L 256.75548 38.067557 
L 263.58566 34.856595 
L 264.044569 34.959993 
L 262.504097 42.39599 
L 258.998794 58.289945 
L 253.607272 77.751412 
L 246.450448 96.39547 
L 237.688829 113.039062 
L 227.518913 124.853842 
L 216.16878 131.878164 
L 203.892982 136.974843 
L 177.680216 145.220371 
L 164.331124 150.787923 
L 151.218935 159.475496 
L 138.637716 169.214389 
L 126.869628 177.214094 
L 116.178594 183.788712 
L 106.804383 189.167724 
L 98.957232 193.442547 
L 92.81313 196.490879 
L 85.768467 199.565773 
L 90.977572 176.220128 
L 96.445347 156.170941 
L 103.672505 137.490792 
L 112.496961 121.04217 
L 122.720809 109.587408 
L 134.114757 102.900179 
L 146.423273 97.768635 
L 159.370312 93.629791 
L 172.665509 89.797518 
L 188.233963 83.06461 
L 203.949015 71.732642 
L 219.012455 60.158318 
L 233.086454 50.715231 
L 245.855373 43.183605 
L 257.032842 37.70633 
L 266.368184 34.344607 
L 273.652034 32.645853 
L 278.721037 32.336485 
L 281.461508 32.844984 
L 281.811989 33.816051 
L 279.764617 44.502514 
L 275.365311 64.091286 
L 268.712732 85.77024 
L 259.956081 104.576678 
L 249.291742 119.427406 
L 236.958886 128.136781 
L 223.234103 133.992178 
L 208.425199 138.69234 
L 176.900379 146.964691 
L 160.891473 153.003164 
L 145.19661 163.572479 
L 130.167781 174.706929 
L 116.142038 183.533525 
L 103.433939 190.794326 
L 92.328488 196.192137 
L 83.074749 199.487567 
L 75.880256 200.715545 
L 70.906361 200.682784 
L 68.014261 201.149411 
L 70.160918 190.760168 
L 74.65644 170.728912 
L 81.400007 148.659296 
L 90.240379 129.921996 
L 100.979293 115.337431 
L 113.375907 106.781369 
L 127.1522 100.840031 
L 141.999211 96.091969 
L 173.556937 88.012655 
L 189.559905 82.07169 
L 220.227599 62.799711 
L 234.204539 54.458412 
L 246.851323 47.73582 
L 257.884322 43.371095 
L 267.056096 40.948532 
L 279.039545 38.202904 
L 281.582464 37.447126 
L 281.73268 38.528242 
L 279.486822 49.862845 
L 274.89526 68.540443 
L 268.060968 88.708444 
L 259.137219 106.921468 
L 248.324148 120.926739 
L 235.864261 129.086484 
L 222.036995 134.804417 
L 207.152456 139.137423 
L 191.544462 142.761833 
L 175.563055 147.302758 
L 159.56665 154.531757 
L 143.914 164.398195 
L 128.956149 173.458178 
L 115.028558 180.917968 
L 102.443583 186.96697 
L 91.483467 191.270203 
L 82.394014 194.09508 
L 75.379074 195.780942 
L 70.595973 196.320568 
L 68.15198 196.470815 
L 68.101907 195.612939 
L 70.446878 184.473422 
L 75.134302 165.84149 
L 82.059053 145.858716 
L 91.065829 127.712367 
L 101.952635 113.985021 
L 114.475311 105.868499 
L 114.475311 105.868499 
" clip-path="url(#pb52f60daa9)" style="fill: none; stroke: #0000ff; stroke-width: 0.8; stroke-linecap: square"/>
   </g>
   <g id="line2d_18">
    <path d="M 177.55921 88.467845 
L 180.164314 75.439163 
L 182.651229 65.8459 
L 184.964178 59.343507 
L 187.051291 54.43367 
L 188.865759 50.97919 
L 190.366888 48.679306 
L 192.30225 46.252001 
L 192.693079 45.883059 
L 192.684734 45.92857 
L 190.311061 58.684502 
L 188.796152 66.322655 
L 186.969466 74.934452 
L 184.87197 84.063425 
L 180.05773 102.95041 
L 177.448955 114.1141 
L 174.782888 127.324669 
L 172.11932 147.169151 
L 167.037231 161.053437 
L 164.732687 166.789578 
L 162.656039 171.191423 
L 160.85386 174.387066 
L 158.22752 178.269066 
L 157.08795 179.714912 
L 157.112986 179.572317 
L 159.534047 166.42965 
L 161.062677 158.642218 
L 162.90151 149.878594 
L 165.009307 140.580119 
L 169.837736 120.489769 
L 172.450079 108.05652 
L 175.117241 96.306701 
L 177.779403 87.270649 
L 180.376862 80.240869 
L 182.851363 74.333787 
L 185.147412 69.373616 
L 187.213515 65.357162 
L 190.476729 59.773392 
L 192.707687 56.419243 
L 190.197605 69.53568 
L 186.804407 85.64268 
L 182.348767 104.561157 
L 179.843962 114.781252 
L 177.228151 126.009263 
L 174.56 136.154001 
L 171.899347 144.205262 
L 169.305864 151.073817 
L 166.837713 157.038682 
L 164.550249 162.134195 
L 162.494773 166.332004 
L 159.257941 172.261044 
L 157.074732 175.762377 
L 159.648699 162.291947 
L 161.20459 154.714824 
L 163.067501 146.266859 
L 167.541321 127.934949 
L 170.051894 117.932953 
L 172.67107 107.015284 
L 175.785873 96.273339 
L 181.103952 82.00357 
L 186.282767 70.697604 
L 191.206173 61.913093 
L 195.763753 55.303891 
L 199.853292 51.102544 
L 203.383074 48.392512 
L 206.273937 46.549903 
L 210.544689 44.255055 
L 207.726824 58.792574 
L 205.269183 70.224088 
L 202.130323 82.999039 
L 198.380639 95.646602 
L 194.104225 107.610741 
L 189.39699 118.882635 
L 184.364502 128.012306 
L 179.119626 135.168606 
L 173.77999 143.90956 
L 168.465345 153.874609 
L 163.294883 163.10482 
L 158.384564 170.902133 
L 153.844511 177.18471 
L 149.776544 181.75593 
L 146.271897 184.709706 
L 143.409167 186.697926 
L 139.234249 189.173835 
L 142.149884 174.207465 
L 144.63712 162.743048 
L 147.802938 150.006297 
L 151.576337 137.421447 
L 155.872691 125.46024 
L 160.595645 114.302393 
L 165.639277 106.438922 
L 170.890473 100.318449 
L 176.231465 93.538717 
L 191.601415 70.592614 
L 196.123764 64.640934 
L 200.17 59.827527 
L 203.649376 56.061062 
L 208.609883 51.201862 
L 210.562783 49.433557 
L 207.549491 64.285196 
L 205.032756 75.413865 
L 201.840105 87.695232 
L 198.043139 100.097084 
L 193.727012 111.933548 
L 188.988523 122.858542 
L 183.933943 129.875806 
L 178.676631 135.399138 
L 173.334493 141.515441 
L 168.027338 149.024531 
L 162.87419 156.851806 
L 157.990619 163.998233 
L 153.486149 170.07797 
L 149.461802 175.002165 
L 146.007833 178.849699 
L 141.10635 183.824585 
L 139.218937 185.602013 
L 140.513963 179.026043 
L 142.329769 170.285355 
L 144.875903 159.110827 
L 148.095264 146.80752 
L 151.915649 134.37646 
L 156.25138 122.570485 
L 161.005219 111.740285 
L 166.07055 105.09565 
L 171.333773 99.62425 
L 177.568103 92.50872 
L 193.239037 70.29386 
L 200.543904 61.242494 
L 207.273526 54.141638 
L 213.276976 48.616261 
L 218.419616 44.731781 
L 222.586111 42.875402 
L 227.640883 40.975944 
L 228.415797 40.717252 
L 226.374173 51.223235 
L 223.603423 64.291225 
L 219.740271 79.86441 
L 214.871354 95.13331 
L 209.10587 108.944827 
L 202.573121 121.129547 
L 195.419617 129.302493 
L 187.805791 134.696449 
L 179.902398 139.47653 
L 171.88669 145.592598 
L 163.938434 154.721798 
L 156.235887 164.556174 
L 148.951796 173.208399 
L 142.24952 180.238664 
L 136.279372 185.78764 
L 131.175245 189.426887 
L 127.051611 191.302682 
L 121.366619 193.486103 
L 123.507249 182.499591 
L 126.324931 169.305686 
L 130.231884 153.731303 
L 135.140486 138.567406 
L 140.940651 124.747053 
L 147.502299 112.617373 
L 154.67827 105.630972 
L 162.307629 100.410754 
L 170.219271 95.839454 
L 178.235761 90.510477 
L 186.177313 82.929504 
L 193.865821 74.333904 
L 201.128853 66.40193 
L 207.803522 59.809039 
L 213.740134 54.531202 
L 218.805548 50.428467 
L 225.890457 45.172552 
L 228.426238 43.40358 
L 226.186685 54.257615 
L 223.32218 66.876791 
L 219.371579 81.682343 
L 214.423483 96.604209 
L 208.588864 110.411055 
L 201.998574 122.473135 
L 194.800416 130.131047 
L 187.155822 135.173264 
L 179.236238 139.671317 
L 171.219279 144.957899 
L 163.28474 152.370516 
L 155.610571 161.005854 
L 148.368881 168.95033 
L 141.72208 175.558474 
L 135.819236 180.838478 
L 130.792733 184.953601 
L 123.797486 190.212897 
L 121.360354 191.939794 
L 123.698742 180.645741 
L 126.609959 167.873774 
L 130.604053 153.052293 
L 135.59145 138.106817 
L 141.460296 124.312514 
L 148.078971 112.309871 
L 155.299036 104.847789 
L 162.958567 99.871627 
L 170.885782 95.430836 
L 180.239084 89.015887 
L 190.808705 78.448677 
L 201.021413 67.479053 
L 210.648166 58.224882 
L 219.473066 50.879582 
L 227.298194 45.095908 
L 233.948056 41.094059 
L 239.273516 39.350684 
L 246.272988 37.408306 
L 243.023479 53.702306 
L 239.079727 70.738856 
L 233.696483 88.713574 
L 226.994479 104.647399 
L 219.12402 118.355568 
L 210.261619 127.848057 
L 200.606032 133.539147 
L 190.373806 138.146882 
L 179.794422 142.454613 
L 169.105142 148.201622 
L 158.545698 157.161117 
L 148.352906 167.42112 
L 138.755361 176.617996 
L 129.968308 183.986779 
L 122.188816 189.820294 
L 115.591355 193.676025 
L 110.323887 195.384539 
L 103.518477 197.258846 
L 104.418716 192.592263 
L 106.899518 180.382394 
L 110.905246 163.240273 
L 116.346063 145.360564 
L 123.099948 129.443888 
L 131.01543 115.795975 
L 139.914989 107.031184 
L 149.599032 101.518177 
L 159.850376 97.04842 
L 170.439112 92.952897 
L 181.127766 87.814829 
L 191.676622 79.859111 
L 201.849101 70.410433 
L 211.417062 62.020466 
L 220.165925 55.235683 
L 227.899479 49.857798 
L 234.444281 45.662972 
L 243.410461 40.306574 
L 246.264635 38.676862 
L 245.297887 43.320206 
L 242.752193 54.948724 
L 238.684645 71.004211 
L 233.186466 88.2682 
L 226.380964 104.30284 
L 218.420768 118.044629 
L 209.4844 128.541479 
L 199.772277 134.064456 
L 189.502215 138.538986 
L 178.904541 142.744478 
L 168.216929 147.968534 
L 157.679073 155.689466 
L 147.527305 165.012371 
L 137.9893 173.384192 
L 129.278967 180.08916 
L 121.591655 185.429148 
L 115.099766 189.599236 
L 106.254563 194.909268 
L 103.532398 196.465117 
L 104.565616 191.507383 
L 107.176103 179.65369 
L 111.305312 163.453156 
L 116.860638 146.187688 
L 123.717492 130.241521 
L 131.722093 116.589171 
L 140.694922 106.325621 
L 150.434744 100.912875 
L 160.723124 96.561241 
L 171.329323 92.492662 
L 183.795759 85.978354 
L 196.953816 75.112275 
L 209.617144 63.924083 
L 221.501739 54.736261 
L 232.341067 47.463949 
L 241.892032 41.673414 
L 249.940433 37.605971 
L 260.845283 34.960656 
L 264.082847 34.293217 
L 262.708287 41.342436 
L 259.364315 57.183122 
L 254.125928 77.435901 
L 247.110607 96.015555 
L 238.475685 111.917362 
L 228.414819 124.289686 
L 217.153644 131.174789 
L 204.944716 136.161779 
L 192.061845 140.41054 
L 178.793958 144.544385 
L 165.438613 150.520633 
L 152.295332 160.177659 
L 139.658882 170.956184 
L 127.81266 180.13504 
L 117.022344 187.452593 
L 107.529928 193.268012 
L 99.548299 197.27983 
L 93.256463 198.884959 
L 85.723233 200.547297 
L 87.180777 193.079429 
L 90.605482 176.965813 
L 95.92054 156.63997 
L 103.00675 138.127142 
L 111.705191 122.289961 
L 121.820779 110.311564 
L 133.126654 103.678898 
L 145.369256 98.746303 
L 158.274019 94.511685 
L 171.551528 90.407893 
L 184.904007 85.038125 
L 198.031998 76.509981 
L 210.641078 66.675075 
L 222.448464 58.106731 
L 233.189348 51.372294 
L 242.622846 46.020417 
L 250.53739 41.830401 
L 264.044569 35.112461 
L 262.504097 42.299174 
L 258.998794 57.3215 
L 253.607272 76.221298 
L 246.450448 94.711373 
L 237.688829 110.726746 
L 227.518913 123.750471 
L 216.16878 131.802823 
L 203.892982 136.648603 
L 190.966828 140.803861 
L 177.680216 144.856335 
L 164.331124 150.394168 
L 151.218935 159.143729 
L 138.637716 169.057117 
L 126.869628 177.410522 
L 116.178594 184.072617 
L 106.804383 189.384752 
L 98.957232 193.54252 
L 88.50987 198.793827 
L 85.768467 199.983383 
L 87.391806 191.789243 
L 90.977572 175.218498 
L 96.445347 154.891889 
L 103.672505 136.575296 
L 112.496961 120.967439 
L 122.720809 109.452655 
L 134.114757 103.014579 
L 146.423273 98.200091 
L 159.370312 94.047433 
L 172.665509 89.927714 
L 188.233963 83.04379 
L 203.949015 71.929768 
L 219.012455 60.695288 
L 233.086454 51.644562 
L 245.855373 44.509312 
L 257.032842 38.793818 
L 266.368184 34.572591 
L 278.721037 32.043148 
L 281.811989 31.515682 
L 279.764617 41.882125 
L 275.365311 61.635139 
L 268.712732 83.618096 
L 259.956081 102.327836 
L 249.291742 117.625189 
L 236.958886 127.329761 
L 223.234103 133.483222 
L 208.425199 138.174023 
L 176.900379 146.55032 
L 160.891473 152.997308 
L 145.19661 163.298048 
L 130.167781 174.261962 
L 116.142038 183.315294 
L 103.433939 190.479503 
L 92.328488 196.208457 
L 83.074749 200.368444 
L 70.906361 202.889639 
L 68.014261 203.404318 
L 70.160918 192.571578 
L 74.65644 172.536555 
L 81.400007 150.589633 
L 90.240379 131.930527 
L 100.979293 116.759646 
L 113.375907 107.413172 
L 127.1522 101.427636 
L 141.999211 96.798017 
L 173.556937 88.598452 
L 189.559905 82.5999 
L 205.233967 73.002218 
L 220.227599 62.790447 
L 234.204539 54.400051 
L 246.851323 48.019175 
L 257.884322 44.347658 
L 281.73268 39.697402 
L 279.486822 50.327679 
L 274.89526 69.400092 
L 268.060968 89.481347 
L 259.137219 107.42813 
L 248.324148 121.150884 
L 235.864261 128.907415 
L 222.036995 134.303979 
L 207.152456 138.814354 
L 191.544462 142.935377 
L 175.563055 147.299006 
L 159.56665 154.546326 
L 143.914 165.296589 
L 128.956149 175.087528 
L 115.028558 181.911153 
L 102.443583 189.260041 
L 91.483467 191.769329 
L 68.101907 195.891904 
L 70.446878 184.799386 
L 75.134302 165.516418 
L 82.059053 145.431526 
L 91.065829 127.602537 
L 101.952635 114.043048 
L 114.475311 106.182937 
L 114.475311 106.182937 
" clip-path="url(#pb52f60daa9)" style="fill: none; stroke-dasharray: 2.96,1.28; stroke-dashoffset: 0; stroke: #000000; stroke-width: 0.8"/>
   </g>
   <g id="line2d_19">
    <path d="M 57.324375 117.509025 
L 292.501875 117.509025 
" clip-path="url(#pb52f60daa9)" style="fill: none; stroke: #000000; stroke-width: 0.4; stroke-linecap: square"/>
   </g>
   <g id="line2d_20">
    <path d="M 174.89434 211.99875 
L 174.89434 22.92125 
" clip-path="url(#pb52f60daa9)" style="fill: none; stroke: #000000; stroke-width: 0.4; stroke-linecap: square"/>
   </g>
   <g id="patch_3">
    <path d="M 57.324375 211.99875 
L 57.324375 22.92125 
" style="fill: none; stroke: #000000; stroke-width: 0.8; stroke-linejoin: miter; stroke-linecap: square"/>
   </g>
   <g id="patch_4">
    <path d="M 292.501875 211.99875 
L 292.501875 22.92125 
" style="fill: none; stroke: #000000; stroke-width: 0.8; stroke-linejoin: miter; stroke-linecap: square"/>
   </g>
   <g id="patch_5">
    <path d="M 57.324375 211.99875 
L 292.501875 211.99875 
" style="fill: none; stroke: #000000; stroke-width: 0.8; stroke-linejoin: miter; stroke-linecap: square"/>
   </g>
   <g id="patch_6">
    <path d="M 57.324375 22.92125 
L 292.501875 22.92125 
" style="fill: none; stroke: #000000; stroke-width: 0.8; stroke-linejoin: miter; stroke-linecap: square"/>
   </g>
   <g id="text_11">
    <!-- Specimen (1) -->
    <g transform="translate(137.3975 16.92125) scale(0.14 -0.14)">
     <defs>
      <path id="TimesNewRomanPSMT-53" d="M 2934 4334 
L 2934 2869 
L 2819 2869 
Q 2763 3291 2617 3541 
Q 2472 3791 2203 3937 
Q 1934 4084 1647 4084 
Q 1322 4084 1109 3886 
Q 897 3688 897 3434 
Q 897 3241 1031 3081 
Q 1225 2847 1953 2456 
Q 2547 2138 2764 1967 
Q 2981 1797 3098 1565 
Q 3216 1334 3216 1081 
Q 3216 600 2842 251 
Q 2469 -97 1881 -97 
Q 1697 -97 1534 -69 
Q 1438 -53 1133 45 
Q 828 144 747 144 
Q 669 144 623 97 
Q 578 50 556 -97 
L 441 -97 
L 441 1356 
L 556 1356 
Q 638 900 775 673 
Q 913 447 1195 297 
Q 1478 147 1816 147 
Q 2206 147 2432 353 
Q 2659 559 2659 841 
Q 2659 997 2573 1156 
Q 2488 1316 2306 1453 
Q 2184 1547 1640 1851 
Q 1097 2156 867 2337 
Q 638 2519 519 2737 
Q 400 2956 400 3219 
Q 400 3675 750 4004 
Q 1100 4334 1641 4334 
Q 1978 4334 2356 4169 
Q 2531 4091 2603 4091 
Q 2684 4091 2736 4139 
Q 2788 4188 2819 4334 
L 2934 4334 
z
" transform="scale(0.015625)"/>
      <path id="TimesNewRomanPSMT-70" d="M -6 2578 
L 875 2934 
L 994 2934 
L 994 2266 
Q 1216 2644 1439 2795 
Q 1663 2947 1909 2947 
Q 2341 2947 2628 2609 
Q 2981 2197 2981 1534 
Q 2981 794 2556 309 
Q 2206 -88 1675 -88 
Q 1444 -88 1275 -22 
Q 1150 25 994 166 
L 994 -706 
Q 994 -1000 1030 -1079 
Q 1066 -1159 1155 -1206 
Q 1244 -1253 1478 -1253 
L 1478 -1369 
L -22 -1369 
L -22 -1253 
L 56 -1253 
Q 228 -1256 350 -1188 
Q 409 -1153 442 -1076 
Q 475 -1000 475 -688 
L 475 2019 
Q 475 2297 450 2372 
Q 425 2447 370 2484 
Q 316 2522 222 2522 
Q 147 2522 31 2478 
L -6 2578 
z
M 994 2081 
L 994 1013 
Q 994 666 1022 556 
Q 1066 375 1236 237 
Q 1406 100 1666 100 
Q 1978 100 2172 344 
Q 2425 663 2425 1241 
Q 2425 1897 2138 2250 
Q 1938 2494 1663 2494 
Q 1513 2494 1366 2419 
Q 1253 2363 994 2081 
z
" transform="scale(0.015625)"/>
      <path id="TimesNewRomanPSMT-65" d="M 681 1784 
Q 678 1147 991 784 
Q 1303 422 1725 422 
Q 2006 422 2214 576 
Q 2422 731 2563 1106 
L 2659 1044 
Q 2594 616 2278 264 
Q 1963 -88 1488 -88 
Q 972 -88 605 314 
Q 238 716 238 1394 
Q 238 2128 614 2539 
Q 991 2950 1559 2950 
Q 2041 2950 2350 2633 
Q 2659 2316 2659 1784 
L 681 1784 
z
M 681 1966 
L 2006 1966 
Q 1991 2241 1941 2353 
Q 1863 2528 1708 2628 
Q 1553 2728 1384 2728 
Q 1125 2728 920 2526 
Q 716 2325 681 1966 
z
" transform="scale(0.015625)"/>
      <path id="TimesNewRomanPSMT-63" d="M 2631 1088 
Q 2516 522 2178 217 
Q 1841 -88 1431 -88 
Q 944 -88 581 321 
Q 219 731 219 1428 
Q 219 2103 620 2525 
Q 1022 2947 1584 2947 
Q 2006 2947 2278 2723 
Q 2550 2500 2550 2259 
Q 2550 2141 2473 2067 
Q 2397 1994 2259 1994 
Q 2075 1994 1981 2113 
Q 1928 2178 1911 2362 
Q 1894 2547 1784 2644 
Q 1675 2738 1481 2738 
Q 1169 2738 978 2506 
Q 725 2200 725 1697 
Q 725 1184 976 792 
Q 1228 400 1656 400 
Q 1963 400 2206 609 
Q 2378 753 2541 1131 
L 2631 1088 
z
" transform="scale(0.015625)"/>
      <path id="TimesNewRomanPSMT-69" d="M 928 4444 
Q 1059 4444 1151 4351 
Q 1244 4259 1244 4128 
Q 1244 3997 1151 3903 
Q 1059 3809 928 3809 
Q 797 3809 703 3903 
Q 609 3997 609 4128 
Q 609 4259 701 4351 
Q 794 4444 928 4444 
z
M 1188 2947 
L 1188 647 
Q 1188 378 1227 289 
Q 1266 200 1342 156 
Q 1419 113 1622 113 
L 1622 0 
L 231 0 
L 231 113 
Q 441 113 512 153 
Q 584 194 626 287 
Q 669 381 669 647 
L 669 1750 
Q 669 2216 641 2353 
Q 619 2453 572 2492 
Q 525 2531 444 2531 
Q 356 2531 231 2484 
L 188 2597 
L 1050 2947 
L 1188 2947 
z
" transform="scale(0.015625)"/>
      <path id="TimesNewRomanPSMT-6d" d="M 1050 2338 
Q 1363 2650 1419 2697 
Q 1559 2816 1721 2881 
Q 1884 2947 2044 2947 
Q 2313 2947 2506 2790 
Q 2700 2634 2766 2338 
Q 3088 2713 3309 2830 
Q 3531 2947 3766 2947 
Q 3994 2947 4170 2830 
Q 4347 2713 4450 2447 
Q 4519 2266 4519 1878 
L 4519 647 
Q 4519 378 4559 278 
Q 4591 209 4675 161 
Q 4759 113 4950 113 
L 4950 0 
L 3538 0 
L 3538 113 
L 3597 113 
Q 3781 113 3884 184 
Q 3956 234 3988 344 
Q 4000 397 4000 647 
L 4000 1878 
Q 4000 2228 3916 2372 
Q 3794 2572 3525 2572 
Q 3359 2572 3192 2489 
Q 3025 2406 2788 2181 
L 2781 2147 
L 2788 2013 
L 2788 647 
Q 2788 353 2820 281 
Q 2853 209 2943 161 
Q 3034 113 3253 113 
L 3253 0 
L 1806 0 
L 1806 113 
Q 2044 113 2133 169 
Q 2222 225 2256 338 
Q 2272 391 2272 647 
L 2272 1878 
Q 2272 2228 2169 2381 
Q 2031 2581 1784 2581 
Q 1616 2581 1450 2491 
Q 1191 2353 1050 2181 
L 1050 647 
Q 1050 366 1089 281 
Q 1128 197 1204 155 
Q 1281 113 1516 113 
L 1516 0 
L 100 0 
L 100 113 
Q 297 113 375 155 
Q 453 197 493 289 
Q 534 381 534 647 
L 534 1741 
Q 534 2213 506 2350 
Q 484 2453 437 2492 
Q 391 2531 309 2531 
Q 222 2531 100 2484 
L 53 2597 
L 916 2947 
L 1050 2947 
L 1050 2338 
z
" transform="scale(0.015625)"/>
      <path id="TimesNewRomanPSMT-6e" d="M 1034 2341 
Q 1538 2947 1994 2947 
Q 2228 2947 2397 2830 
Q 2566 2713 2666 2444 
Q 2734 2256 2734 1869 
L 2734 647 
Q 2734 375 2778 278 
Q 2813 200 2889 156 
Q 2966 113 3172 113 
L 3172 0 
L 1756 0 
L 1756 113 
L 1816 113 
Q 2016 113 2095 173 
Q 2175 234 2206 353 
Q 2219 400 2219 647 
L 2219 1819 
Q 2219 2209 2117 2386 
Q 2016 2563 1775 2563 
Q 1403 2563 1034 2156 
L 1034 647 
Q 1034 356 1069 288 
Q 1113 197 1189 155 
Q 1266 113 1500 113 
L 1500 0 
L 84 0 
L 84 113 
L 147 113 
Q 366 113 442 223 
Q 519 334 519 647 
L 519 1709 
Q 519 2225 495 2337 
Q 472 2450 423 2490 
Q 375 2531 294 2531 
Q 206 2531 84 2484 
L 38 2597 
L 900 2947 
L 1034 2947 
L 1034 2341 
z
" transform="scale(0.015625)"/>
      <path id="TimesNewRomanPSMT-20" transform="scale(0.015625)"/>
      <path id="TimesNewRomanPSMT-28" d="M 1988 -1253 
L 1988 -1369 
Q 1516 -1131 1200 -813 
Q 750 -359 506 256 
Q 263 872 263 1534 
Q 263 2503 741 3301 
Q 1219 4100 1988 4444 
L 1988 4313 
Q 1603 4100 1356 3731 
Q 1109 3363 987 2797 
Q 866 2231 866 1616 
Q 866 947 969 400 
Q 1050 -31 1165 -292 
Q 1281 -553 1476 -793 
Q 1672 -1034 1988 -1253 
z
" transform="scale(0.015625)"/>
      <path id="TimesNewRomanPSMT-31" d="M 750 3822 
L 1781 4325 
L 1884 4325 
L 1884 747 
Q 1884 391 1914 303 
Q 1944 216 2037 169 
Q 2131 122 2419 116 
L 2419 0 
L 825 0 
L 825 116 
Q 1125 122 1212 167 
Q 1300 213 1334 289 
Q 1369 366 1369 747 
L 1369 3034 
Q 1369 3497 1338 3628 
Q 1316 3728 1258 3775 
Q 1200 3822 1119 3822 
Q 1003 3822 797 3725 
L 750 3822 
z
" transform="scale(0.015625)"/>
      <path id="TimesNewRomanPSMT-29" d="M 144 4313 
L 144 4444 
Q 619 4209 934 3891 
Q 1381 3434 1625 2820 
Q 1869 2206 1869 1541 
Q 1869 572 1392 -226 
Q 916 -1025 144 -1369 
L 144 -1253 
Q 528 -1038 776 -670 
Q 1025 -303 1145 264 
Q 1266 831 1266 1447 
Q 1266 2113 1163 2663 
Q 1084 3094 967 3353 
Q 850 3613 656 3853 
Q 463 4094 144 4313 
z
" transform="scale(0.015625)"/>
     </defs>
     <use xlink:href="#TimesNewRomanPSMT-53"/>
     <use xlink:href="#TimesNewRomanPSMT-70" x="55.615234"/>
     <use xlink:href="#TimesNewRomanPSMT-65" x="105.615234"/>
     <use xlink:href="#TimesNewRomanPSMT-63" x="150"/>
     <use xlink:href="#TimesNewRomanPSMT-69" x="194.384766"/>
     <use xlink:href="#TimesNewRomanPSMT-6d" x="222.167969"/>
     <use xlink:href="#TimesNewRomanPSMT-65" x="299.951172"/>
     <use xlink:href="#TimesNewRomanPSMT-6e" x="344.335938"/>
     <use xlink:href="#TimesNewRomanPSMT-20" x="394.335938"/>
     <use xlink:href="#TimesNewRomanPSMT-28" x="419.335938"/>
     <use xlink:href="#TimesNewRomanPSMT-31" x="452.636719"/>
     <use xlink:href="#TimesNewRomanPSMT-29" x="502.636719"/>
    </g>
   </g>
   <g id="legend_1">
    <g id="patch_7">
     <path d="M 63.624375 55.571562 
L 150.661406 55.571562 
Q 152.461406 55.571562 152.461406 53.771562 
L 152.461406 29.22125 
Q 152.461406 27.42125 150.661406 27.42125 
L 63.624375 27.42125 
Q 61.824375 27.42125 61.824375 29.22125 
L 61.824375 53.771562 
Q 61.824375 55.571562 63.624375 55.571562 
z
" style="fill: #ffffff; opacity: 0.8; stroke: #cccccc; stroke-linejoin: miter"/>
    </g>
    <g id="line2d_21">
     <path d="M 65.424375 34.17125 
L 74.424375 34.17125 
L 83.424375 34.17125 
" style="fill: none; stroke: #0000ff; stroke-width: 0.8; stroke-linecap: square"/>
    </g>
    <g id="text_12">
     <!-- DNN prediction -->
     <g transform="translate(90.624375 37.32125) scale(0.09 -0.09)">
      <defs>
       <path id="TimesNewRomanPSMT-44" d="M 109 0 
L 109 116 
L 269 116 
Q 538 116 650 288 
Q 719 391 719 750 
L 719 3488 
Q 719 3884 631 3984 
Q 509 4122 269 4122 
L 109 4122 
L 109 4238 
L 1834 4238 
Q 2784 4238 3279 4022 
Q 3775 3806 4076 3303 
Q 4378 2800 4378 2141 
Q 4378 1256 3841 663 
Q 3238 0 2003 0 
L 109 0 
z
M 1319 306 
Q 1716 219 1984 219 
Q 2709 219 3187 728 
Q 3666 1238 3666 2109 
Q 3666 2988 3187 3494 
Q 2709 4000 1959 4000 
Q 1678 4000 1319 3909 
L 1319 306 
z
" transform="scale(0.015625)"/>
       <path id="TimesNewRomanPSMT-4e" d="M -84 4238 
L 1066 4238 
L 3656 1059 
L 3656 3503 
Q 3656 3894 3569 3991 
Q 3453 4122 3203 4122 
L 3056 4122 
L 3056 4238 
L 4531 4238 
L 4531 4122 
L 4381 4122 
Q 4113 4122 4000 3959 
Q 3931 3859 3931 3503 
L 3931 -69 
L 3819 -69 
L 1025 3344 
L 1025 734 
Q 1025 344 1109 247 
Q 1228 116 1475 116 
L 1625 116 
L 1625 0 
L 150 0 
L 150 116 
L 297 116 
Q 569 116 681 278 
Q 750 378 750 734 
L 750 3681 
Q 566 3897 470 3965 
Q 375 4034 191 4094 
Q 100 4122 -84 4122 
L -84 4238 
z
" transform="scale(0.015625)"/>
       <path id="TimesNewRomanPSMT-72" d="M 1038 2947 
L 1038 2303 
Q 1397 2947 1775 2947 
Q 1947 2947 2059 2842 
Q 2172 2738 2172 2600 
Q 2172 2478 2090 2393 
Q 2009 2309 1897 2309 
Q 1788 2309 1652 2417 
Q 1516 2525 1450 2525 
Q 1394 2525 1328 2463 
Q 1188 2334 1038 2041 
L 1038 669 
Q 1038 431 1097 309 
Q 1138 225 1241 169 
Q 1344 113 1538 113 
L 1538 0 
L 72 0 
L 72 113 
Q 291 113 397 181 
Q 475 231 506 341 
Q 522 394 522 644 
L 522 1753 
Q 522 2253 501 2348 
Q 481 2444 426 2487 
Q 372 2531 291 2531 
Q 194 2531 72 2484 
L 41 2597 
L 906 2947 
L 1038 2947 
z
" transform="scale(0.015625)"/>
       <path id="TimesNewRomanPSMT-64" d="M 2222 322 
Q 2013 103 1813 7 
Q 1613 -88 1381 -88 
Q 913 -88 563 304 
Q 213 697 213 1313 
Q 213 1928 600 2439 
Q 988 2950 1597 2950 
Q 1975 2950 2222 2709 
L 2222 3238 
Q 2222 3728 2198 3840 
Q 2175 3953 2125 3993 
Q 2075 4034 2000 4034 
Q 1919 4034 1784 3984 
L 1744 4094 
L 2597 4444 
L 2738 4444 
L 2738 1134 
Q 2738 631 2761 520 
Q 2784 409 2836 365 
Q 2888 322 2956 322 
Q 3041 322 3181 375 
L 3216 266 
L 2366 -88 
L 2222 -88 
L 2222 322 
z
M 2222 541 
L 2222 2016 
Q 2203 2228 2109 2403 
Q 2016 2578 1861 2667 
Q 1706 2756 1559 2756 
Q 1284 2756 1069 2509 
Q 784 2184 784 1559 
Q 784 928 1059 592 
Q 1334 256 1672 256 
Q 1956 256 2222 541 
z
" transform="scale(0.015625)"/>
       <path id="TimesNewRomanPSMT-74" d="M 1031 3803 
L 1031 2863 
L 1700 2863 
L 1700 2644 
L 1031 2644 
L 1031 788 
Q 1031 509 1111 412 
Q 1191 316 1316 316 
Q 1419 316 1516 380 
Q 1613 444 1666 569 
L 1788 569 
Q 1678 263 1478 108 
Q 1278 -47 1066 -47 
Q 922 -47 784 33 
Q 647 113 581 261 
Q 516 409 516 719 
L 516 2644 
L 63 2644 
L 63 2747 
Q 234 2816 414 2980 
Q 594 3144 734 3369 
Q 806 3488 934 3803 
L 1031 3803 
z
" transform="scale(0.015625)"/>
       <path id="TimesNewRomanPSMT-6f" d="M 1600 2947 
Q 2250 2947 2644 2453 
Q 2978 2031 2978 1484 
Q 2978 1100 2793 706 
Q 2609 313 2286 112 
Q 1963 -88 1566 -88 
Q 919 -88 538 428 
Q 216 863 216 1403 
Q 216 1797 411 2186 
Q 606 2575 925 2761 
Q 1244 2947 1600 2947 
z
M 1503 2744 
Q 1338 2744 1170 2645 
Q 1003 2547 900 2300 
Q 797 2053 797 1666 
Q 797 1041 1045 587 
Q 1294 134 1700 134 
Q 2003 134 2200 384 
Q 2397 634 2397 1244 
Q 2397 2006 2069 2444 
Q 1847 2744 1503 2744 
z
" transform="scale(0.015625)"/>
      </defs>
      <use xlink:href="#TimesNewRomanPSMT-44"/>
      <use xlink:href="#TimesNewRomanPSMT-4e" x="72.216797"/>
      <use xlink:href="#TimesNewRomanPSMT-4e" x="144.433594"/>
      <use xlink:href="#TimesNewRomanPSMT-20" x="216.650391"/>
      <use xlink:href="#TimesNewRomanPSMT-70" x="241.650391"/>
      <use xlink:href="#TimesNewRomanPSMT-72" x="291.650391"/>
      <use xlink:href="#TimesNewRomanPSMT-65" x="324.951172"/>
      <use xlink:href="#TimesNewRomanPSMT-64" x="369.335938"/>
      <use xlink:href="#TimesNewRomanPSMT-69" x="419.335938"/>
      <use xlink:href="#TimesNewRomanPSMT-63" x="447.119141"/>
      <use xlink:href="#TimesNewRomanPSMT-74" x="491.503906"/>
      <use xlink:href="#TimesNewRomanPSMT-69" x="519.287109"/>
      <use xlink:href="#TimesNewRomanPSMT-6f" x="547.070312"/>
      <use xlink:href="#TimesNewRomanPSMT-6e" x="597.070312"/>
     </g>
    </g>
    <g id="line2d_22">
     <path d="M 65.424375 46.896406 
L 74.424375 46.896406 
L 83.424375 46.896406 
" style="fill: none; stroke-dasharray: 2.96,1.28; stroke-dashoffset: 0; stroke: #000000; stroke-width: 0.8"/>
    </g>
    <g id="text_13">
     <!-- Reference (1) -->
     <g transform="translate(90.624375 50.046406) scale(0.09 -0.09)">
      <defs>
       <path id="TimesNewRomanPSMT-52" d="M 4325 0 
L 3194 0 
L 1759 1981 
Q 1600 1975 1500 1975 
Q 1459 1975 1412 1976 
Q 1366 1978 1316 1981 
L 1316 750 
Q 1316 350 1403 253 
Q 1522 116 1759 116 
L 1925 116 
L 1925 0 
L 109 0 
L 109 116 
L 269 116 
Q 538 116 653 291 
Q 719 388 719 750 
L 719 3488 
Q 719 3888 631 3984 
Q 509 4122 269 4122 
L 109 4122 
L 109 4238 
L 1653 4238 
Q 2328 4238 2648 4139 
Q 2969 4041 3192 3777 
Q 3416 3513 3416 3147 
Q 3416 2756 3161 2468 
Q 2906 2181 2372 2063 
L 3247 847 
Q 3547 428 3762 290 
Q 3978 153 4325 116 
L 4325 0 
z
M 1316 2178 
Q 1375 2178 1419 2176 
Q 1463 2175 1491 2175 
Q 2097 2175 2405 2437 
Q 2713 2700 2713 3106 
Q 2713 3503 2464 3751 
Q 2216 4000 1806 4000 
Q 1625 4000 1316 3941 
L 1316 2178 
z
" transform="scale(0.015625)"/>
       <path id="TimesNewRomanPSMT-66" d="M 1319 2638 
L 1319 756 
Q 1319 356 1406 250 
Q 1522 113 1716 113 
L 1975 113 
L 1975 0 
L 266 0 
L 266 113 
L 394 113 
Q 519 113 622 175 
Q 725 238 764 344 
Q 803 450 803 756 
L 803 2638 
L 247 2638 
L 247 2863 
L 803 2863 
L 803 3050 
Q 803 3478 940 3775 
Q 1078 4072 1361 4255 
Q 1644 4438 1997 4438 
Q 2325 4438 2600 4225 
Q 2781 4084 2781 3909 
Q 2781 3816 2700 3733 
Q 2619 3650 2525 3650 
Q 2453 3650 2373 3701 
Q 2294 3753 2178 3923 
Q 2063 4094 1966 4153 
Q 1869 4213 1750 4213 
Q 1606 4213 1506 4136 
Q 1406 4059 1362 3898 
Q 1319 3738 1319 3069 
L 1319 2863 
L 2056 2863 
L 2056 2638 
L 1319 2638 
z
" transform="scale(0.015625)"/>
      </defs>
      <use xlink:href="#TimesNewRomanPSMT-52"/>
      <use xlink:href="#TimesNewRomanPSMT-65" x="66.699219"/>
      <use xlink:href="#TimesNewRomanPSMT-66" x="111.083984"/>
      <use xlink:href="#TimesNewRomanPSMT-65" x="144.384766"/>
      <use xlink:href="#TimesNewRomanPSMT-72" x="188.769531"/>
      <use xlink:href="#TimesNewRomanPSMT-65" x="222.070312"/>
      <use xlink:href="#TimesNewRomanPSMT-6e" x="266.455078"/>
      <use xlink:href="#TimesNewRomanPSMT-63" x="316.455078"/>
      <use xlink:href="#TimesNewRomanPSMT-65" x="360.839844"/>
      <use xlink:href="#TimesNewRomanPSMT-20" x="405.224609"/>
      <use xlink:href="#TimesNewRomanPSMT-28" x="430.224609"/>
      <use xlink:href="#TimesNewRomanPSMT-31" x="463.525391"/>
      <use xlink:href="#TimesNewRomanPSMT-29" x="513.525391"/>
     </g>
    </g>
   </g>
  </g>
 </g>
 <defs>
  <clipPath id="pb52f60daa9">
   <rect x="57.324375" y="22.92125" width="235.1775" height="189.0775"/>
  </clipPath>
 </defs>
</svg>
