<?xml version="1.0" encoding="utf-8" standalone="no"?>
<!DOCTYPE svg PUBLIC "-//W3C//DTD SVG 1.1//EN"
  "http://www.w3.org/Graphics/SVG/1.1/DTD/svg11.dtd">
<svg xmlns:xlink="http://www.w3.org/1999/xlink" width="299.69498pt" height="252.003125pt" viewBox="0 0 299.69498 252.003125" xmlns="http://www.w3.org/2000/svg" version="1.1">
 <metadata>
  <rdf:RDF xmlns:dc="http://purl.org/dc/elements/1.1/" xmlns:cc="http://creativecommons.org/ns#" xmlns:rdf="http://www.w3.org/1999/02/22-rdf-syntax-ns#">
   <cc:Work>
    <dc:type rdf:resource="http://purl.org/dc/dcmitype/StillImage"/>
    <dc:date>2024-03-01T17:12:41.338637</dc:date>
    <dc:format>image/svg+xml</dc:format>
    <dc:creator>
     <cc:Agent>
      <dc:title>Matplotlib v3.7.1, https://matplotlib.org/</dc:title>
     </cc:Agent>
    </dc:creator>
   </cc:Work>
  </rdf:RDF>
 </metadata>
 <defs>
  <style type="text/css">*{stroke-linejoin: round; stroke-linecap: butt}</style>
 </defs>
 <g id="figure_1">
  <g id="patch_1">
   <path d="M 0 252.003125 
L 299.69498 252.003125 
L 299.69498 0 
L 0 0 
z
" style="fill: #ffffff"/>
  </g>
  <g id="axes_1">
   <g id="patch_2">
    <path d="M 50.679375 211.99875 
L 283.995912 211.99875 
L 283.995912 22.92125 
L 50.679375 22.92125 
z
" style="fill: #ffffff"/>
   </g>
   <g id="matplotlib.axis_1">
    <g id="xtick_1">
     <g id="line2d_1">
      <path d="M 52.8036 211.99875 
L 52.8036 22.92125 
" clip-path="url(#pf70e840de4)" style="fill: none; stroke-dasharray: 0.8,1.32; stroke-dashoffset: 0; stroke: #b0b0b0; stroke-width: 0.8"/>
     </g>
     <g id="line2d_2">
      <defs>
       <path id="m0c42394776" d="M 0 0 
L 0 3.5 
" style="stroke: #000000; stroke-width: 0.8"/>
      </defs>
      <g>
       <use xlink:href="#m0c42394776" x="52.8036" y="211.99875" style="stroke: #000000; stroke-width: 0.8"/>
      </g>
     </g>
     <g id="text_1">
      <!-- −100 -->
      <g transform="translate(39.5136 227.38375) scale(0.12 -0.12)">
       <defs>
        <path id="Cambria-2212" d="M 397 1613 
L 397 2047 
L 3147 2047 
L 3147 1613 
L 397 1613 
z
" transform="scale(0.015625)"/>
        <path id="Cambria-31" d="M 2172 816 
Q 2172 634 2192 542 
Q 2213 450 2264 392 
Q 2316 334 2412 301 
Q 2509 269 2656 251 
Q 2803 234 3044 228 
L 3044 0 
L 734 0 
L 734 228 
Q 1081 244 1229 270 
Q 1378 297 1456 350 
Q 1534 403 1570 500 
Q 1606 597 1606 816 
L 1606 3350 
Q 1606 3475 1562 3533 
Q 1519 3591 1434 3591 
Q 1334 3591 1150 3487 
Q 966 3384 694 3203 
L 556 3444 
L 2019 4316 
L 2191 4316 
Q 2172 4016 2172 3484 
L 2172 816 
z
" transform="scale(0.015625)"/>
        <path id="Cambria-30" d="M 1738 -50 
Q 1063 -50 733 481 
Q 403 1013 403 2094 
Q 403 2669 504 3087 
Q 606 3506 789 3779 
Q 972 4053 1228 4184 
Q 1484 4316 1788 4316 
Q 2472 4316 2806 3787 
Q 3141 3259 3141 2191 
Q 3141 1084 2783 517 
Q 2425 -50 1738 -50 
z
M 1013 2188 
Q 1013 1169 1202 692 
Q 1391 216 1788 216 
Q 2166 216 2348 664 
Q 2531 1113 2531 2053 
Q 2531 2772 2437 3217 
Q 2344 3663 2176 3856 
Q 2009 4050 1772 4050 
Q 1556 4050 1411 3922 
Q 1266 3794 1177 3553 
Q 1088 3313 1050 2967 
Q 1013 2622 1013 2188 
z
" transform="scale(0.015625)"/>
       </defs>
       <use xlink:href="#Cambria-2212"/>
       <use xlink:href="#Cambria-31" x="55.371094"/>
       <use xlink:href="#Cambria-30" x="110.742188"/>
       <use xlink:href="#Cambria-30" x="166.113281"/>
      </g>
     </g>
    </g>
    <g id="xtick_2">
     <g id="line2d_3">
      <path d="M 110.23457 211.99875 
L 110.23457 22.92125 
" clip-path="url(#pf70e840de4)" style="fill: none; stroke-dasharray: 0.8,1.32; stroke-dashoffset: 0; stroke: #b0b0b0; stroke-width: 0.8"/>
     </g>
     <g id="line2d_4">
      <g>
       <use xlink:href="#m0c42394776" x="110.23457" y="211.99875" style="stroke: #000000; stroke-width: 0.8"/>
      </g>
     </g>
     <g id="text_2">
      <!-- −50 -->
      <g transform="translate(100.26707 227.38375) scale(0.12 -0.12)">
       <defs>
        <path id="Cambria-35" d="M 469 172 
L 469 834 
L 847 834 
Q 941 516 1130 366 
Q 1319 216 1619 216 
Q 2034 216 2246 466 
Q 2459 716 2459 1213 
Q 2459 1544 2346 1761 
Q 2234 1978 2043 2075 
Q 1853 2172 1600 2172 
Q 1388 2172 1234 2145 
Q 1081 2119 906 2063 
L 656 2209 
L 656 4266 
L 2378 4266 
Q 2484 4266 2531 4283 
Q 2578 4300 2606 4336 
Q 2634 4372 2672 4472 
L 2916 4472 
L 2869 3747 
L 1072 3747 
L 1072 2375 
Q 1234 2444 1425 2478 
Q 1616 2513 1806 2513 
Q 2178 2513 2465 2361 
Q 2753 2209 2909 1929 
Q 3066 1650 3066 1281 
Q 3066 863 2891 563 
Q 2716 263 2384 106 
Q 2053 -50 1600 -50 
Q 1059 -50 469 172 
z
" transform="scale(0.015625)"/>
       </defs>
       <use xlink:href="#Cambria-2212"/>
       <use xlink:href="#Cambria-35" x="55.371094"/>
       <use xlink:href="#Cambria-30" x="110.742188"/>
      </g>
     </g>
    </g>
    <g id="xtick_3">
     <g id="line2d_5">
      <path d="M 167.66554 211.99875 
L 167.66554 22.92125 
" clip-path="url(#pf70e840de4)" style="fill: none; stroke-dasharray: 0.8,1.32; stroke-dashoffset: 0; stroke: #b0b0b0; stroke-width: 0.8"/>
     </g>
     <g id="line2d_6">
      <g>
       <use xlink:href="#m0c42394776" x="167.66554" y="211.99875" style="stroke: #000000; stroke-width: 0.8"/>
      </g>
     </g>
     <g id="text_3">
      <!-- 0 -->
      <g transform="translate(164.34304 227.38375) scale(0.12 -0.12)">
       <use xlink:href="#Cambria-30"/>
      </g>
     </g>
    </g>
    <g id="xtick_4">
     <g id="line2d_7">
      <path d="M 225.09651 211.99875 
L 225.09651 22.92125 
" clip-path="url(#pf70e840de4)" style="fill: none; stroke-dasharray: 0.8,1.32; stroke-dashoffset: 0; stroke: #b0b0b0; stroke-width: 0.8"/>
     </g>
     <g id="line2d_8">
      <g>
       <use xlink:href="#m0c42394776" x="225.09651" y="211.99875" style="stroke: #000000; stroke-width: 0.8"/>
      </g>
     </g>
     <g id="text_4">
      <!-- 50 -->
      <g transform="translate(218.45151 227.38375) scale(0.12 -0.12)">
       <use xlink:href="#Cambria-35"/>
       <use xlink:href="#Cambria-30" x="55.371094"/>
      </g>
     </g>
    </g>
    <g id="xtick_5">
     <g id="line2d_9">
      <path d="M 282.52748 211.99875 
L 282.52748 22.92125 
" clip-path="url(#pf70e840de4)" style="fill: none; stroke-dasharray: 0.8,1.32; stroke-dashoffset: 0; stroke: #b0b0b0; stroke-width: 0.8"/>
     </g>
     <g id="line2d_10">
      <g>
       <use xlink:href="#m0c42394776" x="282.52748" y="211.99875" style="stroke: #000000; stroke-width: 0.8"/>
      </g>
     </g>
     <g id="text_5">
      <!-- 100 -->
      <g transform="translate(272.55998 227.38375) scale(0.12 -0.12)">
       <use xlink:href="#Cambria-31"/>
       <use xlink:href="#Cambria-30" x="55.371094"/>
       <use xlink:href="#Cambria-30" x="110.742188"/>
      </g>
     </g>
    </g>
    <g id="text_6">
     <!-- Displacement (mm) -->
     <g transform="translate(120.183268 242.23625) scale(0.12 -0.12)">
      <defs>
       <path id="TimesNewRomanPS-ItalicMT-44" d="M 938 4122 
L 975 4238 
L 2328 4238 
Q 3188 4238 3602 4041 
Q 4016 3844 4262 3420 
Q 4509 2997 4509 2513 
Q 4509 2097 4367 1705 
Q 4225 1313 4045 1077 
Q 3866 841 3494 556 
Q 3122 272 2687 136 
Q 2253 0 1603 0 
L -191 0 
L -150 116 
Q 97 122 181 159 
Q 306 213 366 303 
Q 456 434 569 831 
L 1319 3394 
Q 1406 3697 1406 3869 
Q 1406 3991 1325 4056 
Q 1244 4122 1006 4122 
L 938 4122 
z
M 2047 4003 
L 1128 831 
Q 1025 475 1025 391 
Q 1025 341 1058 294 
Q 1091 247 1147 231 
Q 1228 203 1409 203 
Q 1900 203 2320 304 
Q 2741 406 3009 606 
Q 3391 897 3619 1406 
Q 3847 1916 3847 2566 
Q 3847 3300 3497 3658 
Q 3147 4016 2475 4016 
Q 2309 4016 2047 4003 
z
" transform="scale(0.015625)"/>
       <path id="TimesNewRomanPS-ItalicMT-69" d="M 1431 4069 
Q 1563 4069 1653 3978 
Q 1744 3888 1744 3756 
Q 1744 3628 1651 3536 
Q 1559 3444 1431 3444 
Q 1303 3444 1211 3536 
Q 1119 3628 1119 3756 
Q 1119 3888 1209 3978 
Q 1300 4069 1431 4069 
z
M 1472 2828 
L 853 638 
Q 791 416 791 372 
Q 791 322 820 290 
Q 850 259 891 259 
Q 938 259 1003 309 
Q 1181 450 1363 709 
L 1472 638 
Q 1259 313 972 91 
Q 759 -75 566 -75 
Q 438 -75 356 1 
Q 275 78 275 194 
Q 275 309 353 578 
L 759 1978 
Q 859 2322 859 2409 
Q 859 2478 811 2522 
Q 763 2566 678 2566 
Q 609 2566 394 2531 
L 394 2653 
L 1472 2828 
z
" transform="scale(0.015625)"/>
       <path id="TimesNewRomanPS-ItalicMT-73" d="M 2322 2828 
L 2131 1869 
L 2016 1869 
Q 2000 2288 1837 2478 
Q 1675 2669 1434 2669 
Q 1241 2669 1127 2562 
Q 1013 2456 1013 2306 
Q 1013 2203 1058 2109 
Q 1103 2016 1256 1847 
Q 1663 1403 1781 1178 
Q 1900 953 1900 753 
Q 1900 428 1629 176 
Q 1359 -75 947 -75 
Q 722 -75 428 31 
Q 325 69 269 69 
Q 128 69 56 -75 
L -59 -75 
L 131 938 
L 247 938 
Q 266 463 444 266 
Q 622 69 931 69 
Q 1169 69 1308 201 
Q 1447 334 1447 528 
Q 1447 653 1397 759 
Q 1309 947 1029 1278 
Q 750 1609 670 1775 
Q 591 1941 591 2106 
Q 591 2409 811 2618 
Q 1031 2828 1378 2828 
Q 1478 2828 1559 2813 
Q 1603 2803 1764 2742 
Q 1925 2681 1978 2681 
Q 2113 2681 2203 2828 
L 2322 2828 
z
" transform="scale(0.015625)"/>
       <path id="TimesNewRomanPS-ItalicMT-70" d="M 1416 2828 
L 1200 2109 
Q 1541 2509 1808 2668 
Q 2075 2828 2353 2828 
Q 2631 2828 2828 2608 
Q 3025 2388 3025 2034 
Q 3025 1347 2465 636 
Q 1906 -75 1163 -75 
Q 1006 -75 886 -40 
Q 766 -6 616 81 
L 388 -725 
Q 319 -963 319 -1034 
Q 319 -1103 355 -1151 
Q 391 -1200 472 -1226 
Q 553 -1253 794 -1253 
L 766 -1369 
L -706 -1369 
L -675 -1253 
Q -384 -1241 -282 -1153 
Q -181 -1066 -69 -669 
L 722 2069 
Q 794 2328 794 2391 
Q 794 2475 745 2522 
Q 697 2569 597 2569 
Q 506 2569 344 2547 
L 344 2669 
L 1416 2828 
z
M 688 328 
Q 881 97 1209 97 
Q 1372 97 1540 187 
Q 1709 278 1870 456 
Q 2031 634 2159 867 
Q 2288 1100 2389 1415 
Q 2491 1731 2491 2041 
Q 2491 2291 2377 2423 
Q 2263 2556 2109 2556 
Q 1772 2556 1442 2168 
Q 1113 1781 959 1263 
L 688 328 
z
" transform="scale(0.015625)"/>
       <path id="TimesNewRomanPS-ItalicMT-6c" d="M 1903 4444 
L 834 725 
Q 756 447 756 384 
Q 756 338 786 306 
Q 816 275 859 275 
Q 919 275 988 328 
Q 1150 456 1328 725 
L 1422 628 
Q 1125 209 875 44 
Q 691 -75 525 -75 
Q 406 -75 326 6 
Q 247 88 247 194 
Q 247 306 347 656 
L 1194 3588 
Q 1297 3947 1297 4000 
Q 1297 4075 1237 4123 
Q 1178 4172 1053 4172 
Q 981 4172 834 4150 
L 834 4266 
L 1903 4444 
z
" transform="scale(0.015625)"/>
       <path id="TimesNewRomanPS-ItalicMT-61" d="M 3003 2828 
L 2394 709 
L 2325 425 
Q 2316 384 2316 356 
Q 2316 306 2347 269 
Q 2372 241 2409 241 
Q 2450 241 2516 291 
Q 2638 381 2841 666 
L 2947 591 
Q 2731 266 2503 95 
Q 2275 -75 2081 -75 
Q 1947 -75 1880 -8 
Q 1813 59 1813 188 
Q 1813 341 1881 591 
L 1947 825 
Q 1538 291 1194 78 
Q 947 -75 709 -75 
Q 481 -75 315 114 
Q 150 303 150 634 
Q 150 1131 448 1682 
Q 747 2234 1206 2566 
Q 1566 2828 1884 2828 
Q 2075 2828 2201 2728 
Q 2328 2628 2394 2397 
L 2506 2753 
L 3003 2828 
z
M 1891 2666 
Q 1691 2666 1466 2478 
Q 1147 2213 898 1691 
Q 650 1169 650 747 
Q 650 534 756 411 
Q 863 288 1000 288 
Q 1341 288 1741 791 
Q 2275 1459 2275 2163 
Q 2275 2428 2172 2547 
Q 2069 2666 1891 2666 
z
" transform="scale(0.015625)"/>
       <path id="TimesNewRomanPS-ItalicMT-63" d="M 2472 681 
Q 2147 291 1815 108 
Q 1484 -75 1116 -75 
Q 672 -75 423 175 
Q 175 425 175 847 
Q 175 1325 442 1787 
Q 709 2250 1161 2539 
Q 1613 2828 2047 2828 
Q 2388 2828 2556 2686 
Q 2725 2544 2725 2338 
Q 2725 2144 2606 2006 
Q 2519 1900 2391 1900 
Q 2294 1900 2230 1962 
Q 2166 2025 2166 2119 
Q 2166 2178 2189 2228 
Q 2213 2278 2286 2348 
Q 2359 2419 2375 2450 
Q 2391 2481 2391 2516 
Q 2391 2581 2331 2625 
Q 2241 2688 2075 2688 
Q 1769 2688 1469 2472 
Q 1169 2256 956 1859 
Q 700 1378 700 897 
Q 700 578 881 392 
Q 1063 206 1375 206 
Q 1616 206 1852 326 
Q 2088 447 2381 763 
L 2472 681 
z
" transform="scale(0.015625)"/>
       <path id="TimesNewRomanPS-ItalicMT-65" d="M 763 1178 
Q 741 1022 741 919 
Q 741 641 937 445 
Q 1134 250 1416 250 
Q 1641 250 1848 342 
Q 2056 434 2466 750 
L 2531 659 
Q 1791 -75 1119 -75 
Q 663 -75 431 212 
Q 200 500 200 847 
Q 200 1313 487 1800 
Q 775 2288 1209 2558 
Q 1644 2828 2103 2828 
Q 2434 2828 2593 2693 
Q 2753 2559 2753 2375 
Q 2753 2116 2547 1878 
Q 2275 1569 1747 1378 
Q 1397 1250 763 1178 
z
M 784 1331 
Q 1247 1384 1538 1513 
Q 1922 1684 2114 1923 
Q 2306 2163 2306 2378 
Q 2306 2509 2223 2590 
Q 2141 2672 1988 2672 
Q 1669 2672 1311 2333 
Q 953 1994 784 1331 
z
" transform="scale(0.015625)"/>
       <path id="TimesNewRomanPS-ItalicMT-6d" d="M 1388 2828 
L 981 1419 
Q 1253 1916 1444 2166 
Q 1741 2553 2022 2728 
Q 2188 2828 2369 2828 
Q 2525 2828 2628 2728 
Q 2731 2628 2731 2472 
Q 2731 2319 2659 2072 
L 2438 1278 
Q 2947 2231 3403 2616 
Q 3656 2828 3903 2828 
Q 4047 2828 4139 2729 
Q 4231 2631 4231 2425 
Q 4231 2244 4175 2041 
L 3831 825 
Q 3719 428 3719 384 
Q 3719 341 3747 309 
Q 3766 288 3797 288 
Q 3828 288 3906 347 
Q 4084 484 4241 709 
L 4344 644 
Q 4266 519 4067 300 
Q 3869 81 3728 3 
Q 3588 -75 3469 -75 
Q 3359 -75 3286 0 
Q 3213 75 3213 184 
Q 3213 334 3341 788 
L 3625 1791 
Q 3722 2138 3728 2175 
Q 3738 2234 3738 2291 
Q 3738 2369 3703 2413 
Q 3666 2456 3619 2456 
Q 3488 2456 3341 2322 
Q 2909 1925 2534 1209 
Q 2288 738 2072 0 
L 1600 0 
L 2134 1891 
Q 2222 2197 2222 2300 
Q 2222 2384 2187 2425 
Q 2153 2466 2103 2466 
Q 2000 2466 1884 2391 
Q 1697 2269 1401 1869 
Q 1106 1469 944 1103 
Q 866 931 572 0 
L 109 0 
L 688 2025 
L 763 2288 
Q 784 2347 784 2375 
Q 784 2444 721 2498 
Q 659 2553 563 2553 
Q 522 2553 338 2516 
L 309 2631 
L 1388 2828 
z
" transform="scale(0.015625)"/>
       <path id="TimesNewRomanPS-ItalicMT-6e" d="M 1413 2828 
L 997 1406 
Q 1581 2278 1892 2553 
Q 2203 2828 2491 2828 
Q 2647 2828 2748 2725 
Q 2850 2622 2850 2456 
Q 2850 2269 2759 1956 
L 2378 641 
Q 2313 413 2313 363 
Q 2313 319 2338 289 
Q 2363 259 2391 259 
Q 2428 259 2481 300 
Q 2647 431 2844 700 
L 2941 641 
Q 2650 225 2391 47 
Q 2209 -75 2066 -75 
Q 1950 -75 1881 -4 
Q 1813 66 1813 184 
Q 1813 334 1919 700 
L 2281 1956 
Q 2350 2191 2350 2322 
Q 2350 2384 2309 2423 
Q 2269 2463 2209 2463 
Q 2122 2463 2000 2388 
Q 1769 2247 1519 1923 
Q 1269 1600 991 1097 
Q 844 831 747 516 
L 591 0 
L 122 0 
L 691 1956 
Q 791 2309 791 2381 
Q 791 2450 736 2501 
Q 681 2553 600 2553 
Q 563 2553 469 2541 
L 350 2522 
L 331 2634 
L 1413 2828 
z
" transform="scale(0.015625)"/>
       <path id="TimesNewRomanPS-ItalicMT-74" d="M 1663 3603 
L 1419 2753 
L 1909 2753 
L 1856 2556 
L 1369 2556 
L 831 713 
Q 744 416 744 328 
Q 744 275 769 247 
Q 794 219 828 219 
Q 906 219 1034 328 
Q 1109 391 1369 713 
L 1472 634 
Q 1184 216 928 44 
Q 753 -75 575 -75 
Q 438 -75 350 11 
Q 263 97 263 231 
Q 263 400 363 747 
L 884 2556 
L 413 2556 
L 444 2678 
Q 788 2772 1016 2958 
Q 1244 3144 1525 3603 
L 1663 3603 
z
" transform="scale(0.015625)"/>
       <path id="TimesNewRomanPS-ItalicMT-20" transform="scale(0.015625)"/>
       <path id="TimesNewRomanPS-ItalicMT-28" d="M 1203 -1319 
L 1097 -1369 
Q 725 -659 563 -116 
Q 438 309 438 741 
Q 438 1747 903 2544 
Q 1475 3519 2756 4444 
L 2831 4334 
Q 2253 3906 1888 3375 
Q 1431 2713 1140 1775 
Q 850 838 850 69 
Q 850 -519 1203 -1319 
z
" transform="scale(0.015625)"/>
       <path id="TimesNewRomanPS-ItalicMT-29" d="M 931 4384 
L 1038 4444 
Q 1409 3738 1569 3194 
Q 1697 2769 1697 2338 
Q 1697 1328 1231 534 
Q 656 -444 -622 -1369 
L -697 -1272 
Q -119 -841 247 -313 
Q 703 350 993 1289 
Q 1284 2228 1284 2997 
Q 1284 3584 931 4384 
z
" transform="scale(0.015625)"/>
      </defs>
      <use xlink:href="#TimesNewRomanPS-ItalicMT-44"/>
      <use xlink:href="#TimesNewRomanPS-ItalicMT-69" x="72.216797"/>
      <use xlink:href="#TimesNewRomanPS-ItalicMT-73" x="100"/>
      <use xlink:href="#TimesNewRomanPS-ItalicMT-70" x="138.916016"/>
      <use xlink:href="#TimesNewRomanPS-ItalicMT-6c" x="188.916016"/>
      <use xlink:href="#TimesNewRomanPS-ItalicMT-61" x="216.699219"/>
      <use xlink:href="#TimesNewRomanPS-ItalicMT-63" x="266.699219"/>
      <use xlink:href="#TimesNewRomanPS-ItalicMT-65" x="311.083984"/>
      <use xlink:href="#TimesNewRomanPS-ItalicMT-6d" x="355.46875"/>
      <use xlink:href="#TimesNewRomanPS-ItalicMT-65" x="427.685547"/>
      <use xlink:href="#TimesNewRomanPS-ItalicMT-6e" x="472.070312"/>
      <use xlink:href="#TimesNewRomanPS-ItalicMT-74" x="522.070312"/>
      <use xlink:href="#TimesNewRomanPS-ItalicMT-20" x="549.853516"/>
      <use xlink:href="#TimesNewRomanPS-ItalicMT-28" x="574.853516"/>
      <use xlink:href="#TimesNewRomanPS-ItalicMT-6d" x="608.154297"/>
      <use xlink:href="#TimesNewRomanPS-ItalicMT-6d" x="680.371094"/>
      <use xlink:href="#TimesNewRomanPS-ItalicMT-29" x="752.587891"/>
     </g>
    </g>
   </g>
   <g id="matplotlib.axis_2">
    <g id="ytick_1">
     <g id="line2d_11">
      <path d="M 50.679375 194.944475 
L 283.995912 194.944475 
" clip-path="url(#pf70e840de4)" style="fill: none; stroke-dasharray: 0.8,1.32; stroke-dashoffset: 0; stroke: #b0b0b0; stroke-width: 0.8"/>
     </g>
     <g id="line2d_12">
      <defs>
       <path id="mffe1cf351d" d="M 0 0 
L -3.5 0 
" style="stroke: #000000; stroke-width: 0.8"/>
      </defs>
      <g>
       <use xlink:href="#mffe1cf351d" x="50.679375" y="194.944475" style="stroke: #000000; stroke-width: 0.8"/>
      </g>
     </g>
     <g id="text_7">
      <!-- −400 -->
      <g transform="translate(17.099375 199.136975) scale(0.12 -0.12)">
       <defs>
        <path id="Cambria-34" d="M 1613 153 
Q 1806 203 1872 264 
Q 1938 325 1958 437 
Q 1978 550 1978 781 
L 1978 1294 
L 241 1294 
L 241 1528 
L 2069 4288 
L 2516 4288 
L 2516 1597 
L 2581 1597 
Q 2763 1597 2841 1623 
Q 2919 1650 2970 1717 
Q 3022 1784 3066 1938 
L 3303 1938 
L 3266 1294 
L 2516 1294 
L 2516 781 
Q 2516 572 2530 475 
Q 2544 378 2576 322 
Q 2609 266 2673 228 
Q 2738 191 2881 153 
L 2881 0 
L 1613 0 
L 1613 153 
z
M 756 1597 
L 1978 1597 
L 1978 2375 
Q 1978 2669 1987 3033 
Q 1997 3397 2009 3581 
L 1978 3581 
L 756 1641 
L 756 1597 
z
" transform="scale(0.015625)"/>
       </defs>
       <use xlink:href="#Cambria-2212"/>
       <use xlink:href="#Cambria-34" x="55.371094"/>
       <use xlink:href="#Cambria-30" x="110.742188"/>
       <use xlink:href="#Cambria-30" x="166.113281"/>
      </g>
     </g>
    </g>
    <g id="ytick_2">
     <g id="line2d_13">
      <path d="M 50.679375 156.490641 
L 283.995912 156.490641 
" clip-path="url(#pf70e840de4)" style="fill: none; stroke-dasharray: 0.8,1.32; stroke-dashoffset: 0; stroke: #b0b0b0; stroke-width: 0.8"/>
     </g>
     <g id="line2d_14">
      <g>
       <use xlink:href="#mffe1cf351d" x="50.679375" y="156.490641" style="stroke: #000000; stroke-width: 0.8"/>
      </g>
     </g>
     <g id="text_8">
      <!-- −200 -->
      <g transform="translate(17.099375 160.683141) scale(0.12 -0.12)">
       <defs>
        <path id="Cambria-32" d="M 2194 500 
Q 2347 500 2440 519 
Q 2534 538 2590 581 
Q 2647 625 2680 695 
Q 2713 766 2763 913 
L 3028 913 
L 2975 0 
L 403 0 
L 403 150 
Q 538 478 766 822 
Q 994 1166 1413 1631 
Q 1775 2031 1934 2238 
Q 2109 2463 2195 2627 
Q 2281 2791 2318 2936 
Q 2356 3081 2356 3228 
Q 2356 3463 2281 3642 
Q 2206 3822 2051 3925 
Q 1897 4028 1663 4028 
Q 1078 4028 875 3378 
L 497 3378 
L 497 3978 
Q 875 4156 1204 4236 
Q 1534 4316 1797 4316 
Q 2378 4316 2675 4061 
Q 2972 3806 2972 3322 
Q 2972 3156 2939 3017 
Q 2906 2878 2836 2742 
Q 2766 2606 2647 2450 
Q 2528 2294 2384 2133 
Q 2241 1972 1888 1597 
Q 1294 969 1016 500 
L 2194 500 
z
" transform="scale(0.015625)"/>
       </defs>
       <use xlink:href="#Cambria-2212"/>
       <use xlink:href="#Cambria-32" x="55.371094"/>
       <use xlink:href="#Cambria-30" x="110.742188"/>
       <use xlink:href="#Cambria-30" x="166.113281"/>
      </g>
     </g>
    </g>
    <g id="ytick_3">
     <g id="line2d_15">
      <path d="M 50.679375 118.036808 
L 283.995912 118.036808 
" clip-path="url(#pf70e840de4)" style="fill: none; stroke-dasharray: 0.8,1.32; stroke-dashoffset: 0; stroke: #b0b0b0; stroke-width: 0.8"/>
     </g>
     <g id="line2d_16">
      <g>
       <use xlink:href="#mffe1cf351d" x="50.679375" y="118.036808" style="stroke: #000000; stroke-width: 0.8"/>
      </g>
     </g>
     <g id="text_9">
      <!-- 0 -->
      <g transform="translate(37.034375 122.229308) scale(0.12 -0.12)">
       <use xlink:href="#Cambria-30"/>
      </g>
     </g>
    </g>
    <g id="ytick_4">
     <g id="line2d_17">
      <path d="M 50.679375 79.582974 
L 283.995912 79.582974 
" clip-path="url(#pf70e840de4)" style="fill: none; stroke-dasharray: 0.8,1.32; stroke-dashoffset: 0; stroke: #b0b0b0; stroke-width: 0.8"/>
     </g>
     <g id="line2d_18">
      <g>
       <use xlink:href="#mffe1cf351d" x="50.679375" y="79.582974" style="stroke: #000000; stroke-width: 0.8"/>
      </g>
     </g>
     <g id="text_10">
      <!-- 200 -->
      <g transform="translate(23.744375 83.775474) scale(0.12 -0.12)">
       <use xlink:href="#Cambria-32"/>
       <use xlink:href="#Cambria-30" x="55.371094"/>
       <use xlink:href="#Cambria-30" x="110.742188"/>
      </g>
     </g>
    </g>
    <g id="ytick_5">
     <g id="line2d_19">
      <path d="M 50.679375 41.12914 
L 283.995912 41.12914 
" clip-path="url(#pf70e840de4)" style="fill: none; stroke-dasharray: 0.8,1.32; stroke-dashoffset: 0; stroke: #b0b0b0; stroke-width: 0.8"/>
     </g>
     <g id="line2d_20">
      <g>
       <use xlink:href="#mffe1cf351d" x="50.679375" y="41.12914" style="stroke: #000000; stroke-width: 0.8"/>
      </g>
     </g>
     <g id="text_11">
      <!-- 400 -->
      <g transform="translate(23.744375 45.32164) scale(0.12 -0.12)">
       <use xlink:href="#Cambria-34"/>
       <use xlink:href="#Cambria-30" x="55.371094"/>
       <use xlink:href="#Cambria-30" x="110.742188"/>
      </g>
     </g>
    </g>
    <g id="text_12">
     <!-- Base Shear (kN) -->
     <g transform="translate(15.5325 156.783437) rotate(-90) scale(0.12 -0.12)">
      <defs>
       <path id="TimesNewRomanPS-ItalicMT-42" d="M 947 4122 
L 991 4238 
L 2503 4238 
Q 2884 4238 3182 4119 
Q 3481 4000 3629 3787 
Q 3778 3575 3778 3338 
Q 3778 2972 3514 2676 
Q 3250 2381 2653 2241 
Q 3038 2097 3219 1859 
Q 3400 1622 3400 1338 
Q 3400 1022 3237 734 
Q 3075 447 2820 287 
Q 2566 128 2206 53 
Q 1950 0 1406 0 
L -147 0 
L -106 116 
Q 138 122 225 163 
Q 350 216 403 303 
Q 478 422 603 847 
L 1363 3413 
Q 1459 3738 1459 3869 
Q 1459 3984 1373 4051 
Q 1288 4119 1047 4119 
Q 994 4119 947 4122 
z
M 1581 2363 
Q 1784 2356 1875 2356 
Q 2525 2356 2842 2639 
Q 3159 2922 3159 3347 
Q 3159 3669 2965 3848 
Q 2772 4028 2347 4028 
Q 2234 4028 2059 3991 
L 1581 2363 
z
M 966 275 
Q 1303 231 1494 231 
Q 1981 231 2357 525 
Q 2734 819 2734 1322 
Q 2734 1706 2501 1922 
Q 2269 2138 1750 2138 
Q 1650 2138 1506 2128 
L 966 275 
z
" transform="scale(0.015625)"/>
       <path id="TimesNewRomanPS-ItalicMT-53" d="M 44 -97 
L 394 1475 
L 500 1475 
Q 478 1247 478 1097 
Q 478 669 751 400 
Q 1025 131 1466 131 
Q 1875 131 2087 382 
Q 2300 634 2300 963 
Q 2300 1175 2203 1350 
Q 2056 1609 1419 2263 
Q 1109 2575 1022 2728 
Q 878 2981 878 3259 
Q 878 3703 1209 4018 
Q 1541 4334 2059 4334 
Q 2234 4334 2391 4300 
Q 2488 4281 2744 4175 
Q 2925 4103 2944 4097 
Q 2988 4088 3041 4088 
Q 3131 4088 3197 4134 
Q 3263 4181 3350 4334 
L 3469 4334 
L 3144 2928 
L 3038 2928 
Q 3050 3116 3050 3231 
Q 3050 3609 2800 3850 
Q 2550 4091 2141 4091 
Q 1816 4091 1612 3900 
Q 1409 3709 1409 3459 
Q 1409 3241 1539 3042 
Q 1669 2844 2136 2395 
Q 2603 1947 2740 1695 
Q 2878 1444 2878 1159 
Q 2878 838 2708 536 
Q 2538 234 2219 68 
Q 1900 -97 1522 -97 
Q 1334 -97 1171 -62 
Q 1009 -28 653 106 
Q 531 153 450 153 
Q 266 153 163 -97 
L 44 -97 
z
" transform="scale(0.015625)"/>
       <path id="TimesNewRomanPS-ItalicMT-68" d="M 1878 4444 
L 1000 1409 
Q 1569 2266 1887 2547 
Q 2206 2828 2497 2828 
Q 2647 2828 2747 2725 
Q 2847 2622 2847 2450 
Q 2847 2244 2759 1950 
L 2378 641 
Q 2306 403 2306 378 
Q 2306 334 2332 306 
Q 2359 278 2394 278 
Q 2434 278 2488 319 
Q 2666 456 2841 700 
L 2938 641 
Q 2831 475 2642 276 
Q 2453 78 2317 1 
Q 2181 -75 2075 -75 
Q 1959 -75 1886 -1 
Q 1813 72 1813 188 
Q 1813 325 1922 700 
L 2281 1950 
Q 2350 2184 2350 2319 
Q 2350 2381 2311 2418 
Q 2272 2456 2209 2456 
Q 2119 2456 2003 2388 
Q 1791 2256 1513 1900 
Q 1438 1803 1013 1119 
Q 881 900 797 641 
L 597 0 
L 128 0 
L 1156 3575 
L 1266 3963 
Q 1266 4044 1198 4106 
Q 1131 4169 1034 4169 
Q 978 4169 863 4150 
L 797 4141 
L 797 4263 
L 1878 4444 
z
" transform="scale(0.015625)"/>
       <path id="TimesNewRomanPS-ItalicMT-72" d="M 334 2653 
L 1413 2828 
L 963 1309 
Q 1509 2244 1956 2616 
Q 2209 2828 2369 2828 
Q 2472 2828 2531 2767 
Q 2591 2706 2591 2591 
Q 2591 2384 2484 2197 
Q 2409 2056 2269 2056 
Q 2197 2056 2145 2103 
Q 2094 2150 2081 2247 
Q 2075 2306 2053 2325 
Q 2028 2350 1994 2350 
Q 1941 2350 1894 2325 
Q 1813 2281 1647 2081 
Q 1388 1775 1084 1288 
Q 953 1081 859 822 
Q 728 466 709 394 
L 609 0 
L 131 0 
L 709 1941 
Q 809 2278 809 2422 
Q 809 2478 763 2516 
Q 700 2566 597 2566 
Q 531 2566 356 2538 
L 334 2653 
z
" transform="scale(0.015625)"/>
       <path id="TimesNewRomanPS-ItalicMT-6b" d="M 1831 4444 
L 944 1372 
L 1300 1675 
Q 1884 2169 2059 2406 
Q 2116 2484 2116 2525 
Q 2116 2553 2097 2578 
Q 2078 2603 2023 2618 
Q 1969 2634 1831 2634 
L 1722 2634 
L 1756 2753 
L 3122 2753 
L 3091 2634 
Q 2856 2622 2686 2561 
Q 2516 2500 2356 2381 
Q 2041 2147 1941 2056 
L 1672 1819 
Q 1741 1594 1841 1191 
Q 2009 522 2069 397 
Q 2128 272 2191 272 
Q 2244 272 2316 325 
Q 2478 444 2663 703 
L 2772 625 
Q 2431 197 2250 61 
Q 2069 -75 1919 -75 
Q 1788 -75 1716 28 
Q 1591 213 1300 1481 
L 872 1109 
L 550 0 
L 63 0 
L 1100 3566 
L 1188 3869 
Q 1203 3947 1203 4006 
Q 1203 4081 1145 4131 
Q 1088 4181 978 4181 
Q 906 4181 750 4150 
L 750 4259 
L 1831 4444 
z
" transform="scale(0.015625)"/>
       <path id="TimesNewRomanPS-ItalicMT-4e" d="M 1834 4238 
L 3144 916 
L 3853 3397 
Q 3941 3703 3941 3872 
Q 3941 3988 3859 4053 
Q 3778 4119 3556 4119 
Q 3519 4119 3478 4122 
L 3513 4238 
L 4875 4238 
L 4838 4122 
Q 4625 4125 4522 4078 
Q 4375 4013 4303 3909 
Q 4203 3763 4100 3397 
L 3103 -97 
L 2991 -97 
L 1581 3478 
L 828 838 
Q 744 538 744 378 
Q 744 259 820 198 
Q 897 138 1184 116 
L 1153 0 
L -178 0 
L -134 116 
Q 116 122 200 159 
Q 328 216 391 306 
Q 481 444 594 838 
L 1434 3784 
Q 1313 3972 1173 4042 
Q 1034 4113 741 4122 
L 775 4238 
L 1834 4238 
z
" transform="scale(0.015625)"/>
      </defs>
      <use xlink:href="#TimesNewRomanPS-ItalicMT-42"/>
      <use xlink:href="#TimesNewRomanPS-ItalicMT-61" x="61.083984"/>
      <use xlink:href="#TimesNewRomanPS-ItalicMT-73" x="111.083984"/>
      <use xlink:href="#TimesNewRomanPS-ItalicMT-65" x="150"/>
      <use xlink:href="#TimesNewRomanPS-ItalicMT-20" x="194.384766"/>
      <use xlink:href="#TimesNewRomanPS-ItalicMT-53" x="219.384766"/>
      <use xlink:href="#TimesNewRomanPS-ItalicMT-68" x="269.384766"/>
      <use xlink:href="#TimesNewRomanPS-ItalicMT-65" x="319.384766"/>
      <use xlink:href="#TimesNewRomanPS-ItalicMT-61" x="363.769531"/>
      <use xlink:href="#TimesNewRomanPS-ItalicMT-72" x="413.769531"/>
      <use xlink:href="#TimesNewRomanPS-ItalicMT-20" x="452.685547"/>
      <use xlink:href="#TimesNewRomanPS-ItalicMT-28" x="477.685547"/>
      <use xlink:href="#TimesNewRomanPS-ItalicMT-6b" x="510.986328"/>
      <use xlink:href="#TimesNewRomanPS-ItalicMT-4e" x="555.371094"/>
      <use xlink:href="#TimesNewRomanPS-ItalicMT-29" x="622.070312"/>
     </g>
    </g>
   </g>
   <g id="line2d_21">
    <path d="M 167.66554 118.073253 
L 167.877309 107.52293 
L 168.089079 108.902664 
L 168.300848 105.30687 
L 168.724387 93.34534 
L 168.936157 92.420171 
L 169.995004 80.888627 
L 170.630313 77.355047 
L 171.265621 75.157075 
L 172.1127 73.198517 
L 173.171547 71.299815 
L 175.501012 67.228442 
L 177.618707 63.666633 
L 179.101093 61.599564 
L 180.795249 59.648766 
L 182.912944 57.596101 
L 186.089487 54.855157 
L 188.630721 52.937124 
L 190.960186 51.466237 
L 193.50142 50.141922 
L 196.466193 48.869817 
L 199.854505 47.669079 
L 203.878126 46.490497 
L 208.748825 45.312949 
L 214.678371 44.121136 
L 222.302073 42.825454 
L 232.678779 41.299154 
L 247.926184 39.300688 
L 272.279677 36.35862 
L 273.126755 36.259264 
L 273.126755 36.259264 
" clip-path="url(#pf70e840de4)" style="fill: none; stroke: #ff0000; stroke-width: 1.2; stroke-linecap: square"/>
   </g>
   <g id="line2d_22">
    <path d="M 167.841221 116.975482 
L 168.591339 87.850548 
L 172.257376 76.891206 
L 175.899958 67.662285 
L 179.150137 61.317403 
L 180.924513 59.971519 
L 178.956618 75.353052 
L 177.445632 83.043819 
L 174.482309 94.003161 
L 171.870348 105.097092 
L 167.706339 126.804282 
L 166.476351 139.570954 
L 166.370793 147.261721 
L 164.17469 153.606604 
L 159.032849 169.757214 
L 155.806136 174.371674 
L 155.572059 165.91183 
L 157.820941 155.721564 
L 159.378837 144.569953 
L 161.949757 136.513875 
L 164.895483 126.746601 
L 166.412327 118.655914 
L 168.356767 105.020185 
L 170.570467 97.464007 
L 175.3844 79.582974 
L 177.258476 70.930861 
L 180.537968 62.471018 
L 178.974215 74.007168 
L 178.124891 84.774241 
L 174.470581 94.964507 
L 170.77522 108.058038 
L 166.581898 131.899415 
L 162.868951 146.300375 
L 158.435694 162.066447 
L 157.317111 166.680907 
L 155.167917 169.757214 
L 157.059579 159.951486 
L 160.860498 138.994147 
L 164.91308 125.458397 
L 167.613002 108.000357 
L 175.770945 76.891206 
L 179.097358 65.162786 
L 183.108888 54.395713 
L 185.632899 49.781253 
L 188.127586 47.281754 
L 189.931286 44.013178 
L 194.188621 40.936871 
L 197.386021 38.437372 
L 201.280266 36.51468 
L 202.615329 41.705948 
L 202.913913 45.551331 
L 201.069161 51.896214 
L 198.890643 56.895212 
L 196.325593 64.585979 
L 192.319932 74.776245 
L 188.71252 81.505666 
L 185.813703 87.850548 
L 180.343966 102.270736 
L 175.295956 111.576563 
L 172.02818 119.198113 
L 169.796895 128.130939 
L 167.548013 138.417339 
L 160.649393 154.37568 
L 154.787242 171.872175 
L 151.478426 182.446979 
L 147.180039 188.407323 
L 141.130732 193.79086 
L 132.627789 198.789858 
L 133.465374 188.984131 
L 136.053891 179.562941 
L 139.362708 168.988137 
L 142.630473 161.29737 
L 146.964041 152.837527 
L 151.326934 142.262723 
L 156.047048 131.264926 
L 200.846811 42.475024 
L 163.279433 116.456355 
L 166.553067 108.404122 
L 171.267323 97.848545 
L 177.392864 86.889202 
L 182.487784 74.199437 
L 186.83308 64.778248 
L 190.797701 57.664289 
L 194.768191 49.973522 
L 197.280463 46.128139 
L 199.447253 41.898217 
L 202.984277 40.360064 
L 202.199471 46.320408 
L 200.319537 55.16479 
L 197.028306 64.585979 
L 193.016776 75.160783 
L 186.885365 86.504664 
L 182.171121 97.271737 
L 178.516811 107.365869 
L 173.082257 119.219263 
L 168.362143 130.226673 
L 161.52216 142.070454 
L 155.730385 154.37568 
L 151.033726 163.6046 
L 147.443923 169.180406 
L 143.830665 176.294365 
L 140.914251 183.985132 
L 136.252775 190.714553 
L 133.049516 193.598591 
L 135.310126 182.446979 
L 137.559008 172.256713 
L 141.207459 162.643255 
L 145.892379 154.183411 
L 149.529104 145.14676 
L 154.23162 135.494848 
L 158.243151 124.900817 
L 160.790616 118.542475 
L 165.50486 107.961903 
L 175.272984 87.658279 
L 184.285615 71.12313 
L 187.898884 64.009171 
L 196.899787 48.435369 
L 206.187535 37.476026 
L 211.504816 34.20745 
L 216.084189 33.438374 
L 221.020783 32.092489 
L 220.563874 39.783256 
L 218.004681 47.089484 
L 215.053085 57.27975 
L 210.356426 66.50867 
L 205.630455 78.044821 
L 200.974848 84.389703 
L 197.36159 91.503662 
L 192.682516 99.540514 
L 187.289013 108.404122 
L 182.598224 117.275422 
L 176.543058 123.13194 
L 164.022716 139.186416 
L 158.289578 147.069452 
L 152.615088 150.914835 
L 146.190963 158.028794 
L 141.125356 168.603599 
L 134.531178 188.022785 
L 129.166999 194.752206 
L 123.135277 198.982127 
L 117.829735 201.481626 
L 115.007152 202.250703 
L 114.755478 194.944475 
L 116.975036 186.86917 
L 121.337929 176.294365 
L 124.986381 166.488638 
L 130.034391 157.259718 
L 132.593583 149.953489 
L 137.981217 141.493646 
L 142.320655 132.687718 
L 148.065521 123.843336 
L 152.387363 116.235245 
L 156.668152 111.615017 
L 162.723329 105.770035 
L 166.652756 101.136348 
L 173.106205 91.888201 
L 182.715992 83.043819 
L 191.306895 71.699938 
L 197.028306 64.585979 
L 203.50521 53.626636 
L 207.809455 47.281754 
L 212.084387 43.051832 
L 216.013814 38.437372 
L 220.950419 37.283757 
L 219.779057 45.7436 
L 216.148202 54.203444 
L 212.136672 64.970517 
L 207.463468 72.469015 
L 203.118172 81.890204 
L 199.499044 89.388701 
L 193.426282 96.502661 
L 187.300741 107.538911 
L 181.860328 119.824911 
L 176.133059 127.400316 
L 170.786465 132.841533 
L 166.476351 139.570954 
L 159.36124 145.915837 
L 153.294347 152.645258 
L 147.209846 160.528294 
L 133.98679 176.486635 
L 128.962235 184.177401 
L 123.961134 189.945476 
L 121.0975 193.79086 
L 116.834307 197.059436 
L 114.726154 197.059436 
L 116.59436 188.984131 
L 128.587911 160.143755 
L 132.230493 150.914835 
L 136.171659 145.339029 
L 141.582759 135.244898 
L 145.916328 126.785055 
L 150.583663 119.61726 
L 155.953711 112.461002 
L 162.377836 105.327815 
L 170.213247 97.848545 
L 178.739644 91.119124 
L 193.420906 71.3154 
L 200.606382 59.971519 
L 207.38187 52.857559 
L 212.412283 44.782254 
L 218.110239 39.398718 
L 224.844664 35.168796 
L 229.447492 32.861566 
L 235.075072 32.477028 
L 237.885939 32.477028 
L 237.797978 39.014179 
L 236.298719 45.7436 
L 231.602061 54.97252 
L 226.173375 66.50867 
L 221.506041 73.62263 
L 216.452161 83.428357 
L 211.415879 91.888201 
L 205.653416 101.943878 
L 200.581951 112.941675 
L 193.115488 119.198113 
L 184.237729 125.862163 
L 178.539784 131.284153 
L 171.090907 136.263925 
L 164.690248 141.685915 
L 151.566881 150.338028 
L 143.374238 158.413333 
L 136.528397 170.52629 
L 129.366376 180.332018 
L 123.66842 185.715555 
L 116.553309 192.060437 
L 108.026912 198.597589 
L 102.352422 202.442972 
L 96.718972 203.212049 
L 98.639957 191.291361 
L 101.181554 185.331016 
L 106.288212 171.679905 
L 109.895612 164.950485 
L 114.217453 157.259718 
L 217.946044 51.319406 
L 122.521501 141.301377 
L 126.831615 134.514275 
L 131.147598 127.342635 
L 142.221461 114.326013 
L 145.770212 111.826513 
L 150.741988 108.077265 
L 155.707906 104.770235 
L 161.042773 100.175002 
L 167.437573 95.156776 
L 178.446929 86.889202 
L 190.557272 75.160783 
L 198.017876 69.392708 
L 204.447859 61.701941 
L 210.157543 55.549328 
L 218.344305 47.858561 
L 225.804909 42.090486 
L 231.473541 38.82191 
L 236.07637 36.322411 
L 238.535874 36.322411 
L 235.191864 49.588984 
L 231.203788 58.433365 
L 226.507141 67.662285 
L 220.030237 78.813897 
L 214.619137 88.811894 
L 208.148102 99.425152 
L 199.920289 109.942276 
L 194.872279 119.232722 
L 185.994519 125.88139 
L 176.765397 132.533903 
L 156.48002 150.914835 
L 135.158152 168.026791 
L 128.013716 176.486635 
L 114.527271 185.907824 
L 108.109015 192.637245 
L 101.005631 198.020781 
L 97.128972 198.789858 
L 99.764398 186.100093 
L 111.365535 160.336025 
L 117.854166 148.415336 
L 123.97385 137.840532 
L 131.498949 127.342635 
L 143.275526 114.345239 
L 153.593895 105.154773 
L 164.228446 98.617622 
L 174.892309 89.77324 
L 185.901665 81.505666 
L 197.994422 70.930861 
L 208.705194 58.817904 
L 225.061144 45.166793 
L 239.238588 36.322411 
L 247.021219 32.669297 
L 253.363241 31.515682 
L 257.19886 33.822912 
L 256.747809 40.936871 
L 253.474175 49.012176 
L 249.123009 58.817904 
L 244.783582 67.662285 
L 239.764885 74.776245 
L 235.800264 82.082473 
L 230.412631 90.542316 
L 226.08492 98.425352 
L 220.012158 105.635446 
L 213.915941 114.499055 
L 209.980644 119.540352 
L 203.257936 122.82431 
L 194.743266 128.630839 
L 179.166264 136.859959 
L 158.980564 148.030798 
L 150.852428 151.299374 
L 119.182878 179.562941 
L 112.085363 184.56194 
L 102.826928 193.406321 
L 91.864481 198.40532 
L 86.201707 201.289357 
L 81.973697 202.058434 
L 78.108765 201.866165 
L 83.994371 182.831517 
L 88.679302 174.371674 
L 93.715573 165.91183 
L 98.757725 157.067449 
L 102.739943 148.607605 
L 109.222705 137.148363 
L 119.992126 120.709349 
L 127.798212 115.306585 
L 133.478572 111.153571 
L 139.504424 107.423549 
L 154.021492 99.598194 
L 162.512707 95.541315 
L 168.884053 92.272739 
L 180.555071 86.889202 
L 190.498635 79.390705 
L 201.15664 71.12313 
L 211.111919 62.663287 
L 219.292823 55.549328 
L 229.212932 49.781253 
L 237.721744 44.397716 
L 246.599504 37.860564 
L 252.607759 35.361065 
L 257.181263 34.976527 
L 253.848992 47.281754 
L 248.736476 61.317403 
L 241.18791 73.62263 
L 235.806134 81.697935 
L 232.175279 90.157778 
L 226.453868 97.271737 
L 221.815858 102.270736 
L 217.476431 111.153571 
L 208.563478 120.363264 
L 200.751522 126.18902 
L 191.551724 130.707346 
L 181.982989 136.494648 
L 169.263752 141.301377 
L 155.472853 147.45399 
L 148.720832 152.837527 
L 142.3319 157.451987 
L 133.448271 164.565946 
L 126.702119 169.564945 
L 119.241515 175.33302 
L 113.198077 180.332018 
L 104.337902 185.715555 
L 95.102922 192.829514 
L 84.134617 198.213051 
L 77.786726 199.751204 
L 80.761777 187.830516 
L 94.125573 161.681909 
L 105.972526 143.416338 
L 112.800781 132.514676 
L 119.230764 124.958498 
L 125.297668 118.248304 
L 131.358703 111.961102 
L 160.035617 96.69493 
L 169.955715 90.926855 
L 180.947485 84.005165 
L 191.230673 77.275744 
L 204.008535 68.239093 
L 211.463282 62.663287 
L 221.043756 56.126135 
L 230.272867 49.396714 
L 238.799264 42.859563 
L 250.452697 38.82191 
L 260.349339 34.591989 
L 268.126113 31.515682 
L 273.390615 31.90022 
L 273.314381 37.476026 
L 271.475499 43.43637 
L 267.81532 54.011174 
L 264.196192 61.701941 
L 257.731027 71.892207 
L 251.968576 81.890204 
L 246.938151 89.965509 
L 240.139209 98.809891 
L 231.208681 109.28856 
L 225.112464 118.138133 
L 219.443832 121.439972 
L 208.094841 128.900016 
L 198.543691 133.399114 
L 187.587103 137.840532 
L 178.05355 141.109108 
L 143.403562 156.298372 
L 134.525803 162.835524 
L 127.785509 167.449984 
L 120.676267 173.218059 
L 113.930103 178.217057 
L 95.138104 190.330015 
L 83.109865 196.09809 
L 73.927664 199.174396 
L 67.931135 200.904819 
L 64.03101 203.404318 
L 61.92288 203.212049 
L 61.284672 198.597589 
L 63.158737 190.137746 
L 67.51576 179.94748 
L 72.581367 169.372675 
L 79.42135 157.451987 
L 97.71587 130.515077 
L 103.443139 122.939671 
L 106.669864 118.298294 
L 116.619286 110.384495 
L 125.098773 107.135146 
L 132.166963 104.289562 
L 138.883802 101.443978 
L 153.734636 94.964507 
L 159.737034 92.849546 
L 168.204794 90.542316 
L 183.395251 84.774241 
L 196.14967 77.468013 
L 218.156655 61.509672 
L 227.016818 56.318405 
L 235.168409 51.319406 
L 240.134327 47.858561 
L 247.214256 44.205447 
L 256.050953 40.552333 
L 263.130882 36.899219 
L 269.847721 34.015181 
L 273.36129 34.015181 
L 272.933705 39.590987 
L 269.624889 50.165791 
L 264.582737 59.202442 
L 258.07652 72.276745 
L 254.451535 80.352051 
L 246.223698 90.734586 
L 240.836065 99.232883 
L 235.823237 105.962304 
L 229.387384 113.960701 
L 220.509625 120.613214 
L 210.946748 125.977524 
L 199.954977 133.014576 
L 186.884389 137.840532 
L 173.807943 143.224069 
L 161.100433 147.261721 
L 147.309534 153.222065 
L 135.620919 159.951486 
L 128.177911 164.373677 
L 121.080397 169.372675 
L 110.463444 174.756212 
L 103.717292 179.75521 
L 95.922921 184.369671 
L 89.891211 188.407323 
L 83.882955 190.906822 
L 77.171974 193.406321 
L 72.938094 194.559936 
L 72.938094 194.559936 
" clip-path="url(#pf70e840de4)" style="fill: none; stroke-dasharray: 3.7,1.6; stroke-dashoffset: 0; stroke: #000000"/>
   </g>
   <g id="line2d_23">
    <path d="M 50.679375 118.036808 
L 283.995912 118.036808 
" clip-path="url(#pf70e840de4)" style="fill: none; stroke: #000000; stroke-width: 0.4; stroke-linecap: square"/>
   </g>
   <g id="line2d_24">
    <path d="M 167.66554 211.99875 
L 167.66554 22.92125 
" clip-path="url(#pf70e840de4)" style="fill: none; stroke: #000000; stroke-width: 0.4; stroke-linecap: square"/>
   </g>
   <g id="patch_3">
    <path d="M 50.679375 211.99875 
L 50.679375 22.92125 
" style="fill: none; stroke: #000000; stroke-width: 0.8; stroke-linejoin: miter; stroke-linecap: square"/>
   </g>
   <g id="patch_4">
    <path d="M 283.995912 211.99875 
L 283.995912 22.92125 
" style="fill: none; stroke: #000000; stroke-width: 0.8; stroke-linejoin: miter; stroke-linecap: square"/>
   </g>
   <g id="patch_5">
    <path d="M 50.679375 211.99875 
L 283.995912 211.99875 
" style="fill: none; stroke: #000000; stroke-width: 0.8; stroke-linejoin: miter; stroke-linecap: square"/>
   </g>
   <g id="patch_6">
    <path d="M 50.679375 22.92125 
L 283.995912 22.92125 
" style="fill: none; stroke: #000000; stroke-width: 0.8; stroke-linejoin: miter; stroke-linecap: square"/>
   </g>
   <g id="text_13">
    <!-- Specimen (I) - Dazio_WSH3  -->
    <g transform="translate(84.140456 16.92125) scale(0.14 -0.14)">
     <defs>
      <path id="TimesNewRomanPSMT-53" d="M 2934 4334 
L 2934 2869 
L 2819 2869 
Q 2763 3291 2617 3541 
Q 2472 3791 2203 3937 
Q 1934 4084 1647 4084 
Q 1322 4084 1109 3886 
Q 897 3688 897 3434 
Q 897 3241 1031 3081 
Q 1225 2847 1953 2456 
Q 2547 2138 2764 1967 
Q 2981 1797 3098 1565 
Q 3216 1334 3216 1081 
Q 3216 600 2842 251 
Q 2469 -97 1881 -97 
Q 1697 -97 1534 -69 
Q 1438 -53 1133 45 
Q 828 144 747 144 
Q 669 144 623 97 
Q 578 50 556 -97 
L 441 -97 
L 441 1356 
L 556 1356 
Q 638 900 775 673 
Q 913 447 1195 297 
Q 1478 147 1816 147 
Q 2206 147 2432 353 
Q 2659 559 2659 841 
Q 2659 997 2573 1156 
Q 2488 1316 2306 1453 
Q 2184 1547 1640 1851 
Q 1097 2156 867 2337 
Q 638 2519 519 2737 
Q 400 2956 400 3219 
Q 400 3675 750 4004 
Q 1100 4334 1641 4334 
Q 1978 4334 2356 4169 
Q 2531 4091 2603 4091 
Q 2684 4091 2736 4139 
Q 2788 4188 2819 4334 
L 2934 4334 
z
" transform="scale(0.015625)"/>
      <path id="TimesNewRomanPSMT-70" d="M -6 2578 
L 875 2934 
L 994 2934 
L 994 2266 
Q 1216 2644 1439 2795 
Q 1663 2947 1909 2947 
Q 2341 2947 2628 2609 
Q 2981 2197 2981 1534 
Q 2981 794 2556 309 
Q 2206 -88 1675 -88 
Q 1444 -88 1275 -22 
Q 1150 25 994 166 
L 994 -706 
Q 994 -1000 1030 -1079 
Q 1066 -1159 1155 -1206 
Q 1244 -1253 1478 -1253 
L 1478 -1369 
L -22 -1369 
L -22 -1253 
L 56 -1253 
Q 228 -1256 350 -1188 
Q 409 -1153 442 -1076 
Q 475 -1000 475 -688 
L 475 2019 
Q 475 2297 450 2372 
Q 425 2447 370 2484 
Q 316 2522 222 2522 
Q 147 2522 31 2478 
L -6 2578 
z
M 994 2081 
L 994 1013 
Q 994 666 1022 556 
Q 1066 375 1236 237 
Q 1406 100 1666 100 
Q 1978 100 2172 344 
Q 2425 663 2425 1241 
Q 2425 1897 2138 2250 
Q 1938 2494 1663 2494 
Q 1513 2494 1366 2419 
Q 1253 2363 994 2081 
z
" transform="scale(0.015625)"/>
      <path id="TimesNewRomanPSMT-65" d="M 681 1784 
Q 678 1147 991 784 
Q 1303 422 1725 422 
Q 2006 422 2214 576 
Q 2422 731 2563 1106 
L 2659 1044 
Q 2594 616 2278 264 
Q 1963 -88 1488 -88 
Q 972 -88 605 314 
Q 238 716 238 1394 
Q 238 2128 614 2539 
Q 991 2950 1559 2950 
Q 2041 2950 2350 2633 
Q 2659 2316 2659 1784 
L 681 1784 
z
M 681 1966 
L 2006 1966 
Q 1991 2241 1941 2353 
Q 1863 2528 1708 2628 
Q 1553 2728 1384 2728 
Q 1125 2728 920 2526 
Q 716 2325 681 1966 
z
" transform="scale(0.015625)"/>
      <path id="TimesNewRomanPSMT-63" d="M 2631 1088 
Q 2516 522 2178 217 
Q 1841 -88 1431 -88 
Q 944 -88 581 321 
Q 219 731 219 1428 
Q 219 2103 620 2525 
Q 1022 2947 1584 2947 
Q 2006 2947 2278 2723 
Q 2550 2500 2550 2259 
Q 2550 2141 2473 2067 
Q 2397 1994 2259 1994 
Q 2075 1994 1981 2113 
Q 1928 2178 1911 2362 
Q 1894 2547 1784 2644 
Q 1675 2738 1481 2738 
Q 1169 2738 978 2506 
Q 725 2200 725 1697 
Q 725 1184 976 792 
Q 1228 400 1656 400 
Q 1963 400 2206 609 
Q 2378 753 2541 1131 
L 2631 1088 
z
" transform="scale(0.015625)"/>
      <path id="TimesNewRomanPSMT-69" d="M 928 4444 
Q 1059 4444 1151 4351 
Q 1244 4259 1244 4128 
Q 1244 3997 1151 3903 
Q 1059 3809 928 3809 
Q 797 3809 703 3903 
Q 609 3997 609 4128 
Q 609 4259 701 4351 
Q 794 4444 928 4444 
z
M 1188 2947 
L 1188 647 
Q 1188 378 1227 289 
Q 1266 200 1342 156 
Q 1419 113 1622 113 
L 1622 0 
L 231 0 
L 231 113 
Q 441 113 512 153 
Q 584 194 626 287 
Q 669 381 669 647 
L 669 1750 
Q 669 2216 641 2353 
Q 619 2453 572 2492 
Q 525 2531 444 2531 
Q 356 2531 231 2484 
L 188 2597 
L 1050 2947 
L 1188 2947 
z
" transform="scale(0.015625)"/>
      <path id="TimesNewRomanPSMT-6d" d="M 1050 2338 
Q 1363 2650 1419 2697 
Q 1559 2816 1721 2881 
Q 1884 2947 2044 2947 
Q 2313 2947 2506 2790 
Q 2700 2634 2766 2338 
Q 3088 2713 3309 2830 
Q 3531 2947 3766 2947 
Q 3994 2947 4170 2830 
Q 4347 2713 4450 2447 
Q 4519 2266 4519 1878 
L 4519 647 
Q 4519 378 4559 278 
Q 4591 209 4675 161 
Q 4759 113 4950 113 
L 4950 0 
L 3538 0 
L 3538 113 
L 3597 113 
Q 3781 113 3884 184 
Q 3956 234 3988 344 
Q 4000 397 4000 647 
L 4000 1878 
Q 4000 2228 3916 2372 
Q 3794 2572 3525 2572 
Q 3359 2572 3192 2489 
Q 3025 2406 2788 2181 
L 2781 2147 
L 2788 2013 
L 2788 647 
Q 2788 353 2820 281 
Q 2853 209 2943 161 
Q 3034 113 3253 113 
L 3253 0 
L 1806 0 
L 1806 113 
Q 2044 113 2133 169 
Q 2222 225 2256 338 
Q 2272 391 2272 647 
L 2272 1878 
Q 2272 2228 2169 2381 
Q 2031 2581 1784 2581 
Q 1616 2581 1450 2491 
Q 1191 2353 1050 2181 
L 1050 647 
Q 1050 366 1089 281 
Q 1128 197 1204 155 
Q 1281 113 1516 113 
L 1516 0 
L 100 0 
L 100 113 
Q 297 113 375 155 
Q 453 197 493 289 
Q 534 381 534 647 
L 534 1741 
Q 534 2213 506 2350 
Q 484 2453 437 2492 
Q 391 2531 309 2531 
Q 222 2531 100 2484 
L 53 2597 
L 916 2947 
L 1050 2947 
L 1050 2338 
z
" transform="scale(0.015625)"/>
      <path id="TimesNewRomanPSMT-6e" d="M 1034 2341 
Q 1538 2947 1994 2947 
Q 2228 2947 2397 2830 
Q 2566 2713 2666 2444 
Q 2734 2256 2734 1869 
L 2734 647 
Q 2734 375 2778 278 
Q 2813 200 2889 156 
Q 2966 113 3172 113 
L 3172 0 
L 1756 0 
L 1756 113 
L 1816 113 
Q 2016 113 2095 173 
Q 2175 234 2206 353 
Q 2219 400 2219 647 
L 2219 1819 
Q 2219 2209 2117 2386 
Q 2016 2563 1775 2563 
Q 1403 2563 1034 2156 
L 1034 647 
Q 1034 356 1069 288 
Q 1113 197 1189 155 
Q 1266 113 1500 113 
L 1500 0 
L 84 0 
L 84 113 
L 147 113 
Q 366 113 442 223 
Q 519 334 519 647 
L 519 1709 
Q 519 2225 495 2337 
Q 472 2450 423 2490 
Q 375 2531 294 2531 
Q 206 2531 84 2484 
L 38 2597 
L 900 2947 
L 1034 2947 
L 1034 2341 
z
" transform="scale(0.015625)"/>
      <path id="TimesNewRomanPSMT-20" transform="scale(0.015625)"/>
      <path id="TimesNewRomanPSMT-28" d="M 1988 -1253 
L 1988 -1369 
Q 1516 -1131 1200 -813 
Q 750 -359 506 256 
Q 263 872 263 1534 
Q 263 2503 741 3301 
Q 1219 4100 1988 4444 
L 1988 4313 
Q 1603 4100 1356 3731 
Q 1109 3363 987 2797 
Q 866 2231 866 1616 
Q 866 947 969 400 
Q 1050 -31 1165 -292 
Q 1281 -553 1476 -793 
Q 1672 -1034 1988 -1253 
z
" transform="scale(0.015625)"/>
      <path id="TimesNewRomanPSMT-49" d="M 1975 116 
L 1975 0 
L 159 0 
L 159 116 
L 309 116 
Q 572 116 691 269 
Q 766 369 766 750 
L 766 3488 
Q 766 3809 725 3913 
Q 694 3991 597 4047 
Q 459 4122 309 4122 
L 159 4122 
L 159 4238 
L 1975 4238 
L 1975 4122 
L 1822 4122 
Q 1563 4122 1444 3969 
Q 1366 3869 1366 3488 
L 1366 750 
Q 1366 428 1406 325 
Q 1438 247 1538 191 
Q 1672 116 1822 116 
L 1975 116 
z
" transform="scale(0.015625)"/>
      <path id="TimesNewRomanPSMT-29" d="M 144 4313 
L 144 4444 
Q 619 4209 934 3891 
Q 1381 3434 1625 2820 
Q 1869 2206 1869 1541 
Q 1869 572 1392 -226 
Q 916 -1025 144 -1369 
L 144 -1253 
Q 528 -1038 776 -670 
Q 1025 -303 1145 264 
Q 1266 831 1266 1447 
Q 1266 2113 1163 2663 
Q 1084 3094 967 3353 
Q 850 3613 656 3853 
Q 463 4094 144 4313 
z
" transform="scale(0.015625)"/>
      <path id="TimesNewRomanPSMT-2d" d="M 259 1672 
L 1875 1672 
L 1875 1200 
L 259 1200 
L 259 1672 
z
" transform="scale(0.015625)"/>
      <path id="TimesNewRomanPSMT-44" d="M 109 0 
L 109 116 
L 269 116 
Q 538 116 650 288 
Q 719 391 719 750 
L 719 3488 
Q 719 3884 631 3984 
Q 509 4122 269 4122 
L 109 4122 
L 109 4238 
L 1834 4238 
Q 2784 4238 3279 4022 
Q 3775 3806 4076 3303 
Q 4378 2800 4378 2141 
Q 4378 1256 3841 663 
Q 3238 0 2003 0 
L 109 0 
z
M 1319 306 
Q 1716 219 1984 219 
Q 2709 219 3187 728 
Q 3666 1238 3666 2109 
Q 3666 2988 3187 3494 
Q 2709 4000 1959 4000 
Q 1678 4000 1319 3909 
L 1319 306 
z
" transform="scale(0.015625)"/>
      <path id="TimesNewRomanPSMT-61" d="M 1822 413 
Q 1381 72 1269 19 
Q 1100 -59 909 -59 
Q 613 -59 420 144 
Q 228 347 228 678 
Q 228 888 322 1041 
Q 450 1253 767 1440 
Q 1084 1628 1822 1897 
L 1822 2009 
Q 1822 2438 1686 2597 
Q 1550 2756 1291 2756 
Q 1094 2756 978 2650 
Q 859 2544 859 2406 
L 866 2225 
Q 866 2081 792 2003 
Q 719 1925 600 1925 
Q 484 1925 411 2006 
Q 338 2088 338 2228 
Q 338 2497 613 2722 
Q 888 2947 1384 2947 
Q 1766 2947 2009 2819 
Q 2194 2722 2281 2516 
Q 2338 2381 2338 1966 
L 2338 994 
Q 2338 584 2353 492 
Q 2369 400 2405 369 
Q 2441 338 2488 338 
Q 2538 338 2575 359 
Q 2641 400 2828 588 
L 2828 413 
Q 2478 -56 2159 -56 
Q 2006 -56 1915 50 
Q 1825 156 1822 413 
z
M 1822 616 
L 1822 1706 
Q 1350 1519 1213 1441 
Q 966 1303 859 1153 
Q 753 1003 753 825 
Q 753 600 887 451 
Q 1022 303 1197 303 
Q 1434 303 1822 616 
z
" transform="scale(0.015625)"/>
      <path id="TimesNewRomanPSMT-7a" d="M 2688 878 
L 2653 0 
L 128 0 
L 128 113 
L 2028 2644 
L 1091 2644 
Q 788 2644 694 2605 
Q 600 2566 541 2456 
Q 456 2300 444 2069 
L 319 2069 
L 338 2863 
L 2738 2863 
L 2738 2747 
L 819 209 
L 1863 209 
Q 2191 209 2308 264 
Q 2425 319 2497 456 
Q 2547 556 2581 878 
L 2688 878 
z
" transform="scale(0.015625)"/>
      <path id="TimesNewRomanPSMT-6f" d="M 1600 2947 
Q 2250 2947 2644 2453 
Q 2978 2031 2978 1484 
Q 2978 1100 2793 706 
Q 2609 313 2286 112 
Q 1963 -88 1566 -88 
Q 919 -88 538 428 
Q 216 863 216 1403 
Q 216 1797 411 2186 
Q 606 2575 925 2761 
Q 1244 2947 1600 2947 
z
M 1503 2744 
Q 1338 2744 1170 2645 
Q 1003 2547 900 2300 
Q 797 2053 797 1666 
Q 797 1041 1045 587 
Q 1294 134 1700 134 
Q 2003 134 2200 384 
Q 2397 634 2397 1244 
Q 2397 2006 2069 2444 
Q 1847 2744 1503 2744 
z
" transform="scale(0.015625)"/>
      <path id="TimesNewRomanPSMT-5f" d="M 3256 -1381 
L -53 -1381 
L -53 -1119 
L 3256 -1119 
L 3256 -1381 
z
" transform="scale(0.015625)"/>
      <path id="TimesNewRomanPSMT-57" d="M 5991 4238 
L 5991 4122 
Q 5825 4122 5722 4062 
Q 5619 4003 5525 3841 
Q 5463 3731 5328 3319 
L 4147 -97 
L 4022 -97 
L 3056 2613 
L 2097 -97 
L 1984 -97 
L 725 3422 
Q 584 3816 547 3888 
Q 484 4006 376 4064 
Q 269 4122 84 4122 
L 84 4238 
L 1653 4238 
L 1653 4122 
L 1578 4122 
Q 1413 4122 1325 4047 
Q 1238 3972 1238 3866 
Q 1238 3756 1375 3363 
L 2209 984 
L 2913 3006 
L 2788 3363 
L 2688 3647 
Q 2622 3803 2541 3922 
Q 2500 3981 2441 4022 
Q 2363 4078 2284 4103 
Q 2225 4122 2097 4122 
L 2097 4238 
L 3747 4238 
L 3747 4122 
L 3634 4122 
Q 3459 4122 3378 4047 
Q 3297 3972 3297 3844 
Q 3297 3684 3438 3288 
L 4250 984 
L 5056 3319 
Q 5194 3706 5194 3856 
Q 5194 3928 5148 3990 
Q 5103 4053 5034 4078 
Q 4916 4122 4725 4122 
L 4725 4238 
L 5991 4238 
z
" transform="scale(0.015625)"/>
      <path id="TimesNewRomanPSMT-48" d="M 1316 2272 
L 3284 2272 
L 3284 3484 
Q 3284 3809 3244 3913 
Q 3213 3991 3113 4047 
Q 2978 4122 2828 4122 
L 2678 4122 
L 2678 4238 
L 4491 4238 
L 4491 4122 
L 4341 4122 
Q 4191 4122 4056 4050 
Q 3956 4000 3920 3898 
Q 3884 3797 3884 3484 
L 3884 750 
Q 3884 428 3925 325 
Q 3956 247 4053 191 
Q 4191 116 4341 116 
L 4491 116 
L 4491 0 
L 2678 0 
L 2678 116 
L 2828 116 
Q 3088 116 3206 269 
Q 3284 369 3284 750 
L 3284 2041 
L 1316 2041 
L 1316 750 
Q 1316 428 1356 325 
Q 1388 247 1488 191 
Q 1622 116 1772 116 
L 1925 116 
L 1925 0 
L 109 0 
L 109 116 
L 259 116 
Q 522 116 641 269 
Q 716 369 716 750 
L 716 3484 
Q 716 3809 675 3913 
Q 644 3991 547 4047 
Q 409 4122 259 4122 
L 109 4122 
L 109 4238 
L 1925 4238 
L 1925 4122 
L 1772 4122 
Q 1622 4122 1488 4050 
Q 1391 4000 1353 3898 
Q 1316 3797 1316 3484 
L 1316 2272 
z
" transform="scale(0.015625)"/>
      <path id="TimesNewRomanPSMT-33" d="M 325 3431 
Q 506 3859 782 4092 
Q 1059 4325 1472 4325 
Q 1981 4325 2253 3994 
Q 2459 3747 2459 3466 
Q 2459 3003 1878 2509 
Q 2269 2356 2469 2072 
Q 2669 1788 2669 1403 
Q 2669 853 2319 450 
Q 1863 -75 997 -75 
Q 569 -75 414 31 
Q 259 138 259 259 
Q 259 350 332 419 
Q 406 488 509 488 
Q 588 488 669 463 
Q 722 447 909 348 
Q 1097 250 1169 231 
Q 1284 197 1416 197 
Q 1734 197 1970 444 
Q 2206 691 2206 1028 
Q 2206 1275 2097 1509 
Q 2016 1684 1919 1775 
Q 1784 1900 1550 2001 
Q 1316 2103 1072 2103 
L 972 2103 
L 972 2197 
Q 1219 2228 1467 2375 
Q 1716 2522 1828 2728 
Q 1941 2934 1941 3181 
Q 1941 3503 1739 3701 
Q 1538 3900 1238 3900 
Q 753 3900 428 3381 
L 325 3431 
z
" transform="scale(0.015625)"/>
     </defs>
     <use xlink:href="#TimesNewRomanPSMT-53"/>
     <use xlink:href="#TimesNewRomanPSMT-70" x="55.615234"/>
     <use xlink:href="#TimesNewRomanPSMT-65" x="105.615234"/>
     <use xlink:href="#TimesNewRomanPSMT-63" x="150"/>
     <use xlink:href="#TimesNewRomanPSMT-69" x="194.384766"/>
     <use xlink:href="#TimesNewRomanPSMT-6d" x="222.167969"/>
     <use xlink:href="#TimesNewRomanPSMT-65" x="299.951172"/>
     <use xlink:href="#TimesNewRomanPSMT-6e" x="344.335938"/>
     <use xlink:href="#TimesNewRomanPSMT-20" x="394.335938"/>
     <use xlink:href="#TimesNewRomanPSMT-28" x="419.335938"/>
     <use xlink:href="#TimesNewRomanPSMT-49" x="452.636719"/>
     <use xlink:href="#TimesNewRomanPSMT-29" x="485.9375"/>
     <use xlink:href="#TimesNewRomanPSMT-20" x="519.238281"/>
     <use xlink:href="#TimesNewRomanPSMT-2d" x="544.238281"/>
     <use xlink:href="#TimesNewRomanPSMT-20" x="577.539062"/>
     <use xlink:href="#TimesNewRomanPSMT-44" x="602.539062"/>
     <use xlink:href="#TimesNewRomanPSMT-61" x="674.755859"/>
     <use xlink:href="#TimesNewRomanPSMT-7a" x="719.140625"/>
     <use xlink:href="#TimesNewRomanPSMT-69" x="763.525391"/>
     <use xlink:href="#TimesNewRomanPSMT-6f" x="791.308594"/>
     <use xlink:href="#TimesNewRomanPSMT-5f" x="841.308594"/>
     <use xlink:href="#TimesNewRomanPSMT-57" x="891.308594"/>
     <use xlink:href="#TimesNewRomanPSMT-53" x="985.693359"/>
     <use xlink:href="#TimesNewRomanPSMT-48" x="1041.308594"/>
     <use xlink:href="#TimesNewRomanPSMT-33" x="1113.525391"/>
     <use xlink:href="#TimesNewRomanPSMT-20" x="1163.525391"/>
    </g>
   </g>
   <g id="legend_1">
    <g id="patch_7">
     <path d="M 57.679375 59.199375 
L 154.387188 59.199375 
Q 156.387188 59.199375 156.387188 57.199375 
L 156.387188 29.92125 
Q 156.387188 27.92125 154.387188 27.92125 
L 57.679375 27.92125 
Q 55.679375 27.92125 55.679375 29.92125 
L 55.679375 57.199375 
Q 55.679375 59.199375 57.679375 59.199375 
z
" style="fill: #ffffff; opacity: 0.8; stroke: #cccccc; stroke-linejoin: miter"/>
    </g>
    <g id="line2d_25">
     <path d="M 59.679375 35.42125 
L 69.679375 35.42125 
L 79.679375 35.42125 
" style="fill: none; stroke: #ff0000; stroke-width: 1.2; stroke-linecap: square"/>
    </g>
    <g id="text_14">
     <!-- DNN prediction -->
     <g transform="translate(87.679375 38.92125) scale(0.1 -0.1)">
      <defs>
       <path id="TimesNewRomanPSMT-4e" d="M -84 4238 
L 1066 4238 
L 3656 1059 
L 3656 3503 
Q 3656 3894 3569 3991 
Q 3453 4122 3203 4122 
L 3056 4122 
L 3056 4238 
L 4531 4238 
L 4531 4122 
L 4381 4122 
Q 4113 4122 4000 3959 
Q 3931 3859 3931 3503 
L 3931 -69 
L 3819 -69 
L 1025 3344 
L 1025 734 
Q 1025 344 1109 247 
Q 1228 116 1475 116 
L 1625 116 
L 1625 0 
L 150 0 
L 150 116 
L 297 116 
Q 569 116 681 278 
Q 750 378 750 734 
L 750 3681 
Q 566 3897 470 3965 
Q 375 4034 191 4094 
Q 100 4122 -84 4122 
L -84 4238 
z
" transform="scale(0.015625)"/>
       <path id="TimesNewRomanPSMT-72" d="M 1038 2947 
L 1038 2303 
Q 1397 2947 1775 2947 
Q 1947 2947 2059 2842 
Q 2172 2738 2172 2600 
Q 2172 2478 2090 2393 
Q 2009 2309 1897 2309 
Q 1788 2309 1652 2417 
Q 1516 2525 1450 2525 
Q 1394 2525 1328 2463 
Q 1188 2334 1038 2041 
L 1038 669 
Q 1038 431 1097 309 
Q 1138 225 1241 169 
Q 1344 113 1538 113 
L 1538 0 
L 72 0 
L 72 113 
Q 291 113 397 181 
Q 475 231 506 341 
Q 522 394 522 644 
L 522 1753 
Q 522 2253 501 2348 
Q 481 2444 426 2487 
Q 372 2531 291 2531 
Q 194 2531 72 2484 
L 41 2597 
L 906 2947 
L 1038 2947 
z
" transform="scale(0.015625)"/>
       <path id="TimesNewRomanPSMT-64" d="M 2222 322 
Q 2013 103 1813 7 
Q 1613 -88 1381 -88 
Q 913 -88 563 304 
Q 213 697 213 1313 
Q 213 1928 600 2439 
Q 988 2950 1597 2950 
Q 1975 2950 2222 2709 
L 2222 3238 
Q 2222 3728 2198 3840 
Q 2175 3953 2125 3993 
Q 2075 4034 2000 4034 
Q 1919 4034 1784 3984 
L 1744 4094 
L 2597 4444 
L 2738 4444 
L 2738 1134 
Q 2738 631 2761 520 
Q 2784 409 2836 365 
Q 2888 322 2956 322 
Q 3041 322 3181 375 
L 3216 266 
L 2366 -88 
L 2222 -88 
L 2222 322 
z
M 2222 541 
L 2222 2016 
Q 2203 2228 2109 2403 
Q 2016 2578 1861 2667 
Q 1706 2756 1559 2756 
Q 1284 2756 1069 2509 
Q 784 2184 784 1559 
Q 784 928 1059 592 
Q 1334 256 1672 256 
Q 1956 256 2222 541 
z
" transform="scale(0.015625)"/>
       <path id="TimesNewRomanPSMT-74" d="M 1031 3803 
L 1031 2863 
L 1700 2863 
L 1700 2644 
L 1031 2644 
L 1031 788 
Q 1031 509 1111 412 
Q 1191 316 1316 316 
Q 1419 316 1516 380 
Q 1613 444 1666 569 
L 1788 569 
Q 1678 263 1478 108 
Q 1278 -47 1066 -47 
Q 922 -47 784 33 
Q 647 113 581 261 
Q 516 409 516 719 
L 516 2644 
L 63 2644 
L 63 2747 
Q 234 2816 414 2980 
Q 594 3144 734 3369 
Q 806 3488 934 3803 
L 1031 3803 
z
" transform="scale(0.015625)"/>
      </defs>
      <use xlink:href="#TimesNewRomanPSMT-44"/>
      <use xlink:href="#TimesNewRomanPSMT-4e" x="72.216797"/>
      <use xlink:href="#TimesNewRomanPSMT-4e" x="144.433594"/>
      <use xlink:href="#TimesNewRomanPSMT-20" x="216.650391"/>
      <use xlink:href="#TimesNewRomanPSMT-70" x="241.650391"/>
      <use xlink:href="#TimesNewRomanPSMT-72" x="291.650391"/>
      <use xlink:href="#TimesNewRomanPSMT-65" x="324.951172"/>
      <use xlink:href="#TimesNewRomanPSMT-64" x="369.335938"/>
      <use xlink:href="#TimesNewRomanPSMT-69" x="419.335938"/>
      <use xlink:href="#TimesNewRomanPSMT-63" x="447.119141"/>
      <use xlink:href="#TimesNewRomanPSMT-74" x="491.503906"/>
      <use xlink:href="#TimesNewRomanPSMT-69" x="519.287109"/>
      <use xlink:href="#TimesNewRomanPSMT-6f" x="547.070312"/>
      <use xlink:href="#TimesNewRomanPSMT-6e" x="597.070312"/>
     </g>
    </g>
    <g id="line2d_26">
     <path d="M 59.679375 49.560312 
L 69.679375 49.560312 
L 79.679375 49.560312 
" style="fill: none; stroke-dasharray: 3.7,1.6; stroke-dashoffset: 0; stroke: #000000"/>
    </g>
    <g id="text_15">
     <!-- Reference (I) -->
     <g transform="translate(87.679375 53.060312) scale(0.1 -0.1)">
      <defs>
       <path id="TimesNewRomanPSMT-52" d="M 4325 0 
L 3194 0 
L 1759 1981 
Q 1600 1975 1500 1975 
Q 1459 1975 1412 1976 
Q 1366 1978 1316 1981 
L 1316 750 
Q 1316 350 1403 253 
Q 1522 116 1759 116 
L 1925 116 
L 1925 0 
L 109 0 
L 109 116 
L 269 116 
Q 538 116 653 291 
Q 719 388 719 750 
L 719 3488 
Q 719 3888 631 3984 
Q 509 4122 269 4122 
L 109 4122 
L 109 4238 
L 1653 4238 
Q 2328 4238 2648 4139 
Q 2969 4041 3192 3777 
Q 3416 3513 3416 3147 
Q 3416 2756 3161 2468 
Q 2906 2181 2372 2063 
L 3247 847 
Q 3547 428 3762 290 
Q 3978 153 4325 116 
L 4325 0 
z
M 1316 2178 
Q 1375 2178 1419 2176 
Q 1463 2175 1491 2175 
Q 2097 2175 2405 2437 
Q 2713 2700 2713 3106 
Q 2713 3503 2464 3751 
Q 2216 4000 1806 4000 
Q 1625 4000 1316 3941 
L 1316 2178 
z
" transform="scale(0.015625)"/>
       <path id="TimesNewRomanPSMT-66" d="M 1319 2638 
L 1319 756 
Q 1319 356 1406 250 
Q 1522 113 1716 113 
L 1975 113 
L 1975 0 
L 266 0 
L 266 113 
L 394 113 
Q 519 113 622 175 
Q 725 238 764 344 
Q 803 450 803 756 
L 803 2638 
L 247 2638 
L 247 2863 
L 803 2863 
L 803 3050 
Q 803 3478 940 3775 
Q 1078 4072 1361 4255 
Q 1644 4438 1997 4438 
Q 2325 4438 2600 4225 
Q 2781 4084 2781 3909 
Q 2781 3816 2700 3733 
Q 2619 3650 2525 3650 
Q 2453 3650 2373 3701 
Q 2294 3753 2178 3923 
Q 2063 4094 1966 4153 
Q 1869 4213 1750 4213 
Q 1606 4213 1506 4136 
Q 1406 4059 1362 3898 
Q 1319 3738 1319 3069 
L 1319 2863 
L 2056 2863 
L 2056 2638 
L 1319 2638 
z
" transform="scale(0.015625)"/>
      </defs>
      <use xlink:href="#TimesNewRomanPSMT-52"/>
      <use xlink:href="#TimesNewRomanPSMT-65" x="66.699219"/>
      <use xlink:href="#TimesNewRomanPSMT-66" x="111.083984"/>
      <use xlink:href="#TimesNewRomanPSMT-65" x="144.384766"/>
      <use xlink:href="#TimesNewRomanPSMT-72" x="188.769531"/>
      <use xlink:href="#TimesNewRomanPSMT-65" x="222.070312"/>
      <use xlink:href="#TimesNewRomanPSMT-6e" x="266.455078"/>
      <use xlink:href="#TimesNewRomanPSMT-63" x="316.455078"/>
      <use xlink:href="#TimesNewRomanPSMT-65" x="360.839844"/>
      <use xlink:href="#TimesNewRomanPSMT-20" x="405.224609"/>
      <use xlink:href="#TimesNewRomanPSMT-28" x="430.224609"/>
      <use xlink:href="#TimesNewRomanPSMT-49" x="463.525391"/>
      <use xlink:href="#TimesNewRomanPSMT-29" x="496.826172"/>
     </g>
    </g>
   </g>
  </g>
 </g>
 <defs>
  <clipPath id="pf70e840de4">
   <rect x="50.679375" y="22.92125" width="233.316537" height="189.0775"/>
  </clipPath>
 </defs>
</svg>
