<?xml version="1.0" encoding="utf-8" standalone="no"?>
<!DOCTYPE svg PUBLIC "-//W3C//DTD SVG 1.1//EN"
  "http://www.w3.org/Graphics/SVG/1.1/DTD/svg11.dtd">
<svg xmlns:xlink="http://www.w3.org/1999/xlink" width="320.882063pt" height="275.066563pt" viewBox="0 0 320.882063 275.066563" xmlns="http://www.w3.org/2000/svg" version="1.1">
 <metadata>
  <rdf:RDF xmlns:dc="http://purl.org/dc/elements/1.1/" xmlns:cc="http://creativecommons.org/ns#" xmlns:rdf="http://www.w3.org/1999/02/22-rdf-syntax-ns#">
   <cc:Work>
    <dc:type rdf:resource="http://purl.org/dc/dcmitype/StillImage"/>
    <dc:date>2024-02-27T19:32:49.767735</dc:date>
    <dc:format>image/svg+xml</dc:format>
    <dc:creator>
     <cc:Agent>
      <dc:title>Matplotlib v3.7.1, https://matplotlib.org/</dc:title>
     </cc:Agent>
    </dc:creator>
   </cc:Work>
  </rdf:RDF>
 </metadata>
 <defs>
  <style type="text/css">*{stroke-linejoin: round; stroke-linecap: butt}</style>
 </defs>
 <g id="figure_1">
  <g id="patch_1">
   <path d="M 0 275.066563 
L 320.882063 275.066563 
L 320.882063 0 
L 0 0 
z
" style="fill: #ffffff"/>
  </g>
  <g id="axes_1">
   <g id="patch_2">
    <path d="M 64.994062 233.25125 
L 313.682062 233.25125 
L 313.682062 22.92125 
L 64.994062 22.92125 
z
" style="fill: #ffffff"/>
   </g>
   <g id="matplotlib.axis_1">
    <g id="xtick_1">
     <g id="line2d_1">
      <path d="M 108.618301 233.25125 
L 108.618301 22.92125 
" clip-path="url(#p538c9af248)" style="fill: none; stroke-dasharray: 0.8,1.32; stroke-dashoffset: 0; stroke: #b0b0b0; stroke-width: 0.8"/>
     </g>
     <g id="line2d_2">
      <defs>
       <path id="mb93070961c" d="M 0 0 
L 0 3.5 
" style="stroke: #000000; stroke-width: 0.8"/>
      </defs>
      <g>
       <use xlink:href="#mb93070961c" x="108.618301" y="233.25125" style="stroke: #000000; stroke-width: 0.8"/>
      </g>
     </g>
     <g id="text_1">
      <!-- −100 -->
      <g transform="translate(94.170957 249.9725) scale(0.14 -0.14)">
       <defs>
        <path id="TimesNewRomanPSMT-2212" d="M 3484 2000 
L 116 2000 
L 116 2256 
L 3484 2256 
L 3484 2000 
z
" transform="scale(0.015625)"/>
        <path id="TimesNewRomanPSMT-31" d="M 750 3822 
L 1781 4325 
L 1884 4325 
L 1884 747 
Q 1884 391 1914 303 
Q 1944 216 2037 169 
Q 2131 122 2419 116 
L 2419 0 
L 825 0 
L 825 116 
Q 1125 122 1212 167 
Q 1300 213 1334 289 
Q 1369 366 1369 747 
L 1369 3034 
Q 1369 3497 1338 3628 
Q 1316 3728 1258 3775 
Q 1200 3822 1119 3822 
Q 1003 3822 797 3725 
L 750 3822 
z
" transform="scale(0.015625)"/>
        <path id="TimesNewRomanPSMT-30" d="M 231 2094 
Q 231 2819 450 3342 
Q 669 3866 1031 4122 
Q 1313 4325 1613 4325 
Q 2100 4325 2488 3828 
Q 2972 3213 2972 2159 
Q 2972 1422 2759 906 
Q 2547 391 2217 158 
Q 1888 -75 1581 -75 
Q 975 -75 572 641 
Q 231 1244 231 2094 
z
M 844 2016 
Q 844 1141 1059 588 
Q 1238 122 1591 122 
Q 1759 122 1940 273 
Q 2122 425 2216 781 
Q 2359 1319 2359 2297 
Q 2359 3022 2209 3506 
Q 2097 3866 1919 4016 
Q 1791 4119 1609 4119 
Q 1397 4119 1231 3928 
Q 1006 3669 925 3112 
Q 844 2556 844 2016 
z
" transform="scale(0.015625)"/>
       </defs>
       <use xlink:href="#TimesNewRomanPSMT-2212"/>
       <use xlink:href="#TimesNewRomanPSMT-31" x="56.396484"/>
       <use xlink:href="#TimesNewRomanPSMT-30" x="106.396484"/>
       <use xlink:href="#TimesNewRomanPSMT-30" x="156.396484"/>
      </g>
     </g>
    </g>
    <g id="xtick_2">
     <g id="line2d_3">
      <path d="M 189.06691 233.25125 
L 189.06691 22.92125 
" clip-path="url(#p538c9af248)" style="fill: none; stroke-dasharray: 0.8,1.32; stroke-dashoffset: 0; stroke: #b0b0b0; stroke-width: 0.8"/>
     </g>
     <g id="line2d_4">
      <g>
       <use xlink:href="#mb93070961c" x="189.06691" y="233.25125" style="stroke: #000000; stroke-width: 0.8"/>
      </g>
     </g>
     <g id="text_2">
      <!-- 0 -->
      <g transform="translate(185.56691 249.9725) scale(0.14 -0.14)">
       <use xlink:href="#TimesNewRomanPSMT-30"/>
      </g>
     </g>
    </g>
    <g id="xtick_3">
     <g id="line2d_5">
      <path d="M 269.515518 233.25125 
L 269.515518 22.92125 
" clip-path="url(#p538c9af248)" style="fill: none; stroke-dasharray: 0.8,1.32; stroke-dashoffset: 0; stroke: #b0b0b0; stroke-width: 0.8"/>
     </g>
     <g id="line2d_6">
      <g>
       <use xlink:href="#mb93070961c" x="269.515518" y="233.25125" style="stroke: #000000; stroke-width: 0.8"/>
      </g>
     </g>
     <g id="text_3">
      <!-- 100 -->
      <g transform="translate(259.015518 249.9725) scale(0.14 -0.14)">
       <use xlink:href="#TimesNewRomanPSMT-31"/>
       <use xlink:href="#TimesNewRomanPSMT-30" x="50"/>
       <use xlink:href="#TimesNewRomanPSMT-30" x="100"/>
      </g>
     </g>
    </g>
    <g id="text_4">
     <!-- Displacement (mm) -->
     <g transform="translate(142.183687 265.299688) scale(0.12 -0.12)">
      <defs>
       <path id="TimesNewRomanPS-ItalicMT-44" d="M 938 4122 
L 975 4238 
L 2328 4238 
Q 3188 4238 3602 4041 
Q 4016 3844 4262 3420 
Q 4509 2997 4509 2513 
Q 4509 2097 4367 1705 
Q 4225 1313 4045 1077 
Q 3866 841 3494 556 
Q 3122 272 2687 136 
Q 2253 0 1603 0 
L -191 0 
L -150 116 
Q 97 122 181 159 
Q 306 213 366 303 
Q 456 434 569 831 
L 1319 3394 
Q 1406 3697 1406 3869 
Q 1406 3991 1325 4056 
Q 1244 4122 1006 4122 
L 938 4122 
z
M 2047 4003 
L 1128 831 
Q 1025 475 1025 391 
Q 1025 341 1058 294 
Q 1091 247 1147 231 
Q 1228 203 1409 203 
Q 1900 203 2320 304 
Q 2741 406 3009 606 
Q 3391 897 3619 1406 
Q 3847 1916 3847 2566 
Q 3847 3300 3497 3658 
Q 3147 4016 2475 4016 
Q 2309 4016 2047 4003 
z
" transform="scale(0.015625)"/>
       <path id="TimesNewRomanPS-ItalicMT-69" d="M 1431 4069 
Q 1563 4069 1653 3978 
Q 1744 3888 1744 3756 
Q 1744 3628 1651 3536 
Q 1559 3444 1431 3444 
Q 1303 3444 1211 3536 
Q 1119 3628 1119 3756 
Q 1119 3888 1209 3978 
Q 1300 4069 1431 4069 
z
M 1472 2828 
L 853 638 
Q 791 416 791 372 
Q 791 322 820 290 
Q 850 259 891 259 
Q 938 259 1003 309 
Q 1181 450 1363 709 
L 1472 638 
Q 1259 313 972 91 
Q 759 -75 566 -75 
Q 438 -75 356 1 
Q 275 78 275 194 
Q 275 309 353 578 
L 759 1978 
Q 859 2322 859 2409 
Q 859 2478 811 2522 
Q 763 2566 678 2566 
Q 609 2566 394 2531 
L 394 2653 
L 1472 2828 
z
" transform="scale(0.015625)"/>
       <path id="TimesNewRomanPS-ItalicMT-73" d="M 2322 2828 
L 2131 1869 
L 2016 1869 
Q 2000 2288 1837 2478 
Q 1675 2669 1434 2669 
Q 1241 2669 1127 2562 
Q 1013 2456 1013 2306 
Q 1013 2203 1058 2109 
Q 1103 2016 1256 1847 
Q 1663 1403 1781 1178 
Q 1900 953 1900 753 
Q 1900 428 1629 176 
Q 1359 -75 947 -75 
Q 722 -75 428 31 
Q 325 69 269 69 
Q 128 69 56 -75 
L -59 -75 
L 131 938 
L 247 938 
Q 266 463 444 266 
Q 622 69 931 69 
Q 1169 69 1308 201 
Q 1447 334 1447 528 
Q 1447 653 1397 759 
Q 1309 947 1029 1278 
Q 750 1609 670 1775 
Q 591 1941 591 2106 
Q 591 2409 811 2618 
Q 1031 2828 1378 2828 
Q 1478 2828 1559 2813 
Q 1603 2803 1764 2742 
Q 1925 2681 1978 2681 
Q 2113 2681 2203 2828 
L 2322 2828 
z
" transform="scale(0.015625)"/>
       <path id="TimesNewRomanPS-ItalicMT-70" d="M 1416 2828 
L 1200 2109 
Q 1541 2509 1808 2668 
Q 2075 2828 2353 2828 
Q 2631 2828 2828 2608 
Q 3025 2388 3025 2034 
Q 3025 1347 2465 636 
Q 1906 -75 1163 -75 
Q 1006 -75 886 -40 
Q 766 -6 616 81 
L 388 -725 
Q 319 -963 319 -1034 
Q 319 -1103 355 -1151 
Q 391 -1200 472 -1226 
Q 553 -1253 794 -1253 
L 766 -1369 
L -706 -1369 
L -675 -1253 
Q -384 -1241 -282 -1153 
Q -181 -1066 -69 -669 
L 722 2069 
Q 794 2328 794 2391 
Q 794 2475 745 2522 
Q 697 2569 597 2569 
Q 506 2569 344 2547 
L 344 2669 
L 1416 2828 
z
M 688 328 
Q 881 97 1209 97 
Q 1372 97 1540 187 
Q 1709 278 1870 456 
Q 2031 634 2159 867 
Q 2288 1100 2389 1415 
Q 2491 1731 2491 2041 
Q 2491 2291 2377 2423 
Q 2263 2556 2109 2556 
Q 1772 2556 1442 2168 
Q 1113 1781 959 1263 
L 688 328 
z
" transform="scale(0.015625)"/>
       <path id="TimesNewRomanPS-ItalicMT-6c" d="M 1903 4444 
L 834 725 
Q 756 447 756 384 
Q 756 338 786 306 
Q 816 275 859 275 
Q 919 275 988 328 
Q 1150 456 1328 725 
L 1422 628 
Q 1125 209 875 44 
Q 691 -75 525 -75 
Q 406 -75 326 6 
Q 247 88 247 194 
Q 247 306 347 656 
L 1194 3588 
Q 1297 3947 1297 4000 
Q 1297 4075 1237 4123 
Q 1178 4172 1053 4172 
Q 981 4172 834 4150 
L 834 4266 
L 1903 4444 
z
" transform="scale(0.015625)"/>
       <path id="TimesNewRomanPS-ItalicMT-61" d="M 3003 2828 
L 2394 709 
L 2325 425 
Q 2316 384 2316 356 
Q 2316 306 2347 269 
Q 2372 241 2409 241 
Q 2450 241 2516 291 
Q 2638 381 2841 666 
L 2947 591 
Q 2731 266 2503 95 
Q 2275 -75 2081 -75 
Q 1947 -75 1880 -8 
Q 1813 59 1813 188 
Q 1813 341 1881 591 
L 1947 825 
Q 1538 291 1194 78 
Q 947 -75 709 -75 
Q 481 -75 315 114 
Q 150 303 150 634 
Q 150 1131 448 1682 
Q 747 2234 1206 2566 
Q 1566 2828 1884 2828 
Q 2075 2828 2201 2728 
Q 2328 2628 2394 2397 
L 2506 2753 
L 3003 2828 
z
M 1891 2666 
Q 1691 2666 1466 2478 
Q 1147 2213 898 1691 
Q 650 1169 650 747 
Q 650 534 756 411 
Q 863 288 1000 288 
Q 1341 288 1741 791 
Q 2275 1459 2275 2163 
Q 2275 2428 2172 2547 
Q 2069 2666 1891 2666 
z
" transform="scale(0.015625)"/>
       <path id="TimesNewRomanPS-ItalicMT-63" d="M 2472 681 
Q 2147 291 1815 108 
Q 1484 -75 1116 -75 
Q 672 -75 423 175 
Q 175 425 175 847 
Q 175 1325 442 1787 
Q 709 2250 1161 2539 
Q 1613 2828 2047 2828 
Q 2388 2828 2556 2686 
Q 2725 2544 2725 2338 
Q 2725 2144 2606 2006 
Q 2519 1900 2391 1900 
Q 2294 1900 2230 1962 
Q 2166 2025 2166 2119 
Q 2166 2178 2189 2228 
Q 2213 2278 2286 2348 
Q 2359 2419 2375 2450 
Q 2391 2481 2391 2516 
Q 2391 2581 2331 2625 
Q 2241 2688 2075 2688 
Q 1769 2688 1469 2472 
Q 1169 2256 956 1859 
Q 700 1378 700 897 
Q 700 578 881 392 
Q 1063 206 1375 206 
Q 1616 206 1852 326 
Q 2088 447 2381 763 
L 2472 681 
z
" transform="scale(0.015625)"/>
       <path id="TimesNewRomanPS-ItalicMT-65" d="M 763 1178 
Q 741 1022 741 919 
Q 741 641 937 445 
Q 1134 250 1416 250 
Q 1641 250 1848 342 
Q 2056 434 2466 750 
L 2531 659 
Q 1791 -75 1119 -75 
Q 663 -75 431 212 
Q 200 500 200 847 
Q 200 1313 487 1800 
Q 775 2288 1209 2558 
Q 1644 2828 2103 2828 
Q 2434 2828 2593 2693 
Q 2753 2559 2753 2375 
Q 2753 2116 2547 1878 
Q 2275 1569 1747 1378 
Q 1397 1250 763 1178 
z
M 784 1331 
Q 1247 1384 1538 1513 
Q 1922 1684 2114 1923 
Q 2306 2163 2306 2378 
Q 2306 2509 2223 2590 
Q 2141 2672 1988 2672 
Q 1669 2672 1311 2333 
Q 953 1994 784 1331 
z
" transform="scale(0.015625)"/>
       <path id="TimesNewRomanPS-ItalicMT-6d" d="M 1388 2828 
L 981 1419 
Q 1253 1916 1444 2166 
Q 1741 2553 2022 2728 
Q 2188 2828 2369 2828 
Q 2525 2828 2628 2728 
Q 2731 2628 2731 2472 
Q 2731 2319 2659 2072 
L 2438 1278 
Q 2947 2231 3403 2616 
Q 3656 2828 3903 2828 
Q 4047 2828 4139 2729 
Q 4231 2631 4231 2425 
Q 4231 2244 4175 2041 
L 3831 825 
Q 3719 428 3719 384 
Q 3719 341 3747 309 
Q 3766 288 3797 288 
Q 3828 288 3906 347 
Q 4084 484 4241 709 
L 4344 644 
Q 4266 519 4067 300 
Q 3869 81 3728 3 
Q 3588 -75 3469 -75 
Q 3359 -75 3286 0 
Q 3213 75 3213 184 
Q 3213 334 3341 788 
L 3625 1791 
Q 3722 2138 3728 2175 
Q 3738 2234 3738 2291 
Q 3738 2369 3703 2413 
Q 3666 2456 3619 2456 
Q 3488 2456 3341 2322 
Q 2909 1925 2534 1209 
Q 2288 738 2072 0 
L 1600 0 
L 2134 1891 
Q 2222 2197 2222 2300 
Q 2222 2384 2187 2425 
Q 2153 2466 2103 2466 
Q 2000 2466 1884 2391 
Q 1697 2269 1401 1869 
Q 1106 1469 944 1103 
Q 866 931 572 0 
L 109 0 
L 688 2025 
L 763 2288 
Q 784 2347 784 2375 
Q 784 2444 721 2498 
Q 659 2553 563 2553 
Q 522 2553 338 2516 
L 309 2631 
L 1388 2828 
z
" transform="scale(0.015625)"/>
       <path id="TimesNewRomanPS-ItalicMT-6e" d="M 1413 2828 
L 997 1406 
Q 1581 2278 1892 2553 
Q 2203 2828 2491 2828 
Q 2647 2828 2748 2725 
Q 2850 2622 2850 2456 
Q 2850 2269 2759 1956 
L 2378 641 
Q 2313 413 2313 363 
Q 2313 319 2338 289 
Q 2363 259 2391 259 
Q 2428 259 2481 300 
Q 2647 431 2844 700 
L 2941 641 
Q 2650 225 2391 47 
Q 2209 -75 2066 -75 
Q 1950 -75 1881 -4 
Q 1813 66 1813 184 
Q 1813 334 1919 700 
L 2281 1956 
Q 2350 2191 2350 2322 
Q 2350 2384 2309 2423 
Q 2269 2463 2209 2463 
Q 2122 2463 2000 2388 
Q 1769 2247 1519 1923 
Q 1269 1600 991 1097 
Q 844 831 747 516 
L 591 0 
L 122 0 
L 691 1956 
Q 791 2309 791 2381 
Q 791 2450 736 2501 
Q 681 2553 600 2553 
Q 563 2553 469 2541 
L 350 2522 
L 331 2634 
L 1413 2828 
z
" transform="scale(0.015625)"/>
       <path id="TimesNewRomanPS-ItalicMT-74" d="M 1663 3603 
L 1419 2753 
L 1909 2753 
L 1856 2556 
L 1369 2556 
L 831 713 
Q 744 416 744 328 
Q 744 275 769 247 
Q 794 219 828 219 
Q 906 219 1034 328 
Q 1109 391 1369 713 
L 1472 634 
Q 1184 216 928 44 
Q 753 -75 575 -75 
Q 438 -75 350 11 
Q 263 97 263 231 
Q 263 400 363 747 
L 884 2556 
L 413 2556 
L 444 2678 
Q 788 2772 1016 2958 
Q 1244 3144 1525 3603 
L 1663 3603 
z
" transform="scale(0.015625)"/>
       <path id="TimesNewRomanPS-ItalicMT-20" transform="scale(0.015625)"/>
       <path id="TimesNewRomanPS-ItalicMT-28" d="M 1203 -1319 
L 1097 -1369 
Q 725 -659 563 -116 
Q 438 309 438 741 
Q 438 1747 903 2544 
Q 1475 3519 2756 4444 
L 2831 4334 
Q 2253 3906 1888 3375 
Q 1431 2713 1140 1775 
Q 850 838 850 69 
Q 850 -519 1203 -1319 
z
" transform="scale(0.015625)"/>
       <path id="TimesNewRomanPS-ItalicMT-29" d="M 931 4384 
L 1038 4444 
Q 1409 3738 1569 3194 
Q 1697 2769 1697 2338 
Q 1697 1328 1231 534 
Q 656 -444 -622 -1369 
L -697 -1272 
Q -119 -841 247 -313 
Q 703 350 993 1289 
Q 1284 2228 1284 2997 
Q 1284 3584 931 4384 
z
" transform="scale(0.015625)"/>
      </defs>
      <use xlink:href="#TimesNewRomanPS-ItalicMT-44"/>
      <use xlink:href="#TimesNewRomanPS-ItalicMT-69" x="72.216797"/>
      <use xlink:href="#TimesNewRomanPS-ItalicMT-73" x="100"/>
      <use xlink:href="#TimesNewRomanPS-ItalicMT-70" x="138.916016"/>
      <use xlink:href="#TimesNewRomanPS-ItalicMT-6c" x="188.916016"/>
      <use xlink:href="#TimesNewRomanPS-ItalicMT-61" x="216.699219"/>
      <use xlink:href="#TimesNewRomanPS-ItalicMT-63" x="266.699219"/>
      <use xlink:href="#TimesNewRomanPS-ItalicMT-65" x="311.083984"/>
      <use xlink:href="#TimesNewRomanPS-ItalicMT-6d" x="355.46875"/>
      <use xlink:href="#TimesNewRomanPS-ItalicMT-65" x="427.685547"/>
      <use xlink:href="#TimesNewRomanPS-ItalicMT-6e" x="472.070312"/>
      <use xlink:href="#TimesNewRomanPS-ItalicMT-74" x="522.070312"/>
      <use xlink:href="#TimesNewRomanPS-ItalicMT-20" x="549.853516"/>
      <use xlink:href="#TimesNewRomanPS-ItalicMT-28" x="574.853516"/>
      <use xlink:href="#TimesNewRomanPS-ItalicMT-6d" x="608.154297"/>
      <use xlink:href="#TimesNewRomanPS-ItalicMT-6d" x="680.371094"/>
      <use xlink:href="#TimesNewRomanPS-ItalicMT-29" x="752.587891"/>
     </g>
    </g>
   </g>
   <g id="matplotlib.axis_2">
    <g id="ytick_1">
     <g id="line2d_7">
      <path d="M 64.994062 181.816682 
L 313.682062 181.816682 
" clip-path="url(#p538c9af248)" style="fill: none; stroke-dasharray: 0.8,1.32; stroke-dashoffset: 0; stroke: #b0b0b0; stroke-width: 0.8"/>
     </g>
     <g id="line2d_8">
      <defs>
       <path id="m7600531768" d="M 0 0 
L -3.5 0 
" style="stroke: #000000; stroke-width: 0.8"/>
      </defs>
      <g>
       <use xlink:href="#m7600531768" x="64.994062" y="181.816682" style="stroke: #000000; stroke-width: 0.8"/>
      </g>
     </g>
     <g id="text_5">
      <!-- −1000 -->
      <g transform="translate(22.099375 186.677307) scale(0.14 -0.14)">
       <use xlink:href="#TimesNewRomanPSMT-2212"/>
       <use xlink:href="#TimesNewRomanPSMT-31" x="56.396484"/>
       <use xlink:href="#TimesNewRomanPSMT-30" x="106.396484"/>
       <use xlink:href="#TimesNewRomanPSMT-30" x="156.396484"/>
       <use xlink:href="#TimesNewRomanPSMT-30" x="206.396484"/>
      </g>
     </g>
    </g>
    <g id="ytick_2">
     <g id="line2d_9">
      <path d="M 64.994062 123.209873 
L 313.682062 123.209873 
" clip-path="url(#p538c9af248)" style="fill: none; stroke-dasharray: 0.8,1.32; stroke-dashoffset: 0; stroke: #b0b0b0; stroke-width: 0.8"/>
     </g>
     <g id="line2d_10">
      <g>
       <use xlink:href="#m7600531768" x="64.994062" y="123.209873" style="stroke: #000000; stroke-width: 0.8"/>
      </g>
     </g>
     <g id="text_6">
      <!-- 0 -->
      <g transform="translate(50.994062 128.070498) scale(0.14 -0.14)">
       <use xlink:href="#TimesNewRomanPSMT-30"/>
      </g>
     </g>
    </g>
    <g id="ytick_3">
     <g id="line2d_11">
      <path d="M 64.994062 64.603065 
L 313.682062 64.603065 
" clip-path="url(#p538c9af248)" style="fill: none; stroke-dasharray: 0.8,1.32; stroke-dashoffset: 0; stroke: #b0b0b0; stroke-width: 0.8"/>
     </g>
     <g id="line2d_12">
      <g>
       <use xlink:href="#m7600531768" x="64.994062" y="64.603065" style="stroke: #000000; stroke-width: 0.8"/>
      </g>
     </g>
     <g id="text_7">
      <!-- 1000 -->
      <g transform="translate(29.994062 69.46369) scale(0.14 -0.14)">
       <use xlink:href="#TimesNewRomanPSMT-31"/>
       <use xlink:href="#TimesNewRomanPSMT-30" x="50"/>
       <use xlink:href="#TimesNewRomanPSMT-30" x="100"/>
       <use xlink:href="#TimesNewRomanPSMT-30" x="150"/>
      </g>
     </g>
    </g>
    <g id="text_8">
     <!-- Base Shear (kN) -->
     <g transform="translate(15.5325 167.409688) rotate(-90) scale(0.12 -0.12)">
      <defs>
       <path id="TimesNewRomanPS-ItalicMT-42" d="M 947 4122 
L 991 4238 
L 2503 4238 
Q 2884 4238 3182 4119 
Q 3481 4000 3629 3787 
Q 3778 3575 3778 3338 
Q 3778 2972 3514 2676 
Q 3250 2381 2653 2241 
Q 3038 2097 3219 1859 
Q 3400 1622 3400 1338 
Q 3400 1022 3237 734 
Q 3075 447 2820 287 
Q 2566 128 2206 53 
Q 1950 0 1406 0 
L -147 0 
L -106 116 
Q 138 122 225 163 
Q 350 216 403 303 
Q 478 422 603 847 
L 1363 3413 
Q 1459 3738 1459 3869 
Q 1459 3984 1373 4051 
Q 1288 4119 1047 4119 
Q 994 4119 947 4122 
z
M 1581 2363 
Q 1784 2356 1875 2356 
Q 2525 2356 2842 2639 
Q 3159 2922 3159 3347 
Q 3159 3669 2965 3848 
Q 2772 4028 2347 4028 
Q 2234 4028 2059 3991 
L 1581 2363 
z
M 966 275 
Q 1303 231 1494 231 
Q 1981 231 2357 525 
Q 2734 819 2734 1322 
Q 2734 1706 2501 1922 
Q 2269 2138 1750 2138 
Q 1650 2138 1506 2128 
L 966 275 
z
" transform="scale(0.015625)"/>
       <path id="TimesNewRomanPS-ItalicMT-53" d="M 44 -97 
L 394 1475 
L 500 1475 
Q 478 1247 478 1097 
Q 478 669 751 400 
Q 1025 131 1466 131 
Q 1875 131 2087 382 
Q 2300 634 2300 963 
Q 2300 1175 2203 1350 
Q 2056 1609 1419 2263 
Q 1109 2575 1022 2728 
Q 878 2981 878 3259 
Q 878 3703 1209 4018 
Q 1541 4334 2059 4334 
Q 2234 4334 2391 4300 
Q 2488 4281 2744 4175 
Q 2925 4103 2944 4097 
Q 2988 4088 3041 4088 
Q 3131 4088 3197 4134 
Q 3263 4181 3350 4334 
L 3469 4334 
L 3144 2928 
L 3038 2928 
Q 3050 3116 3050 3231 
Q 3050 3609 2800 3850 
Q 2550 4091 2141 4091 
Q 1816 4091 1612 3900 
Q 1409 3709 1409 3459 
Q 1409 3241 1539 3042 
Q 1669 2844 2136 2395 
Q 2603 1947 2740 1695 
Q 2878 1444 2878 1159 
Q 2878 838 2708 536 
Q 2538 234 2219 68 
Q 1900 -97 1522 -97 
Q 1334 -97 1171 -62 
Q 1009 -28 653 106 
Q 531 153 450 153 
Q 266 153 163 -97 
L 44 -97 
z
" transform="scale(0.015625)"/>
       <path id="TimesNewRomanPS-ItalicMT-68" d="M 1878 4444 
L 1000 1409 
Q 1569 2266 1887 2547 
Q 2206 2828 2497 2828 
Q 2647 2828 2747 2725 
Q 2847 2622 2847 2450 
Q 2847 2244 2759 1950 
L 2378 641 
Q 2306 403 2306 378 
Q 2306 334 2332 306 
Q 2359 278 2394 278 
Q 2434 278 2488 319 
Q 2666 456 2841 700 
L 2938 641 
Q 2831 475 2642 276 
Q 2453 78 2317 1 
Q 2181 -75 2075 -75 
Q 1959 -75 1886 -1 
Q 1813 72 1813 188 
Q 1813 325 1922 700 
L 2281 1950 
Q 2350 2184 2350 2319 
Q 2350 2381 2311 2418 
Q 2272 2456 2209 2456 
Q 2119 2456 2003 2388 
Q 1791 2256 1513 1900 
Q 1438 1803 1013 1119 
Q 881 900 797 641 
L 597 0 
L 128 0 
L 1156 3575 
L 1266 3963 
Q 1266 4044 1198 4106 
Q 1131 4169 1034 4169 
Q 978 4169 863 4150 
L 797 4141 
L 797 4263 
L 1878 4444 
z
" transform="scale(0.015625)"/>
       <path id="TimesNewRomanPS-ItalicMT-72" d="M 334 2653 
L 1413 2828 
L 963 1309 
Q 1509 2244 1956 2616 
Q 2209 2828 2369 2828 
Q 2472 2828 2531 2767 
Q 2591 2706 2591 2591 
Q 2591 2384 2484 2197 
Q 2409 2056 2269 2056 
Q 2197 2056 2145 2103 
Q 2094 2150 2081 2247 
Q 2075 2306 2053 2325 
Q 2028 2350 1994 2350 
Q 1941 2350 1894 2325 
Q 1813 2281 1647 2081 
Q 1388 1775 1084 1288 
Q 953 1081 859 822 
Q 728 466 709 394 
L 609 0 
L 131 0 
L 709 1941 
Q 809 2278 809 2422 
Q 809 2478 763 2516 
Q 700 2566 597 2566 
Q 531 2566 356 2538 
L 334 2653 
z
" transform="scale(0.015625)"/>
       <path id="TimesNewRomanPS-ItalicMT-6b" d="M 1831 4444 
L 944 1372 
L 1300 1675 
Q 1884 2169 2059 2406 
Q 2116 2484 2116 2525 
Q 2116 2553 2097 2578 
Q 2078 2603 2023 2618 
Q 1969 2634 1831 2634 
L 1722 2634 
L 1756 2753 
L 3122 2753 
L 3091 2634 
Q 2856 2622 2686 2561 
Q 2516 2500 2356 2381 
Q 2041 2147 1941 2056 
L 1672 1819 
Q 1741 1594 1841 1191 
Q 2009 522 2069 397 
Q 2128 272 2191 272 
Q 2244 272 2316 325 
Q 2478 444 2663 703 
L 2772 625 
Q 2431 197 2250 61 
Q 2069 -75 1919 -75 
Q 1788 -75 1716 28 
Q 1591 213 1300 1481 
L 872 1109 
L 550 0 
L 63 0 
L 1100 3566 
L 1188 3869 
Q 1203 3947 1203 4006 
Q 1203 4081 1145 4131 
Q 1088 4181 978 4181 
Q 906 4181 750 4150 
L 750 4259 
L 1831 4444 
z
" transform="scale(0.015625)"/>
       <path id="TimesNewRomanPS-ItalicMT-4e" d="M 1834 4238 
L 3144 916 
L 3853 3397 
Q 3941 3703 3941 3872 
Q 3941 3988 3859 4053 
Q 3778 4119 3556 4119 
Q 3519 4119 3478 4122 
L 3513 4238 
L 4875 4238 
L 4838 4122 
Q 4625 4125 4522 4078 
Q 4375 4013 4303 3909 
Q 4203 3763 4100 3397 
L 3103 -97 
L 2991 -97 
L 1581 3478 
L 828 838 
Q 744 538 744 378 
Q 744 259 820 198 
Q 897 138 1184 116 
L 1153 0 
L -178 0 
L -134 116 
Q 116 122 200 159 
Q 328 216 391 306 
Q 481 444 594 838 
L 1434 3784 
Q 1313 3972 1173 4042 
Q 1034 4113 741 4122 
L 775 4238 
L 1834 4238 
z
" transform="scale(0.015625)"/>
      </defs>
      <use xlink:href="#TimesNewRomanPS-ItalicMT-42"/>
      <use xlink:href="#TimesNewRomanPS-ItalicMT-61" x="61.083984"/>
      <use xlink:href="#TimesNewRomanPS-ItalicMT-73" x="111.083984"/>
      <use xlink:href="#TimesNewRomanPS-ItalicMT-65" x="150"/>
      <use xlink:href="#TimesNewRomanPS-ItalicMT-20" x="194.384766"/>
      <use xlink:href="#TimesNewRomanPS-ItalicMT-53" x="219.384766"/>
      <use xlink:href="#TimesNewRomanPS-ItalicMT-68" x="269.384766"/>
      <use xlink:href="#TimesNewRomanPS-ItalicMT-65" x="319.384766"/>
      <use xlink:href="#TimesNewRomanPS-ItalicMT-61" x="363.769531"/>
      <use xlink:href="#TimesNewRomanPS-ItalicMT-72" x="413.769531"/>
      <use xlink:href="#TimesNewRomanPS-ItalicMT-20" x="452.685547"/>
      <use xlink:href="#TimesNewRomanPS-ItalicMT-28" x="477.685547"/>
      <use xlink:href="#TimesNewRomanPS-ItalicMT-6b" x="510.986328"/>
      <use xlink:href="#TimesNewRomanPS-ItalicMT-4e" x="555.371094"/>
      <use xlink:href="#TimesNewRomanPS-ItalicMT-29" x="622.070312"/>
     </g>
    </g>
   </g>
   <g id="line2d_13">
    <path d="M 189.06691 123.823483 
L 191.425669 79.28422 
L 193.693428 69.614154 
L 195.782699 64.429619 
L 197.612878 57.148954 
L 199.113357 55.01261 
L 200.22625 52.789879 
L 201.134144 51.881903 
L 200.894119 52.558486 
L 200.197806 55.051943 
L 199.072069 60.987035 
L 197.560338 70.114215 
L 195.720934 79.713026 
L 191.352867 98.773327 
L 188.992721 113.309227 
L 186.635438 144.116729 
L 184.371959 170.017933 
L 182.289609 177.617942 
L 180.468724 184.941121 
L 178.979553 189.886951 
L 177.000131 195.577313 
L 177.254648 195.048328 
L 180.626342 177.770748 
L 182.474901 168.083601 
L 184.577777 155.480032 
L 186.85384 136.131634 
L 189.215284 108.682383 
L 191.571002 92.909745 
L 193.830115 83.84809 
L 195.905465 76.444494 
L 199.194793 67.697829 
L 201.132776 62.865357 
L 200.139658 68.802294 
L 193.487094 105.254561 
L 191.207007 122.758584 
L 188.844356 147.458159 
L 186.49029 162.702889 
L 184.23563 172.511627 
L 182.167358 179.514011 
L 180.365267 184.306984 
L 177.002412 191.743496 
L 178.023863 186.663719 
L 182.599679 163.547411 
L 184.715841 151.980695 
L 186.999865 135.249554 
L 189.466273 110.484811 
L 192.632264 92.347282 
L 195.660705 81.685518 
L 198.434761 73.284785 
L 200.84741 67.706671 
L 202.805573 63.891785 
L 205.07671 60.099161 
L 205.302064 59.7619 
L 204.901074 61.669491 
L 202.305509 75.690737 
L 200.211069 86.0535 
L 194.829769 110.436198 
L 191.750518 127.714438 
L 188.567734 150.955019 
L 185.404208 165.854081 
L 182.381988 176.501659 
L 179.617668 183.804906 
L 177.217896 188.641499 
L 172.834824 195.794341 
L 177.995597 171.085283 
L 183.397512 147.070168 
L 186.48183 130.867468 
L 189.665879 109.796803 
L 192.82682 96.156847 
L 195.842705 86.030753 
L 198.597184 77.691102 
L 200.983989 72.294106 
L 205.109101 63.920458 
L 205.295313 63.630687 
L 200.064957 90.681735 
L 194.642631 114.831197 
L 191.553363 131.364307 
L 188.36817 149.266031 
L 185.209933 162.638827 
L 182.200496 172.403793 
L 179.455963 179.738461 
L 177.082215 184.993382 
L 173.79555 191.0721 
L 172.842802 192.905752 
L 174.369579 185.314096 
L 178.142543 167.473484 
L 183.585075 143.612772 
L 186.679176 128.249374 
L 190.14159 109.175249 
L 194.388461 92.968763 
L 198.430029 80.79395 
L 202.110373 71.677032 
L 205.287506 65.688936 
L 207.838856 61.60848 
L 210.69843 57.957402 
L 210.896332 57.92988 
L 208.790486 69.640746 
L 206.567981 80.903409 
L 203.670293 93.747969 
L 200.209214 106.949322 
L 192.147572 135.402173 
L 187.858023 152.087695 
L 183.615113 166.864906 
L 179.582531 177.604428 
L 175.915851 185.572661 
L 172.756533 190.935256 
L 170.226461 194.335166 
L 168.423244 196.448781 
L 167.244919 198.160856 
L 171.64669 177.765522 
L 174.563801 165.347825 
L 178.040435 151.893043 
L 181.942465 138.109791 
L 186.119353 124.679731 
L 194.648744 95.393227 
L 198.672189 84.015168 
L 202.325066 74.973415 
L 205.46645 68.907059 
L 207.975148 64.820258 
L 210.735491 60.69815 
L 210.880643 60.790224 
L 208.673124 73.075669 
L 206.405619 84.259868 
L 203.469195 96.87948 
L 199.977138 110.007006 
L 196.064169 124.015041 
L 191.88125 136.65157 
L 183.355247 164.77432 
L 179.341093 175.164952 
L 175.702156 182.980061 
L 172.578825 188.557552 
L 170.091596 192.251469 
L 167.262258 196.112722 
L 171.810365 175.12286 
L 174.765992 162.772248 
L 178.27334 149.42008 
L 182.197099 135.946501 
L 186.385892 123.678446 
L 191.235435 108.119827 
L 196.928681 90.331532 
L 202.318625 76.977475 
L 207.197323 67.311641 
L 211.376559 61.099977 
L 214.6951 57.155414 
L 217.024917 54.985875 
L 218.276129 53.991433 
L 218.400463 54.277664 
L 215.292971 71.069584 
L 212.181031 85.676086 
L 208.17736 100.880024 
L 203.436417 115.895553 
L 198.141105 129.607325 
L 192.495715 139.962233 
L 186.718044 154.334402 
L 181.03099 169.900151 
L 175.653959 181.507 
L 170.794392 189.827814 
L 166.639771 195.252199 
L 163.350377 198.427276 
L 161.053114 200.40321 
L 159.747797 201.867486 
L 162.92331 187.703146 
L 166.065126 174.623844 
L 170.09434 159.503116 
L 174.855506 144.144566 
L 180.164941 130.617092 
L 185.81781 120.636933 
L 191.596027 108.204818 
L 197.276672 92.163414 
L 202.640589 79.30545 
L 207.48084 69.748903 
L 211.61069 63.499243 
L 214.870813 59.57522 
L 218.317184 55.980237 
L 218.370473 56.476285 
L 215.12706 73.892369 
L 211.955486 88.328137 
L 207.900882 103.41452 
L 203.119673 118.497256 
L 197.796315 130.893004 
L 192.136181 140.181631 
L 186.357636 153.437139 
L 180.683613 168.419996 
L 175.333014 179.805943 
L 170.512262 188.008542 
L 166.407339 193.531111 
L 163.176611 196.989141 
L 160.944718 199.175557 
L 159.797766 200.561152 
L 159.780002 200.202743 
L 163.091194 185.491261 
L 166.292406 172.451468 
L 170.372246 157.540049 
L 175.173318 142.414506 
L 180.510397 129.682931 
L 186.177582 120.306957 
L 192.955655 105.074584 
L 200.583121 85.373909 
L 207.766298 70.917186 
L 214.228061 61.200135 
L 219.719119 55.217598 
L 224.02763 51.653493 
L 226.987373 49.798185 
L 228.484164 49.103395 
L 228.460256 49.916429 
L 226.916572 58.512106 
L 223.912667 73.651904 
L 219.56443 91.595295 
L 214.039613 109.00882 
L 207.551362 125.000226 
L 200.349989 135.702357 
L 192.713321 143.71872 
L 184.935976 157.132928 
L 177.318001 174.144791 
L 170.153292 186.750885 
L 163.718262 195.205483 
L 158.26117 200.256972 
L 151.077079 205.037469 
L 149.627238 206.557189 
L 149.69896 206.081267 
L 151.289478 199.166479 
L 154.337431 186.794283 
L 158.725231 170.298322 
L 164.283597 152.569386 
L 170.798092 136.217755 
L 178.017388 124.900068 
L 185.66297 116.765777 
L 193.439874 104.800911 
L 201.048071 87.15916 
L 208.194041 72.97809 
L 214.602095 63.309587 
L 220.025015 57.309143 
L 224.253586 53.748185 
L 228.527509 50.783104 
L 228.407975 51.852965 
L 226.770682 60.628755 
L 223.678796 76.099249 
L 219.2516 93.915873 
L 213.659894 111.318556 
L 207.119403 126.510615 
L 199.882455 135.930657 
L 192.228249 143.666353 
L 184.45208 156.428845 
L 176.853948 172.954262 
L 169.726987 185.360662 
L 163.346151 193.716754 
L 157.957609 198.899801 
L 150.942654 204.269986 
L 149.586875 205.723802 
L 149.754216 204.502217 
L 151.438222 197.166579 
L 154.573924 184.653675 
L 159.040348 168.380348 
L 164.665183 150.995982 
L 171.231424 135.127148 
L 178.485749 124.707248 
L 186.148291 116.625405 
L 195.603302 100.670622 
L 205.815694 78.756909 
L 215.381926 63.872569 
L 223.932938 54.631637 
L 231.138835 49.00328 
L 236.721619 45.772837 
L 240.465906 44.293273 
L 242.227246 43.926766 
L 241.937686 45.700301 
L 239.608398 58.497662 
L 235.329243 78.29713 
L 229.265311 99.231679 
L 221.650544 118.153677 
L 212.778716 132.24646 
L 202.992098 140.571625 
L 192.668254 147.574275 
L 182.205471 160.376276 
L 172.0074 179.042173 
L 162.467475 192.688452 
L 153.953744 200.897383 
L 146.794662 205.509342 
L 137.582302 210.14715 
L 135.884432 211.895023 
L 136.238317 210.628681 
L 138.630302 200.919024 
L 142.968107 184.493336 
L 149.084381 164.132703 
L 156.743162 144.394818 
L 165.648977 129.141647 
L 175.458244 120.281076 
L 185.792527 112.374889 
L 196.253134 100.421182 
L 206.4365 80.847621 
L 215.949755 65.871016 
L 224.425884 56.577759 
L 231.537881 51.019256 
L 237.011368 47.805754 
L 240.635182 46.017574 
L 242.269518 45.608091 
L 241.851322 47.522857 
L 239.39673 60.196386 
L 235.000438 80.319551 
L 228.832054 101.171594 
L 221.129549 119.905847 
L 212.190084 132.619158 
L 202.358537 140.311675 
L 192.014207 147.386446 
L 181.556171 159.850697 
L 171.387896 178.11991 
L 161.901668 191.489502 
L 153.463462 199.613721 
L 146.39882 204.437672 
L 137.416921 209.731207 
L 135.846182 211.31523 
L 136.328672 208.867794 
L 138.845778 198.593503 
L 143.300391 182.120779 
L 149.520653 162.277864 
L 157.26659 143.094562 
L 166.239368 128.604191 
L 176.092822 120.276273 
L 186.446809 112.280809 
L 199.611996 95.213929 
L 213.276652 70.827398 
L 226.007308 56.703386 
L 237.312822 48.132141 
L 246.757031 42.654035 
L 253.975585 39.665646 
L 258.689993 38.622614 
L 260.718377 38.546293 
L 259.982483 41.855896 
L 256.5107 60.107589 
L 250.43697 84.903606 
L 241.995612 107.939664 
L 231.512291 126.113676 
L 219.391448 137.334561 
L 206.1007 144.814412 
L 192.152796 151.537769 
L 178.08584 163.773786 
L 164.442528 184.453036 
L 151.749213 198.963465 
L 140.495596 206.792275 
L 131.115837 211.149217 
L 119.339104 215.697934 
L 117.39647 217.627759 
L 118.218847 215.609115 
L 121.774507 201.704135 
L 127.926276 179.674321 
L 136.43682 155.652197 
L 146.977807 135.840991 
L 159.14257 123.818339 
L 172.461801 115.729625 
L 186.421648 107.694091 
L 200.483548 95.139272 
L 214.105 73.471326 
L 226.760494 58.327615 
L 237.961789 49.714088 
L 247.276743 44.599936 
L 254.34599 41.654192 
L 258.896802 40.283693 
L 260.753612 40.419464 
L 259.844783 43.545356 
L 256.205379 61.25289 
L 249.975806 86.568756 
L 241.396398 109.582189 
L 230.798143 126.951258 
L 218.589918 137.097006 
L 205.24271 144.225529 
L 191.271447 151.071346 
L 177.215134 163.497443 
L 163.616057 183.914722 
L 150.998862 197.916534 
L 139.850313 205.657519 
L 130.600516 210.235568 
L 119.137569 215.413471 
L 117.366654 217.284138 
L 122.084909 198.774088 
L 128.392052 176.988795 
L 137.040001 153.909002 
L 147.695123 134.956976 
L 159.946348 123.532235 
L 173.321029 115.616007 
L 187.303179 107.53678 
L 205.603264 88.702146 
L 223.875458 61.916817 
L 240.804756 49.541523 
L 255.738033 41.558484 
L 268.09917 35.945666 
L 277.411282 33.413068 
L 283.315111 32.481705 
L 285.582891 32.605886 
L 284.127132 38.028561 
L 279.003996 62.638778 
L 270.411132 92.300244 
L 258.680047 115.781162 
L 244.263321 131.071069 
L 227.717145 140.792999 
L 209.679862 148.32083 
L 190.847342 155.009103 
L 171.946133 167.203927 
L 153.705435 190.494453 
L 136.828966 205.577328 
L 121.96781 213.140654 
L 109.695306 217.387652 
L 100.484918 220.140576 
L 94.691981 221.716944 
L 92.539982 223.690795 
L 94.111944 220.837741 
L 99.347222 200.574852 
L 108.043842 171.786722 
L 119.866292 145.729936 
L 134.358468 129.07903 
L 150.961269 119.562992 
L 169.034167 111.210258 
L 187.879917 102.899493 
L 206.771462 88.952201 
L 224.979974 65.382889 
L 241.802977 50.238938 
L 256.591449 42.629525 
L 268.774857 37.929927 
L 277.883171 35.2886 
L 283.564998 34.359655 
L 285.601135 34.730777 
L 283.913029 39.751732 
L 278.565806 63.811866 
L 269.76576 94.163614 
L 257.852391 117.359628 
L 243.285313 131.381037 
L 226.626515 140.175621 
L 208.518686 147.497605 
L 189.660417 154.308007 
L 170.779251 167.322106 
L 152.603613 190.416143 
L 135.834712 204.66199 
L 135.834712 204.66199 
" clip-path="url(#p538c9af248)" style="fill: none; stroke: #0000ff; stroke-width: 1.2; stroke-linecap: square"/>
   </g>
   <g id="line2d_14">
    <path d="M 188.946045 119.189457 
L 191.114489 99.774683 
L 191.50342 88.387273 
L 195.522373 72.848755 
L 197.994863 66.113254 
L 200.931909 60.670286 
L 203.873585 56.00364 
L 206.355335 50.820785 
L 206.400093 58.325241 
L 206.185563 60.65488 
L 204.838195 64.540514 
L 201.046119 79.819587 
L 199.490395 87.069957 
L 197.473201 93.545344 
L 196.593477 99.241059 
L 194.56548 103.905025 
L 192.992779 108.308878 
L 192.116141 114.522141 
L 190.78112 120.47797 
L 190.369038 127.983766 
L 189.493944 134.455804 
L 189.527898 140.148839 
L 188.875049 145.58511 
L 188.452164 151.279485 
L 186.669564 158.789299 
L 186.027519 166.03699 
L 184.698672 173.027917 
L 183.359021 178.207422 
L 181.556357 182.35317 
L 178.619311 187.796139 
L 177.2704 191.422999 
L 175.231599 194.275545 
L 173.884231 198.161179 
L 172.296096 199.977288 
L 171.834627 199.202305 
L 172.266772 195.060576 
L 173.834843 189.8804 
L 176.531122 182.367906 
L 178.321439 176.151964 
L 179.878706 169.160368 
L 180.986851 163.463983 
L 185.882442 141.712202 
L 187.422732 131.874089 
L 187.628001 127.991804 
L 189.196072 122.811628 
L 190.003258 104.953519 
L 191.307411 93.822204 
L 193.298367 82.947653 
L 195.76777 75.694603 
L 197.556544 69.219886 
L 200.712749 62.223601 
L 203.421375 56.781302 
L 206.589928 51.855212 
L 210.232297 49.774301 
L 213.646246 47.694059 
L 215.462801 45.87728 
L 217.297876 47.165793 
L 216.853383 49.237327 
L 215.09702 61.146305 
L 213.755826 66.067037 
L 211.726286 70.472229 
L 209.482216 77.20706 
L 206.349161 88.08496 
L 205.2333 92.487473 
L 204.120525 97.407534 
L 200.311471 109.84009 
L 198.055054 114.504726 
L 195.794007 118.393039 
L 193.978996 120.468593 
L 193.978996 120.468593 
L 191.708689 122.80426 
L 189.890591 124.362265 
L 188.771643 128.247229 
L 188.341041 132.647732 
L 187.016824 140.414982 
L 187.097079 153.871247 
L 184.422408 165.006582 
L 182.645981 173.551494 
L 180.857207 180.026211 
L 178.148581 185.46851 
L 175.669918 191.168913 
L 172.269859 195.578124 
L 168.412961 199.988675 
L 165.687357 202.584456 
L 163.869259 204.142461 
L 162.273408 204.664699 
L 161.566541 201.043867 
L 162.907736 196.123136 
L 163.580648 194.050932 
L 164.474263 190.684186 
L 166.945209 183.689911 
L 167.81876 176.959098 
L 170.278903 168.153403 
L 172.294553 161.419242 
L 173.180451 156.758624 
L 176.558903 148.726572 
L 177.893924 142.770743 
L 179.235118 137.850012 
L 180.125647 133.965718 
L 182.15673 129.8193 
L 183.266418 124.38169 
L 184.62922 123.083799 
L 187.104796 116.865847 
L 190.271805 111.680982 
L 194.107097 103.647591 
L 196.331103 93.548693 
L 199.018122 84.483553 
L 202.17124 76.96972 
L 205.089766 68.421459 
L 206.8878 63.499388 
L 210.516278 59.089507 
L 214.368547 53.902633 
L 217.771692 50.010971 
L 220.728802 47.932068 
L 225.048714 44.555275 
L 225.740147 45.588363 
L 225.758667 48.693655 
L 225.105819 54.129926 
L 223.102516 62.934282 
L 220.642373 71.739978 
L 219.528055 76.401265 
L 216.601813 83.655654 
L 214.796062 87.283854 
L 213.456411 92.463359 
L 212.792759 96.08821 
L 211.903774 100.231278 
L 211.008615 103.33925 
L 206.040486 112.928636 
L 199.691034 120.710622 
L 195.831049 124.603624 
L 192.648606 127.200745 
L 191.971063 128.496626 
L 190.609805 130.053291 
L 188.353388 134.717927 
L 187.45823 137.825898 
L 185.431776 142.748639 
L 183.413039 148.965252 
L 182.531771 154.402192 
L 177.572902 165.544225 
L 176.682373 169.42852 
L 175.112759 174.349921 
L 174.447564 177.715997 
L 172.64953 182.638068 
L 171.072199 186.265597 
L 168.584275 190.413355 
L 166.776981 193.78278 
L 164.741267 197.152875 
L 161.111245 201.303981 
L 158.840938 203.639649 
L 157.248173 204.679435 
L 154.968606 205.462456 
L 154.054927 205.465135 
L 153.820333 204.430708 
L 154.720122 202.099059 
L 156.06286 197.437102 
L 156.261955 192.51972 
L 158.059989 187.597649 
L 159.631147 182.935022 
L 160.745465 178.273735 
L 162.762658 171.798348 
L 164.560692 166.876277 
L 166.340206 158.848914 
L 167.902103 152.633641 
L 168.562668 148.491242 
L 169.894602 142.017864 
L 171.459586 136.32014 
L 173.927446 128.808316 
L 175.960073 124.920672 
L 180.496057 119.473015 
L 182.976264 114.031386 
L 188.65589 108.839153 
L 193.841636 97.437676 
L 199.726531 88.363159 
L 202.430527 82.144537 
L 208.533039 71.25793 
L 210.346507 68.923602 
L 219.416932 57.769512 
L 223.965263 54.392049 
L 225.994804 49.986857 
L 228.039778 48.169408 
L 230.310085 45.833741 
L 234.183961 44.269708 
L 238.962255 41.15035 
L 240.3266 40.111234 
L 242.610798 40.104535 
L 243.979773 39.841742 
L 245.353378 40.355272 
L 245.371899 43.460564 
L 240.670773 59.518639 
L 240.704728 65.211675 
L 239.829633 71.683713 
L 236.230478 81.010306 
L 234.210198 86.968144 
L 229.033713 99.922267 
L 225.650631 107.177996 
L 222.722845 114.173611 
L 219.565096 120.911121 
L 216.171211 126.35543 
L 214.138584 130.243073 
L 210.499301 132.841534 
L 205.4895 135.444014 
L 200.928822 136.751282 
L 200.701946 137.010726 
L 197.059576 139.091638 
L 193.645627 141.17188 
L 190.003258 143.252792 
L 187.285371 147.142445 
L 185.251201 150.771314 
L 183.666153 153.104972 
L 179.116278 156.22366 
L 174.365765 164.000957 
L 172.567731 168.923028 
L 170.535104 172.810671 
L 167.817217 176.700324 
L 165.78922 181.364291 
L 162.856804 187.583583 
L 159.001449 192.252908 
L 146.280938 204.194037 
L 144.68663 204.975049 
L 142.862358 205.497956 
L 139.899075 206.541761 
L 136.712002 208.362559 
L 136.483582 208.363229 
L 135.554469 205.778165 
L 135.537492 202.931647 
L 136.190341 197.495377 
L 137.763042 193.091524 
L 138.428237 189.725448 
L 139.294071 181.700764 
L 140.635266 176.780033 
L 141.521164 172.119415 
L 143.084605 166.162917 
L 145.334848 160.463183 
L 145.782427 158.909197 
L 151.656519 148.02326 
L 153.679886 142.58297 
L 155.251044 137.920343 
L 156.833005 135.069137 
L 158.856372 129.628847 
L 164.284428 120.55567 
L 166.550105 117.443679 
L 167.911363 115.887014 
L 171.779065 113.287884 
L 180.210532 109.899034 
L 182.709259 107.562697 
L 185.894789 105.483125 
L 192.251958 98.995011 
L 199.082943 95.352076 
L 203.163631 90.164532 
L 205.424678 86.276219 
L 216.104846 76.928861 
L 217.676003 72.266234 
L 220.622309 68.375911 
L 224.026998 64.743023 
L 228.107687 59.55548 
L 230.152661 57.738031 
L 234.241066 53.844359 
L 238.335644 50.985784 
L 240.607495 48.908891 
L 244.019901 46.569875 
L 251.077763 42.667495 
L 255.626094 39.290032 
L 261.554204 37.461197 
L 264.972784 36.157278 
L 265.219724 39.2619 
L 265.017542 43.661734 
L 265.036062 46.767026 
L 262.376824 60.490104 
L 259.679001 67.743823 
L 256.078303 76.811642 
L 251.580904 88.728658 
L 247.737895 95.468178 
L 243.447308 103.761684 
L 242.103027 108.164866 
L 239.175241 115.160481 
L 236.466615 120.60278 
L 233.069643 125.52954 
L 229.664954 129.162428 
L 218.75328 137.992907 
L 214.880948 139.815715 
L 211.232405 140.861529 
L 202.797851 143.73283 
L 202.570975 143.992274 
L 199.380815 145.295524 
L 196.871284 145.82044 
L 194.59326 146.862236 
L 191.633064 148.42359 
L 190.279522 151.274126 
L 187.10171 154.64757 
L 181.874293 159.06214 
L 178.690306 161.400487 
L 174.137345 164.001626 
L 171.183322 166.598078 
L 168.230842 169.453303 
L 165.736745 172.565963 
L 163.012685 175.420519 
L 161.654514 177.494732 
L 155.298888 184.24162 
L 146.429102 190.737102 
L 144.160338 193.331543 
L 140.749476 195.929334 
L 136.207318 200.341894 
L 134.1608 201.900569 
L 119.3521 208.413466 
L 118.438421 208.416145 
L 117.980038 208.15871 
L 117.728468 204.277765 
L 118.152897 198.842164 
L 119.040338 194.440321 
L 119.469397 189.781043 
L 120.353752 184.861652 
L 120.801331 183.307666 
L 123.276907 177.089714 
L 124.395856 173.204749 
L 126.178456 165.694935 
L 127.744983 160.255985 
L 129.995226 154.556251 
L 132.697679 148.078855 
L 134.04659 144.451995 
L 139.920682 133.566058 
L 143.092322 129.157516 
L 146.268591 125.525298 
L 151.043799 121.888391 
L 154.905327 118.254163 
L 156.726512 117.213707 
L 166.284644 111.233765 
L 170.369962 106.822544 
L 177.418564 101.367519 
L 185.839227 96.167248 
L 192.43562 91.489885 
L 196.294062 87.338109 
L 201.282255 81.112789 
L 209.016116 75.655754 
L 211.277163 71.76744 
L 215.810061 65.802234 
L 224.44834 58.789874 
L 231.276239 54.62939 
L 242.20952 49.421751 
L 255.426998 44.207415 
L 262.954047 42.37389 
L 270.942565 41.315349 
L 276.646885 40.263506 
L 282.812675 39.986647 
L 282.84663 45.679682 
L 283.099744 49.819402 
L 282.459242 57.325867 
L 280.446679 64.577577 
L 276.856785 75.456817 
L 273.02921 84.78408 
L 269.198549 93.593795 
L 263.088321 103.18653 
L 260.384324 109.405152 
L 254.957812 118.737104 
L 249.964988 124.186102 
L 245.657424 129.633089 
L 237.244477 136.127231 
L 228.586133 139.775525 
L 218.782604 142.90962 
L 212.175408 145.775562 
L 201.916583 149.169771 
L 193.715079 152.816725 
L 181.869662 158.285817 
L 175.503233 163.221284 
L 161.870586 175.423868 
L 160.297886 179.82772 
L 156.669407 184.237601 
L 140.959375 192.823372 
L 138.669004 191.794973 
L 133.432326 194.656897 
L 128.877822 196.999262 
L 123.178131 198.827428 
L 114.050601 200.406867 
L 108.122491 202.235703 
L 101.059999 205.361759 
L 98.095172 206.14679 
L 96.0147 202.012429 
L 94.837104 196.063968 
L 97.28953 185.964401 
L 99.541316 180.523442 
L 103.59268 170.419185 
L 106.30285 165.235661 
L 113.974976 149.427652 
L 118.279454 143.463116 
L 121.664079 136.466161 
L 126.413049 128.43009 
L 130.501454 124.536418 
L 132.995551 121.423758 
L 142.769756 113.372951 
L 154.63215 110.750377 
L 158.044556 108.411361 
L 171.47502 100.608611 
L 177.856883 98.260887 
L 182.868227 95.917182 
L 192.66867 92.265539 
L 198.809766 87.84829 
L 204.512543 86.537672 
L 206.333727 85.497217 
L 207.468109 84.199996 
L 211.798824 82.634623 
L 224.113427 79.234386 
L 233.907696 74.547646 
L 238.684447 71.169513 
L 250.755197 65.182203 
L 258.507578 62.83046 
L 264.889441 60.482736 
L 271.505897 59.169439 
L 272.644909 58.648541 
L 278.114637 56.562271 
L 280.167328 56.038694 
L 281.775526 57.586651 
L 280.210542 63.284375 
L 278.406335 67.171349 
L 269.593654 83.241481 
L 266.213658 91.014759 
L 262.622221 101.635224 
L 261.29183 108.367376 
L 255.176971 117.183789 
L 250.40485 121.338244 
L 243.820805 128.085802 
L 237.2275 133.280714 
L 233.591304 136.396723 
L 230.175811 138.218191 
L 221.742801 141.348266 
L 212.849864 143.962132 
L 209.199778 144.749173 
L 200.328448 150.98588 
L 175.720849 161.409194 
L 167.520889 165.314923 
L 164.105396 167.136391 
L 156.130768 170.523901 
L 152.718362 172.862917 
L 144.978328 177.284855 
L 138.155059 182.221662 
L 131.780913 185.863258 
L 123.13183 191.064198 
L 118.347362 193.148459 
L 111.277153 194.980644 
L 107.173314 196.286572 
L 104.200771 195.777731 
L 101.675806 193.714905 
L 98.905445 188.80623 
L 99.79443 184.663161 
L 101.140255 180.518753 
L 105.617591 165.23767 
L 107.645588 160.573704 
L 108.985239 155.394198 
L 114.633998 145.026479 
L 119.145288 135.438432 
L 125.948493 127.137558 
L 134.588316 120.383972 
L 140.041066 115.451184 
L 150.269023 106.881489 
L 159.834873 102.195418 
L 172.836278 99.051946 
L 180.817079 96.699533 
L 203.591147 85.24648 
L 215.215861 81.07193 
L 222.957438 76.908766 
L 227.05819 75.085289 
L 240.056509 71.424269 
L 248.946359 68.292853 
L 257.158667 66.457319 
L 266.971456 64.875871 
L 272.67732 64.082802 
L 287.282295 61.710965 
L 293.216578 60.917226 
L 301.896529 60.891773 
L 302.378062 65.030823 
L 300.831599 73.833839 
L 296.775605 83.161773 
L 294.074696 89.897943 
L 287.516888 101.044665 
L 277.770464 113.75341 
L 272.996799 117.649091 
L 263.665543 123.369589 
L 254.547274 126.501674 
L 248.62225 128.848059 
L 239.044054 131.463935 
L 220.785907 134.105264 
L 215.766846 135.155097 
L 197.534936 142.19559 
L 184.525814 144.04519 
L 174.723828 147.438059 
L 158.765312 152.660433 
L 153.321823 159.145868 
L 143.981307 163.31372 
L 133.043396 167.745035 
L 120.503459 171.66349 
L 115.723622 174.524074 
L 109.789338 175.317813 
L 99.735782 174.829736 
L 94.923533 172.256059 
L 93.76137 168.895342 
L 91.443219 163.209004 
L 87.765352 159.338106 
L 82.962363 158.317075 
L 79.068424 156.517042 
L 76.773423 154.71232 
L 76.298062 151.608367 
L 76.943194 144.878225 
L 78.285932 140.216268 
L 82.579606 132.440311 
L 88.253059 126.212981 
L 94.392612 121.536958 
L 101.90577 117.374464 
L 113.982693 112.422251 
L 118.998667 110.854869 
L 130.410395 109.268732 
L 142.735802 107.679916 
L 151.178072 106.102486 
L 161.906084 104.777133 
L 174.45065 101.635001 
L 176.958638 100.85131 
L 182.434538 99.800137 
L 186.995217 98.492868 
L 186.995217 98.492868 
" clip-path="url(#p538c9af248)" style="fill: none; stroke-dasharray: 3.7,1.6; stroke-dashoffset: 0; stroke: #000000"/>
   </g>
   <g id="line2d_15">
    <path d="M 64.994062 123.209873 
L 313.682062 123.209873 
" clip-path="url(#p538c9af248)" style="fill: none; stroke: #000000; stroke-width: 0.4; stroke-linecap: square"/>
   </g>
   <g id="line2d_16">
    <path d="M 189.06691 233.25125 
L 189.06691 22.92125 
" clip-path="url(#p538c9af248)" style="fill: none; stroke: #000000; stroke-width: 0.4; stroke-linecap: square"/>
   </g>
   <g id="patch_3">
    <path d="M 64.994062 233.25125 
L 64.994062 22.92125 
" style="fill: none; stroke: #000000; stroke-width: 0.8; stroke-linejoin: miter; stroke-linecap: square"/>
   </g>
   <g id="patch_4">
    <path d="M 313.682062 233.25125 
L 313.682062 22.92125 
" style="fill: none; stroke: #000000; stroke-width: 0.8; stroke-linejoin: miter; stroke-linecap: square"/>
   </g>
   <g id="patch_5">
    <path d="M 64.994062 233.25125 
L 313.682062 233.25125 
" style="fill: none; stroke: #000000; stroke-width: 0.8; stroke-linejoin: miter; stroke-linecap: square"/>
   </g>
   <g id="patch_6">
    <path d="M 64.994062 22.92125 
L 313.682062 22.92125 
" style="fill: none; stroke: #000000; stroke-width: 0.8; stroke-linejoin: miter; stroke-linecap: square"/>
   </g>
   <g id="text_9">
    <!-- Specimen (5) - Faraone_AR2-8  -->
    <g transform="translate(99.140875 16.92125) scale(0.14 -0.14)">
     <defs>
      <path id="TimesNewRomanPSMT-53" d="M 2934 4334 
L 2934 2869 
L 2819 2869 
Q 2763 3291 2617 3541 
Q 2472 3791 2203 3937 
Q 1934 4084 1647 4084 
Q 1322 4084 1109 3886 
Q 897 3688 897 3434 
Q 897 3241 1031 3081 
Q 1225 2847 1953 2456 
Q 2547 2138 2764 1967 
Q 2981 1797 3098 1565 
Q 3216 1334 3216 1081 
Q 3216 600 2842 251 
Q 2469 -97 1881 -97 
Q 1697 -97 1534 -69 
Q 1438 -53 1133 45 
Q 828 144 747 144 
Q 669 144 623 97 
Q 578 50 556 -97 
L 441 -97 
L 441 1356 
L 556 1356 
Q 638 900 775 673 
Q 913 447 1195 297 
Q 1478 147 1816 147 
Q 2206 147 2432 353 
Q 2659 559 2659 841 
Q 2659 997 2573 1156 
Q 2488 1316 2306 1453 
Q 2184 1547 1640 1851 
Q 1097 2156 867 2337 
Q 638 2519 519 2737 
Q 400 2956 400 3219 
Q 400 3675 750 4004 
Q 1100 4334 1641 4334 
Q 1978 4334 2356 4169 
Q 2531 4091 2603 4091 
Q 2684 4091 2736 4139 
Q 2788 4188 2819 4334 
L 2934 4334 
z
" transform="scale(0.015625)"/>
      <path id="TimesNewRomanPSMT-70" d="M -6 2578 
L 875 2934 
L 994 2934 
L 994 2266 
Q 1216 2644 1439 2795 
Q 1663 2947 1909 2947 
Q 2341 2947 2628 2609 
Q 2981 2197 2981 1534 
Q 2981 794 2556 309 
Q 2206 -88 1675 -88 
Q 1444 -88 1275 -22 
Q 1150 25 994 166 
L 994 -706 
Q 994 -1000 1030 -1079 
Q 1066 -1159 1155 -1206 
Q 1244 -1253 1478 -1253 
L 1478 -1369 
L -22 -1369 
L -22 -1253 
L 56 -1253 
Q 228 -1256 350 -1188 
Q 409 -1153 442 -1076 
Q 475 -1000 475 -688 
L 475 2019 
Q 475 2297 450 2372 
Q 425 2447 370 2484 
Q 316 2522 222 2522 
Q 147 2522 31 2478 
L -6 2578 
z
M 994 2081 
L 994 1013 
Q 994 666 1022 556 
Q 1066 375 1236 237 
Q 1406 100 1666 100 
Q 1978 100 2172 344 
Q 2425 663 2425 1241 
Q 2425 1897 2138 2250 
Q 1938 2494 1663 2494 
Q 1513 2494 1366 2419 
Q 1253 2363 994 2081 
z
" transform="scale(0.015625)"/>
      <path id="TimesNewRomanPSMT-65" d="M 681 1784 
Q 678 1147 991 784 
Q 1303 422 1725 422 
Q 2006 422 2214 576 
Q 2422 731 2563 1106 
L 2659 1044 
Q 2594 616 2278 264 
Q 1963 -88 1488 -88 
Q 972 -88 605 314 
Q 238 716 238 1394 
Q 238 2128 614 2539 
Q 991 2950 1559 2950 
Q 2041 2950 2350 2633 
Q 2659 2316 2659 1784 
L 681 1784 
z
M 681 1966 
L 2006 1966 
Q 1991 2241 1941 2353 
Q 1863 2528 1708 2628 
Q 1553 2728 1384 2728 
Q 1125 2728 920 2526 
Q 716 2325 681 1966 
z
" transform="scale(0.015625)"/>
      <path id="TimesNewRomanPSMT-63" d="M 2631 1088 
Q 2516 522 2178 217 
Q 1841 -88 1431 -88 
Q 944 -88 581 321 
Q 219 731 219 1428 
Q 219 2103 620 2525 
Q 1022 2947 1584 2947 
Q 2006 2947 2278 2723 
Q 2550 2500 2550 2259 
Q 2550 2141 2473 2067 
Q 2397 1994 2259 1994 
Q 2075 1994 1981 2113 
Q 1928 2178 1911 2362 
Q 1894 2547 1784 2644 
Q 1675 2738 1481 2738 
Q 1169 2738 978 2506 
Q 725 2200 725 1697 
Q 725 1184 976 792 
Q 1228 400 1656 400 
Q 1963 400 2206 609 
Q 2378 753 2541 1131 
L 2631 1088 
z
" transform="scale(0.015625)"/>
      <path id="TimesNewRomanPSMT-69" d="M 928 4444 
Q 1059 4444 1151 4351 
Q 1244 4259 1244 4128 
Q 1244 3997 1151 3903 
Q 1059 3809 928 3809 
Q 797 3809 703 3903 
Q 609 3997 609 4128 
Q 609 4259 701 4351 
Q 794 4444 928 4444 
z
M 1188 2947 
L 1188 647 
Q 1188 378 1227 289 
Q 1266 200 1342 156 
Q 1419 113 1622 113 
L 1622 0 
L 231 0 
L 231 113 
Q 441 113 512 153 
Q 584 194 626 287 
Q 669 381 669 647 
L 669 1750 
Q 669 2216 641 2353 
Q 619 2453 572 2492 
Q 525 2531 444 2531 
Q 356 2531 231 2484 
L 188 2597 
L 1050 2947 
L 1188 2947 
z
" transform="scale(0.015625)"/>
      <path id="TimesNewRomanPSMT-6d" d="M 1050 2338 
Q 1363 2650 1419 2697 
Q 1559 2816 1721 2881 
Q 1884 2947 2044 2947 
Q 2313 2947 2506 2790 
Q 2700 2634 2766 2338 
Q 3088 2713 3309 2830 
Q 3531 2947 3766 2947 
Q 3994 2947 4170 2830 
Q 4347 2713 4450 2447 
Q 4519 2266 4519 1878 
L 4519 647 
Q 4519 378 4559 278 
Q 4591 209 4675 161 
Q 4759 113 4950 113 
L 4950 0 
L 3538 0 
L 3538 113 
L 3597 113 
Q 3781 113 3884 184 
Q 3956 234 3988 344 
Q 4000 397 4000 647 
L 4000 1878 
Q 4000 2228 3916 2372 
Q 3794 2572 3525 2572 
Q 3359 2572 3192 2489 
Q 3025 2406 2788 2181 
L 2781 2147 
L 2788 2013 
L 2788 647 
Q 2788 353 2820 281 
Q 2853 209 2943 161 
Q 3034 113 3253 113 
L 3253 0 
L 1806 0 
L 1806 113 
Q 2044 113 2133 169 
Q 2222 225 2256 338 
Q 2272 391 2272 647 
L 2272 1878 
Q 2272 2228 2169 2381 
Q 2031 2581 1784 2581 
Q 1616 2581 1450 2491 
Q 1191 2353 1050 2181 
L 1050 647 
Q 1050 366 1089 281 
Q 1128 197 1204 155 
Q 1281 113 1516 113 
L 1516 0 
L 100 0 
L 100 113 
Q 297 113 375 155 
Q 453 197 493 289 
Q 534 381 534 647 
L 534 1741 
Q 534 2213 506 2350 
Q 484 2453 437 2492 
Q 391 2531 309 2531 
Q 222 2531 100 2484 
L 53 2597 
L 916 2947 
L 1050 2947 
L 1050 2338 
z
" transform="scale(0.015625)"/>
      <path id="TimesNewRomanPSMT-6e" d="M 1034 2341 
Q 1538 2947 1994 2947 
Q 2228 2947 2397 2830 
Q 2566 2713 2666 2444 
Q 2734 2256 2734 1869 
L 2734 647 
Q 2734 375 2778 278 
Q 2813 200 2889 156 
Q 2966 113 3172 113 
L 3172 0 
L 1756 0 
L 1756 113 
L 1816 113 
Q 2016 113 2095 173 
Q 2175 234 2206 353 
Q 2219 400 2219 647 
L 2219 1819 
Q 2219 2209 2117 2386 
Q 2016 2563 1775 2563 
Q 1403 2563 1034 2156 
L 1034 647 
Q 1034 356 1069 288 
Q 1113 197 1189 155 
Q 1266 113 1500 113 
L 1500 0 
L 84 0 
L 84 113 
L 147 113 
Q 366 113 442 223 
Q 519 334 519 647 
L 519 1709 
Q 519 2225 495 2337 
Q 472 2450 423 2490 
Q 375 2531 294 2531 
Q 206 2531 84 2484 
L 38 2597 
L 900 2947 
L 1034 2947 
L 1034 2341 
z
" transform="scale(0.015625)"/>
      <path id="TimesNewRomanPSMT-20" transform="scale(0.015625)"/>
      <path id="TimesNewRomanPSMT-28" d="M 1988 -1253 
L 1988 -1369 
Q 1516 -1131 1200 -813 
Q 750 -359 506 256 
Q 263 872 263 1534 
Q 263 2503 741 3301 
Q 1219 4100 1988 4444 
L 1988 4313 
Q 1603 4100 1356 3731 
Q 1109 3363 987 2797 
Q 866 2231 866 1616 
Q 866 947 969 400 
Q 1050 -31 1165 -292 
Q 1281 -553 1476 -793 
Q 1672 -1034 1988 -1253 
z
" transform="scale(0.015625)"/>
      <path id="TimesNewRomanPSMT-35" d="M 2778 4238 
L 2534 3706 
L 1259 3706 
L 981 3138 
Q 1809 3016 2294 2522 
Q 2709 2097 2709 1522 
Q 2709 1188 2573 903 
Q 2438 619 2231 419 
Q 2025 219 1772 97 
Q 1413 -75 1034 -75 
Q 653 -75 479 54 
Q 306 184 306 341 
Q 306 428 378 495 
Q 450 563 559 563 
Q 641 563 702 538 
Q 763 513 909 409 
Q 1144 247 1384 247 
Q 1750 247 2026 523 
Q 2303 800 2303 1197 
Q 2303 1581 2056 1914 
Q 1809 2247 1375 2428 
Q 1034 2569 447 2591 
L 1259 4238 
L 2778 4238 
z
" transform="scale(0.015625)"/>
      <path id="TimesNewRomanPSMT-29" d="M 144 4313 
L 144 4444 
Q 619 4209 934 3891 
Q 1381 3434 1625 2820 
Q 1869 2206 1869 1541 
Q 1869 572 1392 -226 
Q 916 -1025 144 -1369 
L 144 -1253 
Q 528 -1038 776 -670 
Q 1025 -303 1145 264 
Q 1266 831 1266 1447 
Q 1266 2113 1163 2663 
Q 1084 3094 967 3353 
Q 850 3613 656 3853 
Q 463 4094 144 4313 
z
" transform="scale(0.015625)"/>
      <path id="TimesNewRomanPSMT-2d" d="M 259 1672 
L 1875 1672 
L 1875 1200 
L 259 1200 
L 259 1672 
z
" transform="scale(0.015625)"/>
      <path id="TimesNewRomanPSMT-46" d="M 1309 4006 
L 1309 2341 
L 2081 2341 
Q 2347 2341 2470 2458 
Q 2594 2575 2634 2922 
L 2750 2922 
L 2750 1488 
L 2634 1488 
Q 2631 1734 2570 1850 
Q 2509 1966 2401 2023 
Q 2294 2081 2081 2081 
L 1309 2081 
L 1309 750 
Q 1309 428 1350 325 
Q 1381 247 1481 191 
Q 1619 116 1769 116 
L 1922 116 
L 1922 0 
L 103 0 
L 103 116 
L 253 116 
Q 516 116 634 269 
Q 709 369 709 750 
L 709 3488 
Q 709 3809 669 3913 
Q 638 3991 541 4047 
Q 406 4122 253 4122 
L 103 4122 
L 103 4238 
L 3256 4238 
L 3297 3306 
L 3188 3306 
Q 3106 3603 2998 3742 
Q 2891 3881 2733 3943 
Q 2575 4006 2244 4006 
L 1309 4006 
z
" transform="scale(0.015625)"/>
      <path id="TimesNewRomanPSMT-61" d="M 1822 413 
Q 1381 72 1269 19 
Q 1100 -59 909 -59 
Q 613 -59 420 144 
Q 228 347 228 678 
Q 228 888 322 1041 
Q 450 1253 767 1440 
Q 1084 1628 1822 1897 
L 1822 2009 
Q 1822 2438 1686 2597 
Q 1550 2756 1291 2756 
Q 1094 2756 978 2650 
Q 859 2544 859 2406 
L 866 2225 
Q 866 2081 792 2003 
Q 719 1925 600 1925 
Q 484 1925 411 2006 
Q 338 2088 338 2228 
Q 338 2497 613 2722 
Q 888 2947 1384 2947 
Q 1766 2947 2009 2819 
Q 2194 2722 2281 2516 
Q 2338 2381 2338 1966 
L 2338 994 
Q 2338 584 2353 492 
Q 2369 400 2405 369 
Q 2441 338 2488 338 
Q 2538 338 2575 359 
Q 2641 400 2828 588 
L 2828 413 
Q 2478 -56 2159 -56 
Q 2006 -56 1915 50 
Q 1825 156 1822 413 
z
M 1822 616 
L 1822 1706 
Q 1350 1519 1213 1441 
Q 966 1303 859 1153 
Q 753 1003 753 825 
Q 753 600 887 451 
Q 1022 303 1197 303 
Q 1434 303 1822 616 
z
" transform="scale(0.015625)"/>
      <path id="TimesNewRomanPSMT-72" d="M 1038 2947 
L 1038 2303 
Q 1397 2947 1775 2947 
Q 1947 2947 2059 2842 
Q 2172 2738 2172 2600 
Q 2172 2478 2090 2393 
Q 2009 2309 1897 2309 
Q 1788 2309 1652 2417 
Q 1516 2525 1450 2525 
Q 1394 2525 1328 2463 
Q 1188 2334 1038 2041 
L 1038 669 
Q 1038 431 1097 309 
Q 1138 225 1241 169 
Q 1344 113 1538 113 
L 1538 0 
L 72 0 
L 72 113 
Q 291 113 397 181 
Q 475 231 506 341 
Q 522 394 522 644 
L 522 1753 
Q 522 2253 501 2348 
Q 481 2444 426 2487 
Q 372 2531 291 2531 
Q 194 2531 72 2484 
L 41 2597 
L 906 2947 
L 1038 2947 
z
" transform="scale(0.015625)"/>
      <path id="TimesNewRomanPSMT-6f" d="M 1600 2947 
Q 2250 2947 2644 2453 
Q 2978 2031 2978 1484 
Q 2978 1100 2793 706 
Q 2609 313 2286 112 
Q 1963 -88 1566 -88 
Q 919 -88 538 428 
Q 216 863 216 1403 
Q 216 1797 411 2186 
Q 606 2575 925 2761 
Q 1244 2947 1600 2947 
z
M 1503 2744 
Q 1338 2744 1170 2645 
Q 1003 2547 900 2300 
Q 797 2053 797 1666 
Q 797 1041 1045 587 
Q 1294 134 1700 134 
Q 2003 134 2200 384 
Q 2397 634 2397 1244 
Q 2397 2006 2069 2444 
Q 1847 2744 1503 2744 
z
" transform="scale(0.015625)"/>
      <path id="TimesNewRomanPSMT-5f" d="M 3256 -1381 
L -53 -1381 
L -53 -1119 
L 3256 -1119 
L 3256 -1381 
z
" transform="scale(0.015625)"/>
      <path id="TimesNewRomanPSMT-41" d="M 2928 1419 
L 1288 1419 
L 1000 750 
Q 894 503 894 381 
Q 894 284 986 211 
Q 1078 138 1384 116 
L 1384 0 
L 50 0 
L 50 116 
Q 316 163 394 238 
Q 553 388 747 847 
L 2238 4334 
L 2347 4334 
L 3822 809 
Q 4000 384 4145 257 
Q 4291 131 4550 116 
L 4550 0 
L 2878 0 
L 2878 116 
Q 3131 128 3220 200 
Q 3309 272 3309 375 
Q 3309 513 3184 809 
L 2928 1419 
z
M 2841 1650 
L 2122 3363 
L 1384 1650 
L 2841 1650 
z
" transform="scale(0.015625)"/>
      <path id="TimesNewRomanPSMT-52" d="M 4325 0 
L 3194 0 
L 1759 1981 
Q 1600 1975 1500 1975 
Q 1459 1975 1412 1976 
Q 1366 1978 1316 1981 
L 1316 750 
Q 1316 350 1403 253 
Q 1522 116 1759 116 
L 1925 116 
L 1925 0 
L 109 0 
L 109 116 
L 269 116 
Q 538 116 653 291 
Q 719 388 719 750 
L 719 3488 
Q 719 3888 631 3984 
Q 509 4122 269 4122 
L 109 4122 
L 109 4238 
L 1653 4238 
Q 2328 4238 2648 4139 
Q 2969 4041 3192 3777 
Q 3416 3513 3416 3147 
Q 3416 2756 3161 2468 
Q 2906 2181 2372 2063 
L 3247 847 
Q 3547 428 3762 290 
Q 3978 153 4325 116 
L 4325 0 
z
M 1316 2178 
Q 1375 2178 1419 2176 
Q 1463 2175 1491 2175 
Q 2097 2175 2405 2437 
Q 2713 2700 2713 3106 
Q 2713 3503 2464 3751 
Q 2216 4000 1806 4000 
Q 1625 4000 1316 3941 
L 1316 2178 
z
" transform="scale(0.015625)"/>
      <path id="TimesNewRomanPSMT-32" d="M 2934 816 
L 2638 0 
L 138 0 
L 138 116 
Q 1241 1122 1691 1759 
Q 2141 2397 2141 2925 
Q 2141 3328 1894 3587 
Q 1647 3847 1303 3847 
Q 991 3847 742 3664 
Q 494 3481 375 3128 
L 259 3128 
Q 338 3706 661 4015 
Q 984 4325 1469 4325 
Q 1984 4325 2329 3994 
Q 2675 3663 2675 3213 
Q 2675 2891 2525 2569 
Q 2294 2063 1775 1497 
Q 997 647 803 472 
L 1909 472 
Q 2247 472 2383 497 
Q 2519 522 2628 598 
Q 2738 675 2819 816 
L 2934 816 
z
" transform="scale(0.015625)"/>
      <path id="TimesNewRomanPSMT-38" d="M 1228 2134 
Q 725 2547 579 2797 
Q 434 3047 434 3316 
Q 434 3728 753 4026 
Q 1072 4325 1600 4325 
Q 2113 4325 2425 4047 
Q 2738 3769 2738 3413 
Q 2738 3175 2569 2928 
Q 2400 2681 1866 2347 
Q 2416 1922 2594 1678 
Q 2831 1359 2831 1006 
Q 2831 559 2490 242 
Q 2150 -75 1597 -75 
Q 994 -75 656 303 
Q 388 606 388 966 
Q 388 1247 577 1523 
Q 766 1800 1228 2134 
z
M 1719 2469 
Q 2094 2806 2194 3001 
Q 2294 3197 2294 3444 
Q 2294 3772 2109 3958 
Q 1925 4144 1606 4144 
Q 1288 4144 1088 3959 
Q 888 3775 888 3528 
Q 888 3366 970 3203 
Q 1053 3041 1206 2894 
L 1719 2469 
z
M 1375 2016 
Q 1116 1797 991 1539 
Q 866 1281 866 981 
Q 866 578 1086 336 
Q 1306 94 1647 94 
Q 1984 94 2187 284 
Q 2391 475 2391 747 
Q 2391 972 2272 1150 
Q 2050 1481 1375 2016 
z
" transform="scale(0.015625)"/>
     </defs>
     <use xlink:href="#TimesNewRomanPSMT-53"/>
     <use xlink:href="#TimesNewRomanPSMT-70" x="55.615234"/>
     <use xlink:href="#TimesNewRomanPSMT-65" x="105.615234"/>
     <use xlink:href="#TimesNewRomanPSMT-63" x="150"/>
     <use xlink:href="#TimesNewRomanPSMT-69" x="194.384766"/>
     <use xlink:href="#TimesNewRomanPSMT-6d" x="222.167969"/>
     <use xlink:href="#TimesNewRomanPSMT-65" x="299.951172"/>
     <use xlink:href="#TimesNewRomanPSMT-6e" x="344.335938"/>
     <use xlink:href="#TimesNewRomanPSMT-20" x="394.335938"/>
     <use xlink:href="#TimesNewRomanPSMT-28" x="419.335938"/>
     <use xlink:href="#TimesNewRomanPSMT-35" x="452.636719"/>
     <use xlink:href="#TimesNewRomanPSMT-29" x="502.636719"/>
     <use xlink:href="#TimesNewRomanPSMT-20" x="535.9375"/>
     <use xlink:href="#TimesNewRomanPSMT-2d" x="560.9375"/>
     <use xlink:href="#TimesNewRomanPSMT-20" x="594.238281"/>
     <use xlink:href="#TimesNewRomanPSMT-46" x="619.238281"/>
     <use xlink:href="#TimesNewRomanPSMT-61" x="674.853516"/>
     <use xlink:href="#TimesNewRomanPSMT-72" x="719.238281"/>
     <use xlink:href="#TimesNewRomanPSMT-61" x="752.539062"/>
     <use xlink:href="#TimesNewRomanPSMT-6f" x="796.923828"/>
     <use xlink:href="#TimesNewRomanPSMT-6e" x="846.923828"/>
     <use xlink:href="#TimesNewRomanPSMT-65" x="896.923828"/>
     <use xlink:href="#TimesNewRomanPSMT-5f" x="941.308594"/>
     <use xlink:href="#TimesNewRomanPSMT-41" x="991.308594"/>
     <use xlink:href="#TimesNewRomanPSMT-52" x="1063.525391"/>
     <use xlink:href="#TimesNewRomanPSMT-32" x="1130.224609"/>
     <use xlink:href="#TimesNewRomanPSMT-2d" x="1180.224609"/>
     <use xlink:href="#TimesNewRomanPSMT-38" x="1213.525391"/>
     <use xlink:href="#TimesNewRomanPSMT-20" x="1263.525391"/>
    </g>
   </g>
   <g id="legend_1">
    <g id="patch_7">
     <path d="M 71.294062 55.571563 
L 158.331094 55.571563 
Q 160.131094 55.571563 160.131094 53.771563 
L 160.131094 29.22125 
Q 160.131094 27.42125 158.331094 27.42125 
L 71.294062 27.42125 
Q 69.494062 27.42125 69.494062 29.22125 
L 69.494062 53.771563 
Q 69.494062 55.571563 71.294062 55.571563 
z
" style="fill: #ffffff; opacity: 0.8; stroke: #cccccc; stroke-linejoin: miter"/>
    </g>
    <g id="line2d_17">
     <path d="M 73.094062 34.17125 
L 82.094062 34.17125 
L 91.094062 34.17125 
" style="fill: none; stroke: #0000ff; stroke-width: 1.2; stroke-linecap: square"/>
    </g>
    <g id="text_10">
     <!-- DNN prediction -->
     <g transform="translate(98.294062 37.32125) scale(0.09 -0.09)">
      <defs>
       <path id="TimesNewRomanPSMT-44" d="M 109 0 
L 109 116 
L 269 116 
Q 538 116 650 288 
Q 719 391 719 750 
L 719 3488 
Q 719 3884 631 3984 
Q 509 4122 269 4122 
L 109 4122 
L 109 4238 
L 1834 4238 
Q 2784 4238 3279 4022 
Q 3775 3806 4076 3303 
Q 4378 2800 4378 2141 
Q 4378 1256 3841 663 
Q 3238 0 2003 0 
L 109 0 
z
M 1319 306 
Q 1716 219 1984 219 
Q 2709 219 3187 728 
Q 3666 1238 3666 2109 
Q 3666 2988 3187 3494 
Q 2709 4000 1959 4000 
Q 1678 4000 1319 3909 
L 1319 306 
z
" transform="scale(0.015625)"/>
       <path id="TimesNewRomanPSMT-4e" d="M -84 4238 
L 1066 4238 
L 3656 1059 
L 3656 3503 
Q 3656 3894 3569 3991 
Q 3453 4122 3203 4122 
L 3056 4122 
L 3056 4238 
L 4531 4238 
L 4531 4122 
L 4381 4122 
Q 4113 4122 4000 3959 
Q 3931 3859 3931 3503 
L 3931 -69 
L 3819 -69 
L 1025 3344 
L 1025 734 
Q 1025 344 1109 247 
Q 1228 116 1475 116 
L 1625 116 
L 1625 0 
L 150 0 
L 150 116 
L 297 116 
Q 569 116 681 278 
Q 750 378 750 734 
L 750 3681 
Q 566 3897 470 3965 
Q 375 4034 191 4094 
Q 100 4122 -84 4122 
L -84 4238 
z
" transform="scale(0.015625)"/>
       <path id="TimesNewRomanPSMT-64" d="M 2222 322 
Q 2013 103 1813 7 
Q 1613 -88 1381 -88 
Q 913 -88 563 304 
Q 213 697 213 1313 
Q 213 1928 600 2439 
Q 988 2950 1597 2950 
Q 1975 2950 2222 2709 
L 2222 3238 
Q 2222 3728 2198 3840 
Q 2175 3953 2125 3993 
Q 2075 4034 2000 4034 
Q 1919 4034 1784 3984 
L 1744 4094 
L 2597 4444 
L 2738 4444 
L 2738 1134 
Q 2738 631 2761 520 
Q 2784 409 2836 365 
Q 2888 322 2956 322 
Q 3041 322 3181 375 
L 3216 266 
L 2366 -88 
L 2222 -88 
L 2222 322 
z
M 2222 541 
L 2222 2016 
Q 2203 2228 2109 2403 
Q 2016 2578 1861 2667 
Q 1706 2756 1559 2756 
Q 1284 2756 1069 2509 
Q 784 2184 784 1559 
Q 784 928 1059 592 
Q 1334 256 1672 256 
Q 1956 256 2222 541 
z
" transform="scale(0.015625)"/>
       <path id="TimesNewRomanPSMT-74" d="M 1031 3803 
L 1031 2863 
L 1700 2863 
L 1700 2644 
L 1031 2644 
L 1031 788 
Q 1031 509 1111 412 
Q 1191 316 1316 316 
Q 1419 316 1516 380 
Q 1613 444 1666 569 
L 1788 569 
Q 1678 263 1478 108 
Q 1278 -47 1066 -47 
Q 922 -47 784 33 
Q 647 113 581 261 
Q 516 409 516 719 
L 516 2644 
L 63 2644 
L 63 2747 
Q 234 2816 414 2980 
Q 594 3144 734 3369 
Q 806 3488 934 3803 
L 1031 3803 
z
" transform="scale(0.015625)"/>
      </defs>
      <use xlink:href="#TimesNewRomanPSMT-44"/>
      <use xlink:href="#TimesNewRomanPSMT-4e" x="72.216797"/>
      <use xlink:href="#TimesNewRomanPSMT-4e" x="144.433594"/>
      <use xlink:href="#TimesNewRomanPSMT-20" x="216.650391"/>
      <use xlink:href="#TimesNewRomanPSMT-70" x="241.650391"/>
      <use xlink:href="#TimesNewRomanPSMT-72" x="291.650391"/>
      <use xlink:href="#TimesNewRomanPSMT-65" x="324.951172"/>
      <use xlink:href="#TimesNewRomanPSMT-64" x="369.335938"/>
      <use xlink:href="#TimesNewRomanPSMT-69" x="419.335938"/>
      <use xlink:href="#TimesNewRomanPSMT-63" x="447.119141"/>
      <use xlink:href="#TimesNewRomanPSMT-74" x="491.503906"/>
      <use xlink:href="#TimesNewRomanPSMT-69" x="519.287109"/>
      <use xlink:href="#TimesNewRomanPSMT-6f" x="547.070312"/>
      <use xlink:href="#TimesNewRomanPSMT-6e" x="597.070312"/>
     </g>
    </g>
    <g id="line2d_18">
     <path d="M 73.094062 46.896406 
L 82.094062 46.896406 
L 91.094062 46.896406 
" style="fill: none; stroke-dasharray: 3.7,1.6; stroke-dashoffset: 0; stroke: #000000"/>
    </g>
    <g id="text_11">
     <!-- Reference (5) -->
     <g transform="translate(98.294062 50.046406) scale(0.09 -0.09)">
      <defs>
       <path id="TimesNewRomanPSMT-66" d="M 1319 2638 
L 1319 756 
Q 1319 356 1406 250 
Q 1522 113 1716 113 
L 1975 113 
L 1975 0 
L 266 0 
L 266 113 
L 394 113 
Q 519 113 622 175 
Q 725 238 764 344 
Q 803 450 803 756 
L 803 2638 
L 247 2638 
L 247 2863 
L 803 2863 
L 803 3050 
Q 803 3478 940 3775 
Q 1078 4072 1361 4255 
Q 1644 4438 1997 4438 
Q 2325 4438 2600 4225 
Q 2781 4084 2781 3909 
Q 2781 3816 2700 3733 
Q 2619 3650 2525 3650 
Q 2453 3650 2373 3701 
Q 2294 3753 2178 3923 
Q 2063 4094 1966 4153 
Q 1869 4213 1750 4213 
Q 1606 4213 1506 4136 
Q 1406 4059 1362 3898 
Q 1319 3738 1319 3069 
L 1319 2863 
L 2056 2863 
L 2056 2638 
L 1319 2638 
z
" transform="scale(0.015625)"/>
      </defs>
      <use xlink:href="#TimesNewRomanPSMT-52"/>
      <use xlink:href="#TimesNewRomanPSMT-65" x="66.699219"/>
      <use xlink:href="#TimesNewRomanPSMT-66" x="111.083984"/>
      <use xlink:href="#TimesNewRomanPSMT-65" x="144.384766"/>
      <use xlink:href="#TimesNewRomanPSMT-72" x="188.769531"/>
      <use xlink:href="#TimesNewRomanPSMT-65" x="222.070312"/>
      <use xlink:href="#TimesNewRomanPSMT-6e" x="266.455078"/>
      <use xlink:href="#TimesNewRomanPSMT-63" x="316.455078"/>
      <use xlink:href="#TimesNewRomanPSMT-65" x="360.839844"/>
      <use xlink:href="#TimesNewRomanPSMT-20" x="405.224609"/>
      <use xlink:href="#TimesNewRomanPSMT-28" x="430.224609"/>
      <use xlink:href="#TimesNewRomanPSMT-35" x="463.525391"/>
      <use xlink:href="#TimesNewRomanPSMT-29" x="513.525391"/>
     </g>
    </g>
   </g>
  </g>
 </g>
 <defs>
  <clipPath id="p538c9af248">
   <rect x="64.994062" y="22.92125" width="248.688" height="210.33"/>
  </clipPath>
 </defs>
</svg>
