<?xml version="1.0" encoding="utf-8" standalone="no"?>
<!DOCTYPE svg PUBLIC "-//W3C//DTD SVG 1.1//EN"
  "http://www.w3.org/Graphics/SVG/1.1/DTD/svg11.dtd">
<svg xmlns:xlink="http://www.w3.org/1999/xlink" width="313.882062pt" height="275.066563pt" viewBox="0 0 313.882062 275.066563" xmlns="http://www.w3.org/2000/svg" version="1.1">
 <metadata>
  <rdf:RDF xmlns:dc="http://purl.org/dc/elements/1.1/" xmlns:cc="http://creativecommons.org/ns#" xmlns:rdf="http://www.w3.org/1999/02/22-rdf-syntax-ns#">
   <cc:Work>
    <dc:type rdf:resource="http://purl.org/dc/dcmitype/StillImage"/>
    <dc:date>2024-02-27T17:25:15.389218</dc:date>
    <dc:format>image/svg+xml</dc:format>
    <dc:creator>
     <cc:Agent>
      <dc:title>Matplotlib v3.7.1, https://matplotlib.org/</dc:title>
     </cc:Agent>
    </dc:creator>
   </cc:Work>
  </rdf:RDF>
 </metadata>
 <defs>
  <style type="text/css">*{stroke-linejoin: round; stroke-linecap: butt}</style>
 </defs>
 <g id="figure_1">
  <g id="patch_1">
   <path d="M 0 275.066563 
L 313.882062 275.066563 
L 313.882062 0 
L 0 0 
z
" style="fill: #ffffff"/>
  </g>
  <g id="axes_1">
   <g id="patch_2">
    <path d="M 57.994063 233.25125 
L 306.682062 233.25125 
L 306.682062 22.92125 
L 57.994063 22.92125 
z
" style="fill: #ffffff"/>
   </g>
   <g id="matplotlib.axis_1">
    <g id="xtick_1">
     <g id="line2d_1">
      <path d="M 99.18442 233.25125 
L 99.18442 22.92125 
" clip-path="url(#p24772cabdc)" style="fill: none; stroke-dasharray: 0.8,1.32; stroke-dashoffset: 0; stroke: #b0b0b0; stroke-width: 0.8"/>
     </g>
     <g id="line2d_2">
      <defs>
       <path id="m1f163652b5" d="M 0 0 
L 0 3.5 
" style="stroke: #000000; stroke-width: 0.8"/>
      </defs>
      <g>
       <use xlink:href="#m1f163652b5" x="99.18442" y="233.25125" style="stroke: #000000; stroke-width: 0.8"/>
      </g>
     </g>
     <g id="text_1">
      <!-- −10 -->
      <g transform="translate(88.237077 249.9725) scale(0.14 -0.14)">
       <defs>
        <path id="TimesNewRomanPSMT-2212" d="M 3484 2000 
L 116 2000 
L 116 2256 
L 3484 2256 
L 3484 2000 
z
" transform="scale(0.015625)"/>
        <path id="TimesNewRomanPSMT-31" d="M 750 3822 
L 1781 4325 
L 1884 4325 
L 1884 747 
Q 1884 391 1914 303 
Q 1944 216 2037 169 
Q 2131 122 2419 116 
L 2419 0 
L 825 0 
L 825 116 
Q 1125 122 1212 167 
Q 1300 213 1334 289 
Q 1369 366 1369 747 
L 1369 3034 
Q 1369 3497 1338 3628 
Q 1316 3728 1258 3775 
Q 1200 3822 1119 3822 
Q 1003 3822 797 3725 
L 750 3822 
z
" transform="scale(0.015625)"/>
        <path id="TimesNewRomanPSMT-30" d="M 231 2094 
Q 231 2819 450 3342 
Q 669 3866 1031 4122 
Q 1313 4325 1613 4325 
Q 2100 4325 2488 3828 
Q 2972 3213 2972 2159 
Q 2972 1422 2759 906 
Q 2547 391 2217 158 
Q 1888 -75 1581 -75 
Q 975 -75 572 641 
Q 231 1244 231 2094 
z
M 844 2016 
Q 844 1141 1059 588 
Q 1238 122 1591 122 
Q 1759 122 1940 273 
Q 2122 425 2216 781 
Q 2359 1319 2359 2297 
Q 2359 3022 2209 3506 
Q 2097 3866 1919 4016 
Q 1791 4119 1609 4119 
Q 1397 4119 1231 3928 
Q 1006 3669 925 3112 
Q 844 2556 844 2016 
z
" transform="scale(0.015625)"/>
       </defs>
       <use xlink:href="#TimesNewRomanPSMT-2212"/>
       <use xlink:href="#TimesNewRomanPSMT-31" x="56.396484"/>
       <use xlink:href="#TimesNewRomanPSMT-30" x="106.396484"/>
      </g>
     </g>
    </g>
    <g id="xtick_2">
     <g id="line2d_3">
      <path d="M 188.365483 233.25125 
L 188.365483 22.92125 
" clip-path="url(#p24772cabdc)" style="fill: none; stroke-dasharray: 0.8,1.32; stroke-dashoffset: 0; stroke: #b0b0b0; stroke-width: 0.8"/>
     </g>
     <g id="line2d_4">
      <g>
       <use xlink:href="#m1f163652b5" x="188.365483" y="233.25125" style="stroke: #000000; stroke-width: 0.8"/>
      </g>
     </g>
     <g id="text_2">
      <!-- 0 -->
      <g transform="translate(184.865483 249.9725) scale(0.14 -0.14)">
       <use xlink:href="#TimesNewRomanPSMT-30"/>
      </g>
     </g>
    </g>
    <g id="xtick_3">
     <g id="line2d_5">
      <path d="M 277.546546 233.25125 
L 277.546546 22.92125 
" clip-path="url(#p24772cabdc)" style="fill: none; stroke-dasharray: 0.8,1.32; stroke-dashoffset: 0; stroke: #b0b0b0; stroke-width: 0.8"/>
     </g>
     <g id="line2d_6">
      <g>
       <use xlink:href="#m1f163652b5" x="277.546546" y="233.25125" style="stroke: #000000; stroke-width: 0.8"/>
      </g>
     </g>
     <g id="text_3">
      <!-- 10 -->
      <g transform="translate(270.546546 249.9725) scale(0.14 -0.14)">
       <use xlink:href="#TimesNewRomanPSMT-31"/>
       <use xlink:href="#TimesNewRomanPSMT-30" x="50"/>
      </g>
     </g>
    </g>
    <g id="text_4">
     <!-- Displacement (mm) -->
     <g transform="translate(135.183687 265.299688) scale(0.12 -0.12)">
      <defs>
       <path id="TimesNewRomanPS-ItalicMT-44" d="M 938 4122 
L 975 4238 
L 2328 4238 
Q 3188 4238 3602 4041 
Q 4016 3844 4262 3420 
Q 4509 2997 4509 2513 
Q 4509 2097 4367 1705 
Q 4225 1313 4045 1077 
Q 3866 841 3494 556 
Q 3122 272 2687 136 
Q 2253 0 1603 0 
L -191 0 
L -150 116 
Q 97 122 181 159 
Q 306 213 366 303 
Q 456 434 569 831 
L 1319 3394 
Q 1406 3697 1406 3869 
Q 1406 3991 1325 4056 
Q 1244 4122 1006 4122 
L 938 4122 
z
M 2047 4003 
L 1128 831 
Q 1025 475 1025 391 
Q 1025 341 1058 294 
Q 1091 247 1147 231 
Q 1228 203 1409 203 
Q 1900 203 2320 304 
Q 2741 406 3009 606 
Q 3391 897 3619 1406 
Q 3847 1916 3847 2566 
Q 3847 3300 3497 3658 
Q 3147 4016 2475 4016 
Q 2309 4016 2047 4003 
z
" transform="scale(0.015625)"/>
       <path id="TimesNewRomanPS-ItalicMT-69" d="M 1431 4069 
Q 1563 4069 1653 3978 
Q 1744 3888 1744 3756 
Q 1744 3628 1651 3536 
Q 1559 3444 1431 3444 
Q 1303 3444 1211 3536 
Q 1119 3628 1119 3756 
Q 1119 3888 1209 3978 
Q 1300 4069 1431 4069 
z
M 1472 2828 
L 853 638 
Q 791 416 791 372 
Q 791 322 820 290 
Q 850 259 891 259 
Q 938 259 1003 309 
Q 1181 450 1363 709 
L 1472 638 
Q 1259 313 972 91 
Q 759 -75 566 -75 
Q 438 -75 356 1 
Q 275 78 275 194 
Q 275 309 353 578 
L 759 1978 
Q 859 2322 859 2409 
Q 859 2478 811 2522 
Q 763 2566 678 2566 
Q 609 2566 394 2531 
L 394 2653 
L 1472 2828 
z
" transform="scale(0.015625)"/>
       <path id="TimesNewRomanPS-ItalicMT-73" d="M 2322 2828 
L 2131 1869 
L 2016 1869 
Q 2000 2288 1837 2478 
Q 1675 2669 1434 2669 
Q 1241 2669 1127 2562 
Q 1013 2456 1013 2306 
Q 1013 2203 1058 2109 
Q 1103 2016 1256 1847 
Q 1663 1403 1781 1178 
Q 1900 953 1900 753 
Q 1900 428 1629 176 
Q 1359 -75 947 -75 
Q 722 -75 428 31 
Q 325 69 269 69 
Q 128 69 56 -75 
L -59 -75 
L 131 938 
L 247 938 
Q 266 463 444 266 
Q 622 69 931 69 
Q 1169 69 1308 201 
Q 1447 334 1447 528 
Q 1447 653 1397 759 
Q 1309 947 1029 1278 
Q 750 1609 670 1775 
Q 591 1941 591 2106 
Q 591 2409 811 2618 
Q 1031 2828 1378 2828 
Q 1478 2828 1559 2813 
Q 1603 2803 1764 2742 
Q 1925 2681 1978 2681 
Q 2113 2681 2203 2828 
L 2322 2828 
z
" transform="scale(0.015625)"/>
       <path id="TimesNewRomanPS-ItalicMT-70" d="M 1416 2828 
L 1200 2109 
Q 1541 2509 1808 2668 
Q 2075 2828 2353 2828 
Q 2631 2828 2828 2608 
Q 3025 2388 3025 2034 
Q 3025 1347 2465 636 
Q 1906 -75 1163 -75 
Q 1006 -75 886 -40 
Q 766 -6 616 81 
L 388 -725 
Q 319 -963 319 -1034 
Q 319 -1103 355 -1151 
Q 391 -1200 472 -1226 
Q 553 -1253 794 -1253 
L 766 -1369 
L -706 -1369 
L -675 -1253 
Q -384 -1241 -282 -1153 
Q -181 -1066 -69 -669 
L 722 2069 
Q 794 2328 794 2391 
Q 794 2475 745 2522 
Q 697 2569 597 2569 
Q 506 2569 344 2547 
L 344 2669 
L 1416 2828 
z
M 688 328 
Q 881 97 1209 97 
Q 1372 97 1540 187 
Q 1709 278 1870 456 
Q 2031 634 2159 867 
Q 2288 1100 2389 1415 
Q 2491 1731 2491 2041 
Q 2491 2291 2377 2423 
Q 2263 2556 2109 2556 
Q 1772 2556 1442 2168 
Q 1113 1781 959 1263 
L 688 328 
z
" transform="scale(0.015625)"/>
       <path id="TimesNewRomanPS-ItalicMT-6c" d="M 1903 4444 
L 834 725 
Q 756 447 756 384 
Q 756 338 786 306 
Q 816 275 859 275 
Q 919 275 988 328 
Q 1150 456 1328 725 
L 1422 628 
Q 1125 209 875 44 
Q 691 -75 525 -75 
Q 406 -75 326 6 
Q 247 88 247 194 
Q 247 306 347 656 
L 1194 3588 
Q 1297 3947 1297 4000 
Q 1297 4075 1237 4123 
Q 1178 4172 1053 4172 
Q 981 4172 834 4150 
L 834 4266 
L 1903 4444 
z
" transform="scale(0.015625)"/>
       <path id="TimesNewRomanPS-ItalicMT-61" d="M 3003 2828 
L 2394 709 
L 2325 425 
Q 2316 384 2316 356 
Q 2316 306 2347 269 
Q 2372 241 2409 241 
Q 2450 241 2516 291 
Q 2638 381 2841 666 
L 2947 591 
Q 2731 266 2503 95 
Q 2275 -75 2081 -75 
Q 1947 -75 1880 -8 
Q 1813 59 1813 188 
Q 1813 341 1881 591 
L 1947 825 
Q 1538 291 1194 78 
Q 947 -75 709 -75 
Q 481 -75 315 114 
Q 150 303 150 634 
Q 150 1131 448 1682 
Q 747 2234 1206 2566 
Q 1566 2828 1884 2828 
Q 2075 2828 2201 2728 
Q 2328 2628 2394 2397 
L 2506 2753 
L 3003 2828 
z
M 1891 2666 
Q 1691 2666 1466 2478 
Q 1147 2213 898 1691 
Q 650 1169 650 747 
Q 650 534 756 411 
Q 863 288 1000 288 
Q 1341 288 1741 791 
Q 2275 1459 2275 2163 
Q 2275 2428 2172 2547 
Q 2069 2666 1891 2666 
z
" transform="scale(0.015625)"/>
       <path id="TimesNewRomanPS-ItalicMT-63" d="M 2472 681 
Q 2147 291 1815 108 
Q 1484 -75 1116 -75 
Q 672 -75 423 175 
Q 175 425 175 847 
Q 175 1325 442 1787 
Q 709 2250 1161 2539 
Q 1613 2828 2047 2828 
Q 2388 2828 2556 2686 
Q 2725 2544 2725 2338 
Q 2725 2144 2606 2006 
Q 2519 1900 2391 1900 
Q 2294 1900 2230 1962 
Q 2166 2025 2166 2119 
Q 2166 2178 2189 2228 
Q 2213 2278 2286 2348 
Q 2359 2419 2375 2450 
Q 2391 2481 2391 2516 
Q 2391 2581 2331 2625 
Q 2241 2688 2075 2688 
Q 1769 2688 1469 2472 
Q 1169 2256 956 1859 
Q 700 1378 700 897 
Q 700 578 881 392 
Q 1063 206 1375 206 
Q 1616 206 1852 326 
Q 2088 447 2381 763 
L 2472 681 
z
" transform="scale(0.015625)"/>
       <path id="TimesNewRomanPS-ItalicMT-65" d="M 763 1178 
Q 741 1022 741 919 
Q 741 641 937 445 
Q 1134 250 1416 250 
Q 1641 250 1848 342 
Q 2056 434 2466 750 
L 2531 659 
Q 1791 -75 1119 -75 
Q 663 -75 431 212 
Q 200 500 200 847 
Q 200 1313 487 1800 
Q 775 2288 1209 2558 
Q 1644 2828 2103 2828 
Q 2434 2828 2593 2693 
Q 2753 2559 2753 2375 
Q 2753 2116 2547 1878 
Q 2275 1569 1747 1378 
Q 1397 1250 763 1178 
z
M 784 1331 
Q 1247 1384 1538 1513 
Q 1922 1684 2114 1923 
Q 2306 2163 2306 2378 
Q 2306 2509 2223 2590 
Q 2141 2672 1988 2672 
Q 1669 2672 1311 2333 
Q 953 1994 784 1331 
z
" transform="scale(0.015625)"/>
       <path id="TimesNewRomanPS-ItalicMT-6d" d="M 1388 2828 
L 981 1419 
Q 1253 1916 1444 2166 
Q 1741 2553 2022 2728 
Q 2188 2828 2369 2828 
Q 2525 2828 2628 2728 
Q 2731 2628 2731 2472 
Q 2731 2319 2659 2072 
L 2438 1278 
Q 2947 2231 3403 2616 
Q 3656 2828 3903 2828 
Q 4047 2828 4139 2729 
Q 4231 2631 4231 2425 
Q 4231 2244 4175 2041 
L 3831 825 
Q 3719 428 3719 384 
Q 3719 341 3747 309 
Q 3766 288 3797 288 
Q 3828 288 3906 347 
Q 4084 484 4241 709 
L 4344 644 
Q 4266 519 4067 300 
Q 3869 81 3728 3 
Q 3588 -75 3469 -75 
Q 3359 -75 3286 0 
Q 3213 75 3213 184 
Q 3213 334 3341 788 
L 3625 1791 
Q 3722 2138 3728 2175 
Q 3738 2234 3738 2291 
Q 3738 2369 3703 2413 
Q 3666 2456 3619 2456 
Q 3488 2456 3341 2322 
Q 2909 1925 2534 1209 
Q 2288 738 2072 0 
L 1600 0 
L 2134 1891 
Q 2222 2197 2222 2300 
Q 2222 2384 2187 2425 
Q 2153 2466 2103 2466 
Q 2000 2466 1884 2391 
Q 1697 2269 1401 1869 
Q 1106 1469 944 1103 
Q 866 931 572 0 
L 109 0 
L 688 2025 
L 763 2288 
Q 784 2347 784 2375 
Q 784 2444 721 2498 
Q 659 2553 563 2553 
Q 522 2553 338 2516 
L 309 2631 
L 1388 2828 
z
" transform="scale(0.015625)"/>
       <path id="TimesNewRomanPS-ItalicMT-6e" d="M 1413 2828 
L 997 1406 
Q 1581 2278 1892 2553 
Q 2203 2828 2491 2828 
Q 2647 2828 2748 2725 
Q 2850 2622 2850 2456 
Q 2850 2269 2759 1956 
L 2378 641 
Q 2313 413 2313 363 
Q 2313 319 2338 289 
Q 2363 259 2391 259 
Q 2428 259 2481 300 
Q 2647 431 2844 700 
L 2941 641 
Q 2650 225 2391 47 
Q 2209 -75 2066 -75 
Q 1950 -75 1881 -4 
Q 1813 66 1813 184 
Q 1813 334 1919 700 
L 2281 1956 
Q 2350 2191 2350 2322 
Q 2350 2384 2309 2423 
Q 2269 2463 2209 2463 
Q 2122 2463 2000 2388 
Q 1769 2247 1519 1923 
Q 1269 1600 991 1097 
Q 844 831 747 516 
L 591 0 
L 122 0 
L 691 1956 
Q 791 2309 791 2381 
Q 791 2450 736 2501 
Q 681 2553 600 2553 
Q 563 2553 469 2541 
L 350 2522 
L 331 2634 
L 1413 2828 
z
" transform="scale(0.015625)"/>
       <path id="TimesNewRomanPS-ItalicMT-74" d="M 1663 3603 
L 1419 2753 
L 1909 2753 
L 1856 2556 
L 1369 2556 
L 831 713 
Q 744 416 744 328 
Q 744 275 769 247 
Q 794 219 828 219 
Q 906 219 1034 328 
Q 1109 391 1369 713 
L 1472 634 
Q 1184 216 928 44 
Q 753 -75 575 -75 
Q 438 -75 350 11 
Q 263 97 263 231 
Q 263 400 363 747 
L 884 2556 
L 413 2556 
L 444 2678 
Q 788 2772 1016 2958 
Q 1244 3144 1525 3603 
L 1663 3603 
z
" transform="scale(0.015625)"/>
       <path id="TimesNewRomanPS-ItalicMT-20" transform="scale(0.015625)"/>
       <path id="TimesNewRomanPS-ItalicMT-28" d="M 1203 -1319 
L 1097 -1369 
Q 725 -659 563 -116 
Q 438 309 438 741 
Q 438 1747 903 2544 
Q 1475 3519 2756 4444 
L 2831 4334 
Q 2253 3906 1888 3375 
Q 1431 2713 1140 1775 
Q 850 838 850 69 
Q 850 -519 1203 -1319 
z
" transform="scale(0.015625)"/>
       <path id="TimesNewRomanPS-ItalicMT-29" d="M 931 4384 
L 1038 4444 
Q 1409 3738 1569 3194 
Q 1697 2769 1697 2338 
Q 1697 1328 1231 534 
Q 656 -444 -622 -1369 
L -697 -1272 
Q -119 -841 247 -313 
Q 703 350 993 1289 
Q 1284 2228 1284 2997 
Q 1284 3584 931 4384 
z
" transform="scale(0.015625)"/>
      </defs>
      <use xlink:href="#TimesNewRomanPS-ItalicMT-44"/>
      <use xlink:href="#TimesNewRomanPS-ItalicMT-69" x="72.216797"/>
      <use xlink:href="#TimesNewRomanPS-ItalicMT-73" x="100"/>
      <use xlink:href="#TimesNewRomanPS-ItalicMT-70" x="138.916016"/>
      <use xlink:href="#TimesNewRomanPS-ItalicMT-6c" x="188.916016"/>
      <use xlink:href="#TimesNewRomanPS-ItalicMT-61" x="216.699219"/>
      <use xlink:href="#TimesNewRomanPS-ItalicMT-63" x="266.699219"/>
      <use xlink:href="#TimesNewRomanPS-ItalicMT-65" x="311.083984"/>
      <use xlink:href="#TimesNewRomanPS-ItalicMT-6d" x="355.46875"/>
      <use xlink:href="#TimesNewRomanPS-ItalicMT-65" x="427.685547"/>
      <use xlink:href="#TimesNewRomanPS-ItalicMT-6e" x="472.070312"/>
      <use xlink:href="#TimesNewRomanPS-ItalicMT-74" x="522.070312"/>
      <use xlink:href="#TimesNewRomanPS-ItalicMT-20" x="549.853516"/>
      <use xlink:href="#TimesNewRomanPS-ItalicMT-28" x="574.853516"/>
      <use xlink:href="#TimesNewRomanPS-ItalicMT-6d" x="608.154297"/>
      <use xlink:href="#TimesNewRomanPS-ItalicMT-6d" x="680.371094"/>
      <use xlink:href="#TimesNewRomanPS-ItalicMT-29" x="752.587891"/>
     </g>
    </g>
   </g>
   <g id="matplotlib.axis_2">
    <g id="ytick_1">
     <g id="line2d_7">
      <path d="M 57.994063 183.976508 
L 306.682062 183.976508 
" clip-path="url(#p24772cabdc)" style="fill: none; stroke-dasharray: 0.8,1.32; stroke-dashoffset: 0; stroke: #b0b0b0; stroke-width: 0.8"/>
     </g>
     <g id="line2d_8">
      <defs>
       <path id="mfe972f1657" d="M 0 0 
L -3.5 0 
" style="stroke: #000000; stroke-width: 0.8"/>
      </defs>
      <g>
       <use xlink:href="#mfe972f1657" x="57.994063" y="183.976508" style="stroke: #000000; stroke-width: 0.8"/>
      </g>
     </g>
     <g id="text_5">
      <!-- −100 -->
      <g transform="translate(22.099375 188.837133) scale(0.14 -0.14)">
       <use xlink:href="#TimesNewRomanPSMT-2212"/>
       <use xlink:href="#TimesNewRomanPSMT-31" x="56.396484"/>
       <use xlink:href="#TimesNewRomanPSMT-30" x="106.396484"/>
       <use xlink:href="#TimesNewRomanPSMT-30" x="156.396484"/>
      </g>
     </g>
    </g>
    <g id="ytick_2">
     <g id="line2d_9">
      <path d="M 57.994063 133.16074 
L 306.682062 133.16074 
" clip-path="url(#p24772cabdc)" style="fill: none; stroke-dasharray: 0.8,1.32; stroke-dashoffset: 0; stroke: #b0b0b0; stroke-width: 0.8"/>
     </g>
     <g id="line2d_10">
      <g>
       <use xlink:href="#mfe972f1657" x="57.994063" y="133.16074" style="stroke: #000000; stroke-width: 0.8"/>
      </g>
     </g>
     <g id="text_6">
      <!-- 0 -->
      <g transform="translate(43.994063 138.021365) scale(0.14 -0.14)">
       <use xlink:href="#TimesNewRomanPSMT-30"/>
      </g>
     </g>
    </g>
    <g id="ytick_3">
     <g id="line2d_11">
      <path d="M 57.994063 82.344972 
L 306.682062 82.344972 
" clip-path="url(#p24772cabdc)" style="fill: none; stroke-dasharray: 0.8,1.32; stroke-dashoffset: 0; stroke: #b0b0b0; stroke-width: 0.8"/>
     </g>
     <g id="line2d_12">
      <g>
       <use xlink:href="#mfe972f1657" x="57.994063" y="82.344972" style="stroke: #000000; stroke-width: 0.8"/>
      </g>
     </g>
     <g id="text_7">
      <!-- 100 -->
      <g transform="translate(29.994063 87.205597) scale(0.14 -0.14)">
       <use xlink:href="#TimesNewRomanPSMT-31"/>
       <use xlink:href="#TimesNewRomanPSMT-30" x="50"/>
       <use xlink:href="#TimesNewRomanPSMT-30" x="100"/>
      </g>
     </g>
    </g>
    <g id="ytick_4">
     <g id="line2d_13">
      <path d="M 57.994063 31.529204 
L 306.682062 31.529204 
" clip-path="url(#p24772cabdc)" style="fill: none; stroke-dasharray: 0.8,1.32; stroke-dashoffset: 0; stroke: #b0b0b0; stroke-width: 0.8"/>
     </g>
     <g id="line2d_14">
      <g>
       <use xlink:href="#mfe972f1657" x="57.994063" y="31.529204" style="stroke: #000000; stroke-width: 0.8"/>
      </g>
     </g>
     <g id="text_8">
      <!-- 200 -->
      <g transform="translate(29.994063 36.389829) scale(0.14 -0.14)">
       <defs>
        <path id="TimesNewRomanPSMT-32" d="M 2934 816 
L 2638 0 
L 138 0 
L 138 116 
Q 1241 1122 1691 1759 
Q 2141 2397 2141 2925 
Q 2141 3328 1894 3587 
Q 1647 3847 1303 3847 
Q 991 3847 742 3664 
Q 494 3481 375 3128 
L 259 3128 
Q 338 3706 661 4015 
Q 984 4325 1469 4325 
Q 1984 4325 2329 3994 
Q 2675 3663 2675 3213 
Q 2675 2891 2525 2569 
Q 2294 2063 1775 1497 
Q 997 647 803 472 
L 1909 472 
Q 2247 472 2383 497 
Q 2519 522 2628 598 
Q 2738 675 2819 816 
L 2934 816 
z
" transform="scale(0.015625)"/>
       </defs>
       <use xlink:href="#TimesNewRomanPSMT-32"/>
       <use xlink:href="#TimesNewRomanPSMT-30" x="50"/>
       <use xlink:href="#TimesNewRomanPSMT-30" x="100"/>
      </g>
     </g>
    </g>
    <g id="text_9">
     <!-- Base Shear (kN) -->
     <g transform="translate(15.5325 167.409688) rotate(-90) scale(0.12 -0.12)">
      <defs>
       <path id="TimesNewRomanPS-ItalicMT-42" d="M 947 4122 
L 991 4238 
L 2503 4238 
Q 2884 4238 3182 4119 
Q 3481 4000 3629 3787 
Q 3778 3575 3778 3338 
Q 3778 2972 3514 2676 
Q 3250 2381 2653 2241 
Q 3038 2097 3219 1859 
Q 3400 1622 3400 1338 
Q 3400 1022 3237 734 
Q 3075 447 2820 287 
Q 2566 128 2206 53 
Q 1950 0 1406 0 
L -147 0 
L -106 116 
Q 138 122 225 163 
Q 350 216 403 303 
Q 478 422 603 847 
L 1363 3413 
Q 1459 3738 1459 3869 
Q 1459 3984 1373 4051 
Q 1288 4119 1047 4119 
Q 994 4119 947 4122 
z
M 1581 2363 
Q 1784 2356 1875 2356 
Q 2525 2356 2842 2639 
Q 3159 2922 3159 3347 
Q 3159 3669 2965 3848 
Q 2772 4028 2347 4028 
Q 2234 4028 2059 3991 
L 1581 2363 
z
M 966 275 
Q 1303 231 1494 231 
Q 1981 231 2357 525 
Q 2734 819 2734 1322 
Q 2734 1706 2501 1922 
Q 2269 2138 1750 2138 
Q 1650 2138 1506 2128 
L 966 275 
z
" transform="scale(0.015625)"/>
       <path id="TimesNewRomanPS-ItalicMT-53" d="M 44 -97 
L 394 1475 
L 500 1475 
Q 478 1247 478 1097 
Q 478 669 751 400 
Q 1025 131 1466 131 
Q 1875 131 2087 382 
Q 2300 634 2300 963 
Q 2300 1175 2203 1350 
Q 2056 1609 1419 2263 
Q 1109 2575 1022 2728 
Q 878 2981 878 3259 
Q 878 3703 1209 4018 
Q 1541 4334 2059 4334 
Q 2234 4334 2391 4300 
Q 2488 4281 2744 4175 
Q 2925 4103 2944 4097 
Q 2988 4088 3041 4088 
Q 3131 4088 3197 4134 
Q 3263 4181 3350 4334 
L 3469 4334 
L 3144 2928 
L 3038 2928 
Q 3050 3116 3050 3231 
Q 3050 3609 2800 3850 
Q 2550 4091 2141 4091 
Q 1816 4091 1612 3900 
Q 1409 3709 1409 3459 
Q 1409 3241 1539 3042 
Q 1669 2844 2136 2395 
Q 2603 1947 2740 1695 
Q 2878 1444 2878 1159 
Q 2878 838 2708 536 
Q 2538 234 2219 68 
Q 1900 -97 1522 -97 
Q 1334 -97 1171 -62 
Q 1009 -28 653 106 
Q 531 153 450 153 
Q 266 153 163 -97 
L 44 -97 
z
" transform="scale(0.015625)"/>
       <path id="TimesNewRomanPS-ItalicMT-68" d="M 1878 4444 
L 1000 1409 
Q 1569 2266 1887 2547 
Q 2206 2828 2497 2828 
Q 2647 2828 2747 2725 
Q 2847 2622 2847 2450 
Q 2847 2244 2759 1950 
L 2378 641 
Q 2306 403 2306 378 
Q 2306 334 2332 306 
Q 2359 278 2394 278 
Q 2434 278 2488 319 
Q 2666 456 2841 700 
L 2938 641 
Q 2831 475 2642 276 
Q 2453 78 2317 1 
Q 2181 -75 2075 -75 
Q 1959 -75 1886 -1 
Q 1813 72 1813 188 
Q 1813 325 1922 700 
L 2281 1950 
Q 2350 2184 2350 2319 
Q 2350 2381 2311 2418 
Q 2272 2456 2209 2456 
Q 2119 2456 2003 2388 
Q 1791 2256 1513 1900 
Q 1438 1803 1013 1119 
Q 881 900 797 641 
L 597 0 
L 128 0 
L 1156 3575 
L 1266 3963 
Q 1266 4044 1198 4106 
Q 1131 4169 1034 4169 
Q 978 4169 863 4150 
L 797 4141 
L 797 4263 
L 1878 4444 
z
" transform="scale(0.015625)"/>
       <path id="TimesNewRomanPS-ItalicMT-72" d="M 334 2653 
L 1413 2828 
L 963 1309 
Q 1509 2244 1956 2616 
Q 2209 2828 2369 2828 
Q 2472 2828 2531 2767 
Q 2591 2706 2591 2591 
Q 2591 2384 2484 2197 
Q 2409 2056 2269 2056 
Q 2197 2056 2145 2103 
Q 2094 2150 2081 2247 
Q 2075 2306 2053 2325 
Q 2028 2350 1994 2350 
Q 1941 2350 1894 2325 
Q 1813 2281 1647 2081 
Q 1388 1775 1084 1288 
Q 953 1081 859 822 
Q 728 466 709 394 
L 609 0 
L 131 0 
L 709 1941 
Q 809 2278 809 2422 
Q 809 2478 763 2516 
Q 700 2566 597 2566 
Q 531 2566 356 2538 
L 334 2653 
z
" transform="scale(0.015625)"/>
       <path id="TimesNewRomanPS-ItalicMT-6b" d="M 1831 4444 
L 944 1372 
L 1300 1675 
Q 1884 2169 2059 2406 
Q 2116 2484 2116 2525 
Q 2116 2553 2097 2578 
Q 2078 2603 2023 2618 
Q 1969 2634 1831 2634 
L 1722 2634 
L 1756 2753 
L 3122 2753 
L 3091 2634 
Q 2856 2622 2686 2561 
Q 2516 2500 2356 2381 
Q 2041 2147 1941 2056 
L 1672 1819 
Q 1741 1594 1841 1191 
Q 2009 522 2069 397 
Q 2128 272 2191 272 
Q 2244 272 2316 325 
Q 2478 444 2663 703 
L 2772 625 
Q 2431 197 2250 61 
Q 2069 -75 1919 -75 
Q 1788 -75 1716 28 
Q 1591 213 1300 1481 
L 872 1109 
L 550 0 
L 63 0 
L 1100 3566 
L 1188 3869 
Q 1203 3947 1203 4006 
Q 1203 4081 1145 4131 
Q 1088 4181 978 4181 
Q 906 4181 750 4150 
L 750 4259 
L 1831 4444 
z
" transform="scale(0.015625)"/>
       <path id="TimesNewRomanPS-ItalicMT-4e" d="M 1834 4238 
L 3144 916 
L 3853 3397 
Q 3941 3703 3941 3872 
Q 3941 3988 3859 4053 
Q 3778 4119 3556 4119 
Q 3519 4119 3478 4122 
L 3513 4238 
L 4875 4238 
L 4838 4122 
Q 4625 4125 4522 4078 
Q 4375 4013 4303 3909 
Q 4203 3763 4100 3397 
L 3103 -97 
L 2991 -97 
L 1581 3478 
L 828 838 
Q 744 538 744 378 
Q 744 259 820 198 
Q 897 138 1184 116 
L 1153 0 
L -178 0 
L -134 116 
Q 116 122 200 159 
Q 328 216 391 306 
Q 481 444 594 838 
L 1434 3784 
Q 1313 3972 1173 4042 
Q 1034 4113 741 4122 
L 775 4238 
L 1834 4238 
z
" transform="scale(0.015625)"/>
      </defs>
      <use xlink:href="#TimesNewRomanPS-ItalicMT-42"/>
      <use xlink:href="#TimesNewRomanPS-ItalicMT-61" x="61.083984"/>
      <use xlink:href="#TimesNewRomanPS-ItalicMT-73" x="111.083984"/>
      <use xlink:href="#TimesNewRomanPS-ItalicMT-65" x="150"/>
      <use xlink:href="#TimesNewRomanPS-ItalicMT-20" x="194.384766"/>
      <use xlink:href="#TimesNewRomanPS-ItalicMT-53" x="219.384766"/>
      <use xlink:href="#TimesNewRomanPS-ItalicMT-68" x="269.384766"/>
      <use xlink:href="#TimesNewRomanPS-ItalicMT-65" x="319.384766"/>
      <use xlink:href="#TimesNewRomanPS-ItalicMT-61" x="363.769531"/>
      <use xlink:href="#TimesNewRomanPS-ItalicMT-72" x="413.769531"/>
      <use xlink:href="#TimesNewRomanPS-ItalicMT-20" x="452.685547"/>
      <use xlink:href="#TimesNewRomanPS-ItalicMT-28" x="477.685547"/>
      <use xlink:href="#TimesNewRomanPS-ItalicMT-6b" x="510.986328"/>
      <use xlink:href="#TimesNewRomanPS-ItalicMT-4e" x="555.371094"/>
      <use xlink:href="#TimesNewRomanPS-ItalicMT-29" x="622.070312"/>
     </g>
    </g>
   </g>
   <g id="line2d_15">
    <path d="M 188.365483 69.515041 
L 191.025472 43.943244 
L 193.604318 32.481705 
L 196.023352 53.684765 
L 198.208783 58.188663 
L 200.093942 64.54006 
L 201.621323 50.154141 
L 202.744333 51.652429 
L 203.428715 50.465125 
L 203.653591 51.31823 
L 203.412101 55.525209 
L 202.711613 63.71663 
L 201.573494 72.673468 
L 200.032464 82.699719 
L 198.13553 93.59659 
L 195.94056 104.858297 
L 193.514512 116.065924 
L 190.931392 126.44897 
L 188.269998 135.510618 
L 183.037047 150.56195 
L 180.625121 164.011343 
L 178.449316 182.031069 
L 176.576004 189.388217 
L 175.062332 194.054819 
L 173.954474 195.574988 
L 173.077972 197.870987 
L 173.336066 197.408403 
L 175.205816 185.861125 
L 176.760436 176.87081 
L 178.66907 167.44429 
L 180.873494 157.639778 
L 183.306461 145.861761 
L 185.893755 127.597827 
L 188.556449 103.492705 
L 191.213318 83.276266 
L 193.783313 72.92241 
L 196.188037 67.012615 
L 198.354133 63.017285 
L 200.215524 60.422763 
L 201.715427 59.40126 
L 202.80809 59.736778 
L 203.460179 61.830462 
L 203.651802 65.39846 
L 203.377114 70.673066 
L 202.644495 77.677502 
L 201.476293 86.042587 
L 199.908144 94.944787 
L 197.987885 103.776392 
L 195.774093 112.311523 
L 193.334301 120.4279 
L 185.42389 144.258534 
L 182.858471 159.102148 
L 180.461043 178.357603 
L 178.304742 187.69854 
L 176.455344 192.556922 
L 173.891843 195.735602 
L 173.080954 196.631732 
L 173.372225 195.667787 
L 174.120867 192.316614 
L 178.817469 164.011636 
L 181.040542 153.437942 
L 183.487064 142.758342 
L 186.082402 129.106871 
L 189.129288 109.881474 
L 194.435956 85.653149 
L 199.557444 72.197655 
L 204.337519 66.534844 
L 208.630365 62.677899 
L 212.305029 59.560889 
L 215.249414 57.973214 
L 217.373702 57.090048 
L 218.61309 57.245397 
L 218.929772 59.378417 
L 218.314086 65.196426 
L 216.784815 75.642743 
L 214.388609 87.921641 
L 211.198564 99.730367 
L 207.311993 111.010615 
L 202.847457 121.37191 
L 197.941146 130.603828 
L 192.742729 138.731121 
L 187.410783 146.190874 
L 182.10796 159.094427 
L 176.996024 183.104659 
L 172.230915 193.029296 
L 167.957993 197.589126 
L 164.307603 198.778841 
L 161.391102 200.091308 
L 159.297458 200.637684 
L 157.807157 201.340201 
L 158.455963 200.705887 
L 160.017162 195.929728 
L 162.44313 181.190329 
L 165.659862 162.759556 
L 169.569232 151.127385 
L 174.051984 143.975 
L 178.971371 136.980385 
L 184.177326 125.872106 
L 189.511042 106.336241 
L 194.809812 82.499301 
L 199.911997 70.060343 
L 204.661955 64.486807 
L 208.914786 61.310054 
L 212.540759 58.859125 
L 215.429262 57.412291 
L 217.492181 56.625382 
L 218.666587 57.172666 
L 218.916654 59.414635 
L 218.234754 64.84754 
L 216.641689 74.008661 
L 214.186054 85.464827 
L 210.94276 96.742976 
L 207.010743 106.808787 
L 202.50995 115.671525 
L 197.577679 123.772418 
L 192.364389 131.527486 
L 187.029111 140.076769 
L 181.7346 156.833164 
L 176.642365 180.894488 
L 171.907744 191.263499 
L 167.675169 196.790873 
L 164.073755 198.761317 
L 161.213362 200.528898 
L 159.181249 201.420244 
L 158.039403 202.201609 
L 157.822659 202.162522 
L 158.537627 200.576289 
L 160.162497 192.502044 
L 162.647703 176.334514 
L 165.917432 160.9412 
L 169.871943 151.429096 
L 179.335564 136.594225 
L 184.555986 123.503332 
L 190.656184 98.173658 
L 198.591252 72.855951 
L 206.214383 65.432733 
L 213.29303 61.568033 
L 219.61126 58.612769 
L 224.976334 55.958534 
L 233.890293 53.214423 
L 234.165413 55.471001 
L 233.043401 65.315246 
L 230.558484 79.855506 
L 226.786464 92.703709 
L 221.842408 104.46908 
L 215.877134 114.764069 
L 209.072614 123.521512 
L 201.636421 131.632214 
L 193.795396 139.563161 
L 185.78873 149.042415 
L 177.860669 170.190812 
L 170.253059 191.281844 
L 163.19797 198.067137 
L 156.91062 201.569863 
L 151.582803 202.781917 
L 147.377047 204.527522 
L 144.421648 205.213647 
L 142.581647 206.209476 
L 143.753176 203.733518 
L 146.285608 189.274635 
L 150.101691 169.287335 
L 155.085016 155.606244 
L 161.083566 146.296815 
L 167.914354 139.459335 
L 175.369006 132.775998 
L 183.220117 121.561795 
L 191.228188 98.03788 
L 199.148932 72.674305 
L 206.740726 64.566765 
L 213.77198 60.330445 
L 220.028207 57.925318 
L 225.318558 55.435202 
L 232.390491 53.355458 
L 233.956343 53.255263 
L 234.13144 55.315234 
L 232.910441 63.723089 
L 230.330593 77.163436 
L 226.470594 90.37393 
L 221.448194 101.447925 
L 215.416603 110.854542 
L 208.559813 119.123757 
L 201.086993 127.035931 
L 193.226103 135.164372 
L 185.216938 146.257663 
L 177.30382 170.330726 
L 169.728139 190.416082 
L 162.720993 197.988648 
L 156.496135 201.566381 
L 151.243455 203.270093 
L 147.123188 205.110482 
L 144.261021 206.147259 
L 142.744266 207.059572 
L 142.619192 206.986841 
L 143.889614 201.437923 
L 146.516777 184.525218 
L 150.42054 167.14582 
L 155.481819 155.101942 
L 161.546217 146.526331 
L 175.919436 132.200109 
L 183.789801 118.428242 
L 192.944501 88.556431 
L 203.484745 66.181059 
L 213.563775 61.949058 
L 222.874127 59.041969 
L 231.13179 55.548478 
L 238.084861 53.17615 
L 247.275079 50.577409 
L 249.231878 49.347808 
L 249.33194 53.369221 
L 247.572213 67.626008 
L 244.006377 83.612175 
L 238.74321 96.769405 
L 231.943264 108.449508 
L 223.813973 117.904469 
L 214.603321 126.177901 
L 194.08624 142.437603 
L 183.405688 154.965154 
L 172.876434 180.601333 
L 162.819676 197.133222 
L 153.542195 202.848778 
L 145.327003 204.989521 
L 133.045857 208.67344 
L 129.35454 210.001158 
L 127.430004 211.036897 
L 129.255494 203.418005 
L 132.884141 182.698406 
L 138.205253 164.072428 
L 145.056508 151.484046 
L 153.228909 142.893249 
L 162.473156 136.103506 
L 172.507251 129.095532 
L 183.025103 117.335034 
L 193.705864 91.379255 
L 204.223716 67.241788 
L 214.257811 61.470869 
L 223.502057 57.996344 
L 231.674458 55.205656 
L 238.525714 52.714547 
L 243.846826 51.349834 
L 247.475473 50.535554 
L 249.300962 49.854648 
L 249.267608 52.381906 
L 247.376427 63.941493 
L 243.68511 80.429831 
L 238.306261 94.315603 
L 231.403963 105.247778 
L 223.188772 114.332261 
L 213.911291 122.503411 
L 203.854533 130.445254 
L 193.325279 139.160062 
L 182.644726 153.92139 
L 172.138686 181.232522 
L 162.127646 196.616841 
L 152.916994 202.944383 
L 144.787703 205.196239 
L 132.724589 209.353345 
L 129.158754 210.93184 
L 127.399027 211.948039 
L 127.499089 211.11373 
L 129.455888 199.341617 
L 133.20973 179.082071 
L 138.646106 162.703038 
L 145.599177 151.318768 
L 153.856839 143.122428 
L 163.167192 136.080143 
L 173.246221 128.291685 
L 183.786466 113.739428 
L 195.991621 82.059978 
L 209.108895 62.465086 
L 221.593388 60.05837 
L 233.06426 56.767185 
L 243.171591 52.895545 
L 251.607055 50.444779 
L 262.491933 47.688805 
L 264.609303 46.272165 
L 264.400846 51.871391 
L 261.872921 68.965191 
L 257.102643 86.717255 
L 250.23553 100.446236 
L 241.481064 111.6689 
L 231.1063 120.825976 
L 219.427723 129.01078 
L 206.801589 136.773368 
L 193.613059 145.551513 
L 180.264451 161.948647 
L 167.162966 188.832404 
L 154.708267 201.921888 
L 143.280285 206.612693 
L 133.227632 208.574058 
L 124.856966 211.143117 
L 118.423634 212.95491 
L 112.088889 215.55369 
L 112.380718 214.886267 
L 114.99047 202.412887 
L 119.838537 178.563717 
L 126.777025 160.155959 
L 135.594277 148.227951 
L 146.021321 140.119112 
L 157.740079 133.318887 
L 170.393068 125.746984 
L 183.594308 112.82486 
L 196.941093 85.013904 
L 210.026279 63.39386 
L 222.450699 59.275508 
L 233.835345 55.862044 
L 243.832928 52.462112 
L 252.13847 50.107315 
L 258.49861 48.531597 
L 262.71933 47.839595 
L 264.671877 46.98877 
L 264.296688 50.779421 
L 261.605209 65.671559 
L 256.679544 84.129754 
L 249.66995 98.159181 
L 240.790256 108.906513 
L 230.311338 117.912987 
L 218.552857 126.141206 
L 205.873506 134.099412 
L 192.660071 143.577156 
L 179.31563 162.771356 
L 166.247255 189.456285 
L 153.853599 201.595016 
L 142.512732 206.65993 
L 132.570609 208.867201 
L 124.330515 211.678429 
L 118.043816 213.653588 
L 113.902287 215.517789 
L 112.032267 216.522101 
L 112.490801 214.061116 
L 115.263901 197.727005 
L 120.266973 175.295848 
L 127.347399 158.837755 
L 136.289189 147.976001 
L 146.819572 140.01078 
L 158.617318 132.832384 
L 171.322535 124.545651 
L 184.54765 108.779352 
L 199.793976 76.533949 
L 215.455243 59.937107 
L 230.290132 58.451667 
L 255.709636 50.288686 
L 265.518825 47.646337 
L 272.974442 45.964283 
L 277.849053 45.125748 
L 279.993957 43.883865 
L 279.343723 51.020822 
L 275.918188 70.701561 
L 269.821846 89.98248 
L 261.240669 103.791738 
L 250.436426 114.630165 
L 237.738701 123.767387 
L 223.53484 131.95271 
L 208.258134 139.687769 
L 192.3746 149.311452 
L 176.368767 170.123857 
L 160.728896 195.36228 
L 145.932082 205.889265 
L 132.429704 209.806691 
L 120.633654 212.275586 
L 103.536867 217.193044 
L 96.71197 219.59465 
L 97.462171 217.821976 
L 100.985389 201.193094 
L 107.174147 174.722019 
L 115.839656 156.843996 
L 126.717574 145.577652 
L 139.476069 137.682597 
L 153.725941 130.668038 
L 169.032497 122.334011 
L 184.928807 107.716608 
L 200.929954 78.656153 
L 216.54782 60.762095 
L 231.305981 57.621785 
L 256.482347 50.006275 
L 273.410448 45.83822 
L 278.094044 45.328892 
L 280.040461 44.647148 
L 279.190321 50.636075 
L 275.569559 68.962779 
L 269.288626 88.265874 
L 260.539124 102.025151 
L 249.587955 112.6126 
L 236.769188 121.682377 
L 222.47386 129.972146 
L 207.138052 137.97903 
L 191.229585 148.666373 
L 175.233748 172.025723 
L 159.638496 195.656497 
L 144.919564 205.507937 
L 131.525955 209.715381 
L 119.866242 212.468711 
L 103.107488 217.787208 
L 96.672617 220.449701 
L 97.622662 216.307459 
L 101.340828 196.055061 
L 107.71369 171.492276 
L 116.546846 155.411715 
L 127.570837 144.989493 
L 140.449377 137.052886 
L 154.789602 129.602206 
L 170.154064 120.684757 
L 186.074068 103.235146 
L 204.347053 71.254234 
L 222.514421 58.573713 
L 239.640071 56.785337 
L 255.201584 51.559902 
L 279.79557 45.027692 
L 288.0778 43.44926 
L 293.318294 42.92385 
L 295.35719 42.159846 
L 294.132292 51.471779 
L 289.680964 73.707884 
L 282.138996 93.60208 
L 271.736456 107.159971 
L 258.790674 117.7034 
L 243.696563 126.849743 
L 226.914571 135.05224 
L 208.956635 142.91469 
L 190.370563 154.01419 
L 171.723326 178.485364 
L 153.58376 200.450142 
L 136.505214 208.948663 
L 121.008673 212.631504 
L 107.566858 215.704797 
L 96.589816 218.668419 
L 81.361253 223.011611 
L 82.702617 219.995316 
L 87.267239 198.982846 
L 94.915874 170.630576 
L 105.415202 153.799611 
L 118.444937 143.121016 
L 133.607607 135.38082 
L 150.440673 127.902667 
L 168.430639 118.623858 
L 187.02872 101.989146 
L 205.667579 72.735433 
L 223.778636 59.815743 
L 240.809411 56.357602 
L 256.240377 51.730751 
L 280.483152 45.508107 
L 288.555433 43.77345 
L 295.378062 43.017005 
L 293.920286 52.352107 
L 289.242548 73.954155 
L 281.487543 93.209874 
L 270.891839 106.506708 
L 257.778658 116.890973 
L 242.54802 125.968377 
L 225.664538 134.195132 
L 207.643243 142.260201 
L 189.033878 154.690531 
L 170.404123 180.419094 
L 152.322282 200.198249 
L 135.339944 208.380514 
L 106.696622 215.676123 
L 95.909406 218.818356 
L 81.34873 223.690795 
L 82.922862 217.796016 
L 87.713534 193.364856 
L 95.574605 167.441747 
L 106.266273 152.14844 
L 106.266273 152.14844 
" clip-path="url(#p24772cabdc)" style="fill: none; stroke: #0000ff; stroke-width: 1.2; stroke-linecap: square"/>
   </g>
   <g id="line2d_16">
    <path d="M 188.560611 133.937128 
L 188.480527 126.208467 
L 189.165081 116.919975 
L 191.694434 97.291353 
L 194.277207 82.815175 
L 193.961595 90.035643 
L 192.950817 105.514116 
L 192.234247 111.711145 
L 191.12207 117.399975 
L 190.474883 130.295178 
L 189.752962 135.97696 
L 188.635434 141.150549 
L 187.17019 150.453137 
L 186.116694 161.809659 
L 184.261192 171.119295 
L 182.806738 181.452377 
L 182.047451 183.527449 
L 182.721303 173.208469 
L 183.764097 160.82146 
L 189.314548 131.34681 
L 192.244949 112.741633 
L 193.282392 99.839377 
L 194.335888 88.482861 
L 195.421489 80.217808 
L 196.918661 74.006683 
L 198.453288 71.402269 
L 197.405143 83.274031 
L 197.49593 92.033186 
L 196.057439 103.911997 
L 194.602896 114.245073 
L 193.127039 122.517174 
L 190.859878 129.772888 
L 189.025691 141.143501 
L 185.619598 151.511823 
L 184.207862 165.966856 
L 183.111649 173.201421 
L 182.411042 180.944179 
L 181.309478 187.663502 
L 179.812306 193.874622 
L 177.903385 198.031824 
L 178.197594 188.750375 
L 179.240388 176.363371 
L 183.635944 148.4556 
L 188.074218 124.669781 
L 189.913667 113.81441 
L 193.255727 97.26316 
L 194.303872 85.391397 
L 195.394735 77.641591 
L 197.683299 72.446858 
L 199.977214 67.767371 
L 202.666737 63.596072 
L 202.762874 72.870468 
L 201.704027 83.711743 
L 199.837824 91.990892 
L 198.372669 101.293486 
L 196.511817 110.087876 
L 194.645614 118.36703 
L 193.13239 123.03242 
L 191.255485 130.281081 
L 189.801031 140.614158 
L 187.924126 147.862824 
L 184.897678 157.193605 
L 183.042176 166.503247 
L 180.411424 176.342226 
L 179.304509 182.546298 
L 178.213646 190.296109 
L 175.935783 196.521331 
L 175.566752 198.589354 
L 172.887931 203.791136 
L 170.968309 206.917845 
L 168.65308 209.536362 
L 167.883179 210.580946 
L 167.803095 202.852284 
L 169.98482 187.352662 
L 172.594258 175.452707 
L 174.423094 163.566842 
L 178.176814 149.069521 
L 180.422572 139.752836 
L 182.689822 132.497126 
L 186.101265 122.644051 
L 189.52341 113.821458 
L 191.747854 102.443797 
L 195.148595 91.560228 
L 199.688357 77.564057 
L 201.158864 68.776709 
L 203.805668 60.483459 
L 206.505893 57.342653 
L 209.612426 55.740534 
L 210.077505 62.946911 
L 209.360935 69.143935 
L 207.500083 77.93833 
L 205.27564 89.315991 
L 201.553936 106.904781 
L 198.147843 117.273103 
L 193.629485 133.330256 
L 185.98854 149.443799 
L 183.336385 157.221798 
L 180.336601 169.128801 
L 175.791578 182.609737 
L 173.914762 189.858397 
L 171.257256 197.121155 
L 170.134288 201.779497 
L 168.621064 206.444893 
L 165.92619 210.100945 
L 166.573377 197.205738 
L 168.38081 183.258903 
L 171.0063 172.904677 
L 175.187644 162.007017 
L 177.813134 151.652791 
L 180.069682 143.366594 
L 182.331493 135.595638 
L 183.818052 128.354025 
L 186.459506 119.545534 
L 189.8763 110.207704 
L 193.32511 103.961334 
L 196.752606 95.653992 
L 200.896671 81.149617 
L 203.543476 72.856372 
L 206.596679 66.101808 
L 208.45218 56.792166 
L 210.746006 52.112684 
L 213.456932 50.002366 
L 216.146455 45.831073 
L 218.472386 44.24305 
L 221.579008 42.640925 
L 222.017333 47.27108 
L 220.600246 61.210866 
L 219.12974 69.998214 
L 217.274238 79.30785 
L 215.023041 88.109294 
L 212.777194 97.425979 
L 207.472883 112.981986 
L 204.06144 122.835062 
L 201.387881 128.55209 
L 197.944421 135.313697 
L 193.313962 140.550724 
L 190.629701 145.23726 
L 182.587799 160.327363 
L 180.705633 167.060777 
L 176.123153 176.935002 
L 172.706359 186.272832 
L 170.03824 192.505101 
L 163.568243 208.5975 
L 158.55814 214.872063 
L 155.093277 219.572689 
L 150.430713 221.718248 
L 151.056586 206.76207 
L 152.885333 194.876216 
L 158.895601 172.092692 
L 161.537055 163.2842 
L 169.915883 143.034609 
L 173.749777 136.265949 
L 178.374886 130.51368 
L 183.358323 121.6629 
L 187.983432 115.910631 
L 194.886403 103.933141 
L 199.083888 94.58121 
L 204.040571 83.154208 
L 207.452014 73.301132 
L 210.494516 65.51608 
L 213.553069 59.276762 
L 223.562663 45.697153 
L 224.829658 54.950399 
L 222.599864 65.812819 
L 221.514352 74.077876 
L 218.514569 85.98488 
L 212.857279 105.154645 
L 209.825479 113.97018 
L 206.01834 123.315063 
L 200.655347 133.203384 
L 195.26025 140.000237 
L 182.962092 158.77458 
L 179.122936 165.027994 
L 173.73854 172.85534 
L 169.915348 180.654488 
L 166.878198 188.954781 
L 163.830435 196.224587 
L 159.616987 204.030788 
L 153.088219 214.455496 
L 149.243802 220.193668 
L 151.040533 205.216335 
L 153.264976 193.838675 
L 155.521525 185.552478 
L 158.521308 173.645474 
L 167.253115 149.782125 
L 170.685873 141.990025 
L 174.12407 134.713167 
L 179.893461 126.363536 
L 184.898213 119.573726 
L 190.282698 111.746386 
L 195.292801 105.471827 
L 199.506249 97.665626 
L 202.965761 92.449748 
L 206.799566 85.681088 
L 215.221112 69.553454 
L 218.680624 64.337576 
L 225.626402 56.482037 
L 229.117929 54.357623 
L 232.240515 54.301238 
L 235.336347 51.668626 
L 238.833225 50.059458 
L 239.667336 55.197801 
L 238.207442 65.015636 
L 234.432407 77.451982 
L 232.571555 86.246378 
L 228.775117 96.621748 
L 225.347622 104.92909 
L 216.942039 122.602463 
L 211.942638 129.907509 
L 206.130529 134.135193 
L 201.478667 137.31124 
L 195.655857 140.508431 
L 191.822052 147.277091 
L 187.571237 151.476577 
L 181.796495 159.310971 
L 178.336984 164.526849 
L 164.15666 190.034611 
L 161.087493 195.243441 
L 158.772264 197.861952 
L 157.210971 197.890145 
L 156.07739 201.518004 
L 154.157768 204.644709 
L 151.051235 206.246828 
L 149.917654 209.874683 
L 146.821734 212.507295 
L 142.549515 214.645806 
L 139.063338 217.285461 
L 136.331098 217.334798 
L 132.823517 217.913478 
L 133.508071 208.624986 
L 134.978578 199.837639 
L 137.529245 182.270003 
L 140.571746 174.484946 
L 144.785195 166.678749 
L 147.833047 159.408944 
L 152.046495 151.602748 
L 157.045986 144.297696 
L 161.280749 138.552476 
L 165.921909 134.345941 
L 169.023181 132.228575 
L 173.701709 131.628751 
L 173.669603 128.537287 
L 176.006237 127.979752 
L 179.487063 124.82485 
L 183.352972 121.147653 
L 189.143766 114.858999 
L 195.693759 106.495267 
L 201.094207 100.213656 
L 206.082996 91.878122 
L 212.638428 84.029626 
L 218.402468 75.164749 
L 223.016875 68.381993 
L 226.872083 63.674308 
L 232.277882 57.907943 
L 236.550101 55.769433 
L 240.827581 54.146169 
L 240.87565 58.783372 
L 239.399793 67.055473 
L 238.324982 76.351013 
L 233.758555 87.770963 
L 229.978081 99.692067 
L 226.144276 106.460728 
L 223.085811 112.700045 
L 220.037959 119.969851 
L 213.862171 126.780805 
L 208.066115 132.554218 
L 201.874363 137.819438 
L 193.736324 143.63514 
L 188.330524 149.401505 
L 182.154736 156.212459 
L 171.000949 172.389435 
L 166.739432 175.558434 
L 164.397448 175.600723 
L 165.210155 178.67809 
L 161.745293 183.378726 
L 157.521143 190.154435 
L 153.28638 195.899655 
L 150.575454 198.009973 
L 145.56 203.769285 
L 142.843723 205.364357 
L 141.287781 205.907796 
L 139.368248 209.034505 
L 136.64662 210.114335 
L 133.556051 213.262189 
L 130.444167 214.349062 
L 131.893359 203.500739 
L 133.716844 191.099639 
L 136.711277 178.677389 
L 140.908672 169.325458 
L 143.951174 161.540406 
L 148.169973 154.249456 
L 152.394123 147.473743 
L 157.778519 139.646402 
L 163.965009 133.865941 
L 168.221176 130.181696 
L 172.8783 127.520896 
L 179.487063 124.82485 
L 185.29926 120.597166 
L 192.635294 112.734585 
L 197.629345 104.914292 
L 204.163374 95.004826 
L 209.547859 87.17748 
L 215.691542 77.275067 
L 222.246974 69.426582 
L 227.63137 61.599236 
L 234.99407 56.312872 
L 240.447938 55.183705 
L 245.105151 52.5229 
L 250.55893 51.393738 
L 252.884861 49.805714 
L 257.937771 47.653108 
L 259.926687 51.224572 
L 261.172457 58.416843 
L 259.675196 64.627973 
L 257.809083 72.907122 
L 252.889677 87.940835 
L 249.841825 95.21064 
L 245.243382 103.539131 
L 240.24398 110.844182 
L 233.677936 117.662179 
L 228.266785 122.913303 
L 221.278379 126.646885 
L 215.46092 130.359317 
L 207.290775 133.083561 
L 197.58083 137.896968 
L 190.250058 146.274796 
L 184.069007 152.570503 
L 172.856451 163.079794 
L 166.696715 171.436477 
L 162.071517 177.188746 
L 158.221749 182.411672 
L 155.537488 187.098212 
L 152.067364 191.283602 
L 148.591799 194.95375 
L 144.725979 198.630942 
L 138.919132 203.373872 
L 134.668317 207.573354 
L 122.231393 212.951349 
L 117.921808 211.483149 
L 115.130797 205.8648 
L 114.312828 202.272192 
L 116.184293 194.508284 
L 119.590474 184.139962 
L 121.846934 175.85376 
L 124.114095 168.598056 
L 126.798355 163.911516 
L 130.252516 158.180391 
L 134.086321 151.411731 
L 137.925477 145.158317 
L 142.566638 140.951783 
L 148.774442 137.232297 
L 156.944498 134.508059 
L 161.991968 131.840206 
L 166.638479 128.148913 
L 174.797922 124.394186 
L 184.898213 119.573726 
L 192.2503 113.256879 
L 205.419846 103.22759 
L 211.595545 96.41664 
L 221.257511 86.966031 
L 225.503064 82.251298 
L 232.860413 76.449687 
L 237.875867 70.69037 
L 245.222602 63.858277 
L 251.045412 60.661086 
L 256.098233 58.508479 
L 258.440217 58.46619 
L 258.878542 63.096335 
L 257.79303 71.361387 
L 254.761231 80.176927 
L 252.510033 88.978371 
L 247.542648 99.374885 
L 242.163514 107.717473 
L 235.640186 118.657427 
L 227.534163 127.564597 
L 220.561809 132.843909 
L 210.825021 135.081098 
L 200.323683 138.878118 
L 187.106158 144.27021 
L 178.952065 148.540183 
L 173.540915 153.791301 
L 168.899844 157.997836 
L 164.253332 161.689129 
L 158.820778 164.879271 
L 153.805324 170.638588 
L 146.838321 176.433151 
L 143.362757 180.103294 
L 136.780659 185.375563 
L 131.353546 189.080952 
L 126.332741 194.325022 
L 122.071224 197.494021 
L 117.430063 201.700555 
L 114.312828 202.272192 
L 110.441657 205.434137 
L 110.366834 198.220717 
L 112.216984 188.395838 
L 115.639129 179.573245 
L 119.435567 169.19788 
L 124.798649 159.309558 
L 130.188395 151.997464 
L 136.369535 145.701756 
L 146.079569 140.888344 
L 155.784163 135.559691 
L 165.889893 131.254478 
L 175.19888 125.417626 
L 184.128223 120.618316 
L 194.993242 114.238025 
L 202.355941 108.951661 
L 208.938038 103.679393 
L 216.669769 96.325009 
L 226.743394 88.928327 
L 232.945848 84.693595 
L 245.31874 73.132673 
L 252.681439 67.846313 
L 257.349265 66.215996 
L 260.434484 62.552901 
L 262.776468 62.510607 
L 266.267996 60.386198 
L 271.721864 59.257021 
L 277.982998 60.689985 
L 280.009371 67.868159 
L 283.201428 74.509942 
L 287.949339 80.608297 
L 289.981062 88.301718 
L 283.094054 101.824942 
L 278.099915 109.645235 
L 274.645754 115.376354 
L 270.790635 120.084039 
L 264.983788 124.826964 
L 256.43944 129.103985 
L 248.274735 132.34347 
L 229.977546 137.311946 
L 222.572129 138.476354 
L 212.054738 140.72764 
L 207.408316 144.418933 
L 201.96515 146.578587 
L 192.618707 148.808729 
L 182.507714 152.598696 
L 171.263053 160.016523 
L 163.515358 165.825182 
L 156.532303 170.07401 
L 147.217965 175.395615 
L 141.010161 179.115101 
L 134.016403 182.333436 
L 126.252657 186.596361 
L 118.119879 192.927309 
L 111.906812 196.131548 
L 103.34106 198.347593 
L 94.347596 196.963976 
L 88.08111 195.015776 
L 84.905105 189.919717 
L 82.531105 186.870542 
L 82.071377 180.179416 
L 83.188994 175.005828 
L 87.006746 166.691438 
L 92.375179 157.318363 
L 98.155271 149.999215 
L 106.282609 143.153025 
L 112.485062 138.918293 
L 119.494872 137.245687 
L 137.808025 133.822945 
L 151.4373 130.484781 
L 161.569606 128.75579 
L 168.953709 125.530402 
L 182.160622 119.107822 
L 195.410252 116.807199 
L 203.954601 112.530178 
L 214.461289 109.248404 
L 222.631434 106.524166 
L 231.977788 104.294025 
L 244.061822 102.529787 
L 261.637001 103.243093 
L 268.283131 104.153758 
L 275.709952 105.050326 
L 279.629192 106.525574 
L 280.44725 110.118187 
L 277.76834 115.319969 
L 272.362629 121.086334 
L 261.13402 130.04989 
L 242.858234 137.079347 
L 236.629115 138.737852 
L 228.464321 141.977337 
L 216.786685 145.280255 
L 208.605928 146.974005 
L 194.966041 149.281681 
L 182.502364 152.083455 
L 172.391371 155.873427 
L 163.039578 157.588322 
L 152.142633 160.877144 
L 142.395232 162.083845 
L 129.920941 163.855125 
L 108.902213 169.903432 
L 97.967812 169.585543 
L 90.94739 170.227662 
L 90.140034 167.665541 
L 86.627102 167.728979 
L 81.92191 165.752581 
L 78.002669 164.277333 
L 72.452664 156.132104 
L 69.298063 153.097026 
L 69.298063 153.097026 
" clip-path="url(#p24772cabdc)" style="fill: none; stroke-dasharray: 3.7,1.6; stroke-dashoffset: 0; stroke: #000000"/>
   </g>
   <g id="line2d_17">
    <path d="M 57.994063 133.16074 
L 306.682062 133.16074 
" clip-path="url(#p24772cabdc)" style="fill: none; stroke: #000000; stroke-width: 0.4; stroke-linecap: square"/>
   </g>
   <g id="line2d_18">
    <path d="M 188.365483 233.25125 
L 188.365483 22.92125 
" clip-path="url(#p24772cabdc)" style="fill: none; stroke: #000000; stroke-width: 0.4; stroke-linecap: square"/>
   </g>
   <g id="patch_3">
    <path d="M 57.994063 233.25125 
L 57.994063 22.92125 
" style="fill: none; stroke: #000000; stroke-width: 0.8; stroke-linejoin: miter; stroke-linecap: square"/>
   </g>
   <g id="patch_4">
    <path d="M 306.682062 233.25125 
L 306.682062 22.92125 
" style="fill: none; stroke: #000000; stroke-width: 0.8; stroke-linejoin: miter; stroke-linecap: square"/>
   </g>
   <g id="patch_5">
    <path d="M 57.994063 233.25125 
L 306.682062 233.25125 
" style="fill: none; stroke: #000000; stroke-width: 0.8; stroke-linejoin: miter; stroke-linecap: square"/>
   </g>
   <g id="patch_6">
    <path d="M 57.994063 22.92125 
L 306.682062 22.92125 
" style="fill: none; stroke: #000000; stroke-width: 0.8; stroke-linejoin: miter; stroke-linecap: square"/>
   </g>
   <g id="text_10">
    <!-- Specimen (8) - Greifenhagen_M3  -->
    <g transform="translate(85.926187 16.92125) scale(0.14 -0.14)">
     <defs>
      <path id="TimesNewRomanPSMT-53" d="M 2934 4334 
L 2934 2869 
L 2819 2869 
Q 2763 3291 2617 3541 
Q 2472 3791 2203 3937 
Q 1934 4084 1647 4084 
Q 1322 4084 1109 3886 
Q 897 3688 897 3434 
Q 897 3241 1031 3081 
Q 1225 2847 1953 2456 
Q 2547 2138 2764 1967 
Q 2981 1797 3098 1565 
Q 3216 1334 3216 1081 
Q 3216 600 2842 251 
Q 2469 -97 1881 -97 
Q 1697 -97 1534 -69 
Q 1438 -53 1133 45 
Q 828 144 747 144 
Q 669 144 623 97 
Q 578 50 556 -97 
L 441 -97 
L 441 1356 
L 556 1356 
Q 638 900 775 673 
Q 913 447 1195 297 
Q 1478 147 1816 147 
Q 2206 147 2432 353 
Q 2659 559 2659 841 
Q 2659 997 2573 1156 
Q 2488 1316 2306 1453 
Q 2184 1547 1640 1851 
Q 1097 2156 867 2337 
Q 638 2519 519 2737 
Q 400 2956 400 3219 
Q 400 3675 750 4004 
Q 1100 4334 1641 4334 
Q 1978 4334 2356 4169 
Q 2531 4091 2603 4091 
Q 2684 4091 2736 4139 
Q 2788 4188 2819 4334 
L 2934 4334 
z
" transform="scale(0.015625)"/>
      <path id="TimesNewRomanPSMT-70" d="M -6 2578 
L 875 2934 
L 994 2934 
L 994 2266 
Q 1216 2644 1439 2795 
Q 1663 2947 1909 2947 
Q 2341 2947 2628 2609 
Q 2981 2197 2981 1534 
Q 2981 794 2556 309 
Q 2206 -88 1675 -88 
Q 1444 -88 1275 -22 
Q 1150 25 994 166 
L 994 -706 
Q 994 -1000 1030 -1079 
Q 1066 -1159 1155 -1206 
Q 1244 -1253 1478 -1253 
L 1478 -1369 
L -22 -1369 
L -22 -1253 
L 56 -1253 
Q 228 -1256 350 -1188 
Q 409 -1153 442 -1076 
Q 475 -1000 475 -688 
L 475 2019 
Q 475 2297 450 2372 
Q 425 2447 370 2484 
Q 316 2522 222 2522 
Q 147 2522 31 2478 
L -6 2578 
z
M 994 2081 
L 994 1013 
Q 994 666 1022 556 
Q 1066 375 1236 237 
Q 1406 100 1666 100 
Q 1978 100 2172 344 
Q 2425 663 2425 1241 
Q 2425 1897 2138 2250 
Q 1938 2494 1663 2494 
Q 1513 2494 1366 2419 
Q 1253 2363 994 2081 
z
" transform="scale(0.015625)"/>
      <path id="TimesNewRomanPSMT-65" d="M 681 1784 
Q 678 1147 991 784 
Q 1303 422 1725 422 
Q 2006 422 2214 576 
Q 2422 731 2563 1106 
L 2659 1044 
Q 2594 616 2278 264 
Q 1963 -88 1488 -88 
Q 972 -88 605 314 
Q 238 716 238 1394 
Q 238 2128 614 2539 
Q 991 2950 1559 2950 
Q 2041 2950 2350 2633 
Q 2659 2316 2659 1784 
L 681 1784 
z
M 681 1966 
L 2006 1966 
Q 1991 2241 1941 2353 
Q 1863 2528 1708 2628 
Q 1553 2728 1384 2728 
Q 1125 2728 920 2526 
Q 716 2325 681 1966 
z
" transform="scale(0.015625)"/>
      <path id="TimesNewRomanPSMT-63" d="M 2631 1088 
Q 2516 522 2178 217 
Q 1841 -88 1431 -88 
Q 944 -88 581 321 
Q 219 731 219 1428 
Q 219 2103 620 2525 
Q 1022 2947 1584 2947 
Q 2006 2947 2278 2723 
Q 2550 2500 2550 2259 
Q 2550 2141 2473 2067 
Q 2397 1994 2259 1994 
Q 2075 1994 1981 2113 
Q 1928 2178 1911 2362 
Q 1894 2547 1784 2644 
Q 1675 2738 1481 2738 
Q 1169 2738 978 2506 
Q 725 2200 725 1697 
Q 725 1184 976 792 
Q 1228 400 1656 400 
Q 1963 400 2206 609 
Q 2378 753 2541 1131 
L 2631 1088 
z
" transform="scale(0.015625)"/>
      <path id="TimesNewRomanPSMT-69" d="M 928 4444 
Q 1059 4444 1151 4351 
Q 1244 4259 1244 4128 
Q 1244 3997 1151 3903 
Q 1059 3809 928 3809 
Q 797 3809 703 3903 
Q 609 3997 609 4128 
Q 609 4259 701 4351 
Q 794 4444 928 4444 
z
M 1188 2947 
L 1188 647 
Q 1188 378 1227 289 
Q 1266 200 1342 156 
Q 1419 113 1622 113 
L 1622 0 
L 231 0 
L 231 113 
Q 441 113 512 153 
Q 584 194 626 287 
Q 669 381 669 647 
L 669 1750 
Q 669 2216 641 2353 
Q 619 2453 572 2492 
Q 525 2531 444 2531 
Q 356 2531 231 2484 
L 188 2597 
L 1050 2947 
L 1188 2947 
z
" transform="scale(0.015625)"/>
      <path id="TimesNewRomanPSMT-6d" d="M 1050 2338 
Q 1363 2650 1419 2697 
Q 1559 2816 1721 2881 
Q 1884 2947 2044 2947 
Q 2313 2947 2506 2790 
Q 2700 2634 2766 2338 
Q 3088 2713 3309 2830 
Q 3531 2947 3766 2947 
Q 3994 2947 4170 2830 
Q 4347 2713 4450 2447 
Q 4519 2266 4519 1878 
L 4519 647 
Q 4519 378 4559 278 
Q 4591 209 4675 161 
Q 4759 113 4950 113 
L 4950 0 
L 3538 0 
L 3538 113 
L 3597 113 
Q 3781 113 3884 184 
Q 3956 234 3988 344 
Q 4000 397 4000 647 
L 4000 1878 
Q 4000 2228 3916 2372 
Q 3794 2572 3525 2572 
Q 3359 2572 3192 2489 
Q 3025 2406 2788 2181 
L 2781 2147 
L 2788 2013 
L 2788 647 
Q 2788 353 2820 281 
Q 2853 209 2943 161 
Q 3034 113 3253 113 
L 3253 0 
L 1806 0 
L 1806 113 
Q 2044 113 2133 169 
Q 2222 225 2256 338 
Q 2272 391 2272 647 
L 2272 1878 
Q 2272 2228 2169 2381 
Q 2031 2581 1784 2581 
Q 1616 2581 1450 2491 
Q 1191 2353 1050 2181 
L 1050 647 
Q 1050 366 1089 281 
Q 1128 197 1204 155 
Q 1281 113 1516 113 
L 1516 0 
L 100 0 
L 100 113 
Q 297 113 375 155 
Q 453 197 493 289 
Q 534 381 534 647 
L 534 1741 
Q 534 2213 506 2350 
Q 484 2453 437 2492 
Q 391 2531 309 2531 
Q 222 2531 100 2484 
L 53 2597 
L 916 2947 
L 1050 2947 
L 1050 2338 
z
" transform="scale(0.015625)"/>
      <path id="TimesNewRomanPSMT-6e" d="M 1034 2341 
Q 1538 2947 1994 2947 
Q 2228 2947 2397 2830 
Q 2566 2713 2666 2444 
Q 2734 2256 2734 1869 
L 2734 647 
Q 2734 375 2778 278 
Q 2813 200 2889 156 
Q 2966 113 3172 113 
L 3172 0 
L 1756 0 
L 1756 113 
L 1816 113 
Q 2016 113 2095 173 
Q 2175 234 2206 353 
Q 2219 400 2219 647 
L 2219 1819 
Q 2219 2209 2117 2386 
Q 2016 2563 1775 2563 
Q 1403 2563 1034 2156 
L 1034 647 
Q 1034 356 1069 288 
Q 1113 197 1189 155 
Q 1266 113 1500 113 
L 1500 0 
L 84 0 
L 84 113 
L 147 113 
Q 366 113 442 223 
Q 519 334 519 647 
L 519 1709 
Q 519 2225 495 2337 
Q 472 2450 423 2490 
Q 375 2531 294 2531 
Q 206 2531 84 2484 
L 38 2597 
L 900 2947 
L 1034 2947 
L 1034 2341 
z
" transform="scale(0.015625)"/>
      <path id="TimesNewRomanPSMT-20" transform="scale(0.015625)"/>
      <path id="TimesNewRomanPSMT-28" d="M 1988 -1253 
L 1988 -1369 
Q 1516 -1131 1200 -813 
Q 750 -359 506 256 
Q 263 872 263 1534 
Q 263 2503 741 3301 
Q 1219 4100 1988 4444 
L 1988 4313 
Q 1603 4100 1356 3731 
Q 1109 3363 987 2797 
Q 866 2231 866 1616 
Q 866 947 969 400 
Q 1050 -31 1165 -292 
Q 1281 -553 1476 -793 
Q 1672 -1034 1988 -1253 
z
" transform="scale(0.015625)"/>
      <path id="TimesNewRomanPSMT-38" d="M 1228 2134 
Q 725 2547 579 2797 
Q 434 3047 434 3316 
Q 434 3728 753 4026 
Q 1072 4325 1600 4325 
Q 2113 4325 2425 4047 
Q 2738 3769 2738 3413 
Q 2738 3175 2569 2928 
Q 2400 2681 1866 2347 
Q 2416 1922 2594 1678 
Q 2831 1359 2831 1006 
Q 2831 559 2490 242 
Q 2150 -75 1597 -75 
Q 994 -75 656 303 
Q 388 606 388 966 
Q 388 1247 577 1523 
Q 766 1800 1228 2134 
z
M 1719 2469 
Q 2094 2806 2194 3001 
Q 2294 3197 2294 3444 
Q 2294 3772 2109 3958 
Q 1925 4144 1606 4144 
Q 1288 4144 1088 3959 
Q 888 3775 888 3528 
Q 888 3366 970 3203 
Q 1053 3041 1206 2894 
L 1719 2469 
z
M 1375 2016 
Q 1116 1797 991 1539 
Q 866 1281 866 981 
Q 866 578 1086 336 
Q 1306 94 1647 94 
Q 1984 94 2187 284 
Q 2391 475 2391 747 
Q 2391 972 2272 1150 
Q 2050 1481 1375 2016 
z
" transform="scale(0.015625)"/>
      <path id="TimesNewRomanPSMT-29" d="M 144 4313 
L 144 4444 
Q 619 4209 934 3891 
Q 1381 3434 1625 2820 
Q 1869 2206 1869 1541 
Q 1869 572 1392 -226 
Q 916 -1025 144 -1369 
L 144 -1253 
Q 528 -1038 776 -670 
Q 1025 -303 1145 264 
Q 1266 831 1266 1447 
Q 1266 2113 1163 2663 
Q 1084 3094 967 3353 
Q 850 3613 656 3853 
Q 463 4094 144 4313 
z
" transform="scale(0.015625)"/>
      <path id="TimesNewRomanPSMT-2d" d="M 259 1672 
L 1875 1672 
L 1875 1200 
L 259 1200 
L 259 1672 
z
" transform="scale(0.015625)"/>
      <path id="TimesNewRomanPSMT-47" d="M 3928 4334 
L 4038 2997 
L 3928 2997 
Q 3763 3497 3500 3750 
Q 3122 4116 2528 4116 
Q 1719 4116 1297 3475 
Q 944 2934 944 2188 
Q 944 1581 1178 1081 
Q 1413 581 1792 348 
Q 2172 116 2572 116 
Q 2806 116 3025 175 
Q 3244 234 3447 350 
L 3447 1575 
Q 3447 1894 3398 1992 
Q 3350 2091 3248 2142 
Q 3147 2194 2891 2194 
L 2891 2313 
L 4531 2313 
L 4531 2194 
L 4453 2194 
Q 4209 2194 4119 2031 
Q 4056 1916 4056 1575 
L 4056 278 
Q 3697 84 3347 -6 
Q 2997 -97 2569 -97 
Q 1341 -97 703 691 
Q 225 1281 225 2053 
Q 225 2613 494 3125 
Q 813 3734 1369 4063 
Q 1834 4334 2469 4334 
Q 2700 4334 2889 4296 
Q 3078 4259 3425 4131 
Q 3600 4066 3659 4066 
Q 3719 4066 3761 4120 
Q 3803 4175 3813 4334 
L 3928 4334 
z
" transform="scale(0.015625)"/>
      <path id="TimesNewRomanPSMT-72" d="M 1038 2947 
L 1038 2303 
Q 1397 2947 1775 2947 
Q 1947 2947 2059 2842 
Q 2172 2738 2172 2600 
Q 2172 2478 2090 2393 
Q 2009 2309 1897 2309 
Q 1788 2309 1652 2417 
Q 1516 2525 1450 2525 
Q 1394 2525 1328 2463 
Q 1188 2334 1038 2041 
L 1038 669 
Q 1038 431 1097 309 
Q 1138 225 1241 169 
Q 1344 113 1538 113 
L 1538 0 
L 72 0 
L 72 113 
Q 291 113 397 181 
Q 475 231 506 341 
Q 522 394 522 644 
L 522 1753 
Q 522 2253 501 2348 
Q 481 2444 426 2487 
Q 372 2531 291 2531 
Q 194 2531 72 2484 
L 41 2597 
L 906 2947 
L 1038 2947 
z
" transform="scale(0.015625)"/>
      <path id="TimesNewRomanPSMT-66" d="M 1319 2638 
L 1319 756 
Q 1319 356 1406 250 
Q 1522 113 1716 113 
L 1975 113 
L 1975 0 
L 266 0 
L 266 113 
L 394 113 
Q 519 113 622 175 
Q 725 238 764 344 
Q 803 450 803 756 
L 803 2638 
L 247 2638 
L 247 2863 
L 803 2863 
L 803 3050 
Q 803 3478 940 3775 
Q 1078 4072 1361 4255 
Q 1644 4438 1997 4438 
Q 2325 4438 2600 4225 
Q 2781 4084 2781 3909 
Q 2781 3816 2700 3733 
Q 2619 3650 2525 3650 
Q 2453 3650 2373 3701 
Q 2294 3753 2178 3923 
Q 2063 4094 1966 4153 
Q 1869 4213 1750 4213 
Q 1606 4213 1506 4136 
Q 1406 4059 1362 3898 
Q 1319 3738 1319 3069 
L 1319 2863 
L 2056 2863 
L 2056 2638 
L 1319 2638 
z
" transform="scale(0.015625)"/>
      <path id="TimesNewRomanPSMT-68" d="M 1041 4444 
L 1041 2350 
Q 1388 2731 1591 2839 
Q 1794 2947 1997 2947 
Q 2241 2947 2416 2812 
Q 2591 2678 2675 2391 
Q 2734 2191 2734 1659 
L 2734 647 
Q 2734 375 2778 275 
Q 2809 200 2884 156 
Q 2959 113 3159 113 
L 3159 0 
L 1753 0 
L 1753 113 
L 1819 113 
Q 2019 113 2097 173 
Q 2175 234 2206 353 
Q 2216 403 2216 647 
L 2216 1659 
Q 2216 2128 2167 2275 
Q 2119 2422 2012 2495 
Q 1906 2569 1756 2569 
Q 1603 2569 1437 2487 
Q 1272 2406 1041 2159 
L 1041 647 
Q 1041 353 1073 281 
Q 1106 209 1195 161 
Q 1284 113 1503 113 
L 1503 0 
L 84 0 
L 84 113 
Q 275 113 384 172 
Q 447 203 484 290 
Q 522 378 522 647 
L 522 3238 
Q 522 3728 498 3840 
Q 475 3953 426 3993 
Q 378 4034 297 4034 
Q 231 4034 84 3984 
L 41 4094 
L 897 4444 
L 1041 4444 
z
" transform="scale(0.015625)"/>
      <path id="TimesNewRomanPSMT-61" d="M 1822 413 
Q 1381 72 1269 19 
Q 1100 -59 909 -59 
Q 613 -59 420 144 
Q 228 347 228 678 
Q 228 888 322 1041 
Q 450 1253 767 1440 
Q 1084 1628 1822 1897 
L 1822 2009 
Q 1822 2438 1686 2597 
Q 1550 2756 1291 2756 
Q 1094 2756 978 2650 
Q 859 2544 859 2406 
L 866 2225 
Q 866 2081 792 2003 
Q 719 1925 600 1925 
Q 484 1925 411 2006 
Q 338 2088 338 2228 
Q 338 2497 613 2722 
Q 888 2947 1384 2947 
Q 1766 2947 2009 2819 
Q 2194 2722 2281 2516 
Q 2338 2381 2338 1966 
L 2338 994 
Q 2338 584 2353 492 
Q 2369 400 2405 369 
Q 2441 338 2488 338 
Q 2538 338 2575 359 
Q 2641 400 2828 588 
L 2828 413 
Q 2478 -56 2159 -56 
Q 2006 -56 1915 50 
Q 1825 156 1822 413 
z
M 1822 616 
L 1822 1706 
Q 1350 1519 1213 1441 
Q 966 1303 859 1153 
Q 753 1003 753 825 
Q 753 600 887 451 
Q 1022 303 1197 303 
Q 1434 303 1822 616 
z
" transform="scale(0.015625)"/>
      <path id="TimesNewRomanPSMT-67" d="M 966 1044 
Q 703 1172 562 1401 
Q 422 1631 422 1909 
Q 422 2334 742 2640 
Q 1063 2947 1563 2947 
Q 1972 2947 2272 2747 
L 2878 2747 
Q 3013 2747 3034 2739 
Q 3056 2731 3066 2713 
Q 3084 2684 3084 2613 
Q 3084 2531 3069 2500 
Q 3059 2484 3036 2475 
Q 3013 2466 2878 2466 
L 2506 2466 
Q 2681 2241 2681 1891 
Q 2681 1491 2375 1206 
Q 2069 922 1553 922 
Q 1341 922 1119 984 
Q 981 866 932 777 
Q 884 688 884 625 
Q 884 572 936 522 
Q 988 472 1138 450 
Q 1225 438 1575 428 
Q 2219 413 2409 384 
Q 2700 344 2873 169 
Q 3047 -6 3047 -263 
Q 3047 -616 2716 -925 
Q 2228 -1381 1444 -1381 
Q 841 -1381 425 -1109 
Q 191 -953 191 -784 
Q 191 -709 225 -634 
Q 278 -519 444 -313 
Q 466 -284 763 25 
Q 600 122 533 198 
Q 466 275 466 372 
Q 466 481 555 628 
Q 644 775 966 1044 
z
M 1509 2797 
Q 1278 2797 1122 2612 
Q 966 2428 966 2047 
Q 966 1553 1178 1281 
Q 1341 1075 1591 1075 
Q 1828 1075 1981 1253 
Q 2134 1431 2134 1813 
Q 2134 2309 1919 2591 
Q 1759 2797 1509 2797 
z
M 934 0 
Q 788 -159 713 -296 
Q 638 -434 638 -550 
Q 638 -700 819 -813 
Q 1131 -1006 1722 -1006 
Q 2284 -1006 2551 -807 
Q 2819 -609 2819 -384 
Q 2819 -222 2659 -153 
Q 2497 -84 2016 -72 
Q 1313 -53 934 0 
z
" transform="scale(0.015625)"/>
      <path id="TimesNewRomanPSMT-5f" d="M 3256 -1381 
L -53 -1381 
L -53 -1119 
L 3256 -1119 
L 3256 -1381 
z
" transform="scale(0.015625)"/>
      <path id="TimesNewRomanPSMT-4d" d="M 2619 0 
L 981 3566 
L 981 734 
Q 981 344 1066 247 
Q 1181 116 1431 116 
L 1581 116 
L 1581 0 
L 106 0 
L 106 116 
L 256 116 
Q 525 116 638 278 
Q 706 378 706 734 
L 706 3503 
Q 706 3784 644 3909 
Q 600 4000 483 4061 
Q 366 4122 106 4122 
L 106 4238 
L 1306 4238 
L 2844 922 
L 4356 4238 
L 5556 4238 
L 5556 4122 
L 5409 4122 
Q 5138 4122 5025 3959 
Q 4956 3859 4956 3503 
L 4956 734 
Q 4956 344 5044 247 
Q 5159 116 5409 116 
L 5556 116 
L 5556 0 
L 3756 0 
L 3756 116 
L 3906 116 
Q 4178 116 4288 278 
Q 4356 378 4356 734 
L 4356 3566 
L 2722 0 
L 2619 0 
z
" transform="scale(0.015625)"/>
      <path id="TimesNewRomanPSMT-33" d="M 325 3431 
Q 506 3859 782 4092 
Q 1059 4325 1472 4325 
Q 1981 4325 2253 3994 
Q 2459 3747 2459 3466 
Q 2459 3003 1878 2509 
Q 2269 2356 2469 2072 
Q 2669 1788 2669 1403 
Q 2669 853 2319 450 
Q 1863 -75 997 -75 
Q 569 -75 414 31 
Q 259 138 259 259 
Q 259 350 332 419 
Q 406 488 509 488 
Q 588 488 669 463 
Q 722 447 909 348 
Q 1097 250 1169 231 
Q 1284 197 1416 197 
Q 1734 197 1970 444 
Q 2206 691 2206 1028 
Q 2206 1275 2097 1509 
Q 2016 1684 1919 1775 
Q 1784 1900 1550 2001 
Q 1316 2103 1072 2103 
L 972 2103 
L 972 2197 
Q 1219 2228 1467 2375 
Q 1716 2522 1828 2728 
Q 1941 2934 1941 3181 
Q 1941 3503 1739 3701 
Q 1538 3900 1238 3900 
Q 753 3900 428 3381 
L 325 3431 
z
" transform="scale(0.015625)"/>
     </defs>
     <use xlink:href="#TimesNewRomanPSMT-53"/>
     <use xlink:href="#TimesNewRomanPSMT-70" x="55.615234"/>
     <use xlink:href="#TimesNewRomanPSMT-65" x="105.615234"/>
     <use xlink:href="#TimesNewRomanPSMT-63" x="150"/>
     <use xlink:href="#TimesNewRomanPSMT-69" x="194.384766"/>
     <use xlink:href="#TimesNewRomanPSMT-6d" x="222.167969"/>
     <use xlink:href="#TimesNewRomanPSMT-65" x="299.951172"/>
     <use xlink:href="#TimesNewRomanPSMT-6e" x="344.335938"/>
     <use xlink:href="#TimesNewRomanPSMT-20" x="394.335938"/>
     <use xlink:href="#TimesNewRomanPSMT-28" x="419.335938"/>
     <use xlink:href="#TimesNewRomanPSMT-38" x="452.636719"/>
     <use xlink:href="#TimesNewRomanPSMT-29" x="502.636719"/>
     <use xlink:href="#TimesNewRomanPSMT-20" x="535.9375"/>
     <use xlink:href="#TimesNewRomanPSMT-2d" x="560.9375"/>
     <use xlink:href="#TimesNewRomanPSMT-20" x="594.238281"/>
     <use xlink:href="#TimesNewRomanPSMT-47" x="619.238281"/>
     <use xlink:href="#TimesNewRomanPSMT-72" x="691.455078"/>
     <use xlink:href="#TimesNewRomanPSMT-65" x="724.755859"/>
     <use xlink:href="#TimesNewRomanPSMT-69" x="769.140625"/>
     <use xlink:href="#TimesNewRomanPSMT-66" x="796.923828"/>
     <use xlink:href="#TimesNewRomanPSMT-65" x="830.224609"/>
     <use xlink:href="#TimesNewRomanPSMT-6e" x="874.609375"/>
     <use xlink:href="#TimesNewRomanPSMT-68" x="924.609375"/>
     <use xlink:href="#TimesNewRomanPSMT-61" x="974.609375"/>
     <use xlink:href="#TimesNewRomanPSMT-67" x="1018.994141"/>
     <use xlink:href="#TimesNewRomanPSMT-65" x="1068.994141"/>
     <use xlink:href="#TimesNewRomanPSMT-6e" x="1113.378906"/>
     <use xlink:href="#TimesNewRomanPSMT-5f" x="1163.378906"/>
     <use xlink:href="#TimesNewRomanPSMT-4d" x="1213.378906"/>
     <use xlink:href="#TimesNewRomanPSMT-33" x="1302.294922"/>
     <use xlink:href="#TimesNewRomanPSMT-20" x="1352.294922"/>
    </g>
   </g>
   <g id="legend_1">
    <g id="patch_7">
     <path d="M 64.294063 55.571563 
L 151.331094 55.571563 
Q 153.131094 55.571563 153.131094 53.771563 
L 153.131094 29.22125 
Q 153.131094 27.42125 151.331094 27.42125 
L 64.294063 27.42125 
Q 62.494063 27.42125 62.494063 29.22125 
L 62.494063 53.771563 
Q 62.494063 55.571563 64.294063 55.571563 
z
" style="fill: #ffffff; opacity: 0.8; stroke: #cccccc; stroke-linejoin: miter"/>
    </g>
    <g id="line2d_19">
     <path d="M 66.094063 34.17125 
L 75.094063 34.17125 
L 84.094063 34.17125 
" style="fill: none; stroke: #0000ff; stroke-width: 1.2; stroke-linecap: square"/>
    </g>
    <g id="text_11">
     <!-- DNN prediction -->
     <g transform="translate(91.294063 37.32125) scale(0.09 -0.09)">
      <defs>
       <path id="TimesNewRomanPSMT-44" d="M 109 0 
L 109 116 
L 269 116 
Q 538 116 650 288 
Q 719 391 719 750 
L 719 3488 
Q 719 3884 631 3984 
Q 509 4122 269 4122 
L 109 4122 
L 109 4238 
L 1834 4238 
Q 2784 4238 3279 4022 
Q 3775 3806 4076 3303 
Q 4378 2800 4378 2141 
Q 4378 1256 3841 663 
Q 3238 0 2003 0 
L 109 0 
z
M 1319 306 
Q 1716 219 1984 219 
Q 2709 219 3187 728 
Q 3666 1238 3666 2109 
Q 3666 2988 3187 3494 
Q 2709 4000 1959 4000 
Q 1678 4000 1319 3909 
L 1319 306 
z
" transform="scale(0.015625)"/>
       <path id="TimesNewRomanPSMT-4e" d="M -84 4238 
L 1066 4238 
L 3656 1059 
L 3656 3503 
Q 3656 3894 3569 3991 
Q 3453 4122 3203 4122 
L 3056 4122 
L 3056 4238 
L 4531 4238 
L 4531 4122 
L 4381 4122 
Q 4113 4122 4000 3959 
Q 3931 3859 3931 3503 
L 3931 -69 
L 3819 -69 
L 1025 3344 
L 1025 734 
Q 1025 344 1109 247 
Q 1228 116 1475 116 
L 1625 116 
L 1625 0 
L 150 0 
L 150 116 
L 297 116 
Q 569 116 681 278 
Q 750 378 750 734 
L 750 3681 
Q 566 3897 470 3965 
Q 375 4034 191 4094 
Q 100 4122 -84 4122 
L -84 4238 
z
" transform="scale(0.015625)"/>
       <path id="TimesNewRomanPSMT-64" d="M 2222 322 
Q 2013 103 1813 7 
Q 1613 -88 1381 -88 
Q 913 -88 563 304 
Q 213 697 213 1313 
Q 213 1928 600 2439 
Q 988 2950 1597 2950 
Q 1975 2950 2222 2709 
L 2222 3238 
Q 2222 3728 2198 3840 
Q 2175 3953 2125 3993 
Q 2075 4034 2000 4034 
Q 1919 4034 1784 3984 
L 1744 4094 
L 2597 4444 
L 2738 4444 
L 2738 1134 
Q 2738 631 2761 520 
Q 2784 409 2836 365 
Q 2888 322 2956 322 
Q 3041 322 3181 375 
L 3216 266 
L 2366 -88 
L 2222 -88 
L 2222 322 
z
M 2222 541 
L 2222 2016 
Q 2203 2228 2109 2403 
Q 2016 2578 1861 2667 
Q 1706 2756 1559 2756 
Q 1284 2756 1069 2509 
Q 784 2184 784 1559 
Q 784 928 1059 592 
Q 1334 256 1672 256 
Q 1956 256 2222 541 
z
" transform="scale(0.015625)"/>
       <path id="TimesNewRomanPSMT-74" d="M 1031 3803 
L 1031 2863 
L 1700 2863 
L 1700 2644 
L 1031 2644 
L 1031 788 
Q 1031 509 1111 412 
Q 1191 316 1316 316 
Q 1419 316 1516 380 
Q 1613 444 1666 569 
L 1788 569 
Q 1678 263 1478 108 
Q 1278 -47 1066 -47 
Q 922 -47 784 33 
Q 647 113 581 261 
Q 516 409 516 719 
L 516 2644 
L 63 2644 
L 63 2747 
Q 234 2816 414 2980 
Q 594 3144 734 3369 
Q 806 3488 934 3803 
L 1031 3803 
z
" transform="scale(0.015625)"/>
       <path id="TimesNewRomanPSMT-6f" d="M 1600 2947 
Q 2250 2947 2644 2453 
Q 2978 2031 2978 1484 
Q 2978 1100 2793 706 
Q 2609 313 2286 112 
Q 1963 -88 1566 -88 
Q 919 -88 538 428 
Q 216 863 216 1403 
Q 216 1797 411 2186 
Q 606 2575 925 2761 
Q 1244 2947 1600 2947 
z
M 1503 2744 
Q 1338 2744 1170 2645 
Q 1003 2547 900 2300 
Q 797 2053 797 1666 
Q 797 1041 1045 587 
Q 1294 134 1700 134 
Q 2003 134 2200 384 
Q 2397 634 2397 1244 
Q 2397 2006 2069 2444 
Q 1847 2744 1503 2744 
z
" transform="scale(0.015625)"/>
      </defs>
      <use xlink:href="#TimesNewRomanPSMT-44"/>
      <use xlink:href="#TimesNewRomanPSMT-4e" x="72.216797"/>
      <use xlink:href="#TimesNewRomanPSMT-4e" x="144.433594"/>
      <use xlink:href="#TimesNewRomanPSMT-20" x="216.650391"/>
      <use xlink:href="#TimesNewRomanPSMT-70" x="241.650391"/>
      <use xlink:href="#TimesNewRomanPSMT-72" x="291.650391"/>
      <use xlink:href="#TimesNewRomanPSMT-65" x="324.951172"/>
      <use xlink:href="#TimesNewRomanPSMT-64" x="369.335938"/>
      <use xlink:href="#TimesNewRomanPSMT-69" x="419.335938"/>
      <use xlink:href="#TimesNewRomanPSMT-63" x="447.119141"/>
      <use xlink:href="#TimesNewRomanPSMT-74" x="491.503906"/>
      <use xlink:href="#TimesNewRomanPSMT-69" x="519.287109"/>
      <use xlink:href="#TimesNewRomanPSMT-6f" x="547.070312"/>
      <use xlink:href="#TimesNewRomanPSMT-6e" x="597.070312"/>
     </g>
    </g>
    <g id="line2d_20">
     <path d="M 66.094063 46.896406 
L 75.094063 46.896406 
L 84.094063 46.896406 
" style="fill: none; stroke-dasharray: 3.7,1.6; stroke-dashoffset: 0; stroke: #000000"/>
    </g>
    <g id="text_12">
     <!-- Reference (8) -->
     <g transform="translate(91.294063 50.046406) scale(0.09 -0.09)">
      <defs>
       <path id="TimesNewRomanPSMT-52" d="M 4325 0 
L 3194 0 
L 1759 1981 
Q 1600 1975 1500 1975 
Q 1459 1975 1412 1976 
Q 1366 1978 1316 1981 
L 1316 750 
Q 1316 350 1403 253 
Q 1522 116 1759 116 
L 1925 116 
L 1925 0 
L 109 0 
L 109 116 
L 269 116 
Q 538 116 653 291 
Q 719 388 719 750 
L 719 3488 
Q 719 3888 631 3984 
Q 509 4122 269 4122 
L 109 4122 
L 109 4238 
L 1653 4238 
Q 2328 4238 2648 4139 
Q 2969 4041 3192 3777 
Q 3416 3513 3416 3147 
Q 3416 2756 3161 2468 
Q 2906 2181 2372 2063 
L 3247 847 
Q 3547 428 3762 290 
Q 3978 153 4325 116 
L 4325 0 
z
M 1316 2178 
Q 1375 2178 1419 2176 
Q 1463 2175 1491 2175 
Q 2097 2175 2405 2437 
Q 2713 2700 2713 3106 
Q 2713 3503 2464 3751 
Q 2216 4000 1806 4000 
Q 1625 4000 1316 3941 
L 1316 2178 
z
" transform="scale(0.015625)"/>
      </defs>
      <use xlink:href="#TimesNewRomanPSMT-52"/>
      <use xlink:href="#TimesNewRomanPSMT-65" x="66.699219"/>
      <use xlink:href="#TimesNewRomanPSMT-66" x="111.083984"/>
      <use xlink:href="#TimesNewRomanPSMT-65" x="144.384766"/>
      <use xlink:href="#TimesNewRomanPSMT-72" x="188.769531"/>
      <use xlink:href="#TimesNewRomanPSMT-65" x="222.070312"/>
      <use xlink:href="#TimesNewRomanPSMT-6e" x="266.455078"/>
      <use xlink:href="#TimesNewRomanPSMT-63" x="316.455078"/>
      <use xlink:href="#TimesNewRomanPSMT-65" x="360.839844"/>
      <use xlink:href="#TimesNewRomanPSMT-20" x="405.224609"/>
      <use xlink:href="#TimesNewRomanPSMT-28" x="430.224609"/>
      <use xlink:href="#TimesNewRomanPSMT-38" x="463.525391"/>
      <use xlink:href="#TimesNewRomanPSMT-29" x="513.525391"/>
     </g>
    </g>
   </g>
  </g>
 </g>
 <defs>
  <clipPath id="p24772cabdc">
   <rect x="57.994063" y="22.92125" width="248.688" height="210.33"/>
  </clipPath>
 </defs>
</svg>
