<?xml version="1.0" encoding="utf-8" standalone="no"?>
<!DOCTYPE svg PUBLIC "-//W3C//DTD SVG 1.1//EN"
  "http://www.w3.org/Graphics/SVG/1.1/DTD/svg11.dtd">
<svg xmlns:xlink="http://www.w3.org/1999/xlink" width="313.882062pt" height="275.066563pt" viewBox="0 0 313.882062 275.066563" xmlns="http://www.w3.org/2000/svg" version="1.1">
 <metadata>
  <rdf:RDF xmlns:dc="http://purl.org/dc/elements/1.1/" xmlns:cc="http://creativecommons.org/ns#" xmlns:rdf="http://www.w3.org/1999/02/22-rdf-syntax-ns#">
   <cc:Work>
    <dc:type rdf:resource="http://purl.org/dc/dcmitype/StillImage"/>
    <dc:date>2024-02-27T17:27:26.494443</dc:date>
    <dc:format>image/svg+xml</dc:format>
    <dc:creator>
     <cc:Agent>
      <dc:title>Matplotlib v3.7.1, https://matplotlib.org/</dc:title>
     </cc:Agent>
    </dc:creator>
   </cc:Work>
  </rdf:RDF>
 </metadata>
 <defs>
  <style type="text/css">*{stroke-linejoin: round; stroke-linecap: butt}</style>
 </defs>
 <g id="figure_1">
  <g id="patch_1">
   <path d="M 0 275.066563 
L 313.882062 275.066563 
L 313.882062 0 
L 0 0 
z
" style="fill: #ffffff"/>
  </g>
  <g id="axes_1">
   <g id="patch_2">
    <path d="M 57.994063 233.25125 
L 306.682062 233.25125 
L 306.682062 22.92125 
L 57.994063 22.92125 
z
" style="fill: #ffffff"/>
   </g>
   <g id="matplotlib.axis_1">
    <g id="xtick_1">
     <g id="line2d_1">
      <path d="M 109.151909 233.25125 
L 109.151909 22.92125 
" clip-path="url(#p704e8c96e1)" style="fill: none; stroke-dasharray: 0.8,1.32; stroke-dashoffset: 0; stroke: #b0b0b0; stroke-width: 0.8"/>
     </g>
     <g id="line2d_2">
      <defs>
       <path id="m0d2c5cffd6" d="M 0 0 
L 0 3.5 
" style="stroke: #000000; stroke-width: 0.8"/>
      </defs>
      <g>
       <use xlink:href="#m0d2c5cffd6" x="109.151909" y="233.25125" style="stroke: #000000; stroke-width: 0.8"/>
      </g>
     </g>
     <g id="text_1">
      <!-- −100 -->
      <g transform="translate(94.704565 249.9725) scale(0.14 -0.14)">
       <defs>
        <path id="TimesNewRomanPSMT-2212" d="M 3484 2000 
L 116 2000 
L 116 2256 
L 3484 2256 
L 3484 2000 
z
" transform="scale(0.015625)"/>
        <path id="TimesNewRomanPSMT-31" d="M 750 3822 
L 1781 4325 
L 1884 4325 
L 1884 747 
Q 1884 391 1914 303 
Q 1944 216 2037 169 
Q 2131 122 2419 116 
L 2419 0 
L 825 0 
L 825 116 
Q 1125 122 1212 167 
Q 1300 213 1334 289 
Q 1369 366 1369 747 
L 1369 3034 
Q 1369 3497 1338 3628 
Q 1316 3728 1258 3775 
Q 1200 3822 1119 3822 
Q 1003 3822 797 3725 
L 750 3822 
z
" transform="scale(0.015625)"/>
        <path id="TimesNewRomanPSMT-30" d="M 231 2094 
Q 231 2819 450 3342 
Q 669 3866 1031 4122 
Q 1313 4325 1613 4325 
Q 2100 4325 2488 3828 
Q 2972 3213 2972 2159 
Q 2972 1422 2759 906 
Q 2547 391 2217 158 
Q 1888 -75 1581 -75 
Q 975 -75 572 641 
Q 231 1244 231 2094 
z
M 844 2016 
Q 844 1141 1059 588 
Q 1238 122 1591 122 
Q 1759 122 1940 273 
Q 2122 425 2216 781 
Q 2359 1319 2359 2297 
Q 2359 3022 2209 3506 
Q 2097 3866 1919 4016 
Q 1791 4119 1609 4119 
Q 1397 4119 1231 3928 
Q 1006 3669 925 3112 
Q 844 2556 844 2016 
z
" transform="scale(0.015625)"/>
       </defs>
       <use xlink:href="#TimesNewRomanPSMT-2212"/>
       <use xlink:href="#TimesNewRomanPSMT-31" x="56.396484"/>
       <use xlink:href="#TimesNewRomanPSMT-30" x="106.396484"/>
       <use xlink:href="#TimesNewRomanPSMT-30" x="156.396484"/>
      </g>
     </g>
    </g>
    <g id="xtick_2">
     <g id="line2d_3">
      <path d="M 181.613447 233.25125 
L 181.613447 22.92125 
" clip-path="url(#p704e8c96e1)" style="fill: none; stroke-dasharray: 0.8,1.32; stroke-dashoffset: 0; stroke: #b0b0b0; stroke-width: 0.8"/>
     </g>
     <g id="line2d_4">
      <g>
       <use xlink:href="#m0d2c5cffd6" x="181.613447" y="233.25125" style="stroke: #000000; stroke-width: 0.8"/>
      </g>
     </g>
     <g id="text_2">
      <!-- 0 -->
      <g transform="translate(178.113447 249.9725) scale(0.14 -0.14)">
       <use xlink:href="#TimesNewRomanPSMT-30"/>
      </g>
     </g>
    </g>
    <g id="xtick_3">
     <g id="line2d_5">
      <path d="M 254.074986 233.25125 
L 254.074986 22.92125 
" clip-path="url(#p704e8c96e1)" style="fill: none; stroke-dasharray: 0.8,1.32; stroke-dashoffset: 0; stroke: #b0b0b0; stroke-width: 0.8"/>
     </g>
     <g id="line2d_6">
      <g>
       <use xlink:href="#m0d2c5cffd6" x="254.074986" y="233.25125" style="stroke: #000000; stroke-width: 0.8"/>
      </g>
     </g>
     <g id="text_3">
      <!-- 100 -->
      <g transform="translate(243.574986 249.9725) scale(0.14 -0.14)">
       <use xlink:href="#TimesNewRomanPSMT-31"/>
       <use xlink:href="#TimesNewRomanPSMT-30" x="50"/>
       <use xlink:href="#TimesNewRomanPSMT-30" x="100"/>
      </g>
     </g>
    </g>
    <g id="text_4">
     <!-- Displacement (mm) -->
     <g transform="translate(135.183687 265.299688) scale(0.12 -0.12)">
      <defs>
       <path id="TimesNewRomanPS-ItalicMT-44" d="M 938 4122 
L 975 4238 
L 2328 4238 
Q 3188 4238 3602 4041 
Q 4016 3844 4262 3420 
Q 4509 2997 4509 2513 
Q 4509 2097 4367 1705 
Q 4225 1313 4045 1077 
Q 3866 841 3494 556 
Q 3122 272 2687 136 
Q 2253 0 1603 0 
L -191 0 
L -150 116 
Q 97 122 181 159 
Q 306 213 366 303 
Q 456 434 569 831 
L 1319 3394 
Q 1406 3697 1406 3869 
Q 1406 3991 1325 4056 
Q 1244 4122 1006 4122 
L 938 4122 
z
M 2047 4003 
L 1128 831 
Q 1025 475 1025 391 
Q 1025 341 1058 294 
Q 1091 247 1147 231 
Q 1228 203 1409 203 
Q 1900 203 2320 304 
Q 2741 406 3009 606 
Q 3391 897 3619 1406 
Q 3847 1916 3847 2566 
Q 3847 3300 3497 3658 
Q 3147 4016 2475 4016 
Q 2309 4016 2047 4003 
z
" transform="scale(0.015625)"/>
       <path id="TimesNewRomanPS-ItalicMT-69" d="M 1431 4069 
Q 1563 4069 1653 3978 
Q 1744 3888 1744 3756 
Q 1744 3628 1651 3536 
Q 1559 3444 1431 3444 
Q 1303 3444 1211 3536 
Q 1119 3628 1119 3756 
Q 1119 3888 1209 3978 
Q 1300 4069 1431 4069 
z
M 1472 2828 
L 853 638 
Q 791 416 791 372 
Q 791 322 820 290 
Q 850 259 891 259 
Q 938 259 1003 309 
Q 1181 450 1363 709 
L 1472 638 
Q 1259 313 972 91 
Q 759 -75 566 -75 
Q 438 -75 356 1 
Q 275 78 275 194 
Q 275 309 353 578 
L 759 1978 
Q 859 2322 859 2409 
Q 859 2478 811 2522 
Q 763 2566 678 2566 
Q 609 2566 394 2531 
L 394 2653 
L 1472 2828 
z
" transform="scale(0.015625)"/>
       <path id="TimesNewRomanPS-ItalicMT-73" d="M 2322 2828 
L 2131 1869 
L 2016 1869 
Q 2000 2288 1837 2478 
Q 1675 2669 1434 2669 
Q 1241 2669 1127 2562 
Q 1013 2456 1013 2306 
Q 1013 2203 1058 2109 
Q 1103 2016 1256 1847 
Q 1663 1403 1781 1178 
Q 1900 953 1900 753 
Q 1900 428 1629 176 
Q 1359 -75 947 -75 
Q 722 -75 428 31 
Q 325 69 269 69 
Q 128 69 56 -75 
L -59 -75 
L 131 938 
L 247 938 
Q 266 463 444 266 
Q 622 69 931 69 
Q 1169 69 1308 201 
Q 1447 334 1447 528 
Q 1447 653 1397 759 
Q 1309 947 1029 1278 
Q 750 1609 670 1775 
Q 591 1941 591 2106 
Q 591 2409 811 2618 
Q 1031 2828 1378 2828 
Q 1478 2828 1559 2813 
Q 1603 2803 1764 2742 
Q 1925 2681 1978 2681 
Q 2113 2681 2203 2828 
L 2322 2828 
z
" transform="scale(0.015625)"/>
       <path id="TimesNewRomanPS-ItalicMT-70" d="M 1416 2828 
L 1200 2109 
Q 1541 2509 1808 2668 
Q 2075 2828 2353 2828 
Q 2631 2828 2828 2608 
Q 3025 2388 3025 2034 
Q 3025 1347 2465 636 
Q 1906 -75 1163 -75 
Q 1006 -75 886 -40 
Q 766 -6 616 81 
L 388 -725 
Q 319 -963 319 -1034 
Q 319 -1103 355 -1151 
Q 391 -1200 472 -1226 
Q 553 -1253 794 -1253 
L 766 -1369 
L -706 -1369 
L -675 -1253 
Q -384 -1241 -282 -1153 
Q -181 -1066 -69 -669 
L 722 2069 
Q 794 2328 794 2391 
Q 794 2475 745 2522 
Q 697 2569 597 2569 
Q 506 2569 344 2547 
L 344 2669 
L 1416 2828 
z
M 688 328 
Q 881 97 1209 97 
Q 1372 97 1540 187 
Q 1709 278 1870 456 
Q 2031 634 2159 867 
Q 2288 1100 2389 1415 
Q 2491 1731 2491 2041 
Q 2491 2291 2377 2423 
Q 2263 2556 2109 2556 
Q 1772 2556 1442 2168 
Q 1113 1781 959 1263 
L 688 328 
z
" transform="scale(0.015625)"/>
       <path id="TimesNewRomanPS-ItalicMT-6c" d="M 1903 4444 
L 834 725 
Q 756 447 756 384 
Q 756 338 786 306 
Q 816 275 859 275 
Q 919 275 988 328 
Q 1150 456 1328 725 
L 1422 628 
Q 1125 209 875 44 
Q 691 -75 525 -75 
Q 406 -75 326 6 
Q 247 88 247 194 
Q 247 306 347 656 
L 1194 3588 
Q 1297 3947 1297 4000 
Q 1297 4075 1237 4123 
Q 1178 4172 1053 4172 
Q 981 4172 834 4150 
L 834 4266 
L 1903 4444 
z
" transform="scale(0.015625)"/>
       <path id="TimesNewRomanPS-ItalicMT-61" d="M 3003 2828 
L 2394 709 
L 2325 425 
Q 2316 384 2316 356 
Q 2316 306 2347 269 
Q 2372 241 2409 241 
Q 2450 241 2516 291 
Q 2638 381 2841 666 
L 2947 591 
Q 2731 266 2503 95 
Q 2275 -75 2081 -75 
Q 1947 -75 1880 -8 
Q 1813 59 1813 188 
Q 1813 341 1881 591 
L 1947 825 
Q 1538 291 1194 78 
Q 947 -75 709 -75 
Q 481 -75 315 114 
Q 150 303 150 634 
Q 150 1131 448 1682 
Q 747 2234 1206 2566 
Q 1566 2828 1884 2828 
Q 2075 2828 2201 2728 
Q 2328 2628 2394 2397 
L 2506 2753 
L 3003 2828 
z
M 1891 2666 
Q 1691 2666 1466 2478 
Q 1147 2213 898 1691 
Q 650 1169 650 747 
Q 650 534 756 411 
Q 863 288 1000 288 
Q 1341 288 1741 791 
Q 2275 1459 2275 2163 
Q 2275 2428 2172 2547 
Q 2069 2666 1891 2666 
z
" transform="scale(0.015625)"/>
       <path id="TimesNewRomanPS-ItalicMT-63" d="M 2472 681 
Q 2147 291 1815 108 
Q 1484 -75 1116 -75 
Q 672 -75 423 175 
Q 175 425 175 847 
Q 175 1325 442 1787 
Q 709 2250 1161 2539 
Q 1613 2828 2047 2828 
Q 2388 2828 2556 2686 
Q 2725 2544 2725 2338 
Q 2725 2144 2606 2006 
Q 2519 1900 2391 1900 
Q 2294 1900 2230 1962 
Q 2166 2025 2166 2119 
Q 2166 2178 2189 2228 
Q 2213 2278 2286 2348 
Q 2359 2419 2375 2450 
Q 2391 2481 2391 2516 
Q 2391 2581 2331 2625 
Q 2241 2688 2075 2688 
Q 1769 2688 1469 2472 
Q 1169 2256 956 1859 
Q 700 1378 700 897 
Q 700 578 881 392 
Q 1063 206 1375 206 
Q 1616 206 1852 326 
Q 2088 447 2381 763 
L 2472 681 
z
" transform="scale(0.015625)"/>
       <path id="TimesNewRomanPS-ItalicMT-65" d="M 763 1178 
Q 741 1022 741 919 
Q 741 641 937 445 
Q 1134 250 1416 250 
Q 1641 250 1848 342 
Q 2056 434 2466 750 
L 2531 659 
Q 1791 -75 1119 -75 
Q 663 -75 431 212 
Q 200 500 200 847 
Q 200 1313 487 1800 
Q 775 2288 1209 2558 
Q 1644 2828 2103 2828 
Q 2434 2828 2593 2693 
Q 2753 2559 2753 2375 
Q 2753 2116 2547 1878 
Q 2275 1569 1747 1378 
Q 1397 1250 763 1178 
z
M 784 1331 
Q 1247 1384 1538 1513 
Q 1922 1684 2114 1923 
Q 2306 2163 2306 2378 
Q 2306 2509 2223 2590 
Q 2141 2672 1988 2672 
Q 1669 2672 1311 2333 
Q 953 1994 784 1331 
z
" transform="scale(0.015625)"/>
       <path id="TimesNewRomanPS-ItalicMT-6d" d="M 1388 2828 
L 981 1419 
Q 1253 1916 1444 2166 
Q 1741 2553 2022 2728 
Q 2188 2828 2369 2828 
Q 2525 2828 2628 2728 
Q 2731 2628 2731 2472 
Q 2731 2319 2659 2072 
L 2438 1278 
Q 2947 2231 3403 2616 
Q 3656 2828 3903 2828 
Q 4047 2828 4139 2729 
Q 4231 2631 4231 2425 
Q 4231 2244 4175 2041 
L 3831 825 
Q 3719 428 3719 384 
Q 3719 341 3747 309 
Q 3766 288 3797 288 
Q 3828 288 3906 347 
Q 4084 484 4241 709 
L 4344 644 
Q 4266 519 4067 300 
Q 3869 81 3728 3 
Q 3588 -75 3469 -75 
Q 3359 -75 3286 0 
Q 3213 75 3213 184 
Q 3213 334 3341 788 
L 3625 1791 
Q 3722 2138 3728 2175 
Q 3738 2234 3738 2291 
Q 3738 2369 3703 2413 
Q 3666 2456 3619 2456 
Q 3488 2456 3341 2322 
Q 2909 1925 2534 1209 
Q 2288 738 2072 0 
L 1600 0 
L 2134 1891 
Q 2222 2197 2222 2300 
Q 2222 2384 2187 2425 
Q 2153 2466 2103 2466 
Q 2000 2466 1884 2391 
Q 1697 2269 1401 1869 
Q 1106 1469 944 1103 
Q 866 931 572 0 
L 109 0 
L 688 2025 
L 763 2288 
Q 784 2347 784 2375 
Q 784 2444 721 2498 
Q 659 2553 563 2553 
Q 522 2553 338 2516 
L 309 2631 
L 1388 2828 
z
" transform="scale(0.015625)"/>
       <path id="TimesNewRomanPS-ItalicMT-6e" d="M 1413 2828 
L 997 1406 
Q 1581 2278 1892 2553 
Q 2203 2828 2491 2828 
Q 2647 2828 2748 2725 
Q 2850 2622 2850 2456 
Q 2850 2269 2759 1956 
L 2378 641 
Q 2313 413 2313 363 
Q 2313 319 2338 289 
Q 2363 259 2391 259 
Q 2428 259 2481 300 
Q 2647 431 2844 700 
L 2941 641 
Q 2650 225 2391 47 
Q 2209 -75 2066 -75 
Q 1950 -75 1881 -4 
Q 1813 66 1813 184 
Q 1813 334 1919 700 
L 2281 1956 
Q 2350 2191 2350 2322 
Q 2350 2384 2309 2423 
Q 2269 2463 2209 2463 
Q 2122 2463 2000 2388 
Q 1769 2247 1519 1923 
Q 1269 1600 991 1097 
Q 844 831 747 516 
L 591 0 
L 122 0 
L 691 1956 
Q 791 2309 791 2381 
Q 791 2450 736 2501 
Q 681 2553 600 2553 
Q 563 2553 469 2541 
L 350 2522 
L 331 2634 
L 1413 2828 
z
" transform="scale(0.015625)"/>
       <path id="TimesNewRomanPS-ItalicMT-74" d="M 1663 3603 
L 1419 2753 
L 1909 2753 
L 1856 2556 
L 1369 2556 
L 831 713 
Q 744 416 744 328 
Q 744 275 769 247 
Q 794 219 828 219 
Q 906 219 1034 328 
Q 1109 391 1369 713 
L 1472 634 
Q 1184 216 928 44 
Q 753 -75 575 -75 
Q 438 -75 350 11 
Q 263 97 263 231 
Q 263 400 363 747 
L 884 2556 
L 413 2556 
L 444 2678 
Q 788 2772 1016 2958 
Q 1244 3144 1525 3603 
L 1663 3603 
z
" transform="scale(0.015625)"/>
       <path id="TimesNewRomanPS-ItalicMT-20" transform="scale(0.015625)"/>
       <path id="TimesNewRomanPS-ItalicMT-28" d="M 1203 -1319 
L 1097 -1369 
Q 725 -659 563 -116 
Q 438 309 438 741 
Q 438 1747 903 2544 
Q 1475 3519 2756 4444 
L 2831 4334 
Q 2253 3906 1888 3375 
Q 1431 2713 1140 1775 
Q 850 838 850 69 
Q 850 -519 1203 -1319 
z
" transform="scale(0.015625)"/>
       <path id="TimesNewRomanPS-ItalicMT-29" d="M 931 4384 
L 1038 4444 
Q 1409 3738 1569 3194 
Q 1697 2769 1697 2338 
Q 1697 1328 1231 534 
Q 656 -444 -622 -1369 
L -697 -1272 
Q -119 -841 247 -313 
Q 703 350 993 1289 
Q 1284 2228 1284 2997 
Q 1284 3584 931 4384 
z
" transform="scale(0.015625)"/>
      </defs>
      <use xlink:href="#TimesNewRomanPS-ItalicMT-44"/>
      <use xlink:href="#TimesNewRomanPS-ItalicMT-69" x="72.216797"/>
      <use xlink:href="#TimesNewRomanPS-ItalicMT-73" x="100"/>
      <use xlink:href="#TimesNewRomanPS-ItalicMT-70" x="138.916016"/>
      <use xlink:href="#TimesNewRomanPS-ItalicMT-6c" x="188.916016"/>
      <use xlink:href="#TimesNewRomanPS-ItalicMT-61" x="216.699219"/>
      <use xlink:href="#TimesNewRomanPS-ItalicMT-63" x="266.699219"/>
      <use xlink:href="#TimesNewRomanPS-ItalicMT-65" x="311.083984"/>
      <use xlink:href="#TimesNewRomanPS-ItalicMT-6d" x="355.46875"/>
      <use xlink:href="#TimesNewRomanPS-ItalicMT-65" x="427.685547"/>
      <use xlink:href="#TimesNewRomanPS-ItalicMT-6e" x="472.070312"/>
      <use xlink:href="#TimesNewRomanPS-ItalicMT-74" x="522.070312"/>
      <use xlink:href="#TimesNewRomanPS-ItalicMT-20" x="549.853516"/>
      <use xlink:href="#TimesNewRomanPS-ItalicMT-28" x="574.853516"/>
      <use xlink:href="#TimesNewRomanPS-ItalicMT-6d" x="608.154297"/>
      <use xlink:href="#TimesNewRomanPS-ItalicMT-6d" x="680.371094"/>
      <use xlink:href="#TimesNewRomanPS-ItalicMT-29" x="752.587891"/>
     </g>
    </g>
   </g>
   <g id="matplotlib.axis_2">
    <g id="ytick_1">
     <g id="line2d_7">
      <path d="M 57.994063 222.579665 
L 306.682062 222.579665 
" clip-path="url(#p704e8c96e1)" style="fill: none; stroke-dasharray: 0.8,1.32; stroke-dashoffset: 0; stroke: #b0b0b0; stroke-width: 0.8"/>
     </g>
     <g id="line2d_8">
      <defs>
       <path id="md4f2bc5577" d="M 0 0 
L -3.5 0 
" style="stroke: #000000; stroke-width: 0.8"/>
      </defs>
      <g>
       <use xlink:href="#md4f2bc5577" x="57.994063" y="222.579665" style="stroke: #000000; stroke-width: 0.8"/>
      </g>
     </g>
     <g id="text_5">
      <!-- −300 -->
      <g transform="translate(22.099375 227.44029) scale(0.14 -0.14)">
       <defs>
        <path id="TimesNewRomanPSMT-33" d="M 325 3431 
Q 506 3859 782 4092 
Q 1059 4325 1472 4325 
Q 1981 4325 2253 3994 
Q 2459 3747 2459 3466 
Q 2459 3003 1878 2509 
Q 2269 2356 2469 2072 
Q 2669 1788 2669 1403 
Q 2669 853 2319 450 
Q 1863 -75 997 -75 
Q 569 -75 414 31 
Q 259 138 259 259 
Q 259 350 332 419 
Q 406 488 509 488 
Q 588 488 669 463 
Q 722 447 909 348 
Q 1097 250 1169 231 
Q 1284 197 1416 197 
Q 1734 197 1970 444 
Q 2206 691 2206 1028 
Q 2206 1275 2097 1509 
Q 2016 1684 1919 1775 
Q 1784 1900 1550 2001 
Q 1316 2103 1072 2103 
L 972 2103 
L 972 2197 
Q 1219 2228 1467 2375 
Q 1716 2522 1828 2728 
Q 1941 2934 1941 3181 
Q 1941 3503 1739 3701 
Q 1538 3900 1238 3900 
Q 753 3900 428 3381 
L 325 3431 
z
" transform="scale(0.015625)"/>
       </defs>
       <use xlink:href="#TimesNewRomanPSMT-2212"/>
       <use xlink:href="#TimesNewRomanPSMT-33" x="56.396484"/>
       <use xlink:href="#TimesNewRomanPSMT-30" x="106.396484"/>
       <use xlink:href="#TimesNewRomanPSMT-30" x="156.396484"/>
      </g>
     </g>
    </g>
    <g id="ytick_2">
     <g id="line2d_9">
      <path d="M 57.994063 191.096616 
L 306.682062 191.096616 
" clip-path="url(#p704e8c96e1)" style="fill: none; stroke-dasharray: 0.8,1.32; stroke-dashoffset: 0; stroke: #b0b0b0; stroke-width: 0.8"/>
     </g>
     <g id="line2d_10">
      <g>
       <use xlink:href="#md4f2bc5577" x="57.994063" y="191.096616" style="stroke: #000000; stroke-width: 0.8"/>
      </g>
     </g>
     <g id="text_6">
      <!-- −200 -->
      <g transform="translate(22.099375 195.957241) scale(0.14 -0.14)">
       <defs>
        <path id="TimesNewRomanPSMT-32" d="M 2934 816 
L 2638 0 
L 138 0 
L 138 116 
Q 1241 1122 1691 1759 
Q 2141 2397 2141 2925 
Q 2141 3328 1894 3587 
Q 1647 3847 1303 3847 
Q 991 3847 742 3664 
Q 494 3481 375 3128 
L 259 3128 
Q 338 3706 661 4015 
Q 984 4325 1469 4325 
Q 1984 4325 2329 3994 
Q 2675 3663 2675 3213 
Q 2675 2891 2525 2569 
Q 2294 2063 1775 1497 
Q 997 647 803 472 
L 1909 472 
Q 2247 472 2383 497 
Q 2519 522 2628 598 
Q 2738 675 2819 816 
L 2934 816 
z
" transform="scale(0.015625)"/>
       </defs>
       <use xlink:href="#TimesNewRomanPSMT-2212"/>
       <use xlink:href="#TimesNewRomanPSMT-32" x="56.396484"/>
       <use xlink:href="#TimesNewRomanPSMT-30" x="106.396484"/>
       <use xlink:href="#TimesNewRomanPSMT-30" x="156.396484"/>
      </g>
     </g>
    </g>
    <g id="ytick_3">
     <g id="line2d_11">
      <path d="M 57.994063 159.613567 
L 306.682062 159.613567 
" clip-path="url(#p704e8c96e1)" style="fill: none; stroke-dasharray: 0.8,1.32; stroke-dashoffset: 0; stroke: #b0b0b0; stroke-width: 0.8"/>
     </g>
     <g id="line2d_12">
      <g>
       <use xlink:href="#md4f2bc5577" x="57.994063" y="159.613567" style="stroke: #000000; stroke-width: 0.8"/>
      </g>
     </g>
     <g id="text_7">
      <!-- −100 -->
      <g transform="translate(22.099375 164.474192) scale(0.14 -0.14)">
       <use xlink:href="#TimesNewRomanPSMT-2212"/>
       <use xlink:href="#TimesNewRomanPSMT-31" x="56.396484"/>
       <use xlink:href="#TimesNewRomanPSMT-30" x="106.396484"/>
       <use xlink:href="#TimesNewRomanPSMT-30" x="156.396484"/>
      </g>
     </g>
    </g>
    <g id="ytick_4">
     <g id="line2d_13">
      <path d="M 57.994063 128.130518 
L 306.682062 128.130518 
" clip-path="url(#p704e8c96e1)" style="fill: none; stroke-dasharray: 0.8,1.32; stroke-dashoffset: 0; stroke: #b0b0b0; stroke-width: 0.8"/>
     </g>
     <g id="line2d_14">
      <g>
       <use xlink:href="#md4f2bc5577" x="57.994063" y="128.130518" style="stroke: #000000; stroke-width: 0.8"/>
      </g>
     </g>
     <g id="text_8">
      <!-- 0 -->
      <g transform="translate(43.994063 132.991143) scale(0.14 -0.14)">
       <use xlink:href="#TimesNewRomanPSMT-30"/>
      </g>
     </g>
    </g>
    <g id="ytick_5">
     <g id="line2d_15">
      <path d="M 57.994063 96.647469 
L 306.682062 96.647469 
" clip-path="url(#p704e8c96e1)" style="fill: none; stroke-dasharray: 0.8,1.32; stroke-dashoffset: 0; stroke: #b0b0b0; stroke-width: 0.8"/>
     </g>
     <g id="line2d_16">
      <g>
       <use xlink:href="#md4f2bc5577" x="57.994063" y="96.647469" style="stroke: #000000; stroke-width: 0.8"/>
      </g>
     </g>
     <g id="text_9">
      <!-- 100 -->
      <g transform="translate(29.994063 101.508094) scale(0.14 -0.14)">
       <use xlink:href="#TimesNewRomanPSMT-31"/>
       <use xlink:href="#TimesNewRomanPSMT-30" x="50"/>
       <use xlink:href="#TimesNewRomanPSMT-30" x="100"/>
      </g>
     </g>
    </g>
    <g id="ytick_6">
     <g id="line2d_17">
      <path d="M 57.994063 65.16442 
L 306.682062 65.16442 
" clip-path="url(#p704e8c96e1)" style="fill: none; stroke-dasharray: 0.8,1.32; stroke-dashoffset: 0; stroke: #b0b0b0; stroke-width: 0.8"/>
     </g>
     <g id="line2d_18">
      <g>
       <use xlink:href="#md4f2bc5577" x="57.994063" y="65.16442" style="stroke: #000000; stroke-width: 0.8"/>
      </g>
     </g>
     <g id="text_10">
      <!-- 200 -->
      <g transform="translate(29.994063 70.025045) scale(0.14 -0.14)">
       <use xlink:href="#TimesNewRomanPSMT-32"/>
       <use xlink:href="#TimesNewRomanPSMT-30" x="50"/>
       <use xlink:href="#TimesNewRomanPSMT-30" x="100"/>
      </g>
     </g>
    </g>
    <g id="ytick_7">
     <g id="line2d_19">
      <path d="M 57.994063 33.681371 
L 306.682062 33.681371 
" clip-path="url(#p704e8c96e1)" style="fill: none; stroke-dasharray: 0.8,1.32; stroke-dashoffset: 0; stroke: #b0b0b0; stroke-width: 0.8"/>
     </g>
     <g id="line2d_20">
      <g>
       <use xlink:href="#md4f2bc5577" x="57.994063" y="33.681371" style="stroke: #000000; stroke-width: 0.8"/>
      </g>
     </g>
     <g id="text_11">
      <!-- 300 -->
      <g transform="translate(29.994063 38.541996) scale(0.14 -0.14)">
       <use xlink:href="#TimesNewRomanPSMT-33"/>
       <use xlink:href="#TimesNewRomanPSMT-30" x="50"/>
       <use xlink:href="#TimesNewRomanPSMT-30" x="100"/>
      </g>
     </g>
    </g>
    <g id="text_12">
     <!-- Base Shear (kN) -->
     <g transform="translate(15.5325 167.409688) rotate(-90) scale(0.12 -0.12)">
      <defs>
       <path id="TimesNewRomanPS-ItalicMT-42" d="M 947 4122 
L 991 4238 
L 2503 4238 
Q 2884 4238 3182 4119 
Q 3481 4000 3629 3787 
Q 3778 3575 3778 3338 
Q 3778 2972 3514 2676 
Q 3250 2381 2653 2241 
Q 3038 2097 3219 1859 
Q 3400 1622 3400 1338 
Q 3400 1022 3237 734 
Q 3075 447 2820 287 
Q 2566 128 2206 53 
Q 1950 0 1406 0 
L -147 0 
L -106 116 
Q 138 122 225 163 
Q 350 216 403 303 
Q 478 422 603 847 
L 1363 3413 
Q 1459 3738 1459 3869 
Q 1459 3984 1373 4051 
Q 1288 4119 1047 4119 
Q 994 4119 947 4122 
z
M 1581 2363 
Q 1784 2356 1875 2356 
Q 2525 2356 2842 2639 
Q 3159 2922 3159 3347 
Q 3159 3669 2965 3848 
Q 2772 4028 2347 4028 
Q 2234 4028 2059 3991 
L 1581 2363 
z
M 966 275 
Q 1303 231 1494 231 
Q 1981 231 2357 525 
Q 2734 819 2734 1322 
Q 2734 1706 2501 1922 
Q 2269 2138 1750 2138 
Q 1650 2138 1506 2128 
L 966 275 
z
" transform="scale(0.015625)"/>
       <path id="TimesNewRomanPS-ItalicMT-53" d="M 44 -97 
L 394 1475 
L 500 1475 
Q 478 1247 478 1097 
Q 478 669 751 400 
Q 1025 131 1466 131 
Q 1875 131 2087 382 
Q 2300 634 2300 963 
Q 2300 1175 2203 1350 
Q 2056 1609 1419 2263 
Q 1109 2575 1022 2728 
Q 878 2981 878 3259 
Q 878 3703 1209 4018 
Q 1541 4334 2059 4334 
Q 2234 4334 2391 4300 
Q 2488 4281 2744 4175 
Q 2925 4103 2944 4097 
Q 2988 4088 3041 4088 
Q 3131 4088 3197 4134 
Q 3263 4181 3350 4334 
L 3469 4334 
L 3144 2928 
L 3038 2928 
Q 3050 3116 3050 3231 
Q 3050 3609 2800 3850 
Q 2550 4091 2141 4091 
Q 1816 4091 1612 3900 
Q 1409 3709 1409 3459 
Q 1409 3241 1539 3042 
Q 1669 2844 2136 2395 
Q 2603 1947 2740 1695 
Q 2878 1444 2878 1159 
Q 2878 838 2708 536 
Q 2538 234 2219 68 
Q 1900 -97 1522 -97 
Q 1334 -97 1171 -62 
Q 1009 -28 653 106 
Q 531 153 450 153 
Q 266 153 163 -97 
L 44 -97 
z
" transform="scale(0.015625)"/>
       <path id="TimesNewRomanPS-ItalicMT-68" d="M 1878 4444 
L 1000 1409 
Q 1569 2266 1887 2547 
Q 2206 2828 2497 2828 
Q 2647 2828 2747 2725 
Q 2847 2622 2847 2450 
Q 2847 2244 2759 1950 
L 2378 641 
Q 2306 403 2306 378 
Q 2306 334 2332 306 
Q 2359 278 2394 278 
Q 2434 278 2488 319 
Q 2666 456 2841 700 
L 2938 641 
Q 2831 475 2642 276 
Q 2453 78 2317 1 
Q 2181 -75 2075 -75 
Q 1959 -75 1886 -1 
Q 1813 72 1813 188 
Q 1813 325 1922 700 
L 2281 1950 
Q 2350 2184 2350 2319 
Q 2350 2381 2311 2418 
Q 2272 2456 2209 2456 
Q 2119 2456 2003 2388 
Q 1791 2256 1513 1900 
Q 1438 1803 1013 1119 
Q 881 900 797 641 
L 597 0 
L 128 0 
L 1156 3575 
L 1266 3963 
Q 1266 4044 1198 4106 
Q 1131 4169 1034 4169 
Q 978 4169 863 4150 
L 797 4141 
L 797 4263 
L 1878 4444 
z
" transform="scale(0.015625)"/>
       <path id="TimesNewRomanPS-ItalicMT-72" d="M 334 2653 
L 1413 2828 
L 963 1309 
Q 1509 2244 1956 2616 
Q 2209 2828 2369 2828 
Q 2472 2828 2531 2767 
Q 2591 2706 2591 2591 
Q 2591 2384 2484 2197 
Q 2409 2056 2269 2056 
Q 2197 2056 2145 2103 
Q 2094 2150 2081 2247 
Q 2075 2306 2053 2325 
Q 2028 2350 1994 2350 
Q 1941 2350 1894 2325 
Q 1813 2281 1647 2081 
Q 1388 1775 1084 1288 
Q 953 1081 859 822 
Q 728 466 709 394 
L 609 0 
L 131 0 
L 709 1941 
Q 809 2278 809 2422 
Q 809 2478 763 2516 
Q 700 2566 597 2566 
Q 531 2566 356 2538 
L 334 2653 
z
" transform="scale(0.015625)"/>
       <path id="TimesNewRomanPS-ItalicMT-6b" d="M 1831 4444 
L 944 1372 
L 1300 1675 
Q 1884 2169 2059 2406 
Q 2116 2484 2116 2525 
Q 2116 2553 2097 2578 
Q 2078 2603 2023 2618 
Q 1969 2634 1831 2634 
L 1722 2634 
L 1756 2753 
L 3122 2753 
L 3091 2634 
Q 2856 2622 2686 2561 
Q 2516 2500 2356 2381 
Q 2041 2147 1941 2056 
L 1672 1819 
Q 1741 1594 1841 1191 
Q 2009 522 2069 397 
Q 2128 272 2191 272 
Q 2244 272 2316 325 
Q 2478 444 2663 703 
L 2772 625 
Q 2431 197 2250 61 
Q 2069 -75 1919 -75 
Q 1788 -75 1716 28 
Q 1591 213 1300 1481 
L 872 1109 
L 550 0 
L 63 0 
L 1100 3566 
L 1188 3869 
Q 1203 3947 1203 4006 
Q 1203 4081 1145 4131 
Q 1088 4181 978 4181 
Q 906 4181 750 4150 
L 750 4259 
L 1831 4444 
z
" transform="scale(0.015625)"/>
       <path id="TimesNewRomanPS-ItalicMT-4e" d="M 1834 4238 
L 3144 916 
L 3853 3397 
Q 3941 3703 3941 3872 
Q 3941 3988 3859 4053 
Q 3778 4119 3556 4119 
Q 3519 4119 3478 4122 
L 3513 4238 
L 4875 4238 
L 4838 4122 
Q 4625 4125 4522 4078 
Q 4375 4013 4303 3909 
Q 4203 3763 4100 3397 
L 3103 -97 
L 2991 -97 
L 1581 3478 
L 828 838 
Q 744 538 744 378 
Q 744 259 820 198 
Q 897 138 1184 116 
L 1153 0 
L -178 0 
L -134 116 
Q 116 122 200 159 
Q 328 216 391 306 
Q 481 444 594 838 
L 1434 3784 
Q 1313 3972 1173 4042 
Q 1034 4113 741 4122 
L 775 4238 
L 1834 4238 
z
" transform="scale(0.015625)"/>
      </defs>
      <use xlink:href="#TimesNewRomanPS-ItalicMT-42"/>
      <use xlink:href="#TimesNewRomanPS-ItalicMT-61" x="61.083984"/>
      <use xlink:href="#TimesNewRomanPS-ItalicMT-73" x="111.083984"/>
      <use xlink:href="#TimesNewRomanPS-ItalicMT-65" x="150"/>
      <use xlink:href="#TimesNewRomanPS-ItalicMT-20" x="194.384766"/>
      <use xlink:href="#TimesNewRomanPS-ItalicMT-53" x="219.384766"/>
      <use xlink:href="#TimesNewRomanPS-ItalicMT-68" x="269.384766"/>
      <use xlink:href="#TimesNewRomanPS-ItalicMT-65" x="319.384766"/>
      <use xlink:href="#TimesNewRomanPS-ItalicMT-61" x="363.769531"/>
      <use xlink:href="#TimesNewRomanPS-ItalicMT-72" x="413.769531"/>
      <use xlink:href="#TimesNewRomanPS-ItalicMT-20" x="452.685547"/>
      <use xlink:href="#TimesNewRomanPS-ItalicMT-28" x="477.685547"/>
      <use xlink:href="#TimesNewRomanPS-ItalicMT-6b" x="510.986328"/>
      <use xlink:href="#TimesNewRomanPS-ItalicMT-4e" x="555.371094"/>
      <use xlink:href="#TimesNewRomanPS-ItalicMT-29" x="622.070312"/>
     </g>
    </g>
   </g>
   <g id="line2d_21">
    <path d="M 181.613447 112.410432 
L 184.31507 75.760496 
L 186.93428 70.63607 
L 189.391177 63.8699 
L 191.610814 54.867274 
L 193.525479 52.073974 
L 195.076767 51.971411 
L 196.217355 51.317523 
L 197.140844 51.224707 
L 196.184122 54.822708 
L 195.02819 61.807495 
L 193.463039 74.065703 
L 191.536415 87.469221 
L 189.307089 100.51353 
L 186.843068 114.003968 
L 181.516468 146.909808 
L 176.20161 163.409766 
L 173.751933 173.284991 
L 171.542072 180.817393 
L 169.639439 186.004198 
L 168.102075 189.524933 
L 166.298169 194.329648 
L 166.086656 195.108313 
L 169.826758 167.824907 
L 174.004193 141.548229 
L 176.475242 128.442515 
L 179.103032 117.328906 
L 181.807402 107.351089 
L 184.505856 98.781683 
L 187.116077 91.221488 
L 189.558439 84.617242 
L 191.758439 79.210685 
L 195.172344 71.680339 
L 196.944404 68.144343 
L 197.139027 68.115946 
L 196.115954 76.080986 
L 193.336773 95.791027 
L 191.386458 108.459264 
L 189.138016 120.214364 
L 186.660037 130.06837 
L 184.02811 139.154663 
L 181.322524 147.588241 
L 178.625812 154.990948 
L 173.585287 167.142849 
L 166.089684 184.401174 
L 168.347569 167.03832 
L 169.953941 155.965358 
L 171.915987 144.569999 
L 174.173856 134.441643 
L 176.658671 125.176619 
L 179.294631 116.159416 
L 182.389207 106.325524 
L 187.778935 92.264751 
L 192.980584 82.513297 
L 197.835477 72.253794 
L 202.195515 64.210162 
L 205.927694 59.492264 
L 208.918165 56.665947 
L 211.075702 55.329397 
L 212.334489 53.653575 
L 212.656127 53.904599 
L 210.477598 68.746323 
L 208.043886 83.911775 
L 204.80391 102.244939 
L 200.856507 120.434868 
L 196.322092 134.228499 
L 191.338988 146.468109 
L 186.059205 156.692986 
L 180.643804 164.739029 
L 175.257982 170.801007 
L 170.066034 175.908313 
L 165.226341 181.365094 
L 160.886539 187.112115 
L 157.179014 191.654228 
L 150.576823 198.985465 
L 155.285357 165.968362 
L 158.552438 149.362639 
L 162.522997 135.572439 
L 167.075913 122.292531 
L 172.072298 109.966856 
L 177.359737 99.63177 
L 182.776936 91.796692 
L 188.158643 85.888689 
L 193.340687 80.936911 
L 198.164991 75.86416 
L 202.484388 70.913156 
L 209.100828 63.847201 
L 211.196036 61.898554 
L 212.388823 61.235087 
L 212.642804 61.531408 
L 207.838161 92.063466 
L 204.544103 107.061901 
L 200.550542 120.000496 
L 195.979303 132.450905 
L 190.969832 143.990996 
L 185.674943 153.758609 
L 180.256158 161.502135 
L 174.878777 167.267043 
L 164.898112 175.949333 
L 160.599289 180.584369 
L 154.036342 188.799938 
L 150.812704 193.151652 
L 150.592567 192.800134 
L 152.969028 175.569438 
L 155.493132 160.512541 
L 158.81404 146.991789 
L 162.830446 134.304608 
L 167.41983 121.410831 
L 172.442191 109.449971 
L 177.744323 99.612812 
L 183.940001 90.56591 
L 191.99927 82.244685 
L 199.741717 76.25521 
L 206.93116 68.991665 
L 213.348282 62.091864 
L 218.79733 57.127067 
L 223.112079 53.946091 
L 226.160907 52.674418 
L 227.85081 50.749732 
L 228.130236 51.601873 
L 224.466852 74.954406 
L 220.635792 95.992612 
L 215.614352 115.215555 
L 209.55571 130.529352 
L 202.644685 145.073725 
L 195.092101 156.647351 
L 187.128348 165.612437 
L 178.996363 172.170325 
L 170.944212 176.623287 
L 163.217528 180.229829 
L 156.052013 184.77076 
L 149.666253 190.425752 
L 144.255045 195.467887 
L 136.981803 201.815759 
L 135.34164 203.711761 
L 135.113003 203.484833 
L 138.874938 177.965649 
L 142.750751 157.590908 
L 147.812075 141.080443 
L 153.904514 124.988835 
L 160.842217 110.099443 
L 168.413549 97.761167 
L 176.387546 88.598335 
L 184.520959 81.980532 
L 192.565678 77.225331 
L 200.276299 73.566959 
L 207.417606 69.493541 
L 219.144911 60.711872 
L 223.373165 57.670714 
L 226.327533 55.966879 
L 227.917894 55.568172 
L 228.095731 56.210626 
L 224.235394 80.263116 
L 220.314978 99.39491 
L 215.213968 115.639966 
L 209.08797 130.995621 
L 202.123858 144.752546 
L 194.534074 155.950619 
L 186.550145 164.750933 
L 178.415621 171.09692 
L 170.378647 175.414737 
L 162.684392 178.818506 
L 155.56757 182.809689 
L 149.245281 187.740738 
L 136.818662 199.216794 
L 135.278167 200.970287 
L 135.151136 200.082803 
L 136.441442 191.198781 
L 139.109726 173.90172 
L 143.074591 155.492019 
L 148.215088 139.665544 
L 154.374406 123.716968 
L 161.364655 108.981909 
L 168.972595 96.985219 
L 176.966146 88.109054 
L 186.264135 80.438493 
L 196.969355 74.502323 
L 207.206142 70.231084 
L 216.66222 64.027579 
L 225.049131 57.596589 
L 232.111031 52.660784 
L 237.632497 49.34267 
L 241.445095 48.172668 
L 243.432521 46.542967 
L 243.534149 48.065823 
L 238.125231 81.840108 
L 232.779685 105.35455 
L 225.873306 124.155321 
L 217.616775 140.716295 
L 208.261959 154.233882 
L 198.094226 164.392274 
L 187.423745 172.008745 
L 176.576021 177.223375 
L 155.667797 184.232715 
L 146.245106 189.261826 
L 137.90133 195.39136 
L 130.890997 200.789433 
L 121.678866 207.298434 
L 119.758084 209.357025 
L 119.724207 208.754804 
L 125.263712 174.180756 
L 130.66811 151.519739 
L 137.626601 132.795613 
L 145.926916 114.972145 
L 155.315853 100.042953 
L 165.507002 88.823524 
L 176.189479 81.009979 
L 187.037415 75.573129 
L 197.719893 71.672427 
L 207.911041 68.555295 
L 217.299978 64.419768 
L 232.558785 55.070028 
L 237.963182 51.865349 
L 241.648625 50.282876 
L 243.502687 49.978456 
L 243.46881 51.353452 
L 237.798935 85.687625 
L 232.335897 106.82256 
L 225.325565 124.999883 
L 216.981789 141.676334 
L 207.559097 154.607947 
L 197.344931 164.602307 
L 186.650874 171.941374 
L 175.803149 176.937713 
L 154.964936 183.814043 
L 145.610119 188.460905 
L 137.353588 193.983486 
L 130.44721 199.215497 
L 125.101663 203.096334 
L 121.480015 205.879761 
L 119.692745 207.76982 
L 119.794373 206.195557 
L 121.7818 193.313607 
L 125.594397 170.858746 
L 131.115863 149.681236 
L 138.177763 131.033741 
L 146.564675 113.443384 
L 156.020753 98.731093 
L 166.257539 87.894765 
L 176.962759 80.372117 
L 189.358949 74.013508 
L 202.681534 69.429836 
L 215.361434 65.5976 
L 227.011848 59.254993 
L 237.277379 52.824046 
L 245.844874 47.729433 
L 252.452982 44.281122 
L 256.900122 43.141178 
L 259.050633 41.801169 
L 258.838913 44.438009 
L 256.271422 60.792535 
L 251.426479 89.034678 
L 244.451882 113.314645 
L 235.560391 133.094012 
L 225.023243 149.409641 
L 213.161873 161.070504 
L 200.338114 169.809135 
L 186.943158 176.136552 
L 173.385618 180.502294 
L 160.079069 183.92914 
L 147.429429 188.051466 
L 135.822576 193.880994 
L 117.110895 206.059241 
L 106.209823 212.463814 
L 104.142973 214.631214 
L 104.439369 213.452281 
L 107.08997 197.649276 
L 112.013918 169.708339 
L 119.061008 145.1526 
L 128.016267 124.341766 
L 138.606515 106.416805 
L 150.508695 92.418789 
L 163.359728 82.572909 
L 176.767594 75.833655 
L 190.323283 71.155687 
L 203.613277 67.667552 
L 216.232164 64.559106 
L 227.795002 59.84323 
L 246.384607 49.724775 
L 252.844295 46.338176 
L 257.131078 44.863647 
L 259.114187 44.501056 
L 258.733126 47.154306 
L 255.99952 64.232347 
L 250.996758 92.06802 
L 243.87745 114.631574 
L 234.858771 134.444465 
L 224.215838 150.501178 
L 212.273313 161.788903 
L 199.395505 170.276956 
L 185.975254 176.36434 
L 172.421945 180.600471 
L 159.149024 184.040846 
L 146.561383 188.140094 
L 135.04301 193.635912 
L 124.945273 199.676218 
L 116.576205 205.067781 
L 110.191106 208.875873 
L 105.984755 211.622895 
L 104.085465 213.635762 
L 104.551176 211.229617 
L 107.36768 194.12844 
L 112.449061 166.824862 
L 119.640309 143.252935 
L 128.722055 122.556479 
L 139.41726 104.887161 
L 151.399664 91.215392 
L 164.303743 81.721023 
L 177.735857 75.238093 
L 193.220819 69.672637 
L 209.127215 65.770105 
L 224.1943 61.650421 
L 237.962451 54.893345 
L 250.011669 48.277807 
L 259.974391 42.945783 
L 267.546703 39.3591 
L 272.497612 38.256857 
L 274.676087 37.082277 
L 274.015676 41.35964 
L 270.536524 63.158092 
L 264.344763 95.715521 
L 255.629274 120.58985 
L 244.655922 141.070498 
L 231.759453 155.875349 
L 217.333274 165.829911 
L 201.817457 173.310596 
L 185.685314 178.878204 
L 153.544293 186.79738 
L 138.515879 191.94451 
L 124.802163 198.484867 
L 112.821481 205.474458 
L 102.939306 210.953487 
L 95.457095 214.58084 
L 90.603094 217.098753 
L 88.525375 219.407197 
L 89.287318 217.372405 
L 92.865681 197.093456 
L 99.151305 164.648364 
L 107.952447 138.720995 
L 119.000626 116.839647 
L 131.958816 99.651858 
L 146.431727 86.896275 
L 161.977861 78.120058 
L 178.12298 72.002164 
L 194.374577 67.746337 
L 210.236894 64.380241 
L 225.226049 60.960153 
L 238.884796 55.526263 
L 267.989533 41.11267 
L 274.72332 39.223264 
L 273.859874 43.874912 
L 270.182439 66.848588 
L 263.803198 98.482425 
L 254.916748 122.317502 
L 243.794172 142.784595 
L 230.774766 157.049651 
L 216.255688 166.648356 
L 200.679844 173.86361 
L 184.522377 179.264061 
L 152.436825 187.196169 
L 137.487513 192.338164 
L 123.884268 198.526075 
L 102.322131 210.269791 
L 95.020996 213.923018 
L 90.361373 216.577988 
L 88.485406 218.733435 
L 89.450321 215.29039 
L 93.226683 193.756145 
L 99.699294 162.086838 
L 108.670706 136.74941 
L 119.867244 115.140356 
L 132.947358 98.227504 
L 147.512037 85.853293 
L 163.116984 77.358544 
L 179.286167 71.483176 
L 197.84516 66.331733 
L 216.296883 62.729927 
L 233.690584 57.955049 
L 249.495665 50.849087 
L 274.474595 38.347911 
L 282.886459 34.608521 
L 288.208977 33.576444 
L 290.279786 32.481705 
L 289.035715 38.929763 
L 284.514716 66.170887 
L 276.854701 101.464081 
L 266.28934 127.084523 
L 253.140931 147.454852 
L 237.810568 160.438474 
L 220.765904 169.06147 
L 202.526891 175.726767 
L 183.64991 181.00908 
L 164.710807 185.057002 
L 146.287321 189.706647 
L 128.941462 195.910742 
L 113.202369 202.960575 
L 99.550164 210.154843 
L 88.401309 215.340015 
L 80.095901 218.7762 
L 74.887298 221.188177 
L 72.934389 223.690795 
L 74.296748 220.415369 
L 78.932815 195.350436 
L 86.701167 159.379044 
L 97.364829 132.708399 
L 110.598506 110.682171 
L 125.998502 94.454421 
L 143.095038 82.845821 
L 161.366583 74.644673 
L 180.255761 68.849276 
L 199.186355 64.808295 
L 217.580886 61.392882 
L 234.878226 57.445539 
L 250.550717 51.366442 
L 264.120269 45.137366 
L 275.17294 39.811611 
L 283.371568 36.090668 
L 288.466052 34.840022 
L 290.300985 34.115089 
L 288.820392 41.495255 
L 284.069438 70.278201 
L 276.193051 104.286929 
L 265.431503 129.268692 
L 252.113075 149.305372 
L 236.644048 161.606068 
L 219.496305 169.864928 
L 201.192942 176.308605 
L 182.292303 181.473456 
L 163.370956 185.508947 
L 145.006099 190.305682 
L 127.757953 196.463771 
L 112.152675 203.112984 
L 98.666306 209.769385 
L 87.71025 214.805183 
L 79.618722 218.289562 
L 74.638555 220.842602 
L 72.921669 223.1884 
L 74.52044 218.367712 
L 79.386095 192.186518 
L 87.370208 157.058558 
L 98.229222 130.745189 
L 98.229222 130.745189 
" clip-path="url(#p704e8c96e1)" style="fill: none; stroke: #0000ff; stroke-width: 1.2; stroke-linecap: square"/>
   </g>
   <g id="line2d_22">
    <path d="M 181.851846 128.221504 
L 182.154735 119.346748 
L 183.135139 115.379883 
L 183.635124 111.759333 
L 183.903232 108.296197 
L 185.120586 104.675647 
L 186.577063 101.055096 
L 186.606047 96.332639 
L 187.345155 93.184334 
L 188.337878 87.832216 
L 189.29437 84.998741 
L 190.526216 83.109758 
L 191.250832 80.591114 
L 192.192832 79.961453 
L 192.410216 83.424589 
L 191.17837 86.887724 
L 190.453755 90.350859 
L 189.946524 93.813995 
L 189.221909 97.27713 
L 187.50457 104.329333 
L 185.569847 108.673994 
L 185.05537 113.018655 
L 184.316262 116.828104 
L 182.317049 129.673188 
L 182.584432 125.687434 
L 182.055463 132.947425 
L 178.867155 145.60361 
L 178.591801 150.672381 
L 177.859939 153.379924 
L 177.345462 158.259796 
L 175.657109 161.18772 
L 174.22237 165.280516 
L 173.715139 169.058482 
L 172.483293 171.577126 
L 171.251447 175.040261 
L 170.309447 171.577126 
L 172.990524 163.076703 
L 174.483232 159.361703 
L 175.468709 154.104034 
L 176.686062 150.829797 
L 177.186047 147.587043 
L 178.164278 143.620178 
L 179.628001 139.432933 
L 181.106941 132.38073 
L 181.843875 129.307984 
L 183.091663 121.519078 
L 186.048093 108.296197 
L 187.294432 100.330986 
L 189.004524 94.758486 
L 190.018986 90.66569 
L 190.743601 87.202555 
L 191.250832 83.424589 
L 192.410216 80.905945 
L 191.395755 90.66569 
L 190.453755 96.332639 
L 187.279939 102.345901 
L 185.330724 108.485096 
L 185.765493 113.931663 
L 183.83077 118.433739 
L 183.091663 121.707976 
L 180.852601 134.930857 
L 179.142509 140.157043 
L 179.352647 144.690602 
L 177.164309 150.294585 
L 175.454216 156.622678 
L 175.432478 159.613567 
L 174.69337 163.076703 
L 173.932524 165.910177 
L 172.773139 168.743651 
L 172.048524 170.947465 
L 170.599293 173.151278 
L 171.831139 168.11399 
L 176.446939 151.396491 
L 177.678786 145.225814 
L 178.432386 140.345941 
L 179.642493 137.103187 
L 180.852601 134.206747 
L 182.095316 127.497709 
L 182.562693 128.224653 
L 182.830801 124.22662 
L 183.816278 120.070858 
L 185.048124 114.277977 
L 186.765463 107.225774 
L 188.243678 100.519884 
L 189.729139 95.388147 
L 190.453755 89.091537 
L 192.410216 80.905945 
L 193.642063 77.127979 
L 195.815909 72.090691 
L 197.047755 69.572047 
L 198.71437 67.368234 
L 199.946216 66.423742 
L 201.105601 68.627556 
L 200.815755 72.720352 
L 198.641909 79.016962 
L 197.410063 84.36908 
L 197.120216 87.517385 
L 196.178216 91.295351 
L 195.453601 95.073317 
L 195.163755 98.567935 
L 194.439139 101.086579 
L 192.772524 104.549715 
L 191.540678 107.414672 
L 189.149447 109.964799 
L 187.678478 112.861239 
L 187.185739 115.03357 
L 184.30177 119.189332 
L 183.323539 122.432086 
L 181.868512 125.866887 
L 182.079375 129.673188 
L 181.792427 136.379077 
L 179.867124 139.275518 
L 179.599016 142.896068 
L 178.620786 146.862932 
L 178.113555 150.672381 
L 178.570063 153.379924 
L 177.599078 156.465262 
L 176.142601 160.558059 
L 175.642616 163.076703 
L 174.664386 166.539838 
L 173.207909 169.373312 
L 172.265909 171.891956 
L 171.034063 173.780939 
L 171.034063 175.040261 
L 171.541293 170.632634 
L 174.004986 158.983906 
L 175.229586 154.639245 
L 175.975939 150.672381 
L 176.707801 147.398144 
L 177.461401 142.864585 
L 178.671509 139.432933 
L 180.127986 135.654967 
L 180.62797 132.569628 
L 181.848947 128.583874 
L 183.787293 124.415518 
L 184.555386 116.261409 
L 185.794478 110.311113 
L 190.163909 97.654927 
L 191.902986 91.610181 
L 192.844986 86.887724 
L 194.584062 84.05425 
L 196.033293 80.276284 
L 197.699909 76.813148 
L 198.424524 72.090691 
L 199.149139 70.201708 
L 201.830216 67.997895 
L 201.54037 71.775861 
L 176.229555 148.500051 
L 199.149139 79.646623 
L 197.120216 88.147046 
L 195.670986 93.184334 
L 194.94637 96.930817 
L 194.439139 101.999588 
L 191.758062 107.414672 
L 187.178493 115.915095 
L 185.736509 118.276324 
L 184.280032 121.519078 
L 183.533678 126.055785 
L 181.833006 130.756205 
L 179.410616 136.725391 
L 178.17877 142.140475 
L 178.381663 147.051831 
L 177.157062 151.742805 
L 176.186078 153.915135 
L 176.157093 158.448694 
L 174.671632 165.280516 
L 173.497755 168.428821 
L 170.816678 171.262295 
L 172.048524 165.280516 
L 175.715078 153.568822 
L 178.925124 137.260602 
L 181.364904 129.670039 
L 182.089519 128.222764 
L 177.323724 128.202614 
L 180.951873 120.983866 
L 183.838016 116.639205 
L 185.069862 111.192638 
L 186.540832 105.588655 
L 187.526309 101.243994 
L 188.743662 97.812342 
L 190.888524 93.499164 
L 192.627601 89.406368 
L 194.076832 85.628402 
L 196.033293 81.220775 
L 196.757909 77.127979 
L 198.207139 73.979674 
L 199.65637 70.201708 
L 200.888216 67.683064 
L 206.395293 64.84959 
L 209.945909 62.960607 
L 212.119755 62.330946 
L 214.221139 62.016115 
L 216.394986 61.071624 
L 218.278986 60.756793 
L 219.220986 64.219929 
L 218.49637 68.312725 
L 218.713755 73.035183 
L 217.916678 77.442809 
L 216.757293 81.535606 
L 215.235601 86.258063 
L 213.568986 90.350859 
L 211.395139 97.717893 
L 209.873447 101.905138 
L 209.148832 105.147892 
L 207.989447 108.390647 
L 206.25037 112.577892 
L 204.293909 118.528188 
L 202.627293 122.526536 
L 201.178063 125.586688 
L 197.554986 132.443696 
L 189.584216 144.375772 
L 187.424862 147.46111 
L 185.736509 150.168653 
L 183.091663 153.75772 
L 180.922164 157.756067 
L 177.323724 161.50255 
L 175.389001 165.280516 
L 173.207909 168.428821 
L 164.295139 182.596193 
L 160.961909 186.688989 
L 156.396832 189.837294 
L 151.107139 192.985599 
L 145.672524 194.874582 
L 144.947909 192.041108 
L 145.02037 187.00382 
L 145.527601 181.651702 
L 146.252216 177.244075 
L 146.542063 173.151278 
L 147.773909 168.743651 
L 149.440524 164.650855 
L 150.67237 159.928398 
L 152.628832 154.922593 
L 154.512832 150.924246 
L 157.483755 142.959034 
L 159.15037 139.181068 
L 160.816986 134.836408 
L 164.005293 128.87037 
L 167.121139 125.441866 
L 170.019601 122.180222 
L 172.845601 118.213358 
L 175.280309 115.316917 
L 177.207786 112.263062 
L 180.323632 109.366621 
L 182.490232 105.934969 
L 185.366955 103.227426 
L 192.555139 93.499164 
L 196.685447 89.091537 
L 199.294062 85.943233 
L 202.192524 82.165267 
L 205.30837 79.331792 
L 208.424216 76.183487 
L 211.032832 73.979674 
L 213.496524 71.1462 
L 215.887755 67.997895 
L 219.003601 66.423742 
L 218.49637 69.886878 
L 218.423909 73.350013 
L 216.974678 78.702131 
L 215.018216 82.794928 
L 213.78637 87.832216 
L 212.84437 92.554673 
L 211.395139 96.017808 
L 210.163293 100.26802 
L 208.206832 105.494206 
L 206.25037 110.216663 
L 204.801139 114.718739 
L 203.569293 117.992976 
L 201.395447 121.959841 
L 199.511447 124.856281 
L 197.844832 127.746425 
L 195.163755 130.633421 
L 192.047909 134.616026 
L 186.526339 140.377424 
L 185.069862 143.809077 
L 181.467075 148.342636 
L 155.744678 179.133058 
L 177.135324 154.104034 
L 172.120986 159.928398 
L 168.715293 164.336025 
L 165.382063 167.79916 
L 163.932832 170.947465 
L 160.309755 175.355092 
L 157.411293 177.873736 
L 155.962063 180.39238 
L 153.860678 182.911023 
L 151.904216 185.744498 
L 148.78837 187.948311 
L 147.339139 189.837294 
L 145.455139 191.096616 
L 144.730524 187.633481 
L 146.252216 178.818227 
L 146.542063 174.4106 
L 147.266678 170.317804 
L 148.715909 166.225008 
L 150.67237 161.18772 
L 151.904216 156.181915 
L 153.788216 152.561364 
L 155.020062 148.751915 
L 157.193909 145.320263 
L 158.643139 140.251492 
L 160.382216 137.54395 
L 162.048832 133.041874 
L 162.338678 130.13284 
L 166.179139 125.800773 
L 171.178986 119.47268 
L 175.773047 112.263062 
L 178.657016 108.831409 
L 181.304761 105.210859 
L 183.939462 102.881113 
L 186.577063 100.897681 
L 188.504539 97.466029 
L 193.569601 90.66569 
L 196.178216 87.517385 
L 199.294062 84.36908 
L 201.757755 81.220775 
L 205.30837 77.127979 
L 213.931293 67.997895 
L 215.887755 66.423742 
L 219.003601 64.84959 
L 218.931139 69.257217 
L 216.757293 80.591114 
L 215.235601 85.943233 
L 213.351601 91.295351 
L 212.119755 95.702978 
L 210.163293 100.456918 
L 209.438678 104.077469 
L 208.206832 108.233231 
L 205.30837 113.837214 
L 203.641755 116.544756 
L 198.786832 125.939298 
L 196.105755 129.188349 
L 193.497139 133.167806 
L 190.598678 136.41056 
L 188.200201 139.495899 
L 183.396001 145.068399 
L 179.301924 151.050178 
L 172.120986 158.448694 
L 170.381909 161.50255 
L 167.048678 165.910177 
L 163.715447 169.058482 
L 161.758986 171.577126 
L 159.874986 174.725431 
L 150.454986 184.485176 
L 148.78837 187.00382 
L 146.614524 188.892803 
L 144.947909 189.522464 
L 146.252216 179.447888 
L 146.252216 174.725431 
L 150.165139 163.706364 
L 151.904216 157.094923 
L 154.078063 149.287127 
L 156.976524 144.407255 
L 158.932986 140.251492 
L 160.09237 136.630941 
L 162.773447 130.494895 
L 164.440063 127.604751 
L 165.889293 127.428446 
L 167.338524 125.262412 
L 172.120986 120.19679 
L 174.794816 116.229926 
L 177.917909 112.640858 
L 179.845386 109.020307 
L 182.246761 106.659079 
L 184.903201 101.968105 
L 188.019047 98.72535 
L 192.337755 94.758486 
L 197.410063 88.776707 
L 200.525909 85.313572 
L 206.032986 79.646623 
L 210.308216 75.868657 
L 213.424062 72.405522 
L 217.264524 68.627556 
L 219.655755 66.738573 
L 222.336832 64.84959 
L 225.452678 63.275437 
L 228.568524 62.330946 
L 230.887293 61.071624 
L 234.292986 59.812302 
L 237.118986 59.497471 
L 238.060986 62.016115 
L 237.553755 65.479251 
L 236.829139 68.627556 
L 236.321909 71.46103 
L 235.090062 75.238996 
L 234.582832 78.07247 
L 233.640832 81.220775 
L 232.191601 84.05425 
L 231.177139 88.147046 
L 229.727909 91.925012 
L 229.003293 93.499164 
L 227.771447 96.710435 
L 226.322216 100.142088 
L 224.438216 104.140435 
L 220.307909 113.17607 
L 218.641293 116.607722 
L 216.467447 120.039375 
L 213.78637 123.471027 
L 211.177755 125.810218 
L 209.221293 128.337047 
L 205.163447 131.751069 
L 202.989601 134.112298 
L 199.438986 136.09573 
L 196.323139 138.960687 
L 192.917447 141.668229 
L 189.584216 144.910983 
L 185.519124 148.153737 
L 180.973612 150.672381 
L 178.091816 153.75772 
L 176.164339 156.811576 
L 169.729755 162.447042 
L 167.048678 166.539838 
L 164.874832 168.743651 
L 161.758986 172.206787 
L 160.09237 174.4106 
L 156.759139 177.244075 
L 151.686832 183.225854 
L 149.295601 185.429667 
L 146.179755 187.00382 
L 144.947909 188.263142 
L 145.02037 185.744498 
L 143.063909 189.207633 
L 141.614678 191.411447 
L 139.223447 192.985599 
L 134.223601 195.189413 
L 131.83237 196.133904 
L 131.614986 194.874582 
L 129.94837 196.763565 
L 128.209293 197.708056 
L 126.832524 197.708056 
L 125.890524 194.244921 
L 125.890524 189.837294 
L 127.194832 181.651702 
L 128.354216 177.244075 
L 129.875909 172.836448 
L 131.107755 168.428821 
L 132.77437 163.391533 
L 133.788832 158.826491 
L 139.803139 145.257297 
L 141.542216 141.636746 
L 143.208832 137.827297 
L 146.831909 133.703018 
L 150.165139 127.544934 
L 154.005601 125.929853 
L 158.063447 123.219163 
L 161.686524 121.267214 
L 165.526986 118.181875 
L 169.294986 115.474333 
L 172.700678 111.885265 
L 177.70777 108.642511 
L 181.542942 105.210859 
L 185.627816 100.708783 
L 190.381293 97.812342 
L 194.511601 92.869503 
L 196.685447 89.721198 
L 203.134524 83.424589 
L 207.699601 79.331792 
L 211.757447 77.127979 
L 215.597909 74.294504 
L 219.43837 71.775861 
L 225.887447 67.997895 
L 233.061139 63.905098 
L 235.162524 62.960607 
L 237.553755 62.330946 
L 237.33637 66.738573 
L 236.032062 73.979674 
L 234.148062 79.646623 
L 232.698832 83.109758 
L 231.68437 86.258063 
L 229.727909 90.350859 
L 227.843909 95.388147 
L 221.974524 112.263062 
L 219.293447 116.418824 
L 218.351447 120.039375 
L 216.394986 122.400603 
L 213.78637 126.181718 
L 209.003909 131.97145 
L 195.815909 142.423822 
L 191.250832 147.114797 
L 187.649493 149.979754 
L 185.475647 153.789203 
L 181.883729 156.496745 
L 176.142601 160.558059 
L 172.33837 163.076703 
L 169.222524 165.595347 
L 163.715447 168.743651 
L 159.874986 172.206787 
L 156.034524 174.4106 
L 151.976678 176.929244 
L 145.96237 181.651702 
L 142.629139 183.540684 
L 138.788678 186.059328 
L 131.397601 191.726277 
L 129.00637 192.985599 
L 126.325293 193.930091 
L 126.904986 188.263142 
L 127.12237 182.911023 
L 129.586063 174.4106 
L 131.325139 169.373312 
L 132.049755 164.336025 
L 134.440986 158.637593 
L 137.411909 149.948271 
L 139.078524 146.170305 
L 141.469755 142.896068 
L 143.208832 139.275518 
L 145.817447 134.96234 
L 147.991293 130.976586 
L 150.165139 128.088016 
L 150.67237 128.271247 
L 159.512678 122.526536 
L 169.294986 115.128019 
L 173.135447 111.507468 
L 177.468647 108.642511 
L 180.352616 105.399757 
L 185.374201 102.157003 
L 188.736416 98.536452 
L 191.395755 96.741918 
L 194.00437 93.813995 
L 198.352062 90.350859 
L 203.134524 86.887724 
L 207.627139 84.36908 
L 210.090832 81.220775 
L 215.308063 77.127979 
L 218.206524 75.553826 
L 218.641293 77.442809 
L 218.858678 77.75764 
L 219.873139 75.553826 
L 221.757139 73.979674 
L 223.713601 71.46103 
L 227.264216 69.257217 
L 231.829293 66.738573 
L 236.611755 64.534759 
L 237.771139 65.16442 
L 239.22037 62.960607 
L 244.727447 60.441963 
L 248.060678 59.812302 
L 250.959139 58.55298 
L 255.524216 58.238149 
L 256.248832 61.071624 
L 256.248832 65.794081 
L 254.799601 69.257217 
L 254.074986 72.405522 
L 253.640216 76.183487 
L 252.190986 79.331792 
L 251.46637 82.480097 
L 249.799755 85.628402 
L 248.567909 89.406368 
L 248.060678 92.554673 
L 245.886832 96.647469 
L 244.220216 100.393952 
L 241.539139 104.014503 
L 238.930524 108.359163 
L 237.481293 111.979714 
L 233.350986 118.65412 
L 232.916216 118.276324 
L 227.843909 124.604417 
L 222.771601 129.481141 
L 213.713909 132.69556 
L 207.989447 135.592001 
L 199.149139 138.803272 
L 194.584062 140.944119 
L 188.410339 143.651661 
L 180.986655 148.877848 
L 178.345432 151.931703 
L 175.946955 154.104034 
L 171.831139 158.983906 
L 167.338524 161.817381 
L 163.932832 164.336025 
L 159.874986 167.484329 
L 155.599755 170.632634 
L 151.976678 173.466109 
L 146.686986 178.503397 
L 142.411755 181.336871 
L 136.687293 186.059328 
L 133.281601 189.207633 
L 129.513601 190.781786 
L 126.397755 191.726277 
L 124.731139 193.61526 
L 119.224063 196.763565 
L 114.658986 198.022887 
L 110.818524 198.652548 
L 107.702678 198.652548 
L 107.702678 190.466955 
L 108.427293 187.31865 
L 109.514216 181.966532 
L 111.035909 176.614414 
L 112.919909 171.577126 
L 114.151755 165.910177 
L 116.325601 161.18772 
L 118.789293 157.126406 
L 120.238524 152.781746 
L 122.629755 148.814881 
L 125.745601 143.368314 
L 127.702063 139.590348 
L 132.484524 133.073357 
L 135.165601 130.198955 
L 141.832063 126.058934 
L 145.889909 124.824798 
L 150.67237 122.463569 
L 155.454832 120.857934 
L 158.788062 119.976409 
L 163.86037 118.370773 
L 167.62837 116.387341 
L 171.034063 113.144587 
L 179.388878 106.281282 
L 183.700339 103.416325 
L 188.011801 99.638359 
L 190.163909 97.27713 
L 193.786986 94.443656 
L 197.120216 91.295351 
L 205.525755 84.998741 
L 213.134216 79.961453 
L 215.815293 77.75764 
L 220.815139 75.553826 
L 227.046832 71.775861 
L 229.872832 70.201708 
L 234.655293 68.627556 
L 239.22037 66.108912 
L 243.278216 64.219929 
L 246.611447 62.960607 
L 249.002678 61.701285 
L 252.118524 60.756793 
L 254.799601 60.127132 
L 255.524216 63.905098 
L 255.524216 67.053403 
L 253.495293 69.572047 
L 252.480832 73.035183 
L 251.973601 76.813148 
L 250.089601 80.905945 
L 247.408524 87.517385 
L 246.394063 90.66569 
L 245.669447 93.499164 
L 243.785447 97.151198 
L 242.553601 101.30696 
L 240.597139 106.186833 
L 238.205909 111.601918 
L 235.524832 114.876155 
L 229.075755 121.707976 
L 226.177293 124.22662 
L 224.510678 126.228942 
L 220.887601 127.299366 
L 215.887755 129.63226 
L 208.931447 135.025306 
L 201.830216 136.630941 
L 197.699909 138.614374 
L 188.649462 143.273865 
L 188.171216 143.273865 
L 185.05537 145.792509 
L 180.736662 150.326068 
L 175.946955 153.726237 
L 171.903601 155.363356 
L 165.454524 159.487635 
L 158.715601 163.391533 
L 154.657755 166.225008 
L 146.542063 172.206787 
L 143.860986 174.4106 
L 138.643755 180.077549 
L 135.238063 181.966532 
L 132.122216 184.485176 
L 128.06437 186.059328 
L 124.006524 188.892803 
L 118.499447 190.781786 
L 113.282216 192.355938 
L 106.978063 192.670769 
L 108.427293 186.688989 
L 108.427293 182.281362 
L 110.818524 172.206787 
L 112.267755 167.484329 
L 115.166216 162.761872 
L 119.296524 154.229966 
L 124.368832 144.092424 
L 127.267293 139.055136 
L 130.383139 134.175264 
L 133.71637 130.192658 
L 137.049601 127.851578 
L 139.513293 125.50798 
L 144.005909 122.432086 
L 146.686986 121.739459 
L 150.020216 119.944925 
L 154.512832 117.772595 
L 164.584986 114.939121 
L 169.367447 113.144587 
L 174.077447 111.696367 
L 177.700524 109.901833 
L 181.28737 107.572087 
L 183.214847 104.486748 
L 185.606078 103.070011 
L 192.772524 99.638359 
L 196.83037 96.930817 
L 199.946216 96.017808 
L 199.728832 97.875308 
L 201.830216 94.758486 
L 203.279447 93.499164 
L 206.902524 91.295351 
L 210.96037 89.091537 
L 214.076216 87.202555 
L 217.916678 84.683911 
L 218.351447 85.628402 
L 220.742678 82.794928 
L 223.641139 79.961453 
L 226.249755 78.387301 
L 228.640986 76.813148 
L 230.814832 76.183487 
L 233.930678 73.979674 
L 236.539293 72.405522 
L 237.481293 73.664843 
L 238.713139 70.831369 
L 244.220216 67.368234 
L 247.336062 66.108912 
L 250.886678 64.534759 
L 256.248832 63.275437 
L 256.248832 64.534759 
L 258.422678 62.645776 
L 261.321139 60.756793 
L 264.944216 59.812302 
L 269.291909 58.86781 
L 272.914986 58.238149 
L 274.364216 60.756793 
L 274.364216 64.219929 
L 272.914986 68.312725 
L 272.19037 72.405522 
L 270.741139 75.868657 
L 270.016524 79.016962 
L 268.567293 82.165267 
L 267.118063 86.258063 
L 265.668832 89.721198 
L 264.219601 93.499164 
L 262.045755 97.749376 
L 259.147293 104.801579 
L 256.973447 108.075816 
L 255.524216 111.129672 
L 253.422832 114.026112 
L 250.741755 117.457765 
L 248.350524 119.818993 
L 243.568062 125.945595 
L 239.727601 128.10338 
L 234.437909 129.710967 
L 230.162678 131.310306 
L 212.554524 134.143781 
L 197.047755 138.614374 
L 189.366832 140.566323 
L 184.11337 144.186873 
L 179.077293 149.759373 
L 175.012201 151.742805 
L 170.671755 155.363356 
L 165.164678 158.763525 
L 160.164832 162.761872 
L 155.38237 165.280516 
L 146.759447 170.632634 
L 145.092832 171.262295 
L 145.092832 169.688143 
L 142.701601 172.521617 
L 141.25237 174.725431 
L 139.078524 176.614414 
L 136.469909 177.873736 
L 133.571447 180.077549 
L 130.745447 181.966532 
L 126.18037 183.540684 
L 125.962986 181.651702 
L 125.020986 184.170345 
L 123.064524 186.374159 
L 119.731293 188.577972 
L 116.832832 189.522464 
L 113.499601 191.411447 
L 109.948986 192.041108 
L 107.702678 190.466955 
L 109.804063 183.225854 
L 111.977909 176.929244 
L 113.427139 170.002973 
L 114.87637 166.539838 
L 118.789293 158.574627 
L 120.455909 153.316957 
L 122.41237 150.420517 
L 126.760063 141.227467 
L 129.368678 137.418018 
L 132.267139 134.364162 
L 135.382986 130.743611 
L 138.716216 128.039847 
L 117.340063 128.130518 
L 121.615293 125.611874 
L 130.962832 122.746917 
L 135.672832 121.676493 
L 140.237909 120.794968 
L 143.788524 120.448654 
L 148.570986 120.291239 
L 164.077755 118.181875 
L 174.562939 115.316917 
L 183.867001 112.640858 
L 189.366832 111.601918 
L 193.424678 110.531494 
L 196.975293 109.083274 
L 201.975139 107.28874 
L 210.815447 104.958994 
L 216.105139 102.471833 
L 218.931139 102.660732 
L 220.38037 101.212511 
L 224.438216 99.229079 
L 227.336678 97.434545 
L 230.669909 95.702978 
L 235.234986 93.184334 
L 240.959447 90.66569 
L 245.524524 88.147046 
L 252.625755 84.998741 
L 254.799601 83.109758 
L 255.524216 84.36908 
L 257.698062 82.480097 
L 260.596524 80.591114 
L 260.596524 82.480097 
L 261.321139 84.683911 
L 263.494986 82.165267 
L 270.741139 79.016962 
L 273.639601 78.387301 
L 274.364216 80.276284 
L 276.538063 78.702131 
L 277.987293 76.498318 
L 280.885755 75.868657 
L 284.508832 75.868657 
L 285.958062 77.127979 
L 291.03037 78.387301 
L 292.479601 79.016962 
L 292.479601 84.36908 
L 291.754986 87.832216 
L 290.305755 90.66569 
L 287.407293 96.9623 
L 285.233447 99.85874 
L 283.059601 103.479291 
L 280.885755 106.722045 
L 275.813447 113.207553 
L 272.914986 116.292892 
L 271.465755 119.000434 
L 265.668832 123.691408 
L 261.321139 126.383209 
L 256.973447 128.176798 
L 251.176524 129.238722 
L 244.220216 129.572442 
L 239.727601 129.553552 
L 232.119139 129.884124 
L 222.046986 131.278823 
L 214.003755 131.814035 
L 204.656216 133.199289 
L 199.221601 134.647509 
L 192.772524 135.68645 
L 187.736447 137.292085 
L 180.823616 138.708823 
L 166.976216 143.022 
L 161.758986 143.903526 
L 153.860678 146.044373 
L 148.860832 148.18522 
L 145.02037 149.255644 
L 143.860986 148.342636 
L 142.846524 149.979754 
L 140.455293 151.774288 
L 137.629293 153.222508 
L 132.846832 154.828144 
L 123.281909 158.952423 
L 119.224063 160.243228 
L 114.948832 162.447042 
L 111.832986 163.391533 
L 108.427293 164.650855 
L 107.702678 162.132211 
L 106.253447 164.965686 
L 102.63037 167.484329 
L 101.181139 168.11399 
L 100.456524 165.910177 
L 99.731909 166.225008 
L 97.558063 167.484329 
L 93.21037 168.11399 
L 90.311909 168.743651 
L 89.587293 167.484329 
L 88.862678 165.595347 
L 88.862678 167.79916 
L 85.239601 169.373312 
L 81.616524 169.058482 
L 76.544216 169.373312 
L 72.196524 169.373312 
L 70.022678 167.169499 
L 70.022678 164.336025 
L 75.094986 153.128059 
L 77.268832 149.350093 
L 79.442678 146.453653 
L 84.514986 140.503356 
L 87.413447 137.418018 
L 89.587293 134.710475 
L 93.21037 132.191832 
L 97.558063 128.952226 
L 100.456524 127.87708 
L 102.63037 126.439879 
L 106.253447 125.366307 
L 115.456063 123.943273 
L 120.238524 123.628442 
L 124.948524 123.628442 
L 129.730986 123.471027 
L 135.962678 122.967298 
L 140.962524 121.896875 
L 145.96237 121.015349 
L 157.411293 119.976409 
L 169.584832 117.111451 
L 176.222309 116.418824 
L 186.475616 114.844672 
L 194.366678 112.861239 
L 198.641909 112.357511 
L 203.134524 112.011197 
L 207.482216 111.129672 
L 211.540063 110.059248 
L 216.032678 109.335138 
L 221.539755 107.918401 
L 227.481601 106.847977 
L 231.756832 105.43124 
L 236.104524 104.171918 
L 254.799601 99.54391 
L 247.553447 101.149545 
L 259.871909 97.938274 
L 265.668832 96.678952 
L 271.465755 95.073317 
L 277.262678 93.813995 
L 281.61037 93.184334 
L 286.682678 92.239842 
L 291.03037 91.610181 
L 293.204216 91.610181 
L 293.928832 93.184334 
L 293.928832 95.388147 
L 292.479601 98.788317 
L 291.754986 101.149545 
L 289.581139 103.857087 
L 285.958062 108.925858 
L 284.508832 111.066706 
L 282.334986 113.963146 
L 279.436524 116.670688 
L 275.088832 119.567129 
L 271.465755 121.707976 
L 267.118063 125.139629 
L 259.871909 126.921569 
L 252.553293 129.245018 
L 246.176678 129.03723 
L 237.553755 129.723561 
L 222.336832 129.660594 
L 215.887755 129.994315 
L 207.772063 131.048997 
L 192.989909 131.719586 
L 181.340992 132.915942 
L 175.860001 133.797467 
L 170.164524 134.332679 
L 165.599447 134.490094 
L 158.932986 134.993823 
L 153.425909 136.064247 
L 142.049447 137.103187 
L 137.701755 138.362509 
L 133.643909 138.897721 
L 125.528216 141.57378 
L 121.252986 142.455306 
L 116.977755 143.903526 
L 111.253293 144.407255 
L 106.978063 145.666577 
L 100.456524 146.894415 
L 97.558063 147.807424 
L 97.558063 144.533187 
L 96.108832 146.170305 
L 93.934986 147.429627 
L 90.311909 148.846364 
L 85.964216 149.00378 
L 77.993447 150.074203 
L 72.196524 150.389034 
L 70.022678 150.04272 
L 70.022678 147.303695 
L 71.471909 144.596153 
L 74.37037 141.542297 
L 76.544216 138.456958 
L 82.341139 134.867891 
L 85.964216 132.349247 
L 88.862678 131.269378 
L 93.21037 129.115938 
L 96.833447 127.683459 
L 102.63037 126.257277 
L 106.978063 125.369455 
L 113.282216 124.478485 
L 118.064678 123.974756 
L 124.223909 124.006239 
L 138.064063 122.7784 
L 144.295755 122.998781 
L 149.295601 122.998781 
L 155.962063 122.872849 
L 161.396678 122.337637 
L 174.758586 121.487595 
L 179.997555 121.519078 
L 185.722016 120.448654 
L 192.627601 119.756027 
L 198.134678 119.78751 
L 203.134524 118.905985 
L 215.742832 117.867044 
L 221.467293 116.985519 
L 228.351139 116.292892 
L 235.017601 115.222468 
L 240.524678 114.152044 
L 243.857909 113.270519 
L 247.191139 112.200095 
L 252.480832 111.129672 
L 257.698062 109.712935 
L 262.77037 108.453613 
L 267.842678 107.383189 
L 275.813447 105.43124 
L 280.161139 104.549715 
L 281.61037 107.257257 
L 280.885755 109.618485 
L 281.61037 111.444502 
L 281.61037 113.774248 
L 283.059601 111.979714 
L 288.131909 109.996282 
L 290.305755 110.751875 
L 293.204216 110.562977 
L 295.378062 112.200095 
L 293.928832 114.215011 
L 291.754986 116.355858 
L 288.856524 118.905985 
L 285.958062 121.046832 
L 283.059601 123.408061 
L 278.711909 124.824798 
L 271.465755 126.606739 
L 264.944216 127.667717 
L 257.698062 128.177743 
L 237.118986 128.816849 
L 228.278678 129.323726 
L 209.945909 129.245018 
L 202.337447 129.937645 
L 194.439139 129.906162 
L 187.31617 129.695226 
L 181.121433 130.391001 
L 167.990678 130.699535 
L 163.280678 131.222154 
L 157.048986 131.562171 
L 150.599909 132.065899 
L 138.208986 132.034416 
L 132.77437 132.349247 
L 127.049909 132.884459 
L 115.383601 134.458611 
L 108.427293 135.875348 
L 101.181139 136.945772 
L 93.934986 137.827297 
L 78.718063 139.369967 
L 74.37037 140.44039 
L 71.471909 141.353399 
L 69.298063 139.338484 
L 70.747293 136.442043 
L 73.645755 134.112298 
L 77.993447 131.782552 
L 83.065755 130.158027 
L 86.688832 128.725548 
L 89.587293 127.832689 
L 93.21037 127.8478 
L 93.21037 127.8478 
" clip-path="url(#p704e8c96e1)" style="fill: none; stroke-dasharray: 3.7,1.6; stroke-dashoffset: 0; stroke: #000000"/>
   </g>
   <g id="line2d_23">
    <path d="M 57.994063 128.130518 
L 306.682062 128.130518 
" clip-path="url(#p704e8c96e1)" style="fill: none; stroke: #000000; stroke-width: 0.4; stroke-linecap: square"/>
   </g>
   <g id="line2d_24">
    <path d="M 181.613447 233.25125 
L 181.613447 22.92125 
" clip-path="url(#p704e8c96e1)" style="fill: none; stroke: #000000; stroke-width: 0.4; stroke-linecap: square"/>
   </g>
   <g id="patch_3">
    <path d="M 57.994063 233.25125 
L 57.994063 22.92125 
" style="fill: none; stroke: #000000; stroke-width: 0.8; stroke-linejoin: miter; stroke-linecap: square"/>
   </g>
   <g id="patch_4">
    <path d="M 306.682062 233.25125 
L 306.682062 22.92125 
" style="fill: none; stroke: #000000; stroke-width: 0.8; stroke-linejoin: miter; stroke-linecap: square"/>
   </g>
   <g id="patch_5">
    <path d="M 57.994063 233.25125 
L 306.682062 233.25125 
" style="fill: none; stroke: #000000; stroke-width: 0.8; stroke-linejoin: miter; stroke-linecap: square"/>
   </g>
   <g id="patch_6">
    <path d="M 57.994063 22.92125 
L 306.682062 22.92125 
" style="fill: none; stroke: #000000; stroke-width: 0.8; stroke-linejoin: miter; stroke-linecap: square"/>
   </g>
   <g id="text_13">
    <!-- Specimen (8) - Oesterle_R2  -->
    <g transform="translate(102.250406 16.92125) scale(0.14 -0.14)">
     <defs>
      <path id="TimesNewRomanPSMT-53" d="M 2934 4334 
L 2934 2869 
L 2819 2869 
Q 2763 3291 2617 3541 
Q 2472 3791 2203 3937 
Q 1934 4084 1647 4084 
Q 1322 4084 1109 3886 
Q 897 3688 897 3434 
Q 897 3241 1031 3081 
Q 1225 2847 1953 2456 
Q 2547 2138 2764 1967 
Q 2981 1797 3098 1565 
Q 3216 1334 3216 1081 
Q 3216 600 2842 251 
Q 2469 -97 1881 -97 
Q 1697 -97 1534 -69 
Q 1438 -53 1133 45 
Q 828 144 747 144 
Q 669 144 623 97 
Q 578 50 556 -97 
L 441 -97 
L 441 1356 
L 556 1356 
Q 638 900 775 673 
Q 913 447 1195 297 
Q 1478 147 1816 147 
Q 2206 147 2432 353 
Q 2659 559 2659 841 
Q 2659 997 2573 1156 
Q 2488 1316 2306 1453 
Q 2184 1547 1640 1851 
Q 1097 2156 867 2337 
Q 638 2519 519 2737 
Q 400 2956 400 3219 
Q 400 3675 750 4004 
Q 1100 4334 1641 4334 
Q 1978 4334 2356 4169 
Q 2531 4091 2603 4091 
Q 2684 4091 2736 4139 
Q 2788 4188 2819 4334 
L 2934 4334 
z
" transform="scale(0.015625)"/>
      <path id="TimesNewRomanPSMT-70" d="M -6 2578 
L 875 2934 
L 994 2934 
L 994 2266 
Q 1216 2644 1439 2795 
Q 1663 2947 1909 2947 
Q 2341 2947 2628 2609 
Q 2981 2197 2981 1534 
Q 2981 794 2556 309 
Q 2206 -88 1675 -88 
Q 1444 -88 1275 -22 
Q 1150 25 994 166 
L 994 -706 
Q 994 -1000 1030 -1079 
Q 1066 -1159 1155 -1206 
Q 1244 -1253 1478 -1253 
L 1478 -1369 
L -22 -1369 
L -22 -1253 
L 56 -1253 
Q 228 -1256 350 -1188 
Q 409 -1153 442 -1076 
Q 475 -1000 475 -688 
L 475 2019 
Q 475 2297 450 2372 
Q 425 2447 370 2484 
Q 316 2522 222 2522 
Q 147 2522 31 2478 
L -6 2578 
z
M 994 2081 
L 994 1013 
Q 994 666 1022 556 
Q 1066 375 1236 237 
Q 1406 100 1666 100 
Q 1978 100 2172 344 
Q 2425 663 2425 1241 
Q 2425 1897 2138 2250 
Q 1938 2494 1663 2494 
Q 1513 2494 1366 2419 
Q 1253 2363 994 2081 
z
" transform="scale(0.015625)"/>
      <path id="TimesNewRomanPSMT-65" d="M 681 1784 
Q 678 1147 991 784 
Q 1303 422 1725 422 
Q 2006 422 2214 576 
Q 2422 731 2563 1106 
L 2659 1044 
Q 2594 616 2278 264 
Q 1963 -88 1488 -88 
Q 972 -88 605 314 
Q 238 716 238 1394 
Q 238 2128 614 2539 
Q 991 2950 1559 2950 
Q 2041 2950 2350 2633 
Q 2659 2316 2659 1784 
L 681 1784 
z
M 681 1966 
L 2006 1966 
Q 1991 2241 1941 2353 
Q 1863 2528 1708 2628 
Q 1553 2728 1384 2728 
Q 1125 2728 920 2526 
Q 716 2325 681 1966 
z
" transform="scale(0.015625)"/>
      <path id="TimesNewRomanPSMT-63" d="M 2631 1088 
Q 2516 522 2178 217 
Q 1841 -88 1431 -88 
Q 944 -88 581 321 
Q 219 731 219 1428 
Q 219 2103 620 2525 
Q 1022 2947 1584 2947 
Q 2006 2947 2278 2723 
Q 2550 2500 2550 2259 
Q 2550 2141 2473 2067 
Q 2397 1994 2259 1994 
Q 2075 1994 1981 2113 
Q 1928 2178 1911 2362 
Q 1894 2547 1784 2644 
Q 1675 2738 1481 2738 
Q 1169 2738 978 2506 
Q 725 2200 725 1697 
Q 725 1184 976 792 
Q 1228 400 1656 400 
Q 1963 400 2206 609 
Q 2378 753 2541 1131 
L 2631 1088 
z
" transform="scale(0.015625)"/>
      <path id="TimesNewRomanPSMT-69" d="M 928 4444 
Q 1059 4444 1151 4351 
Q 1244 4259 1244 4128 
Q 1244 3997 1151 3903 
Q 1059 3809 928 3809 
Q 797 3809 703 3903 
Q 609 3997 609 4128 
Q 609 4259 701 4351 
Q 794 4444 928 4444 
z
M 1188 2947 
L 1188 647 
Q 1188 378 1227 289 
Q 1266 200 1342 156 
Q 1419 113 1622 113 
L 1622 0 
L 231 0 
L 231 113 
Q 441 113 512 153 
Q 584 194 626 287 
Q 669 381 669 647 
L 669 1750 
Q 669 2216 641 2353 
Q 619 2453 572 2492 
Q 525 2531 444 2531 
Q 356 2531 231 2484 
L 188 2597 
L 1050 2947 
L 1188 2947 
z
" transform="scale(0.015625)"/>
      <path id="TimesNewRomanPSMT-6d" d="M 1050 2338 
Q 1363 2650 1419 2697 
Q 1559 2816 1721 2881 
Q 1884 2947 2044 2947 
Q 2313 2947 2506 2790 
Q 2700 2634 2766 2338 
Q 3088 2713 3309 2830 
Q 3531 2947 3766 2947 
Q 3994 2947 4170 2830 
Q 4347 2713 4450 2447 
Q 4519 2266 4519 1878 
L 4519 647 
Q 4519 378 4559 278 
Q 4591 209 4675 161 
Q 4759 113 4950 113 
L 4950 0 
L 3538 0 
L 3538 113 
L 3597 113 
Q 3781 113 3884 184 
Q 3956 234 3988 344 
Q 4000 397 4000 647 
L 4000 1878 
Q 4000 2228 3916 2372 
Q 3794 2572 3525 2572 
Q 3359 2572 3192 2489 
Q 3025 2406 2788 2181 
L 2781 2147 
L 2788 2013 
L 2788 647 
Q 2788 353 2820 281 
Q 2853 209 2943 161 
Q 3034 113 3253 113 
L 3253 0 
L 1806 0 
L 1806 113 
Q 2044 113 2133 169 
Q 2222 225 2256 338 
Q 2272 391 2272 647 
L 2272 1878 
Q 2272 2228 2169 2381 
Q 2031 2581 1784 2581 
Q 1616 2581 1450 2491 
Q 1191 2353 1050 2181 
L 1050 647 
Q 1050 366 1089 281 
Q 1128 197 1204 155 
Q 1281 113 1516 113 
L 1516 0 
L 100 0 
L 100 113 
Q 297 113 375 155 
Q 453 197 493 289 
Q 534 381 534 647 
L 534 1741 
Q 534 2213 506 2350 
Q 484 2453 437 2492 
Q 391 2531 309 2531 
Q 222 2531 100 2484 
L 53 2597 
L 916 2947 
L 1050 2947 
L 1050 2338 
z
" transform="scale(0.015625)"/>
      <path id="TimesNewRomanPSMT-6e" d="M 1034 2341 
Q 1538 2947 1994 2947 
Q 2228 2947 2397 2830 
Q 2566 2713 2666 2444 
Q 2734 2256 2734 1869 
L 2734 647 
Q 2734 375 2778 278 
Q 2813 200 2889 156 
Q 2966 113 3172 113 
L 3172 0 
L 1756 0 
L 1756 113 
L 1816 113 
Q 2016 113 2095 173 
Q 2175 234 2206 353 
Q 2219 400 2219 647 
L 2219 1819 
Q 2219 2209 2117 2386 
Q 2016 2563 1775 2563 
Q 1403 2563 1034 2156 
L 1034 647 
Q 1034 356 1069 288 
Q 1113 197 1189 155 
Q 1266 113 1500 113 
L 1500 0 
L 84 0 
L 84 113 
L 147 113 
Q 366 113 442 223 
Q 519 334 519 647 
L 519 1709 
Q 519 2225 495 2337 
Q 472 2450 423 2490 
Q 375 2531 294 2531 
Q 206 2531 84 2484 
L 38 2597 
L 900 2947 
L 1034 2947 
L 1034 2341 
z
" transform="scale(0.015625)"/>
      <path id="TimesNewRomanPSMT-20" transform="scale(0.015625)"/>
      <path id="TimesNewRomanPSMT-28" d="M 1988 -1253 
L 1988 -1369 
Q 1516 -1131 1200 -813 
Q 750 -359 506 256 
Q 263 872 263 1534 
Q 263 2503 741 3301 
Q 1219 4100 1988 4444 
L 1988 4313 
Q 1603 4100 1356 3731 
Q 1109 3363 987 2797 
Q 866 2231 866 1616 
Q 866 947 969 400 
Q 1050 -31 1165 -292 
Q 1281 -553 1476 -793 
Q 1672 -1034 1988 -1253 
z
" transform="scale(0.015625)"/>
      <path id="TimesNewRomanPSMT-38" d="M 1228 2134 
Q 725 2547 579 2797 
Q 434 3047 434 3316 
Q 434 3728 753 4026 
Q 1072 4325 1600 4325 
Q 2113 4325 2425 4047 
Q 2738 3769 2738 3413 
Q 2738 3175 2569 2928 
Q 2400 2681 1866 2347 
Q 2416 1922 2594 1678 
Q 2831 1359 2831 1006 
Q 2831 559 2490 242 
Q 2150 -75 1597 -75 
Q 994 -75 656 303 
Q 388 606 388 966 
Q 388 1247 577 1523 
Q 766 1800 1228 2134 
z
M 1719 2469 
Q 2094 2806 2194 3001 
Q 2294 3197 2294 3444 
Q 2294 3772 2109 3958 
Q 1925 4144 1606 4144 
Q 1288 4144 1088 3959 
Q 888 3775 888 3528 
Q 888 3366 970 3203 
Q 1053 3041 1206 2894 
L 1719 2469 
z
M 1375 2016 
Q 1116 1797 991 1539 
Q 866 1281 866 981 
Q 866 578 1086 336 
Q 1306 94 1647 94 
Q 1984 94 2187 284 
Q 2391 475 2391 747 
Q 2391 972 2272 1150 
Q 2050 1481 1375 2016 
z
" transform="scale(0.015625)"/>
      <path id="TimesNewRomanPSMT-29" d="M 144 4313 
L 144 4444 
Q 619 4209 934 3891 
Q 1381 3434 1625 2820 
Q 1869 2206 1869 1541 
Q 1869 572 1392 -226 
Q 916 -1025 144 -1369 
L 144 -1253 
Q 528 -1038 776 -670 
Q 1025 -303 1145 264 
Q 1266 831 1266 1447 
Q 1266 2113 1163 2663 
Q 1084 3094 967 3353 
Q 850 3613 656 3853 
Q 463 4094 144 4313 
z
" transform="scale(0.015625)"/>
      <path id="TimesNewRomanPSMT-2d" d="M 259 1672 
L 1875 1672 
L 1875 1200 
L 259 1200 
L 259 1672 
z
" transform="scale(0.015625)"/>
      <path id="TimesNewRomanPSMT-4f" d="M 2341 4334 
Q 3166 4334 3770 3707 
Q 4375 3081 4375 2144 
Q 4375 1178 3765 540 
Q 3156 -97 2291 -97 
Q 1416 -97 820 525 
Q 225 1147 225 2134 
Q 225 3144 913 3781 
Q 1509 4334 2341 4334 
z
M 2281 4106 
Q 1713 4106 1369 3684 
Q 941 3159 941 2147 
Q 941 1109 1384 550 
Q 1725 125 2284 125 
Q 2881 125 3270 590 
Q 3659 1056 3659 2059 
Q 3659 3147 3231 3681 
Q 2888 4106 2281 4106 
z
" transform="scale(0.015625)"/>
      <path id="TimesNewRomanPSMT-73" d="M 2050 2947 
L 2050 1972 
L 1947 1972 
Q 1828 2431 1642 2597 
Q 1456 2763 1169 2763 
Q 950 2763 815 2647 
Q 681 2531 681 2391 
Q 681 2216 781 2091 
Q 878 1963 1175 1819 
L 1631 1597 
Q 2266 1288 2266 781 
Q 2266 391 1970 151 
Q 1675 -88 1309 -88 
Q 1047 -88 709 6 
Q 606 38 541 38 
Q 469 38 428 -44 
L 325 -44 
L 325 978 
L 428 978 
Q 516 541 762 319 
Q 1009 97 1316 97 
Q 1531 97 1667 223 
Q 1803 350 1803 528 
Q 1803 744 1651 891 
Q 1500 1038 1047 1263 
Q 594 1488 453 1669 
Q 313 1847 313 2119 
Q 313 2472 555 2709 
Q 797 2947 1181 2947 
Q 1350 2947 1591 2875 
Q 1750 2828 1803 2828 
Q 1853 2828 1881 2850 
Q 1909 2872 1947 2947 
L 2050 2947 
z
" transform="scale(0.015625)"/>
      <path id="TimesNewRomanPSMT-74" d="M 1031 3803 
L 1031 2863 
L 1700 2863 
L 1700 2644 
L 1031 2644 
L 1031 788 
Q 1031 509 1111 412 
Q 1191 316 1316 316 
Q 1419 316 1516 380 
Q 1613 444 1666 569 
L 1788 569 
Q 1678 263 1478 108 
Q 1278 -47 1066 -47 
Q 922 -47 784 33 
Q 647 113 581 261 
Q 516 409 516 719 
L 516 2644 
L 63 2644 
L 63 2747 
Q 234 2816 414 2980 
Q 594 3144 734 3369 
Q 806 3488 934 3803 
L 1031 3803 
z
" transform="scale(0.015625)"/>
      <path id="TimesNewRomanPSMT-72" d="M 1038 2947 
L 1038 2303 
Q 1397 2947 1775 2947 
Q 1947 2947 2059 2842 
Q 2172 2738 2172 2600 
Q 2172 2478 2090 2393 
Q 2009 2309 1897 2309 
Q 1788 2309 1652 2417 
Q 1516 2525 1450 2525 
Q 1394 2525 1328 2463 
Q 1188 2334 1038 2041 
L 1038 669 
Q 1038 431 1097 309 
Q 1138 225 1241 169 
Q 1344 113 1538 113 
L 1538 0 
L 72 0 
L 72 113 
Q 291 113 397 181 
Q 475 231 506 341 
Q 522 394 522 644 
L 522 1753 
Q 522 2253 501 2348 
Q 481 2444 426 2487 
Q 372 2531 291 2531 
Q 194 2531 72 2484 
L 41 2597 
L 906 2947 
L 1038 2947 
z
" transform="scale(0.015625)"/>
      <path id="TimesNewRomanPSMT-6c" d="M 1184 4444 
L 1184 647 
Q 1184 378 1223 290 
Q 1263 203 1344 158 
Q 1425 113 1647 113 
L 1647 0 
L 244 0 
L 244 113 
Q 441 113 512 153 
Q 584 194 625 287 
Q 666 381 666 647 
L 666 3247 
Q 666 3731 644 3842 
Q 622 3953 573 3993 
Q 525 4034 450 4034 
Q 369 4034 244 3984 
L 191 4094 
L 1044 4444 
L 1184 4444 
z
" transform="scale(0.015625)"/>
      <path id="TimesNewRomanPSMT-5f" d="M 3256 -1381 
L -53 -1381 
L -53 -1119 
L 3256 -1119 
L 3256 -1381 
z
" transform="scale(0.015625)"/>
      <path id="TimesNewRomanPSMT-52" d="M 4325 0 
L 3194 0 
L 1759 1981 
Q 1600 1975 1500 1975 
Q 1459 1975 1412 1976 
Q 1366 1978 1316 1981 
L 1316 750 
Q 1316 350 1403 253 
Q 1522 116 1759 116 
L 1925 116 
L 1925 0 
L 109 0 
L 109 116 
L 269 116 
Q 538 116 653 291 
Q 719 388 719 750 
L 719 3488 
Q 719 3888 631 3984 
Q 509 4122 269 4122 
L 109 4122 
L 109 4238 
L 1653 4238 
Q 2328 4238 2648 4139 
Q 2969 4041 3192 3777 
Q 3416 3513 3416 3147 
Q 3416 2756 3161 2468 
Q 2906 2181 2372 2063 
L 3247 847 
Q 3547 428 3762 290 
Q 3978 153 4325 116 
L 4325 0 
z
M 1316 2178 
Q 1375 2178 1419 2176 
Q 1463 2175 1491 2175 
Q 2097 2175 2405 2437 
Q 2713 2700 2713 3106 
Q 2713 3503 2464 3751 
Q 2216 4000 1806 4000 
Q 1625 4000 1316 3941 
L 1316 2178 
z
" transform="scale(0.015625)"/>
     </defs>
     <use xlink:href="#TimesNewRomanPSMT-53"/>
     <use xlink:href="#TimesNewRomanPSMT-70" x="55.615234"/>
     <use xlink:href="#TimesNewRomanPSMT-65" x="105.615234"/>
     <use xlink:href="#TimesNewRomanPSMT-63" x="150"/>
     <use xlink:href="#TimesNewRomanPSMT-69" x="194.384766"/>
     <use xlink:href="#TimesNewRomanPSMT-6d" x="222.167969"/>
     <use xlink:href="#TimesNewRomanPSMT-65" x="299.951172"/>
     <use xlink:href="#TimesNewRomanPSMT-6e" x="344.335938"/>
     <use xlink:href="#TimesNewRomanPSMT-20" x="394.335938"/>
     <use xlink:href="#TimesNewRomanPSMT-28" x="419.335938"/>
     <use xlink:href="#TimesNewRomanPSMT-38" x="452.636719"/>
     <use xlink:href="#TimesNewRomanPSMT-29" x="502.636719"/>
     <use xlink:href="#TimesNewRomanPSMT-20" x="535.9375"/>
     <use xlink:href="#TimesNewRomanPSMT-2d" x="560.9375"/>
     <use xlink:href="#TimesNewRomanPSMT-20" x="594.238281"/>
     <use xlink:href="#TimesNewRomanPSMT-4f" x="619.238281"/>
     <use xlink:href="#TimesNewRomanPSMT-65" x="691.455078"/>
     <use xlink:href="#TimesNewRomanPSMT-73" x="735.839844"/>
     <use xlink:href="#TimesNewRomanPSMT-74" x="774.755859"/>
     <use xlink:href="#TimesNewRomanPSMT-65" x="802.539062"/>
     <use xlink:href="#TimesNewRomanPSMT-72" x="846.923828"/>
     <use xlink:href="#TimesNewRomanPSMT-6c" x="880.224609"/>
     <use xlink:href="#TimesNewRomanPSMT-65" x="908.007812"/>
     <use xlink:href="#TimesNewRomanPSMT-5f" x="952.392578"/>
     <use xlink:href="#TimesNewRomanPSMT-52" x="1002.392578"/>
     <use xlink:href="#TimesNewRomanPSMT-32" x="1069.091797"/>
     <use xlink:href="#TimesNewRomanPSMT-20" x="1119.091797"/>
    </g>
   </g>
   <g id="legend_1">
    <g id="patch_7">
     <path d="M 64.294063 55.571563 
L 151.331094 55.571563 
Q 153.131094 55.571563 153.131094 53.771563 
L 153.131094 29.22125 
Q 153.131094 27.42125 151.331094 27.42125 
L 64.294063 27.42125 
Q 62.494063 27.42125 62.494063 29.22125 
L 62.494063 53.771563 
Q 62.494063 55.571563 64.294063 55.571563 
z
" style="fill: #ffffff; opacity: 0.8; stroke: #cccccc; stroke-linejoin: miter"/>
    </g>
    <g id="line2d_25">
     <path d="M 66.094063 34.17125 
L 75.094063 34.17125 
L 84.094063 34.17125 
" style="fill: none; stroke: #0000ff; stroke-width: 1.2; stroke-linecap: square"/>
    </g>
    <g id="text_14">
     <!-- DNN prediction -->
     <g transform="translate(91.294063 37.32125) scale(0.09 -0.09)">
      <defs>
       <path id="TimesNewRomanPSMT-44" d="M 109 0 
L 109 116 
L 269 116 
Q 538 116 650 288 
Q 719 391 719 750 
L 719 3488 
Q 719 3884 631 3984 
Q 509 4122 269 4122 
L 109 4122 
L 109 4238 
L 1834 4238 
Q 2784 4238 3279 4022 
Q 3775 3806 4076 3303 
Q 4378 2800 4378 2141 
Q 4378 1256 3841 663 
Q 3238 0 2003 0 
L 109 0 
z
M 1319 306 
Q 1716 219 1984 219 
Q 2709 219 3187 728 
Q 3666 1238 3666 2109 
Q 3666 2988 3187 3494 
Q 2709 4000 1959 4000 
Q 1678 4000 1319 3909 
L 1319 306 
z
" transform="scale(0.015625)"/>
       <path id="TimesNewRomanPSMT-4e" d="M -84 4238 
L 1066 4238 
L 3656 1059 
L 3656 3503 
Q 3656 3894 3569 3991 
Q 3453 4122 3203 4122 
L 3056 4122 
L 3056 4238 
L 4531 4238 
L 4531 4122 
L 4381 4122 
Q 4113 4122 4000 3959 
Q 3931 3859 3931 3503 
L 3931 -69 
L 3819 -69 
L 1025 3344 
L 1025 734 
Q 1025 344 1109 247 
Q 1228 116 1475 116 
L 1625 116 
L 1625 0 
L 150 0 
L 150 116 
L 297 116 
Q 569 116 681 278 
Q 750 378 750 734 
L 750 3681 
Q 566 3897 470 3965 
Q 375 4034 191 4094 
Q 100 4122 -84 4122 
L -84 4238 
z
" transform="scale(0.015625)"/>
       <path id="TimesNewRomanPSMT-64" d="M 2222 322 
Q 2013 103 1813 7 
Q 1613 -88 1381 -88 
Q 913 -88 563 304 
Q 213 697 213 1313 
Q 213 1928 600 2439 
Q 988 2950 1597 2950 
Q 1975 2950 2222 2709 
L 2222 3238 
Q 2222 3728 2198 3840 
Q 2175 3953 2125 3993 
Q 2075 4034 2000 4034 
Q 1919 4034 1784 3984 
L 1744 4094 
L 2597 4444 
L 2738 4444 
L 2738 1134 
Q 2738 631 2761 520 
Q 2784 409 2836 365 
Q 2888 322 2956 322 
Q 3041 322 3181 375 
L 3216 266 
L 2366 -88 
L 2222 -88 
L 2222 322 
z
M 2222 541 
L 2222 2016 
Q 2203 2228 2109 2403 
Q 2016 2578 1861 2667 
Q 1706 2756 1559 2756 
Q 1284 2756 1069 2509 
Q 784 2184 784 1559 
Q 784 928 1059 592 
Q 1334 256 1672 256 
Q 1956 256 2222 541 
z
" transform="scale(0.015625)"/>
       <path id="TimesNewRomanPSMT-6f" d="M 1600 2947 
Q 2250 2947 2644 2453 
Q 2978 2031 2978 1484 
Q 2978 1100 2793 706 
Q 2609 313 2286 112 
Q 1963 -88 1566 -88 
Q 919 -88 538 428 
Q 216 863 216 1403 
Q 216 1797 411 2186 
Q 606 2575 925 2761 
Q 1244 2947 1600 2947 
z
M 1503 2744 
Q 1338 2744 1170 2645 
Q 1003 2547 900 2300 
Q 797 2053 797 1666 
Q 797 1041 1045 587 
Q 1294 134 1700 134 
Q 2003 134 2200 384 
Q 2397 634 2397 1244 
Q 2397 2006 2069 2444 
Q 1847 2744 1503 2744 
z
" transform="scale(0.015625)"/>
      </defs>
      <use xlink:href="#TimesNewRomanPSMT-44"/>
      <use xlink:href="#TimesNewRomanPSMT-4e" x="72.216797"/>
      <use xlink:href="#TimesNewRomanPSMT-4e" x="144.433594"/>
      <use xlink:href="#TimesNewRomanPSMT-20" x="216.650391"/>
      <use xlink:href="#TimesNewRomanPSMT-70" x="241.650391"/>
      <use xlink:href="#TimesNewRomanPSMT-72" x="291.650391"/>
      <use xlink:href="#TimesNewRomanPSMT-65" x="324.951172"/>
      <use xlink:href="#TimesNewRomanPSMT-64" x="369.335938"/>
      <use xlink:href="#TimesNewRomanPSMT-69" x="419.335938"/>
      <use xlink:href="#TimesNewRomanPSMT-63" x="447.119141"/>
      <use xlink:href="#TimesNewRomanPSMT-74" x="491.503906"/>
      <use xlink:href="#TimesNewRomanPSMT-69" x="519.287109"/>
      <use xlink:href="#TimesNewRomanPSMT-6f" x="547.070312"/>
      <use xlink:href="#TimesNewRomanPSMT-6e" x="597.070312"/>
     </g>
    </g>
    <g id="line2d_26">
     <path d="M 66.094063 46.896406 
L 75.094063 46.896406 
L 84.094063 46.896406 
" style="fill: none; stroke-dasharray: 3.7,1.6; stroke-dashoffset: 0; stroke: #000000"/>
    </g>
    <g id="text_15">
     <!-- Reference (8) -->
     <g transform="translate(91.294063 50.046406) scale(0.09 -0.09)">
      <defs>
       <path id="TimesNewRomanPSMT-66" d="M 1319 2638 
L 1319 756 
Q 1319 356 1406 250 
Q 1522 113 1716 113 
L 1975 113 
L 1975 0 
L 266 0 
L 266 113 
L 394 113 
Q 519 113 622 175 
Q 725 238 764 344 
Q 803 450 803 756 
L 803 2638 
L 247 2638 
L 247 2863 
L 803 2863 
L 803 3050 
Q 803 3478 940 3775 
Q 1078 4072 1361 4255 
Q 1644 4438 1997 4438 
Q 2325 4438 2600 4225 
Q 2781 4084 2781 3909 
Q 2781 3816 2700 3733 
Q 2619 3650 2525 3650 
Q 2453 3650 2373 3701 
Q 2294 3753 2178 3923 
Q 2063 4094 1966 4153 
Q 1869 4213 1750 4213 
Q 1606 4213 1506 4136 
Q 1406 4059 1362 3898 
Q 1319 3738 1319 3069 
L 1319 2863 
L 2056 2863 
L 2056 2638 
L 1319 2638 
z
" transform="scale(0.015625)"/>
      </defs>
      <use xlink:href="#TimesNewRomanPSMT-52"/>
      <use xlink:href="#TimesNewRomanPSMT-65" x="66.699219"/>
      <use xlink:href="#TimesNewRomanPSMT-66" x="111.083984"/>
      <use xlink:href="#TimesNewRomanPSMT-65" x="144.384766"/>
      <use xlink:href="#TimesNewRomanPSMT-72" x="188.769531"/>
      <use xlink:href="#TimesNewRomanPSMT-65" x="222.070312"/>
      <use xlink:href="#TimesNewRomanPSMT-6e" x="266.455078"/>
      <use xlink:href="#TimesNewRomanPSMT-63" x="316.455078"/>
      <use xlink:href="#TimesNewRomanPSMT-65" x="360.839844"/>
      <use xlink:href="#TimesNewRomanPSMT-20" x="405.224609"/>
      <use xlink:href="#TimesNewRomanPSMT-28" x="430.224609"/>
      <use xlink:href="#TimesNewRomanPSMT-38" x="463.525391"/>
      <use xlink:href="#TimesNewRomanPSMT-29" x="513.525391"/>
     </g>
    </g>
   </g>
  </g>
 </g>
 <defs>
  <clipPath id="p704e8c96e1">
   <rect x="57.994063" y="22.92125" width="248.688" height="210.33"/>
  </clipPath>
 </defs>
</svg>
