<?xml version="1.0" encoding="utf-8" standalone="no"?>
<!DOCTYPE svg PUBLIC "-//W3C//DTD SVG 1.1//EN"
  "http://www.w3.org/Graphics/SVG/1.1/DTD/svg11.dtd">
<svg xmlns:xlink="http://www.w3.org/1999/xlink" width="313.882062pt" height="275.066563pt" viewBox="0 0 313.882062 275.066563" xmlns="http://www.w3.org/2000/svg" version="1.1">
 <metadata>
  <rdf:RDF xmlns:dc="http://purl.org/dc/elements/1.1/" xmlns:cc="http://creativecommons.org/ns#" xmlns:rdf="http://www.w3.org/1999/02/22-rdf-syntax-ns#">
   <cc:Work>
    <dc:type rdf:resource="http://purl.org/dc/dcmitype/StillImage"/>
    <dc:date>2024-02-27T17:17:45.004357</dc:date>
    <dc:format>image/svg+xml</dc:format>
    <dc:creator>
     <cc:Agent>
      <dc:title>Matplotlib v3.7.1, https://matplotlib.org/</dc:title>
     </cc:Agent>
    </dc:creator>
   </cc:Work>
  </rdf:RDF>
 </metadata>
 <defs>
  <style type="text/css">*{stroke-linejoin: round; stroke-linecap: butt}</style>
 </defs>
 <g id="figure_1">
  <g id="patch_1">
   <path d="M 0 275.066563 
L 313.882062 275.066563 
L 313.882062 0 
L 0 0 
z
" style="fill: #ffffff"/>
  </g>
  <g id="axes_1">
   <g id="patch_2">
    <path d="M 57.994063 233.25125 
L 306.682062 233.25125 
L 306.682062 22.92125 
L 57.994063 22.92125 
z
" style="fill: #ffffff"/>
   </g>
   <g id="matplotlib.axis_1">
    <g id="xtick_1">
     <g id="line2d_1">
      <path d="M 107.934982 233.25125 
L 107.934982 22.92125 
" clip-path="url(#pb51b950940)" style="fill: none; stroke-dasharray: 0.8,1.32; stroke-dashoffset: 0; stroke: #b0b0b0; stroke-width: 0.8"/>
     </g>
     <g id="line2d_2">
      <defs>
       <path id="mca5709d251" d="M 0 0 
L 0 3.5 
" style="stroke: #000000; stroke-width: 0.8"/>
      </defs>
      <g>
       <use xlink:href="#mca5709d251" x="107.934982" y="233.25125" style="stroke: #000000; stroke-width: 0.8"/>
      </g>
     </g>
     <g id="text_1">
      <!-- −50 -->
      <g transform="translate(96.987638 249.9725) scale(0.14 -0.14)">
       <defs>
        <path id="TimesNewRomanPSMT-2212" d="M 3484 2000 
L 116 2000 
L 116 2256 
L 3484 2256 
L 3484 2000 
z
" transform="scale(0.015625)"/>
        <path id="TimesNewRomanPSMT-35" d="M 2778 4238 
L 2534 3706 
L 1259 3706 
L 981 3138 
Q 1809 3016 2294 2522 
Q 2709 2097 2709 1522 
Q 2709 1188 2573 903 
Q 2438 619 2231 419 
Q 2025 219 1772 97 
Q 1413 -75 1034 -75 
Q 653 -75 479 54 
Q 306 184 306 341 
Q 306 428 378 495 
Q 450 563 559 563 
Q 641 563 702 538 
Q 763 513 909 409 
Q 1144 247 1384 247 
Q 1750 247 2026 523 
Q 2303 800 2303 1197 
Q 2303 1581 2056 1914 
Q 1809 2247 1375 2428 
Q 1034 2569 447 2591 
L 1259 4238 
L 2778 4238 
z
" transform="scale(0.015625)"/>
        <path id="TimesNewRomanPSMT-30" d="M 231 2094 
Q 231 2819 450 3342 
Q 669 3866 1031 4122 
Q 1313 4325 1613 4325 
Q 2100 4325 2488 3828 
Q 2972 3213 2972 2159 
Q 2972 1422 2759 906 
Q 2547 391 2217 158 
Q 1888 -75 1581 -75 
Q 975 -75 572 641 
Q 231 1244 231 2094 
z
M 844 2016 
Q 844 1141 1059 588 
Q 1238 122 1591 122 
Q 1759 122 1940 273 
Q 2122 425 2216 781 
Q 2359 1319 2359 2297 
Q 2359 3022 2209 3506 
Q 2097 3866 1919 4016 
Q 1791 4119 1609 4119 
Q 1397 4119 1231 3928 
Q 1006 3669 925 3112 
Q 844 2556 844 2016 
z
" transform="scale(0.015625)"/>
       </defs>
       <use xlink:href="#TimesNewRomanPSMT-2212"/>
       <use xlink:href="#TimesNewRomanPSMT-35" x="56.396484"/>
       <use xlink:href="#TimesNewRomanPSMT-30" x="106.396484"/>
      </g>
     </g>
    </g>
    <g id="xtick_2">
     <g id="line2d_3">
      <path d="M 182.322626 233.25125 
L 182.322626 22.92125 
" clip-path="url(#pb51b950940)" style="fill: none; stroke-dasharray: 0.8,1.32; stroke-dashoffset: 0; stroke: #b0b0b0; stroke-width: 0.8"/>
     </g>
     <g id="line2d_4">
      <g>
       <use xlink:href="#mca5709d251" x="182.322626" y="233.25125" style="stroke: #000000; stroke-width: 0.8"/>
      </g>
     </g>
     <g id="text_2">
      <!-- 0 -->
      <g transform="translate(178.822626 249.9725) scale(0.14 -0.14)">
       <use xlink:href="#TimesNewRomanPSMT-30"/>
      </g>
     </g>
    </g>
    <g id="xtick_3">
     <g id="line2d_5">
      <path d="M 256.710271 233.25125 
L 256.710271 22.92125 
" clip-path="url(#pb51b950940)" style="fill: none; stroke-dasharray: 0.8,1.32; stroke-dashoffset: 0; stroke: #b0b0b0; stroke-width: 0.8"/>
     </g>
     <g id="line2d_6">
      <g>
       <use xlink:href="#mca5709d251" x="256.710271" y="233.25125" style="stroke: #000000; stroke-width: 0.8"/>
      </g>
     </g>
     <g id="text_3">
      <!-- 50 -->
      <g transform="translate(249.710271 249.9725) scale(0.14 -0.14)">
       <use xlink:href="#TimesNewRomanPSMT-35"/>
       <use xlink:href="#TimesNewRomanPSMT-30" x="50"/>
      </g>
     </g>
    </g>
    <g id="text_4">
     <!-- Displacement (mm) -->
     <g transform="translate(135.183687 265.299688) scale(0.12 -0.12)">
      <defs>
       <path id="TimesNewRomanPS-ItalicMT-44" d="M 938 4122 
L 975 4238 
L 2328 4238 
Q 3188 4238 3602 4041 
Q 4016 3844 4262 3420 
Q 4509 2997 4509 2513 
Q 4509 2097 4367 1705 
Q 4225 1313 4045 1077 
Q 3866 841 3494 556 
Q 3122 272 2687 136 
Q 2253 0 1603 0 
L -191 0 
L -150 116 
Q 97 122 181 159 
Q 306 213 366 303 
Q 456 434 569 831 
L 1319 3394 
Q 1406 3697 1406 3869 
Q 1406 3991 1325 4056 
Q 1244 4122 1006 4122 
L 938 4122 
z
M 2047 4003 
L 1128 831 
Q 1025 475 1025 391 
Q 1025 341 1058 294 
Q 1091 247 1147 231 
Q 1228 203 1409 203 
Q 1900 203 2320 304 
Q 2741 406 3009 606 
Q 3391 897 3619 1406 
Q 3847 1916 3847 2566 
Q 3847 3300 3497 3658 
Q 3147 4016 2475 4016 
Q 2309 4016 2047 4003 
z
" transform="scale(0.015625)"/>
       <path id="TimesNewRomanPS-ItalicMT-69" d="M 1431 4069 
Q 1563 4069 1653 3978 
Q 1744 3888 1744 3756 
Q 1744 3628 1651 3536 
Q 1559 3444 1431 3444 
Q 1303 3444 1211 3536 
Q 1119 3628 1119 3756 
Q 1119 3888 1209 3978 
Q 1300 4069 1431 4069 
z
M 1472 2828 
L 853 638 
Q 791 416 791 372 
Q 791 322 820 290 
Q 850 259 891 259 
Q 938 259 1003 309 
Q 1181 450 1363 709 
L 1472 638 
Q 1259 313 972 91 
Q 759 -75 566 -75 
Q 438 -75 356 1 
Q 275 78 275 194 
Q 275 309 353 578 
L 759 1978 
Q 859 2322 859 2409 
Q 859 2478 811 2522 
Q 763 2566 678 2566 
Q 609 2566 394 2531 
L 394 2653 
L 1472 2828 
z
" transform="scale(0.015625)"/>
       <path id="TimesNewRomanPS-ItalicMT-73" d="M 2322 2828 
L 2131 1869 
L 2016 1869 
Q 2000 2288 1837 2478 
Q 1675 2669 1434 2669 
Q 1241 2669 1127 2562 
Q 1013 2456 1013 2306 
Q 1013 2203 1058 2109 
Q 1103 2016 1256 1847 
Q 1663 1403 1781 1178 
Q 1900 953 1900 753 
Q 1900 428 1629 176 
Q 1359 -75 947 -75 
Q 722 -75 428 31 
Q 325 69 269 69 
Q 128 69 56 -75 
L -59 -75 
L 131 938 
L 247 938 
Q 266 463 444 266 
Q 622 69 931 69 
Q 1169 69 1308 201 
Q 1447 334 1447 528 
Q 1447 653 1397 759 
Q 1309 947 1029 1278 
Q 750 1609 670 1775 
Q 591 1941 591 2106 
Q 591 2409 811 2618 
Q 1031 2828 1378 2828 
Q 1478 2828 1559 2813 
Q 1603 2803 1764 2742 
Q 1925 2681 1978 2681 
Q 2113 2681 2203 2828 
L 2322 2828 
z
" transform="scale(0.015625)"/>
       <path id="TimesNewRomanPS-ItalicMT-70" d="M 1416 2828 
L 1200 2109 
Q 1541 2509 1808 2668 
Q 2075 2828 2353 2828 
Q 2631 2828 2828 2608 
Q 3025 2388 3025 2034 
Q 3025 1347 2465 636 
Q 1906 -75 1163 -75 
Q 1006 -75 886 -40 
Q 766 -6 616 81 
L 388 -725 
Q 319 -963 319 -1034 
Q 319 -1103 355 -1151 
Q 391 -1200 472 -1226 
Q 553 -1253 794 -1253 
L 766 -1369 
L -706 -1369 
L -675 -1253 
Q -384 -1241 -282 -1153 
Q -181 -1066 -69 -669 
L 722 2069 
Q 794 2328 794 2391 
Q 794 2475 745 2522 
Q 697 2569 597 2569 
Q 506 2569 344 2547 
L 344 2669 
L 1416 2828 
z
M 688 328 
Q 881 97 1209 97 
Q 1372 97 1540 187 
Q 1709 278 1870 456 
Q 2031 634 2159 867 
Q 2288 1100 2389 1415 
Q 2491 1731 2491 2041 
Q 2491 2291 2377 2423 
Q 2263 2556 2109 2556 
Q 1772 2556 1442 2168 
Q 1113 1781 959 1263 
L 688 328 
z
" transform="scale(0.015625)"/>
       <path id="TimesNewRomanPS-ItalicMT-6c" d="M 1903 4444 
L 834 725 
Q 756 447 756 384 
Q 756 338 786 306 
Q 816 275 859 275 
Q 919 275 988 328 
Q 1150 456 1328 725 
L 1422 628 
Q 1125 209 875 44 
Q 691 -75 525 -75 
Q 406 -75 326 6 
Q 247 88 247 194 
Q 247 306 347 656 
L 1194 3588 
Q 1297 3947 1297 4000 
Q 1297 4075 1237 4123 
Q 1178 4172 1053 4172 
Q 981 4172 834 4150 
L 834 4266 
L 1903 4444 
z
" transform="scale(0.015625)"/>
       <path id="TimesNewRomanPS-ItalicMT-61" d="M 3003 2828 
L 2394 709 
L 2325 425 
Q 2316 384 2316 356 
Q 2316 306 2347 269 
Q 2372 241 2409 241 
Q 2450 241 2516 291 
Q 2638 381 2841 666 
L 2947 591 
Q 2731 266 2503 95 
Q 2275 -75 2081 -75 
Q 1947 -75 1880 -8 
Q 1813 59 1813 188 
Q 1813 341 1881 591 
L 1947 825 
Q 1538 291 1194 78 
Q 947 -75 709 -75 
Q 481 -75 315 114 
Q 150 303 150 634 
Q 150 1131 448 1682 
Q 747 2234 1206 2566 
Q 1566 2828 1884 2828 
Q 2075 2828 2201 2728 
Q 2328 2628 2394 2397 
L 2506 2753 
L 3003 2828 
z
M 1891 2666 
Q 1691 2666 1466 2478 
Q 1147 2213 898 1691 
Q 650 1169 650 747 
Q 650 534 756 411 
Q 863 288 1000 288 
Q 1341 288 1741 791 
Q 2275 1459 2275 2163 
Q 2275 2428 2172 2547 
Q 2069 2666 1891 2666 
z
" transform="scale(0.015625)"/>
       <path id="TimesNewRomanPS-ItalicMT-63" d="M 2472 681 
Q 2147 291 1815 108 
Q 1484 -75 1116 -75 
Q 672 -75 423 175 
Q 175 425 175 847 
Q 175 1325 442 1787 
Q 709 2250 1161 2539 
Q 1613 2828 2047 2828 
Q 2388 2828 2556 2686 
Q 2725 2544 2725 2338 
Q 2725 2144 2606 2006 
Q 2519 1900 2391 1900 
Q 2294 1900 2230 1962 
Q 2166 2025 2166 2119 
Q 2166 2178 2189 2228 
Q 2213 2278 2286 2348 
Q 2359 2419 2375 2450 
Q 2391 2481 2391 2516 
Q 2391 2581 2331 2625 
Q 2241 2688 2075 2688 
Q 1769 2688 1469 2472 
Q 1169 2256 956 1859 
Q 700 1378 700 897 
Q 700 578 881 392 
Q 1063 206 1375 206 
Q 1616 206 1852 326 
Q 2088 447 2381 763 
L 2472 681 
z
" transform="scale(0.015625)"/>
       <path id="TimesNewRomanPS-ItalicMT-65" d="M 763 1178 
Q 741 1022 741 919 
Q 741 641 937 445 
Q 1134 250 1416 250 
Q 1641 250 1848 342 
Q 2056 434 2466 750 
L 2531 659 
Q 1791 -75 1119 -75 
Q 663 -75 431 212 
Q 200 500 200 847 
Q 200 1313 487 1800 
Q 775 2288 1209 2558 
Q 1644 2828 2103 2828 
Q 2434 2828 2593 2693 
Q 2753 2559 2753 2375 
Q 2753 2116 2547 1878 
Q 2275 1569 1747 1378 
Q 1397 1250 763 1178 
z
M 784 1331 
Q 1247 1384 1538 1513 
Q 1922 1684 2114 1923 
Q 2306 2163 2306 2378 
Q 2306 2509 2223 2590 
Q 2141 2672 1988 2672 
Q 1669 2672 1311 2333 
Q 953 1994 784 1331 
z
" transform="scale(0.015625)"/>
       <path id="TimesNewRomanPS-ItalicMT-6d" d="M 1388 2828 
L 981 1419 
Q 1253 1916 1444 2166 
Q 1741 2553 2022 2728 
Q 2188 2828 2369 2828 
Q 2525 2828 2628 2728 
Q 2731 2628 2731 2472 
Q 2731 2319 2659 2072 
L 2438 1278 
Q 2947 2231 3403 2616 
Q 3656 2828 3903 2828 
Q 4047 2828 4139 2729 
Q 4231 2631 4231 2425 
Q 4231 2244 4175 2041 
L 3831 825 
Q 3719 428 3719 384 
Q 3719 341 3747 309 
Q 3766 288 3797 288 
Q 3828 288 3906 347 
Q 4084 484 4241 709 
L 4344 644 
Q 4266 519 4067 300 
Q 3869 81 3728 3 
Q 3588 -75 3469 -75 
Q 3359 -75 3286 0 
Q 3213 75 3213 184 
Q 3213 334 3341 788 
L 3625 1791 
Q 3722 2138 3728 2175 
Q 3738 2234 3738 2291 
Q 3738 2369 3703 2413 
Q 3666 2456 3619 2456 
Q 3488 2456 3341 2322 
Q 2909 1925 2534 1209 
Q 2288 738 2072 0 
L 1600 0 
L 2134 1891 
Q 2222 2197 2222 2300 
Q 2222 2384 2187 2425 
Q 2153 2466 2103 2466 
Q 2000 2466 1884 2391 
Q 1697 2269 1401 1869 
Q 1106 1469 944 1103 
Q 866 931 572 0 
L 109 0 
L 688 2025 
L 763 2288 
Q 784 2347 784 2375 
Q 784 2444 721 2498 
Q 659 2553 563 2553 
Q 522 2553 338 2516 
L 309 2631 
L 1388 2828 
z
" transform="scale(0.015625)"/>
       <path id="TimesNewRomanPS-ItalicMT-6e" d="M 1413 2828 
L 997 1406 
Q 1581 2278 1892 2553 
Q 2203 2828 2491 2828 
Q 2647 2828 2748 2725 
Q 2850 2622 2850 2456 
Q 2850 2269 2759 1956 
L 2378 641 
Q 2313 413 2313 363 
Q 2313 319 2338 289 
Q 2363 259 2391 259 
Q 2428 259 2481 300 
Q 2647 431 2844 700 
L 2941 641 
Q 2650 225 2391 47 
Q 2209 -75 2066 -75 
Q 1950 -75 1881 -4 
Q 1813 66 1813 184 
Q 1813 334 1919 700 
L 2281 1956 
Q 2350 2191 2350 2322 
Q 2350 2384 2309 2423 
Q 2269 2463 2209 2463 
Q 2122 2463 2000 2388 
Q 1769 2247 1519 1923 
Q 1269 1600 991 1097 
Q 844 831 747 516 
L 591 0 
L 122 0 
L 691 1956 
Q 791 2309 791 2381 
Q 791 2450 736 2501 
Q 681 2553 600 2553 
Q 563 2553 469 2541 
L 350 2522 
L 331 2634 
L 1413 2828 
z
" transform="scale(0.015625)"/>
       <path id="TimesNewRomanPS-ItalicMT-74" d="M 1663 3603 
L 1419 2753 
L 1909 2753 
L 1856 2556 
L 1369 2556 
L 831 713 
Q 744 416 744 328 
Q 744 275 769 247 
Q 794 219 828 219 
Q 906 219 1034 328 
Q 1109 391 1369 713 
L 1472 634 
Q 1184 216 928 44 
Q 753 -75 575 -75 
Q 438 -75 350 11 
Q 263 97 263 231 
Q 263 400 363 747 
L 884 2556 
L 413 2556 
L 444 2678 
Q 788 2772 1016 2958 
Q 1244 3144 1525 3603 
L 1663 3603 
z
" transform="scale(0.015625)"/>
       <path id="TimesNewRomanPS-ItalicMT-20" transform="scale(0.015625)"/>
       <path id="TimesNewRomanPS-ItalicMT-28" d="M 1203 -1319 
L 1097 -1369 
Q 725 -659 563 -116 
Q 438 309 438 741 
Q 438 1747 903 2544 
Q 1475 3519 2756 4444 
L 2831 4334 
Q 2253 3906 1888 3375 
Q 1431 2713 1140 1775 
Q 850 838 850 69 
Q 850 -519 1203 -1319 
z
" transform="scale(0.015625)"/>
       <path id="TimesNewRomanPS-ItalicMT-29" d="M 931 4384 
L 1038 4444 
Q 1409 3738 1569 3194 
Q 1697 2769 1697 2338 
Q 1697 1328 1231 534 
Q 656 -444 -622 -1369 
L -697 -1272 
Q -119 -841 247 -313 
Q 703 350 993 1289 
Q 1284 2228 1284 2997 
Q 1284 3584 931 4384 
z
" transform="scale(0.015625)"/>
      </defs>
      <use xlink:href="#TimesNewRomanPS-ItalicMT-44"/>
      <use xlink:href="#TimesNewRomanPS-ItalicMT-69" x="72.216797"/>
      <use xlink:href="#TimesNewRomanPS-ItalicMT-73" x="100"/>
      <use xlink:href="#TimesNewRomanPS-ItalicMT-70" x="138.916016"/>
      <use xlink:href="#TimesNewRomanPS-ItalicMT-6c" x="188.916016"/>
      <use xlink:href="#TimesNewRomanPS-ItalicMT-61" x="216.699219"/>
      <use xlink:href="#TimesNewRomanPS-ItalicMT-63" x="266.699219"/>
      <use xlink:href="#TimesNewRomanPS-ItalicMT-65" x="311.083984"/>
      <use xlink:href="#TimesNewRomanPS-ItalicMT-6d" x="355.46875"/>
      <use xlink:href="#TimesNewRomanPS-ItalicMT-65" x="427.685547"/>
      <use xlink:href="#TimesNewRomanPS-ItalicMT-6e" x="472.070312"/>
      <use xlink:href="#TimesNewRomanPS-ItalicMT-74" x="522.070312"/>
      <use xlink:href="#TimesNewRomanPS-ItalicMT-20" x="549.853516"/>
      <use xlink:href="#TimesNewRomanPS-ItalicMT-28" x="574.853516"/>
      <use xlink:href="#TimesNewRomanPS-ItalicMT-6d" x="608.154297"/>
      <use xlink:href="#TimesNewRomanPS-ItalicMT-6d" x="680.371094"/>
      <use xlink:href="#TimesNewRomanPS-ItalicMT-29" x="752.587891"/>
     </g>
    </g>
   </g>
   <g id="matplotlib.axis_2">
    <g id="ytick_1">
     <g id="line2d_7">
      <path d="M 57.994063 225.898294 
L 306.682062 225.898294 
" clip-path="url(#pb51b950940)" style="fill: none; stroke-dasharray: 0.8,1.32; stroke-dashoffset: 0; stroke: #b0b0b0; stroke-width: 0.8"/>
     </g>
     <g id="line2d_8">
      <defs>
       <path id="m5cecd0d81b" d="M 0 0 
L -3.5 0 
" style="stroke: #000000; stroke-width: 0.8"/>
      </defs>
      <g>
       <use xlink:href="#m5cecd0d81b" x="57.994063" y="225.898294" style="stroke: #000000; stroke-width: 0.8"/>
      </g>
     </g>
     <g id="text_5">
      <!-- −750 -->
      <g transform="translate(22.099375 230.758919) scale(0.14 -0.14)">
       <defs>
        <path id="TimesNewRomanPSMT-37" d="M 644 4238 
L 2916 4238 
L 2916 4119 
L 1503 -88 
L 1153 -88 
L 2419 3728 
L 1253 3728 
Q 900 3728 750 3644 
Q 488 3500 328 3200 
L 238 3234 
L 644 4238 
z
" transform="scale(0.015625)"/>
       </defs>
       <use xlink:href="#TimesNewRomanPSMT-2212"/>
       <use xlink:href="#TimesNewRomanPSMT-37" x="56.396484"/>
       <use xlink:href="#TimesNewRomanPSMT-35" x="106.396484"/>
       <use xlink:href="#TimesNewRomanPSMT-30" x="156.396484"/>
      </g>
     </g>
    </g>
    <g id="ytick_2">
     <g id="line2d_9">
      <path d="M 57.994063 193.502314 
L 306.682062 193.502314 
" clip-path="url(#pb51b950940)" style="fill: none; stroke-dasharray: 0.8,1.32; stroke-dashoffset: 0; stroke: #b0b0b0; stroke-width: 0.8"/>
     </g>
     <g id="line2d_10">
      <g>
       <use xlink:href="#m5cecd0d81b" x="57.994063" y="193.502314" style="stroke: #000000; stroke-width: 0.8"/>
      </g>
     </g>
     <g id="text_6">
      <!-- −500 -->
      <g transform="translate(22.099375 198.362939) scale(0.14 -0.14)">
       <use xlink:href="#TimesNewRomanPSMT-2212"/>
       <use xlink:href="#TimesNewRomanPSMT-35" x="56.396484"/>
       <use xlink:href="#TimesNewRomanPSMT-30" x="106.396484"/>
       <use xlink:href="#TimesNewRomanPSMT-30" x="156.396484"/>
      </g>
     </g>
    </g>
    <g id="ytick_3">
     <g id="line2d_11">
      <path d="M 57.994063 161.106335 
L 306.682062 161.106335 
" clip-path="url(#pb51b950940)" style="fill: none; stroke-dasharray: 0.8,1.32; stroke-dashoffset: 0; stroke: #b0b0b0; stroke-width: 0.8"/>
     </g>
     <g id="line2d_12">
      <g>
       <use xlink:href="#m5cecd0d81b" x="57.994063" y="161.106335" style="stroke: #000000; stroke-width: 0.8"/>
      </g>
     </g>
     <g id="text_7">
      <!-- −250 -->
      <g transform="translate(22.099375 165.96696) scale(0.14 -0.14)">
       <defs>
        <path id="TimesNewRomanPSMT-32" d="M 2934 816 
L 2638 0 
L 138 0 
L 138 116 
Q 1241 1122 1691 1759 
Q 2141 2397 2141 2925 
Q 2141 3328 1894 3587 
Q 1647 3847 1303 3847 
Q 991 3847 742 3664 
Q 494 3481 375 3128 
L 259 3128 
Q 338 3706 661 4015 
Q 984 4325 1469 4325 
Q 1984 4325 2329 3994 
Q 2675 3663 2675 3213 
Q 2675 2891 2525 2569 
Q 2294 2063 1775 1497 
Q 997 647 803 472 
L 1909 472 
Q 2247 472 2383 497 
Q 2519 522 2628 598 
Q 2738 675 2819 816 
L 2934 816 
z
" transform="scale(0.015625)"/>
       </defs>
       <use xlink:href="#TimesNewRomanPSMT-2212"/>
       <use xlink:href="#TimesNewRomanPSMT-32" x="56.396484"/>
       <use xlink:href="#TimesNewRomanPSMT-35" x="106.396484"/>
       <use xlink:href="#TimesNewRomanPSMT-30" x="156.396484"/>
      </g>
     </g>
    </g>
    <g id="ytick_4">
     <g id="line2d_13">
      <path d="M 57.994063 128.710355 
L 306.682062 128.710355 
" clip-path="url(#pb51b950940)" style="fill: none; stroke-dasharray: 0.8,1.32; stroke-dashoffset: 0; stroke: #b0b0b0; stroke-width: 0.8"/>
     </g>
     <g id="line2d_14">
      <g>
       <use xlink:href="#m5cecd0d81b" x="57.994063" y="128.710355" style="stroke: #000000; stroke-width: 0.8"/>
      </g>
     </g>
     <g id="text_8">
      <!-- 0 -->
      <g transform="translate(43.994063 133.57098) scale(0.14 -0.14)">
       <use xlink:href="#TimesNewRomanPSMT-30"/>
      </g>
     </g>
    </g>
    <g id="ytick_5">
     <g id="line2d_15">
      <path d="M 57.994063 96.314376 
L 306.682062 96.314376 
" clip-path="url(#pb51b950940)" style="fill: none; stroke-dasharray: 0.8,1.32; stroke-dashoffset: 0; stroke: #b0b0b0; stroke-width: 0.8"/>
     </g>
     <g id="line2d_16">
      <g>
       <use xlink:href="#m5cecd0d81b" x="57.994063" y="96.314376" style="stroke: #000000; stroke-width: 0.8"/>
      </g>
     </g>
     <g id="text_9">
      <!-- 250 -->
      <g transform="translate(29.994063 101.175001) scale(0.14 -0.14)">
       <use xlink:href="#TimesNewRomanPSMT-32"/>
       <use xlink:href="#TimesNewRomanPSMT-35" x="50"/>
       <use xlink:href="#TimesNewRomanPSMT-30" x="100"/>
      </g>
     </g>
    </g>
    <g id="ytick_6">
     <g id="line2d_17">
      <path d="M 57.994063 63.918396 
L 306.682062 63.918396 
" clip-path="url(#pb51b950940)" style="fill: none; stroke-dasharray: 0.8,1.32; stroke-dashoffset: 0; stroke: #b0b0b0; stroke-width: 0.8"/>
     </g>
     <g id="line2d_18">
      <g>
       <use xlink:href="#m5cecd0d81b" x="57.994063" y="63.918396" style="stroke: #000000; stroke-width: 0.8"/>
      </g>
     </g>
     <g id="text_10">
      <!-- 500 -->
      <g transform="translate(29.994063 68.779021) scale(0.14 -0.14)">
       <use xlink:href="#TimesNewRomanPSMT-35"/>
       <use xlink:href="#TimesNewRomanPSMT-30" x="50"/>
       <use xlink:href="#TimesNewRomanPSMT-30" x="100"/>
      </g>
     </g>
    </g>
    <g id="ytick_7">
     <g id="line2d_19">
      <path d="M 57.994063 31.522417 
L 306.682062 31.522417 
" clip-path="url(#pb51b950940)" style="fill: none; stroke-dasharray: 0.8,1.32; stroke-dashoffset: 0; stroke: #b0b0b0; stroke-width: 0.8"/>
     </g>
     <g id="line2d_20">
      <g>
       <use xlink:href="#m5cecd0d81b" x="57.994063" y="31.522417" style="stroke: #000000; stroke-width: 0.8"/>
      </g>
     </g>
     <g id="text_11">
      <!-- 750 -->
      <g transform="translate(29.994063 36.383042) scale(0.14 -0.14)">
       <use xlink:href="#TimesNewRomanPSMT-37"/>
       <use xlink:href="#TimesNewRomanPSMT-35" x="50"/>
       <use xlink:href="#TimesNewRomanPSMT-30" x="100"/>
      </g>
     </g>
    </g>
    <g id="text_12">
     <!-- Base Shear (kN) -->
     <g transform="translate(15.5325 167.409688) rotate(-90) scale(0.12 -0.12)">
      <defs>
       <path id="TimesNewRomanPS-ItalicMT-42" d="M 947 4122 
L 991 4238 
L 2503 4238 
Q 2884 4238 3182 4119 
Q 3481 4000 3629 3787 
Q 3778 3575 3778 3338 
Q 3778 2972 3514 2676 
Q 3250 2381 2653 2241 
Q 3038 2097 3219 1859 
Q 3400 1622 3400 1338 
Q 3400 1022 3237 734 
Q 3075 447 2820 287 
Q 2566 128 2206 53 
Q 1950 0 1406 0 
L -147 0 
L -106 116 
Q 138 122 225 163 
Q 350 216 403 303 
Q 478 422 603 847 
L 1363 3413 
Q 1459 3738 1459 3869 
Q 1459 3984 1373 4051 
Q 1288 4119 1047 4119 
Q 994 4119 947 4122 
z
M 1581 2363 
Q 1784 2356 1875 2356 
Q 2525 2356 2842 2639 
Q 3159 2922 3159 3347 
Q 3159 3669 2965 3848 
Q 2772 4028 2347 4028 
Q 2234 4028 2059 3991 
L 1581 2363 
z
M 966 275 
Q 1303 231 1494 231 
Q 1981 231 2357 525 
Q 2734 819 2734 1322 
Q 2734 1706 2501 1922 
Q 2269 2138 1750 2138 
Q 1650 2138 1506 2128 
L 966 275 
z
" transform="scale(0.015625)"/>
       <path id="TimesNewRomanPS-ItalicMT-53" d="M 44 -97 
L 394 1475 
L 500 1475 
Q 478 1247 478 1097 
Q 478 669 751 400 
Q 1025 131 1466 131 
Q 1875 131 2087 382 
Q 2300 634 2300 963 
Q 2300 1175 2203 1350 
Q 2056 1609 1419 2263 
Q 1109 2575 1022 2728 
Q 878 2981 878 3259 
Q 878 3703 1209 4018 
Q 1541 4334 2059 4334 
Q 2234 4334 2391 4300 
Q 2488 4281 2744 4175 
Q 2925 4103 2944 4097 
Q 2988 4088 3041 4088 
Q 3131 4088 3197 4134 
Q 3263 4181 3350 4334 
L 3469 4334 
L 3144 2928 
L 3038 2928 
Q 3050 3116 3050 3231 
Q 3050 3609 2800 3850 
Q 2550 4091 2141 4091 
Q 1816 4091 1612 3900 
Q 1409 3709 1409 3459 
Q 1409 3241 1539 3042 
Q 1669 2844 2136 2395 
Q 2603 1947 2740 1695 
Q 2878 1444 2878 1159 
Q 2878 838 2708 536 
Q 2538 234 2219 68 
Q 1900 -97 1522 -97 
Q 1334 -97 1171 -62 
Q 1009 -28 653 106 
Q 531 153 450 153 
Q 266 153 163 -97 
L 44 -97 
z
" transform="scale(0.015625)"/>
       <path id="TimesNewRomanPS-ItalicMT-68" d="M 1878 4444 
L 1000 1409 
Q 1569 2266 1887 2547 
Q 2206 2828 2497 2828 
Q 2647 2828 2747 2725 
Q 2847 2622 2847 2450 
Q 2847 2244 2759 1950 
L 2378 641 
Q 2306 403 2306 378 
Q 2306 334 2332 306 
Q 2359 278 2394 278 
Q 2434 278 2488 319 
Q 2666 456 2841 700 
L 2938 641 
Q 2831 475 2642 276 
Q 2453 78 2317 1 
Q 2181 -75 2075 -75 
Q 1959 -75 1886 -1 
Q 1813 72 1813 188 
Q 1813 325 1922 700 
L 2281 1950 
Q 2350 2184 2350 2319 
Q 2350 2381 2311 2418 
Q 2272 2456 2209 2456 
Q 2119 2456 2003 2388 
Q 1791 2256 1513 1900 
Q 1438 1803 1013 1119 
Q 881 900 797 641 
L 597 0 
L 128 0 
L 1156 3575 
L 1266 3963 
Q 1266 4044 1198 4106 
Q 1131 4169 1034 4169 
Q 978 4169 863 4150 
L 797 4141 
L 797 4263 
L 1878 4444 
z
" transform="scale(0.015625)"/>
       <path id="TimesNewRomanPS-ItalicMT-72" d="M 334 2653 
L 1413 2828 
L 963 1309 
Q 1509 2244 1956 2616 
Q 2209 2828 2369 2828 
Q 2472 2828 2531 2767 
Q 2591 2706 2591 2591 
Q 2591 2384 2484 2197 
Q 2409 2056 2269 2056 
Q 2197 2056 2145 2103 
Q 2094 2150 2081 2247 
Q 2075 2306 2053 2325 
Q 2028 2350 1994 2350 
Q 1941 2350 1894 2325 
Q 1813 2281 1647 2081 
Q 1388 1775 1084 1288 
Q 953 1081 859 822 
Q 728 466 709 394 
L 609 0 
L 131 0 
L 709 1941 
Q 809 2278 809 2422 
Q 809 2478 763 2516 
Q 700 2566 597 2566 
Q 531 2566 356 2538 
L 334 2653 
z
" transform="scale(0.015625)"/>
       <path id="TimesNewRomanPS-ItalicMT-6b" d="M 1831 4444 
L 944 1372 
L 1300 1675 
Q 1884 2169 2059 2406 
Q 2116 2484 2116 2525 
Q 2116 2553 2097 2578 
Q 2078 2603 2023 2618 
Q 1969 2634 1831 2634 
L 1722 2634 
L 1756 2753 
L 3122 2753 
L 3091 2634 
Q 2856 2622 2686 2561 
Q 2516 2500 2356 2381 
Q 2041 2147 1941 2056 
L 1672 1819 
Q 1741 1594 1841 1191 
Q 2009 522 2069 397 
Q 2128 272 2191 272 
Q 2244 272 2316 325 
Q 2478 444 2663 703 
L 2772 625 
Q 2431 197 2250 61 
Q 2069 -75 1919 -75 
Q 1788 -75 1716 28 
Q 1591 213 1300 1481 
L 872 1109 
L 550 0 
L 63 0 
L 1100 3566 
L 1188 3869 
Q 1203 3947 1203 4006 
Q 1203 4081 1145 4131 
Q 1088 4181 978 4181 
Q 906 4181 750 4150 
L 750 4259 
L 1831 4444 
z
" transform="scale(0.015625)"/>
       <path id="TimesNewRomanPS-ItalicMT-4e" d="M 1834 4238 
L 3144 916 
L 3853 3397 
Q 3941 3703 3941 3872 
Q 3941 3988 3859 4053 
Q 3778 4119 3556 4119 
Q 3519 4119 3478 4122 
L 3513 4238 
L 4875 4238 
L 4838 4122 
Q 4625 4125 4522 4078 
Q 4375 4013 4303 3909 
Q 4203 3763 4100 3397 
L 3103 -97 
L 2991 -97 
L 1581 3478 
L 828 838 
Q 744 538 744 378 
Q 744 259 820 198 
Q 897 138 1184 116 
L 1153 0 
L -178 0 
L -134 116 
Q 116 122 200 159 
Q 328 216 391 306 
Q 481 444 594 838 
L 1434 3784 
Q 1313 3972 1173 4042 
Q 1034 4113 741 4122 
L 775 4238 
L 1834 4238 
z
" transform="scale(0.015625)"/>
      </defs>
      <use xlink:href="#TimesNewRomanPS-ItalicMT-42"/>
      <use xlink:href="#TimesNewRomanPS-ItalicMT-61" x="61.083984"/>
      <use xlink:href="#TimesNewRomanPS-ItalicMT-73" x="111.083984"/>
      <use xlink:href="#TimesNewRomanPS-ItalicMT-65" x="150"/>
      <use xlink:href="#TimesNewRomanPS-ItalicMT-20" x="194.384766"/>
      <use xlink:href="#TimesNewRomanPS-ItalicMT-53" x="219.384766"/>
      <use xlink:href="#TimesNewRomanPS-ItalicMT-68" x="269.384766"/>
      <use xlink:href="#TimesNewRomanPS-ItalicMT-65" x="319.384766"/>
      <use xlink:href="#TimesNewRomanPS-ItalicMT-61" x="363.769531"/>
      <use xlink:href="#TimesNewRomanPS-ItalicMT-72" x="413.769531"/>
      <use xlink:href="#TimesNewRomanPS-ItalicMT-20" x="452.685547"/>
      <use xlink:href="#TimesNewRomanPS-ItalicMT-28" x="477.685547"/>
      <use xlink:href="#TimesNewRomanPS-ItalicMT-6b" x="510.986328"/>
      <use xlink:href="#TimesNewRomanPS-ItalicMT-4e" x="555.371094"/>
      <use xlink:href="#TimesNewRomanPS-ItalicMT-29" x="622.070312"/>
     </g>
    </g>
   </g>
   <g id="line2d_21">
    <path d="M 182.322626 125.257746 
L 183.732672 103.358186 
L 186.496626 84.611233 
L 187.822956 80.30634 
L 191.422581 64.480549 
L 192.456081 60.598006 
L 193.388468 57.875336 
L 194.913798 54.352581 
L 196.450697 51.242923 
L 196.340587 51.626914 
L 195.703249 54.378927 
L 193.762178 65.139486 
L 191.88654 75.075303 
L 189.63014 85.59865 
L 187.082812 97.128441 
L 185.731397 103.949954 
L 184.345969 111.754906 
L 181.528572 129.669776 
L 180.124715 141.692154 
L 178.742789 155.852843 
L 177.396582 162.408019 
L 173.704021 175.757203 
L 170.780286 186.589055 
L 169.390627 190.652832 
L 168.190697 193.535659 
L 168.239185 193.311478 
L 169.218867 188.811485 
L 172.313032 172.695878 
L 175.706339 154.067478 
L 178.317622 138.314453 
L 179.689854 128.861123 
L 182.675716 107.245511 
L 185.493826 92.99603 
L 188.280294 83.798581 
L 191.007316 75.808496 
L 193.647683 69.600284 
L 196.175049 64.97312 
L 198.564195 61.226026 
L 200.791284 58.540031 
L 202.834093 56.431896 
L 204.672239 54.913706 
L 206.287381 53.727654 
L 210.540187 51.004185 
L 210.56664 51.121826 
L 208.96807 60.045851 
L 206.564047 72.337578 
L 203.194917 88.100887 
L 198.994812 105.935936 
L 196.634281 115.131104 
L 194.130949 124.142914 
L 191.509793 132.690239 
L 188.796969 140.632508 
L 180.38211 162.828755 
L 177.578353 170.552626 
L 174.821934 177.199773 
L 172.140356 182.850068 
L 169.560377 187.499626 
L 167.107739 191.277772 
L 164.806915 194.322405 
L 162.680863 196.75077 
L 160.750795 198.675341 
L 157.5535 201.440887 
L 154.055459 204.207422 
L 154.600625 201.298182 
L 158.936343 179.726742 
L 162.554282 163.340202 
L 164.668688 154.465764 
L 166.959244 145.47936 
L 169.403096 136.681443 
L 171.975858 128.392279 
L 174.65186 120.972096 
L 177.404401 114.50048 
L 180.206016 108.318102 
L 187.605346 90.213124 
L 191.776168 81.231568 
L 195.852663 73.866228 
L 199.794155 67.862108 
L 203.561318 63.205839 
L 207.116561 59.308921 
L 210.424411 56.225086 
L 213.451862 53.740878 
L 216.168706 51.866079 
L 218.547835 50.423359 
L 222.201599 48.643858 
L 224.677073 47.607052 
L 224.663846 47.790766 
L 220.450395 69.067431 
L 218.409501 78.570984 
L 216.008533 88.835128 
L 213.271447 99.493158 
L 210.225556 110.057674 
L 206.901249 120.114424 
L 203.331698 129.25482 
L 199.552519 136.955124 
L 195.601421 143.126174 
L 191.517827 148.372886 
L 183.117052 158.326181 
L 178.883694 164.564483 
L 170.561817 179.349582 
L 166.556333 185.609764 
L 162.708164 190.700619 
L 159.055709 194.786076 
L 155.635409 198.09045 
L 152.481395 200.774856 
L 149.625135 202.916723 
L 147.09513 204.612609 
L 143.111353 206.953471 
L 139.92353 208.62139 
L 140.846397 203.753688 
L 143.42053 190.872502 
L 145.297269 182.076768 
L 147.543446 172.221323 
L 150.136648 161.734649 
L 153.051002 151.030376 
L 156.257427 140.658243 
L 159.723929 131.29307 
L 163.415921 123.457092 
L 167.296564 117.149444 
L 171.327136 111.963079 
L 179.676107 102.744335 
L 184.440724 96.111891 
L 195.614769 77.521358 
L 201.030529 69.873483 
L 206.259623 63.720394 
L 211.249873 59.123791 
L 215.951489 55.417734 
L 220.317557 52.384178 
L 224.304512 49.876337 
L 227.872573 47.918207 
L 230.986138 46.402888 
L 233.61414 45.281691 
L 238.823883 43.428129 
L 236.877194 53.474608 
L 235.125396 62.584617 
L 232.846733 73.111503 
L 230.063943 85.022103 
L 226.80479 97.098545 
L 223.101796 108.973286 
L 218.991909 120.007011 
L 214.516137 129.537264 
L 209.719138 136.990716 
L 204.648778 142.829791 
L 199.355648 147.899371 
L 193.892564 152.442069 
L 188.314034 156.732231 
L 182.675723 161.312622 
L 177.033888 167.244855 
L 165.964299 183.20693 
L 160.646997 189.953554 
L 155.545973 195.188645 
L 150.712126 199.253194 
L 146.193688 202.501278 
L 142.035744 205.157622 
L 138.279781 207.274212 
L 134.963276 208.932584 
L 129.776294 211.139291 
L 126.681303 212.317908 
L 125.960222 212.708289 
L 125.801524 212.625781 
L 130.738114 188.490357 
L 133.303475 177.26184 
L 136.357947 165.195904 
L 139.871053 152.968031 
L 143.80774 141.330215 
L 148.128728 131.180749 
L 152.790901 123.069618 
L 157.747741 116.743142 
L 162.949789 111.591842 
L 168.345138 107.143355 
L 179.499011 98.773676 
L 185.852146 92.327614 
L 192.875967 83.062996 
L 199.794487 73.448129 
L 206.538674 65.586923 
L 213.041233 59.404424 
L 219.237283 54.959579 
L 225.065 51.47656 
L 230.466234 48.558336 
L 235.387093 46.113222 
L 239.778476 44.174059 
L 243.596566 42.668144 
L 246.803267 41.555909 
L 252.46742 39.943663 
L 252.974004 39.884803 
L 250.278944 53.841499 
L 248.005542 65.11876 
L 245.076758 77.84614 
L 241.521815 91.402521 
L 237.376184 104.473797 
L 232.68123 116.68347 
L 227.483799 127.141341 
L 221.835751 135.167196 
L 215.793443 141.311884 
L 209.417163 146.552959 
L 202.770535 151.236942 
L 195.919879 155.451164 
L 188.933549 159.560759 
L 181.881256 164.168644 
L 174.833366 170.550514 
L 167.860205 179.356039 
L 161.031349 187.75779 
L 154.414937 194.524199 
L 148.076987 199.549147 
L 142.080738 203.443039 
L 136.486023 206.582365 
L 131.348664 209.163176 
L 126.719921 211.190772 
L 122.645981 212.753538 
L 116.319165 214.769816 
L 112.6201 215.832556 
L 111.806272 216.245889 
L 111.696055 216.033457 
L 115.562963 196.89399 
L 118.208234 184.888784 
L 121.493237 171.581024 
L 125.385193 157.956747 
L 129.845269 144.944612 
L 134.828964 133.578083 
L 140.286548 124.581798 
L 146.163568 117.766485 
L 152.401381 112.375414 
L 158.937748 107.75781 
L 165.707449 103.508573 
L 179.675005 95.294128 
L 187.615666 88.603421 
L 196.033038 78.9838 
L 204.313607 69.252514 
L 212.374752 61.463689 
L 220.136036 55.490395 
L 227.52002 51.271665 
L 234.453026 47.954874 
L 240.865875 45.106725 
L 246.694582 42.718826 
L 251.880987 40.816757 
L 256.373341 39.34145 
L 260.126819 38.275412 
L 265.275084 37.078232 
L 267.120819 36.924944 
L 263.573215 55.225264 
L 260.745172 68.456578 
L 257.134632 83.006742 
L 252.77762 97.46314 
L 247.71761 110.87939 
L 242.00509 122.679571 
L 235.69706 131.978185 
L 228.856462 138.867717 
L 221.551551 144.456794 
L 213.855214 149.400424 
L 205.844246 153.8396 
L 189.200491 162.046708 
L 180.733775 166.920242 
L 172.282912 174.030816 
L 163.932225 183.52332 
L 155.765037 191.941284 
L 147.862841 198.41906 
L 140.304482 203.150843 
L 133.16538 206.894326 
L 126.516768 209.950234 
L 120.424984 212.457292 
L 114.950814 214.403621 
L 110.148878 215.896865 
L 102.746176 217.790108 
L 98.511599 218.751207 
L 97.640186 219.168116 
L 97.613733 218.748107 
L 102.564681 194.600978 
L 105.836858 180.529259 
L 109.872208 165.646268 
L 114.630467 151.185967 
L 120.064156 138.26384 
L 126.119058 127.859604 
L 132.734758 120.077122 
L 139.845244 114.158383 
L 147.379568 109.247195 
L 155.262554 104.755142 
L 163.415544 100.48219 
L 171.757188 96.444636 
L 180.204254 92.22031 
L 189.730762 85.060027 
L 199.536414 74.951794 
L 209.170307 65.35155 
L 218.536315 57.802334 
L 227.540984 52.186757 
L 236.094465 48.192703 
L 244.111412 44.956063 
L 251.511832 42.1321 
L 258.221885 39.788667 
L 264.174617 37.928737 
L 269.310632 36.499977 
L 273.578683 35.514145 
L 279.349632 34.4947 
L 280.794949 34.510977 
L 281.257711 34.636915 
L 279.226953 45.065383 
L 276.753696 57.618746 
L 273.338209 72.598573 
L 269.01457 88.381323 
L 263.825922 103.13542 
L 257.824036 116.341274 
L 251.068799 127.242864 
L 243.627614 135.4332 
L 235.574731 141.651972 
L 226.990499 146.951073 
L 217.960572 151.721638 
L 208.575051 156.061815 
L 198.927584 160.122795 
L 189.114433 164.42241 
L 179.233514 169.733646 
L 169.383417 177.720537 
L 159.662428 187.562852 
L 150.167542 195.614736 
L 140.993498 201.675402 
L 132.231835 206.135504 
L 123.969977 209.765768 
L 116.29036 212.749006 
L 109.26961 215.186859 
L 102.977782 217.077705 
L 97.477655 218.541061 
L 92.824108 219.614763 
L 84.362355 221.221021 
L 83.468577 221.628138 
L 83.561162 220.888844 
L 86.691893 205.328879 
L 89.698801 191.352403 
L 93.629906 175.556907 
L 98.445985 159.681481 
L 104.098983 145.089572 
L 110.532494 132.904151 
L 117.682326 123.682731 
L 125.477136 116.881576 
L 133.839149 111.502063 
L 142.684929 106.739597 
L 151.926212 102.211199 
L 161.470791 97.911997 
L 171.223428 93.851672 
L 181.086813 89.455607 
L 192.1968 81.661174 
L 203.384808 71.090997 
L 214.362658 61.856411 
L 225.020814 54.666742 
L 235.252928 49.498761 
L 244.956905 45.693593 
L 254.035919 42.470431 
L 262.39938 39.652075 
L 269.963837 37.335605 
L 276.653813 35.510705 
L 282.402554 34.140345 
L 287.152701 33.258734 
L 293.47806 32.481705 
L 294.990158 32.696241 
L 295.378062 32.995057 
L 292.777065 46.099603 
L 289.814115 60.724932 
L 285.778618 77.173006 
L 280.71084 93.579395 
L 274.661348 108.229462 
L 267.690502 120.830731 
L 259.867858 130.704433 
L 251.271469 138.031654 
L 241.987111 143.83847 
L 232.107423 148.965443 
L 221.730983 153.677073 
L 210.961328 158.014421 
L 199.905916 162.145865 
L 188.675059 166.714873 
L 177.380817 172.588265 
L 166.135885 181.415861 
L 155.052464 191.150019 
L 144.241143 198.667511 
L 133.809799 204.309758 
L 123.862514 208.566049 
L 114.498542 212.101466 
L 105.811318 215.020031 
L 97.887521 217.405881 
L 90.806215 219.287196 
L 84.638057 220.765279 
L 79.444594 221.843204 
L 72.178787 222.991332 
L 70.178941 223.303467 
L 69.298062 223.690795 
L 73.40088 203.289293 
L 76.971469 187.302431 
L 81.59325 170.241847 
L 87.220104 153.969619 
L 93.79589 139.822734 
L 101.254992 128.719279 
L 109.522986 120.600775 
L 118.517372 114.493221 
L 128.148405 109.358985 
L 128.148405 109.358985 
" clip-path="url(#pb51b950940)" style="fill: none; stroke: #0000ff; stroke-width: 1.2; stroke-linecap: square"/>
   </g>
   <g id="line2d_22">
    <path d="M 183.1937 125.742719 
L 183.489874 120.608134 
L 185.814975 111.305495 
L 188.429986 101.36157 
L 190.75956 88.849432 
L 193.080634 82.435343 
L 194.824124 75.699077 
L 197.724124 68.644315 
L 200.046093 61.588326 
L 198.592514 67.683306 
L 197.717414 73.458564 
L 195.96945 83.40433 
L 191.620344 93.344572 
L 189.870143 104.895088 
L 187.83719 111.951691 
L 184.636989 127.029587 
L 182.897526 130.877304 
L 180.865468 137.292007 
L 180.27312 147.561177 
L 177.94623 158.147616 
L 176.204529 163.600083 
L 173.305424 170.012944 
L 171.850502 177.070775 
L 168.371576 184.766209 
L 165.761486 191.179684 
L 164.602291 193.423879 
L 166.058555 185.403199 
L 167.222671 179.628555 
L 172.151598 168.40574 
L 173.316161 162.310146 
L 175.058309 156.536729 
L 176.221978 151.083035 
L 177.67332 146.592805 
L 177.684058 138.890006 
L 182.616116 125.420542 
L 184.940769 116.438853 
L 187.843006 107.779341 
L 190.743454 100.40363 
L 193.35936 89.817805 
L 195.971687 81.79958 
L 198.009561 71.212528 
L 200.624572 61.268603 
L 203.23332 55.817977 
L 206.422783 48.442879 
L 208.746094 40.42404 
L 209.025267 47.485553 
L 204.960703 60.635908 
L 200.902403 69.292965 
L 198.867213 77.954317 
L 196.545692 84.689357 
L 194.513634 91.10406 
L 191.325512 97.516308 
L 189.869696 105.216038 
L 186.964327 116.122199 
L 184.92869 125.104501 
L 182.608958 130.55574 
L 180.283857 139.858379 
L 179.701799 142.745701 
L 174.196183 153.004439 
L 174.178735 165.521486 
L 172.143992 173.861889 
L 169.244887 180.274751 
L 165.472023 191.500021 
L 163.43907 198.556623 
L 161.408354 204.008477 
L 158.801843 207.854353 
L 155.03748 212.981574 
L 155.619538 210.094252 
L 156.495533 203.677094 
L 159.107413 195.979819 
L 162.877592 186.680249 
L 166.068398 178.342301 
L 168.682066 169.361226 
L 171.293946 161.663951 
L 172.458509 155.568357 
L 175.361194 146.587895 
L 177.3937 139.852242 
L 179.42889 131.19089 
L 184.937637 118.685502 
L 188.994148 111.312245 
L 195.390523 84.045002 
L 198.582224 75.065154 
L 203.226161 60.953176 
L 210.766073 42.674986 
L 215.395246 39.154355 
L 219.153793 38.199483 
L 216.544151 44.292009 
L 215.957172 50.70978 
L 213.623571 66.110467 
L 211.010349 74.770592 
L 209.26507 82.790659 
L 204.626054 93.372188 
L 202.593548 100.10784 
L 197.950058 113.898869 
L 195.626747 121.917708 
L 191.566657 131.858564 
L 187.508804 140.194671 
L 177.952493 153.654317 
L 175.054282 159.425279 
L 172.734551 164.876518 
L 163.459203 184.113877 
L 161.139023 189.886066 
L 156.792155 198.221559 
L 156.779628 207.208157 
L 153.593296 212.336606 
L 148.675107 215.856622 
L 145.785844 215.208586 
L 146.375507 206.865115 
L 149.860698 194.676382 
L 153.347677 181.203849 
L 155.964925 169.655174 
L 160.314478 159.393982 
L 165.530184 149.77653 
L 169.011348 140.476346 
L 171.917164 129.249235 
L 178.868306 118.672615 
L 182.635354 111.619695 
L 189.298823 100.079611 
L 194.806228 88.537074 
L 200.016565 82.771021 
L 202.91925 73.79056 
L 206.691666 62.88624 
L 209.301756 56.472764 
L 213.068356 49.740793 
L 217.988335 44.936977 
L 224.064825 39.814665 
L 227.823372 38.859793 
L 232.447624 38.869612 
L 230.698318 49.778227 
L 227.215365 60.362211 
L 224.310891 70.626472 
L 219.665611 85.7013 
L 213.570778 103.982559 
L 205.460441 116.803373 
L 204.292299 125.466567 
L 200.527041 131.235688 
L 196.470082 138.929895 
L 192.128582 143.413989 
L 188.94404 147.258638 
L 186.048066 151.42485 
L 182.863972 154.948549 
L 175.628735 161.994106 
L 170.12625 170.006194 
L 159.698418 186.673498 
L 156.796181 195.33301 
L 154.763228 202.389612 
L 147.811638 213.287182 
L 140.293202 216.159776 
L 135.665371 218.717557 
L 127.571587 219.663224 
L 128.44445 215.492716 
L 129.327156 204.261309 
L 133.969304 191.433131 
L 137.747089 176.677411 
L 144.408769 166.421128 
L 148.473332 153.270772 
L 157.455191 137.2423 
L 164.701165 122.493945 
L 171.645597 116.731574 
L 180.327254 108.726236 
L 189.303297 96.870112 
L 201.753344 80.849004 
L 208.704487 70.272384 
L 210.736992 63.536731 
L 220.293303 50.077085 
L 225.789971 46.237346 
L 231.866908 40.794084 
L 237.650355 38.559708 
L 236.484897 45.297202 
L 233.583107 53.635763 
L 231.837827 61.655829 
L 228.063174 74.164899 
L 225.737626 83.788488 
L 217.908699 102.066065 
L 213.268788 113.289493 
L 211.235835 120.346096 
L 207.471472 125.473317 
L 201.105967 130.595015 
L 197.340709 136.364136 
L 191.549209 144.375611 
L 184.89424 149.817646 
L 180.550056 156.227439 
L 176.783456 162.95941 
L 173.018645 168.407581 
L 163.465466 179.620578 
L 158.25334 186.67043 
L 151.596134 193.717214 
L 148.411592 197.561863 
L 143.488929 204.291379 
L 137.985997 212.624417 
L 133.934408 216.467225 
L 127.86284 218.059088 
L 129.318209 210.680308 
L 133.093757 197.529338 
L 135.128499 189.188936 
L 140.931184 173.153713 
L 147.315927 154.231167 
L 154.849575 140.446276 
L 161.223581 129.226529 
L 165.858123 121.854499 
L 183.801707 104.240301 
L 186.987591 99.432802 
L 195.091665 91.105287 
L 204.065023 81.174863 
L 208.697776 75.086633 
L 215.06865 66.113536 
L 219.415518 57.778042 
L 224.337287 51.690426 
L 229.256818 47.20756 
L 234.464023 43.688156 
L 240.538723 39.849644 
L 247.189218 37.617109 
L 252.681859 36.665919 
L 256.149601 36.994233 
L 252.664411 49.182966 
L 239.603225 88.953143 
L 233.22564 102.740489 
L 225.399845 118.771416 
L 221.053423 126.78596 
L 216.134339 130.947876 
L 208.033397 137.028742 
L 198.782208 138.934804 
L 193.281066 145.984043 
L 189.229477 149.826851 
L 181.129877 154.944867 
L 173.605625 161.98981 
L 168.390366 171.286312 
L 165.202245 177.69856 
L 162.015913 182.827008 
L 156.227992 188.270884 
L 148.122576 197.561249 
L 138.859755 207.812009 
L 135.676555 210.693808 
L 131.047829 213.893489 
L 127.288835 215.169311 
L 121.218161 216.119274 
L 117.457825 218.357945 
L 112.83223 219.310977 
L 111.097241 219.949194 
L 109.941178 219.94674 
L 109.662899 212.243328 
L 114.598985 195.885314 
L 121.267375 180.814781 
L 128.519612 161.573127 
L 134.320508 146.821704 
L 142.434871 131.11234 
L 152.268118 126.318956 
L 159.209866 122.482285 
L 166.149376 120.250363 
L 174.829244 113.528825 
L 180.621639 104.87545 
L 187.566965 98.47118 
L 193.645244 92.065068 
L 199.433612 86.300243 
L 204.06547 80.853913 
L 210.720886 75.090929 
L 218.535497 67.083749 
L 223.45637 61.638033 
L 233.587133 50.747214 
L 246.313222 44.034267 
L 250.940606 41.797436 
L 259.037969 38.28417 
L 262.21938 36.68617 
L 269.445221 36.380562 
L 276.384284 34.469591 
L 284.767531 33.203587 
L 291.992925 33.218929 
L 291.120509 37.068487 
L 286.770061 47.97158 
L 282.416034 61.442272 
L 279.506638 75.236982 
L 275.157533 85.177225 
L 271.09789 94.797132 
L 261.241826 115.958962 
L 254.004353 124.609269 
L 247.064395 127.16214 
L 233.186717 130.663133 
L 221.333939 132.884622 
L 213.81595 135.436266 
L 207.162771 139.594501 
L 197.323708 148.560234 
L 183.726545 158.159889 
L 179.385492 162.323033 
L 176.20095 166.167682 
L 160.862982 180.577904 
L 157.386292 186.668589 
L 148.996335 192.748841 
L 142.921635 196.587353 
L 135.400961 201.064697 
L 125.853598 208.105344 
L 116.308473 213.541242 
L 104.166231 216.083067 
L 98.672695 217.676157 
L 86.24278 219.254519 
L 79.592285 221.487054 
L 73.811523 221.79573 
L 74.109039 215.698295 
L 79.62405 198.699609 
L 84.848256 182.984108 
L 98.764858 151.560471 
L 108.0326 137.779262 
L 118.451932 127.210006 
L 134.065941 122.107946 
L 148.524335 116.68248 
L 160.670156 111.573056 
L 174.267766 101.65245 
L 183.813787 95.574653 
L 193.65106 87.892719 
L 207.536344 78.935577 
L 220.848517 66.446759 
L 240.805369 55.897755 
L 248.616848 50.137225 
L 259.606158 45.346295 
L 266.257995 42.150911 
L 275.510078 39.602949 
L 285.340194 37.056214 
L 290.248093 40.918046 
L 284.734424 56.953882 
L 279.80326 69.781447 
L 273.128606 89.345278 
L 267.910216 100.88843 
L 257.48149 118.197634 
L 254.581042 125.573346 
L 246.4801 131.654212 
L 228.557096 134.504713 
L 218.726533 137.372398 
L 203.686081 145.685185 
L 196.16675 149.199679 
L 188.646971 153.035123 
L 181.702093 159.118443 
L 177.650503 162.961251 
L 158.266761 177.041932 
L 150.16403 184.406598 
L 141.485504 190.165286 
L 126.156036 198.47746 
L 119.793215 201.673458 
L 106.206342 203.891265 
L 101.580301 205.165246 
L 97.546607 196.170057 
L 97.843676 190.393572 
L 96.402623 187.501954 
L 90.336872 184.921468 
L 85.718883 180.41835 
L 79.660289 172.702664 
L 75.619884 168.521724 
L 73.026796 162.739102 
L 77.083306 155.365845 
L 85.769438 144.151008 
L 93.008701 134.216902 
L 104.581412 125.5758 
L 118.749448 121.112571 
L 133.783636 117.293083 
L 146.505251 113.789635 
L 156.047693 110.279437 
L 167.327808 104.205322 
L 177.449176 100.054451 
L 185.836897 95.578948 
L 191.044102 92.059545 
L 198.852449 88.545665 
L 203.771086 84.704698 
L 210.421133 82.793113 
L 216.781717 81.201864 
L 223.429527 80.895029 
L 228.630021 82.189875 
L 231.805168 85.085174 
L 237.574746 92.800246 
L 243.34835 97.626769 
L 248.257144 100.8467 
L 254.612359 103.106851 
L 264.14809 104.410901 
L 267.901269 107.307428 
L 269.049279 113.086982 
L 267.31071 116.292799 
L 262.970105 120.134993 
L 257.474779 123.011883 
L 251.978558 126.530672 
L 246.480995 131.012312 
L 234.626427 134.5176 
L 223.635775 140.27138 
L 215.537965 144.105596 
L 208.885233 147.942881 
L 202.517044 154.990278 
L 196.150644 160.753876 
L 189.494333 167.158761 
L 181.97366 171.636104 
L 175.896723 177.079366 
L 173.872271 178.03792 
L 173.872271 178.03792 
" clip-path="url(#pb51b950940)" style="fill: none; stroke-dasharray: 3.7,1.6; stroke-dashoffset: 0; stroke: #000000"/>
   </g>
   <g id="line2d_23">
    <path d="M 57.994063 128.710355 
L 306.682062 128.710355 
" clip-path="url(#pb51b950940)" style="fill: none; stroke: #000000; stroke-width: 0.4; stroke-linecap: square"/>
   </g>
   <g id="line2d_24">
    <path d="M 182.322626 233.25125 
L 182.322626 22.92125 
" clip-path="url(#pb51b950940)" style="fill: none; stroke: #000000; stroke-width: 0.4; stroke-linecap: square"/>
   </g>
   <g id="patch_3">
    <path d="M 57.994063 233.25125 
L 57.994063 22.92125 
" style="fill: none; stroke: #000000; stroke-width: 0.8; stroke-linejoin: miter; stroke-linecap: square"/>
   </g>
   <g id="patch_4">
    <path d="M 306.682062 233.25125 
L 306.682062 22.92125 
" style="fill: none; stroke: #000000; stroke-width: 0.8; stroke-linejoin: miter; stroke-linecap: square"/>
   </g>
   <g id="patch_5">
    <path d="M 57.994062 233.25125 
L 306.682062 233.25125 
" style="fill: none; stroke: #000000; stroke-width: 0.8; stroke-linejoin: miter; stroke-linecap: square"/>
   </g>
   <g id="patch_6">
    <path d="M 57.994062 22.92125 
L 306.682062 22.92125 
" style="fill: none; stroke: #000000; stroke-width: 0.8; stroke-linejoin: miter; stroke-linecap: square"/>
   </g>
   <g id="text_13">
    <!-- Specimen (5) - Tran_S63  -->
    <g transform="translate(110.002906 16.92125) scale(0.14 -0.14)">
     <defs>
      <path id="TimesNewRomanPSMT-53" d="M 2934 4334 
L 2934 2869 
L 2819 2869 
Q 2763 3291 2617 3541 
Q 2472 3791 2203 3937 
Q 1934 4084 1647 4084 
Q 1322 4084 1109 3886 
Q 897 3688 897 3434 
Q 897 3241 1031 3081 
Q 1225 2847 1953 2456 
Q 2547 2138 2764 1967 
Q 2981 1797 3098 1565 
Q 3216 1334 3216 1081 
Q 3216 600 2842 251 
Q 2469 -97 1881 -97 
Q 1697 -97 1534 -69 
Q 1438 -53 1133 45 
Q 828 144 747 144 
Q 669 144 623 97 
Q 578 50 556 -97 
L 441 -97 
L 441 1356 
L 556 1356 
Q 638 900 775 673 
Q 913 447 1195 297 
Q 1478 147 1816 147 
Q 2206 147 2432 353 
Q 2659 559 2659 841 
Q 2659 997 2573 1156 
Q 2488 1316 2306 1453 
Q 2184 1547 1640 1851 
Q 1097 2156 867 2337 
Q 638 2519 519 2737 
Q 400 2956 400 3219 
Q 400 3675 750 4004 
Q 1100 4334 1641 4334 
Q 1978 4334 2356 4169 
Q 2531 4091 2603 4091 
Q 2684 4091 2736 4139 
Q 2788 4188 2819 4334 
L 2934 4334 
z
" transform="scale(0.015625)"/>
      <path id="TimesNewRomanPSMT-70" d="M -6 2578 
L 875 2934 
L 994 2934 
L 994 2266 
Q 1216 2644 1439 2795 
Q 1663 2947 1909 2947 
Q 2341 2947 2628 2609 
Q 2981 2197 2981 1534 
Q 2981 794 2556 309 
Q 2206 -88 1675 -88 
Q 1444 -88 1275 -22 
Q 1150 25 994 166 
L 994 -706 
Q 994 -1000 1030 -1079 
Q 1066 -1159 1155 -1206 
Q 1244 -1253 1478 -1253 
L 1478 -1369 
L -22 -1369 
L -22 -1253 
L 56 -1253 
Q 228 -1256 350 -1188 
Q 409 -1153 442 -1076 
Q 475 -1000 475 -688 
L 475 2019 
Q 475 2297 450 2372 
Q 425 2447 370 2484 
Q 316 2522 222 2522 
Q 147 2522 31 2478 
L -6 2578 
z
M 994 2081 
L 994 1013 
Q 994 666 1022 556 
Q 1066 375 1236 237 
Q 1406 100 1666 100 
Q 1978 100 2172 344 
Q 2425 663 2425 1241 
Q 2425 1897 2138 2250 
Q 1938 2494 1663 2494 
Q 1513 2494 1366 2419 
Q 1253 2363 994 2081 
z
" transform="scale(0.015625)"/>
      <path id="TimesNewRomanPSMT-65" d="M 681 1784 
Q 678 1147 991 784 
Q 1303 422 1725 422 
Q 2006 422 2214 576 
Q 2422 731 2563 1106 
L 2659 1044 
Q 2594 616 2278 264 
Q 1963 -88 1488 -88 
Q 972 -88 605 314 
Q 238 716 238 1394 
Q 238 2128 614 2539 
Q 991 2950 1559 2950 
Q 2041 2950 2350 2633 
Q 2659 2316 2659 1784 
L 681 1784 
z
M 681 1966 
L 2006 1966 
Q 1991 2241 1941 2353 
Q 1863 2528 1708 2628 
Q 1553 2728 1384 2728 
Q 1125 2728 920 2526 
Q 716 2325 681 1966 
z
" transform="scale(0.015625)"/>
      <path id="TimesNewRomanPSMT-63" d="M 2631 1088 
Q 2516 522 2178 217 
Q 1841 -88 1431 -88 
Q 944 -88 581 321 
Q 219 731 219 1428 
Q 219 2103 620 2525 
Q 1022 2947 1584 2947 
Q 2006 2947 2278 2723 
Q 2550 2500 2550 2259 
Q 2550 2141 2473 2067 
Q 2397 1994 2259 1994 
Q 2075 1994 1981 2113 
Q 1928 2178 1911 2362 
Q 1894 2547 1784 2644 
Q 1675 2738 1481 2738 
Q 1169 2738 978 2506 
Q 725 2200 725 1697 
Q 725 1184 976 792 
Q 1228 400 1656 400 
Q 1963 400 2206 609 
Q 2378 753 2541 1131 
L 2631 1088 
z
" transform="scale(0.015625)"/>
      <path id="TimesNewRomanPSMT-69" d="M 928 4444 
Q 1059 4444 1151 4351 
Q 1244 4259 1244 4128 
Q 1244 3997 1151 3903 
Q 1059 3809 928 3809 
Q 797 3809 703 3903 
Q 609 3997 609 4128 
Q 609 4259 701 4351 
Q 794 4444 928 4444 
z
M 1188 2947 
L 1188 647 
Q 1188 378 1227 289 
Q 1266 200 1342 156 
Q 1419 113 1622 113 
L 1622 0 
L 231 0 
L 231 113 
Q 441 113 512 153 
Q 584 194 626 287 
Q 669 381 669 647 
L 669 1750 
Q 669 2216 641 2353 
Q 619 2453 572 2492 
Q 525 2531 444 2531 
Q 356 2531 231 2484 
L 188 2597 
L 1050 2947 
L 1188 2947 
z
" transform="scale(0.015625)"/>
      <path id="TimesNewRomanPSMT-6d" d="M 1050 2338 
Q 1363 2650 1419 2697 
Q 1559 2816 1721 2881 
Q 1884 2947 2044 2947 
Q 2313 2947 2506 2790 
Q 2700 2634 2766 2338 
Q 3088 2713 3309 2830 
Q 3531 2947 3766 2947 
Q 3994 2947 4170 2830 
Q 4347 2713 4450 2447 
Q 4519 2266 4519 1878 
L 4519 647 
Q 4519 378 4559 278 
Q 4591 209 4675 161 
Q 4759 113 4950 113 
L 4950 0 
L 3538 0 
L 3538 113 
L 3597 113 
Q 3781 113 3884 184 
Q 3956 234 3988 344 
Q 4000 397 4000 647 
L 4000 1878 
Q 4000 2228 3916 2372 
Q 3794 2572 3525 2572 
Q 3359 2572 3192 2489 
Q 3025 2406 2788 2181 
L 2781 2147 
L 2788 2013 
L 2788 647 
Q 2788 353 2820 281 
Q 2853 209 2943 161 
Q 3034 113 3253 113 
L 3253 0 
L 1806 0 
L 1806 113 
Q 2044 113 2133 169 
Q 2222 225 2256 338 
Q 2272 391 2272 647 
L 2272 1878 
Q 2272 2228 2169 2381 
Q 2031 2581 1784 2581 
Q 1616 2581 1450 2491 
Q 1191 2353 1050 2181 
L 1050 647 
Q 1050 366 1089 281 
Q 1128 197 1204 155 
Q 1281 113 1516 113 
L 1516 0 
L 100 0 
L 100 113 
Q 297 113 375 155 
Q 453 197 493 289 
Q 534 381 534 647 
L 534 1741 
Q 534 2213 506 2350 
Q 484 2453 437 2492 
Q 391 2531 309 2531 
Q 222 2531 100 2484 
L 53 2597 
L 916 2947 
L 1050 2947 
L 1050 2338 
z
" transform="scale(0.015625)"/>
      <path id="TimesNewRomanPSMT-6e" d="M 1034 2341 
Q 1538 2947 1994 2947 
Q 2228 2947 2397 2830 
Q 2566 2713 2666 2444 
Q 2734 2256 2734 1869 
L 2734 647 
Q 2734 375 2778 278 
Q 2813 200 2889 156 
Q 2966 113 3172 113 
L 3172 0 
L 1756 0 
L 1756 113 
L 1816 113 
Q 2016 113 2095 173 
Q 2175 234 2206 353 
Q 2219 400 2219 647 
L 2219 1819 
Q 2219 2209 2117 2386 
Q 2016 2563 1775 2563 
Q 1403 2563 1034 2156 
L 1034 647 
Q 1034 356 1069 288 
Q 1113 197 1189 155 
Q 1266 113 1500 113 
L 1500 0 
L 84 0 
L 84 113 
L 147 113 
Q 366 113 442 223 
Q 519 334 519 647 
L 519 1709 
Q 519 2225 495 2337 
Q 472 2450 423 2490 
Q 375 2531 294 2531 
Q 206 2531 84 2484 
L 38 2597 
L 900 2947 
L 1034 2947 
L 1034 2341 
z
" transform="scale(0.015625)"/>
      <path id="TimesNewRomanPSMT-20" transform="scale(0.015625)"/>
      <path id="TimesNewRomanPSMT-28" d="M 1988 -1253 
L 1988 -1369 
Q 1516 -1131 1200 -813 
Q 750 -359 506 256 
Q 263 872 263 1534 
Q 263 2503 741 3301 
Q 1219 4100 1988 4444 
L 1988 4313 
Q 1603 4100 1356 3731 
Q 1109 3363 987 2797 
Q 866 2231 866 1616 
Q 866 947 969 400 
Q 1050 -31 1165 -292 
Q 1281 -553 1476 -793 
Q 1672 -1034 1988 -1253 
z
" transform="scale(0.015625)"/>
      <path id="TimesNewRomanPSMT-29" d="M 144 4313 
L 144 4444 
Q 619 4209 934 3891 
Q 1381 3434 1625 2820 
Q 1869 2206 1869 1541 
Q 1869 572 1392 -226 
Q 916 -1025 144 -1369 
L 144 -1253 
Q 528 -1038 776 -670 
Q 1025 -303 1145 264 
Q 1266 831 1266 1447 
Q 1266 2113 1163 2663 
Q 1084 3094 967 3353 
Q 850 3613 656 3853 
Q 463 4094 144 4313 
z
" transform="scale(0.015625)"/>
      <path id="TimesNewRomanPSMT-2d" d="M 259 1672 
L 1875 1672 
L 1875 1200 
L 259 1200 
L 259 1672 
z
" transform="scale(0.015625)"/>
      <path id="TimesNewRomanPSMT-54" d="M 3703 4238 
L 3750 3244 
L 3631 3244 
Q 3597 3506 3538 3619 
Q 3441 3800 3280 3886 
Q 3119 3972 2856 3972 
L 2259 3972 
L 2259 734 
Q 2259 344 2344 247 
Q 2463 116 2709 116 
L 2856 116 
L 2856 0 
L 1059 0 
L 1059 116 
L 1209 116 
Q 1478 116 1591 278 
Q 1659 378 1659 734 
L 1659 3972 
L 1150 3972 
Q 853 3972 728 3928 
Q 566 3869 450 3700 
Q 334 3531 313 3244 
L 194 3244 
L 244 4238 
L 3703 4238 
z
" transform="scale(0.015625)"/>
      <path id="TimesNewRomanPSMT-72" d="M 1038 2947 
L 1038 2303 
Q 1397 2947 1775 2947 
Q 1947 2947 2059 2842 
Q 2172 2738 2172 2600 
Q 2172 2478 2090 2393 
Q 2009 2309 1897 2309 
Q 1788 2309 1652 2417 
Q 1516 2525 1450 2525 
Q 1394 2525 1328 2463 
Q 1188 2334 1038 2041 
L 1038 669 
Q 1038 431 1097 309 
Q 1138 225 1241 169 
Q 1344 113 1538 113 
L 1538 0 
L 72 0 
L 72 113 
Q 291 113 397 181 
Q 475 231 506 341 
Q 522 394 522 644 
L 522 1753 
Q 522 2253 501 2348 
Q 481 2444 426 2487 
Q 372 2531 291 2531 
Q 194 2531 72 2484 
L 41 2597 
L 906 2947 
L 1038 2947 
z
" transform="scale(0.015625)"/>
      <path id="TimesNewRomanPSMT-61" d="M 1822 413 
Q 1381 72 1269 19 
Q 1100 -59 909 -59 
Q 613 -59 420 144 
Q 228 347 228 678 
Q 228 888 322 1041 
Q 450 1253 767 1440 
Q 1084 1628 1822 1897 
L 1822 2009 
Q 1822 2438 1686 2597 
Q 1550 2756 1291 2756 
Q 1094 2756 978 2650 
Q 859 2544 859 2406 
L 866 2225 
Q 866 2081 792 2003 
Q 719 1925 600 1925 
Q 484 1925 411 2006 
Q 338 2088 338 2228 
Q 338 2497 613 2722 
Q 888 2947 1384 2947 
Q 1766 2947 2009 2819 
Q 2194 2722 2281 2516 
Q 2338 2381 2338 1966 
L 2338 994 
Q 2338 584 2353 492 
Q 2369 400 2405 369 
Q 2441 338 2488 338 
Q 2538 338 2575 359 
Q 2641 400 2828 588 
L 2828 413 
Q 2478 -56 2159 -56 
Q 2006 -56 1915 50 
Q 1825 156 1822 413 
z
M 1822 616 
L 1822 1706 
Q 1350 1519 1213 1441 
Q 966 1303 859 1153 
Q 753 1003 753 825 
Q 753 600 887 451 
Q 1022 303 1197 303 
Q 1434 303 1822 616 
z
" transform="scale(0.015625)"/>
      <path id="TimesNewRomanPSMT-5f" d="M 3256 -1381 
L -53 -1381 
L -53 -1119 
L 3256 -1119 
L 3256 -1381 
z
" transform="scale(0.015625)"/>
      <path id="TimesNewRomanPSMT-36" d="M 2869 4325 
L 2869 4209 
Q 2456 4169 2195 4045 
Q 1934 3922 1679 3669 
Q 1425 3416 1258 3105 
Q 1091 2794 978 2366 
Q 1428 2675 1881 2675 
Q 2316 2675 2634 2325 
Q 2953 1975 2953 1425 
Q 2953 894 2631 456 
Q 2244 -75 1606 -75 
Q 1172 -75 869 213 
Q 275 772 275 1663 
Q 275 2231 503 2743 
Q 731 3256 1154 3653 
Q 1578 4050 1965 4187 
Q 2353 4325 2688 4325 
L 2869 4325 
z
M 925 2138 
Q 869 1716 869 1456 
Q 869 1156 980 804 
Q 1091 453 1309 247 
Q 1469 100 1697 100 
Q 1969 100 2183 356 
Q 2397 613 2397 1088 
Q 2397 1622 2184 2012 
Q 1972 2403 1581 2403 
Q 1463 2403 1327 2353 
Q 1191 2303 925 2138 
z
" transform="scale(0.015625)"/>
      <path id="TimesNewRomanPSMT-33" d="M 325 3431 
Q 506 3859 782 4092 
Q 1059 4325 1472 4325 
Q 1981 4325 2253 3994 
Q 2459 3747 2459 3466 
Q 2459 3003 1878 2509 
Q 2269 2356 2469 2072 
Q 2669 1788 2669 1403 
Q 2669 853 2319 450 
Q 1863 -75 997 -75 
Q 569 -75 414 31 
Q 259 138 259 259 
Q 259 350 332 419 
Q 406 488 509 488 
Q 588 488 669 463 
Q 722 447 909 348 
Q 1097 250 1169 231 
Q 1284 197 1416 197 
Q 1734 197 1970 444 
Q 2206 691 2206 1028 
Q 2206 1275 2097 1509 
Q 2016 1684 1919 1775 
Q 1784 1900 1550 2001 
Q 1316 2103 1072 2103 
L 972 2103 
L 972 2197 
Q 1219 2228 1467 2375 
Q 1716 2522 1828 2728 
Q 1941 2934 1941 3181 
Q 1941 3503 1739 3701 
Q 1538 3900 1238 3900 
Q 753 3900 428 3381 
L 325 3431 
z
" transform="scale(0.015625)"/>
     </defs>
     <use xlink:href="#TimesNewRomanPSMT-53"/>
     <use xlink:href="#TimesNewRomanPSMT-70" x="55.615234"/>
     <use xlink:href="#TimesNewRomanPSMT-65" x="105.615234"/>
     <use xlink:href="#TimesNewRomanPSMT-63" x="150"/>
     <use xlink:href="#TimesNewRomanPSMT-69" x="194.384766"/>
     <use xlink:href="#TimesNewRomanPSMT-6d" x="222.167969"/>
     <use xlink:href="#TimesNewRomanPSMT-65" x="299.951172"/>
     <use xlink:href="#TimesNewRomanPSMT-6e" x="344.335938"/>
     <use xlink:href="#TimesNewRomanPSMT-20" x="394.335938"/>
     <use xlink:href="#TimesNewRomanPSMT-28" x="419.335938"/>
     <use xlink:href="#TimesNewRomanPSMT-35" x="452.636719"/>
     <use xlink:href="#TimesNewRomanPSMT-29" x="502.636719"/>
     <use xlink:href="#TimesNewRomanPSMT-20" x="535.9375"/>
     <use xlink:href="#TimesNewRomanPSMT-2d" x="560.9375"/>
     <use xlink:href="#TimesNewRomanPSMT-20" x="594.238281"/>
     <use xlink:href="#TimesNewRomanPSMT-54" x="617.488281"/>
     <use xlink:href="#TimesNewRomanPSMT-72" x="675.072266"/>
     <use xlink:href="#TimesNewRomanPSMT-61" x="708.373047"/>
     <use xlink:href="#TimesNewRomanPSMT-6e" x="752.757812"/>
     <use xlink:href="#TimesNewRomanPSMT-5f" x="802.757812"/>
     <use xlink:href="#TimesNewRomanPSMT-53" x="852.757812"/>
     <use xlink:href="#TimesNewRomanPSMT-36" x="908.373047"/>
     <use xlink:href="#TimesNewRomanPSMT-33" x="958.373047"/>
     <use xlink:href="#TimesNewRomanPSMT-20" x="1008.373047"/>
    </g>
   </g>
   <g id="legend_1">
    <g id="patch_7">
     <path d="M 64.294063 55.571563 
L 151.331094 55.571563 
Q 153.131094 55.571563 153.131094 53.771563 
L 153.131094 29.22125 
Q 153.131094 27.42125 151.331094 27.42125 
L 64.294063 27.42125 
Q 62.494063 27.42125 62.494063 29.22125 
L 62.494063 53.771563 
Q 62.494063 55.571563 64.294063 55.571563 
z
" style="fill: #ffffff; opacity: 0.8; stroke: #cccccc; stroke-linejoin: miter"/>
    </g>
    <g id="line2d_25">
     <path d="M 66.094063 34.17125 
L 75.094063 34.17125 
L 84.094063 34.17125 
" style="fill: none; stroke: #0000ff; stroke-width: 1.2; stroke-linecap: square"/>
    </g>
    <g id="text_14">
     <!-- DNN prediction -->
     <g transform="translate(91.294063 37.32125) scale(0.09 -0.09)">
      <defs>
       <path id="TimesNewRomanPSMT-44" d="M 109 0 
L 109 116 
L 269 116 
Q 538 116 650 288 
Q 719 391 719 750 
L 719 3488 
Q 719 3884 631 3984 
Q 509 4122 269 4122 
L 109 4122 
L 109 4238 
L 1834 4238 
Q 2784 4238 3279 4022 
Q 3775 3806 4076 3303 
Q 4378 2800 4378 2141 
Q 4378 1256 3841 663 
Q 3238 0 2003 0 
L 109 0 
z
M 1319 306 
Q 1716 219 1984 219 
Q 2709 219 3187 728 
Q 3666 1238 3666 2109 
Q 3666 2988 3187 3494 
Q 2709 4000 1959 4000 
Q 1678 4000 1319 3909 
L 1319 306 
z
" transform="scale(0.015625)"/>
       <path id="TimesNewRomanPSMT-4e" d="M -84 4238 
L 1066 4238 
L 3656 1059 
L 3656 3503 
Q 3656 3894 3569 3991 
Q 3453 4122 3203 4122 
L 3056 4122 
L 3056 4238 
L 4531 4238 
L 4531 4122 
L 4381 4122 
Q 4113 4122 4000 3959 
Q 3931 3859 3931 3503 
L 3931 -69 
L 3819 -69 
L 1025 3344 
L 1025 734 
Q 1025 344 1109 247 
Q 1228 116 1475 116 
L 1625 116 
L 1625 0 
L 150 0 
L 150 116 
L 297 116 
Q 569 116 681 278 
Q 750 378 750 734 
L 750 3681 
Q 566 3897 470 3965 
Q 375 4034 191 4094 
Q 100 4122 -84 4122 
L -84 4238 
z
" transform="scale(0.015625)"/>
       <path id="TimesNewRomanPSMT-64" d="M 2222 322 
Q 2013 103 1813 7 
Q 1613 -88 1381 -88 
Q 913 -88 563 304 
Q 213 697 213 1313 
Q 213 1928 600 2439 
Q 988 2950 1597 2950 
Q 1975 2950 2222 2709 
L 2222 3238 
Q 2222 3728 2198 3840 
Q 2175 3953 2125 3993 
Q 2075 4034 2000 4034 
Q 1919 4034 1784 3984 
L 1744 4094 
L 2597 4444 
L 2738 4444 
L 2738 1134 
Q 2738 631 2761 520 
Q 2784 409 2836 365 
Q 2888 322 2956 322 
Q 3041 322 3181 375 
L 3216 266 
L 2366 -88 
L 2222 -88 
L 2222 322 
z
M 2222 541 
L 2222 2016 
Q 2203 2228 2109 2403 
Q 2016 2578 1861 2667 
Q 1706 2756 1559 2756 
Q 1284 2756 1069 2509 
Q 784 2184 784 1559 
Q 784 928 1059 592 
Q 1334 256 1672 256 
Q 1956 256 2222 541 
z
" transform="scale(0.015625)"/>
       <path id="TimesNewRomanPSMT-74" d="M 1031 3803 
L 1031 2863 
L 1700 2863 
L 1700 2644 
L 1031 2644 
L 1031 788 
Q 1031 509 1111 412 
Q 1191 316 1316 316 
Q 1419 316 1516 380 
Q 1613 444 1666 569 
L 1788 569 
Q 1678 263 1478 108 
Q 1278 -47 1066 -47 
Q 922 -47 784 33 
Q 647 113 581 261 
Q 516 409 516 719 
L 516 2644 
L 63 2644 
L 63 2747 
Q 234 2816 414 2980 
Q 594 3144 734 3369 
Q 806 3488 934 3803 
L 1031 3803 
z
" transform="scale(0.015625)"/>
       <path id="TimesNewRomanPSMT-6f" d="M 1600 2947 
Q 2250 2947 2644 2453 
Q 2978 2031 2978 1484 
Q 2978 1100 2793 706 
Q 2609 313 2286 112 
Q 1963 -88 1566 -88 
Q 919 -88 538 428 
Q 216 863 216 1403 
Q 216 1797 411 2186 
Q 606 2575 925 2761 
Q 1244 2947 1600 2947 
z
M 1503 2744 
Q 1338 2744 1170 2645 
Q 1003 2547 900 2300 
Q 797 2053 797 1666 
Q 797 1041 1045 587 
Q 1294 134 1700 134 
Q 2003 134 2200 384 
Q 2397 634 2397 1244 
Q 2397 2006 2069 2444 
Q 1847 2744 1503 2744 
z
" transform="scale(0.015625)"/>
      </defs>
      <use xlink:href="#TimesNewRomanPSMT-44"/>
      <use xlink:href="#TimesNewRomanPSMT-4e" x="72.216797"/>
      <use xlink:href="#TimesNewRomanPSMT-4e" x="144.433594"/>
      <use xlink:href="#TimesNewRomanPSMT-20" x="216.650391"/>
      <use xlink:href="#TimesNewRomanPSMT-70" x="241.650391"/>
      <use xlink:href="#TimesNewRomanPSMT-72" x="291.650391"/>
      <use xlink:href="#TimesNewRomanPSMT-65" x="324.951172"/>
      <use xlink:href="#TimesNewRomanPSMT-64" x="369.335938"/>
      <use xlink:href="#TimesNewRomanPSMT-69" x="419.335938"/>
      <use xlink:href="#TimesNewRomanPSMT-63" x="447.119141"/>
      <use xlink:href="#TimesNewRomanPSMT-74" x="491.503906"/>
      <use xlink:href="#TimesNewRomanPSMT-69" x="519.287109"/>
      <use xlink:href="#TimesNewRomanPSMT-6f" x="547.070312"/>
      <use xlink:href="#TimesNewRomanPSMT-6e" x="597.070312"/>
     </g>
    </g>
    <g id="line2d_26">
     <path d="M 66.094063 46.896406 
L 75.094063 46.896406 
L 84.094063 46.896406 
" style="fill: none; stroke-dasharray: 3.7,1.6; stroke-dashoffset: 0; stroke: #000000"/>
    </g>
    <g id="text_15">
     <!-- Reference (5) -->
     <g transform="translate(91.294063 50.046406) scale(0.09 -0.09)">
      <defs>
       <path id="TimesNewRomanPSMT-52" d="M 4325 0 
L 3194 0 
L 1759 1981 
Q 1600 1975 1500 1975 
Q 1459 1975 1412 1976 
Q 1366 1978 1316 1981 
L 1316 750 
Q 1316 350 1403 253 
Q 1522 116 1759 116 
L 1925 116 
L 1925 0 
L 109 0 
L 109 116 
L 269 116 
Q 538 116 653 291 
Q 719 388 719 750 
L 719 3488 
Q 719 3888 631 3984 
Q 509 4122 269 4122 
L 109 4122 
L 109 4238 
L 1653 4238 
Q 2328 4238 2648 4139 
Q 2969 4041 3192 3777 
Q 3416 3513 3416 3147 
Q 3416 2756 3161 2468 
Q 2906 2181 2372 2063 
L 3247 847 
Q 3547 428 3762 290 
Q 3978 153 4325 116 
L 4325 0 
z
M 1316 2178 
Q 1375 2178 1419 2176 
Q 1463 2175 1491 2175 
Q 2097 2175 2405 2437 
Q 2713 2700 2713 3106 
Q 2713 3503 2464 3751 
Q 2216 4000 1806 4000 
Q 1625 4000 1316 3941 
L 1316 2178 
z
" transform="scale(0.015625)"/>
       <path id="TimesNewRomanPSMT-66" d="M 1319 2638 
L 1319 756 
Q 1319 356 1406 250 
Q 1522 113 1716 113 
L 1975 113 
L 1975 0 
L 266 0 
L 266 113 
L 394 113 
Q 519 113 622 175 
Q 725 238 764 344 
Q 803 450 803 756 
L 803 2638 
L 247 2638 
L 247 2863 
L 803 2863 
L 803 3050 
Q 803 3478 940 3775 
Q 1078 4072 1361 4255 
Q 1644 4438 1997 4438 
Q 2325 4438 2600 4225 
Q 2781 4084 2781 3909 
Q 2781 3816 2700 3733 
Q 2619 3650 2525 3650 
Q 2453 3650 2373 3701 
Q 2294 3753 2178 3923 
Q 2063 4094 1966 4153 
Q 1869 4213 1750 4213 
Q 1606 4213 1506 4136 
Q 1406 4059 1362 3898 
Q 1319 3738 1319 3069 
L 1319 2863 
L 2056 2863 
L 2056 2638 
L 1319 2638 
z
" transform="scale(0.015625)"/>
      </defs>
      <use xlink:href="#TimesNewRomanPSMT-52"/>
      <use xlink:href="#TimesNewRomanPSMT-65" x="66.699219"/>
      <use xlink:href="#TimesNewRomanPSMT-66" x="111.083984"/>
      <use xlink:href="#TimesNewRomanPSMT-65" x="144.384766"/>
      <use xlink:href="#TimesNewRomanPSMT-72" x="188.769531"/>
      <use xlink:href="#TimesNewRomanPSMT-65" x="222.070312"/>
      <use xlink:href="#TimesNewRomanPSMT-6e" x="266.455078"/>
      <use xlink:href="#TimesNewRomanPSMT-63" x="316.455078"/>
      <use xlink:href="#TimesNewRomanPSMT-65" x="360.839844"/>
      <use xlink:href="#TimesNewRomanPSMT-20" x="405.224609"/>
      <use xlink:href="#TimesNewRomanPSMT-28" x="430.224609"/>
      <use xlink:href="#TimesNewRomanPSMT-35" x="463.525391"/>
      <use xlink:href="#TimesNewRomanPSMT-29" x="513.525391"/>
     </g>
    </g>
   </g>
  </g>
 </g>
 <defs>
  <clipPath id="pb51b950940">
   <rect x="57.994063" y="22.92125" width="248.688" height="210.33"/>
  </clipPath>
 </defs>
</svg>
