<?xml version="1.0" encoding="utf-8" standalone="no"?>
<!DOCTYPE svg PUBLIC "-//W3C//DTD SVG 1.1//EN"
  "http://www.w3.org/Graphics/SVG/1.1/DTD/svg11.dtd">
<svg xmlns:xlink="http://www.w3.org/1999/xlink" width="279.452812pt" height="292.77875pt" viewBox="0 0 279.452812 292.77875" xmlns="http://www.w3.org/2000/svg" version="1.1">
 <metadata>
  <rdf:RDF xmlns:dc="http://purl.org/dc/elements/1.1/" xmlns:cc="http://creativecommons.org/ns#" xmlns:rdf="http://www.w3.org/1999/02/22-rdf-syntax-ns#">
   <cc:Work>
    <dc:type rdf:resource="http://purl.org/dc/dcmitype/StillImage"/>
    <dc:date>2024-01-30T00:55:32.634441</dc:date>
    <dc:format>image/svg+xml</dc:format>
    <dc:creator>
     <cc:Agent>
      <dc:title>Matplotlib v3.7.1, https://matplotlib.org/</dc:title>
     </cc:Agent>
    </dc:creator>
   </cc:Work>
  </rdf:RDF>
 </metadata>
 <defs>
  <style type="text/css">*{stroke-linejoin: round; stroke-linecap: butt}</style>
 </defs>
 <g id="figure_1">
  <g id="patch_1">
   <path d="M 0 292.77875 
L 279.452812 292.77875 
L 279.452812 0 
L 0 0 
z
" style="fill: #ffffff"/>
  </g>
  <g id="axes_1">
   <g id="patch_2">
    <path d="M 49.432813 256.408437 
L 272.252813 256.408437 
L 272.252813 20.148437 
L 49.432813 20.148437 
z
" style="fill: #ffffff"/>
   </g>
   <g id="matplotlib.axis_1">
    <g id="xtick_1">
     <g id="line2d_1">
      <path d="M 64.378632 256.408437 
L 64.378632 20.148437 
" clip-path="url(#p6a8269d17c)" style="fill: none; stroke-dasharray: 0.8,1.32; stroke-dashoffset: 0; stroke: #b0b0b0; stroke-width: 0.8"/>
     </g>
     <g id="line2d_2">
      <defs>
       <path id="mbed131db5c" d="M 0 0 
L 0 3.5 
" style="stroke: #000000; stroke-width: 0.8"/>
      </defs>
      <g>
       <use xlink:href="#mbed131db5c" x="64.378632" y="256.408437" style="stroke: #000000; stroke-width: 0.8"/>
      </g>
     </g>
     <g id="text_1">
      <!-- −100 -->
      <g transform="translate(53.303632 270.395937) scale(0.1 -0.1)">
       <defs>
        <path id="Cambria-2212" d="M 397 1613 
L 397 2047 
L 3147 2047 
L 3147 1613 
L 397 1613 
z
" transform="scale(0.015625)"/>
        <path id="Cambria-31" d="M 2172 816 
Q 2172 634 2192 542 
Q 2213 450 2264 392 
Q 2316 334 2412 301 
Q 2509 269 2656 251 
Q 2803 234 3044 228 
L 3044 0 
L 734 0 
L 734 228 
Q 1081 244 1229 270 
Q 1378 297 1456 350 
Q 1534 403 1570 500 
Q 1606 597 1606 816 
L 1606 3350 
Q 1606 3475 1562 3533 
Q 1519 3591 1434 3591 
Q 1334 3591 1150 3487 
Q 966 3384 694 3203 
L 556 3444 
L 2019 4316 
L 2191 4316 
Q 2172 4016 2172 3484 
L 2172 816 
z
" transform="scale(0.015625)"/>
        <path id="Cambria-30" d="M 1738 -50 
Q 1063 -50 733 481 
Q 403 1013 403 2094 
Q 403 2669 504 3087 
Q 606 3506 789 3779 
Q 972 4053 1228 4184 
Q 1484 4316 1788 4316 
Q 2472 4316 2806 3787 
Q 3141 3259 3141 2191 
Q 3141 1084 2783 517 
Q 2425 -50 1738 -50 
z
M 1013 2188 
Q 1013 1169 1202 692 
Q 1391 216 1788 216 
Q 2166 216 2348 664 
Q 2531 1113 2531 2053 
Q 2531 2772 2437 3217 
Q 2344 3663 2176 3856 
Q 2009 4050 1772 4050 
Q 1556 4050 1411 3922 
Q 1266 3794 1177 3553 
Q 1088 3313 1050 2967 
Q 1013 2622 1013 2188 
z
" transform="scale(0.015625)"/>
       </defs>
       <use xlink:href="#Cambria-2212"/>
       <use xlink:href="#Cambria-31" x="55.371094"/>
       <use xlink:href="#Cambria-30" x="110.742188"/>
       <use xlink:href="#Cambria-30" x="166.113281"/>
      </g>
     </g>
    </g>
    <g id="xtick_2">
     <g id="line2d_3">
      <path d="M 112.555647 256.408437 
L 112.555647 20.148437 
" clip-path="url(#p6a8269d17c)" style="fill: none; stroke-dasharray: 0.8,1.32; stroke-dashoffset: 0; stroke: #b0b0b0; stroke-width: 0.8"/>
     </g>
     <g id="line2d_4">
      <g>
       <use xlink:href="#mbed131db5c" x="112.555647" y="256.408437" style="stroke: #000000; stroke-width: 0.8"/>
      </g>
     </g>
     <g id="text_2">
      <!-- −50 -->
      <g transform="translate(104.249397 270.395937) scale(0.1 -0.1)">
       <defs>
        <path id="Cambria-35" d="M 469 172 
L 469 834 
L 847 834 
Q 941 516 1130 366 
Q 1319 216 1619 216 
Q 2034 216 2246 466 
Q 2459 716 2459 1213 
Q 2459 1544 2346 1761 
Q 2234 1978 2043 2075 
Q 1853 2172 1600 2172 
Q 1388 2172 1234 2145 
Q 1081 2119 906 2063 
L 656 2209 
L 656 4266 
L 2378 4266 
Q 2484 4266 2531 4283 
Q 2578 4300 2606 4336 
Q 2634 4372 2672 4472 
L 2916 4472 
L 2869 3747 
L 1072 3747 
L 1072 2375 
Q 1234 2444 1425 2478 
Q 1616 2513 1806 2513 
Q 2178 2513 2465 2361 
Q 2753 2209 2909 1929 
Q 3066 1650 3066 1281 
Q 3066 863 2891 563 
Q 2716 263 2384 106 
Q 2053 -50 1600 -50 
Q 1059 -50 469 172 
z
" transform="scale(0.015625)"/>
       </defs>
       <use xlink:href="#Cambria-2212"/>
       <use xlink:href="#Cambria-35" x="55.371094"/>
       <use xlink:href="#Cambria-30" x="110.742188"/>
      </g>
     </g>
    </g>
    <g id="xtick_3">
     <g id="line2d_5">
      <path d="M 160.732662 256.408437 
L 160.732662 20.148437 
" clip-path="url(#p6a8269d17c)" style="fill: none; stroke-dasharray: 0.8,1.32; stroke-dashoffset: 0; stroke: #b0b0b0; stroke-width: 0.8"/>
     </g>
     <g id="line2d_6">
      <g>
       <use xlink:href="#mbed131db5c" x="160.732662" y="256.408437" style="stroke: #000000; stroke-width: 0.8"/>
      </g>
     </g>
     <g id="text_3">
      <!-- 0 -->
      <g transform="translate(157.963912 270.395937) scale(0.1 -0.1)">
       <use xlink:href="#Cambria-30"/>
      </g>
     </g>
    </g>
    <g id="xtick_4">
     <g id="line2d_7">
      <path d="M 208.909677 256.408437 
L 208.909677 20.148437 
" clip-path="url(#p6a8269d17c)" style="fill: none; stroke-dasharray: 0.8,1.32; stroke-dashoffset: 0; stroke: #b0b0b0; stroke-width: 0.8"/>
     </g>
     <g id="line2d_8">
      <g>
       <use xlink:href="#mbed131db5c" x="208.909677" y="256.408437" style="stroke: #000000; stroke-width: 0.8"/>
      </g>
     </g>
     <g id="text_4">
      <!-- 50 -->
      <g transform="translate(203.372177 270.395937) scale(0.1 -0.1)">
       <use xlink:href="#Cambria-35"/>
       <use xlink:href="#Cambria-30" x="55.371094"/>
      </g>
     </g>
    </g>
    <g id="xtick_5">
     <g id="line2d_9">
      <path d="M 257.086691 256.408437 
L 257.086691 20.148437 
" clip-path="url(#p6a8269d17c)" style="fill: none; stroke-dasharray: 0.8,1.32; stroke-dashoffset: 0; stroke: #b0b0b0; stroke-width: 0.8"/>
     </g>
     <g id="line2d_10">
      <g>
       <use xlink:href="#mbed131db5c" x="257.086691" y="256.408437" style="stroke: #000000; stroke-width: 0.8"/>
      </g>
     </g>
     <g id="text_5">
      <!-- 100 -->
      <g transform="translate(248.780441 270.395937) scale(0.1 -0.1)">
       <use xlink:href="#Cambria-31"/>
       <use xlink:href="#Cambria-30" x="55.371094"/>
       <use xlink:href="#Cambria-30" x="110.742188"/>
      </g>
     </g>
    </g>
    <g id="text_6">
     <!-- Displacement (mm) -->
     <g transform="translate(120.993594 283.439687) scale(0.1 -0.1)">
      <defs>
       <path id="TimesNewRomanPSMT-44" d="M 109 0 
L 109 116 
L 269 116 
Q 538 116 650 288 
Q 719 391 719 750 
L 719 3488 
Q 719 3884 631 3984 
Q 509 4122 269 4122 
L 109 4122 
L 109 4238 
L 1834 4238 
Q 2784 4238 3279 4022 
Q 3775 3806 4076 3303 
Q 4378 2800 4378 2141 
Q 4378 1256 3841 663 
Q 3238 0 2003 0 
L 109 0 
z
M 1319 306 
Q 1716 219 1984 219 
Q 2709 219 3187 728 
Q 3666 1238 3666 2109 
Q 3666 2988 3187 3494 
Q 2709 4000 1959 4000 
Q 1678 4000 1319 3909 
L 1319 306 
z
" transform="scale(0.015625)"/>
       <path id="TimesNewRomanPSMT-69" d="M 928 4444 
Q 1059 4444 1151 4351 
Q 1244 4259 1244 4128 
Q 1244 3997 1151 3903 
Q 1059 3809 928 3809 
Q 797 3809 703 3903 
Q 609 3997 609 4128 
Q 609 4259 701 4351 
Q 794 4444 928 4444 
z
M 1188 2947 
L 1188 647 
Q 1188 378 1227 289 
Q 1266 200 1342 156 
Q 1419 113 1622 113 
L 1622 0 
L 231 0 
L 231 113 
Q 441 113 512 153 
Q 584 194 626 287 
Q 669 381 669 647 
L 669 1750 
Q 669 2216 641 2353 
Q 619 2453 572 2492 
Q 525 2531 444 2531 
Q 356 2531 231 2484 
L 188 2597 
L 1050 2947 
L 1188 2947 
z
" transform="scale(0.015625)"/>
       <path id="TimesNewRomanPSMT-73" d="M 2050 2947 
L 2050 1972 
L 1947 1972 
Q 1828 2431 1642 2597 
Q 1456 2763 1169 2763 
Q 950 2763 815 2647 
Q 681 2531 681 2391 
Q 681 2216 781 2091 
Q 878 1963 1175 1819 
L 1631 1597 
Q 2266 1288 2266 781 
Q 2266 391 1970 151 
Q 1675 -88 1309 -88 
Q 1047 -88 709 6 
Q 606 38 541 38 
Q 469 38 428 -44 
L 325 -44 
L 325 978 
L 428 978 
Q 516 541 762 319 
Q 1009 97 1316 97 
Q 1531 97 1667 223 
Q 1803 350 1803 528 
Q 1803 744 1651 891 
Q 1500 1038 1047 1263 
Q 594 1488 453 1669 
Q 313 1847 313 2119 
Q 313 2472 555 2709 
Q 797 2947 1181 2947 
Q 1350 2947 1591 2875 
Q 1750 2828 1803 2828 
Q 1853 2828 1881 2850 
Q 1909 2872 1947 2947 
L 2050 2947 
z
" transform="scale(0.015625)"/>
       <path id="TimesNewRomanPSMT-70" d="M -6 2578 
L 875 2934 
L 994 2934 
L 994 2266 
Q 1216 2644 1439 2795 
Q 1663 2947 1909 2947 
Q 2341 2947 2628 2609 
Q 2981 2197 2981 1534 
Q 2981 794 2556 309 
Q 2206 -88 1675 -88 
Q 1444 -88 1275 -22 
Q 1150 25 994 166 
L 994 -706 
Q 994 -1000 1030 -1079 
Q 1066 -1159 1155 -1206 
Q 1244 -1253 1478 -1253 
L 1478 -1369 
L -22 -1369 
L -22 -1253 
L 56 -1253 
Q 228 -1256 350 -1188 
Q 409 -1153 442 -1076 
Q 475 -1000 475 -688 
L 475 2019 
Q 475 2297 450 2372 
Q 425 2447 370 2484 
Q 316 2522 222 2522 
Q 147 2522 31 2478 
L -6 2578 
z
M 994 2081 
L 994 1013 
Q 994 666 1022 556 
Q 1066 375 1236 237 
Q 1406 100 1666 100 
Q 1978 100 2172 344 
Q 2425 663 2425 1241 
Q 2425 1897 2138 2250 
Q 1938 2494 1663 2494 
Q 1513 2494 1366 2419 
Q 1253 2363 994 2081 
z
" transform="scale(0.015625)"/>
       <path id="TimesNewRomanPSMT-6c" d="M 1184 4444 
L 1184 647 
Q 1184 378 1223 290 
Q 1263 203 1344 158 
Q 1425 113 1647 113 
L 1647 0 
L 244 0 
L 244 113 
Q 441 113 512 153 
Q 584 194 625 287 
Q 666 381 666 647 
L 666 3247 
Q 666 3731 644 3842 
Q 622 3953 573 3993 
Q 525 4034 450 4034 
Q 369 4034 244 3984 
L 191 4094 
L 1044 4444 
L 1184 4444 
z
" transform="scale(0.015625)"/>
       <path id="TimesNewRomanPSMT-61" d="M 1822 413 
Q 1381 72 1269 19 
Q 1100 -59 909 -59 
Q 613 -59 420 144 
Q 228 347 228 678 
Q 228 888 322 1041 
Q 450 1253 767 1440 
Q 1084 1628 1822 1897 
L 1822 2009 
Q 1822 2438 1686 2597 
Q 1550 2756 1291 2756 
Q 1094 2756 978 2650 
Q 859 2544 859 2406 
L 866 2225 
Q 866 2081 792 2003 
Q 719 1925 600 1925 
Q 484 1925 411 2006 
Q 338 2088 338 2228 
Q 338 2497 613 2722 
Q 888 2947 1384 2947 
Q 1766 2947 2009 2819 
Q 2194 2722 2281 2516 
Q 2338 2381 2338 1966 
L 2338 994 
Q 2338 584 2353 492 
Q 2369 400 2405 369 
Q 2441 338 2488 338 
Q 2538 338 2575 359 
Q 2641 400 2828 588 
L 2828 413 
Q 2478 -56 2159 -56 
Q 2006 -56 1915 50 
Q 1825 156 1822 413 
z
M 1822 616 
L 1822 1706 
Q 1350 1519 1213 1441 
Q 966 1303 859 1153 
Q 753 1003 753 825 
Q 753 600 887 451 
Q 1022 303 1197 303 
Q 1434 303 1822 616 
z
" transform="scale(0.015625)"/>
       <path id="TimesNewRomanPSMT-63" d="M 2631 1088 
Q 2516 522 2178 217 
Q 1841 -88 1431 -88 
Q 944 -88 581 321 
Q 219 731 219 1428 
Q 219 2103 620 2525 
Q 1022 2947 1584 2947 
Q 2006 2947 2278 2723 
Q 2550 2500 2550 2259 
Q 2550 2141 2473 2067 
Q 2397 1994 2259 1994 
Q 2075 1994 1981 2113 
Q 1928 2178 1911 2362 
Q 1894 2547 1784 2644 
Q 1675 2738 1481 2738 
Q 1169 2738 978 2506 
Q 725 2200 725 1697 
Q 725 1184 976 792 
Q 1228 400 1656 400 
Q 1963 400 2206 609 
Q 2378 753 2541 1131 
L 2631 1088 
z
" transform="scale(0.015625)"/>
       <path id="TimesNewRomanPSMT-65" d="M 681 1784 
Q 678 1147 991 784 
Q 1303 422 1725 422 
Q 2006 422 2214 576 
Q 2422 731 2563 1106 
L 2659 1044 
Q 2594 616 2278 264 
Q 1963 -88 1488 -88 
Q 972 -88 605 314 
Q 238 716 238 1394 
Q 238 2128 614 2539 
Q 991 2950 1559 2950 
Q 2041 2950 2350 2633 
Q 2659 2316 2659 1784 
L 681 1784 
z
M 681 1966 
L 2006 1966 
Q 1991 2241 1941 2353 
Q 1863 2528 1708 2628 
Q 1553 2728 1384 2728 
Q 1125 2728 920 2526 
Q 716 2325 681 1966 
z
" transform="scale(0.015625)"/>
       <path id="TimesNewRomanPSMT-6d" d="M 1050 2338 
Q 1363 2650 1419 2697 
Q 1559 2816 1721 2881 
Q 1884 2947 2044 2947 
Q 2313 2947 2506 2790 
Q 2700 2634 2766 2338 
Q 3088 2713 3309 2830 
Q 3531 2947 3766 2947 
Q 3994 2947 4170 2830 
Q 4347 2713 4450 2447 
Q 4519 2266 4519 1878 
L 4519 647 
Q 4519 378 4559 278 
Q 4591 209 4675 161 
Q 4759 113 4950 113 
L 4950 0 
L 3538 0 
L 3538 113 
L 3597 113 
Q 3781 113 3884 184 
Q 3956 234 3988 344 
Q 4000 397 4000 647 
L 4000 1878 
Q 4000 2228 3916 2372 
Q 3794 2572 3525 2572 
Q 3359 2572 3192 2489 
Q 3025 2406 2788 2181 
L 2781 2147 
L 2788 2013 
L 2788 647 
Q 2788 353 2820 281 
Q 2853 209 2943 161 
Q 3034 113 3253 113 
L 3253 0 
L 1806 0 
L 1806 113 
Q 2044 113 2133 169 
Q 2222 225 2256 338 
Q 2272 391 2272 647 
L 2272 1878 
Q 2272 2228 2169 2381 
Q 2031 2581 1784 2581 
Q 1616 2581 1450 2491 
Q 1191 2353 1050 2181 
L 1050 647 
Q 1050 366 1089 281 
Q 1128 197 1204 155 
Q 1281 113 1516 113 
L 1516 0 
L 100 0 
L 100 113 
Q 297 113 375 155 
Q 453 197 493 289 
Q 534 381 534 647 
L 534 1741 
Q 534 2213 506 2350 
Q 484 2453 437 2492 
Q 391 2531 309 2531 
Q 222 2531 100 2484 
L 53 2597 
L 916 2947 
L 1050 2947 
L 1050 2338 
z
" transform="scale(0.015625)"/>
       <path id="TimesNewRomanPSMT-6e" d="M 1034 2341 
Q 1538 2947 1994 2947 
Q 2228 2947 2397 2830 
Q 2566 2713 2666 2444 
Q 2734 2256 2734 1869 
L 2734 647 
Q 2734 375 2778 278 
Q 2813 200 2889 156 
Q 2966 113 3172 113 
L 3172 0 
L 1756 0 
L 1756 113 
L 1816 113 
Q 2016 113 2095 173 
Q 2175 234 2206 353 
Q 2219 400 2219 647 
L 2219 1819 
Q 2219 2209 2117 2386 
Q 2016 2563 1775 2563 
Q 1403 2563 1034 2156 
L 1034 647 
Q 1034 356 1069 288 
Q 1113 197 1189 155 
Q 1266 113 1500 113 
L 1500 0 
L 84 0 
L 84 113 
L 147 113 
Q 366 113 442 223 
Q 519 334 519 647 
L 519 1709 
Q 519 2225 495 2337 
Q 472 2450 423 2490 
Q 375 2531 294 2531 
Q 206 2531 84 2484 
L 38 2597 
L 900 2947 
L 1034 2947 
L 1034 2341 
z
" transform="scale(0.015625)"/>
       <path id="TimesNewRomanPSMT-74" d="M 1031 3803 
L 1031 2863 
L 1700 2863 
L 1700 2644 
L 1031 2644 
L 1031 788 
Q 1031 509 1111 412 
Q 1191 316 1316 316 
Q 1419 316 1516 380 
Q 1613 444 1666 569 
L 1788 569 
Q 1678 263 1478 108 
Q 1278 -47 1066 -47 
Q 922 -47 784 33 
Q 647 113 581 261 
Q 516 409 516 719 
L 516 2644 
L 63 2644 
L 63 2747 
Q 234 2816 414 2980 
Q 594 3144 734 3369 
Q 806 3488 934 3803 
L 1031 3803 
z
" transform="scale(0.015625)"/>
       <path id="TimesNewRomanPSMT-20" transform="scale(0.015625)"/>
       <path id="TimesNewRomanPSMT-28" d="M 1988 -1253 
L 1988 -1369 
Q 1516 -1131 1200 -813 
Q 750 -359 506 256 
Q 263 872 263 1534 
Q 263 2503 741 3301 
Q 1219 4100 1988 4444 
L 1988 4313 
Q 1603 4100 1356 3731 
Q 1109 3363 987 2797 
Q 866 2231 866 1616 
Q 866 947 969 400 
Q 1050 -31 1165 -292 
Q 1281 -553 1476 -793 
Q 1672 -1034 1988 -1253 
z
" transform="scale(0.015625)"/>
       <path id="TimesNewRomanPSMT-29" d="M 144 4313 
L 144 4444 
Q 619 4209 934 3891 
Q 1381 3434 1625 2820 
Q 1869 2206 1869 1541 
Q 1869 572 1392 -226 
Q 916 -1025 144 -1369 
L 144 -1253 
Q 528 -1038 776 -670 
Q 1025 -303 1145 264 
Q 1266 831 1266 1447 
Q 1266 2113 1163 2663 
Q 1084 3094 967 3353 
Q 850 3613 656 3853 
Q 463 4094 144 4313 
z
" transform="scale(0.015625)"/>
      </defs>
      <use xlink:href="#TimesNewRomanPSMT-44"/>
      <use xlink:href="#TimesNewRomanPSMT-69" x="72.216797"/>
      <use xlink:href="#TimesNewRomanPSMT-73" x="100"/>
      <use xlink:href="#TimesNewRomanPSMT-70" x="138.916016"/>
      <use xlink:href="#TimesNewRomanPSMT-6c" x="188.916016"/>
      <use xlink:href="#TimesNewRomanPSMT-61" x="216.699219"/>
      <use xlink:href="#TimesNewRomanPSMT-63" x="261.083984"/>
      <use xlink:href="#TimesNewRomanPSMT-65" x="305.46875"/>
      <use xlink:href="#TimesNewRomanPSMT-6d" x="349.853516"/>
      <use xlink:href="#TimesNewRomanPSMT-65" x="427.636719"/>
      <use xlink:href="#TimesNewRomanPSMT-6e" x="472.021484"/>
      <use xlink:href="#TimesNewRomanPSMT-74" x="522.021484"/>
      <use xlink:href="#TimesNewRomanPSMT-20" x="549.804688"/>
      <use xlink:href="#TimesNewRomanPSMT-28" x="574.804688"/>
      <use xlink:href="#TimesNewRomanPSMT-6d" x="608.105469"/>
      <use xlink:href="#TimesNewRomanPSMT-6d" x="685.888672"/>
      <use xlink:href="#TimesNewRomanPSMT-29" x="763.671875"/>
     </g>
    </g>
   </g>
   <g id="matplotlib.axis_2">
    <g id="ytick_1">
     <g id="line2d_11">
      <path d="M 49.432813 234.002783 
L 272.252813 234.002783 
" clip-path="url(#p6a8269d17c)" style="fill: none; stroke-dasharray: 0.8,1.32; stroke-dashoffset: 0; stroke: #b0b0b0; stroke-width: 0.8"/>
     </g>
     <g id="line2d_12">
      <defs>
       <path id="md9a5be7a03" d="M 0 0 
L -3.5 0 
" style="stroke: #000000; stroke-width: 0.8"/>
      </defs>
      <g>
       <use xlink:href="#md9a5be7a03" x="49.432813" y="234.002783" style="stroke: #000000; stroke-width: 0.8"/>
      </g>
     </g>
     <g id="text_7">
      <!-- −150 -->
      <g transform="translate(20.282813 237.496533) scale(0.1 -0.1)">
       <use xlink:href="#Cambria-2212"/>
       <use xlink:href="#Cambria-31" x="55.371094"/>
       <use xlink:href="#Cambria-35" x="110.742188"/>
       <use xlink:href="#Cambria-30" x="166.113281"/>
      </g>
     </g>
    </g>
    <g id="ytick_2">
     <g id="line2d_13">
      <path d="M 49.432813 202.092951 
L 272.252813 202.092951 
" clip-path="url(#p6a8269d17c)" style="fill: none; stroke-dasharray: 0.8,1.32; stroke-dashoffset: 0; stroke: #b0b0b0; stroke-width: 0.8"/>
     </g>
     <g id="line2d_14">
      <g>
       <use xlink:href="#md9a5be7a03" x="49.432813" y="202.092951" style="stroke: #000000; stroke-width: 0.8"/>
      </g>
     </g>
     <g id="text_8">
      <!-- −100 -->
      <g transform="translate(20.282813 205.586701) scale(0.1 -0.1)">
       <use xlink:href="#Cambria-2212"/>
       <use xlink:href="#Cambria-31" x="55.371094"/>
       <use xlink:href="#Cambria-30" x="110.742188"/>
       <use xlink:href="#Cambria-30" x="166.113281"/>
      </g>
     </g>
    </g>
    <g id="ytick_3">
     <g id="line2d_15">
      <path d="M 49.432813 170.18312 
L 272.252813 170.18312 
" clip-path="url(#p6a8269d17c)" style="fill: none; stroke-dasharray: 0.8,1.32; stroke-dashoffset: 0; stroke: #b0b0b0; stroke-width: 0.8"/>
     </g>
     <g id="line2d_16">
      <g>
       <use xlink:href="#md9a5be7a03" x="49.432813" y="170.18312" style="stroke: #000000; stroke-width: 0.8"/>
      </g>
     </g>
     <g id="text_9">
      <!-- −50 -->
      <g transform="translate(25.820313 173.67687) scale(0.1 -0.1)">
       <use xlink:href="#Cambria-2212"/>
       <use xlink:href="#Cambria-35" x="55.371094"/>
       <use xlink:href="#Cambria-30" x="110.742188"/>
      </g>
     </g>
    </g>
    <g id="ytick_4">
     <g id="line2d_17">
      <path d="M 49.432813 138.273288 
L 272.252813 138.273288 
" clip-path="url(#p6a8269d17c)" style="fill: none; stroke-dasharray: 0.8,1.32; stroke-dashoffset: 0; stroke: #b0b0b0; stroke-width: 0.8"/>
     </g>
     <g id="line2d_18">
      <g>
       <use xlink:href="#md9a5be7a03" x="49.432813" y="138.273288" style="stroke: #000000; stroke-width: 0.8"/>
      </g>
     </g>
     <g id="text_10">
      <!-- 0 -->
      <g transform="translate(36.895313 141.767038) scale(0.1 -0.1)">
       <use xlink:href="#Cambria-30"/>
      </g>
     </g>
    </g>
    <g id="ytick_5">
     <g id="line2d_19">
      <path d="M 49.432813 106.363456 
L 272.252813 106.363456 
" clip-path="url(#p6a8269d17c)" style="fill: none; stroke-dasharray: 0.8,1.32; stroke-dashoffset: 0; stroke: #b0b0b0; stroke-width: 0.8"/>
     </g>
     <g id="line2d_20">
      <g>
       <use xlink:href="#md9a5be7a03" x="49.432813" y="106.363456" style="stroke: #000000; stroke-width: 0.8"/>
      </g>
     </g>
     <g id="text_11">
      <!-- 50 -->
      <g transform="translate(31.357813 109.857206) scale(0.1 -0.1)">
       <use xlink:href="#Cambria-35"/>
       <use xlink:href="#Cambria-30" x="55.371094"/>
      </g>
     </g>
    </g>
    <g id="ytick_6">
     <g id="line2d_21">
      <path d="M 49.432813 74.453625 
L 272.252813 74.453625 
" clip-path="url(#p6a8269d17c)" style="fill: none; stroke-dasharray: 0.8,1.32; stroke-dashoffset: 0; stroke: #b0b0b0; stroke-width: 0.8"/>
     </g>
     <g id="line2d_22">
      <g>
       <use xlink:href="#md9a5be7a03" x="49.432813" y="74.453625" style="stroke: #000000; stroke-width: 0.8"/>
      </g>
     </g>
     <g id="text_12">
      <!-- 100 -->
      <g transform="translate(25.820313 77.947375) scale(0.1 -0.1)">
       <use xlink:href="#Cambria-31"/>
       <use xlink:href="#Cambria-30" x="55.371094"/>
       <use xlink:href="#Cambria-30" x="110.742188"/>
      </g>
     </g>
    </g>
    <g id="ytick_7">
     <g id="line2d_23">
      <path d="M 49.432813 42.543793 
L 272.252813 42.543793 
" clip-path="url(#p6a8269d17c)" style="fill: none; stroke-dasharray: 0.8,1.32; stroke-dashoffset: 0; stroke: #b0b0b0; stroke-width: 0.8"/>
     </g>
     <g id="line2d_24">
      <g>
       <use xlink:href="#md9a5be7a03" x="49.432813" y="42.543793" style="stroke: #000000; stroke-width: 0.8"/>
      </g>
     </g>
     <g id="text_13">
      <!-- 150 -->
      <g transform="translate(25.820313 46.037543) scale(0.1 -0.1)">
       <use xlink:href="#Cambria-31"/>
       <use xlink:href="#Cambria-35" x="55.371094"/>
       <use xlink:href="#Cambria-30" x="110.742188"/>
      </g>
     </g>
    </g>
    <g id="text_14">
     <!-- Base Shear (kN) -->
     <g transform="translate(14.14375 171.32375) rotate(-90) scale(0.1 -0.1)">
      <defs>
       <path id="TimesNewRomanPSMT-42" d="M 2956 2163 
Q 3397 2069 3616 1863 
Q 3919 1575 3919 1159 
Q 3919 844 3719 555 
Q 3519 266 3170 133 
Q 2822 0 2106 0 
L 106 0 
L 106 116 
L 266 116 
Q 531 116 647 284 
Q 719 394 719 750 
L 719 3488 
Q 719 3881 628 3984 
Q 506 4122 266 4122 
L 106 4122 
L 106 4238 
L 1938 4238 
Q 2450 4238 2759 4163 
Q 3228 4050 3475 3764 
Q 3722 3478 3722 3106 
Q 3722 2788 3528 2536 
Q 3334 2284 2956 2163 
z
M 1319 2331 
Q 1434 2309 1582 2298 
Q 1731 2288 1909 2288 
Q 2366 2288 2595 2386 
Q 2825 2484 2947 2687 
Q 3069 2891 3069 3131 
Q 3069 3503 2766 3765 
Q 2463 4028 1881 4028 
Q 1569 4028 1319 3959 
L 1319 2331 
z
M 1319 306 
Q 1681 222 2034 222 
Q 2600 222 2897 476 
Q 3194 731 3194 1106 
Q 3194 1353 3059 1581 
Q 2925 1809 2622 1940 
Q 2319 2072 1872 2072 
Q 1678 2072 1540 2065 
Q 1403 2059 1319 2044 
L 1319 306 
z
" transform="scale(0.015625)"/>
       <path id="TimesNewRomanPSMT-53" d="M 2934 4334 
L 2934 2869 
L 2819 2869 
Q 2763 3291 2617 3541 
Q 2472 3791 2203 3937 
Q 1934 4084 1647 4084 
Q 1322 4084 1109 3886 
Q 897 3688 897 3434 
Q 897 3241 1031 3081 
Q 1225 2847 1953 2456 
Q 2547 2138 2764 1967 
Q 2981 1797 3098 1565 
Q 3216 1334 3216 1081 
Q 3216 600 2842 251 
Q 2469 -97 1881 -97 
Q 1697 -97 1534 -69 
Q 1438 -53 1133 45 
Q 828 144 747 144 
Q 669 144 623 97 
Q 578 50 556 -97 
L 441 -97 
L 441 1356 
L 556 1356 
Q 638 900 775 673 
Q 913 447 1195 297 
Q 1478 147 1816 147 
Q 2206 147 2432 353 
Q 2659 559 2659 841 
Q 2659 997 2573 1156 
Q 2488 1316 2306 1453 
Q 2184 1547 1640 1851 
Q 1097 2156 867 2337 
Q 638 2519 519 2737 
Q 400 2956 400 3219 
Q 400 3675 750 4004 
Q 1100 4334 1641 4334 
Q 1978 4334 2356 4169 
Q 2531 4091 2603 4091 
Q 2684 4091 2736 4139 
Q 2788 4188 2819 4334 
L 2934 4334 
z
" transform="scale(0.015625)"/>
       <path id="TimesNewRomanPSMT-68" d="M 1041 4444 
L 1041 2350 
Q 1388 2731 1591 2839 
Q 1794 2947 1997 2947 
Q 2241 2947 2416 2812 
Q 2591 2678 2675 2391 
Q 2734 2191 2734 1659 
L 2734 647 
Q 2734 375 2778 275 
Q 2809 200 2884 156 
Q 2959 113 3159 113 
L 3159 0 
L 1753 0 
L 1753 113 
L 1819 113 
Q 2019 113 2097 173 
Q 2175 234 2206 353 
Q 2216 403 2216 647 
L 2216 1659 
Q 2216 2128 2167 2275 
Q 2119 2422 2012 2495 
Q 1906 2569 1756 2569 
Q 1603 2569 1437 2487 
Q 1272 2406 1041 2159 
L 1041 647 
Q 1041 353 1073 281 
Q 1106 209 1195 161 
Q 1284 113 1503 113 
L 1503 0 
L 84 0 
L 84 113 
Q 275 113 384 172 
Q 447 203 484 290 
Q 522 378 522 647 
L 522 3238 
Q 522 3728 498 3840 
Q 475 3953 426 3993 
Q 378 4034 297 4034 
Q 231 4034 84 3984 
L 41 4094 
L 897 4444 
L 1041 4444 
z
" transform="scale(0.015625)"/>
       <path id="TimesNewRomanPSMT-72" d="M 1038 2947 
L 1038 2303 
Q 1397 2947 1775 2947 
Q 1947 2947 2059 2842 
Q 2172 2738 2172 2600 
Q 2172 2478 2090 2393 
Q 2009 2309 1897 2309 
Q 1788 2309 1652 2417 
Q 1516 2525 1450 2525 
Q 1394 2525 1328 2463 
Q 1188 2334 1038 2041 
L 1038 669 
Q 1038 431 1097 309 
Q 1138 225 1241 169 
Q 1344 113 1538 113 
L 1538 0 
L 72 0 
L 72 113 
Q 291 113 397 181 
Q 475 231 506 341 
Q 522 394 522 644 
L 522 1753 
Q 522 2253 501 2348 
Q 481 2444 426 2487 
Q 372 2531 291 2531 
Q 194 2531 72 2484 
L 41 2597 
L 906 2947 
L 1038 2947 
z
" transform="scale(0.015625)"/>
       <path id="TimesNewRomanPSMT-6b" d="M 1047 4444 
L 1047 1597 
L 1775 2259 
Q 2006 2472 2044 2528 
Q 2069 2566 2069 2603 
Q 2069 2666 2017 2711 
Q 1966 2756 1847 2763 
L 1847 2863 
L 3091 2863 
L 3091 2763 
Q 2834 2756 2664 2684 
Q 2494 2613 2291 2428 
L 1556 1750 
L 2291 822 
Q 2597 438 2703 334 
Q 2853 188 2966 144 
Q 3044 113 3238 113 
L 3238 0 
L 1847 0 
L 1847 113 
Q 1966 116 2008 148 
Q 2050 181 2050 241 
Q 2050 313 1925 472 
L 1047 1594 
L 1047 644 
Q 1047 366 1086 278 
Q 1125 191 1197 153 
Q 1269 116 1509 113 
L 1509 0 
L 53 0 
L 53 113 
Q 272 113 381 166 
Q 447 200 481 272 
Q 528 375 528 628 
L 528 3234 
Q 528 3731 506 3842 
Q 484 3953 434 3995 
Q 384 4038 303 4038 
Q 238 4038 106 3984 
L 53 4094 
L 903 4444 
L 1047 4444 
z
" transform="scale(0.015625)"/>
       <path id="TimesNewRomanPSMT-4e" d="M -84 4238 
L 1066 4238 
L 3656 1059 
L 3656 3503 
Q 3656 3894 3569 3991 
Q 3453 4122 3203 4122 
L 3056 4122 
L 3056 4238 
L 4531 4238 
L 4531 4122 
L 4381 4122 
Q 4113 4122 4000 3959 
Q 3931 3859 3931 3503 
L 3931 -69 
L 3819 -69 
L 1025 3344 
L 1025 734 
Q 1025 344 1109 247 
Q 1228 116 1475 116 
L 1625 116 
L 1625 0 
L 150 0 
L 150 116 
L 297 116 
Q 569 116 681 278 
Q 750 378 750 734 
L 750 3681 
Q 566 3897 470 3965 
Q 375 4034 191 4094 
Q 100 4122 -84 4122 
L -84 4238 
z
" transform="scale(0.015625)"/>
      </defs>
      <use xlink:href="#TimesNewRomanPSMT-42"/>
      <use xlink:href="#TimesNewRomanPSMT-61" x="66.699219"/>
      <use xlink:href="#TimesNewRomanPSMT-73" x="111.083984"/>
      <use xlink:href="#TimesNewRomanPSMT-65" x="150"/>
      <use xlink:href="#TimesNewRomanPSMT-20" x="194.384766"/>
      <use xlink:href="#TimesNewRomanPSMT-53" x="219.384766"/>
      <use xlink:href="#TimesNewRomanPSMT-68" x="275"/>
      <use xlink:href="#TimesNewRomanPSMT-65" x="325"/>
      <use xlink:href="#TimesNewRomanPSMT-61" x="369.384766"/>
      <use xlink:href="#TimesNewRomanPSMT-72" x="413.769531"/>
      <use xlink:href="#TimesNewRomanPSMT-20" x="447.070312"/>
      <use xlink:href="#TimesNewRomanPSMT-28" x="472.070312"/>
      <use xlink:href="#TimesNewRomanPSMT-6b" x="505.371094"/>
      <use xlink:href="#TimesNewRomanPSMT-4e" x="555.371094"/>
      <use xlink:href="#TimesNewRomanPSMT-29" x="627.587891"/>
     </g>
    </g>
   </g>
   <g id="line2d_25">
    <path d="M 160.033407 136.755699 
L 163.296597 106.317025 
L 167.958296 90.400853 
L 170.522231 83.961965 
L 161.898087 123.224539 
L 161.198832 146.210453 
L 157.935642 169.21407 
L 152.108517 185.138289 
L 156.304047 162.128235 
L 158.634897 145.890198 
L 159.800322 136.757309 
L 161.431917 126.945286 
L 163.296597 110.710468 
L 165.860531 96.498565 
L 172.153826 76.853599 
L 175.650101 70.746231 
L 179.146376 66.666605 
L 175.883186 78.855593 
L 172.386911 87.666619 
L 169.822976 98.49895 
L 164.462022 116.78565 
L 160.033407 136.417742 
L 158.634897 152.311384 
L 155.837877 172.608125 
L 151.176177 192.241826 
L 146.281393 199.372722 
L 143.251288 200.745472 
L 148.146072 185.165647 
L 150.476922 169.603525 
L 154.905537 143.888205 
L 158.168727 132.037174 
L 161.898087 121.87271 
L 166.093616 102.242228 
L 168.890636 90.394416 
L 179.845631 63.282206 
L 187.30435 46.670807 
L 184.9735 60.881101 
L 180.311801 77.13523 
L 175.183931 92.716664 
L 170.522231 107.618965 
L 167.492126 119.806344 
L 162.597342 132.344554 
L 160.499577 139.794095 
L 155.371707 167.879944 
L 148.146072 190.910919 
L 141.852778 206.500399 
L 135.559483 220.738051 
L 138.589588 203.819272 
L 140.920438 187.919193 
L 146.514478 173.348412 
L 150.476922 159.126853 
L 156.537132 139.145539 
L 163.529682 113.412516 
L 174.251591 80.894601 
L 187.30435 51.402207 
L 196.62775 40.523205 
L 189.868285 67.268491 
L 182.875735 86.580328 
L 175.417016 109.612912 
L 167.492126 129.269144 
L 163.762767 141.799307 
L 160.499577 154.66421 
L 157.003302 165.840935 
L 148.612242 186.852214 
L 141.386608 202.786089 
L 133.461718 218.048878 
L 126.002999 226.211348 
L 130.198529 206.918822 
L 135.792568 186.60277 
L 145.815223 159.15904 
L 153.507027 137.138717 
L 160.499577 119.178709 
L 171.454571 90.71467 
L 183.10882 65.287418 
L 195.928495 46.273305 
L 204.319554 40.132141 
L 214.575294 37.019716 
L 208.515084 57.676945 
L 199.424769 84.438323 
L 190.10137 107.483782 
L 182.64265 128.826581 
L 171.920741 145.46051 
L 161.898087 159.385954 
L 151.642347 175.34075 
L 138.589588 192.666686 
L 129.499274 206.585693 
L 121.341299 218.47052 
L 112.250985 228.33404 
L 108.75471 230.385923 
L 114.348749 208.718042 
L 121.807469 184.333629 
L 129.965444 162.648045 
L 142.785118 137.550703 
L 153.040857 124.975479 
L 158.867982 115.134488 
L 167.725211 102.56892 
L 179.612546 87.278773 
L 188.003605 74.040508 
L 198.02626 57.749364 
L 207.582744 48.558539 
L 213.409869 43.448949 
L 218.071568 39.02332 
L 224.131778 38.305563 
L 232.522837 36.895799 
L 230.891243 50.763307 
L 216.439973 83.306971 
L 204.086469 112.118623 
L 184.274245 140.981773 
L 170.056061 158.315756 
L 157.003302 170.910293 
L 139.755013 186.575411 
L 127.401509 199.16512 
L 112.95024 213.459098 
L 101.29599 226.043978 
L 90.574081 233.215107 
L 98.96514 205.106728 
L 108.987795 179.690741 
L 119.709704 153.594012 
L 134.160973 135.582505 
L 150.010752 117.8993 
L 162.830427 105.64433 
L 180.078716 85.585768 
L 192.665305 75.022193 
L 204.319554 62.77527 
L 219.236993 54.223345 
L 231.357413 47.04256 
L 240.913897 39.879478 
L 250.004211 34.4094 
L 241.380067 61.505517 
L 228.094223 94.041134 
L 217.838483 113.375502 
L 207.349659 131.35965 
L 189.402115 145.677768 
L 176.582441 157.932738 
L 162.830427 169.180274 
L 148.612242 183.472643 
L 125.303744 202.221218 
L 105.95769 218.238778 
L 87.077806 230.197633 
L 72.160367 238.411601 
L 80.551426 212.330965 
L 91.972591 181.16005 
L 104.326095 154.714099 
L 123.672149 130.923525 
L 139.755013 122.70151 
L 158.634897 108.038997 
L 180.544886 88.962121 
L 194.996155 69.598786 
L 213.876039 58.991759 
L 231.823583 49.067084 
L 243.944002 44.251999 
L 253.500486 39.792574 
L 262.124631 37.367329 
L 251.402721 68.533416 
L 240.680812 92.940359 
L 230.658158 114.638818 
L 219.003908 130.60327 
L 211.545189 142.145311 
L 195.69541 151.717545 
L 180.078716 160.612255 
L 164.228937 168.494704 
L 143.950543 184.180743 
L 123.439064 199.868392 
L 100.36365 218.615358 
L 78.453662 225.18782 
L 66.100157 229.666557 
L 59.806863 232.075709 
L 64.934732 216.494275 
L 71.927282 199.548138 
L 78.686747 183.955439 
L 84.746956 170.39531 
L 91.040251 156.833573 
L 102.927585 146.274826 
L 113.41641 134.711863 
L 120.875129 129.591008 
L 138.356503 122.711166 
L 156.537132 110.419181 
L 160.732662 105.996771 
L 160.732662 105.996771 
" clip-path="url(#p6a8269d17c)" style="fill: none; stroke-dasharray: 3.7,1.6; stroke-dashoffset: 0; stroke: #000000"/>
   </g>
   <g id="line2d_26">
    <path d="M 160.732662 138.273288 
L 162.539431 99.35762 
L 163.130566 90.416815 
L 163.422723 87.447753 
L 163.998777 84.772838 
L 164.561923 82.434094 
L 166.39971 74.784841 
L 166.641858 74.147687 
L 167.964146 68.751606 
L 168.160728 68.238676 
L 169.578774 62.608528 
L 170.368059 59.822944 
L 170.247568 60.58373 
L 167.534436 77.074829 
L 163.978413 98.175628 
L 163.109603 104.972133 
L 162.518173 111.131201 
L 161.919687 119.203619 
L 161.31651 129.522343 
L 159.202917 170.324766 
L 158.313807 184.100826 
L 158.02183 186.116885 
L 157.732532 186.372054 
L 157.163113 189.823474 
L 156.883555 190.101803 
L 156.336124 193.249851 
L 156.068792 193.425562 
L 155.048129 198.635292 
L 154.80639 198.953352 
L 153.690121 203.608564 
L 153.486896 204.034142 
L 153.102124 205.599395 
L 152.920957 205.028426 
L 151.322609 211.913311 
L 151.097313 212.726862 
L 151.274311 211.673413 
L 154.857706 189.928732 
L 156.125698 180.42419 
L 157.223486 170.358957 
L 158.376695 157.426103 
L 159.567112 141.121695 
L 161.626809 109.657944 
L 162.40828 101.891717 
L 163.188096 96.213214 
L 164.739678 87.440546 
L 166.275425 80.574439 
L 167.789265 75.038059 
L 169.275216 70.082139 
L 170.727405 66.108288 
L 172.140093 62.960093 
L 173.507697 60.518628 
L 175.462801 57.74073 
L 177.286972 55.544931 
L 182.970438 50.588921 
L 185.623727 48.740261 
L 181.235012 69.123648 
L 178.224553 81.87951 
L 174.59355 96.304607 
L 165.235331 132.615459 
L 164.463596 136.569945 
L 163.688173 141.549351 
L 162.909829 147.344876 
L 161.347458 161.774599 
L 159.782657 176.765587 
L 159.001278 182.471471 
L 158.22161 186.674267 
L 156.670488 193.104061 
L 155.13542 198.226114 
L 153.622474 202.830243 
L 151.407582 208.510097 
L 149.975849 211.612591 
L 149.275578 212.310169 
L 146.594471 216.589499 
L 145.957502 217.441873 
L 144.727984 218.823511 
L 143.003758 220.79642 
L 142.463318 221.082566 
L 140.041996 223.461886 
L 137.520288 225.606641 
L 135.841973 226.870671 
L 135.860422 226.783802 
L 139.412689 210.521947 
L 142.731314 196.470219 
L 146.2742 182.576205 
L 150.330015 167.625968 
L 153.998308 154.138465 
L 155.517349 147.897443 
L 156.284978 144.261404 
L 157.057002 140.05017 
L 158.611182 129.761823 
L 161.093278 110.094453 
L 162.355014 103.470114 
L 163.615146 98.294191 
L 164.87243 93.855591 
L 166.125622 89.860203 
L 168.614784 82.903997 
L 171.072795 77.091141 
L 173.48994 72.201693 
L 175.856665 68.044369 
L 178.163617 64.505986 
L 180.40168 61.436739 
L 182.562006 58.75691 
L 185.638157 55.342745 
L 188.492929 52.482196 
L 190.260504 50.884228 
L 192.690996 49.185643 
L 196.101019 47.169563 
L 199.035931 45.695823 
L 200.878124 44.85111 
L 197.410462 60.366235 
L 194.40238 72.73697 
L 191.393874 84.004055 
L 188.816821 92.790914 
L 185.990135 101.522607 
L 183.979315 107.119375 
L 181.876621 112.490521 
L 179.690361 117.609428 
L 177.429177 122.46478 
L 175.102006 127.067774 
L 170.286713 135.868895 
L 167.817623 140.477203 
L 166.571963 142.881224 
L 165.320533 145.844714 
L 164.064568 150.236806 
L 162.80531 156.624438 
L 161.544003 165.15639 
L 160.281895 172.733752 
L 159.020233 177.734002 
L 156.50323 185.635232 
L 154.002942 192.263212 
L 151.529252 197.984354 
L 149.091935 202.861227 
L 146.700624 207.06472 
L 144.364771 210.675358 
L 142.093607 213.804108 
L 138.827709 217.817009 
L 135.756518 221.181755 
L 133.830788 223.056342 
L 131.14381 225.243527 
L 128.71984 226.921803 
L 125.321733 228.9554 
L 122.796805 230.298175 
L 120.843025 231.114318 
L 120.588211 231.236498 
L 125.195092 211.178319 
L 127.818476 200.809886 
L 130.129726 192.380217 
L 132.712999 183.728265 
L 135.545331 175.157239 
L 138.601547 166.935708 
L 140.750064 161.694239 
L 142.977556 156.702639 
L 145.275219 151.981115 
L 148.833354 145.345208 
L 152.497259 138.840354 
L 154.982571 133.709485 
L 156.234367 130.58105 
L 157.490608 126.32064 
L 158.750054 120.480759 
L 160.011459 113.778854 
L 161.479124 107.716067 
L 163.220109 101.819125 
L 164.958635 96.579965 
L 166.692985 91.827831 
L 168.421445 87.541497 
L 170.142305 83.651889 
L 171.853866 80.09554 
L 173.554436 76.858234 
L 175.242335 73.906812 
L 178.573459 68.775465 
L 181.834072 64.443889 
L 185.011289 60.744468 
L 188.092553 57.529596 
L 191.065685 54.711006 
L 193.918935 52.226592 
L 197.949505 49.370745 
L 200.454861 47.782757 
L 204.985325 45.401519 
L 209.658245 43.312279 
L 214.9708 41.258598 
L 216.130327 40.843639 
L 212.57651 56.259388 
L 209.7165 67.629069 
L 207.060876 77.295399 
L 203.993451 87.377516 
L 201.733045 94.081964 
L 199.310597 100.597502 
L 196.735682 106.768306 
L 194.018476 112.553106 
L 191.169719 117.892206 
L 188.200669 122.77022 
L 185.12306 127.199436 
L 181.949056 131.228435 
L 170.264888 144.740492 
L 166.816662 149.356818 
L 165.082676 152.757521 
L 163.344391 158.333453 
L 161.603525 165.835902 
L 159.861798 172.183031 
L 158.120932 177.50525 
L 156.382647 182.420022 
L 154.648661 186.749824 
L 152.920688 190.74517 
L 151.200435 194.400934 
L 149.489603 197.760601 
L 147.789883 200.838198 
L 144.430482 206.187362 
L 141.135511 210.706662 
L 137.917992 214.587438 
L 134.79064 217.96002 
L 131.765816 220.915493 
L 128.855474 223.368936 
L 126.071117 225.441242 
L 122.154727 228.037593 
L 118.581247 230.018801 
L 114.404448 232.017504 
L 110.218999 233.762246 
L 105.334997 235.554722 
L 105.336952 235.546035 
L 108.932821 219.983964 
L 111.807079 208.508681 
L 114.472797 198.773589 
L 116.479999 192.046254 
L 118.662095 185.310981 
L 121.010462 178.724304 
L 123.515819 172.470446 
L 126.168263 166.565964 
L 128.957312 161.055532 
L 131.871944 155.97615 
L 134.900638 151.338317 
L 138.031425 147.117715 
L 141.251932 143.264025 
L 149.611457 133.586387 
L 153.043879 129.523348 
L 154.772338 127.069311 
L 156.506688 123.523049 
L 158.245215 118.085006 
L 159.986199 112.050501 
L 162.001979 105.884523 
L 164.222051 99.615193 
L 166.438676 93.72151 
L 168.649661 88.552244 
L 170.852821 83.919127 
L 173.04598 79.735497 
L 175.22697 75.97242 
L 177.393635 72.586381 
L 179.543835 69.534294 
L 181.675443 66.761987 
L 183.786354 64.236471 
L 187.937761 59.805789 
L 191.981648 56.012566 
L 195.902034 52.752636 
L 199.683424 50.134917 
L 203.310873 47.906117 
L 206.770045 46.089385 
L 211.613573 43.826331 
L 216.004833 41.998232 
L 219.904793 40.563245 
L 226.096821 38.553552 
L 231.386894 37.047655 
L 231.379412 37.080894 
L 228.193785 50.899907 
L 225.024879 63.586228 
L 221.978512 74.591913 
L 219.643282 82.214087 
L 217.075227 89.80684 
L 214.284496 97.156869 
L 211.282118 104.027192 
L 208.079959 110.406745 
L 204.690674 116.233433 
L 202.930019 118.928139 
L 201.12766 121.478397 
L 197.404997 126.168941 
L 193.537398 130.369967 
L 189.540149 134.176137 
L 181.220341 141.561885 
L 176.930663 145.940537 
L 168.176462 156.721706 
L 165.964085 159.760803 
L 163.746537 163.540187 
L 161.526011 168.303167 
L 152.658009 188.726757 
L 150.455491 193.182025 
L 148.263129 197.229169 
L 146.083091 200.989001 
L 143.917531 204.487178 
L 141.768589 207.467755 
L 139.63839 210.16911 
L 137.529037 212.638092 
L 133.38119 216.99925 
L 129.341441 220.772507 
L 125.425756 223.85716 
L 121.64961 226.457247 
L 118.027928 228.592339 
L 114.575023 230.401106 
L 109.741778 232.659542 
L 105.361778 234.466287 
L 100.293495 236.294768 
L 94.501722 238.104904 
L 90.076648 239.364252 
L 90.089118 239.308829 
L 93.318908 225.305972 
L 96.506433 212.570364 
L 99.566097 201.551882 
L 101.909806 193.933251 
L 104.485994 186.351883 
L 107.284479 179.02878 
L 110.294202 172.179452 
L 113.503266 165.816365 
L 116.89899 159.998424 
L 120.467952 154.73938 
L 124.196048 150.010599 
L 128.068544 145.758575 
L 132.070134 141.778799 
L 138.279853 135.974012 
L 149.044813 124.937051 
L 153.44667 119.789694 
L 155.659489 116.814409 
L 157.877323 113.272207 
L 160.097978 109.021428 
L 162.661821 103.664303 
L 168.055189 91.475128 
L 170.742349 85.853694 
L 173.419616 80.894882 
L 176.084346 76.396498 
L 178.733903 72.266727 
L 181.36567 68.773923 
L 183.977045 65.646669 
L 186.565448 62.833654 
L 189.128321 60.270671 
L 194.167372 55.746061 
L 196.638571 53.723193 
L 199.074284 51.967921 
L 203.829661 48.927897 
L 208.414712 46.476158 
L 212.811314 44.405878 
L 217.002092 42.62942 
L 220.970483 41.119628 
L 226.47204 39.236545 
L 232.890762 37.258274 
L 239.301415 35.517245 
L 246.645685 33.757527 
L 243.418071 47.701508 
L 240.852792 58.007299 
L 238.745287 65.857499 
L 236.329461 74.137858 
L 233.614863 82.542332 
L 230.612221 90.784813 
L 229.006549 94.764895 
L 227.333402 98.568813 
L 225.594434 102.220796 
L 223.791364 105.720003 
L 221.925974 109.057421 
L 220.000107 112.224348 
L 218.015667 115.216037 
L 215.974614 118.033883 
L 213.878966 120.682519 
L 211.730794 123.168843 
L 209.532222 125.50192 
L 207.285421 127.693076 
L 204.992612 129.754863 
L 200.278079 133.539841 
L 195.407255 137.078389 
L 190.399391 140.501282 
L 174.753713 152.961884 
L 172.082385 155.525303 
L 169.399839 158.274637 
L 166.708729 161.317913 
L 164.011711 165.056221 
L 161.311454 169.83603 
L 158.610624 175.197597 
L 153.217923 186.827938 
L 150.531382 192.218557 
L 147.854922 196.910155 
L 145.19119 201.22772 
L 142.542816 205.217383 
L 139.91242 208.578508 
L 137.3026 211.590726 
L 134.715936 214.324453 
L 132.154984 216.826967 
L 127.120312 221.275437 
L 124.651568 223.209937 
L 119.82346 226.461275 
L 115.157032 229.100254 
L 110.670729 231.309465 
L 106.382279 233.198473 
L 100.357425 235.495366 
L 94.869232 237.358842 
L 88.470022 239.317201 
L 82.086044 241.022257 
L 74.818339 242.739572 
L 78.099867 228.642774 
L 80.682393 218.318863 
L 82.80106 210.460424 
L 85.227728 202.1726 
L 87.952805 193.75968 
L 90.965521 185.506844 
L 92.576067 181.52476 
L 94.253971 177.719514 
L 95.997575 174.053758 
L 97.805156 170.536983 
L 99.674928 167.182451 
L 101.605043 163.999421 
L 103.593592 160.989686 
L 105.638612 158.151196 
L 107.738081 155.478953 
L 109.889924 152.965488 
L 112.092014 150.601029 
L 114.342176 148.374111 
L 116.638184 146.272814 
L 121.358624 142.399085 
L 128.725058 136.931192 
L 136.376 130.304134 
L 138.977845 128.022584 
L 149.574208 119.66614 
L 152.257454 117.253379 
L 154.949075 114.444786 
L 157.646412 110.886196 
L 160.346799 106.577067 
L 163.458625 100.998825 
L 169.808091 88.473921 
L 172.970937 82.640356 
L 176.121689 77.5384 
L 179.257231 72.716059 
L 182.374466 68.589491 
L 185.470313 65.117987 
L 188.541712 62.007888 
L 191.585627 59.195618 
L 194.59905 56.629712 
L 200.522543 52.082286 
L 203.426757 50.21334 
L 206.288778 48.52223 
L 211.874967 45.703018 
L 217.259033 43.335229 
L 222.419695 41.350189 
L 229.697455 38.894315 
L 236.362203 36.891443 
L 244.19342 34.762313 
L 250.706531 33.220231 
L 259.389427 31.379048 
L 261.903819 30.887528 
L 257.976121 47.408459 
L 254.914722 59.202793 
L 252.406711 68.014376 
L 249.536387 77.130119 
L 246.315094 86.176478 
L 244.57676 90.564614 
L 242.755564 94.796679 
L 240.853305 98.808962 
L 238.871864 102.646378 
L 236.813198 106.295949 
L 234.679343 109.747987 
L 232.472407 112.997299 
L 230.194572 116.044605 
L 227.848087 118.8951 
L 225.435274 121.5578 
L 222.958515 124.044252 
L 220.420259 126.367568 
L 217.823014 128.542286 
L 215.169348 130.584446 
L 209.703293 134.338111 
L 204.043697 137.753262 
L 201.148283 139.406384 
L 198.212927 141.339521 
L 189.196396 148.036332 
L 183.039767 152.481071 
L 173.647223 158.97388 
L 170.486705 161.302615 
L 167.316548 164.057542 
L 164.139884 167.658944 
L 160.959853 172.225776 
L 157.779597 177.56168 
L 154.602259 183.777266 
L 151.430981 189.732236 
L 148.268894 195.334368 
L 145.119126 200.226768 
L 141.984789 204.86004 
L 138.86898 208.930814 
L 135.774778 212.268892 
L 132.705242 215.272233 
L 129.663406 217.9997 
L 126.652274 220.497938 
L 120.733999 224.94182 
L 117.832703 226.753518 
L 114.973805 228.346471 
L 109.394459 231.102338 
L 104.018011 233.413442 
L 98.865709 235.344696 
L 91.601814 237.763677 
L 84.952406 239.740498 
L 77.143702 241.832392 
L 59.560994 245.669347 
L 63.552141 228.96534 
L 66.633818 217.181956 
L 69.154948 208.381437 
L 72.038011 199.269674 
L 75.271611 190.227203 
L 77.015921 185.842001 
L 78.842969 181.620582 
L 80.750947 177.610626 
L 82.73797 173.775241 
L 84.802074 170.12951 
L 86.94122 166.68264 
L 89.153294 163.440055 
L 91.436108 160.400787 
L 93.787408 157.559367 
L 96.204869 154.90676 
L 98.686103 152.431561 
L 101.228656 150.120643 
L 103.830016 147.959214 
L 106.487613 145.931 
L 109.19882 144.019134 
L 114.771295 140.480737 
L 120.525418 137.184229 
L 123.463516 135.244735 
L 138.647212 124.345986 
L 148.043466 117.946735 
L 151.204775 115.563736 
L 154.375501 112.713393 
L 157.55251 109.083301 
L 157.55251 109.083301 
" clip-path="url(#p6a8269d17c)" style="fill: none; stroke: #0000ff; stroke-width: 1.2; stroke-linecap: square"/>
   </g>
   <g id="line2d_27">
    <path d="M 49.432813 138.273288 
L 272.252813 138.273288 
" clip-path="url(#p6a8269d17c)" style="fill: none; stroke: #000000; stroke-width: 0.4; stroke-linecap: square"/>
   </g>
   <g id="line2d_28">
    <path d="M 160.732662 256.408437 
L 160.732662 20.148437 
" clip-path="url(#p6a8269d17c)" style="fill: none; stroke: #000000; stroke-width: 0.4; stroke-linecap: square"/>
   </g>
   <g id="patch_3">
    <path d="M 49.432813 256.408437 
L 49.432813 20.148437 
" style="fill: none; stroke: #000000; stroke-width: 0.8; stroke-linejoin: miter; stroke-linecap: square"/>
   </g>
   <g id="patch_4">
    <path d="M 272.252813 256.408437 
L 272.252813 20.148437 
" style="fill: none; stroke: #000000; stroke-width: 0.8; stroke-linejoin: miter; stroke-linecap: square"/>
   </g>
   <g id="patch_5">
    <path d="M 49.432812 256.408437 
L 272.252813 256.408437 
" style="fill: none; stroke: #000000; stroke-width: 0.8; stroke-linejoin: miter; stroke-linecap: square"/>
   </g>
   <g id="patch_6">
    <path d="M 49.432812 20.148437 
L 272.252813 20.148437 
" style="fill: none; stroke: #000000; stroke-width: 0.8; stroke-linejoin: miter; stroke-linecap: square"/>
   </g>
   <g id="text_15">
    <!-- Specimen : Aejaz_SW1 -->
    <g transform="translate(113.352969 14.148437) scale(0.1 -0.1)">
     <defs>
      <path id="TimesNewRomanPSMT-3a" d="M 903 2950 
Q 1047 2950 1148 2848 
Q 1250 2747 1250 2603 
Q 1250 2459 1148 2357 
Q 1047 2256 903 2256 
Q 759 2256 657 2357 
Q 556 2459 556 2603 
Q 556 2747 657 2848 
Q 759 2950 903 2950 
z
M 897 609 
Q 1044 609 1145 506 
Q 1247 403 1247 259 
Q 1247 116 1144 14 
Q 1041 -88 897 -88 
Q 753 -88 651 14 
Q 550 116 550 259 
Q 550 403 651 506 
Q 753 609 897 609 
z
" transform="scale(0.015625)"/>
      <path id="TimesNewRomanPSMT-41" d="M 2928 1419 
L 1288 1419 
L 1000 750 
Q 894 503 894 381 
Q 894 284 986 211 
Q 1078 138 1384 116 
L 1384 0 
L 50 0 
L 50 116 
Q 316 163 394 238 
Q 553 388 747 847 
L 2238 4334 
L 2347 4334 
L 3822 809 
Q 4000 384 4145 257 
Q 4291 131 4550 116 
L 4550 0 
L 2878 0 
L 2878 116 
Q 3131 128 3220 200 
Q 3309 272 3309 375 
Q 3309 513 3184 809 
L 2928 1419 
z
M 2841 1650 
L 2122 3363 
L 1384 1650 
L 2841 1650 
z
" transform="scale(0.015625)"/>
      <path id="TimesNewRomanPSMT-6a" d="M 925 4447 
Q 1059 4447 1153 4353 
Q 1247 4259 1247 4125 
Q 1247 3994 1153 3900 
Q 1059 3806 925 3806 
Q 794 3806 700 3900 
Q 606 3994 606 4125 
Q 606 4259 700 4353 
Q 794 4447 925 4447 
z
M 1194 2947 
L 1194 66 
Q 1194 -669 881 -1025 
Q 569 -1381 69 -1381 
Q -216 -1381 -353 -1278 
Q -491 -1175 -491 -1066 
Q -491 -956 -414 -878 
Q -338 -800 -234 -800 
Q -153 -800 -69 -841 
Q -16 -863 136 -998 
Q 288 -1134 391 -1134 
Q 466 -1134 537 -1076 
Q 609 -1019 643 -883 
Q 678 -747 678 -294 
L 678 1744 
Q 678 2216 650 2350 
Q 628 2453 581 2492 
Q 534 2531 453 2531 
Q 366 2531 241 2484 
L 197 2597 
L 1059 2947 
L 1194 2947 
z
" transform="scale(0.015625)"/>
      <path id="TimesNewRomanPSMT-7a" d="M 2688 878 
L 2653 0 
L 128 0 
L 128 113 
L 2028 2644 
L 1091 2644 
Q 788 2644 694 2605 
Q 600 2566 541 2456 
Q 456 2300 444 2069 
L 319 2069 
L 338 2863 
L 2738 2863 
L 2738 2747 
L 819 209 
L 1863 209 
Q 2191 209 2308 264 
Q 2425 319 2497 456 
Q 2547 556 2581 878 
L 2688 878 
z
" transform="scale(0.015625)"/>
      <path id="TimesNewRomanPSMT-5f" d="M 3256 -1381 
L -53 -1381 
L -53 -1119 
L 3256 -1119 
L 3256 -1381 
z
" transform="scale(0.015625)"/>
      <path id="TimesNewRomanPSMT-57" d="M 5991 4238 
L 5991 4122 
Q 5825 4122 5722 4062 
Q 5619 4003 5525 3841 
Q 5463 3731 5328 3319 
L 4147 -97 
L 4022 -97 
L 3056 2613 
L 2097 -97 
L 1984 -97 
L 725 3422 
Q 584 3816 547 3888 
Q 484 4006 376 4064 
Q 269 4122 84 4122 
L 84 4238 
L 1653 4238 
L 1653 4122 
L 1578 4122 
Q 1413 4122 1325 4047 
Q 1238 3972 1238 3866 
Q 1238 3756 1375 3363 
L 2209 984 
L 2913 3006 
L 2788 3363 
L 2688 3647 
Q 2622 3803 2541 3922 
Q 2500 3981 2441 4022 
Q 2363 4078 2284 4103 
Q 2225 4122 2097 4122 
L 2097 4238 
L 3747 4238 
L 3747 4122 
L 3634 4122 
Q 3459 4122 3378 4047 
Q 3297 3972 3297 3844 
Q 3297 3684 3438 3288 
L 4250 984 
L 5056 3319 
Q 5194 3706 5194 3856 
Q 5194 3928 5148 3990 
Q 5103 4053 5034 4078 
Q 4916 4122 4725 4122 
L 4725 4238 
L 5991 4238 
z
" transform="scale(0.015625)"/>
      <path id="TimesNewRomanPSMT-31" d="M 750 3822 
L 1781 4325 
L 1884 4325 
L 1884 747 
Q 1884 391 1914 303 
Q 1944 216 2037 169 
Q 2131 122 2419 116 
L 2419 0 
L 825 0 
L 825 116 
Q 1125 122 1212 167 
Q 1300 213 1334 289 
Q 1369 366 1369 747 
L 1369 3034 
Q 1369 3497 1338 3628 
Q 1316 3728 1258 3775 
Q 1200 3822 1119 3822 
Q 1003 3822 797 3725 
L 750 3822 
z
" transform="scale(0.015625)"/>
     </defs>
     <use xlink:href="#TimesNewRomanPSMT-53"/>
     <use xlink:href="#TimesNewRomanPSMT-70" x="55.615234"/>
     <use xlink:href="#TimesNewRomanPSMT-65" x="105.615234"/>
     <use xlink:href="#TimesNewRomanPSMT-63" x="150"/>
     <use xlink:href="#TimesNewRomanPSMT-69" x="194.384766"/>
     <use xlink:href="#TimesNewRomanPSMT-6d" x="222.167969"/>
     <use xlink:href="#TimesNewRomanPSMT-65" x="299.951172"/>
     <use xlink:href="#TimesNewRomanPSMT-6e" x="344.335938"/>
     <use xlink:href="#TimesNewRomanPSMT-20" x="394.335938"/>
     <use xlink:href="#TimesNewRomanPSMT-3a" x="419.335938"/>
     <use xlink:href="#TimesNewRomanPSMT-20" x="447.119141"/>
     <use xlink:href="#TimesNewRomanPSMT-41" x="466.619141"/>
     <use xlink:href="#TimesNewRomanPSMT-65" x="538.835938"/>
     <use xlink:href="#TimesNewRomanPSMT-6a" x="583.220703"/>
     <use xlink:href="#TimesNewRomanPSMT-61" x="611.003906"/>
     <use xlink:href="#TimesNewRomanPSMT-7a" x="655.388672"/>
     <use xlink:href="#TimesNewRomanPSMT-5f" x="699.773438"/>
     <use xlink:href="#TimesNewRomanPSMT-53" x="749.773438"/>
     <use xlink:href="#TimesNewRomanPSMT-57" x="805.388672"/>
     <use xlink:href="#TimesNewRomanPSMT-31" x="899.773438"/>
    </g>
   </g>
   <g id="legend_1">
    <g id="patch_7">
     <path d="M 55.263813 50.368116 
L 142.486722 50.368116 
Q 144.152722 50.368116 144.152722 48.702116 
L 144.152722 25.979437 
Q 144.152722 24.313437 142.486722 24.313437 
L 55.263813 24.313437 
Q 53.597813 24.313437 53.597813 25.979437 
L 53.597813 48.702116 
Q 53.597813 50.368116 55.263813 50.368116 
z
" style="fill: #ffffff; opacity: 0.8; stroke: #cccccc; stroke-linejoin: miter"/>
    </g>
    <g id="line2d_29">
     <path d="M 56.929813 30.560937 
L 65.259813 30.560937 
L 73.589813 30.560937 
" style="fill: none; stroke-dasharray: 3.7,1.6; stroke-dashoffset: 0; stroke: #000000"/>
    </g>
    <g id="text_16">
     <!-- Experimental Test -->
     <g transform="translate(80.253813 33.476437) scale(0.0833 -0.0833)">
      <defs>
       <path id="TimesNewRomanPSMT-45" d="M 1338 4006 
L 1338 2331 
L 2269 2331 
Q 2631 2331 2753 2441 
Q 2916 2584 2934 2947 
L 3050 2947 
L 3050 1472 
L 2934 1472 
Q 2891 1781 2847 1869 
Q 2791 1978 2662 2040 
Q 2534 2103 2269 2103 
L 1338 2103 
L 1338 706 
Q 1338 425 1363 364 
Q 1388 303 1450 267 
Q 1513 231 1688 231 
L 2406 231 
Q 2766 231 2928 281 
Q 3091 331 3241 478 
Q 3434 672 3638 1063 
L 3763 1063 
L 3397 0 
L 131 0 
L 131 116 
L 281 116 
Q 431 116 566 188 
Q 666 238 702 338 
Q 738 438 738 747 
L 738 3500 
Q 738 3903 656 3997 
Q 544 4122 281 4122 
L 131 4122 
L 131 4238 
L 3397 4238 
L 3444 3309 
L 3322 3309 
Q 3256 3644 3176 3769 
Q 3097 3894 2941 3959 
Q 2816 4006 2500 4006 
L 1338 4006 
z
" transform="scale(0.015625)"/>
       <path id="TimesNewRomanPSMT-78" d="M 84 2863 
L 1431 2863 
L 1431 2747 
Q 1303 2747 1251 2703 
Q 1200 2659 1200 2588 
Q 1200 2513 1309 2356 
Q 1344 2306 1413 2200 
L 1616 1875 
L 1850 2200 
Q 2075 2509 2075 2591 
Q 2075 2656 2022 2701 
Q 1969 2747 1850 2747 
L 1850 2863 
L 2819 2863 
L 2819 2747 
Q 2666 2738 2553 2663 
Q 2400 2556 2134 2200 
L 1744 1678 
L 2456 653 
Q 2719 275 2831 198 
Q 2944 122 3122 113 
L 3122 0 
L 1772 0 
L 1772 113 
Q 1913 113 1991 175 
Q 2050 219 2050 291 
Q 2050 363 1850 653 
L 1431 1266 
L 972 653 
Q 759 369 759 316 
Q 759 241 829 180 
Q 900 119 1041 113 
L 1041 0 
L 106 0 
L 106 113 
Q 219 128 303 191 
Q 422 281 703 653 
L 1303 1450 
L 759 2238 
Q 528 2575 401 2661 
Q 275 2747 84 2747 
L 84 2863 
z
" transform="scale(0.015625)"/>
       <path id="TimesNewRomanPSMT-54" d="M 3703 4238 
L 3750 3244 
L 3631 3244 
Q 3597 3506 3538 3619 
Q 3441 3800 3280 3886 
Q 3119 3972 2856 3972 
L 2259 3972 
L 2259 734 
Q 2259 344 2344 247 
Q 2463 116 2709 116 
L 2856 116 
L 2856 0 
L 1059 0 
L 1059 116 
L 1209 116 
Q 1478 116 1591 278 
Q 1659 378 1659 734 
L 1659 3972 
L 1150 3972 
Q 853 3972 728 3928 
Q 566 3869 450 3700 
Q 334 3531 313 3244 
L 194 3244 
L 244 4238 
L 3703 4238 
z
" transform="scale(0.015625)"/>
      </defs>
      <use xlink:href="#TimesNewRomanPSMT-45"/>
      <use xlink:href="#TimesNewRomanPSMT-78" x="61.083984"/>
      <use xlink:href="#TimesNewRomanPSMT-70" x="111.083984"/>
      <use xlink:href="#TimesNewRomanPSMT-65" x="161.083984"/>
      <use xlink:href="#TimesNewRomanPSMT-72" x="205.46875"/>
      <use xlink:href="#TimesNewRomanPSMT-69" x="238.769531"/>
      <use xlink:href="#TimesNewRomanPSMT-6d" x="266.552734"/>
      <use xlink:href="#TimesNewRomanPSMT-65" x="344.335938"/>
      <use xlink:href="#TimesNewRomanPSMT-6e" x="388.720703"/>
      <use xlink:href="#TimesNewRomanPSMT-74" x="438.720703"/>
      <use xlink:href="#TimesNewRomanPSMT-61" x="466.503906"/>
      <use xlink:href="#TimesNewRomanPSMT-6c" x="510.888672"/>
      <use xlink:href="#TimesNewRomanPSMT-20" x="538.671875"/>
      <use xlink:href="#TimesNewRomanPSMT-54" x="561.921875"/>
      <use xlink:href="#TimesNewRomanPSMT-65" x="616.005859"/>
      <use xlink:href="#TimesNewRomanPSMT-73" x="660.390625"/>
      <use xlink:href="#TimesNewRomanPSMT-74" x="699.306641"/>
     </g>
    </g>
    <g id="line2d_30">
     <path d="M 56.929813 42.338777 
L 65.259813 42.338777 
L 73.589813 42.338777 
" style="fill: none; stroke: #0000ff; stroke-width: 1.2; stroke-linecap: square"/>
    </g>
    <g id="text_17">
     <!-- Numerical Test -->
     <g transform="translate(80.253813 45.254277) scale(0.0833 -0.0833)">
      <defs>
       <path id="TimesNewRomanPSMT-75" d="M 2709 2863 
L 2709 1128 
Q 2709 631 2732 520 
Q 2756 409 2807 365 
Q 2859 322 2928 322 
Q 3025 322 3147 375 
L 3191 266 
L 2334 -88 
L 2194 -88 
L 2194 519 
Q 1825 119 1631 15 
Q 1438 -88 1222 -88 
Q 981 -88 804 51 
Q 628 191 559 409 
Q 491 628 491 1028 
L 491 2306 
Q 491 2509 447 2587 
Q 403 2666 317 2708 
Q 231 2750 6 2747 
L 6 2863 
L 1009 2863 
L 1009 947 
Q 1009 547 1148 422 
Q 1288 297 1484 297 
Q 1619 297 1789 381 
Q 1959 466 2194 703 
L 2194 2325 
Q 2194 2569 2105 2655 
Q 2016 2741 1734 2747 
L 1734 2863 
L 2709 2863 
z
" transform="scale(0.015625)"/>
      </defs>
      <use xlink:href="#TimesNewRomanPSMT-4e"/>
      <use xlink:href="#TimesNewRomanPSMT-75" x="72.216797"/>
      <use xlink:href="#TimesNewRomanPSMT-6d" x="122.216797"/>
      <use xlink:href="#TimesNewRomanPSMT-65" x="200"/>
      <use xlink:href="#TimesNewRomanPSMT-72" x="244.384766"/>
      <use xlink:href="#TimesNewRomanPSMT-69" x="277.685547"/>
      <use xlink:href="#TimesNewRomanPSMT-63" x="305.46875"/>
      <use xlink:href="#TimesNewRomanPSMT-61" x="349.853516"/>
      <use xlink:href="#TimesNewRomanPSMT-6c" x="394.238281"/>
      <use xlink:href="#TimesNewRomanPSMT-20" x="422.021484"/>
      <use xlink:href="#TimesNewRomanPSMT-54" x="445.271484"/>
      <use xlink:href="#TimesNewRomanPSMT-65" x="499.355469"/>
      <use xlink:href="#TimesNewRomanPSMT-73" x="543.740234"/>
      <use xlink:href="#TimesNewRomanPSMT-74" x="582.65625"/>
     </g>
    </g>
   </g>
  </g>
 </g>
 <defs>
  <clipPath id="p6a8269d17c">
   <rect x="49.432813" y="20.148437" width="222.82" height="236.26"/>
  </clipPath>
 </defs>
</svg>
