<?xml version="1.0" encoding="utf-8" standalone="no"?>
<!DOCTYPE svg PUBLIC "-//W3C//DTD SVG 1.1//EN"
  "http://www.w3.org/Graphics/SVG/1.1/DTD/svg11.dtd">
<svg xmlns:xlink="http://www.w3.org/1999/xlink" width="279.575746pt" height="292.774063pt" viewBox="0 0 279.575746 292.774063" xmlns="http://www.w3.org/2000/svg" version="1.1">
 <metadata>
  <rdf:RDF xmlns:dc="http://purl.org/dc/elements/1.1/" xmlns:cc="http://creativecommons.org/ns#" xmlns:rdf="http://www.w3.org/1999/02/22-rdf-syntax-ns#">
   <cc:Work>
    <dc:type rdf:resource="http://purl.org/dc/dcmitype/StillImage"/>
    <dc:date>2024-01-30T20:55:00.706245</dc:date>
    <dc:format>image/svg+xml</dc:format>
    <dc:creator>
     <cc:Agent>
      <dc:title>Matplotlib v3.7.1, https://matplotlib.org/</dc:title>
     </cc:Agent>
    </dc:creator>
   </cc:Work>
  </rdf:RDF>
 </metadata>
 <defs>
  <style type="text/css">*{stroke-linejoin: round; stroke-linecap: butt}</style>
 </defs>
 <g id="figure_1">
  <g id="patch_1">
   <path d="M 0 292.774063 
L 279.575746 292.774063 
L 279.575746 0 
L 0 0 
z
" style="fill: #ffffff"/>
  </g>
  <g id="axes_1">
   <g id="patch_2">
    <path d="M 54.970313 256.40375 
L 271.433686 256.40375 
L 271.433686 20.14375 
L 54.970313 20.14375 
z
" style="fill: #ffffff"/>
   </g>
   <g id="matplotlib.axis_1">
    <g id="xtick_1">
     <g id="line2d_1">
      <path d="M 57.814956 256.40375 
L 57.814956 20.14375 
" clip-path="url(#pf78e5e7e3a)" style="fill: none; stroke-dasharray: 0.8,1.32; stroke-dashoffset: 0; stroke: #b0b0b0; stroke-width: 0.8"/>
     </g>
     <g id="line2d_2">
      <defs>
       <path id="m4a73ebae74" d="M 0 0 
L 0 3.5 
" style="stroke: #000000; stroke-width: 0.8"/>
      </defs>
      <g>
       <use xlink:href="#m4a73ebae74" x="57.814956" y="256.40375" style="stroke: #000000; stroke-width: 0.8"/>
      </g>
     </g>
     <g id="text_1">
      <!-- −150 -->
      <g transform="translate(46.739956 270.39125) scale(0.1 -0.1)">
       <defs>
        <path id="Cambria-2212" d="M 397 1613 
L 397 2047 
L 3147 2047 
L 3147 1613 
L 397 1613 
z
" transform="scale(0.015625)"/>
        <path id="Cambria-31" d="M 2172 816 
Q 2172 634 2192 542 
Q 2213 450 2264 392 
Q 2316 334 2412 301 
Q 2509 269 2656 251 
Q 2803 234 3044 228 
L 3044 0 
L 734 0 
L 734 228 
Q 1081 244 1229 270 
Q 1378 297 1456 350 
Q 1534 403 1570 500 
Q 1606 597 1606 816 
L 1606 3350 
Q 1606 3475 1562 3533 
Q 1519 3591 1434 3591 
Q 1334 3591 1150 3487 
Q 966 3384 694 3203 
L 556 3444 
L 2019 4316 
L 2191 4316 
Q 2172 4016 2172 3484 
L 2172 816 
z
" transform="scale(0.015625)"/>
        <path id="Cambria-35" d="M 469 172 
L 469 834 
L 847 834 
Q 941 516 1130 366 
Q 1319 216 1619 216 
Q 2034 216 2246 466 
Q 2459 716 2459 1213 
Q 2459 1544 2346 1761 
Q 2234 1978 2043 2075 
Q 1853 2172 1600 2172 
Q 1388 2172 1234 2145 
Q 1081 2119 906 2063 
L 656 2209 
L 656 4266 
L 2378 4266 
Q 2484 4266 2531 4283 
Q 2578 4300 2606 4336 
Q 2634 4372 2672 4472 
L 2916 4472 
L 2869 3747 
L 1072 3747 
L 1072 2375 
Q 1234 2444 1425 2478 
Q 1616 2513 1806 2513 
Q 2178 2513 2465 2361 
Q 2753 2209 2909 1929 
Q 3066 1650 3066 1281 
Q 3066 863 2891 563 
Q 2716 263 2384 106 
Q 2053 -50 1600 -50 
Q 1059 -50 469 172 
z
" transform="scale(0.015625)"/>
        <path id="Cambria-30" d="M 1738 -50 
Q 1063 -50 733 481 
Q 403 1013 403 2094 
Q 403 2669 504 3087 
Q 606 3506 789 3779 
Q 972 4053 1228 4184 
Q 1484 4316 1788 4316 
Q 2472 4316 2806 3787 
Q 3141 3259 3141 2191 
Q 3141 1084 2783 517 
Q 2425 -50 1738 -50 
z
M 1013 2188 
Q 1013 1169 1202 692 
Q 1391 216 1788 216 
Q 2166 216 2348 664 
Q 2531 1113 2531 2053 
Q 2531 2772 2437 3217 
Q 2344 3663 2176 3856 
Q 2009 4050 1772 4050 
Q 1556 4050 1411 3922 
Q 1266 3794 1177 3553 
Q 1088 3313 1050 2967 
Q 1013 2622 1013 2188 
z
" transform="scale(0.015625)"/>
       </defs>
       <use xlink:href="#Cambria-2212"/>
       <use xlink:href="#Cambria-31" x="55.371094"/>
       <use xlink:href="#Cambria-35" x="110.742188"/>
       <use xlink:href="#Cambria-30" x="166.113281"/>
      </g>
     </g>
    </g>
    <g id="xtick_2">
     <g id="line2d_3">
      <path d="M 92.190713 256.40375 
L 92.190713 20.14375 
" clip-path="url(#pf78e5e7e3a)" style="fill: none; stroke-dasharray: 0.8,1.32; stroke-dashoffset: 0; stroke: #b0b0b0; stroke-width: 0.8"/>
     </g>
     <g id="line2d_4">
      <g>
       <use xlink:href="#m4a73ebae74" x="92.190713" y="256.40375" style="stroke: #000000; stroke-width: 0.8"/>
      </g>
     </g>
     <g id="text_2">
      <!-- −100 -->
      <g transform="translate(81.115713 270.39125) scale(0.1 -0.1)">
       <use xlink:href="#Cambria-2212"/>
       <use xlink:href="#Cambria-31" x="55.371094"/>
       <use xlink:href="#Cambria-30" x="110.742188"/>
       <use xlink:href="#Cambria-30" x="166.113281"/>
      </g>
     </g>
    </g>
    <g id="xtick_3">
     <g id="line2d_5">
      <path d="M 126.566469 256.40375 
L 126.566469 20.14375 
" clip-path="url(#pf78e5e7e3a)" style="fill: none; stroke-dasharray: 0.8,1.32; stroke-dashoffset: 0; stroke: #b0b0b0; stroke-width: 0.8"/>
     </g>
     <g id="line2d_6">
      <g>
       <use xlink:href="#m4a73ebae74" x="126.566469" y="256.40375" style="stroke: #000000; stroke-width: 0.8"/>
      </g>
     </g>
     <g id="text_3">
      <!-- −50 -->
      <g transform="translate(118.260219 270.39125) scale(0.1 -0.1)">
       <use xlink:href="#Cambria-2212"/>
       <use xlink:href="#Cambria-35" x="55.371094"/>
       <use xlink:href="#Cambria-30" x="110.742188"/>
      </g>
     </g>
    </g>
    <g id="xtick_4">
     <g id="line2d_7">
      <path d="M 160.942226 256.40375 
L 160.942226 20.14375 
" clip-path="url(#pf78e5e7e3a)" style="fill: none; stroke-dasharray: 0.8,1.32; stroke-dashoffset: 0; stroke: #b0b0b0; stroke-width: 0.8"/>
     </g>
     <g id="line2d_8">
      <g>
       <use xlink:href="#m4a73ebae74" x="160.942226" y="256.40375" style="stroke: #000000; stroke-width: 0.8"/>
      </g>
     </g>
     <g id="text_4">
      <!-- 0 -->
      <g transform="translate(158.173476 270.39125) scale(0.1 -0.1)">
       <use xlink:href="#Cambria-30"/>
      </g>
     </g>
    </g>
    <g id="xtick_5">
     <g id="line2d_9">
      <path d="M 195.317983 256.40375 
L 195.317983 20.14375 
" clip-path="url(#pf78e5e7e3a)" style="fill: none; stroke-dasharray: 0.8,1.32; stroke-dashoffset: 0; stroke: #b0b0b0; stroke-width: 0.8"/>
     </g>
     <g id="line2d_10">
      <g>
       <use xlink:href="#m4a73ebae74" x="195.317983" y="256.40375" style="stroke: #000000; stroke-width: 0.8"/>
      </g>
     </g>
     <g id="text_5">
      <!-- 50 -->
      <g transform="translate(189.780483 270.39125) scale(0.1 -0.1)">
       <use xlink:href="#Cambria-35"/>
       <use xlink:href="#Cambria-30" x="55.371094"/>
      </g>
     </g>
    </g>
    <g id="xtick_6">
     <g id="line2d_11">
      <path d="M 229.693739 256.40375 
L 229.693739 20.14375 
" clip-path="url(#pf78e5e7e3a)" style="fill: none; stroke-dasharray: 0.8,1.32; stroke-dashoffset: 0; stroke: #b0b0b0; stroke-width: 0.8"/>
     </g>
     <g id="line2d_12">
      <g>
       <use xlink:href="#m4a73ebae74" x="229.693739" y="256.40375" style="stroke: #000000; stroke-width: 0.8"/>
      </g>
     </g>
     <g id="text_6">
      <!-- 100 -->
      <g transform="translate(221.387489 270.39125) scale(0.1 -0.1)">
       <use xlink:href="#Cambria-31"/>
       <use xlink:href="#Cambria-30" x="55.371094"/>
       <use xlink:href="#Cambria-30" x="110.742188"/>
      </g>
     </g>
    </g>
    <g id="xtick_7">
     <g id="line2d_13">
      <path d="M 264.069496 256.40375 
L 264.069496 20.14375 
" clip-path="url(#pf78e5e7e3a)" style="fill: none; stroke-dasharray: 0.8,1.32; stroke-dashoffset: 0; stroke: #b0b0b0; stroke-width: 0.8"/>
     </g>
     <g id="line2d_14">
      <g>
       <use xlink:href="#m4a73ebae74" x="264.069496" y="256.40375" style="stroke: #000000; stroke-width: 0.8"/>
      </g>
     </g>
     <g id="text_7">
      <!-- 150 -->
      <g transform="translate(255.763246 270.39125) scale(0.1 -0.1)">
       <use xlink:href="#Cambria-31"/>
       <use xlink:href="#Cambria-35" x="55.371094"/>
       <use xlink:href="#Cambria-30" x="110.742188"/>
      </g>
     </g>
    </g>
    <g id="text_8">
     <!-- Displacement (mm) -->
     <g transform="translate(123.35278 283.435) scale(0.1 -0.1)">
      <defs>
       <path id="TimesNewRomanPSMT-44" d="M 109 0 
L 109 116 
L 269 116 
Q 538 116 650 288 
Q 719 391 719 750 
L 719 3488 
Q 719 3884 631 3984 
Q 509 4122 269 4122 
L 109 4122 
L 109 4238 
L 1834 4238 
Q 2784 4238 3279 4022 
Q 3775 3806 4076 3303 
Q 4378 2800 4378 2141 
Q 4378 1256 3841 663 
Q 3238 0 2003 0 
L 109 0 
z
M 1319 306 
Q 1716 219 1984 219 
Q 2709 219 3187 728 
Q 3666 1238 3666 2109 
Q 3666 2988 3187 3494 
Q 2709 4000 1959 4000 
Q 1678 4000 1319 3909 
L 1319 306 
z
" transform="scale(0.015625)"/>
       <path id="TimesNewRomanPSMT-69" d="M 928 4444 
Q 1059 4444 1151 4351 
Q 1244 4259 1244 4128 
Q 1244 3997 1151 3903 
Q 1059 3809 928 3809 
Q 797 3809 703 3903 
Q 609 3997 609 4128 
Q 609 4259 701 4351 
Q 794 4444 928 4444 
z
M 1188 2947 
L 1188 647 
Q 1188 378 1227 289 
Q 1266 200 1342 156 
Q 1419 113 1622 113 
L 1622 0 
L 231 0 
L 231 113 
Q 441 113 512 153 
Q 584 194 626 287 
Q 669 381 669 647 
L 669 1750 
Q 669 2216 641 2353 
Q 619 2453 572 2492 
Q 525 2531 444 2531 
Q 356 2531 231 2484 
L 188 2597 
L 1050 2947 
L 1188 2947 
z
" transform="scale(0.015625)"/>
       <path id="TimesNewRomanPSMT-73" d="M 2050 2947 
L 2050 1972 
L 1947 1972 
Q 1828 2431 1642 2597 
Q 1456 2763 1169 2763 
Q 950 2763 815 2647 
Q 681 2531 681 2391 
Q 681 2216 781 2091 
Q 878 1963 1175 1819 
L 1631 1597 
Q 2266 1288 2266 781 
Q 2266 391 1970 151 
Q 1675 -88 1309 -88 
Q 1047 -88 709 6 
Q 606 38 541 38 
Q 469 38 428 -44 
L 325 -44 
L 325 978 
L 428 978 
Q 516 541 762 319 
Q 1009 97 1316 97 
Q 1531 97 1667 223 
Q 1803 350 1803 528 
Q 1803 744 1651 891 
Q 1500 1038 1047 1263 
Q 594 1488 453 1669 
Q 313 1847 313 2119 
Q 313 2472 555 2709 
Q 797 2947 1181 2947 
Q 1350 2947 1591 2875 
Q 1750 2828 1803 2828 
Q 1853 2828 1881 2850 
Q 1909 2872 1947 2947 
L 2050 2947 
z
" transform="scale(0.015625)"/>
       <path id="TimesNewRomanPSMT-70" d="M -6 2578 
L 875 2934 
L 994 2934 
L 994 2266 
Q 1216 2644 1439 2795 
Q 1663 2947 1909 2947 
Q 2341 2947 2628 2609 
Q 2981 2197 2981 1534 
Q 2981 794 2556 309 
Q 2206 -88 1675 -88 
Q 1444 -88 1275 -22 
Q 1150 25 994 166 
L 994 -706 
Q 994 -1000 1030 -1079 
Q 1066 -1159 1155 -1206 
Q 1244 -1253 1478 -1253 
L 1478 -1369 
L -22 -1369 
L -22 -1253 
L 56 -1253 
Q 228 -1256 350 -1188 
Q 409 -1153 442 -1076 
Q 475 -1000 475 -688 
L 475 2019 
Q 475 2297 450 2372 
Q 425 2447 370 2484 
Q 316 2522 222 2522 
Q 147 2522 31 2478 
L -6 2578 
z
M 994 2081 
L 994 1013 
Q 994 666 1022 556 
Q 1066 375 1236 237 
Q 1406 100 1666 100 
Q 1978 100 2172 344 
Q 2425 663 2425 1241 
Q 2425 1897 2138 2250 
Q 1938 2494 1663 2494 
Q 1513 2494 1366 2419 
Q 1253 2363 994 2081 
z
" transform="scale(0.015625)"/>
       <path id="TimesNewRomanPSMT-6c" d="M 1184 4444 
L 1184 647 
Q 1184 378 1223 290 
Q 1263 203 1344 158 
Q 1425 113 1647 113 
L 1647 0 
L 244 0 
L 244 113 
Q 441 113 512 153 
Q 584 194 625 287 
Q 666 381 666 647 
L 666 3247 
Q 666 3731 644 3842 
Q 622 3953 573 3993 
Q 525 4034 450 4034 
Q 369 4034 244 3984 
L 191 4094 
L 1044 4444 
L 1184 4444 
z
" transform="scale(0.015625)"/>
       <path id="TimesNewRomanPSMT-61" d="M 1822 413 
Q 1381 72 1269 19 
Q 1100 -59 909 -59 
Q 613 -59 420 144 
Q 228 347 228 678 
Q 228 888 322 1041 
Q 450 1253 767 1440 
Q 1084 1628 1822 1897 
L 1822 2009 
Q 1822 2438 1686 2597 
Q 1550 2756 1291 2756 
Q 1094 2756 978 2650 
Q 859 2544 859 2406 
L 866 2225 
Q 866 2081 792 2003 
Q 719 1925 600 1925 
Q 484 1925 411 2006 
Q 338 2088 338 2228 
Q 338 2497 613 2722 
Q 888 2947 1384 2947 
Q 1766 2947 2009 2819 
Q 2194 2722 2281 2516 
Q 2338 2381 2338 1966 
L 2338 994 
Q 2338 584 2353 492 
Q 2369 400 2405 369 
Q 2441 338 2488 338 
Q 2538 338 2575 359 
Q 2641 400 2828 588 
L 2828 413 
Q 2478 -56 2159 -56 
Q 2006 -56 1915 50 
Q 1825 156 1822 413 
z
M 1822 616 
L 1822 1706 
Q 1350 1519 1213 1441 
Q 966 1303 859 1153 
Q 753 1003 753 825 
Q 753 600 887 451 
Q 1022 303 1197 303 
Q 1434 303 1822 616 
z
" transform="scale(0.015625)"/>
       <path id="TimesNewRomanPSMT-63" d="M 2631 1088 
Q 2516 522 2178 217 
Q 1841 -88 1431 -88 
Q 944 -88 581 321 
Q 219 731 219 1428 
Q 219 2103 620 2525 
Q 1022 2947 1584 2947 
Q 2006 2947 2278 2723 
Q 2550 2500 2550 2259 
Q 2550 2141 2473 2067 
Q 2397 1994 2259 1994 
Q 2075 1994 1981 2113 
Q 1928 2178 1911 2362 
Q 1894 2547 1784 2644 
Q 1675 2738 1481 2738 
Q 1169 2738 978 2506 
Q 725 2200 725 1697 
Q 725 1184 976 792 
Q 1228 400 1656 400 
Q 1963 400 2206 609 
Q 2378 753 2541 1131 
L 2631 1088 
z
" transform="scale(0.015625)"/>
       <path id="TimesNewRomanPSMT-65" d="M 681 1784 
Q 678 1147 991 784 
Q 1303 422 1725 422 
Q 2006 422 2214 576 
Q 2422 731 2563 1106 
L 2659 1044 
Q 2594 616 2278 264 
Q 1963 -88 1488 -88 
Q 972 -88 605 314 
Q 238 716 238 1394 
Q 238 2128 614 2539 
Q 991 2950 1559 2950 
Q 2041 2950 2350 2633 
Q 2659 2316 2659 1784 
L 681 1784 
z
M 681 1966 
L 2006 1966 
Q 1991 2241 1941 2353 
Q 1863 2528 1708 2628 
Q 1553 2728 1384 2728 
Q 1125 2728 920 2526 
Q 716 2325 681 1966 
z
" transform="scale(0.015625)"/>
       <path id="TimesNewRomanPSMT-6d" d="M 1050 2338 
Q 1363 2650 1419 2697 
Q 1559 2816 1721 2881 
Q 1884 2947 2044 2947 
Q 2313 2947 2506 2790 
Q 2700 2634 2766 2338 
Q 3088 2713 3309 2830 
Q 3531 2947 3766 2947 
Q 3994 2947 4170 2830 
Q 4347 2713 4450 2447 
Q 4519 2266 4519 1878 
L 4519 647 
Q 4519 378 4559 278 
Q 4591 209 4675 161 
Q 4759 113 4950 113 
L 4950 0 
L 3538 0 
L 3538 113 
L 3597 113 
Q 3781 113 3884 184 
Q 3956 234 3988 344 
Q 4000 397 4000 647 
L 4000 1878 
Q 4000 2228 3916 2372 
Q 3794 2572 3525 2572 
Q 3359 2572 3192 2489 
Q 3025 2406 2788 2181 
L 2781 2147 
L 2788 2013 
L 2788 647 
Q 2788 353 2820 281 
Q 2853 209 2943 161 
Q 3034 113 3253 113 
L 3253 0 
L 1806 0 
L 1806 113 
Q 2044 113 2133 169 
Q 2222 225 2256 338 
Q 2272 391 2272 647 
L 2272 1878 
Q 2272 2228 2169 2381 
Q 2031 2581 1784 2581 
Q 1616 2581 1450 2491 
Q 1191 2353 1050 2181 
L 1050 647 
Q 1050 366 1089 281 
Q 1128 197 1204 155 
Q 1281 113 1516 113 
L 1516 0 
L 100 0 
L 100 113 
Q 297 113 375 155 
Q 453 197 493 289 
Q 534 381 534 647 
L 534 1741 
Q 534 2213 506 2350 
Q 484 2453 437 2492 
Q 391 2531 309 2531 
Q 222 2531 100 2484 
L 53 2597 
L 916 2947 
L 1050 2947 
L 1050 2338 
z
" transform="scale(0.015625)"/>
       <path id="TimesNewRomanPSMT-6e" d="M 1034 2341 
Q 1538 2947 1994 2947 
Q 2228 2947 2397 2830 
Q 2566 2713 2666 2444 
Q 2734 2256 2734 1869 
L 2734 647 
Q 2734 375 2778 278 
Q 2813 200 2889 156 
Q 2966 113 3172 113 
L 3172 0 
L 1756 0 
L 1756 113 
L 1816 113 
Q 2016 113 2095 173 
Q 2175 234 2206 353 
Q 2219 400 2219 647 
L 2219 1819 
Q 2219 2209 2117 2386 
Q 2016 2563 1775 2563 
Q 1403 2563 1034 2156 
L 1034 647 
Q 1034 356 1069 288 
Q 1113 197 1189 155 
Q 1266 113 1500 113 
L 1500 0 
L 84 0 
L 84 113 
L 147 113 
Q 366 113 442 223 
Q 519 334 519 647 
L 519 1709 
Q 519 2225 495 2337 
Q 472 2450 423 2490 
Q 375 2531 294 2531 
Q 206 2531 84 2484 
L 38 2597 
L 900 2947 
L 1034 2947 
L 1034 2341 
z
" transform="scale(0.015625)"/>
       <path id="TimesNewRomanPSMT-74" d="M 1031 3803 
L 1031 2863 
L 1700 2863 
L 1700 2644 
L 1031 2644 
L 1031 788 
Q 1031 509 1111 412 
Q 1191 316 1316 316 
Q 1419 316 1516 380 
Q 1613 444 1666 569 
L 1788 569 
Q 1678 263 1478 108 
Q 1278 -47 1066 -47 
Q 922 -47 784 33 
Q 647 113 581 261 
Q 516 409 516 719 
L 516 2644 
L 63 2644 
L 63 2747 
Q 234 2816 414 2980 
Q 594 3144 734 3369 
Q 806 3488 934 3803 
L 1031 3803 
z
" transform="scale(0.015625)"/>
       <path id="TimesNewRomanPSMT-20" transform="scale(0.015625)"/>
       <path id="TimesNewRomanPSMT-28" d="M 1988 -1253 
L 1988 -1369 
Q 1516 -1131 1200 -813 
Q 750 -359 506 256 
Q 263 872 263 1534 
Q 263 2503 741 3301 
Q 1219 4100 1988 4444 
L 1988 4313 
Q 1603 4100 1356 3731 
Q 1109 3363 987 2797 
Q 866 2231 866 1616 
Q 866 947 969 400 
Q 1050 -31 1165 -292 
Q 1281 -553 1476 -793 
Q 1672 -1034 1988 -1253 
z
" transform="scale(0.015625)"/>
       <path id="TimesNewRomanPSMT-29" d="M 144 4313 
L 144 4444 
Q 619 4209 934 3891 
Q 1381 3434 1625 2820 
Q 1869 2206 1869 1541 
Q 1869 572 1392 -226 
Q 916 -1025 144 -1369 
L 144 -1253 
Q 528 -1038 776 -670 
Q 1025 -303 1145 264 
Q 1266 831 1266 1447 
Q 1266 2113 1163 2663 
Q 1084 3094 967 3353 
Q 850 3613 656 3853 
Q 463 4094 144 4313 
z
" transform="scale(0.015625)"/>
      </defs>
      <use xlink:href="#TimesNewRomanPSMT-44"/>
      <use xlink:href="#TimesNewRomanPSMT-69" x="72.216797"/>
      <use xlink:href="#TimesNewRomanPSMT-73" x="100"/>
      <use xlink:href="#TimesNewRomanPSMT-70" x="138.916016"/>
      <use xlink:href="#TimesNewRomanPSMT-6c" x="188.916016"/>
      <use xlink:href="#TimesNewRomanPSMT-61" x="216.699219"/>
      <use xlink:href="#TimesNewRomanPSMT-63" x="261.083984"/>
      <use xlink:href="#TimesNewRomanPSMT-65" x="305.46875"/>
      <use xlink:href="#TimesNewRomanPSMT-6d" x="349.853516"/>
      <use xlink:href="#TimesNewRomanPSMT-65" x="427.636719"/>
      <use xlink:href="#TimesNewRomanPSMT-6e" x="472.021484"/>
      <use xlink:href="#TimesNewRomanPSMT-74" x="522.021484"/>
      <use xlink:href="#TimesNewRomanPSMT-20" x="549.804688"/>
      <use xlink:href="#TimesNewRomanPSMT-28" x="574.804688"/>
      <use xlink:href="#TimesNewRomanPSMT-6d" x="608.105469"/>
      <use xlink:href="#TimesNewRomanPSMT-6d" x="685.888672"/>
      <use xlink:href="#TimesNewRomanPSMT-29" x="763.671875"/>
     </g>
    </g>
   </g>
   <g id="matplotlib.axis_2">
    <g id="ytick_1">
     <g id="line2d_15">
      <path d="M 54.970313 231.841446 
L 271.433686 231.841446 
" clip-path="url(#pf78e5e7e3a)" style="fill: none; stroke-dasharray: 0.8,1.32; stroke-dashoffset: 0; stroke: #b0b0b0; stroke-width: 0.8"/>
     </g>
     <g id="line2d_16">
      <defs>
       <path id="m1c92a36830" d="M 0 0 
L -3.5 0 
" style="stroke: #000000; stroke-width: 0.8"/>
      </defs>
      <g>
       <use xlink:href="#m1c92a36830" x="54.970313" y="231.841446" style="stroke: #000000; stroke-width: 0.8"/>
      </g>
     </g>
     <g id="text_9">
      <!-- −1500 -->
      <g transform="translate(20.282813 235.335196) scale(0.1 -0.1)">
       <use xlink:href="#Cambria-2212"/>
       <use xlink:href="#Cambria-31" x="55.371094"/>
       <use xlink:href="#Cambria-35" x="110.742188"/>
       <use xlink:href="#Cambria-30" x="166.113281"/>
       <use xlink:href="#Cambria-30" x="221.484375"/>
      </g>
     </g>
    </g>
    <g id="ytick_2">
     <g id="line2d_17">
      <path d="M 54.970313 200.707919 
L 271.433686 200.707919 
" clip-path="url(#pf78e5e7e3a)" style="fill: none; stroke-dasharray: 0.8,1.32; stroke-dashoffset: 0; stroke: #b0b0b0; stroke-width: 0.8"/>
     </g>
     <g id="line2d_18">
      <g>
       <use xlink:href="#m1c92a36830" x="54.970313" y="200.707919" style="stroke: #000000; stroke-width: 0.8"/>
      </g>
     </g>
     <g id="text_10">
      <!-- −1000 -->
      <g transform="translate(20.282813 204.201669) scale(0.1 -0.1)">
       <use xlink:href="#Cambria-2212"/>
       <use xlink:href="#Cambria-31" x="55.371094"/>
       <use xlink:href="#Cambria-30" x="110.742188"/>
       <use xlink:href="#Cambria-30" x="166.113281"/>
       <use xlink:href="#Cambria-30" x="221.484375"/>
      </g>
     </g>
    </g>
    <g id="ytick_3">
     <g id="line2d_19">
      <path d="M 54.970313 169.574392 
L 271.433686 169.574392 
" clip-path="url(#pf78e5e7e3a)" style="fill: none; stroke-dasharray: 0.8,1.32; stroke-dashoffset: 0; stroke: #b0b0b0; stroke-width: 0.8"/>
     </g>
     <g id="line2d_20">
      <g>
       <use xlink:href="#m1c92a36830" x="54.970313" y="169.574392" style="stroke: #000000; stroke-width: 0.8"/>
      </g>
     </g>
     <g id="text_11">
      <!-- −500 -->
      <g transform="translate(25.820313 173.068142) scale(0.1 -0.1)">
       <use xlink:href="#Cambria-2212"/>
       <use xlink:href="#Cambria-35" x="55.371094"/>
       <use xlink:href="#Cambria-30" x="110.742188"/>
       <use xlink:href="#Cambria-30" x="166.113281"/>
      </g>
     </g>
    </g>
    <g id="ytick_4">
     <g id="line2d_21">
      <path d="M 54.970313 138.440864 
L 271.433686 138.440864 
" clip-path="url(#pf78e5e7e3a)" style="fill: none; stroke-dasharray: 0.8,1.32; stroke-dashoffset: 0; stroke: #b0b0b0; stroke-width: 0.8"/>
     </g>
     <g id="line2d_22">
      <g>
       <use xlink:href="#m1c92a36830" x="54.970313" y="138.440864" style="stroke: #000000; stroke-width: 0.8"/>
      </g>
     </g>
     <g id="text_12">
      <!-- 0 -->
      <g transform="translate(42.432813 141.934614) scale(0.1 -0.1)">
       <use xlink:href="#Cambria-30"/>
      </g>
     </g>
    </g>
    <g id="ytick_5">
     <g id="line2d_23">
      <path d="M 54.970313 107.307337 
L 271.433686 107.307337 
" clip-path="url(#pf78e5e7e3a)" style="fill: none; stroke-dasharray: 0.8,1.32; stroke-dashoffset: 0; stroke: #b0b0b0; stroke-width: 0.8"/>
     </g>
     <g id="line2d_24">
      <g>
       <use xlink:href="#m1c92a36830" x="54.970313" y="107.307337" style="stroke: #000000; stroke-width: 0.8"/>
      </g>
     </g>
     <g id="text_13">
      <!-- 500 -->
      <g transform="translate(31.357813 110.801087) scale(0.1 -0.1)">
       <use xlink:href="#Cambria-35"/>
       <use xlink:href="#Cambria-30" x="55.371094"/>
       <use xlink:href="#Cambria-30" x="110.742188"/>
      </g>
     </g>
    </g>
    <g id="ytick_6">
     <g id="line2d_25">
      <path d="M 54.970313 76.17381 
L 271.433686 76.17381 
" clip-path="url(#pf78e5e7e3a)" style="fill: none; stroke-dasharray: 0.8,1.32; stroke-dashoffset: 0; stroke: #b0b0b0; stroke-width: 0.8"/>
     </g>
     <g id="line2d_26">
      <g>
       <use xlink:href="#m1c92a36830" x="54.970313" y="76.17381" style="stroke: #000000; stroke-width: 0.8"/>
      </g>
     </g>
     <g id="text_14">
      <!-- 1000 -->
      <g transform="translate(25.820313 79.66756) scale(0.1 -0.1)">
       <use xlink:href="#Cambria-31"/>
       <use xlink:href="#Cambria-30" x="55.371094"/>
       <use xlink:href="#Cambria-30" x="110.742188"/>
       <use xlink:href="#Cambria-30" x="166.113281"/>
      </g>
     </g>
    </g>
    <g id="ytick_7">
     <g id="line2d_27">
      <path d="M 54.970313 45.040283 
L 271.433686 45.040283 
" clip-path="url(#pf78e5e7e3a)" style="fill: none; stroke-dasharray: 0.8,1.32; stroke-dashoffset: 0; stroke: #b0b0b0; stroke-width: 0.8"/>
     </g>
     <g id="line2d_28">
      <g>
       <use xlink:href="#m1c92a36830" x="54.970313" y="45.040283" style="stroke: #000000; stroke-width: 0.8"/>
      </g>
     </g>
     <g id="text_15">
      <!-- 1500 -->
      <g transform="translate(25.820313 48.534033) scale(0.1 -0.1)">
       <use xlink:href="#Cambria-31"/>
       <use xlink:href="#Cambria-35" x="55.371094"/>
       <use xlink:href="#Cambria-30" x="110.742188"/>
       <use xlink:href="#Cambria-30" x="166.113281"/>
      </g>
     </g>
    </g>
    <g id="text_16">
     <!-- Base Shear (kN) -->
     <g transform="translate(14.14375 171.319063) rotate(-90) scale(0.1 -0.1)">
      <defs>
       <path id="TimesNewRomanPSMT-42" d="M 2956 2163 
Q 3397 2069 3616 1863 
Q 3919 1575 3919 1159 
Q 3919 844 3719 555 
Q 3519 266 3170 133 
Q 2822 0 2106 0 
L 106 0 
L 106 116 
L 266 116 
Q 531 116 647 284 
Q 719 394 719 750 
L 719 3488 
Q 719 3881 628 3984 
Q 506 4122 266 4122 
L 106 4122 
L 106 4238 
L 1938 4238 
Q 2450 4238 2759 4163 
Q 3228 4050 3475 3764 
Q 3722 3478 3722 3106 
Q 3722 2788 3528 2536 
Q 3334 2284 2956 2163 
z
M 1319 2331 
Q 1434 2309 1582 2298 
Q 1731 2288 1909 2288 
Q 2366 2288 2595 2386 
Q 2825 2484 2947 2687 
Q 3069 2891 3069 3131 
Q 3069 3503 2766 3765 
Q 2463 4028 1881 4028 
Q 1569 4028 1319 3959 
L 1319 2331 
z
M 1319 306 
Q 1681 222 2034 222 
Q 2600 222 2897 476 
Q 3194 731 3194 1106 
Q 3194 1353 3059 1581 
Q 2925 1809 2622 1940 
Q 2319 2072 1872 2072 
Q 1678 2072 1540 2065 
Q 1403 2059 1319 2044 
L 1319 306 
z
" transform="scale(0.015625)"/>
       <path id="TimesNewRomanPSMT-53" d="M 2934 4334 
L 2934 2869 
L 2819 2869 
Q 2763 3291 2617 3541 
Q 2472 3791 2203 3937 
Q 1934 4084 1647 4084 
Q 1322 4084 1109 3886 
Q 897 3688 897 3434 
Q 897 3241 1031 3081 
Q 1225 2847 1953 2456 
Q 2547 2138 2764 1967 
Q 2981 1797 3098 1565 
Q 3216 1334 3216 1081 
Q 3216 600 2842 251 
Q 2469 -97 1881 -97 
Q 1697 -97 1534 -69 
Q 1438 -53 1133 45 
Q 828 144 747 144 
Q 669 144 623 97 
Q 578 50 556 -97 
L 441 -97 
L 441 1356 
L 556 1356 
Q 638 900 775 673 
Q 913 447 1195 297 
Q 1478 147 1816 147 
Q 2206 147 2432 353 
Q 2659 559 2659 841 
Q 2659 997 2573 1156 
Q 2488 1316 2306 1453 
Q 2184 1547 1640 1851 
Q 1097 2156 867 2337 
Q 638 2519 519 2737 
Q 400 2956 400 3219 
Q 400 3675 750 4004 
Q 1100 4334 1641 4334 
Q 1978 4334 2356 4169 
Q 2531 4091 2603 4091 
Q 2684 4091 2736 4139 
Q 2788 4188 2819 4334 
L 2934 4334 
z
" transform="scale(0.015625)"/>
       <path id="TimesNewRomanPSMT-68" d="M 1041 4444 
L 1041 2350 
Q 1388 2731 1591 2839 
Q 1794 2947 1997 2947 
Q 2241 2947 2416 2812 
Q 2591 2678 2675 2391 
Q 2734 2191 2734 1659 
L 2734 647 
Q 2734 375 2778 275 
Q 2809 200 2884 156 
Q 2959 113 3159 113 
L 3159 0 
L 1753 0 
L 1753 113 
L 1819 113 
Q 2019 113 2097 173 
Q 2175 234 2206 353 
Q 2216 403 2216 647 
L 2216 1659 
Q 2216 2128 2167 2275 
Q 2119 2422 2012 2495 
Q 1906 2569 1756 2569 
Q 1603 2569 1437 2487 
Q 1272 2406 1041 2159 
L 1041 647 
Q 1041 353 1073 281 
Q 1106 209 1195 161 
Q 1284 113 1503 113 
L 1503 0 
L 84 0 
L 84 113 
Q 275 113 384 172 
Q 447 203 484 290 
Q 522 378 522 647 
L 522 3238 
Q 522 3728 498 3840 
Q 475 3953 426 3993 
Q 378 4034 297 4034 
Q 231 4034 84 3984 
L 41 4094 
L 897 4444 
L 1041 4444 
z
" transform="scale(0.015625)"/>
       <path id="TimesNewRomanPSMT-72" d="M 1038 2947 
L 1038 2303 
Q 1397 2947 1775 2947 
Q 1947 2947 2059 2842 
Q 2172 2738 2172 2600 
Q 2172 2478 2090 2393 
Q 2009 2309 1897 2309 
Q 1788 2309 1652 2417 
Q 1516 2525 1450 2525 
Q 1394 2525 1328 2463 
Q 1188 2334 1038 2041 
L 1038 669 
Q 1038 431 1097 309 
Q 1138 225 1241 169 
Q 1344 113 1538 113 
L 1538 0 
L 72 0 
L 72 113 
Q 291 113 397 181 
Q 475 231 506 341 
Q 522 394 522 644 
L 522 1753 
Q 522 2253 501 2348 
Q 481 2444 426 2487 
Q 372 2531 291 2531 
Q 194 2531 72 2484 
L 41 2597 
L 906 2947 
L 1038 2947 
z
" transform="scale(0.015625)"/>
       <path id="TimesNewRomanPSMT-6b" d="M 1047 4444 
L 1047 1597 
L 1775 2259 
Q 2006 2472 2044 2528 
Q 2069 2566 2069 2603 
Q 2069 2666 2017 2711 
Q 1966 2756 1847 2763 
L 1847 2863 
L 3091 2863 
L 3091 2763 
Q 2834 2756 2664 2684 
Q 2494 2613 2291 2428 
L 1556 1750 
L 2291 822 
Q 2597 438 2703 334 
Q 2853 188 2966 144 
Q 3044 113 3238 113 
L 3238 0 
L 1847 0 
L 1847 113 
Q 1966 116 2008 148 
Q 2050 181 2050 241 
Q 2050 313 1925 472 
L 1047 1594 
L 1047 644 
Q 1047 366 1086 278 
Q 1125 191 1197 153 
Q 1269 116 1509 113 
L 1509 0 
L 53 0 
L 53 113 
Q 272 113 381 166 
Q 447 200 481 272 
Q 528 375 528 628 
L 528 3234 
Q 528 3731 506 3842 
Q 484 3953 434 3995 
Q 384 4038 303 4038 
Q 238 4038 106 3984 
L 53 4094 
L 903 4444 
L 1047 4444 
z
" transform="scale(0.015625)"/>
       <path id="TimesNewRomanPSMT-4e" d="M -84 4238 
L 1066 4238 
L 3656 1059 
L 3656 3503 
Q 3656 3894 3569 3991 
Q 3453 4122 3203 4122 
L 3056 4122 
L 3056 4238 
L 4531 4238 
L 4531 4122 
L 4381 4122 
Q 4113 4122 4000 3959 
Q 3931 3859 3931 3503 
L 3931 -69 
L 3819 -69 
L 1025 3344 
L 1025 734 
Q 1025 344 1109 247 
Q 1228 116 1475 116 
L 1625 116 
L 1625 0 
L 150 0 
L 150 116 
L 297 116 
Q 569 116 681 278 
Q 750 378 750 734 
L 750 3681 
Q 566 3897 470 3965 
Q 375 4034 191 4094 
Q 100 4122 -84 4122 
L -84 4238 
z
" transform="scale(0.015625)"/>
      </defs>
      <use xlink:href="#TimesNewRomanPSMT-42"/>
      <use xlink:href="#TimesNewRomanPSMT-61" x="66.699219"/>
      <use xlink:href="#TimesNewRomanPSMT-73" x="111.083984"/>
      <use xlink:href="#TimesNewRomanPSMT-65" x="150"/>
      <use xlink:href="#TimesNewRomanPSMT-20" x="194.384766"/>
      <use xlink:href="#TimesNewRomanPSMT-53" x="219.384766"/>
      <use xlink:href="#TimesNewRomanPSMT-68" x="275"/>
      <use xlink:href="#TimesNewRomanPSMT-65" x="325"/>
      <use xlink:href="#TimesNewRomanPSMT-61" x="369.384766"/>
      <use xlink:href="#TimesNewRomanPSMT-72" x="413.769531"/>
      <use xlink:href="#TimesNewRomanPSMT-20" x="447.070312"/>
      <use xlink:href="#TimesNewRomanPSMT-28" x="472.070312"/>
      <use xlink:href="#TimesNewRomanPSMT-6b" x="505.371094"/>
      <use xlink:href="#TimesNewRomanPSMT-4e" x="555.371094"/>
      <use xlink:href="#TimesNewRomanPSMT-29" x="627.587891"/>
     </g>
    </g>
   </g>
   <g id="line2d_29">
    <path d="M 258.844381 74.526128 
L 160.942226 135.397305 
L 160.942226 99.635489 
L 165.892335 85.939474 
L 170.842444 74.526128 
L 175.792553 65.395451 
L 175.792553 73.004348 
L 173.592504 79.091466 
L 173.042492 84.417694 
L 168.092383 97.352819 
L 164.792311 111.048834 
L 162.592262 125.505739 
L 160.942226 141.484423 
L 162.592262 156.702218 
L 160.942226 168.876453 
L 158.742178 183.333358 
L 156.542129 193.985814 
L 153.242056 205.39916 
L 148.84196 215.290726 
L 148.84196 215.290726 
L 149.391972 205.39916 
L 151.042008 192.464034 
L 153.792069 183.333358 
L 157.642153 167.354674 
L 160.942226 152.136879 
L 163.142274 140.723533 
L 164.792311 127.027518 
L 168.092383 111.048834 
L 170.292432 99.635489 
L 175.242541 77.569687 
L 178.542613 66.156341 
L 182.94271 59.308333 
L 185.142759 63.112782 
L 181.292674 74.526128 
L 175.792553 87.461253 
L 171.392456 99.635489 
L 165.892335 115.614173 
L 162.04225 133.875526 
L 160.392214 147.571541 
L 156.542129 177.24624 
L 156.542129 183.333358 
L 152.692044 194.746704 
L 150.491996 203.116491 
L 146.641911 209.964498 
L 143.891851 214.529836 
L 142.241814 219.856064 
L 139.491754 223.660513 
L 139.491754 217.573395 
L 141.14179 209.203608 
L 145.541887 184.094248 
L 146.091899 180.289799 
L 146.641911 171.920012 
L 146.641911 162.028446 
L 147.191923 152.136879 
L 148.291948 146.810651 
L 151.59202 133.875526 
L 156.542129 124.744849 
L 160.942226 115.614173 
L 169.192408 98.113709 
L 171.942468 92.787481 
L 176.342565 82.895915 
L 181.292674 73.004348 
L 185.692771 63.112782 
L 189.542855 56.264774 
L 190.092868 56.264774 
L 190.092868 57.025664 
L 186.242783 66.917231 
L 183.492722 74.526128 
L 181.842686 83.656804 
L 177.442589 106.483496 
L 176.342565 114.853283 
L 174.142516 125.505739 
L 171.942468 135.397305 
L 163.692286 155.180438 
L 159.842202 163.550225 
L 154.892093 176.48535 
L 142.791826 200.833821 
L 140.591778 209.203608 
L 137.291705 217.573395 
L 135.641669 220.616954 
L 131.791584 223.660513 
L 130.69156 223.660513 
L 132.891609 208.442719 
L 136.191681 195.507593 
L 136.741693 183.333358 
L 139.491754 160.506666 
L 139.491754 158.984887 
L 142.241814 151.37599 
L 145.541887 145.288872 
L 149.941984 136.158195 
L 160.392214 120.940401 
L 166.442347 111.048834 
L 174.692529 95.83104 
L 179.642638 85.939474 
L 183.492722 76.808797 
L 187.892819 68.43901 
L 192.292916 60.830113 
L 193.942952 58.547444 
L 199.443073 53.982105 
L 203.293158 50.938546 
L 210.443315 48.655877 
L 210.443315 48.655877 
L 207.143243 53.982105 
L 201.643122 63.873672 
L 197.243025 73.765238 
L 192.842928 85.939474 
L 189.542855 97.352819 
L 187.342807 108.766165 
L 184.592747 119.418621 
L 181.842686 126.266629 
L 177.442589 132.353747 
L 169.192408 140.723533 
L 163.142274 147.571541 
L 156.542129 157.463107 
L 155.442105 159.745776 
L 153.242056 167.354674 
L 149.941984 180.289799 
L 136.741693 212.247167 
L 134.541645 216.812506 
L 130.69156 223.660513 
L 124.091415 229.747631 
L 121.891366 231.26941 
L 118.591294 232.79119 
L 114.741209 232.79119 
L 115.841233 219.856064 
L 116.941257 209.964498 
L 120.791342 182.572468 
L 121.341354 176.48535 
L 126.291463 158.984887 
L 129.591536 150.6151 
L 133.991633 143.767092 
L 140.041766 134.636416 
L 146.091899 129.310188 
L 154.892093 122.46218 
L 168.092383 109.527055 
L 177.992601 98.113709 
L 183.492722 89.743922 
L 188.442831 78.330576 
L 192.292916 69.960789 
L 198.893061 62.351892 
L 203.84317 58.547444 
L 208.243267 53.982105 
L 209.893303 53.221216 
L 207.693255 66.917231 
L 204.943194 79.091466 
L 201.643122 95.07015 
L 197.243025 111.809724 
L 192.842928 120.940401 
L 182.392698 130.831967 
L 175.792553 139.962644 
L 165.892335 145.288872 
L 158.192165 151.37599 
L 149.941984 163.550225 
L 143.891851 177.24624 
L 141.14179 185.616027 
L 137.841717 198.551152 
L 132.341596 213.008057 
L 119.141306 226.704072 
L 114.741209 229.747631 
L 102.090931 233.552079 
L 96.59081 233.552079 
L 100.440894 219.095175 
L 105.941015 191.703145 
L 108.141064 178.768019 
L 109.7911 167.354674 
L 115.291221 153.658659 
L 124.091415 144.527982 
L 136.741693 133.875526 
L 148.291948 124.744849 
L 165.892335 112.570614 
L 177.992601 90.504812 
L 182.392698 83.656804 
L 190.64288 69.960789 
L 198.893061 59.308333 
L 206.593231 53.982105 
L 218.143485 49.416767 
L 224.193618 46.373208 
L 225.843654 44.851429 
L 223.643606 62.351892 
L 221.443558 76.808797 
L 218.693497 92.026591 
L 216.493449 101.918158 
L 212.643364 111.048834 
L 206.593231 121.70129 
L 201.09311 130.071077 
L 195.042977 135.397305 
L 184.592747 143.767092 
L 174.692529 149.85421 
L 166.442347 154.419548 
L 153.242056 165.832894 
L 144.441863 178.00713 
L 137.291705 191.703145 
L 129.591536 203.87738 
L 122.991391 213.008057 
L 108.691076 223.660513 
L 98.790858 228.986741 
L 82.290495 236.595638 
L 81.190471 222.138734 
L 84.490543 206.920939 
L 89.440652 177.24624 
L 94.390761 164.311115 
L 100.440894 151.37599 
L 105.941015 145.288872 
L 124.091415 135.397305 
L 134.541645 129.310188 
L 149.941984 123.22307 
L 171.942468 108.766165 
L 179.642638 97.352819 
L 189.542855 82.135025 
L 197.243025 70.721679 
L 207.143243 62.351892 
L 222.543582 53.982105 
L 228.593715 48.655877 
L 233.543824 46.373208 
L 240.143969 44.851429 
L 241.243993 44.851429 
L 239.593957 63.112782 
L 234.643848 78.330576 
L 231.343776 90.504812 
L 229.143727 100.396378 
L 223.093594 116.375062 
L 215.943437 125.505739 
L 205.493207 134.636416 
L 196.143001 142.245313 
L 177.992601 152.136879 
L 158.192165 161.267556 
L 135.641669 171.159122 
L 140.591778 179.528909 
L 130.141548 202.355601 
L 125.191439 211.486277 
L 107.591052 225.943182 
L 97.140822 232.79119 
L 83.390519 235.834749 
L 75.140337 236.595638 
L 66.340144 236.595638 
L 67.440168 225.182292 
L 73.490301 203.116491 
L 75.140337 193.224924 
L 83.940531 163.550225 
L 90.540676 149.09332 
L 97.690834 139.962644 
L 105.391003 136.158195 
L 114.741209 133.875526 
L 122.441379 128.549298 
L 132.341596 123.22307 
L 143.341839 120.179511 
L 149.391972 119.418621 
L 159.29219 114.853283 
L 166.442347 109.527055 
L 175.792553 97.352819 
L 183.492722 85.178584 
L 193.942952 70.721679 
L 200.543098 63.873672 
L 215.943437 57.786554 
L 232.4438 49.416767 
L 244.544066 46.373208 
L 258.294369 41.04698 
L 261.594441 45.612318 
L 258.844381 53.982105 
L 257.194345 61.591002 
L 253.894272 75.287017 
L 249.494175 95.07015 
L 244.544066 108.005275 
L 235.19386 123.98396 
L 220.343533 134.636416 
L 207.693255 139.962644 
L 199.993085 144.527982 
L 186.792795 149.09332 
L 179.092625 151.37599 
L 166.992359 153.658659 
L 166.442347 154.419548 
L 166.442347 154.419548 
" clip-path="url(#pf78e5e7e3a)" style="fill: none; stroke-dasharray: 3.7,1.6; stroke-dashoffset: 0; stroke: #000000"/>
   </g>
   <g id="line2d_30">
    <path d="M 160.942226 138.440864 
L 162.668458 95.066889 
L 164.367375 84.863396 
L 167.576594 68.163618 
L 169.036115 61.126612 
L 170.367565 56.626862 
L 171.549876 53.586544 
L 173.394904 49.850997 
L 174.667526 47.940382 
L 174.66299 47.967772 
L 172.52564 61.982867 
L 170.314927 75.561644 
L 164.297485 111.118392 
L 162.596888 123.51177 
L 160.87011 147.661781 
L 159.144472 182.083339 
L 157.447281 189.21865 
L 155.805391 197.090535 
L 154.244783 203.499323 
L 152.790149 210.064104 
L 151.464508 213.905825 
L 150.288835 216.817039 
L 149.281733 218.811001 
L 147.416405 221.658718 
L 147.212768 221.941619 
L 147.226375 221.852064 
L 151.62242 193.620045 
L 156.006704 165.334877 
L 157.65695 152.935886 
L 159.359179 135.286003 
L 161.086457 113.918364 
L 162.811452 100.817119 
L 164.506871 91.754167 
L 166.145885 84.854649 
L 167.702561 79.175339 
L 169.152266 74.580723 
L 170.472062 70.896758 
L 172.640778 65.710763 
L 174.480839 62.090327 
L 174.675464 61.745479 
L 174.652786 61.892587 
L 164.157429 129.880201 
L 162.453615 143.689479 
L 160.725885 160.8112 
L 159.001579 171.784476 
L 157.307979 180.467478 
L 155.671886 187.49558 
L 154.119186 193.368896 
L 152.674448 198.265304 
L 151.360534 202.256208 
L 149.205936 207.868369 
L 147.205585 212.158923 
L 153.083297 174.371528 
L 156.141595 156.055908 
L 157.797184 145.388633 
L 159.502537 130.892127 
L 161.576806 114.311543 
L 165.368659 93.958976 
L 169.090472 80.368207 
L 172.683354 70.586574 
L 176.090453 63.654439 
L 179.257858 58.765243 
L 182.135451 55.258266 
L 184.677699 52.691237 
L 186.844375 50.803107 
L 189.920361 48.501354 
L 191.169492 47.66265 
L 187.992329 66.977175 
L 186.078196 77.783301 
L 183.766331 89.935499 
L 181.093315 102.64544 
L 178.101444 115.068721 
L 174.838059 126.513601 
L 171.354796 136.608304 
L 167.706774 146.191808 
L 163.951714 154.314329 
L 160.149034 165.390661 
L 156.358905 180.694039 
L 152.6413 193.024178 
L 149.055041 202.325335 
L 145.656876 209.242393 
L 142.500575 214.353471 
L 139.636081 218.150548 
L 137.108718 220.958067 
L 133.219385 224.453209 
L 130.709137 226.423956 
L 133.963521 206.819569 
L 135.894876 196.015039 
L 138.222561 183.911144 
L 140.909744 171.2252 
L 143.913906 158.885674 
L 147.187511 147.967215 
L 150.67876 138.670962 
L 154.33241 131.533535 
L 158.090648 125.249291 
L 161.894008 115.346784 
L 165.682308 101.744102 
L 169.395604 89.892901 
L 172.97514 80.458494 
L 176.364277 73.12919 
L 179.509387 67.513593 
L 182.360705 63.242675 
L 184.873114 60.015342 
L 187.006858 57.617767 
L 190.00983 54.664304 
L 191.180307 53.624627 
L 187.848791 73.612285 
L 185.900267 84.504692 
L 183.556826 96.567453 
L 180.85555 108.860979 
L 177.83918 120.612033 
L 174.555445 131.114132 
L 171.056306 140.138576 
L 163.635815 152.596629 
L 159.83188 160.96627 
L 156.045513 173.746871 
L 152.336629 185.639106 
L 148.763913 195.208649 
L 145.383897 202.683192 
L 142.250064 208.418636 
L 139.412002 212.794992 
L 136.914617 216.07683 
L 134.797426 218.527724 
L 131.831086 221.538825 
L 130.699985 222.575067 
L 132.567496 211.193401 
L 134.10854 202.209348 
L 136.07418 191.412964 
L 138.433312 179.518903 
L 141.148608 167.328088 
L 144.177103 155.648522 
L 147.470877 145.342458 
L 150.97781 136.752488 
L 158.406699 124.98304 
L 162.903222 113.334925 
L 168.75173 94.246473 
L 174.476667 79.355292 
L 179.987444 68.699898 
L 185.196865 61.270771 
L 190.0225 56.019343 
L 194.38799 52.215971 
L 198.224261 49.422402 
L 201.470609 47.35644 
L 205.998216 44.839961 
L 207.685379 44.014629 
L 204.708476 61.727502 
L 202.298694 74.796555 
L 199.23452 89.588327 
L 195.564438 104.617913 
L 191.34652 118.43028 
L 186.647509 130.157503 
L 181.541757 139.74344 
L 176.110054 146.715836 
L 170.438347 152.582087 
L 164.61638 159.079452 
L 158.736277 166.739125 
L 152.891079 180.710736 
L 147.173276 194.968402 
L 141.673342 205.894259 
L 136.478304 213.611604 
L 131.670365 219.119621 
L 127.325601 223.124036 
L 123.51276 226.070177 
L 120.292174 228.239069 
L 115.82143 230.861476 
L 114.195216 231.716783 
L 117.262785 213.347373 
L 119.700668 200.147117 
L 122.791126 185.424703 
L 126.485258 170.671827 
L 130.72461 156.995277 
L 135.442102 145.351229 
L 140.563088 135.94363 
L 146.006539 130.01061 
L 151.68632 124.310982 
L 157.512559 117.643761 
L 163.393067 109.96048 
L 169.234794 98.031202 
L 174.945307 84.656705 
L 180.434245 73.803942 
L 185.614757 65.714279 
L 190.404869 59.895923 
L 194.728788 55.640512 
L 198.518094 52.501124 
L 201.712828 50.186083 
L 206.126587 47.386077 
L 207.691808 46.482526 
L 204.533657 65.153335 
L 202.067738 78.347266 
L 198.951082 93.054855 
L 195.233003 107.749199 
L 190.972333 121.060717 
L 186.23649 132.247138 
L 181.10041 141.094304 
L 175.645362 146.844227 
L 169.957663 152.390575 
L 164.127311 158.481015 
L 158.246561 165.765176 
L 152.408464 178.357001 
L 146.7054 192.09112 
L 141.227608 203.041016 
L 136.061765 211.046173 
L 131.289611 216.873147 
L 126.986657 221.124951 
L 123.22099 224.259808 
L 120.052194 226.563858 
L 115.695543 229.339849 
L 114.191358 230.212119 
L 117.440005 210.951124 
L 119.93389 197.670757 
L 123.076659 183.059107 
L 126.818584 168.641361 
L 131.100454 155.500145 
L 135.854518 144.319167 
L 141.005551 135.52188 
L 146.472046 129.798485 
L 152.167506 124.191708 
L 158.00181 117.579477 
L 164.920435 108.125611 
L 172.813906 90.643546 
L 180.519528 74.918234 
L 187.915375 63.733896 
L 194.884419 56.319678 
L 201.316387 51.14932 
L 207.109507 47.412132 
L 212.172111 44.673592 
L 219.798172 41.156987 
L 224.193401 39.362828 
L 222.158326 51.403885 
L 219.675858 65.073104 
L 216.264034 81.662952 
L 211.97684 98.886511 
L 206.882114 114.702436 
L 201.06047 127.828284 
L 194.604027 138.134834 
L 187.614945 145.418695 
L 180.203814 150.945157 
L 172.487903 157.152101 
L 164.589303 163.349904 
L 156.632993 169.752698 
L 148.74487 184.089396 
L 141.049748 199.846732 
L 133.669389 211.55011 
L 126.720575 219.30287 
L 120.313258 224.6899 
L 114.548822 228.57575 
L 109.518479 231.343496 
L 105.301827 233.458071 
L 99.562543 236.010026 
L 97.692791 236.778658 
L 99.810444 224.282393 
L 102.332524 210.42084 
L 105.781999 193.720881 
L 110.104287 176.564573 
L 115.230995 161.004991 
L 121.081002 148.06909 
L 127.561743 137.797529 
L 134.570671 131.129408 
L 141.996882 125.593036 
L 165.582364 106.390798 
L 173.464923 93.730617 
L 181.149332 78.584604 
L 188.514 66.840393 
L 195.442394 58.887798 
L 201.824883 53.299756 
L 207.560477 49.269912 
L 212.55842 46.307469 
L 216.739628 44.126573 
L 222.401168 41.501694 
L 224.188181 40.73669 
L 221.988009 53.606956 
L 219.426386 67.543901 
L 215.939355 84.229477 
L 211.582092 101.28333 
L 206.423543 116.700109 
L 200.545332 129.404431 
L 194.040473 139.321249 
L 187.011892 145.722553 
L 179.570805 151.076419 
L 163.926745 163.187246 
L 155.971311 169.713631 
L 148.094533 183.478875 
L 140.421047 198.793888 
L 133.072272 210.298655 
L 126.16449 218.115662 
L 119.807004 223.631761 
L 114.10041 227.617425 
L 109.135005 230.549533 
L 104.989357 232.707739 
L 99.405715 235.296868 
L 97.70149 236.027571 
L 99.984122 222.684627 
L 102.585217 208.59216 
L 106.109708 191.881214 
L 110.501826 174.94174 
L 115.692075 159.731486 
L 121.598326 147.227325 
L 128.127126 137.385934 
L 135.175166 131.098544 
L 142.630924 125.800903 
L 158.289113 114.049429 
L 167.626796 104.907046 
L 177.550823 85.851132 
L 187.212049 69.044986 
L 196.457601 58.210639 
L 205.141185 51.138775 
L 213.125399 46.231598 
L 220.283907 42.657475 
L 226.503438 39.983541 
L 231.685579 37.983782 
L 240.671771 34.894236 
L 237.689778 52.243095 
L 234.360458 69.53762 
L 229.869425 88.882935 
L 224.287741 107.11799 
L 217.703726 122.313244 
L 210.221561 134.047798 
L 201.959638 142.763013 
L 193.048687 148.453531 
L 173.851741 159.901554 
L 163.869503 165.585241 
L 153.840946 172.575857 
L 134.277833 206.520344 
L 125.052829 217.736374 
L 116.395712 225.025058 
L 108.443464 230.057385 
L 101.321915 233.713794 
L 95.143753 236.437104 
L 90.006735 238.459942 
L 81.223649 241.542935 
L 84.309451 223.613851 
L 87.688358 206.149981 
L 92.226378 186.788477 
L 97.851704 168.673566 
L 104.475326 153.629477 
L 111.992437 142.007564 
L 120.284091 133.714855 
L 129.219088 127.988795 
L 158.432982 110.284604 
L 168.460022 103.590288 
L 178.368105 88.197105 
L 188.000456 71.872879 
L 197.204657 60.191174 
L 205.83507 52.688257 
L 213.755133 47.503884 
L 220.839525 43.753316 
L 226.976149 40.970432 
L 232.067903 38.903429 
L 240.647643 35.790925 
L 237.458116 54.145693 
L 234.029715 71.654478 
L 229.444834 90.936233 
L 223.77602 108.917195 
L 217.112973 123.769685 
L 209.561123 135.17417 
L 201.239965 143.251963 
L 192.281168 148.809115 
L 173.025526 160.120608 
L 163.033368 165.703316 
L 153.008122 173.01305 
L 133.490904 206.056392 
L 124.307758 217.209927 
L 115.704287 224.486659 
L 107.816627 229.564361 
L 100.769585 233.248922 
L 94.674668 235.98812 
L 85.710385 239.486734 
L 81.252162 241.050722 
L 84.545325 222.114477 
L 88.023126 204.442972 
L 92.654743 185.154436 
L 98.366888 167.28046 
L 105.069177 152.543646 
L 112.655559 141.201765 
L 121.005991 133.229399 
L 129.988343 127.606804 
L 149.272538 115.888425 
L 159.269243 109.949701 
L 171.020047 100.801181 
L 182.957521 80.570918 
L 194.546642 63.419024 
L 205.604033 53.169584 
L 215.95473 46.514891 
L 225.434952 41.842913 
L 233.89469 38.385994 
L 241.200085 35.768582 
L 251.905559 32.379737 
L 257.098715 30.882841 
L 255.79945 38.597536 
L 252.999238 54.268622 
L 248.742386 74.774173 
L 243.096253 95.799147 
L 236.150177 113.926609 
L 228.014069 127.967539 
L 218.816668 138.368101 
L 208.703507 145.417945 
L 197.834608 150.767113 
L 174.526758 162.7991 
L 162.456612 168.368372 
L 150.362504 176.146378 
L 138.435802 195.162031 
L 126.865223 212.33376 
L 115.833853 223.033858 
L 105.516243 229.873695 
L 96.075651 234.635819 
L 87.661458 238.144938 
L 80.406803 240.793037 
L 69.815111 244.199267 
L 64.809557 245.664659 
L 66.171938 237.571541 
L 69.033891 221.591029 
L 73.35013 200.931149 
L 79.05236 179.95103 
L 86.050351 161.980241 
L 94.233373 148.094066 
L 103.471945 137.785893 
L 113.619883 131.062894 
L 124.516612 125.672286 
L 147.857642 113.24371 
L 159.932612 107.483318 
L 172.023557 100.05403 
L 183.93916 82.235219 
L 195.490877 65.324286 
L 206.495923 54.434153 
L 216.780163 47.478923 
L 226.180866 42.641366 
L 234.549283 39.088499 
L 241.752999 36.417504 
L 252.230615 32.979111 
L 257.048431 31.532756 
L 255.622971 39.9077 
L 252.699356 56.053248 
L 248.323848 76.723005 
L 242.565679 97.608889 
L 235.515965 115.462858 
L 227.286253 129.188055 
L 218.006764 139.361798 
L 207.82433 145.971302 
L 196.90007 151.348919 
L 185.406841 157.246567 
L 173.526502 163.103132 
L 161.44704 168.601369 
L 149.35959 176.88205 
L 137.455414 195.683512 
L 125.922876 212.342007 
L 114.944457 222.866715 
L 104.693871 229.642368 
L 95.333316 234.386947 
L 87.010905 237.886606 
L 79.858327 240.523175 
L 69.495073 243.912737 
L 64.865128 245.30065 
L 66.353628 236.556191 
L 69.338824 220.117941 
L 73.773482 199.318493 
L 79.587431 178.479765 
L 86.688675 160.754963 
L 94.96485 147.142061 
L 104.285 137.019169 
L 114.501651 130.503679 
L 125.453141 125.05154 
L 136.966183 118.939141 
L 148.858604 112.819127 
L 148.858604 112.819127 
" clip-path="url(#pf78e5e7e3a)" style="fill: none; stroke: #0000ff; stroke-width: 1.2; stroke-linecap: square"/>
   </g>
   <g id="line2d_31">
    <path d="M 54.970313 138.440864 
L 271.433686 138.440864 
" clip-path="url(#pf78e5e7e3a)" style="fill: none; stroke: #000000; stroke-width: 0.4; stroke-linecap: square"/>
   </g>
   <g id="line2d_32">
    <path d="M 160.942226 256.40375 
L 160.942226 20.14375 
" clip-path="url(#pf78e5e7e3a)" style="fill: none; stroke: #000000; stroke-width: 0.4; stroke-linecap: square"/>
   </g>
   <g id="patch_3">
    <path d="M 54.970313 256.40375 
L 54.970313 20.14375 
" style="fill: none; stroke: #000000; stroke-width: 0.8; stroke-linejoin: miter; stroke-linecap: square"/>
   </g>
   <g id="patch_4">
    <path d="M 271.433686 256.40375 
L 271.433686 20.14375 
" style="fill: none; stroke: #000000; stroke-width: 0.8; stroke-linejoin: miter; stroke-linecap: square"/>
   </g>
   <g id="patch_5">
    <path d="M 54.970312 256.40375 
L 271.433686 256.40375 
" style="fill: none; stroke: #000000; stroke-width: 0.8; stroke-linejoin: miter; stroke-linecap: square"/>
   </g>
   <g id="patch_6">
    <path d="M 54.970312 20.14375 
L 271.433686 20.14375 
" style="fill: none; stroke: #000000; stroke-width: 0.8; stroke-linejoin: miter; stroke-linecap: square"/>
   </g>
   <g id="text_17">
    <!-- Specimen : AR2_8 -->
    <g transform="translate(125.424655 14.14375) scale(0.1 -0.1)">
     <defs>
      <path id="TimesNewRomanPSMT-3a" d="M 903 2950 
Q 1047 2950 1148 2848 
Q 1250 2747 1250 2603 
Q 1250 2459 1148 2357 
Q 1047 2256 903 2256 
Q 759 2256 657 2357 
Q 556 2459 556 2603 
Q 556 2747 657 2848 
Q 759 2950 903 2950 
z
M 897 609 
Q 1044 609 1145 506 
Q 1247 403 1247 259 
Q 1247 116 1144 14 
Q 1041 -88 897 -88 
Q 753 -88 651 14 
Q 550 116 550 259 
Q 550 403 651 506 
Q 753 609 897 609 
z
" transform="scale(0.015625)"/>
      <path id="TimesNewRomanPSMT-41" d="M 2928 1419 
L 1288 1419 
L 1000 750 
Q 894 503 894 381 
Q 894 284 986 211 
Q 1078 138 1384 116 
L 1384 0 
L 50 0 
L 50 116 
Q 316 163 394 238 
Q 553 388 747 847 
L 2238 4334 
L 2347 4334 
L 3822 809 
Q 4000 384 4145 257 
Q 4291 131 4550 116 
L 4550 0 
L 2878 0 
L 2878 116 
Q 3131 128 3220 200 
Q 3309 272 3309 375 
Q 3309 513 3184 809 
L 2928 1419 
z
M 2841 1650 
L 2122 3363 
L 1384 1650 
L 2841 1650 
z
" transform="scale(0.015625)"/>
      <path id="TimesNewRomanPSMT-52" d="M 4325 0 
L 3194 0 
L 1759 1981 
Q 1600 1975 1500 1975 
Q 1459 1975 1412 1976 
Q 1366 1978 1316 1981 
L 1316 750 
Q 1316 350 1403 253 
Q 1522 116 1759 116 
L 1925 116 
L 1925 0 
L 109 0 
L 109 116 
L 269 116 
Q 538 116 653 291 
Q 719 388 719 750 
L 719 3488 
Q 719 3888 631 3984 
Q 509 4122 269 4122 
L 109 4122 
L 109 4238 
L 1653 4238 
Q 2328 4238 2648 4139 
Q 2969 4041 3192 3777 
Q 3416 3513 3416 3147 
Q 3416 2756 3161 2468 
Q 2906 2181 2372 2063 
L 3247 847 
Q 3547 428 3762 290 
Q 3978 153 4325 116 
L 4325 0 
z
M 1316 2178 
Q 1375 2178 1419 2176 
Q 1463 2175 1491 2175 
Q 2097 2175 2405 2437 
Q 2713 2700 2713 3106 
Q 2713 3503 2464 3751 
Q 2216 4000 1806 4000 
Q 1625 4000 1316 3941 
L 1316 2178 
z
" transform="scale(0.015625)"/>
      <path id="TimesNewRomanPSMT-32" d="M 2934 816 
L 2638 0 
L 138 0 
L 138 116 
Q 1241 1122 1691 1759 
Q 2141 2397 2141 2925 
Q 2141 3328 1894 3587 
Q 1647 3847 1303 3847 
Q 991 3847 742 3664 
Q 494 3481 375 3128 
L 259 3128 
Q 338 3706 661 4015 
Q 984 4325 1469 4325 
Q 1984 4325 2329 3994 
Q 2675 3663 2675 3213 
Q 2675 2891 2525 2569 
Q 2294 2063 1775 1497 
Q 997 647 803 472 
L 1909 472 
Q 2247 472 2383 497 
Q 2519 522 2628 598 
Q 2738 675 2819 816 
L 2934 816 
z
" transform="scale(0.015625)"/>
      <path id="TimesNewRomanPSMT-5f" d="M 3256 -1381 
L -53 -1381 
L -53 -1119 
L 3256 -1119 
L 3256 -1381 
z
" transform="scale(0.015625)"/>
      <path id="TimesNewRomanPSMT-38" d="M 1228 2134 
Q 725 2547 579 2797 
Q 434 3047 434 3316 
Q 434 3728 753 4026 
Q 1072 4325 1600 4325 
Q 2113 4325 2425 4047 
Q 2738 3769 2738 3413 
Q 2738 3175 2569 2928 
Q 2400 2681 1866 2347 
Q 2416 1922 2594 1678 
Q 2831 1359 2831 1006 
Q 2831 559 2490 242 
Q 2150 -75 1597 -75 
Q 994 -75 656 303 
Q 388 606 388 966 
Q 388 1247 577 1523 
Q 766 1800 1228 2134 
z
M 1719 2469 
Q 2094 2806 2194 3001 
Q 2294 3197 2294 3444 
Q 2294 3772 2109 3958 
Q 1925 4144 1606 4144 
Q 1288 4144 1088 3959 
Q 888 3775 888 3528 
Q 888 3366 970 3203 
Q 1053 3041 1206 2894 
L 1719 2469 
z
M 1375 2016 
Q 1116 1797 991 1539 
Q 866 1281 866 981 
Q 866 578 1086 336 
Q 1306 94 1647 94 
Q 1984 94 2187 284 
Q 2391 475 2391 747 
Q 2391 972 2272 1150 
Q 2050 1481 1375 2016 
z
" transform="scale(0.015625)"/>
     </defs>
     <use xlink:href="#TimesNewRomanPSMT-53"/>
     <use xlink:href="#TimesNewRomanPSMT-70" x="55.615234"/>
     <use xlink:href="#TimesNewRomanPSMT-65" x="105.615234"/>
     <use xlink:href="#TimesNewRomanPSMT-63" x="150"/>
     <use xlink:href="#TimesNewRomanPSMT-69" x="194.384766"/>
     <use xlink:href="#TimesNewRomanPSMT-6d" x="222.167969"/>
     <use xlink:href="#TimesNewRomanPSMT-65" x="299.951172"/>
     <use xlink:href="#TimesNewRomanPSMT-6e" x="344.335938"/>
     <use xlink:href="#TimesNewRomanPSMT-20" x="394.335938"/>
     <use xlink:href="#TimesNewRomanPSMT-3a" x="419.335938"/>
     <use xlink:href="#TimesNewRomanPSMT-20" x="447.119141"/>
     <use xlink:href="#TimesNewRomanPSMT-41" x="466.619141"/>
     <use xlink:href="#TimesNewRomanPSMT-52" x="538.835938"/>
     <use xlink:href="#TimesNewRomanPSMT-32" x="605.535156"/>
     <use xlink:href="#TimesNewRomanPSMT-5f" x="655.535156"/>
     <use xlink:href="#TimesNewRomanPSMT-38" x="705.535156"/>
    </g>
   </g>
   <g id="legend_1">
    <g id="patch_7">
     <path d="M 60.801313 50.363428 
L 148.024222 50.363428 
Q 149.690222 50.363428 149.690222 48.697428 
L 149.690222 25.97475 
Q 149.690222 24.30875 148.024222 24.30875 
L 60.801313 24.30875 
Q 59.135313 24.30875 59.135313 25.97475 
L 59.135313 48.697428 
Q 59.135313 50.363428 60.801313 50.363428 
z
" style="fill: #ffffff; opacity: 0.8; stroke: #cccccc; stroke-linejoin: miter"/>
    </g>
    <g id="line2d_33">
     <path d="M 62.467313 30.55625 
L 70.797313 30.55625 
L 79.127313 30.55625 
" style="fill: none; stroke-dasharray: 3.7,1.6; stroke-dashoffset: 0; stroke: #000000"/>
    </g>
    <g id="text_18">
     <!-- Experimental Test -->
     <g transform="translate(85.791313 33.47175) scale(0.0833 -0.0833)">
      <defs>
       <path id="TimesNewRomanPSMT-45" d="M 1338 4006 
L 1338 2331 
L 2269 2331 
Q 2631 2331 2753 2441 
Q 2916 2584 2934 2947 
L 3050 2947 
L 3050 1472 
L 2934 1472 
Q 2891 1781 2847 1869 
Q 2791 1978 2662 2040 
Q 2534 2103 2269 2103 
L 1338 2103 
L 1338 706 
Q 1338 425 1363 364 
Q 1388 303 1450 267 
Q 1513 231 1688 231 
L 2406 231 
Q 2766 231 2928 281 
Q 3091 331 3241 478 
Q 3434 672 3638 1063 
L 3763 1063 
L 3397 0 
L 131 0 
L 131 116 
L 281 116 
Q 431 116 566 188 
Q 666 238 702 338 
Q 738 438 738 747 
L 738 3500 
Q 738 3903 656 3997 
Q 544 4122 281 4122 
L 131 4122 
L 131 4238 
L 3397 4238 
L 3444 3309 
L 3322 3309 
Q 3256 3644 3176 3769 
Q 3097 3894 2941 3959 
Q 2816 4006 2500 4006 
L 1338 4006 
z
" transform="scale(0.015625)"/>
       <path id="TimesNewRomanPSMT-78" d="M 84 2863 
L 1431 2863 
L 1431 2747 
Q 1303 2747 1251 2703 
Q 1200 2659 1200 2588 
Q 1200 2513 1309 2356 
Q 1344 2306 1413 2200 
L 1616 1875 
L 1850 2200 
Q 2075 2509 2075 2591 
Q 2075 2656 2022 2701 
Q 1969 2747 1850 2747 
L 1850 2863 
L 2819 2863 
L 2819 2747 
Q 2666 2738 2553 2663 
Q 2400 2556 2134 2200 
L 1744 1678 
L 2456 653 
Q 2719 275 2831 198 
Q 2944 122 3122 113 
L 3122 0 
L 1772 0 
L 1772 113 
Q 1913 113 1991 175 
Q 2050 219 2050 291 
Q 2050 363 1850 653 
L 1431 1266 
L 972 653 
Q 759 369 759 316 
Q 759 241 829 180 
Q 900 119 1041 113 
L 1041 0 
L 106 0 
L 106 113 
Q 219 128 303 191 
Q 422 281 703 653 
L 1303 1450 
L 759 2238 
Q 528 2575 401 2661 
Q 275 2747 84 2747 
L 84 2863 
z
" transform="scale(0.015625)"/>
       <path id="TimesNewRomanPSMT-54" d="M 3703 4238 
L 3750 3244 
L 3631 3244 
Q 3597 3506 3538 3619 
Q 3441 3800 3280 3886 
Q 3119 3972 2856 3972 
L 2259 3972 
L 2259 734 
Q 2259 344 2344 247 
Q 2463 116 2709 116 
L 2856 116 
L 2856 0 
L 1059 0 
L 1059 116 
L 1209 116 
Q 1478 116 1591 278 
Q 1659 378 1659 734 
L 1659 3972 
L 1150 3972 
Q 853 3972 728 3928 
Q 566 3869 450 3700 
Q 334 3531 313 3244 
L 194 3244 
L 244 4238 
L 3703 4238 
z
" transform="scale(0.015625)"/>
      </defs>
      <use xlink:href="#TimesNewRomanPSMT-45"/>
      <use xlink:href="#TimesNewRomanPSMT-78" x="61.083984"/>
      <use xlink:href="#TimesNewRomanPSMT-70" x="111.083984"/>
      <use xlink:href="#TimesNewRomanPSMT-65" x="161.083984"/>
      <use xlink:href="#TimesNewRomanPSMT-72" x="205.46875"/>
      <use xlink:href="#TimesNewRomanPSMT-69" x="238.769531"/>
      <use xlink:href="#TimesNewRomanPSMT-6d" x="266.552734"/>
      <use xlink:href="#TimesNewRomanPSMT-65" x="344.335938"/>
      <use xlink:href="#TimesNewRomanPSMT-6e" x="388.720703"/>
      <use xlink:href="#TimesNewRomanPSMT-74" x="438.720703"/>
      <use xlink:href="#TimesNewRomanPSMT-61" x="466.503906"/>
      <use xlink:href="#TimesNewRomanPSMT-6c" x="510.888672"/>
      <use xlink:href="#TimesNewRomanPSMT-20" x="538.671875"/>
      <use xlink:href="#TimesNewRomanPSMT-54" x="561.921875"/>
      <use xlink:href="#TimesNewRomanPSMT-65" x="616.005859"/>
      <use xlink:href="#TimesNewRomanPSMT-73" x="660.390625"/>
      <use xlink:href="#TimesNewRomanPSMT-74" x="699.306641"/>
     </g>
    </g>
    <g id="line2d_34">
     <path d="M 62.467313 42.334089 
L 70.797313 42.334089 
L 79.127313 42.334089 
" style="fill: none; stroke: #0000ff; stroke-width: 1.2; stroke-linecap: square"/>
    </g>
    <g id="text_19">
     <!-- Numerical Test -->
     <g transform="translate(85.791313 45.249589) scale(0.0833 -0.0833)">
      <defs>
       <path id="TimesNewRomanPSMT-75" d="M 2709 2863 
L 2709 1128 
Q 2709 631 2732 520 
Q 2756 409 2807 365 
Q 2859 322 2928 322 
Q 3025 322 3147 375 
L 3191 266 
L 2334 -88 
L 2194 -88 
L 2194 519 
Q 1825 119 1631 15 
Q 1438 -88 1222 -88 
Q 981 -88 804 51 
Q 628 191 559 409 
Q 491 628 491 1028 
L 491 2306 
Q 491 2509 447 2587 
Q 403 2666 317 2708 
Q 231 2750 6 2747 
L 6 2863 
L 1009 2863 
L 1009 947 
Q 1009 547 1148 422 
Q 1288 297 1484 297 
Q 1619 297 1789 381 
Q 1959 466 2194 703 
L 2194 2325 
Q 2194 2569 2105 2655 
Q 2016 2741 1734 2747 
L 1734 2863 
L 2709 2863 
z
" transform="scale(0.015625)"/>
      </defs>
      <use xlink:href="#TimesNewRomanPSMT-4e"/>
      <use xlink:href="#TimesNewRomanPSMT-75" x="72.216797"/>
      <use xlink:href="#TimesNewRomanPSMT-6d" x="122.216797"/>
      <use xlink:href="#TimesNewRomanPSMT-65" x="200"/>
      <use xlink:href="#TimesNewRomanPSMT-72" x="244.384766"/>
      <use xlink:href="#TimesNewRomanPSMT-69" x="277.685547"/>
      <use xlink:href="#TimesNewRomanPSMT-63" x="305.46875"/>
      <use xlink:href="#TimesNewRomanPSMT-61" x="349.853516"/>
      <use xlink:href="#TimesNewRomanPSMT-6c" x="394.238281"/>
      <use xlink:href="#TimesNewRomanPSMT-20" x="422.021484"/>
      <use xlink:href="#TimesNewRomanPSMT-54" x="445.271484"/>
      <use xlink:href="#TimesNewRomanPSMT-65" x="499.355469"/>
      <use xlink:href="#TimesNewRomanPSMT-73" x="543.740234"/>
      <use xlink:href="#TimesNewRomanPSMT-74" x="582.65625"/>
     </g>
    </g>
   </g>
  </g>
 </g>
 <defs>
  <clipPath id="pf78e5e7e3a">
   <rect x="54.970313" y="20.14375" width="216.463373" height="236.26"/>
  </clipPath>
 </defs>
</svg>
