<?xml version="1.0" encoding="utf-8" standalone="no"?>
<!DOCTYPE svg PUBLIC "-//W3C//DTD SVG 1.1//EN"
  "http://www.w3.org/Graphics/SVG/1.1/DTD/svg11.dtd">
<svg xmlns:xlink="http://www.w3.org/1999/xlink" width="279.452813pt" height="292.774063pt" viewBox="0 0 279.452813 292.774063" xmlns="http://www.w3.org/2000/svg" version="1.1">
 <metadata>
  <rdf:RDF xmlns:dc="http://purl.org/dc/elements/1.1/" xmlns:cc="http://creativecommons.org/ns#" xmlns:rdf="http://www.w3.org/1999/02/22-rdf-syntax-ns#">
   <cc:Work>
    <dc:type rdf:resource="http://purl.org/dc/dcmitype/StillImage"/>
    <dc:date>2024-01-30T00:55:04.560853</dc:date>
    <dc:format>image/svg+xml</dc:format>
    <dc:creator>
     <cc:Agent>
      <dc:title>Matplotlib v3.7.1, https://matplotlib.org/</dc:title>
     </cc:Agent>
    </dc:creator>
   </cc:Work>
  </rdf:RDF>
 </metadata>
 <defs>
  <style type="text/css">*{stroke-linejoin: round; stroke-linecap: butt}</style>
 </defs>
 <g id="figure_1">
  <g id="patch_1">
   <path d="M 0 292.774063 
L 279.452813 292.774063 
L 279.452813 0 
L 0 0 
z
" style="fill: #ffffff"/>
  </g>
  <g id="axes_1">
   <g id="patch_2">
    <path d="M 49.432813 256.40375 
L 272.252813 256.40375 
L 272.252813 20.14375 
L 49.432813 20.14375 
z
" style="fill: #ffffff"/>
   </g>
   <g id="matplotlib.axis_1">
    <g id="xtick_1">
     <g id="line2d_1">
      <path d="M 57.385179 256.40375 
L 57.385179 20.14375 
" clip-path="url(#p06aa760175)" style="fill: none; stroke-dasharray: 0.8,1.32; stroke-dashoffset: 0; stroke: #b0b0b0; stroke-width: 0.8"/>
     </g>
     <g id="line2d_2">
      <defs>
       <path id="me9bcbd82cd" d="M 0 0 
L 0 3.5 
" style="stroke: #000000; stroke-width: 0.8"/>
      </defs>
      <g>
       <use xlink:href="#me9bcbd82cd" x="57.385179" y="256.40375" style="stroke: #000000; stroke-width: 0.8"/>
      </g>
     </g>
     <g id="text_1">
      <!-- −40 -->
      <g transform="translate(49.078929 270.39125) scale(0.1 -0.1)">
       <defs>
        <path id="Cambria-2212" d="M 397 1613 
L 397 2047 
L 3147 2047 
L 3147 1613 
L 397 1613 
z
" transform="scale(0.015625)"/>
        <path id="Cambria-34" d="M 1613 153 
Q 1806 203 1872 264 
Q 1938 325 1958 437 
Q 1978 550 1978 781 
L 1978 1294 
L 241 1294 
L 241 1528 
L 2069 4288 
L 2516 4288 
L 2516 1597 
L 2581 1597 
Q 2763 1597 2841 1623 
Q 2919 1650 2970 1717 
Q 3022 1784 3066 1938 
L 3303 1938 
L 3266 1294 
L 2516 1294 
L 2516 781 
Q 2516 572 2530 475 
Q 2544 378 2576 322 
Q 2609 266 2673 228 
Q 2738 191 2881 153 
L 2881 0 
L 1613 0 
L 1613 153 
z
M 756 1597 
L 1978 1597 
L 1978 2375 
Q 1978 2669 1987 3033 
Q 1997 3397 2009 3581 
L 1978 3581 
L 756 1641 
L 756 1597 
z
" transform="scale(0.015625)"/>
        <path id="Cambria-30" d="M 1738 -50 
Q 1063 -50 733 481 
Q 403 1013 403 2094 
Q 403 2669 504 3087 
Q 606 3506 789 3779 
Q 972 4053 1228 4184 
Q 1484 4316 1788 4316 
Q 2472 4316 2806 3787 
Q 3141 3259 3141 2191 
Q 3141 1084 2783 517 
Q 2425 -50 1738 -50 
z
M 1013 2188 
Q 1013 1169 1202 692 
Q 1391 216 1788 216 
Q 2166 216 2348 664 
Q 2531 1113 2531 2053 
Q 2531 2772 2437 3217 
Q 2344 3663 2176 3856 
Q 2009 4050 1772 4050 
Q 1556 4050 1411 3922 
Q 1266 3794 1177 3553 
Q 1088 3313 1050 2967 
Q 1013 2622 1013 2188 
z
" transform="scale(0.015625)"/>
       </defs>
       <use xlink:href="#Cambria-2212"/>
       <use xlink:href="#Cambria-34" x="55.371094"/>
       <use xlink:href="#Cambria-30" x="110.742188"/>
      </g>
     </g>
    </g>
    <g id="xtick_2">
     <g id="line2d_3">
      <path d="M 103.831398 256.40375 
L 103.831398 20.14375 
" clip-path="url(#p06aa760175)" style="fill: none; stroke-dasharray: 0.8,1.32; stroke-dashoffset: 0; stroke: #b0b0b0; stroke-width: 0.8"/>
     </g>
     <g id="line2d_4">
      <g>
       <use xlink:href="#me9bcbd82cd" x="103.831398" y="256.40375" style="stroke: #000000; stroke-width: 0.8"/>
      </g>
     </g>
     <g id="text_2">
      <!-- −20 -->
      <g transform="translate(95.525148 270.39125) scale(0.1 -0.1)">
       <defs>
        <path id="Cambria-32" d="M 2194 500 
Q 2347 500 2440 519 
Q 2534 538 2590 581 
Q 2647 625 2680 695 
Q 2713 766 2763 913 
L 3028 913 
L 2975 0 
L 403 0 
L 403 150 
Q 538 478 766 822 
Q 994 1166 1413 1631 
Q 1775 2031 1934 2238 
Q 2109 2463 2195 2627 
Q 2281 2791 2318 2936 
Q 2356 3081 2356 3228 
Q 2356 3463 2281 3642 
Q 2206 3822 2051 3925 
Q 1897 4028 1663 4028 
Q 1078 4028 875 3378 
L 497 3378 
L 497 3978 
Q 875 4156 1204 4236 
Q 1534 4316 1797 4316 
Q 2378 4316 2675 4061 
Q 2972 3806 2972 3322 
Q 2972 3156 2939 3017 
Q 2906 2878 2836 2742 
Q 2766 2606 2647 2450 
Q 2528 2294 2384 2133 
Q 2241 1972 1888 1597 
Q 1294 969 1016 500 
L 2194 500 
z
" transform="scale(0.015625)"/>
       </defs>
       <use xlink:href="#Cambria-2212"/>
       <use xlink:href="#Cambria-32" x="55.371094"/>
       <use xlink:href="#Cambria-30" x="110.742188"/>
      </g>
     </g>
    </g>
    <g id="xtick_3">
     <g id="line2d_5">
      <path d="M 150.277617 256.40375 
L 150.277617 20.14375 
" clip-path="url(#p06aa760175)" style="fill: none; stroke-dasharray: 0.8,1.32; stroke-dashoffset: 0; stroke: #b0b0b0; stroke-width: 0.8"/>
     </g>
     <g id="line2d_6">
      <g>
       <use xlink:href="#me9bcbd82cd" x="150.277617" y="256.40375" style="stroke: #000000; stroke-width: 0.8"/>
      </g>
     </g>
     <g id="text_3">
      <!-- 0 -->
      <g transform="translate(147.508867 270.39125) scale(0.1 -0.1)">
       <use xlink:href="#Cambria-30"/>
      </g>
     </g>
    </g>
    <g id="xtick_4">
     <g id="line2d_7">
      <path d="M 196.723836 256.40375 
L 196.723836 20.14375 
" clip-path="url(#p06aa760175)" style="fill: none; stroke-dasharray: 0.8,1.32; stroke-dashoffset: 0; stroke: #b0b0b0; stroke-width: 0.8"/>
     </g>
     <g id="line2d_8">
      <g>
       <use xlink:href="#me9bcbd82cd" x="196.723836" y="256.40375" style="stroke: #000000; stroke-width: 0.8"/>
      </g>
     </g>
     <g id="text_4">
      <!-- 20 -->
      <g transform="translate(191.186336 270.39125) scale(0.1 -0.1)">
       <use xlink:href="#Cambria-32"/>
       <use xlink:href="#Cambria-30" x="55.371094"/>
      </g>
     </g>
    </g>
    <g id="xtick_5">
     <g id="line2d_9">
      <path d="M 243.170055 256.40375 
L 243.170055 20.14375 
" clip-path="url(#p06aa760175)" style="fill: none; stroke-dasharray: 0.8,1.32; stroke-dashoffset: 0; stroke: #b0b0b0; stroke-width: 0.8"/>
     </g>
     <g id="line2d_10">
      <g>
       <use xlink:href="#me9bcbd82cd" x="243.170055" y="256.40375" style="stroke: #000000; stroke-width: 0.8"/>
      </g>
     </g>
     <g id="text_5">
      <!-- 40 -->
      <g transform="translate(237.632555 270.39125) scale(0.1 -0.1)">
       <use xlink:href="#Cambria-34"/>
       <use xlink:href="#Cambria-30" x="55.371094"/>
      </g>
     </g>
    </g>
    <g id="text_6">
     <!-- Displacement (mm) -->
     <g transform="translate(120.993594 283.435) scale(0.1 -0.1)">
      <defs>
       <path id="TimesNewRomanPSMT-44" d="M 109 0 
L 109 116 
L 269 116 
Q 538 116 650 288 
Q 719 391 719 750 
L 719 3488 
Q 719 3884 631 3984 
Q 509 4122 269 4122 
L 109 4122 
L 109 4238 
L 1834 4238 
Q 2784 4238 3279 4022 
Q 3775 3806 4076 3303 
Q 4378 2800 4378 2141 
Q 4378 1256 3841 663 
Q 3238 0 2003 0 
L 109 0 
z
M 1319 306 
Q 1716 219 1984 219 
Q 2709 219 3187 728 
Q 3666 1238 3666 2109 
Q 3666 2988 3187 3494 
Q 2709 4000 1959 4000 
Q 1678 4000 1319 3909 
L 1319 306 
z
" transform="scale(0.015625)"/>
       <path id="TimesNewRomanPSMT-69" d="M 928 4444 
Q 1059 4444 1151 4351 
Q 1244 4259 1244 4128 
Q 1244 3997 1151 3903 
Q 1059 3809 928 3809 
Q 797 3809 703 3903 
Q 609 3997 609 4128 
Q 609 4259 701 4351 
Q 794 4444 928 4444 
z
M 1188 2947 
L 1188 647 
Q 1188 378 1227 289 
Q 1266 200 1342 156 
Q 1419 113 1622 113 
L 1622 0 
L 231 0 
L 231 113 
Q 441 113 512 153 
Q 584 194 626 287 
Q 669 381 669 647 
L 669 1750 
Q 669 2216 641 2353 
Q 619 2453 572 2492 
Q 525 2531 444 2531 
Q 356 2531 231 2484 
L 188 2597 
L 1050 2947 
L 1188 2947 
z
" transform="scale(0.015625)"/>
       <path id="TimesNewRomanPSMT-73" d="M 2050 2947 
L 2050 1972 
L 1947 1972 
Q 1828 2431 1642 2597 
Q 1456 2763 1169 2763 
Q 950 2763 815 2647 
Q 681 2531 681 2391 
Q 681 2216 781 2091 
Q 878 1963 1175 1819 
L 1631 1597 
Q 2266 1288 2266 781 
Q 2266 391 1970 151 
Q 1675 -88 1309 -88 
Q 1047 -88 709 6 
Q 606 38 541 38 
Q 469 38 428 -44 
L 325 -44 
L 325 978 
L 428 978 
Q 516 541 762 319 
Q 1009 97 1316 97 
Q 1531 97 1667 223 
Q 1803 350 1803 528 
Q 1803 744 1651 891 
Q 1500 1038 1047 1263 
Q 594 1488 453 1669 
Q 313 1847 313 2119 
Q 313 2472 555 2709 
Q 797 2947 1181 2947 
Q 1350 2947 1591 2875 
Q 1750 2828 1803 2828 
Q 1853 2828 1881 2850 
Q 1909 2872 1947 2947 
L 2050 2947 
z
" transform="scale(0.015625)"/>
       <path id="TimesNewRomanPSMT-70" d="M -6 2578 
L 875 2934 
L 994 2934 
L 994 2266 
Q 1216 2644 1439 2795 
Q 1663 2947 1909 2947 
Q 2341 2947 2628 2609 
Q 2981 2197 2981 1534 
Q 2981 794 2556 309 
Q 2206 -88 1675 -88 
Q 1444 -88 1275 -22 
Q 1150 25 994 166 
L 994 -706 
Q 994 -1000 1030 -1079 
Q 1066 -1159 1155 -1206 
Q 1244 -1253 1478 -1253 
L 1478 -1369 
L -22 -1369 
L -22 -1253 
L 56 -1253 
Q 228 -1256 350 -1188 
Q 409 -1153 442 -1076 
Q 475 -1000 475 -688 
L 475 2019 
Q 475 2297 450 2372 
Q 425 2447 370 2484 
Q 316 2522 222 2522 
Q 147 2522 31 2478 
L -6 2578 
z
M 994 2081 
L 994 1013 
Q 994 666 1022 556 
Q 1066 375 1236 237 
Q 1406 100 1666 100 
Q 1978 100 2172 344 
Q 2425 663 2425 1241 
Q 2425 1897 2138 2250 
Q 1938 2494 1663 2494 
Q 1513 2494 1366 2419 
Q 1253 2363 994 2081 
z
" transform="scale(0.015625)"/>
       <path id="TimesNewRomanPSMT-6c" d="M 1184 4444 
L 1184 647 
Q 1184 378 1223 290 
Q 1263 203 1344 158 
Q 1425 113 1647 113 
L 1647 0 
L 244 0 
L 244 113 
Q 441 113 512 153 
Q 584 194 625 287 
Q 666 381 666 647 
L 666 3247 
Q 666 3731 644 3842 
Q 622 3953 573 3993 
Q 525 4034 450 4034 
Q 369 4034 244 3984 
L 191 4094 
L 1044 4444 
L 1184 4444 
z
" transform="scale(0.015625)"/>
       <path id="TimesNewRomanPSMT-61" d="M 1822 413 
Q 1381 72 1269 19 
Q 1100 -59 909 -59 
Q 613 -59 420 144 
Q 228 347 228 678 
Q 228 888 322 1041 
Q 450 1253 767 1440 
Q 1084 1628 1822 1897 
L 1822 2009 
Q 1822 2438 1686 2597 
Q 1550 2756 1291 2756 
Q 1094 2756 978 2650 
Q 859 2544 859 2406 
L 866 2225 
Q 866 2081 792 2003 
Q 719 1925 600 1925 
Q 484 1925 411 2006 
Q 338 2088 338 2228 
Q 338 2497 613 2722 
Q 888 2947 1384 2947 
Q 1766 2947 2009 2819 
Q 2194 2722 2281 2516 
Q 2338 2381 2338 1966 
L 2338 994 
Q 2338 584 2353 492 
Q 2369 400 2405 369 
Q 2441 338 2488 338 
Q 2538 338 2575 359 
Q 2641 400 2828 588 
L 2828 413 
Q 2478 -56 2159 -56 
Q 2006 -56 1915 50 
Q 1825 156 1822 413 
z
M 1822 616 
L 1822 1706 
Q 1350 1519 1213 1441 
Q 966 1303 859 1153 
Q 753 1003 753 825 
Q 753 600 887 451 
Q 1022 303 1197 303 
Q 1434 303 1822 616 
z
" transform="scale(0.015625)"/>
       <path id="TimesNewRomanPSMT-63" d="M 2631 1088 
Q 2516 522 2178 217 
Q 1841 -88 1431 -88 
Q 944 -88 581 321 
Q 219 731 219 1428 
Q 219 2103 620 2525 
Q 1022 2947 1584 2947 
Q 2006 2947 2278 2723 
Q 2550 2500 2550 2259 
Q 2550 2141 2473 2067 
Q 2397 1994 2259 1994 
Q 2075 1994 1981 2113 
Q 1928 2178 1911 2362 
Q 1894 2547 1784 2644 
Q 1675 2738 1481 2738 
Q 1169 2738 978 2506 
Q 725 2200 725 1697 
Q 725 1184 976 792 
Q 1228 400 1656 400 
Q 1963 400 2206 609 
Q 2378 753 2541 1131 
L 2631 1088 
z
" transform="scale(0.015625)"/>
       <path id="TimesNewRomanPSMT-65" d="M 681 1784 
Q 678 1147 991 784 
Q 1303 422 1725 422 
Q 2006 422 2214 576 
Q 2422 731 2563 1106 
L 2659 1044 
Q 2594 616 2278 264 
Q 1963 -88 1488 -88 
Q 972 -88 605 314 
Q 238 716 238 1394 
Q 238 2128 614 2539 
Q 991 2950 1559 2950 
Q 2041 2950 2350 2633 
Q 2659 2316 2659 1784 
L 681 1784 
z
M 681 1966 
L 2006 1966 
Q 1991 2241 1941 2353 
Q 1863 2528 1708 2628 
Q 1553 2728 1384 2728 
Q 1125 2728 920 2526 
Q 716 2325 681 1966 
z
" transform="scale(0.015625)"/>
       <path id="TimesNewRomanPSMT-6d" d="M 1050 2338 
Q 1363 2650 1419 2697 
Q 1559 2816 1721 2881 
Q 1884 2947 2044 2947 
Q 2313 2947 2506 2790 
Q 2700 2634 2766 2338 
Q 3088 2713 3309 2830 
Q 3531 2947 3766 2947 
Q 3994 2947 4170 2830 
Q 4347 2713 4450 2447 
Q 4519 2266 4519 1878 
L 4519 647 
Q 4519 378 4559 278 
Q 4591 209 4675 161 
Q 4759 113 4950 113 
L 4950 0 
L 3538 0 
L 3538 113 
L 3597 113 
Q 3781 113 3884 184 
Q 3956 234 3988 344 
Q 4000 397 4000 647 
L 4000 1878 
Q 4000 2228 3916 2372 
Q 3794 2572 3525 2572 
Q 3359 2572 3192 2489 
Q 3025 2406 2788 2181 
L 2781 2147 
L 2788 2013 
L 2788 647 
Q 2788 353 2820 281 
Q 2853 209 2943 161 
Q 3034 113 3253 113 
L 3253 0 
L 1806 0 
L 1806 113 
Q 2044 113 2133 169 
Q 2222 225 2256 338 
Q 2272 391 2272 647 
L 2272 1878 
Q 2272 2228 2169 2381 
Q 2031 2581 1784 2581 
Q 1616 2581 1450 2491 
Q 1191 2353 1050 2181 
L 1050 647 
Q 1050 366 1089 281 
Q 1128 197 1204 155 
Q 1281 113 1516 113 
L 1516 0 
L 100 0 
L 100 113 
Q 297 113 375 155 
Q 453 197 493 289 
Q 534 381 534 647 
L 534 1741 
Q 534 2213 506 2350 
Q 484 2453 437 2492 
Q 391 2531 309 2531 
Q 222 2531 100 2484 
L 53 2597 
L 916 2947 
L 1050 2947 
L 1050 2338 
z
" transform="scale(0.015625)"/>
       <path id="TimesNewRomanPSMT-6e" d="M 1034 2341 
Q 1538 2947 1994 2947 
Q 2228 2947 2397 2830 
Q 2566 2713 2666 2444 
Q 2734 2256 2734 1869 
L 2734 647 
Q 2734 375 2778 278 
Q 2813 200 2889 156 
Q 2966 113 3172 113 
L 3172 0 
L 1756 0 
L 1756 113 
L 1816 113 
Q 2016 113 2095 173 
Q 2175 234 2206 353 
Q 2219 400 2219 647 
L 2219 1819 
Q 2219 2209 2117 2386 
Q 2016 2563 1775 2563 
Q 1403 2563 1034 2156 
L 1034 647 
Q 1034 356 1069 288 
Q 1113 197 1189 155 
Q 1266 113 1500 113 
L 1500 0 
L 84 0 
L 84 113 
L 147 113 
Q 366 113 442 223 
Q 519 334 519 647 
L 519 1709 
Q 519 2225 495 2337 
Q 472 2450 423 2490 
Q 375 2531 294 2531 
Q 206 2531 84 2484 
L 38 2597 
L 900 2947 
L 1034 2947 
L 1034 2341 
z
" transform="scale(0.015625)"/>
       <path id="TimesNewRomanPSMT-74" d="M 1031 3803 
L 1031 2863 
L 1700 2863 
L 1700 2644 
L 1031 2644 
L 1031 788 
Q 1031 509 1111 412 
Q 1191 316 1316 316 
Q 1419 316 1516 380 
Q 1613 444 1666 569 
L 1788 569 
Q 1678 263 1478 108 
Q 1278 -47 1066 -47 
Q 922 -47 784 33 
Q 647 113 581 261 
Q 516 409 516 719 
L 516 2644 
L 63 2644 
L 63 2747 
Q 234 2816 414 2980 
Q 594 3144 734 3369 
Q 806 3488 934 3803 
L 1031 3803 
z
" transform="scale(0.015625)"/>
       <path id="TimesNewRomanPSMT-20" transform="scale(0.015625)"/>
       <path id="TimesNewRomanPSMT-28" d="M 1988 -1253 
L 1988 -1369 
Q 1516 -1131 1200 -813 
Q 750 -359 506 256 
Q 263 872 263 1534 
Q 263 2503 741 3301 
Q 1219 4100 1988 4444 
L 1988 4313 
Q 1603 4100 1356 3731 
Q 1109 3363 987 2797 
Q 866 2231 866 1616 
Q 866 947 969 400 
Q 1050 -31 1165 -292 
Q 1281 -553 1476 -793 
Q 1672 -1034 1988 -1253 
z
" transform="scale(0.015625)"/>
       <path id="TimesNewRomanPSMT-29" d="M 144 4313 
L 144 4444 
Q 619 4209 934 3891 
Q 1381 3434 1625 2820 
Q 1869 2206 1869 1541 
Q 1869 572 1392 -226 
Q 916 -1025 144 -1369 
L 144 -1253 
Q 528 -1038 776 -670 
Q 1025 -303 1145 264 
Q 1266 831 1266 1447 
Q 1266 2113 1163 2663 
Q 1084 3094 967 3353 
Q 850 3613 656 3853 
Q 463 4094 144 4313 
z
" transform="scale(0.015625)"/>
      </defs>
      <use xlink:href="#TimesNewRomanPSMT-44"/>
      <use xlink:href="#TimesNewRomanPSMT-69" x="72.216797"/>
      <use xlink:href="#TimesNewRomanPSMT-73" x="100"/>
      <use xlink:href="#TimesNewRomanPSMT-70" x="138.916016"/>
      <use xlink:href="#TimesNewRomanPSMT-6c" x="188.916016"/>
      <use xlink:href="#TimesNewRomanPSMT-61" x="216.699219"/>
      <use xlink:href="#TimesNewRomanPSMT-63" x="261.083984"/>
      <use xlink:href="#TimesNewRomanPSMT-65" x="305.46875"/>
      <use xlink:href="#TimesNewRomanPSMT-6d" x="349.853516"/>
      <use xlink:href="#TimesNewRomanPSMT-65" x="427.636719"/>
      <use xlink:href="#TimesNewRomanPSMT-6e" x="472.021484"/>
      <use xlink:href="#TimesNewRomanPSMT-74" x="522.021484"/>
      <use xlink:href="#TimesNewRomanPSMT-20" x="549.804688"/>
      <use xlink:href="#TimesNewRomanPSMT-28" x="574.804688"/>
      <use xlink:href="#TimesNewRomanPSMT-6d" x="608.105469"/>
      <use xlink:href="#TimesNewRomanPSMT-6d" x="685.888672"/>
      <use xlink:href="#TimesNewRomanPSMT-29" x="763.671875"/>
     </g>
    </g>
   </g>
   <g id="matplotlib.axis_2">
    <g id="ytick_1">
     <g id="line2d_11">
      <path d="M 49.432813 250.305457 
L 272.252813 250.305457 
" clip-path="url(#p06aa760175)" style="fill: none; stroke-dasharray: 0.8,1.32; stroke-dashoffset: 0; stroke: #b0b0b0; stroke-width: 0.8"/>
     </g>
     <g id="line2d_12">
      <defs>
       <path id="m731626e84e" d="M 0 0 
L -3.5 0 
" style="stroke: #000000; stroke-width: 0.8"/>
      </defs>
      <g>
       <use xlink:href="#m731626e84e" x="49.432813" y="250.305457" style="stroke: #000000; stroke-width: 0.8"/>
      </g>
     </g>
     <g id="text_7">
      <!-- −150 -->
      <g transform="translate(20.282813 253.799207) scale(0.1 -0.1)">
       <defs>
        <path id="Cambria-31" d="M 2172 816 
Q 2172 634 2192 542 
Q 2213 450 2264 392 
Q 2316 334 2412 301 
Q 2509 269 2656 251 
Q 2803 234 3044 228 
L 3044 0 
L 734 0 
L 734 228 
Q 1081 244 1229 270 
Q 1378 297 1456 350 
Q 1534 403 1570 500 
Q 1606 597 1606 816 
L 1606 3350 
Q 1606 3475 1562 3533 
Q 1519 3591 1434 3591 
Q 1334 3591 1150 3487 
Q 966 3384 694 3203 
L 556 3444 
L 2019 4316 
L 2191 4316 
Q 2172 4016 2172 3484 
L 2172 816 
z
" transform="scale(0.015625)"/>
        <path id="Cambria-35" d="M 469 172 
L 469 834 
L 847 834 
Q 941 516 1130 366 
Q 1319 216 1619 216 
Q 2034 216 2246 466 
Q 2459 716 2459 1213 
Q 2459 1544 2346 1761 
Q 2234 1978 2043 2075 
Q 1853 2172 1600 2172 
Q 1388 2172 1234 2145 
Q 1081 2119 906 2063 
L 656 2209 
L 656 4266 
L 2378 4266 
Q 2484 4266 2531 4283 
Q 2578 4300 2606 4336 
Q 2634 4372 2672 4472 
L 2916 4472 
L 2869 3747 
L 1072 3747 
L 1072 2375 
Q 1234 2444 1425 2478 
Q 1616 2513 1806 2513 
Q 2178 2513 2465 2361 
Q 2753 2209 2909 1929 
Q 3066 1650 3066 1281 
Q 3066 863 2891 563 
Q 2716 263 2384 106 
Q 2053 -50 1600 -50 
Q 1059 -50 469 172 
z
" transform="scale(0.015625)"/>
       </defs>
       <use xlink:href="#Cambria-2212"/>
       <use xlink:href="#Cambria-31" x="55.371094"/>
       <use xlink:href="#Cambria-35" x="110.742188"/>
       <use xlink:href="#Cambria-30" x="166.113281"/>
      </g>
     </g>
    </g>
    <g id="ytick_2">
     <g id="line2d_13">
      <path d="M 49.432813 213.064258 
L 272.252813 213.064258 
" clip-path="url(#p06aa760175)" style="fill: none; stroke-dasharray: 0.8,1.32; stroke-dashoffset: 0; stroke: #b0b0b0; stroke-width: 0.8"/>
     </g>
     <g id="line2d_14">
      <g>
       <use xlink:href="#m731626e84e" x="49.432813" y="213.064258" style="stroke: #000000; stroke-width: 0.8"/>
      </g>
     </g>
     <g id="text_8">
      <!-- −100 -->
      <g transform="translate(20.282813 216.558008) scale(0.1 -0.1)">
       <use xlink:href="#Cambria-2212"/>
       <use xlink:href="#Cambria-31" x="55.371094"/>
       <use xlink:href="#Cambria-30" x="110.742188"/>
       <use xlink:href="#Cambria-30" x="166.113281"/>
      </g>
     </g>
    </g>
    <g id="ytick_3">
     <g id="line2d_15">
      <path d="M 49.432813 175.82306 
L 272.252813 175.82306 
" clip-path="url(#p06aa760175)" style="fill: none; stroke-dasharray: 0.8,1.32; stroke-dashoffset: 0; stroke: #b0b0b0; stroke-width: 0.8"/>
     </g>
     <g id="line2d_16">
      <g>
       <use xlink:href="#m731626e84e" x="49.432813" y="175.82306" style="stroke: #000000; stroke-width: 0.8"/>
      </g>
     </g>
     <g id="text_9">
      <!-- −50 -->
      <g transform="translate(25.820313 179.31681) scale(0.1 -0.1)">
       <use xlink:href="#Cambria-2212"/>
       <use xlink:href="#Cambria-35" x="55.371094"/>
       <use xlink:href="#Cambria-30" x="110.742188"/>
      </g>
     </g>
    </g>
    <g id="ytick_4">
     <g id="line2d_17">
      <path d="M 49.432813 138.581861 
L 272.252813 138.581861 
" clip-path="url(#p06aa760175)" style="fill: none; stroke-dasharray: 0.8,1.32; stroke-dashoffset: 0; stroke: #b0b0b0; stroke-width: 0.8"/>
     </g>
     <g id="line2d_18">
      <g>
       <use xlink:href="#m731626e84e" x="49.432813" y="138.581861" style="stroke: #000000; stroke-width: 0.8"/>
      </g>
     </g>
     <g id="text_10">
      <!-- 0 -->
      <g transform="translate(36.895313 142.075611) scale(0.1 -0.1)">
       <use xlink:href="#Cambria-30"/>
      </g>
     </g>
    </g>
    <g id="ytick_5">
     <g id="line2d_19">
      <path d="M 49.432813 101.340662 
L 272.252813 101.340662 
" clip-path="url(#p06aa760175)" style="fill: none; stroke-dasharray: 0.8,1.32; stroke-dashoffset: 0; stroke: #b0b0b0; stroke-width: 0.8"/>
     </g>
     <g id="line2d_20">
      <g>
       <use xlink:href="#m731626e84e" x="49.432813" y="101.340662" style="stroke: #000000; stroke-width: 0.8"/>
      </g>
     </g>
     <g id="text_11">
      <!-- 50 -->
      <g transform="translate(31.357813 104.834412) scale(0.1 -0.1)">
       <use xlink:href="#Cambria-35"/>
       <use xlink:href="#Cambria-30" x="55.371094"/>
      </g>
     </g>
    </g>
    <g id="ytick_6">
     <g id="line2d_21">
      <path d="M 49.432813 64.099463 
L 272.252813 64.099463 
" clip-path="url(#p06aa760175)" style="fill: none; stroke-dasharray: 0.8,1.32; stroke-dashoffset: 0; stroke: #b0b0b0; stroke-width: 0.8"/>
     </g>
     <g id="line2d_22">
      <g>
       <use xlink:href="#m731626e84e" x="49.432813" y="64.099463" style="stroke: #000000; stroke-width: 0.8"/>
      </g>
     </g>
     <g id="text_12">
      <!-- 100 -->
      <g transform="translate(25.820313 67.593213) scale(0.1 -0.1)">
       <use xlink:href="#Cambria-31"/>
       <use xlink:href="#Cambria-30" x="55.371094"/>
       <use xlink:href="#Cambria-30" x="110.742188"/>
      </g>
     </g>
    </g>
    <g id="ytick_7">
     <g id="line2d_23">
      <path d="M 49.432813 26.858264 
L 272.252813 26.858264 
" clip-path="url(#p06aa760175)" style="fill: none; stroke-dasharray: 0.8,1.32; stroke-dashoffset: 0; stroke: #b0b0b0; stroke-width: 0.8"/>
     </g>
     <g id="line2d_24">
      <g>
       <use xlink:href="#m731626e84e" x="49.432813" y="26.858264" style="stroke: #000000; stroke-width: 0.8"/>
      </g>
     </g>
     <g id="text_13">
      <!-- 150 -->
      <g transform="translate(25.820313 30.352014) scale(0.1 -0.1)">
       <use xlink:href="#Cambria-31"/>
       <use xlink:href="#Cambria-35" x="55.371094"/>
       <use xlink:href="#Cambria-30" x="110.742188"/>
      </g>
     </g>
    </g>
    <g id="text_14">
     <!-- Base Shear (kN) -->
     <g transform="translate(14.14375 171.319063) rotate(-90) scale(0.1 -0.1)">
      <defs>
       <path id="TimesNewRomanPSMT-42" d="M 2956 2163 
Q 3397 2069 3616 1863 
Q 3919 1575 3919 1159 
Q 3919 844 3719 555 
Q 3519 266 3170 133 
Q 2822 0 2106 0 
L 106 0 
L 106 116 
L 266 116 
Q 531 116 647 284 
Q 719 394 719 750 
L 719 3488 
Q 719 3881 628 3984 
Q 506 4122 266 4122 
L 106 4122 
L 106 4238 
L 1938 4238 
Q 2450 4238 2759 4163 
Q 3228 4050 3475 3764 
Q 3722 3478 3722 3106 
Q 3722 2788 3528 2536 
Q 3334 2284 2956 2163 
z
M 1319 2331 
Q 1434 2309 1582 2298 
Q 1731 2288 1909 2288 
Q 2366 2288 2595 2386 
Q 2825 2484 2947 2687 
Q 3069 2891 3069 3131 
Q 3069 3503 2766 3765 
Q 2463 4028 1881 4028 
Q 1569 4028 1319 3959 
L 1319 2331 
z
M 1319 306 
Q 1681 222 2034 222 
Q 2600 222 2897 476 
Q 3194 731 3194 1106 
Q 3194 1353 3059 1581 
Q 2925 1809 2622 1940 
Q 2319 2072 1872 2072 
Q 1678 2072 1540 2065 
Q 1403 2059 1319 2044 
L 1319 306 
z
" transform="scale(0.015625)"/>
       <path id="TimesNewRomanPSMT-53" d="M 2934 4334 
L 2934 2869 
L 2819 2869 
Q 2763 3291 2617 3541 
Q 2472 3791 2203 3937 
Q 1934 4084 1647 4084 
Q 1322 4084 1109 3886 
Q 897 3688 897 3434 
Q 897 3241 1031 3081 
Q 1225 2847 1953 2456 
Q 2547 2138 2764 1967 
Q 2981 1797 3098 1565 
Q 3216 1334 3216 1081 
Q 3216 600 2842 251 
Q 2469 -97 1881 -97 
Q 1697 -97 1534 -69 
Q 1438 -53 1133 45 
Q 828 144 747 144 
Q 669 144 623 97 
Q 578 50 556 -97 
L 441 -97 
L 441 1356 
L 556 1356 
Q 638 900 775 673 
Q 913 447 1195 297 
Q 1478 147 1816 147 
Q 2206 147 2432 353 
Q 2659 559 2659 841 
Q 2659 997 2573 1156 
Q 2488 1316 2306 1453 
Q 2184 1547 1640 1851 
Q 1097 2156 867 2337 
Q 638 2519 519 2737 
Q 400 2956 400 3219 
Q 400 3675 750 4004 
Q 1100 4334 1641 4334 
Q 1978 4334 2356 4169 
Q 2531 4091 2603 4091 
Q 2684 4091 2736 4139 
Q 2788 4188 2819 4334 
L 2934 4334 
z
" transform="scale(0.015625)"/>
       <path id="TimesNewRomanPSMT-68" d="M 1041 4444 
L 1041 2350 
Q 1388 2731 1591 2839 
Q 1794 2947 1997 2947 
Q 2241 2947 2416 2812 
Q 2591 2678 2675 2391 
Q 2734 2191 2734 1659 
L 2734 647 
Q 2734 375 2778 275 
Q 2809 200 2884 156 
Q 2959 113 3159 113 
L 3159 0 
L 1753 0 
L 1753 113 
L 1819 113 
Q 2019 113 2097 173 
Q 2175 234 2206 353 
Q 2216 403 2216 647 
L 2216 1659 
Q 2216 2128 2167 2275 
Q 2119 2422 2012 2495 
Q 1906 2569 1756 2569 
Q 1603 2569 1437 2487 
Q 1272 2406 1041 2159 
L 1041 647 
Q 1041 353 1073 281 
Q 1106 209 1195 161 
Q 1284 113 1503 113 
L 1503 0 
L 84 0 
L 84 113 
Q 275 113 384 172 
Q 447 203 484 290 
Q 522 378 522 647 
L 522 3238 
Q 522 3728 498 3840 
Q 475 3953 426 3993 
Q 378 4034 297 4034 
Q 231 4034 84 3984 
L 41 4094 
L 897 4444 
L 1041 4444 
z
" transform="scale(0.015625)"/>
       <path id="TimesNewRomanPSMT-72" d="M 1038 2947 
L 1038 2303 
Q 1397 2947 1775 2947 
Q 1947 2947 2059 2842 
Q 2172 2738 2172 2600 
Q 2172 2478 2090 2393 
Q 2009 2309 1897 2309 
Q 1788 2309 1652 2417 
Q 1516 2525 1450 2525 
Q 1394 2525 1328 2463 
Q 1188 2334 1038 2041 
L 1038 669 
Q 1038 431 1097 309 
Q 1138 225 1241 169 
Q 1344 113 1538 113 
L 1538 0 
L 72 0 
L 72 113 
Q 291 113 397 181 
Q 475 231 506 341 
Q 522 394 522 644 
L 522 1753 
Q 522 2253 501 2348 
Q 481 2444 426 2487 
Q 372 2531 291 2531 
Q 194 2531 72 2484 
L 41 2597 
L 906 2947 
L 1038 2947 
z
" transform="scale(0.015625)"/>
       <path id="TimesNewRomanPSMT-6b" d="M 1047 4444 
L 1047 1597 
L 1775 2259 
Q 2006 2472 2044 2528 
Q 2069 2566 2069 2603 
Q 2069 2666 2017 2711 
Q 1966 2756 1847 2763 
L 1847 2863 
L 3091 2863 
L 3091 2763 
Q 2834 2756 2664 2684 
Q 2494 2613 2291 2428 
L 1556 1750 
L 2291 822 
Q 2597 438 2703 334 
Q 2853 188 2966 144 
Q 3044 113 3238 113 
L 3238 0 
L 1847 0 
L 1847 113 
Q 1966 116 2008 148 
Q 2050 181 2050 241 
Q 2050 313 1925 472 
L 1047 1594 
L 1047 644 
Q 1047 366 1086 278 
Q 1125 191 1197 153 
Q 1269 116 1509 113 
L 1509 0 
L 53 0 
L 53 113 
Q 272 113 381 166 
Q 447 200 481 272 
Q 528 375 528 628 
L 528 3234 
Q 528 3731 506 3842 
Q 484 3953 434 3995 
Q 384 4038 303 4038 
Q 238 4038 106 3984 
L 53 4094 
L 903 4444 
L 1047 4444 
z
" transform="scale(0.015625)"/>
       <path id="TimesNewRomanPSMT-4e" d="M -84 4238 
L 1066 4238 
L 3656 1059 
L 3656 3503 
Q 3656 3894 3569 3991 
Q 3453 4122 3203 4122 
L 3056 4122 
L 3056 4238 
L 4531 4238 
L 4531 4122 
L 4381 4122 
Q 4113 4122 4000 3959 
Q 3931 3859 3931 3503 
L 3931 -69 
L 3819 -69 
L 1025 3344 
L 1025 734 
Q 1025 344 1109 247 
Q 1228 116 1475 116 
L 1625 116 
L 1625 0 
L 150 0 
L 150 116 
L 297 116 
Q 569 116 681 278 
Q 750 378 750 734 
L 750 3681 
Q 566 3897 470 3965 
Q 375 4034 191 4094 
Q 100 4122 -84 4122 
L -84 4238 
z
" transform="scale(0.015625)"/>
      </defs>
      <use xlink:href="#TimesNewRomanPSMT-42"/>
      <use xlink:href="#TimesNewRomanPSMT-61" x="66.699219"/>
      <use xlink:href="#TimesNewRomanPSMT-73" x="111.083984"/>
      <use xlink:href="#TimesNewRomanPSMT-65" x="150"/>
      <use xlink:href="#TimesNewRomanPSMT-20" x="194.384766"/>
      <use xlink:href="#TimesNewRomanPSMT-53" x="219.384766"/>
      <use xlink:href="#TimesNewRomanPSMT-68" x="275"/>
      <use xlink:href="#TimesNewRomanPSMT-65" x="325"/>
      <use xlink:href="#TimesNewRomanPSMT-61" x="369.384766"/>
      <use xlink:href="#TimesNewRomanPSMT-72" x="413.769531"/>
      <use xlink:href="#TimesNewRomanPSMT-20" x="447.070312"/>
      <use xlink:href="#TimesNewRomanPSMT-28" x="472.070312"/>
      <use xlink:href="#TimesNewRomanPSMT-6b" x="505.371094"/>
      <use xlink:href="#TimesNewRomanPSMT-4e" x="555.371094"/>
      <use xlink:href="#TimesNewRomanPSMT-29" x="627.587891"/>
     </g>
    </g>
   </g>
   <g id="line2d_25">
    <path d="M 150.669537 137.239318 
L 152.282613 120.868677 
L 156.63459 102.55397 
L 162.145682 88.080248 
L 168.24541 72.64004 
L 172.365866 65.874636 
L 170.975231 73.582954 
L 161.912648 100.110715 
L 160.715703 108.298809 
L 158.931635 116.972226 
L 156.569522 123.243987 
L 154.006154 131.441787 
L 151.834705 139.155651 
L 150.640786 146.381419 
L 149.253178 153.12741 
L 148.066825 157.947362 
L 146.673164 166.618006 
L 145.293121 170.958181 
L 143.516618 177.225782 
L 140.954763 184.942419 
L 138.987597 189.767918 
L 139.004242 184.475123 
L 139.816833 174.365149 
L 141.210494 165.694505 
L 142.411979 156.062922 
L 145.957418 145.933535 
L 149.116989 134.363432 
L 152.270508 124.717982 
L 154.446496 115.560629 
L 156.218459 110.736517 
L 157.991935 105.431242 
L 162.935575 85.187723 
L 165.305253 76.510146 
L 170.014346 68.778255 
L 176.08835 61.517822 
L 177.66057 58.138586 
L 176.645209 70.655762 
L 174.856601 80.772669 
L 169.949278 89.468272 
L 166.603583 98.152783 
L 163.250321 109.243109 
L 160.691492 115.99742 
L 157.940486 121.790791 
L 155.77509 127.580002 
L 152.620058 137.706615 
L 150.63322 148.787235 
L 147.258774 166.613846 
L 144.106768 175.778133 
L 136.628511 195.077352 
L 131.524471 204.255505 
L 131.57592 187.895957 
L 134.355677 172.960485 
L 138.494292 160.421123 
L 143.012721 151.24713 
L 146.759416 139.191704 
L 151.302057 122.3191 
L 156.808609 109.288868 
L 162.737345 86.151436 
L 166.08304 77.466925 
L 174.12421 65.380994 
L 180.80047 52.823605 
L 186.284323 47.010821 
L 191.374744 42.163136 
L 191.727321 54.189443 
L 189.926607 68.155655 
L 184.415516 82.629377 
L 178.323353 95.663768 
L 171.634989 112.070462 
L 161.81883 129.942832 
L 155.529951 143.459774 
L 147.867082 159.392238 
L 142.543628 176.270389 
L 138.193164 194.103933 
L 130.929782 207.146645 
L 125.041902 217.292671 
L 123.091381 216.825374 
L 123.512052 207.199337 
L 125.905942 190.823149 
L 129.46046 177.806783 
L 132.806155 169.122273 
L 137.132408 158.98734 
L 143.024827 147.397824 
L 148.538945 131.961776 
L 152.488409 117.499148 
L 161.926267 95.780246 
L 164.114361 82.773587 
L 169.023197 73.59682 
L 180.809549 49.936626 
L 188.63887 43.144876 
L 198.218969 38.265299 
L 205.256884 34.847237 
L 205.833415 37.730057 
L 204.612259 53.616762 
L 201.641838 67.11013 
L 194.152988 89.777493 
L 183.356272 109.100285 
L 161.979229 141.008199 
L 157.261057 151.627068 
L 151.768124 160.326832 
L 145.300687 168.552365 
L 138.82871 178.221388 
L 136.070138 186.420575 
L 132.135806 196.071571 
L 120.142145 223.582458 
L 112.501975 232.297474 
L 107.8065 235.698896 
L 109.427143 216.922438 
L 113.980376 196.681692 
L 130.089953 163.848891 
L 136.383371 148.88846 
L 144.430594 134.877875 
L 150.917703 120.39722 
L 157.397245 108.322381 
L 163.474276 100.099622 
L 170.734632 88.019236 
L 185.055601 65.303342 
L 195.051832 52.241217 
L 208.958183 37.226707 
L 217.368575 31.874287 
L 221.470873 30.882841 
L 221.242379 41.469818 
L 219.249488 54.47509 
L 212.934885 76.171806 
L 203.11116 96.449992 
L 183.693717 125.938223 
L 169.192676 143.843873 
L 156.849465 158.366126 
L 148.431507 166.124363 
L 142.343885 177.715265 
L 136.053493 191.71337 
L 126.449182 204.291558 
L 115.458777 223.134574 
L 108.404216 231.84543 
L 101.749142 237.666534 
L 94.904917 241.564372 
L 93.344803 241.094302 
L 93.77304 229.062449 
L 95.967187 214.131137 
L 102.469427 194.838851 
L 111.109826 178.41829 
L 119.759304 159.110751 
L 134.861087 136.38931 
L 143.481815 126.223871 
L 156.805582 110.251194 
L 161.525268 99.151162 
L 170.344225 88.02201 
L 181.319499 73.990625 
L 193.263224 62.358124 
L 202.073101 54.115951 
L 213.824649 41.52251 
L 225.365862 33.742087 
L 235.524005 31.264166 
L 237.861906 32.691016 
L 236.465218 42.323986 
L 234.655425 59.177178 
L 230.123377 72.68164 
L 226.980451 78.958947 
L 219.907732 93.443762 
L 209.501423 112.763781 
L 190.695315 134.068079 
L 175.233389 147.169029 
L 164.861884 155.422295 
L 154.096946 164.640661 
L 139.216091 179.180941 
L 112.571582 210.163968 
L 98.078107 225.663801 
L 83.979579 239.717371 
L 76.35454 243.620756 
L 80.532499 218.57115 
L 85.482191 196.402978 
L 98.837736 170.325874 
L 107.668799 155.347417 
L 120.79131 141.30078 
L 132.149425 129.672438 
L 139.983285 121.437198 
L 149.186597 112.229926 
L 163.884354 93.841727 
L 178.955873 80.74355 
L 187.367778 74.909966 
L 200.479697 64.231471 
L 208.511788 55.032518 
L 224.352015 45.7781 
L 229.640665 39.966703 
L 236.477324 38.474681 
L 235.245575 57.729528 
L 225.789559 85.222389 
L 206.370603 115.191783 
L 191.480668 132.619043 
L 175.239442 145.244376 
L 161.145453 157.854457 
L 147.052978 169.983375 
L 133.919874 187.398154 
L 114.534209 206.781959 
L 94.367729 226.17131 
L 81.451014 236.848418 
L 68.936811 243.673448 
L 59.560994 245.664659 
L 61.959424 227.844981 
L 65.344463 206.650228 
L 72.235597 187.836332 
L 84.595453 168.021283 
L 94.59471 153.996832 
L 103.805587 142.383743 
L 118.877106 129.285566 
L 125.527641 124.907952 
L 131.394335 121.49821 
L 149.583056 110.3025 
L 165.037416 99.607365 
L 179.145024 82.666816 
L 193.629419 70.053962 
L 206.733772 61.781283 
L 215.735827 54.50005 
L 227.66442 47.67918 
L 242.316781 43.725877 
L 247.376938 48.501456 
L 251.458051 54.246295 
L 256.141419 54.694179 
L 259.630869 62.36783 
L 262.124631 76.303537 
L 262.124631 76.303537 
" clip-path="url(#p06aa760175)" style="fill: none; stroke-dasharray: 3.7,1.6; stroke-dashoffset: 0; stroke: #000000"/>
   </g>
   <g id="line2d_26">
    <path d="M 150.277617 138.581861 
L 151.434575 115.315119 
L 151.990134 106.699492 
L 152.518596 100.919414 
L 153.461339 94.952273 
L 154.913793 87.86576 
L 154.837394 88.764662 
L 153.443559 103.591996 
L 151.410967 124.101976 
L 150.836534 131.48058 
L 148.54248 169.555934 
L 148.015333 174.919465 
L 147.076203 180.813535 
L 145.640036 186.290804 
L 145.644633 186.243584 
L 147.583171 165.735189 
L 148.610481 154.087414 
L 149.74289 138.464751 
L 150.90901 121.376602 
L 152.035326 111.648004 
L 154.504352 93.680723 
L 154.916475 91.314941 
L 154.827874 92.255834 
L 151.921994 123.862506 
L 150.788139 139.46677 
L 149.622099 155.524692 
L 148.497384 164.794729 
L 145.700306 184.718371 
L 145.63761 185.003801 
L 145.648334 184.902514 
L 148.656044 153.120458 
L 149.791314 137.733963 
L 150.735547 123.828356 
L 153.471855 101.88144 
L 156.157619 87.308799 
L 158.750342 79.952252 
L 161.209 74.33449 
L 163.494688 70.089138 
L 165.571239 66.831604 
L 167.405795 64.394521 
L 170.237099 61.208517 
L 172.090454 59.4257 
L 169.797725 73.603629 
L 166.748127 90.855876 
L 164.819204 100.670196 
L 162.660187 110.720021 
L 160.305237 120.821286 
L 155.159103 141.359971 
L 152.449347 151.554027 
L 149.705228 166.874665 
L 146.970165 180.557578 
L 144.287437 189.462206 
L 141.699494 196.324541 
L 139.247283 201.544611 
L 136.969608 205.617499 
L 134.902509 208.834055 
L 131.527021 212.99887 
L 128.726595 215.935035 
L 128.460578 216.187113 
L 130.809032 201.973163 
L 133.882474 184.908616 
L 135.82162 175.133622 
L 137.989507 165.079482 
L 140.351832 154.96412 
L 145.50779 134.687788 
L 148.219839 125.451006 
L 150.96445 115.514906 
L 153.698192 106.268938 
L 156.37781 98.025929 
L 158.960903 90.853224 
L 161.406599 84.855778 
L 163.676198 79.956063 
L 165.733788 76.032278 
L 167.546812 72.936623 
L 170.328733 68.72299 
L 172.098259 66.33833 
L 169.694144 80.724744 
L 166.596943 97.697492 
L 164.647626 107.377934 
L 162.47093 117.360115 
L 160.101295 127.345225 
L 157.576219 137.09494 
L 154.935655 145.835879 
L 152.221386 153.340253 
L 149.47636 161.488917 
L 144.067579 178.183785 
L 141.489407 185.351928 
L 139.050294 191.42851 
L 136.788833 196.434272 
L 134.740808 200.448048 
L 132.938625 203.633182 
L 130.181512 207.960011 
L 128.453974 210.392197 
L 130.913682 195.760739 
L 134.034558 178.838472 
L 135.993991 169.243455 
L 138.179438 159.380143 
L 140.556316 149.520044 
L 143.087017 139.865706 
L 145.731497 131.618256 
L 148.447911 124.200218 
L 156.794831 99.528522 
L 161.572423 87.188527 
L 166.171296 77.680746 
L 170.518679 70.57437 
L 174.545784 65.20496 
L 178.188887 61.057771 
L 181.390345 58.359731 
L 184.099498 56.470378 
L 187.877891 54.154194 
L 189.285868 53.379612 
L 186.801574 68.129413 
L 184.790555 79.236885 
L 182.23343 92.062312 
L 179.17066 105.535 
L 175.65071 118.59482 
L 171.729275 130.825355 
L 167.468406 141.717706 
L 162.935523 150.11747 
L 158.202351 156.578973 
L 153.343785 162.470384 
L 148.436701 170.4124 
L 143.558747 181.635732 
L 138.787107 192.160629 
L 134.197284 200.630973 
L 129.861904 207.196111 
L 125.849566 212.31763 
L 122.223759 216.115324 
L 119.041855 218.670314 
L 114.203325 221.907014 
L 111.266147 223.601907 
L 113.826105 208.690753 
L 115.860575 197.667904 
L 118.439635 184.853615 
L 121.522474 171.434191 
L 125.060312 158.272614 
L 128.997169 145.93713 
L 133.270752 135.223131 
L 137.813438 127.715673 
L 142.553347 121.209922 
L 147.41548 115.07464 
L 152.322901 108.140435 
L 157.197959 99.08012 
L 161.963515 89.453392 
L 166.544162 81.263339 
L 170.86742 74.716488 
L 174.86488 69.587411 
L 178.473291 65.582178 
L 181.635555 62.46187 
L 186.429346 58.22647 
L 189.291234 55.93076 
L 186.655683 70.981405 
L 184.597817 81.801715 
L 181.996894 94.301847 
L 178.89407 107.499499 
L 175.338442 120.534483 
L 171.38627 132.610624 
L 167.100091 143.017192 
L 162.547727 150.150191 
L 157.80121 156.289285 
L 152.935645 161.987684 
L 148.028022 168.898515 
L 143.155994 178.194851 
L 138.396654 187.786249 
L 133.825308 195.994519 
L 129.514292 202.563892 
L 125.531818 207.712302 
L 121.940903 211.737043 
L 118.798366 214.894325 
L 114.049445 219.180539 
L 111.262927 221.475969 
L 113.973999 206.248359 
L 116.055204 195.36307 
L 118.677918 182.794312 
L 121.800642 169.541667 
L 125.373963 156.514594 
L 129.34134 144.444776 
L 133.639997 134.140683 
L 138.201914 127.029988 
L 142.954909 120.92251 
L 147.823772 115.18598 
L 153.812323 106.329283 
L 160.825804 92.591804 
L 167.672379 80.416241 
L 174.243713 71.252138 
L 180.435826 64.454094 
L 186.150738 59.228741 
L 191.298022 55.103564 
L 195.796231 52.330975 
L 199.574188 50.591432 
L 204.742573 48.502377 
L 206.477349 47.862892 
L 204.669151 58.478447 
L 202.463436 70.667987 
L 199.431973 85.784031 
L 195.622729 102.023211 
L 191.09598 117.5085 
L 185.923352 131.552842 
L 180.186693 143.410029 
L 173.976776 151.314366 
L 167.391862 157.727359 
L 153.518106 169.578473 
L 146.448791 176.883046 
L 139.440061 187.12664 
L 132.602816 197.884312 
L 126.045243 206.747539 
L 119.871105 213.318247 
L 114.178096 218.44974 
L 109.056298 222.397222 
L 104.586754 225.056828 
L 100.840187 226.763391 
L 94.468544 229.251643 
L 94.079431 229.390297 
L 95.961001 218.456683 
L 98.201912 206.232379 
L 101.266828 191.017405 
L 105.107254 174.800821 
L 109.66242 159.225874 
L 114.86025 145.126256 
L 120.618497 133.765463 
L 126.846047 126.019184 
L 133.44436 119.544167 
L 147.331435 107.690782 
L 154.400457 100.893982 
L 161.404244 91.905873 
L 168.231971 81.817899 
L 174.775602 73.286163 
L 180.931596 66.89978 
L 186.602545 62.018181 
L 191.698717 58.192712 
L 196.139473 55.156809 
L 202.785153 50.969984 
L 206.472711 48.780436 
L 204.517821 59.638017 
L 202.241776 71.460463 
L 199.143491 86.142205 
L 195.271989 102.096263 
L 190.688532 117.703138 
L 185.465643 131.753607 
L 179.685966 143.345777 
L 173.440954 151.28284 
L 166.829423 157.475934 
L 159.955989 162.887207 
L 152.929413 168.232883 
L 145.860876 175.340152 
L 138.862226 185.579703 
L 132.044205 196.201075 
L 125.514695 204.487067 
L 119.377014 210.766955 
L 113.728281 215.598112 
L 108.657876 219.401511 
L 104.24603 222.426915 
L 97.665727 226.600417 
L 94.08716 228.605618 
L 96.115317 217.095286 
L 98.426434 204.738407 
L 101.558003 189.52922 
L 105.460474 173.41621 
L 110.072097 157.950679 
L 115.319901 144.061907 
L 121.120849 133.017308 
L 127.383151 125.457268 
L 134.007718 119.148298 
L 147.920282 107.380907 
L 156.428545 98.741165 
L 165.560319 86.052167 
L 174.450272 74.064234 
L 182.957734 65.433902 
L 190.948092 59.080092 
L 198.294912 54.094704 
L 204.881943 50.041636 
L 210.604957 47.272255 
L 219.111814 44.599656 
L 223.642206 43.329884 
L 220.898271 59.036859 
L 217.834737 75.01236 
L 213.702231 93.651282 
L 208.566143 111.472024 
L 202.507742 127.590265 
L 195.622893 140.967656 
L 188.020534 149.991148 
L 179.820961 156.843529 
L 171.153916 162.632021 
L 162.156542 168.20136 
L 152.971204 174.109855 
L 143.743245 181.583266 
L 134.618681 192.735596 
L 125.741892 203.969374 
L 117.253337 212.421134 
L 109.287333 218.650186 
L 101.969927 223.575124 
L 95.416906 227.561286 
L 90.016205 230.020075 
L 81.595187 232.650764 
L 77.207368 233.878512 
L 80.046825 217.775991 
L 83.155987 201.676418 
L 87.331729 183.045115 
L 92.507975 165.216991 
L 98.602821 149.096103 
L 105.519827 135.890542 
L 113.149543 127.170183 
L 121.371243 120.327337 
L 130.054833 114.528885 
L 139.06291 108.940349 
L 148.252938 103.045153 
L 157.479501 95.838085 
L 166.596604 85.266572 
L 175.459986 74.450297 
L 183.929399 66.501514 
L 191.87083 60.703535 
L 199.15862 56.206791 
L 205.677453 52.591867 
L 216.009448 47.328601 
L 223.904252 43.58317 
L 220.969351 59.367558 
L 217.814645 74.745842 
L 213.595783 92.550282 
L 208.379521 110.608223 
L 202.248397 126.951584 
L 195.299426 140.48444 
L 187.642562 150.129494 
L 179.398961 157.041036 
L 170.699064 162.786855 
L 161.680532 168.32985 
L 152.486067 174.192719 
L 143.261154 181.300067 
L 134.151763 191.565559 
L 125.302032 202.545344 
L 116.851993 210.63429 
L 108.935354 216.474995 
L 101.67738 220.98263 
L 95.192916 224.604809 
L 84.941078 229.87566 
L 78.82614 232.819135 
L 77.233605 233.431657 
L 80.263869 216.805386 
L 83.464031 200.948509 
L 87.725897 182.799143 
L 92.982031 164.910855 
L 99.149264 148.816359 
L 106.130011 135.718933 
L 113.813812 126.665431 
L 122.079087 119.848204 
L 130.795051 114.105169 
L 139.823789 108.543043 
L 149.022439 102.593942 
L 160.044768 93.39112 
L 171.277545 79.439448 
L 182.182532 68.094987 
L 192.587179 60.361182 
L 202.32685 54.553624 
L 211.247431 49.858281 
L 219.207771 45.945995 
L 226.081911 43.011178 
L 236.155416 40.504796 
L 241.042008 39.39112 
L 239.819441 46.466623 
L 237.184532 60.95149 
L 233.178973 80.536223 
L 227.866144 101.214795 
L 221.330112 119.846263 
L 213.674298 135.418549 
L 205.019841 146.825662 
L 195.503684 154.531718 
L 185.276401 160.783359 
L 174.499823 166.652496 
L 151.986853 178.171805 
L 140.606689 185.671008 
L 129.384048 197.627442 
L 118.496508 208.956008 
L 108.116346 216.728355 
L 98.407809 222.562302 
L 89.524518 227.273633 
L 81.607034 231.192075 
L 74.780639 234.094317 
L 64.8142 236.610401 
L 60.104135 237.691723 
L 61.386092 230.32225 
L 64.079097 215.562027 
L 68.140538 195.859469 
L 73.506152 175.218786 
L 80.091035 156.618238 
L 87.790994 141.108012 
L 96.484191 130.123393 
L 106.033072 122.461786 
L 116.286541 116.2325 
L 127.082357 110.364 
L 149.61185 98.864962 
L 160.989039 91.568017 
L 172.201235 79.610747 
L 183.071027 68.841323 
L 193.426419 61.624404 
L 203.103555 56.240499 
L 211.949312 51.958331 
L 219.823722 48.440075 
L 232.177445 43.221892 
L 240.994692 39.642473 
L 239.653381 46.908946 
L 236.902354 61.045401 
L 232.785141 79.779087 
L 227.366892 99.897568 
L 220.733338 118.842102 
L 212.989446 134.700605 
L 204.257747 146.621035 
L 194.676407 154.946328 
L 184.397032 161.139667 
L 173.582275 167.000588 
L 151.036878 178.480676 
L 139.662979 185.657391 
L 128.461535 197.302577 
L 117.60979 208.199792 
L 107.279453 215.492547 
L 97.633984 220.903036 
L 88.826004 225.200592 
L 80.994885 228.731574 
L 68.741466 233.960501 
L 60.186303 237.375687 
L 60.156426 237.384383 
L 61.557056 229.593315 
L 64.366029 214.724628 
L 68.538899 195.30513 
L 74.009636 175.046673 
L 80.691677 156.429183 
L 88.47929 140.952747 
L 97.24925 129.866869 
L 106.862787 121.916259 
L 117.167785 115.76883 
L 128.001184 109.902362 
L 139.191567 104.218533 
L 139.191567 104.218533 
" clip-path="url(#p06aa760175)" style="fill: none; stroke: #0000ff; stroke-width: 1.2; stroke-linecap: square"/>
   </g>
   <g id="line2d_27">
    <path d="M 49.432813 138.581861 
L 272.252813 138.581861 
" clip-path="url(#p06aa760175)" style="fill: none; stroke: #000000; stroke-width: 0.4; stroke-linecap: square"/>
   </g>
   <g id="line2d_28">
    <path d="M 150.277617 256.40375 
L 150.277617 20.14375 
" clip-path="url(#p06aa760175)" style="fill: none; stroke: #000000; stroke-width: 0.4; stroke-linecap: square"/>
   </g>
   <g id="patch_3">
    <path d="M 49.432813 256.40375 
L 49.432813 20.14375 
" style="fill: none; stroke: #000000; stroke-width: 0.8; stroke-linejoin: miter; stroke-linecap: square"/>
   </g>
   <g id="patch_4">
    <path d="M 272.252813 256.40375 
L 272.252813 20.14375 
" style="fill: none; stroke: #000000; stroke-width: 0.8; stroke-linejoin: miter; stroke-linecap: square"/>
   </g>
   <g id="patch_5">
    <path d="M 49.432812 256.40375 
L 272.252813 256.40375 
" style="fill: none; stroke: #000000; stroke-width: 0.8; stroke-linejoin: miter; stroke-linecap: square"/>
   </g>
   <g id="patch_6">
    <path d="M 49.432812 20.14375 
L 272.252813 20.14375 
" style="fill: none; stroke: #000000; stroke-width: 0.8; stroke-linejoin: miter; stroke-linecap: square"/>
   </g>
   <g id="text_15">
    <!-- Specimen : Hube-W1 -->
    <g transform="translate(117.521719 14.14375) scale(0.1 -0.1)">
     <defs>
      <path id="TimesNewRomanPSMT-3a" d="M 903 2950 
Q 1047 2950 1148 2848 
Q 1250 2747 1250 2603 
Q 1250 2459 1148 2357 
Q 1047 2256 903 2256 
Q 759 2256 657 2357 
Q 556 2459 556 2603 
Q 556 2747 657 2848 
Q 759 2950 903 2950 
z
M 897 609 
Q 1044 609 1145 506 
Q 1247 403 1247 259 
Q 1247 116 1144 14 
Q 1041 -88 897 -88 
Q 753 -88 651 14 
Q 550 116 550 259 
Q 550 403 651 506 
Q 753 609 897 609 
z
" transform="scale(0.015625)"/>
      <path id="TimesNewRomanPSMT-48" d="M 1316 2272 
L 3284 2272 
L 3284 3484 
Q 3284 3809 3244 3913 
Q 3213 3991 3113 4047 
Q 2978 4122 2828 4122 
L 2678 4122 
L 2678 4238 
L 4491 4238 
L 4491 4122 
L 4341 4122 
Q 4191 4122 4056 4050 
Q 3956 4000 3920 3898 
Q 3884 3797 3884 3484 
L 3884 750 
Q 3884 428 3925 325 
Q 3956 247 4053 191 
Q 4191 116 4341 116 
L 4491 116 
L 4491 0 
L 2678 0 
L 2678 116 
L 2828 116 
Q 3088 116 3206 269 
Q 3284 369 3284 750 
L 3284 2041 
L 1316 2041 
L 1316 750 
Q 1316 428 1356 325 
Q 1388 247 1488 191 
Q 1622 116 1772 116 
L 1925 116 
L 1925 0 
L 109 0 
L 109 116 
L 259 116 
Q 522 116 641 269 
Q 716 369 716 750 
L 716 3484 
Q 716 3809 675 3913 
Q 644 3991 547 4047 
Q 409 4122 259 4122 
L 109 4122 
L 109 4238 
L 1925 4238 
L 1925 4122 
L 1772 4122 
Q 1622 4122 1488 4050 
Q 1391 4000 1353 3898 
Q 1316 3797 1316 3484 
L 1316 2272 
z
" transform="scale(0.015625)"/>
      <path id="TimesNewRomanPSMT-75" d="M 2709 2863 
L 2709 1128 
Q 2709 631 2732 520 
Q 2756 409 2807 365 
Q 2859 322 2928 322 
Q 3025 322 3147 375 
L 3191 266 
L 2334 -88 
L 2194 -88 
L 2194 519 
Q 1825 119 1631 15 
Q 1438 -88 1222 -88 
Q 981 -88 804 51 
Q 628 191 559 409 
Q 491 628 491 1028 
L 491 2306 
Q 491 2509 447 2587 
Q 403 2666 317 2708 
Q 231 2750 6 2747 
L 6 2863 
L 1009 2863 
L 1009 947 
Q 1009 547 1148 422 
Q 1288 297 1484 297 
Q 1619 297 1789 381 
Q 1959 466 2194 703 
L 2194 2325 
Q 2194 2569 2105 2655 
Q 2016 2741 1734 2747 
L 1734 2863 
L 2709 2863 
z
" transform="scale(0.015625)"/>
      <path id="TimesNewRomanPSMT-62" d="M 984 2369 
Q 1400 2947 1881 2947 
Q 2322 2947 2650 2570 
Q 2978 2194 2978 1541 
Q 2978 778 2472 313 
Q 2038 -88 1503 -88 
Q 1253 -88 995 3 
Q 738 94 469 275 
L 469 3241 
Q 469 3728 445 3840 
Q 422 3953 372 3993 
Q 322 4034 247 4034 
Q 159 4034 28 3984 
L -16 4094 
L 844 4444 
L 984 4444 
L 984 2369 
z
M 984 2169 
L 984 456 
Q 1144 300 1314 220 
Q 1484 141 1663 141 
Q 1947 141 2192 453 
Q 2438 766 2438 1363 
Q 2438 1913 2192 2208 
Q 1947 2503 1634 2503 
Q 1469 2503 1303 2419 
Q 1178 2356 984 2169 
z
" transform="scale(0.015625)"/>
      <path id="TimesNewRomanPSMT-2d" d="M 259 1672 
L 1875 1672 
L 1875 1200 
L 259 1200 
L 259 1672 
z
" transform="scale(0.015625)"/>
      <path id="TimesNewRomanPSMT-57" d="M 5991 4238 
L 5991 4122 
Q 5825 4122 5722 4062 
Q 5619 4003 5525 3841 
Q 5463 3731 5328 3319 
L 4147 -97 
L 4022 -97 
L 3056 2613 
L 2097 -97 
L 1984 -97 
L 725 3422 
Q 584 3816 547 3888 
Q 484 4006 376 4064 
Q 269 4122 84 4122 
L 84 4238 
L 1653 4238 
L 1653 4122 
L 1578 4122 
Q 1413 4122 1325 4047 
Q 1238 3972 1238 3866 
Q 1238 3756 1375 3363 
L 2209 984 
L 2913 3006 
L 2788 3363 
L 2688 3647 
Q 2622 3803 2541 3922 
Q 2500 3981 2441 4022 
Q 2363 4078 2284 4103 
Q 2225 4122 2097 4122 
L 2097 4238 
L 3747 4238 
L 3747 4122 
L 3634 4122 
Q 3459 4122 3378 4047 
Q 3297 3972 3297 3844 
Q 3297 3684 3438 3288 
L 4250 984 
L 5056 3319 
Q 5194 3706 5194 3856 
Q 5194 3928 5148 3990 
Q 5103 4053 5034 4078 
Q 4916 4122 4725 4122 
L 4725 4238 
L 5991 4238 
z
" transform="scale(0.015625)"/>
      <path id="TimesNewRomanPSMT-31" d="M 750 3822 
L 1781 4325 
L 1884 4325 
L 1884 747 
Q 1884 391 1914 303 
Q 1944 216 2037 169 
Q 2131 122 2419 116 
L 2419 0 
L 825 0 
L 825 116 
Q 1125 122 1212 167 
Q 1300 213 1334 289 
Q 1369 366 1369 747 
L 1369 3034 
Q 1369 3497 1338 3628 
Q 1316 3728 1258 3775 
Q 1200 3822 1119 3822 
Q 1003 3822 797 3725 
L 750 3822 
z
" transform="scale(0.015625)"/>
     </defs>
     <use xlink:href="#TimesNewRomanPSMT-53"/>
     <use xlink:href="#TimesNewRomanPSMT-70" x="55.615234"/>
     <use xlink:href="#TimesNewRomanPSMT-65" x="105.615234"/>
     <use xlink:href="#TimesNewRomanPSMT-63" x="150"/>
     <use xlink:href="#TimesNewRomanPSMT-69" x="194.384766"/>
     <use xlink:href="#TimesNewRomanPSMT-6d" x="222.167969"/>
     <use xlink:href="#TimesNewRomanPSMT-65" x="299.951172"/>
     <use xlink:href="#TimesNewRomanPSMT-6e" x="344.335938"/>
     <use xlink:href="#TimesNewRomanPSMT-20" x="394.335938"/>
     <use xlink:href="#TimesNewRomanPSMT-3a" x="419.335938"/>
     <use xlink:href="#TimesNewRomanPSMT-20" x="447.119141"/>
     <use xlink:href="#TimesNewRomanPSMT-48" x="472.119141"/>
     <use xlink:href="#TimesNewRomanPSMT-75" x="544.335938"/>
     <use xlink:href="#TimesNewRomanPSMT-62" x="594.335938"/>
     <use xlink:href="#TimesNewRomanPSMT-65" x="644.335938"/>
     <use xlink:href="#TimesNewRomanPSMT-2d" x="688.720703"/>
     <use xlink:href="#TimesNewRomanPSMT-57" x="722.021484"/>
     <use xlink:href="#TimesNewRomanPSMT-31" x="816.40625"/>
    </g>
   </g>
   <g id="legend_1">
    <g id="patch_7">
     <path d="M 55.263813 50.363428 
L 142.486722 50.363428 
Q 144.152722 50.363428 144.152722 48.697428 
L 144.152722 25.97475 
Q 144.152722 24.30875 142.486722 24.30875 
L 55.263813 24.30875 
Q 53.597813 24.30875 53.597813 25.97475 
L 53.597813 48.697428 
Q 53.597813 50.363428 55.263813 50.363428 
z
" style="fill: #ffffff; opacity: 0.8; stroke: #cccccc; stroke-linejoin: miter"/>
    </g>
    <g id="line2d_29">
     <path d="M 56.929813 30.55625 
L 65.259813 30.55625 
L 73.589813 30.55625 
" style="fill: none; stroke-dasharray: 3.7,1.6; stroke-dashoffset: 0; stroke: #000000"/>
    </g>
    <g id="text_16">
     <!-- Experimental Test -->
     <g transform="translate(80.253813 33.47175) scale(0.0833 -0.0833)">
      <defs>
       <path id="TimesNewRomanPSMT-45" d="M 1338 4006 
L 1338 2331 
L 2269 2331 
Q 2631 2331 2753 2441 
Q 2916 2584 2934 2947 
L 3050 2947 
L 3050 1472 
L 2934 1472 
Q 2891 1781 2847 1869 
Q 2791 1978 2662 2040 
Q 2534 2103 2269 2103 
L 1338 2103 
L 1338 706 
Q 1338 425 1363 364 
Q 1388 303 1450 267 
Q 1513 231 1688 231 
L 2406 231 
Q 2766 231 2928 281 
Q 3091 331 3241 478 
Q 3434 672 3638 1063 
L 3763 1063 
L 3397 0 
L 131 0 
L 131 116 
L 281 116 
Q 431 116 566 188 
Q 666 238 702 338 
Q 738 438 738 747 
L 738 3500 
Q 738 3903 656 3997 
Q 544 4122 281 4122 
L 131 4122 
L 131 4238 
L 3397 4238 
L 3444 3309 
L 3322 3309 
Q 3256 3644 3176 3769 
Q 3097 3894 2941 3959 
Q 2816 4006 2500 4006 
L 1338 4006 
z
" transform="scale(0.015625)"/>
       <path id="TimesNewRomanPSMT-78" d="M 84 2863 
L 1431 2863 
L 1431 2747 
Q 1303 2747 1251 2703 
Q 1200 2659 1200 2588 
Q 1200 2513 1309 2356 
Q 1344 2306 1413 2200 
L 1616 1875 
L 1850 2200 
Q 2075 2509 2075 2591 
Q 2075 2656 2022 2701 
Q 1969 2747 1850 2747 
L 1850 2863 
L 2819 2863 
L 2819 2747 
Q 2666 2738 2553 2663 
Q 2400 2556 2134 2200 
L 1744 1678 
L 2456 653 
Q 2719 275 2831 198 
Q 2944 122 3122 113 
L 3122 0 
L 1772 0 
L 1772 113 
Q 1913 113 1991 175 
Q 2050 219 2050 291 
Q 2050 363 1850 653 
L 1431 1266 
L 972 653 
Q 759 369 759 316 
Q 759 241 829 180 
Q 900 119 1041 113 
L 1041 0 
L 106 0 
L 106 113 
Q 219 128 303 191 
Q 422 281 703 653 
L 1303 1450 
L 759 2238 
Q 528 2575 401 2661 
Q 275 2747 84 2747 
L 84 2863 
z
" transform="scale(0.015625)"/>
       <path id="TimesNewRomanPSMT-54" d="M 3703 4238 
L 3750 3244 
L 3631 3244 
Q 3597 3506 3538 3619 
Q 3441 3800 3280 3886 
Q 3119 3972 2856 3972 
L 2259 3972 
L 2259 734 
Q 2259 344 2344 247 
Q 2463 116 2709 116 
L 2856 116 
L 2856 0 
L 1059 0 
L 1059 116 
L 1209 116 
Q 1478 116 1591 278 
Q 1659 378 1659 734 
L 1659 3972 
L 1150 3972 
Q 853 3972 728 3928 
Q 566 3869 450 3700 
Q 334 3531 313 3244 
L 194 3244 
L 244 4238 
L 3703 4238 
z
" transform="scale(0.015625)"/>
      </defs>
      <use xlink:href="#TimesNewRomanPSMT-45"/>
      <use xlink:href="#TimesNewRomanPSMT-78" x="61.083984"/>
      <use xlink:href="#TimesNewRomanPSMT-70" x="111.083984"/>
      <use xlink:href="#TimesNewRomanPSMT-65" x="161.083984"/>
      <use xlink:href="#TimesNewRomanPSMT-72" x="205.46875"/>
      <use xlink:href="#TimesNewRomanPSMT-69" x="238.769531"/>
      <use xlink:href="#TimesNewRomanPSMT-6d" x="266.552734"/>
      <use xlink:href="#TimesNewRomanPSMT-65" x="344.335938"/>
      <use xlink:href="#TimesNewRomanPSMT-6e" x="388.720703"/>
      <use xlink:href="#TimesNewRomanPSMT-74" x="438.720703"/>
      <use xlink:href="#TimesNewRomanPSMT-61" x="466.503906"/>
      <use xlink:href="#TimesNewRomanPSMT-6c" x="510.888672"/>
      <use xlink:href="#TimesNewRomanPSMT-20" x="538.671875"/>
      <use xlink:href="#TimesNewRomanPSMT-54" x="561.921875"/>
      <use xlink:href="#TimesNewRomanPSMT-65" x="616.005859"/>
      <use xlink:href="#TimesNewRomanPSMT-73" x="660.390625"/>
      <use xlink:href="#TimesNewRomanPSMT-74" x="699.306641"/>
     </g>
    </g>
    <g id="line2d_30">
     <path d="M 56.929813 42.334089 
L 65.259813 42.334089 
L 73.589813 42.334089 
" style="fill: none; stroke: #0000ff; stroke-width: 1.2; stroke-linecap: square"/>
    </g>
    <g id="text_17">
     <!-- Numerical Test -->
     <g transform="translate(80.253813 45.249589) scale(0.0833 -0.0833)">
      <use xlink:href="#TimesNewRomanPSMT-4e"/>
      <use xlink:href="#TimesNewRomanPSMT-75" x="72.216797"/>
      <use xlink:href="#TimesNewRomanPSMT-6d" x="122.216797"/>
      <use xlink:href="#TimesNewRomanPSMT-65" x="200"/>
      <use xlink:href="#TimesNewRomanPSMT-72" x="244.384766"/>
      <use xlink:href="#TimesNewRomanPSMT-69" x="277.685547"/>
      <use xlink:href="#TimesNewRomanPSMT-63" x="305.46875"/>
      <use xlink:href="#TimesNewRomanPSMT-61" x="349.853516"/>
      <use xlink:href="#TimesNewRomanPSMT-6c" x="394.238281"/>
      <use xlink:href="#TimesNewRomanPSMT-20" x="422.021484"/>
      <use xlink:href="#TimesNewRomanPSMT-54" x="445.271484"/>
      <use xlink:href="#TimesNewRomanPSMT-65" x="499.355469"/>
      <use xlink:href="#TimesNewRomanPSMT-73" x="543.740234"/>
      <use xlink:href="#TimesNewRomanPSMT-74" x="582.65625"/>
     </g>
    </g>
   </g>
  </g>
 </g>
 <defs>
  <clipPath id="p06aa760175">
   <rect x="49.432813" y="20.14375" width="222.82" height="236.26"/>
  </clipPath>
 </defs>
</svg>
