<?xml version="1.0" encoding="utf-8" standalone="no"?>
<!DOCTYPE svg PUBLIC "-//W3C//DTD SVG 1.1//EN"
  "http://www.w3.org/Graphics/SVG/1.1/DTD/svg11.dtd">
<svg xmlns:xlink="http://www.w3.org/1999/xlink" width="279.452813pt" height="292.774063pt" viewBox="0 0 279.452813 292.774063" xmlns="http://www.w3.org/2000/svg" version="1.1">
 <metadata>
  <rdf:RDF xmlns:dc="http://purl.org/dc/elements/1.1/" xmlns:cc="http://creativecommons.org/ns#" xmlns:rdf="http://www.w3.org/1999/02/22-rdf-syntax-ns#">
   <cc:Work>
    <dc:type rdf:resource="http://purl.org/dc/dcmitype/StillImage"/>
    <dc:date>2024-01-30T20:13:15.406395</dc:date>
    <dc:format>image/svg+xml</dc:format>
    <dc:creator>
     <cc:Agent>
      <dc:title>Matplotlib v3.7.1, https://matplotlib.org/</dc:title>
     </cc:Agent>
    </dc:creator>
   </cc:Work>
  </rdf:RDF>
 </metadata>
 <defs>
  <style type="text/css">*{stroke-linejoin: round; stroke-linecap: butt}</style>
 </defs>
 <g id="figure_1">
  <g id="patch_1">
   <path d="M 0 292.774063 
L 279.452813 292.774063 
L 279.452813 0 
L 0 0 
z
" style="fill: #ffffff"/>
  </g>
  <g id="axes_1">
   <g id="patch_2">
    <path d="M 49.432813 256.40375 
L 272.252813 256.40375 
L 272.252813 20.14375 
L 49.432813 20.14375 
z
" style="fill: #ffffff"/>
   </g>
   <g id="matplotlib.axis_1">
    <g id="xtick_1">
     <g id="line2d_1">
      <path d="M 82.938734 256.40375 
L 82.938734 20.14375 
" clip-path="url(#p90c3ec22d5)" style="fill: none; stroke-dasharray: 0.8,1.32; stroke-dashoffset: 0; stroke: #b0b0b0; stroke-width: 0.8"/>
     </g>
     <g id="line2d_2">
      <defs>
       <path id="me6032faff7" d="M 0 0 
L 0 3.5 
" style="stroke: #000000; stroke-width: 0.8"/>
      </defs>
      <g>
       <use xlink:href="#me6032faff7" x="82.938734" y="256.40375" style="stroke: #000000; stroke-width: 0.8"/>
      </g>
     </g>
     <g id="text_1">
      <!-- −10 -->
      <g transform="translate(74.632484 270.39125) scale(0.1 -0.1)">
       <defs>
        <path id="Cambria-2212" d="M 397 1613 
L 397 2047 
L 3147 2047 
L 3147 1613 
L 397 1613 
z
" transform="scale(0.015625)"/>
        <path id="Cambria-31" d="M 2172 816 
Q 2172 634 2192 542 
Q 2213 450 2264 392 
Q 2316 334 2412 301 
Q 2509 269 2656 251 
Q 2803 234 3044 228 
L 3044 0 
L 734 0 
L 734 228 
Q 1081 244 1229 270 
Q 1378 297 1456 350 
Q 1534 403 1570 500 
Q 1606 597 1606 816 
L 1606 3350 
Q 1606 3475 1562 3533 
Q 1519 3591 1434 3591 
Q 1334 3591 1150 3487 
Q 966 3384 694 3203 
L 556 3444 
L 2019 4316 
L 2191 4316 
Q 2172 4016 2172 3484 
L 2172 816 
z
" transform="scale(0.015625)"/>
        <path id="Cambria-30" d="M 1738 -50 
Q 1063 -50 733 481 
Q 403 1013 403 2094 
Q 403 2669 504 3087 
Q 606 3506 789 3779 
Q 972 4053 1228 4184 
Q 1484 4316 1788 4316 
Q 2472 4316 2806 3787 
Q 3141 3259 3141 2191 
Q 3141 1084 2783 517 
Q 2425 -50 1738 -50 
z
M 1013 2188 
Q 1013 1169 1202 692 
Q 1391 216 1788 216 
Q 2166 216 2348 664 
Q 2531 1113 2531 2053 
Q 2531 2772 2437 3217 
Q 2344 3663 2176 3856 
Q 2009 4050 1772 4050 
Q 1556 4050 1411 3922 
Q 1266 3794 1177 3553 
Q 1088 3313 1050 2967 
Q 1013 2622 1013 2188 
z
" transform="scale(0.015625)"/>
       </defs>
       <use xlink:href="#Cambria-2212"/>
       <use xlink:href="#Cambria-31" x="55.371094"/>
       <use xlink:href="#Cambria-30" x="110.742188"/>
      </g>
     </g>
    </g>
    <g id="xtick_2">
     <g id="line2d_3">
      <path d="M 121.892286 256.40375 
L 121.892286 20.14375 
" clip-path="url(#p90c3ec22d5)" style="fill: none; stroke-dasharray: 0.8,1.32; stroke-dashoffset: 0; stroke: #b0b0b0; stroke-width: 0.8"/>
     </g>
     <g id="line2d_4">
      <g>
       <use xlink:href="#me6032faff7" x="121.892286" y="256.40375" style="stroke: #000000; stroke-width: 0.8"/>
      </g>
     </g>
     <g id="text_2">
      <!-- −5 -->
      <g transform="translate(116.354786 270.39125) scale(0.1 -0.1)">
       <defs>
        <path id="Cambria-35" d="M 469 172 
L 469 834 
L 847 834 
Q 941 516 1130 366 
Q 1319 216 1619 216 
Q 2034 216 2246 466 
Q 2459 716 2459 1213 
Q 2459 1544 2346 1761 
Q 2234 1978 2043 2075 
Q 1853 2172 1600 2172 
Q 1388 2172 1234 2145 
Q 1081 2119 906 2063 
L 656 2209 
L 656 4266 
L 2378 4266 
Q 2484 4266 2531 4283 
Q 2578 4300 2606 4336 
Q 2634 4372 2672 4472 
L 2916 4472 
L 2869 3747 
L 1072 3747 
L 1072 2375 
Q 1234 2444 1425 2478 
Q 1616 2513 1806 2513 
Q 2178 2513 2465 2361 
Q 2753 2209 2909 1929 
Q 3066 1650 3066 1281 
Q 3066 863 2891 563 
Q 2716 263 2384 106 
Q 2053 -50 1600 -50 
Q 1059 -50 469 172 
z
" transform="scale(0.015625)"/>
       </defs>
       <use xlink:href="#Cambria-2212"/>
       <use xlink:href="#Cambria-35" x="55.371094"/>
      </g>
     </g>
    </g>
    <g id="xtick_3">
     <g id="line2d_5">
      <path d="M 160.845837 256.40375 
L 160.845837 20.14375 
" clip-path="url(#p90c3ec22d5)" style="fill: none; stroke-dasharray: 0.8,1.32; stroke-dashoffset: 0; stroke: #b0b0b0; stroke-width: 0.8"/>
     </g>
     <g id="line2d_6">
      <g>
       <use xlink:href="#me6032faff7" x="160.845837" y="256.40375" style="stroke: #000000; stroke-width: 0.8"/>
      </g>
     </g>
     <g id="text_3">
      <!-- 0 -->
      <g transform="translate(158.077087 270.39125) scale(0.1 -0.1)">
       <use xlink:href="#Cambria-30"/>
      </g>
     </g>
    </g>
    <g id="xtick_4">
     <g id="line2d_7">
      <path d="M 199.799388 256.40375 
L 199.799388 20.14375 
" clip-path="url(#p90c3ec22d5)" style="fill: none; stroke-dasharray: 0.8,1.32; stroke-dashoffset: 0; stroke: #b0b0b0; stroke-width: 0.8"/>
     </g>
     <g id="line2d_8">
      <g>
       <use xlink:href="#me6032faff7" x="199.799388" y="256.40375" style="stroke: #000000; stroke-width: 0.8"/>
      </g>
     </g>
     <g id="text_4">
      <!-- 5 -->
      <g transform="translate(197.030638 270.39125) scale(0.1 -0.1)">
       <use xlink:href="#Cambria-35"/>
      </g>
     </g>
    </g>
    <g id="xtick_5">
     <g id="line2d_9">
      <path d="M 238.75294 256.40375 
L 238.75294 20.14375 
" clip-path="url(#p90c3ec22d5)" style="fill: none; stroke-dasharray: 0.8,1.32; stroke-dashoffset: 0; stroke: #b0b0b0; stroke-width: 0.8"/>
     </g>
     <g id="line2d_10">
      <g>
       <use xlink:href="#me6032faff7" x="238.75294" y="256.40375" style="stroke: #000000; stroke-width: 0.8"/>
      </g>
     </g>
     <g id="text_5">
      <!-- 10 -->
      <g transform="translate(233.21544 270.39125) scale(0.1 -0.1)">
       <use xlink:href="#Cambria-31"/>
       <use xlink:href="#Cambria-30" x="55.371094"/>
      </g>
     </g>
    </g>
    <g id="text_6">
     <!-- Displacement (mm) -->
     <g transform="translate(120.993594 283.435) scale(0.1 -0.1)">
      <defs>
       <path id="TimesNewRomanPSMT-44" d="M 109 0 
L 109 116 
L 269 116 
Q 538 116 650 288 
Q 719 391 719 750 
L 719 3488 
Q 719 3884 631 3984 
Q 509 4122 269 4122 
L 109 4122 
L 109 4238 
L 1834 4238 
Q 2784 4238 3279 4022 
Q 3775 3806 4076 3303 
Q 4378 2800 4378 2141 
Q 4378 1256 3841 663 
Q 3238 0 2003 0 
L 109 0 
z
M 1319 306 
Q 1716 219 1984 219 
Q 2709 219 3187 728 
Q 3666 1238 3666 2109 
Q 3666 2988 3187 3494 
Q 2709 4000 1959 4000 
Q 1678 4000 1319 3909 
L 1319 306 
z
" transform="scale(0.015625)"/>
       <path id="TimesNewRomanPSMT-69" d="M 928 4444 
Q 1059 4444 1151 4351 
Q 1244 4259 1244 4128 
Q 1244 3997 1151 3903 
Q 1059 3809 928 3809 
Q 797 3809 703 3903 
Q 609 3997 609 4128 
Q 609 4259 701 4351 
Q 794 4444 928 4444 
z
M 1188 2947 
L 1188 647 
Q 1188 378 1227 289 
Q 1266 200 1342 156 
Q 1419 113 1622 113 
L 1622 0 
L 231 0 
L 231 113 
Q 441 113 512 153 
Q 584 194 626 287 
Q 669 381 669 647 
L 669 1750 
Q 669 2216 641 2353 
Q 619 2453 572 2492 
Q 525 2531 444 2531 
Q 356 2531 231 2484 
L 188 2597 
L 1050 2947 
L 1188 2947 
z
" transform="scale(0.015625)"/>
       <path id="TimesNewRomanPSMT-73" d="M 2050 2947 
L 2050 1972 
L 1947 1972 
Q 1828 2431 1642 2597 
Q 1456 2763 1169 2763 
Q 950 2763 815 2647 
Q 681 2531 681 2391 
Q 681 2216 781 2091 
Q 878 1963 1175 1819 
L 1631 1597 
Q 2266 1288 2266 781 
Q 2266 391 1970 151 
Q 1675 -88 1309 -88 
Q 1047 -88 709 6 
Q 606 38 541 38 
Q 469 38 428 -44 
L 325 -44 
L 325 978 
L 428 978 
Q 516 541 762 319 
Q 1009 97 1316 97 
Q 1531 97 1667 223 
Q 1803 350 1803 528 
Q 1803 744 1651 891 
Q 1500 1038 1047 1263 
Q 594 1488 453 1669 
Q 313 1847 313 2119 
Q 313 2472 555 2709 
Q 797 2947 1181 2947 
Q 1350 2947 1591 2875 
Q 1750 2828 1803 2828 
Q 1853 2828 1881 2850 
Q 1909 2872 1947 2947 
L 2050 2947 
z
" transform="scale(0.015625)"/>
       <path id="TimesNewRomanPSMT-70" d="M -6 2578 
L 875 2934 
L 994 2934 
L 994 2266 
Q 1216 2644 1439 2795 
Q 1663 2947 1909 2947 
Q 2341 2947 2628 2609 
Q 2981 2197 2981 1534 
Q 2981 794 2556 309 
Q 2206 -88 1675 -88 
Q 1444 -88 1275 -22 
Q 1150 25 994 166 
L 994 -706 
Q 994 -1000 1030 -1079 
Q 1066 -1159 1155 -1206 
Q 1244 -1253 1478 -1253 
L 1478 -1369 
L -22 -1369 
L -22 -1253 
L 56 -1253 
Q 228 -1256 350 -1188 
Q 409 -1153 442 -1076 
Q 475 -1000 475 -688 
L 475 2019 
Q 475 2297 450 2372 
Q 425 2447 370 2484 
Q 316 2522 222 2522 
Q 147 2522 31 2478 
L -6 2578 
z
M 994 2081 
L 994 1013 
Q 994 666 1022 556 
Q 1066 375 1236 237 
Q 1406 100 1666 100 
Q 1978 100 2172 344 
Q 2425 663 2425 1241 
Q 2425 1897 2138 2250 
Q 1938 2494 1663 2494 
Q 1513 2494 1366 2419 
Q 1253 2363 994 2081 
z
" transform="scale(0.015625)"/>
       <path id="TimesNewRomanPSMT-6c" d="M 1184 4444 
L 1184 647 
Q 1184 378 1223 290 
Q 1263 203 1344 158 
Q 1425 113 1647 113 
L 1647 0 
L 244 0 
L 244 113 
Q 441 113 512 153 
Q 584 194 625 287 
Q 666 381 666 647 
L 666 3247 
Q 666 3731 644 3842 
Q 622 3953 573 3993 
Q 525 4034 450 4034 
Q 369 4034 244 3984 
L 191 4094 
L 1044 4444 
L 1184 4444 
z
" transform="scale(0.015625)"/>
       <path id="TimesNewRomanPSMT-61" d="M 1822 413 
Q 1381 72 1269 19 
Q 1100 -59 909 -59 
Q 613 -59 420 144 
Q 228 347 228 678 
Q 228 888 322 1041 
Q 450 1253 767 1440 
Q 1084 1628 1822 1897 
L 1822 2009 
Q 1822 2438 1686 2597 
Q 1550 2756 1291 2756 
Q 1094 2756 978 2650 
Q 859 2544 859 2406 
L 866 2225 
Q 866 2081 792 2003 
Q 719 1925 600 1925 
Q 484 1925 411 2006 
Q 338 2088 338 2228 
Q 338 2497 613 2722 
Q 888 2947 1384 2947 
Q 1766 2947 2009 2819 
Q 2194 2722 2281 2516 
Q 2338 2381 2338 1966 
L 2338 994 
Q 2338 584 2353 492 
Q 2369 400 2405 369 
Q 2441 338 2488 338 
Q 2538 338 2575 359 
Q 2641 400 2828 588 
L 2828 413 
Q 2478 -56 2159 -56 
Q 2006 -56 1915 50 
Q 1825 156 1822 413 
z
M 1822 616 
L 1822 1706 
Q 1350 1519 1213 1441 
Q 966 1303 859 1153 
Q 753 1003 753 825 
Q 753 600 887 451 
Q 1022 303 1197 303 
Q 1434 303 1822 616 
z
" transform="scale(0.015625)"/>
       <path id="TimesNewRomanPSMT-63" d="M 2631 1088 
Q 2516 522 2178 217 
Q 1841 -88 1431 -88 
Q 944 -88 581 321 
Q 219 731 219 1428 
Q 219 2103 620 2525 
Q 1022 2947 1584 2947 
Q 2006 2947 2278 2723 
Q 2550 2500 2550 2259 
Q 2550 2141 2473 2067 
Q 2397 1994 2259 1994 
Q 2075 1994 1981 2113 
Q 1928 2178 1911 2362 
Q 1894 2547 1784 2644 
Q 1675 2738 1481 2738 
Q 1169 2738 978 2506 
Q 725 2200 725 1697 
Q 725 1184 976 792 
Q 1228 400 1656 400 
Q 1963 400 2206 609 
Q 2378 753 2541 1131 
L 2631 1088 
z
" transform="scale(0.015625)"/>
       <path id="TimesNewRomanPSMT-65" d="M 681 1784 
Q 678 1147 991 784 
Q 1303 422 1725 422 
Q 2006 422 2214 576 
Q 2422 731 2563 1106 
L 2659 1044 
Q 2594 616 2278 264 
Q 1963 -88 1488 -88 
Q 972 -88 605 314 
Q 238 716 238 1394 
Q 238 2128 614 2539 
Q 991 2950 1559 2950 
Q 2041 2950 2350 2633 
Q 2659 2316 2659 1784 
L 681 1784 
z
M 681 1966 
L 2006 1966 
Q 1991 2241 1941 2353 
Q 1863 2528 1708 2628 
Q 1553 2728 1384 2728 
Q 1125 2728 920 2526 
Q 716 2325 681 1966 
z
" transform="scale(0.015625)"/>
       <path id="TimesNewRomanPSMT-6d" d="M 1050 2338 
Q 1363 2650 1419 2697 
Q 1559 2816 1721 2881 
Q 1884 2947 2044 2947 
Q 2313 2947 2506 2790 
Q 2700 2634 2766 2338 
Q 3088 2713 3309 2830 
Q 3531 2947 3766 2947 
Q 3994 2947 4170 2830 
Q 4347 2713 4450 2447 
Q 4519 2266 4519 1878 
L 4519 647 
Q 4519 378 4559 278 
Q 4591 209 4675 161 
Q 4759 113 4950 113 
L 4950 0 
L 3538 0 
L 3538 113 
L 3597 113 
Q 3781 113 3884 184 
Q 3956 234 3988 344 
Q 4000 397 4000 647 
L 4000 1878 
Q 4000 2228 3916 2372 
Q 3794 2572 3525 2572 
Q 3359 2572 3192 2489 
Q 3025 2406 2788 2181 
L 2781 2147 
L 2788 2013 
L 2788 647 
Q 2788 353 2820 281 
Q 2853 209 2943 161 
Q 3034 113 3253 113 
L 3253 0 
L 1806 0 
L 1806 113 
Q 2044 113 2133 169 
Q 2222 225 2256 338 
Q 2272 391 2272 647 
L 2272 1878 
Q 2272 2228 2169 2381 
Q 2031 2581 1784 2581 
Q 1616 2581 1450 2491 
Q 1191 2353 1050 2181 
L 1050 647 
Q 1050 366 1089 281 
Q 1128 197 1204 155 
Q 1281 113 1516 113 
L 1516 0 
L 100 0 
L 100 113 
Q 297 113 375 155 
Q 453 197 493 289 
Q 534 381 534 647 
L 534 1741 
Q 534 2213 506 2350 
Q 484 2453 437 2492 
Q 391 2531 309 2531 
Q 222 2531 100 2484 
L 53 2597 
L 916 2947 
L 1050 2947 
L 1050 2338 
z
" transform="scale(0.015625)"/>
       <path id="TimesNewRomanPSMT-6e" d="M 1034 2341 
Q 1538 2947 1994 2947 
Q 2228 2947 2397 2830 
Q 2566 2713 2666 2444 
Q 2734 2256 2734 1869 
L 2734 647 
Q 2734 375 2778 278 
Q 2813 200 2889 156 
Q 2966 113 3172 113 
L 3172 0 
L 1756 0 
L 1756 113 
L 1816 113 
Q 2016 113 2095 173 
Q 2175 234 2206 353 
Q 2219 400 2219 647 
L 2219 1819 
Q 2219 2209 2117 2386 
Q 2016 2563 1775 2563 
Q 1403 2563 1034 2156 
L 1034 647 
Q 1034 356 1069 288 
Q 1113 197 1189 155 
Q 1266 113 1500 113 
L 1500 0 
L 84 0 
L 84 113 
L 147 113 
Q 366 113 442 223 
Q 519 334 519 647 
L 519 1709 
Q 519 2225 495 2337 
Q 472 2450 423 2490 
Q 375 2531 294 2531 
Q 206 2531 84 2484 
L 38 2597 
L 900 2947 
L 1034 2947 
L 1034 2341 
z
" transform="scale(0.015625)"/>
       <path id="TimesNewRomanPSMT-74" d="M 1031 3803 
L 1031 2863 
L 1700 2863 
L 1700 2644 
L 1031 2644 
L 1031 788 
Q 1031 509 1111 412 
Q 1191 316 1316 316 
Q 1419 316 1516 380 
Q 1613 444 1666 569 
L 1788 569 
Q 1678 263 1478 108 
Q 1278 -47 1066 -47 
Q 922 -47 784 33 
Q 647 113 581 261 
Q 516 409 516 719 
L 516 2644 
L 63 2644 
L 63 2747 
Q 234 2816 414 2980 
Q 594 3144 734 3369 
Q 806 3488 934 3803 
L 1031 3803 
z
" transform="scale(0.015625)"/>
       <path id="TimesNewRomanPSMT-20" transform="scale(0.015625)"/>
       <path id="TimesNewRomanPSMT-28" d="M 1988 -1253 
L 1988 -1369 
Q 1516 -1131 1200 -813 
Q 750 -359 506 256 
Q 263 872 263 1534 
Q 263 2503 741 3301 
Q 1219 4100 1988 4444 
L 1988 4313 
Q 1603 4100 1356 3731 
Q 1109 3363 987 2797 
Q 866 2231 866 1616 
Q 866 947 969 400 
Q 1050 -31 1165 -292 
Q 1281 -553 1476 -793 
Q 1672 -1034 1988 -1253 
z
" transform="scale(0.015625)"/>
       <path id="TimesNewRomanPSMT-29" d="M 144 4313 
L 144 4444 
Q 619 4209 934 3891 
Q 1381 3434 1625 2820 
Q 1869 2206 1869 1541 
Q 1869 572 1392 -226 
Q 916 -1025 144 -1369 
L 144 -1253 
Q 528 -1038 776 -670 
Q 1025 -303 1145 264 
Q 1266 831 1266 1447 
Q 1266 2113 1163 2663 
Q 1084 3094 967 3353 
Q 850 3613 656 3853 
Q 463 4094 144 4313 
z
" transform="scale(0.015625)"/>
      </defs>
      <use xlink:href="#TimesNewRomanPSMT-44"/>
      <use xlink:href="#TimesNewRomanPSMT-69" x="72.216797"/>
      <use xlink:href="#TimesNewRomanPSMT-73" x="100"/>
      <use xlink:href="#TimesNewRomanPSMT-70" x="138.916016"/>
      <use xlink:href="#TimesNewRomanPSMT-6c" x="188.916016"/>
      <use xlink:href="#TimesNewRomanPSMT-61" x="216.699219"/>
      <use xlink:href="#TimesNewRomanPSMT-63" x="261.083984"/>
      <use xlink:href="#TimesNewRomanPSMT-65" x="305.46875"/>
      <use xlink:href="#TimesNewRomanPSMT-6d" x="349.853516"/>
      <use xlink:href="#TimesNewRomanPSMT-65" x="427.636719"/>
      <use xlink:href="#TimesNewRomanPSMT-6e" x="472.021484"/>
      <use xlink:href="#TimesNewRomanPSMT-74" x="522.021484"/>
      <use xlink:href="#TimesNewRomanPSMT-20" x="549.804688"/>
      <use xlink:href="#TimesNewRomanPSMT-28" x="574.804688"/>
      <use xlink:href="#TimesNewRomanPSMT-6d" x="608.105469"/>
      <use xlink:href="#TimesNewRomanPSMT-6d" x="685.888672"/>
      <use xlink:href="#TimesNewRomanPSMT-29" x="763.671875"/>
     </g>
    </g>
   </g>
   <g id="matplotlib.axis_2">
    <g id="ytick_1">
     <g id="line2d_11">
      <path d="M 49.432813 240.746692 
L 272.252813 240.746692 
" clip-path="url(#p90c3ec22d5)" style="fill: none; stroke-dasharray: 0.8,1.32; stroke-dashoffset: 0; stroke: #b0b0b0; stroke-width: 0.8"/>
     </g>
     <g id="line2d_12">
      <defs>
       <path id="meafef677dc" d="M 0 0 
L -3.5 0 
" style="stroke: #000000; stroke-width: 0.8"/>
      </defs>
      <g>
       <use xlink:href="#meafef677dc" x="49.432813" y="240.746692" style="stroke: #000000; stroke-width: 0.8"/>
      </g>
     </g>
     <g id="text_7">
      <!-- −200 -->
      <g transform="translate(20.282813 244.240442) scale(0.1 -0.1)">
       <defs>
        <path id="Cambria-32" d="M 2194 500 
Q 2347 500 2440 519 
Q 2534 538 2590 581 
Q 2647 625 2680 695 
Q 2713 766 2763 913 
L 3028 913 
L 2975 0 
L 403 0 
L 403 150 
Q 538 478 766 822 
Q 994 1166 1413 1631 
Q 1775 2031 1934 2238 
Q 2109 2463 2195 2627 
Q 2281 2791 2318 2936 
Q 2356 3081 2356 3228 
Q 2356 3463 2281 3642 
Q 2206 3822 2051 3925 
Q 1897 4028 1663 4028 
Q 1078 4028 875 3378 
L 497 3378 
L 497 3978 
Q 875 4156 1204 4236 
Q 1534 4316 1797 4316 
Q 2378 4316 2675 4061 
Q 2972 3806 2972 3322 
Q 2972 3156 2939 3017 
Q 2906 2878 2836 2742 
Q 2766 2606 2647 2450 
Q 2528 2294 2384 2133 
Q 2241 1972 1888 1597 
Q 1294 969 1016 500 
L 2194 500 
z
" transform="scale(0.015625)"/>
       </defs>
       <use xlink:href="#Cambria-2212"/>
       <use xlink:href="#Cambria-32" x="55.371094"/>
       <use xlink:href="#Cambria-30" x="110.742188"/>
       <use xlink:href="#Cambria-30" x="166.113281"/>
      </g>
     </g>
    </g>
    <g id="ytick_2">
     <g id="line2d_13">
      <path d="M 49.432813 189.529393 
L 272.252813 189.529393 
" clip-path="url(#p90c3ec22d5)" style="fill: none; stroke-dasharray: 0.8,1.32; stroke-dashoffset: 0; stroke: #b0b0b0; stroke-width: 0.8"/>
     </g>
     <g id="line2d_14">
      <g>
       <use xlink:href="#meafef677dc" x="49.432813" y="189.529393" style="stroke: #000000; stroke-width: 0.8"/>
      </g>
     </g>
     <g id="text_8">
      <!-- −100 -->
      <g transform="translate(20.282813 193.023143) scale(0.1 -0.1)">
       <use xlink:href="#Cambria-2212"/>
       <use xlink:href="#Cambria-31" x="55.371094"/>
       <use xlink:href="#Cambria-30" x="110.742188"/>
       <use xlink:href="#Cambria-30" x="166.113281"/>
      </g>
     </g>
    </g>
    <g id="ytick_3">
     <g id="line2d_15">
      <path d="M 49.432813 138.312094 
L 272.252813 138.312094 
" clip-path="url(#p90c3ec22d5)" style="fill: none; stroke-dasharray: 0.8,1.32; stroke-dashoffset: 0; stroke: #b0b0b0; stroke-width: 0.8"/>
     </g>
     <g id="line2d_16">
      <g>
       <use xlink:href="#meafef677dc" x="49.432813" y="138.312094" style="stroke: #000000; stroke-width: 0.8"/>
      </g>
     </g>
     <g id="text_9">
      <!-- 0 -->
      <g transform="translate(36.895313 141.805844) scale(0.1 -0.1)">
       <use xlink:href="#Cambria-30"/>
      </g>
     </g>
    </g>
    <g id="ytick_4">
     <g id="line2d_17">
      <path d="M 49.432813 87.094795 
L 272.252813 87.094795 
" clip-path="url(#p90c3ec22d5)" style="fill: none; stroke-dasharray: 0.8,1.32; stroke-dashoffset: 0; stroke: #b0b0b0; stroke-width: 0.8"/>
     </g>
     <g id="line2d_18">
      <g>
       <use xlink:href="#meafef677dc" x="49.432813" y="87.094795" style="stroke: #000000; stroke-width: 0.8"/>
      </g>
     </g>
     <g id="text_10">
      <!-- 100 -->
      <g transform="translate(25.820313 90.588545) scale(0.1 -0.1)">
       <use xlink:href="#Cambria-31"/>
       <use xlink:href="#Cambria-30" x="55.371094"/>
       <use xlink:href="#Cambria-30" x="110.742188"/>
      </g>
     </g>
    </g>
    <g id="ytick_5">
     <g id="line2d_19">
      <path d="M 49.432813 35.877496 
L 272.252813 35.877496 
" clip-path="url(#p90c3ec22d5)" style="fill: none; stroke-dasharray: 0.8,1.32; stroke-dashoffset: 0; stroke: #b0b0b0; stroke-width: 0.8"/>
     </g>
     <g id="line2d_20">
      <g>
       <use xlink:href="#meafef677dc" x="49.432813" y="35.877496" style="stroke: #000000; stroke-width: 0.8"/>
      </g>
     </g>
     <g id="text_11">
      <!-- 200 -->
      <g transform="translate(25.820313 39.371246) scale(0.1 -0.1)">
       <use xlink:href="#Cambria-32"/>
       <use xlink:href="#Cambria-30" x="55.371094"/>
       <use xlink:href="#Cambria-30" x="110.742188"/>
      </g>
     </g>
    </g>
    <g id="text_12">
     <!-- Base Shear (kN) -->
     <g transform="translate(14.14375 171.319063) rotate(-90) scale(0.1 -0.1)">
      <defs>
       <path id="TimesNewRomanPSMT-42" d="M 2956 2163 
Q 3397 2069 3616 1863 
Q 3919 1575 3919 1159 
Q 3919 844 3719 555 
Q 3519 266 3170 133 
Q 2822 0 2106 0 
L 106 0 
L 106 116 
L 266 116 
Q 531 116 647 284 
Q 719 394 719 750 
L 719 3488 
Q 719 3881 628 3984 
Q 506 4122 266 4122 
L 106 4122 
L 106 4238 
L 1938 4238 
Q 2450 4238 2759 4163 
Q 3228 4050 3475 3764 
Q 3722 3478 3722 3106 
Q 3722 2788 3528 2536 
Q 3334 2284 2956 2163 
z
M 1319 2331 
Q 1434 2309 1582 2298 
Q 1731 2288 1909 2288 
Q 2366 2288 2595 2386 
Q 2825 2484 2947 2687 
Q 3069 2891 3069 3131 
Q 3069 3503 2766 3765 
Q 2463 4028 1881 4028 
Q 1569 4028 1319 3959 
L 1319 2331 
z
M 1319 306 
Q 1681 222 2034 222 
Q 2600 222 2897 476 
Q 3194 731 3194 1106 
Q 3194 1353 3059 1581 
Q 2925 1809 2622 1940 
Q 2319 2072 1872 2072 
Q 1678 2072 1540 2065 
Q 1403 2059 1319 2044 
L 1319 306 
z
" transform="scale(0.015625)"/>
       <path id="TimesNewRomanPSMT-53" d="M 2934 4334 
L 2934 2869 
L 2819 2869 
Q 2763 3291 2617 3541 
Q 2472 3791 2203 3937 
Q 1934 4084 1647 4084 
Q 1322 4084 1109 3886 
Q 897 3688 897 3434 
Q 897 3241 1031 3081 
Q 1225 2847 1953 2456 
Q 2547 2138 2764 1967 
Q 2981 1797 3098 1565 
Q 3216 1334 3216 1081 
Q 3216 600 2842 251 
Q 2469 -97 1881 -97 
Q 1697 -97 1534 -69 
Q 1438 -53 1133 45 
Q 828 144 747 144 
Q 669 144 623 97 
Q 578 50 556 -97 
L 441 -97 
L 441 1356 
L 556 1356 
Q 638 900 775 673 
Q 913 447 1195 297 
Q 1478 147 1816 147 
Q 2206 147 2432 353 
Q 2659 559 2659 841 
Q 2659 997 2573 1156 
Q 2488 1316 2306 1453 
Q 2184 1547 1640 1851 
Q 1097 2156 867 2337 
Q 638 2519 519 2737 
Q 400 2956 400 3219 
Q 400 3675 750 4004 
Q 1100 4334 1641 4334 
Q 1978 4334 2356 4169 
Q 2531 4091 2603 4091 
Q 2684 4091 2736 4139 
Q 2788 4188 2819 4334 
L 2934 4334 
z
" transform="scale(0.015625)"/>
       <path id="TimesNewRomanPSMT-68" d="M 1041 4444 
L 1041 2350 
Q 1388 2731 1591 2839 
Q 1794 2947 1997 2947 
Q 2241 2947 2416 2812 
Q 2591 2678 2675 2391 
Q 2734 2191 2734 1659 
L 2734 647 
Q 2734 375 2778 275 
Q 2809 200 2884 156 
Q 2959 113 3159 113 
L 3159 0 
L 1753 0 
L 1753 113 
L 1819 113 
Q 2019 113 2097 173 
Q 2175 234 2206 353 
Q 2216 403 2216 647 
L 2216 1659 
Q 2216 2128 2167 2275 
Q 2119 2422 2012 2495 
Q 1906 2569 1756 2569 
Q 1603 2569 1437 2487 
Q 1272 2406 1041 2159 
L 1041 647 
Q 1041 353 1073 281 
Q 1106 209 1195 161 
Q 1284 113 1503 113 
L 1503 0 
L 84 0 
L 84 113 
Q 275 113 384 172 
Q 447 203 484 290 
Q 522 378 522 647 
L 522 3238 
Q 522 3728 498 3840 
Q 475 3953 426 3993 
Q 378 4034 297 4034 
Q 231 4034 84 3984 
L 41 4094 
L 897 4444 
L 1041 4444 
z
" transform="scale(0.015625)"/>
       <path id="TimesNewRomanPSMT-72" d="M 1038 2947 
L 1038 2303 
Q 1397 2947 1775 2947 
Q 1947 2947 2059 2842 
Q 2172 2738 2172 2600 
Q 2172 2478 2090 2393 
Q 2009 2309 1897 2309 
Q 1788 2309 1652 2417 
Q 1516 2525 1450 2525 
Q 1394 2525 1328 2463 
Q 1188 2334 1038 2041 
L 1038 669 
Q 1038 431 1097 309 
Q 1138 225 1241 169 
Q 1344 113 1538 113 
L 1538 0 
L 72 0 
L 72 113 
Q 291 113 397 181 
Q 475 231 506 341 
Q 522 394 522 644 
L 522 1753 
Q 522 2253 501 2348 
Q 481 2444 426 2487 
Q 372 2531 291 2531 
Q 194 2531 72 2484 
L 41 2597 
L 906 2947 
L 1038 2947 
z
" transform="scale(0.015625)"/>
       <path id="TimesNewRomanPSMT-6b" d="M 1047 4444 
L 1047 1597 
L 1775 2259 
Q 2006 2472 2044 2528 
Q 2069 2566 2069 2603 
Q 2069 2666 2017 2711 
Q 1966 2756 1847 2763 
L 1847 2863 
L 3091 2863 
L 3091 2763 
Q 2834 2756 2664 2684 
Q 2494 2613 2291 2428 
L 1556 1750 
L 2291 822 
Q 2597 438 2703 334 
Q 2853 188 2966 144 
Q 3044 113 3238 113 
L 3238 0 
L 1847 0 
L 1847 113 
Q 1966 116 2008 148 
Q 2050 181 2050 241 
Q 2050 313 1925 472 
L 1047 1594 
L 1047 644 
Q 1047 366 1086 278 
Q 1125 191 1197 153 
Q 1269 116 1509 113 
L 1509 0 
L 53 0 
L 53 113 
Q 272 113 381 166 
Q 447 200 481 272 
Q 528 375 528 628 
L 528 3234 
Q 528 3731 506 3842 
Q 484 3953 434 3995 
Q 384 4038 303 4038 
Q 238 4038 106 3984 
L 53 4094 
L 903 4444 
L 1047 4444 
z
" transform="scale(0.015625)"/>
       <path id="TimesNewRomanPSMT-4e" d="M -84 4238 
L 1066 4238 
L 3656 1059 
L 3656 3503 
Q 3656 3894 3569 3991 
Q 3453 4122 3203 4122 
L 3056 4122 
L 3056 4238 
L 4531 4238 
L 4531 4122 
L 4381 4122 
Q 4113 4122 4000 3959 
Q 3931 3859 3931 3503 
L 3931 -69 
L 3819 -69 
L 1025 3344 
L 1025 734 
Q 1025 344 1109 247 
Q 1228 116 1475 116 
L 1625 116 
L 1625 0 
L 150 0 
L 150 116 
L 297 116 
Q 569 116 681 278 
Q 750 378 750 734 
L 750 3681 
Q 566 3897 470 3965 
Q 375 4034 191 4094 
Q 100 4122 -84 4122 
L -84 4238 
z
" transform="scale(0.015625)"/>
      </defs>
      <use xlink:href="#TimesNewRomanPSMT-42"/>
      <use xlink:href="#TimesNewRomanPSMT-61" x="66.699219"/>
      <use xlink:href="#TimesNewRomanPSMT-73" x="111.083984"/>
      <use xlink:href="#TimesNewRomanPSMT-65" x="150"/>
      <use xlink:href="#TimesNewRomanPSMT-20" x="194.384766"/>
      <use xlink:href="#TimesNewRomanPSMT-53" x="219.384766"/>
      <use xlink:href="#TimesNewRomanPSMT-68" x="275"/>
      <use xlink:href="#TimesNewRomanPSMT-65" x="325"/>
      <use xlink:href="#TimesNewRomanPSMT-61" x="369.384766"/>
      <use xlink:href="#TimesNewRomanPSMT-72" x="413.769531"/>
      <use xlink:href="#TimesNewRomanPSMT-20" x="447.070312"/>
      <use xlink:href="#TimesNewRomanPSMT-28" x="472.070312"/>
      <use xlink:href="#TimesNewRomanPSMT-6b" x="505.371094"/>
      <use xlink:href="#TimesNewRomanPSMT-4e" x="555.371094"/>
      <use xlink:href="#TimesNewRomanPSMT-29" x="627.587891"/>
     </g>
    </g>
   </g>
   <g id="line2d_21">
    <path d="M 162.044827 139.341234 
L 161.457018 129.057727 
L 162.667149 118.776853 
L 165.670468 112.611668 
L 167.475965 105.759219 
L 169.262297 116.044482 
L 169.850885 125.642486 
L 168.638417 137.979888 
L 165.03124 148.257244 
L 161.425544 157.163584 
L 159.017669 166.757193 
L 156.610495 175.66529 
L 154.807258 180.461217 
L 153.626342 164.692757 
L 155.439629 150.985221 
L 158.445208 142.763507 
L 160.253821 133.169022 
L 162.661774 123.575412 
L 163.871048 113.980046 
L 166.876704 105.758338 
L 169.879244 100.27866 
L 173.479564 96.170879 
L 174.664376 108.511795 
L 174.055843 116.737022 
L 172.844933 127.703409 
L 169.837797 137.296132 
L 166.83292 144.832338 
L 162.026363 155.793449 
L 158.420667 164.699789 
L 156.012013 174.978907 
L 168.6346 141.407432 
L 150.6023 189.366676 
L 150.013789 179.768677 
L 150.027579 167.429518 
L 154.835694 155.097391 
L 156.643528 146.188413 
L 160.256937 130.426986 
L 163.869568 115.351066 
L 168.677604 103.01894 
L 171.080961 97.538386 
L 174.683541 91.374077 
L 176.48522 87.949171 
L 179.47475 94.12314 
L 179.465557 102.349248 
L 178.853986 113.31651 
L 174.646691 124.278498 
L 171.636438 136.613262 
L 166.225946 151.686544 
L 162.020209 161.277516 
L 159.613113 170.185618 
L 155.403481 183.204133 
L 148.80062 192.791587 
L 144.600258 197.583994 
L 143.407033 192.783674 
L 142.223079 179.75725 
L 147.632013 166.054984 
L 153.041727 151.66721 
L 157.250502 139.334207 
L 162.062434 123.574536 
L 166.872107 109.871389 
L 171.681001 96.853749 
L 175.886738 87.262783 
L 178.887019 83.839634 
L 181.289518 79.044588 
L 184.871375 91.389017 
L 185.457626 103.043544 
L 180.647953 116.746692 
L 173.441935 129.760813 
L 166.832141 145.517846 
L 162.01943 161.963024 
L 157.209056 176.351679 
L 152.4032 186.627277 
L 140.39756 204.432935 
L 137.996619 207.85696 
L 133.799296 209.907332 
L 133.810826 199.624702 
L 136.227193 182.490502 
L 139.834369 172.213137 
L 145.840306 160.568279 
L 151.847723 147.552402 
L 154.854937 137.959673 
L 160.263871 124.257406 
L 164.474984 109.867876 
L 169.88236 97.536625 
L 175.885959 87.94829 
L 180.087879 81.784867 
L 183.690459 75.620558 
L 187.291559 70.827269 
L 190.894217 64.66296 
L 191.481169 75.631985 
L 191.46738 87.971144 
L 188.457127 100.305908 
L 182.451191 111.950765 
L 174.645133 125.649518 
L 159.624565 159.902982 
L 148.205955 188.677654 
L 138.002695 202.372889 
L 129.005048 209.900305 
L 125.403169 215.379102 
L 123.6145 207.150361 
L 124.22685 195.497586 
L 129.634226 183.16634 
L 133.8423 171.51884 
L 138.049596 160.556853 
L 142.854594 150.966762 
L 148.259711 140.692039 
L 151.865407 131.785699 
L 146.465666 137.261858 
L 165.672727 110.55514 
L 180.688698 80.414728 
L 188.490939 70.143513 
L 193.295158 61.238935 
L 198.094859 56.447403 
L 200.493463 55.079901 
L 200.485828 61.934994 
L 201.075117 70.847485 
L 199.866544 79.757338 
L 194.456052 94.830625 
L 188.452453 104.418959 
L 181.247214 116.747573 
L 175.238239 131.134466 
L 169.230044 144.835851 
L 160.820128 162.646775 
L 154.208775 179.774828 
L 145.202558 194.842839 
L 137.3965 208.541587 
L 128.397295 217.440024 
L 121.199692 222.913545 
L 117.602487 224.279285 
L 116.414637 214.680411 
L 116.423908 206.454303 
L 118.234002 195.488802 
L 124.841537 181.788293 
L 130.843578 173.570974 
L 138.648857 160.557734 
L 144.056233 148.226483 
L 150.059131 139.323661 
L 157.871344 120.140837 
L 162.674784 111.921766 
L 175.875208 97.545413 
L 181.284921 83.157639 
L 187.89082 70.82815 
L 192.095077 62.608199 
L 199.295719 54.392632 
L 199.281072 67.417303 
L 198.064865 83.182249 
L 195.05617 94.145993 
L 187.850153 107.160114 
L 183.645117 116.065579 
L 175.837579 131.135347 
L 171.027906 144.838489 
L 165.622088 155.79872 
L 159.61693 166.758069 
L 155.410414 177.034554 
L 144.597142 200.32603 
L 131.395238 216.073398 
L 123.599152 220.860536 
L 116.405444 222.906518 
L 116.423129 207.139811 
L 118.834042 194.80417 
L 124.239159 184.529448 
L 132.646037 169.46056 
L 142.852335 153.02329 
L 148.265087 135.89348 
L 159.673024 116.715931 
L 168.678383 102.333432 
L 180.084762 84.526898 
L 191.494258 63.978333 
L 198.098676 53.019865 
L 203.497639 48.229208 
L 210.692827 44.812211 
L 215.487152 44.819243 
L 215.47718 53.730853 
L 214.267828 63.326219 
L 211.858395 74.290844 
L 207.653437 83.196308 
L 202.250657 91.414503 
L 194.44382 105.798764 
L 187.838623 117.442745 
L 180.036382 127.713954 
L 173.432742 137.986915 
L 165.026644 152.370295 
L 156.01583 171.551358 
L 149.410633 183.195344 
L 144.007853 191.413539 
L 135.604793 203.054883 
L 127.203291 213.325211 
L 120.001169 222.911784 
L 111.603484 229.754573 
L 106.206859 232.488701 
L 104.410555 231.115038 
L 104.42824 215.348341 
L 106.236074 206.439363 
L 112.241154 195.480013 
L 120.645772 182.467649 
L 128.451051 169.454404 
L 137.457969 153.70089 
L 145.26021 143.42968 
L 153.063229 132.472963 
L 162.672525 113.978289 
L 171.076286 101.651433 
L 178.876969 92.751249 
L 184.881347 82.477402 
L 192.686626 69.464162 
L 199.887268 61.248605 
L 204.690007 53.715037 
L 210.689009 48.239759 
L 214.286993 46.188501 
L 216.073325 56.473775 
L 215.464871 64.698997 
L 212.457657 74.291725 
L 205.848641 89.36325 
L 200.445862 97.581445 
L 194.443041 106.484271 
L 191.436606 115.391492 
L 183.032845 127.718349 
L 174.033562 136.616776 
L 163.826485 153.739559 
L 144.008632 190.728026 
L 128.405709 209.899419 
L 117.607083 220.166234 
L 109.810998 224.953372 
L 105.015971 225.631852 
L 104.42824 215.348341 
L 107.437714 203.699084 
L 111.041073 196.849272 
L 115.844591 188.630196 
L 125.448511 174.934081 
L 132.057527 159.862556 
L 142.259929 146.85283 
L 150.063728 135.210605 
L 156.669705 122.881116 
L 165.071908 111.92528 
L 175.27283 100.286568 
L 187.275432 85.222956 
L 197.480172 70.156702 
L 207.08565 55.089571 
L 213.686953 46.873133 
L 222.085416 39.344841 
L 226.881222 37.980857 
L 229.272191 43.468432 
L 229.259881 54.436576 
L 226.848968 66.772222 
L 220.24603 76.359675 
L 211.239112 92.113199 
L 204.031614 106.498336 
L 195.028513 118.824311 
L 184.225213 133.204177 
L 175.822932 144.160013 
L 163.223406 157.166221 
L 155.411193 176.349041 
L 147.000421 194.845477 
L 135.597937 209.224457 
L 123.599152 220.860536 
L 115.200689 228.388828 
L 104.407439 233.857074 
L 100.209415 236.592959 
L 94.81427 237.956071 
L 94.224981 229.043575 
L 93.038689 218.073675 
L 95.448901 206.423542 
L 104.452002 194.097566 
L 112.85662 181.085207 
L 123.057464 169.446496 
L 133.261503 155.065754 
L 142.866903 139.998623 
L 153.070085 126.303389 
L 168.672229 107.817499 
L 179.480904 88.639073 
L 192.084326 72.205322 
L 205.283191 59.199985 
L 211.882235 53.040075 
L 218.481979 46.194652 
L 225.078763 42.091266 
L 228.075148 42.095665 
L 229.859221 54.437462 
L 229.843094 68.833144 
L 220.239174 82.529259 
L 210.035914 96.224494 
L 203.432274 106.497455 
L 194.426136 121.565466 
L 186.624674 131.151163 
L 174.625188 143.472744 
L 164.420449 158.538999 
L 151.218467 174.286367 
L 134.417021 193.455998 
L 124.808504 211.26517 
L 114.609919 220.847353 
L 105.615233 225.632728 
L 92.420964 234.525014 
L 91.23475 223.555114 
L 94.845822 209.85021 
L 103.250363 196.837845 
L 120.0603 170.127609 
L 130.265819 154.375852 
L 141.666043 142.05339 
L 153.667087 128.360793 
L 169.265413 113.302451 
L 183.665918 97.55684 
L 195.073777 78.379291 
L 202.277535 67.421698 
L 211.27752 57.837758 
L 217.878121 50.306833 
L 223.277083 45.516172 
L 227.473627 44.151313 
L 229.262219 52.380053 
L 226.849747 66.086714 
L 222.643932 75.677686 
L 217.238114 86.637916 
L 208.835833 97.593752 
L 202.232193 107.866713 
L 196.826298 118.826944 
L 189.627993 124.985978 
L 181.224232 137.312834 
L 167.422988 153.059321 
L 153.018666 172.232476 
L 145.211829 186.616732 
L 135.012465 196.884422 
L 127.210225 207.155637 
L 118.2125 214.683043 
L 108.617071 220.838564 
L 94.224981 229.043575 
L 91.828636 228.354554 
L 92.442544 215.330763 
L 95.448901 206.423542 
L 101.454059 195.464192 
L 109.257078 184.50748 
L 117.05776 175.607287 
L 127.860204 161.912928 
L 136.264822 148.900569 
L 160.868508 119.459723 
L 171.073248 104.393469 
L 181.273391 93.44027 
L 193.271319 82.489709 
L 209.477398 59.891649 
L 225.077205 43.462286 
L 230.476167 38.671635 
L 238.870735 34.570881 
L 244.859766 38.007214 
L 245.445939 49.661746 
L 243.634287 61.998272 
L 235.22741 77.06716 
L 228.024508 87.339245 
L 219.019071 101.721744 
L 208.818148 113.360455 
L 197.417924 125.682912 
L 187.812446 140.750043 
L 179.408685 153.076899 
L 170.407843 163.346347 
L 163.808099 170.191769 
L 153.608735 180.45946 
L 133.202294 207.849933 
L 120.605027 218.799613 
L 111.005002 229.068185 
L 100.809455 235.908332 
L 94.214229 238.640698 
L 86.42126 240.685795 
L 82.825535 240.680529 
L 83.436327 230.398774 
L 83.451675 216.688595 
L 88.860609 202.986334 
L 96.663629 192.029617 
L 106.267549 178.333501 
L 117.069291 165.324656 
L 134.470777 145.470388 
L 142.27068 137.255706 
L 153.670905 124.933249 
L 161.475482 112.605517 
L 174.077346 97.542776 
L 187.275432 85.222956 
L 199.875036 72.216748 
L 208.873462 64.003824 
L 217.272705 55.790019 
L 225.07105 48.946353 
L 232.268654 43.472837 
L 238.864581 40.054953 
L 243.659685 39.376472 
L 247.24458 48.978876 
L 245.432928 61.315392 
L 227.42291 89.394892 
L 219.020629 100.350723 
L 210.019787 110.620176 
L 200.416646 123.630783 
L 192.012885 135.957635 
L 178.8155 147.591952 
L 171.615637 155.122001 
L 162.613316 166.762469 
L 151.213091 179.084926 
L 139.213606 191.406507 
L 127.213341 204.413601 
L 116.416195 213.309395 
L 105.616012 224.94722 
L 93.025679 229.727331 
L 85.230372 233.828956 
L 82.844778 223.542801 
L 87.05667 208.467768 
L 94.861949 195.454523 
L 102.06485 185.182442 
L 111.670329 170.115307 
L 124.267595 159.165622 
L 131.469795 149.579044 
L 148.871282 129.724776 
L 158.477539 113.972138 
L 175.280543 93.431481 
L 190.874195 82.486191 
L 207.069523 69.485253 
L 216.668769 59.902194 
L 230.465416 48.268758 
L 238.261502 43.481621 
L 246.05525 40.751012 
L 245.442121 53.089295 
L 239.431588 68.847203 
L 231.625531 82.545956 
L 222.020831 96.927579 
L 212.41769 109.938182 
L 203.415369 121.57865 
L 193.216004 131.84634 
L 184.816061 140.745648 
L 180.014101 147.593708 
L 172.214976 155.122882 
L 164.411178 166.765101 
L 141.014506 188.667109 
L 127.220197 198.244016 
L 115.222269 209.194582 
L 108.622447 216.040005 
L 93.631095 224.244135 
L 92.429456 226.984409 
L 83.436327 230.398774 
L 82.251594 218.057859 
L 86.462706 203.668323 
L 93.066346 193.395362 
L 100.269325 183.123277 
L 112.270369 169.430675 
L 122.469733 159.162984 
L 130.872793 147.52164 
L 148.269683 131.780424 
L 159.672244 117.401438 
L 175.877467 95.48889 
L 187.874694 85.223837 
L 199.273438 74.272391 
L 213.667788 64.010851 
L 223.866373 54.428668 
L 233.461801 48.273153 
L 242.458747 41.431249 
L 250.851835 38.70151 
L 259.841068 38.714699 
L 259.818007 59.27996 
L 256.208493 71.613849 
L 246.606131 83.938944 
L 237.603031 96.26492 
L 228.602267 106.534367 
L 219.599946 118.174835 
L 211.198444 128.445163 
L 201.001339 136.656326 
L 193.199099 146.927535 
L 184.194518 160.624526 
L 172.195733 172.2606 
L 165.595911 179.106017 
L 155.999704 185.947045 
L 137.411147 195.516921 
L 123.017576 205.092952 
L 110.422568 213.986114 
L 98.427679 222.194639 
L 90.644682 215.32813 
L 87.664346 200.928049 
L 85.283349 186.528848 
L 80.502891 174.182657 
L 76.919476 163.209243 
L 73.933842 153.607725 
L 71.545911 145.378109 
L 63.755201 145.366683 
L 59.560994 144.675024 
L 64.96689 133.714788 
L 70.971191 123.440946 
L 74.577666 113.849099 
L 79.977408 108.372935 
L 91.971518 100.849918 
L 104.565746 92.642269 
L 117.161455 83.063599 
L 124.95832 77.590954 
L 130.951168 77.599743 
L 136.940121 81.036075 
L 144.727013 84.475046 
L 153.713987 86.544757 
L 159.103678 89.980209 
L 160.299163 92.724001 
L 165.094189 92.045526 
L 176.480624 92.062223 
L 176.480624 92.062223 
" clip-path="url(#p90c3ec22d5)" style="fill: none; stroke-dasharray: 3.7,1.6; stroke-dashoffset: 0; stroke: #000000"/>
   </g>
   <g id="line2d_22">
    <path d="M 160.845837 138.312094 
L 165.857994 104.255753 
L 167.24878 96.120137 
L 168.412455 90.508539 
L 169.902893 84.595484 
L 170.194685 83.567479 
L 170.119723 84.100281 
L 169.032452 91.229113 
L 166.793974 104.522535 
L 164.272345 119.194295 
L 161.41489 137.266447 
L 158.501663 157.106974 
L 154.014995 182.456305 
L 152.376137 189.2141 
L 151.497025 192.198876 
L 151.574291 191.652461 
L 152.668108 184.540975 
L 154.911883 171.301116 
L 157.990094 153.716708 
L 163.771451 116.675389 
L 165.384408 108.78021 
L 167.689206 97.325406 
L 169.323297 88.614885 
L 170.194577 83.5042 
L 167.626307 99.272351 
L 165.811392 109.888581 
L 163.684085 122.235431 
L 157.902783 159.19965 
L 156.291217 167.092554 
L 153.989967 178.509124 
L 152.36065 187.156395 
L 151.497206 192.220269 
L 154.078026 176.441178 
L 156.403929 162.996094 
L 158.025096 153.514747 
L 163.8405 116.32409 
L 167.965092 95.957626 
L 170.58325 82.24543 
L 171.837166 78.767222 
L 173.047651 75.954976 
L 174.20992 73.695013 
L 175.319382 71.915267 
L 176.371651 70.484095 
L 177.362571 69.51462 
L 179.144955 67.088549 
L 180.638392 65.431385 
L 181.269196 64.90374 
L 183.326722 62.399138 
L 182.163605 66.75446 
L 178.034698 80.983753 
L 171.488681 102.972703 
L 168.921134 112.504783 
L 166.226075 124.338456 
L 163.446061 137.571915 
L 159.21297 158.208004 
L 156.413843 169.588225 
L 153.684698 181.690966 
L 151.068631 194.449172 
L 149.815997 197.394236 
L 148.606948 199.669114 
L 147.446261 201.570681 
L 146.338521 203.105586 
L 145.288107 204.044868 
L 143.375615 206.973627 
L 142.521094 207.703142 
L 141.738983 208.185284 
L 138.365386 212.216564 
L 139.542138 207.891682 
L 143.685479 193.541569 
L 150.241921 171.270483 
L 152.811778 161.753338 
L 155.508496 150.020472 
L 158.289492 136.918878 
L 161.110854 122.888825 
L 162.522755 116.891476 
L 163.92803 111.643908 
L 165.321126 107.043763 
L 168.048832 99.404224 
L 170.662799 92.823793 
L 176.435423 79.195888 
L 182.312929 66.493863 
L 183.325768 64.752769 
L 183.263315 64.9641 
L 176.016648 89.43151 
L 170.143074 109.405658 
L 168.838627 114.313448 
L 166.14026 125.981646 
L 163.358293 138.92223 
L 160.536654 152.768637 
L 157.719896 164.047152 
L 156.32727 168.496223 
L 153.601015 176.123838 
L 150.989157 182.763494 
L 146.271147 194.072332 
L 140.990781 205.666805 
L 138.70307 210.337294 
L 138.366514 210.9153 
L 138.431741 210.692324 
L 146.781869 182.45073 
L 151.588834 166.106118 
L 152.894348 161.245527 
L 155.594352 149.695073 
L 158.37728 136.824834 
L 161.405598 122.128813 
L 163.641876 113.219208 
L 165.867106 106.20725 
L 168.072494 100.154062 
L 172.389002 89.571675 
L 176.523239 80.037841 
L 182.241078 67.971438 
L 183.987688 64.847548 
L 185.642854 62.628212 
L 192.332152 55.895295 
L 194.170886 54.426061 
L 195.935526 52.978685 
L 196.455546 52.533424 
L 194.526624 57.899962 
L 189.2967 71.669926 
L 184.77534 83.009655 
L 175.446602 106.167924 
L 173.376782 111.827308 
L 171.257445 118.236652 
L 169.096968 125.409171 
L 166.903886 133.437598 
L 164.686866 142.332472 
L 162.454668 151.839592 
L 157.980046 166.942399 
L 155.755304 173.280276 
L 151.374876 184.073804 
L 147.143997 193.30759 
L 141.223317 205.19777 
L 139.394698 208.690227 
L 137.650843 211.632249 
L 135.998642 213.426704 
L 132.994931 216.500345 
L 130.430994 218.95859 
L 128.347317 220.331931 
L 125.237365 223.080925 
L 127.985848 215.677306 
L 132.43712 204.168734 
L 136.968205 192.958302 
L 144.294872 175.013853 
L 146.308923 169.833082 
L 148.380415 164.174518 
L 150.501165 157.751651 
L 152.662792 150.585961 
L 154.856753 142.628668 
L 159.306911 124.759227 
L 161.545522 117.202127 
L 163.781368 110.234984 
L 166.005615 104.520384 
L 168.209473 99.700933 
L 172.521304 91.222287 
L 176.648775 83.902255 
L 180.526713 77.332492 
L 184.093885 71.801308 
L 187.293962 67.184469 
L 191.297027 61.810299 
L 195.515695 56.554965 
L 196.452934 55.531094 
L 189.212299 74.133375 
L 182.961233 89.394764 
L 177.334812 102.884989 
L 175.318845 107.942224 
L 173.245688 113.503815 
L 171.123533 119.74274 
L 168.960766 126.685513 
L 166.765933 134.435052 
L 162.314853 152.040969 
L 160.076194 159.46217 
L 157.840577 166.395157 
L 155.616834 171.974689 
L 153.413754 176.717003 
L 149.104287 185.176805 
L 143.008209 195.889024 
L 139.283151 201.902019 
L 135.898574 206.954583 
L 131.575339 212.90152 
L 127.447315 218.159808 
L 125.240252 220.766585 
L 133.934227 198.555102 
L 140.585612 182.521952 
L 144.418916 173.33338 
L 146.436792 168.290902 
L 148.511605 162.765483 
L 150.635157 156.549952 
L 152.799056 149.640445 
L 154.994752 141.938095 
L 159.446737 124.541742 
L 161.995037 116.219103 
L 165.054713 107.692142 
L 168.097758 101.081811 
L 171.112147 95.170449 
L 174.08597 89.698659 
L 179.865115 79.787254 
L 182.647603 75.402224 
L 185.343941 71.364259 
L 190.435934 64.365176 
L 195.06069 58.541805 
L 197.174713 56.127983 
L 200.964315 52.238236 
L 202.624919 50.866938 
L 207.560747 47.437913 
L 209.578724 46.060366 
L 206.820467 52.865694 
L 201.341356 65.78092 
L 197.618299 74.147958 
L 193.314595 83.395697 
L 185.921223 98.592447 
L 180.480593 109.487684 
L 177.638436 115.411148 
L 174.729923 121.789868 
L 171.766548 128.951623 
L 168.76002 137.343812 
L 165.722219 147.299458 
L 162.665149 156.36131 
L 159.600891 164.98434 
L 156.541551 172.30085 
L 153.49922 178.314132 
L 150.485919 183.862905 
L 147.513555 189.03167 
L 144.593873 193.877774 
L 138.958451 202.501457 
L 133.668637 209.774732 
L 128.807959 215.899375 
L 126.56283 218.541609 
L 122.487313 222.856097 
L 120.67303 224.514299 
L 119.017489 225.779997 
L 116.208148 227.43163 
L 112.115396 230.222345 
L 114.903137 223.420749 
L 120.403714 210.571782 
L 124.13632 202.287762 
L 128.448581 193.127715 
L 135.852632 178.073948 
L 141.298782 167.214432 
L 144.143184 161.294621 
L 147.053586 154.880363 
L 150.018488 147.698769 
L 153.026174 139.361085 
L 156.064759 129.657572 
L 159.122237 121.020968 
L 162.186525 113.046895 
L 165.245516 106.374124 
L 168.287121 100.671125 
L 174.270217 90.685792 
L 177.188066 86.132704 
L 182.81876 77.985968 
L 188.102495 71.039719 
L 192.955839 65.177647 
L 197.302157 60.387886 
L 201.072818 56.483531 
L 205.521931 52.204359 
L 208.386396 49.66686 
L 209.573644 48.724244 
L 202.869633 64.450469 
L 197.492266 76.368511 
L 193.171467 85.487138 
L 188.340235 95.203211 
L 177.45848 116.802817 
L 174.546199 123.022051 
L 171.579782 129.958962 
L 168.57095 138.036632 
L 165.531592 147.552174 
L 162.473718 156.067022 
L 159.409412 163.931614 
L 156.350782 170.544426 
L 153.309914 176.139863 
L 147.329411 186.1098 
L 141.562336 194.803852 
L 138.787463 198.73053 
L 133.509827 205.658214 
L 128.663835 211.47658 
L 124.326006 216.254083 
L 120.564837 220.142179 
L 116.131511 224.373251 
L 112.120852 227.792889 
L 118.87066 211.980412 
L 124.262636 200.046926 
L 128.591959 190.936406 
L 133.43058 181.23805 
L 144.323269 159.696749 
L 147.237417 153.483132 
L 150.205338 146.551964 
L 153.215305 138.5031 
L 156.255423 129.081967 
L 159.313681 120.721741 
L 162.790766 112.267007 
L 166.672938 104.532884 
L 170.532084 97.895806 
L 174.352955 91.668164 
L 178.120453 85.926684 
L 181.819691 80.573785 
L 185.436051 75.682775 
L 188.955243 71.183474 
L 192.363362 67.091437 
L 195.64694 63.389084 
L 201.789116 56.975918 
L 207.284786 51.795372 
L 212.04717 47.926474 
L 216.00107 45.085795 
L 220.283177 42.549457 
L 222.697644 41.260446 
L 222.693823 41.267849 
L 219.042845 49.796357 
L 214.067472 60.873884 
L 209.688069 70.148417 
L 204.537433 80.412619 
L 198.696894 91.332244 
L 192.258675 102.565456 
L 174.234283 133.071668 
L 170.411986 141.067259 
L 166.551889 150.679602 
L 162.669244 159.519348 
L 158.779394 167.925736 
L 154.89771 174.91091 
L 151.03953 181.103762 
L 147.220099 186.980651 
L 143.45451 192.426771 
L 139.757642 197.510279 
L 136.144104 202.175862 
L 132.628174 206.511062 
L 129.223746 210.458403 
L 122.802711 217.299447 
L 116.982388 222.879228 
L 111.854682 227.214327 
L 107.500562 230.480444 
L 103.988779 232.648754 
L 100.417934 234.574513 
L 98.990448 235.247188 
L 99.001911 235.226016 
L 102.690262 226.697438 
L 107.686331 215.607839 
L 112.078349 206.354095 
L 117.24042 196.114082 
L 123.091034 185.213665 
L 129.537808 173.971948 
L 147.576116 143.352248 
L 151.399823 135.372662 
L 155.260857 126.598805 
L 159.143959 118.150216 
L 163.033786 110.475529 
L 166.914968 103.729204 
L 170.772167 97.652521 
L 174.590143 92.119699 
L 178.353808 86.861627 
L 182.048292 81.969792 
L 189.171647 73.198215 
L 192.572371 69.294394 
L 198.984778 62.522641 
L 204.794959 56.967042 
L 209.91117 52.548056 
L 214.252624 49.125352 
L 219.165794 45.595156 
L 222.70457 43.318192 
L 222.685464 43.360173 
L 215.834751 58.705206 
L 211.841455 67.250811 
L 207.042923 76.99607 
L 201.514924 87.513738 
L 195.344749 98.466931 
L 188.629825 109.764351 
L 173.996783 134.06598 
L 170.17168 141.755952 
L 166.309725 150.381187 
L 162.42618 158.772903 
L 158.53639 166.401724 
L 154.655726 173.107113 
L 150.799523 179.158654 
L 146.983017 184.688979 
L 143.221289 189.941752 
L 139.529205 194.824125 
L 132.411989 203.577078 
L 129.014981 207.454672 
L 125.743753 210.986622 
L 119.629789 217.105981 
L 114.166638 222.031136 
L 109.440567 225.895382 
L 105.5262 228.844841 
L 100.366025 232.316938 
L 98.983999 233.18301 
L 99.010747 233.124138 
L 105.912788 217.695635 
L 109.919185 209.148015 
L 114.72973 199.406588 
L 120.268461 188.900455 
L 126.447922 177.965708 
L 133.170537 166.678587 
L 144.038728 148.9156 
L 147.813717 142.361238 
L 151.640202 134.623871 
L 155.503063 126.105132 
L 159.387035 118.011133 
L 163.792691 109.701539 
L 168.496303 101.979581 
L 173.169685 95.005659 
L 177.794369 88.517067 
L 182.352082 82.515602 
L 186.824813 76.945531 
L 191.194888 71.802443 
L 195.44504 67.12307 
L 199.558474 62.8965 
L 203.518936 59.07542 
L 207.310776 55.641614 
L 210.919011 52.619482 
L 214.329383 49.932147 
L 217.528415 47.571771 
L 223.242784 43.800479 
L 225.73554 42.404119 
L 235.840101 37.450792 
L 231.191473 47.708242 
L 227.369361 55.833334 
L 222.496823 65.718244 
L 216.650796 76.840574 
L 213.39101 82.712114 
L 209.923592 88.711469 
L 206.262245 94.783137 
L 202.421436 100.852503 
L 198.416342 106.918929 
L 194.262788 112.984654 
L 189.977189 118.987748 
L 176.499661 137.126459 
L 171.859424 144.332909 
L 167.175667 152.463904 
L 162.466897 161.152796 
L 157.751723 169.33693 
L 153.048774 176.675407 
L 148.376635 183.389079 
L 143.753768 189.685365 
L 139.19844 195.564089 
L 134.728652 200.975812 
L 130.362065 205.904148 
L 126.115933 210.414042 
L 122.007037 214.497967 
L 118.051611 218.210925 
L 114.265285 221.498138 
L 110.663022 224.438803 
L 107.259055 227.033486 
L 101.098976 231.258423 
L 98.367206 232.952878 
L 90.002037 237.293533 
L 85.848388 239.181341 
L 90.551514 228.820498 
L 94.390547 220.674846 
L 99.27893 210.754997 
L 105.139473 199.60395 
L 108.405947 193.720574 
L 111.879637 187.705589 
L 115.546815 181.614809 
L 119.392991 175.539386 
L 123.402968 169.461635 
L 127.560899 163.382083 
L 131.850355 157.360175 
L 145.336179 139.178038 
L 154.662874 124.58264 
L 159.372126 116.519491 
L 164.087201 108.840683 
L 168.789467 101.720692 
L 173.460345 95.180984 
L 178.081377 89.029433 
L 182.634302 83.298824 
L 187.101131 77.993697 
L 191.464213 73.140119 
L 195.706307 68.675255 
L 199.810651 64.61436 
L 203.761025 60.914876 
L 207.541822 57.590808 
L 211.1381 54.649702 
L 217.721044 49.729387 
L 223.405912 45.972221 
L 228.102937 43.147362 
L 233.138587 40.375006 
L 235.846181 39.007269 
L 235.785964 39.137831 
L 229.295845 53.053352 
L 224.9071 62.071608 
L 219.506808 72.6118 
L 216.45339 78.275334 
L 213.180241 84.093133 
L 209.700293 90.027488 
L 206.027298 96.03662 
L 202.17577 102.071734 
L 198.160927 108.105956 
L 193.998634 114.133056 
L 189.705338 120.081836 
L 176.211269 137.944344 
L 171.567773 144.955797 
L 166.881909 152.362467 
L 162.172193 160.410467 
L 157.457237 168.065643 
L 152.75567 175.174959 
L 148.086072 181.684448 
L 143.466893 187.82354 
L 138.916387 193.546919 
L 134.452535 198.836628 
L 130.092976 203.68237 
L 125.854935 208.137856 
L 121.755161 212.197758 
L 117.809853 215.897242 
L 114.0346 219.171874 
L 110.444321 222.093336 
L 107.053202 224.692887 
L 100.921207 228.961551 
L 95.735439 232.214861 
L 89.90568 235.522527 
L 85.842887 237.599841 
L 92.45625 223.421241 
L 96.861377 214.37651 
L 102.276838 203.821807 
L 105.337309 198.161293 
L 108.617121 192.356721 
L 112.103313 186.439312 
L 115.782111 180.449533 
L 119.638977 174.437486 
L 123.658671 168.428334 
L 127.82531 162.42939 
L 132.122428 156.511035 
L 145.62469 138.702024 
L 150.269789 131.609941 
L 154.95668 124.195818 
L 159.666841 116.345247 
L 165.000692 107.893433 
L 170.524538 99.832739 
L 176.010138 92.387866 
L 181.435817 85.458959 
L 186.780135 79.062724 
L 192.021974 73.247603 
L 197.140621 67.94006 
L 202.11585 63.128263 
L 206.928002 58.787354 
L 211.558061 54.988172 
L 215.987731 51.616797 
L 220.19951 48.674015 
L 224.176754 46.097844 
L 227.903746 43.845475 
L 234.549118 40.195234 
L 240.030693 37.559279 
L 245.886962 35.109499 
L 248.982589 33.939596 
L 245.065119 42.486298 
L 241.137366 50.766592 
L 235.941786 61.23849 
L 232.893449 67.084799 
L 229.560418 73.214444 
L 225.955862 79.562572 
L 222.094026 86.042929 
L 217.990168 92.579937 
L 213.660506 99.060909 
L 209.122148 105.480142 
L 204.393027 111.838004 
L 199.49183 118.034754 
L 194.437924 124.050027 
L 189.25128 129.88834 
L 178.562199 141.412207 
L 173.102001 147.58682 
L 167.593372 154.459671 
L 156.517999 171.045629 
L 150.995019 178.699327 
L 145.510964 185.860553 
L 140.087505 192.557759 
L 134.746072 198.746201 
L 129.507771 204.411943 
L 124.393302 209.588323 
L 119.422875 214.29335 
L 114.616129 218.496554 
L 109.99206 222.199492 
L 105.568938 225.481486 
L 101.364241 228.347573 
L 97.394585 230.867843 
L 90.222147 234.993543 
L 84.164878 238.031139 
L 79.318425 240.189362 
L 73.543745 242.42428 
L 72.706703 242.723567 
L 76.677834 234.063319 
L 80.625927 225.743518 
L 85.840717 215.240248 
L 88.898138 209.391314 
L 92.23986 203.254517 
L 95.852677 196.904577 
L 99.722313 190.425054 
L 103.833477 183.895169 
L 108.169924 177.419768 
L 112.714519 171.00093 
L 117.449304 164.649734 
L 122.35557 158.458751 
L 127.413929 152.455762 
L 132.604393 146.634945 
L 148.761198 129.360389 
L 154.27099 122.693504 
L 165.346641 106.927135 
L 170.868734 99.433835 
L 176.351222 92.418186 
L 181.772441 85.853353 
L 187.110969 79.746521 
L 192.345711 74.165059 
L 197.455982 69.017334 
L 202.421588 64.324964 
L 207.222909 60.090725 
L 211.840972 56.358578 
L 216.257528 53.028699 
L 220.455127 50.114668 
L 224.41718 47.547199 
L 231.573021 43.326728 
L 237.612059 40.172007 
L 244.37321 37.034101 
L 248.987013 35.096168 
L 240.993818 51.925209 
L 235.759839 62.349225 
L 232.693344 68.163691 
L 229.342945 74.269938 
L 225.721882 80.561691 
L 221.844461 86.964234 
L 217.726006 93.418908 
L 213.382791 99.862037 
L 208.831976 106.247632 
L 204.091545 112.557901 
L 199.18023 118.691327 
L 194.117437 124.629569 
L 188.923173 130.379809 
L 172.758905 147.460464 
L 167.247971 154.142462 
L 156.172085 169.949587 
L 150.6509 177.430927 
L 145.169999 184.436168 
L 139.751041 190.998964 
L 134.415439 197.096855 
L 129.184277 202.68335 
L 124.078224 207.823341 
L 119.117457 212.514042 
L 114.32158 216.710396 
L 109.709542 220.429487 
L 105.299568 223.732855 
L 101.109084 226.630074 
L 97.154649 229.185029 
L 90.015432 233.383406 
L 83.99465 236.502939 
L 77.2633 239.616375 
L 72.70296 241.528366 
L 80.770094 224.545521 
L 86.023242 214.094161 
L 89.098798 208.270223 
L 92.457862 202.157728 
L 96.087159 195.863328 
L 99.972348 189.461202 
L 104.098078 183.010081 
L 108.448046 176.572952 
L 113.005062 170.193454 
L 117.75112 163.892473 
L 122.667466 157.770653 
L 127.734673 151.845912 
L 132.932718 146.109736 
L 149.104386 128.977773 
L 154.616441 122.283072 
L 166.414626 105.784671 
L 172.757345 97.380874 
L 179.052995 89.58884 
L 185.276701 82.311287 
L 191.403868 75.651615 
L 197.410286 69.572626 
L 203.27222 64.057866 
L 208.966507 59.145273 
L 214.470647 54.826664 
L 219.762889 51.039759 
L 224.822321 47.733018 
L 229.628952 44.841193 
L 234.163788 42.331116 
L 238.408909 40.177028 
L 245.964122 36.71301 
L 252.175291 34.198658 
L 256.944341 32.516465 
L 262.122676 30.882841 
L 257.375027 41.043635 
L 252.768701 50.529505 
L 246.710885 62.302863 
L 243.166704 68.789263 
L 239.297234 75.541921 
L 235.117765 82.455701 
L 230.644811 89.428996 
L 225.896049 96.331335 
L 220.890242 103.142225 
L 215.647171 109.841545 
L 210.187553 116.314641 
L 204.532963 122.513434 
L 198.705744 128.423961 
L 192.728922 134.058793 
L 180.421437 144.898743 
L 174.139407 149.827738 
L 167.804848 156.262029 
L 161.442791 164.405571 
L 155.078374 172.859322 
L 148.736748 180.90291 
L 142.44297 188.453102 
L 136.221911 195.500465 
L 130.098153 201.999422 
L 124.095894 207.918084 
L 118.238851 213.288545 
L 112.550169 218.069178 
L 107.052326 222.299127 
L 101.767048 225.989514 
L 96.715218 229.230647 
L 91.916798 232.067805 
L 87.390751 234.509595 
L 83.154959 236.623288 
L 75.619883 240.026065 
L 69.43055 242.495631 
L 64.684692 244.157391 
L 59.567825 245.664659 
L 64.377058 235.459012 
L 69.006684 226.007582 
L 75.086478 214.253914 
L 78.641044 207.775817 
L 82.520439 201.029157 
L 86.709336 194.114508 
L 91.191182 187.134988 
L 95.948266 180.220947 
L 100.961792 173.381153 
L 106.211949 166.670032 
L 111.67799 160.184306 
L 117.338317 153.978607 
L 123.170563 148.06657 
L 129.151682 142.433657 
L 135.25804 137.010827 
L 141.465508 131.787984 
L 147.749556 126.958365 
L 154.085355 120.687729 
L 160.447867 112.902884 
L 166.811951 104.711817 
L 173.152461 96.855074 
L 179.444342 89.422672 
L 185.66273 82.539183 
L 191.783056 76.156683 
L 197.781133 70.330764 
L 203.633262 65.017132 
L 209.316316 60.216917 
L 214.807841 55.970311 
L 220.086136 52.227188 
L 225.130344 48.946309 
L 229.920534 46.069135 
L 234.437776 43.575184 
L 238.664221 41.416378 
L 246.179132 37.928427 
L 252.346605 35.364509 
L 258.864537 32.909493 
L 262.124631 31.865679 
L 255.113628 46.322352 
L 249.725653 56.906892 
L 246.499175 62.965509 
L 242.93424 69.397702 
L 239.044934 76.087602 
L 234.846625 82.922985 
L 230.355905 89.825099 
L 225.590516 96.709577 
L 220.569291 103.547983 
L 215.312069 110.232181 
L 209.839625 116.681697 
L 204.173583 122.846925 
L 198.336333 128.713631 
L 192.350939 134.299307 
L 186.241054 139.673834 
L 180.03082 144.957553 
L 173.744778 149.797218 
L 167.407765 156.108351 
L 161.044823 163.946777 
L 154.681094 172.138398 
L 148.341726 180.013146 
L 142.051767 187.455973 
L 135.836072 194.342804 
L 129.719204 200.733751 
L 123.725331 206.521078 
L 117.878139 211.817024 
L 112.200734 216.569765 
L 106.715548 220.79614 
L 101.444257 224.506983 
L 96.40769 227.770306 
L 91.625749 230.626994 
L 87.11733 233.093128 
L 82.900248 235.235018 
L 75.405531 238.696023 
L 69.259943 241.244896 
L 62.777242 243.678002 
L 59.566652 244.769955 
L 64.498996 234.637698 
L 69.175169 225.332228 
L 75.29885 213.742368 
L 78.874142 207.324488 
L 82.773344 200.638245 
L 86.981047 193.796436 
L 91.480626 186.878161 
L 96.254299 179.964968 
L 101.283205 173.142289 
L 106.547472 166.468742 
L 112.026297 160.022892 
L 117.698032 153.857029 
L 123.540264 147.98721 
L 129.529909 142.397565 
L 135.643298 137.018956 
L 141.856274 131.713381 
L 148.144287 126.839871 
L 154.48249 120.538123 
L 154.48249 120.538123 
" clip-path="url(#p90c3ec22d5)" style="fill: none; stroke: #0000ff; stroke-width: 1.2; stroke-linecap: square"/>
   </g>
   <g id="line2d_23">
    <path d="M 49.432813 138.312094 
L 272.252813 138.312094 
" clip-path="url(#p90c3ec22d5)" style="fill: none; stroke: #000000; stroke-width: 0.4; stroke-linecap: square"/>
   </g>
   <g id="line2d_24">
    <path d="M 160.845837 256.40375 
L 160.845837 20.14375 
" clip-path="url(#p90c3ec22d5)" style="fill: none; stroke: #000000; stroke-width: 0.4; stroke-linecap: square"/>
   </g>
   <g id="patch_3">
    <path d="M 49.432813 256.40375 
L 49.432813 20.14375 
" style="fill: none; stroke: #000000; stroke-width: 0.8; stroke-linejoin: miter; stroke-linecap: square"/>
   </g>
   <g id="patch_4">
    <path d="M 272.252813 256.40375 
L 272.252813 20.14375 
" style="fill: none; stroke: #000000; stroke-width: 0.8; stroke-linejoin: miter; stroke-linecap: square"/>
   </g>
   <g id="patch_5">
    <path d="M 49.432813 256.40375 
L 272.252813 256.40375 
" style="fill: none; stroke: #000000; stroke-width: 0.8; stroke-linejoin: miter; stroke-linecap: square"/>
   </g>
   <g id="patch_6">
    <path d="M 49.432813 20.14375 
L 272.252813 20.14375 
" style="fill: none; stroke: #000000; stroke-width: 0.8; stroke-linejoin: miter; stroke-linecap: square"/>
   </g>
   <g id="text_13">
    <!-- Specimen : Lu_SW14 -->
    <g transform="translate(116.682656 14.14375) scale(0.1 -0.1)">
     <defs>
      <path id="TimesNewRomanPSMT-3a" d="M 903 2950 
Q 1047 2950 1148 2848 
Q 1250 2747 1250 2603 
Q 1250 2459 1148 2357 
Q 1047 2256 903 2256 
Q 759 2256 657 2357 
Q 556 2459 556 2603 
Q 556 2747 657 2848 
Q 759 2950 903 2950 
z
M 897 609 
Q 1044 609 1145 506 
Q 1247 403 1247 259 
Q 1247 116 1144 14 
Q 1041 -88 897 -88 
Q 753 -88 651 14 
Q 550 116 550 259 
Q 550 403 651 506 
Q 753 609 897 609 
z
" transform="scale(0.015625)"/>
      <path id="TimesNewRomanPSMT-4c" d="M 3669 1172 
L 3772 1150 
L 3409 0 
L 128 0 
L 128 116 
L 288 116 
Q 556 116 672 291 
Q 738 391 738 753 
L 738 3488 
Q 738 3884 650 3984 
Q 528 4122 288 4122 
L 128 4122 
L 128 4238 
L 2047 4238 
L 2047 4122 
Q 1709 4125 1573 4059 
Q 1438 3994 1388 3894 
Q 1338 3794 1338 3416 
L 1338 753 
Q 1338 494 1388 397 
Q 1425 331 1503 300 
Q 1581 269 1991 269 
L 2300 269 
Q 2788 269 2984 341 
Q 3181 413 3343 595 
Q 3506 778 3669 1172 
z
" transform="scale(0.015625)"/>
      <path id="TimesNewRomanPSMT-75" d="M 2709 2863 
L 2709 1128 
Q 2709 631 2732 520 
Q 2756 409 2807 365 
Q 2859 322 2928 322 
Q 3025 322 3147 375 
L 3191 266 
L 2334 -88 
L 2194 -88 
L 2194 519 
Q 1825 119 1631 15 
Q 1438 -88 1222 -88 
Q 981 -88 804 51 
Q 628 191 559 409 
Q 491 628 491 1028 
L 491 2306 
Q 491 2509 447 2587 
Q 403 2666 317 2708 
Q 231 2750 6 2747 
L 6 2863 
L 1009 2863 
L 1009 947 
Q 1009 547 1148 422 
Q 1288 297 1484 297 
Q 1619 297 1789 381 
Q 1959 466 2194 703 
L 2194 2325 
Q 2194 2569 2105 2655 
Q 2016 2741 1734 2747 
L 1734 2863 
L 2709 2863 
z
" transform="scale(0.015625)"/>
      <path id="TimesNewRomanPSMT-5f" d="M 3256 -1381 
L -53 -1381 
L -53 -1119 
L 3256 -1119 
L 3256 -1381 
z
" transform="scale(0.015625)"/>
      <path id="TimesNewRomanPSMT-57" d="M 5991 4238 
L 5991 4122 
Q 5825 4122 5722 4062 
Q 5619 4003 5525 3841 
Q 5463 3731 5328 3319 
L 4147 -97 
L 4022 -97 
L 3056 2613 
L 2097 -97 
L 1984 -97 
L 725 3422 
Q 584 3816 547 3888 
Q 484 4006 376 4064 
Q 269 4122 84 4122 
L 84 4238 
L 1653 4238 
L 1653 4122 
L 1578 4122 
Q 1413 4122 1325 4047 
Q 1238 3972 1238 3866 
Q 1238 3756 1375 3363 
L 2209 984 
L 2913 3006 
L 2788 3363 
L 2688 3647 
Q 2622 3803 2541 3922 
Q 2500 3981 2441 4022 
Q 2363 4078 2284 4103 
Q 2225 4122 2097 4122 
L 2097 4238 
L 3747 4238 
L 3747 4122 
L 3634 4122 
Q 3459 4122 3378 4047 
Q 3297 3972 3297 3844 
Q 3297 3684 3438 3288 
L 4250 984 
L 5056 3319 
Q 5194 3706 5194 3856 
Q 5194 3928 5148 3990 
Q 5103 4053 5034 4078 
Q 4916 4122 4725 4122 
L 4725 4238 
L 5991 4238 
z
" transform="scale(0.015625)"/>
      <path id="TimesNewRomanPSMT-31" d="M 750 3822 
L 1781 4325 
L 1884 4325 
L 1884 747 
Q 1884 391 1914 303 
Q 1944 216 2037 169 
Q 2131 122 2419 116 
L 2419 0 
L 825 0 
L 825 116 
Q 1125 122 1212 167 
Q 1300 213 1334 289 
Q 1369 366 1369 747 
L 1369 3034 
Q 1369 3497 1338 3628 
Q 1316 3728 1258 3775 
Q 1200 3822 1119 3822 
Q 1003 3822 797 3725 
L 750 3822 
z
" transform="scale(0.015625)"/>
      <path id="TimesNewRomanPSMT-34" d="M 2978 1563 
L 2978 1119 
L 2409 1119 
L 2409 0 
L 1894 0 
L 1894 1119 
L 100 1119 
L 100 1519 
L 2066 4325 
L 2409 4325 
L 2409 1563 
L 2978 1563 
z
M 1894 1563 
L 1894 3666 
L 406 1563 
L 1894 1563 
z
" transform="scale(0.015625)"/>
     </defs>
     <use xlink:href="#TimesNewRomanPSMT-53"/>
     <use xlink:href="#TimesNewRomanPSMT-70" x="55.615234"/>
     <use xlink:href="#TimesNewRomanPSMT-65" x="105.615234"/>
     <use xlink:href="#TimesNewRomanPSMT-63" x="150"/>
     <use xlink:href="#TimesNewRomanPSMT-69" x="194.384766"/>
     <use xlink:href="#TimesNewRomanPSMT-6d" x="222.167969"/>
     <use xlink:href="#TimesNewRomanPSMT-65" x="299.951172"/>
     <use xlink:href="#TimesNewRomanPSMT-6e" x="344.335938"/>
     <use xlink:href="#TimesNewRomanPSMT-20" x="394.335938"/>
     <use xlink:href="#TimesNewRomanPSMT-3a" x="419.335938"/>
     <use xlink:href="#TimesNewRomanPSMT-20" x="447.119141"/>
     <use xlink:href="#TimesNewRomanPSMT-4c" x="472.119141"/>
     <use xlink:href="#TimesNewRomanPSMT-75" x="533.203125"/>
     <use xlink:href="#TimesNewRomanPSMT-5f" x="583.203125"/>
     <use xlink:href="#TimesNewRomanPSMT-53" x="633.203125"/>
     <use xlink:href="#TimesNewRomanPSMT-57" x="688.818359"/>
     <use xlink:href="#TimesNewRomanPSMT-31" x="783.203125"/>
     <use xlink:href="#TimesNewRomanPSMT-34" x="833.203125"/>
    </g>
   </g>
   <g id="legend_1">
    <g id="patch_7">
     <path d="M 55.263813 50.363428 
L 142.486722 50.363428 
Q 144.152722 50.363428 144.152722 48.697428 
L 144.152722 25.97475 
Q 144.152722 24.30875 142.486722 24.30875 
L 55.263813 24.30875 
Q 53.597813 24.30875 53.597813 25.97475 
L 53.597813 48.697428 
Q 53.597813 50.363428 55.263813 50.363428 
z
" style="fill: #ffffff; opacity: 0.8; stroke: #cccccc; stroke-linejoin: miter"/>
    </g>
    <g id="line2d_25">
     <path d="M 56.929813 30.55625 
L 65.259813 30.55625 
L 73.589813 30.55625 
" style="fill: none; stroke-dasharray: 3.7,1.6; stroke-dashoffset: 0; stroke: #000000"/>
    </g>
    <g id="text_14">
     <!-- Experimental Test -->
     <g transform="translate(80.253813 33.47175) scale(0.0833 -0.0833)">
      <defs>
       <path id="TimesNewRomanPSMT-45" d="M 1338 4006 
L 1338 2331 
L 2269 2331 
Q 2631 2331 2753 2441 
Q 2916 2584 2934 2947 
L 3050 2947 
L 3050 1472 
L 2934 1472 
Q 2891 1781 2847 1869 
Q 2791 1978 2662 2040 
Q 2534 2103 2269 2103 
L 1338 2103 
L 1338 706 
Q 1338 425 1363 364 
Q 1388 303 1450 267 
Q 1513 231 1688 231 
L 2406 231 
Q 2766 231 2928 281 
Q 3091 331 3241 478 
Q 3434 672 3638 1063 
L 3763 1063 
L 3397 0 
L 131 0 
L 131 116 
L 281 116 
Q 431 116 566 188 
Q 666 238 702 338 
Q 738 438 738 747 
L 738 3500 
Q 738 3903 656 3997 
Q 544 4122 281 4122 
L 131 4122 
L 131 4238 
L 3397 4238 
L 3444 3309 
L 3322 3309 
Q 3256 3644 3176 3769 
Q 3097 3894 2941 3959 
Q 2816 4006 2500 4006 
L 1338 4006 
z
" transform="scale(0.015625)"/>
       <path id="TimesNewRomanPSMT-78" d="M 84 2863 
L 1431 2863 
L 1431 2747 
Q 1303 2747 1251 2703 
Q 1200 2659 1200 2588 
Q 1200 2513 1309 2356 
Q 1344 2306 1413 2200 
L 1616 1875 
L 1850 2200 
Q 2075 2509 2075 2591 
Q 2075 2656 2022 2701 
Q 1969 2747 1850 2747 
L 1850 2863 
L 2819 2863 
L 2819 2747 
Q 2666 2738 2553 2663 
Q 2400 2556 2134 2200 
L 1744 1678 
L 2456 653 
Q 2719 275 2831 198 
Q 2944 122 3122 113 
L 3122 0 
L 1772 0 
L 1772 113 
Q 1913 113 1991 175 
Q 2050 219 2050 291 
Q 2050 363 1850 653 
L 1431 1266 
L 972 653 
Q 759 369 759 316 
Q 759 241 829 180 
Q 900 119 1041 113 
L 1041 0 
L 106 0 
L 106 113 
Q 219 128 303 191 
Q 422 281 703 653 
L 1303 1450 
L 759 2238 
Q 528 2575 401 2661 
Q 275 2747 84 2747 
L 84 2863 
z
" transform="scale(0.015625)"/>
       <path id="TimesNewRomanPSMT-54" d="M 3703 4238 
L 3750 3244 
L 3631 3244 
Q 3597 3506 3538 3619 
Q 3441 3800 3280 3886 
Q 3119 3972 2856 3972 
L 2259 3972 
L 2259 734 
Q 2259 344 2344 247 
Q 2463 116 2709 116 
L 2856 116 
L 2856 0 
L 1059 0 
L 1059 116 
L 1209 116 
Q 1478 116 1591 278 
Q 1659 378 1659 734 
L 1659 3972 
L 1150 3972 
Q 853 3972 728 3928 
Q 566 3869 450 3700 
Q 334 3531 313 3244 
L 194 3244 
L 244 4238 
L 3703 4238 
z
" transform="scale(0.015625)"/>
      </defs>
      <use xlink:href="#TimesNewRomanPSMT-45"/>
      <use xlink:href="#TimesNewRomanPSMT-78" x="61.083984"/>
      <use xlink:href="#TimesNewRomanPSMT-70" x="111.083984"/>
      <use xlink:href="#TimesNewRomanPSMT-65" x="161.083984"/>
      <use xlink:href="#TimesNewRomanPSMT-72" x="205.46875"/>
      <use xlink:href="#TimesNewRomanPSMT-69" x="238.769531"/>
      <use xlink:href="#TimesNewRomanPSMT-6d" x="266.552734"/>
      <use xlink:href="#TimesNewRomanPSMT-65" x="344.335938"/>
      <use xlink:href="#TimesNewRomanPSMT-6e" x="388.720703"/>
      <use xlink:href="#TimesNewRomanPSMT-74" x="438.720703"/>
      <use xlink:href="#TimesNewRomanPSMT-61" x="466.503906"/>
      <use xlink:href="#TimesNewRomanPSMT-6c" x="510.888672"/>
      <use xlink:href="#TimesNewRomanPSMT-20" x="538.671875"/>
      <use xlink:href="#TimesNewRomanPSMT-54" x="561.921875"/>
      <use xlink:href="#TimesNewRomanPSMT-65" x="616.005859"/>
      <use xlink:href="#TimesNewRomanPSMT-73" x="660.390625"/>
      <use xlink:href="#TimesNewRomanPSMT-74" x="699.306641"/>
     </g>
    </g>
    <g id="line2d_26">
     <path d="M 56.929813 42.334089 
L 65.259813 42.334089 
L 73.589813 42.334089 
" style="fill: none; stroke: #0000ff; stroke-width: 1.2; stroke-linecap: square"/>
    </g>
    <g id="text_15">
     <!-- Numerical Test -->
     <g transform="translate(80.253813 45.249589) scale(0.0833 -0.0833)">
      <use xlink:href="#TimesNewRomanPSMT-4e"/>
      <use xlink:href="#TimesNewRomanPSMT-75" x="72.216797"/>
      <use xlink:href="#TimesNewRomanPSMT-6d" x="122.216797"/>
      <use xlink:href="#TimesNewRomanPSMT-65" x="200"/>
      <use xlink:href="#TimesNewRomanPSMT-72" x="244.384766"/>
      <use xlink:href="#TimesNewRomanPSMT-69" x="277.685547"/>
      <use xlink:href="#TimesNewRomanPSMT-63" x="305.46875"/>
      <use xlink:href="#TimesNewRomanPSMT-61" x="349.853516"/>
      <use xlink:href="#TimesNewRomanPSMT-6c" x="394.238281"/>
      <use xlink:href="#TimesNewRomanPSMT-20" x="422.021484"/>
      <use xlink:href="#TimesNewRomanPSMT-54" x="445.271484"/>
      <use xlink:href="#TimesNewRomanPSMT-65" x="499.355469"/>
      <use xlink:href="#TimesNewRomanPSMT-73" x="543.740234"/>
      <use xlink:href="#TimesNewRomanPSMT-74" x="582.65625"/>
     </g>
    </g>
   </g>
  </g>
 </g>
 <defs>
  <clipPath id="p90c3ec22d5">
   <rect x="49.432813" y="20.14375" width="222.82" height="236.26"/>
  </clipPath>
 </defs>
</svg>
