<?xml version="1.0" encoding="utf-8" standalone="no"?>
<!DOCTYPE svg PUBLIC "-//W3C//DTD SVG 1.1//EN"
  "http://www.w3.org/Graphics/SVG/1.1/DTD/svg11.dtd">
<svg xmlns:xlink="http://www.w3.org/1999/xlink" width="279.452812pt" height="292.774063pt" viewBox="0 0 279.452812 292.774063" xmlns="http://www.w3.org/2000/svg" version="1.1">
 <metadata>
  <rdf:RDF xmlns:dc="http://purl.org/dc/elements/1.1/" xmlns:cc="http://creativecommons.org/ns#" xmlns:rdf="http://www.w3.org/1999/02/22-rdf-syntax-ns#">
   <cc:Work>
    <dc:type rdf:resource="http://purl.org/dc/dcmitype/StillImage"/>
    <dc:date>2024-01-30T20:21:56.886847</dc:date>
    <dc:format>image/svg+xml</dc:format>
    <dc:creator>
     <cc:Agent>
      <dc:title>Matplotlib v3.7.1, https://matplotlib.org/</dc:title>
     </cc:Agent>
    </dc:creator>
   </cc:Work>
  </rdf:RDF>
 </metadata>
 <defs>
  <style type="text/css">*{stroke-linejoin: round; stroke-linecap: butt}</style>
 </defs>
 <g id="figure_1">
  <g id="patch_1">
   <path d="M 0 292.774063 
L 279.452812 292.774063 
L 279.452812 0 
L 0 0 
z
" style="fill: #ffffff"/>
  </g>
  <g id="axes_1">
   <g id="patch_2">
    <path d="M 49.432813 256.40375 
L 272.252813 256.40375 
L 272.252813 20.14375 
L 49.432813 20.14375 
z
" style="fill: #ffffff"/>
   </g>
   <g id="matplotlib.axis_1">
    <g id="xtick_1">
     <g id="line2d_1">
      <path d="M 65.612415 256.40375 
L 65.612415 20.14375 
" clip-path="url(#pa82792363a)" style="fill: none; stroke-dasharray: 0.8,1.32; stroke-dashoffset: 0; stroke: #b0b0b0; stroke-width: 0.8"/>
     </g>
     <g id="line2d_2">
      <defs>
       <path id="maa62fa83ab" d="M 0 0 
L 0 3.5 
" style="stroke: #000000; stroke-width: 0.8"/>
      </defs>
      <g>
       <use xlink:href="#maa62fa83ab" x="65.612415" y="256.40375" style="stroke: #000000; stroke-width: 0.8"/>
      </g>
     </g>
     <g id="text_1">
      <!-- −20 -->
      <g transform="translate(57.306165 270.39125) scale(0.1 -0.1)">
       <defs>
        <path id="Cambria-2212" d="M 397 1613 
L 397 2047 
L 3147 2047 
L 3147 1613 
L 397 1613 
z
" transform="scale(0.015625)"/>
        <path id="Cambria-32" d="M 2194 500 
Q 2347 500 2440 519 
Q 2534 538 2590 581 
Q 2647 625 2680 695 
Q 2713 766 2763 913 
L 3028 913 
L 2975 0 
L 403 0 
L 403 150 
Q 538 478 766 822 
Q 994 1166 1413 1631 
Q 1775 2031 1934 2238 
Q 2109 2463 2195 2627 
Q 2281 2791 2318 2936 
Q 2356 3081 2356 3228 
Q 2356 3463 2281 3642 
Q 2206 3822 2051 3925 
Q 1897 4028 1663 4028 
Q 1078 4028 875 3378 
L 497 3378 
L 497 3978 
Q 875 4156 1204 4236 
Q 1534 4316 1797 4316 
Q 2378 4316 2675 4061 
Q 2972 3806 2972 3322 
Q 2972 3156 2939 3017 
Q 2906 2878 2836 2742 
Q 2766 2606 2647 2450 
Q 2528 2294 2384 2133 
Q 2241 1972 1888 1597 
Q 1294 969 1016 500 
L 2194 500 
z
" transform="scale(0.015625)"/>
        <path id="Cambria-30" d="M 1738 -50 
Q 1063 -50 733 481 
Q 403 1013 403 2094 
Q 403 2669 504 3087 
Q 606 3506 789 3779 
Q 972 4053 1228 4184 
Q 1484 4316 1788 4316 
Q 2472 4316 2806 3787 
Q 3141 3259 3141 2191 
Q 3141 1084 2783 517 
Q 2425 -50 1738 -50 
z
M 1013 2188 
Q 1013 1169 1202 692 
Q 1391 216 1788 216 
Q 2166 216 2348 664 
Q 2531 1113 2531 2053 
Q 2531 2772 2437 3217 
Q 2344 3663 2176 3856 
Q 2009 4050 1772 4050 
Q 1556 4050 1411 3922 
Q 1266 3794 1177 3553 
Q 1088 3313 1050 2967 
Q 1013 2622 1013 2188 
z
" transform="scale(0.015625)"/>
       </defs>
       <use xlink:href="#Cambria-2212"/>
       <use xlink:href="#Cambria-32" x="55.371094"/>
       <use xlink:href="#Cambria-30" x="110.742188"/>
      </g>
     </g>
    </g>
    <g id="xtick_2">
     <g id="line2d_3">
      <path d="M 114.46975 256.40375 
L 114.46975 20.14375 
" clip-path="url(#pa82792363a)" style="fill: none; stroke-dasharray: 0.8,1.32; stroke-dashoffset: 0; stroke: #b0b0b0; stroke-width: 0.8"/>
     </g>
     <g id="line2d_4">
      <g>
       <use xlink:href="#maa62fa83ab" x="114.46975" y="256.40375" style="stroke: #000000; stroke-width: 0.8"/>
      </g>
     </g>
     <g id="text_2">
      <!-- −10 -->
      <g transform="translate(106.1635 270.39125) scale(0.1 -0.1)">
       <defs>
        <path id="Cambria-31" d="M 2172 816 
Q 2172 634 2192 542 
Q 2213 450 2264 392 
Q 2316 334 2412 301 
Q 2509 269 2656 251 
Q 2803 234 3044 228 
L 3044 0 
L 734 0 
L 734 228 
Q 1081 244 1229 270 
Q 1378 297 1456 350 
Q 1534 403 1570 500 
Q 1606 597 1606 816 
L 1606 3350 
Q 1606 3475 1562 3533 
Q 1519 3591 1434 3591 
Q 1334 3591 1150 3487 
Q 966 3384 694 3203 
L 556 3444 
L 2019 4316 
L 2191 4316 
Q 2172 4016 2172 3484 
L 2172 816 
z
" transform="scale(0.015625)"/>
       </defs>
       <use xlink:href="#Cambria-2212"/>
       <use xlink:href="#Cambria-31" x="55.371094"/>
       <use xlink:href="#Cambria-30" x="110.742188"/>
      </g>
     </g>
    </g>
    <g id="xtick_3">
     <g id="line2d_5">
      <path d="M 163.327086 256.40375 
L 163.327086 20.14375 
" clip-path="url(#pa82792363a)" style="fill: none; stroke-dasharray: 0.8,1.32; stroke-dashoffset: 0; stroke: #b0b0b0; stroke-width: 0.8"/>
     </g>
     <g id="line2d_6">
      <g>
       <use xlink:href="#maa62fa83ab" x="163.327086" y="256.40375" style="stroke: #000000; stroke-width: 0.8"/>
      </g>
     </g>
     <g id="text_3">
      <!-- 0 -->
      <g transform="translate(160.558336 270.39125) scale(0.1 -0.1)">
       <use xlink:href="#Cambria-30"/>
      </g>
     </g>
    </g>
    <g id="xtick_4">
     <g id="line2d_7">
      <path d="M 212.184421 256.40375 
L 212.184421 20.14375 
" clip-path="url(#pa82792363a)" style="fill: none; stroke-dasharray: 0.8,1.32; stroke-dashoffset: 0; stroke: #b0b0b0; stroke-width: 0.8"/>
     </g>
     <g id="line2d_8">
      <g>
       <use xlink:href="#maa62fa83ab" x="212.184421" y="256.40375" style="stroke: #000000; stroke-width: 0.8"/>
      </g>
     </g>
     <g id="text_4">
      <!-- 10 -->
      <g transform="translate(206.646921 270.39125) scale(0.1 -0.1)">
       <use xlink:href="#Cambria-31"/>
       <use xlink:href="#Cambria-30" x="55.371094"/>
      </g>
     </g>
    </g>
    <g id="xtick_5">
     <g id="line2d_9">
      <path d="M 261.041757 256.40375 
L 261.041757 20.14375 
" clip-path="url(#pa82792363a)" style="fill: none; stroke-dasharray: 0.8,1.32; stroke-dashoffset: 0; stroke: #b0b0b0; stroke-width: 0.8"/>
     </g>
     <g id="line2d_10">
      <g>
       <use xlink:href="#maa62fa83ab" x="261.041757" y="256.40375" style="stroke: #000000; stroke-width: 0.8"/>
      </g>
     </g>
     <g id="text_5">
      <!-- 20 -->
      <g transform="translate(255.504257 270.39125) scale(0.1 -0.1)">
       <use xlink:href="#Cambria-32"/>
       <use xlink:href="#Cambria-30" x="55.371094"/>
      </g>
     </g>
    </g>
    <g id="text_6">
     <!-- Displacement (mm) -->
     <g transform="translate(120.993594 283.435) scale(0.1 -0.1)">
      <defs>
       <path id="TimesNewRomanPSMT-44" d="M 109 0 
L 109 116 
L 269 116 
Q 538 116 650 288 
Q 719 391 719 750 
L 719 3488 
Q 719 3884 631 3984 
Q 509 4122 269 4122 
L 109 4122 
L 109 4238 
L 1834 4238 
Q 2784 4238 3279 4022 
Q 3775 3806 4076 3303 
Q 4378 2800 4378 2141 
Q 4378 1256 3841 663 
Q 3238 0 2003 0 
L 109 0 
z
M 1319 306 
Q 1716 219 1984 219 
Q 2709 219 3187 728 
Q 3666 1238 3666 2109 
Q 3666 2988 3187 3494 
Q 2709 4000 1959 4000 
Q 1678 4000 1319 3909 
L 1319 306 
z
" transform="scale(0.015625)"/>
       <path id="TimesNewRomanPSMT-69" d="M 928 4444 
Q 1059 4444 1151 4351 
Q 1244 4259 1244 4128 
Q 1244 3997 1151 3903 
Q 1059 3809 928 3809 
Q 797 3809 703 3903 
Q 609 3997 609 4128 
Q 609 4259 701 4351 
Q 794 4444 928 4444 
z
M 1188 2947 
L 1188 647 
Q 1188 378 1227 289 
Q 1266 200 1342 156 
Q 1419 113 1622 113 
L 1622 0 
L 231 0 
L 231 113 
Q 441 113 512 153 
Q 584 194 626 287 
Q 669 381 669 647 
L 669 1750 
Q 669 2216 641 2353 
Q 619 2453 572 2492 
Q 525 2531 444 2531 
Q 356 2531 231 2484 
L 188 2597 
L 1050 2947 
L 1188 2947 
z
" transform="scale(0.015625)"/>
       <path id="TimesNewRomanPSMT-73" d="M 2050 2947 
L 2050 1972 
L 1947 1972 
Q 1828 2431 1642 2597 
Q 1456 2763 1169 2763 
Q 950 2763 815 2647 
Q 681 2531 681 2391 
Q 681 2216 781 2091 
Q 878 1963 1175 1819 
L 1631 1597 
Q 2266 1288 2266 781 
Q 2266 391 1970 151 
Q 1675 -88 1309 -88 
Q 1047 -88 709 6 
Q 606 38 541 38 
Q 469 38 428 -44 
L 325 -44 
L 325 978 
L 428 978 
Q 516 541 762 319 
Q 1009 97 1316 97 
Q 1531 97 1667 223 
Q 1803 350 1803 528 
Q 1803 744 1651 891 
Q 1500 1038 1047 1263 
Q 594 1488 453 1669 
Q 313 1847 313 2119 
Q 313 2472 555 2709 
Q 797 2947 1181 2947 
Q 1350 2947 1591 2875 
Q 1750 2828 1803 2828 
Q 1853 2828 1881 2850 
Q 1909 2872 1947 2947 
L 2050 2947 
z
" transform="scale(0.015625)"/>
       <path id="TimesNewRomanPSMT-70" d="M -6 2578 
L 875 2934 
L 994 2934 
L 994 2266 
Q 1216 2644 1439 2795 
Q 1663 2947 1909 2947 
Q 2341 2947 2628 2609 
Q 2981 2197 2981 1534 
Q 2981 794 2556 309 
Q 2206 -88 1675 -88 
Q 1444 -88 1275 -22 
Q 1150 25 994 166 
L 994 -706 
Q 994 -1000 1030 -1079 
Q 1066 -1159 1155 -1206 
Q 1244 -1253 1478 -1253 
L 1478 -1369 
L -22 -1369 
L -22 -1253 
L 56 -1253 
Q 228 -1256 350 -1188 
Q 409 -1153 442 -1076 
Q 475 -1000 475 -688 
L 475 2019 
Q 475 2297 450 2372 
Q 425 2447 370 2484 
Q 316 2522 222 2522 
Q 147 2522 31 2478 
L -6 2578 
z
M 994 2081 
L 994 1013 
Q 994 666 1022 556 
Q 1066 375 1236 237 
Q 1406 100 1666 100 
Q 1978 100 2172 344 
Q 2425 663 2425 1241 
Q 2425 1897 2138 2250 
Q 1938 2494 1663 2494 
Q 1513 2494 1366 2419 
Q 1253 2363 994 2081 
z
" transform="scale(0.015625)"/>
       <path id="TimesNewRomanPSMT-6c" d="M 1184 4444 
L 1184 647 
Q 1184 378 1223 290 
Q 1263 203 1344 158 
Q 1425 113 1647 113 
L 1647 0 
L 244 0 
L 244 113 
Q 441 113 512 153 
Q 584 194 625 287 
Q 666 381 666 647 
L 666 3247 
Q 666 3731 644 3842 
Q 622 3953 573 3993 
Q 525 4034 450 4034 
Q 369 4034 244 3984 
L 191 4094 
L 1044 4444 
L 1184 4444 
z
" transform="scale(0.015625)"/>
       <path id="TimesNewRomanPSMT-61" d="M 1822 413 
Q 1381 72 1269 19 
Q 1100 -59 909 -59 
Q 613 -59 420 144 
Q 228 347 228 678 
Q 228 888 322 1041 
Q 450 1253 767 1440 
Q 1084 1628 1822 1897 
L 1822 2009 
Q 1822 2438 1686 2597 
Q 1550 2756 1291 2756 
Q 1094 2756 978 2650 
Q 859 2544 859 2406 
L 866 2225 
Q 866 2081 792 2003 
Q 719 1925 600 1925 
Q 484 1925 411 2006 
Q 338 2088 338 2228 
Q 338 2497 613 2722 
Q 888 2947 1384 2947 
Q 1766 2947 2009 2819 
Q 2194 2722 2281 2516 
Q 2338 2381 2338 1966 
L 2338 994 
Q 2338 584 2353 492 
Q 2369 400 2405 369 
Q 2441 338 2488 338 
Q 2538 338 2575 359 
Q 2641 400 2828 588 
L 2828 413 
Q 2478 -56 2159 -56 
Q 2006 -56 1915 50 
Q 1825 156 1822 413 
z
M 1822 616 
L 1822 1706 
Q 1350 1519 1213 1441 
Q 966 1303 859 1153 
Q 753 1003 753 825 
Q 753 600 887 451 
Q 1022 303 1197 303 
Q 1434 303 1822 616 
z
" transform="scale(0.015625)"/>
       <path id="TimesNewRomanPSMT-63" d="M 2631 1088 
Q 2516 522 2178 217 
Q 1841 -88 1431 -88 
Q 944 -88 581 321 
Q 219 731 219 1428 
Q 219 2103 620 2525 
Q 1022 2947 1584 2947 
Q 2006 2947 2278 2723 
Q 2550 2500 2550 2259 
Q 2550 2141 2473 2067 
Q 2397 1994 2259 1994 
Q 2075 1994 1981 2113 
Q 1928 2178 1911 2362 
Q 1894 2547 1784 2644 
Q 1675 2738 1481 2738 
Q 1169 2738 978 2506 
Q 725 2200 725 1697 
Q 725 1184 976 792 
Q 1228 400 1656 400 
Q 1963 400 2206 609 
Q 2378 753 2541 1131 
L 2631 1088 
z
" transform="scale(0.015625)"/>
       <path id="TimesNewRomanPSMT-65" d="M 681 1784 
Q 678 1147 991 784 
Q 1303 422 1725 422 
Q 2006 422 2214 576 
Q 2422 731 2563 1106 
L 2659 1044 
Q 2594 616 2278 264 
Q 1963 -88 1488 -88 
Q 972 -88 605 314 
Q 238 716 238 1394 
Q 238 2128 614 2539 
Q 991 2950 1559 2950 
Q 2041 2950 2350 2633 
Q 2659 2316 2659 1784 
L 681 1784 
z
M 681 1966 
L 2006 1966 
Q 1991 2241 1941 2353 
Q 1863 2528 1708 2628 
Q 1553 2728 1384 2728 
Q 1125 2728 920 2526 
Q 716 2325 681 1966 
z
" transform="scale(0.015625)"/>
       <path id="TimesNewRomanPSMT-6d" d="M 1050 2338 
Q 1363 2650 1419 2697 
Q 1559 2816 1721 2881 
Q 1884 2947 2044 2947 
Q 2313 2947 2506 2790 
Q 2700 2634 2766 2338 
Q 3088 2713 3309 2830 
Q 3531 2947 3766 2947 
Q 3994 2947 4170 2830 
Q 4347 2713 4450 2447 
Q 4519 2266 4519 1878 
L 4519 647 
Q 4519 378 4559 278 
Q 4591 209 4675 161 
Q 4759 113 4950 113 
L 4950 0 
L 3538 0 
L 3538 113 
L 3597 113 
Q 3781 113 3884 184 
Q 3956 234 3988 344 
Q 4000 397 4000 647 
L 4000 1878 
Q 4000 2228 3916 2372 
Q 3794 2572 3525 2572 
Q 3359 2572 3192 2489 
Q 3025 2406 2788 2181 
L 2781 2147 
L 2788 2013 
L 2788 647 
Q 2788 353 2820 281 
Q 2853 209 2943 161 
Q 3034 113 3253 113 
L 3253 0 
L 1806 0 
L 1806 113 
Q 2044 113 2133 169 
Q 2222 225 2256 338 
Q 2272 391 2272 647 
L 2272 1878 
Q 2272 2228 2169 2381 
Q 2031 2581 1784 2581 
Q 1616 2581 1450 2491 
Q 1191 2353 1050 2181 
L 1050 647 
Q 1050 366 1089 281 
Q 1128 197 1204 155 
Q 1281 113 1516 113 
L 1516 0 
L 100 0 
L 100 113 
Q 297 113 375 155 
Q 453 197 493 289 
Q 534 381 534 647 
L 534 1741 
Q 534 2213 506 2350 
Q 484 2453 437 2492 
Q 391 2531 309 2531 
Q 222 2531 100 2484 
L 53 2597 
L 916 2947 
L 1050 2947 
L 1050 2338 
z
" transform="scale(0.015625)"/>
       <path id="TimesNewRomanPSMT-6e" d="M 1034 2341 
Q 1538 2947 1994 2947 
Q 2228 2947 2397 2830 
Q 2566 2713 2666 2444 
Q 2734 2256 2734 1869 
L 2734 647 
Q 2734 375 2778 278 
Q 2813 200 2889 156 
Q 2966 113 3172 113 
L 3172 0 
L 1756 0 
L 1756 113 
L 1816 113 
Q 2016 113 2095 173 
Q 2175 234 2206 353 
Q 2219 400 2219 647 
L 2219 1819 
Q 2219 2209 2117 2386 
Q 2016 2563 1775 2563 
Q 1403 2563 1034 2156 
L 1034 647 
Q 1034 356 1069 288 
Q 1113 197 1189 155 
Q 1266 113 1500 113 
L 1500 0 
L 84 0 
L 84 113 
L 147 113 
Q 366 113 442 223 
Q 519 334 519 647 
L 519 1709 
Q 519 2225 495 2337 
Q 472 2450 423 2490 
Q 375 2531 294 2531 
Q 206 2531 84 2484 
L 38 2597 
L 900 2947 
L 1034 2947 
L 1034 2341 
z
" transform="scale(0.015625)"/>
       <path id="TimesNewRomanPSMT-74" d="M 1031 3803 
L 1031 2863 
L 1700 2863 
L 1700 2644 
L 1031 2644 
L 1031 788 
Q 1031 509 1111 412 
Q 1191 316 1316 316 
Q 1419 316 1516 380 
Q 1613 444 1666 569 
L 1788 569 
Q 1678 263 1478 108 
Q 1278 -47 1066 -47 
Q 922 -47 784 33 
Q 647 113 581 261 
Q 516 409 516 719 
L 516 2644 
L 63 2644 
L 63 2747 
Q 234 2816 414 2980 
Q 594 3144 734 3369 
Q 806 3488 934 3803 
L 1031 3803 
z
" transform="scale(0.015625)"/>
       <path id="TimesNewRomanPSMT-20" transform="scale(0.015625)"/>
       <path id="TimesNewRomanPSMT-28" d="M 1988 -1253 
L 1988 -1369 
Q 1516 -1131 1200 -813 
Q 750 -359 506 256 
Q 263 872 263 1534 
Q 263 2503 741 3301 
Q 1219 4100 1988 4444 
L 1988 4313 
Q 1603 4100 1356 3731 
Q 1109 3363 987 2797 
Q 866 2231 866 1616 
Q 866 947 969 400 
Q 1050 -31 1165 -292 
Q 1281 -553 1476 -793 
Q 1672 -1034 1988 -1253 
z
" transform="scale(0.015625)"/>
       <path id="TimesNewRomanPSMT-29" d="M 144 4313 
L 144 4444 
Q 619 4209 934 3891 
Q 1381 3434 1625 2820 
Q 1869 2206 1869 1541 
Q 1869 572 1392 -226 
Q 916 -1025 144 -1369 
L 144 -1253 
Q 528 -1038 776 -670 
Q 1025 -303 1145 264 
Q 1266 831 1266 1447 
Q 1266 2113 1163 2663 
Q 1084 3094 967 3353 
Q 850 3613 656 3853 
Q 463 4094 144 4313 
z
" transform="scale(0.015625)"/>
      </defs>
      <use xlink:href="#TimesNewRomanPSMT-44"/>
      <use xlink:href="#TimesNewRomanPSMT-69" x="72.216797"/>
      <use xlink:href="#TimesNewRomanPSMT-73" x="100"/>
      <use xlink:href="#TimesNewRomanPSMT-70" x="138.916016"/>
      <use xlink:href="#TimesNewRomanPSMT-6c" x="188.916016"/>
      <use xlink:href="#TimesNewRomanPSMT-61" x="216.699219"/>
      <use xlink:href="#TimesNewRomanPSMT-63" x="261.083984"/>
      <use xlink:href="#TimesNewRomanPSMT-65" x="305.46875"/>
      <use xlink:href="#TimesNewRomanPSMT-6d" x="349.853516"/>
      <use xlink:href="#TimesNewRomanPSMT-65" x="427.636719"/>
      <use xlink:href="#TimesNewRomanPSMT-6e" x="472.021484"/>
      <use xlink:href="#TimesNewRomanPSMT-74" x="522.021484"/>
      <use xlink:href="#TimesNewRomanPSMT-20" x="549.804688"/>
      <use xlink:href="#TimesNewRomanPSMT-28" x="574.804688"/>
      <use xlink:href="#TimesNewRomanPSMT-6d" x="608.105469"/>
      <use xlink:href="#TimesNewRomanPSMT-6d" x="685.888672"/>
      <use xlink:href="#TimesNewRomanPSMT-29" x="763.671875"/>
     </g>
    </g>
   </g>
   <g id="matplotlib.axis_2">
    <g id="ytick_1">
     <g id="line2d_11">
      <path d="M 49.432813 244.563214 
L 272.252813 244.563214 
" clip-path="url(#pa82792363a)" style="fill: none; stroke-dasharray: 0.8,1.32; stroke-dashoffset: 0; stroke: #b0b0b0; stroke-width: 0.8"/>
     </g>
     <g id="line2d_12">
      <defs>
       <path id="m2d3d4803a4" d="M 0 0 
L -3.5 0 
" style="stroke: #000000; stroke-width: 0.8"/>
      </defs>
      <g>
       <use xlink:href="#m2d3d4803a4" x="49.432813" y="244.563214" style="stroke: #000000; stroke-width: 0.8"/>
      </g>
     </g>
     <g id="text_7">
      <!-- −200 -->
      <g transform="translate(20.282813 248.056964) scale(0.1 -0.1)">
       <use xlink:href="#Cambria-2212"/>
       <use xlink:href="#Cambria-32" x="55.371094"/>
       <use xlink:href="#Cambria-30" x="110.742188"/>
       <use xlink:href="#Cambria-30" x="166.113281"/>
      </g>
     </g>
    </g>
    <g id="ytick_2">
     <g id="line2d_13">
      <path d="M 49.432813 217.027083 
L 272.252813 217.027083 
" clip-path="url(#pa82792363a)" style="fill: none; stroke-dasharray: 0.8,1.32; stroke-dashoffset: 0; stroke: #b0b0b0; stroke-width: 0.8"/>
     </g>
     <g id="line2d_14">
      <g>
       <use xlink:href="#m2d3d4803a4" x="49.432813" y="217.027083" style="stroke: #000000; stroke-width: 0.8"/>
      </g>
     </g>
     <g id="text_8">
      <!-- −150 -->
      <g transform="translate(20.282813 220.520833) scale(0.1 -0.1)">
       <defs>
        <path id="Cambria-35" d="M 469 172 
L 469 834 
L 847 834 
Q 941 516 1130 366 
Q 1319 216 1619 216 
Q 2034 216 2246 466 
Q 2459 716 2459 1213 
Q 2459 1544 2346 1761 
Q 2234 1978 2043 2075 
Q 1853 2172 1600 2172 
Q 1388 2172 1234 2145 
Q 1081 2119 906 2063 
L 656 2209 
L 656 4266 
L 2378 4266 
Q 2484 4266 2531 4283 
Q 2578 4300 2606 4336 
Q 2634 4372 2672 4472 
L 2916 4472 
L 2869 3747 
L 1072 3747 
L 1072 2375 
Q 1234 2444 1425 2478 
Q 1616 2513 1806 2513 
Q 2178 2513 2465 2361 
Q 2753 2209 2909 1929 
Q 3066 1650 3066 1281 
Q 3066 863 2891 563 
Q 2716 263 2384 106 
Q 2053 -50 1600 -50 
Q 1059 -50 469 172 
z
" transform="scale(0.015625)"/>
       </defs>
       <use xlink:href="#Cambria-2212"/>
       <use xlink:href="#Cambria-31" x="55.371094"/>
       <use xlink:href="#Cambria-35" x="110.742188"/>
       <use xlink:href="#Cambria-30" x="166.113281"/>
      </g>
     </g>
    </g>
    <g id="ytick_3">
     <g id="line2d_15">
      <path d="M 49.432813 189.490953 
L 272.252813 189.490953 
" clip-path="url(#pa82792363a)" style="fill: none; stroke-dasharray: 0.8,1.32; stroke-dashoffset: 0; stroke: #b0b0b0; stroke-width: 0.8"/>
     </g>
     <g id="line2d_16">
      <g>
       <use xlink:href="#m2d3d4803a4" x="49.432813" y="189.490953" style="stroke: #000000; stroke-width: 0.8"/>
      </g>
     </g>
     <g id="text_9">
      <!-- −100 -->
      <g transform="translate(20.282813 192.984703) scale(0.1 -0.1)">
       <use xlink:href="#Cambria-2212"/>
       <use xlink:href="#Cambria-31" x="55.371094"/>
       <use xlink:href="#Cambria-30" x="110.742188"/>
       <use xlink:href="#Cambria-30" x="166.113281"/>
      </g>
     </g>
    </g>
    <g id="ytick_4">
     <g id="line2d_17">
      <path d="M 49.432813 161.954822 
L 272.252813 161.954822 
" clip-path="url(#pa82792363a)" style="fill: none; stroke-dasharray: 0.8,1.32; stroke-dashoffset: 0; stroke: #b0b0b0; stroke-width: 0.8"/>
     </g>
     <g id="line2d_18">
      <g>
       <use xlink:href="#m2d3d4803a4" x="49.432813" y="161.954822" style="stroke: #000000; stroke-width: 0.8"/>
      </g>
     </g>
     <g id="text_10">
      <!-- −50 -->
      <g transform="translate(25.820313 165.448572) scale(0.1 -0.1)">
       <use xlink:href="#Cambria-2212"/>
       <use xlink:href="#Cambria-35" x="55.371094"/>
       <use xlink:href="#Cambria-30" x="110.742188"/>
      </g>
     </g>
    </g>
    <g id="ytick_5">
     <g id="line2d_19">
      <path d="M 49.432813 134.418692 
L 272.252813 134.418692 
" clip-path="url(#pa82792363a)" style="fill: none; stroke-dasharray: 0.8,1.32; stroke-dashoffset: 0; stroke: #b0b0b0; stroke-width: 0.8"/>
     </g>
     <g id="line2d_20">
      <g>
       <use xlink:href="#m2d3d4803a4" x="49.432813" y="134.418692" style="stroke: #000000; stroke-width: 0.8"/>
      </g>
     </g>
     <g id="text_11">
      <!-- 0 -->
      <g transform="translate(36.895313 137.912442) scale(0.1 -0.1)">
       <use xlink:href="#Cambria-30"/>
      </g>
     </g>
    </g>
    <g id="ytick_6">
     <g id="line2d_21">
      <path d="M 49.432813 106.882561 
L 272.252813 106.882561 
" clip-path="url(#pa82792363a)" style="fill: none; stroke-dasharray: 0.8,1.32; stroke-dashoffset: 0; stroke: #b0b0b0; stroke-width: 0.8"/>
     </g>
     <g id="line2d_22">
      <g>
       <use xlink:href="#m2d3d4803a4" x="49.432813" y="106.882561" style="stroke: #000000; stroke-width: 0.8"/>
      </g>
     </g>
     <g id="text_12">
      <!-- 50 -->
      <g transform="translate(31.357813 110.376311) scale(0.1 -0.1)">
       <use xlink:href="#Cambria-35"/>
       <use xlink:href="#Cambria-30" x="55.371094"/>
      </g>
     </g>
    </g>
    <g id="ytick_7">
     <g id="line2d_23">
      <path d="M 49.432813 79.346431 
L 272.252813 79.346431 
" clip-path="url(#pa82792363a)" style="fill: none; stroke-dasharray: 0.8,1.32; stroke-dashoffset: 0; stroke: #b0b0b0; stroke-width: 0.8"/>
     </g>
     <g id="line2d_24">
      <g>
       <use xlink:href="#m2d3d4803a4" x="49.432813" y="79.346431" style="stroke: #000000; stroke-width: 0.8"/>
      </g>
     </g>
     <g id="text_13">
      <!-- 100 -->
      <g transform="translate(25.820313 82.840181) scale(0.1 -0.1)">
       <use xlink:href="#Cambria-31"/>
       <use xlink:href="#Cambria-30" x="55.371094"/>
       <use xlink:href="#Cambria-30" x="110.742188"/>
      </g>
     </g>
    </g>
    <g id="ytick_8">
     <g id="line2d_25">
      <path d="M 49.432813 51.8103 
L 272.252813 51.8103 
" clip-path="url(#pa82792363a)" style="fill: none; stroke-dasharray: 0.8,1.32; stroke-dashoffset: 0; stroke: #b0b0b0; stroke-width: 0.8"/>
     </g>
     <g id="line2d_26">
      <g>
       <use xlink:href="#m2d3d4803a4" x="49.432813" y="51.8103" style="stroke: #000000; stroke-width: 0.8"/>
      </g>
     </g>
     <g id="text_14">
      <!-- 150 -->
      <g transform="translate(25.820313 55.30405) scale(0.1 -0.1)">
       <use xlink:href="#Cambria-31"/>
       <use xlink:href="#Cambria-35" x="55.371094"/>
       <use xlink:href="#Cambria-30" x="110.742188"/>
      </g>
     </g>
    </g>
    <g id="ytick_9">
     <g id="line2d_27">
      <path d="M 49.432813 24.27417 
L 272.252813 24.27417 
" clip-path="url(#pa82792363a)" style="fill: none; stroke-dasharray: 0.8,1.32; stroke-dashoffset: 0; stroke: #b0b0b0; stroke-width: 0.8"/>
     </g>
     <g id="line2d_28">
      <g>
       <use xlink:href="#m2d3d4803a4" x="49.432813" y="24.27417" style="stroke: #000000; stroke-width: 0.8"/>
      </g>
     </g>
     <g id="text_15">
      <!-- 200 -->
      <g transform="translate(25.820313 27.76792) scale(0.1 -0.1)">
       <use xlink:href="#Cambria-32"/>
       <use xlink:href="#Cambria-30" x="55.371094"/>
       <use xlink:href="#Cambria-30" x="110.742188"/>
      </g>
     </g>
    </g>
    <g id="text_16">
     <!-- Base Shear (kN) -->
     <g transform="translate(14.14375 171.319063) rotate(-90) scale(0.1 -0.1)">
      <defs>
       <path id="TimesNewRomanPSMT-42" d="M 2956 2163 
Q 3397 2069 3616 1863 
Q 3919 1575 3919 1159 
Q 3919 844 3719 555 
Q 3519 266 3170 133 
Q 2822 0 2106 0 
L 106 0 
L 106 116 
L 266 116 
Q 531 116 647 284 
Q 719 394 719 750 
L 719 3488 
Q 719 3881 628 3984 
Q 506 4122 266 4122 
L 106 4122 
L 106 4238 
L 1938 4238 
Q 2450 4238 2759 4163 
Q 3228 4050 3475 3764 
Q 3722 3478 3722 3106 
Q 3722 2788 3528 2536 
Q 3334 2284 2956 2163 
z
M 1319 2331 
Q 1434 2309 1582 2298 
Q 1731 2288 1909 2288 
Q 2366 2288 2595 2386 
Q 2825 2484 2947 2687 
Q 3069 2891 3069 3131 
Q 3069 3503 2766 3765 
Q 2463 4028 1881 4028 
Q 1569 4028 1319 3959 
L 1319 2331 
z
M 1319 306 
Q 1681 222 2034 222 
Q 2600 222 2897 476 
Q 3194 731 3194 1106 
Q 3194 1353 3059 1581 
Q 2925 1809 2622 1940 
Q 2319 2072 1872 2072 
Q 1678 2072 1540 2065 
Q 1403 2059 1319 2044 
L 1319 306 
z
" transform="scale(0.015625)"/>
       <path id="TimesNewRomanPSMT-53" d="M 2934 4334 
L 2934 2869 
L 2819 2869 
Q 2763 3291 2617 3541 
Q 2472 3791 2203 3937 
Q 1934 4084 1647 4084 
Q 1322 4084 1109 3886 
Q 897 3688 897 3434 
Q 897 3241 1031 3081 
Q 1225 2847 1953 2456 
Q 2547 2138 2764 1967 
Q 2981 1797 3098 1565 
Q 3216 1334 3216 1081 
Q 3216 600 2842 251 
Q 2469 -97 1881 -97 
Q 1697 -97 1534 -69 
Q 1438 -53 1133 45 
Q 828 144 747 144 
Q 669 144 623 97 
Q 578 50 556 -97 
L 441 -97 
L 441 1356 
L 556 1356 
Q 638 900 775 673 
Q 913 447 1195 297 
Q 1478 147 1816 147 
Q 2206 147 2432 353 
Q 2659 559 2659 841 
Q 2659 997 2573 1156 
Q 2488 1316 2306 1453 
Q 2184 1547 1640 1851 
Q 1097 2156 867 2337 
Q 638 2519 519 2737 
Q 400 2956 400 3219 
Q 400 3675 750 4004 
Q 1100 4334 1641 4334 
Q 1978 4334 2356 4169 
Q 2531 4091 2603 4091 
Q 2684 4091 2736 4139 
Q 2788 4188 2819 4334 
L 2934 4334 
z
" transform="scale(0.015625)"/>
       <path id="TimesNewRomanPSMT-68" d="M 1041 4444 
L 1041 2350 
Q 1388 2731 1591 2839 
Q 1794 2947 1997 2947 
Q 2241 2947 2416 2812 
Q 2591 2678 2675 2391 
Q 2734 2191 2734 1659 
L 2734 647 
Q 2734 375 2778 275 
Q 2809 200 2884 156 
Q 2959 113 3159 113 
L 3159 0 
L 1753 0 
L 1753 113 
L 1819 113 
Q 2019 113 2097 173 
Q 2175 234 2206 353 
Q 2216 403 2216 647 
L 2216 1659 
Q 2216 2128 2167 2275 
Q 2119 2422 2012 2495 
Q 1906 2569 1756 2569 
Q 1603 2569 1437 2487 
Q 1272 2406 1041 2159 
L 1041 647 
Q 1041 353 1073 281 
Q 1106 209 1195 161 
Q 1284 113 1503 113 
L 1503 0 
L 84 0 
L 84 113 
Q 275 113 384 172 
Q 447 203 484 290 
Q 522 378 522 647 
L 522 3238 
Q 522 3728 498 3840 
Q 475 3953 426 3993 
Q 378 4034 297 4034 
Q 231 4034 84 3984 
L 41 4094 
L 897 4444 
L 1041 4444 
z
" transform="scale(0.015625)"/>
       <path id="TimesNewRomanPSMT-72" d="M 1038 2947 
L 1038 2303 
Q 1397 2947 1775 2947 
Q 1947 2947 2059 2842 
Q 2172 2738 2172 2600 
Q 2172 2478 2090 2393 
Q 2009 2309 1897 2309 
Q 1788 2309 1652 2417 
Q 1516 2525 1450 2525 
Q 1394 2525 1328 2463 
Q 1188 2334 1038 2041 
L 1038 669 
Q 1038 431 1097 309 
Q 1138 225 1241 169 
Q 1344 113 1538 113 
L 1538 0 
L 72 0 
L 72 113 
Q 291 113 397 181 
Q 475 231 506 341 
Q 522 394 522 644 
L 522 1753 
Q 522 2253 501 2348 
Q 481 2444 426 2487 
Q 372 2531 291 2531 
Q 194 2531 72 2484 
L 41 2597 
L 906 2947 
L 1038 2947 
z
" transform="scale(0.015625)"/>
       <path id="TimesNewRomanPSMT-6b" d="M 1047 4444 
L 1047 1597 
L 1775 2259 
Q 2006 2472 2044 2528 
Q 2069 2566 2069 2603 
Q 2069 2666 2017 2711 
Q 1966 2756 1847 2763 
L 1847 2863 
L 3091 2863 
L 3091 2763 
Q 2834 2756 2664 2684 
Q 2494 2613 2291 2428 
L 1556 1750 
L 2291 822 
Q 2597 438 2703 334 
Q 2853 188 2966 144 
Q 3044 113 3238 113 
L 3238 0 
L 1847 0 
L 1847 113 
Q 1966 116 2008 148 
Q 2050 181 2050 241 
Q 2050 313 1925 472 
L 1047 1594 
L 1047 644 
Q 1047 366 1086 278 
Q 1125 191 1197 153 
Q 1269 116 1509 113 
L 1509 0 
L 53 0 
L 53 113 
Q 272 113 381 166 
Q 447 200 481 272 
Q 528 375 528 628 
L 528 3234 
Q 528 3731 506 3842 
Q 484 3953 434 3995 
Q 384 4038 303 4038 
Q 238 4038 106 3984 
L 53 4094 
L 903 4444 
L 1047 4444 
z
" transform="scale(0.015625)"/>
       <path id="TimesNewRomanPSMT-4e" d="M -84 4238 
L 1066 4238 
L 3656 1059 
L 3656 3503 
Q 3656 3894 3569 3991 
Q 3453 4122 3203 4122 
L 3056 4122 
L 3056 4238 
L 4531 4238 
L 4531 4122 
L 4381 4122 
Q 4113 4122 4000 3959 
Q 3931 3859 3931 3503 
L 3931 -69 
L 3819 -69 
L 1025 3344 
L 1025 734 
Q 1025 344 1109 247 
Q 1228 116 1475 116 
L 1625 116 
L 1625 0 
L 150 0 
L 150 116 
L 297 116 
Q 569 116 681 278 
Q 750 378 750 734 
L 750 3681 
Q 566 3897 470 3965 
Q 375 4034 191 4094 
Q 100 4122 -84 4122 
L -84 4238 
z
" transform="scale(0.015625)"/>
      </defs>
      <use xlink:href="#TimesNewRomanPSMT-42"/>
      <use xlink:href="#TimesNewRomanPSMT-61" x="66.699219"/>
      <use xlink:href="#TimesNewRomanPSMT-73" x="111.083984"/>
      <use xlink:href="#TimesNewRomanPSMT-65" x="150"/>
      <use xlink:href="#TimesNewRomanPSMT-20" x="194.384766"/>
      <use xlink:href="#TimesNewRomanPSMT-53" x="219.384766"/>
      <use xlink:href="#TimesNewRomanPSMT-68" x="275"/>
      <use xlink:href="#TimesNewRomanPSMT-65" x="325"/>
      <use xlink:href="#TimesNewRomanPSMT-61" x="369.384766"/>
      <use xlink:href="#TimesNewRomanPSMT-72" x="413.769531"/>
      <use xlink:href="#TimesNewRomanPSMT-20" x="447.070312"/>
      <use xlink:href="#TimesNewRomanPSMT-28" x="472.070312"/>
      <use xlink:href="#TimesNewRomanPSMT-6b" x="505.371094"/>
      <use xlink:href="#TimesNewRomanPSMT-4e" x="555.371094"/>
      <use xlink:href="#TimesNewRomanPSMT-29" x="627.587891"/>
     </g>
    </g>
   </g>
   <g id="line2d_29">
    <path d="M 159.314042 137.370565 
L 161.60721 124.836118 
L 169.251135 102.641997 
L 165.046962 107.81879 
L 166.957968 101.210118 
L 169.251135 94.546375 
L 169.251135 110.02168 
L 168.104552 118.172375 
L 165.046962 137.370565 
L 163.518167 144.001265 
L 161.60721 153.638911 
L 160.460626 161.734533 
L 159.314042 168.398277 
L 157.020874 176.493899 
L 156.256452 181.670692 
L 153.963284 186.847484 
L 153.581122 190.041675 
L 153.198911 181.670692 
L 156.256452 161.734533 
L 156.638663 150.665009 
L 159.696204 134.418692 
L 162.371583 122.578156 
L 164.282589 111.508631 
L 165.811335 103.413009 
L 166.957968 98.236216 
L 170.015509 90.856533 
L 171.544303 85.679741 
L 173.45526 82.705839 
L 171.926465 96.033326 
L 171.544303 107.81879 
L 169.251135 120.375265 
L 166.575757 129.985375 
L 162.371583 156.557741 
L 159.314042 164.708435 
L 157.020874 174.291009 
L 155.87429 181.670692 
L 153.198911 186.847484 
L 151.670116 195.548902 
L 149.376949 199.40396 
L 146.70157 201.60685 
L 149.75916 176.493899 
L 151.670116 163.221484 
L 153.963284 155.841801 
L 159.696204 129.247406 
L 163.136005 117.456435 
L 166.575757 103.413009 
L 169.633298 93.059424 
L 173.073049 81.989899 
L 177.277223 75.491372 
L 181.099186 71.085591 
L 177.277223 88.653643 
L 174.219682 101.210118 
L 168.486714 120.375265 
L 165.046962 131.466819 
L 161.224999 151.380948 
L 159.696204 164.708435 
L 155.492079 175.77796 
L 151.670116 193.346011 
L 148.230365 203.809741 
L 145.937197 209.867689 
L 142.879607 214.824193 
L 142.115234 203.809741 
L 145.554986 181.670692 
L 148.230365 166.911326 
L 152.052327 152.867899 
L 158.931831 129.985375 
L 161.989421 117.456435 
L 165.429173 107.10285 
L 174.984055 77.694263 
L 180.716975 68.882701 
L 184.538938 63.375475 
L 186.832106 60.621862 
L 187.97869 58.418971 
L 187.97869 71.636314 
L 183.774565 85.679741 
L 181.099186 96.749265 
L 178.041596 108.589801 
L 174.601844 116.685424 
L 172.308676 122.578156 
L 169.633298 130.72885 
L 167.34013 136.632597 
L 124.534215 217.027083 
L 158.931831 161.018594 
L 154.345495 180.954752 
L 150.523533 202.157573 
L 142.879607 216.476361 
L 140.204277 220.882142 
L 137.528898 223.635755 
L 134.853519 227.490813 
L 134.089146 214.27347 
L 137.146687 197.201069 
L 141.350861 181.670692 
L 144.026191 167.627265 
L 149.376949 152.867899 
L 152.8167 141.082435 
L 156.256452 132.942755 
L 161.224999 118.172375 
L 164.664751 107.10285 
L 174.219682 87.882631 
L 178.423807 81.218888 
L 181.099186 73.288482 
L 186.832106 64.47692 
L 188.360901 58.969694 
L 194.476031 54.013191 
L 195.240404 57.868249 
L 194.858242 68.882701 
L 188.360901 80.502948 
L 184.156727 91.572473 
L 180.334813 104.89996 
L 175.366266 120.375265 
L 170.779882 127.754948 
L 166.575757 135.15666 
L 161.989421 150.665009 
L 157.020874 162.505545 
L 153.198911 170.601167 
L 149.376949 182.441703 
L 145.937197 195.548902 
L 141.733023 206.012631 
L 137.91106 213.172025 
L 135.23573 216.476361 
L 134.089146 219.229974 
L 134.089146 206.012631 
L 138.675482 183.157643 
L 144.408402 164.708435 
L 149.75916 149.178058 
L 156.256452 131.466819 
L 164.282589 112.995582 
L 168.486714 101.926058 
L 182.627981 86.39568 
L 180.716975 85.679741 
L 187.214317 73.839205 
L 190.271857 65.027643 
L 193.329447 61.172584 
L 194.476031 61.172584 
L 193.711658 71.085591 
L 187.596528 85.679741 
L 179.952602 104.89996 
L 175.366266 115.969484 
L 168.486714 127.754948 
L 155.109868 166.911326 
L 145.937197 191.143121 
L 141.350861 203.809741 
L 136.764476 214.824193 
L 134.471308 225.287922 
L 131.413768 229.693703 
L 129.1206 231.896594 
L 127.209594 232.447316 
L 126.827432 222.534309 
L 127.591805 210.418412 
L 131.79593 201.60685 
L 136.000103 185.360533 
L 139.057644 170.601167 
L 143.644029 160.247582 
L 147.465992 152.15196 
L 153.581122 135.894628 
L 157.403036 122.578156 
L 163.518167 112.995582 
L 168.486714 102.641997 
L 175.366266 91.572473 
L 186.449895 68.882701 
L 195.240404 54.013191 
L 197.915783 51.8103 
L 199.444578 50.158132 
L 197.533572 61.172584 
L 193.329447 73.839205 
L 182.24577 97.520277 
L 178.806018 107.81879 
L 172.308676 121.862216 
L 166.957968 132.942755 
L 160.460626 152.15196 
L 155.87429 164.708435 
L 147.848154 182.441703 
L 142.879607 197.201069 
L 138.675482 207.664799 
L 134.471308 214.27347 
L 131.031557 220.882142 
L 127.209594 227.490813 
L 126.445221 218.128529 
L 129.884973 204.360463 
L 134.471308 191.143121 
L 139.439855 173.575069 
L 141.350861 163.937424 
L 147.083781 151.380948 
L 152.052327 141.798375 
L 156.638663 129.247406 
L 163.518167 114.482533 
L 173.073049 93.059424 
L 179.18818 81.989899 
L 186.832106 71.085591 
L 191.418441 60.621862 
L 196.004826 51.8103 
L 198.680156 48.505964 
L 201.355535 47.404519 
L 203.266541 45.752351 
L 202.502119 55.665358 
L 194.858242 69.984146 
L 188.360901 82.705839 
L 184.156727 94.546375 
L 177.277223 111.508631 
L 174.219682 121.146277 
L 166.957968 135.894628 
L 162.753794 144.001265 
L 155.109868 159.531643 
L 152.052327 175.06202 
L 144.026191 194.998179 
L 136.764476 212.07058 
L 132.178141 220.331419 
L 128.356178 227.490813 
L 124.916426 235.751652 
L 122.623258 239.055988 
L 119.565717 241.258878 
L 118.419084 236.853097 
L 118.419084 228.041536 
L 119.565717 215.925638 
L 123.769842 206.012631 
L 130.267184 191.143121 
L 134.089146 181.670692 
L 137.528898 171.317107 
L 142.115234 160.247582 
L 150.523533 146.975167 
L 156.638663 129.247406 
L 159.696204 156.557741 
L 172.690887 104.89996 
L 179.18818 89.369582 
L 185.685522 76.042095 
L 190.654068 65.027643 
L 194.858242 57.868249 
L 199.82674 52.911745 
L 201.737746 52.361023 
L 198.297994 62.27403 
L 189.889695 77.694263 
L 182.627981 94.546375 
L 178.423807 105.615899 
L 174.219682 117.456435 
L 167.34013 131.466819 
L 155.87429 166.195386 
L 147.848154 181.670692 
L 142.497445 194.447456 
L 138.675482 199.954682 
L 134.089146 209.867689 
L 131.031557 214.824193 
L 126.445221 223.085032 
L 121.094463 231.896594 
L 119.183506 233.548762 
L 119.183506 222.534309 
L 120.33009 210.969135 
L 126.827432 197.751792 
L 131.413768 186.847484 
L 136.000103 174.291009 
L 140.96865 162.505545 
L 146.319359 149.178058 
L 153.581122 138.852009 
L 163.518167 113.766594 
L 174.984055 93.059424 
L 182.24577 78.795708 
L 188.743111 69.433424 
L 195.240404 58.418971 
L 200.208951 47.955242 
L 204.795287 42.998738 
L 207.852876 40.795848 
L 211.292628 38.592957 
L 211.292628 47.404519 
L 205.941871 58.969694 
L 199.062367 74.389927 
L 192.182863 87.166692 
L 187.97869 97.520277 
L 183.010143 107.10285 
L 177.277223 116.685424 
L 170.015509 127.754948 
L 162.371583 143.285326 
L 153.963284 159.531643 
L 151.670116 169.114216 
L 144.408402 187.618496 
L 139.439855 202.157573 
L 133.324724 208.215522 
L 123.005469 226.94009 
L 118.801295 236.302375 
L 114.214959 240.157433 
L 111.15737 243.461769 
L 109.628624 238.505265 
L 110.010786 225.838645 
L 112.303954 217.027083 
L 125.298637 188.334435 
L 131.031557 177.264911 
L 137.146687 163.221484 
L 150.523533 135.15666 
L 155.109868 127.039009 
L 160.842837 115.969484 
L 168.868925 107.10285 
L 176.130639 96.749265 
L 188.360901 76.042095 
L 196.769199 63.375475 
L 201.355535 52.911745 
L 206.324082 48.505964 
L 208.99946 44.100184 
L 211.292628 42.998738 
L 207.470666 54.013191 
L 202.119957 65.027643 
L 197.533572 75.491372 
L 193.711658 83.47685 
L 188.360901 93.775363 
L 184.156727 104.128948 
L 177.659434 117.456435 
L 172.690887 127.039009 
L 165.429173 140.311424 
L 160.460626 152.867899 
L 152.052327 172.088118 
L 145.172775 180.183741 
L 139.057644 192.795288 
L 132.560351 199.954682 
L 128.738389 208.766244 
L 124.152053 217.027083 
L 118.036922 225.838645 
L 114.214959 231.896594 
L 110.775208 235.751652 
L 110.392997 223.635755 
L 115.361543 212.07058 
L 120.33009 199.40396 
L 124.916426 189.050375 
L 129.884973 180.954752 
L 136.000103 169.114216 
L 143.644029 152.867899 
L 152.8167 132.204787 
L 161.60721 115.969484 
L 172.308676 101.926058 
L 178.041596 88.653643 
L 192.947236 71.085591 
L 199.82674 56.766804 
L 205.177498 50.158132 
L 208.99946 45.201629 
L 214.350218 39.14368 
L 216.643386 35.288622 
L 218.172132 33.085731 
L 220.083138 39.694403 
L 218.936554 51.8103 
L 214.350218 62.27403 
L 211.674839 71.085591 
L 205.941871 81.218888 
L 199.444578 92.343484 
L 189.507484 105.615899 
L 181.481397 115.969484 
L 176.895012 122.578156 
L 169.251135 137.370565 
L 163.136005 148.462118 
L 150.905743 166.911326 
L 137.528898 192.795288 
L 129.884973 204.360463 
L 119.947879 228.041536 
L 115.361543 232.447316 
L 111.15737 239.055988 
L 105.806661 242.911046 
L 102.749071 243.461769 
L 102.366909 234.099484 
L 102.749071 225.838645 
L 105.806661 214.824193 
L 109.628624 205.461909 
L 114.59717 197.751792 
L 121.476674 183.157643 
L 127.974016 169.885228 
L 134.089146 159.531643 
L 140.204277 149.949069 
L 146.70157 138.108533 
L 150.905743 128.52596 
L 161.989421 113.766594 
L 168.486714 103.413009 
L 182.627981 86.39568 
L 197.533572 71.636314 
L 202.119957 65.027643 
L 207.852876 54.013191 
L 212.821423 47.404519 
L 215.878964 43.549461 
L 220.083138 39.14368 
L 217.025548 54.013191 
L 213.203585 65.578365 
L 209.381671 76.042095 
L 202.88433 85.679741 
L 188.743111 108.589801 
L 178.806018 122.578156 
L 171.926465 132.942755 
L 161.224999 152.15196 
L 152.8167 175.06202 
L 140.96865 190.041675 
L 132.942514 199.40396 
L 126.827432 207.664799 
L 118.419084 217.027083 
L 108.099829 231.896594 
L 104.660077 236.302375 
L 101.602487 238.505265 
L 102.749071 225.838645 
L 105.806661 214.824193 
L 110.392997 201.60685 
L 116.125916 194.998179 
L 120.712301 185.360533 
L 131.413768 161.734533 
L 136.382314 155.07079 
L 142.115234 144.001265 
L 147.465992 135.15666 
L 153.581122 125.552058 
L 154.727706 124.065107 
L 164.282589 113.766594 
L 175.748428 100.439107 
L 184.538938 89.369582 
L 192.565025 79.787009 
L 200.591162 68.882701 
L 205.559709 58.969694 
L 210.528255 49.60741 
L 215.114591 45.752351 
L 217.407759 41.346571 
L 222.376306 38.592957 
L 226.198269 34.187177 
L 228.491436 36.390067 
L 227.344852 47.955242 
L 224.287263 58.418971 
L 219.318716 67.781256 
L 213.968007 79.787009 
L 208.61725 86.39568 
L 202.502119 95.262314 
L 197.915783 100.439107 
L 193.329447 107.10285 
L 185.685522 117.456435 
L 178.423807 124.836118 
L 171.926465 135.894628 
L 167.34013 143.285326 
L 147.083781 175.06202 
L 137.528898 190.592398 
L 132.560351 201.60685 
L 123.005469 210.969135 
L 110.775208 226.94009 
L 106.571034 234.099484 
L 102.366909 238.505265 
L 98.927108 242.911046 
L 94.722983 245.664659 
L 94.340773 239.055988 
L 93.95861 225.838645 
L 99.309319 214.27347 
L 113.832749 182.441703 
L 121.858885 171.317107 
L 130.267184 157.328752 
L 138.293271 141.798375 
L 144.790613 135.894628 
L 150.905743 128.52596 
L 165.811335 107.10285 
L 176.895012 94.546375 
L 184.921149 86.39568 
L 195.622615 78.244985 
L 211.674839 56.216081 
L 217.78997 49.60741 
L 223.140679 43.549461 
L 224.669474 41.346571 
L 226.962642 40.795848 
L 226.962642 49.60741 
L 220.847511 63.375475 
L 215.114591 76.592818 
L 209.381671 86.39568 
L 203.266541 94.546375 
L 197.533572 101.926058 
L 191.418441 112.279643 
L 182.24577 124.065107 
L 172.690887 135.15666 
L 164.282589 148.462118 
L 145.554986 180.183741 
L 134.089146 193.346011 
L 127.591805 203.259018 
L 119.947879 210.418412 
L 112.686165 219.229974 
L 106.953245 225.838645 
L 103.895655 231.345871 
L 100.455903 236.302375 
L 97.016151 238.505265 
L 94.340773 240.708156 
L 93.95861 227.490813 
L 96.63394 218.128529 
L 102.366909 206.012631 
L 108.099829 192.244566 
L 116.125916 178.751862 
L 125.680799 161.734533 
L 142.115234 135.894628 
L 152.8167 124.836118 
L 161.989421 116.685424 
L 172.308676 106.331839 
L 186.832106 90.856533 
L 196.769199 78.795708 
L 207.470666 62.824752 
L 215.878964 52.361023 
L 221.611933 45.752351 
L 226.962642 41.346571 
L 231.931188 34.737899 
L 236.517524 32.535009 
L 237.281946 41.897293 
L 234.988778 50.708855 
L 230.402393 61.172584 
L 224.287263 71.636314 
L 217.025548 81.218888 
L 211.674839 90.085522 
L 202.502119 99.723167 
L 196.386988 110.792692 
L 188.743111 118.888314 
L 181.481397 127.039009 
L 173.837471 138.108533 
L 166.957968 146.975167 
L 156.256452 163.221484 
L 148.230365 172.804058 
L 141.350861 181.670692 
L 127.974016 193.346011 
L 119.183506 207.664799 
L 108.48204 222.534309 
L 101.984698 231.896594 
L 97.780524 239.055988 
L 92.811978 242.360323 
L 88.225642 244.563214 
L 85.932474 244.563214 
L 86.314685 231.345871 
L 88.225642 222.534309 
L 92.047605 210.969135 
L 97.016151 199.954682 
L 104.277866 186.847484 
L 112.303954 173.575069 
L 119.565717 162.505545 
L 125.680799 155.07079 
L 140.586439 133.680723 
L 147.465992 124.836118 
L 155.492079 117.456435 
L 161.989421 110.792692 
L 173.45526 102.641997 
L 188.743111 86.39568 
L 198.297994 78.244985 
L 206.324082 67.781256 
L 212.821423 61.172584 
L 220.847511 51.8103 
L 228.491436 41.897293 
L 234.224356 36.94079 
L 237.281946 35.288622 
L 235.37094 49.60741 
L 231.548977 58.418971 
L 224.669474 71.636314 
L 220.847511 76.592818 
L 212.057001 88.653643 
L 204.413125 99.723167 
L 196.004826 113.766594 
L 184.156727 123.349167 
L 174.984055 135.15666 
L 167.722341 146.975167 
L 157.403036 163.221484 
L 143.644029 176.493899 
L 133.324724 185.360533 
L 128.738389 192.244566 
L 121.858885 201.60685 
L 110.775208 213.172025 
L 105.42445 220.331419 
L 101.984698 224.7372 
L 98.927108 228.041536 
L 95.105194 231.896594 
L 92.047605 235.751652 
L 89.372226 236.853097 
L 85.932474 238.505265 
L 85.932474 226.94009 
L 90.136648 213.172025 
L 93.95861 203.259018 
L 100.455903 192.795288 
L 106.571034 180.183741 
L 116.125916 166.911326 
L 123.769842 156.557741 
L 130.267184 145.488216 
L 137.146687 135.894628 
L 145.937197 126.267997 
L 152.43449 118.888314 
L 208.99946 65.578365 
L 166.575757 105.615899 
L 175.748428 96.749265 
L 182.24577 89.369582 
L 194.858242 79.787009 
L 203.648703 69.984146 
L 210.910417 61.172584 
L 220.4653 50.158132 
L 228.109225 41.897293 
L 236.517524 34.737899 
L 241.103909 34.187177 
L 244.16145 34.187177 
L 244.16145 45.201629 
L 241.103909 57.868249 
L 233.842194 67.781256 
L 226.962642 78.795708 
L 218.936554 89.369582 
L 210.910417 98.952156 
L 203.266541 107.81879 
L 193.711658 121.146277 
L 184.921149 131.466819 
L 178.041596 140.311424 
L 165.046962 152.867899 
L 157.020874 160.247582 
L 147.848154 173.575069 
L 135.23573 186.847484 
L 127.209594 196.650347 
L 116.890338 208.766244 
L 107.335456 218.128529 
L 97.780524 229.142981 
L 90.901021 235.751652 
L 86.696847 240.157433 
L 79.05297 243.461769 
L 77.906386 242.360323 
L 77.524175 232.447316 
L 79.435132 223.085032 
L 84.403679 214.27347 
L 97.016151 188.334435 
L 104.277866 176.493899 
L 113.068375 163.221484 
L 120.33009 153.638911 
L 127.209594 144.001265 
L 133.706935 138.108533 
L 141.733023 126.267997 
L 82.874933 231.345871 
L 153.963284 115.969484 
L 159.314042 110.792692 
L 173.45526 100.439107 
L 182.24577 90.085522 
L 193.711658 81.218888 
L 200.591162 75.491372 
L 218.554343 56.216081 
L 226.198269 50.158132 
L 233.842194 45.201629 
L 239.957325 39.14368 
L 244.543661 37.491512 
L 244.16145 49.60741 
L 240.339487 58.418971 
L 234.224356 68.882701 
L 229.63802 76.042095 
L 221.229722 88.653643 
L 215.496802 93.775363 
L 205.559709 104.89996 
L 198.297994 114.482533 
L 191.036279 122.578156 
L 185.303311 134.418692 
L 177.277223 142.569386 
L 173.073049 149.949069 
L 164.664751 157.328752 
L 145.554986 179.467801 
L 132.560351 190.592398 
L 124.534215 197.201069 
L 116.125916 203.809741 
L 107.717618 212.07058 
L 100.455903 217.027083 
L 91.665394 229.693703 
L 85.932474 233.548762 
L 80.963927 236.302375 
L 77.524175 236.853097 
L 78.288548 222.534309 
L 81.7283 210.969135 
L 88.225642 198.853237 
L 93.95861 190.592398 
L 103.513493 176.493899 
L 110.010786 163.937424 
L 118.036922 155.07079 
L 123.005469 147.691107 
L 134.089146 135.894628 
L 84.403679 221.432864 
L 147.465992 119.659326 
L 155.87429 113.766594 
L 182.627981 92.343484 
L 187.214317 87.882631 
L 196.386988 79.787009 
L 204.413125 71.636314 
L 222.758517 54.013191 
L 231.548977 45.752351 
L 239.957325 37.491512 
L 244.543661 34.187177 
L 248.365623 31.984286 
L 252.951959 30.882841 
L 253.334121 36.94079 
L 253.716332 45.752351 
L 251.805375 52.911745 
L 244.543661 65.027643 
L 238.810692 73.839205 
L 232.313399 83.47685 
L 217.78997 100.439107 
L 209.763833 111.508631 
L 203.266541 117.456435 
L 197.533572 124.836118 
L 189.125274 133.680723 
L 179.570391 139.589977 
L 168.868925 152.867899 
L 156.638663 161.734533 
L 145.172775 178.751862 
L 127.591805 192.244566 
L 115.743754 203.259018 
L 105.806661 210.969135 
L 97.398362 218.128529 
L 90.901021 224.7372 
L 77.906386 234.099484 
L 72.173418 236.853097 
L 69.498088 234.650207 
L 70.262461 221.432864 
L 75.613218 209.867689 
L 81.7283 197.751792 
L 90.136648 183.873582 
L 100.073741 169.114216 
L 110.775208 155.841801 
L 117.2725 146.975167 
L 124.152053 139.589977 
L 131.413768 134.418692 
L 140.586439 128.52596 
L 150.523533 120.375265 
L 162.753794 111.508631 
L 175.366266 103.413009 
L 192.947236 87.882631 
L 201.355535 78.795708 
L 210.146044 69.984146 
L 218.554343 62.27403 
L 228.109225 55.665358 
L 235.753151 48.505964 
L 246.072455 39.14368 
L 250.658791 36.94079 
L 253.716332 34.737899 
L 251.423164 47.404519 
L 247.601201 58.969694 
L 241.103909 69.433424 
L 235.753151 76.592818 
L 228.109225 87.882631 
L 220.4653 97.520277 
L 212.821423 106.331839 
L 208.61725 114.482533 
L 200.208951 121.146277 
L 193.711658 127.039009 
L 178.423807 144.772277 
L 170.397719 150.665009 
L 159.696204 160.247582 
L 152.43449 168.398277 
L 129.1206 189.050375 
L 116.890338 196.650347 
L 106.953245 204.360463 
L 99.69153 212.07058 
L 91.665394 217.027083 
L 80.581716 225.287922 
L 72.173418 230.244426 
L 69.498088 231.345871 
L 68.733666 224.7372 
L 72.173418 212.621302 
L 77.524175 199.954682 
L 85.550263 189.050375 
L 95.487356 174.291009 
L 108.099829 158.815703 
L 116.890338 147.691107 
L 127.209594 135.15666 
L 135.617892 127.039009 
L 214.350218 67.230533 
L 152.8167 116.685424 
L 170.015509 110.02168 
L 184.156727 94.546375 
L 194.09382 85.679741 
L 202.119957 78.795708 
L 218.554343 60.621862 
L 230.784604 52.361023 
L 236.899735 47.955242 
L 246.836828 39.694403 
L 252.569748 36.390067 
L 256.773922 34.737899 
L 262.124631 34.187177 
L 262.124631 45.201629 
L 256.773922 60.071139 
L 247.983412 73.839205 
L 239.192903 86.39568 
L 231.548977 92.343484 
L 224.287263 104.128948 
L 129.1206 181.670692 
L 207.852876 120.375265 
L 199.82674 129.247406 
L 189.889695 138.108533 
L 181.863559 144.001265 
L 174.601844 151.380948 
L 162.371583 158.044692 
L 141.350861 179.467801 
L 126.445221 191.143121 
L 110.775208 201.60685 
L 98.162735 209.867689 
L 90.51881 215.925638 
L 81.7283 222.534309 
L 73.702213 227.490813 
L 66.440498 229.693703 
L 63.382957 230.244426 
L 61.089789 228.041536 
L 59.943205 216.476361 
L 64.529541 207.664799 
L 71.026834 196.650347 
L 78.288548 187.618496 
L 85.550263 175.06202 
L 93.95861 165.424375 
L 101.984698 156.557741 
L 111.15737 145.488216 
L 120.33009 135.894628 
L 129.502762 128.52596 
L 142.115234 122.578156 
L 157.785247 117.456435 
L 183.010143 97.520277 
L 196.004826 82.705839 
L 203.648703 76.592818 
L 225.433847 58.969694 
L 237.664108 52.911745 
L 247.219039 45.752351 
L 253.334121 40.795848 
L 258.684879 38.592957 
L 261.360258 38.592957 
L 261.360258 46.303074 
L 257.538295 58.418971 
L 252.569748 67.781256 
L 246.454617 77.694263 
L 236.135362 88.653643 
L 230.402393 97.520277 
L 221.611933 107.10285 
L 215.878964 112.279643 
L 207.470666 122.578156 
L 197.533572 133.680723 
L 187.214317 141.082435 
L 178.423807 147.691107 
L 166.193546 155.07079 
L 154.727706 164.708435 
L 147.848154 173.575069 
L 139.057644 175.77796 
L 131.031557 184.644594 
L 119.947879 191.143121 
L 110.392997 199.954682 
L 101.602487 207.664799 
L 92.429816 215.925638 
L 84.021517 218.679251 
L 73.702213 223.085032 
L 64.14733 224.7372 
L 59.560994 224.7372 
L 62.236373 210.969135 
L 67.587082 199.954682 
L 74.848797 186.847484 
L 83.257095 175.06202 
L 90.51881 165.424375 
L 99.309319 155.841801 
L 106.571034 149.949069 
L 116.508127 140.311424 
L 124.916426 132.942755 
L 132.942514 127.754948 
L 150.523533 121.146277 
L 168.486714 107.81879 
L 187.214317 96.033326 
L 197.15141 84.963801 
L 208.235087 78.244985 
L 218.172132 67.781256 
L 228.873647 61.172584 
L 237.664108 52.911745 
L 247.601201 47.404519 
L 256.0095 42.998738 
L 261.742469 41.897293 
L 259.449301 54.013191 
L 254.480754 65.578365 
L 245.308034 78.244985 
L 240.721698 85.679741 
L 234.606567 90.856533 
L 227.727063 103.413009 
L 216.643386 112.279643 
L 203.266541 127.754948 
L 185.685522 141.082435 
L 176.895012 149.178058 
L 165.046962 158.815703 
L 153.198911 170.601167 
L 142.497445 174.291009 
L 121.094463 190.592398 
L 111.15737 197.751792 
L 99.69153 203.259018 
L 85.932474 207.664799 
L 75.613218 214.824193 
L 68.351504 218.128529 
L 62.618535 220.331419 
L 59.943205 197.751792 
L 62.618535 188.334435 
L 69.498088 177.264911 
L 76.377591 167.627265 
L 83.257095 159.531643 
L 89.754437 152.867899 
L 97.016151 146.259228 
L 105.806661 138.108533 
L 114.214959 130.72885 
L 122.241047 127.039009 
L 130.267184 121.862216 
L 139.822066 118.888314 
L 153.581122 112.995582 
L 158.931831 111.508631 
L 158.931831 111.508631 
" clip-path="url(#pa82792363a)" style="fill: none; stroke-dasharray: 3.7,1.6; stroke-dashoffset: 0; stroke: #000000"/>
   </g>
   <g id="line2d_30">
    <path d="M 163.327086 134.418692 
L 165.471181 105.619344 
L 166.532639 94.040263 
L 167.581435 86.007757 
L 168.613427 80.326577 
L 169.624539 76.191253 
L 170.610777 73.01893 
L 172.493163 68.309501 
L 178.315656 55.081082 
L 179.592982 53.116735 
L 180.42715 52.199697 
L 178.304863 62.677782 
L 175.020475 77.679841 
L 171.548618 92.364672 
L 168.592126 104.448279 
L 167.559742 109.16862 
L 166.51064 114.789001 
L 165.448963 121.984519 
L 164.378905 130.979575 
L 160.099539 172.974295 
L 159.051051 179.944913 
L 158.019453 184.605853 
L 156.023141 187.186498 
L 155.066312 189.164992 
L 153.254191 191.360696 
L 152.406056 192.967819 
L 151.601058 194.163293 
L 150.133005 195.511038 
L 147.84154 199.173755 
L 146.523895 200.960256 
L 146.227051 200.651189 
L 149.515251 185.246249 
L 152.457835 172.619329 
L 156.08394 157.592261 
L 158.083356 148.215677 
L 159.11613 142.379106 
L 160.165536 135.557688 
L 163.371872 111.610457 
L 164.445949 107.060763 
L 165.515607 101.779807 
L 166.57662 97.472633 
L 168.656002 90.392964 
L 170.651273 84.362291 
L 172.530941 79.37541 
L 175.069403 73.286457 
L 177.191542 68.852856 
L 178.822117 65.85659 
L 180.427062 63.250788 
L 180.389774 63.417848 
L 175.750416 83.731632 
L 170.54994 105.947114 
L 168.549497 115.656026 
L 167.516335 121.509472 
L 166.466625 128.128256 
L 164.3342 142.866364 
L 162.185878 155.208816 
L 161.116358 159.434324 
L 159.007702 166.454805 
L 155.98267 175.592834 
L 153.218034 183.093904 
L 150.811814 189.017099 
L 148.306294 194.461714 
L 146.227198 198.489381 
L 149.541704 183.587119 
L 152.492447 171.355722 
L 157.112997 152.973735 
L 158.126002 148.385631 
L 159.159551 143.042129 
L 160.209562 136.769292 
L 162.342327 122.162295 
L 163.455047 115.611902 
L 164.9893 108.415924 
L 166.516988 102.440934 
L 168.032077 97.437518 
L 171.000591 88.83738 
L 173.847989 81.62854 
L 176.529327 75.48412 
L 179.002285 70.470047 
L 181.22783 66.72306 
L 183.170834 63.982729 
L 184.80063 62.054979 
L 187.02305 59.615682 
L 187.755329 58.891652 
L 183.872284 74.719187 
L 181.030675 85.494409 
L 177.561386 97.715541 
L 167.749234 130.908623 
L 166.231325 137.875403 
L 164.701945 145.832579 
L 163.167135 153.176616 
L 161.632957 158.996737 
L 158.590708 168.385441 
L 155.623216 176.638584 
L 152.777321 183.833336 
L 150.09794 189.793433 
L 147.627364 194.711724 
L 145.404589 198.58221 
L 144.397258 199.656113 
L 142.610589 202.075052 
L 140.041242 204.951229 
L 138.899052 206.10413 
L 141.30079 195.853837 
L 143.671608 186.440192 
L 146.73931 175.346513 
L 149.118796 167.512328 
L 153.095792 155.397211 
L 155.957941 146.85659 
L 157.435537 142.090841 
L 158.936404 136.469539 
L 163.519026 115.586627 
L 165.053127 109.881884 
L 166.58041 104.781791 
L 168.094843 100.351096 
L 171.061307 92.599735 
L 173.905696 86.041359 
L 176.583114 80.425517 
L 179.051303 75.812429 
L 181.271306 72.125242 
L 184.060518 68.085107 
L 186.62258 64.915625 
L 187.754869 63.661545 
L 182.963551 82.755664 
L 179.891363 93.917245 
L 176.23189 106.15865 
L 167.686295 133.2429 
L 164.638061 145.600514 
L 163.103156 151.593689 
L 161.569136 156.836347 
L 158.527957 165.588336 
L 155.562527 173.253786 
L 152.71965 180.043977 
L 150.044198 185.872807 
L 147.5784 190.675259 
L 145.361175 194.521181 
L 143.427518 197.553892 
L 141.124145 200.741874 
L 138.899596 203.475291 
L 142.039208 190.463445 
L 144.662855 180.416163 
L 146.786335 172.902028 
L 149.170891 165.115938 
L 153.153926 153.239251 
L 157.49765 140.417095 
L 158.999357 135.150726 
L 163.65978 116.467689 
L 165.653899 109.630092 
L 167.638827 103.7026 
L 169.606725 98.402787 
L 171.549819 93.577744 
L 173.460435 89.195131 
L 177.154203 81.487091 
L 178.922765 78.154398 
L 180.629728 75.202347 
L 182.268347 72.594413 
L 185.314965 68.349817 
L 188.014532 65.124241 
L 191.32162 61.760785 
L 194.171852 59.256011 
L 195.082387 58.533165 
L 191.907096 71.195867 
L 188.804925 82.687932 
L 186.226812 91.413855 
L 183.287255 100.496493 
L 180.032652 109.637875 
L 176.514373 118.712399 
L 172.78795 127.498243 
L 168.912198 136.262006 
L 166.937376 141.498405 
L 164.948293 147.43901 
L 162.952807 153.823541 
L 160.958799 159.571517 
L 157.006686 169.721628 
L 153.154332 178.617215 
L 149.462542 186.320847 
L 145.989586 192.540314 
L 144.35246 195.164311 
L 141.309219 199.464349 
L 138.613501 202.763257 
L 136.307856 205.213132 
L 134.428675 206.954574 
L 131.572275 209.175087 
L 133.94954 199.281935 
L 136.731392 188.559434 
L 139.117332 180.158511 
L 141.885391 171.368879 
L 144.991881 162.542316 
L 148.387769 153.909446 
L 152.019454 145.490881 
L 157.782918 132.604548 
L 159.758117 127.849942 
L 165.736842 110.200059 
L 167.721217 104.869611 
L 169.688236 100.021113 
L 173.539227 91.423373 
L 177.229033 84.057208 
L 178.995166 80.793402 
L 182.335043 75.29224 
L 185.374904 70.993263 
L 188.066767 67.659165 
L 190.368146 65.123888 
L 193.010426 62.56254 
L 195.081352 60.761038 
L 191.870734 73.529661 
L 188.755185 84.994748 
L 186.169106 93.640402 
L 183.222494 102.567381 
L 179.961858 111.444727 
L 176.438663 120.173279 
L 172.708519 128.543991 
L 166.854728 141.270026 
L 164.865221 146.537459 
L 160.875864 157.713521 
L 156.925197 167.562153 
L 153.075575 176.229894 
L 149.38776 183.758477 
L 145.91996 190.02335 
L 142.726909 195.007363 
L 139.859006 198.900874 
L 137.361516 201.867878 
L 134.394285 204.947121 
L 131.573419 207.501116 
L 134.801691 194.440362 
L 137.923922 182.820175 
L 140.513978 174.145187 
L 143.46411 165.359394 
L 146.727754 156.757088 
L 150.253397 148.478168 
L 153.985392 140.415433 
L 155.910466 136.379521 
L 159.840777 127.53114 
L 163.941276 116.069417 
L 166.395003 109.288597 
L 168.836613 103.103732 
L 171.256461 97.433983 
L 173.64499 92.275876 
L 175.992764 87.518072 
L 178.290511 83.149961 
L 180.529155 79.218127 
L 182.699854 75.758377 
L 184.794033 72.736746 
L 186.803422 70.093874 
L 188.720083 67.791891 
L 192.245336 64.093737 
L 195.314152 61.324451 
L 197.878092 59.329922 
L 198.957758 58.636305 
L 199.896689 58.28401 
L 202.407718 56.680317 
L 199.425465 68.027449 
L 195.97608 80.23883 
L 193.0241 89.726118 
L 189.60339 99.574175 
L 187.733867 104.466815 
L 185.767942 109.29236 
L 183.713379 113.999746 
L 181.578294 118.573909 
L 179.371119 122.975934 
L 177.100574 127.177143 
L 172.405456 135.054857 
L 169.99943 138.962678 
L 167.567048 142.667803 
L 165.11792 147.867149 
L 160.208144 160.062806 
L 155.347597 171.327321 
L 152.959822 176.476151 
L 150.612996 181.229756 
L 148.316388 185.558632 
L 146.079071 189.415135 
L 143.90988 192.833822 
L 141.817383 195.835338 
L 139.809847 198.474228 
L 137.895199 200.75226 
L 134.374425 204.449691 
L 132.782205 205.928713 
L 129.965519 208.078139 
L 128.752179 208.600202 
L 125.948003 210.514757 
L 124.247325 211.562935 
L 127.248364 199.979003 
L 129.418174 192.136031 
L 132.123193 183.094033 
L 135.320726 173.465713 
L 137.088696 168.605157 
L 138.960304 163.798557 
L 140.928156 159.091458 
L 142.984481 154.51739 
L 145.121155 150.093853 
L 147.32974 145.822563 
L 149.601511 141.718101 
L 154.298508 133.91626 
L 159.138009 126.562574 
L 161.587384 121.451634 
L 168.937941 103.861239 
L 171.356674 98.56906 
L 173.743692 93.625865 
L 176.089566 89.091626 
L 178.38503 84.917002 
L 180.621018 81.137055 
L 182.788697 77.774692 
L 184.879507 74.801753 
L 186.885188 72.174428 
L 188.797818 69.888644 
L 192.314107 66.160318 
L 195.372872 63.336953 
L 197.925835 61.249941 
L 201.361793 58.785042 
L 202.405908 58.103342 
L 198.367503 73.202205 
L 195.919688 81.634007 
L 192.957441 91.002616 
L 189.527516 100.686256 
L 187.653826 105.484517 
L 185.68405 110.205811 
L 183.625968 114.810689 
L 181.487708 119.277483 
L 179.277717 123.557302 
L 177.004724 127.640423 
L 172.305856 135.350022 
L 167.465269 142.41097 
L 165.015652 147.313791 
L 155.247411 169.670365 
L 152.861155 174.644514 
L 148.221921 183.421981 
L 145.987267 187.205768 
L 143.821103 190.593259 
L 141.731984 193.585744 
L 139.728161 196.231735 
L 136.007699 200.537319 
L 132.718439 203.818974 
L 129.912297 206.278246 
L 126.70356 208.727707 
L 124.249269 210.397723 
L 127.287863 198.888316 
L 130.762763 186.782244 
L 133.730137 177.44113 
L 137.164661 167.825332 
L 139.040429 163.077518 
L 141.012125 158.426633 
L 143.071962 153.910268 
L 145.211803 149.546745 
L 147.423197 145.340606 
L 149.697408 141.308847 
L 154.398139 133.634523 
L 156.806093 130.1649 
L 159.239803 126.400556 
L 161.689658 121.37765 
L 170.110258 101.859352 
L 172.98116 95.784961 
L 175.81393 90.282114 
L 178.597379 85.283872 
L 181.320513 80.746612 
L 183.972576 76.764222 
L 186.543093 73.308775 
L 189.02191 70.325391 
L 191.399237 67.741044 
L 193.665684 65.502102 
L 197.830602 61.89378 
L 201.450925 59.238512 
L 204.469512 57.287588 
L 208.521148 54.982449 
L 209.73072 54.355793 
L 206.100099 67.796301 
L 203.502919 76.754206 
L 200.271614 86.932626 
L 198.433733 92.22115 
L 196.457187 97.515307 
L 194.349782 102.746208 
L 192.119842 107.868651 
L 189.776177 112.829819 
L 187.328041 117.595996 
L 184.785106 122.134043 
L 182.157416 126.378421 
L 179.455348 130.34944 
L 176.689577 134.084499 
L 173.871026 137.655998 
L 168.120281 143.888123 
L 165.210802 148.623034 
L 162.293882 154.735017 
L 156.48379 167.423303 
L 153.613568 173.254324 
L 150.781712 178.625316 
L 147.999408 183.571039 
L 145.277646 188.03014 
L 142.627176 191.951344 
L 140.058467 195.370342 
L 137.581666 198.335337 
L 135.206554 200.908202 
L 132.942514 203.137445 
L 130.798488 205.061666 
L 126.903845 208.139055 
L 123.584096 210.417415 
L 119.794333 212.666723 
L 116.924805 214.149937 
L 119.526571 204.299802 
L 121.797699 196.204126 
L 124.724316 186.553225 
L 126.419383 181.396383 
L 128.260229 176.152117 
L 130.239583 170.890049 
L 132.349627 165.686826 
L 134.582027 160.611685 
L 136.927965 155.72127 
L 139.378176 151.051508 
L 141.92298 146.604298 
L 144.552327 142.416581 
L 147.255831 138.481235 
L 150.022815 134.766548 
L 152.842347 131.375137 
L 155.703293 128.483356 
L 158.594351 125.242329 
L 161.504103 120.709342 
L 164.421056 114.774658 
L 170.230493 102.329103 
L 173.100032 96.587757 
L 175.930969 91.295616 
L 178.712123 86.433286 
L 181.432508 81.976211 
L 184.081381 78.047933 
L 186.648277 74.595616 
L 189.123058 71.601095 
L 191.49595 68.992665 
L 193.757579 66.722314 
L 195.899013 64.751877 
L 199.78797 61.59204 
L 203.101438 59.248772 
L 206.880885 56.900894 
L 209.727934 55.323387 
L 206.052753 68.89794 
L 203.441908 77.866008 
L 200.197901 88.016106 
L 198.354093 93.271973 
L 196.371935 98.518006 
L 194.259255 103.682603 
L 192.024398 108.723941 
L 189.676191 113.58934 
L 187.22391 118.252176 
L 184.67724 122.682666 
L 182.046241 126.832184 
L 179.341305 130.715391 
L 176.573115 134.377361 
L 173.752605 137.689702 
L 170.890916 140.547394 
L 167.999351 143.671998 
L 165.089332 148.087421 
L 162.172352 153.879441 
L 156.363579 166.213056 
L 153.494729 171.950753 
L 150.664716 177.26375 
L 147.884717 182.149671 
L 145.165712 186.604426 
L 142.518442 190.542981 
L 139.953363 194.004244 
L 137.480606 197.011615 
L 135.109938 199.635047 
L 132.850723 201.915639 
L 130.711885 203.886513 
L 126.828622 207.056457 
L 123.52144 209.409281 
L 119.752316 211.765632 
L 116.92775 213.340282 
L 120.625202 199.668546 
L 123.242873 190.683154 
L 126.493223 180.534628 
L 128.339989 175.291531 
L 130.324948 170.07153 
L 132.44026 164.933661 
L 134.67757 159.929935 
L 137.028041 155.114317 
L 139.482389 150.520546 
L 142.030919 146.149656 
L 144.663566 142.040687 
L 147.36993 138.182478 
L 150.139322 134.533018 
L 152.960804 131.236381 
L 155.823231 128.373296 
L 158.715297 125.129534 
L 161.625579 120.607977 
L 164.734502 114.374176 
L 171.459669 100.288149 
L 174.780691 93.896733 
L 178.056474 88.038044 
L 181.274078 82.718056 
L 184.420794 78.042418 
L 187.484194 73.99518 
L 190.452177 70.525169 
L 193.31302 67.539674 
L 196.055424 64.982992 
L 198.668557 62.799526 
L 201.142097 60.924467 
L 205.631907 57.933281 
L 209.45399 55.734722 
L 213.806279 53.565591 
L 217.05079 52.163663 
L 215.002656 59.913743 
L 212.74375 68.038864 
L 209.704863 78.196124 
L 207.907456 83.734072 
L 205.933963 89.407954 
L 203.79218 95.09645 
L 201.490567 100.700917 
L 199.038215 106.146683 
L 196.444809 111.375661 
L 193.720594 116.341033 
L 190.87633 121.032957 
L 187.923251 125.404302 
L 184.873021 129.442986 
L 181.737688 133.170644 
L 178.529636 136.644345 
L 175.261537 139.589327 
L 171.946299 142.259007 
L 168.597017 145.137801 
L 165.226919 149.400299 
L 161.849317 155.573031 
L 155.124941 168.995238 
L 151.804728 175.233346 
L 148.530026 180.972941 
L 145.313771 186.185868 
L 142.168664 190.792341 
L 139.10713 194.789814 
L 136.141261 198.226739 
L 133.282771 201.189287 
L 130.542952 203.720814 
L 127.932624 205.890873 
L 125.462098 207.755648 
L 120.978895 210.735912 
L 117.164105 212.928987 
L 114.077939 214.488205 
L 110.274054 216.098532 
L 109.605317 216.354848 
L 112.704536 204.871451 
L 115.366802 195.661459 
L 118.78606 184.887613 
L 120.763141 179.240966 
L 122.908342 173.574404 
L 125.21319 167.98612 
L 127.668582 162.55859 
L 130.264819 157.352128 
L 132.991647 152.410985 
L 135.838294 147.749313 
L 138.793518 143.402756 
L 141.845645 139.378704 
L 144.98262 135.653491 
L 148.192053 132.229051 
L 158.127199 123.91252 
L 161.49759 119.714016 
L 164.875206 113.717482 
L 171.598778 100.580128 
L 174.918176 94.459076 
L 178.191791 88.784224 
L 181.406693 83.634839 
L 184.550184 79.059422 
L 187.609847 75.03026 
L 190.573598 71.555791 
L 193.429729 68.553912 
L 196.166959 65.979084 
L 198.774478 63.766096 
L 201.241985 61.859949 
L 205.718573 58.806559 
L 209.526064 56.557526 
L 213.854411 54.318749 
L 217.046827 52.876652 
L 214.963813 60.664029 
L 212.688249 68.805547 
L 209.633582 78.967247 
L 207.828691 84.51095 
L 205.848026 90.18675 
L 203.69941 95.855521 
L 201.39133 101.419113 
L 198.932903 106.815137 
L 196.333839 111.986014 
L 193.604404 116.886186 
L 190.755378 121.50416 
L 187.798015 125.802981 
L 184.743996 129.776891 
L 181.605384 133.446932 
L 178.394576 136.802045 
L 168.456919 144.984925 
L 165.086243 149.052143 
L 161.708617 154.954238 
L 154.985861 168.043908 
L 151.667283 174.18611 
L 148.39476 179.84827 
L 145.181217 184.987184 
L 142.039347 189.56043 
L 138.98156 193.580769 
L 136.019934 197.054299 
L 133.166166 200.05904 
L 130.431529 202.635573 
L 127.826825 204.852653 
L 125.36234 206.763113 
L 120.892375 209.826646 
L 117.092189 212.085074 
L 112.775824 214.324493 
L 109.609464 215.697627 
L 112.751975 204.266588 
L 115.430483 195.090662 
L 118.864978 184.346439 
L 120.849224 178.700754 
L 123.001251 173.054979 
L 125.312558 167.512046 
L 127.774016 162.135427 
L 130.375903 156.981399 
L 133.107941 152.064486 
L 135.95934 147.448602 
L 138.918837 143.155022 
L 141.974743 139.177225 
L 145.114987 135.491085 
L 148.327165 132.120696 
L 158.267314 123.816255 
L 161.638272 119.532661 
L 165.246193 113.11264 
L 172.884749 98.405239 
L 176.654921 91.660625 
L 180.37245 85.525718 
L 184.022653 80.082853 
L 187.591112 75.355196 
L 191.063732 71.29965 
L 194.426797 67.850224 
L 197.667023 64.926966 
L 200.771612 62.439722 
L 203.728301 60.318559 
L 206.525413 58.505443 
L 211.597383 55.62821 
L 215.907468 53.545039 
L 217.755044 53.00014 
L 222.935444 50.921086 
L 224.369838 50.393537 
L 224.367325 50.401493 
L 220.771701 63.171565 
L 217.718722 73.221342 
L 215.866742 78.90129 
L 213.807239 84.825181 
L 211.548348 90.851445 
L 209.098991 96.860962 
L 206.468843 102.733985 
L 203.668292 108.377418 
L 200.7084 113.729588 
L 197.600858 118.749248 
L 194.35794 123.398791 
L 190.992456 127.667647 
L 187.517698 131.576657 
L 183.947391 135.152929 
L 180.295638 138.307679 
L 168.997201 146.113329 
L 165.166255 150.06348 
L 161.328044 156.354751 
L 153.69044 170.573931 
L 149.921214 177.247303 
L 146.204938 183.282161 
L 142.556292 188.647465 
L 138.989688 193.308807 
L 135.519212 197.288512 
L 132.158572 200.69053 
L 128.921043 203.585666 
L 125.819412 206.056096 
L 122.86593 208.170011 
L 120.072263 209.980369 
L 117.449445 211.532428 
L 108.862899 215.638638 
L 103.701377 217.714048 
L 102.281925 218.236999 
L 102.289464 218.211028 
L 105.909671 205.408716 
L 108.971866 195.389619 
L 110.828247 189.740089 
L 112.891989 183.847749 
L 115.154942 177.856271 
L 117.608166 171.879387 
L 120.241973 166.035169 
L 123.045959 160.415284 
L 126.009048 155.082722 
L 129.119537 150.079345 
L 132.365141 145.435851 
L 135.733039 141.169299 
L 139.209929 137.258553 
L 142.782077 133.675943 
L 146.435375 130.698864 
L 157.736606 122.89867 
L 161.567858 118.996059 
L 165.406059 112.881304 
L 173.042697 98.873792 
L 176.810972 92.314569 
L 180.525987 86.354665 
L 184.17307 80.99799 
L 187.737814 76.354718 
L 191.20614 72.358165 
L 194.564349 68.932441 
L 197.799176 66.008347 
L 200.897843 63.512288 
L 203.848113 61.372831 
L 206.638331 59.536492 
L 211.695205 56.610661 
L 215.98865 54.472333 
L 220.852711 52.350268 
L 224.374551 50.97237 
L 224.361985 51.017444 
L 220.717202 63.77392 
L 217.645797 73.730282 
L 215.785019 79.360886 
L 213.71704 85.244024 
L 211.45003 91.240594 
L 208.992941 97.203787 
L 206.355481 103.038246 
L 203.548065 108.650704 
L 200.581784 113.974842 
L 197.468352 118.969069 
L 194.220068 123.595622 
L 190.849762 127.840241 
L 187.370747 131.727321 
L 183.796762 135.287127 
L 180.141926 138.231837 
L 168.83792 145.992894 
L 165.006369 149.834472 
L 161.168185 155.927561 
L 153.532525 169.919929 
L 149.765209 176.494418 
L 146.05146 182.422989 
L 142.405947 187.735746 
L 138.843069 192.3796 
L 135.376899 196.380851 
L 132.021127 199.799061 
L 128.789008 202.716915 
L 125.693309 205.216659 
L 122.746258 207.359646 
L 119.959494 209.198057 
L 114.91018 212.121759 
L 110.625066 214.269711 
L 105.774655 216.402189 
L 102.277422 217.783195 
L 102.295014 217.720919 
L 105.964367 205.011131 
L 109.044977 195.068821 
L 110.91015 189.452864 
L 112.982361 183.587856 
L 115.253425 177.610037 
L 117.714373 171.65983 
L 120.355483 165.832606 
L 123.166323 160.224593 
L 126.135792 154.907554 
L 129.25216 149.922136 
L 132.503119 145.299463 
L 135.875827 141.056119 
L 139.356963 137.167651 
L 142.932777 133.603283 
L 146.589145 130.662653 
L 157.895906 122.860715 
L 161.72775 118.859664 
L 165.83457 112.247086 
L 174.385398 96.66435 
L 178.603711 89.616918 
L 182.761685 83.293192 
L 186.842894 77.758158 
L 190.831221 73.03668 
L 194.710911 69.059472 
L 198.466639 65.704066 
L 202.083573 62.863996 
L 205.547424 60.455431 
L 208.844513 58.409331 
L 211.961815 56.667461 
L 217.608568 53.899359 
L 222.398557 51.869055 
L 227.81572 49.855479 
L 231.705055 48.566571 
L 228.895542 58.449452 
L 225.93589 68.230271 
L 224.08195 73.978287 
L 221.988038 80.084153 
L 219.662425 86.381897 
L 217.114296 92.730124 
L 214.353718 99.000774 
L 211.391592 105.068125 
L 208.23962 110.827435 
L 204.910251 116.218135 
L 201.416635 121.212721 
L 197.772572 125.772208 
L 193.992455 129.906363 
L 190.091215 133.654652 
L 186.084261 137.024371 
L 181.98742 139.727535 
L 169.320784 147.105414 
L 165.028799 150.833704 
L 160.730091 157.31611 
L 152.180389 172.434229 
L 147.963163 179.350217 
L 143.806622 185.588042 
L 139.727184 191.060142 
L 135.740962 195.725305 
L 131.8637 199.673512 
L 128.110713 203.009822 
L 124.496826 205.83775 
L 121.036311 208.238812 
L 117.742837 210.275153 
L 114.629414 212.015188 
L 108.991148 214.783066 
L 104.210506 216.814829 
L 98.80865 218.829579 
L 94.946888 220.11408 
L 97.784192 210.140633 
L 100.754407 200.33877 
L 102.613425 194.587003 
L 104.712251 188.483006 
L 107.042597 182.19589 
L 109.595257 175.869456 
L 112.360148 169.630038 
L 115.326351 163.594585 
L 118.482148 157.863406 
L 121.815076 152.49765 
L 125.311969 147.525074 
L 128.959015 142.979777 
L 132.74181 138.854637 
L 136.645411 135.112037 
L 140.6544 131.843691 
L 144.752943 129.218832 
L 153.153644 124.356064 
L 157.422621 121.854754 
L 161.71492 118.169105 
L 166.013587 111.85812 
L 174.562149 96.943242 
L 178.77828 90.083355 
L 182.93338 83.885507 
L 187.01104 78.409163 
L 190.995151 73.723291 
L 194.869979 69.744421 
L 198.620217 66.376009 
L 202.231053 63.515489 
L 205.688225 61.080618 
L 208.978078 59.013602 
L 212.087617 57.247615 
L 217.717385 54.436048 
L 222.488672 52.372085 
L 227.875213 50.320529 
L 231.709395 49.006904 
L 227.480616 63.565632 
L 223.99944 74.571945 
L 221.895703 80.694372 
L 219.560628 87.006827 
L 217.003441 93.337937 
L 214.234241 99.55901 
L 211.263967 105.57235 
L 208.104349 111.277455 
L 204.767869 116.612864 
L 201.267705 121.553897 
L 197.617682 126.067064 
L 193.832217 130.161204 
L 189.926261 133.874828 
L 185.915243 137.100053 
L 181.815006 139.71126 
L 169.142307 147.046194 
L 164.849702 150.681137 
L 160.551083 156.985086 
L 152.003676 171.870888 
L 147.788648 178.72518 
L 143.634994 184.927699 
L 139.55912 190.400895 
L 135.577126 195.084629 
L 131.70474 199.065337 
L 127.957257 202.43563 
L 124.349478 205.297415 
L 120.895655 207.728611 
L 117.609429 209.795206 
L 114.50378 211.561034 
L 108.882518 214.370723 
L 104.120595 216.433067 
L 98.749379 218.481275 
L 94.942783 219.787344 
L 99.204681 205.125748 
L 102.696142 194.104005 
L 104.804787 187.981117 
L 107.144586 181.675343 
L 109.706296 175.360072 
L 112.4798 169.164134 
L 115.454141 163.178677 
L 118.617573 157.498922 
L 121.9576 152.184139 
L 125.461029 147.259993 
L 129.114023 142.758721 
L 132.902153 138.672787 
L 136.810456 134.964518 
L 140.823496 131.743797 
L 144.925421 129.148506 
L 157.601119 121.797225 
L 161.894022 118.014395 
L 166.499603 111.156231 
L 175.96151 94.838284 
L 180.626919 87.50199 
L 185.223998 80.953683 
L 189.734587 75.35663 
L 194.140871 70.648086 
L 198.425446 66.716994 
L 202.571388 63.421061 
L 206.562322 60.654528 
L 210.382484 58.326837 
L 214.016784 56.353515 
L 217.450869 54.671243 
L 223.66498 51.99974 
L 228.926733 50.039206 
L 234.85646 48.094058 
L 239.040356 46.866283 
L 235.806781 58.177157 
L 232.483281 68.986334 
L 230.408239 75.242751 
L 228.068238 81.811526 
L 225.472521 88.497115 
L 222.631339 95.140189 
L 219.555915 101.598145 
L 216.258397 107.760013 
L 212.751809 113.534536 
L 209.050002 118.877948 
L 205.167597 123.763418 
L 201.119928 128.183206 
L 196.922985 132.16293 
L 192.593343 135.754939 
L 188.148104 138.704105 
L 183.604827 141.282825 
L 174.296252 146.259991 
L 169.567722 148.949741 
L 164.814543 152.257606 
L 160.055488 158.374561 
L 155.309356 166.132631 
L 150.594893 174.098474 
L 145.930719 181.307214 
L 141.335259 187.732004 
L 136.826662 193.253629 
L 132.422738 197.919828 
L 128.14088 201.829566 
L 123.998002 205.117819 
L 120.010468 207.883062 
L 116.194027 210.217421 
L 112.563753 212.199852 
L 109.133987 213.889647 
L 102.929316 216.57911 
L 97.677947 218.554979 
L 91.765208 220.516192 
L 87.611868 221.74739 
L 90.87619 210.346415 
L 94.211361 199.523593 
L 96.29201 193.268237 
L 98.637436 186.706864 
L 101.238376 180.034956 
L 104.084555 173.412905 
L 107.164733 166.982949 
L 110.466743 160.853401 
L 113.977542 155.112204 
L 117.683263 149.803144 
L 121.56927 144.950689 
L 125.620214 140.567557 
L 129.820093 136.628869 
L 134.152319 133.090013 
L 138.599781 130.300713 
L 143.144911 127.812548 
L 152.456054 123.192609 
L 157.185288 120.82896 
L 161.938781 117.319781 
L 166.697758 110.77477 
L 176.157027 95.066028 
L 180.819956 87.872834 
L 185.413791 81.44339 
L 189.920387 75.891549 
L 194.321944 71.195093 
L 198.601077 67.257727 
L 202.740883 63.947219 
L 206.725012 61.164703 
L 210.537726 58.814467 
L 214.163965 56.818575 
L 217.589408 55.116579 
L 223.784628 52.411814 
L 229.025603 50.426148 
L 234.921345 48.451458 
L 239.044122 47.204588 
L 235.749058 58.621724 
L 232.402221 69.475664 
L 230.315969 75.754296 
L 227.965121 82.346815 
L 225.358964 89.048391 
L 222.507792 95.668785 
L 219.422866 102.090848 
L 216.11637 108.211257 
L 212.601366 113.942782 
L 208.891737 119.240749 
L 205.002135 124.079788 
L 200.947923 128.457796 
L 196.745115 132.401096 
L 192.410312 135.927456 
L 187.960635 138.727019 
L 183.41366 141.284412 
L 169.370035 148.912454 
L 164.616236 152.187378 
L 159.857345 158.181038 
L 155.112158 165.802533 
L 150.39942 173.692674 
L 145.737743 180.846884 
L 141.145541 187.228067 
L 136.640953 192.748686 
L 132.241771 197.426016 
L 127.96537 201.355518 
L 123.828642 204.666126 
L 119.847927 207.451116 
L 116.038947 209.809091 
L 112.416747 211.813378 
L 108.995634 213.52454 
L 102.809875 216.246032 
L 97.579302 218.244274 
L 91.700568 220.229478 
L 87.608362 221.477441 
L 90.934161 209.968449 
L 94.292658 199.097962 
L 96.384511 192.818323 
L 98.740775 186.23101 
L 101.352145 179.541137 
L 104.208306 172.940363 
L 107.297975 166.547693 
L 110.608951 160.462512 
L 114.128154 154.767265 
L 117.841685 149.502379 
L 121.734875 144.694679 
L 125.792348 140.350868 
L 129.998077 136.446305 
L 134.33545 132.949581 
L 138.787335 130.202695 
L 143.336147 127.732433 
L 157.382996 120.750542 
L 162.137093 117.150185 
L 167.241258 110.000071 
L 177.612975 92.928434 
L 182.724399 85.291498 
L 187.759207 78.62921 
L 192.697513 73.005304 
L 197.51981 68.345318 
L 202.207051 64.481015 
L 206.740723 61.275531 
L 211.102919 58.599471 
L 215.276407 56.348947 
L 219.244705 54.443986 
L 222.992138 52.821627 
L 229.766131 50.242044 
L 235.491468 48.346607 
L 241.920448 46.466514 
L 246.375138 45.29463 
L 244.075049 53.394557 
L 240.999031 63.63506 
L 238.997488 69.882365 
L 236.69706 76.612915 
L 234.106832 83.595473 
L 231.237037 90.616534 
L 228.099009 97.495428 
L 224.705142 104.08423 
L 221.068842 110.284089 
L 217.204472 116.024922 
L 213.127295 121.274949 
L 208.853416 126.010618 
L 204.399715 130.25653 
L 199.783784 134.050463 
L 195.023856 137.336156 
L 190.13873 139.974259 
L 180.070489 144.835731 
L 174.92714 147.21612 
L 169.737973 149.824671 
L 164.523485 153.059962 
L 159.30427 159.45957 
L 154.100946 167.669705 
L 148.934063 176.030894 
L 143.82403 183.535663 
L 138.79103 190.086258 
L 133.854944 195.642804 
L 129.035269 200.266796 
L 124.35104 204.112706 
L 119.82076 207.311319 
L 115.462322 209.990188 
L 111.292943 212.244908 
L 107.329089 214.157195 
L 103.586419 215.787893 
L 96.822825 218.382987 
L 91.108917 220.289248 
L 84.698612 222.180813 
L 80.277467 223.353444 
L 82.604663 215.166021 
L 85.693736 204.895825 
L 87.70159 198.641375 
L 90.008153 191.908599 
L 92.604313 184.930109 
L 95.479816 177.919627 
L 98.623304 171.063318 
L 102.022362 164.505027 
L 105.663563 158.342272 
L 109.532525 152.639467 
L 113.613967 147.424312 
L 117.891767 142.721251 
L 122.349029 138.511802 
L 126.968148 134.759361 
L 131.730878 131.600449 
L 136.618409 129.020848 
L 141.611434 126.647571 
L 151.834743 122.238093 
L 157.024647 119.989665 
L 162.239444 116.531043 
L 167.458537 109.621571 
L 177.827218 93.04654 
L 182.935852 85.553195 
L 187.967033 78.990158 
L 192.900891 73.404888 
L 197.717938 68.755234 
L 202.399146 64.888233 
L 206.926027 61.673166 
L 211.280698 58.982956 
L 215.445961 56.71581 
L 219.405364 54.794568 
L 223.143266 53.157335 
L 229.896448 50.553997 
L 235.598917 48.644224 
L 241.990535 46.74272 
L 246.378129 45.556709 
L 244.02383 53.782576 
L 240.921708 64.075946 
L 238.907545 70.342179 
L 236.594853 77.088312 
L 233.992764 84.089222 
L 231.111559 91.115049 
L 227.962616 97.96884 
L 224.558373 104.522898 
L 220.912277 110.679835 
L 217.038729 116.376883 
L 212.95303 121.583748 
L 208.671316 126.277499 
L 204.210499 130.486163 
L 199.588201 134.247925 
L 194.822676 137.405165 
L 189.93275 140.004005 
L 179.857363 144.835112 
L 174.711698 147.197569 
L 169.521066 149.789919 
L 164.305969 153.013034 
L 159.087005 159.326615 
L 153.884789 167.433389 
L 148.719869 175.735326 
L 143.612644 183.184108 
L 138.583289 189.698885 
L 133.651667 195.255309 
L 128.837258 199.887548 
L 124.159078 203.747243 
L 119.635605 206.961459 
L 115.284707 209.657005 
L 111.123567 211.931677 
L 107.168623 213.861871 
L 103.435496 215.507939 
L 96.692737 218.124151 
L 91.001716 220.045914 
L 84.628795 221.958207 
L 80.274761 223.145888 
L 82.656159 214.838833 
L 85.771325 204.521976 
L 87.791792 198.251913 
L 90.110611 191.506382 
L 92.718623 184.5119 
L 95.605527 177.498673 
L 98.759919 170.663941 
L 102.16934 164.136702 
L 105.820325 158.013498 
L 109.698452 152.351999 
L 113.788403 147.176793 
L 118.074023 142.512342 
L 122.538386 138.336369 
L 127.163856 134.612557 
L 131.932166 131.488368 
L 136.824481 128.932117 
L 141.821476 126.571006 
L 152.050224 122.178485 
L 157.241575 119.918958 
L 162.456963 116.344583 
L 168.059497 108.778477 
L 173.720115 99.672881 
L 179.339681 90.88504 
L 184.896 83.026592 
L 190.367126 76.296687 
L 195.731448 70.704002 
L 200.967779 66.117426 
L 206.055434 62.355174 
L 210.97432 59.250764 
L 215.705008 56.665327 
L 220.228811 54.495074 
L 224.527862 52.658177 
L 228.585181 51.094026 
L 235.911534 48.605913 
L 242.092233 46.769729 
L 249.007112 44.945985 
L 253.708797 43.836508 
L 251.087791 53.00953 
L 247.683567 64.192196 
L 245.477966 70.926809 
L 242.947883 78.107359 
L 240.103311 85.472498 
L 236.955486 92.793317 
L 233.516841 99.860888 
L 229.800958 106.538931 
L 225.822514 112.742148 
L 221.597224 118.436546 
L 217.141777 123.582847 
L 212.47377 128.188978 
L 207.611643 132.298459 
L 202.574599 135.954571 
L 197.382533 138.850785 
L 186.615902 143.920199 
L 181.083862 146.417717 
L 175.481686 149.077298 
L 169.831501 152.25659 
L 164.155625 155.678615 
L 158.476476 161.064019 
L 152.816487 169.121119 
L 147.198012 177.662328 
L 141.643245 185.570669 
L 136.174125 192.234771 
L 130.812255 197.803952 
L 125.578813 202.375296 
L 120.494471 206.139749 
L 115.57931 209.258049 
L 110.852744 211.861832 
L 106.333444 214.052231 
L 102.039259 215.908289 
L 97.987151 217.487789 
L 90.672165 220.004806 
L 84.503946 221.861624 
L 77.609438 223.683379 
L 72.94429 224.739142 
L 77.133756 210.488026 
L 81.225639 197.785872 
L 83.76238 190.63835 
L 86.613388 183.298403 
L 89.767403 175.995537 
L 93.211967 168.935058 
L 96.933473 162.25953 
L 100.917223 156.04111 
L 105.147481 150.332456 
L 109.60754 145.173478 
L 114.279781 140.549235 
L 119.145751 136.420952 
L 124.18623 132.811807 
L 129.381309 129.95333 
L 140.152658 124.852833 
L 145.686383 122.315462 
L 151.289785 119.58252 
L 156.940734 116.294866 
L 162.616907 112.790602 
L 168.295885 107.663088 
L 173.955237 99.90538 
L 179.57261 91.504066 
L 185.125816 83.715204 
L 190.59292 77.036345 
L 195.952329 71.502629 
L 201.182874 66.899698 
L 206.263895 63.098434 
L 211.175322 59.94655 
L 215.897757 57.315215 
L 220.412546 55.099355 
L 224.701858 53.221069 
L 228.748749 51.622021 
L 236.052354 49.075705 
L 242.208083 47.198966 
L 249.082209 45.332955 
L 251.986501 44.74563 
L 253.710812 44.328268 
L 249.48471 58.334128 
L 245.378959 70.842942 
L 242.835564 77.918709 
L 239.978124 85.228796 
L 236.817925 92.52676 
L 233.367449 99.609698 
L 229.640326 106.327532 
L 225.651276 112.578444 
L 221.416057 118.309295 
L 216.951395 123.488259 
L 212.274927 128.125687 
L 207.405123 132.262314 
L 202.361217 135.904862 
L 197.163134 138.775853 
L 186.387086 143.865483 
L 180.851686 146.376196 
L 175.247066 149.063348 
L 169.595364 152.256421 
L 163.918904 155.667204 
L 158.240106 160.988683 
L 152.5814 168.916707 
L 146.965139 177.371188 
L 141.413504 185.218794 
L 135.948424 191.821805 
L 130.591486 197.341307 
L 125.363847 201.915553 
L 120.286157 205.691572 
L 115.378472 208.831067 
L 110.660175 211.456757 
L 106.149904 213.66902 
L 101.865474 215.543506 
L 97.823806 217.139915 
L 90.531594 219.684959 
L 84.388366 221.553139 
L 72.942585 224.48964 
L 77.205315 210.398033 
L 81.324927 197.894755 
L 83.874971 190.841132 
L 86.738839 183.55717 
L 89.905216 176.287835 
L 93.361598 169.232948 
L 97.094332 162.543184 
L 101.088675 156.322096 
L 105.328848 150.62181 
L 109.798105 145.470924 
L 114.478793 140.862218 
L 119.352423 136.757155 
L 124.399745 133.133824 
L 129.600824 130.284799 
L 134.935117 127.761107 
L 140.381552 125.338302 
L 151.524447 120.645948 
L 157.176892 117.991794 
L 162.85363 114.672711 
L 168.954278 107.491164 
L 181.14151 89.097902 
L 187.141568 81.172019 
L 193.047563 74.481685 
L 198.836168 68.997513 
L 204.484517 64.513643 
L 209.970301 60.842909 
L 215.271853 57.811615 
L 220.368231 55.291287 
L 225.239307 53.173503 
L 229.865839 51.380972 
L 234.229554 49.849832 
L 242.100697 47.408124 
L 248.728498 45.602002 
L 257.856906 43.395732 
L 261.04073 42.694721 
L 258.079755 52.645938 
L 254.338216 64.424873 
L 251.924171 71.444724 
L 249.160182 78.89002 
L 246.057167 86.494689 
L 242.627382 94.022796 
L 238.884374 101.258589 
L 234.842927 108.051275 
L 230.519005 114.307823 
L 225.929686 119.989979 
L 221.093097 125.075189 
L 216.028342 129.593349 
L 210.755425 133.599457 
L 205.295175 137.028007 
L 199.669158 139.771115 
L 188.009277 144.737356 
L 182.021468 147.186543 
L 175.959819 149.808205 
L 169.848273 153.000232 
L 163.710969 156.44842 
L 157.57215 162.188512 
L 151.456061 170.703682 
L 145.38686 179.561653 
L 139.388521 187.641628 
L 133.484735 194.295097 
L 127.698821 199.757952 
L 122.053633 204.218864 
L 116.571468 207.879255 
L 111.27398 210.901556 
L 106.182093 213.423288 
L 101.31592 215.542605 
L 96.69468 217.339064 
L 92.336627 218.874126 
L 84.477828 221.322726 
L 77.863564 223.132028 
L 68.764944 225.338911 
L 65.612939 226.039305 
L 68.605765 216.001149 
L 72.362612 204.263404 
L 74.78405 197.264646 
L 77.555218 189.844248 
L 80.66517 182.262028 
L 84.101623 174.746303 
L 87.851004 167.508553 
L 91.898502 160.706242 
L 96.228132 154.437318 
L 100.822791 148.739997 
L 105.664331 143.632486 
L 110.73363 139.085488 
L 116.010664 135.0473 
L 121.474591 131.692824 
L 127.103827 128.947473 
L 138.768728 123.93327 
L 144.758318 121.399908 
L 150.821251 118.59775 
L 156.93358 115.130524 
L 163.071163 111.48866 
L 169.209757 106.568537 
L 175.325115 98.521875 
L 181.393082 89.699031 
L 187.389692 81.652936 
L 193.291259 75.003284 
L 199.074472 69.499056 
L 204.71649 64.995839 
L 210.195025 61.306134 
L 215.488441 58.248271 
L 220.575827 55.696562 
L 225.437091 53.550763 
L 230.053031 51.734401 
L 234.405414 50.183753 
L 242.251856 47.706895 
L 248.85257 45.87816 
L 257.921388 43.648052 
L 261.041568 42.941725 
L 258.016895 52.914861 
L 254.244747 64.626131 
L 251.815921 71.61081 
L 249.037578 79.026739 
L 245.920694 86.61865 
L 242.477579 94.133936 
L 238.721832 101.377841 
L 234.668289 108.182559 
L 230.33296 114.445951 
L 225.732969 120.129178 
L 220.886485 125.211814 
L 215.812651 129.723952 
L 210.531508 133.72248 
L 205.063915 137.076625 
L 199.431469 139.796306 
L 187.761569 144.753935 
L 181.770208 147.198747 
L 175.706001 149.819813 
L 169.592898 153.010738 
L 163.455047 156.460264 
L 157.316691 162.20441 
L 151.202074 170.676163 
L 145.13535 179.413484 
L 139.140479 187.407132 
L 133.241142 194.000147 
L 127.460639 199.453722 
L 121.821802 203.924308 
L 116.346905 207.596373 
L 111.057571 210.639396 
L 105.974693 213.178953 
L 101.118348 215.312645 
L 96.507717 217.12249 
L 92.161011 218.66853 
L 84.326939 221.137655 
L 77.739785 222.963206 
L 68.700786 225.185759 
L 65.612436 225.884458 
L 68.66895 215.80595 
L 72.456394 204.056138 
L 74.892604 197.061267 
L 77.678116 189.644526 
L 80.801927 182.062816 
L 84.251698 174.56493 
L 88.013805 167.337516 
L 92.073386 160.544715 
L 96.414407 154.288763 
L 101.019722 148.606768 
L 105.871141 143.515245 
L 110.949501 138.984065 
L 116.234744 134.959753 
L 121.705994 131.616478 
L 127.34164 128.880292 
L 139.01652 123.874035 
L 145.009641 121.342788 
L 151.075112 118.514815 
L 157.188977 115.02863 
L 157.188977 115.02863 
" clip-path="url(#pa82792363a)" style="fill: none; stroke: #0000ff; stroke-width: 1.2; stroke-linecap: square"/>
   </g>
   <g id="line2d_31">
    <path d="M 49.432813 134.418692 
L 272.252813 134.418692 
" clip-path="url(#pa82792363a)" style="fill: none; stroke: #000000; stroke-width: 0.4; stroke-linecap: square"/>
   </g>
   <g id="line2d_32">
    <path d="M 163.327086 256.40375 
L 163.327086 20.14375 
" clip-path="url(#pa82792363a)" style="fill: none; stroke: #000000; stroke-width: 0.4; stroke-linecap: square"/>
   </g>
   <g id="patch_3">
    <path d="M 49.432813 256.40375 
L 49.432813 20.14375 
" style="fill: none; stroke: #000000; stroke-width: 0.8; stroke-linejoin: miter; stroke-linecap: square"/>
   </g>
   <g id="patch_4">
    <path d="M 272.252813 256.40375 
L 272.252813 20.14375 
" style="fill: none; stroke: #000000; stroke-width: 0.8; stroke-linejoin: miter; stroke-linecap: square"/>
   </g>
   <g id="patch_5">
    <path d="M 49.432812 256.40375 
L 272.252813 256.40375 
" style="fill: none; stroke: #000000; stroke-width: 0.8; stroke-linejoin: miter; stroke-linecap: square"/>
   </g>
   <g id="patch_6">
    <path d="M 49.432812 20.14375 
L 272.252813 20.14375 
" style="fill: none; stroke: #000000; stroke-width: 0.8; stroke-linejoin: miter; stroke-linecap: square"/>
   </g>
   <g id="text_17">
    <!-- Specimen : Lu_SW11 -->
    <g transform="translate(116.870156 14.14375) scale(0.1 -0.1)">
     <defs>
      <path id="TimesNewRomanPSMT-3a" d="M 903 2950 
Q 1047 2950 1148 2848 
Q 1250 2747 1250 2603 
Q 1250 2459 1148 2357 
Q 1047 2256 903 2256 
Q 759 2256 657 2357 
Q 556 2459 556 2603 
Q 556 2747 657 2848 
Q 759 2950 903 2950 
z
M 897 609 
Q 1044 609 1145 506 
Q 1247 403 1247 259 
Q 1247 116 1144 14 
Q 1041 -88 897 -88 
Q 753 -88 651 14 
Q 550 116 550 259 
Q 550 403 651 506 
Q 753 609 897 609 
z
" transform="scale(0.015625)"/>
      <path id="TimesNewRomanPSMT-4c" d="M 3669 1172 
L 3772 1150 
L 3409 0 
L 128 0 
L 128 116 
L 288 116 
Q 556 116 672 291 
Q 738 391 738 753 
L 738 3488 
Q 738 3884 650 3984 
Q 528 4122 288 4122 
L 128 4122 
L 128 4238 
L 2047 4238 
L 2047 4122 
Q 1709 4125 1573 4059 
Q 1438 3994 1388 3894 
Q 1338 3794 1338 3416 
L 1338 753 
Q 1338 494 1388 397 
Q 1425 331 1503 300 
Q 1581 269 1991 269 
L 2300 269 
Q 2788 269 2984 341 
Q 3181 413 3343 595 
Q 3506 778 3669 1172 
z
" transform="scale(0.015625)"/>
      <path id="TimesNewRomanPSMT-75" d="M 2709 2863 
L 2709 1128 
Q 2709 631 2732 520 
Q 2756 409 2807 365 
Q 2859 322 2928 322 
Q 3025 322 3147 375 
L 3191 266 
L 2334 -88 
L 2194 -88 
L 2194 519 
Q 1825 119 1631 15 
Q 1438 -88 1222 -88 
Q 981 -88 804 51 
Q 628 191 559 409 
Q 491 628 491 1028 
L 491 2306 
Q 491 2509 447 2587 
Q 403 2666 317 2708 
Q 231 2750 6 2747 
L 6 2863 
L 1009 2863 
L 1009 947 
Q 1009 547 1148 422 
Q 1288 297 1484 297 
Q 1619 297 1789 381 
Q 1959 466 2194 703 
L 2194 2325 
Q 2194 2569 2105 2655 
Q 2016 2741 1734 2747 
L 1734 2863 
L 2709 2863 
z
" transform="scale(0.015625)"/>
      <path id="TimesNewRomanPSMT-5f" d="M 3256 -1381 
L -53 -1381 
L -53 -1119 
L 3256 -1119 
L 3256 -1381 
z
" transform="scale(0.015625)"/>
      <path id="TimesNewRomanPSMT-57" d="M 5991 4238 
L 5991 4122 
Q 5825 4122 5722 4062 
Q 5619 4003 5525 3841 
Q 5463 3731 5328 3319 
L 4147 -97 
L 4022 -97 
L 3056 2613 
L 2097 -97 
L 1984 -97 
L 725 3422 
Q 584 3816 547 3888 
Q 484 4006 376 4064 
Q 269 4122 84 4122 
L 84 4238 
L 1653 4238 
L 1653 4122 
L 1578 4122 
Q 1413 4122 1325 4047 
Q 1238 3972 1238 3866 
Q 1238 3756 1375 3363 
L 2209 984 
L 2913 3006 
L 2788 3363 
L 2688 3647 
Q 2622 3803 2541 3922 
Q 2500 3981 2441 4022 
Q 2363 4078 2284 4103 
Q 2225 4122 2097 4122 
L 2097 4238 
L 3747 4238 
L 3747 4122 
L 3634 4122 
Q 3459 4122 3378 4047 
Q 3297 3972 3297 3844 
Q 3297 3684 3438 3288 
L 4250 984 
L 5056 3319 
Q 5194 3706 5194 3856 
Q 5194 3928 5148 3990 
Q 5103 4053 5034 4078 
Q 4916 4122 4725 4122 
L 4725 4238 
L 5991 4238 
z
" transform="scale(0.015625)"/>
      <path id="TimesNewRomanPSMT-31" d="M 750 3822 
L 1781 4325 
L 1884 4325 
L 1884 747 
Q 1884 391 1914 303 
Q 1944 216 2037 169 
Q 2131 122 2419 116 
L 2419 0 
L 825 0 
L 825 116 
Q 1125 122 1212 167 
Q 1300 213 1334 289 
Q 1369 366 1369 747 
L 1369 3034 
Q 1369 3497 1338 3628 
Q 1316 3728 1258 3775 
Q 1200 3822 1119 3822 
Q 1003 3822 797 3725 
L 750 3822 
z
" transform="scale(0.015625)"/>
     </defs>
     <use xlink:href="#TimesNewRomanPSMT-53"/>
     <use xlink:href="#TimesNewRomanPSMT-70" x="55.615234"/>
     <use xlink:href="#TimesNewRomanPSMT-65" x="105.615234"/>
     <use xlink:href="#TimesNewRomanPSMT-63" x="150"/>
     <use xlink:href="#TimesNewRomanPSMT-69" x="194.384766"/>
     <use xlink:href="#TimesNewRomanPSMT-6d" x="222.167969"/>
     <use xlink:href="#TimesNewRomanPSMT-65" x="299.951172"/>
     <use xlink:href="#TimesNewRomanPSMT-6e" x="344.335938"/>
     <use xlink:href="#TimesNewRomanPSMT-20" x="394.335938"/>
     <use xlink:href="#TimesNewRomanPSMT-3a" x="419.335938"/>
     <use xlink:href="#TimesNewRomanPSMT-20" x="447.119141"/>
     <use xlink:href="#TimesNewRomanPSMT-4c" x="472.119141"/>
     <use xlink:href="#TimesNewRomanPSMT-75" x="533.203125"/>
     <use xlink:href="#TimesNewRomanPSMT-5f" x="583.203125"/>
     <use xlink:href="#TimesNewRomanPSMT-53" x="633.203125"/>
     <use xlink:href="#TimesNewRomanPSMT-57" x="688.818359"/>
     <use xlink:href="#TimesNewRomanPSMT-31" x="783.203125"/>
     <use xlink:href="#TimesNewRomanPSMT-31" x="829.453125"/>
    </g>
   </g>
   <g id="legend_1">
    <g id="patch_7">
     <path d="M 55.263813 50.363428 
L 142.486722 50.363428 
Q 144.152722 50.363428 144.152722 48.697428 
L 144.152722 25.97475 
Q 144.152722 24.30875 142.486722 24.30875 
L 55.263813 24.30875 
Q 53.597813 24.30875 53.597813 25.97475 
L 53.597813 48.697428 
Q 53.597813 50.363428 55.263813 50.363428 
z
" style="fill: #ffffff; opacity: 0.8; stroke: #cccccc; stroke-linejoin: miter"/>
    </g>
    <g id="line2d_33">
     <path d="M 56.929813 30.55625 
L 65.259813 30.55625 
L 73.589813 30.55625 
" style="fill: none; stroke-dasharray: 3.7,1.6; stroke-dashoffset: 0; stroke: #000000"/>
    </g>
    <g id="text_18">
     <!-- Experimental Test -->
     <g transform="translate(80.253813 33.47175) scale(0.0833 -0.0833)">
      <defs>
       <path id="TimesNewRomanPSMT-45" d="M 1338 4006 
L 1338 2331 
L 2269 2331 
Q 2631 2331 2753 2441 
Q 2916 2584 2934 2947 
L 3050 2947 
L 3050 1472 
L 2934 1472 
Q 2891 1781 2847 1869 
Q 2791 1978 2662 2040 
Q 2534 2103 2269 2103 
L 1338 2103 
L 1338 706 
Q 1338 425 1363 364 
Q 1388 303 1450 267 
Q 1513 231 1688 231 
L 2406 231 
Q 2766 231 2928 281 
Q 3091 331 3241 478 
Q 3434 672 3638 1063 
L 3763 1063 
L 3397 0 
L 131 0 
L 131 116 
L 281 116 
Q 431 116 566 188 
Q 666 238 702 338 
Q 738 438 738 747 
L 738 3500 
Q 738 3903 656 3997 
Q 544 4122 281 4122 
L 131 4122 
L 131 4238 
L 3397 4238 
L 3444 3309 
L 3322 3309 
Q 3256 3644 3176 3769 
Q 3097 3894 2941 3959 
Q 2816 4006 2500 4006 
L 1338 4006 
z
" transform="scale(0.015625)"/>
       <path id="TimesNewRomanPSMT-78" d="M 84 2863 
L 1431 2863 
L 1431 2747 
Q 1303 2747 1251 2703 
Q 1200 2659 1200 2588 
Q 1200 2513 1309 2356 
Q 1344 2306 1413 2200 
L 1616 1875 
L 1850 2200 
Q 2075 2509 2075 2591 
Q 2075 2656 2022 2701 
Q 1969 2747 1850 2747 
L 1850 2863 
L 2819 2863 
L 2819 2747 
Q 2666 2738 2553 2663 
Q 2400 2556 2134 2200 
L 1744 1678 
L 2456 653 
Q 2719 275 2831 198 
Q 2944 122 3122 113 
L 3122 0 
L 1772 0 
L 1772 113 
Q 1913 113 1991 175 
Q 2050 219 2050 291 
Q 2050 363 1850 653 
L 1431 1266 
L 972 653 
Q 759 369 759 316 
Q 759 241 829 180 
Q 900 119 1041 113 
L 1041 0 
L 106 0 
L 106 113 
Q 219 128 303 191 
Q 422 281 703 653 
L 1303 1450 
L 759 2238 
Q 528 2575 401 2661 
Q 275 2747 84 2747 
L 84 2863 
z
" transform="scale(0.015625)"/>
       <path id="TimesNewRomanPSMT-54" d="M 3703 4238 
L 3750 3244 
L 3631 3244 
Q 3597 3506 3538 3619 
Q 3441 3800 3280 3886 
Q 3119 3972 2856 3972 
L 2259 3972 
L 2259 734 
Q 2259 344 2344 247 
Q 2463 116 2709 116 
L 2856 116 
L 2856 0 
L 1059 0 
L 1059 116 
L 1209 116 
Q 1478 116 1591 278 
Q 1659 378 1659 734 
L 1659 3972 
L 1150 3972 
Q 853 3972 728 3928 
Q 566 3869 450 3700 
Q 334 3531 313 3244 
L 194 3244 
L 244 4238 
L 3703 4238 
z
" transform="scale(0.015625)"/>
      </defs>
      <use xlink:href="#TimesNewRomanPSMT-45"/>
      <use xlink:href="#TimesNewRomanPSMT-78" x="61.083984"/>
      <use xlink:href="#TimesNewRomanPSMT-70" x="111.083984"/>
      <use xlink:href="#TimesNewRomanPSMT-65" x="161.083984"/>
      <use xlink:href="#TimesNewRomanPSMT-72" x="205.46875"/>
      <use xlink:href="#TimesNewRomanPSMT-69" x="238.769531"/>
      <use xlink:href="#TimesNewRomanPSMT-6d" x="266.552734"/>
      <use xlink:href="#TimesNewRomanPSMT-65" x="344.335938"/>
      <use xlink:href="#TimesNewRomanPSMT-6e" x="388.720703"/>
      <use xlink:href="#TimesNewRomanPSMT-74" x="438.720703"/>
      <use xlink:href="#TimesNewRomanPSMT-61" x="466.503906"/>
      <use xlink:href="#TimesNewRomanPSMT-6c" x="510.888672"/>
      <use xlink:href="#TimesNewRomanPSMT-20" x="538.671875"/>
      <use xlink:href="#TimesNewRomanPSMT-54" x="561.921875"/>
      <use xlink:href="#TimesNewRomanPSMT-65" x="616.005859"/>
      <use xlink:href="#TimesNewRomanPSMT-73" x="660.390625"/>
      <use xlink:href="#TimesNewRomanPSMT-74" x="699.306641"/>
     </g>
    </g>
    <g id="line2d_34">
     <path d="M 56.929813 42.334089 
L 65.259813 42.334089 
L 73.589813 42.334089 
" style="fill: none; stroke: #0000ff; stroke-width: 1.2; stroke-linecap: square"/>
    </g>
    <g id="text_19">
     <!-- Numerical Test -->
     <g transform="translate(80.253813 45.249589) scale(0.0833 -0.0833)">
      <use xlink:href="#TimesNewRomanPSMT-4e"/>
      <use xlink:href="#TimesNewRomanPSMT-75" x="72.216797"/>
      <use xlink:href="#TimesNewRomanPSMT-6d" x="122.216797"/>
      <use xlink:href="#TimesNewRomanPSMT-65" x="200"/>
      <use xlink:href="#TimesNewRomanPSMT-72" x="244.384766"/>
      <use xlink:href="#TimesNewRomanPSMT-69" x="277.685547"/>
      <use xlink:href="#TimesNewRomanPSMT-63" x="305.46875"/>
      <use xlink:href="#TimesNewRomanPSMT-61" x="349.853516"/>
      <use xlink:href="#TimesNewRomanPSMT-6c" x="394.238281"/>
      <use xlink:href="#TimesNewRomanPSMT-20" x="422.021484"/>
      <use xlink:href="#TimesNewRomanPSMT-54" x="445.271484"/>
      <use xlink:href="#TimesNewRomanPSMT-65" x="499.355469"/>
      <use xlink:href="#TimesNewRomanPSMT-73" x="543.740234"/>
      <use xlink:href="#TimesNewRomanPSMT-74" x="582.65625"/>
     </g>
    </g>
   </g>
  </g>
 </g>
 <defs>
  <clipPath id="pa82792363a">
   <rect x="49.432813" y="20.14375" width="222.82" height="236.26"/>
  </clipPath>
 </defs>
</svg>
