<?xml version="1.0" encoding="utf-8" standalone="no"?>
<!DOCTYPE svg PUBLIC "-//W3C//DTD SVG 1.1//EN"
  "http://www.w3.org/Graphics/SVG/1.1/DTD/svg11.dtd">
<svg xmlns:xlink="http://www.w3.org/1999/xlink" width="279.452813pt" height="292.774063pt" viewBox="0 0 279.452813 292.774063" xmlns="http://www.w3.org/2000/svg" version="1.1">
 <metadata>
  <rdf:RDF xmlns:dc="http://purl.org/dc/elements/1.1/" xmlns:cc="http://creativecommons.org/ns#" xmlns:rdf="http://www.w3.org/1999/02/22-rdf-syntax-ns#">
   <cc:Work>
    <dc:type rdf:resource="http://purl.org/dc/dcmitype/StillImage"/>
    <dc:date>2024-01-30T00:55:45.379036</dc:date>
    <dc:format>image/svg+xml</dc:format>
    <dc:creator>
     <cc:Agent>
      <dc:title>Matplotlib v3.7.1, https://matplotlib.org/</dc:title>
     </cc:Agent>
    </dc:creator>
   </cc:Work>
  </rdf:RDF>
 </metadata>
 <defs>
  <style type="text/css">*{stroke-linejoin: round; stroke-linecap: butt}</style>
 </defs>
 <g id="figure_1">
  <g id="patch_1">
   <path d="M 0 292.774063 
L 279.452813 292.774063 
L 279.452813 0 
L 0 0 
z
" style="fill: #ffffff"/>
  </g>
  <g id="axes_1">
   <g id="patch_2">
    <path d="M 49.432813 256.40375 
L 272.252813 256.40375 
L 272.252813 20.14375 
L 49.432813 20.14375 
z
" style="fill: #ffffff"/>
   </g>
   <g id="matplotlib.axis_1">
    <g id="xtick_1">
     <g id="line2d_1">
      <path d="M 63.328882 256.40375 
L 63.328882 20.14375 
" clip-path="url(#p9492e7dd2b)" style="fill: none; stroke-dasharray: 0.8,1.32; stroke-dashoffset: 0; stroke: #b0b0b0; stroke-width: 0.8"/>
     </g>
     <g id="line2d_2">
      <defs>
       <path id="mc94d2ba81c" d="M 0 0 
L 0 3.5 
" style="stroke: #000000; stroke-width: 0.8"/>
      </defs>
      <g>
       <use xlink:href="#mc94d2ba81c" x="63.328882" y="256.40375" style="stroke: #000000; stroke-width: 0.8"/>
      </g>
     </g>
     <g id="text_1">
      <!-- −150 -->
      <g transform="translate(52.253882 270.39125) scale(0.1 -0.1)">
       <defs>
        <path id="Cambria-2212" d="M 397 1613 
L 397 2047 
L 3147 2047 
L 3147 1613 
L 397 1613 
z
" transform="scale(0.015625)"/>
        <path id="Cambria-31" d="M 2172 816 
Q 2172 634 2192 542 
Q 2213 450 2264 392 
Q 2316 334 2412 301 
Q 2509 269 2656 251 
Q 2803 234 3044 228 
L 3044 0 
L 734 0 
L 734 228 
Q 1081 244 1229 270 
Q 1378 297 1456 350 
Q 1534 403 1570 500 
Q 1606 597 1606 816 
L 1606 3350 
Q 1606 3475 1562 3533 
Q 1519 3591 1434 3591 
Q 1334 3591 1150 3487 
Q 966 3384 694 3203 
L 556 3444 
L 2019 4316 
L 2191 4316 
Q 2172 4016 2172 3484 
L 2172 816 
z
" transform="scale(0.015625)"/>
        <path id="Cambria-35" d="M 469 172 
L 469 834 
L 847 834 
Q 941 516 1130 366 
Q 1319 216 1619 216 
Q 2034 216 2246 466 
Q 2459 716 2459 1213 
Q 2459 1544 2346 1761 
Q 2234 1978 2043 2075 
Q 1853 2172 1600 2172 
Q 1388 2172 1234 2145 
Q 1081 2119 906 2063 
L 656 2209 
L 656 4266 
L 2378 4266 
Q 2484 4266 2531 4283 
Q 2578 4300 2606 4336 
Q 2634 4372 2672 4472 
L 2916 4472 
L 2869 3747 
L 1072 3747 
L 1072 2375 
Q 1234 2444 1425 2478 
Q 1616 2513 1806 2513 
Q 2178 2513 2465 2361 
Q 2753 2209 2909 1929 
Q 3066 1650 3066 1281 
Q 3066 863 2891 563 
Q 2716 263 2384 106 
Q 2053 -50 1600 -50 
Q 1059 -50 469 172 
z
" transform="scale(0.015625)"/>
        <path id="Cambria-30" d="M 1738 -50 
Q 1063 -50 733 481 
Q 403 1013 403 2094 
Q 403 2669 504 3087 
Q 606 3506 789 3779 
Q 972 4053 1228 4184 
Q 1484 4316 1788 4316 
Q 2472 4316 2806 3787 
Q 3141 3259 3141 2191 
Q 3141 1084 2783 517 
Q 2425 -50 1738 -50 
z
M 1013 2188 
Q 1013 1169 1202 692 
Q 1391 216 1788 216 
Q 2166 216 2348 664 
Q 2531 1113 2531 2053 
Q 2531 2772 2437 3217 
Q 2344 3663 2176 3856 
Q 2009 4050 1772 4050 
Q 1556 4050 1411 3922 
Q 1266 3794 1177 3553 
Q 1088 3313 1050 2967 
Q 1013 2622 1013 2188 
z
" transform="scale(0.015625)"/>
       </defs>
       <use xlink:href="#Cambria-2212"/>
       <use xlink:href="#Cambria-31" x="55.371094"/>
       <use xlink:href="#Cambria-35" x="110.742188"/>
       <use xlink:href="#Cambria-30" x="166.113281"/>
      </g>
     </g>
    </g>
    <g id="xtick_2">
     <g id="line2d_3">
      <path d="M 95.70604 256.40375 
L 95.70604 20.14375 
" clip-path="url(#p9492e7dd2b)" style="fill: none; stroke-dasharray: 0.8,1.32; stroke-dashoffset: 0; stroke: #b0b0b0; stroke-width: 0.8"/>
     </g>
     <g id="line2d_4">
      <g>
       <use xlink:href="#mc94d2ba81c" x="95.70604" y="256.40375" style="stroke: #000000; stroke-width: 0.8"/>
      </g>
     </g>
     <g id="text_2">
      <!-- −100 -->
      <g transform="translate(84.63104 270.39125) scale(0.1 -0.1)">
       <use xlink:href="#Cambria-2212"/>
       <use xlink:href="#Cambria-31" x="55.371094"/>
       <use xlink:href="#Cambria-30" x="110.742188"/>
       <use xlink:href="#Cambria-30" x="166.113281"/>
      </g>
     </g>
    </g>
    <g id="xtick_3">
     <g id="line2d_5">
      <path d="M 128.083197 256.40375 
L 128.083197 20.14375 
" clip-path="url(#p9492e7dd2b)" style="fill: none; stroke-dasharray: 0.8,1.32; stroke-dashoffset: 0; stroke: #b0b0b0; stroke-width: 0.8"/>
     </g>
     <g id="line2d_6">
      <g>
       <use xlink:href="#mc94d2ba81c" x="128.083197" y="256.40375" style="stroke: #000000; stroke-width: 0.8"/>
      </g>
     </g>
     <g id="text_3">
      <!-- −50 -->
      <g transform="translate(119.776947 270.39125) scale(0.1 -0.1)">
       <use xlink:href="#Cambria-2212"/>
       <use xlink:href="#Cambria-35" x="55.371094"/>
       <use xlink:href="#Cambria-30" x="110.742188"/>
      </g>
     </g>
    </g>
    <g id="xtick_4">
     <g id="line2d_7">
      <path d="M 160.460355 256.40375 
L 160.460355 20.14375 
" clip-path="url(#p9492e7dd2b)" style="fill: none; stroke-dasharray: 0.8,1.32; stroke-dashoffset: 0; stroke: #b0b0b0; stroke-width: 0.8"/>
     </g>
     <g id="line2d_8">
      <g>
       <use xlink:href="#mc94d2ba81c" x="160.460355" y="256.40375" style="stroke: #000000; stroke-width: 0.8"/>
      </g>
     </g>
     <g id="text_4">
      <!-- 0 -->
      <g transform="translate(157.691605 270.39125) scale(0.1 -0.1)">
       <use xlink:href="#Cambria-30"/>
      </g>
     </g>
    </g>
    <g id="xtick_5">
     <g id="line2d_9">
      <path d="M 192.837513 256.40375 
L 192.837513 20.14375 
" clip-path="url(#p9492e7dd2b)" style="fill: none; stroke-dasharray: 0.8,1.32; stroke-dashoffset: 0; stroke: #b0b0b0; stroke-width: 0.8"/>
     </g>
     <g id="line2d_10">
      <g>
       <use xlink:href="#mc94d2ba81c" x="192.837513" y="256.40375" style="stroke: #000000; stroke-width: 0.8"/>
      </g>
     </g>
     <g id="text_5">
      <!-- 50 -->
      <g transform="translate(187.300013 270.39125) scale(0.1 -0.1)">
       <use xlink:href="#Cambria-35"/>
       <use xlink:href="#Cambria-30" x="55.371094"/>
      </g>
     </g>
    </g>
    <g id="xtick_6">
     <g id="line2d_11">
      <path d="M 225.214671 256.40375 
L 225.214671 20.14375 
" clip-path="url(#p9492e7dd2b)" style="fill: none; stroke-dasharray: 0.8,1.32; stroke-dashoffset: 0; stroke: #b0b0b0; stroke-width: 0.8"/>
     </g>
     <g id="line2d_12">
      <g>
       <use xlink:href="#mc94d2ba81c" x="225.214671" y="256.40375" style="stroke: #000000; stroke-width: 0.8"/>
      </g>
     </g>
     <g id="text_6">
      <!-- 100 -->
      <g transform="translate(216.908421 270.39125) scale(0.1 -0.1)">
       <use xlink:href="#Cambria-31"/>
       <use xlink:href="#Cambria-30" x="55.371094"/>
       <use xlink:href="#Cambria-30" x="110.742188"/>
      </g>
     </g>
    </g>
    <g id="xtick_7">
     <g id="line2d_13">
      <path d="M 257.591829 256.40375 
L 257.591829 20.14375 
" clip-path="url(#p9492e7dd2b)" style="fill: none; stroke-dasharray: 0.8,1.32; stroke-dashoffset: 0; stroke: #b0b0b0; stroke-width: 0.8"/>
     </g>
     <g id="line2d_14">
      <g>
       <use xlink:href="#mc94d2ba81c" x="257.591829" y="256.40375" style="stroke: #000000; stroke-width: 0.8"/>
      </g>
     </g>
     <g id="text_7">
      <!-- 150 -->
      <g transform="translate(249.285579 270.39125) scale(0.1 -0.1)">
       <use xlink:href="#Cambria-31"/>
       <use xlink:href="#Cambria-35" x="55.371094"/>
       <use xlink:href="#Cambria-30" x="110.742188"/>
      </g>
     </g>
    </g>
    <g id="text_8">
     <!-- Displacement (mm) -->
     <g transform="translate(120.993594 283.435) scale(0.1 -0.1)">
      <defs>
       <path id="TimesNewRomanPSMT-44" d="M 109 0 
L 109 116 
L 269 116 
Q 538 116 650 288 
Q 719 391 719 750 
L 719 3488 
Q 719 3884 631 3984 
Q 509 4122 269 4122 
L 109 4122 
L 109 4238 
L 1834 4238 
Q 2784 4238 3279 4022 
Q 3775 3806 4076 3303 
Q 4378 2800 4378 2141 
Q 4378 1256 3841 663 
Q 3238 0 2003 0 
L 109 0 
z
M 1319 306 
Q 1716 219 1984 219 
Q 2709 219 3187 728 
Q 3666 1238 3666 2109 
Q 3666 2988 3187 3494 
Q 2709 4000 1959 4000 
Q 1678 4000 1319 3909 
L 1319 306 
z
" transform="scale(0.015625)"/>
       <path id="TimesNewRomanPSMT-69" d="M 928 4444 
Q 1059 4444 1151 4351 
Q 1244 4259 1244 4128 
Q 1244 3997 1151 3903 
Q 1059 3809 928 3809 
Q 797 3809 703 3903 
Q 609 3997 609 4128 
Q 609 4259 701 4351 
Q 794 4444 928 4444 
z
M 1188 2947 
L 1188 647 
Q 1188 378 1227 289 
Q 1266 200 1342 156 
Q 1419 113 1622 113 
L 1622 0 
L 231 0 
L 231 113 
Q 441 113 512 153 
Q 584 194 626 287 
Q 669 381 669 647 
L 669 1750 
Q 669 2216 641 2353 
Q 619 2453 572 2492 
Q 525 2531 444 2531 
Q 356 2531 231 2484 
L 188 2597 
L 1050 2947 
L 1188 2947 
z
" transform="scale(0.015625)"/>
       <path id="TimesNewRomanPSMT-73" d="M 2050 2947 
L 2050 1972 
L 1947 1972 
Q 1828 2431 1642 2597 
Q 1456 2763 1169 2763 
Q 950 2763 815 2647 
Q 681 2531 681 2391 
Q 681 2216 781 2091 
Q 878 1963 1175 1819 
L 1631 1597 
Q 2266 1288 2266 781 
Q 2266 391 1970 151 
Q 1675 -88 1309 -88 
Q 1047 -88 709 6 
Q 606 38 541 38 
Q 469 38 428 -44 
L 325 -44 
L 325 978 
L 428 978 
Q 516 541 762 319 
Q 1009 97 1316 97 
Q 1531 97 1667 223 
Q 1803 350 1803 528 
Q 1803 744 1651 891 
Q 1500 1038 1047 1263 
Q 594 1488 453 1669 
Q 313 1847 313 2119 
Q 313 2472 555 2709 
Q 797 2947 1181 2947 
Q 1350 2947 1591 2875 
Q 1750 2828 1803 2828 
Q 1853 2828 1881 2850 
Q 1909 2872 1947 2947 
L 2050 2947 
z
" transform="scale(0.015625)"/>
       <path id="TimesNewRomanPSMT-70" d="M -6 2578 
L 875 2934 
L 994 2934 
L 994 2266 
Q 1216 2644 1439 2795 
Q 1663 2947 1909 2947 
Q 2341 2947 2628 2609 
Q 2981 2197 2981 1534 
Q 2981 794 2556 309 
Q 2206 -88 1675 -88 
Q 1444 -88 1275 -22 
Q 1150 25 994 166 
L 994 -706 
Q 994 -1000 1030 -1079 
Q 1066 -1159 1155 -1206 
Q 1244 -1253 1478 -1253 
L 1478 -1369 
L -22 -1369 
L -22 -1253 
L 56 -1253 
Q 228 -1256 350 -1188 
Q 409 -1153 442 -1076 
Q 475 -1000 475 -688 
L 475 2019 
Q 475 2297 450 2372 
Q 425 2447 370 2484 
Q 316 2522 222 2522 
Q 147 2522 31 2478 
L -6 2578 
z
M 994 2081 
L 994 1013 
Q 994 666 1022 556 
Q 1066 375 1236 237 
Q 1406 100 1666 100 
Q 1978 100 2172 344 
Q 2425 663 2425 1241 
Q 2425 1897 2138 2250 
Q 1938 2494 1663 2494 
Q 1513 2494 1366 2419 
Q 1253 2363 994 2081 
z
" transform="scale(0.015625)"/>
       <path id="TimesNewRomanPSMT-6c" d="M 1184 4444 
L 1184 647 
Q 1184 378 1223 290 
Q 1263 203 1344 158 
Q 1425 113 1647 113 
L 1647 0 
L 244 0 
L 244 113 
Q 441 113 512 153 
Q 584 194 625 287 
Q 666 381 666 647 
L 666 3247 
Q 666 3731 644 3842 
Q 622 3953 573 3993 
Q 525 4034 450 4034 
Q 369 4034 244 3984 
L 191 4094 
L 1044 4444 
L 1184 4444 
z
" transform="scale(0.015625)"/>
       <path id="TimesNewRomanPSMT-61" d="M 1822 413 
Q 1381 72 1269 19 
Q 1100 -59 909 -59 
Q 613 -59 420 144 
Q 228 347 228 678 
Q 228 888 322 1041 
Q 450 1253 767 1440 
Q 1084 1628 1822 1897 
L 1822 2009 
Q 1822 2438 1686 2597 
Q 1550 2756 1291 2756 
Q 1094 2756 978 2650 
Q 859 2544 859 2406 
L 866 2225 
Q 866 2081 792 2003 
Q 719 1925 600 1925 
Q 484 1925 411 2006 
Q 338 2088 338 2228 
Q 338 2497 613 2722 
Q 888 2947 1384 2947 
Q 1766 2947 2009 2819 
Q 2194 2722 2281 2516 
Q 2338 2381 2338 1966 
L 2338 994 
Q 2338 584 2353 492 
Q 2369 400 2405 369 
Q 2441 338 2488 338 
Q 2538 338 2575 359 
Q 2641 400 2828 588 
L 2828 413 
Q 2478 -56 2159 -56 
Q 2006 -56 1915 50 
Q 1825 156 1822 413 
z
M 1822 616 
L 1822 1706 
Q 1350 1519 1213 1441 
Q 966 1303 859 1153 
Q 753 1003 753 825 
Q 753 600 887 451 
Q 1022 303 1197 303 
Q 1434 303 1822 616 
z
" transform="scale(0.015625)"/>
       <path id="TimesNewRomanPSMT-63" d="M 2631 1088 
Q 2516 522 2178 217 
Q 1841 -88 1431 -88 
Q 944 -88 581 321 
Q 219 731 219 1428 
Q 219 2103 620 2525 
Q 1022 2947 1584 2947 
Q 2006 2947 2278 2723 
Q 2550 2500 2550 2259 
Q 2550 2141 2473 2067 
Q 2397 1994 2259 1994 
Q 2075 1994 1981 2113 
Q 1928 2178 1911 2362 
Q 1894 2547 1784 2644 
Q 1675 2738 1481 2738 
Q 1169 2738 978 2506 
Q 725 2200 725 1697 
Q 725 1184 976 792 
Q 1228 400 1656 400 
Q 1963 400 2206 609 
Q 2378 753 2541 1131 
L 2631 1088 
z
" transform="scale(0.015625)"/>
       <path id="TimesNewRomanPSMT-65" d="M 681 1784 
Q 678 1147 991 784 
Q 1303 422 1725 422 
Q 2006 422 2214 576 
Q 2422 731 2563 1106 
L 2659 1044 
Q 2594 616 2278 264 
Q 1963 -88 1488 -88 
Q 972 -88 605 314 
Q 238 716 238 1394 
Q 238 2128 614 2539 
Q 991 2950 1559 2950 
Q 2041 2950 2350 2633 
Q 2659 2316 2659 1784 
L 681 1784 
z
M 681 1966 
L 2006 1966 
Q 1991 2241 1941 2353 
Q 1863 2528 1708 2628 
Q 1553 2728 1384 2728 
Q 1125 2728 920 2526 
Q 716 2325 681 1966 
z
" transform="scale(0.015625)"/>
       <path id="TimesNewRomanPSMT-6d" d="M 1050 2338 
Q 1363 2650 1419 2697 
Q 1559 2816 1721 2881 
Q 1884 2947 2044 2947 
Q 2313 2947 2506 2790 
Q 2700 2634 2766 2338 
Q 3088 2713 3309 2830 
Q 3531 2947 3766 2947 
Q 3994 2947 4170 2830 
Q 4347 2713 4450 2447 
Q 4519 2266 4519 1878 
L 4519 647 
Q 4519 378 4559 278 
Q 4591 209 4675 161 
Q 4759 113 4950 113 
L 4950 0 
L 3538 0 
L 3538 113 
L 3597 113 
Q 3781 113 3884 184 
Q 3956 234 3988 344 
Q 4000 397 4000 647 
L 4000 1878 
Q 4000 2228 3916 2372 
Q 3794 2572 3525 2572 
Q 3359 2572 3192 2489 
Q 3025 2406 2788 2181 
L 2781 2147 
L 2788 2013 
L 2788 647 
Q 2788 353 2820 281 
Q 2853 209 2943 161 
Q 3034 113 3253 113 
L 3253 0 
L 1806 0 
L 1806 113 
Q 2044 113 2133 169 
Q 2222 225 2256 338 
Q 2272 391 2272 647 
L 2272 1878 
Q 2272 2228 2169 2381 
Q 2031 2581 1784 2581 
Q 1616 2581 1450 2491 
Q 1191 2353 1050 2181 
L 1050 647 
Q 1050 366 1089 281 
Q 1128 197 1204 155 
Q 1281 113 1516 113 
L 1516 0 
L 100 0 
L 100 113 
Q 297 113 375 155 
Q 453 197 493 289 
Q 534 381 534 647 
L 534 1741 
Q 534 2213 506 2350 
Q 484 2453 437 2492 
Q 391 2531 309 2531 
Q 222 2531 100 2484 
L 53 2597 
L 916 2947 
L 1050 2947 
L 1050 2338 
z
" transform="scale(0.015625)"/>
       <path id="TimesNewRomanPSMT-6e" d="M 1034 2341 
Q 1538 2947 1994 2947 
Q 2228 2947 2397 2830 
Q 2566 2713 2666 2444 
Q 2734 2256 2734 1869 
L 2734 647 
Q 2734 375 2778 278 
Q 2813 200 2889 156 
Q 2966 113 3172 113 
L 3172 0 
L 1756 0 
L 1756 113 
L 1816 113 
Q 2016 113 2095 173 
Q 2175 234 2206 353 
Q 2219 400 2219 647 
L 2219 1819 
Q 2219 2209 2117 2386 
Q 2016 2563 1775 2563 
Q 1403 2563 1034 2156 
L 1034 647 
Q 1034 356 1069 288 
Q 1113 197 1189 155 
Q 1266 113 1500 113 
L 1500 0 
L 84 0 
L 84 113 
L 147 113 
Q 366 113 442 223 
Q 519 334 519 647 
L 519 1709 
Q 519 2225 495 2337 
Q 472 2450 423 2490 
Q 375 2531 294 2531 
Q 206 2531 84 2484 
L 38 2597 
L 900 2947 
L 1034 2947 
L 1034 2341 
z
" transform="scale(0.015625)"/>
       <path id="TimesNewRomanPSMT-74" d="M 1031 3803 
L 1031 2863 
L 1700 2863 
L 1700 2644 
L 1031 2644 
L 1031 788 
Q 1031 509 1111 412 
Q 1191 316 1316 316 
Q 1419 316 1516 380 
Q 1613 444 1666 569 
L 1788 569 
Q 1678 263 1478 108 
Q 1278 -47 1066 -47 
Q 922 -47 784 33 
Q 647 113 581 261 
Q 516 409 516 719 
L 516 2644 
L 63 2644 
L 63 2747 
Q 234 2816 414 2980 
Q 594 3144 734 3369 
Q 806 3488 934 3803 
L 1031 3803 
z
" transform="scale(0.015625)"/>
       <path id="TimesNewRomanPSMT-20" transform="scale(0.015625)"/>
       <path id="TimesNewRomanPSMT-28" d="M 1988 -1253 
L 1988 -1369 
Q 1516 -1131 1200 -813 
Q 750 -359 506 256 
Q 263 872 263 1534 
Q 263 2503 741 3301 
Q 1219 4100 1988 4444 
L 1988 4313 
Q 1603 4100 1356 3731 
Q 1109 3363 987 2797 
Q 866 2231 866 1616 
Q 866 947 969 400 
Q 1050 -31 1165 -292 
Q 1281 -553 1476 -793 
Q 1672 -1034 1988 -1253 
z
" transform="scale(0.015625)"/>
       <path id="TimesNewRomanPSMT-29" d="M 144 4313 
L 144 4444 
Q 619 4209 934 3891 
Q 1381 3434 1625 2820 
Q 1869 2206 1869 1541 
Q 1869 572 1392 -226 
Q 916 -1025 144 -1369 
L 144 -1253 
Q 528 -1038 776 -670 
Q 1025 -303 1145 264 
Q 1266 831 1266 1447 
Q 1266 2113 1163 2663 
Q 1084 3094 967 3353 
Q 850 3613 656 3853 
Q 463 4094 144 4313 
z
" transform="scale(0.015625)"/>
      </defs>
      <use xlink:href="#TimesNewRomanPSMT-44"/>
      <use xlink:href="#TimesNewRomanPSMT-69" x="72.216797"/>
      <use xlink:href="#TimesNewRomanPSMT-73" x="100"/>
      <use xlink:href="#TimesNewRomanPSMT-70" x="138.916016"/>
      <use xlink:href="#TimesNewRomanPSMT-6c" x="188.916016"/>
      <use xlink:href="#TimesNewRomanPSMT-61" x="216.699219"/>
      <use xlink:href="#TimesNewRomanPSMT-63" x="261.083984"/>
      <use xlink:href="#TimesNewRomanPSMT-65" x="305.46875"/>
      <use xlink:href="#TimesNewRomanPSMT-6d" x="349.853516"/>
      <use xlink:href="#TimesNewRomanPSMT-65" x="427.636719"/>
      <use xlink:href="#TimesNewRomanPSMT-6e" x="472.021484"/>
      <use xlink:href="#TimesNewRomanPSMT-74" x="522.021484"/>
      <use xlink:href="#TimesNewRomanPSMT-20" x="549.804688"/>
      <use xlink:href="#TimesNewRomanPSMT-28" x="574.804688"/>
      <use xlink:href="#TimesNewRomanPSMT-6d" x="608.105469"/>
      <use xlink:href="#TimesNewRomanPSMT-6d" x="685.888672"/>
      <use xlink:href="#TimesNewRomanPSMT-29" x="763.671875"/>
     </g>
    </g>
   </g>
   <g id="matplotlib.axis_2">
    <g id="ytick_1">
     <g id="line2d_15">
      <path d="M 49.432813 219.885937 
L 272.252813 219.885937 
" clip-path="url(#p9492e7dd2b)" style="fill: none; stroke-dasharray: 0.8,1.32; stroke-dashoffset: 0; stroke: #b0b0b0; stroke-width: 0.8"/>
     </g>
     <g id="line2d_16">
      <defs>
       <path id="m7ad3af84bc" d="M 0 0 
L -3.5 0 
" style="stroke: #000000; stroke-width: 0.8"/>
      </defs>
      <g>
       <use xlink:href="#m7ad3af84bc" x="49.432813" y="219.885937" style="stroke: #000000; stroke-width: 0.8"/>
      </g>
     </g>
     <g id="text_9">
      <!-- −200 -->
      <g transform="translate(20.282813 223.379687) scale(0.1 -0.1)">
       <defs>
        <path id="Cambria-32" d="M 2194 500 
Q 2347 500 2440 519 
Q 2534 538 2590 581 
Q 2647 625 2680 695 
Q 2713 766 2763 913 
L 3028 913 
L 2975 0 
L 403 0 
L 403 150 
Q 538 478 766 822 
Q 994 1166 1413 1631 
Q 1775 2031 1934 2238 
Q 2109 2463 2195 2627 
Q 2281 2791 2318 2936 
Q 2356 3081 2356 3228 
Q 2356 3463 2281 3642 
Q 2206 3822 2051 3925 
Q 1897 4028 1663 4028 
Q 1078 4028 875 3378 
L 497 3378 
L 497 3978 
Q 875 4156 1204 4236 
Q 1534 4316 1797 4316 
Q 2378 4316 2675 4061 
Q 2972 3806 2972 3322 
Q 2972 3156 2939 3017 
Q 2906 2878 2836 2742 
Q 2766 2606 2647 2450 
Q 2528 2294 2384 2133 
Q 2241 1972 1888 1597 
Q 1294 969 1016 500 
L 2194 500 
z
" transform="scale(0.015625)"/>
       </defs>
       <use xlink:href="#Cambria-2212"/>
       <use xlink:href="#Cambria-32" x="55.371094"/>
       <use xlink:href="#Cambria-30" x="110.742188"/>
       <use xlink:href="#Cambria-30" x="166.113281"/>
      </g>
     </g>
    </g>
    <g id="ytick_2">
     <g id="line2d_17">
      <path d="M 49.432813 179.164717 
L 272.252813 179.164717 
" clip-path="url(#p9492e7dd2b)" style="fill: none; stroke-dasharray: 0.8,1.32; stroke-dashoffset: 0; stroke: #b0b0b0; stroke-width: 0.8"/>
     </g>
     <g id="line2d_18">
      <g>
       <use xlink:href="#m7ad3af84bc" x="49.432813" y="179.164717" style="stroke: #000000; stroke-width: 0.8"/>
      </g>
     </g>
     <g id="text_10">
      <!-- −100 -->
      <g transform="translate(20.282813 182.658467) scale(0.1 -0.1)">
       <use xlink:href="#Cambria-2212"/>
       <use xlink:href="#Cambria-31" x="55.371094"/>
       <use xlink:href="#Cambria-30" x="110.742188"/>
       <use xlink:href="#Cambria-30" x="166.113281"/>
      </g>
     </g>
    </g>
    <g id="ytick_3">
     <g id="line2d_19">
      <path d="M 49.432813 138.443496 
L 272.252813 138.443496 
" clip-path="url(#p9492e7dd2b)" style="fill: none; stroke-dasharray: 0.8,1.32; stroke-dashoffset: 0; stroke: #b0b0b0; stroke-width: 0.8"/>
     </g>
     <g id="line2d_20">
      <g>
       <use xlink:href="#m7ad3af84bc" x="49.432813" y="138.443496" style="stroke: #000000; stroke-width: 0.8"/>
      </g>
     </g>
     <g id="text_11">
      <!-- 0 -->
      <g transform="translate(36.895313 141.937246) scale(0.1 -0.1)">
       <use xlink:href="#Cambria-30"/>
      </g>
     </g>
    </g>
    <g id="ytick_4">
     <g id="line2d_21">
      <path d="M 49.432813 97.722276 
L 272.252813 97.722276 
" clip-path="url(#p9492e7dd2b)" style="fill: none; stroke-dasharray: 0.8,1.32; stroke-dashoffset: 0; stroke: #b0b0b0; stroke-width: 0.8"/>
     </g>
     <g id="line2d_22">
      <g>
       <use xlink:href="#m7ad3af84bc" x="49.432813" y="97.722276" style="stroke: #000000; stroke-width: 0.8"/>
      </g>
     </g>
     <g id="text_12">
      <!-- 100 -->
      <g transform="translate(25.820313 101.216026) scale(0.1 -0.1)">
       <use xlink:href="#Cambria-31"/>
       <use xlink:href="#Cambria-30" x="55.371094"/>
       <use xlink:href="#Cambria-30" x="110.742188"/>
      </g>
     </g>
    </g>
    <g id="ytick_5">
     <g id="line2d_23">
      <path d="M 49.432813 57.001056 
L 272.252813 57.001056 
" clip-path="url(#p9492e7dd2b)" style="fill: none; stroke-dasharray: 0.8,1.32; stroke-dashoffset: 0; stroke: #b0b0b0; stroke-width: 0.8"/>
     </g>
     <g id="line2d_24">
      <g>
       <use xlink:href="#m7ad3af84bc" x="49.432813" y="57.001056" style="stroke: #000000; stroke-width: 0.8"/>
      </g>
     </g>
     <g id="text_13">
      <!-- 200 -->
      <g transform="translate(25.820313 60.494806) scale(0.1 -0.1)">
       <use xlink:href="#Cambria-32"/>
       <use xlink:href="#Cambria-30" x="55.371094"/>
       <use xlink:href="#Cambria-30" x="110.742188"/>
      </g>
     </g>
    </g>
    <g id="text_14">
     <!-- Base Shear (kN) -->
     <g transform="translate(14.14375 171.319063) rotate(-90) scale(0.1 -0.1)">
      <defs>
       <path id="TimesNewRomanPSMT-42" d="M 2956 2163 
Q 3397 2069 3616 1863 
Q 3919 1575 3919 1159 
Q 3919 844 3719 555 
Q 3519 266 3170 133 
Q 2822 0 2106 0 
L 106 0 
L 106 116 
L 266 116 
Q 531 116 647 284 
Q 719 394 719 750 
L 719 3488 
Q 719 3881 628 3984 
Q 506 4122 266 4122 
L 106 4122 
L 106 4238 
L 1938 4238 
Q 2450 4238 2759 4163 
Q 3228 4050 3475 3764 
Q 3722 3478 3722 3106 
Q 3722 2788 3528 2536 
Q 3334 2284 2956 2163 
z
M 1319 2331 
Q 1434 2309 1582 2298 
Q 1731 2288 1909 2288 
Q 2366 2288 2595 2386 
Q 2825 2484 2947 2687 
Q 3069 2891 3069 3131 
Q 3069 3503 2766 3765 
Q 2463 4028 1881 4028 
Q 1569 4028 1319 3959 
L 1319 2331 
z
M 1319 306 
Q 1681 222 2034 222 
Q 2600 222 2897 476 
Q 3194 731 3194 1106 
Q 3194 1353 3059 1581 
Q 2925 1809 2622 1940 
Q 2319 2072 1872 2072 
Q 1678 2072 1540 2065 
Q 1403 2059 1319 2044 
L 1319 306 
z
" transform="scale(0.015625)"/>
       <path id="TimesNewRomanPSMT-53" d="M 2934 4334 
L 2934 2869 
L 2819 2869 
Q 2763 3291 2617 3541 
Q 2472 3791 2203 3937 
Q 1934 4084 1647 4084 
Q 1322 4084 1109 3886 
Q 897 3688 897 3434 
Q 897 3241 1031 3081 
Q 1225 2847 1953 2456 
Q 2547 2138 2764 1967 
Q 2981 1797 3098 1565 
Q 3216 1334 3216 1081 
Q 3216 600 2842 251 
Q 2469 -97 1881 -97 
Q 1697 -97 1534 -69 
Q 1438 -53 1133 45 
Q 828 144 747 144 
Q 669 144 623 97 
Q 578 50 556 -97 
L 441 -97 
L 441 1356 
L 556 1356 
Q 638 900 775 673 
Q 913 447 1195 297 
Q 1478 147 1816 147 
Q 2206 147 2432 353 
Q 2659 559 2659 841 
Q 2659 997 2573 1156 
Q 2488 1316 2306 1453 
Q 2184 1547 1640 1851 
Q 1097 2156 867 2337 
Q 638 2519 519 2737 
Q 400 2956 400 3219 
Q 400 3675 750 4004 
Q 1100 4334 1641 4334 
Q 1978 4334 2356 4169 
Q 2531 4091 2603 4091 
Q 2684 4091 2736 4139 
Q 2788 4188 2819 4334 
L 2934 4334 
z
" transform="scale(0.015625)"/>
       <path id="TimesNewRomanPSMT-68" d="M 1041 4444 
L 1041 2350 
Q 1388 2731 1591 2839 
Q 1794 2947 1997 2947 
Q 2241 2947 2416 2812 
Q 2591 2678 2675 2391 
Q 2734 2191 2734 1659 
L 2734 647 
Q 2734 375 2778 275 
Q 2809 200 2884 156 
Q 2959 113 3159 113 
L 3159 0 
L 1753 0 
L 1753 113 
L 1819 113 
Q 2019 113 2097 173 
Q 2175 234 2206 353 
Q 2216 403 2216 647 
L 2216 1659 
Q 2216 2128 2167 2275 
Q 2119 2422 2012 2495 
Q 1906 2569 1756 2569 
Q 1603 2569 1437 2487 
Q 1272 2406 1041 2159 
L 1041 647 
Q 1041 353 1073 281 
Q 1106 209 1195 161 
Q 1284 113 1503 113 
L 1503 0 
L 84 0 
L 84 113 
Q 275 113 384 172 
Q 447 203 484 290 
Q 522 378 522 647 
L 522 3238 
Q 522 3728 498 3840 
Q 475 3953 426 3993 
Q 378 4034 297 4034 
Q 231 4034 84 3984 
L 41 4094 
L 897 4444 
L 1041 4444 
z
" transform="scale(0.015625)"/>
       <path id="TimesNewRomanPSMT-72" d="M 1038 2947 
L 1038 2303 
Q 1397 2947 1775 2947 
Q 1947 2947 2059 2842 
Q 2172 2738 2172 2600 
Q 2172 2478 2090 2393 
Q 2009 2309 1897 2309 
Q 1788 2309 1652 2417 
Q 1516 2525 1450 2525 
Q 1394 2525 1328 2463 
Q 1188 2334 1038 2041 
L 1038 669 
Q 1038 431 1097 309 
Q 1138 225 1241 169 
Q 1344 113 1538 113 
L 1538 0 
L 72 0 
L 72 113 
Q 291 113 397 181 
Q 475 231 506 341 
Q 522 394 522 644 
L 522 1753 
Q 522 2253 501 2348 
Q 481 2444 426 2487 
Q 372 2531 291 2531 
Q 194 2531 72 2484 
L 41 2597 
L 906 2947 
L 1038 2947 
z
" transform="scale(0.015625)"/>
       <path id="TimesNewRomanPSMT-6b" d="M 1047 4444 
L 1047 1597 
L 1775 2259 
Q 2006 2472 2044 2528 
Q 2069 2566 2069 2603 
Q 2069 2666 2017 2711 
Q 1966 2756 1847 2763 
L 1847 2863 
L 3091 2863 
L 3091 2763 
Q 2834 2756 2664 2684 
Q 2494 2613 2291 2428 
L 1556 1750 
L 2291 822 
Q 2597 438 2703 334 
Q 2853 188 2966 144 
Q 3044 113 3238 113 
L 3238 0 
L 1847 0 
L 1847 113 
Q 1966 116 2008 148 
Q 2050 181 2050 241 
Q 2050 313 1925 472 
L 1047 1594 
L 1047 644 
Q 1047 366 1086 278 
Q 1125 191 1197 153 
Q 1269 116 1509 113 
L 1509 0 
L 53 0 
L 53 113 
Q 272 113 381 166 
Q 447 200 481 272 
Q 528 375 528 628 
L 528 3234 
Q 528 3731 506 3842 
Q 484 3953 434 3995 
Q 384 4038 303 4038 
Q 238 4038 106 3984 
L 53 4094 
L 903 4444 
L 1047 4444 
z
" transform="scale(0.015625)"/>
       <path id="TimesNewRomanPSMT-4e" d="M -84 4238 
L 1066 4238 
L 3656 1059 
L 3656 3503 
Q 3656 3894 3569 3991 
Q 3453 4122 3203 4122 
L 3056 4122 
L 3056 4238 
L 4531 4238 
L 4531 4122 
L 4381 4122 
Q 4113 4122 4000 3959 
Q 3931 3859 3931 3503 
L 3931 -69 
L 3819 -69 
L 1025 3344 
L 1025 734 
Q 1025 344 1109 247 
Q 1228 116 1475 116 
L 1625 116 
L 1625 0 
L 150 0 
L 150 116 
L 297 116 
Q 569 116 681 278 
Q 750 378 750 734 
L 750 3681 
Q 566 3897 470 3965 
Q 375 4034 191 4094 
Q 100 4122 -84 4122 
L -84 4238 
z
" transform="scale(0.015625)"/>
      </defs>
      <use xlink:href="#TimesNewRomanPSMT-42"/>
      <use xlink:href="#TimesNewRomanPSMT-61" x="66.699219"/>
      <use xlink:href="#TimesNewRomanPSMT-73" x="111.083984"/>
      <use xlink:href="#TimesNewRomanPSMT-65" x="150"/>
      <use xlink:href="#TimesNewRomanPSMT-20" x="194.384766"/>
      <use xlink:href="#TimesNewRomanPSMT-53" x="219.384766"/>
      <use xlink:href="#TimesNewRomanPSMT-68" x="275"/>
      <use xlink:href="#TimesNewRomanPSMT-65" x="325"/>
      <use xlink:href="#TimesNewRomanPSMT-61" x="369.384766"/>
      <use xlink:href="#TimesNewRomanPSMT-72" x="413.769531"/>
      <use xlink:href="#TimesNewRomanPSMT-20" x="447.070312"/>
      <use xlink:href="#TimesNewRomanPSMT-28" x="472.070312"/>
      <use xlink:href="#TimesNewRomanPSMT-6b" x="505.371094"/>
      <use xlink:href="#TimesNewRomanPSMT-4e" x="555.371094"/>
      <use xlink:href="#TimesNewRomanPSMT-29" x="627.587891"/>
     </g>
    </g>
   </g>
   <g id="line2d_25">
    <path d="M 160.673397 138.561181 
L 160.94407 127.082276 
L 161.820196 121.951402 
L 162.267001 117.268462 
L 162.506592 112.789128 
L 163.594464 108.106187 
L 164.896026 103.423247 
L 164.921928 97.315064 
L 165.582422 93.242942 
L 166.469556 86.320334 
L 167.324313 82.655424 
L 168.425136 80.212151 
L 169.072679 76.954454 
L 169.914485 76.140029 
L 170.108748 80.619363 
L 169.007925 85.098698 
L 168.360382 89.578032 
L 167.907102 94.057366 
L 167.259558 98.5367 
L 165.724881 107.658254 
L 163.995941 113.277782 
L 163.536185 118.897311 
L 162.875691 123.824578 
L 161.08912 140.438836 
L 161.328063 135.28353 
L 160.855357 144.673843 
L 158.006167 161.043774 
L 157.7601 167.59989 
L 157.106082 171.101915 
L 156.646326 177.413704 
L 155.137551 181.200778 
L 153.855415 186.494536 
L 153.402135 191.381083 
L 152.301311 194.63878 
L 151.200488 199.118115 
L 150.358682 194.63878 
L 152.754592 183.644051 
L 154.088531 178.838947 
L 154.969189 172.038503 
L 156.057062 167.803496 
L 156.503867 163.60921 
L 157.37805 158.478337 
L 158.686087 153.062414 
L 160.007723 143.940861 
L 160.666274 139.96647 
L 161.781343 129.89204 
L 164.423319 112.789128 
L 165.537094 102.486659 
L 167.065295 95.279003 
L 167.971856 89.985244 
L 168.619399 85.50591 
L 169.072679 80.619363 
L 170.108748 77.361666 
L 169.202188 89.985244 
L 168.360382 97.315064 
L 165.524143 105.092817 
L 163.782252 113.033455 
L 164.170778 120.078226 
L 162.441837 125.90136 
L 161.781343 130.136367 
L 159.780435 147.23928 
L 158.252233 153.999002 
L 158.440021 159.862858 
L 156.48444 167.111235 
L 154.956238 175.296201 
L 154.936812 179.164717 
L 154.276318 183.644051 
L 153.596398 187.308961 
L 152.560329 190.973871 
L 151.912786 193.824356 
L 150.617699 196.674841 
L 151.718523 190.159446 
L 155.843373 168.536478 
L 156.944196 160.555119 
L 157.617641 154.24333 
L 158.699038 150.049044 
L 159.780435 146.302692 
L 160.890971 137.625 
L 161.308637 138.565253 
L 161.548228 133.394065 
L 162.428886 128.018864 
L 163.52971 120.526159 
L 165.064387 111.404606 
L 166.385375 102.730986 
L 167.712839 96.093427 
L 168.360382 87.949183 
L 170.108748 77.361666 
L 171.209572 72.475119 
L 173.152201 65.959724 
L 174.253024 62.702026 
L 175.742374 59.851541 
L 176.843197 58.629904 
L 177.879266 61.48039 
L 177.620249 66.774149 
L 175.677619 74.918393 
L 174.576796 81.841 
L 174.317779 85.913122 
L 173.475973 90.799669 
L 172.82843 95.686215 
L 172.569412 100.20627 
L 171.921869 103.463968 
L 170.43252 107.943302 
L 169.331696 111.648933 
L 167.194804 114.947352 
L 165.880291 118.693704 
L 165.439962 121.503469 
L 162.86274 126.87867 
L 161.988557 131.072955 
L 160.68829 135.515641 
L 160.876725 140.438836 
L 160.620298 149.112456 
L 158.899776 152.858808 
L 158.660185 157.541749 
L 157.786002 162.672622 
L 157.332722 167.59989 
L 157.740674 171.101915 
L 156.872966 175.092595 
L 155.571404 180.386353 
L 155.1246 183.644051 
L 154.250416 188.123385 
L 152.948855 191.788295 
L 152.107049 195.045993 
L 151.006225 197.489266 
L 151.006225 199.118115 
L 151.459505 193.417144 
L 153.661152 178.350292 
L 154.7555 172.730764 
L 156.749933 157.501027 
L 159.132892 148.175868 
L 159.579697 144.185188 
L 160.670807 139.029882 
L 162.402985 133.638392 
L 163.08938 123.091596 
L 164.196679 115.395286 
L 168.101364 99.025355 
L 169.655468 91.206881 
L 170.497274 85.098698 
L 172.051378 81.433788 
L 173.346464 76.547241 
L 174.835813 72.067907 
L 175.483356 65.959724 
L 176.1309 63.516451 
L 178.526809 60.665965 
L 178.267792 65.552512 
L 155.64911 164.790126 
L 176.1309 75.732817 
L 174.317779 86.727546 
L 173.022692 93.242942 
L 172.375149 98.088767 
L 171.921869 104.644883 
L 169.525959 111.648933 
L 165.433487 122.643663 
L 164.144876 125.697754 
L 162.843314 129.89204 
L 162.176345 135.759968 
L 160.656561 141.839646 
L 158.491824 149.560389 
L 157.391001 156.564439 
L 157.572313 162.91695 
L 156.477965 168.984412 
L 155.610257 171.794176 
L 155.584355 177.658032 
L 154.256892 186.494536 
L 153.207872 190.566658 
L 150.811962 194.231568 
L 151.912786 186.494536 
L 155.189354 171.346242 
L 158.05797 150.25265 
L 160.238248 140.434764 
L 160.885791 138.562809 
L 156.6269 138.536748 
L 159.869148 129.199779 
L 162.448313 123.580251 
L 163.549136 116.53548 
L 164.863649 109.287103 
L 165.744307 103.667574 
L 166.83218 99.228961 
L 168.748908 93.650154 
L 170.303011 88.356395 
L 171.598098 83.469849 
L 173.346464 77.768878 
L 173.994007 72.475119 
L 175.289094 68.402997 
L 176.58418 63.516451 
L 177.685003 60.258753 
L 182.606331 56.593843 
L 185.779293 54.15057 
L 187.721922 53.336146 
L 189.599797 52.928934 
L 191.542427 51.707297 
L 193.226039 51.300085 
L 194.067845 55.779419 
L 193.420302 61.073178 
L 193.614565 67.181361 
L 192.902267 72.882332 
L 191.866198 78.17609 
L 190.506358 84.284273 
L 189.017008 89.578032 
L 187.074379 99.106797 
L 185.714538 104.52272 
L 185.066995 108.717005 
L 184.030926 112.911291 
L 182.476823 118.327213 
L 180.728456 126.023524 
L 179.239107 131.195119 
L 177.94402 135.153222 
L 174.706305 144.022304 
L 167.58333 159.455646 
L 165.653651 163.446326 
L 164.144876 166.948351 
L 161.781343 171.59057 
L 159.842599 176.762165 
L 156.6269 181.60799 
L 154.89796 186.494536 
L 152.948855 190.566658 
L 144.984074 208.891208 
L 142.005375 214.184966 
L 137.925853 218.257088 
L 133.198788 222.32921 
L 128.342215 224.772483 
L 127.694672 221.107574 
L 127.759426 214.592178 
L 128.212706 207.669571 
L 128.860249 201.9686 
L 129.119267 196.674841 
L 130.22009 190.973871 
L 131.709439 185.680112 
L 132.810263 179.571929 
L 134.558629 173.097255 
L 136.242241 167.92566 
L 138.897168 157.623191 
L 140.386517 152.736645 
L 141.875867 147.117116 
L 144.725057 139.400445 
L 147.509492 134.965904 
L 150.099665 130.747186 
L 152.625083 125.616312 
L 154.800828 121.86996 
L 156.523293 117.920001 
L 159.307728 114.173649 
L 161.243882 109.735036 
L 163.814629 106.233011 
L 170.238257 93.650154 
L 173.929253 87.949183 
L 176.260408 83.877061 
L 178.850581 78.990515 
L 181.635016 75.325605 
L 184.419452 71.253483 
L 186.750607 68.402997 
L 188.952254 64.738088 
L 191.089147 60.665965 
L 193.873582 58.629904 
L 193.420302 63.109239 
L 193.355548 67.588573 
L 192.060461 74.51118 
L 190.312095 79.804939 
L 189.211271 86.320334 
L 188.369465 92.428517 
L 187.074379 96.907852 
L 185.973556 102.405216 
L 184.225189 109.164939 
L 182.476823 115.273122 
L 181.181736 121.096256 
L 180.080913 125.331263 
L 178.138283 130.462137 
L 176.454671 134.208489 
L 174.965322 137.946697 
L 172.569412 141.680833 
L 169.784977 146.832068 
L 164.850698 154.284051 
L 163.549136 158.722664 
L 160.329552 164.58652 
L 137.343065 204.411873 
L 156.458539 172.038503 
L 151.97754 179.571929 
L 148.934087 185.2729 
L 145.955389 189.752234 
L 144.660302 193.824356 
L 141.422586 199.525327 
L 138.832414 202.783024 
L 137.537328 206.040722 
L 135.659452 209.29842 
L 133.911086 212.96333 
L 131.12665 215.813815 
L 129.831564 218.257088 
L 128.147952 219.885937 
L 127.500409 215.406603 
L 128.860249 204.004661 
L 129.119267 198.30369 
L 129.76681 193.009932 
L 131.061896 187.716173 
L 132.810263 181.200778 
L 133.911086 174.726104 
L 135.594698 170.043163 
L 136.695521 165.115896 
L 138.638151 160.677283 
L 139.933237 154.121166 
L 141.487341 150.619141 
L 142.97669 144.796007 
L 143.235707 141.033366 
L 146.667686 135.430126 
L 151.135734 127.245161 
L 155.241157 117.920001 
L 157.818379 113.481388 
L 160.184502 108.798448 
L 162.538969 105.785078 
L 164.896026 103.219641 
L 166.618491 98.781028 
L 171.144817 89.985244 
L 173.475973 85.913122 
L 176.260408 81.841 
L 178.462055 77.768878 
L 181.635016 72.475119 
L 189.34078 60.665965 
L 191.089147 58.629904 
L 193.873582 56.593843 
L 193.808828 62.294814 
L 191.866198 76.954454 
L 190.506358 83.877061 
L 188.822745 90.799669 
L 187.721922 96.500639 
L 185.973556 102.649544 
L 185.326012 107.332484 
L 184.225189 112.707685 
L 181.635016 119.956062 
L 180.145667 123.458087 
L 175.807128 135.609299 
L 173.411218 139.811729 
L 171.080063 144.958892 
L 168.48989 149.153177 
L 166.346523 153.143857 
L 162.053311 160.351513 
L 158.394693 168.088545 
L 151.97754 177.658032 
L 150.423436 181.60799 
L 147.444738 187.308961 
L 144.466039 191.381083 
L 142.717673 194.63878 
L 141.034061 198.710902 
L 132.616 211.334481 
L 131.12665 214.592178 
L 129.184021 217.035452 
L 127.694672 217.849876 
L 128.860249 204.819085 
L 128.860249 198.710902 
L 132.356982 184.458475 
L 135.853715 165.808156 
L 138.443888 159.496367 
L 140.192254 154.121166 
L 141.228324 149.438226 
L 143.624233 141.50166 
L 145.113582 137.763452 
L 146.408669 137.535413 
L 147.703755 134.733793 
L 151.97754 128.181749 
L 154.366974 123.050875 
L 157.157885 118.408656 
L 158.88035 113.725716 
L 161.026308 110.671624 
L 163.400201 104.604162 
L 166.184637 100.409877 
L 170.043994 95.279003 
L 174.576796 87.541971 
L 177.361232 83.062637 
L 182.28256 75.732817 
L 186.103064 70.846271 
L 188.8875 66.366936 
L 192.319479 61.48039 
L 194.456371 59.037117 
L 196.852281 56.593843 
L 199.636716 54.557782 
L 202.421152 53.336146 
L 204.49329 51.707297 
L 207.536743 50.078448 
L 210.062161 49.671236 
L 210.903967 52.928934 
L 210.450687 57.408268 
L 209.803144 61.48039 
L 209.349863 65.1453 
L 208.24904 70.031846 
L 207.79576 73.696756 
L 206.953954 77.768878 
L 205.658868 81.433788 
L 204.752307 86.727546 
L 201.708854 97.803718 
L 200.413768 102.242331 
L 193.549811 123.53953 
L 191.607181 127.978143 
L 189.211271 132.416756 
L 186.880116 135.442342 
L 185.131749 138.710628 
L 181.505508 143.126437 
L 179.562878 146.180528 
L 176.389917 148.745965 
L 173.605481 152.451596 
L 170.562028 155.953621 
L 167.58333 160.147907 
L 163.950613 164.342192 
L 159.888575 167.59989 
L 157.313296 171.59057 
L 155.590831 175.540528 
L 149.840647 182.829626 
L 147.444738 188.123385 
L 145.502108 190.973871 
L 142.717673 195.453205 
L 141.228324 198.30369 
L 138.249625 201.9686 
L 133.716823 209.705632 
L 131.579931 212.556117 
L 128.795495 214.592178 
L 127.694672 216.221027 
L 127.759426 212.96333 
L 126.011059 217.442664 
L 124.715973 220.293149 
L 122.579081 222.32921 
L 118.111033 225.179696 
L 115.97414 226.401332 
L 115.779878 224.772483 
L 114.290528 227.215757 
L 112.736425 228.437393 
L 111.506093 228.437393 
L 110.664287 223.958059 
L 110.664287 218.257088 
L 111.829864 207.669571 
L 112.865933 201.9686 
L 114.225774 196.267629 
L 115.326597 190.566658 
L 116.815947 184.051263 
L 117.722507 178.146686 
L 123.097115 160.59584 
L 124.651219 155.9129 
L 126.140568 150.985632 
L 129.378284 145.651152 
L 132.356982 137.686082 
L 135.788961 135.597083 
L 139.415203 132.090986 
L 142.652918 129.56627 
L 146.084897 125.575591 
L 149.452122 122.073566 
L 152.495574 117.431347 
L 156.970098 113.237061 
L 160.397349 108.798448 
L 164.047744 102.975313 
L 168.295627 99.228961 
L 171.986623 92.83573 
L 173.929253 88.763608 
L 179.692387 80.619363 
L 183.771909 75.325605 
L 187.398151 72.475119 
L 190.830129 68.81021 
L 194.262108 65.552512 
L 197.240806 63.109239 
L 200.025242 60.665965 
L 206.435919 55.372207 
L 208.313794 54.15057 
L 210.450687 53.336146 
L 210.256424 59.037117 
L 209.090846 68.402997 
L 207.407234 75.732817 
L 206.112148 80.212151 
L 205.205587 84.284273 
L 203.457221 89.578032 
L 201.773609 96.093427 
L 196.528509 117.920001 
L 194.132599 123.295202 
L 193.290793 127.978143 
L 191.542427 131.032234 
L 189.211271 135.922853 
L 184.937487 143.411485 
L 173.152201 156.93093 
L 169.072679 162.998392 
L 165.85439 166.704023 
L 163.91176 171.631291 
L 160.701889 175.133316 
L 155.571404 180.386353 
L 152.171803 183.644051 
L 149.387367 186.901749 
L 144.466039 190.973871 
L 141.034061 195.453205 
L 137.602082 198.30369 
L 133.97584 201.561388 
L 131.191405 204.819085 
L 128.601232 207.669571 
L 125.622533 210.112844 
L 122.190555 213.370542 
L 115.585615 220.700361 
L 113.448722 222.32921 
L 111.052812 223.550847 
L 111.570847 216.221027 
L 111.76511 209.29842 
L 113.966757 198.30369 
L 115.52086 191.788295 
L 116.168403 185.2729 
L 118.305296 177.902359 
L 120.960223 166.663302 
L 122.449572 161.776756 
L 124.586464 157.541749 
L 126.140568 152.858808 
L 128.471723 147.280001 
L 130.414353 142.124695 
L 132.356982 138.388523 
L 132.810263 138.62552 
L 140.710289 131.195119 
L 149.452122 121.625632 
L 152.8841 116.942692 
L 156.756408 113.237061 
L 159.33363 109.042775 
L 163.821104 104.84849 
L 166.825704 100.165549 
L 169.202188 97.84444 
L 171.533343 94.057366 
L 175.418602 89.578032 
L 179.692387 85.098698 
L 183.707155 81.841 
L 185.908801 77.768878 
L 190.571112 72.475119 
L 193.161285 70.439058 
L 193.549811 72.882332 
L 193.744073 73.289544 
L 194.650634 70.439058 
L 196.334246 68.402997 
L 198.082613 65.1453 
L 201.255574 62.294814 
L 205.335096 59.037117 
L 209.608881 56.186631 
L 210.64495 57.001056 
L 211.940036 54.15057 
L 216.861364 50.892873 
L 219.840063 50.078448 
L 222.430235 48.449599 
L 226.509757 48.042387 
L 227.1573 51.707297 
L 227.1573 57.81548 
L 225.862214 62.294814 
L 225.214671 66.366936 
L 224.826145 71.253483 
L 223.531059 75.325605 
L 222.883515 79.397727 
L 221.394166 83.469849 
L 220.293343 88.356395 
L 219.840063 92.428517 
L 217.897433 97.722276 
L 216.408084 102.568101 
L 214.012174 107.251042 
L 211.681019 112.87057 
L 210.385933 117.55351 
L 206.694937 126.186409 
L 206.306411 125.697754 
L 201.773609 133.88272 
L 197.240806 140.190437 
L 189.146517 144.348073 
L 184.030926 148.094426 
L 176.1309 152.24799 
L 172.051378 155.017033 
L 166.53431 158.519058 
L 159.90023 165.278781 
L 157.539936 169.228739 
L 155.396568 172.038503 
L 151.718523 178.350292 
L 147.703755 182.015202 
L 144.660302 185.2729 
L 141.034061 189.345022 
L 137.213556 193.417144 
L 133.97584 197.082054 
L 129.248775 203.597449 
L 125.428271 207.262359 
L 120.31268 213.370542 
L 117.269227 217.442664 
L 113.902002 219.478725 
L 111.117567 220.700361 
L 109.628218 223.143635 
L 104.70689 227.215757 
L 100.627368 228.844605 
L 97.195389 229.65903 
L 94.410953 229.65903 
L 94.410953 219.071513 
L 95.058497 214.999391 
L 96.029811 208.076783 
L 97.389652 201.154176 
L 99.073264 194.63878 
L 100.174087 187.308961 
L 102.116717 181.200778 
L 104.318364 175.94774 
L 105.61345 170.328212 
L 107.750342 165.197338 
L 110.534778 158.152567 
L 112.283144 153.266021 
L 116.556929 144.836728 
L 118.952839 141.11888 
L 124.910236 135.76404 
L 128.536478 134.167768 
L 132.810263 131.113677 
L 137.084047 129.036894 
L 140.062746 127.8967 
L 144.595548 125.819918 
L 147.962772 123.254481 
L 151.006225 119.060195 
L 158.472398 110.182969 
L 162.32528 106.477338 
L 166.178161 101.590792 
L 168.101364 98.5367 
L 171.33908 94.871791 
L 174.317779 90.799669 
L 181.829279 82.655424 
L 188.628483 76.140029 
L 191.024392 73.289544 
L 195.49244 70.439058 
L 201.061311 65.552512 
L 203.586729 63.516451 
L 207.860514 61.48039 
L 211.940036 58.222692 
L 215.566278 55.779419 
L 218.544976 54.15057 
L 220.681869 52.521721 
L 223.466304 51.300085 
L 225.862214 50.48566 
L 226.509757 55.372207 
L 226.509757 59.444329 
L 224.696636 62.702026 
L 223.790076 67.181361 
L 223.336796 72.067907 
L 221.653183 77.361666 
L 219.257274 85.913122 
L 218.350713 89.985244 
L 217.70317 93.650154 
L 216.019558 98.373816 
L 214.918735 103.749017 
L 213.170368 110.060806 
L 211.033476 117.064856 
L 208.637566 121.299863 
L 202.874432 130.136367 
L 200.284259 133.394065 
L 198.79491 135.983935 
L 195.557194 137.368456 
L 191.089147 140.385899 
L 184.872732 147.361444 
L 178.526809 149.438226 
L 174.835813 152.003663 
L 166.747999 158.030403 
L 166.320621 158.030403 
L 163.536185 161.288101 
L 159.676828 167.151957 
L 155.396568 171.549848 
L 151.783277 173.667352 
L 146.020143 179.001832 
L 139.997992 184.051263 
L 136.37175 187.716173 
L 129.119267 195.453205 
L 126.723357 198.30369 
L 122.061046 205.63351 
L 119.017593 208.076783 
L 116.233158 211.334481 
L 112.606916 213.370542 
L 108.980674 217.035452 
L 104.059346 219.478725 
L 99.397036 221.514786 
L 93.76341 221.921998 
L 95.058497 214.184966 
L 95.058497 208.483995 
L 97.195389 195.453205 
L 98.490475 189.345022 
L 101.080648 183.236839 
L 104.771644 172.201388 
L 109.304446 159.089155 
L 111.894619 152.57376 
L 114.679054 146.261971 
L 117.657753 141.110736 
L 120.636451 138.082706 
L 122.838098 135.051419 
L 126.852865 131.072955 
L 129.248775 130.177089 
L 132.227474 127.855979 
L 136.242241 125.046215 
L 145.243091 121.381305 
L 149.516876 119.060195 
L 153.725906 117.187019 
L 156.963622 114.86591 
L 160.168961 111.852539 
L 161.891426 107.86186 
L 164.028318 106.029405 
L 170.43252 101.590792 
L 174.058762 98.088767 
L 176.843197 96.907852 
L 176.648934 99.310404 
L 178.526809 95.279003 
L 179.821896 93.650154 
L 183.059611 90.799669 
L 186.685853 87.949183 
L 189.470289 85.50591 
L 192.902267 82.248212 
L 193.290793 83.469849 
L 195.427686 79.804939 
L 198.017858 76.140029 
L 200.349014 74.103968 
L 202.485906 72.067907 
L 204.428536 71.253483 
L 207.212971 68.402997 
L 209.544126 66.366936 
L 210.385933 67.995785 
L 211.486756 64.330875 
L 214.076929 61.887602 
L 216.408084 59.851541 
L 219.192519 58.222692 
L 222.365481 56.186631 
L 227.1573 54.557782 
L 227.1573 56.186631 
L 229.09993 53.743358 
L 231.690102 51.300085 
L 234.927818 50.078448 
L 238.813077 48.856812 
L 242.050793 48.042387 
L 243.345879 51.300085 
L 243.345879 55.779419 
L 242.050793 61.073178 
L 241.40325 66.366936 
L 240.108163 70.846271 
L 239.46062 74.918393 
L 238.165534 78.990515 
L 236.870448 84.284273 
L 235.575361 88.763608 
L 234.280275 93.650154 
L 232.337646 99.147519 
L 229.747473 108.269072 
L 227.804843 112.504079 
L 226.509757 116.454037 
L 224.631882 120.20039 
L 222.235972 124.639003 
L 220.09908 127.693094 
L 215.825295 135.617444 
L 212.393316 138.408395 
L 207.666251 140.487702 
L 203.845747 142.55634 
L 188.110448 146.221249 
L 174.253024 152.003663 
L 167.389067 154.528378 
L 162.694379 159.211319 
L 158.193954 166.418975 
L 154.561237 168.984412 
L 150.682454 173.667352 
L 145.761126 178.065244 
L 141.293078 183.236839 
L 137.019293 186.494536 
L 129.313529 193.417144 
L 127.82418 194.231568 
L 127.82418 192.195507 
L 125.687288 195.860417 
L 124.392201 198.710902 
L 122.449572 201.154176 
L 120.118417 202.783024 
L 117.528244 205.63351 
L 115.002826 208.076783 
L 110.923304 210.112844 
L 110.729041 207.669571 
L 109.887235 210.927269 
L 108.138868 213.777754 
L 105.16017 216.628239 
L 102.569997 217.849876 
L 99.591299 220.293149 
L 96.418337 221.107574 
L 94.410953 219.071513 
L 96.288829 209.705632 
L 98.231458 201.561388 
L 99.526544 192.602719 
L 100.821631 188.123385 
L 104.318364 177.820916 
L 105.807713 171.020473 
L 107.556079 167.27412 
L 111.441338 155.383524 
L 113.772494 150.456256 
L 116.362666 146.506298 
L 119.147102 141.823358 
L 122.1258 138.326219 
L 103.023277 138.443496 
L 106.843782 135.185799 
L 110.664287 133.55695 
L 115.197089 131.480168 
L 119.406119 130.095646 
L 123.485641 128.955452 
L 126.658603 128.507519 
L 130.932387 128.303912 
L 144.789811 125.575591 
L 154.15976 121.86996 
L 162.474214 118.408656 
L 167.389067 117.064856 
L 171.015309 115.680334 
L 174.18827 113.807158 
L 178.656318 111.486048 
L 182.73584 109.8572 
L 186.556344 108.472678 
L 191.283409 105.255702 
L 193.808828 105.500029 
L 195.103914 103.626853 
L 198.730156 101.061416 
L 201.320328 98.740306 
L 204.299027 96.500639 
L 208.378549 93.242942 
L 213.49414 89.985244 
L 217.573662 86.727546 
L 223.919584 82.655424 
L 225.862214 80.212151 
L 226.509757 81.841 
L 228.452387 79.397727 
L 231.042559 76.954454 
L 231.042559 79.397727 
L 231.690102 82.248212 
L 233.632732 78.990515 
L 240.108163 74.918393 
L 242.698336 74.103968 
L 243.345879 76.547241 
L 245.288509 74.51118 
L 246.583595 71.660695 
L 249.173768 70.846271 
L 252.411483 70.846271 
L 253.70657 72.475119 
L 258.239372 74.103968 
L 259.534458 74.918393 
L 259.534458 81.841 
L 258.886915 86.320334 
L 257.591829 89.985244 
L 255.001656 98.129488 
L 253.059027 101.87584 
L 251.116397 106.558781 
L 249.173768 110.753066 
L 244.640965 119.141638 
L 242.050793 123.132317 
L 240.755707 126.634342 
L 235.575361 132.701804 
L 231.690102 136.183469 
L 227.804843 138.503357 
L 222.624498 139.876883 
L 216.408084 140.308528 
L 212.393316 140.284095 
L 205.594113 140.711668 
L 196.593263 142.515618 
L 189.405534 143.207879 
L 181.052228 144.999613 
L 176.195654 146.872789 
L 170.43252 148.216589 
L 165.932095 150.293371 
L 159.754533 152.125826 
L 147.379984 157.704634 
L 142.717673 158.844828 
L 135.659452 161.613871 
L 131.191405 164.382914 
L 127.759426 165.767435 
L 126.723357 164.58652 
L 125.816796 166.704023 
L 123.679904 169.025133 
L 121.154486 170.898309 
L 116.880701 172.975091 
L 108.333131 178.309571 
L 104.70689 179.979141 
L 100.886385 182.829626 
L 98.101949 184.051263 
L 95.058497 185.680112 
L 94.410953 182.422414 
L 93.115867 186.087324 
L 89.878151 189.345022 
L 88.583065 190.159446 
L 87.935522 187.308961 
L 87.287979 187.716173 
L 85.345349 189.345022 
L 81.46009 190.159446 
L 78.869918 190.973871 
L 78.222374 189.345022 
L 77.574831 186.901749 
L 77.574831 189.752234 
L 74.337116 191.788295 
L 71.0994 191.381083 
L 66.566598 191.788295 
L 62.681339 191.788295 
L 60.738709 188.93781 
L 60.738709 185.2729 
L 65.271511 170.776145 
L 67.214141 165.889599 
L 69.15677 162.143247 
L 73.689572 154.446936 
L 76.279745 150.456256 
L 78.222374 146.954231 
L 81.46009 143.696534 
L 85.345349 139.50632 
L 87.935522 138.11569 
L 89.878151 136.256767 
L 93.115867 134.868173 
L 101.339665 133.027574 
L 105.61345 132.620362 
L 109.82248 132.620362 
L 114.096265 132.416756 
L 119.665136 131.765216 
L 124.133184 130.380695 
L 128.601232 129.240501 
L 138.832414 127.8967 
L 149.711139 124.191069 
L 155.642634 123.295202 
L 164.80537 121.259141 
L 171.857115 118.693704 
L 175.677619 118.042165 
L 179.692387 117.594232 
L 183.577646 116.454037 
L 187.203888 115.069516 
L 191.218655 114.132928 
L 196.139983 112.300473 
L 201.449837 110.915951 
L 205.270342 109.083496 
L 209.155601 107.454648 
L 225.862214 101.468628 
L 219.386782 103.54541 
L 230.395016 99.391846 
L 235.575361 97.762997 
L 240.755707 95.686215 
L 245.936052 94.057366 
L 249.821311 93.242942 
L 254.354113 92.021305 
L 258.239372 91.206881 
L 260.182001 91.206881 
L 260.829544 93.242942 
L 260.829544 96.093427 
L 259.534458 100.491319 
L 258.886915 103.54541 
L 256.944285 107.047435 
L 253.70657 113.603552 
L 252.411483 116.372595 
L 250.468854 120.118947 
L 247.878681 123.620972 
L 243.993422 127.367324 
L 240.755707 130.136367 
L 236.870448 134.57498 
L 230.395016 136.879801 
L 223.85483 139.885028 
L 218.15645 139.616267 
L 210.450687 140.50399 
L 196.852281 140.422548 
L 191.089147 140.854193 
L 183.836663 142.218353 
L 170.626783 143.085715 
L 160.216879 144.633122 
L 155.318863 145.773316 
L 150.229173 146.465577 
L 146.149652 146.669183 
L 140.192254 147.320722 
L 135.270926 148.705244 
L 125.104499 150.049044 
L 121.21924 151.677893 
L 117.592998 152.370154 
L 110.340515 155.831457 
L 106.52001 156.971652 
L 102.699506 158.844828 
L 97.583915 159.496367 
L 93.76341 161.125216 
L 87.935522 162.713344 
L 85.345349 163.894259 
L 85.345349 159.659252 
L 84.050263 161.776756 
L 82.107633 163.405604 
L 78.869918 165.238059 
L 74.984659 165.441665 
L 71.746943 166.133926 
L 67.861684 166.826187 
L 62.681339 167.233399 
L 60.738709 166.785466 
L 60.738709 163.24272 
L 62.033796 159.740695 
L 64.623968 155.790736 
L 66.566598 151.800057 
L 71.746943 147.157837 
L 74.984659 143.90014 
L 77.574831 142.503402 
L 81.46009 139.718071 
L 84.697806 137.865255 
L 89.878151 136.020584 
L 93.76341 134.872245 
L 99.397036 133.719835 
L 103.67082 133.068295 
L 109.174937 133.109016 
L 121.543012 131.520889 
L 127.111883 131.805937 
L 131.579931 131.805937 
L 137.537328 131.643053 
L 142.393901 130.950792 
L 147.315229 130.502858 
L 150.941471 130.054925 
L 154.334597 129.851319 
L 159.016334 129.89204 
L 164.131925 128.507519 
L 170.303011 127.611652 
L 175.224339 127.652373 
L 179.692387 126.512179 
L 190.959638 125.168378 
L 196.075229 124.028184 
L 202.226889 123.132317 
L 208.184286 121.747796 
L 213.105614 120.363274 
L 216.084312 119.22308 
L 219.063011 117.838559 
L 223.790076 116.454037 
L 228.452387 114.621582 
L 232.985189 112.992734 
L 237.517991 111.608212 
L 244.640965 109.083496 
L 248.526224 107.943302 
L 249.821311 111.445327 
L 249.173768 114.499419 
L 249.821311 116.86125 
L 249.821311 119.87462 
L 251.116397 117.55351 
L 253.70657 116.168989 
L 255.649199 114.988073 
L 257.591829 115.965383 
L 260.182001 115.721055 
L 262.124631 117.838559 
L 260.829544 120.444717 
L 258.886915 123.21376 
L 256.296742 126.512179 
L 253.70657 129.281222 
L 251.116397 132.335313 
L 247.231138 134.167768 
L 240.755707 136.472589 
L 234.927818 137.844894 
L 228.452387 138.504578 
L 210.062161 139.331219 
L 202.162134 139.986831 
L 185.779293 139.885028 
L 178.980089 140.780894 
L 171.921869 140.740173 
L 165.55652 140.467341 
L 160.020673 141.36728 
L 148.286544 141.766348 
L 144.077513 142.44232 
L 138.508642 142.882109 
L 132.745508 143.533649 
L 121.67252 143.492928 
L 116.815947 143.90014 
L 111.700356 144.592401 
L 101.274911 146.628462 
L 95.058497 148.460917 
L 88.583065 149.845438 
L 82.107633 150.985632 
L 75.632202 151.881499 
L 68.509227 152.980972 
L 64.623968 154.365493 
L 62.033796 155.546409 
L 60.091166 152.940251 
L 61.386252 149.193898 
L 63.976425 146.180528 
L 67.861684 143.167158 
L 72.394486 141.065943 
L 75.632202 139.213127 
L 78.222374 138.058274 
L 81.46009 138.07782 
L 81.46009 138.07782 
" clip-path="url(#p9492e7dd2b)" style="fill: none; stroke-dasharray: 3.7,1.6; stroke-dashoffset: 0; stroke: #000000"/>
   </g>
   <g id="line2d_26">
    <path d="M 160.460355 138.443496 
L 162.085839 104.003636 
L 163.605625 94.473407 
L 166.627652 79.063729 
L 169.256021 70.712528 
L 170.369559 67.951746 
L 171.325111 66.422291 
L 173.106608 63.222317 
L 173.307398 62.898967 
L 173.303738 62.932897 
L 171.293883 83.009593 
L 169.213543 101.983059 
L 167.954972 112.370416 
L 166.576602 122.778166 
L 165.100235 132.82658 
L 161.948087 151.463691 
L 160.32216 159.612263 
L 158.697153 165.459163 
L 157.098768 169.916115 
L 155.552283 178.778189 
L 152.711643 190.069088 
L 151.524876 192.00118 
L 150.416691 196.63045 
L 148.691051 201.207059 
L 148.100888 201.963018 
L 147.512397 203.287676 
L 147.523377 203.178281 
L 149.560761 183.422708 
L 151.652307 165.332994 
L 152.915512 155.538062 
L 154.297767 146.261839 
L 155.77721 138.541644 
L 157.330443 131.774694 
L 160.559239 119.113027 
L 168.158379 91.203605 
L 170.505707 83.817858 
L 172.218947 79.191107 
L 173.376396 76.406756 
L 173.358097 76.591563 
L 171.293227 96.441726 
L 169.190516 114.199992 
L 167.922703 122.837658 
L 166.53659 130.202971 
L 165.054101 136.995258 
L 163.498681 143.565748 
L 160.268214 155.810754 
L 157.04875 166.690572 
L 149.405728 191.184976 
L 147.506383 196.425201 
L 148.816311 184.003218 
L 150.603425 168.276274 
L 151.73815 159.925158 
L 153.010545 152.236422 
L 154.400487 145.151276 
L 155.885993 138.387915 
L 157.443569 131.906931 
L 159.04858 125.738023 
L 160.770689 119.614105 
L 165.301624 105.130068 
L 169.526394 92.022242 
L 171.439549 86.417339 
L 173.178783 81.766651 
L 174.71659 78.05504 
L 177.094204 73.034695 
L 178.664371 70.143407 
L 176.779696 88.05412 
L 174.245815 109.46856 
L 172.64045 120.545058 
L 170.842171 129.467729 
L 168.879419 137.859576 
L 166.783237 145.870916 
L 164.586777 153.353141 
L 162.324777 160.201374 
L 160.033013 166.429073 
L 157.747731 172.046404 
L 155.505073 177.123477 
L 151.288274 186.144659 
L 146.118185 197.852135 
L 143.758179 202.626029 
L 142.21797 205.413264 
L 144.142565 187.443077 
L 145.298301 177.404931 
L 146.693558 167.193754 
L 148.306269 157.960463 
L 150.110929 149.138668 
L 152.078994 140.708732 
L 154.17934 132.709206 
L 156.378746 125.24167 
L 158.642429 118.409993 
L 160.934587 112.257943 
L 163.218967 106.766092 
L 165.459441 101.869849 
L 171.56989 89.236273 
L 176.113156 79.470864 
L 178.670633 74.533467 
L 177.613569 84.586058 
L 175.541528 102.723274 
L 174.138104 111.841022 
L 172.518078 120.579089 
L 170.707075 129.134137 
L 168.733735 137.499812 
L 166.629269 145.466212 
L 164.42696 152.858043 
L 162.161639 159.583559 
L 159.869134 165.603125 
L 157.585702 170.977169 
L 155.347458 175.7408 
L 151.146855 183.790803 
L 147.532015 190.76564 
L 142.919486 200.005755 
L 142.212445 201.325008 
L 144.216762 182.81969 
L 145.390259 173.730689 
L 146.801823 165.13257 
L 148.42913 156.461112 
L 150.246441 147.879047 
L 152.225015 139.514711 
L 154.333559 131.581222 
L 156.538726 124.216694 
L 158.805639 117.520693 
L 161.366106 110.875749 
L 164.580368 103.659417 
L 167.729192 97.487342 
L 170.762777 91.903092 
L 178.705941 76.418888 
L 180.828139 72.699159 
L 184.076848 67.690955 
L 186.119036 64.943582 
L 184.544874 79.671206 
L 183.240389 91.159645 
L 181.575345 104.822426 
L 179.576075 116.580039 
L 177.2742 127.259461 
L 174.706125 137.631658 
L 171.912466 147.340215 
L 168.937406 156.173475 
L 165.827999 163.99865 
L 162.633422 170.83437 
L 159.404199 176.732541 
L 156.191403 181.809465 
L 153.045846 186.171331 
L 147.153596 193.517076 
L 144.500093 197.282388 
L 138.199784 206.915713 
L 135.032284 211.145658 
L 134.764026 211.478295 
L 136.380912 196.297607 
L 137.698664 184.783983 
L 139.376131 173.179125 
L 141.386783 162.372542 
L 143.698819 151.650442 
L 146.275673 141.222914 
L 149.076591 131.459845 
L 152.057273 122.575067 
L 155.170579 114.698247 
L 158.36727 107.841992 
L 161.596786 101.941502 
L 164.808052 96.89416 
L 167.950279 92.575777 
L 176.475906 81.994179 
L 186.123705 67.765985 
L 184.464128 83.132884 
L 183.133135 94.720938 
L 181.443278 105.36876 
L 179.421286 115.949495 
L 177.099135 126.588433 
L 174.513554 136.992418 
L 171.705435 146.710171 
L 168.719189 155.523782 
L 165.602047 163.312381 
L 162.403309 170.080883 
L 159.173564 175.903031 
L 155.963893 180.899862 
L 152.82506 185.160524 
L 149.806707 188.806789 
L 144.319731 195.105329 
L 141.937888 198.272398 
L 134.760395 208.370821 
L 136.46263 192.518491 
L 137.806837 181.671788 
L 139.509048 171.569072 
L 141.542341 161.031762 
L 143.874558 150.383856 
L 146.468814 139.979632 
L 149.284079 130.27702 
L 152.275827 121.481614 
L 155.396742 113.714077 
L 158.597465 106.976673 
L 162.392625 100.279525 
L 166.910333 93.720455 
L 171.325754 88.360118 
L 175.569053 83.640652 
L 179.573121 78.498413 
L 186.615038 68.663105 
L 189.541514 65.027527 
L 192.007775 62.254589 
L 195.411521 58.83656 
L 196.611798 57.731825 
L 194.154586 80.173608 
L 192.243025 96.127745 
L 189.828521 111.049176 
L 186.949263 124.148191 
L 183.650786 136.912133 
L 179.98526 148.643543 
L 176.010657 159.017985 
L 171.789837 167.901171 
L 167.389557 175.362518 
L 162.879409 181.595111 
L 158.330726 186.838549 
L 153.815446 191.226925 
L 149.404983 194.907476 
L 145.169092 198.045056 
L 141.174765 201.209435 
L 137.485176 204.767157 
L 128.798824 214.117391 
L 124.273127 218.414921 
L 125.392459 207.698602 
L 126.790314 195.193806 
L 128.720407 180.723348 
L 131.152212 167.781959 
L 134.047269 154.618499 
L 137.35979 141.767893 
L 141.037384 129.951601 
L 145.02189 119.497093 
L 149.250288 110.532956 
L 153.655704 102.997954 
L 158.168463 96.730571 
L 162.717193 91.536619 
L 167.229952 87.216911 
L 171.635368 83.592329 
L 179.848271 77.728129 
L 183.525866 74.513793 
L 186.838387 70.985987 
L 194.095342 62.87028 
L 196.612529 60.340994 
L 194.035417 83.684867 
L 192.086831 97.506251 
L 189.637774 110.308967 
L 186.726978 123.489405 
L 183.40048 136.333185 
L 179.710891 148.110445 
L 175.716564 158.509259 
L 171.480672 167.404676 
L 167.07021 174.877165 
L 162.55493 181.108007 
L 158.006246 186.308895 
L 153.496099 190.684305 
L 149.095819 194.328969 
L 140.900396 200.205699 
L 137.23487 203.203162 
L 133.936393 206.286437 
L 124.273858 216.002625 
L 125.474134 204.460088 
L 126.910842 191.862926 
L 128.877881 179.367748 
L 131.344141 166.632765 
L 134.270618 153.444936 
L 137.611026 140.621681 
L 141.312535 128.881994 
L 145.316602 118.531854 
L 149.559902 109.685555 
L 153.975322 102.27012 
L 158.493031 96.117849 
L 164.102539 89.976126 
L 170.450187 84.456112 
L 182.572775 75.748045 
L 188.155987 70.408554 
L 193.300896 64.908643 
L 197.926132 60.192899 
L 201.958544 56.601116 
L 209.913846 50.789123 
L 211.376036 49.813417 
L 209.628791 65.525038 
L 207.578239 82.809249 
L 204.782209 102.622941 
L 201.28492 118.799172 
L 197.141685 134.404882 
L 192.418032 148.572406 
L 187.18867 160.742583 
L 181.536303 170.778485 
L 175.550328 178.886237 
L 169.325418 185.416177 
L 162.960023 190.711156 
L 156.554817 195.145452 
L 150.211103 198.835583 
L 144.029211 201.963962 
L 138.106911 205.121466 
L 132.537869 208.518428 
L 127.410164 212.075513 
L 115.443582 221.850915 
L 109.814892 225.905697 
L 109.512706 226.109032 
L 111.316861 209.530068 
L 113.394667 192.249794 
L 116.216572 175.532325 
L 119.737947 159.51481 
L 123.903097 143.748805 
L 128.646148 129.461027 
L 133.892086 117.123748 
L 139.557942 106.855974 
L 145.554108 98.47619 
L 151.785748 91.672606 
L 158.154307 86.124883 
L 164.55906 81.36087 
L 170.898712 77.082716 
L 177.072996 73.415538 
L 188.539022 67.360707 
L 198.234633 62.144133 
L 202.222142 59.681439 
L 211.368834 53.292313 
L 209.507806 70.417062 
L 207.402788 87.215884 
L 204.555065 102.273812 
L 201.009676 118.275444 
L 196.822695 133.91241 
L 192.060341 148.018129 
L 186.797933 160.144704 
L 181.118702 170.167185 
L 175.112467 178.275566 
L 168.874222 184.795732 
L 162.502629 190.08309 
L 156.098458 194.469214 
L 149.762997 198.149658 
L 143.596444 201.249743 
L 137.696329 203.961083 
L 132.155965 206.87033 
L 127.062978 209.902356 
L 122.497916 213.189765 
L 109.521966 223.659615 
L 111.439829 206.033858 
L 113.572018 189.749543 
L 116.445501 174.20497 
L 120.014832 158.135237 
L 124.22356 142.469901 
L 129.005121 128.313839 
L 134.283891 116.117179 
L 139.976383 105.991168 
L 145.992565 97.744698 
L 152.237289 91.062623 
L 158.611789 85.62293 
L 166.881978 79.706795 
L 175.797866 74.214565 
L 184.470902 69.669087 
L 192.763918 65.55858 
L 200.545754 61.456257 
L 207.693334 56.867959 
L 214.093614 52.468968 
L 224.260797 45.911751 
L 230.406641 42.164187 
L 232.143881 41.215926 
L 229.363048 65.821437 
L 226.322173 89.932797 
L 222.239371 111.387518 
L 217.179213 130.344292 
L 211.22173 147.230188 
L 204.461144 161.248267 
L 197.004377 172.359594 
L 188.969364 181.003724 
L 180.483185 187.768058 
L 171.680053 193.182995 
L 162.699196 197.692638 
L 153.682654 201.570239 
L 144.773028 204.905664 
L 136.111231 208.267834 
L 127.834255 211.863032 
L 120.073006 215.676244 
L 112.950235 219.961106 
L 106.578591 224.390095 
L 101.058848 228.085591 
L 96.478303 230.916587 
L 90.408588 234.369002 
L 88.751916 235.148261 
L 91.612677 210.005888 
L 94.691692 187.500991 
L 98.810607 166.871696 
L 103.904279 147.737676 
L 109.892146 130.520977 
L 116.679508 116.108745 
L 124.159017 104.567268 
L 132.21238 95.49157 
L 140.712227 88.322926 
L 149.524127 82.5591 
L 158.508713 77.497776 
L 167.523889 72.850334 
L 176.427074 68.803115 
L 185.077456 65.279212 
L 208.17655 56.682819 
L 214.519428 54.004756 
L 220.007047 51.542598 
L 228.084246 47.3239 
L 232.122151 45.023499 
L 229.181519 71.619069 
L 226.064426 91.445355 
L 221.909481 110.635636 
L 216.782399 129.648494 
L 210.764267 146.629167 
L 203.950267 160.736008 
L 196.448167 171.932524 
L 188.376617 180.644168 
L 179.863275 187.44418 
L 171.042785 192.862291 
L 162.05465 197.318675 
L 153.041022 201.152094 
L 135.505666 207.624008 
L 127.261272 211.025696 
L 119.541667 214.404298 
L 112.468942 217.90337 
L 106.154957 221.756563 
L 96.18907 228.461978 
L 90.271981 232.119458 
L 88.776542 232.9918 
L 89.727558 224.245548 
L 91.796985 206.405691 
L 94.952094 185.611828 
L 99.142984 165.515799 
L 104.303373 146.445221 
L 110.351647 129.401217 
L 117.192148 115.168506 
L 124.716688 103.78772 
L 132.806262 94.839906 
L 141.332927 87.774392 
L 150.161829 82.096586 
L 159.153331 77.106083 
L 171.317965 71.116374 
L 183.83705 65.859137 
L 207.573084 57.17196 
L 218.414633 52.601766 
L 228.339318 47.735151 
L 244.827214 38.562468 
L 251.129658 35.448303 
L 261.147268 30.965025 
L 261.347098 30.882841 
L 259.951057 43.270583 
L 256.981224 67.910003 
L 252.484569 97.871042 
L 246.532211 122.312033 
L 239.218289 142.771608 
L 230.658479 159.166184 
L 220.98816 171.572277 
L 210.360274 180.872328 
L 198.942909 188.050391 
L 186.916638 193.837975 
L 174.471666 198.718357 
L 161.804819 202.992368 
L 149.11643 206.806402 
L 136.607176 210.820923 
L 124.4749 214.950261 
L 112.911481 219.413491 
L 102.099803 223.968394 
L 92.210861 229.384652 
L 83.401055 234.389259 
L 75.809718 238.373879 
L 69.556912 241.368152 
L 59.560994 245.664659 
L 61.013772 232.667604 
L 64.039089 207.551492 
L 68.589098 179.372971 
L 74.591838 154.775804 
L 81.95237 134.0879 
L 90.554284 117.387196 
L 100.261533 104.608078 
L 110.920591 94.902724 
L 122.362878 87.337492 
L 134.407425 81.185437 
L 146.863741 75.63806 
L 159.534819 70.704655 
L 172.220258 66.211663 
L 184.719428 62.226511 
L 208.374305 55.244543 
L 219.155893 51.772315 
L 229.008894 48.31386 
L 237.777474 45.027119 
L 245.322953 41.795147 
L 261.300187 33.996589 
L 259.790702 47.903451 
L 256.709962 73.262244 
L 252.10669 98.734355 
L 246.053691 122.304242 
L 238.646696 142.894686 
L 230.002853 159.374008 
L 220.25887 171.835937 
L 209.568855 181.152902 
L 198.101878 188.303227 
L 186.039297 194.02969 
L 173.571889 198.831584 
L 160.896837 203.017033 
L 148.214604 206.796036 
L 135.725769 210.810052 
L 123.627851 214.843891 
L 112.112188 219.099266 
L 101.360907 223.225687 
L 91.544048 227.880621 
L 75.317402 236.566199 
L 64.454734 241.926701 
L 59.61198 244.112844 
L 61.178142 230.11262 
L 64.314243 204.74041 
L 68.970684 177.741606 
L 75.073821 153.486527 
L 82.527128 132.8787 
L 91.212726 116.32938 
L 100.993246 103.700249 
L 111.714002 94.120242 
L 123.205439 86.660664 
L 135.28581 80.57503 
L 147.764057 75.102655 
L 147.764057 75.102655 
" clip-path="url(#p9492e7dd2b)" style="fill: none; stroke: #0000ff; stroke-width: 1.2; stroke-linecap: square"/>
   </g>
   <g id="line2d_27">
    <path d="M 49.432813 138.443496 
L 272.252813 138.443496 
" clip-path="url(#p9492e7dd2b)" style="fill: none; stroke: #000000; stroke-width: 0.4; stroke-linecap: square"/>
   </g>
   <g id="line2d_28">
    <path d="M 160.460355 256.40375 
L 160.460355 20.14375 
" clip-path="url(#p9492e7dd2b)" style="fill: none; stroke: #000000; stroke-width: 0.4; stroke-linecap: square"/>
   </g>
   <g id="patch_3">
    <path d="M 49.432813 256.40375 
L 49.432813 20.14375 
" style="fill: none; stroke: #000000; stroke-width: 0.8; stroke-linejoin: miter; stroke-linecap: square"/>
   </g>
   <g id="patch_4">
    <path d="M 272.252813 256.40375 
L 272.252813 20.14375 
" style="fill: none; stroke: #000000; stroke-width: 0.8; stroke-linejoin: miter; stroke-linecap: square"/>
   </g>
   <g id="patch_5">
    <path d="M 49.432812 256.40375 
L 272.252813 256.40375 
" style="fill: none; stroke: #000000; stroke-width: 0.8; stroke-linejoin: miter; stroke-linecap: square"/>
   </g>
   <g id="patch_6">
    <path d="M 49.432812 20.14375 
L 272.252813 20.14375 
" style="fill: none; stroke: #000000; stroke-width: 0.8; stroke-linejoin: miter; stroke-linecap: square"/>
   </g>
   <g id="text_15">
    <!-- Specimen : Oesterle_R2 -->
    <g transform="translate(112.242813 14.14375) scale(0.1 -0.1)">
     <defs>
      <path id="TimesNewRomanPSMT-3a" d="M 903 2950 
Q 1047 2950 1148 2848 
Q 1250 2747 1250 2603 
Q 1250 2459 1148 2357 
Q 1047 2256 903 2256 
Q 759 2256 657 2357 
Q 556 2459 556 2603 
Q 556 2747 657 2848 
Q 759 2950 903 2950 
z
M 897 609 
Q 1044 609 1145 506 
Q 1247 403 1247 259 
Q 1247 116 1144 14 
Q 1041 -88 897 -88 
Q 753 -88 651 14 
Q 550 116 550 259 
Q 550 403 651 506 
Q 753 609 897 609 
z
" transform="scale(0.015625)"/>
      <path id="TimesNewRomanPSMT-4f" d="M 2341 4334 
Q 3166 4334 3770 3707 
Q 4375 3081 4375 2144 
Q 4375 1178 3765 540 
Q 3156 -97 2291 -97 
Q 1416 -97 820 525 
Q 225 1147 225 2134 
Q 225 3144 913 3781 
Q 1509 4334 2341 4334 
z
M 2281 4106 
Q 1713 4106 1369 3684 
Q 941 3159 941 2147 
Q 941 1109 1384 550 
Q 1725 125 2284 125 
Q 2881 125 3270 590 
Q 3659 1056 3659 2059 
Q 3659 3147 3231 3681 
Q 2888 4106 2281 4106 
z
" transform="scale(0.015625)"/>
      <path id="TimesNewRomanPSMT-5f" d="M 3256 -1381 
L -53 -1381 
L -53 -1119 
L 3256 -1119 
L 3256 -1381 
z
" transform="scale(0.015625)"/>
      <path id="TimesNewRomanPSMT-52" d="M 4325 0 
L 3194 0 
L 1759 1981 
Q 1600 1975 1500 1975 
Q 1459 1975 1412 1976 
Q 1366 1978 1316 1981 
L 1316 750 
Q 1316 350 1403 253 
Q 1522 116 1759 116 
L 1925 116 
L 1925 0 
L 109 0 
L 109 116 
L 269 116 
Q 538 116 653 291 
Q 719 388 719 750 
L 719 3488 
Q 719 3888 631 3984 
Q 509 4122 269 4122 
L 109 4122 
L 109 4238 
L 1653 4238 
Q 2328 4238 2648 4139 
Q 2969 4041 3192 3777 
Q 3416 3513 3416 3147 
Q 3416 2756 3161 2468 
Q 2906 2181 2372 2063 
L 3247 847 
Q 3547 428 3762 290 
Q 3978 153 4325 116 
L 4325 0 
z
M 1316 2178 
Q 1375 2178 1419 2176 
Q 1463 2175 1491 2175 
Q 2097 2175 2405 2437 
Q 2713 2700 2713 3106 
Q 2713 3503 2464 3751 
Q 2216 4000 1806 4000 
Q 1625 4000 1316 3941 
L 1316 2178 
z
" transform="scale(0.015625)"/>
      <path id="TimesNewRomanPSMT-32" d="M 2934 816 
L 2638 0 
L 138 0 
L 138 116 
Q 1241 1122 1691 1759 
Q 2141 2397 2141 2925 
Q 2141 3328 1894 3587 
Q 1647 3847 1303 3847 
Q 991 3847 742 3664 
Q 494 3481 375 3128 
L 259 3128 
Q 338 3706 661 4015 
Q 984 4325 1469 4325 
Q 1984 4325 2329 3994 
Q 2675 3663 2675 3213 
Q 2675 2891 2525 2569 
Q 2294 2063 1775 1497 
Q 997 647 803 472 
L 1909 472 
Q 2247 472 2383 497 
Q 2519 522 2628 598 
Q 2738 675 2819 816 
L 2934 816 
z
" transform="scale(0.015625)"/>
     </defs>
     <use xlink:href="#TimesNewRomanPSMT-53"/>
     <use xlink:href="#TimesNewRomanPSMT-70" x="55.615234"/>
     <use xlink:href="#TimesNewRomanPSMT-65" x="105.615234"/>
     <use xlink:href="#TimesNewRomanPSMT-63" x="150"/>
     <use xlink:href="#TimesNewRomanPSMT-69" x="194.384766"/>
     <use xlink:href="#TimesNewRomanPSMT-6d" x="222.167969"/>
     <use xlink:href="#TimesNewRomanPSMT-65" x="299.951172"/>
     <use xlink:href="#TimesNewRomanPSMT-6e" x="344.335938"/>
     <use xlink:href="#TimesNewRomanPSMT-20" x="394.335938"/>
     <use xlink:href="#TimesNewRomanPSMT-3a" x="419.335938"/>
     <use xlink:href="#TimesNewRomanPSMT-20" x="447.119141"/>
     <use xlink:href="#TimesNewRomanPSMT-4f" x="472.119141"/>
     <use xlink:href="#TimesNewRomanPSMT-65" x="544.335938"/>
     <use xlink:href="#TimesNewRomanPSMT-73" x="588.720703"/>
     <use xlink:href="#TimesNewRomanPSMT-74" x="627.636719"/>
     <use xlink:href="#TimesNewRomanPSMT-65" x="655.419922"/>
     <use xlink:href="#TimesNewRomanPSMT-72" x="699.804688"/>
     <use xlink:href="#TimesNewRomanPSMT-6c" x="733.105469"/>
     <use xlink:href="#TimesNewRomanPSMT-65" x="760.888672"/>
     <use xlink:href="#TimesNewRomanPSMT-5f" x="805.273438"/>
     <use xlink:href="#TimesNewRomanPSMT-52" x="855.273438"/>
     <use xlink:href="#TimesNewRomanPSMT-32" x="921.972656"/>
    </g>
   </g>
   <g id="legend_1">
    <g id="patch_7">
     <path d="M 55.263813 50.363428 
L 142.486722 50.363428 
Q 144.152722 50.363428 144.152722 48.697428 
L 144.152722 25.97475 
Q 144.152722 24.30875 142.486722 24.30875 
L 55.263813 24.30875 
Q 53.597813 24.30875 53.597813 25.97475 
L 53.597813 48.697428 
Q 53.597813 50.363428 55.263813 50.363428 
z
" style="fill: #ffffff; opacity: 0.8; stroke: #cccccc; stroke-linejoin: miter"/>
    </g>
    <g id="line2d_29">
     <path d="M 56.929813 30.55625 
L 65.259813 30.55625 
L 73.589813 30.55625 
" style="fill: none; stroke-dasharray: 3.7,1.6; stroke-dashoffset: 0; stroke: #000000"/>
    </g>
    <g id="text_16">
     <!-- Experimental Test -->
     <g transform="translate(80.253813 33.47175) scale(0.0833 -0.0833)">
      <defs>
       <path id="TimesNewRomanPSMT-45" d="M 1338 4006 
L 1338 2331 
L 2269 2331 
Q 2631 2331 2753 2441 
Q 2916 2584 2934 2947 
L 3050 2947 
L 3050 1472 
L 2934 1472 
Q 2891 1781 2847 1869 
Q 2791 1978 2662 2040 
Q 2534 2103 2269 2103 
L 1338 2103 
L 1338 706 
Q 1338 425 1363 364 
Q 1388 303 1450 267 
Q 1513 231 1688 231 
L 2406 231 
Q 2766 231 2928 281 
Q 3091 331 3241 478 
Q 3434 672 3638 1063 
L 3763 1063 
L 3397 0 
L 131 0 
L 131 116 
L 281 116 
Q 431 116 566 188 
Q 666 238 702 338 
Q 738 438 738 747 
L 738 3500 
Q 738 3903 656 3997 
Q 544 4122 281 4122 
L 131 4122 
L 131 4238 
L 3397 4238 
L 3444 3309 
L 3322 3309 
Q 3256 3644 3176 3769 
Q 3097 3894 2941 3959 
Q 2816 4006 2500 4006 
L 1338 4006 
z
" transform="scale(0.015625)"/>
       <path id="TimesNewRomanPSMT-78" d="M 84 2863 
L 1431 2863 
L 1431 2747 
Q 1303 2747 1251 2703 
Q 1200 2659 1200 2588 
Q 1200 2513 1309 2356 
Q 1344 2306 1413 2200 
L 1616 1875 
L 1850 2200 
Q 2075 2509 2075 2591 
Q 2075 2656 2022 2701 
Q 1969 2747 1850 2747 
L 1850 2863 
L 2819 2863 
L 2819 2747 
Q 2666 2738 2553 2663 
Q 2400 2556 2134 2200 
L 1744 1678 
L 2456 653 
Q 2719 275 2831 198 
Q 2944 122 3122 113 
L 3122 0 
L 1772 0 
L 1772 113 
Q 1913 113 1991 175 
Q 2050 219 2050 291 
Q 2050 363 1850 653 
L 1431 1266 
L 972 653 
Q 759 369 759 316 
Q 759 241 829 180 
Q 900 119 1041 113 
L 1041 0 
L 106 0 
L 106 113 
Q 219 128 303 191 
Q 422 281 703 653 
L 1303 1450 
L 759 2238 
Q 528 2575 401 2661 
Q 275 2747 84 2747 
L 84 2863 
z
" transform="scale(0.015625)"/>
       <path id="TimesNewRomanPSMT-54" d="M 3703 4238 
L 3750 3244 
L 3631 3244 
Q 3597 3506 3538 3619 
Q 3441 3800 3280 3886 
Q 3119 3972 2856 3972 
L 2259 3972 
L 2259 734 
Q 2259 344 2344 247 
Q 2463 116 2709 116 
L 2856 116 
L 2856 0 
L 1059 0 
L 1059 116 
L 1209 116 
Q 1478 116 1591 278 
Q 1659 378 1659 734 
L 1659 3972 
L 1150 3972 
Q 853 3972 728 3928 
Q 566 3869 450 3700 
Q 334 3531 313 3244 
L 194 3244 
L 244 4238 
L 3703 4238 
z
" transform="scale(0.015625)"/>
      </defs>
      <use xlink:href="#TimesNewRomanPSMT-45"/>
      <use xlink:href="#TimesNewRomanPSMT-78" x="61.083984"/>
      <use xlink:href="#TimesNewRomanPSMT-70" x="111.083984"/>
      <use xlink:href="#TimesNewRomanPSMT-65" x="161.083984"/>
      <use xlink:href="#TimesNewRomanPSMT-72" x="205.46875"/>
      <use xlink:href="#TimesNewRomanPSMT-69" x="238.769531"/>
      <use xlink:href="#TimesNewRomanPSMT-6d" x="266.552734"/>
      <use xlink:href="#TimesNewRomanPSMT-65" x="344.335938"/>
      <use xlink:href="#TimesNewRomanPSMT-6e" x="388.720703"/>
      <use xlink:href="#TimesNewRomanPSMT-74" x="438.720703"/>
      <use xlink:href="#TimesNewRomanPSMT-61" x="466.503906"/>
      <use xlink:href="#TimesNewRomanPSMT-6c" x="510.888672"/>
      <use xlink:href="#TimesNewRomanPSMT-20" x="538.671875"/>
      <use xlink:href="#TimesNewRomanPSMT-54" x="561.921875"/>
      <use xlink:href="#TimesNewRomanPSMT-65" x="616.005859"/>
      <use xlink:href="#TimesNewRomanPSMT-73" x="660.390625"/>
      <use xlink:href="#TimesNewRomanPSMT-74" x="699.306641"/>
     </g>
    </g>
    <g id="line2d_30">
     <path d="M 56.929813 42.334089 
L 65.259813 42.334089 
L 73.589813 42.334089 
" style="fill: none; stroke: #0000ff; stroke-width: 1.2; stroke-linecap: square"/>
    </g>
    <g id="text_17">
     <!-- Numerical Test -->
     <g transform="translate(80.253813 45.249589) scale(0.0833 -0.0833)">
      <defs>
       <path id="TimesNewRomanPSMT-75" d="M 2709 2863 
L 2709 1128 
Q 2709 631 2732 520 
Q 2756 409 2807 365 
Q 2859 322 2928 322 
Q 3025 322 3147 375 
L 3191 266 
L 2334 -88 
L 2194 -88 
L 2194 519 
Q 1825 119 1631 15 
Q 1438 -88 1222 -88 
Q 981 -88 804 51 
Q 628 191 559 409 
Q 491 628 491 1028 
L 491 2306 
Q 491 2509 447 2587 
Q 403 2666 317 2708 
Q 231 2750 6 2747 
L 6 2863 
L 1009 2863 
L 1009 947 
Q 1009 547 1148 422 
Q 1288 297 1484 297 
Q 1619 297 1789 381 
Q 1959 466 2194 703 
L 2194 2325 
Q 2194 2569 2105 2655 
Q 2016 2741 1734 2747 
L 1734 2863 
L 2709 2863 
z
" transform="scale(0.015625)"/>
      </defs>
      <use xlink:href="#TimesNewRomanPSMT-4e"/>
      <use xlink:href="#TimesNewRomanPSMT-75" x="72.216797"/>
      <use xlink:href="#TimesNewRomanPSMT-6d" x="122.216797"/>
      <use xlink:href="#TimesNewRomanPSMT-65" x="200"/>
      <use xlink:href="#TimesNewRomanPSMT-72" x="244.384766"/>
      <use xlink:href="#TimesNewRomanPSMT-69" x="277.685547"/>
      <use xlink:href="#TimesNewRomanPSMT-63" x="305.46875"/>
      <use xlink:href="#TimesNewRomanPSMT-61" x="349.853516"/>
      <use xlink:href="#TimesNewRomanPSMT-6c" x="394.238281"/>
      <use xlink:href="#TimesNewRomanPSMT-20" x="422.021484"/>
      <use xlink:href="#TimesNewRomanPSMT-54" x="445.271484"/>
      <use xlink:href="#TimesNewRomanPSMT-65" x="499.355469"/>
      <use xlink:href="#TimesNewRomanPSMT-73" x="543.740234"/>
      <use xlink:href="#TimesNewRomanPSMT-74" x="582.65625"/>
     </g>
    </g>
   </g>
  </g>
 </g>
 <defs>
  <clipPath id="p9492e7dd2b">
   <rect x="49.432813" y="20.14375" width="222.82" height="236.26"/>
  </clipPath>
 </defs>
</svg>
