<?xml version="1.0" encoding="utf-8" standalone="no"?>
<!DOCTYPE svg PUBLIC "-//W3C//DTD SVG 1.1//EN"
  "http://www.w3.org/Graphics/SVG/1.1/DTD/svg11.dtd">
<svg xmlns:xlink="http://www.w3.org/1999/xlink" width="279.452812pt" height="292.774063pt" viewBox="0 0 279.452812 292.774063" xmlns="http://www.w3.org/2000/svg" version="1.1">
 <metadata>
  <rdf:RDF xmlns:dc="http://purl.org/dc/elements/1.1/" xmlns:cc="http://creativecommons.org/ns#" xmlns:rdf="http://www.w3.org/1999/02/22-rdf-syntax-ns#">
   <cc:Work>
    <dc:type rdf:resource="http://purl.org/dc/dcmitype/StillImage"/>
    <dc:date>2024-02-02T17:00:31.361784</dc:date>
    <dc:format>image/svg+xml</dc:format>
    <dc:creator>
     <cc:Agent>
      <dc:title>Matplotlib v3.7.1, https://matplotlib.org/</dc:title>
     </cc:Agent>
    </dc:creator>
   </cc:Work>
  </rdf:RDF>
 </metadata>
 <defs>
  <style type="text/css">*{stroke-linejoin: round; stroke-linecap: butt}</style>
 </defs>
 <g id="figure_1">
  <g id="patch_1">
   <path d="M 0 292.774063 
L 279.452812 292.774063 
L 279.452812 0 
L 0 0 
z
" style="fill: #ffffff"/>
  </g>
  <g id="axes_1">
   <g id="patch_2">
    <path d="M 49.432813 256.40375 
L 272.252813 256.40375 
L 272.252813 20.14375 
L 49.432813 20.14375 
z
" style="fill: #ffffff"/>
   </g>
   <g id="matplotlib.axis_1">
    <g id="xtick_1">
     <g id="line2d_1">
      <path d="M 101.763312 256.40375 
L 101.763312 20.14375 
" clip-path="url(#p69d7fc38f2)" style="fill: none; stroke-dasharray: 0.8,1.32; stroke-dashoffset: 0; stroke: #b0b0b0; stroke-width: 0.8"/>
     </g>
     <g id="line2d_2">
      <defs>
       <path id="m7e987e148f" d="M 0 0 
L 0 3.5 
" style="stroke: #000000; stroke-width: 0.8"/>
      </defs>
      <g>
       <use xlink:href="#m7e987e148f" x="101.763312" y="256.40375" style="stroke: #000000; stroke-width: 0.8"/>
      </g>
     </g>
     <g id="text_1">
      <!-- −50 -->
      <g transform="translate(93.457062 270.39125) scale(0.1 -0.1)">
       <defs>
        <path id="Cambria-2212" d="M 397 1613 
L 397 2047 
L 3147 2047 
L 3147 1613 
L 397 1613 
z
" transform="scale(0.015625)"/>
        <path id="Cambria-35" d="M 469 172 
L 469 834 
L 847 834 
Q 941 516 1130 366 
Q 1319 216 1619 216 
Q 2034 216 2246 466 
Q 2459 716 2459 1213 
Q 2459 1544 2346 1761 
Q 2234 1978 2043 2075 
Q 1853 2172 1600 2172 
Q 1388 2172 1234 2145 
Q 1081 2119 906 2063 
L 656 2209 
L 656 4266 
L 2378 4266 
Q 2484 4266 2531 4283 
Q 2578 4300 2606 4336 
Q 2634 4372 2672 4472 
L 2916 4472 
L 2869 3747 
L 1072 3747 
L 1072 2375 
Q 1234 2444 1425 2478 
Q 1616 2513 1806 2513 
Q 2178 2513 2465 2361 
Q 2753 2209 2909 1929 
Q 3066 1650 3066 1281 
Q 3066 863 2891 563 
Q 2716 263 2384 106 
Q 2053 -50 1600 -50 
Q 1059 -50 469 172 
z
" transform="scale(0.015625)"/>
        <path id="Cambria-30" d="M 1738 -50 
Q 1063 -50 733 481 
Q 403 1013 403 2094 
Q 403 2669 504 3087 
Q 606 3506 789 3779 
Q 972 4053 1228 4184 
Q 1484 4316 1788 4316 
Q 2472 4316 2806 3787 
Q 3141 3259 3141 2191 
Q 3141 1084 2783 517 
Q 2425 -50 1738 -50 
z
M 1013 2188 
Q 1013 1169 1202 692 
Q 1391 216 1788 216 
Q 2166 216 2348 664 
Q 2531 1113 2531 2053 
Q 2531 2772 2437 3217 
Q 2344 3663 2176 3856 
Q 2009 4050 1772 4050 
Q 1556 4050 1411 3922 
Q 1266 3794 1177 3553 
Q 1088 3313 1050 2967 
Q 1013 2622 1013 2188 
z
" transform="scale(0.015625)"/>
       </defs>
       <use xlink:href="#Cambria-2212"/>
       <use xlink:href="#Cambria-35" x="55.371094"/>
       <use xlink:href="#Cambria-30" x="110.742188"/>
      </g>
     </g>
    </g>
    <g id="xtick_2">
     <g id="line2d_3">
      <path d="M 160.725212 256.40375 
L 160.725212 20.14375 
" clip-path="url(#p69d7fc38f2)" style="fill: none; stroke-dasharray: 0.8,1.32; stroke-dashoffset: 0; stroke: #b0b0b0; stroke-width: 0.8"/>
     </g>
     <g id="line2d_4">
      <g>
       <use xlink:href="#m7e987e148f" x="160.725212" y="256.40375" style="stroke: #000000; stroke-width: 0.8"/>
      </g>
     </g>
     <g id="text_2">
      <!-- 0 -->
      <g transform="translate(157.956462 270.39125) scale(0.1 -0.1)">
       <use xlink:href="#Cambria-30"/>
      </g>
     </g>
    </g>
    <g id="xtick_3">
     <g id="line2d_5">
      <path d="M 219.687113 256.40375 
L 219.687113 20.14375 
" clip-path="url(#p69d7fc38f2)" style="fill: none; stroke-dasharray: 0.8,1.32; stroke-dashoffset: 0; stroke: #b0b0b0; stroke-width: 0.8"/>
     </g>
     <g id="line2d_6">
      <g>
       <use xlink:href="#m7e987e148f" x="219.687113" y="256.40375" style="stroke: #000000; stroke-width: 0.8"/>
      </g>
     </g>
     <g id="text_3">
      <!-- 50 -->
      <g transform="translate(214.149613 270.39125) scale(0.1 -0.1)">
       <use xlink:href="#Cambria-35"/>
       <use xlink:href="#Cambria-30" x="55.371094"/>
      </g>
     </g>
    </g>
    <g id="text_4">
     <!-- Displacement (mm) -->
     <g transform="translate(120.993594 283.435) scale(0.1 -0.1)">
      <defs>
       <path id="TimesNewRomanPSMT-44" d="M 109 0 
L 109 116 
L 269 116 
Q 538 116 650 288 
Q 719 391 719 750 
L 719 3488 
Q 719 3884 631 3984 
Q 509 4122 269 4122 
L 109 4122 
L 109 4238 
L 1834 4238 
Q 2784 4238 3279 4022 
Q 3775 3806 4076 3303 
Q 4378 2800 4378 2141 
Q 4378 1256 3841 663 
Q 3238 0 2003 0 
L 109 0 
z
M 1319 306 
Q 1716 219 1984 219 
Q 2709 219 3187 728 
Q 3666 1238 3666 2109 
Q 3666 2988 3187 3494 
Q 2709 4000 1959 4000 
Q 1678 4000 1319 3909 
L 1319 306 
z
" transform="scale(0.015625)"/>
       <path id="TimesNewRomanPSMT-69" d="M 928 4444 
Q 1059 4444 1151 4351 
Q 1244 4259 1244 4128 
Q 1244 3997 1151 3903 
Q 1059 3809 928 3809 
Q 797 3809 703 3903 
Q 609 3997 609 4128 
Q 609 4259 701 4351 
Q 794 4444 928 4444 
z
M 1188 2947 
L 1188 647 
Q 1188 378 1227 289 
Q 1266 200 1342 156 
Q 1419 113 1622 113 
L 1622 0 
L 231 0 
L 231 113 
Q 441 113 512 153 
Q 584 194 626 287 
Q 669 381 669 647 
L 669 1750 
Q 669 2216 641 2353 
Q 619 2453 572 2492 
Q 525 2531 444 2531 
Q 356 2531 231 2484 
L 188 2597 
L 1050 2947 
L 1188 2947 
z
" transform="scale(0.015625)"/>
       <path id="TimesNewRomanPSMT-73" d="M 2050 2947 
L 2050 1972 
L 1947 1972 
Q 1828 2431 1642 2597 
Q 1456 2763 1169 2763 
Q 950 2763 815 2647 
Q 681 2531 681 2391 
Q 681 2216 781 2091 
Q 878 1963 1175 1819 
L 1631 1597 
Q 2266 1288 2266 781 
Q 2266 391 1970 151 
Q 1675 -88 1309 -88 
Q 1047 -88 709 6 
Q 606 38 541 38 
Q 469 38 428 -44 
L 325 -44 
L 325 978 
L 428 978 
Q 516 541 762 319 
Q 1009 97 1316 97 
Q 1531 97 1667 223 
Q 1803 350 1803 528 
Q 1803 744 1651 891 
Q 1500 1038 1047 1263 
Q 594 1488 453 1669 
Q 313 1847 313 2119 
Q 313 2472 555 2709 
Q 797 2947 1181 2947 
Q 1350 2947 1591 2875 
Q 1750 2828 1803 2828 
Q 1853 2828 1881 2850 
Q 1909 2872 1947 2947 
L 2050 2947 
z
" transform="scale(0.015625)"/>
       <path id="TimesNewRomanPSMT-70" d="M -6 2578 
L 875 2934 
L 994 2934 
L 994 2266 
Q 1216 2644 1439 2795 
Q 1663 2947 1909 2947 
Q 2341 2947 2628 2609 
Q 2981 2197 2981 1534 
Q 2981 794 2556 309 
Q 2206 -88 1675 -88 
Q 1444 -88 1275 -22 
Q 1150 25 994 166 
L 994 -706 
Q 994 -1000 1030 -1079 
Q 1066 -1159 1155 -1206 
Q 1244 -1253 1478 -1253 
L 1478 -1369 
L -22 -1369 
L -22 -1253 
L 56 -1253 
Q 228 -1256 350 -1188 
Q 409 -1153 442 -1076 
Q 475 -1000 475 -688 
L 475 2019 
Q 475 2297 450 2372 
Q 425 2447 370 2484 
Q 316 2522 222 2522 
Q 147 2522 31 2478 
L -6 2578 
z
M 994 2081 
L 994 1013 
Q 994 666 1022 556 
Q 1066 375 1236 237 
Q 1406 100 1666 100 
Q 1978 100 2172 344 
Q 2425 663 2425 1241 
Q 2425 1897 2138 2250 
Q 1938 2494 1663 2494 
Q 1513 2494 1366 2419 
Q 1253 2363 994 2081 
z
" transform="scale(0.015625)"/>
       <path id="TimesNewRomanPSMT-6c" d="M 1184 4444 
L 1184 647 
Q 1184 378 1223 290 
Q 1263 203 1344 158 
Q 1425 113 1647 113 
L 1647 0 
L 244 0 
L 244 113 
Q 441 113 512 153 
Q 584 194 625 287 
Q 666 381 666 647 
L 666 3247 
Q 666 3731 644 3842 
Q 622 3953 573 3993 
Q 525 4034 450 4034 
Q 369 4034 244 3984 
L 191 4094 
L 1044 4444 
L 1184 4444 
z
" transform="scale(0.015625)"/>
       <path id="TimesNewRomanPSMT-61" d="M 1822 413 
Q 1381 72 1269 19 
Q 1100 -59 909 -59 
Q 613 -59 420 144 
Q 228 347 228 678 
Q 228 888 322 1041 
Q 450 1253 767 1440 
Q 1084 1628 1822 1897 
L 1822 2009 
Q 1822 2438 1686 2597 
Q 1550 2756 1291 2756 
Q 1094 2756 978 2650 
Q 859 2544 859 2406 
L 866 2225 
Q 866 2081 792 2003 
Q 719 1925 600 1925 
Q 484 1925 411 2006 
Q 338 2088 338 2228 
Q 338 2497 613 2722 
Q 888 2947 1384 2947 
Q 1766 2947 2009 2819 
Q 2194 2722 2281 2516 
Q 2338 2381 2338 1966 
L 2338 994 
Q 2338 584 2353 492 
Q 2369 400 2405 369 
Q 2441 338 2488 338 
Q 2538 338 2575 359 
Q 2641 400 2828 588 
L 2828 413 
Q 2478 -56 2159 -56 
Q 2006 -56 1915 50 
Q 1825 156 1822 413 
z
M 1822 616 
L 1822 1706 
Q 1350 1519 1213 1441 
Q 966 1303 859 1153 
Q 753 1003 753 825 
Q 753 600 887 451 
Q 1022 303 1197 303 
Q 1434 303 1822 616 
z
" transform="scale(0.015625)"/>
       <path id="TimesNewRomanPSMT-63" d="M 2631 1088 
Q 2516 522 2178 217 
Q 1841 -88 1431 -88 
Q 944 -88 581 321 
Q 219 731 219 1428 
Q 219 2103 620 2525 
Q 1022 2947 1584 2947 
Q 2006 2947 2278 2723 
Q 2550 2500 2550 2259 
Q 2550 2141 2473 2067 
Q 2397 1994 2259 1994 
Q 2075 1994 1981 2113 
Q 1928 2178 1911 2362 
Q 1894 2547 1784 2644 
Q 1675 2738 1481 2738 
Q 1169 2738 978 2506 
Q 725 2200 725 1697 
Q 725 1184 976 792 
Q 1228 400 1656 400 
Q 1963 400 2206 609 
Q 2378 753 2541 1131 
L 2631 1088 
z
" transform="scale(0.015625)"/>
       <path id="TimesNewRomanPSMT-65" d="M 681 1784 
Q 678 1147 991 784 
Q 1303 422 1725 422 
Q 2006 422 2214 576 
Q 2422 731 2563 1106 
L 2659 1044 
Q 2594 616 2278 264 
Q 1963 -88 1488 -88 
Q 972 -88 605 314 
Q 238 716 238 1394 
Q 238 2128 614 2539 
Q 991 2950 1559 2950 
Q 2041 2950 2350 2633 
Q 2659 2316 2659 1784 
L 681 1784 
z
M 681 1966 
L 2006 1966 
Q 1991 2241 1941 2353 
Q 1863 2528 1708 2628 
Q 1553 2728 1384 2728 
Q 1125 2728 920 2526 
Q 716 2325 681 1966 
z
" transform="scale(0.015625)"/>
       <path id="TimesNewRomanPSMT-6d" d="M 1050 2338 
Q 1363 2650 1419 2697 
Q 1559 2816 1721 2881 
Q 1884 2947 2044 2947 
Q 2313 2947 2506 2790 
Q 2700 2634 2766 2338 
Q 3088 2713 3309 2830 
Q 3531 2947 3766 2947 
Q 3994 2947 4170 2830 
Q 4347 2713 4450 2447 
Q 4519 2266 4519 1878 
L 4519 647 
Q 4519 378 4559 278 
Q 4591 209 4675 161 
Q 4759 113 4950 113 
L 4950 0 
L 3538 0 
L 3538 113 
L 3597 113 
Q 3781 113 3884 184 
Q 3956 234 3988 344 
Q 4000 397 4000 647 
L 4000 1878 
Q 4000 2228 3916 2372 
Q 3794 2572 3525 2572 
Q 3359 2572 3192 2489 
Q 3025 2406 2788 2181 
L 2781 2147 
L 2788 2013 
L 2788 647 
Q 2788 353 2820 281 
Q 2853 209 2943 161 
Q 3034 113 3253 113 
L 3253 0 
L 1806 0 
L 1806 113 
Q 2044 113 2133 169 
Q 2222 225 2256 338 
Q 2272 391 2272 647 
L 2272 1878 
Q 2272 2228 2169 2381 
Q 2031 2581 1784 2581 
Q 1616 2581 1450 2491 
Q 1191 2353 1050 2181 
L 1050 647 
Q 1050 366 1089 281 
Q 1128 197 1204 155 
Q 1281 113 1516 113 
L 1516 0 
L 100 0 
L 100 113 
Q 297 113 375 155 
Q 453 197 493 289 
Q 534 381 534 647 
L 534 1741 
Q 534 2213 506 2350 
Q 484 2453 437 2492 
Q 391 2531 309 2531 
Q 222 2531 100 2484 
L 53 2597 
L 916 2947 
L 1050 2947 
L 1050 2338 
z
" transform="scale(0.015625)"/>
       <path id="TimesNewRomanPSMT-6e" d="M 1034 2341 
Q 1538 2947 1994 2947 
Q 2228 2947 2397 2830 
Q 2566 2713 2666 2444 
Q 2734 2256 2734 1869 
L 2734 647 
Q 2734 375 2778 278 
Q 2813 200 2889 156 
Q 2966 113 3172 113 
L 3172 0 
L 1756 0 
L 1756 113 
L 1816 113 
Q 2016 113 2095 173 
Q 2175 234 2206 353 
Q 2219 400 2219 647 
L 2219 1819 
Q 2219 2209 2117 2386 
Q 2016 2563 1775 2563 
Q 1403 2563 1034 2156 
L 1034 647 
Q 1034 356 1069 288 
Q 1113 197 1189 155 
Q 1266 113 1500 113 
L 1500 0 
L 84 0 
L 84 113 
L 147 113 
Q 366 113 442 223 
Q 519 334 519 647 
L 519 1709 
Q 519 2225 495 2337 
Q 472 2450 423 2490 
Q 375 2531 294 2531 
Q 206 2531 84 2484 
L 38 2597 
L 900 2947 
L 1034 2947 
L 1034 2341 
z
" transform="scale(0.015625)"/>
       <path id="TimesNewRomanPSMT-74" d="M 1031 3803 
L 1031 2863 
L 1700 2863 
L 1700 2644 
L 1031 2644 
L 1031 788 
Q 1031 509 1111 412 
Q 1191 316 1316 316 
Q 1419 316 1516 380 
Q 1613 444 1666 569 
L 1788 569 
Q 1678 263 1478 108 
Q 1278 -47 1066 -47 
Q 922 -47 784 33 
Q 647 113 581 261 
Q 516 409 516 719 
L 516 2644 
L 63 2644 
L 63 2747 
Q 234 2816 414 2980 
Q 594 3144 734 3369 
Q 806 3488 934 3803 
L 1031 3803 
z
" transform="scale(0.015625)"/>
       <path id="TimesNewRomanPSMT-20" transform="scale(0.015625)"/>
       <path id="TimesNewRomanPSMT-28" d="M 1988 -1253 
L 1988 -1369 
Q 1516 -1131 1200 -813 
Q 750 -359 506 256 
Q 263 872 263 1534 
Q 263 2503 741 3301 
Q 1219 4100 1988 4444 
L 1988 4313 
Q 1603 4100 1356 3731 
Q 1109 3363 987 2797 
Q 866 2231 866 1616 
Q 866 947 969 400 
Q 1050 -31 1165 -292 
Q 1281 -553 1476 -793 
Q 1672 -1034 1988 -1253 
z
" transform="scale(0.015625)"/>
       <path id="TimesNewRomanPSMT-29" d="M 144 4313 
L 144 4444 
Q 619 4209 934 3891 
Q 1381 3434 1625 2820 
Q 1869 2206 1869 1541 
Q 1869 572 1392 -226 
Q 916 -1025 144 -1369 
L 144 -1253 
Q 528 -1038 776 -670 
Q 1025 -303 1145 264 
Q 1266 831 1266 1447 
Q 1266 2113 1163 2663 
Q 1084 3094 967 3353 
Q 850 3613 656 3853 
Q 463 4094 144 4313 
z
" transform="scale(0.015625)"/>
      </defs>
      <use xlink:href="#TimesNewRomanPSMT-44"/>
      <use xlink:href="#TimesNewRomanPSMT-69" x="72.216797"/>
      <use xlink:href="#TimesNewRomanPSMT-73" x="100"/>
      <use xlink:href="#TimesNewRomanPSMT-70" x="138.916016"/>
      <use xlink:href="#TimesNewRomanPSMT-6c" x="188.916016"/>
      <use xlink:href="#TimesNewRomanPSMT-61" x="216.699219"/>
      <use xlink:href="#TimesNewRomanPSMT-63" x="261.083984"/>
      <use xlink:href="#TimesNewRomanPSMT-65" x="305.46875"/>
      <use xlink:href="#TimesNewRomanPSMT-6d" x="349.853516"/>
      <use xlink:href="#TimesNewRomanPSMT-65" x="427.636719"/>
      <use xlink:href="#TimesNewRomanPSMT-6e" x="472.021484"/>
      <use xlink:href="#TimesNewRomanPSMT-74" x="522.021484"/>
      <use xlink:href="#TimesNewRomanPSMT-20" x="549.804688"/>
      <use xlink:href="#TimesNewRomanPSMT-28" x="574.804688"/>
      <use xlink:href="#TimesNewRomanPSMT-6d" x="608.105469"/>
      <use xlink:href="#TimesNewRomanPSMT-6d" x="685.888672"/>
      <use xlink:href="#TimesNewRomanPSMT-29" x="763.671875"/>
     </g>
    </g>
   </g>
   <g id="matplotlib.axis_2">
    <g id="ytick_1">
     <g id="line2d_7">
      <path d="M 49.432813 239.448706 
L 272.252813 239.448706 
" clip-path="url(#p69d7fc38f2)" style="fill: none; stroke-dasharray: 0.8,1.32; stroke-dashoffset: 0; stroke: #b0b0b0; stroke-width: 0.8"/>
     </g>
     <g id="line2d_8">
      <defs>
       <path id="mfd92a4b7be" d="M 0 0 
L -3.5 0 
" style="stroke: #000000; stroke-width: 0.8"/>
      </defs>
      <g>
       <use xlink:href="#mfd92a4b7be" x="49.432813" y="239.448706" style="stroke: #000000; stroke-width: 0.8"/>
      </g>
     </g>
     <g id="text_5">
      <!-- −150 -->
      <g transform="translate(20.282813 242.942456) scale(0.1 -0.1)">
       <defs>
        <path id="Cambria-31" d="M 2172 816 
Q 2172 634 2192 542 
Q 2213 450 2264 392 
Q 2316 334 2412 301 
Q 2509 269 2656 251 
Q 2803 234 3044 228 
L 3044 0 
L 734 0 
L 734 228 
Q 1081 244 1229 270 
Q 1378 297 1456 350 
Q 1534 403 1570 500 
Q 1606 597 1606 816 
L 1606 3350 
Q 1606 3475 1562 3533 
Q 1519 3591 1434 3591 
Q 1334 3591 1150 3487 
Q 966 3384 694 3203 
L 556 3444 
L 2019 4316 
L 2191 4316 
Q 2172 4016 2172 3484 
L 2172 816 
z
" transform="scale(0.015625)"/>
       </defs>
       <use xlink:href="#Cambria-2212"/>
       <use xlink:href="#Cambria-31" x="55.371094"/>
       <use xlink:href="#Cambria-35" x="110.742188"/>
       <use xlink:href="#Cambria-30" x="166.113281"/>
      </g>
     </g>
    </g>
    <g id="ytick_2">
     <g id="line2d_9">
      <path d="M 49.432813 205.846733 
L 272.252813 205.846733 
" clip-path="url(#p69d7fc38f2)" style="fill: none; stroke-dasharray: 0.8,1.32; stroke-dashoffset: 0; stroke: #b0b0b0; stroke-width: 0.8"/>
     </g>
     <g id="line2d_10">
      <g>
       <use xlink:href="#mfd92a4b7be" x="49.432813" y="205.846733" style="stroke: #000000; stroke-width: 0.8"/>
      </g>
     </g>
     <g id="text_6">
      <!-- −100 -->
      <g transform="translate(20.282813 209.340483) scale(0.1 -0.1)">
       <use xlink:href="#Cambria-2212"/>
       <use xlink:href="#Cambria-31" x="55.371094"/>
       <use xlink:href="#Cambria-30" x="110.742188"/>
       <use xlink:href="#Cambria-30" x="166.113281"/>
      </g>
     </g>
    </g>
    <g id="ytick_3">
     <g id="line2d_11">
      <path d="M 49.432813 172.244759 
L 272.252813 172.244759 
" clip-path="url(#p69d7fc38f2)" style="fill: none; stroke-dasharray: 0.8,1.32; stroke-dashoffset: 0; stroke: #b0b0b0; stroke-width: 0.8"/>
     </g>
     <g id="line2d_12">
      <g>
       <use xlink:href="#mfd92a4b7be" x="49.432813" y="172.244759" style="stroke: #000000; stroke-width: 0.8"/>
      </g>
     </g>
     <g id="text_7">
      <!-- −50 -->
      <g transform="translate(25.820313 175.738509) scale(0.1 -0.1)">
       <use xlink:href="#Cambria-2212"/>
       <use xlink:href="#Cambria-35" x="55.371094"/>
       <use xlink:href="#Cambria-30" x="110.742188"/>
      </g>
     </g>
    </g>
    <g id="ytick_4">
     <g id="line2d_13">
      <path d="M 49.432813 138.642786 
L 272.252813 138.642786 
" clip-path="url(#p69d7fc38f2)" style="fill: none; stroke-dasharray: 0.8,1.32; stroke-dashoffset: 0; stroke: #b0b0b0; stroke-width: 0.8"/>
     </g>
     <g id="line2d_14">
      <g>
       <use xlink:href="#mfd92a4b7be" x="49.432813" y="138.642786" style="stroke: #000000; stroke-width: 0.8"/>
      </g>
     </g>
     <g id="text_8">
      <!-- 0 -->
      <g transform="translate(36.895313 142.136536) scale(0.1 -0.1)">
       <use xlink:href="#Cambria-30"/>
      </g>
     </g>
    </g>
    <g id="ytick_5">
     <g id="line2d_15">
      <path d="M 49.432813 105.040812 
L 272.252813 105.040812 
" clip-path="url(#p69d7fc38f2)" style="fill: none; stroke-dasharray: 0.8,1.32; stroke-dashoffset: 0; stroke: #b0b0b0; stroke-width: 0.8"/>
     </g>
     <g id="line2d_16">
      <g>
       <use xlink:href="#mfd92a4b7be" x="49.432813" y="105.040812" style="stroke: #000000; stroke-width: 0.8"/>
      </g>
     </g>
     <g id="text_9">
      <!-- 50 -->
      <g transform="translate(31.357813 108.534562) scale(0.1 -0.1)">
       <use xlink:href="#Cambria-35"/>
       <use xlink:href="#Cambria-30" x="55.371094"/>
      </g>
     </g>
    </g>
    <g id="ytick_6">
     <g id="line2d_17">
      <path d="M 49.432813 71.438838 
L 272.252813 71.438838 
" clip-path="url(#p69d7fc38f2)" style="fill: none; stroke-dasharray: 0.8,1.32; stroke-dashoffset: 0; stroke: #b0b0b0; stroke-width: 0.8"/>
     </g>
     <g id="line2d_18">
      <g>
       <use xlink:href="#mfd92a4b7be" x="49.432813" y="71.438838" style="stroke: #000000; stroke-width: 0.8"/>
      </g>
     </g>
     <g id="text_10">
      <!-- 100 -->
      <g transform="translate(25.820313 74.932588) scale(0.1 -0.1)">
       <use xlink:href="#Cambria-31"/>
       <use xlink:href="#Cambria-30" x="55.371094"/>
       <use xlink:href="#Cambria-30" x="110.742188"/>
      </g>
     </g>
    </g>
    <g id="ytick_7">
     <g id="line2d_19">
      <path d="M 49.432813 37.836865 
L 272.252813 37.836865 
" clip-path="url(#p69d7fc38f2)" style="fill: none; stroke-dasharray: 0.8,1.32; stroke-dashoffset: 0; stroke: #b0b0b0; stroke-width: 0.8"/>
     </g>
     <g id="line2d_20">
      <g>
       <use xlink:href="#mfd92a4b7be" x="49.432813" y="37.836865" style="stroke: #000000; stroke-width: 0.8"/>
      </g>
     </g>
     <g id="text_11">
      <!-- 150 -->
      <g transform="translate(25.820313 41.330615) scale(0.1 -0.1)">
       <use xlink:href="#Cambria-31"/>
       <use xlink:href="#Cambria-35" x="55.371094"/>
       <use xlink:href="#Cambria-30" x="110.742188"/>
      </g>
     </g>
    </g>
    <g id="text_12">
     <!-- Base Shear (kN) -->
     <g transform="translate(14.14375 171.319063) rotate(-90) scale(0.1 -0.1)">
      <defs>
       <path id="TimesNewRomanPSMT-42" d="M 2956 2163 
Q 3397 2069 3616 1863 
Q 3919 1575 3919 1159 
Q 3919 844 3719 555 
Q 3519 266 3170 133 
Q 2822 0 2106 0 
L 106 0 
L 106 116 
L 266 116 
Q 531 116 647 284 
Q 719 394 719 750 
L 719 3488 
Q 719 3881 628 3984 
Q 506 4122 266 4122 
L 106 4122 
L 106 4238 
L 1938 4238 
Q 2450 4238 2759 4163 
Q 3228 4050 3475 3764 
Q 3722 3478 3722 3106 
Q 3722 2788 3528 2536 
Q 3334 2284 2956 2163 
z
M 1319 2331 
Q 1434 2309 1582 2298 
Q 1731 2288 1909 2288 
Q 2366 2288 2595 2386 
Q 2825 2484 2947 2687 
Q 3069 2891 3069 3131 
Q 3069 3503 2766 3765 
Q 2463 4028 1881 4028 
Q 1569 4028 1319 3959 
L 1319 2331 
z
M 1319 306 
Q 1681 222 2034 222 
Q 2600 222 2897 476 
Q 3194 731 3194 1106 
Q 3194 1353 3059 1581 
Q 2925 1809 2622 1940 
Q 2319 2072 1872 2072 
Q 1678 2072 1540 2065 
Q 1403 2059 1319 2044 
L 1319 306 
z
" transform="scale(0.015625)"/>
       <path id="TimesNewRomanPSMT-53" d="M 2934 4334 
L 2934 2869 
L 2819 2869 
Q 2763 3291 2617 3541 
Q 2472 3791 2203 3937 
Q 1934 4084 1647 4084 
Q 1322 4084 1109 3886 
Q 897 3688 897 3434 
Q 897 3241 1031 3081 
Q 1225 2847 1953 2456 
Q 2547 2138 2764 1967 
Q 2981 1797 3098 1565 
Q 3216 1334 3216 1081 
Q 3216 600 2842 251 
Q 2469 -97 1881 -97 
Q 1697 -97 1534 -69 
Q 1438 -53 1133 45 
Q 828 144 747 144 
Q 669 144 623 97 
Q 578 50 556 -97 
L 441 -97 
L 441 1356 
L 556 1356 
Q 638 900 775 673 
Q 913 447 1195 297 
Q 1478 147 1816 147 
Q 2206 147 2432 353 
Q 2659 559 2659 841 
Q 2659 997 2573 1156 
Q 2488 1316 2306 1453 
Q 2184 1547 1640 1851 
Q 1097 2156 867 2337 
Q 638 2519 519 2737 
Q 400 2956 400 3219 
Q 400 3675 750 4004 
Q 1100 4334 1641 4334 
Q 1978 4334 2356 4169 
Q 2531 4091 2603 4091 
Q 2684 4091 2736 4139 
Q 2788 4188 2819 4334 
L 2934 4334 
z
" transform="scale(0.015625)"/>
       <path id="TimesNewRomanPSMT-68" d="M 1041 4444 
L 1041 2350 
Q 1388 2731 1591 2839 
Q 1794 2947 1997 2947 
Q 2241 2947 2416 2812 
Q 2591 2678 2675 2391 
Q 2734 2191 2734 1659 
L 2734 647 
Q 2734 375 2778 275 
Q 2809 200 2884 156 
Q 2959 113 3159 113 
L 3159 0 
L 1753 0 
L 1753 113 
L 1819 113 
Q 2019 113 2097 173 
Q 2175 234 2206 353 
Q 2216 403 2216 647 
L 2216 1659 
Q 2216 2128 2167 2275 
Q 2119 2422 2012 2495 
Q 1906 2569 1756 2569 
Q 1603 2569 1437 2487 
Q 1272 2406 1041 2159 
L 1041 647 
Q 1041 353 1073 281 
Q 1106 209 1195 161 
Q 1284 113 1503 113 
L 1503 0 
L 84 0 
L 84 113 
Q 275 113 384 172 
Q 447 203 484 290 
Q 522 378 522 647 
L 522 3238 
Q 522 3728 498 3840 
Q 475 3953 426 3993 
Q 378 4034 297 4034 
Q 231 4034 84 3984 
L 41 4094 
L 897 4444 
L 1041 4444 
z
" transform="scale(0.015625)"/>
       <path id="TimesNewRomanPSMT-72" d="M 1038 2947 
L 1038 2303 
Q 1397 2947 1775 2947 
Q 1947 2947 2059 2842 
Q 2172 2738 2172 2600 
Q 2172 2478 2090 2393 
Q 2009 2309 1897 2309 
Q 1788 2309 1652 2417 
Q 1516 2525 1450 2525 
Q 1394 2525 1328 2463 
Q 1188 2334 1038 2041 
L 1038 669 
Q 1038 431 1097 309 
Q 1138 225 1241 169 
Q 1344 113 1538 113 
L 1538 0 
L 72 0 
L 72 113 
Q 291 113 397 181 
Q 475 231 506 341 
Q 522 394 522 644 
L 522 1753 
Q 522 2253 501 2348 
Q 481 2444 426 2487 
Q 372 2531 291 2531 
Q 194 2531 72 2484 
L 41 2597 
L 906 2947 
L 1038 2947 
z
" transform="scale(0.015625)"/>
       <path id="TimesNewRomanPSMT-6b" d="M 1047 4444 
L 1047 1597 
L 1775 2259 
Q 2006 2472 2044 2528 
Q 2069 2566 2069 2603 
Q 2069 2666 2017 2711 
Q 1966 2756 1847 2763 
L 1847 2863 
L 3091 2863 
L 3091 2763 
Q 2834 2756 2664 2684 
Q 2494 2613 2291 2428 
L 1556 1750 
L 2291 822 
Q 2597 438 2703 334 
Q 2853 188 2966 144 
Q 3044 113 3238 113 
L 3238 0 
L 1847 0 
L 1847 113 
Q 1966 116 2008 148 
Q 2050 181 2050 241 
Q 2050 313 1925 472 
L 1047 1594 
L 1047 644 
Q 1047 366 1086 278 
Q 1125 191 1197 153 
Q 1269 116 1509 113 
L 1509 0 
L 53 0 
L 53 113 
Q 272 113 381 166 
Q 447 200 481 272 
Q 528 375 528 628 
L 528 3234 
Q 528 3731 506 3842 
Q 484 3953 434 3995 
Q 384 4038 303 4038 
Q 238 4038 106 3984 
L 53 4094 
L 903 4444 
L 1047 4444 
z
" transform="scale(0.015625)"/>
       <path id="TimesNewRomanPSMT-4e" d="M -84 4238 
L 1066 4238 
L 3656 1059 
L 3656 3503 
Q 3656 3894 3569 3991 
Q 3453 4122 3203 4122 
L 3056 4122 
L 3056 4238 
L 4531 4238 
L 4531 4122 
L 4381 4122 
Q 4113 4122 4000 3959 
Q 3931 3859 3931 3503 
L 3931 -69 
L 3819 -69 
L 1025 3344 
L 1025 734 
Q 1025 344 1109 247 
Q 1228 116 1475 116 
L 1625 116 
L 1625 0 
L 150 0 
L 150 116 
L 297 116 
Q 569 116 681 278 
Q 750 378 750 734 
L 750 3681 
Q 566 3897 470 3965 
Q 375 4034 191 4094 
Q 100 4122 -84 4122 
L -84 4238 
z
" transform="scale(0.015625)"/>
      </defs>
      <use xlink:href="#TimesNewRomanPSMT-42"/>
      <use xlink:href="#TimesNewRomanPSMT-61" x="66.699219"/>
      <use xlink:href="#TimesNewRomanPSMT-73" x="111.083984"/>
      <use xlink:href="#TimesNewRomanPSMT-65" x="150"/>
      <use xlink:href="#TimesNewRomanPSMT-20" x="194.384766"/>
      <use xlink:href="#TimesNewRomanPSMT-53" x="219.384766"/>
      <use xlink:href="#TimesNewRomanPSMT-68" x="275"/>
      <use xlink:href="#TimesNewRomanPSMT-65" x="325"/>
      <use xlink:href="#TimesNewRomanPSMT-61" x="369.384766"/>
      <use xlink:href="#TimesNewRomanPSMT-72" x="413.769531"/>
      <use xlink:href="#TimesNewRomanPSMT-20" x="447.070312"/>
      <use xlink:href="#TimesNewRomanPSMT-28" x="472.070312"/>
      <use xlink:href="#TimesNewRomanPSMT-6b" x="505.371094"/>
      <use xlink:href="#TimesNewRomanPSMT-4e" x="555.371094"/>
      <use xlink:href="#TimesNewRomanPSMT-29" x="627.587891"/>
     </g>
    </g>
   </g>
   <g id="line2d_21">
    <path d="M 159.993169 139.380857 
L 161.945183 124.619224 
L 162.92134 112.809906 
L 163.897497 102.47676 
L 166.337439 94.357888 
L 166.825667 91.405543 
L 168.289753 101.738689 
L 168.777681 112.071835 
L 163.409269 131.261954 
L 159.993169 139.380857 
L 158.041155 155.618662 
L 153.6489 184.403855 
L 154.136828 168.166051 
L 156.57707 154.142489 
L 159.017013 143.071272 
L 160.969326 130.523883 
L 163.897497 105.429105 
L 167.313596 95.83403 
L 167.801525 104.691034 
L 167.313596 117.976494 
L 163.897497 129.785812 
L 160.969326 140.857029 
L 158.529084 156.356763 
L 157.552927 170.380294 
L 154.624757 177.761125 
L 154.136828 181.451541 
L 153.160671 171.856466 
L 156.57707 157.832905 
L 159.505241 139.380857 
L 162.92134 118.714565 
L 165.361582 104.691034 
L 168.289753 90.667472 
L 171.217923 81.072398 
L 173.657866 74.429667 
L 176.586036 67.786937 
L 175.121951 79.596225 
L 173.169937 92.881716 
L 170.241767 101.738689 
L 165.849511 109.11952 
L 163.897497 118.714565 
L 160.481098 134.214299 
L 158.041155 149.714003 
L 156.57707 167.42798 
L 153.6489 182.189612 
L 151.208658 191.046586 
L 149.744572 197.689346 
L 146.816402 204.332076 
L 145.352316 210.236735 
L 142.424146 213.189049 
L 143.400302 205.070147 
L 145.352316 192.522758 
L 150.720729 168.904152 
L 153.160671 154.88059 
L 162.92134 119.452666 
L 168.777681 96.572131 
L 173.169937 84.762813 
L 176.586036 74.429667 
L 175.121951 86.238985 
L 171.217923 98.786375 
L 168.289753 109.11952 
L 166.337439 124.619224 
L 159.993169 148.975931 
L 155.112985 170.380294 
L 150.232501 181.451541 
L 146.816402 191.046586 
L 145.352316 200.64166 
L 142.912374 208.022491 
L 146.328473 191.784687 
L 148.280487 179.975369 
L 150.232501 168.904152 
L 152.672743 158.571006 
L 157.064999 144.547445 
L 160.969326 131.261954 
L 164.873354 106.167176 
L 171.705852 88.453229 
L 176.098108 74.429667 
L 180.002136 64.834593 
L 183.906463 56.71569 
L 187.322562 52.287204 
L 185.858477 62.620349 
L 184.88262 75.167739 
L 181.954449 85.500884 
L 177.073965 93.619787 
L 173.169937 107.643348 
L 169.26561 119.452666 
L 165.361582 133.476198 
L 159.505241 146.761688 
L 156.088842 166.689908 
L 151.696586 177.761125 
L 147.792558 188.094271 
L 144.864388 203.594005 
L 141.448288 212.450978 
L 138.520118 219.093708 
L 135.591947 224.260296 
L 131.68762 227.950682 
L 133.639634 217.617536 
L 137.543961 202.117833 
L 141.448288 187.3562 
L 145.840245 174.07071 
L 150.720729 158.571006 
L 155.112985 143.809373 
L 160.969326 126.095396 
L 166.337439 106.167176 
L 171.705852 95.095959 
L 178.050122 78.858154 
L 181.954449 71.477323 
L 184.394392 64.096522 
L 188.298719 55.977619 
L 184.88262 70.739252 
L 183.906463 80.334326 
L 178.53805 90.667472 
L 174.146094 102.47676 
L 169.753838 119.452666 
L 159.017013 145.285516 
L 157.064999 160.047148 
L 151.208658 179.237298 
L 144.376459 193.99893 
L 141.448288 205.808248 
L 138.03189 210.974806 
L 135.591947 219.83178 
L 134.127862 222.784124 
L 140.96006 191.046586 
L 146.328473 175.546882 
L 150.232501 162.261392 
L 154.624757 144.547445 
L 161.457255 120.190737 
L 170.729695 99.524446 
L 180.002136 75.167739 
L 184.88262 59.668035 
L 189.274876 52.287204 
L 193.178903 48.596788 
L 195.131217 46.382545 
L 198.547316 47.120646 
L 197.083231 55.239548 
L 194.15506 67.048836 
L 189.274876 80.334326 
L 186.834634 87.715128 
L 182.930306 97.310202 
L 179.514207 106.905277 
L 173.169937 120.928809 
L 169.26561 133.476198 
L 165.849511 146.023617 
L 163.897497 150.452104 
L 161.457255 154.142489 
L 156.088842 168.166051 
L 146.816402 187.3562 
L 145.352316 198.427417 
L 139.984203 213.927121 
L 134.615791 224.260296 
L 132.175548 226.47454 
L 127.783293 230.164925 
L 124.367193 230.903026 
L 121.439023 230.903026 
L 123.879265 221.307952 
L 126.807435 208.022491 
L 131.68762 193.99893 
L 135.591947 181.451541 
L 139.984203 170.380294 
L 144.864388 158.571006 
L 149.256644 146.761688 
L 152.672743 134.95237 
L 157.552927 127.571569 
L 162.433411 116.500322 
L 170.241767 103.214861 
L 175.610179 90.667472 
L 181.954449 79.596225 
L 187.322562 67.048836 
L 191.226889 58.929934 
L 195.131217 53.025275 
L 197.083231 49.334889 
L 198.059387 64.096522 
L 195.619145 76.643911 
L 192.690975 84.762813 
L 188.786647 93.619787 
L 183.906463 102.47676 
L 177.073965 122.404981 
L 171.705852 134.95237 
L 156.088842 165.213736 
L 145.352316 187.3562 
L 138.03189 197.689346 
L 127.295364 212.450978 
L 124.367193 214.665222 
L 124.855122 205.070147 
L 129.735606 188.832342 
L 133.639634 176.284953 
L 143.400302 155.618662 
L 146.816402 145.285516 
L 151.696586 135.690471 
L 156.57707 129.047711 
L 160.481098 122.404981 
L 164.385425 111.333764 
L 173.169937 96.572131 
L 179.514207 82.54857 
L 184.88262 72.953495 
L 190.250733 60.406106 
L 195.619145 52.287204 
L 201.475487 45.644473 
L 208.795913 43.43023 
L 213.676098 42.692129 
L 218.068354 44.906402 
L 216.604268 55.977619 
L 212.699941 68.525008 
L 207.819756 78.120083 
L 204.891586 89.929371 
L 197.571159 102.47676 
L 190.738961 118.714565 
L 183.418534 130.523883 
L 178.050122 140.857029 
L 170.729695 151.190175 
L 163.409269 160.047148 
L 158.041155 168.166051 
L 151.696586 179.237298 
L 143.400302 193.260829 
L 136.567804 206.546319 
L 129.735606 218.355637 
L 124.855122 226.47454 
L 118.998781 233.11727 
L 110.702497 237.545757 
L 104.358227 238.283828 
L 101.430056 236.807686 
L 101.917985 226.47454 
L 106.79817 216.141394 
L 112.166582 203.594005 
L 117.534695 188.094271 
L 123.391037 174.808811 
L 134.127862 151.190175 
L 145.840245 129.785812 
L 154.624757 120.190737 
L 163.897497 109.857592 
L 188.298719 74.429667 
L 194.15506 67.786937 
L 200.987558 57.453791 
L 206.8436 51.549132 
L 210.747927 47.858717 
L 219.04451 41.954058 
L 217.092197 55.239548 
L 212.699941 69.26308 
L 208.307685 81.810469 
L 200.49933 96.572131 
L 196.107074 109.857592 
L 189.762804 120.928809 
L 182.930306 134.214299 
L 175.121951 146.023617 
L 167.801525 156.356763 
L 159.017013 165.951807 
L 133.151705 205.070147 
L 124.367193 214.665222 
L 117.534695 224.998367 
L 110.214568 232.379169 
L 104.358227 236.069584 
L 104.846156 224.260296 
L 109.238412 208.022491 
L 114.118596 192.522758 
L 131.199691 151.928246 
L 136.079876 142.333201 
L 142.424146 134.214299 
L 151.696586 124.619224 
L 161.945183 115.762251 
L 167.801525 100.262517 
L 191.226889 70.001181 
L 198.547316 59.668035 
L 205.867743 53.763376 
L 212.212012 46.382545 
L 219.532439 40.477886 
L 226.852866 36.049399 
L 234.173292 34.573227 
L 239.053477 38.263642 
L 234.661221 53.763376 
L 229.781036 65.572694 
L 226.364937 79.596225 
L 219.532439 91.405543 
L 212.212012 108.381419 
L 205.379814 118.714565 
L 197.083231 134.214299 
L 188.298719 143.809373 
L 183.418534 149.714003 
L 178.53805 154.142489 
L 170.729695 160.047148 
L 163.409269 167.42798 
L 153.160671 177.023054 
L 141.448288 192.522758 
L 134.615791 203.594005 
L 124.367193 215.403293 
L 113.630668 227.212611 
L 106.79817 233.855341 
L 98.501886 239.76 
L 89.229146 240.498071 
L 83.373104 240.498071 
L 84.348961 229.426854 
L 92.157317 205.808248 
L 96.061644 192.522758 
L 100.941828 182.189612 
L 108.750483 169.642223 
L 115.582681 157.094834 
L 122.415179 146.023617 
L 128.759449 137.166613 
L 136.079876 128.30964 
L 145.352316 122.404981 
L 153.6489 115.762251 
L 162.433411 109.11952 
L 172.19378 98.786375 
L 183.418534 88.453229 
L 190.738961 74.429667 
L 200.49933 64.096522 
L 209.283842 55.239548 
L 216.604268 49.334889 
L 224.900852 43.43023 
L 233.197135 36.7875 
L 240.029633 33.835155 
L 247.837988 31.620912 
L 255.158415 30.882841 
L 261.502685 30.882841 
L 258.574514 41.954058 
L 255.158415 53.763376 
L 251.254088 63.358451 
L 248.814145 72.215424 
L 242.957804 81.810469 
L 238.07732 94.357888 
L 232.709207 105.429105 
L 226.364937 114.286078 
L 220.020368 126.833468 
L 210.747927 139.380857 
L 198.547316 148.23786 
L 188.298719 156.356763 
L 178.53805 162.999493 
L 168.777681 168.166051 
L 157.552927 171.118395 
L 145.840245 187.3562 
L 121.439023 217.617536 
L 109.238412 225.736439 
L 99.477743 232.379169 
L 88.741217 239.021929 
L 79.956705 244.188487 
L 68.244023 245.664659 
L 61.899753 242.712345 
L 65.80408 227.212611 
L 71.172194 211.712877 
L 77.516763 196.213174 
L 84.348961 180.71344 
L 101.430056 151.928246 
L 112.654511 143.071272 
L 124.855122 134.214299 
L 136.079876 126.833468 
L 149.744572 120.190737 
L 160.969326 112.809906 
L 170.241767 101.000618 
L 177.562193 89.929371 
L 187.81079 78.120083 
L 200.011401 67.048836 
L 210.259999 60.406106 
L 219.04451 55.239548 
L 225.876709 48.596788 
L 236.125306 44.906402 
L 246.861832 42.692129 
L 255.158415 41.954058 
L 261.502685 44.168301 
L 254.182258 67.786937 
L 249.302074 80.334326 
L 241.493719 95.83403 
L 235.149149 109.11952 
L 225.876709 120.928809 
L 218.068354 133.476198 
L 206.8436 146.761688 
L 194.15506 154.142489 
L 172.682009 167.42798 
L 156.088842 178.499196 
L 142.424146 189.570443 
L 129.735606 201.379731 
L 109.238412 219.83178 
L 99.965971 226.47454 
L 87.277132 231.641098 
L 78.004692 238.283828 
L 70.684265 240.498071 
L 64.827924 239.76 
L 61.411825 239.021929 
L 65.315852 226.47454 
L 69.708108 214.665222 
L 74.588592 200.64166 
L 80.932862 185.880028 
L 87.765061 170.380294 
L 98.013658 157.094834 
L 106.310241 143.071272 
L 116.07061 134.95237 
L 124.855122 129.785812 
L 135.103719 122.404981 
L 144.864388 116.500322 
L 161.945183 110.595663 
L 161.945183 110.595663 
" clip-path="url(#p69d7fc38f2)" style="fill: none; stroke-dasharray: 3.7,1.6; stroke-dashoffset: 0; stroke: #000000"/>
   </g>
   <g id="line2d_22">
    <path d="M 160.725212 138.642786 
L 162.316015 112.131942 
L 163.881668 90.905432 
L 165.397417 81.401696 
L 172.78772 57.425265 
L 173.378486 55.715157 
L 173.375352 55.72385 
L 171.410396 65.885733 
L 168.144157 81.780495 
L 165.351046 95.234099 
L 163.83337 104.251056 
L 162.266553 118.490644 
L 157.520506 183.860298 
L 156.006708 188.963996 
L 154.567509 192.415844 
L 153.225664 197.609496 
L 152.002388 200.397084 
L 150.917019 201.586635 
L 148.069 208.192457 
L 148.078401 208.141995 
L 154.698641 172.224447 
L 156.145821 163.01345 
L 157.665401 151.253939 
L 159.233357 136.216274 
L 160.824899 118.211529 
L 162.414865 101.606171 
L 163.978118 92.396118 
L 165.489942 85.79451 
L 166.926436 80.565303 
L 169.484137 72.573223 
L 171.490111 67.397817 
L 173.384166 63.264264 
L 173.368498 63.339655 
L 169.302292 83.155363 
L 168.063095 89.740549 
L 166.707886 97.617465 
L 165.25809 107.258697 
L 163.736629 119.509959 
L 162.167558 134.659374 
L 160.575683 152.436637 
L 158.986173 166.499332 
L 157.424156 174.775908 
L 155.91433 181.419179 
L 154.480563 187.142419 
L 153.145525 191.883999 
L 150.854167 198.937862 
L 148.61756 204.884125 
L 148.063711 206.237793 
L 148.085646 206.123143 
L 154.786529 170.535136 
L 156.238918 161.708399 
L 157.762235 150.386339 
L 159.332397 135.808677 
L 161.123948 115.771026 
L 164.302009 94.756935 
L 167.423521 82.860619 
L 170.439133 73.924089 
L 173.301167 67.02947 
L 175.964374 61.646601 
L 178.38665 57.778507 
L 180.529697 55.379068 
L 183.847531 52.160852 
L 185.708886 50.640791 
L 186.052915 50.458389 
L 183.465099 61.650436 
L 179.957237 75.872042 
L 175.237947 93.73263 
L 166.554194 125.645546 
L 163.411736 140.799572 
L 160.226804 165.06264 
L 157.049752 179.772206 
L 153.930809 190.650472 
L 150.919286 199.155056 
L 148.062795 206.086522 
L 142.992389 213.994809 
L 140.858638 216.478444 
L 137.562179 219.907465 
L 135.393199 222.006169 
L 138.029585 210.709959 
L 141.558293 196.438548 
L 146.29433 178.677707 
L 154.993293 148.099005 
L 158.137835 132.193805 
L 161.323285 111.900125 
L 164.499279 98.710448 
L 167.615604 89.264831 
L 170.622992 81.785851 
L 173.473896 75.60863 
L 176.123243 70.566405 
L 178.529146 66.62408 
L 180.653568 63.564064 
L 183.928601 59.48809 
L 186.061144 57.218689 
L 181.767821 75.001235 
L 177.583639 91.281089 
L 172.337541 110.466837 
L 166.35998 130.599917 
L 163.213401 144.627279 
L 160.027484 163.473279 
L 156.852598 175.779989 
L 153.738938 185.132493 
L 150.735731 192.861443 
L 147.890458 199.276655 
L 145.248104 204.416703 
L 142.850443 208.535006 
L 140.735383 211.752405 
L 137.481826 216.026086 
L 135.385753 218.365144 
L 138.119155 206.800532 
L 141.689394 192.517679 
L 143.941372 184.031041 
L 146.458704 174.993236 
L 152.126664 155.997636 
L 155.187682 145.685586 
L 158.336249 130.371019 
L 161.921271 111.187867 
L 166.681866 94.770853 
L 171.348285 83.00182 
L 175.846754 73.794487 
L 180.10615 66.761224 
L 184.059133 61.507373 
L 187.643205 57.667029 
L 190.801702 54.819941 
L 193.484689 52.723404 
L 197.262647 50.208127 
L 198.739103 49.429818 
L 194.566333 66.420626 
L 192.121329 75.63286 
L 189.17995 85.899106 
L 185.788701 96.712593 
L 182.001197 107.681385 
L 177.877319 118.377954 
L 173.482265 128.118113 
L 168.885522 136.924577 
L 164.159763 148.259566 
L 159.379704 168.48736 
L 154.620918 182.883511 
L 149.958641 194.195614 
L 145.466584 203.081547 
L 141.215767 209.945831 
L 137.273394 215.092946 
L 133.701796 218.912666 
L 130.55744 221.751138 
L 127.890037 223.80017 
L 125.849174 225.116748 
L 123.23711 226.568824 
L 122.81462 226.820752 
L 125.132796 217.414883 
L 127.059993 209.901614 
L 129.521136 200.794317 
L 132.477316 190.607524 
L 135.881795 179.885453 
L 139.680747 169.128935 
L 143.814111 158.696298 
L 148.216539 149.077138 
L 152.818428 140.197785 
L 157.547022 127.989656 
L 162.327561 110.11328 
L 167.084465 96.235725 
L 171.742528 85.37551 
L 176.228104 76.680396 
L 180.470277 69.843357 
L 184.401978 64.621668 
L 187.961046 60.668594 
L 191.091213 57.688182 
L 193.74299 55.462862 
L 195.874453 53.85149 
L 198.854159 51.916791 
L 194.536249 68.916458 
L 192.059004 78.041877 
L 189.088069 88.253904 
L 185.670413 98.955214 
L 181.860072 109.606197 
L 177.717285 119.807489 
L 173.307551 129.083555 
L 168.700588 137.492009 
L 163.969232 148.475848 
L 159.188286 166.068624 
L 154.433337 179.8325 
L 149.779562 190.837414 
L 145.300536 199.60295 
L 141.067072 206.520112 
L 137.146104 211.81771 
L 133.59962 215.843468 
L 130.483691 218.8807 
L 127.84758 221.150913 
L 124.173276 223.884995 
L 122.808153 224.800728 
L 125.236982 215.094282 
L 127.198534 207.54208 
L 129.691842 198.412509 
L 132.677487 188.246012 
L 136.108266 177.657619 
L 139.929939 167.191448 
L 144.082083 157.194333 
L 148.499055 148.010691 
L 153.111021 139.410539 
L 157.845066 126.897265 
L 163.224251 108.154283 
L 169.561477 91.422869 
L 175.7607 78.764881 
L 181.723909 69.225567 
L 187.356826 62.304851 
L 192.570394 57.297821 
L 197.282187 53.677765 
L 201.41771 51.01867 
L 204.911582 49.069671 
L 209.764433 46.736985 
L 211.535059 45.972388 
L 208.222925 59.122509 
L 205.584681 68.943991 
L 202.238904 80.415078 
L 198.238493 92.620482 
L 193.646692 104.712478 
L 188.5361 115.976355 
L 182.987515 125.904568 
L 177.08866 134.334665 
L 170.932796 141.522517 
L 164.617248 150.728659 
L 158.241866 170.267726 
L 151.907443 186.190394 
L 145.714127 198.532414 
L 139.759836 207.868918 
L 134.138707 214.684125 
L 128.939609 219.643769 
L 124.244742 223.246223 
L 120.128331 225.903218 
L 116.655457 227.846975 
L 111.848901 230.160474 
L 110.127841 230.909227 
L 113.513618 217.467063 
L 116.174664 207.581952 
L 119.541755 196.087759 
L 123.561656 183.906409 
L 128.170813 171.900868 
L 133.296355 160.777555 
L 138.857247 150.983899 
L 144.76557 142.638302 
L 150.927914 135.400533 
L 157.246852 125.480886 
L 163.622481 107.422857 
L 169.954003 92.068379 
L 176.141315 80.003378 
L 182.086596 70.717011 
L 187.695851 63.846572 
L 192.880397 58.805092 
L 197.558267 55.106962 
L 201.655502 52.368787 
L 205.107326 50.35507 
L 209.867511 47.950253 
L 211.538978 47.184866 
L 208.079611 60.817864 
L 205.395804 70.728561 
L 202.007451 82.220676 
L 197.968122 94.361444 
L 193.34168 106.260142 
L 188.201267 117.235627 
L 182.628156 126.804241 
L 176.710456 134.904248 
L 170.541726 141.936426 
L 164.219496 151.16867 
L 157.843718 169.21652 
L 151.515196 184.656908 
L 145.333983 196.855283 
L 139.397803 206.221032 
L 133.80051 213.142037 
L 128.630595 218.222908 
L 123.969796 221.950463 
L 119.8918 224.706884 
L 116.46108 226.714915 
L 111.747338 229.122151 
L 110.125489 229.87327 
L 113.658394 215.960628 
L 116.36492 205.997304 
L 119.774483 194.497534 
L 123.833177 182.402576 
L 128.476833 170.595823 
L 133.632037 159.729793 
L 139.217283 150.240022 
L 145.144268 142.17058 
L 151.319287 135.033486 
L 157.644713 124.396383 
L 164.817517 104.769987 
L 172.724299 86.965485 
L 180.443073 73.663058 
L 187.851805 64.188136 
L 194.833362 57.603762 
L 201.277366 52.962016 
L 207.081937 49.636463 
L 212.155305 47.201732 
L 216.417258 45.412623 
L 222.25129 43.265925 
L 224.216546 42.604448 
L 222.189236 50.717121 
L 219.708562 60.204844 
L 216.297058 72.266077 
L 212.008658 85.664215 
L 206.911163 99.158381 
L 201.085164 111.68373 
L 194.622771 122.518973 
L 187.626154 131.403494 
L 180.20593 138.569927 
L 172.479413 144.623057 
L 164.56876 152.929944 
L 156.599039 173.259545 
L 148.69625 190.627587 
L 140.985339 203.715645 
L 133.588214 213.050258 
L 126.621824 219.56763 
L 120.196309 224.176081 
L 114.413255 227.478946 
L 109.364094 229.90606 
L 105.128653 231.687707 
L 99.352857 233.817898 
L 97.449685 234.459944 
L 99.539019 226.09372 
L 102.049453 216.497643 
L 105.489251 204.36245 
L 109.804031 190.933244 
L 114.925575 177.454983 
L 120.772912 164.987083 
L 127.253594 154.196537 
L 134.265163 145.298695 
L 141.696764 137.97346 
L 149.430905 131.112184 
L 157.345307 122.469659 
L 165.314843 104.183685 
L 173.213516 87.210695 
L 180.916446 74.358874 
L 188.30185 65.039199 
L 195.252964 58.4684 
L 201.659892 53.791958 
L 207.421338 50.424894 
L 212.446215 47.947958 
L 216.655078 46.126908 
L 223.790763 43.44145 
L 224.213607 43.295383 
L 222.062282 51.8369 
L 219.522127 61.492577 
L 216.054087 73.65102 
L 211.712994 87.064775 
L 206.56748 100.438597 
L 200.698896 112.77037 
L 194.200025 123.357615 
L 187.173613 132.007048 
L 179.730749 138.995171 
L 171.989105 144.988548 
L 164.071076 153.662606 
L 156.101848 173.041247 
L 148.207413 189.959377 
L 140.512583 202.880804 
L 133.139014 212.203509 
L 126.203283 218.769493 
L 119.815043 223.43426 
L 114.075293 226.797682 
L 109.074778 229.269162 
L 104.892557 231.083767 
L 97.846132 233.745045 
L 97.454585 233.880901 
L 99.667867 225.097347 
L 102.237705 215.347319 
L 105.733931 203.134838 
L 110.10127 189.721319 
L 115.270675 176.398287 
L 121.160415 164.153791 
L 127.677376 153.646435 
L 134.718522 145.047013 
L 142.172533 138.075468 
L 149.921562 132.014266 
L 157.843094 122.221115 
L 166.807745 100.770656 
L 176.275835 81.977638 
L 185.499767 68.511394 
L 194.333711 59.456031 
L 202.638001 53.3639 
L 210.281345 49.132866 
L 217.142904 46.073228 
L 223.114194 43.810969 
L 228.10081 42.142231 
L 234.821478 40.187181 
L 236.881572 39.621971 
L 234.151325 50.360252 
L 231.031949 61.889795 
L 226.802717 75.93698 
L 221.530496 90.80248 
L 215.298638 104.982629 
L 208.205671 117.423451 
L 200.363733 127.558767 
L 191.896807 135.545391 
L 182.938754 142.012422 
L 173.631203 148.028421 
L 164.121305 156.214439 
L 154.559414 176.816544 
L 145.096702 195.492987 
L 135.882776 208.784191 
L 127.063308 217.761123 
L 118.777735 223.815389 
L 111.157051 228.03662 
L 104.32174 231.092462 
L 98.37987 233.352039 
L 93.42538 235.013474 
L 84.789559 237.440788 
L 87.594071 226.490977 
L 90.748971 214.911632 
L 95.011897 200.850004 
L 100.315451 185.983765 
L 106.575785 171.776387 
L 113.693922 159.330224 
L 121.557323 149.140165 
L 130.04167 141.021645 
L 148.328947 127.084758 
L 157.842755 118.047426 
L 176.861021 82.555483 
L 186.064799 69.258805 
L 194.869655 60.291358 
L 203.136384 54.16452 
L 210.734288 49.861444 
L 217.543245 46.739941 
L 223.455605 44.434706 
L 232.232286 41.520505 
L 236.868638 40.242345 
L 233.989903 51.256125 
L 230.799529 62.76081 
L 226.502975 76.750121 
L 221.16817 91.59425 
L 214.879457 105.715703 
L 207.736261 118.029517 
L 199.851517 128.041529 
L 191.349882 135.929937 
L 182.365768 142.352853 
L 173.041213 148.241115 
L 163.523641 156.861358 
L 153.963524 177.016234 
L 144.512007 195.262697 
L 135.31852 208.299032 
L 126.528412 217.191941 
L 118.280656 223.242752 
L 110.705648 227.494716 
L 103.923149 230.579974 
L 98.040393 232.850556 
L 89.330435 235.725031 
L 84.804844 237.048588 
L 87.757756 225.823648 
L 90.983555 214.243693 
L 95.313671 200.173609 
L 100.679645 185.294085 
L 106.99664 171.172398 
L 114.164785 158.849746 
L 122.07075 148.778644 
L 130.589542 140.752183 
L 139.586479 133.965726 
L 148.919318 126.733004 
L 158.440508 117.371776 
L 169.193998 96.931577 
L 180.213981 77.355535 
L 190.927544 64.195797 
L 201.165306 55.719143 
L 210.765405 50.075056 
L 219.576065 46.117928 
L 227.457989 43.235593 
L 234.286562 41.084611 
L 244.370179 38.325728 
L 249.520732 37.062904 
L 245.98918 50.460709 
L 242.184476 63.832144 
L 237.093597 79.583178 
L 230.797028 95.597993 
L 223.394318 110.124121 
L 215.002505 122.194324 
L 205.754264 131.670265 
L 195.79581 139.058151 
L 185.284587 145.332053 
L 174.386776 152.505274 
L 163.274674 161.893974 
L 152.123963 180.222917 
L 141.110937 199.642363 
L 130.409711 213.028591 
L 120.189473 221.46196 
L 110.611805 227.103254 
L 101.82813 231.06677 
L 93.97732 233.950428 
L 87.183494 236.101777 
L 77.178034 238.85064 
L 72.156864 240.084166 
L 75.774849 226.339921 
L 79.620765 212.840543 
L 84.750643 197.033016 
L 91.083381 181.035777 
L 98.518858 166.604541 
L 106.939519 154.643144 
L 116.212232 145.26338 
L 126.190395 137.946778 
L 136.716254 131.737346 
L 147.623393 124.609226 
L 158.739371 115.27142 
L 169.888444 96.545594 
L 180.894344 77.535927 
L 191.583067 64.424768 
L 201.785624 56.034421 
L 211.340712 50.390543 
L 220.097265 46.421515 
L 227.916842 43.528974 
L 234.675814 41.371605 
L 244.602964 38.616335 
L 249.494672 37.395871 
L 245.79031 51.362192 
L 241.903242 64.913369 
L 236.734444 80.725005 
L 230.365635 96.661128 
L 222.897505 111.026865 
L 214.448127 122.894576 
L 205.151086 132.196947 
L 195.153368 139.462333 
L 184.613037 145.658205 
L 173.696736 152.904679 
L 162.577054 162.344036 
L 151.429792 180.757982 
L 140.431189 199.749932 
L 129.755134 212.893529 
L 119.570416 221.259933 
L 110.038055 226.890367 
L 101.308758 230.847553 
L 93.520537 233.731685 
L 86.796523 235.880802 
L 76.947838 238.618563 
L 72.185665 239.810389 
L 75.976347 225.533541 
L 79.904508 211.887455 
L 85.112146 196.050669 
L 91.516928 180.151898 
L 99.017594 165.866712 
L 107.495559 154.082509 
L 116.816785 144.850376 
L 126.833904 137.634646 
L 137.388544 131.432295 
L 148.313836 124.141164 
L 159.437051 114.531082 
L 171.975145 92.514744 
L 184.536443 72.513787 
L 196.722982 59.951753 
L 208.342093 52.091816 
L 219.210078 46.870909 
L 229.155112 43.188712 
L 238.019964 40.46567 
L 245.664482 38.410867 
L 256.830274 35.760187 
L 262.124631 34.618988 
L 257.693838 51.31599 
L 253.157619 66.735438 
L 247.161736 84.041271 
L 239.800987 100.753221 
L 231.191744 115.152098 
L 221.470121 126.610235 
L 210.789815 135.444577 
L 199.319685 142.545894 
L 187.241072 149.09416 
L 174.74494 157.868132 
L 162.028855 169.485091 
L 149.293856 184.965654 
L 136.741286 203.597592 
L 124.569602 216.710301 
L 112.971237 224.938032 
L 102.129563 230.217354 
L 92.215988 233.937784 
L 83.387244 236.682028 
L 75.782915 238.748358 
L 64.707144 241.401239 
L 59.560994 242.519393 
L 64.090302 225.489475 
L 68.673346 209.991767 
L 74.713431 192.701996 
L 82.115065 176.097051 
L 90.761227 161.887801 
L 100.515222 150.67815 
L 111.222837 142.136559 
L 122.714785 135.405988 
L 134.809378 129.270529 
L 147.3154 122.588283 
L 160.03513 113.0373 
L 172.767468 91.618602 
L 185.311116 72.228068 
L 197.467758 59.939621 
L 209.045196 52.167169 
L 219.860392 46.98056 
L 229.742356 43.314969 
L 238.534854 40.60443 
L 246.098876 38.560846 
L 257.084456 35.933475 
L 262.082319 34.840944 
L 257.454565 52.128739 
L 252.824769 67.693153 
L 246.740573 85.012008 
L 239.298169 101.61674 
L 230.615221 115.865982 
L 220.829007 127.156885 
L 210.094247 135.860525 
L 198.580659 142.88796 
L 186.470273 149.384253 
L 173.954554 158.337692 
L 161.231377 169.900152 
L 148.501896 185.677907 
L 135.967364 203.9692 
L 123.825953 216.798198 
L 112.269619 224.903696 
L 101.481069 230.138958 
L 91.630869 233.83797 
L 82.874753 236.569387 
L 75.351154 238.623784 
L 64.455935 241.254223 
L 59.606437 242.323079 
L 61.181759 236.303431 
L 64.332565 224.704058 
L 69.009042 209.065934 
L 75.137254 191.77613 
L 82.620313 175.294512 
L 91.339913 161.238213 
L 101.158196 150.187258 
L 111.919934 141.768302 
L 123.454984 135.10611 
L 135.580976 128.950508 
L 148.106198 122.13873 
L 148.106198 122.13873 
" clip-path="url(#p69d7fc38f2)" style="fill: none; stroke: #0000ff; stroke-width: 1.2; stroke-linecap: square"/>
   </g>
   <g id="line2d_23">
    <path d="M 49.432813 138.642786 
L 272.252813 138.642786 
" clip-path="url(#p69d7fc38f2)" style="fill: none; stroke: #000000; stroke-width: 0.4; stroke-linecap: square"/>
   </g>
   <g id="line2d_24">
    <path d="M 160.725212 256.40375 
L 160.725212 20.14375 
" clip-path="url(#p69d7fc38f2)" style="fill: none; stroke: #000000; stroke-width: 0.4; stroke-linecap: square"/>
   </g>
   <g id="patch_3">
    <path d="M 49.432813 256.40375 
L 49.432813 20.14375 
" style="fill: none; stroke: #000000; stroke-width: 0.8; stroke-linejoin: miter; stroke-linecap: square"/>
   </g>
   <g id="patch_4">
    <path d="M 272.252813 256.40375 
L 272.252813 20.14375 
" style="fill: none; stroke: #000000; stroke-width: 0.8; stroke-linejoin: miter; stroke-linecap: square"/>
   </g>
   <g id="patch_5">
    <path d="M 49.432813 256.40375 
L 272.252813 256.40375 
" style="fill: none; stroke: #000000; stroke-width: 0.8; stroke-linejoin: miter; stroke-linecap: square"/>
   </g>
   <g id="patch_6">
    <path d="M 49.432813 20.14375 
L 272.252813 20.14375 
" style="fill: none; stroke: #000000; stroke-width: 0.8; stroke-linejoin: miter; stroke-linecap: square"/>
   </g>
   <g id="text_13">
    <!-- Specimen : Thomsen_and_Wallace-RW2 -->
    <g transform="translate(78.575625 14.14375) scale(0.1 -0.1)">
     <defs>
      <path id="TimesNewRomanPSMT-3a" d="M 903 2950 
Q 1047 2950 1148 2848 
Q 1250 2747 1250 2603 
Q 1250 2459 1148 2357 
Q 1047 2256 903 2256 
Q 759 2256 657 2357 
Q 556 2459 556 2603 
Q 556 2747 657 2848 
Q 759 2950 903 2950 
z
M 897 609 
Q 1044 609 1145 506 
Q 1247 403 1247 259 
Q 1247 116 1144 14 
Q 1041 -88 897 -88 
Q 753 -88 651 14 
Q 550 116 550 259 
Q 550 403 651 506 
Q 753 609 897 609 
z
" transform="scale(0.015625)"/>
      <path id="TimesNewRomanPSMT-54" d="M 3703 4238 
L 3750 3244 
L 3631 3244 
Q 3597 3506 3538 3619 
Q 3441 3800 3280 3886 
Q 3119 3972 2856 3972 
L 2259 3972 
L 2259 734 
Q 2259 344 2344 247 
Q 2463 116 2709 116 
L 2856 116 
L 2856 0 
L 1059 0 
L 1059 116 
L 1209 116 
Q 1478 116 1591 278 
Q 1659 378 1659 734 
L 1659 3972 
L 1150 3972 
Q 853 3972 728 3928 
Q 566 3869 450 3700 
Q 334 3531 313 3244 
L 194 3244 
L 244 4238 
L 3703 4238 
z
" transform="scale(0.015625)"/>
      <path id="TimesNewRomanPSMT-6f" d="M 1600 2947 
Q 2250 2947 2644 2453 
Q 2978 2031 2978 1484 
Q 2978 1100 2793 706 
Q 2609 313 2286 112 
Q 1963 -88 1566 -88 
Q 919 -88 538 428 
Q 216 863 216 1403 
Q 216 1797 411 2186 
Q 606 2575 925 2761 
Q 1244 2947 1600 2947 
z
M 1503 2744 
Q 1338 2744 1170 2645 
Q 1003 2547 900 2300 
Q 797 2053 797 1666 
Q 797 1041 1045 587 
Q 1294 134 1700 134 
Q 2003 134 2200 384 
Q 2397 634 2397 1244 
Q 2397 2006 2069 2444 
Q 1847 2744 1503 2744 
z
" transform="scale(0.015625)"/>
      <path id="TimesNewRomanPSMT-5f" d="M 3256 -1381 
L -53 -1381 
L -53 -1119 
L 3256 -1119 
L 3256 -1381 
z
" transform="scale(0.015625)"/>
      <path id="TimesNewRomanPSMT-64" d="M 2222 322 
Q 2013 103 1813 7 
Q 1613 -88 1381 -88 
Q 913 -88 563 304 
Q 213 697 213 1313 
Q 213 1928 600 2439 
Q 988 2950 1597 2950 
Q 1975 2950 2222 2709 
L 2222 3238 
Q 2222 3728 2198 3840 
Q 2175 3953 2125 3993 
Q 2075 4034 2000 4034 
Q 1919 4034 1784 3984 
L 1744 4094 
L 2597 4444 
L 2738 4444 
L 2738 1134 
Q 2738 631 2761 520 
Q 2784 409 2836 365 
Q 2888 322 2956 322 
Q 3041 322 3181 375 
L 3216 266 
L 2366 -88 
L 2222 -88 
L 2222 322 
z
M 2222 541 
L 2222 2016 
Q 2203 2228 2109 2403 
Q 2016 2578 1861 2667 
Q 1706 2756 1559 2756 
Q 1284 2756 1069 2509 
Q 784 2184 784 1559 
Q 784 928 1059 592 
Q 1334 256 1672 256 
Q 1956 256 2222 541 
z
" transform="scale(0.015625)"/>
      <path id="TimesNewRomanPSMT-57" d="M 5991 4238 
L 5991 4122 
Q 5825 4122 5722 4062 
Q 5619 4003 5525 3841 
Q 5463 3731 5328 3319 
L 4147 -97 
L 4022 -97 
L 3056 2613 
L 2097 -97 
L 1984 -97 
L 725 3422 
Q 584 3816 547 3888 
Q 484 4006 376 4064 
Q 269 4122 84 4122 
L 84 4238 
L 1653 4238 
L 1653 4122 
L 1578 4122 
Q 1413 4122 1325 4047 
Q 1238 3972 1238 3866 
Q 1238 3756 1375 3363 
L 2209 984 
L 2913 3006 
L 2788 3363 
L 2688 3647 
Q 2622 3803 2541 3922 
Q 2500 3981 2441 4022 
Q 2363 4078 2284 4103 
Q 2225 4122 2097 4122 
L 2097 4238 
L 3747 4238 
L 3747 4122 
L 3634 4122 
Q 3459 4122 3378 4047 
Q 3297 3972 3297 3844 
Q 3297 3684 3438 3288 
L 4250 984 
L 5056 3319 
Q 5194 3706 5194 3856 
Q 5194 3928 5148 3990 
Q 5103 4053 5034 4078 
Q 4916 4122 4725 4122 
L 4725 4238 
L 5991 4238 
z
" transform="scale(0.015625)"/>
      <path id="TimesNewRomanPSMT-2d" d="M 259 1672 
L 1875 1672 
L 1875 1200 
L 259 1200 
L 259 1672 
z
" transform="scale(0.015625)"/>
      <path id="TimesNewRomanPSMT-52" d="M 4325 0 
L 3194 0 
L 1759 1981 
Q 1600 1975 1500 1975 
Q 1459 1975 1412 1976 
Q 1366 1978 1316 1981 
L 1316 750 
Q 1316 350 1403 253 
Q 1522 116 1759 116 
L 1925 116 
L 1925 0 
L 109 0 
L 109 116 
L 269 116 
Q 538 116 653 291 
Q 719 388 719 750 
L 719 3488 
Q 719 3888 631 3984 
Q 509 4122 269 4122 
L 109 4122 
L 109 4238 
L 1653 4238 
Q 2328 4238 2648 4139 
Q 2969 4041 3192 3777 
Q 3416 3513 3416 3147 
Q 3416 2756 3161 2468 
Q 2906 2181 2372 2063 
L 3247 847 
Q 3547 428 3762 290 
Q 3978 153 4325 116 
L 4325 0 
z
M 1316 2178 
Q 1375 2178 1419 2176 
Q 1463 2175 1491 2175 
Q 2097 2175 2405 2437 
Q 2713 2700 2713 3106 
Q 2713 3503 2464 3751 
Q 2216 4000 1806 4000 
Q 1625 4000 1316 3941 
L 1316 2178 
z
" transform="scale(0.015625)"/>
      <path id="TimesNewRomanPSMT-32" d="M 2934 816 
L 2638 0 
L 138 0 
L 138 116 
Q 1241 1122 1691 1759 
Q 2141 2397 2141 2925 
Q 2141 3328 1894 3587 
Q 1647 3847 1303 3847 
Q 991 3847 742 3664 
Q 494 3481 375 3128 
L 259 3128 
Q 338 3706 661 4015 
Q 984 4325 1469 4325 
Q 1984 4325 2329 3994 
Q 2675 3663 2675 3213 
Q 2675 2891 2525 2569 
Q 2294 2063 1775 1497 
Q 997 647 803 472 
L 1909 472 
Q 2247 472 2383 497 
Q 2519 522 2628 598 
Q 2738 675 2819 816 
L 2934 816 
z
" transform="scale(0.015625)"/>
     </defs>
     <use xlink:href="#TimesNewRomanPSMT-53"/>
     <use xlink:href="#TimesNewRomanPSMT-70" x="55.615234"/>
     <use xlink:href="#TimesNewRomanPSMT-65" x="105.615234"/>
     <use xlink:href="#TimesNewRomanPSMT-63" x="150"/>
     <use xlink:href="#TimesNewRomanPSMT-69" x="194.384766"/>
     <use xlink:href="#TimesNewRomanPSMT-6d" x="222.167969"/>
     <use xlink:href="#TimesNewRomanPSMT-65" x="299.951172"/>
     <use xlink:href="#TimesNewRomanPSMT-6e" x="344.335938"/>
     <use xlink:href="#TimesNewRomanPSMT-20" x="394.335938"/>
     <use xlink:href="#TimesNewRomanPSMT-3a" x="419.335938"/>
     <use xlink:href="#TimesNewRomanPSMT-20" x="447.119141"/>
     <use xlink:href="#TimesNewRomanPSMT-54" x="470.369141"/>
     <use xlink:href="#TimesNewRomanPSMT-68" x="531.453125"/>
     <use xlink:href="#TimesNewRomanPSMT-6f" x="581.453125"/>
     <use xlink:href="#TimesNewRomanPSMT-6d" x="631.453125"/>
     <use xlink:href="#TimesNewRomanPSMT-73" x="709.236328"/>
     <use xlink:href="#TimesNewRomanPSMT-65" x="748.152344"/>
     <use xlink:href="#TimesNewRomanPSMT-6e" x="792.537109"/>
     <use xlink:href="#TimesNewRomanPSMT-5f" x="842.537109"/>
     <use xlink:href="#TimesNewRomanPSMT-61" x="892.537109"/>
     <use xlink:href="#TimesNewRomanPSMT-6e" x="936.921875"/>
     <use xlink:href="#TimesNewRomanPSMT-64" x="986.921875"/>
     <use xlink:href="#TimesNewRomanPSMT-5f" x="1036.921875"/>
     <use xlink:href="#TimesNewRomanPSMT-57" x="1086.921875"/>
     <use xlink:href="#TimesNewRomanPSMT-61" x="1173.306641"/>
     <use xlink:href="#TimesNewRomanPSMT-6c" x="1217.691406"/>
     <use xlink:href="#TimesNewRomanPSMT-6c" x="1245.474609"/>
     <use xlink:href="#TimesNewRomanPSMT-61" x="1273.257812"/>
     <use xlink:href="#TimesNewRomanPSMT-63" x="1317.642578"/>
     <use xlink:href="#TimesNewRomanPSMT-65" x="1362.027344"/>
     <use xlink:href="#TimesNewRomanPSMT-2d" x="1406.412109"/>
     <use xlink:href="#TimesNewRomanPSMT-52" x="1439.712891"/>
     <use xlink:href="#TimesNewRomanPSMT-57" x="1500.912109"/>
     <use xlink:href="#TimesNewRomanPSMT-32" x="1595.296875"/>
    </g>
   </g>
   <g id="legend_1">
    <g id="patch_7">
     <path d="M 55.263813 50.363428 
L 142.486722 50.363428 
Q 144.152722 50.363428 144.152722 48.697428 
L 144.152722 25.97475 
Q 144.152722 24.30875 142.486722 24.30875 
L 55.263813 24.30875 
Q 53.597813 24.30875 53.597813 25.97475 
L 53.597813 48.697428 
Q 53.597813 50.363428 55.263813 50.363428 
z
" style="fill: #ffffff; opacity: 0.8; stroke: #cccccc; stroke-linejoin: miter"/>
    </g>
    <g id="line2d_25">
     <path d="M 56.929813 30.55625 
L 65.259813 30.55625 
L 73.589813 30.55625 
" style="fill: none; stroke-dasharray: 3.7,1.6; stroke-dashoffset: 0; stroke: #000000"/>
    </g>
    <g id="text_14">
     <!-- Experimental Test -->
     <g transform="translate(80.253813 33.47175) scale(0.0833 -0.0833)">
      <defs>
       <path id="TimesNewRomanPSMT-45" d="M 1338 4006 
L 1338 2331 
L 2269 2331 
Q 2631 2331 2753 2441 
Q 2916 2584 2934 2947 
L 3050 2947 
L 3050 1472 
L 2934 1472 
Q 2891 1781 2847 1869 
Q 2791 1978 2662 2040 
Q 2534 2103 2269 2103 
L 1338 2103 
L 1338 706 
Q 1338 425 1363 364 
Q 1388 303 1450 267 
Q 1513 231 1688 231 
L 2406 231 
Q 2766 231 2928 281 
Q 3091 331 3241 478 
Q 3434 672 3638 1063 
L 3763 1063 
L 3397 0 
L 131 0 
L 131 116 
L 281 116 
Q 431 116 566 188 
Q 666 238 702 338 
Q 738 438 738 747 
L 738 3500 
Q 738 3903 656 3997 
Q 544 4122 281 4122 
L 131 4122 
L 131 4238 
L 3397 4238 
L 3444 3309 
L 3322 3309 
Q 3256 3644 3176 3769 
Q 3097 3894 2941 3959 
Q 2816 4006 2500 4006 
L 1338 4006 
z
" transform="scale(0.015625)"/>
       <path id="TimesNewRomanPSMT-78" d="M 84 2863 
L 1431 2863 
L 1431 2747 
Q 1303 2747 1251 2703 
Q 1200 2659 1200 2588 
Q 1200 2513 1309 2356 
Q 1344 2306 1413 2200 
L 1616 1875 
L 1850 2200 
Q 2075 2509 2075 2591 
Q 2075 2656 2022 2701 
Q 1969 2747 1850 2747 
L 1850 2863 
L 2819 2863 
L 2819 2747 
Q 2666 2738 2553 2663 
Q 2400 2556 2134 2200 
L 1744 1678 
L 2456 653 
Q 2719 275 2831 198 
Q 2944 122 3122 113 
L 3122 0 
L 1772 0 
L 1772 113 
Q 1913 113 1991 175 
Q 2050 219 2050 291 
Q 2050 363 1850 653 
L 1431 1266 
L 972 653 
Q 759 369 759 316 
Q 759 241 829 180 
Q 900 119 1041 113 
L 1041 0 
L 106 0 
L 106 113 
Q 219 128 303 191 
Q 422 281 703 653 
L 1303 1450 
L 759 2238 
Q 528 2575 401 2661 
Q 275 2747 84 2747 
L 84 2863 
z
" transform="scale(0.015625)"/>
      </defs>
      <use xlink:href="#TimesNewRomanPSMT-45"/>
      <use xlink:href="#TimesNewRomanPSMT-78" x="61.083984"/>
      <use xlink:href="#TimesNewRomanPSMT-70" x="111.083984"/>
      <use xlink:href="#TimesNewRomanPSMT-65" x="161.083984"/>
      <use xlink:href="#TimesNewRomanPSMT-72" x="205.46875"/>
      <use xlink:href="#TimesNewRomanPSMT-69" x="238.769531"/>
      <use xlink:href="#TimesNewRomanPSMT-6d" x="266.552734"/>
      <use xlink:href="#TimesNewRomanPSMT-65" x="344.335938"/>
      <use xlink:href="#TimesNewRomanPSMT-6e" x="388.720703"/>
      <use xlink:href="#TimesNewRomanPSMT-74" x="438.720703"/>
      <use xlink:href="#TimesNewRomanPSMT-61" x="466.503906"/>
      <use xlink:href="#TimesNewRomanPSMT-6c" x="510.888672"/>
      <use xlink:href="#TimesNewRomanPSMT-20" x="538.671875"/>
      <use xlink:href="#TimesNewRomanPSMT-54" x="561.921875"/>
      <use xlink:href="#TimesNewRomanPSMT-65" x="616.005859"/>
      <use xlink:href="#TimesNewRomanPSMT-73" x="660.390625"/>
      <use xlink:href="#TimesNewRomanPSMT-74" x="699.306641"/>
     </g>
    </g>
    <g id="line2d_26">
     <path d="M 56.929813 42.334089 
L 65.259813 42.334089 
L 73.589813 42.334089 
" style="fill: none; stroke: #0000ff; stroke-width: 1.2; stroke-linecap: square"/>
    </g>
    <g id="text_15">
     <!-- Numerical Test -->
     <g transform="translate(80.253813 45.249589) scale(0.0833 -0.0833)">
      <defs>
       <path id="TimesNewRomanPSMT-75" d="M 2709 2863 
L 2709 1128 
Q 2709 631 2732 520 
Q 2756 409 2807 365 
Q 2859 322 2928 322 
Q 3025 322 3147 375 
L 3191 266 
L 2334 -88 
L 2194 -88 
L 2194 519 
Q 1825 119 1631 15 
Q 1438 -88 1222 -88 
Q 981 -88 804 51 
Q 628 191 559 409 
Q 491 628 491 1028 
L 491 2306 
Q 491 2509 447 2587 
Q 403 2666 317 2708 
Q 231 2750 6 2747 
L 6 2863 
L 1009 2863 
L 1009 947 
Q 1009 547 1148 422 
Q 1288 297 1484 297 
Q 1619 297 1789 381 
Q 1959 466 2194 703 
L 2194 2325 
Q 2194 2569 2105 2655 
Q 2016 2741 1734 2747 
L 1734 2863 
L 2709 2863 
z
" transform="scale(0.015625)"/>
      </defs>
      <use xlink:href="#TimesNewRomanPSMT-4e"/>
      <use xlink:href="#TimesNewRomanPSMT-75" x="72.216797"/>
      <use xlink:href="#TimesNewRomanPSMT-6d" x="122.216797"/>
      <use xlink:href="#TimesNewRomanPSMT-65" x="200"/>
      <use xlink:href="#TimesNewRomanPSMT-72" x="244.384766"/>
      <use xlink:href="#TimesNewRomanPSMT-69" x="277.685547"/>
      <use xlink:href="#TimesNewRomanPSMT-63" x="305.46875"/>
      <use xlink:href="#TimesNewRomanPSMT-61" x="349.853516"/>
      <use xlink:href="#TimesNewRomanPSMT-6c" x="394.238281"/>
      <use xlink:href="#TimesNewRomanPSMT-20" x="422.021484"/>
      <use xlink:href="#TimesNewRomanPSMT-54" x="445.271484"/>
      <use xlink:href="#TimesNewRomanPSMT-65" x="499.355469"/>
      <use xlink:href="#TimesNewRomanPSMT-73" x="543.740234"/>
      <use xlink:href="#TimesNewRomanPSMT-74" x="582.65625"/>
     </g>
    </g>
   </g>
  </g>
 </g>
 <defs>
  <clipPath id="p69d7fc38f2">
   <rect x="49.432813" y="20.14375" width="222.82" height="236.26"/>
  </clipPath>
 </defs>
</svg>
