<?xml version="1.0" encoding="utf-8" standalone="no"?>
<!DOCTYPE svg PUBLIC "-//W3C//DTD SVG 1.1//EN"
  "http://www.w3.org/Graphics/SVG/1.1/DTD/svg11.dtd">
<svg xmlns:xlink="http://www.w3.org/1999/xlink" width="279.452813pt" height="292.774063pt" viewBox="0 0 279.452813 292.774063" xmlns="http://www.w3.org/2000/svg" version="1.1">
 <metadata>
  <rdf:RDF xmlns:dc="http://purl.org/dc/elements/1.1/" xmlns:cc="http://creativecommons.org/ns#" xmlns:rdf="http://www.w3.org/1999/02/22-rdf-syntax-ns#">
   <cc:Work>
    <dc:type rdf:resource="http://purl.org/dc/dcmitype/StillImage"/>
    <dc:date>2024-01-15T16:40:55.906297</dc:date>
    <dc:format>image/svg+xml</dc:format>
    <dc:creator>
     <cc:Agent>
      <dc:title>Matplotlib v3.7.1, https://matplotlib.org/</dc:title>
     </cc:Agent>
    </dc:creator>
   </cc:Work>
  </rdf:RDF>
 </metadata>
 <defs>
  <style type="text/css">*{stroke-linejoin: round; stroke-linecap: butt}</style>
 </defs>
 <g id="figure_1">
  <g id="patch_1">
   <path d="M 0 292.774063 
L 279.452813 292.774063 
L 279.452813 0 
L 0 0 
z
" style="fill: #ffffff"/>
  </g>
  <g id="axes_1">
   <g id="patch_2">
    <path d="M 49.432813 256.40375 
L 272.252813 256.40375 
L 272.252813 20.14375 
L 49.432813 20.14375 
z
" style="fill: #ffffff"/>
   </g>
   <g id="matplotlib.axis_1">
    <g id="xtick_1">
     <g id="line2d_1">
      <path d="M 100.41276 256.40375 
L 100.41276 20.14375 
" clip-path="url(#p2beedaf4bd)" style="fill: none; stroke-dasharray: 0.8,1.32; stroke-dashoffset: 0; stroke: #b0b0b0; stroke-width: 0.8"/>
     </g>
     <g id="line2d_2">
      <defs>
       <path id="m9b14ca2ce8" d="M 0 0 
L 0 3.5 
" style="stroke: #000000; stroke-width: 0.8"/>
      </defs>
      <g>
       <use xlink:href="#m9b14ca2ce8" x="100.41276" y="256.40375" style="stroke: #000000; stroke-width: 0.8"/>
      </g>
     </g>
     <g id="text_1">
      <!-- −50 -->
      <g transform="translate(92.10651 270.39125) scale(0.1 -0.1)">
       <defs>
        <path id="Cambria-2212" d="M 397 1613 
L 397 2047 
L 3147 2047 
L 3147 1613 
L 397 1613 
z
" transform="scale(0.015625)"/>
        <path id="Cambria-35" d="M 469 172 
L 469 834 
L 847 834 
Q 941 516 1130 366 
Q 1319 216 1619 216 
Q 2034 216 2246 466 
Q 2459 716 2459 1213 
Q 2459 1544 2346 1761 
Q 2234 1978 2043 2075 
Q 1853 2172 1600 2172 
Q 1388 2172 1234 2145 
Q 1081 2119 906 2063 
L 656 2209 
L 656 4266 
L 2378 4266 
Q 2484 4266 2531 4283 
Q 2578 4300 2606 4336 
Q 2634 4372 2672 4472 
L 2916 4472 
L 2869 3747 
L 1072 3747 
L 1072 2375 
Q 1234 2444 1425 2478 
Q 1616 2513 1806 2513 
Q 2178 2513 2465 2361 
Q 2753 2209 2909 1929 
Q 3066 1650 3066 1281 
Q 3066 863 2891 563 
Q 2716 263 2384 106 
Q 2053 -50 1600 -50 
Q 1059 -50 469 172 
z
" transform="scale(0.015625)"/>
        <path id="Cambria-30" d="M 1738 -50 
Q 1063 -50 733 481 
Q 403 1013 403 2094 
Q 403 2669 504 3087 
Q 606 3506 789 3779 
Q 972 4053 1228 4184 
Q 1484 4316 1788 4316 
Q 2472 4316 2806 3787 
Q 3141 3259 3141 2191 
Q 3141 1084 2783 517 
Q 2425 -50 1738 -50 
z
M 1013 2188 
Q 1013 1169 1202 692 
Q 1391 216 1788 216 
Q 2166 216 2348 664 
Q 2531 1113 2531 2053 
Q 2531 2772 2437 3217 
Q 2344 3663 2176 3856 
Q 2009 4050 1772 4050 
Q 1556 4050 1411 3922 
Q 1266 3794 1177 3553 
Q 1088 3313 1050 2967 
Q 1013 2622 1013 2188 
z
" transform="scale(0.015625)"/>
       </defs>
       <use xlink:href="#Cambria-2212"/>
       <use xlink:href="#Cambria-35" x="55.371094"/>
       <use xlink:href="#Cambria-30" x="110.742188"/>
      </g>
     </g>
    </g>
    <g id="xtick_2">
     <g id="line2d_3">
      <path d="M 160.102658 256.40375 
L 160.102658 20.14375 
" clip-path="url(#p2beedaf4bd)" style="fill: none; stroke-dasharray: 0.8,1.32; stroke-dashoffset: 0; stroke: #b0b0b0; stroke-width: 0.8"/>
     </g>
     <g id="line2d_4">
      <g>
       <use xlink:href="#m9b14ca2ce8" x="160.102658" y="256.40375" style="stroke: #000000; stroke-width: 0.8"/>
      </g>
     </g>
     <g id="text_2">
      <!-- 0 -->
      <g transform="translate(157.333908 270.39125) scale(0.1 -0.1)">
       <use xlink:href="#Cambria-30"/>
      </g>
     </g>
    </g>
    <g id="xtick_3">
     <g id="line2d_5">
      <path d="M 219.792555 256.40375 
L 219.792555 20.14375 
" clip-path="url(#p2beedaf4bd)" style="fill: none; stroke-dasharray: 0.8,1.32; stroke-dashoffset: 0; stroke: #b0b0b0; stroke-width: 0.8"/>
     </g>
     <g id="line2d_6">
      <g>
       <use xlink:href="#m9b14ca2ce8" x="219.792555" y="256.40375" style="stroke: #000000; stroke-width: 0.8"/>
      </g>
     </g>
     <g id="text_3">
      <!-- 50 -->
      <g transform="translate(214.255055 270.39125) scale(0.1 -0.1)">
       <use xlink:href="#Cambria-35"/>
       <use xlink:href="#Cambria-30" x="55.371094"/>
      </g>
     </g>
    </g>
    <g id="text_4">
     <!-- Displacement (mm) -->
     <g transform="translate(120.993594 283.435) scale(0.1 -0.1)">
      <defs>
       <path id="TimesNewRomanPSMT-44" d="M 109 0 
L 109 116 
L 269 116 
Q 538 116 650 288 
Q 719 391 719 750 
L 719 3488 
Q 719 3884 631 3984 
Q 509 4122 269 4122 
L 109 4122 
L 109 4238 
L 1834 4238 
Q 2784 4238 3279 4022 
Q 3775 3806 4076 3303 
Q 4378 2800 4378 2141 
Q 4378 1256 3841 663 
Q 3238 0 2003 0 
L 109 0 
z
M 1319 306 
Q 1716 219 1984 219 
Q 2709 219 3187 728 
Q 3666 1238 3666 2109 
Q 3666 2988 3187 3494 
Q 2709 4000 1959 4000 
Q 1678 4000 1319 3909 
L 1319 306 
z
" transform="scale(0.015625)"/>
       <path id="TimesNewRomanPSMT-69" d="M 928 4444 
Q 1059 4444 1151 4351 
Q 1244 4259 1244 4128 
Q 1244 3997 1151 3903 
Q 1059 3809 928 3809 
Q 797 3809 703 3903 
Q 609 3997 609 4128 
Q 609 4259 701 4351 
Q 794 4444 928 4444 
z
M 1188 2947 
L 1188 647 
Q 1188 378 1227 289 
Q 1266 200 1342 156 
Q 1419 113 1622 113 
L 1622 0 
L 231 0 
L 231 113 
Q 441 113 512 153 
Q 584 194 626 287 
Q 669 381 669 647 
L 669 1750 
Q 669 2216 641 2353 
Q 619 2453 572 2492 
Q 525 2531 444 2531 
Q 356 2531 231 2484 
L 188 2597 
L 1050 2947 
L 1188 2947 
z
" transform="scale(0.015625)"/>
       <path id="TimesNewRomanPSMT-73" d="M 2050 2947 
L 2050 1972 
L 1947 1972 
Q 1828 2431 1642 2597 
Q 1456 2763 1169 2763 
Q 950 2763 815 2647 
Q 681 2531 681 2391 
Q 681 2216 781 2091 
Q 878 1963 1175 1819 
L 1631 1597 
Q 2266 1288 2266 781 
Q 2266 391 1970 151 
Q 1675 -88 1309 -88 
Q 1047 -88 709 6 
Q 606 38 541 38 
Q 469 38 428 -44 
L 325 -44 
L 325 978 
L 428 978 
Q 516 541 762 319 
Q 1009 97 1316 97 
Q 1531 97 1667 223 
Q 1803 350 1803 528 
Q 1803 744 1651 891 
Q 1500 1038 1047 1263 
Q 594 1488 453 1669 
Q 313 1847 313 2119 
Q 313 2472 555 2709 
Q 797 2947 1181 2947 
Q 1350 2947 1591 2875 
Q 1750 2828 1803 2828 
Q 1853 2828 1881 2850 
Q 1909 2872 1947 2947 
L 2050 2947 
z
" transform="scale(0.015625)"/>
       <path id="TimesNewRomanPSMT-70" d="M -6 2578 
L 875 2934 
L 994 2934 
L 994 2266 
Q 1216 2644 1439 2795 
Q 1663 2947 1909 2947 
Q 2341 2947 2628 2609 
Q 2981 2197 2981 1534 
Q 2981 794 2556 309 
Q 2206 -88 1675 -88 
Q 1444 -88 1275 -22 
Q 1150 25 994 166 
L 994 -706 
Q 994 -1000 1030 -1079 
Q 1066 -1159 1155 -1206 
Q 1244 -1253 1478 -1253 
L 1478 -1369 
L -22 -1369 
L -22 -1253 
L 56 -1253 
Q 228 -1256 350 -1188 
Q 409 -1153 442 -1076 
Q 475 -1000 475 -688 
L 475 2019 
Q 475 2297 450 2372 
Q 425 2447 370 2484 
Q 316 2522 222 2522 
Q 147 2522 31 2478 
L -6 2578 
z
M 994 2081 
L 994 1013 
Q 994 666 1022 556 
Q 1066 375 1236 237 
Q 1406 100 1666 100 
Q 1978 100 2172 344 
Q 2425 663 2425 1241 
Q 2425 1897 2138 2250 
Q 1938 2494 1663 2494 
Q 1513 2494 1366 2419 
Q 1253 2363 994 2081 
z
" transform="scale(0.015625)"/>
       <path id="TimesNewRomanPSMT-6c" d="M 1184 4444 
L 1184 647 
Q 1184 378 1223 290 
Q 1263 203 1344 158 
Q 1425 113 1647 113 
L 1647 0 
L 244 0 
L 244 113 
Q 441 113 512 153 
Q 584 194 625 287 
Q 666 381 666 647 
L 666 3247 
Q 666 3731 644 3842 
Q 622 3953 573 3993 
Q 525 4034 450 4034 
Q 369 4034 244 3984 
L 191 4094 
L 1044 4444 
L 1184 4444 
z
" transform="scale(0.015625)"/>
       <path id="TimesNewRomanPSMT-61" d="M 1822 413 
Q 1381 72 1269 19 
Q 1100 -59 909 -59 
Q 613 -59 420 144 
Q 228 347 228 678 
Q 228 888 322 1041 
Q 450 1253 767 1440 
Q 1084 1628 1822 1897 
L 1822 2009 
Q 1822 2438 1686 2597 
Q 1550 2756 1291 2756 
Q 1094 2756 978 2650 
Q 859 2544 859 2406 
L 866 2225 
Q 866 2081 792 2003 
Q 719 1925 600 1925 
Q 484 1925 411 2006 
Q 338 2088 338 2228 
Q 338 2497 613 2722 
Q 888 2947 1384 2947 
Q 1766 2947 2009 2819 
Q 2194 2722 2281 2516 
Q 2338 2381 2338 1966 
L 2338 994 
Q 2338 584 2353 492 
Q 2369 400 2405 369 
Q 2441 338 2488 338 
Q 2538 338 2575 359 
Q 2641 400 2828 588 
L 2828 413 
Q 2478 -56 2159 -56 
Q 2006 -56 1915 50 
Q 1825 156 1822 413 
z
M 1822 616 
L 1822 1706 
Q 1350 1519 1213 1441 
Q 966 1303 859 1153 
Q 753 1003 753 825 
Q 753 600 887 451 
Q 1022 303 1197 303 
Q 1434 303 1822 616 
z
" transform="scale(0.015625)"/>
       <path id="TimesNewRomanPSMT-63" d="M 2631 1088 
Q 2516 522 2178 217 
Q 1841 -88 1431 -88 
Q 944 -88 581 321 
Q 219 731 219 1428 
Q 219 2103 620 2525 
Q 1022 2947 1584 2947 
Q 2006 2947 2278 2723 
Q 2550 2500 2550 2259 
Q 2550 2141 2473 2067 
Q 2397 1994 2259 1994 
Q 2075 1994 1981 2113 
Q 1928 2178 1911 2362 
Q 1894 2547 1784 2644 
Q 1675 2738 1481 2738 
Q 1169 2738 978 2506 
Q 725 2200 725 1697 
Q 725 1184 976 792 
Q 1228 400 1656 400 
Q 1963 400 2206 609 
Q 2378 753 2541 1131 
L 2631 1088 
z
" transform="scale(0.015625)"/>
       <path id="TimesNewRomanPSMT-65" d="M 681 1784 
Q 678 1147 991 784 
Q 1303 422 1725 422 
Q 2006 422 2214 576 
Q 2422 731 2563 1106 
L 2659 1044 
Q 2594 616 2278 264 
Q 1963 -88 1488 -88 
Q 972 -88 605 314 
Q 238 716 238 1394 
Q 238 2128 614 2539 
Q 991 2950 1559 2950 
Q 2041 2950 2350 2633 
Q 2659 2316 2659 1784 
L 681 1784 
z
M 681 1966 
L 2006 1966 
Q 1991 2241 1941 2353 
Q 1863 2528 1708 2628 
Q 1553 2728 1384 2728 
Q 1125 2728 920 2526 
Q 716 2325 681 1966 
z
" transform="scale(0.015625)"/>
       <path id="TimesNewRomanPSMT-6d" d="M 1050 2338 
Q 1363 2650 1419 2697 
Q 1559 2816 1721 2881 
Q 1884 2947 2044 2947 
Q 2313 2947 2506 2790 
Q 2700 2634 2766 2338 
Q 3088 2713 3309 2830 
Q 3531 2947 3766 2947 
Q 3994 2947 4170 2830 
Q 4347 2713 4450 2447 
Q 4519 2266 4519 1878 
L 4519 647 
Q 4519 378 4559 278 
Q 4591 209 4675 161 
Q 4759 113 4950 113 
L 4950 0 
L 3538 0 
L 3538 113 
L 3597 113 
Q 3781 113 3884 184 
Q 3956 234 3988 344 
Q 4000 397 4000 647 
L 4000 1878 
Q 4000 2228 3916 2372 
Q 3794 2572 3525 2572 
Q 3359 2572 3192 2489 
Q 3025 2406 2788 2181 
L 2781 2147 
L 2788 2013 
L 2788 647 
Q 2788 353 2820 281 
Q 2853 209 2943 161 
Q 3034 113 3253 113 
L 3253 0 
L 1806 0 
L 1806 113 
Q 2044 113 2133 169 
Q 2222 225 2256 338 
Q 2272 391 2272 647 
L 2272 1878 
Q 2272 2228 2169 2381 
Q 2031 2581 1784 2581 
Q 1616 2581 1450 2491 
Q 1191 2353 1050 2181 
L 1050 647 
Q 1050 366 1089 281 
Q 1128 197 1204 155 
Q 1281 113 1516 113 
L 1516 0 
L 100 0 
L 100 113 
Q 297 113 375 155 
Q 453 197 493 289 
Q 534 381 534 647 
L 534 1741 
Q 534 2213 506 2350 
Q 484 2453 437 2492 
Q 391 2531 309 2531 
Q 222 2531 100 2484 
L 53 2597 
L 916 2947 
L 1050 2947 
L 1050 2338 
z
" transform="scale(0.015625)"/>
       <path id="TimesNewRomanPSMT-6e" d="M 1034 2341 
Q 1538 2947 1994 2947 
Q 2228 2947 2397 2830 
Q 2566 2713 2666 2444 
Q 2734 2256 2734 1869 
L 2734 647 
Q 2734 375 2778 278 
Q 2813 200 2889 156 
Q 2966 113 3172 113 
L 3172 0 
L 1756 0 
L 1756 113 
L 1816 113 
Q 2016 113 2095 173 
Q 2175 234 2206 353 
Q 2219 400 2219 647 
L 2219 1819 
Q 2219 2209 2117 2386 
Q 2016 2563 1775 2563 
Q 1403 2563 1034 2156 
L 1034 647 
Q 1034 356 1069 288 
Q 1113 197 1189 155 
Q 1266 113 1500 113 
L 1500 0 
L 84 0 
L 84 113 
L 147 113 
Q 366 113 442 223 
Q 519 334 519 647 
L 519 1709 
Q 519 2225 495 2337 
Q 472 2450 423 2490 
Q 375 2531 294 2531 
Q 206 2531 84 2484 
L 38 2597 
L 900 2947 
L 1034 2947 
L 1034 2341 
z
" transform="scale(0.015625)"/>
       <path id="TimesNewRomanPSMT-74" d="M 1031 3803 
L 1031 2863 
L 1700 2863 
L 1700 2644 
L 1031 2644 
L 1031 788 
Q 1031 509 1111 412 
Q 1191 316 1316 316 
Q 1419 316 1516 380 
Q 1613 444 1666 569 
L 1788 569 
Q 1678 263 1478 108 
Q 1278 -47 1066 -47 
Q 922 -47 784 33 
Q 647 113 581 261 
Q 516 409 516 719 
L 516 2644 
L 63 2644 
L 63 2747 
Q 234 2816 414 2980 
Q 594 3144 734 3369 
Q 806 3488 934 3803 
L 1031 3803 
z
" transform="scale(0.015625)"/>
       <path id="TimesNewRomanPSMT-20" transform="scale(0.015625)"/>
       <path id="TimesNewRomanPSMT-28" d="M 1988 -1253 
L 1988 -1369 
Q 1516 -1131 1200 -813 
Q 750 -359 506 256 
Q 263 872 263 1534 
Q 263 2503 741 3301 
Q 1219 4100 1988 4444 
L 1988 4313 
Q 1603 4100 1356 3731 
Q 1109 3363 987 2797 
Q 866 2231 866 1616 
Q 866 947 969 400 
Q 1050 -31 1165 -292 
Q 1281 -553 1476 -793 
Q 1672 -1034 1988 -1253 
z
" transform="scale(0.015625)"/>
       <path id="TimesNewRomanPSMT-29" d="M 144 4313 
L 144 4444 
Q 619 4209 934 3891 
Q 1381 3434 1625 2820 
Q 1869 2206 1869 1541 
Q 1869 572 1392 -226 
Q 916 -1025 144 -1369 
L 144 -1253 
Q 528 -1038 776 -670 
Q 1025 -303 1145 264 
Q 1266 831 1266 1447 
Q 1266 2113 1163 2663 
Q 1084 3094 967 3353 
Q 850 3613 656 3853 
Q 463 4094 144 4313 
z
" transform="scale(0.015625)"/>
      </defs>
      <use xlink:href="#TimesNewRomanPSMT-44"/>
      <use xlink:href="#TimesNewRomanPSMT-69" x="72.216797"/>
      <use xlink:href="#TimesNewRomanPSMT-73" x="100"/>
      <use xlink:href="#TimesNewRomanPSMT-70" x="138.916016"/>
      <use xlink:href="#TimesNewRomanPSMT-6c" x="188.916016"/>
      <use xlink:href="#TimesNewRomanPSMT-61" x="216.699219"/>
      <use xlink:href="#TimesNewRomanPSMT-63" x="261.083984"/>
      <use xlink:href="#TimesNewRomanPSMT-65" x="305.46875"/>
      <use xlink:href="#TimesNewRomanPSMT-6d" x="349.853516"/>
      <use xlink:href="#TimesNewRomanPSMT-65" x="427.636719"/>
      <use xlink:href="#TimesNewRomanPSMT-6e" x="472.021484"/>
      <use xlink:href="#TimesNewRomanPSMT-74" x="522.021484"/>
      <use xlink:href="#TimesNewRomanPSMT-20" x="549.804688"/>
      <use xlink:href="#TimesNewRomanPSMT-28" x="574.804688"/>
      <use xlink:href="#TimesNewRomanPSMT-6d" x="608.105469"/>
      <use xlink:href="#TimesNewRomanPSMT-6d" x="685.888672"/>
      <use xlink:href="#TimesNewRomanPSMT-29" x="763.671875"/>
     </g>
    </g>
   </g>
   <g id="matplotlib.axis_2">
    <g id="ytick_1">
     <g id="line2d_7">
      <path d="M 49.432813 237.878953 
L 272.252813 237.878953 
" clip-path="url(#p2beedaf4bd)" style="fill: none; stroke-dasharray: 0.8,1.32; stroke-dashoffset: 0; stroke: #b0b0b0; stroke-width: 0.8"/>
     </g>
     <g id="line2d_8">
      <defs>
       <path id="mbacd641420" d="M 0 0 
L -3.5 0 
" style="stroke: #000000; stroke-width: 0.8"/>
      </defs>
      <g>
       <use xlink:href="#mbacd641420" x="49.432813" y="237.878953" style="stroke: #000000; stroke-width: 0.8"/>
      </g>
     </g>
     <g id="text_5">
      <!-- −150 -->
      <g transform="translate(20.282813 241.372703) scale(0.1 -0.1)">
       <defs>
        <path id="Cambria-31" d="M 2172 816 
Q 2172 634 2192 542 
Q 2213 450 2264 392 
Q 2316 334 2412 301 
Q 2509 269 2656 251 
Q 2803 234 3044 228 
L 3044 0 
L 734 0 
L 734 228 
Q 1081 244 1229 270 
Q 1378 297 1456 350 
Q 1534 403 1570 500 
Q 1606 597 1606 816 
L 1606 3350 
Q 1606 3475 1562 3533 
Q 1519 3591 1434 3591 
Q 1334 3591 1150 3487 
Q 966 3384 694 3203 
L 556 3444 
L 2019 4316 
L 2191 4316 
Q 2172 4016 2172 3484 
L 2172 816 
z
" transform="scale(0.015625)"/>
       </defs>
       <use xlink:href="#Cambria-2212"/>
       <use xlink:href="#Cambria-31" x="55.371094"/>
       <use xlink:href="#Cambria-35" x="110.742188"/>
       <use xlink:href="#Cambria-30" x="166.113281"/>
      </g>
     </g>
    </g>
    <g id="ytick_2">
     <g id="line2d_9">
      <path d="M 49.432813 204.77126 
L 272.252813 204.77126 
" clip-path="url(#p2beedaf4bd)" style="fill: none; stroke-dasharray: 0.8,1.32; stroke-dashoffset: 0; stroke: #b0b0b0; stroke-width: 0.8"/>
     </g>
     <g id="line2d_10">
      <g>
       <use xlink:href="#mbacd641420" x="49.432813" y="204.77126" style="stroke: #000000; stroke-width: 0.8"/>
      </g>
     </g>
     <g id="text_6">
      <!-- −100 -->
      <g transform="translate(20.282813 208.26501) scale(0.1 -0.1)">
       <use xlink:href="#Cambria-2212"/>
       <use xlink:href="#Cambria-31" x="55.371094"/>
       <use xlink:href="#Cambria-30" x="110.742188"/>
       <use xlink:href="#Cambria-30" x="166.113281"/>
      </g>
     </g>
    </g>
    <g id="ytick_3">
     <g id="line2d_11">
      <path d="M 49.432813 171.663567 
L 272.252813 171.663567 
" clip-path="url(#p2beedaf4bd)" style="fill: none; stroke-dasharray: 0.8,1.32; stroke-dashoffset: 0; stroke: #b0b0b0; stroke-width: 0.8"/>
     </g>
     <g id="line2d_12">
      <g>
       <use xlink:href="#mbacd641420" x="49.432813" y="171.663567" style="stroke: #000000; stroke-width: 0.8"/>
      </g>
     </g>
     <g id="text_7">
      <!-- −50 -->
      <g transform="translate(25.820313 175.157317) scale(0.1 -0.1)">
       <use xlink:href="#Cambria-2212"/>
       <use xlink:href="#Cambria-35" x="55.371094"/>
       <use xlink:href="#Cambria-30" x="110.742188"/>
      </g>
     </g>
    </g>
    <g id="ytick_4">
     <g id="line2d_13">
      <path d="M 49.432813 138.555874 
L 272.252813 138.555874 
" clip-path="url(#p2beedaf4bd)" style="fill: none; stroke-dasharray: 0.8,1.32; stroke-dashoffset: 0; stroke: #b0b0b0; stroke-width: 0.8"/>
     </g>
     <g id="line2d_14">
      <g>
       <use xlink:href="#mbacd641420" x="49.432813" y="138.555874" style="stroke: #000000; stroke-width: 0.8"/>
      </g>
     </g>
     <g id="text_8">
      <!-- 0 -->
      <g transform="translate(36.895313 142.049624) scale(0.1 -0.1)">
       <use xlink:href="#Cambria-30"/>
      </g>
     </g>
    </g>
    <g id="ytick_5">
     <g id="line2d_15">
      <path d="M 49.432813 105.448181 
L 272.252813 105.448181 
" clip-path="url(#p2beedaf4bd)" style="fill: none; stroke-dasharray: 0.8,1.32; stroke-dashoffset: 0; stroke: #b0b0b0; stroke-width: 0.8"/>
     </g>
     <g id="line2d_16">
      <g>
       <use xlink:href="#mbacd641420" x="49.432813" y="105.448181" style="stroke: #000000; stroke-width: 0.8"/>
      </g>
     </g>
     <g id="text_9">
      <!-- 50 -->
      <g transform="translate(31.357813 108.941931) scale(0.1 -0.1)">
       <use xlink:href="#Cambria-35"/>
       <use xlink:href="#Cambria-30" x="55.371094"/>
      </g>
     </g>
    </g>
    <g id="ytick_6">
     <g id="line2d_17">
      <path d="M 49.432813 72.340488 
L 272.252813 72.340488 
" clip-path="url(#p2beedaf4bd)" style="fill: none; stroke-dasharray: 0.8,1.32; stroke-dashoffset: 0; stroke: #b0b0b0; stroke-width: 0.8"/>
     </g>
     <g id="line2d_18">
      <g>
       <use xlink:href="#mbacd641420" x="49.432813" y="72.340488" style="stroke: #000000; stroke-width: 0.8"/>
      </g>
     </g>
     <g id="text_10">
      <!-- 100 -->
      <g transform="translate(25.820313 75.834238) scale(0.1 -0.1)">
       <use xlink:href="#Cambria-31"/>
       <use xlink:href="#Cambria-30" x="55.371094"/>
       <use xlink:href="#Cambria-30" x="110.742188"/>
      </g>
     </g>
    </g>
    <g id="ytick_7">
     <g id="line2d_19">
      <path d="M 49.432813 39.232796 
L 272.252813 39.232796 
" clip-path="url(#p2beedaf4bd)" style="fill: none; stroke-dasharray: 0.8,1.32; stroke-dashoffset: 0; stroke: #b0b0b0; stroke-width: 0.8"/>
     </g>
     <g id="line2d_20">
      <g>
       <use xlink:href="#mbacd641420" x="49.432813" y="39.232796" style="stroke: #000000; stroke-width: 0.8"/>
      </g>
     </g>
     <g id="text_11">
      <!-- 150 -->
      <g transform="translate(25.820313 42.726546) scale(0.1 -0.1)">
       <use xlink:href="#Cambria-31"/>
       <use xlink:href="#Cambria-35" x="55.371094"/>
       <use xlink:href="#Cambria-30" x="110.742188"/>
      </g>
     </g>
    </g>
    <g id="text_12">
     <!-- Base Shear (kN) -->
     <g transform="translate(14.14375 171.319063) rotate(-90) scale(0.1 -0.1)">
      <defs>
       <path id="TimesNewRomanPSMT-42" d="M 2956 2163 
Q 3397 2069 3616 1863 
Q 3919 1575 3919 1159 
Q 3919 844 3719 555 
Q 3519 266 3170 133 
Q 2822 0 2106 0 
L 106 0 
L 106 116 
L 266 116 
Q 531 116 647 284 
Q 719 394 719 750 
L 719 3488 
Q 719 3881 628 3984 
Q 506 4122 266 4122 
L 106 4122 
L 106 4238 
L 1938 4238 
Q 2450 4238 2759 4163 
Q 3228 4050 3475 3764 
Q 3722 3478 3722 3106 
Q 3722 2788 3528 2536 
Q 3334 2284 2956 2163 
z
M 1319 2331 
Q 1434 2309 1582 2298 
Q 1731 2288 1909 2288 
Q 2366 2288 2595 2386 
Q 2825 2484 2947 2687 
Q 3069 2891 3069 3131 
Q 3069 3503 2766 3765 
Q 2463 4028 1881 4028 
Q 1569 4028 1319 3959 
L 1319 2331 
z
M 1319 306 
Q 1681 222 2034 222 
Q 2600 222 2897 476 
Q 3194 731 3194 1106 
Q 3194 1353 3059 1581 
Q 2925 1809 2622 1940 
Q 2319 2072 1872 2072 
Q 1678 2072 1540 2065 
Q 1403 2059 1319 2044 
L 1319 306 
z
" transform="scale(0.015625)"/>
       <path id="TimesNewRomanPSMT-53" d="M 2934 4334 
L 2934 2869 
L 2819 2869 
Q 2763 3291 2617 3541 
Q 2472 3791 2203 3937 
Q 1934 4084 1647 4084 
Q 1322 4084 1109 3886 
Q 897 3688 897 3434 
Q 897 3241 1031 3081 
Q 1225 2847 1953 2456 
Q 2547 2138 2764 1967 
Q 2981 1797 3098 1565 
Q 3216 1334 3216 1081 
Q 3216 600 2842 251 
Q 2469 -97 1881 -97 
Q 1697 -97 1534 -69 
Q 1438 -53 1133 45 
Q 828 144 747 144 
Q 669 144 623 97 
Q 578 50 556 -97 
L 441 -97 
L 441 1356 
L 556 1356 
Q 638 900 775 673 
Q 913 447 1195 297 
Q 1478 147 1816 147 
Q 2206 147 2432 353 
Q 2659 559 2659 841 
Q 2659 997 2573 1156 
Q 2488 1316 2306 1453 
Q 2184 1547 1640 1851 
Q 1097 2156 867 2337 
Q 638 2519 519 2737 
Q 400 2956 400 3219 
Q 400 3675 750 4004 
Q 1100 4334 1641 4334 
Q 1978 4334 2356 4169 
Q 2531 4091 2603 4091 
Q 2684 4091 2736 4139 
Q 2788 4188 2819 4334 
L 2934 4334 
z
" transform="scale(0.015625)"/>
       <path id="TimesNewRomanPSMT-68" d="M 1041 4444 
L 1041 2350 
Q 1388 2731 1591 2839 
Q 1794 2947 1997 2947 
Q 2241 2947 2416 2812 
Q 2591 2678 2675 2391 
Q 2734 2191 2734 1659 
L 2734 647 
Q 2734 375 2778 275 
Q 2809 200 2884 156 
Q 2959 113 3159 113 
L 3159 0 
L 1753 0 
L 1753 113 
L 1819 113 
Q 2019 113 2097 173 
Q 2175 234 2206 353 
Q 2216 403 2216 647 
L 2216 1659 
Q 2216 2128 2167 2275 
Q 2119 2422 2012 2495 
Q 1906 2569 1756 2569 
Q 1603 2569 1437 2487 
Q 1272 2406 1041 2159 
L 1041 647 
Q 1041 353 1073 281 
Q 1106 209 1195 161 
Q 1284 113 1503 113 
L 1503 0 
L 84 0 
L 84 113 
Q 275 113 384 172 
Q 447 203 484 290 
Q 522 378 522 647 
L 522 3238 
Q 522 3728 498 3840 
Q 475 3953 426 3993 
Q 378 4034 297 4034 
Q 231 4034 84 3984 
L 41 4094 
L 897 4444 
L 1041 4444 
z
" transform="scale(0.015625)"/>
       <path id="TimesNewRomanPSMT-72" d="M 1038 2947 
L 1038 2303 
Q 1397 2947 1775 2947 
Q 1947 2947 2059 2842 
Q 2172 2738 2172 2600 
Q 2172 2478 2090 2393 
Q 2009 2309 1897 2309 
Q 1788 2309 1652 2417 
Q 1516 2525 1450 2525 
Q 1394 2525 1328 2463 
Q 1188 2334 1038 2041 
L 1038 669 
Q 1038 431 1097 309 
Q 1138 225 1241 169 
Q 1344 113 1538 113 
L 1538 0 
L 72 0 
L 72 113 
Q 291 113 397 181 
Q 475 231 506 341 
Q 522 394 522 644 
L 522 1753 
Q 522 2253 501 2348 
Q 481 2444 426 2487 
Q 372 2531 291 2531 
Q 194 2531 72 2484 
L 41 2597 
L 906 2947 
L 1038 2947 
z
" transform="scale(0.015625)"/>
       <path id="TimesNewRomanPSMT-6b" d="M 1047 4444 
L 1047 1597 
L 1775 2259 
Q 2006 2472 2044 2528 
Q 2069 2566 2069 2603 
Q 2069 2666 2017 2711 
Q 1966 2756 1847 2763 
L 1847 2863 
L 3091 2863 
L 3091 2763 
Q 2834 2756 2664 2684 
Q 2494 2613 2291 2428 
L 1556 1750 
L 2291 822 
Q 2597 438 2703 334 
Q 2853 188 2966 144 
Q 3044 113 3238 113 
L 3238 0 
L 1847 0 
L 1847 113 
Q 1966 116 2008 148 
Q 2050 181 2050 241 
Q 2050 313 1925 472 
L 1047 1594 
L 1047 644 
Q 1047 366 1086 278 
Q 1125 191 1197 153 
Q 1269 116 1509 113 
L 1509 0 
L 53 0 
L 53 113 
Q 272 113 381 166 
Q 447 200 481 272 
Q 528 375 528 628 
L 528 3234 
Q 528 3731 506 3842 
Q 484 3953 434 3995 
Q 384 4038 303 4038 
Q 238 4038 106 3984 
L 53 4094 
L 903 4444 
L 1047 4444 
z
" transform="scale(0.015625)"/>
       <path id="TimesNewRomanPSMT-4e" d="M -84 4238 
L 1066 4238 
L 3656 1059 
L 3656 3503 
Q 3656 3894 3569 3991 
Q 3453 4122 3203 4122 
L 3056 4122 
L 3056 4238 
L 4531 4238 
L 4531 4122 
L 4381 4122 
Q 4113 4122 4000 3959 
Q 3931 3859 3931 3503 
L 3931 -69 
L 3819 -69 
L 1025 3344 
L 1025 734 
Q 1025 344 1109 247 
Q 1228 116 1475 116 
L 1625 116 
L 1625 0 
L 150 0 
L 150 116 
L 297 116 
Q 569 116 681 278 
Q 750 378 750 734 
L 750 3681 
Q 566 3897 470 3965 
Q 375 4034 191 4094 
Q 100 4122 -84 4122 
L -84 4238 
z
" transform="scale(0.015625)"/>
      </defs>
      <use xlink:href="#TimesNewRomanPSMT-42"/>
      <use xlink:href="#TimesNewRomanPSMT-61" x="66.699219"/>
      <use xlink:href="#TimesNewRomanPSMT-73" x="111.083984"/>
      <use xlink:href="#TimesNewRomanPSMT-65" x="150"/>
      <use xlink:href="#TimesNewRomanPSMT-20" x="194.384766"/>
      <use xlink:href="#TimesNewRomanPSMT-53" x="219.384766"/>
      <use xlink:href="#TimesNewRomanPSMT-68" x="275"/>
      <use xlink:href="#TimesNewRomanPSMT-65" x="325"/>
      <use xlink:href="#TimesNewRomanPSMT-61" x="369.384766"/>
      <use xlink:href="#TimesNewRomanPSMT-72" x="413.769531"/>
      <use xlink:href="#TimesNewRomanPSMT-20" x="447.070312"/>
      <use xlink:href="#TimesNewRomanPSMT-28" x="472.070312"/>
      <use xlink:href="#TimesNewRomanPSMT-6b" x="505.371094"/>
      <use xlink:href="#TimesNewRomanPSMT-4e" x="555.371094"/>
      <use xlink:href="#TimesNewRomanPSMT-29" x="627.587891"/>
     </g>
    </g>
   </g>
   <g id="line2d_21">
    <path d="M 159.361577 139.283088 
L 161.337692 124.738598 
L 162.325901 113.102993 
L 163.31411 102.921847 
L 165.784179 94.922402 
L 166.278435 92.013486 
L 167.760597 102.194632 
L 168.25455 112.375779 
L 162.819854 131.283614 
L 159.361577 139.283088 
L 157.385461 155.282037 
L 152.938975 183.643805 
L 153.432928 167.644856 
L 155.903299 153.827579 
L 158.373367 142.919219 
L 160.349786 130.5564 
L 163.31411 105.830762 
L 166.772388 96.37683 
L 167.266341 105.103548 
L 166.772388 118.193581 
L 163.31411 129.829186 
L 160.349786 140.737546 
L 157.879414 156.009281 
L 156.891205 169.826528 
L 153.926881 177.098788 
L 153.432928 180.734918 
L 152.444718 171.280986 
L 155.903299 157.463709 
L 158.867624 139.283088 
L 162.325901 118.920795 
L 164.796273 105.103548 
L 167.760597 91.286272 
L 170.724922 81.832339 
L 173.19499 75.287323 
L 176.159314 68.742306 
L 174.677152 80.377881 
L 172.701037 93.467944 
L 169.736712 102.194632 
L 165.290226 109.466892 
L 163.31411 118.920795 
L 159.85553 134.19253 
L 157.385461 149.464235 
L 155.903299 166.917642 
L 152.938975 181.462133 
L 150.468603 190.188821 
L 148.986441 196.733867 
L 146.022117 203.278884 
L 144.539954 209.096686 
L 141.57563 212.005572 
L 142.563839 204.006098 
L 144.539954 191.643279 
L 149.97465 168.3721 
L 152.444718 154.554823 
L 162.325901 119.648039 
L 168.25455 97.104074 
L 172.701037 85.468469 
L 176.159314 75.287323 
L 174.677152 86.922927 
L 170.724922 99.285746 
L 167.760597 109.466892 
L 165.784179 124.738598 
L 159.361577 148.737021 
L 154.421137 169.826528 
L 149.480394 180.734918 
L 146.022117 190.188821 
L 144.539954 199.642754 
L 142.069886 206.915014 
L 145.528164 190.916065 
L 147.504279 179.28046 
L 149.480394 168.3721 
L 151.950765 158.190953 
L 156.397252 144.373676 
L 160.349786 131.283614 
L 164.302016 106.557977 
L 171.218875 89.104599 
L 175.665361 75.287323 
L 179.617592 65.83339 
L 183.570125 57.833916 
L 187.028403 53.470572 
L 185.546241 63.651718 
L 184.558335 76.014537 
L 181.59401 86.195683 
L 176.653267 94.195158 
L 172.701037 108.012435 
L 168.748503 119.648039 
L 164.796273 133.465286 
L 158.867624 146.555349 
L 155.409043 166.190427 
L 150.962556 177.098788 
L 147.010326 187.279935 
L 144.046001 202.551669 
L 140.587724 211.278358 
L 137.623399 217.823374 
L 134.659075 222.913962 
L 130.706541 226.550063 
L 132.682656 216.368917 
L 136.63519 201.097211 
L 140.587724 186.552721 
L 145.033907 173.462658 
L 149.97465 158.190953 
L 154.421137 143.646462 
L 160.349786 126.193055 
L 165.784179 106.557977 
L 171.218875 95.649616 
L 177.641476 79.650667 
L 181.59401 72.378407 
L 184.064078 65.106176 
L 188.016612 57.106702 
L 184.558335 71.651193 
L 183.570125 81.105125 
L 178.135429 91.286272 
L 173.689246 102.921847 
L 169.242759 119.648039 
L 158.373367 145.100891 
L 156.397252 159.645382 
L 150.468603 178.553246 
L 143.552048 193.097737 
L 140.587724 204.733342 
L 137.129143 209.8239 
L 134.659075 218.550589 
L 133.176913 221.459505 
L 140.093468 190.188821 
L 145.528164 174.917116 
L 149.480394 161.827054 
L 153.926881 144.373676 
L 160.843739 120.375253 
L 170.230665 100.01296 
L 179.617592 76.014537 
L 184.558335 60.742832 
L 189.004821 53.470572 
L 192.957052 49.834442 
L 194.93347 47.652769 
L 198.391748 48.380013 
L 196.909586 56.379488 
L 193.945261 68.015063 
L 189.004821 81.105125 
L 186.53445 88.377356 
L 182.581916 97.831288 
L 179.123639 107.28522 
L 172.701037 121.102467 
L 168.748503 133.465286 
L 165.290226 145.828134 
L 163.31411 150.191479 
L 160.843739 153.827579 
L 155.409043 167.644856 
L 146.022117 186.552721 
L 144.539954 197.461081 
L 139.105562 212.732786 
L 133.670866 222.913962 
L 131.200494 225.095635 
L 126.754008 228.731735 
L 123.29573 229.458979 
L 120.331406 229.458979 
L 122.801777 220.005047 
L 125.766102 206.915014 
L 130.706541 193.097737 
L 134.659075 180.734918 
L 139.105562 169.826528 
L 144.046001 158.190953 
L 148.492488 146.555349 
L 151.950765 134.919744 
L 156.891205 127.647513 
L 161.831948 116.739123 
L 169.736712 103.64909 
L 175.171408 91.286272 
L 181.59401 80.377881 
L 187.028403 68.015063 
L 190.980937 60.015588 
L 194.93347 54.197786 
L 196.909586 50.561685 
L 197.897795 65.106176 
L 195.427423 77.468995 
L 192.463099 85.468469 
L 188.510565 94.195158 
L 183.570125 102.921847 
L 176.653267 122.556925 
L 171.218875 134.919744 
L 155.409043 164.73597 
L 144.539954 186.552721 
L 137.129143 196.733867 
L 126.260055 211.278358 
L 123.29573 213.46003 
L 123.789683 204.006098 
L 128.730426 188.007149 
L 132.682656 175.64433 
L 142.563839 155.282037 
L 146.022117 145.100891 
L 150.962556 135.646988 
L 155.903299 129.101942 
L 159.85553 122.556925 
L 163.808063 111.648565 
L 172.701037 97.104074 
L 179.123639 83.286797 
L 184.558335 73.832865 
L 189.992727 61.470046 
L 195.427423 53.470572 
L 201.356072 46.925555 
L 208.766883 44.743883 
L 213.707323 44.016639 
L 218.15381 46.198341 
L 216.671648 57.106702 
L 212.719114 69.46952 
L 207.778674 78.923453 
L 204.81435 90.559028 
L 197.403539 102.921847 
L 190.486984 118.920795 
L 183.076172 130.5564 
L 177.641476 140.737546 
L 170.230665 150.918693 
L 162.819854 159.645382 
L 157.385461 167.644856 
L 150.962556 178.553246 
L 142.563839 192.370493 
L 135.646981 205.460556 
L 128.730426 217.09616 
L 123.789683 225.095635 
L 117.861034 231.640651 
L 109.462317 236.003995 
L 103.039715 236.73121 
L 100.075391 235.276781 
L 100.569344 225.095635 
L 105.509783 214.914488 
L 110.944479 202.551669 
L 116.378872 187.279935 
L 122.307521 174.189902 
L 133.176913 150.918693 
L 145.033907 129.829186 
L 153.926881 120.375253 
L 163.31411 110.194107 
L 188.016612 75.287323 
L 193.945261 68.742306 
L 200.862119 58.56116 
L 206.790465 52.743357 
L 210.742999 49.107227 
L 219.142019 43.289425 
L 217.165601 56.379488 
L 212.719114 70.196735 
L 208.272627 82.559553 
L 200.367863 97.104074 
L 195.921376 110.194107 
L 189.498774 121.102467 
L 182.581916 134.19253 
L 174.677152 145.828134 
L 167.266341 156.009281 
L 158.373367 165.463184 
L 132.188703 204.006098 
L 123.29573 213.46003 
L 116.378872 223.641177 
L 108.968364 230.913407 
L 103.039715 234.549537 
L 103.533668 222.913962 
L 107.980155 206.915014 
L 112.920594 191.643279 
L 130.212588 151.645907 
L 135.153028 142.192004 
L 141.57563 134.19253 
L 150.962556 124.738598 
L 161.337692 116.011909 
L 167.266341 100.740174 
L 190.980937 70.923978 
L 198.391748 60.742832 
L 205.802559 54.92503 
L 212.225161 47.652769 
L 219.635972 41.834967 
L 227.046783 37.471623 
L 234.457594 36.017165 
L 239.398034 39.653295 
L 234.951547 54.92503 
L 230.011108 66.560634 
L 226.55283 80.377881 
L 219.635972 92.013486 
L 212.225161 108.739649 
L 205.308606 118.920795 
L 196.909586 134.19253 
L 188.016612 143.646462 
L 183.076172 149.464235 
L 178.135429 153.827579 
L 170.230665 159.645382 
L 162.819854 166.917642 
L 152.444718 176.371574 
L 140.587724 191.643279 
L 133.670866 202.551669 
L 123.29573 214.187244 
L 112.426641 225.822849 
L 105.509783 232.367865 
L 97.111066 238.185668 
L 87.723836 238.912882 
L 81.795491 238.912882 
L 82.783397 228.004521 
L 90.688161 204.733342 
L 94.640695 191.643279 
L 99.581134 181.462133 
L 107.486202 169.099314 
L 114.402757 156.736495 
L 121.319615 145.828134 
L 127.742217 137.101416 
L 135.153028 128.374728 
L 144.539954 122.556925 
L 152.938975 116.011909 
L 161.831948 109.466892 
L 171.712828 99.285746 
L 183.076172 89.104599 
L 190.486984 75.287323 
L 200.367863 65.106176 
L 209.260836 56.379488 
L 216.671648 50.561685 
L 225.070668 44.743883 
L 233.469385 38.198867 
L 240.386243 35.289951 
L 248.291007 33.108279 
L 255.701819 32.381064 
L 262.124421 32.381064 
L 259.160096 43.289425 
L 255.701819 54.92503 
L 251.749285 64.378962 
L 249.279217 73.105651 
L 243.350568 82.559553 
L 238.409825 94.922402 
L 232.975432 105.830762 
L 226.55283 114.557451 
L 220.129925 126.92027 
L 210.742999 139.283088 
L 198.391748 148.009807 
L 188.016612 156.009281 
L 178.135429 162.554297 
L 168.25455 167.644856 
L 156.891205 170.553772 
L 145.033907 186.552721 
L 120.331406 216.368917 
L 107.980155 224.368391 
L 98.098972 230.913407 
L 87.229883 237.458453 
L 78.33691 242.549012 
L 66.479612 244.00347 
L 60.05701 241.094583 
L 64.009544 225.822849 
L 69.443937 210.551114 
L 75.866842 195.279409 
L 82.783397 180.007675 
L 100.075391 151.645907 
L 111.438432 142.919219 
L 123.789683 134.19253 
L 135.153028 126.92027 
L 148.986441 120.375253 
L 160.349786 113.102993 
L 169.736712 101.467418 
L 177.147523 90.559028 
L 187.522659 78.923453 
L 199.87391 68.015063 
L 210.249046 61.470046 
L 219.142019 56.379488 
L 226.058574 49.834442 
L 236.43371 46.198341 
L 247.302798 44.016639 
L 255.701819 43.289425 
L 262.124421 45.471097 
L 254.713609 68.742306 
L 249.77317 81.105125 
L 241.868406 96.37683 
L 235.4455 109.466892 
L 226.058574 121.102467 
L 218.15381 133.465286 
L 206.790465 146.555349 
L 193.945261 153.827579 
L 172.207084 166.917642 
L 155.409043 177.826002 
L 141.57563 188.734393 
L 128.730426 200.369968 
L 107.980155 218.550589 
L 98.593228 225.095635 
L 85.747721 230.186193 
L 76.360795 236.73121 
L 68.949984 238.912882 
L 63.021335 238.185668 
L 59.563057 237.458453 
L 63.515288 225.095635 
L 67.961774 213.46003 
L 72.902517 199.642754 
L 79.325119 185.098263 
L 86.241674 169.826528 
L 96.61681 156.736495 
L 105.01583 142.919219 
L 114.89671 134.919744 
L 123.789683 129.829186 
L 134.164819 122.556925 
L 144.046001 116.739123 
L 161.337692 110.921321 
L 161.337692 110.921321 
" clip-path="url(#p2beedaf4bd)" style="fill: none; stroke-dasharray: 3.7,1.6; stroke-dashoffset: 0; stroke: #000000"/>
   </g>
   <g id="line2d_22">
    <path d="M 160.102658 138.555874 
L 162.323122 103.208298 
L 163.313974 91.344291 
L 165.785136 79.179412 
L 168.256298 71.186479 
L 162.824517 109.212155 
L 159.362503 152.030514 
L 157.380798 179.463829 
L 152.93987 197.878792 
L 155.900489 175.243053 
L 158.371651 151.090274 
L 160.353355 125.990027 
L 163.313974 98.382623 
L 167.265445 78.646606 
L 166.775988 81.903838 
L 163.313974 109.104271 
L 160.353355 142.250527 
L 157.882194 168.199075 
L 156.891341 174.680246 
L 153.429327 194.641985 
L 152.450413 198.81303 
L 155.900489 173.314416 
L 158.873046 143.977401 
L 162.323122 105.17806 
L 164.794284 91.097902 
L 167.754903 77.488761 
L 170.72746 69.209785 
L 173.198621 64.769201 
L 176.15924 59.928505 
L 172.697226 76.150893 
L 169.736607 89.507323 
L 165.295679 111.134968 
L 163.313974 124.050775 
L 159.85196 157.087897 
L 157.380798 174.926115 
L 155.900489 182.932452 
L 152.93987 197.207296 
L 150.468708 201.90584 
L 148.988399 205.428198 
L 144.535532 213.362084 
L 141.574914 217.732785 
L 144.535532 204.51006 
L 152.450413 169.675694 
L 156.401884 148.441598 
L 162.323122 104.395706 
L 168.256298 83.172719 
L 172.697226 71.525505 
L 176.15924 64.310494 
L 170.72746 88.872736 
L 167.754903 102.843251 
L 165.785136 112.839524 
L 162.323122 135.675565 
L 159.362503 161.097617 
L 154.42018 182.153729 
L 149.477856 197.109889 
L 146.02778 205.517395 
L 144.535532 208.674009 
L 142.064371 213.389427 
L 151.949018 169.97313 
L 156.401884 147.453362 
L 160.353355 116.846114 
L 164.304827 98.585062 
L 171.216917 77.340471 
L 175.669783 67.235886 
L 179.621254 60.219767 
L 183.572725 55.764074 
L 187.022802 52.359623 
L 184.563578 62.786465 
L 181.591021 74.948506 
L 176.648697 93.955766 
L 172.697226 108.096153 
L 168.745755 121.561118 
L 164.794284 135.42101 
L 158.873046 167.561922 
L 155.411032 180.148357 
L 150.958165 193.296964 
L 147.006694 202.889785 
L 144.046075 208.947031 
L 140.584061 214.853991 
L 137.623442 218.522214 
L 134.662823 221.831407 
L 130.711352 225.238658 
L 132.681119 217.068899 
L 136.63259 201.196893 
L 140.584061 186.2502 
L 145.036928 170.680536 
L 149.979251 154.893434 
L 154.42018 141.525497 
L 160.353355 115.123898 
L 165.785136 96.338503 
L 171.216917 81.956876 
L 177.63955 68.750096 
L 181.591021 62.501655 
L 184.062183 59.214545 
L 188.013654 54.890924 
L 183.572725 73.13992 
L 178.140945 94.110289 
L 173.688078 109.720728 
L 169.24715 123.99758 
L 158.371651 165.699843 
L 156.401884 172.610703 
L 150.468708 189.577223 
L 143.556618 204.873431 
L 140.584061 210.113623 
L 137.133985 215.255617 
L 134.662823 218.362079 
L 133.182514 220.027098 
L 140.094604 192.208573 
L 145.526385 172.339908 
L 149.477856 159.062368 
L 153.930722 144.831533 
L 160.842813 115.298102 
L 170.226064 86.603249 
L 179.621254 67.165928 
L 184.563578 60.037588 
L 189.004506 55.1413 
L 192.955977 51.717718 
L 198.387758 48.246825 
L 193.94683 66.060803 
L 189.004506 84.44221 
L 186.533344 92.871978 
L 182.581873 105.275791 
L 179.119859 114.993108 
L 172.697226 130.177898 
L 165.295679 144.864898 
L 163.313974 150.677834 
L 160.842813 160.003833 
L 155.411032 177.598583 
L 146.02778 200.325776 
L 144.535532 203.251019 
L 139.103752 212.36007 
L 133.671971 219.224355 
L 131.200809 221.733775 
L 126.759881 225.270193 
L 123.297867 227.670563 
L 120.337248 229.457 
L 125.769029 208.217582 
L 130.711352 190.393386 
L 134.662823 177.50179 
L 139.103752 164.655039 
L 144.046075 152.427084 
L 148.487004 143.276541 
L 151.949018 137.017 
L 156.891341 126.652308 
L 161.833665 110.84229 
L 169.736607 89.432496 
L 175.168388 77.666064 
L 181.591021 66.700914 
L 187.022802 59.687468 
L 190.986211 55.647263 
L 194.937682 52.353635 
L 197.898301 50.239843 
L 192.46652 71.284903 
L 188.515049 85.707602 
L 183.572725 101.99599 
L 176.648697 121.046 
L 171.216917 132.967797 
L 155.411032 173.78902 
L 144.535532 199.593 
L 137.133985 211.880276 
L 131.690267 218.517992 
L 126.258486 223.598854 
L 123.297867 225.861143 
L 128.729648 204.838745 
L 132.681119 190.47153 
L 137.623442 174.230287 
L 142.565766 160.212455 
L 146.02778 151.679178 
L 155.900489 130.475354 
L 163.803431 106.027731 
L 172.697226 83.6601 
L 179.119859 71.375872 
L 184.563578 63.311944 
L 189.995358 57.151472 
L 195.427139 52.424072 
L 201.360315 48.42191 
L 208.761862 44.593348 
L 213.704186 42.522766 
L 218.157052 40.911807 
L 212.713333 61.774051 
L 207.782948 79.13723 
L 204.810391 88.633394 
L 197.408844 108.705164 
L 190.484816 122.941006 
L 183.07133 133.969445 
L 177.63955 140.001494 
L 170.226064 146.587332 
L 162.824517 156.445394 
L 157.380798 171.414166 
L 150.958165 187.406769 
L 142.565766 204.070082 
L 135.641738 214.165504 
L 128.729648 221.449834 
L 123.787324 225.384719 
L 117.866086 229.147274 
L 109.461749 233.233528 
L 103.039116 235.68231 
L 100.078497 236.673318 
L 105.510277 216.022322 
L 110.942058 197.081941 
L 116.373839 180.574851 
L 122.307015 165.610871 
L 127.738795 154.691211 
L 133.182514 146.127053 
L 140.584061 137.400561 
L 145.036928 133.082043 
L 153.930722 125.369699 
L 163.313974 106.809728 
L 188.013654 61.821044 
L 193.94683 55.884656 
L 200.85892 50.699319 
L 206.792096 47.215602 
L 210.743567 45.265558 
L 219.147904 41.777281 
L 217.1662 49.435557 
L 212.713333 66.078694 
L 208.272405 81.359633 
L 200.369463 104.218476 
L 195.916596 114.533459 
L 189.493963 126.327715 
L 182.581873 135.632942 
L 174.678931 143.338811 
L 167.265445 149.021016 
L 158.371651 166.051195 
L 140.094604 204.542249 
L 132.191662 215.171607 
L 123.297867 223.474278 
L 116.373839 228.123484 
L 108.972292 231.960651 
L 103.039116 234.48659 
L 107.981439 215.775702 
L 112.923763 198.397854 
L 119.835853 177.480082 
L 124.778176 165.19452 
L 130.209957 154.275497 
L 135.152281 146.428155 
L 141.574914 138.577259 
L 150.958165 130.157653 
L 161.33227 112.420252 
L 167.265445 97.983943 
L 184.062183 67.126747 
L 190.986211 59.010985 
L 198.387758 52.689401 
L 205.801243 47.994732 
L 212.223876 44.803218 
L 219.637362 41.770987 
L 227.050847 39.302312 
L 234.452394 37.076643 
L 239.394718 35.728149 
L 234.953789 52.374048 
L 230.011466 69.731766 
L 226.549452 80.807377 
L 219.637362 99.768358 
L 212.223876 115.371211 
L 205.311786 126.080723 
L 196.907449 135.395933 
L 188.013654 142.385841 
L 183.07133 145.699932 
L 178.140945 148.811996 
L 170.226064 154.928391 
L 162.824517 161.774049 
L 152.450413 180.617994 
L 140.584061 203.253768 
L 133.671971 212.932806 
L 123.297867 222.930325 
L 112.422368 229.815462 
L 105.510277 233.058174 
L 97.10594 236.271523 
L 87.722688 239.282339 
L 81.80145 240.948494 
L 87.233231 220.784567 
L 90.683307 208.724033 
L 94.634778 195.988414 
L 99.577102 181.95396 
L 107.491982 164.080815 
L 114.404072 152.65552 
L 121.316162 144.286575 
L 127.738795 138.446082 
L 135.152281 133.174574 
L 144.535532 127.302939 
L 152.93987 120.788265 
L 161.833665 109.518163 
L 171.718312 89.566598 
L 183.07133 70.209673 
L 190.484816 61.23277 
L 200.369463 52.766952 
L 209.263257 47.40673 
L 216.676743 43.948302 
L 225.069142 40.739162 
L 233.47348 38.032289 
L 240.38557 36.06695 
L 248.288512 34.036166 
L 262.124631 30.882841 
L 259.164012 41.985151 
L 255.701998 54.524846 
L 251.750526 67.92487 
L 249.279365 75.684169 
L 243.346189 92.138921 
L 238.403865 103.425672 
L 232.972085 113.530395 
L 226.549452 122.826116 
L 220.126819 129.902248 
L 210.743567 137.488172 
L 198.387758 144.708256 
L 188.013654 149.831069 
L 178.140945 155.40613 
L 168.256298 163.723802 
L 156.891341 174.612687 
L 145.036928 193.755689 
L 131.200809 213.304916 
L 120.337248 223.503915 
L 107.981439 230.82036 
L 98.096792 235.036094 
L 87.233231 238.715476 
L 78.339436 241.262444 
L 66.485022 244.214885 
L 60.062389 245.664659 
L 64.013861 230.926238 
L 69.445641 211.906862 
L 75.868274 192.309409 
L 82.780364 175.320348 
L 91.184702 160.052394 
L 100.078497 148.965075 
L 111.443453 139.673214 
L 123.787324 132.798923 
L 135.152281 127.444845 
L 148.988399 120.200349 
L 160.353355 110.71492 
L 169.736607 94.404341 
L 177.150093 80.875596 
L 187.524197 65.939106 
L 199.868068 54.310282 
L 210.25411 47.847555 
L 219.147904 43.725438 
L 226.059995 41.096593 
L 236.434099 37.767492 
L 247.29766 34.803768 
L 262.124631 31.3079 
L 258.662617 44.148443 
L 254.711145 58.214808 
L 249.768822 74.333047 
L 241.865879 95.774365 
L 235.443246 109.214271 
L 226.059995 123.403013 
L 218.157052 131.682031 
L 206.792096 139.986906 
L 193.94683 146.700536 
L 172.207769 159.815988 
L 155.411032 175.88885 
L 141.574914 197.858202 
L 128.729648 214.66828 
L 117.866086 224.271091 
L 107.981439 230.06545 
L 98.598187 234.225264 
L 85.752921 238.6624 
L 76.357731 241.346932 
L 63.023008 244.651803 
L 59.560994 245.438462 
L 63.512466 230.819194 
L 67.965332 215.174202 
L 72.907655 199.461985 
L 79.330288 182.215544 
L 86.242379 167.668597 
L 96.616483 152.446019 
L 105.02082 144.243947 
L 114.893529 137.452717 
L 123.787324 132.761403 
L 134.161428 127.904136 
L 144.046075 123.138973 
L 144.046075 123.138973 
" clip-path="url(#p2beedaf4bd)" style="fill: none; stroke: #0000ff; stroke-width: 1.2; stroke-linecap: square"/>
   </g>
   <g id="line2d_23">
    <path d="M 49.432813 138.555874 
L 272.252813 138.555874 
" clip-path="url(#p2beedaf4bd)" style="fill: none; stroke: #000000; stroke-width: 0.4; stroke-linecap: square"/>
   </g>
   <g id="line2d_24">
    <path d="M 160.102658 256.40375 
L 160.102658 20.14375 
" clip-path="url(#p2beedaf4bd)" style="fill: none; stroke: #000000; stroke-width: 0.4; stroke-linecap: square"/>
   </g>
   <g id="patch_3">
    <path d="M 49.432813 256.40375 
L 49.432813 20.14375 
" style="fill: none; stroke: #000000; stroke-width: 0.8; stroke-linejoin: miter; stroke-linecap: square"/>
   </g>
   <g id="patch_4">
    <path d="M 272.252813 256.40375 
L 272.252813 20.14375 
" style="fill: none; stroke: #000000; stroke-width: 0.8; stroke-linejoin: miter; stroke-linecap: square"/>
   </g>
   <g id="patch_5">
    <path d="M 49.432812 256.40375 
L 272.252813 256.40375 
" style="fill: none; stroke: #000000; stroke-width: 0.8; stroke-linejoin: miter; stroke-linecap: square"/>
   </g>
   <g id="patch_6">
    <path d="M 49.432812 20.14375 
L 272.252813 20.14375 
" style="fill: none; stroke: #000000; stroke-width: 0.8; stroke-linejoin: miter; stroke-linecap: square"/>
   </g>
   <g id="text_13">
    <!-- Specimen : Thomsen_and_Wallace_RW2 -->
    <g transform="translate(77.740469 14.14375) scale(0.1 -0.1)">
     <defs>
      <path id="TimesNewRomanPSMT-3a" d="M 903 2950 
Q 1047 2950 1148 2848 
Q 1250 2747 1250 2603 
Q 1250 2459 1148 2357 
Q 1047 2256 903 2256 
Q 759 2256 657 2357 
Q 556 2459 556 2603 
Q 556 2747 657 2848 
Q 759 2950 903 2950 
z
M 897 609 
Q 1044 609 1145 506 
Q 1247 403 1247 259 
Q 1247 116 1144 14 
Q 1041 -88 897 -88 
Q 753 -88 651 14 
Q 550 116 550 259 
Q 550 403 651 506 
Q 753 609 897 609 
z
" transform="scale(0.015625)"/>
      <path id="TimesNewRomanPSMT-54" d="M 3703 4238 
L 3750 3244 
L 3631 3244 
Q 3597 3506 3538 3619 
Q 3441 3800 3280 3886 
Q 3119 3972 2856 3972 
L 2259 3972 
L 2259 734 
Q 2259 344 2344 247 
Q 2463 116 2709 116 
L 2856 116 
L 2856 0 
L 1059 0 
L 1059 116 
L 1209 116 
Q 1478 116 1591 278 
Q 1659 378 1659 734 
L 1659 3972 
L 1150 3972 
Q 853 3972 728 3928 
Q 566 3869 450 3700 
Q 334 3531 313 3244 
L 194 3244 
L 244 4238 
L 3703 4238 
z
" transform="scale(0.015625)"/>
      <path id="TimesNewRomanPSMT-6f" d="M 1600 2947 
Q 2250 2947 2644 2453 
Q 2978 2031 2978 1484 
Q 2978 1100 2793 706 
Q 2609 313 2286 112 
Q 1963 -88 1566 -88 
Q 919 -88 538 428 
Q 216 863 216 1403 
Q 216 1797 411 2186 
Q 606 2575 925 2761 
Q 1244 2947 1600 2947 
z
M 1503 2744 
Q 1338 2744 1170 2645 
Q 1003 2547 900 2300 
Q 797 2053 797 1666 
Q 797 1041 1045 587 
Q 1294 134 1700 134 
Q 2003 134 2200 384 
Q 2397 634 2397 1244 
Q 2397 2006 2069 2444 
Q 1847 2744 1503 2744 
z
" transform="scale(0.015625)"/>
      <path id="TimesNewRomanPSMT-5f" d="M 3256 -1381 
L -53 -1381 
L -53 -1119 
L 3256 -1119 
L 3256 -1381 
z
" transform="scale(0.015625)"/>
      <path id="TimesNewRomanPSMT-64" d="M 2222 322 
Q 2013 103 1813 7 
Q 1613 -88 1381 -88 
Q 913 -88 563 304 
Q 213 697 213 1313 
Q 213 1928 600 2439 
Q 988 2950 1597 2950 
Q 1975 2950 2222 2709 
L 2222 3238 
Q 2222 3728 2198 3840 
Q 2175 3953 2125 3993 
Q 2075 4034 2000 4034 
Q 1919 4034 1784 3984 
L 1744 4094 
L 2597 4444 
L 2738 4444 
L 2738 1134 
Q 2738 631 2761 520 
Q 2784 409 2836 365 
Q 2888 322 2956 322 
Q 3041 322 3181 375 
L 3216 266 
L 2366 -88 
L 2222 -88 
L 2222 322 
z
M 2222 541 
L 2222 2016 
Q 2203 2228 2109 2403 
Q 2016 2578 1861 2667 
Q 1706 2756 1559 2756 
Q 1284 2756 1069 2509 
Q 784 2184 784 1559 
Q 784 928 1059 592 
Q 1334 256 1672 256 
Q 1956 256 2222 541 
z
" transform="scale(0.015625)"/>
      <path id="TimesNewRomanPSMT-57" d="M 5991 4238 
L 5991 4122 
Q 5825 4122 5722 4062 
Q 5619 4003 5525 3841 
Q 5463 3731 5328 3319 
L 4147 -97 
L 4022 -97 
L 3056 2613 
L 2097 -97 
L 1984 -97 
L 725 3422 
Q 584 3816 547 3888 
Q 484 4006 376 4064 
Q 269 4122 84 4122 
L 84 4238 
L 1653 4238 
L 1653 4122 
L 1578 4122 
Q 1413 4122 1325 4047 
Q 1238 3972 1238 3866 
Q 1238 3756 1375 3363 
L 2209 984 
L 2913 3006 
L 2788 3363 
L 2688 3647 
Q 2622 3803 2541 3922 
Q 2500 3981 2441 4022 
Q 2363 4078 2284 4103 
Q 2225 4122 2097 4122 
L 2097 4238 
L 3747 4238 
L 3747 4122 
L 3634 4122 
Q 3459 4122 3378 4047 
Q 3297 3972 3297 3844 
Q 3297 3684 3438 3288 
L 4250 984 
L 5056 3319 
Q 5194 3706 5194 3856 
Q 5194 3928 5148 3990 
Q 5103 4053 5034 4078 
Q 4916 4122 4725 4122 
L 4725 4238 
L 5991 4238 
z
" transform="scale(0.015625)"/>
      <path id="TimesNewRomanPSMT-52" d="M 4325 0 
L 3194 0 
L 1759 1981 
Q 1600 1975 1500 1975 
Q 1459 1975 1412 1976 
Q 1366 1978 1316 1981 
L 1316 750 
Q 1316 350 1403 253 
Q 1522 116 1759 116 
L 1925 116 
L 1925 0 
L 109 0 
L 109 116 
L 269 116 
Q 538 116 653 291 
Q 719 388 719 750 
L 719 3488 
Q 719 3888 631 3984 
Q 509 4122 269 4122 
L 109 4122 
L 109 4238 
L 1653 4238 
Q 2328 4238 2648 4139 
Q 2969 4041 3192 3777 
Q 3416 3513 3416 3147 
Q 3416 2756 3161 2468 
Q 2906 2181 2372 2063 
L 3247 847 
Q 3547 428 3762 290 
Q 3978 153 4325 116 
L 4325 0 
z
M 1316 2178 
Q 1375 2178 1419 2176 
Q 1463 2175 1491 2175 
Q 2097 2175 2405 2437 
Q 2713 2700 2713 3106 
Q 2713 3503 2464 3751 
Q 2216 4000 1806 4000 
Q 1625 4000 1316 3941 
L 1316 2178 
z
" transform="scale(0.015625)"/>
      <path id="TimesNewRomanPSMT-32" d="M 2934 816 
L 2638 0 
L 138 0 
L 138 116 
Q 1241 1122 1691 1759 
Q 2141 2397 2141 2925 
Q 2141 3328 1894 3587 
Q 1647 3847 1303 3847 
Q 991 3847 742 3664 
Q 494 3481 375 3128 
L 259 3128 
Q 338 3706 661 4015 
Q 984 4325 1469 4325 
Q 1984 4325 2329 3994 
Q 2675 3663 2675 3213 
Q 2675 2891 2525 2569 
Q 2294 2063 1775 1497 
Q 997 647 803 472 
L 1909 472 
Q 2247 472 2383 497 
Q 2519 522 2628 598 
Q 2738 675 2819 816 
L 2934 816 
z
" transform="scale(0.015625)"/>
     </defs>
     <use xlink:href="#TimesNewRomanPSMT-53"/>
     <use xlink:href="#TimesNewRomanPSMT-70" x="55.615234"/>
     <use xlink:href="#TimesNewRomanPSMT-65" x="105.615234"/>
     <use xlink:href="#TimesNewRomanPSMT-63" x="150"/>
     <use xlink:href="#TimesNewRomanPSMT-69" x="194.384766"/>
     <use xlink:href="#TimesNewRomanPSMT-6d" x="222.167969"/>
     <use xlink:href="#TimesNewRomanPSMT-65" x="299.951172"/>
     <use xlink:href="#TimesNewRomanPSMT-6e" x="344.335938"/>
     <use xlink:href="#TimesNewRomanPSMT-20" x="394.335938"/>
     <use xlink:href="#TimesNewRomanPSMT-3a" x="419.335938"/>
     <use xlink:href="#TimesNewRomanPSMT-20" x="447.119141"/>
     <use xlink:href="#TimesNewRomanPSMT-54" x="470.369141"/>
     <use xlink:href="#TimesNewRomanPSMT-68" x="531.453125"/>
     <use xlink:href="#TimesNewRomanPSMT-6f" x="581.453125"/>
     <use xlink:href="#TimesNewRomanPSMT-6d" x="631.453125"/>
     <use xlink:href="#TimesNewRomanPSMT-73" x="709.236328"/>
     <use xlink:href="#TimesNewRomanPSMT-65" x="748.152344"/>
     <use xlink:href="#TimesNewRomanPSMT-6e" x="792.537109"/>
     <use xlink:href="#TimesNewRomanPSMT-5f" x="842.537109"/>
     <use xlink:href="#TimesNewRomanPSMT-61" x="892.537109"/>
     <use xlink:href="#TimesNewRomanPSMT-6e" x="936.921875"/>
     <use xlink:href="#TimesNewRomanPSMT-64" x="986.921875"/>
     <use xlink:href="#TimesNewRomanPSMT-5f" x="1036.921875"/>
     <use xlink:href="#TimesNewRomanPSMT-57" x="1086.921875"/>
     <use xlink:href="#TimesNewRomanPSMT-61" x="1173.306641"/>
     <use xlink:href="#TimesNewRomanPSMT-6c" x="1217.691406"/>
     <use xlink:href="#TimesNewRomanPSMT-6c" x="1245.474609"/>
     <use xlink:href="#TimesNewRomanPSMT-61" x="1273.257812"/>
     <use xlink:href="#TimesNewRomanPSMT-63" x="1317.642578"/>
     <use xlink:href="#TimesNewRomanPSMT-65" x="1362.027344"/>
     <use xlink:href="#TimesNewRomanPSMT-5f" x="1406.412109"/>
     <use xlink:href="#TimesNewRomanPSMT-52" x="1456.412109"/>
     <use xlink:href="#TimesNewRomanPSMT-57" x="1517.611328"/>
     <use xlink:href="#TimesNewRomanPSMT-32" x="1611.996094"/>
    </g>
   </g>
   <g id="legend_1">
    <g id="patch_7">
     <path d="M 55.263813 50.363428 
L 142.486722 50.363428 
Q 144.152722 50.363428 144.152722 48.697428 
L 144.152722 25.97475 
Q 144.152722 24.30875 142.486722 24.30875 
L 55.263813 24.30875 
Q 53.597813 24.30875 53.597813 25.97475 
L 53.597813 48.697428 
Q 53.597813 50.363428 55.263813 50.363428 
z
" style="fill: #ffffff; opacity: 0.8; stroke: #cccccc; stroke-linejoin: miter"/>
    </g>
    <g id="line2d_25">
     <path d="M 56.929813 30.55625 
L 65.259813 30.55625 
L 73.589813 30.55625 
" style="fill: none; stroke-dasharray: 3.7,1.6; stroke-dashoffset: 0; stroke: #000000"/>
    </g>
    <g id="text_14">
     <!-- Experimental Test -->
     <g transform="translate(80.253813 33.47175) scale(0.0833 -0.0833)">
      <defs>
       <path id="TimesNewRomanPSMT-45" d="M 1338 4006 
L 1338 2331 
L 2269 2331 
Q 2631 2331 2753 2441 
Q 2916 2584 2934 2947 
L 3050 2947 
L 3050 1472 
L 2934 1472 
Q 2891 1781 2847 1869 
Q 2791 1978 2662 2040 
Q 2534 2103 2269 2103 
L 1338 2103 
L 1338 706 
Q 1338 425 1363 364 
Q 1388 303 1450 267 
Q 1513 231 1688 231 
L 2406 231 
Q 2766 231 2928 281 
Q 3091 331 3241 478 
Q 3434 672 3638 1063 
L 3763 1063 
L 3397 0 
L 131 0 
L 131 116 
L 281 116 
Q 431 116 566 188 
Q 666 238 702 338 
Q 738 438 738 747 
L 738 3500 
Q 738 3903 656 3997 
Q 544 4122 281 4122 
L 131 4122 
L 131 4238 
L 3397 4238 
L 3444 3309 
L 3322 3309 
Q 3256 3644 3176 3769 
Q 3097 3894 2941 3959 
Q 2816 4006 2500 4006 
L 1338 4006 
z
" transform="scale(0.015625)"/>
       <path id="TimesNewRomanPSMT-78" d="M 84 2863 
L 1431 2863 
L 1431 2747 
Q 1303 2747 1251 2703 
Q 1200 2659 1200 2588 
Q 1200 2513 1309 2356 
Q 1344 2306 1413 2200 
L 1616 1875 
L 1850 2200 
Q 2075 2509 2075 2591 
Q 2075 2656 2022 2701 
Q 1969 2747 1850 2747 
L 1850 2863 
L 2819 2863 
L 2819 2747 
Q 2666 2738 2553 2663 
Q 2400 2556 2134 2200 
L 1744 1678 
L 2456 653 
Q 2719 275 2831 198 
Q 2944 122 3122 113 
L 3122 0 
L 1772 0 
L 1772 113 
Q 1913 113 1991 175 
Q 2050 219 2050 291 
Q 2050 363 1850 653 
L 1431 1266 
L 972 653 
Q 759 369 759 316 
Q 759 241 829 180 
Q 900 119 1041 113 
L 1041 0 
L 106 0 
L 106 113 
Q 219 128 303 191 
Q 422 281 703 653 
L 1303 1450 
L 759 2238 
Q 528 2575 401 2661 
Q 275 2747 84 2747 
L 84 2863 
z
" transform="scale(0.015625)"/>
      </defs>
      <use xlink:href="#TimesNewRomanPSMT-45"/>
      <use xlink:href="#TimesNewRomanPSMT-78" x="61.083984"/>
      <use xlink:href="#TimesNewRomanPSMT-70" x="111.083984"/>
      <use xlink:href="#TimesNewRomanPSMT-65" x="161.083984"/>
      <use xlink:href="#TimesNewRomanPSMT-72" x="205.46875"/>
      <use xlink:href="#TimesNewRomanPSMT-69" x="238.769531"/>
      <use xlink:href="#TimesNewRomanPSMT-6d" x="266.552734"/>
      <use xlink:href="#TimesNewRomanPSMT-65" x="344.335938"/>
      <use xlink:href="#TimesNewRomanPSMT-6e" x="388.720703"/>
      <use xlink:href="#TimesNewRomanPSMT-74" x="438.720703"/>
      <use xlink:href="#TimesNewRomanPSMT-61" x="466.503906"/>
      <use xlink:href="#TimesNewRomanPSMT-6c" x="510.888672"/>
      <use xlink:href="#TimesNewRomanPSMT-20" x="538.671875"/>
      <use xlink:href="#TimesNewRomanPSMT-54" x="561.921875"/>
      <use xlink:href="#TimesNewRomanPSMT-65" x="616.005859"/>
      <use xlink:href="#TimesNewRomanPSMT-73" x="660.390625"/>
      <use xlink:href="#TimesNewRomanPSMT-74" x="699.306641"/>
     </g>
    </g>
    <g id="line2d_26">
     <path d="M 56.929813 42.334089 
L 65.259813 42.334089 
L 73.589813 42.334089 
" style="fill: none; stroke: #0000ff; stroke-width: 1.2; stroke-linecap: square"/>
    </g>
    <g id="text_15">
     <!-- Numerical Test -->
     <g transform="translate(80.253813 45.249589) scale(0.0833 -0.0833)">
      <defs>
       <path id="TimesNewRomanPSMT-75" d="M 2709 2863 
L 2709 1128 
Q 2709 631 2732 520 
Q 2756 409 2807 365 
Q 2859 322 2928 322 
Q 3025 322 3147 375 
L 3191 266 
L 2334 -88 
L 2194 -88 
L 2194 519 
Q 1825 119 1631 15 
Q 1438 -88 1222 -88 
Q 981 -88 804 51 
Q 628 191 559 409 
Q 491 628 491 1028 
L 491 2306 
Q 491 2509 447 2587 
Q 403 2666 317 2708 
Q 231 2750 6 2747 
L 6 2863 
L 1009 2863 
L 1009 947 
Q 1009 547 1148 422 
Q 1288 297 1484 297 
Q 1619 297 1789 381 
Q 1959 466 2194 703 
L 2194 2325 
Q 2194 2569 2105 2655 
Q 2016 2741 1734 2747 
L 1734 2863 
L 2709 2863 
z
" transform="scale(0.015625)"/>
      </defs>
      <use xlink:href="#TimesNewRomanPSMT-4e"/>
      <use xlink:href="#TimesNewRomanPSMT-75" x="72.216797"/>
      <use xlink:href="#TimesNewRomanPSMT-6d" x="122.216797"/>
      <use xlink:href="#TimesNewRomanPSMT-65" x="200"/>
      <use xlink:href="#TimesNewRomanPSMT-72" x="244.384766"/>
      <use xlink:href="#TimesNewRomanPSMT-69" x="277.685547"/>
      <use xlink:href="#TimesNewRomanPSMT-63" x="305.46875"/>
      <use xlink:href="#TimesNewRomanPSMT-61" x="349.853516"/>
      <use xlink:href="#TimesNewRomanPSMT-6c" x="394.238281"/>
      <use xlink:href="#TimesNewRomanPSMT-20" x="422.021484"/>
      <use xlink:href="#TimesNewRomanPSMT-54" x="445.271484"/>
      <use xlink:href="#TimesNewRomanPSMT-65" x="499.355469"/>
      <use xlink:href="#TimesNewRomanPSMT-73" x="543.740234"/>
      <use xlink:href="#TimesNewRomanPSMT-74" x="582.65625"/>
     </g>
    </g>
   </g>
  </g>
 </g>
 <defs>
  <clipPath id="p2beedaf4bd">
   <rect x="49.432813" y="20.14375" width="222.82" height="236.26"/>
  </clipPath>
 </defs>
</svg>
