<?xml version="1.0" encoding="utf-8" standalone="no"?>
<!DOCTYPE svg PUBLIC "-//W3C//DTD SVG 1.1//EN"
  "http://www.w3.org/Graphics/SVG/1.1/DTD/svg11.dtd">
<svg xmlns:xlink="http://www.w3.org/1999/xlink" width="279.452812pt" height="293.750312pt" viewBox="0 0 279.452812 293.750312" xmlns="http://www.w3.org/2000/svg" version="1.1">
 <metadata>
  <rdf:RDF xmlns:dc="http://purl.org/dc/elements/1.1/" xmlns:cc="http://creativecommons.org/ns#" xmlns:rdf="http://www.w3.org/1999/02/22-rdf-syntax-ns#">
   <cc:Work>
    <dc:type rdf:resource="http://purl.org/dc/dcmitype/StillImage"/>
    <dc:date>2024-01-30T00:49:42.214744</dc:date>
    <dc:format>image/svg+xml</dc:format>
    <dc:creator>
     <cc:Agent>
      <dc:title>Matplotlib v3.7.1, https://matplotlib.org/</dc:title>
     </cc:Agent>
    </dc:creator>
   </cc:Work>
  </rdf:RDF>
 </metadata>
 <defs>
  <style type="text/css">*{stroke-linejoin: round; stroke-linecap: butt}</style>
 </defs>
 <g id="figure_1">
  <g id="patch_1">
   <path d="M 0 293.750312 
L 279.452812 293.750312 
L 279.452812 0 
L 0 0 
z
" style="fill: #ffffff"/>
  </g>
  <g id="axes_1">
   <g id="patch_2">
    <path d="M 49.432813 257.38 
L 272.252813 257.38 
L 272.252813 7.2 
L 49.432813 7.2 
z
" style="fill: #ffffff"/>
   </g>
   <g id="matplotlib.axis_1">
    <g id="xtick_1">
     <g id="line2d_1">
      <path d="M 57.526229 257.38 
L 57.526229 7.2 
" clip-path="url(#p7eccb31d8c)" style="fill: none; stroke-dasharray: 0.8,1.32; stroke-dashoffset: 0; stroke: #b0b0b0; stroke-width: 0.8"/>
     </g>
     <g id="line2d_2">
      <defs>
       <path id="mb0960b5b77" d="M 0 0 
L 0 3.5 
" style="stroke: #000000; stroke-width: 0.8"/>
      </defs>
      <g>
       <use xlink:href="#mb0960b5b77" x="57.526229" y="257.38" style="stroke: #000000; stroke-width: 0.8"/>
      </g>
     </g>
     <g id="text_1">
      <!-- −20 -->
      <g transform="translate(49.219979 271.3675) scale(0.1 -0.1)">
       <defs>
        <path id="Cambria-2212" d="M 397 1613 
L 397 2047 
L 3147 2047 
L 3147 1613 
L 397 1613 
z
" transform="scale(0.015625)"/>
        <path id="Cambria-32" d="M 2194 500 
Q 2347 500 2440 519 
Q 2534 538 2590 581 
Q 2647 625 2680 695 
Q 2713 766 2763 913 
L 3028 913 
L 2975 0 
L 403 0 
L 403 150 
Q 538 478 766 822 
Q 994 1166 1413 1631 
Q 1775 2031 1934 2238 
Q 2109 2463 2195 2627 
Q 2281 2791 2318 2936 
Q 2356 3081 2356 3228 
Q 2356 3463 2281 3642 
Q 2206 3822 2051 3925 
Q 1897 4028 1663 4028 
Q 1078 4028 875 3378 
L 497 3378 
L 497 3978 
Q 875 4156 1204 4236 
Q 1534 4316 1797 4316 
Q 2378 4316 2675 4061 
Q 2972 3806 2972 3322 
Q 2972 3156 2939 3017 
Q 2906 2878 2836 2742 
Q 2766 2606 2647 2450 
Q 2528 2294 2384 2133 
Q 2241 1972 1888 1597 
Q 1294 969 1016 500 
L 2194 500 
z
" transform="scale(0.015625)"/>
        <path id="Cambria-30" d="M 1738 -50 
Q 1063 -50 733 481 
Q 403 1013 403 2094 
Q 403 2669 504 3087 
Q 606 3506 789 3779 
Q 972 4053 1228 4184 
Q 1484 4316 1788 4316 
Q 2472 4316 2806 3787 
Q 3141 3259 3141 2191 
Q 3141 1084 2783 517 
Q 2425 -50 1738 -50 
z
M 1013 2188 
Q 1013 1169 1202 692 
Q 1391 216 1788 216 
Q 2166 216 2348 664 
Q 2531 1113 2531 2053 
Q 2531 2772 2437 3217 
Q 2344 3663 2176 3856 
Q 2009 4050 1772 4050 
Q 1556 4050 1411 3922 
Q 1266 3794 1177 3553 
Q 1088 3313 1050 2967 
Q 1013 2622 1013 2188 
z
" transform="scale(0.015625)"/>
       </defs>
       <use xlink:href="#Cambria-2212"/>
       <use xlink:href="#Cambria-32" x="55.371094"/>
       <use xlink:href="#Cambria-30" x="110.742188"/>
      </g>
     </g>
    </g>
    <g id="xtick_2">
     <g id="line2d_3">
      <path d="M 105.966103 257.38 
L 105.966103 7.2 
" clip-path="url(#p7eccb31d8c)" style="fill: none; stroke-dasharray: 0.8,1.32; stroke-dashoffset: 0; stroke: #b0b0b0; stroke-width: 0.8"/>
     </g>
     <g id="line2d_4">
      <g>
       <use xlink:href="#mb0960b5b77" x="105.966103" y="257.38" style="stroke: #000000; stroke-width: 0.8"/>
      </g>
     </g>
     <g id="text_2">
      <!-- −10 -->
      <g transform="translate(97.659853 271.3675) scale(0.1 -0.1)">
       <defs>
        <path id="Cambria-31" d="M 2172 816 
Q 2172 634 2192 542 
Q 2213 450 2264 392 
Q 2316 334 2412 301 
Q 2509 269 2656 251 
Q 2803 234 3044 228 
L 3044 0 
L 734 0 
L 734 228 
Q 1081 244 1229 270 
Q 1378 297 1456 350 
Q 1534 403 1570 500 
Q 1606 597 1606 816 
L 1606 3350 
Q 1606 3475 1562 3533 
Q 1519 3591 1434 3591 
Q 1334 3591 1150 3487 
Q 966 3384 694 3203 
L 556 3444 
L 2019 4316 
L 2191 4316 
Q 2172 4016 2172 3484 
L 2172 816 
z
" transform="scale(0.015625)"/>
       </defs>
       <use xlink:href="#Cambria-2212"/>
       <use xlink:href="#Cambria-31" x="55.371094"/>
       <use xlink:href="#Cambria-30" x="110.742188"/>
      </g>
     </g>
    </g>
    <g id="xtick_3">
     <g id="line2d_5">
      <path d="M 154.405977 257.38 
L 154.405977 7.2 
" clip-path="url(#p7eccb31d8c)" style="fill: none; stroke-dasharray: 0.8,1.32; stroke-dashoffset: 0; stroke: #b0b0b0; stroke-width: 0.8"/>
     </g>
     <g id="line2d_6">
      <g>
       <use xlink:href="#mb0960b5b77" x="154.405977" y="257.38" style="stroke: #000000; stroke-width: 0.8"/>
      </g>
     </g>
     <g id="text_3">
      <!-- 0 -->
      <g transform="translate(151.637227 271.3675) scale(0.1 -0.1)">
       <use xlink:href="#Cambria-30"/>
      </g>
     </g>
    </g>
    <g id="xtick_4">
     <g id="line2d_7">
      <path d="M 202.845851 257.38 
L 202.845851 7.2 
" clip-path="url(#p7eccb31d8c)" style="fill: none; stroke-dasharray: 0.8,1.32; stroke-dashoffset: 0; stroke: #b0b0b0; stroke-width: 0.8"/>
     </g>
     <g id="line2d_8">
      <g>
       <use xlink:href="#mb0960b5b77" x="202.845851" y="257.38" style="stroke: #000000; stroke-width: 0.8"/>
      </g>
     </g>
     <g id="text_4">
      <!-- 10 -->
      <g transform="translate(197.308351 271.3675) scale(0.1 -0.1)">
       <use xlink:href="#Cambria-31"/>
       <use xlink:href="#Cambria-30" x="55.371094"/>
      </g>
     </g>
    </g>
    <g id="xtick_5">
     <g id="line2d_9">
      <path d="M 251.285725 257.38 
L 251.285725 7.2 
" clip-path="url(#p7eccb31d8c)" style="fill: none; stroke-dasharray: 0.8,1.32; stroke-dashoffset: 0; stroke: #b0b0b0; stroke-width: 0.8"/>
     </g>
     <g id="line2d_10">
      <g>
       <use xlink:href="#mb0960b5b77" x="251.285725" y="257.38" style="stroke: #000000; stroke-width: 0.8"/>
      </g>
     </g>
     <g id="text_5">
      <!-- 20 -->
      <g transform="translate(245.748225 271.3675) scale(0.1 -0.1)">
       <use xlink:href="#Cambria-32"/>
       <use xlink:href="#Cambria-30" x="55.371094"/>
      </g>
     </g>
    </g>
    <g id="text_6">
     <!-- Displacement (mm) -->
     <g transform="translate(120.993594 284.41125) scale(0.1 -0.1)">
      <defs>
       <path id="TimesNewRomanPSMT-44" d="M 109 0 
L 109 116 
L 269 116 
Q 538 116 650 288 
Q 719 391 719 750 
L 719 3488 
Q 719 3884 631 3984 
Q 509 4122 269 4122 
L 109 4122 
L 109 4238 
L 1834 4238 
Q 2784 4238 3279 4022 
Q 3775 3806 4076 3303 
Q 4378 2800 4378 2141 
Q 4378 1256 3841 663 
Q 3238 0 2003 0 
L 109 0 
z
M 1319 306 
Q 1716 219 1984 219 
Q 2709 219 3187 728 
Q 3666 1238 3666 2109 
Q 3666 2988 3187 3494 
Q 2709 4000 1959 4000 
Q 1678 4000 1319 3909 
L 1319 306 
z
" transform="scale(0.015625)"/>
       <path id="TimesNewRomanPSMT-69" d="M 928 4444 
Q 1059 4444 1151 4351 
Q 1244 4259 1244 4128 
Q 1244 3997 1151 3903 
Q 1059 3809 928 3809 
Q 797 3809 703 3903 
Q 609 3997 609 4128 
Q 609 4259 701 4351 
Q 794 4444 928 4444 
z
M 1188 2947 
L 1188 647 
Q 1188 378 1227 289 
Q 1266 200 1342 156 
Q 1419 113 1622 113 
L 1622 0 
L 231 0 
L 231 113 
Q 441 113 512 153 
Q 584 194 626 287 
Q 669 381 669 647 
L 669 1750 
Q 669 2216 641 2353 
Q 619 2453 572 2492 
Q 525 2531 444 2531 
Q 356 2531 231 2484 
L 188 2597 
L 1050 2947 
L 1188 2947 
z
" transform="scale(0.015625)"/>
       <path id="TimesNewRomanPSMT-73" d="M 2050 2947 
L 2050 1972 
L 1947 1972 
Q 1828 2431 1642 2597 
Q 1456 2763 1169 2763 
Q 950 2763 815 2647 
Q 681 2531 681 2391 
Q 681 2216 781 2091 
Q 878 1963 1175 1819 
L 1631 1597 
Q 2266 1288 2266 781 
Q 2266 391 1970 151 
Q 1675 -88 1309 -88 
Q 1047 -88 709 6 
Q 606 38 541 38 
Q 469 38 428 -44 
L 325 -44 
L 325 978 
L 428 978 
Q 516 541 762 319 
Q 1009 97 1316 97 
Q 1531 97 1667 223 
Q 1803 350 1803 528 
Q 1803 744 1651 891 
Q 1500 1038 1047 1263 
Q 594 1488 453 1669 
Q 313 1847 313 2119 
Q 313 2472 555 2709 
Q 797 2947 1181 2947 
Q 1350 2947 1591 2875 
Q 1750 2828 1803 2828 
Q 1853 2828 1881 2850 
Q 1909 2872 1947 2947 
L 2050 2947 
z
" transform="scale(0.015625)"/>
       <path id="TimesNewRomanPSMT-70" d="M -6 2578 
L 875 2934 
L 994 2934 
L 994 2266 
Q 1216 2644 1439 2795 
Q 1663 2947 1909 2947 
Q 2341 2947 2628 2609 
Q 2981 2197 2981 1534 
Q 2981 794 2556 309 
Q 2206 -88 1675 -88 
Q 1444 -88 1275 -22 
Q 1150 25 994 166 
L 994 -706 
Q 994 -1000 1030 -1079 
Q 1066 -1159 1155 -1206 
Q 1244 -1253 1478 -1253 
L 1478 -1369 
L -22 -1369 
L -22 -1253 
L 56 -1253 
Q 228 -1256 350 -1188 
Q 409 -1153 442 -1076 
Q 475 -1000 475 -688 
L 475 2019 
Q 475 2297 450 2372 
Q 425 2447 370 2484 
Q 316 2522 222 2522 
Q 147 2522 31 2478 
L -6 2578 
z
M 994 2081 
L 994 1013 
Q 994 666 1022 556 
Q 1066 375 1236 237 
Q 1406 100 1666 100 
Q 1978 100 2172 344 
Q 2425 663 2425 1241 
Q 2425 1897 2138 2250 
Q 1938 2494 1663 2494 
Q 1513 2494 1366 2419 
Q 1253 2363 994 2081 
z
" transform="scale(0.015625)"/>
       <path id="TimesNewRomanPSMT-6c" d="M 1184 4444 
L 1184 647 
Q 1184 378 1223 290 
Q 1263 203 1344 158 
Q 1425 113 1647 113 
L 1647 0 
L 244 0 
L 244 113 
Q 441 113 512 153 
Q 584 194 625 287 
Q 666 381 666 647 
L 666 3247 
Q 666 3731 644 3842 
Q 622 3953 573 3993 
Q 525 4034 450 4034 
Q 369 4034 244 3984 
L 191 4094 
L 1044 4444 
L 1184 4444 
z
" transform="scale(0.015625)"/>
       <path id="TimesNewRomanPSMT-61" d="M 1822 413 
Q 1381 72 1269 19 
Q 1100 -59 909 -59 
Q 613 -59 420 144 
Q 228 347 228 678 
Q 228 888 322 1041 
Q 450 1253 767 1440 
Q 1084 1628 1822 1897 
L 1822 2009 
Q 1822 2438 1686 2597 
Q 1550 2756 1291 2756 
Q 1094 2756 978 2650 
Q 859 2544 859 2406 
L 866 2225 
Q 866 2081 792 2003 
Q 719 1925 600 1925 
Q 484 1925 411 2006 
Q 338 2088 338 2228 
Q 338 2497 613 2722 
Q 888 2947 1384 2947 
Q 1766 2947 2009 2819 
Q 2194 2722 2281 2516 
Q 2338 2381 2338 1966 
L 2338 994 
Q 2338 584 2353 492 
Q 2369 400 2405 369 
Q 2441 338 2488 338 
Q 2538 338 2575 359 
Q 2641 400 2828 588 
L 2828 413 
Q 2478 -56 2159 -56 
Q 2006 -56 1915 50 
Q 1825 156 1822 413 
z
M 1822 616 
L 1822 1706 
Q 1350 1519 1213 1441 
Q 966 1303 859 1153 
Q 753 1003 753 825 
Q 753 600 887 451 
Q 1022 303 1197 303 
Q 1434 303 1822 616 
z
" transform="scale(0.015625)"/>
       <path id="TimesNewRomanPSMT-63" d="M 2631 1088 
Q 2516 522 2178 217 
Q 1841 -88 1431 -88 
Q 944 -88 581 321 
Q 219 731 219 1428 
Q 219 2103 620 2525 
Q 1022 2947 1584 2947 
Q 2006 2947 2278 2723 
Q 2550 2500 2550 2259 
Q 2550 2141 2473 2067 
Q 2397 1994 2259 1994 
Q 2075 1994 1981 2113 
Q 1928 2178 1911 2362 
Q 1894 2547 1784 2644 
Q 1675 2738 1481 2738 
Q 1169 2738 978 2506 
Q 725 2200 725 1697 
Q 725 1184 976 792 
Q 1228 400 1656 400 
Q 1963 400 2206 609 
Q 2378 753 2541 1131 
L 2631 1088 
z
" transform="scale(0.015625)"/>
       <path id="TimesNewRomanPSMT-65" d="M 681 1784 
Q 678 1147 991 784 
Q 1303 422 1725 422 
Q 2006 422 2214 576 
Q 2422 731 2563 1106 
L 2659 1044 
Q 2594 616 2278 264 
Q 1963 -88 1488 -88 
Q 972 -88 605 314 
Q 238 716 238 1394 
Q 238 2128 614 2539 
Q 991 2950 1559 2950 
Q 2041 2950 2350 2633 
Q 2659 2316 2659 1784 
L 681 1784 
z
M 681 1966 
L 2006 1966 
Q 1991 2241 1941 2353 
Q 1863 2528 1708 2628 
Q 1553 2728 1384 2728 
Q 1125 2728 920 2526 
Q 716 2325 681 1966 
z
" transform="scale(0.015625)"/>
       <path id="TimesNewRomanPSMT-6d" d="M 1050 2338 
Q 1363 2650 1419 2697 
Q 1559 2816 1721 2881 
Q 1884 2947 2044 2947 
Q 2313 2947 2506 2790 
Q 2700 2634 2766 2338 
Q 3088 2713 3309 2830 
Q 3531 2947 3766 2947 
Q 3994 2947 4170 2830 
Q 4347 2713 4450 2447 
Q 4519 2266 4519 1878 
L 4519 647 
Q 4519 378 4559 278 
Q 4591 209 4675 161 
Q 4759 113 4950 113 
L 4950 0 
L 3538 0 
L 3538 113 
L 3597 113 
Q 3781 113 3884 184 
Q 3956 234 3988 344 
Q 4000 397 4000 647 
L 4000 1878 
Q 4000 2228 3916 2372 
Q 3794 2572 3525 2572 
Q 3359 2572 3192 2489 
Q 3025 2406 2788 2181 
L 2781 2147 
L 2788 2013 
L 2788 647 
Q 2788 353 2820 281 
Q 2853 209 2943 161 
Q 3034 113 3253 113 
L 3253 0 
L 1806 0 
L 1806 113 
Q 2044 113 2133 169 
Q 2222 225 2256 338 
Q 2272 391 2272 647 
L 2272 1878 
Q 2272 2228 2169 2381 
Q 2031 2581 1784 2581 
Q 1616 2581 1450 2491 
Q 1191 2353 1050 2181 
L 1050 647 
Q 1050 366 1089 281 
Q 1128 197 1204 155 
Q 1281 113 1516 113 
L 1516 0 
L 100 0 
L 100 113 
Q 297 113 375 155 
Q 453 197 493 289 
Q 534 381 534 647 
L 534 1741 
Q 534 2213 506 2350 
Q 484 2453 437 2492 
Q 391 2531 309 2531 
Q 222 2531 100 2484 
L 53 2597 
L 916 2947 
L 1050 2947 
L 1050 2338 
z
" transform="scale(0.015625)"/>
       <path id="TimesNewRomanPSMT-6e" d="M 1034 2341 
Q 1538 2947 1994 2947 
Q 2228 2947 2397 2830 
Q 2566 2713 2666 2444 
Q 2734 2256 2734 1869 
L 2734 647 
Q 2734 375 2778 278 
Q 2813 200 2889 156 
Q 2966 113 3172 113 
L 3172 0 
L 1756 0 
L 1756 113 
L 1816 113 
Q 2016 113 2095 173 
Q 2175 234 2206 353 
Q 2219 400 2219 647 
L 2219 1819 
Q 2219 2209 2117 2386 
Q 2016 2563 1775 2563 
Q 1403 2563 1034 2156 
L 1034 647 
Q 1034 356 1069 288 
Q 1113 197 1189 155 
Q 1266 113 1500 113 
L 1500 0 
L 84 0 
L 84 113 
L 147 113 
Q 366 113 442 223 
Q 519 334 519 647 
L 519 1709 
Q 519 2225 495 2337 
Q 472 2450 423 2490 
Q 375 2531 294 2531 
Q 206 2531 84 2484 
L 38 2597 
L 900 2947 
L 1034 2947 
L 1034 2341 
z
" transform="scale(0.015625)"/>
       <path id="TimesNewRomanPSMT-74" d="M 1031 3803 
L 1031 2863 
L 1700 2863 
L 1700 2644 
L 1031 2644 
L 1031 788 
Q 1031 509 1111 412 
Q 1191 316 1316 316 
Q 1419 316 1516 380 
Q 1613 444 1666 569 
L 1788 569 
Q 1678 263 1478 108 
Q 1278 -47 1066 -47 
Q 922 -47 784 33 
Q 647 113 581 261 
Q 516 409 516 719 
L 516 2644 
L 63 2644 
L 63 2747 
Q 234 2816 414 2980 
Q 594 3144 734 3369 
Q 806 3488 934 3803 
L 1031 3803 
z
" transform="scale(0.015625)"/>
       <path id="TimesNewRomanPSMT-20" transform="scale(0.015625)"/>
       <path id="TimesNewRomanPSMT-28" d="M 1988 -1253 
L 1988 -1369 
Q 1516 -1131 1200 -813 
Q 750 -359 506 256 
Q 263 872 263 1534 
Q 263 2503 741 3301 
Q 1219 4100 1988 4444 
L 1988 4313 
Q 1603 4100 1356 3731 
Q 1109 3363 987 2797 
Q 866 2231 866 1616 
Q 866 947 969 400 
Q 1050 -31 1165 -292 
Q 1281 -553 1476 -793 
Q 1672 -1034 1988 -1253 
z
" transform="scale(0.015625)"/>
       <path id="TimesNewRomanPSMT-29" d="M 144 4313 
L 144 4444 
Q 619 4209 934 3891 
Q 1381 3434 1625 2820 
Q 1869 2206 1869 1541 
Q 1869 572 1392 -226 
Q 916 -1025 144 -1369 
L 144 -1253 
Q 528 -1038 776 -670 
Q 1025 -303 1145 264 
Q 1266 831 1266 1447 
Q 1266 2113 1163 2663 
Q 1084 3094 967 3353 
Q 850 3613 656 3853 
Q 463 4094 144 4313 
z
" transform="scale(0.015625)"/>
      </defs>
      <use xlink:href="#TimesNewRomanPSMT-44"/>
      <use xlink:href="#TimesNewRomanPSMT-69" x="72.216797"/>
      <use xlink:href="#TimesNewRomanPSMT-73" x="100"/>
      <use xlink:href="#TimesNewRomanPSMT-70" x="138.916016"/>
      <use xlink:href="#TimesNewRomanPSMT-6c" x="188.916016"/>
      <use xlink:href="#TimesNewRomanPSMT-61" x="216.699219"/>
      <use xlink:href="#TimesNewRomanPSMT-63" x="261.083984"/>
      <use xlink:href="#TimesNewRomanPSMT-65" x="305.46875"/>
      <use xlink:href="#TimesNewRomanPSMT-6d" x="349.853516"/>
      <use xlink:href="#TimesNewRomanPSMT-65" x="427.636719"/>
      <use xlink:href="#TimesNewRomanPSMT-6e" x="472.021484"/>
      <use xlink:href="#TimesNewRomanPSMT-74" x="522.021484"/>
      <use xlink:href="#TimesNewRomanPSMT-20" x="549.804688"/>
      <use xlink:href="#TimesNewRomanPSMT-28" x="574.804688"/>
      <use xlink:href="#TimesNewRomanPSMT-6d" x="608.105469"/>
      <use xlink:href="#TimesNewRomanPSMT-6d" x="685.888672"/>
      <use xlink:href="#TimesNewRomanPSMT-29" x="763.671875"/>
     </g>
    </g>
   </g>
   <g id="matplotlib.axis_2">
    <g id="ytick_1">
     <g id="line2d_11">
      <path d="M 49.432813 225.460033 
L 272.252813 225.460033 
" clip-path="url(#p7eccb31d8c)" style="fill: none; stroke-dasharray: 0.8,1.32; stroke-dashoffset: 0; stroke: #b0b0b0; stroke-width: 0.8"/>
     </g>
     <g id="line2d_12">
      <defs>
       <path id="m34580046b0" d="M 0 0 
L -3.5 0 
" style="stroke: #000000; stroke-width: 0.8"/>
      </defs>
      <g>
       <use xlink:href="#m34580046b0" x="49.432813" y="225.460033" style="stroke: #000000; stroke-width: 0.8"/>
      </g>
     </g>
     <g id="text_7">
      <!-- −200 -->
      <g transform="translate(20.282813 228.953783) scale(0.1 -0.1)">
       <use xlink:href="#Cambria-2212"/>
       <use xlink:href="#Cambria-32" x="55.371094"/>
       <use xlink:href="#Cambria-30" x="110.742188"/>
       <use xlink:href="#Cambria-30" x="166.113281"/>
      </g>
     </g>
    </g>
    <g id="ytick_2">
     <g id="line2d_13">
      <path d="M 49.432813 179.882883 
L 272.252813 179.882883 
" clip-path="url(#p7eccb31d8c)" style="fill: none; stroke-dasharray: 0.8,1.32; stroke-dashoffset: 0; stroke: #b0b0b0; stroke-width: 0.8"/>
     </g>
     <g id="line2d_14">
      <g>
       <use xlink:href="#m34580046b0" x="49.432813" y="179.882883" style="stroke: #000000; stroke-width: 0.8"/>
      </g>
     </g>
     <g id="text_8">
      <!-- −100 -->
      <g transform="translate(20.282813 183.376633) scale(0.1 -0.1)">
       <use xlink:href="#Cambria-2212"/>
       <use xlink:href="#Cambria-31" x="55.371094"/>
       <use xlink:href="#Cambria-30" x="110.742188"/>
       <use xlink:href="#Cambria-30" x="166.113281"/>
      </g>
     </g>
    </g>
    <g id="ytick_3">
     <g id="line2d_15">
      <path d="M 49.432813 134.305732 
L 272.252813 134.305732 
" clip-path="url(#p7eccb31d8c)" style="fill: none; stroke-dasharray: 0.8,1.32; stroke-dashoffset: 0; stroke: #b0b0b0; stroke-width: 0.8"/>
     </g>
     <g id="line2d_16">
      <g>
       <use xlink:href="#m34580046b0" x="49.432813" y="134.305732" style="stroke: #000000; stroke-width: 0.8"/>
      </g>
     </g>
     <g id="text_9">
      <!-- 0 -->
      <g transform="translate(36.895313 137.799482) scale(0.1 -0.1)">
       <use xlink:href="#Cambria-30"/>
      </g>
     </g>
    </g>
    <g id="ytick_4">
     <g id="line2d_17">
      <path d="M 49.432813 88.728581 
L 272.252813 88.728581 
" clip-path="url(#p7eccb31d8c)" style="fill: none; stroke-dasharray: 0.8,1.32; stroke-dashoffset: 0; stroke: #b0b0b0; stroke-width: 0.8"/>
     </g>
     <g id="line2d_18">
      <g>
       <use xlink:href="#m34580046b0" x="49.432813" y="88.728581" style="stroke: #000000; stroke-width: 0.8"/>
      </g>
     </g>
     <g id="text_10">
      <!-- 100 -->
      <g transform="translate(25.820313 92.222331) scale(0.1 -0.1)">
       <use xlink:href="#Cambria-31"/>
       <use xlink:href="#Cambria-30" x="55.371094"/>
       <use xlink:href="#Cambria-30" x="110.742188"/>
      </g>
     </g>
    </g>
    <g id="ytick_5">
     <g id="line2d_19">
      <path d="M 49.432813 43.15143 
L 272.252813 43.15143 
" clip-path="url(#p7eccb31d8c)" style="fill: none; stroke-dasharray: 0.8,1.32; stroke-dashoffset: 0; stroke: #b0b0b0; stroke-width: 0.8"/>
     </g>
     <g id="line2d_20">
      <g>
       <use xlink:href="#m34580046b0" x="49.432813" y="43.15143" style="stroke: #000000; stroke-width: 0.8"/>
      </g>
     </g>
     <g id="text_11">
      <!-- 200 -->
      <g transform="translate(25.820313 46.64518) scale(0.1 -0.1)">
       <use xlink:href="#Cambria-32"/>
       <use xlink:href="#Cambria-30" x="55.371094"/>
       <use xlink:href="#Cambria-30" x="110.742188"/>
      </g>
     </g>
    </g>
    <g id="text_12">
     <!-- Base Shear (kN) -->
     <g transform="translate(14.14375 165.335312) rotate(-90) scale(0.1 -0.1)">
      <defs>
       <path id="TimesNewRomanPSMT-42" d="M 2956 2163 
Q 3397 2069 3616 1863 
Q 3919 1575 3919 1159 
Q 3919 844 3719 555 
Q 3519 266 3170 133 
Q 2822 0 2106 0 
L 106 0 
L 106 116 
L 266 116 
Q 531 116 647 284 
Q 719 394 719 750 
L 719 3488 
Q 719 3881 628 3984 
Q 506 4122 266 4122 
L 106 4122 
L 106 4238 
L 1938 4238 
Q 2450 4238 2759 4163 
Q 3228 4050 3475 3764 
Q 3722 3478 3722 3106 
Q 3722 2788 3528 2536 
Q 3334 2284 2956 2163 
z
M 1319 2331 
Q 1434 2309 1582 2298 
Q 1731 2288 1909 2288 
Q 2366 2288 2595 2386 
Q 2825 2484 2947 2687 
Q 3069 2891 3069 3131 
Q 3069 3503 2766 3765 
Q 2463 4028 1881 4028 
Q 1569 4028 1319 3959 
L 1319 2331 
z
M 1319 306 
Q 1681 222 2034 222 
Q 2600 222 2897 476 
Q 3194 731 3194 1106 
Q 3194 1353 3059 1581 
Q 2925 1809 2622 1940 
Q 2319 2072 1872 2072 
Q 1678 2072 1540 2065 
Q 1403 2059 1319 2044 
L 1319 306 
z
" transform="scale(0.015625)"/>
       <path id="TimesNewRomanPSMT-53" d="M 2934 4334 
L 2934 2869 
L 2819 2869 
Q 2763 3291 2617 3541 
Q 2472 3791 2203 3937 
Q 1934 4084 1647 4084 
Q 1322 4084 1109 3886 
Q 897 3688 897 3434 
Q 897 3241 1031 3081 
Q 1225 2847 1953 2456 
Q 2547 2138 2764 1967 
Q 2981 1797 3098 1565 
Q 3216 1334 3216 1081 
Q 3216 600 2842 251 
Q 2469 -97 1881 -97 
Q 1697 -97 1534 -69 
Q 1438 -53 1133 45 
Q 828 144 747 144 
Q 669 144 623 97 
Q 578 50 556 -97 
L 441 -97 
L 441 1356 
L 556 1356 
Q 638 900 775 673 
Q 913 447 1195 297 
Q 1478 147 1816 147 
Q 2206 147 2432 353 
Q 2659 559 2659 841 
Q 2659 997 2573 1156 
Q 2488 1316 2306 1453 
Q 2184 1547 1640 1851 
Q 1097 2156 867 2337 
Q 638 2519 519 2737 
Q 400 2956 400 3219 
Q 400 3675 750 4004 
Q 1100 4334 1641 4334 
Q 1978 4334 2356 4169 
Q 2531 4091 2603 4091 
Q 2684 4091 2736 4139 
Q 2788 4188 2819 4334 
L 2934 4334 
z
" transform="scale(0.015625)"/>
       <path id="TimesNewRomanPSMT-68" d="M 1041 4444 
L 1041 2350 
Q 1388 2731 1591 2839 
Q 1794 2947 1997 2947 
Q 2241 2947 2416 2812 
Q 2591 2678 2675 2391 
Q 2734 2191 2734 1659 
L 2734 647 
Q 2734 375 2778 275 
Q 2809 200 2884 156 
Q 2959 113 3159 113 
L 3159 0 
L 1753 0 
L 1753 113 
L 1819 113 
Q 2019 113 2097 173 
Q 2175 234 2206 353 
Q 2216 403 2216 647 
L 2216 1659 
Q 2216 2128 2167 2275 
Q 2119 2422 2012 2495 
Q 1906 2569 1756 2569 
Q 1603 2569 1437 2487 
Q 1272 2406 1041 2159 
L 1041 647 
Q 1041 353 1073 281 
Q 1106 209 1195 161 
Q 1284 113 1503 113 
L 1503 0 
L 84 0 
L 84 113 
Q 275 113 384 172 
Q 447 203 484 290 
Q 522 378 522 647 
L 522 3238 
Q 522 3728 498 3840 
Q 475 3953 426 3993 
Q 378 4034 297 4034 
Q 231 4034 84 3984 
L 41 4094 
L 897 4444 
L 1041 4444 
z
" transform="scale(0.015625)"/>
       <path id="TimesNewRomanPSMT-72" d="M 1038 2947 
L 1038 2303 
Q 1397 2947 1775 2947 
Q 1947 2947 2059 2842 
Q 2172 2738 2172 2600 
Q 2172 2478 2090 2393 
Q 2009 2309 1897 2309 
Q 1788 2309 1652 2417 
Q 1516 2525 1450 2525 
Q 1394 2525 1328 2463 
Q 1188 2334 1038 2041 
L 1038 669 
Q 1038 431 1097 309 
Q 1138 225 1241 169 
Q 1344 113 1538 113 
L 1538 0 
L 72 0 
L 72 113 
Q 291 113 397 181 
Q 475 231 506 341 
Q 522 394 522 644 
L 522 1753 
Q 522 2253 501 2348 
Q 481 2444 426 2487 
Q 372 2531 291 2531 
Q 194 2531 72 2484 
L 41 2597 
L 906 2947 
L 1038 2947 
z
" transform="scale(0.015625)"/>
       <path id="TimesNewRomanPSMT-6b" d="M 1047 4444 
L 1047 1597 
L 1775 2259 
Q 2006 2472 2044 2528 
Q 2069 2566 2069 2603 
Q 2069 2666 2017 2711 
Q 1966 2756 1847 2763 
L 1847 2863 
L 3091 2863 
L 3091 2763 
Q 2834 2756 2664 2684 
Q 2494 2613 2291 2428 
L 1556 1750 
L 2291 822 
Q 2597 438 2703 334 
Q 2853 188 2966 144 
Q 3044 113 3238 113 
L 3238 0 
L 1847 0 
L 1847 113 
Q 1966 116 2008 148 
Q 2050 181 2050 241 
Q 2050 313 1925 472 
L 1047 1594 
L 1047 644 
Q 1047 366 1086 278 
Q 1125 191 1197 153 
Q 1269 116 1509 113 
L 1509 0 
L 53 0 
L 53 113 
Q 272 113 381 166 
Q 447 200 481 272 
Q 528 375 528 628 
L 528 3234 
Q 528 3731 506 3842 
Q 484 3953 434 3995 
Q 384 4038 303 4038 
Q 238 4038 106 3984 
L 53 4094 
L 903 4444 
L 1047 4444 
z
" transform="scale(0.015625)"/>
       <path id="TimesNewRomanPSMT-4e" d="M -84 4238 
L 1066 4238 
L 3656 1059 
L 3656 3503 
Q 3656 3894 3569 3991 
Q 3453 4122 3203 4122 
L 3056 4122 
L 3056 4238 
L 4531 4238 
L 4531 4122 
L 4381 4122 
Q 4113 4122 4000 3959 
Q 3931 3859 3931 3503 
L 3931 -69 
L 3819 -69 
L 1025 3344 
L 1025 734 
Q 1025 344 1109 247 
Q 1228 116 1475 116 
L 1625 116 
L 1625 0 
L 150 0 
L 150 116 
L 297 116 
Q 569 116 681 278 
Q 750 378 750 734 
L 750 3681 
Q 566 3897 470 3965 
Q 375 4034 191 4094 
Q 100 4122 -84 4122 
L -84 4238 
z
" transform="scale(0.015625)"/>
      </defs>
      <use xlink:href="#TimesNewRomanPSMT-42"/>
      <use xlink:href="#TimesNewRomanPSMT-61" x="66.699219"/>
      <use xlink:href="#TimesNewRomanPSMT-73" x="111.083984"/>
      <use xlink:href="#TimesNewRomanPSMT-65" x="150"/>
      <use xlink:href="#TimesNewRomanPSMT-20" x="194.384766"/>
      <use xlink:href="#TimesNewRomanPSMT-53" x="219.384766"/>
      <use xlink:href="#TimesNewRomanPSMT-68" x="275"/>
      <use xlink:href="#TimesNewRomanPSMT-65" x="325"/>
      <use xlink:href="#TimesNewRomanPSMT-61" x="369.384766"/>
      <use xlink:href="#TimesNewRomanPSMT-72" x="413.769531"/>
      <use xlink:href="#TimesNewRomanPSMT-20" x="447.070312"/>
      <use xlink:href="#TimesNewRomanPSMT-28" x="472.070312"/>
      <use xlink:href="#TimesNewRomanPSMT-6b" x="505.371094"/>
      <use xlink:href="#TimesNewRomanPSMT-4e" x="555.371094"/>
      <use xlink:href="#TimesNewRomanPSMT-29" x="627.587891"/>
     </g>
    </g>
   </g>
   <g id="line2d_21">
    <path d="M 154.594698 133.997571 
L 156.102002 123.54411 
L 157.231378 114.320894 
L 158.364241 109.400727 
L 159.495603 102.636394 
L 161.387761 99.558783 
L 164.41971 100.167092 
L 168.571104 79.257772 
L 155.353558 135.22541 
L 154.606566 148.750867 
L 152.722788 162.278731 
L 151.972842 172.115866 
L 148.5743 186.876377 
L 146.681658 189.339266 
L 148.188477 178.271083 
L 148.935952 165.360352 
L 150.441318 152.448008 
L 151.948622 141.994552 
L 154.215753 133.998373 
L 158.741685 107.555764 
L 160.250974 99.561185 
L 162.139693 92.180531 
L 164.031367 88.488203 
L 162.525517 100.78582 
L 159.885883 116.774171 
L 158.380032 129.071789 
L 152.7193 157.975687 
L 150.831114 165.971063 
L 151.976281 176.41891 
L 146.304698 191.798951 
L 143.65712 197.951766 
L 152.694596 127.239651 
L 141.010559 205.334025 
L 141.001646 194.269055 
L 142.505995 180.127272 
L 145.525107 164.752841 
L 148.167744 152.452817 
L 150.811351 141.382232 
L 150.807379 136.464466 
L 156.856889 119.854184 
L 160.252476 101.405351 
L 162.137707 89.721648 
L 165.542643 82.952507 
L 167.056389 80.49042 
L 165.930452 94.016679 
L 161.019715 113.083438 
L 159.139376 130.91435 
L 155.742336 147.519022 
L 153.483585 165.965453 
L 150.838525 175.191873 
L 146.302228 188.725347 
L 141.387518 202.87434 
L 141.380592 194.268253 
L 142.88494 180.12647 
L 147.413826 157.372187 
L 150.052976 140.769114 
L 164.793665 94.019086 
L 163.65591 92.792044 
L 170.839252 72.491033 
L 174.243704 65.107174 
L 177.274151 63.871323 
L 175.390857 78.013903 
L 171.988876 88.471366 
L 165.185932 110.615741 
L 162.919769 119.841363 
L 154.985463 148.750065 
L 151.208073 163.511374 
L 148.948305 180.728366 
L 145.169413 193.645519 
L 140.252718 205.335629 
L 138.364483 213.331006 
L 135.714434 216.410221 
L 135.327109 205.960765 
L 136.829472 189.360104 
L 145.514208 151.228984 
L 148.535791 138.928157 
L 154.584817 121.703157 
L 161.01429 106.321512 
L 171.97851 75.562231 
L 175.758418 63.874527 
L 182.948688 52.179603 
L 184.466358 54.635277 
L 181.067865 69.395793 
L 176.910512 82.928465 
L 170.488499 107.530915 
L 169.359608 117.368852 
L 165.577229 125.982957 
L 162.176265 137.669863 
L 159.530673 146.281566 
L 156.505652 154.279348 
L 151.969354 167.812822 
L 148.949806 182.572532 
L 144.413025 195.491284 
L 139.874257 205.951153 
L 136.849719 214.563653 
L 133.443331 219.488629 
L 130.792798 221.953127 
L 131.160844 208.428467 
L 131.903911 189.985245 
L 133.412232 180.761227 
L 136.433766 168.460401 
L 170.474161 89.704014 
L 145.130371 145.082581 
L 158.745608 112.473529 
L 173.872654 74.943503 
L 173.497681 79.862075 
L 177.279091 70.018527 
L 181.061471 61.404418 
L 183.332041 57.711293 
L 178.420286 75.548608 
L 176.158096 89.691995 
L 171.623785 105.684352 
L 159.91204 149.354368 
L 155.752751 160.428157 
L 149.704209 178.267884 
L 138.736501 204.724112 
L 134.195263 212.110376 
L 131.166802 215.80512 
L 130.409929 217.036159 
L 131.901441 186.91164 
L 134.920989 172.151931 
L 138.702884 162.923105 
L 143.617593 148.774112 
L 155.718164 117.397707 
L 169.335872 87.86226 
L 181.061471 61.404418 
L 183.331557 57.096566 
L 185.600723 51.559271 
L 189.765438 47.247412 
L 191.288581 56.465022 
L 187.889119 69.996085 
L 180.333225 98.289268 
L 175.792036 105.675533 
L 170.116481 116.137809 
L 165.578731 127.827122 
L 160.666976 145.664442 
L 151.558826 128.471496 
L 146.66979 174.58597 
L 142.134025 188.734161 
L 138.356054 202.880753 
L 133.814865 210.267018 
L 130.032485 218.881127 
L 128.142265 224.41762 
L 124.357415 229.95812 
L 123.970574 220.123391 
L 125.850429 201.677762 
L 128.871963 189.376936 
L 132.651387 177.074505 
L 140.969531 154.312205 
L 151.176442 124.16925 
L 164.792212 92.17492 
L 171.982966 81.094723 
L 178.792305 66.941723 
L 184.849275 59.552245 
L 187.87575 53.398623 
L 190.146853 50.320215 
L 189.778323 63.230148 
L 185.622424 78.606985 
L 179.571412 93.373107 
L 175.792036 105.675533 
L 170.118467 118.596692 
L 164.821858 129.058166 
L 160.285076 141.976918 
L 157.644425 156.735825 
L 151.214952 172.117466 
L 145.162486 185.039427 
L 139.865877 195.500901 
L 135.703099 202.271642 
L 131.919218 209.041585 
L 128.51283 213.966565 
L 125.864234 218.889946 
L 123.594632 223.812515 
L 125.095542 205.367693 
L 128.116107 191.837418 
L 130.379799 179.538196 
L 134.918034 168.463609 
L 139.834245 156.158772 
L 143.615656 146.315229 
L 147.773977 134.011996 
L 153.446044 119.246677 
L 173.118736 79.862873 
L 179.552665 70.013719 
L 185.227203 58.322004 
L 193.552758 44.780513 
L 197.339593 41.698896 
L 198.853824 39.851531 
L 198.865692 54.604822 
L 191.678861 70.60279 
L 186.765653 86.595949 
L 183.36469 98.282855 
L 179.20385 107.512484 
L 174.663144 115.51347 
L 170.880281 123.512853 
L 167.855259 131.510636 
L 164.07041 137.051135 
L 159.530673 146.281566 
L 148.180097 167.820835 
L 142.507981 182.586155 
L 136.833928 194.892591 
L 131.160844 208.428467 
L 127.75741 217.041774 
L 121.703443 228.119569 
L 119.812738 233.041337 
L 117.541634 236.119759 
L 114.889648 236.740086 
L 114.883205 228.748716 
L 116.009142 215.222457 
L 119.78658 200.461144 
L 132.64446 168.468418 
L 140.59015 153.698285 
L 147.398519 138.315842 
L 153.826975 121.704757 
L 163.662304 100.783418 
L 180.692892 74.314361 
L 199.994583 44.76689 
L 193.5592 52.771883 
L 196.965105 47.232185 
L 199.237225 45.383211 
L 197.351945 57.066914 
L 193.19314 68.755425 
L 190.547548 77.367127 
L 185.252392 89.672757 
L 182.231342 102.588305 
L 176.177375 113.666105 
L 170.503322 125.972538 
L 164.069925 136.436418 
L 158.394855 147.513411 
L 153.478159 159.203527 
L 147.426178 172.740205 
L 141.750139 182.587759 
L 136.831942 192.433709 
L 133.049079 200.433091 
L 129.267717 210.276639 
L 125.104891 217.04738 
L 122.456344 221.970756 
L 118.670525 226.281812 
L 114.884174 229.978156 
L 116.766499 214.606131 
L 120.167947 203.533942 
L 124.705213 191.229916 
L 130.756758 177.078511 
L 137.188169 164.155753 
L 147.396533 135.856959 
L 153.446528 119.861398 
L 161.769177 102.631586 
L 176.527159 77.39678 
L 182.583112 68.777867 
L 187.125804 63.235763 
L 194.319028 55.229166 
L 202.64313 39.843514 
L 204.914718 37.379823 
L 206.428464 34.917736 
L 206.815789 45.367182 
L 206.823685 55.202717 
L 203.798711 63.200495 
L 197.747166 77.351895 
L 193.96532 86.580721 
L 182.614211 107.505269 
L 178.451918 114.890736 
L 165.205695 135.204572 
L 157.637013 147.515016 
L 153.478159 159.203527 
L 147.047233 172.741007 
L 138.723132 188.126654 
L 133.049079 200.433091 
L 128.508858 209.048795 
L 123.969605 218.893952 
L 120.943131 225.047569 
L 116.021494 230.590475 
L 112.615541 236.130173 
L 108.829238 239.826507 
L 106.177737 241.061561 
L 106.549706 232.454667 
L 108.811461 217.696563 
L 111.831542 203.551576 
L 117.883523 190.014897 
L 124.314933 177.092139 
L 130.748814 167.24298 
L 136.424853 157.395426 
L 141.34058 144.475872 
L 147.773977 134.011996 
L 167.825614 94.62739 
L 176.906589 78.010699 
L 181.83118 76.156119 
L 156.854419 116.780584 
L 200.755912 49.068329 
L 207.947635 39.217571 
L 204.549142 53.978082 
L 202.663378 65.047067 
L 198.881483 74.275889 
L 194.721176 84.120239 
L 188.287295 93.969393 
L 184.128974 106.272621 
L 178.452935 116.120175 
L 173.153322 122.893327 
L 168.99006 129.049346 
L 164.45231 140.73866 
L 158.016927 148.743653 
L 153.477675 158.588805 
L 147.423708 169.6666 
L 139.855995 183.206487 
L 133.800042 191.8254 
L 125.852899 204.751367 
L 122.07052 213.365466 
L 117.907743 220.136216 
L 114.881219 226.289834 
L 112.231704 229.983771 
L 109.203243 233.678505 
L 106.55271 236.142998 
L 106.922742 225.077222 
L 110.322204 211.54615 
L 114.479072 197.39876 
L 122.045331 182.014713 
L 128.479697 172.780276 
L 135.287582 156.783111 
L 140.583707 145.706915 
L 146.259746 135.859366 
L 155.721119 121.086029 
L 166.312837 98.318921 
L 174.257509 82.319354 
L 189.021934 65.075913 
L 195.454846 53.99732 
L 204.918205 41.682866 
L 210.216752 33.680275 
L 215.520289 31.824893 
L 215.90713 41.659622 
L 213.264492 53.959646 
L 209.485601 66.876798 
L 159.153714 148.741251 
L 197.377619 89.032394 
L 189.809906 102.572276 
L 184.133382 111.805108 
L 176.184786 122.886915 
L 168.614118 132.738475 
L 162.937546 141.971307 
L 156.88605 156.122707 
L 144.395731 173.976056 
L 129.636732 197.981419 
L 119.042544 217.674927 
L 114.123378 226.291433 
L 110.718926 233.675297 
L 106.176235 239.217396 
L 102.389399 242.299018 
L 100.116843 243.53327 
L 100.487359 233.082215 
L 101.23779 223.859806 
L 104.637785 210.943451 
L 108.796154 198.640223 
L 114.850121 187.562427 
L 119.769287 178.945917 
L 125.065897 168.484443 
L 132.257619 158.633685 
L 139.068459 146.324846 
L 147.394063 132.783355 
L 173.126147 89.083686 
L 189.025373 69.378961 
L 195.838684 60.143727 
L 201.51574 51.525612 
L 207.193232 43.522219 
L 211.736941 39.209558 
L 214.766419 36.744263 
L 216.281618 36.126332 
L 215.910085 45.347948 
L 212.889519 58.878218 
L 209.108158 68.721766 
L 204.948335 79.180829 
L 199.272296 89.028383 
L 193.972731 95.801535 
L 184.888269 108.115182 
L 178.45589 119.808502 
L 171.641562 127.814297 
L 164.071863 138.895301 
L 154.237018 160.431361 
L 145.530048 170.900045 
L 137.584891 186.2849 
L 128.879859 199.212467 
L 122.066548 208.447701 
L 116.769454 218.294457 
L 112.227247 224.451279 
L 107.305611 229.994185 
L 102.38349 234.922369 
L 100.112386 238.000782 
L 101.236337 222.01564 
L 103.882413 214.018655 
L 109.553511 198.023897 
L 113.335891 189.409792 
L 119.769772 179.560638 
L 124.689422 171.55885 
L 129.608104 162.327622 
L 136.042953 153.707902 
L 143.234725 143.857144 
L 159.883897 114.315288 
L 166.694252 101.391723 
L 176.155141 86.003669 
L 183.72484 74.922665 
L 198.109303 56.450588 
L 204.164772 47.216958 
L 209.464869 41.058528 
L 214.008045 36.131145 
L 217.793863 31.820089 
L 222.338056 28.122146 
L 224.990575 28.116536 
L 226.511248 34.260536 
L 225.760285 42.868228 
L 223.494122 52.093845 
L 143.637357 173.362939 
L 214.035704 70.555508 
L 204.576801 88.402445 
L 199.657151 96.404229 
L 194.358555 104.406825 
L 187.165815 113.028139 
L 183.002553 119.184163 
L 174.295583 129.652847 
L 169.754345 137.039117 
L 163.698876 146.272751 
L 147.801636 168.436354 
L 138.340263 183.209691 
L 127.746075 202.903195 
L 118.660644 213.987403 
L 113.36355 223.834155 
L 105.79138 231.84155 
L 101.627101 236.768135 
L 99.735427 240.460472 
L 95.949609 244.771528 
L 92.540217 246.008182 
L 91.39752 238.633936 
L 93.281298 225.106077 
L 96.681245 212.189731 
L 101.59547 197.426011 
L 112.948565 178.960346 
L 176.536557 89.076476 
L 125.436898 158.64811 
L 132.628669 148.797352 
L 138.304708 138.949797 
L 144.739558 130.330083 
L 152.312212 122.937405 
L 178.806158 84.153898 
L 199.625519 57.062105 
L 210.225181 44.130528 
L 224.235204 31.19174 
L 226.508777 31.186936 
L 226.893099 37.948056 
L 224.62747 47.7884 
L 222.738218 54.554337 
L 219.334784 63.167634 
L 214.794078 71.168626 
L 208.358696 79.173619 
L 203.819444 89.018771 
L 199.279223 97.634475 
L 193.600713 104.408424 
L 185.650083 113.031343 
L 181.866735 120.416009 
L 176.188225 127.189958 
L 168.241083 140.115925 
L 163.700378 148.116912 
L 155.373805 160.428959 
L 149.316351 167.203707 
L 135.308314 182.601382 
L 121.308222 207.834583 
L 114.116451 217.685346 
L 107.300185 223.232259 
L 101.242246 229.392289 
L 97.836826 235.546713 
L 94.050475 239.243047 
L 90.641616 241.094423 
L 92.52738 230.025442 
L 94.414113 220.185905 
L 100.463624 203.575622 
L 107.275481 192.496222 
L 118.625089 169.727509 
L 125.815358 158.03259 
L 133.76347 146.336067 
L 192.43772 71.830629 
L 147.010177 126.636952 
L 156.472567 113.093059 
L 165.937379 102.622771 
L 196.598027 61.986284 
L 212.500208 45.96988 
L 219.314051 37.349363 
L 229.158778 28.107716 
L 232.18874 26.257147 
L 234.463283 27.481773 
L 231.827088 47.773168 
L 227.667265 58.23224 
L 221.990258 66.850355 
L 217.449019 74.23662 
L 210.639197 87.774902 
L 204.962673 97.007734 
L 192.472791 115.475801 
L 185.657494 122.252157 
L 178.844184 131.487396 
L 170.8921 138.266154 
L 164.078305 146.886671 
L 159.537067 154.272936 
L 151.591426 169.043064 
L 141.749655 181.973037 
L 128.501446 199.827991 
L 118.657689 210.299081 
L 112.979664 217.687753 
L 106.920756 222.618339 
L 102.000621 230.005406 
L 94.42695 236.16864 
L 87.611653 242.944992 
L 84.581206 244.180848 
L 84.574812 236.189483 
L 83.809026 226.355551 
L 88.345808 213.436799 
L 94.77625 199.284597 
L 101.588591 188.819919 
L 108.778861 177.124996 
L 115.968598 164.815355 
L 124.294685 151.888585 
L 131.48791 143.881993 
L 139.439025 135.873791 
L 147.009692 126.022231 
L 156.099532 120.47051 
L 161.773585 108.164073 
L 169.344785 98.92723 
L 179.945416 87.225096 
L 190.545562 74.908244 
L 201.903065 61.975067 
L 213.262555 51.500763 
L 221.969525 41.032084 
L 227.648519 34.872851 
L 231.814252 31.790432 
L 233.707912 30.556978 
L 233.714354 38.548352 
L 229.557486 52.695746 
L 223.504972 65.617707 
L 217.829466 76.079978 
L 211.017609 87.159378 
L 201.175353 99.47463 
L 190.198248 114.25117 
L 182.630535 127.791052 
L 169.37787 140.113519 
L 158.401298 155.504781 
L 148.939392 169.663396 
L 137.203476 183.212097 
L 130.010736 191.833412 
L 120.545924 202.303705 
L 112.974238 210.925822 
L 105.399599 215.859617 
L 94.044081 231.251677 
L 91.016589 236.17586 
L 87.229269 238.642755 
L 84.198822 239.878607 
L 83.054624 230.660199 
L 86.076206 218.359378 
L 90.992902 206.669258 
L 95.910082 195.593869 
L 101.588059 188.205197 
L 108.021455 177.741322 
L 111.80335 168.512496 
L 119.374551 159.275657 
L 125.808916 150.04122 
L 133.00214 142.034623 
L 139.439025 135.873791 
L 145.119472 131.558724 
L 153.449531 123.54972 
L 159.885398 116.159449 
L 168.211922 103.847402 
L 177.675281 91.532952 
L 186.001853 79.220905 
L 193.952435 70.597986 
L 201.52412 61.975865 
L 210.233077 53.966059 
L 227.649488 36.102295 
L 232.193197 31.789625 
L 235.601571 29.323532 
L 239.009462 26.242713 
L 240.52471 25.624792 
L 242.422778 29.923825 
L 242.429705 38.529921 
L 239.784597 47.756341 
L 236.002751 56.985162 
L 232.597815 63.754303 
L 223.136926 79.142362 
L 217.837846 86.530231 
L 213.676038 94.530416 
L 207.997044 100.689643 
L 201.941575 109.923278 
L 194.370907 119.774838 
L 186.420325 128.397762 
L 176.575551 137.639409 
L 169.381842 145.031284 
L 161.430727 153.039486 
L 154.618434 163.504164 
L 147.804106 171.509959 
L 140.234892 183.205685 
L 133.041667 191.212282 
L 122.81848 201.069448 
L 114.865428 206.618767 
L 107.671719 214.010643 
L 101.99321 220.784592 
L 94.422009 230.021436 
L 84.198822 239.878607 
L 80.790932 242.959426 
L 75.865371 243.584567 
L 75.857427 233.749031 
L 76.986319 223.911094 
L 80.387815 212.838904 
L 86.063321 202.376633 
L 92.11879 193.142999 
L 98.551218 181.449679 
L 104.228226 172.831569 
L 117.477403 156.206059 
L 126.18292 143.893214 
L 135.270289 135.267884 
L 142.085585 128.491532 
L 146.248847 122.335508 
L 153.444058 116.787794 
L 161.772616 106.934629 
L 168.585442 97.084673 
L 182.596433 85.375324 
L 186.382252 81.064264 
L 194.711779 72.440543 
L 205.692371 61.967045 
L 215.160138 55.185083 
L 226.142184 46.555752 
L 234.470694 36.702587 
L 238.635991 33.005446 
L 240.907578 30.541755 
L 241.294419 40.376484 
L 237.137067 53.909156 
L 233.357158 65.596864 
L 226.544817 76.061542 
L 221.246754 84.678855 
L 213.297625 95.14594 
L 204.59361 109.30295 
L 196.263066 116.697232 
L 187.936542 129.009275 
L 178.470228 137.635402 
L 170.139199 144.414963 
L 160.294425 153.65661 
L 152.723757 163.508175 
L 142.122642 174.595587 
L 126.224433 195.529751 
L 116.758604 204.770596 
L 108.807489 212.778797 
L 100.853419 217.098677 
L 94.796013 223.873429 
L 89.495916 230.03185 
L 83.437493 235.577163 
L 79.650221 238.044058 
L 76.618272 237.435753 
L 76.988789 226.984703 
L 80.012309 217.142755 
L 83.41429 206.685287 
L 90.605577 196.219812 
L 97.416417 183.910968 
L 105.364044 171.599723 
L 111.798893 162.980008 
L 120.127936 153.741565 
L 131.485439 140.808388 
L 140.191925 129.724982 
L 149.655769 118.02525 
L 161.393186 106.32071 
L 173.130119 94.001452 
L 187.140142 81.062659 
L 197.363329 71.205488 
L 206.072285 63.195687 
L 214.02432 56.416929 
L 239.395818 35.462729 
L 245.454242 29.917416 
L 249.242046 28.065238 
L 250.758263 28.676756 
L 252.279904 36.050196 
L 250.77013 43.430048 
L 245.851449 52.661281 
L 239.421492 67.428205 
L 234.502325 76.044715 
L 225.795839 87.128121 
L 218.982529 96.36336 
L 210.275558 106.832044 
L 201.945547 114.841043 
L 193.996419 125.308128 
L 184.532091 136.393138 
L 176.202079 144.402137 
L 168.249511 150.566178 
L 159.919452 158.575177 
L 153.104155 165.351533 
L 145.534989 177.047255 
L 131.522012 186.297721 
L 122.814557 196.151683 
L 113.730627 209.080057 
L 103.127526 217.708586 
L 91.010195 228.18449 
L 83.058596 235.577965 
L 76.241313 239.895434 
L 70.559849 242.981061 
L 69.418121 236.836259 
L 70.544058 223.31 
L 72.052863 214.700699 
L 78.485726 203.622106 
L 83.403439 193.161435 
L 90.972121 180.850991 
L 97.028559 172.846801 
L 104.979189 164.223877 
L 113.30673 153.141273 
L 120.877882 143.90443 
L 130.721639 133.43334 
L 136.779579 127.27331 
L 144.732679 121.723995 
L 150.789117 113.7198 
L 159.119128 105.710801 
L 169.720727 95.238106 
L 179.944447 85.995657 
L 189.031816 77.370331 
L 196.226542 71.207895 
L 203.041838 64.431543 
L 210.614977 57.653583 
L 250.755308 24.988434 
L 252.656379 32.975789 
L 250.392687 45.275016 
L 247.366164 51.428633 
L 241.690609 61.890909 
L 235.635673 71.739261 
L 231.85281 79.738648 
L 226.553245 86.511795 
L 219.738433 93.902868 
L 209.139256 107.449168 
L 188.69637 131.466558 
L 179.608952 140.091879 
L 173.174587 149.326315 
L 163.707304 156.723004 
L 155.755221 163.501762 
L 144.775161 174.589976 
L 126.978303 190.610386 
L 117.891419 199.850424 
L 103.884399 216.477547 
L 85.705157 228.195706 
L 80.025678 233.740212 
L 73.586324 236.82744 
L 69.039176 236.837061 
L 69.408239 224.541841 
L 72.808719 212.240217 
L 78.864187 203.006582 
L 86.432385 190.081422 
L 92.863795 177.158659 
L 99.299178 169.153666 
L 107.628705 160.52994 
L 123.906876 140.824417 
L 131.479045 132.817018 
L 138.672754 125.425143 
L 146.244439 116.803021 
L 160.63239 102.633992 
L 174.643381 90.924643 
L 190.547548 77.367127 
L 202.664395 66.276506 
L 210.614492 57.038866 
L 219.70283 49.642984 
L 228.792718 44.091259 
L 237.123698 37.311698 
L 244.318424 31.149262 
L 250.378349 27.448115 
L 253.786724 24.982022 
L 256.059813 24.362491 
L 258.712332 24.356876 
L 262.124631 26.808549 
L 260.618829 39.106167 
L 256.0835 53.869084 
L 249.649619 63.718238 
L 244.730453 72.334749 
L 237.91816 82.799427 
L 231.482245 90.189702 
L 223.152233 98.198702 
L 215.584036 111.123867 
L 208.768739 117.900223 
L 199.30291 127.141068 
L 192.866558 133.916621 
L 185.29342 140.694582 
L 179.235965 147.469329 
L 169.389738 154.86682 
L 160.679812 161.647177 
L 149.318821 170.277311 
L 137.958847 180.136889 
L 127.736678 191.223503 
L 117.513491 201.080674 
L 100.853952 217.713399 
L 91.008693 226.340324 
L 83.811981 230.043878 
L 75.479499 234.979272 
L 70.555877 238.063296 
L 64.874413 241.148919 
L 59.946866 239.315177 
L 61.832146 227.631479 
L 64.855133 217.174814 
L 75.069456 196.252673 
L 82.640124 186.401108 
L 88.694624 175.938034 
L 96.263305 163.627591 
L 103.457014 156.235711 
L 114.437074 145.147497 
L 123.144578 135.293535 
L 132.611376 127.282129 
L 139.806586 121.734414 
L 176.160082 92.150878 
L 185.247935 84.140275 
L 194.336805 77.35911 
L 201.908975 69.351715 
L 208.346828 64.420318 
L 229.176555 50.237665 
L 234.477621 45.308674 
L 240.158117 40.993607 
L 244.702794 37.910391 
L 248.1102 34.214849 
L 251.898005 32.362672 
L 256.443699 30.508898 
L 260.232472 29.88616 
L 261.75363 36.644886 
L 257.595309 48.948115 
L 255.330599 60.017898 
L 246.245701 71.716818 
L 240.191734 82.794618 
L 234.892654 90.182488 
L 226.562594 98.191491 
L 218.992895 109.272491 
L 207.254993 120.36231 
L 201.574498 124.677376 
L 194.001844 132.070054 
L 180.369798 143.778601 
L 172.040755 153.017044 
L 149.318821 170.277311 
L 139.472109 177.06008 
L 131.521527 185.682999 
L 122.054196 193.079683 
L 111.83004 201.707415 
L 103.120115 208.487772 
L 96.303317 213.419968 
L 89.48555 217.122715 
L 80.776593 225.132525 
L 75.853504 228.831266 
L 67.14353 235.611624 
L 59.566952 238.086536 
L 60.691387 222.716111 
L 64.470811 210.41369 
L 73.931652 195.025631 
L 79.609192 187.022242 
L 86.420032 174.713399 
L 92.855415 166.708406 
L 103.0771 155.007074 
L 111.406627 146.383349 
L 119.737656 139.603793 
L 125.796079 134.05848 
L 135.263362 126.661796 
L 152.684763 114.945233 
L 176.539511 92.764798 
L 185.628382 85.983633 
L 192.444163 79.821999 
L 199.258442 71.816209 
L 206.074756 66.269287 
L 214.027324 60.105251 
L 223.116678 53.938813 
L 230.313342 50.235259 
L 237.130625 45.917786 
L 243.569979 42.830563 
L 248.492584 38.517096 
L 254.552461 34.815948 
L 260.993317 33.572886 
L 261.758086 42.177365 
L 256.084033 54.483801 
L 248.137375 68.02449 
L 240.948559 81.563575 
L 235.269565 87.722803 
L 229.592072 95.726196 
L 222.021889 106.192478 
L 212.177647 116.048847 
L 204.604945 123.441525 
L 198.924982 128.371313 
L 186.430207 140.692175 
L 172.417714 150.557363 
L 159.160641 157.347342 
L 149.316884 167.818428 
L 138.714267 177.061684 
L 126.59495 185.078701 
L 115.992818 194.936669 
L 106.147074 202.948882 
L 95.920448 208.503004 
L 91.754183 210.970706 
L 85.696777 217.745453 
L 78.87901 221.448205 
L 73.957373 226.991111 
L 70.170538 230.072733 
L 65.624891 231.926506 
L 59.560994 230.709892 
L 62.960505 217.17882 
L 69.771345 204.869986 
L 75.823374 191.333299 
L 84.149413 178.406534 
L 92.857401 169.167289 
L 100.047671 157.472365 
L 111.785088 145.767829 
L 122.387705 136.524578 
L 122.387705 136.524578 
" clip-path="url(#p7eccb31d8c)" style="fill: none; stroke-dasharray: 3.7,1.6; stroke-dashoffset: 0; stroke: #000000"/>
   </g>
   <g id="line2d_22">
    <path d="M 154.405977 134.305732 
L 157.854407 103.289816 
L 160.009676 86.519581 
L 161.087311 80.283407 
L 162.595999 73.41075 
L 163.781397 69.051062 
L 165.721139 63.253992 
L 167.122064 59.786986 
L 169.385096 54.848462 
L 171.971419 49.525091 
L 173.480107 46.76734 
L 175.096559 44.241481 
L 176.820774 41.809289 
L 179.083806 39.082164 
L 181.346839 36.710899 
L 183.071054 35.193369 
L 184.903033 33.861459 
L 187.381592 32.173773 
L 188.89028 31.411861 
L 191.476603 30.430281 
L 195.571614 29.101906 
L 202.468475 27.171871 
L 208.395464 25.692429 
L 213.675873 24.59588 
L 219.81839 23.571841 
L 228.978283 22.268201 
L 240.293445 20.893359 
L 253.763876 19.40938 
L 262.061662 18.571818 
L 262.061662 18.571818 
" clip-path="url(#p7eccb31d8c)" style="fill: none; stroke: #0000ff; stroke-width: 1.2; stroke-linecap: square"/>
   </g>
   <g id="line2d_23">
    <path d="M 49.432813 134.305732 
L 272.252813 134.305732 
" clip-path="url(#p7eccb31d8c)" style="fill: none; stroke: #000000; stroke-width: 0.4; stroke-linecap: square"/>
   </g>
   <g id="line2d_24">
    <path d="M 154.405977 257.38 
L 154.405977 7.2 
" clip-path="url(#p7eccb31d8c)" style="fill: none; stroke: #000000; stroke-width: 0.4; stroke-linecap: square"/>
   </g>
   <g id="patch_3">
    <path d="M 49.432813 257.38 
L 49.432813 7.2 
" style="fill: none; stroke: #000000; stroke-width: 0.8; stroke-linejoin: miter; stroke-linecap: square"/>
   </g>
   <g id="patch_4">
    <path d="M 272.252813 257.38 
L 272.252813 7.2 
" style="fill: none; stroke: #000000; stroke-width: 0.8; stroke-linejoin: miter; stroke-linecap: square"/>
   </g>
   <g id="patch_5">
    <path d="M 49.432813 257.38 
L 272.252813 257.38 
" style="fill: none; stroke: #000000; stroke-width: 0.8; stroke-linejoin: miter; stroke-linecap: square"/>
   </g>
   <g id="patch_6">
    <path d="M 49.432813 7.2 
L 272.252813 7.2 
" style="fill: none; stroke: #000000; stroke-width: 0.8; stroke-linejoin: miter; stroke-linecap: square"/>
   </g>
  </g>
 </g>
 <defs>
  <clipPath id="p7eccb31d8c">
   <rect x="49.432813" y="7.2" width="222.82" height="250.18"/>
  </clipPath>
 </defs>
</svg>
